<?xml version="1.0" encoding="UTF-8" standalone="no"?><svg xmlns="http://www.w3.org/2000/svg" xmlns:xlink="http://www.w3.org/1999/xlink" contentStyleType="text/css" height="1495px" preserveAspectRatio="none" style="width:2540px;height:1495px;background:#FFFFFF;" version="1.1" viewBox="0 0 2540 1495" width="2540px" zoomAndPan="magnify"><defs/><g><rect fill="#FFFFFF" height="1287.8438" style="stroke:#181818;stroke-width:1.0;" width="10" x="28.5" y="100.1563"/><rect fill="#FFFFFF" height="39.1563" style="stroke:#181818;stroke-width:1.0;" width="10" x="566.5" y="131.3125"/><rect fill="#FFFFFF" height="600.3438" style="stroke:#181818;stroke-width:1.0;" width="10" x="566.5" y="209.625"/><rect fill="#FFFFFF" height="538.875" style="stroke:#181818;stroke-width:1.0;" width="10" x="566.5" y="849.125"/><rect fill="#FFFFFF" height="522.0313" style="stroke:#181818;stroke-width:1.0;" width="10" x="949.5" y="248.7813"/><rect fill="#FFFFFF" height="460.5625" style="stroke:#181818;stroke-width:1.0;" width="10" x="949.5" y="888.2813"/><rect fill="#FFFFFF" height="234.9375" style="stroke:#181818;stroke-width:1.0;" width="10" x="1257.5" y="287.9375"/><rect fill="#FFFFFF" height="169.625" style="stroke:#181818;stroke-width:1.0;" width="10" x="1257.5" y="562.0313"/><rect fill="#FFFFFF" height="39.1563" style="stroke:#181818;stroke-width:1.0;" width="10" x="1448.5" y="366.25"/><rect fill="#FFFFFF" height="39.1563" style="stroke:#181818;stroke-width:1.0;" width="10" x="1659.5" y="444.5625"/><rect fill="#FFFFFF" height="91.3125" style="stroke:#181818;stroke-width:1.0;" width="10" x="1858" y="601.1875"/><rect fill="#FFFFFF" height="91.3125" style="stroke:#181818;stroke-width:1.0;" width="10" x="2094" y="1218.375"/><rect fill="none" height="131.4688" style="stroke:#000000;stroke-width:1.5;" width="342" x="818.5" y="903.2813"/><rect fill="none" height="131.4688" style="stroke:#000000;stroke-width:1.5;" width="434" x="818.5" y="1048.75"/><line style="stroke:#181818;stroke-width:0.5;stroke-dasharray:5.0,5.0;" x1="33" x2="33" y1="90.1563" y2="1406"/><line style="stroke:#181818;stroke-width:0.5;stroke-dasharray:5.0,5.0;" x1="571.5" x2="571.5" y1="90.1563" y2="1406"/><line style="stroke:#181818;stroke-width:0.5;stroke-dasharray:5.0,5.0;" x1="954.5" x2="954.5" y1="90.1563" y2="1406"/><line style="stroke:#181818;stroke-width:0.5;stroke-dasharray:5.0,5.0;" x1="1262.5" x2="1262.5" y1="90.1563" y2="1406"/><line style="stroke:#181818;stroke-width:0.5;stroke-dasharray:5.0,5.0;" x1="1453" x2="1453" y1="90.1563" y2="1406"/><line style="stroke:#181818;stroke-width:0.5;stroke-dasharray:5.0,5.0;" x1="1664" x2="1664" y1="90.1563" y2="1406"/><line style="stroke:#181818;stroke-width:0.5;stroke-dasharray:5.0,5.0;" x1="1863" x2="1863" y1="90.1563" y2="1406"/><line style="stroke:#181818;stroke-width:0.5;stroke-dasharray:5.0,5.0;" x1="2098.5" x2="2098.5" y1="90.1563" y2="1406"/><line style="stroke:#181818;stroke-width:0.5;stroke-dasharray:5.0,5.0;" x1="2508.5" x2="2508.5" y1="90.1563" y2="1406"/><text fill="#000000" font-family="sans-serif" font-size="20" lengthAdjust="spacing" textLength="51" x="5" y="85.7617">Agent</text><ellipse cx="33.5" cy="13.5" fill="#FF0000" rx="8" ry="8" style="stroke:#181818;stroke-width:0.5;"/><path d="M33.5,21.5 L33.5,48.5 M20.5,29.5 L46.5,29.5 M33.5,48.5 L20.5,63.5 M33.5,48.5 L46.5,63.5 " fill="none" style="stroke:#181818;stroke-width:0.5;"/><text fill="#000000" font-family="sans-serif" font-size="20" lengthAdjust="spacing" textLength="51" x="5" y="1425.7617">Agent</text><ellipse cx="33.5" cy="1438.6563" fill="#FF0000" rx="8" ry="8" style="stroke:#181818;stroke-width:0.5;"/><path d="M33.5,1446.6563 L33.5,1473.6563 M20.5,1454.6563 L46.5,1454.6563 M33.5,1473.6563 L20.5,1488.6563 M33.5,1473.6563 L46.5,1488.6563 " fill="none" style="stroke:#181818;stroke-width:0.5;"/><rect fill="#E2E2F0" height="39.1563" rx="2.5" ry="2.5" style="stroke:#181818;stroke-width:0.5;" width="186" x="478.5" y="50"/><text fill="#000000" font-family="sans-serif" font-size="20" lengthAdjust="spacing" textLength="172" x="485.5" y="77.7617">BookingRequestsUI</text><rect fill="#E2E2F0" height="39.1563" rx="2.5" ry="2.5" style="stroke:#181818;stroke-width:0.5;" width="186" x="478.5" y="1405"/><text fill="#000000" font-family="sans-serif" font-size="20" lengthAdjust="spacing" textLength="172" x="485.5" y="1432.7617">BookingRequestsUI</text><rect fill="#E2E2F0" height="39.1563" rx="2.5" ry="2.5" style="stroke:#181818;stroke-width:0.5;" width="252" x="828.5" y="50"/><text fill="#000000" font-family="sans-serif" font-size="20" lengthAdjust="spacing" textLength="238" x="835.5" y="77.7617">BookingRequestsController</text><rect fill="#E2E2F0" height="39.1563" rx="2.5" ry="2.5" style="stroke:#181818;stroke-width:0.5;" width="252" x="828.5" y="1405"/><text fill="#000000" font-family="sans-serif" font-size="20" lengthAdjust="spacing" textLength="238" x="835.5" y="1432.7617">BookingRequestsController</text><rect fill="#E2E2F0" height="39.1563" rx="2.5" ry="2.5" style="stroke:#181818;stroke-width:0.5;" width="124" x="1200.5" y="50"/><text fill="#000000" font-family="sans-serif" font-size="20" lengthAdjust="spacing" textLength="110" x="1207.5" y="77.7617">Repositories</text><rect fill="#E2E2F0" height="39.1563" rx="2.5" ry="2.5" style="stroke:#181818;stroke-width:0.5;" width="124" x="1200.5" y="1405"/><text fill="#000000" font-family="sans-serif" font-size="20" lengthAdjust="spacing" textLength="110" x="1207.5" y="1432.7617">Repositories</text><rect fill="#E2E2F0" height="39.1563" rx="2.5" ry="2.5" style="stroke:#181818;stroke-width:0.5;" width="171" x="1368" y="50"/><text fill="#000000" font-family="sans-serif" font-size="20" lengthAdjust="spacing" textLength="157" x="1375" y="77.7617">PersonRepository</text><rect fill="#E2E2F0" height="39.1563" rx="2.5" ry="2.5" style="stroke:#181818;stroke-width:0.5;" width="171" x="1368" y="1405"/><text fill="#000000" font-family="sans-serif" font-size="20" lengthAdjust="spacing" textLength="157" x="1375" y="1432.7617">PersonRepository</text><rect fill="#E2E2F0" height="39.1563" rx="2.5" ry="2.5" style="stroke:#181818;stroke-width:0.5;" width="231" x="1549" y="50"/><text fill="#000000" font-family="sans-serif" font-size="20" lengthAdjust="spacing" textLength="217" x="1556" y="77.7617">AuthenticationRepository</text><rect fill="#E2E2F0" height="39.1563" rx="2.5" ry="2.5" style="stroke:#181818;stroke-width:0.5;" width="231" x="1549" y="1405"/><text fill="#000000" font-family="sans-serif" font-size="20" lengthAdjust="spacing" textLength="217" x="1556" y="1432.7617">AuthenticationRepository</text><rect fill="#E2E2F0" height="39.1563" rx="2.5" ry="2.5" style="stroke:#181818;stroke-width:0.5;" width="146" x="1790" y="50"/><text fill="#000000" font-family="sans-serif" font-size="20" lengthAdjust="spacing" textLength="132" x="1797" y="77.7617">VisitRepository</text><rect fill="#E2E2F0" height="39.1563" rx="2.5" ry="2.5" style="stroke:#181818;stroke-width:0.5;" width="146" x="1790" y="1405"/><text fill="#000000" font-family="sans-serif" font-size="20" lengthAdjust="spacing" textLength="132" x="1797" y="1432.7617">VisitRepository</text><rect fill="#E2E2F0" height="39.1563" rx="2.5" ry="2.5" style="stroke:#181818;stroke-width:0.5;" width="119" x="2039.5" y="50"/><text fill="#000000" font-family="sans-serif" font-size="20" lengthAdjust="spacing" textLength="105" x="2046.5" y="77.7617">VisitMapper</text><rect fill="#E2E2F0" height="39.1563" rx="2.5" ry="2.5" style="stroke:#181818;stroke-width:0.5;" width="119" x="2039.5" y="1405"/><text fill="#000000" font-family="sans-serif" font-size="20" lengthAdjust="spacing" textLength="105" x="2046.5" y="1432.7617">VisitMapper</text><rect fill="#E2E2F0" height="39.1563" rx="2.5" ry="2.5" style="stroke:#181818;stroke-width:0.5;" width="51" x="2483.5" y="50"/><text fill="#000000" font-family="sans-serif" font-size="20" lengthAdjust="spacing" textLength="37" x="2490.5" y="77.7617">Visit</text><rect fill="#E2E2F0" height="39.1563" rx="2.5" ry="2.5" style="stroke:#181818;stroke-width:0.5;" width="51" x="2483.5" y="1405"/><text fill="#000000" font-family="sans-serif" font-size="20" lengthAdjust="spacing" textLength="37" x="2490.5" y="1432.7617">Visit</text><rect fill="#FFFFFF" height="1287.8438" style="stroke:#181818;stroke-width:1.0;" width="10" x="28.5" y="100.1563"/><rect fill="#FFFFFF" height="39.1563" style="stroke:#181818;stroke-width:1.0;" width="10" x="566.5" y="131.3125"/><rect fill="#FFFFFF" height="600.3438" style="stroke:#181818;stroke-width:1.0;" width="10" x="566.5" y="209.625"/><rect fill="#FFFFFF" height="538.875" style="stroke:#181818;stroke-width:1.0;" width="10" x="566.5" y="849.125"/><rect fill="#FFFFFF" height="522.0313" style="stroke:#181818;stroke-width:1.0;" width="10" x="949.5" y="248.7813"/><rect fill="#FFFFFF" height="460.5625" style="stroke:#181818;stroke-width:1.0;" width="10" x="949.5" y="888.2813"/><rect fill="#FFFFFF" height="234.9375" style="stroke:#181818;stroke-width:1.0;" width="10" x="1257.5" y="287.9375"/><rect fill="#FFFFFF" height="169.625" style="stroke:#181818;stroke-width:1.0;" width="10" x="1257.5" y="562.0313"/><rect fill="#FFFFFF" height="39.1563" style="stroke:#181818;stroke-width:1.0;" width="10" x="1448.5" y="366.25"/><rect fill="#FFFFFF" height="39.1563" style="stroke:#181818;stroke-width:1.0;" width="10" x="1659.5" y="444.5625"/><rect fill="#FFFFFF" height="91.3125" style="stroke:#181818;stroke-width:1.0;" width="10" x="1858" y="601.1875"/><rect fill="#FFFFFF" height="91.3125" style="stroke:#181818;stroke-width:1.0;" width="10" x="2094" y="1218.375"/><polygon fill="#181818" points="554.5,127.3125,564.5,131.3125,554.5,135.3125,558.5,131.3125" style="stroke:#181818;stroke-width:1.0;"/><line style="stroke:#181818;stroke-width:1.0;" x1="38.5" x2="560.5" y1="131.3125" y2="131.3125"/><text fill="#000000" font-family="sans-serif" font-size="20" font-weight="bold" lengthAdjust="spacing" textLength="11" x="45.5" y="124.918">1</text><text fill="#000000" font-family="sans-serif" font-size="20" lengthAdjust="spacing" textLength="494" x="60.5" y="124.918">asks to see the list of booking requests managed by him</text><polygon fill="#181818" points="49.5,166.4688,39.5,170.4688,49.5,174.4688,45.5,170.4688" style="stroke:#181818;stroke-width:1.0;"/><line style="stroke:#181818;stroke-width:1.0;stroke-dasharray:2.0,2.0;" x1="43.5" x2="570.5" y1="170.4688" y2="170.4688"/><text fill="#000000" font-family="sans-serif" font-size="20" font-weight="bold" lengthAdjust="spacing" textLength="11" x="55.5" y="164.0742">2</text><text fill="#000000" font-family="sans-serif" font-size="20" lengthAdjust="spacing" textLength="441" x="70.5" y="164.0742">requests the data period (start date and end date)</text><polygon fill="#181818" points="554.5,205.625,564.5,209.625,554.5,213.625,558.5,209.625" style="stroke:#181818;stroke-width:1.0;"/><line style="stroke:#181818;stroke-width:1.0;" x1="38.5" x2="560.5" y1="209.625" y2="209.625"/><text fill="#000000" font-family="sans-serif" font-size="20" font-weight="bold" lengthAdjust="spacing" textLength="11" x="45.5" y="203.2305">3</text><text fill="#000000" font-family="sans-serif" font-size="20" lengthAdjust="spacing" textLength="187" x="60.5" y="203.2305">types requested data</text><polygon fill="#181818" points="937.5,244.7813,947.5,248.7813,937.5,252.7813,941.5,248.7813" style="stroke:#181818;stroke-width:1.0;"/><line style="stroke:#181818;stroke-width:1.0;" x1="576.5" x2="943.5" y1="248.7813" y2="248.7813"/><text fill="#000000" font-family="sans-serif" font-size="20" font-weight="bold" lengthAdjust="spacing" textLength="11" x="583.5" y="242.3867">4</text><text fill="#000000" font-family="sans-serif" font-size="20" lengthAdjust="spacing" textLength="169" x="598.5" y="242.3867">getCurrentPerson()</text><polygon fill="#181818" points="1245.5,283.9375,1255.5,287.9375,1245.5,291.9375,1249.5,287.9375" style="stroke:#181818;stroke-width:1.0;"/><line style="stroke:#181818;stroke-width:1.0;" x1="959.5" x2="1251.5" y1="287.9375" y2="287.9375"/><text fill="#000000" font-family="sans-serif" font-size="20" font-weight="bold" lengthAdjust="spacing" textLength="11" x="966.5" y="281.543">5</text><text fill="#000000" font-family="sans-serif" font-size="20" lengthAdjust="spacing" textLength="199" x="981.5" y="281.543">getPersonRepository()</text><polygon fill="#181818" points="1245.5,323.0938,1255.5,327.0938,1245.5,331.0938,1249.5,327.0938" style="stroke:#181818;stroke-width:1.0;"/><line style="stroke:#181818;stroke-width:1.0;" x1="959.5" x2="1251.5" y1="327.0938" y2="327.0938"/><text fill="#000000" font-family="sans-serif" font-size="20" font-weight="bold" lengthAdjust="spacing" textLength="11" x="966.5" y="320.6992">6</text><text fill="#000000" font-family="sans-serif" font-size="20" lengthAdjust="spacing" textLength="259" x="981.5" y="320.6992">getAuthenticationRepository()</text><polygon fill="#181818" points="1436.5,362.25,1446.5,366.25,1436.5,370.25,1440.5,366.25" style="stroke:#181818;stroke-width:1.0;"/><line style="stroke:#181818;stroke-width:1.0;" x1="1267.5" x2="1442.5" y1="366.25" y2="366.25"/><text fill="#000000" font-family="sans-serif" font-size="20" font-weight="bold" lengthAdjust="spacing" textLength="11" x="1274.5" y="359.8555">7</text><text fill="#000000" font-family="sans-serif" font-size="20" lengthAdjust="spacing" textLength="147" x="1289.5" y="359.8555">getPersonByID()</text><polygon fill="#181818" points="1278.5,401.4063,1268.5,405.4063,1278.5,409.4063,1274.5,405.4063" style="stroke:#181818;stroke-width:1.0;"/><line style="stroke:#181818;stroke-width:1.0;stroke-dasharray:2.0,2.0;" x1="1272.5" x2="1452.5" y1="405.4063" y2="405.4063"/><text fill="#000000" font-family="sans-serif" font-size="20" font-weight="bold" lengthAdjust="spacing" textLength="11" x="1284.5" y="399.0117">8</text><text fill="#000000" font-family="sans-serif" font-size="20" lengthAdjust="spacing" textLength="60" x="1299.5" y="399.0117">person</text><polygon fill="#181818" points="1647.5,440.5625,1657.5,444.5625,1647.5,448.5625,1651.5,444.5625" style="stroke:#181818;stroke-width:1.0;"/><line style="stroke:#181818;stroke-width:1.0;" x1="1267.5" x2="1653.5" y1="444.5625" y2="444.5625"/><text fill="#000000" font-family="sans-serif" font-size="20" font-weight="bold" lengthAdjust="spacing" textLength="11" x="1274.5" y="438.168">9</text><text fill="#000000" font-family="sans-serif" font-size="20" lengthAdjust="spacing" textLength="323" x="1289.5" y="438.168">getCurrentUserSession().getUserId()</text><polygon fill="#181818" points="1278.5,479.7188,1268.5,483.7188,1278.5,487.7188,1274.5,483.7188" style="stroke:#181818;stroke-width:1.0;"/><line style="stroke:#181818;stroke-width:1.0;stroke-dasharray:2.0,2.0;" x1="1272.5" x2="1663.5" y1="483.7188" y2="483.7188"/><text fill="#000000" font-family="sans-serif" font-size="20" font-weight="bold" lengthAdjust="spacing" textLength="22" x="1284.5" y="477.3242">10</text><text fill="#000000" font-family="sans-serif" font-size="20" lengthAdjust="spacing" textLength="58" x="1310.5" y="477.3242">userID</text><polygon fill="#181818" points="970.5,518.875,960.5,522.875,970.5,526.875,966.5,522.875" style="stroke:#181818;stroke-width:1.0;"/><line style="stroke:#181818;stroke-width:1.0;stroke-dasharray:2.0,2.0;" x1="964.5" x2="1261.5" y1="522.875" y2="522.875"/><text fill="#000000" font-family="sans-serif" font-size="20" font-weight="bold" lengthAdjust="spacing" textLength="22" x="976.5" y="516.4805">11</text><text fill="#000000" font-family="sans-serif" font-size="20" lengthAdjust="spacing" textLength="113" x="1002.5" y="516.4805">person by ID</text><polygon fill="#181818" points="1245.5,558.0313,1255.5,562.0313,1245.5,566.0313,1249.5,562.0313" style="stroke:#181818;stroke-width:1.0;"/><line style="stroke:#181818;stroke-width:1.0;" x1="959.5" x2="1251.5" y1="562.0313" y2="562.0313"/><text fill="#000000" font-family="sans-serif" font-size="20" font-weight="bold" lengthAdjust="spacing" textLength="22" x="966.5" y="555.6367">12</text><text fill="#000000" font-family="sans-serif" font-size="20" lengthAdjust="spacing" textLength="174" x="992.5" y="555.6367">getVisitRepository()</text><polygon fill="#181818" points="1846,597.1875,1856,601.1875,1846,605.1875,1850,601.1875" style="stroke:#181818;stroke-width:1.0;"/><line style="stroke:#181818;stroke-width:1.0;" x1="1267.5" x2="1852" y1="601.1875" y2="601.1875"/><text fill="#000000" font-family="sans-serif" font-size="20" font-weight="bold" lengthAdjust="spacing" textLength="22" x="1274.5" y="594.793">13</text><text fill="#000000" font-family="sans-serif" font-size="20" lengthAdjust="spacing" textLength="279" x="1300.5" y="594.793">getVisitsByAgentList(employee)</text><line style="stroke:#181818;stroke-width:1.0;" x1="1868" x2="1910" y1="640.3438" y2="640.3438"/><line style="stroke:#181818;stroke-width:1.0;" x1="1910" x2="1910" y1="640.3438" y2="653.3438"/><line style="stroke:#181818;stroke-width:1.0;" x1="1869" x2="1910" y1="653.3438" y2="653.3438"/><polygon fill="#181818" points="1879,649.3438,1869,653.3438,1879,657.3438,1875,653.3438" style="stroke:#181818;stroke-width:1.0;"/><text fill="#000000" font-family="sans-serif" font-size="20" font-weight="bold" lengthAdjust="spacing" textLength="22" x="1875" y="633.9492">14</text><text fill="#000000" font-family="sans-serif" font-size="20" lengthAdjust="spacing" textLength="186" x="1901" y="633.9492">getAgentByVisit(visit)</text><polygon fill="#181818" points="1278.5,688.5,1268.5,692.5,1278.5,696.5,1274.5,692.5" style="stroke:#181818;stroke-width:1.0;"/><line style="stroke:#181818;stroke-width:1.0;stroke-dasharray:2.0,2.0;" x1="1272.5" x2="1862" y1="692.5" y2="692.5"/><text fill="#000000" font-family="sans-serif" font-size="20" font-weight="bold" lengthAdjust="spacing" textLength="22" x="1284.5" y="686.1055">15</text><text fill="#000000" font-family="sans-serif" font-size="20" lengthAdjust="spacing" textLength="162" x="1310.5" y="686.1055">visits by agent List</text><polygon fill="#181818" points="970.5,727.6563,960.5,731.6563,970.5,735.6563,966.5,731.6563" style="stroke:#181818;stroke-width:1.0;"/><line style="stroke:#181818;stroke-width:1.0;stroke-dasharray:2.0,2.0;" x1="964.5" x2="1261.5" y1="731.6563" y2="731.6563"/><text fill="#000000" font-family="sans-serif" font-size="20" font-weight="bold" lengthAdjust="spacing" textLength="22" x="976.5" y="725.2617">16</text><text fill="#000000" font-family="sans-serif" font-size="20" lengthAdjust="spacing" textLength="170" x="1002.5" y="725.2617">Visits By Agent List</text><polygon fill="#181818" points="587.5,766.8125,577.5,770.8125,587.5,774.8125,583.5,770.8125" style="stroke:#181818;stroke-width:1.0;"/><line style="stroke:#181818;stroke-width:1.0;stroke-dasharray:2.0,2.0;" x1="581.5" x2="953.5" y1="770.8125" y2="770.8125"/><text fill="#000000" font-family="sans-serif" font-size="20" font-weight="bold" lengthAdjust="spacing" textLength="22" x="593.5" y="764.418">17</text><text fill="#000000" font-family="sans-serif" font-size="20" lengthAdjust="spacing" textLength="323" x="619.5" y="764.418">getVisitsByDate(getCurrentPerson())</text><polygon fill="#181818" points="49.5,805.9688,39.5,809.9688,49.5,813.9688,45.5,809.9688" style="stroke:#181818;stroke-width:1.0;"/><line style="stroke:#181818;stroke-width:1.0;stroke-dasharray:2.0,2.0;" x1="43.5" x2="570.5" y1="809.9688" y2="809.9688"/><text fill="#000000" font-family="sans-serif" font-size="20" font-weight="bold" lengthAdjust="spacing" textLength="22" x="55.5" y="803.5742">18</text><text fill="#000000" font-family="sans-serif" font-size="20" lengthAdjust="spacing" textLength="275" x="81.5" y="803.5742">shows the booking requests list</text><polygon fill="#181818" points="554.5,845.125,564.5,849.125,554.5,853.125,558.5,849.125" style="stroke:#181818;stroke-width:1.0;"/><line style="stroke:#181818;stroke-width:1.0;" x1="38.5" x2="560.5" y1="849.125" y2="849.125"/><text fill="#000000" font-family="sans-serif" font-size="20" font-weight="bold" lengthAdjust="spacing" textLength="22" x="45.5" y="842.7305">19</text><text fill="#000000" font-family="sans-serif" font-size="20" lengthAdjust="spacing" textLength="246" x="71.5" y="842.7305">selects the sorting algorithm</text><polygon fill="#181818" points="937.5,884.2813,947.5,888.2813,937.5,892.2813,941.5,888.2813" style="stroke:#181818;stroke-width:1.0;"/><line style="stroke:#181818;stroke-width:1.0;" x1="576.5" x2="943.5" y1="888.2813" y2="888.2813"/><text fill="#000000" font-family="sans-serif" font-size="20" font-weight="bold" lengthAdjust="spacing" textLength="22" x="583.5" y="881.8867">20</text><text fill="#000000" font-family="sans-serif" font-size="20" lengthAdjust="spacing" textLength="155" x="609.5" y="881.8867">selectedSortType</text><path d="M818.5,903.2813 L894.5,903.2813 L894.5,920.4375 L884.5,930.4375 L818.5,930.4375 L818.5,903.2813 " fill="#EEEEEE" style="stroke:#000000;stroke-width:1.5;"/><rect fill="none" height="131.4688" style="stroke:#000000;stroke-width:1.5;" width="342" x="818.5" y="903.2813"/><text fill="#000000" font-family="sans-serif" font-size="20" font-weight="bold" lengthAdjust="spacing" textLength="31" x="833.5" y="925.043">opt</text><line style="stroke:#181818;stroke-width:1.0;" x1="959.5" x2="1001.5" y1="961.5938" y2="961.5938"/><line style="stroke:#181818;stroke-width:1.0;" x1="1001.5" x2="1001.5" y1="961.5938" y2="974.5938"/><line style="stroke:#181818;stroke-width:1.0;" x1="960.5" x2="1001.5" y1="974.5938" y2="974.5938"/><polygon fill="#181818" points="970.5,970.5938,960.5,974.5938,970.5,978.5938,966.5,974.5938" style="stroke:#181818;stroke-width:1.0;"/><text fill="#000000" font-family="sans-serif" font-size="20" font-weight="bold" lengthAdjust="spacing" textLength="22" x="966.5" y="955.1992">21</text><text fill="#000000" font-family="sans-serif" font-size="20" lengthAdjust="spacing" textLength="156" x="992.5" y="955.1992">bubbleSort(Visits)</text><line style="stroke:#181818;stroke-width:1.0;" x1="959.5" x2="1001.5" y1="1013.75" y2="1013.75"/><line style="stroke:#181818;stroke-width:1.0;" x1="1001.5" x2="1001.5" y1="1013.75" y2="1026.75"/><line style="stroke:#181818;stroke-width:1.0;" x1="960.5" x2="1001.5" y1="1026.75" y2="1026.75"/><polygon fill="#181818" points="970.5,1022.75,960.5,1026.75,970.5,1030.75,966.5,1026.75" style="stroke:#181818;stroke-width:1.0;"/><text fill="#000000" font-family="sans-serif" font-size="20" font-weight="bold" lengthAdjust="spacing" textLength="22" x="966.5" y="1007.3555">22</text><text fill="#000000" font-family="sans-serif" font-size="20" lengthAdjust="spacing" textLength="43" x="992.5" y="1007.3555">visits</text><path d="M818.5,1048.75 L894.5,1048.75 L894.5,1065.9063 L884.5,1075.9063 L818.5,1075.9063 L818.5,1048.75 " fill="#EEEEEE" style="stroke:#000000;stroke-width:1.5;"/><rect fill="none" height="131.4688" style="stroke:#000000;stroke-width:1.5;" width="434" x="818.5" y="1048.75"/><text fill="#000000" font-family="sans-serif" font-size="20" font-weight="bold" lengthAdjust="spacing" textLength="31" x="833.5" y="1070.5117">opt</text><line style="stroke:#181818;stroke-width:1.0;" x1="959.5" x2="1001.5" y1="1107.0625" y2="1107.0625"/><line style="stroke:#181818;stroke-width:1.0;" x1="1001.5" x2="1001.5" y1="1107.0625" y2="1120.0625"/><line style="stroke:#181818;stroke-width:1.0;" x1="960.5" x2="1001.5" y1="1120.0625" y2="1120.0625"/><polygon fill="#181818" points="970.5,1116.0625,960.5,1120.0625,970.5,1124.0625,966.5,1120.0625" style="stroke:#181818;stroke-width:1.0;"/><text fill="#000000" font-family="sans-serif" font-size="20" font-weight="bold" lengthAdjust="spacing" textLength="22" x="966.5" y="1100.668">23</text><text fill="#000000" font-family="sans-serif" font-size="20" lengthAdjust="spacing" textLength="248" x="992.5" y="1100.668">bubbleSortDescending(Visit)</text><line style="stroke:#181818;stroke-width:1.0;" x1="959.5" x2="1001.5" y1="1159.2188" y2="1159.2188"/><line style="stroke:#181818;stroke-width:1.0;" x1="1001.5" x2="1001.5" y1="1159.2188" y2="1172.2188"/><line style="stroke:#181818;stroke-width:1.0;" x1="960.5" x2="1001.5" y1="1172.2188" y2="1172.2188"/><polygon fill="#181818" points="970.5,1168.2188,960.5,1172.2188,970.5,1176.2188,966.5,1172.2188" style="stroke:#181818;stroke-width:1.0;"/><text fill="#000000" font-family="sans-serif" font-size="20" font-weight="bold" lengthAdjust="spacing" textLength="22" x="966.5" y="1152.8242">24</text><text fill="#000000" font-family="sans-serif" font-size="20" lengthAdjust="spacing" textLength="43" x="992.5" y="1152.8242">visits</text><polygon fill="#181818" points="2082,1214.375,2092,1218.375,2082,1222.375,2086,1218.375" style="stroke:#181818;stroke-width:1.0;"/><line style="stroke:#181818;stroke-width:1.0;" x1="959.5" x2="2088" y1="1218.375" y2="1218.375"/><text fill="#000000" font-family="sans-serif" font-size="20" font-weight="bold" lengthAdjust="spacing" textLength="22" x="966.5" y="1211.9805">25</text><text fill="#000000" font-family="sans-serif" font-size="20" lengthAdjust="spacing" textLength="105" x="992.5" y="1211.9805">toDto(visits)</text><line style="stroke:#181818;stroke-width:1.0;" x1="2104" x2="2146" y1="1257.5313" y2="1257.5313"/><line style="stroke:#181818;stroke-width:1.0;" x1="2146" x2="2146" y1="1257.5313" y2="1270.5313"/><line style="stroke:#181818;stroke-width:1.0;" x1="2105" x2="2146" y1="1270.5313" y2="1270.5313"/><polygon fill="#181818" points="2115,1266.5313,2105,1270.5313,2115,1274.5313,2111,1270.5313" style="stroke:#181818;stroke-width:1.0;"/><text fill="#000000" font-family="sans-serif" font-size="20" font-weight="bold" lengthAdjust="spacing" textLength="22" x="2111" y="1251.1367">26</text><text fill="#000000" font-family="sans-serif" font-size="20" lengthAdjust="spacing" textLength="360" x="2137" y="1251.1367">visitsDTO: List&lt;VisitDTO&gt; = toDto(visits)</text><polygon fill="#181818" points="970.5,1305.6875,960.5,1309.6875,970.5,1313.6875,966.5,1309.6875" style="stroke:#181818;stroke-width:1.0;"/><line style="stroke:#181818;stroke-width:1.0;stroke-dasharray:2.0,2.0;" x1="964.5" x2="2098" y1="1309.6875" y2="1309.6875"/><text fill="#000000" font-family="sans-serif" font-size="20" font-weight="bold" lengthAdjust="spacing" textLength="22" x="976.5" y="1303.293">27</text><text fill="#000000" font-family="sans-serif" font-size="20" lengthAdjust="spacing" textLength="85" x="1002.5" y="1303.293">visitsDTO</text><polygon fill="#181818" points="587.5,1344.8438,577.5,1348.8438,587.5,1352.8438,583.5,1348.8438" style="stroke:#181818;stroke-width:1.0;"/><line style="stroke:#181818;stroke-width:1.0;stroke-dasharray:2.0,2.0;" x1="581.5" x2="953.5" y1="1348.8438" y2="1348.8438"/><text fill="#000000" font-family="sans-serif" font-size="20" font-weight="bold" lengthAdjust="spacing" textLength="22" x="593.5" y="1342.4492">28</text><text fill="#000000" font-family="sans-serif" font-size="20" lengthAdjust="spacing" textLength="160" x="619.5" y="1342.4492">getObservableList</text><polygon fill="#181818" points="44.5,1384,34.5,1388,44.5,1392,40.5,1388" style="stroke:#181818;stroke-width:1.0;"/><line style="stroke:#181818;stroke-width:1.0;stroke-dasharray:2.0,2.0;" x1="38.5" x2="570.5" y1="1388" y2="1388"/><text fill="#000000" font-family="sans-serif" font-size="20" font-weight="bold" lengthAdjust="spacing" textLength="22" x="50.5" y="1381.6055">29</text><text fill="#000000" font-family="sans-serif" font-size="20" lengthAdjust="spacing" textLength="434" x="76.5" y="1381.6055">show all booking requests with the sorted method</text><!--SRC=[VPHDRzim38Rl-XL4TrXow33iM6m5d6OR0hHeaA-xRBEs4DdoBBcTz-j7INOissa3943ivwL8lgJqMPGLhtaXLNB6559yuOqqlrHfzk8VmhUlJFS85AfKILwh0k65Iut1guedPvxXthGIeSR4y3AJ8Q1pdgetKMQTbF76gB8fOgmP-voBb68gPMBrb_74g1fkeWnBSmDSG_Jx09zgJ1c5CY8H5IyDtAoKekZP3lyqg8q-RXnxt7n8FL1XjP8IQqS_77QFOtw7bTA24X2e7RBxkHqJMworAYzSwwZj38iQarC18k56pF1eXfy4lPvGf-lK4w-gBl_JKtIDyEyOVQYNufKRj3rap3Rozfvw17T4d3KO1HeHA5EGGXjGBn3xXf69lcDGy9ASJI5k8HV5494wpIZIBGMqSUy6XGsNSiE1qXGgXOKsbA9zXC3B592-zi-IfJWAHt7wz4nReUv3ekFv_Enxvo3X6Pg7fgwfuTwUnNA0dSdqSIX9gAjUCNKo5DdMpmJlUKf2PY5YjvFegtQp3kEwGM6Eeivvk79as0nFTI4ZHmqL7ZNMUzHQs3A_q7FxO9E6fxZvOb5tIbT0Ox5rU4mq73EqqcTZxHx3ZfsrP3AtqnRsDPp60hrgtNe_qj0jiAYaQX43gPjyTWh4llzMisfTYCMh_Ltsr2KdzrZRzBcbmHuHbd6wLhDF2bOjH5T5GUtzW0Qbh0bPp2TmDDv-28-ROLrqhjxyhinMJawExtRZihiQ9LsnNgmLRJ-9kSpeqZBvR4E7AhqCqpr93hHVanLHbRdusodY9eubMdxXYrrE2TzkHYlziNwDEY68ClMHFWhKlx6tcxqArDeeRxSEPyJUVSmn5zP3wyFpdRFmkpkA_jx3ZqaOhviUJ-XeLjmHbWXjVuvfaLuv5JOTazxa_bBq9fCrSkxn6tbrCP0kk09DhjA9w-6kqWN-7m00]--></g></svg>