<?xml version="1.0" encoding="UTF-8" standalone="no"?><svg xmlns="http://www.w3.org/2000/svg" xmlns:xlink="http://www.w3.org/1999/xlink" contentStyleType="text/css" height="917px" preserveAspectRatio="none" style="width:1061px;height:917px;background:#FFFFFF;" version="1.1" viewBox="0 0 1061 917" width="1061px" zoomAndPan="magnify"><defs/><g><!--class BookingRequestsUI--><g id="elem_BookingRequestsUI"><rect codeLine="17" fill="#FFDAB9" height="51.1563" id="BookingRequestsUI" rx="2.5" ry="2.5" style="stroke:#4169E1;stroke-width:0.5;" width="206" x="7" y="57.5"/><ellipse cx="23" cy="75.0781" fill="#ADD1B2" rx="12" ry="12" style="stroke:#181818;stroke-width:1.0;"/><path d="M25.1406,70 Q25.3281,69.75 25.5469,69.625 Q25.7656,69.4844 26.0156,69.4844 Q26.4531,69.4844 26.7344,69.7969 Q27.0156,70.0938 27.0156,70.8125 L27.0156,72.5156 Q27.0156,73.2344 26.7344,73.5469 Q26.4531,73.8594 26.0156,73.8594 Q25.625,73.8594 25.375,73.625 Q25.125,73.4063 25.0156,72.7969 Q24.9531,72.375 24.7344,72.1563 Q24.3438,71.7188 23.625,71.4531 Q22.9063,71.1875 22.1875,71.1875 Q21.2813,71.1875 20.5313,71.5781 Q19.7813,71.9688 19.2031,72.8594 Q18.625,73.7344 18.625,74.9375 L18.625,76.2344 Q18.625,77.6875 19.6719,78.6563 Q20.7344,79.625 22.5938,79.625 Q23.7031,79.625 24.4844,79.3125 Q24.9219,79.1406 25.4375,78.625 Q25.75,78.3125 25.9219,78.2188 Q26.0938,78.125 26.3281,78.125 Q26.7188,78.125 27.0156,78.4375 Q27.3281,78.7344 27.3281,79.1406 Q27.3281,79.5469 26.9219,80.0156 Q26.3281,80.7031 25.3906,81.0938 Q24.125,81.625 22.6094,81.625 Q20.8281,81.625 19.4063,80.8906 Q18.25,80.2969 17.4375,79.0313 Q16.625,77.7656 16.625,76.2813 L16.625,74.9219 Q16.625,73.3594 17.3438,72.0156 Q18.0781,70.6563 19.3594,69.9219 Q20.6563,69.1875 22.1094,69.1875 Q22.9688,69.1875 23.7188,69.3906 Q24.4844,69.5938 25.1406,70 Z " fill="#000000"/><text fill="#000000" font-family="sans-serif" font-size="20" lengthAdjust="spacing" textLength="172" x="38" y="83.2617">BookingRequestsUI</text><line style="stroke:#4169E1;stroke-width:0.5;" x1="8" x2="212" y1="92.6563" y2="92.6563"/><line style="stroke:#4169E1;stroke-width:0.5;" x1="8" x2="212" y1="100.6563" y2="100.6563"/></g><!--class BookingRequestsController--><g id="elem_BookingRequestsController"><rect codeLine="20" fill="#FFDAB9" height="151.7813" id="BookingRequestsController" rx="2.5" ry="2.5" style="stroke:#4169E1;stroke-width:0.5;" width="274" x="248" y="7"/><ellipse cx="264.9" cy="24.5781" fill="#ADD1B2" rx="12" ry="12" style="stroke:#181818;stroke-width:1.0;"/><path d="M267.0406,19.5 Q267.2281,19.25 267.4469,19.125 Q267.6656,18.9844 267.9156,18.9844 Q268.3531,18.9844 268.6344,19.2969 Q268.9156,19.5938 268.9156,20.3125 L268.9156,22.0156 Q268.9156,22.7344 268.6344,23.0469 Q268.3531,23.3594 267.9156,23.3594 Q267.525,23.3594 267.275,23.125 Q267.025,22.9063 266.9156,22.2969 Q266.8531,21.875 266.6344,21.6563 Q266.2438,21.2188 265.525,20.9531 Q264.8063,20.6875 264.0875,20.6875 Q263.1813,20.6875 262.4313,21.0781 Q261.6813,21.4688 261.1031,22.3594 Q260.525,23.2344 260.525,24.4375 L260.525,25.7344 Q260.525,27.1875 261.5719,28.1563 Q262.6344,29.125 264.4938,29.125 Q265.6031,29.125 266.3844,28.8125 Q266.8219,28.6406 267.3375,28.125 Q267.65,27.8125 267.8219,27.7188 Q267.9938,27.625 268.2281,27.625 Q268.6188,27.625 268.9156,27.9375 Q269.2281,28.2344 269.2281,28.6406 Q269.2281,29.0469 268.8219,29.5156 Q268.2281,30.2031 267.2906,30.5938 Q266.025,31.125 264.5094,31.125 Q262.7281,31.125 261.3063,30.3906 Q260.15,29.7969 259.3375,28.5313 Q258.525,27.2656 258.525,25.7813 L258.525,24.4219 Q258.525,22.8594 259.2438,21.5156 Q259.9781,20.1563 261.2594,19.4219 Q262.5563,18.6875 264.0094,18.6875 Q264.8688,18.6875 265.6188,18.8906 Q266.3844,19.0938 267.0406,19.5 Z " fill="#000000"/><text fill="#000000" font-family="sans-serif" font-size="20" lengthAdjust="spacing" textLength="238" x="280.1" y="32.7617">BookingRequestsController</text><line style="stroke:#4169E1;stroke-width:0.5;" x1="249" x2="521" y1="42.1563" y2="42.1563"/><line style="stroke:#4169E1;stroke-width:0.5;" x1="249" x2="521" y1="50.1563" y2="50.1563"/><text fill="#000000" font-family="sans-serif" font-size="20" lengthAdjust="spacing" textLength="262" x="254" y="74.918">+bookingRequestsController()</text><text fill="#000000" font-family="sans-serif" font-size="20" lengthAdjust="spacing" textLength="186" x="254" y="100.0742">+getVisitRepository()</text><text fill="#000000" font-family="sans-serif" font-size="20" lengthAdjust="spacing" textLength="181" x="254" y="125.2305">+getCurrentPerson()</text><text fill="#000000" font-family="sans-serif" font-size="20" lengthAdjust="spacing" textLength="166" x="254" y="150.3867">+getVisitsByDate()</text></g><!--class VisitRepository--><g id="elem_VisitRepository"><rect codeLine="27" fill="#FFDAB9" height="126.625" id="VisitRepository" rx="2.5" ry="2.5" style="stroke:#4169E1;stroke-width:0.5;" width="208" x="607" y="245"/><ellipse cx="641.9" cy="262.5781" fill="#ADD1B2" rx="12" ry="12" style="stroke:#181818;stroke-width:1.0;"/><path d="M644.0406,257.5 Q644.2281,257.25 644.4469,257.125 Q644.6656,256.9844 644.9156,256.9844 Q645.3531,256.9844 645.6344,257.2969 Q645.9156,257.5938 645.9156,258.3125 L645.9156,260.0156 Q645.9156,260.7344 645.6344,261.0469 Q645.3531,261.3594 644.9156,261.3594 Q644.525,261.3594 644.275,261.125 Q644.025,260.9063 643.9156,260.2969 Q643.8531,259.875 643.6344,259.6563 Q643.2438,259.2188 642.525,258.9531 Q641.8063,258.6875 641.0875,258.6875 Q640.1813,258.6875 639.4313,259.0781 Q638.6813,259.4688 638.1031,260.3594 Q637.525,261.2344 637.525,262.4375 L637.525,263.7344 Q637.525,265.1875 638.5719,266.1563 Q639.6344,267.125 641.4938,267.125 Q642.6031,267.125 643.3844,266.8125 Q643.8219,266.6406 644.3375,266.125 Q644.65,265.8125 644.8219,265.7188 Q644.9938,265.625 645.2281,265.625 Q645.6188,265.625 645.9156,265.9375 Q646.2281,266.2344 646.2281,266.6406 Q646.2281,267.0469 645.8219,267.5156 Q645.2281,268.2031 644.2906,268.5938 Q643.025,269.125 641.5094,269.125 Q639.7281,269.125 638.3063,268.3906 Q637.15,267.7969 636.3375,266.5313 Q635.525,265.2656 635.525,263.7813 L635.525,262.4219 Q635.525,260.8594 636.2438,259.5156 Q636.9781,258.1563 638.2594,257.4219 Q639.5563,256.6875 641.0094,256.6875 Q641.8688,256.6875 642.6188,256.8906 Q643.3844,257.0938 644.0406,257.5 Z " fill="#000000"/><text fill="#000000" font-family="sans-serif" font-size="20" lengthAdjust="spacing" textLength="132" x="661.1" y="270.7617">VisitRepository</text><line style="stroke:#4169E1;stroke-width:0.5;" x1="608" x2="814" y1="280.1563" y2="280.1563"/><text fill="#000000" font-family="sans-serif" font-size="20" lengthAdjust="spacing" textLength="169" x="613" y="304.918">-List&lt;Visit&gt; visitList</text><line style="stroke:#4169E1;stroke-width:0.5;" x1="608" x2="814" y1="313.3125" y2="313.3125"/><text fill="#000000" font-family="sans-serif" font-size="20" lengthAdjust="spacing" textLength="165" x="613" y="338.0742">+getAgentByVisit()</text><text fill="#000000" font-family="sans-serif" font-size="20" lengthAdjust="spacing" textLength="196" x="613" y="363.2305">+getVisitByAgentList()</text></g><!--class Visit--><g id="elem_Visit"><rect codeLine="33" fill="#FFDAB9" height="126.625" id="Visit" rx="2.5" ry="2.5" style="stroke:#4169E1;stroke-width:0.5;" width="683" x="371.5" y="458"/><ellipse cx="690" cy="475.5781" fill="#ADD1B2" rx="12" ry="12" style="stroke:#181818;stroke-width:1.0;"/><path d="M692.1406,470.5 Q692.3281,470.25 692.5469,470.125 Q692.7656,469.9844 693.0156,469.9844 Q693.4531,469.9844 693.7344,470.2969 Q694.0156,470.5938 694.0156,471.3125 L694.0156,473.0156 Q694.0156,473.7344 693.7344,474.0469 Q693.4531,474.3594 693.0156,474.3594 Q692.625,474.3594 692.375,474.125 Q692.125,473.9063 692.0156,473.2969 Q691.9531,472.875 691.7344,472.6563 Q691.3438,472.2188 690.625,471.9531 Q689.9063,471.6875 689.1875,471.6875 Q688.2813,471.6875 687.5313,472.0781 Q686.7813,472.4688 686.2031,473.3594 Q685.625,474.2344 685.625,475.4375 L685.625,476.7344 Q685.625,478.1875 686.6719,479.1563 Q687.7344,480.125 689.5938,480.125 Q690.7031,480.125 691.4844,479.8125 Q691.9219,479.6406 692.4375,479.125 Q692.75,478.8125 692.9219,478.7188 Q693.0938,478.625 693.3281,478.625 Q693.7188,478.625 694.0156,478.9375 Q694.3281,479.2344 694.3281,479.6406 Q694.3281,480.0469 693.9219,480.5156 Q693.3281,481.2031 692.3906,481.5938 Q691.125,482.125 689.6094,482.125 Q687.8281,482.125 686.4063,481.3906 Q685.25,480.7969 684.4375,479.5313 Q683.625,478.2656 683.625,476.7813 L683.625,475.4219 Q683.625,473.8594 684.3438,472.5156 Q685.0781,471.1563 686.3594,470.4219 Q687.6563,469.6875 689.1094,469.6875 Q689.9688,469.6875 690.7188,469.8906 Q691.4844,470.0938 692.1406,470.5 Z " fill="#000000"/><text fill="#000000" font-family="sans-serif" font-size="20" lengthAdjust="spacing" textLength="37" x="712" y="483.7617">Visit</text><line style="stroke:#4169E1;stroke-width:0.5;" x1="372.5" x2="1053.5" y1="493.1563" y2="493.1563"/><text fill="#000000" font-family="sans-serif" font-size="20" lengthAdjust="spacing" textLength="116" x="377.5" y="517.918">+getProperty</text><text fill="#000000" font-family="sans-serif" font-size="20" lengthAdjust="spacing" textLength="168" x="377.5" y="543.0742">+getAnnouncement</text><line style="stroke:#4169E1;stroke-width:0.5;" x1="372.5" x2="1053.5" y1="551.4688" y2="551.4688"/><text fill="#000000" font-family="sans-serif" font-size="20" lengthAdjust="spacing" textLength="671" x="377.5" y="576.2305">+Visit (property,name,phoneNumber,date,startTime,endTime,announcement)</text></g><!--class Announcement--><g id="elem_Announcement"><rect codeLine="39" fill="#FFDAB9" height="51.1563" id="Announcement" rx="2.5" ry="2.5" style="stroke:#4169E1;stroke-width:0.5;" width="162" x="607" y="721"/><ellipse cx="623" cy="738.5781" fill="#ADD1B2" rx="12" ry="12" style="stroke:#181818;stroke-width:1.0;"/><path d="M625.1406,733.5 Q625.3281,733.25 625.5469,733.125 Q625.7656,732.9844 626.0156,732.9844 Q626.4531,732.9844 626.7344,733.2969 Q627.0156,733.5938 627.0156,734.3125 L627.0156,736.0156 Q627.0156,736.7344 626.7344,737.0469 Q626.4531,737.3594 626.0156,737.3594 Q625.625,737.3594 625.375,737.125 Q625.125,736.9063 625.0156,736.2969 Q624.9531,735.875 624.7344,735.6563 Q624.3438,735.2188 623.625,734.9531 Q622.9063,734.6875 622.1875,734.6875 Q621.2813,734.6875 620.5313,735.0781 Q619.7813,735.4688 619.2031,736.3594 Q618.625,737.2344 618.625,738.4375 L618.625,739.7344 Q618.625,741.1875 619.6719,742.1563 Q620.7344,743.125 622.5938,743.125 Q623.7031,743.125 624.4844,742.8125 Q624.9219,742.6406 625.4375,742.125 Q625.75,741.8125 625.9219,741.7188 Q626.0938,741.625 626.3281,741.625 Q626.7188,741.625 627.0156,741.9375 Q627.3281,742.2344 627.3281,742.6406 Q627.3281,743.0469 626.9219,743.5156 Q626.3281,744.2031 625.3906,744.5938 Q624.125,745.125 622.6094,745.125 Q620.8281,745.125 619.4063,744.3906 Q618.25,743.7969 617.4375,742.5313 Q616.625,741.2656 616.625,739.7813 L616.625,738.4219 Q616.625,736.8594 617.3438,735.5156 Q618.0781,734.1563 619.3594,733.4219 Q620.6563,732.6875 622.1094,732.6875 Q622.9688,732.6875 623.7188,732.8906 Q624.4844,733.0938 625.1406,733.5 Z " fill="#000000"/><text fill="#000000" font-family="sans-serif" font-size="20" lengthAdjust="spacing" textLength="128" x="638" y="746.7617">Announcement</text><line style="stroke:#4169E1;stroke-width:0.5;" x1="608" x2="768" y1="756.1563" y2="756.1563"/><line style="stroke:#4169E1;stroke-width:0.5;" x1="608" x2="768" y1="764.1563" y2="764.1563"/></g><!--class Property--><g id="elem_Property"><rect codeLine="42" fill="#FFDAB9" height="51.1563" id="Property" rx="2.5" ry="2.5" style="stroke:#4169E1;stroke-width:0.5;" width="110" x="804" y="721"/><ellipse cx="820" cy="738.5781" fill="#ADD1B2" rx="12" ry="12" style="stroke:#181818;stroke-width:1.0;"/><path d="M822.1406,733.5 Q822.3281,733.25 822.5469,733.125 Q822.7656,732.9844 823.0156,732.9844 Q823.4531,732.9844 823.7344,733.2969 Q824.0156,733.5938 824.0156,734.3125 L824.0156,736.0156 Q824.0156,736.7344 823.7344,737.0469 Q823.4531,737.3594 823.0156,737.3594 Q822.625,737.3594 822.375,737.125 Q822.125,736.9063 822.0156,736.2969 Q821.9531,735.875 821.7344,735.6563 Q821.3438,735.2188 820.625,734.9531 Q819.9063,734.6875 819.1875,734.6875 Q818.2813,734.6875 817.5313,735.0781 Q816.7813,735.4688 816.2031,736.3594 Q815.625,737.2344 815.625,738.4375 L815.625,739.7344 Q815.625,741.1875 816.6719,742.1563 Q817.7344,743.125 819.5938,743.125 Q820.7031,743.125 821.4844,742.8125 Q821.9219,742.6406 822.4375,742.125 Q822.75,741.8125 822.9219,741.7188 Q823.0938,741.625 823.3281,741.625 Q823.7188,741.625 824.0156,741.9375 Q824.3281,742.2344 824.3281,742.6406 Q824.3281,743.0469 823.9219,743.5156 Q823.3281,744.2031 822.3906,744.5938 Q821.125,745.125 819.6094,745.125 Q817.8281,745.125 816.4063,744.3906 Q815.25,743.7969 814.4375,742.5313 Q813.625,741.2656 813.625,739.7813 L813.625,738.4219 Q813.625,736.8594 814.3438,735.5156 Q815.0781,734.1563 816.3594,733.4219 Q817.6563,732.6875 819.1094,732.6875 Q819.9688,732.6875 820.7188,732.8906 Q821.4844,733.0938 822.1406,733.5 Z " fill="#000000"/><text fill="#000000" font-family="sans-serif" font-size="20" lengthAdjust="spacing" textLength="76" x="835" y="746.7617">Property</text><line style="stroke:#4169E1;stroke-width:0.5;" x1="805" x2="913" y1="756.1563" y2="756.1563"/><line style="stroke:#4169E1;stroke-width:0.5;" x1="805" x2="913" y1="764.1563" y2="764.1563"/></g><!--class Person--><g id="elem_Person"><rect codeLine="46" fill="#FFDAB9" height="176.9375" id="Person" rx="2.5" ry="2.5" style="stroke:#4169E1;stroke-width:0.5;" width="190" x="267" y="220"/><ellipse cx="326.5" cy="237.5781" fill="#ADD1B2" rx="12" ry="12" style="stroke:#181818;stroke-width:1.0;"/><path d="M328.6406,232.5 Q328.8281,232.25 329.0469,232.125 Q329.2656,231.9844 329.5156,231.9844 Q329.9531,231.9844 330.2344,232.2969 Q330.5156,232.5938 330.5156,233.3125 L330.5156,235.0156 Q330.5156,235.7344 330.2344,236.0469 Q329.9531,236.3594 329.5156,236.3594 Q329.125,236.3594 328.875,236.125 Q328.625,235.9063 328.5156,235.2969 Q328.4531,234.875 328.2344,234.6563 Q327.8438,234.2188 327.125,233.9531 Q326.4063,233.6875 325.6875,233.6875 Q324.7813,233.6875 324.0313,234.0781 Q323.2813,234.4688 322.7031,235.3594 Q322.125,236.2344 322.125,237.4375 L322.125,238.7344 Q322.125,240.1875 323.1719,241.1563 Q324.2344,242.125 326.0938,242.125 Q327.2031,242.125 327.9844,241.8125 Q328.4219,241.6406 328.9375,241.125 Q329.25,240.8125 329.4219,240.7188 Q329.5938,240.625 329.8281,240.625 Q330.2188,240.625 330.5156,240.9375 Q330.8281,241.2344 330.8281,241.6406 Q330.8281,242.0469 330.4219,242.5156 Q329.8281,243.2031 328.8906,243.5938 Q327.625,244.125 326.1094,244.125 Q324.3281,244.125 322.9063,243.3906 Q321.75,242.7969 320.9375,241.5313 Q320.125,240.2656 320.125,238.7813 L320.125,237.4219 Q320.125,235.8594 320.8438,234.5156 Q321.5781,233.1563 322.8594,232.4219 Q324.1563,231.6875 325.6094,231.6875 Q326.4688,231.6875 327.2188,231.8906 Q327.9844,232.0938 328.6406,232.5 Z " fill="#000000"/><text fill="#000000" font-family="sans-serif" font-size="20" lengthAdjust="spacing" textLength="62" x="348.5" y="245.7617">Person</text><line style="stroke:#4169E1;stroke-width:0.5;" x1="268" x2="456" y1="255.1563" y2="255.1563"/><text fill="#000000" font-family="sans-serif" font-size="20" lengthAdjust="spacing" textLength="92" x="273" y="279.918">-User user</text><text fill="#000000" font-family="sans-serif" font-size="20" lengthAdjust="spacing" textLength="178" x="273" y="305.0742">-int passportNumber</text><text fill="#000000" font-family="sans-serif" font-size="20" lengthAdjust="spacing" textLength="127" x="273" y="330.2305">-int taxNumber</text><text fill="#000000" font-family="sans-serif" font-size="20" lengthAdjust="spacing" textLength="154" x="273" y="355.3867">-int phoneNumber</text><text fill="#000000" font-family="sans-serif" font-size="20" lengthAdjust="spacing" textLength="157" x="273" y="380.543">-Address address</text><line style="stroke:#4169E1;stroke-width:0.5;" x1="268" x2="456" y1="388.9375" y2="388.9375"/></g><!--class Employee--><g id="elem_Employee"><rect codeLine="54" fill="#FFDAB9" height="76.3125" id="Employee" rx="2.5" ry="2.5" style="stroke:#4169E1;stroke-width:0.5;" width="156" x="289" y="615"/><ellipse cx="320.75" cy="632.5781" fill="#ADD1B2" rx="12" ry="12" style="stroke:#181818;stroke-width:1.0;"/><path d="M322.8906,627.5 Q323.0781,627.25 323.2969,627.125 Q323.5156,626.9844 323.7656,626.9844 Q324.2031,626.9844 324.4844,627.2969 Q324.7656,627.5938 324.7656,628.3125 L324.7656,630.0156 Q324.7656,630.7344 324.4844,631.0469 Q324.2031,631.3594 323.7656,631.3594 Q323.375,631.3594 323.125,631.125 Q322.875,630.9063 322.7656,630.2969 Q322.7031,629.875 322.4844,629.6563 Q322.0938,629.2188 321.375,628.9531 Q320.6563,628.6875 319.9375,628.6875 Q319.0313,628.6875 318.2813,629.0781 Q317.5313,629.4688 316.9531,630.3594 Q316.375,631.2344 316.375,632.4375 L316.375,633.7344 Q316.375,635.1875 317.4219,636.1563 Q318.4844,637.125 320.3438,637.125 Q321.4531,637.125 322.2344,636.8125 Q322.6719,636.6406 323.1875,636.125 Q323.5,635.8125 323.6719,635.7188 Q323.8438,635.625 324.0781,635.625 Q324.4688,635.625 324.7656,635.9375 Q325.0781,636.2344 325.0781,636.6406 Q325.0781,637.0469 324.6719,637.5156 Q324.0781,638.2031 323.1406,638.5938 Q321.875,639.125 320.3594,639.125 Q318.5781,639.125 317.1563,638.3906 Q316,637.7969 315.1875,636.5313 Q314.375,635.2656 314.375,633.7813 L314.375,632.4219 Q314.375,630.8594 315.0938,629.5156 Q315.8281,628.1563 317.1094,627.4219 Q318.4063,626.6875 319.8594,626.6875 Q320.7188,626.6875 321.4688,626.8906 Q322.2344,627.0938 322.8906,627.5 Z " fill="#000000"/><text fill="#000000" font-family="sans-serif" font-size="20" lengthAdjust="spacing" textLength="87" x="339.25" y="640.7617">Employee</text><line style="stroke:#4169E1;stroke-width:0.5;" x1="290" x2="444" y1="650.1563" y2="650.1563"/><text fill="#000000" font-family="sans-serif" font-size="20" lengthAdjust="spacing" textLength="144" x="295" y="674.918">-String agencyId</text><line style="stroke:#4169E1;stroke-width:0.5;" x1="290" x2="444" y1="683.3125" y2="683.3125"/></g><!--class Agent--><g id="elem_Agent"><rect codeLine="58" fill="#FFDAB9" height="51.1563" id="Agent" rx="2.5" ry="2.5" style="stroke:#4169E1;stroke-width:0.5;" width="85" x="449.5" y="859"/><ellipse cx="465.5" cy="876.5781" fill="#ADD1B2" rx="12" ry="12" style="stroke:#181818;stroke-width:1.0;"/><path d="M467.6406,871.5 Q467.8281,871.25 468.0469,871.125 Q468.2656,870.9844 468.5156,870.9844 Q468.9531,870.9844 469.2344,871.2969 Q469.5156,871.5938 469.5156,872.3125 L469.5156,874.0156 Q469.5156,874.7344 469.2344,875.0469 Q468.9531,875.3594 468.5156,875.3594 Q468.125,875.3594 467.875,875.125 Q467.625,874.9063 467.5156,874.2969 Q467.4531,873.875 467.2344,873.6563 Q466.8438,873.2188 466.125,872.9531 Q465.4063,872.6875 464.6875,872.6875 Q463.7813,872.6875 463.0313,873.0781 Q462.2813,873.4688 461.7031,874.3594 Q461.125,875.2344 461.125,876.4375 L461.125,877.7344 Q461.125,879.1875 462.1719,880.1563 Q463.2344,881.125 465.0938,881.125 Q466.2031,881.125 466.9844,880.8125 Q467.4219,880.6406 467.9375,880.125 Q468.25,879.8125 468.4219,879.7188 Q468.5938,879.625 468.8281,879.625 Q469.2188,879.625 469.5156,879.9375 Q469.8281,880.2344 469.8281,880.6406 Q469.8281,881.0469 469.4219,881.5156 Q468.8281,882.2031 467.8906,882.5938 Q466.625,883.125 465.1094,883.125 Q463.3281,883.125 461.9063,882.3906 Q460.75,881.7969 459.9375,880.5313 Q459.125,879.2656 459.125,877.7813 L459.125,876.4219 Q459.125,874.8594 459.8438,873.5156 Q460.5781,872.1563 461.8594,871.4219 Q463.1563,870.6875 464.6094,870.6875 Q465.4688,870.6875 466.2188,870.8906 Q466.9844,871.0938 467.6406,871.5 Z " fill="#000000"/><text fill="#000000" font-family="sans-serif" font-size="20" lengthAdjust="spacing" textLength="51" x="480.5" y="884.7617">Agent</text><line style="stroke:#4169E1;stroke-width:0.5;" x1="450.5" x2="533.5" y1="894.1563" y2="894.1563"/><line style="stroke:#4169E1;stroke-width:0.5;" x1="450.5" x2="533.5" y1="902.1563" y2="902.1563"/></g><!--class Repositories--><g id="elem_Repositories"><rect codeLine="62" fill="#FFDAB9" height="126.625" id="Repositories" rx="2.5" ry="2.5" style="stroke:#4169E1;stroke-width:0.5;" width="268" x="563" y="19.5"/><ellipse cx="637.5" cy="37.0781" fill="#ADD1B2" rx="12" ry="12" style="stroke:#181818;stroke-width:1.0;"/><path d="M639.6406,32 Q639.8281,31.75 640.0469,31.625 Q640.2656,31.4844 640.5156,31.4844 Q640.9531,31.4844 641.2344,31.7969 Q641.5156,32.0938 641.5156,32.8125 L641.5156,34.5156 Q641.5156,35.2344 641.2344,35.5469 Q640.9531,35.8594 640.5156,35.8594 Q640.125,35.8594 639.875,35.625 Q639.625,35.4063 639.5156,34.7969 Q639.4531,34.375 639.2344,34.1563 Q638.8438,33.7188 638.125,33.4531 Q637.4063,33.1875 636.6875,33.1875 Q635.7813,33.1875 635.0313,33.5781 Q634.2813,33.9688 633.7031,34.8594 Q633.125,35.7344 633.125,36.9375 L633.125,38.2344 Q633.125,39.6875 634.1719,40.6563 Q635.2344,41.625 637.0938,41.625 Q638.2031,41.625 638.9844,41.3125 Q639.4219,41.1406 639.9375,40.625 Q640.25,40.3125 640.4219,40.2188 Q640.5938,40.125 640.8281,40.125 Q641.2188,40.125 641.5156,40.4375 Q641.8281,40.7344 641.8281,41.1406 Q641.8281,41.5469 641.4219,42.0156 Q640.8281,42.7031 639.8906,43.0938 Q638.625,43.625 637.1094,43.625 Q635.3281,43.625 633.9063,42.8906 Q632.75,42.2969 631.9375,41.0313 Q631.125,39.7656 631.125,38.2813 L631.125,36.9219 Q631.125,35.3594 631.8438,34.0156 Q632.5781,32.6563 633.8594,31.9219 Q635.1563,31.1875 636.6094,31.1875 Q637.4688,31.1875 638.2188,31.3906 Q638.9844,31.5938 639.6406,32 Z " fill="#000000"/><text fill="#000000" font-family="sans-serif" font-size="20" lengthAdjust="spacing" textLength="110" x="659.5" y="45.2617">Repositories</text><line style="stroke:#4169E1;stroke-width:0.5;" x1="564" x2="830" y1="54.6563" y2="54.6563"/><line style="stroke:#4169E1;stroke-width:0.5;" x1="564" x2="830" y1="62.6563" y2="62.6563"/><text fill="#000000" font-family="sans-serif" font-size="20" lengthAdjust="spacing" textLength="131" x="569" y="87.418">-Repositories()</text><text fill="#000000" font-family="sans-serif" font-size="20" lengthAdjust="spacing" textLength="256" x="569" y="112.5742">+getInstance() : Repositories</text><text fill="#000000" font-family="sans-serif" font-size="20" lengthAdjust="spacing" textLength="186" x="569" y="137.7305">+getVisitRepository()</text></g><!--link BookingRequestsUI to BookingRequestsController--><g id="link_BookingRequestsUI_BookingRequestsController"><path codeLine="68" d="M213.28,83 C220.96,83 231.63,83 242.68,83 " fill="none" id="BookingRequestsUI-to-BookingRequestsController" style="stroke:#4169E1;stroke-width:1.0;stroke-dasharray:7.0,7.0;"/><polygon fill="#4169E1" points="247.78,83,238.78,79,242.78,83,238.78,87,247.78,83" style="stroke:#4169E1;stroke-width:1.0;"/></g><!--link BookingRequestsController to Repositories--><g id="link_BookingRequestsController_Repositories"><path codeLine="69" d="M522.19,83 C533.53,83 546.25,83 557.75,83 " fill="none" id="BookingRequestsController-to-Repositories" style="stroke:#4169E1;stroke-width:1.0;stroke-dasharray:7.0,7.0;"/><polygon fill="#4169E1" points="562.94,83,553.94,79,557.94,83,553.94,87,562.94,83" style="stroke:#4169E1;stroke-width:1.0;"/></g><!--link Repositories to Repositories--><g id="link_Repositories_Repositories"><path codeLine="70" d="M831.23,64.83 C851.92,67.58 866,73.63 866,83 C866,91.56 854.24,97.36 836.41,100.39 " fill="none" id="Repositories-to-Repositories" style="stroke:#4169E1;stroke-width:1.0;"/><polygon fill="#4169E1" points="831.23,101.17,840.7245,103.788,836.1745,100.4269,839.5356,95.8768,831.23,101.17" style="stroke:#4169E1;stroke-width:1.0;"/><text fill="#000000" font-family="sans-serif" font-size="20" lengthAdjust="spacing" textLength="72" x="872" y="91.2617">instance</text></g><!--link Repositories to VisitRepository--><g id="link_Repositories_VisitRepository"><path codeLine="71" d="M700.92,146.55 C702.74,175.61 704.91,210.21 706.76,239.86 " fill="none" id="Repositories-to-VisitRepository" style="stroke:#4169E1;stroke-width:1.0;"/><polygon fill="#4169E1" points="707.08,244.96,710.5075,235.7268,706.7663,239.9698,702.5233,236.2287,707.08,244.96" style="stroke:#4169E1;stroke-width:1.0;"/></g><!--link VisitRepository to Visit--><g id="link_VisitRepository_Visit"><path codeLine="72" d="M711.59,372.24 C711.83,397.52 712.11,426.75 712.36,452.53 " fill="none" id="VisitRepository-to-Visit" style="stroke:#4169E1;stroke-width:1.0;stroke-dasharray:7.0,7.0;"/><polygon fill="#4169E1" points="712.4,457.64,716.3227,448.606,712.3571,452.6402,708.323,448.6746,712.4,457.64" style="stroke:#4169E1;stroke-width:1.0;"/></g><!--link BookingRequestsController to Person--><g id="link_BookingRequestsController_Person"><path codeLine="73" d="M377.28,159.04 C375.44,176.9 373.46,196.15 371.55,214.69 " fill="none" id="BookingRequestsController-to-Person" style="stroke:#4169E1;stroke-width:1.0;stroke-dasharray:7.0,7.0;"/><polygon fill="#4169E1" points="371.01,219.9,375.9149,211.3594,371.5245,214.9265,367.9573,210.5362,371.01,219.9" style="stroke:#4169E1;stroke-width:1.0;"/></g><!--link Person to Employee--><g id="link_Person_Employee"><path codeLine="74" d="M357.28,397.17 C355.54,429.32 354,458 354,458 C354,458 354,585 354,585 C354,585 356.23,596.48 358.84,609.94 " fill="none" id="Person-to-Employee" style="stroke:#4169E1;stroke-width:1.0;stroke-dasharray:7.0,7.0;"/><polygon fill="#4169E1" points="359.82,614.97,362.0204,605.3701,358.8614,610.0627,354.1688,606.9038,359.82,614.97" style="stroke:#4169E1;stroke-width:1.0;"/></g><!--link Employee to Agent--><g id="link_Employee_Agent"><path codeLine="75" d="M387.22,691.13 C412.02,736.66 453.54,812.89 476.15,854.41 " fill="none" id="Employee-to-Agent" style="stroke:#4169E1;stroke-width:1.0;stroke-dasharray:7.0,7.0;"/><polygon fill="#4169E1" points="478.55,858.8,477.7385,848.9846,476.1497,854.4138,470.7206,852.8251,478.55,858.8" style="stroke:#4169E1;stroke-width:1.0;"/></g><!--link Agent to Visit--><g id="link_Agent_Visit"><path codeLine="76" d="M494.58,858.82 C499.34,813.36 509,721 509,721 C509,721 585.54,646.52 644.85,588.81 " fill="none" id="Agent-to-Visit" style="stroke:#4169E1;stroke-width:1.0;"/><polygon fill="#4169E1" points="648.73,585.03,639.4885,588.4352,645.1448,588.5152,645.0648,594.1715,648.73,585.03" style="stroke:#4169E1;stroke-width:1.0;"/><text fill="#000000" font-family="sans-serif" font-size="20" lengthAdjust="spacing" textLength="78" x="510" y="754.7617">Confirms</text></g><!--link Visit to Announcement--><g id="link_Visit_Announcement"><path codeLine="77" d="M705.97,585.21 C701.19,627.89 695.07,682.44 691.35,715.64 " fill="none" id="Visit-to-Announcement" style="stroke:#4169E1;stroke-width:1.0;"/><polygon fill="#4169E1" points="690.77,720.78,695.7475,712.2815,691.3269,715.8111,687.7972,711.3905,690.77,720.78" style="stroke:#4169E1;stroke-width:1.0;"/><text fill="#000000" font-family="sans-serif" font-size="20" lengthAdjust="spacing" textLength="58" x="702" y="661.2617">has an</text></g><!--link Visit to Property--><g id="link_Visit_Property"><path codeLine="78" d="M754.06,585.21 C782.23,628.24 818.3,683.34 839.98,716.45 " fill="none" id="Visit-to-Property" style="stroke:#4169E1;stroke-width:1.0;"/><polygon fill="#4169E1" points="842.81,720.78,841.2461,711.0561,840.0795,716.5914,834.5443,715.4249,842.81,720.78" style="stroke:#4169E1;stroke-width:1.0;"/><text fill="#000000" font-family="sans-serif" font-size="20" lengthAdjust="spacing" textLength="48" x="820" y="661.2617">has a</text></g><!--link Announcement to Agent--><g id="link_Announcement_Agent"><path codeLine="79" d="M652.51,772.13 C618.48,795.74 567.19,831.32 531.8,855.89 " fill="none" id="Announcement-to-Agent" style="stroke:#4169E1;stroke-width:1.0;"/><polygon fill="#4169E1" points="527.56,858.83,537.2309,856.9661,531.6622,855.9713,532.657,850.4026,527.56,858.83" style="stroke:#4169E1;stroke-width:1.0;"/><text fill="#000000" font-family="sans-serif" font-size="20" lengthAdjust="spacing" textLength="58" x="609" y="823.7617">has an</text></g><!--SRC=[VLHDRzim3BthL-YM5akAOSTYA11dAn1W689ctLsnQKUeB7eKlSuR-jz7VqPnaFeGGNoFv9CUbV1YVMN8b0xJ5yXq1hcf7J-Yvxtz2_hJHxK88qUNw34z4fQWcMfG9wGowOifOC-D0qsGil65YmdXQ39yjRxGkN4XHfprm4q5kaBNj9kuumGYCQeeAtKcX3KpsKFDi4tHTtf5xchy7gre2TpMBARWl8J-fxHyYUWl26kVRT0XwHsOzBYhyxn3rqJusWDFs1YNE3bybuQK0SsHDxLmaBDcr6IB8-lCjbTYqQl5Sm3IrZDGRb9OABNfL2I8egjuWbyr10xFMz7rTWNSY3c4pacXNlo7mpN2pMrFA81_sc3v2IgK1Qc9a4rD19vtG07zF2CapHV38E59pgpI86Ablzd0dplmGVzkbpRGLzDIRbr8awJf2FCkITEXRS95f_6Gm-wc8go0k5bwKyAoEgA7xtLv05fc8dGPs13_i0A1pxhLU2_6fb1AXrFVtL1c2gmZsac2ZiEnAMD-7nk3tHrEDzAPNSlFi1VVvQM4KCaqzveZWCsVYrXqkY6wpZ82wMJwzQJdQravR02cvdjv6_BSv5NwjDbc9sPtrMUo9pCjZ0zY5SSYkxPUBbYku-PMtv_blJDeqkXolkyUhi-rkZxnadRMzKpwQdMEYaGxw9qHvR_82tccLSr7-wxbtGsyzrGDlDv_DOp161sjKPD78z9PeNf3HZaYMYhdbihGwvdKngDuhuz6fi2F586dYHmmTJQwBQDlDAR-1m00]--></g></svg>