<?xml version="1.0" encoding="UTF-8" standalone="no"?><svg xmlns="http://www.w3.org/2000/svg" xmlns:xlink="http://www.w3.org/1999/xlink" contentStyleType="text/css" height="377px" preserveAspectRatio="none" style="width:643px;height:377px;background:#FFFFFF;" version="1.1" viewBox="0 0 643 377" width="643px" zoomAndPan="magnify"><defs/><g><!--class ApplicationSession--><g id="elem_ApplicationSession"><rect codeLine="3" fill="#F1F1F1" height="96.5625" id="ApplicationSession" rx="2.5" ry="2.5" style="stroke:#181818;stroke-width:0.5;" width="230" x="7" y="274"/><ellipse cx="25.7" cy="291" fill="#ADD1B2" rx="12" ry="12" style="stroke:#181818;stroke-width:1.0;"/><path d="M28.7625,298.0781 Q28.075,298.4375 27.325,298.6094 Q26.575,298.7813 25.7469,298.7813 Q22.7938,298.7813 21.2313,296.8438 Q19.6844,294.8906 19.6844,291.2188 Q19.6844,287.5469 21.2313,285.6094 Q22.7938,283.6563 25.7469,283.6563 Q26.575,283.6563 27.325,283.8281 Q28.0906,284 28.7625,284.3594 L28.7625,287.5625 Q28.0125,286.875 27.3094,286.5625 Q26.6219,286.25 25.8719,286.25 Q24.2938,286.25 23.4813,287.5 Q22.6844,288.75 22.6844,291.2188 Q22.6844,293.6875 23.4813,294.9375 Q24.2938,296.1875 25.8719,296.1875 Q26.6219,296.1875 27.3094,295.875 Q28.0125,295.5625 28.7625,294.875 L28.7625,298.0781 Z " fill="#000000"/><text fill="#000000" font-family="sans-serif" font-size="20" lengthAdjust="spacing" textLength="190" x="41.3" y="297.9238">ApplicationSession</text><line style="stroke:#181818;stroke-width:0.5;" x1="8" x2="236" y1="308" y2="308"/><line style="stroke:#181818;stroke-width:0.5;" x1="8" x2="236" y1="316" y2="316"/><text fill="#000000" font-family="sans-serif" font-size="20" lengthAdjust="spacing" textLength="212" x="13" y="338.5645">+static getInstance()</text><text fill="#000000" font-family="sans-serif" font-size="20" lengthAdjust="spacing" textLength="218" x="13" y="361.8457">+getCurrentSession()</text></g><!--class UserSession--><g id="elem_UserSession"><rect codeLine="9" fill="#F1F1F1" height="73.2813" id="UserSession" rx="2.5" ry="2.5" style="stroke:#181818;stroke-width:0.5;" width="364" x="272" y="286"/><ellipse cx="389" cy="303" fill="#ADD1B2" rx="12" ry="12" style="stroke:#181818;stroke-width:1.0;"/><path d="M392.0625,310.0781 Q391.375,310.4375 390.625,310.6094 Q389.875,310.7813 389.0469,310.7813 Q386.0938,310.7813 384.5313,308.8438 Q382.9844,306.8906 382.9844,303.2188 Q382.9844,299.5469 384.5313,297.6094 Q386.0938,295.6563 389.0469,295.6563 Q389.875,295.6563 390.625,295.8281 Q391.3906,296 392.0625,296.3594 L392.0625,299.5625 Q391.3125,298.875 390.6094,298.5625 Q389.9219,298.25 389.1719,298.25 Q387.5938,298.25 386.7813,299.5 Q385.9844,300.75 385.9844,303.2188 Q385.9844,305.6875 386.7813,306.9375 Q387.5938,308.1875 389.1719,308.1875 Q389.9219,308.1875 390.6094,307.875 Q391.3125,307.5625 392.0625,306.875 L392.0625,310.0781 Z " fill="#000000"/><text fill="#000000" font-family="sans-serif" font-size="20" lengthAdjust="spacing" textLength="121" x="411" y="309.9238">UserSession</text><line style="stroke:#181818;stroke-width:0.5;" x1="273" x2="635" y1="320" y2="320"/><line style="stroke:#181818;stroke-width:0.5;" x1="273" x2="635" y1="328" y2="328"/><text fill="#000000" font-family="sans-serif" font-size="20" lengthAdjust="spacing" textLength="352" x="278" y="350.5645">+isLoggedInWithRole(USER_ROLE)</text></g><!--class {NameOfUC}Controller--><g id="elem_{NameOfUC}Controller"><rect codeLine="14" fill="#F1F1F1" height="96.5625" id="{NameOfUC}Controller" rx="2.5" ry="2.5" style="stroke:#181818;stroke-width:0.5;" width="281" x="147.5" y="117"/><ellipse cx="168.45" cy="134" fill="#ADD1B2" rx="12" ry="12" style="stroke:#181818;stroke-width:1.0;"/><path d="M171.5125,141.0781 Q170.825,141.4375 170.075,141.6094 Q169.325,141.7813 168.4969,141.7813 Q165.5438,141.7813 163.9813,139.8438 Q162.4344,137.8906 162.4344,134.2188 Q162.4344,130.5469 163.9813,128.6094 Q165.5438,126.6563 168.4969,126.6563 Q169.325,126.6563 170.075,126.8281 Q170.8406,127 171.5125,127.3594 L171.5125,130.5625 Q170.7625,129.875 170.0594,129.5625 Q169.3719,129.25 168.6219,129.25 Q167.0438,129.25 166.2313,130.5 Q165.4344,131.75 165.4344,134.2188 Q165.4344,136.6875 166.2313,137.9375 Q167.0438,139.1875 168.6219,139.1875 Q169.3719,139.1875 170.0594,138.875 Q170.7625,138.5625 171.5125,137.875 L171.5125,141.0781 Z " fill="#000000"/><text fill="#000000" font-family="sans-serif" font-size="20" lengthAdjust="spacing" textLength="236" x="184.55" y="140.9238">{NameOfUC}Controller</text><line style="stroke:#181818;stroke-width:0.5;" x1="148.5" x2="427.5" y1="151" y2="151"/><line style="stroke:#181818;stroke-width:0.5;" x1="148.5" x2="427.5" y1="159" y2="159"/><text fill="#000000" font-family="sans-serif" font-size="20" lengthAdjust="spacing" textLength="269" x="153.5" y="181.5645">+{NameOfUC}Controller()</text><text fill="#000000" font-family="sans-serif" font-size="20" lengthAdjust="spacing" textLength="143" x="153.5" y="204.8457">+methodX(...)</text></g><!--class {NameOfUC}UI--><g id="elem_{NameOfUC}UI"><rect codeLine="19" fill="#F1F1F1" height="50" id="{NameOfUC}UI" rx="2.5" ry="2.5" style="stroke:#181818;stroke-width:0.5;" width="192" x="192" y="7"/><ellipse cx="208" cy="24" fill="#ADD1B2" rx="12" ry="12" style="stroke:#181818;stroke-width:1.0;"/><path d="M211.0625,31.0781 Q210.375,31.4375 209.625,31.6094 Q208.875,31.7813 208.0469,31.7813 Q205.0938,31.7813 203.5313,29.8438 Q201.9844,27.8906 201.9844,24.2188 Q201.9844,20.5469 203.5313,18.6094 Q205.0938,16.6563 208.0469,16.6563 Q208.875,16.6563 209.625,16.8281 Q210.3906,17 211.0625,17.3594 L211.0625,20.5625 Q210.3125,19.875 209.6094,19.5625 Q208.9219,19.25 208.1719,19.25 Q206.5938,19.25 205.7813,20.5 Q204.9844,21.75 204.9844,24.2188 Q204.9844,26.6875 205.7813,27.9375 Q206.5938,29.1875 208.1719,29.1875 Q208.9219,29.1875 209.6094,28.875 Q210.3125,28.5625 211.0625,27.875 L211.0625,31.0781 Z " fill="#000000"/><text fill="#000000" font-family="sans-serif" font-size="20" lengthAdjust="spacing" textLength="158" x="223" y="30.9238">{NameOfUC}UI</text><line style="stroke:#181818;stroke-width:0.5;" x1="193" x2="383" y1="41" y2="41"/><line style="stroke:#181818;stroke-width:0.5;" x1="193" x2="383" y1="49" y2="49"/></g><!--link {NameOfUC}UI to {NameOfUC}Controller--><g id="link_{NameOfUC}UI_{NameOfUC}Controller"><path codeLine="22" d="M288,57.12 C288,72.37 288,92.69 288,111.55 " fill="none" id="{NameOfUC}UI-to-{NameOfUC}Controller" style="stroke:#181818;stroke-width:1.0;stroke-dasharray:7.0,7.0;"/><polygon fill="#181818" points="288,116.83,292,107.83,288,111.83,284,107.83,288,116.83" style="stroke:#181818;stroke-width:1.0;"/></g><!--link {NameOfUC}Controller to ApplicationSession--><g id="link_{NameOfUC}Controller_ApplicationSession"><path codeLine="23" d="M236.84,214.27 C217.82,232.03 196.16,252.25 176.83,270.31 " fill="none" id="{NameOfUC}Controller-to-ApplicationSession" style="stroke:#181818;stroke-width:1.0;stroke-dasharray:7.0,7.0;"/><polygon fill="#181818" points="172.99,273.89,182.292,270.6539,176.6381,270.4708,176.8213,264.8169,172.99,273.89" style="stroke:#181818;stroke-width:1.0;"/></g><!--link {NameOfUC}Controller to UserSession--><g id="link_{NameOfUC}Controller_UserSession"><path codeLine="24" d="M339.16,214.27 C362.57,236.13 389.97,261.72 412.13,282.41 " fill="none" id="{NameOfUC}Controller-to-UserSession" style="stroke:#181818;stroke-width:1.0;stroke-dasharray:7.0,7.0;"/><polygon fill="#181818" points="415.93,285.95,412.081,276.8844,412.2752,282.5379,406.6217,282.7321,415.93,285.95" style="stroke:#181818;stroke-width:1.0;"/></g><!--SRC=[VP1DQiCm48NtEiMGbKj1X1wW44mAXj20WsbtHP4dZeWi6Sruqv2xT-GII8hJbSHxRxxvePCBWqcczz6Ui8KM3sRq_1O3xzmtmijIqJK2rXkY5NDo-v6niZ5CcQLIamEhOV3E6dPY894ywgm0deb5iz0XLq7-mMBnb7KHoZ4bb5w_SP4lLrX3cEueZZQnwx2jmeVZOnqz5irkNN_LsytwfcvnVZSzRWzDUIbbYnIznxI0Z108pBdJDDdiaO-n_IoqrlF4fieaSVveMhy-QAmUp9ChPkxrJ_hs83y0]--></g></svg>