<?xml version="1.0" encoding="UTF-8" standalone="no"?><svg xmlns="http://www.w3.org/2000/svg" xmlns:xlink="http://www.w3.org/1999/xlink" contentStyleType="text/css" height="1010px" preserveAspectRatio="none" style="width:1453px;height:1010px;background:#FFFFFF;" version="1.1" viewBox="0 0 1453 1010" width="1453px" zoomAndPan="magnify"><defs/><g><rect fill="#FFFFFF" height="814.625" style="stroke:#181818;stroke-width:1.0;" width="10" x="40.5" y="98.2813"/><rect fill="#FFFFFF" height="342.25" style="stroke:#181818;stroke-width:1.0;" width="10" x="257.5" y="127.5625"/><rect fill="#FFFFFF" height="38.2813" style="stroke:#181818;stroke-width:1.0;" width="10" x="457" y="174.8438"/><rect fill="#FFFFFF" height="67.2813" style="stroke:#181818;stroke-width:1.0;" width="10" x="457" y="439.8125"/><rect fill="#FFFFFF" height="271.25" style="stroke:#181818;stroke-width:1.0;" width="10" x="457" y="601.6563"/><rect fill="#FFFFFF" height="179.4063" style="stroke:#181818;stroke-width:1.0;" width="10" x="695.5" y="223.125"/><rect fill="#FFFFFF" height="196.6875" style="stroke:#181818;stroke-width:1.0;" width="10" x="695.5" y="638.9375"/><rect fill="#FFFFFF" height="51.9219" style="stroke:#181818;stroke-width:1.0;" width="10" x="936" y="276.0469"/><rect fill="#FFFFFF" height="122.125" style="stroke:#181818;stroke-width:1.0;" width="10" x="936" y="676.2188"/><rect fill="#FFFFFF" height="37.2813" style="stroke:#181818;stroke-width:1.0;" width="10" x="1153.5" y="365.25"/><rect fill="none" height="358.8125" style="stroke:#000000;stroke-width:1.5;" width="1437" x="10" y="547.0938"/><line style="stroke:#181818;stroke-width:0.5;stroke-dasharray:5.0,5.0;" x1="45" x2="45" y1="88.2813" y2="922.9063"/><line style="stroke:#181818;stroke-width:0.5;stroke-dasharray:5.0,5.0;" x1="262" x2="262" y1="88.2813" y2="922.9063"/><line style="stroke:#181818;stroke-width:0.5;stroke-dasharray:5.0,5.0;" x1="461.5" x2="461.5" y1="169.7031" y2="922.9063"/><line style="stroke:#181818;stroke-width:0.5;stroke-dasharray:5.0,5.0;" x1="700" x2="700" y1="217.9844" y2="922.9063"/><line style="stroke:#181818;stroke-width:0.5;stroke-dasharray:5.0,5.0;" x1="941" x2="941" y1="88.2813" y2="922.9063"/><line style="stroke:#181818;stroke-width:0.5;stroke-dasharray:5.0,5.0;" x1="1158" x2="1158" y1="88.2813" y2="922.9063"/><line style="stroke:#181818;stroke-width:0.5;stroke-dasharray:5.0,5.0;" x1="1355" x2="1355" y1="88.2813" y2="922.9063"/><text fill="#000000" font-family="sans-serif" font-size="20" lengthAdjust="spacing" textLength="45" x="20" y="83.5645">User</text><ellipse cx="45.5" cy="13.5" fill="#E3E3E3" rx="8" ry="8" style="stroke:#181818;stroke-width:0.5;"/><path d="M45.5,21.5 L45.5,48.5 M32.5,29.5 L58.5,29.5 M45.5,48.5 L32.5,63.5 M45.5,48.5 L58.5,63.5 " fill="none" style="stroke:#181818;stroke-width:0.5;"/><text fill="#000000" font-family="sans-serif" font-size="20" lengthAdjust="spacing" textLength="45" x="20" y="940.4707">User</text><ellipse cx="45.5" cy="953.6875" fill="#E3E3E3" rx="8" ry="8" style="stroke:#181818;stroke-width:0.5;"/><path d="M45.5,961.6875 L45.5,988.6875 M32.5,969.6875 L58.5,969.6875 M45.5,988.6875 L32.5,1003.6875 M45.5,988.6875 L58.5,1003.6875 " fill="none" style="stroke:#181818;stroke-width:0.5;"/><rect fill="#E3E3E3" height="37.2813" rx="2.5" ry="2.5" style="stroke:#181818;stroke-width:0.5;" width="137" x="194" y="50"/><text fill="#000000" font-family="sans-serif" font-size="20" lengthAdjust="spacing" textLength="123" x="201" y="75.5645">:{MenuX}UI</text><rect fill="#E3E3E3" height="37.2813" rx="2.5" ry="2.5" style="stroke:#181818;stroke-width:0.5;" width="137" x="194" y="921.9063"/><text fill="#000000" font-family="sans-serif" font-size="20" lengthAdjust="spacing" textLength="123" x="201" y="947.4707">:{MenuX}UI</text><rect fill="#E3E3E3" height="37.2813" rx="2.5" ry="2.5" style="stroke:#181818;stroke-width:0.5;" width="179" x="372.5" y="921.9063"/><text fill="#000000" font-family="sans-serif" font-size="20" lengthAdjust="spacing" textLength="165" x="379.5" y="947.4707">:{NameOfUC}UI</text><rect fill="#E3E3E3" height="37.2813" rx="2.5" ry="2.5" style="stroke:#181818;stroke-width:0.5;" width="257" x="572" y="921.9063"/><text fill="#000000" font-family="sans-serif" font-size="20" lengthAdjust="spacing" textLength="243" x="579" y="947.4707">:{NameOfUC}Controller</text><rect fill="#E3E3E3" height="37.2813" rx="2.5" ry="2.5" style="stroke:#181818;stroke-width:0.5;" width="204" x="839" y="50"/><text fill="#000000" font-family="sans-serif" font-size="20" lengthAdjust="spacing" textLength="190" x="846" y="75.5645">ApplicationSession</text><rect fill="#E3E3E3" height="37.2813" rx="2.5" ry="2.5" style="stroke:#181818;stroke-width:0.5;" width="204" x="839" y="921.9063"/><text fill="#000000" font-family="sans-serif" font-size="20" lengthAdjust="spacing" textLength="190" x="846" y="947.4707">ApplicationSession</text><rect fill="#E3E3E3" height="60.5625" rx="2.5" ry="2.5" style="stroke:#181818;stroke-width:0.5;" width="211" x="1053" y="26.7188"/><text fill="#000000" font-family="sans-serif" font-size="20" lengthAdjust="spacing" textLength="114" x="1101.5" y="52.2832">appSession</text><text fill="#000000" font-family="sans-serif" font-size="20" lengthAdjust="spacing" textLength="197" x="1060" y="75.5645">:ApplicationSession</text><rect fill="#E3E3E3" height="60.5625" rx="2.5" ry="2.5" style="stroke:#181818;stroke-width:0.5;" width="211" x="1053" y="921.9063"/><text fill="#000000" font-family="sans-serif" font-size="20" lengthAdjust="spacing" textLength="114" x="1101.5" y="947.4707">appSession</text><text fill="#000000" font-family="sans-serif" font-size="20" lengthAdjust="spacing" textLength="197" x="1060" y="970.752">:ApplicationSession</text><rect fill="#E3E3E3" height="60.5625" rx="2.5" ry="2.5" style="stroke:#181818;stroke-width:0.5;" width="163" x="1274" y="26.7188"/><text fill="#000000" font-family="sans-serif" font-size="20" lengthAdjust="spacing" textLength="149" x="1281" y="52.2832">currentSession</text><text fill="#000000" font-family="sans-serif" font-size="20" lengthAdjust="spacing" textLength="128" x="1291.5" y="75.5645">:UserSession</text><rect fill="#E3E3E3" height="60.5625" rx="2.5" ry="2.5" style="stroke:#181818;stroke-width:0.5;" width="163" x="1274" y="921.9063"/><text fill="#000000" font-family="sans-serif" font-size="20" lengthAdjust="spacing" textLength="149" x="1281" y="947.4707">currentSession</text><text fill="#000000" font-family="sans-serif" font-size="20" lengthAdjust="spacing" textLength="128" x="1291.5" y="970.752">:UserSession</text><rect fill="#FFFFFF" height="814.625" style="stroke:#181818;stroke-width:1.0;" width="10" x="40.5" y="98.2813"/><rect fill="#FFFFFF" height="342.25" style="stroke:#181818;stroke-width:1.0;" width="10" x="257.5" y="127.5625"/><rect fill="#FFFFFF" height="38.2813" style="stroke:#181818;stroke-width:1.0;" width="10" x="457" y="174.8438"/><rect fill="#FFFFFF" height="67.2813" style="stroke:#181818;stroke-width:1.0;" width="10" x="457" y="439.8125"/><rect fill="#FFFFFF" height="271.25" style="stroke:#181818;stroke-width:1.0;" width="10" x="457" y="601.6563"/><rect fill="#FFFFFF" height="179.4063" style="stroke:#181818;stroke-width:1.0;" width="10" x="695.5" y="223.125"/><rect fill="#FFFFFF" height="196.6875" style="stroke:#181818;stroke-width:1.0;" width="10" x="695.5" y="638.9375"/><rect fill="#FFFFFF" height="51.9219" style="stroke:#181818;stroke-width:1.0;" width="10" x="936" y="276.0469"/><rect fill="#FFFFFF" height="122.125" style="stroke:#181818;stroke-width:1.0;" width="10" x="936" y="676.2188"/><rect fill="#FFFFFF" height="37.2813" style="stroke:#181818;stroke-width:1.0;" width="10" x="1153.5" y="365.25"/><polygon fill="#181818" points="245.5,123.5625,255.5,127.5625,245.5,131.5625,249.5,127.5625" style="stroke:#181818;stroke-width:1.0;"/><line style="stroke:#181818;stroke-width:1.0;" x1="50.5" x2="251.5" y1="127.5625" y2="127.5625"/><text fill="#000000" font-family="sans-serif" font-size="20" font-weight="bold" lengthAdjust="spacing" textLength="14" x="57.5" y="120.8457">1</text><text fill="#000000" font-family="sans-serif" font-size="20" lengthAdjust="spacing" textLength="170" x="75.5" y="120.8457">selects an option</text><polygon fill="#181818" points="360.5,160.8438,370.5,164.8438,360.5,168.8438,364.5,164.8438" style="stroke:#181818;stroke-width:1.0;"/><line style="stroke:#181818;stroke-width:1.0;stroke-dasharray:2.0,2.0;" x1="267.5" x2="366.5" y1="164.8438" y2="164.8438"/><text fill="#000000" font-family="sans-serif" font-size="20" font-weight="bold" lengthAdjust="spacing" textLength="14" x="274.5" y="158.127">2</text><text fill="#000000" font-family="sans-serif" font-size="20" lengthAdjust="spacing" textLength="63" x="292.5" y="158.127">create</text><rect fill="#E3E3E3" height="37.2813" rx="2.5" ry="2.5" style="stroke:#181818;stroke-width:0.5;" width="179" x="372.5" y="135.5625"/><text fill="#000000" font-family="sans-serif" font-size="20" lengthAdjust="spacing" textLength="165" x="379.5" y="161.127">:{NameOfUC}UI</text><polygon fill="#181818" points="560,209.125,570,213.125,560,217.125,564,213.125" style="stroke:#181818;stroke-width:1.0;"/><line style="stroke:#181818;stroke-width:1.0;stroke-dasharray:2.0,2.0;" x1="462" x2="566" y1="213.125" y2="213.125"/><text fill="#000000" font-family="sans-serif" font-size="20" font-weight="bold" lengthAdjust="spacing" textLength="14" x="469" y="206.4082">3</text><text fill="#000000" font-family="sans-serif" font-size="20" lengthAdjust="spacing" textLength="63" x="487" y="206.4082">create</text><rect fill="#E3E3E3" height="37.2813" rx="2.5" ry="2.5" style="stroke:#181818;stroke-width:0.5;" width="257" x="572" y="183.8438"/><text fill="#000000" font-family="sans-serif" font-size="20" lengthAdjust="spacing" textLength="243" x="579" y="209.4082">:{NameOfUC}Controller</text><polygon fill="#181818" points="924,272.0469,934,276.0469,924,280.0469,928,276.0469" style="stroke:#181818;stroke-width:1.0;"/><line style="stroke:#181818;stroke-width:1.0;" x1="705.5" x2="930" y1="276.0469" y2="276.0469"/><text fill="#000000" font-family="sans-serif" font-size="20" font-weight="bold" lengthAdjust="spacing" textLength="14" x="712.5" y="269.3301">4</text><text fill="#000000" font-family="sans-serif" font-size="20" lengthAdjust="spacing" textLength="134" x="730.5" y="269.3301">getinstance()</text><path d="M951,237.125 L951,293.125 L1164,293.125 L1164,247.125 L1154,237.125 L951,237.125 " fill="#FAFAFA" style="stroke:#181818;stroke-width:0.5;"/><path d="M1154,237.125 L1154,247.125 L1164,247.125 L1154,237.125 " fill="#FAFAFA" style="stroke:#181818;stroke-width:0.5;"/><text fill="#000000" font-family="sans-serif" font-size="20" lengthAdjust="spacing" textLength="139" x="957" y="260.6895">static method</text><text fill="#000000" font-family="sans-serif" font-size="20" lengthAdjust="spacing" textLength="192" x="957" y="283.9707">(Singleton pattern)</text><polygon fill="#181818" points="716.5,323.9688,706.5,327.9688,716.5,331.9688,712.5,327.9688" style="stroke:#181818;stroke-width:1.0;"/><line style="stroke:#181818;stroke-width:1.0;stroke-dasharray:2.0,2.0;" x1="710.5" x2="940" y1="327.9688" y2="327.9688"/><text fill="#000000" font-family="sans-serif" font-size="20" font-weight="bold" lengthAdjust="spacing" textLength="14" x="722.5" y="321.252">5</text><text fill="#000000" font-family="sans-serif" font-size="20" lengthAdjust="spacing" textLength="114" x="740.5" y="321.252">appSession</text><polygon fill="#181818" points="1141.5,361.25,1151.5,365.25,1141.5,369.25,1145.5,365.25" style="stroke:#181818;stroke-width:1.0;"/><line style="stroke:#181818;stroke-width:1.0;" x1="705.5" x2="1147.5" y1="365.25" y2="365.25"/><text fill="#000000" font-family="sans-serif" font-size="20" font-weight="bold" lengthAdjust="spacing" textLength="14" x="712.5" y="358.5332">6</text><text fill="#000000" font-family="sans-serif" font-size="20" lengthAdjust="spacing" textLength="201" x="730.5" y="358.5332">getCurrentSession()</text><polygon fill="#181818" points="711.5,398.5313,701.5,402.5313,711.5,406.5313,707.5,402.5313" style="stroke:#181818;stroke-width:1.0;"/><line style="stroke:#181818;stroke-width:1.0;stroke-dasharray:2.0,2.0;" x1="705.5" x2="1157.5" y1="402.5313" y2="402.5313"/><text fill="#000000" font-family="sans-serif" font-size="20" font-weight="bold" lengthAdjust="spacing" textLength="14" x="717.5" y="395.8145">7</text><text fill="#000000" font-family="sans-serif" font-size="20" lengthAdjust="spacing" textLength="149" x="735.5" y="395.8145">currentSession</text><polygon fill="#181818" points="445,435.8125,455,439.8125,445,443.8125,449,439.8125" style="stroke:#181818;stroke-width:1.0;"/><line style="stroke:#181818;stroke-width:1.0;" x1="267.5" x2="451" y1="439.8125" y2="439.8125"/><text fill="#000000" font-family="sans-serif" font-size="20" font-weight="bold" lengthAdjust="spacing" textLength="14" x="274.5" y="433.0957">8</text><text fill="#000000" font-family="sans-serif" font-size="20" lengthAdjust="spacing" textLength="50" x="292.5" y="433.0957">run()</text><polygon fill="#181818" points="61.5,503.0938,51.5,507.0938,61.5,511.0938,57.5,507.0938" style="stroke:#181818;stroke-width:1.0;"/><line style="stroke:#181818;stroke-width:1.0;stroke-dasharray:2.0,2.0;" x1="55.5" x2="461" y1="507.0938" y2="507.0938"/><text fill="#000000" font-family="sans-serif" font-size="20" font-weight="bold" lengthAdjust="spacing" textLength="14" x="67.5" y="500.377">9</text><text fill="#000000" font-family="sans-serif" font-size="20" lengthAdjust="spacing" textLength="199" x="85.5" y="500.377">requests something</text><path d="M10,547.0938 L104,547.0938 L104,562.375 L94,572.375 L10,572.375 L10,547.0938 " fill="#EEEEEE" style="stroke:#000000;stroke-width:1.5;"/><rect fill="none" height="358.8125" style="stroke:#000000;stroke-width:1.5;" width="1437" x="10" y="547.0938"/><text fill="#000000" font-family="sans-serif" font-size="20" font-weight="bold" lengthAdjust="spacing" textLength="49" x="25" y="566.6582">loop</text><polygon fill="#181818" points="445,597.6563,455,601.6563,445,605.6563,449,601.6563" style="stroke:#181818;stroke-width:1.0;"/><line style="stroke:#181818;stroke-width:1.0;" x1="50.5" x2="451" y1="601.6563" y2="601.6563"/><text fill="#000000" font-family="sans-serif" font-size="20" font-weight="bold" lengthAdjust="spacing" textLength="28" x="57.5" y="594.9395">10</text><text fill="#000000" font-family="sans-serif" font-size="20" lengthAdjust="spacing" textLength="160" x="89.5" y="594.9395">does something</text><polygon fill="#181818" points="683.5,634.9375,693.5,638.9375,683.5,642.9375,687.5,638.9375" style="stroke:#181818;stroke-width:1.0;"/><line style="stroke:#181818;stroke-width:1.0;" x1="467" x2="689.5" y1="638.9375" y2="638.9375"/><text fill="#000000" font-family="sans-serif" font-size="20" font-weight="bold" lengthAdjust="spacing" textLength="28" x="474" y="632.2207">11</text><text fill="#000000" font-family="sans-serif" font-size="20" lengthAdjust="spacing" textLength="126" x="506" y="632.2207">methodX(...)</text><polygon fill="#181818" points="924,672.2188,934,676.2188,924,680.2188,928,676.2188" style="stroke:#181818;stroke-width:1.0;"/><line style="stroke:#181818;stroke-width:1.0;" x1="705.5" x2="930" y1="676.2188" y2="676.2188"/><text fill="#000000" font-family="sans-serif" font-size="20" font-weight="bold" lengthAdjust="spacing" textLength="28" x="712.5" y="669.502">12</text><text fill="#000000" font-family="sans-serif" font-size="20" lengthAdjust="spacing" textLength="124" x="744.5" y="669.502">methodY(...)</text><rect fill="none" height="79.8438" style="stroke:#000000;stroke-width:1.5;" width="604" x="836" y="684.2188"/><path d="M836,684.2188 L914,684.2188 L914,699.2188 L904,709.2188 L836,709.2188 L836,684.2188 " fill="#EEEEEE" style="stroke:#000000;stroke-width:2.0;"/><text fill="#000000" font-family="sans-serif" font-size="20" font-weight="bold" lengthAdjust="spacing" textLength="33" x="849" y="704.7832">ref</text><text fill="#000000" font-family="sans-serif" font-size="20" lengthAdjust="spacing" textLength="6" x="1135" y="731.7832"> </text><text fill="#000000" font-family="sans-serif" font-size="20" lengthAdjust="spacing" textLength="6" x="1135" y="755.0645"> </text><polygon fill="#181818" points="716.5,794.3438,706.5,798.3438,716.5,802.3438,712.5,798.3438" style="stroke:#181818;stroke-width:1.0;"/><line style="stroke:#181818;stroke-width:1.0;stroke-dasharray:2.0,2.0;" x1="710.5" x2="940" y1="798.3438" y2="798.3438"/><text fill="#000000" font-family="sans-serif" font-size="20" font-weight="bold" lengthAdjust="spacing" textLength="28" x="722.5" y="791.627">13</text><text fill="#000000" font-family="sans-serif" font-size="20" lengthAdjust="spacing" textLength="72" x="754.5" y="791.627">answer</text><polygon fill="#181818" points="478,831.625,468,835.625,478,839.625,474,835.625" style="stroke:#181818;stroke-width:1.0;"/><line style="stroke:#181818;stroke-width:1.0;stroke-dasharray:2.0,2.0;" x1="472" x2="699.5" y1="835.625" y2="835.625"/><text fill="#000000" font-family="sans-serif" font-size="20" font-weight="bold" lengthAdjust="spacing" textLength="28" x="484" y="828.9082">14</text><text fill="#000000" font-family="sans-serif" font-size="20" lengthAdjust="spacing" textLength="72" x="516" y="828.9082">answer</text><polygon fill="#181818" points="61.5,868.9063,51.5,872.9063,61.5,876.9063,57.5,872.9063" style="stroke:#181818;stroke-width:1.0;"/><line style="stroke:#181818;stroke-width:1.0;stroke-dasharray:2.0,2.0;" x1="55.5" x2="461" y1="872.9063" y2="872.9063"/><text fill="#000000" font-family="sans-serif" font-size="20" font-weight="bold" lengthAdjust="spacing" textLength="28" x="67.5" y="866.1895">15</text><text fill="#000000" font-family="sans-serif" font-size="20" lengthAdjust="spacing" textLength="318" x="99.5" y="866.1895">answers/requests another thing</text><!--SRC=[bLNBRjim4BphAmXVuWQ9M_JeGm53S041iHDO5P02kJ3IsY8iaIf99Nsu_zubBScaBCKfBpQuiyFbx2obzenNLDAo4EaUCfB1bjQ5_YguZjbl89y_1Qg5a59maUPIb42qhC69L3JTqnt4-bS1H4AgATyLBa3bD1ElZE_8bXOAWe3MMl2wV0OP15Svou1iXT3FucT0KoqacIGAv8HGHP9ukGcGHREKLPHhCfd_MG6l7_ycaGMibkka3rZJ4kwtITXYad2zM2sJQ1GNuesbA8hcqF3Rvix7BgggO2dLJF0ObC8V2rmyFCJBE8xkrw6FfrNLu9xu_69ohx2qbXAm1Hs1KSFD39DDanaOmTWBrN1KAY2up3zo-yLAG-P4GO4zKOHo8YfJX0LrULP0qYoRSekvhMJNryYGIa1a1peTsUhQXUpnpQxbCL8ESMJm1aiNiermkSs6kPeZF7BlG3Ekq7OfJ3zuU2wGHR9Thhrjin2FafCIT2woi-WqPiR4Q5EqjzOWkKyCFBFatcPNj-kBFhDRUgiGtk7a6EAbE4Avh1TKYOwgX9wJUjeCy4PlL1kvrVeMlLnmDDHuszsUzKxEmrDaxTPyRfWUdtNok1NjM20f_AX1uJmeONgFRVPI3eV3PPCMGbGTgXqtf_1Cm13_y0tEY-raFfhpSJgRpKPwTpOXurDo9Fj-JlPkwvebOKl42qWNUECq-iPzd0OPpEWWos1iR3YuUiLlHH_zdjauwU6tQ81or9fZLZfog8-TfIW-2Jbgy_-sQeMnpWfSX7dM_m40]--></g></svg>