<?xml version="1.0" encoding="UTF-8" standalone="no"?><svg xmlns="http://www.w3.org/2000/svg" xmlns:xlink="http://www.w3.org/1999/xlink" contentStyleType="text/css" height="651px" preserveAspectRatio="none" style="width:1217px;height:651px;background:#FFFFFF;" version="1.1" viewBox="0 0 1217 651" width="1217px" zoomAndPan="magnify"><defs/><g><rect fill="#FFFFFF" height="499.375" style="stroke:#181818;stroke-width:1.0;" width="10" x="459" y="76.5625"/><rect fill="#FFFFFF" height="42.2813" style="stroke:#181818;stroke-width:1.0;" width="10" x="464" y="415.375"/><rect fill="#FFFFFF" height="37.2813" style="stroke:#181818;stroke-width:1.0;" width="10" x="699.5" y="143.125"/><rect fill="#FFFFFF" height="37.2813" style="stroke:#181818;stroke-width:1.0;" width="10" x="917" y="217.6875"/><rect fill="#FFFFFF" height="37.2813" style="stroke:#181818;stroke-width:1.0;" width="10" x="1114" y="292.25"/><rect fill="none" height="224.4063" style="stroke:#000000;stroke-width:1.5;" width="1199.5" x="11" y="344.5313"/><line style="stroke:#181818;stroke-width:0.5;stroke-dasharray:5.0,5.0;" x1="463.5" x2="463.5" y1="66.5625" y2="585.9375"/><line style="stroke:#181818;stroke-width:0.5;stroke-dasharray:5.0,5.0;" x1="704.5" x2="704.5" y1="66.5625" y2="585.9375"/><line style="stroke:#181818;stroke-width:0.5;stroke-dasharray:5.0,5.0;" x1="921.5" x2="921.5" y1="66.5625" y2="585.9375"/><line style="stroke:#181818;stroke-width:0.5;stroke-dasharray:5.0,5.0;" x1="1118.5" x2="1118.5" y1="66.5625" y2="585.9375"/><rect fill="#E3E3E3" height="37.2813" rx="2.5" ry="2.5" style="stroke:#181818;stroke-width:0.5;" width="257" x="335.5" y="28.2813"/><text fill="#000000" font-family="sans-serif" font-size="20" lengthAdjust="spacing" textLength="243" x="342.5" y="53.8457">:{NameOfUC}Controller</text><rect fill="#E3E3E3" height="37.2813" rx="2.5" ry="2.5" style="stroke:#181818;stroke-width:0.5;" width="257" x="335.5" y="584.9375"/><text fill="#000000" font-family="sans-serif" font-size="20" lengthAdjust="spacing" textLength="243" x="342.5" y="610.502">:{NameOfUC}Controller</text><rect fill="#E3E3E3" height="37.2813" rx="2.5" ry="2.5" style="stroke:#181818;stroke-width:0.5;" width="204" x="602.5" y="28.2813"/><text fill="#000000" font-family="sans-serif" font-size="20" lengthAdjust="spacing" textLength="190" x="609.5" y="53.8457">ApplicationSession</text><rect fill="#E3E3E3" height="37.2813" rx="2.5" ry="2.5" style="stroke:#181818;stroke-width:0.5;" width="204" x="602.5" y="584.9375"/><text fill="#000000" font-family="sans-serif" font-size="20" lengthAdjust="spacing" textLength="190" x="609.5" y="610.502">ApplicationSession</text><rect fill="#E3E3E3" height="60.5625" rx="2.5" ry="2.5" style="stroke:#181818;stroke-width:0.5;" width="211" x="816.5" y="5"/><text fill="#000000" font-family="sans-serif" font-size="20" lengthAdjust="spacing" textLength="114" x="865" y="30.5645">appSession</text><text fill="#000000" font-family="sans-serif" font-size="20" lengthAdjust="spacing" textLength="197" x="823.5" y="53.8457">:ApplicationSession</text><rect fill="#E3E3E3" height="60.5625" rx="2.5" ry="2.5" style="stroke:#181818;stroke-width:0.5;" width="211" x="816.5" y="584.9375"/><text fill="#000000" font-family="sans-serif" font-size="20" lengthAdjust="spacing" textLength="114" x="865" y="610.502">appSession</text><text fill="#000000" font-family="sans-serif" font-size="20" lengthAdjust="spacing" textLength="197" x="823.5" y="633.7832">:ApplicationSession</text><rect fill="#E3E3E3" height="60.5625" rx="2.5" ry="2.5" style="stroke:#181818;stroke-width:0.5;" width="163" x="1037.5" y="5"/><text fill="#000000" font-family="sans-serif" font-size="20" lengthAdjust="spacing" textLength="149" x="1044.5" y="30.5645">currentSession</text><text fill="#000000" font-family="sans-serif" font-size="20" lengthAdjust="spacing" textLength="128" x="1055" y="53.8457">:UserSession</text><rect fill="#E3E3E3" height="60.5625" rx="2.5" ry="2.5" style="stroke:#181818;stroke-width:0.5;" width="163" x="1037.5" y="584.9375"/><text fill="#000000" font-family="sans-serif" font-size="20" lengthAdjust="spacing" textLength="149" x="1044.5" y="610.502">currentSession</text><text fill="#000000" font-family="sans-serif" font-size="20" lengthAdjust="spacing" textLength="128" x="1055" y="633.7832">:UserSession</text><rect fill="#FFFFFF" height="499.375" style="stroke:#181818;stroke-width:1.0;" width="10" x="459" y="76.5625"/><rect fill="#FFFFFF" height="42.2813" style="stroke:#181818;stroke-width:1.0;" width="10" x="464" y="415.375"/><rect fill="#FFFFFF" height="37.2813" style="stroke:#181818;stroke-width:1.0;" width="10" x="699.5" y="143.125"/><rect fill="#FFFFFF" height="37.2813" style="stroke:#181818;stroke-width:1.0;" width="10" x="917" y="217.6875"/><rect fill="#FFFFFF" height="37.2813" style="stroke:#181818;stroke-width:1.0;" width="10" x="1114" y="292.25"/><ellipse cx="7.5" cy="105.0938" fill="none" rx="4" ry="4" style="stroke:#181818;stroke-width:1.5;"/><polygon fill="#181818" points="447,101.8438,457,105.8438,447,109.8438,451,105.8438" style="stroke:#181818;stroke-width:1.0;"/><line style="stroke:#181818;stroke-width:1.0;" x1="12" x2="453" y1="105.8438" y2="105.8438"/><text fill="#000000" font-family="sans-serif" font-size="20" font-weight="bold" lengthAdjust="spacing" textLength="14" x="15" y="99.127">1</text><text fill="#000000" font-family="sans-serif" font-size="20" lengthAdjust="spacing" textLength="79" x="33" y="99.127">create()</text><polygon fill="#181818" points="687.5,139.125,697.5,143.125,687.5,147.125,691.5,143.125" style="stroke:#181818;stroke-width:1.0;"/><line style="stroke:#181818;stroke-width:1.0;" x1="469" x2="693.5" y1="143.125" y2="143.125"/><text fill="#000000" font-family="sans-serif" font-size="20" font-weight="bold" lengthAdjust="spacing" textLength="14" x="476" y="136.4082">2</text><text fill="#000000" font-family="sans-serif" font-size="20" lengthAdjust="spacing" textLength="134" x="494" y="136.4082">getinstance()</text><polygon fill="#181818" points="480,176.4063,470,180.4063,480,184.4063,476,180.4063" style="stroke:#181818;stroke-width:1.0;"/><line style="stroke:#181818;stroke-width:1.0;stroke-dasharray:2.0,2.0;" x1="474" x2="703.5" y1="180.4063" y2="180.4063"/><text fill="#000000" font-family="sans-serif" font-size="20" font-weight="bold" lengthAdjust="spacing" textLength="14" x="486" y="173.6895">3</text><text fill="#000000" font-family="sans-serif" font-size="20" lengthAdjust="spacing" textLength="114" x="504" y="173.6895">appSession</text><polygon fill="#181818" points="905,213.6875,915,217.6875,905,221.6875,909,217.6875" style="stroke:#181818;stroke-width:1.0;"/><line style="stroke:#181818;stroke-width:1.0;" x1="469" x2="911" y1="217.6875" y2="217.6875"/><text fill="#000000" font-family="sans-serif" font-size="20" font-weight="bold" lengthAdjust="spacing" textLength="14" x="476" y="210.9707">4</text><text fill="#000000" font-family="sans-serif" font-size="20" lengthAdjust="spacing" textLength="201" x="494" y="210.9707">getCurrentSession()</text><polygon fill="#181818" points="480,250.9688,470,254.9688,480,258.9688,476,254.9688" style="stroke:#181818;stroke-width:1.0;"/><line style="stroke:#181818;stroke-width:1.0;stroke-dasharray:2.0,2.0;" x1="474" x2="921" y1="254.9688" y2="254.9688"/><text fill="#000000" font-family="sans-serif" font-size="20" font-weight="bold" lengthAdjust="spacing" textLength="14" x="486" y="248.252">5</text><text fill="#000000" font-family="sans-serif" font-size="20" lengthAdjust="spacing" textLength="149" x="504" y="248.252">currentSession</text><polygon fill="#181818" points="1102,288.25,1112,292.25,1102,296.25,1106,292.25" style="stroke:#181818;stroke-width:1.0;"/><line style="stroke:#181818;stroke-width:1.0;" x1="469" x2="1108" y1="292.25" y2="292.25"/><text fill="#000000" font-family="sans-serif" font-size="20" font-weight="bold" lengthAdjust="spacing" textLength="14" x="476" y="285.5332">6</text><text fill="#000000" font-family="sans-serif" font-size="20" lengthAdjust="spacing" textLength="335" x="494" y="285.5332">isLoggedInWithRole(USER_ROLE)</text><polygon fill="#181818" points="480,325.5313,470,329.5313,480,333.5313,476,329.5313" style="stroke:#181818;stroke-width:1.0;"/><line style="stroke:#181818;stroke-width:1.0;stroke-dasharray:2.0,2.0;" x1="474" x2="1118" y1="329.5313" y2="329.5313"/><text fill="#000000" font-family="sans-serif" font-size="20" font-weight="bold" lengthAdjust="spacing" textLength="14" x="486" y="322.8145">7</text><text fill="#000000" font-family="sans-serif" font-size="20" lengthAdjust="spacing" textLength="72" x="504" y="322.8145">answer</text><path d="M11,344.5313 L87,344.5313 L87,359.8125 L77,369.8125 L11,369.8125 L11,344.5313 " fill="#EEEEEE" style="stroke:#000000;stroke-width:1.5;"/><rect fill="none" height="224.4063" style="stroke:#000000;stroke-width:1.5;" width="1199.5" x="11" y="344.5313"/><text fill="#000000" font-family="sans-serif" font-size="20" font-weight="bold" lengthAdjust="spacing" textLength="31" x="26" y="364.0957">alt</text><text fill="#000000" font-family="sans-serif" font-size="20" font-weight="bold" lengthAdjust="spacing" textLength="179" x="102" y="365.0957">[answer = true]</text><line style="stroke:#181818;stroke-width:1.0;" x1="469" x2="516" y1="402.375" y2="402.375"/><line style="stroke:#181818;stroke-width:1.0;" x1="516" x2="516" y1="402.375" y2="415.375"/><line style="stroke:#181818;stroke-width:1.0;" x1="475" x2="516" y1="415.375" y2="415.375"/><polygon fill="#181818" points="485,411.375,475,415.375,485,419.375,481,415.375" style="stroke:#181818;stroke-width:1.0;"/><text fill="#000000" font-family="sans-serif" font-size="20" font-weight="bold" lengthAdjust="spacing" textLength="14" x="481" y="395.6582">8</text><text fill="#000000" font-family="sans-serif" font-size="20" lengthAdjust="spacing" textLength="177" x="499" y="395.6582">doesOtherThing()</text><ellipse cx="7.5" cy="456.9063" fill="none" rx="4" ry="4" style="stroke:#181818;stroke-width:1.5;"/><polygon fill="#181818" points="24.5,453.6563,14.5,457.6563,24.5,461.6563,20.5,457.6563" style="stroke:#181818;stroke-width:1.0;"/><line style="stroke:#181818;stroke-width:1.0;stroke-dasharray:2.0,2.0;" x1="22.5" x2="458" y1="457.6563" y2="457.6563"/><text fill="#000000" font-family="sans-serif" font-size="20" font-weight="bold" lengthAdjust="spacing" textLength="14" x="25" y="450.9395">9</text><text fill="#000000" font-family="sans-serif" font-size="20" lengthAdjust="spacing" textLength="24" x="43" y="450.9395">ok</text><polygon fill="#FFFFFF" points="1107,467.6563,1117,471.6563,1107,475.6563,1111,471.6563" style="stroke:#FFFFFF;stroke-width:1.0;"/><line style="stroke:#FFFFFF;stroke-width:1.0;" x1="469" x2="1113" y1="471.6563" y2="471.6563"/><line style="stroke:#000000;stroke-width:1.0;stroke-dasharray:2.0,2.0;" x1="11" x2="1210.5" y1="480.6563" y2="480.6563"/><ellipse cx="7.5" cy="535.1875" fill="none" rx="4" ry="4" style="stroke:#181818;stroke-width:1.5;"/><polygon fill="#181818" points="24.5,531.9375,14.5,535.9375,24.5,539.9375,20.5,535.9375" style="stroke:#181818;stroke-width:1.0;"/><line style="stroke:#181818;stroke-width:1.0;stroke-dasharray:2.0,2.0;" x1="22.5" x2="458" y1="535.9375" y2="535.9375"/><text fill="#000000" font-family="sans-serif" font-size="20" font-weight="bold" lengthAdjust="spacing" textLength="28" x="25" y="529.2207">10</text><text fill="#000000" font-family="sans-serif" font-size="20" lengthAdjust="spacing" textLength="400" x="57" y="529.2207">illegalStateException("Not Authorized")</text><!--SRC=[XPHFYzim4CNl-XGYFJHx22mzXdOXc2mOGhBO6tf8owAL9xQ8h37IkDcswNUl_2-HqopLnSPwx_atOutTGPbAM55gb0V8U0PxKMjwH4Ef-WNyqprpWuINQ50M5alWP6i8TYeX3oA7b7vgu1Oa2PFhKE0AaU5HcPplXNR0cAW9JLs-WcNiOw4ou7j4UiKtvWsafAg48JwP_rwB4ZRxRVGdyamMjGOxuSBnw3bPZRMBgj9A2b9eKd3ENrhXukafNQPfl5b7OxsegbxtpSp_Qux7PbbR2xv9vu2j0niwestIEtsnajGFGT11xt3sqDxnEPSM_FFf7UD-jS_yNa3i9JcGCivtL3QwLdZE2slZ_GhTiykRBjMsoWnkXhp34NSSqQZedlf6Jdm39WvXnjrx7oWU0rrwwZEKMs6UGnQRhugA13LCj-aoUKasg-KLMV0j1h0WAcoISKT_8gzuma_PvchgbVnBDmddr06qYyiGt8OAiC-5F_fzlyPapO7WmThXvzbiyEFXl1VYX9xB7757M5sHx3uS2qNm_U5M2mAh1LUNNHdGZESWEPrEx2QPydEO2vsI1rg-IQYQmPbEraXyKLE1rlyyiidTFq5WigPzZ5tNynS0]--></g></svg>