<?xml version="1.0" encoding="UTF-8" standalone="no"?><svg xmlns="http://www.w3.org/2000/svg" xmlns:xlink="http://www.w3.org/1999/xlink" contentStyleType="text/css" height="1320px" preserveAspectRatio="none" style="width:2408px;height:1320px;background:#FFFFFF;" version="1.1" viewBox="0 0 2408 1320" width="2408px" zoomAndPan="magnify"><defs/><g><rect fill="#FFFFFF" height="1121.6875" style="stroke:#181818;stroke-width:1.0;" width="10" x="43.5" y="100.1563"/><rect fill="#FFFFFF" height="274.0938" style="stroke:#181818;stroke-width:1.0;" width="10" x="636.5" y="131.3125"/><rect fill="#FFFFFF" height="352.4063" style="stroke:#181818;stroke-width:1.0;" width="10" x="636.5" y="488.875"/><rect fill="#FFFFFF" height="290.0938" style="stroke:#181818;stroke-width:1.0;" width="10" x="636.5" y="931.75"/><rect fill="#FFFFFF" height="195.7813" style="stroke:#181818;stroke-width:1.0;" width="10" x="1044.5" y="170.4688"/><rect fill="#FFFFFF" height="274.0938" style="stroke:#181818;stroke-width:1.0;" width="10" x="1044.5" y="528.0313"/><rect fill="#FFFFFF" height="195.7813" style="stroke:#181818;stroke-width:1.0;" width="10" x="1044.5" y="970.9063"/><rect fill="#FFFFFF" height="117.4688" style="stroke:#181818;stroke-width:1.0;" width="10" x="1475.5" y="209.625"/><rect fill="#FFFFFF" height="195.7813" style="stroke:#181818;stroke-width:1.0;" width="10" x="1475.5" y="567.1875"/><rect fill="#FFFFFF" height="117.4688" style="stroke:#181818;stroke-width:1.0;" width="10" x="1475.5" y="1010.0625"/><rect fill="#FFFFFF" height="39.1563" style="stroke:#181818;stroke-width:1.0;" width="10" x="1820.5" y="248.7813"/><rect fill="#FFFFFF" height="39.1563" style="stroke:#181818;stroke-width:1.0;" width="10" x="1820.5" y="1049.2188"/><rect fill="#FFFFFF" height="117.4688" style="stroke:#181818;stroke-width:1.0;" width="10" x="2040" y="606.3438"/><rect fill="#FFFFFF" height="39.1563" style="stroke:#181818;stroke-width:1.0;" width="10" x="2316" y="645.5"/><rect fill="none" height="428.875" style="stroke:#000000;stroke-width:1.5;" width="2392" x="10" y="420.4063"/><rect fill="none" height="350.5625" style="stroke:#000000;stroke-width:1.5;" width="1916.5" x="10" y="863.2813"/><line style="stroke:#181818;stroke-width:0.5;stroke-dasharray:5.0,5.0;" x1="48" x2="48" y1="90.1563" y2="1230.8438"/><line style="stroke:#181818;stroke-width:0.5;stroke-dasharray:5.0,5.0;" x1="641.5" x2="641.5" y1="90.1563" y2="1230.8438"/><line style="stroke:#181818;stroke-width:0.5;stroke-dasharray:5.0,5.0;" x1="1049" x2="1049" y1="90.1563" y2="1230.8438"/><line style="stroke:#181818;stroke-width:0.5;stroke-dasharray:5.0,5.0;" x1="1480.5" x2="1480.5" y1="90.1563" y2="1230.8438"/><line style="stroke:#181818;stroke-width:0.5;stroke-dasharray:5.0,5.0;" x1="1825.5" x2="1825.5" y1="90.1563" y2="1230.8438"/><line style="stroke:#181818;stroke-width:0.5;stroke-dasharray:5.0,5.0;" x1="2044.5" x2="2044.5" y1="90.1563" y2="1230.8438"/><line style="stroke:#181818;stroke-width:0.5;stroke-dasharray:5.0,5.0;" x1="2321" x2="2321" y1="90.1563" y2="1230.8438"/><text fill="#000000" font-family="sans-serif" font-size="20" lengthAdjust="spacing" textLength="51" x="20" y="85.7617">Agent</text><ellipse cx="48.5" cy="13.5" fill="#E3E3E3" rx="8" ry="8" style="stroke:#181818;stroke-width:0.5;"/><path d="M48.5,21.5 L48.5,48.5 M35.5,29.5 L61.5,29.5 M48.5,48.5 L35.5,63.5 M48.5,48.5 L61.5,63.5 " fill="none" style="stroke:#181818;stroke-width:0.5;"/><text fill="#000000" font-family="sans-serif" font-size="20" lengthAdjust="spacing" textLength="51" x="20" y="1250.6055">Agent</text><ellipse cx="48.5" cy="1263.5" fill="#E3E3E3" rx="8" ry="8" style="stroke:#181818;stroke-width:0.5;"/><path d="M48.5,1271.5 L48.5,1298.5 M35.5,1279.5 L61.5,1279.5 M48.5,1298.5 L35.5,1313.5 M48.5,1298.5 L61.5,1313.5 " fill="none" style="stroke:#181818;stroke-width:0.5;"/><rect fill="#E3E3E3" height="39.1563" rx="2.5" ry="2.5" style="stroke:#181818;stroke-width:0.5;" width="326" x="478.5" y="50"/><text fill="#000000" font-family="sans-serif" font-size="20" lengthAdjust="spacing" textLength="312" x="485.5" y="77.7617">:PropertyAnnouncementsRequestUI</text><rect fill="#E3E3E3" height="39.1563" rx="2.5" ry="2.5" style="stroke:#181818;stroke-width:0.5;" width="326" x="478.5" y="1229.8438"/><text fill="#000000" font-family="sans-serif" font-size="20" lengthAdjust="spacing" textLength="312" x="485.5" y="1257.6055">:PropertyAnnouncementsRequestUI</text><rect fill="#E3E3E3" height="39.1563" rx="2.5" ry="2.5" style="stroke:#181818;stroke-width:0.5;" width="273" x="913" y="50"/><text fill="#000000" font-family="sans-serif" font-size="20" lengthAdjust="spacing" textLength="259" x="920" y="77.7617">:PostAnnouncementController</text><rect fill="#E3E3E3" height="39.1563" rx="2.5" ry="2.5" style="stroke:#181818;stroke-width:0.5;" width="273" x="913" y="1229.8438"/><text fill="#000000" font-family="sans-serif" font-size="20" lengthAdjust="spacing" textLength="259" x="920" y="1257.6055">:PostAnnouncementController</text><rect fill="#E3E3E3" height="39.1563" rx="2.5" ry="2.5" style="stroke:#181818;stroke-width:0.5;" width="130" x="1415.5" y="50"/><text fill="#000000" font-family="sans-serif" font-size="20" lengthAdjust="spacing" textLength="116" x="1422.5" y="77.7617">:Repositories</text><rect fill="#E3E3E3" height="39.1563" rx="2.5" ry="2.5" style="stroke:#181818;stroke-width:0.5;" width="130" x="1415.5" y="1229.8438"/><text fill="#000000" font-family="sans-serif" font-size="20" lengthAdjust="spacing" textLength="116" x="1422.5" y="1257.6055">:Repositories</text><rect fill="#E3E3E3" height="39.1563" rx="2.5" ry="2.5" style="stroke:#181818;stroke-width:0.5;" width="182" x="1734.5" y="50"/><text fill="#000000" font-family="sans-serif" font-size="20" lengthAdjust="spacing" textLength="168" x="1741.5" y="77.7617">RequestRepository</text><rect fill="#E3E3E3" height="39.1563" rx="2.5" ry="2.5" style="stroke:#181818;stroke-width:0.5;" width="182" x="1734.5" y="1229.8438"/><text fill="#000000" font-family="sans-serif" font-size="20" lengthAdjust="spacing" textLength="168" x="1741.5" y="1257.6055">RequestRepository</text><rect fill="#E3E3E3" height="39.1563" rx="2.5" ry="2.5" style="stroke:#181818;stroke-width:0.5;" width="237" x="1926.5" y="50"/><text fill="#000000" font-family="sans-serif" font-size="20" lengthAdjust="spacing" textLength="223" x="1933.5" y="77.7617">AnnouncementRepository</text><rect fill="#E3E3E3" height="39.1563" rx="2.5" ry="2.5" style="stroke:#181818;stroke-width:0.5;" width="237" x="1926.5" y="1229.8438"/><text fill="#000000" font-family="sans-serif" font-size="20" lengthAdjust="spacing" textLength="223" x="1933.5" y="1257.6055">AnnouncementRepository</text><rect fill="#E3E3E3" height="39.1563" rx="2.5" ry="2.5" style="stroke:#181818;stroke-width:0.5;" width="142" x="2250" y="50"/><text fill="#000000" font-family="sans-serif" font-size="20" lengthAdjust="spacing" textLength="128" x="2257" y="77.7617">Announcement</text><rect fill="#E3E3E3" height="39.1563" rx="2.5" ry="2.5" style="stroke:#181818;stroke-width:0.5;" width="142" x="2250" y="1229.8438"/><text fill="#000000" font-family="sans-serif" font-size="20" lengthAdjust="spacing" textLength="128" x="2257" y="1257.6055">Announcement</text><rect fill="#FFFFFF" height="1121.6875" style="stroke:#181818;stroke-width:1.0;" width="10" x="43.5" y="100.1563"/><rect fill="#FFFFFF" height="274.0938" style="stroke:#181818;stroke-width:1.0;" width="10" x="636.5" y="131.3125"/><rect fill="#FFFFFF" height="352.4063" style="stroke:#181818;stroke-width:1.0;" width="10" x="636.5" y="488.875"/><rect fill="#FFFFFF" height="290.0938" style="stroke:#181818;stroke-width:1.0;" width="10" x="636.5" y="931.75"/><rect fill="#FFFFFF" height="195.7813" style="stroke:#181818;stroke-width:1.0;" width="10" x="1044.5" y="170.4688"/><rect fill="#FFFFFF" height="274.0938" style="stroke:#181818;stroke-width:1.0;" width="10" x="1044.5" y="528.0313"/><rect fill="#FFFFFF" height="195.7813" style="stroke:#181818;stroke-width:1.0;" width="10" x="1044.5" y="970.9063"/><rect fill="#FFFFFF" height="117.4688" style="stroke:#181818;stroke-width:1.0;" width="10" x="1475.5" y="209.625"/><rect fill="#FFFFFF" height="195.7813" style="stroke:#181818;stroke-width:1.0;" width="10" x="1475.5" y="567.1875"/><rect fill="#FFFFFF" height="117.4688" style="stroke:#181818;stroke-width:1.0;" width="10" x="1475.5" y="1010.0625"/><rect fill="#FFFFFF" height="39.1563" style="stroke:#181818;stroke-width:1.0;" width="10" x="1820.5" y="248.7813"/><rect fill="#FFFFFF" height="39.1563" style="stroke:#181818;stroke-width:1.0;" width="10" x="1820.5" y="1049.2188"/><rect fill="#FFFFFF" height="117.4688" style="stroke:#181818;stroke-width:1.0;" width="10" x="2040" y="606.3438"/><rect fill="#FFFFFF" height="39.1563" style="stroke:#181818;stroke-width:1.0;" width="10" x="2316" y="645.5"/><polygon fill="#181818" points="624.5,127.3125,634.5,131.3125,624.5,135.3125,628.5,131.3125" style="stroke:#181818;stroke-width:1.0;"/><line style="stroke:#181818;stroke-width:1.0;" x1="53.5" x2="630.5" y1="131.3125" y2="131.3125"/><text fill="#000000" font-family="sans-serif" font-size="20" font-weight="bold" lengthAdjust="spacing" textLength="11" x="60.5" y="124.918">1</text><text fill="#000000" font-family="sans-serif" font-size="20" lengthAdjust="spacing" textLength="412" x="75.5" y="124.918">asks to see the list of property Announcements</text><polygon fill="#181818" points="1032.5,166.4688,1042.5,170.4688,1032.5,174.4688,1036.5,170.4688" style="stroke:#181818;stroke-width:1.0;"/><line style="stroke:#181818;stroke-width:1.0;" x1="646.5" x2="1038.5" y1="170.4688" y2="170.4688"/><text fill="#000000" font-family="sans-serif" font-size="20" font-weight="bold" lengthAdjust="spacing" textLength="11" x="653.5" y="164.0742">2</text><text fill="#000000" font-family="sans-serif" font-size="20" lengthAdjust="spacing" textLength="56" x="668.5" y="164.0742">create</text><polygon fill="#181818" points="1463.5,205.625,1473.5,209.625,1463.5,213.625,1467.5,209.625" style="stroke:#181818;stroke-width:1.0;"/><line style="stroke:#181818;stroke-width:1.0;" x1="1054.5" x2="1469.5" y1="209.625" y2="209.625"/><text fill="#000000" font-family="sans-serif" font-size="20" font-weight="bold" lengthAdjust="spacing" textLength="11" x="1061.5" y="203.2305">3</text><text fill="#000000" font-family="sans-serif" font-size="20" lengthAdjust="spacing" textLength="387" x="1076.5" y="203.2305">getRequestByDate(getEmployeeInSession()</text><polygon fill="#181818" points="1808.5,244.7813,1818.5,248.7813,1808.5,252.7813,1812.5,248.7813" style="stroke:#181818;stroke-width:1.0;"/><line style="stroke:#181818;stroke-width:1.0;" x1="1485.5" x2="1814.5" y1="248.7813" y2="248.7813"/><text fill="#000000" font-family="sans-serif" font-size="20" font-weight="bold" lengthAdjust="spacing" textLength="11" x="1492.5" y="242.3867">4</text><text fill="#000000" font-family="sans-serif" font-size="20" lengthAdjust="spacing" textLength="132" x="1507.5" y="242.3867">getRequestList</text><polygon fill="#181818" points="1496.5,283.9375,1486.5,287.9375,1496.5,291.9375,1492.5,287.9375" style="stroke:#181818;stroke-width:1.0;"/><line style="stroke:#181818;stroke-width:1.0;stroke-dasharray:2.0,2.0;" x1="1490.5" x2="1824.5" y1="287.9375" y2="287.9375"/><text fill="#000000" font-family="sans-serif" font-size="20" font-weight="bold" lengthAdjust="spacing" textLength="11" x="1502.5" y="281.543">5</text><text fill="#000000" font-family="sans-serif" font-size="20" lengthAdjust="spacing" textLength="97" x="1517.5" y="281.543">requestList</text><polygon fill="#181818" points="1065.5,323.0938,1055.5,327.0938,1065.5,331.0938,1061.5,327.0938" style="stroke:#181818;stroke-width:1.0;"/><line style="stroke:#181818;stroke-width:1.0;stroke-dasharray:2.0,2.0;" x1="1059.5" x2="1479.5" y1="327.0938" y2="327.0938"/><text fill="#000000" font-family="sans-serif" font-size="20" font-weight="bold" lengthAdjust="spacing" textLength="11" x="1071.5" y="320.6992">6</text><text fill="#000000" font-family="sans-serif" font-size="20" lengthAdjust="spacing" textLength="131" x="1086.5" y="320.6992">requestByDate</text><polygon fill="#181818" points="657.5,362.25,647.5,366.25,657.5,370.25,653.5,366.25" style="stroke:#181818;stroke-width:1.0;"/><line style="stroke:#181818;stroke-width:1.0;" x1="651.5" x2="1048.5" y1="366.25" y2="366.25"/><text fill="#000000" font-family="sans-serif" font-size="20" font-weight="bold" lengthAdjust="spacing" textLength="11" x="663.5" y="359.8555">7</text><text fill="#000000" font-family="sans-serif" font-size="20" lengthAdjust="spacing" textLength="359" x="678.5" y="359.8555">requestByDate(getEmployeeInSession())</text><polygon fill="#181818" points="64.5,401.4063,54.5,405.4063,64.5,409.4063,60.5,405.4063" style="stroke:#181818;stroke-width:1.0;"/><line style="stroke:#181818;stroke-width:1.0;stroke-dasharray:2.0,2.0;" x1="58.5" x2="640.5" y1="405.4063" y2="405.4063"/><text fill="#000000" font-family="sans-serif" font-size="20" font-weight="bold" lengthAdjust="spacing" textLength="11" x="70.5" y="399.0117">8</text><text fill="#000000" font-family="sans-serif" font-size="20" lengthAdjust="spacing" textLength="544" x="85.5" y="399.0117">show the Announcements Lists and asks to post one or delete</text><path d="M10,420.4063 L86,420.4063 L86,437.5625 L76,447.5625 L10,447.5625 L10,420.4063 " fill="#EEEEEE" style="stroke:#000000;stroke-width:1.5;"/><rect fill="none" height="428.875" style="stroke:#000000;stroke-width:1.5;" width="2392" x="10" y="420.4063"/><text fill="#000000" font-family="sans-serif" font-size="20" font-weight="bold" lengthAdjust="spacing" textLength="31" x="25" y="442.168">opt</text><text fill="#000000" font-family="sans-serif" font-size="20" font-weight="bold" lengthAdjust="spacing" textLength="518" x="101" y="443.168">[: The agent wants to post one of the Announcements]</text><polygon fill="#181818" points="624.5,484.875,634.5,488.875,624.5,492.875,628.5,488.875" style="stroke:#181818;stroke-width:1.0;"/><line style="stroke:#181818;stroke-width:1.0;" x1="53.5" x2="630.5" y1="488.875" y2="488.875"/><text fill="#000000" font-family="sans-serif" font-size="20" font-weight="bold" lengthAdjust="spacing" textLength="11" x="60.5" y="482.4805">9</text><text fill="#000000" font-family="sans-serif" font-size="20" lengthAdjust="spacing" textLength="301" x="75.5" y="482.4805">selects the Announcement do post</text><polygon fill="#181818" points="1032.5,524.0313,1042.5,528.0313,1032.5,532.0313,1036.5,528.0313" style="stroke:#181818;stroke-width:1.0;"/><line style="stroke:#181818;stroke-width:1.0;" x1="646.5" x2="1038.5" y1="528.0313" y2="528.0313"/><text fill="#000000" font-family="sans-serif" font-size="20" font-weight="bold" lengthAdjust="spacing" textLength="22" x="653.5" y="521.6367">10</text><text fill="#000000" font-family="sans-serif" font-size="20" lengthAdjust="spacing" textLength="162" x="679.5" y="521.6367">createCommission</text><polygon fill="#181818" points="1463.5,563.1875,1473.5,567.1875,1463.5,571.1875,1467.5,567.1875" style="stroke:#181818;stroke-width:1.0;"/><line style="stroke:#181818;stroke-width:1.0;" x1="1054.5" x2="1469.5" y1="567.1875" y2="567.1875"/><text fill="#000000" font-family="sans-serif" font-size="20" font-weight="bold" lengthAdjust="spacing" textLength="22" x="1061.5" y="560.793">11</text><text fill="#000000" font-family="sans-serif" font-size="20" lengthAdjust="spacing" textLength="162" x="1087.5" y="560.793">createCommission</text><polygon fill="#181818" points="2028,602.3438,2038,606.3438,2028,610.3438,2032,606.3438" style="stroke:#181818;stroke-width:1.0;"/><line style="stroke:#181818;stroke-width:1.0;" x1="1485.5" x2="2034" y1="606.3438" y2="606.3438"/><text fill="#000000" font-family="sans-serif" font-size="20" font-weight="bold" lengthAdjust="spacing" textLength="22" x="1492.5" y="599.9492">12</text><text fill="#000000" font-family="sans-serif" font-size="20" lengthAdjust="spacing" textLength="162" x="1518.5" y="599.9492">createCommission</text><polygon fill="#181818" points="2304,641.5,2314,645.5,2304,649.5,2308,645.5" style="stroke:#181818;stroke-width:1.0;"/><line style="stroke:#181818;stroke-width:1.0;" x1="2050" x2="2310" y1="645.5" y2="645.5"/><text fill="#000000" font-family="sans-serif" font-size="20" font-weight="bold" lengthAdjust="spacing" textLength="22" x="2057" y="639.1055">13</text><text fill="#000000" font-family="sans-serif" font-size="20" lengthAdjust="spacing" textLength="185" x="2083" y="639.1055">submitAnnouncement</text><polygon fill="#181818" points="2061,680.6563,2051,684.6563,2061,688.6563,2057,684.6563" style="stroke:#181818;stroke-width:1.0;"/><line style="stroke:#181818;stroke-width:1.0;stroke-dasharray:2.0,2.0;" x1="2055" x2="2320" y1="684.6563" y2="684.6563"/><text fill="#000000" font-family="sans-serif" font-size="20" font-weight="bold" lengthAdjust="spacing" textLength="22" x="2067" y="678.2617">14</text><text fill="#000000" font-family="sans-serif" font-size="20" lengthAdjust="spacing" textLength="216" x="2093" y="678.2617">Announcement published</text><polygon fill="#181818" points="1496.5,719.8125,1486.5,723.8125,1496.5,727.8125,1492.5,723.8125" style="stroke:#181818;stroke-width:1.0;"/><line style="stroke:#181818;stroke-width:1.0;stroke-dasharray:2.0,2.0;" x1="1490.5" x2="2044" y1="723.8125" y2="723.8125"/><text fill="#000000" font-family="sans-serif" font-size="20" font-weight="bold" lengthAdjust="spacing" textLength="22" x="1502.5" y="717.418">15</text><text fill="#000000" font-family="sans-serif" font-size="20" lengthAdjust="spacing" textLength="216" x="1528.5" y="717.418">Announcement published</text><polygon fill="#181818" points="1065.5,758.9688,1055.5,762.9688,1065.5,766.9688,1061.5,762.9688" style="stroke:#181818;stroke-width:1.0;"/><line style="stroke:#181818;stroke-width:1.0;stroke-dasharray:2.0,2.0;" x1="1059.5" x2="1479.5" y1="762.9688" y2="762.9688"/><text fill="#000000" font-family="sans-serif" font-size="20" font-weight="bold" lengthAdjust="spacing" textLength="22" x="1071.5" y="756.5742">16</text><text fill="#000000" font-family="sans-serif" font-size="20" lengthAdjust="spacing" textLength="216" x="1097.5" y="756.5742">Announcement published</text><polygon fill="#181818" points="657.5,798.125,647.5,802.125,657.5,806.125,653.5,802.125" style="stroke:#181818;stroke-width:1.0;"/><line style="stroke:#181818;stroke-width:1.0;stroke-dasharray:2.0,2.0;" x1="651.5" x2="1048.5" y1="802.125" y2="802.125"/><text fill="#000000" font-family="sans-serif" font-size="20" font-weight="bold" lengthAdjust="spacing" textLength="22" x="663.5" y="795.7305">17</text><text fill="#000000" font-family="sans-serif" font-size="20" lengthAdjust="spacing" textLength="216" x="689.5" y="795.7305">Announcement published</text><polygon fill="#181818" points="64.5,837.2813,54.5,841.2813,64.5,845.2813,60.5,841.2813" style="stroke:#181818;stroke-width:1.0;"/><line style="stroke:#181818;stroke-width:1.0;stroke-dasharray:2.0,2.0;" x1="58.5" x2="640.5" y1="841.2813" y2="841.2813"/><text fill="#000000" font-family="sans-serif" font-size="20" font-weight="bold" lengthAdjust="spacing" textLength="22" x="70.5" y="834.8867">18</text><text fill="#000000" font-family="sans-serif" font-size="20" lengthAdjust="spacing" textLength="509" x="96.5" y="834.8867">Informs operation success (Announcement was published)</text><path d="M10,863.2813 L86,863.2813 L86,880.4375 L76,890.4375 L10,890.4375 L10,863.2813 " fill="#EEEEEE" style="stroke:#000000;stroke-width:1.5;"/><rect fill="none" height="350.5625" style="stroke:#000000;stroke-width:1.5;" width="1916.5" x="10" y="863.2813"/><text fill="#000000" font-family="sans-serif" font-size="20" font-weight="bold" lengthAdjust="spacing" textLength="31" x="25" y="885.043">opt</text><text fill="#000000" font-family="sans-serif" font-size="20" font-weight="bold" lengthAdjust="spacing" textLength="533" x="101" y="886.043">[: The agent wants to delete one of the Announcements]</text><polygon fill="#181818" points="624.5,927.75,634.5,931.75,624.5,935.75,628.5,931.75" style="stroke:#181818;stroke-width:1.0;"/><line style="stroke:#181818;stroke-width:1.0;" x1="53.5" x2="630.5" y1="931.75" y2="931.75"/><text fill="#000000" font-family="sans-serif" font-size="20" font-weight="bold" lengthAdjust="spacing" textLength="22" x="60.5" y="925.3555">19</text><text fill="#000000" font-family="sans-serif" font-size="20" lengthAdjust="spacing" textLength="317" x="86.5" y="925.3555">selects the Announcement do delete</text><polygon fill="#181818" points="1032.5,966.9063,1042.5,970.9063,1032.5,974.9063,1036.5,970.9063" style="stroke:#181818;stroke-width:1.0;"/><line style="stroke:#181818;stroke-width:1.0;" x1="646.5" x2="1038.5" y1="970.9063" y2="970.9063"/><text fill="#000000" font-family="sans-serif" font-size="20" font-weight="bold" lengthAdjust="spacing" textLength="22" x="653.5" y="964.5117">20</text><text fill="#000000" font-family="sans-serif" font-size="20" lengthAdjust="spacing" textLength="141" x="679.5" y="964.5117">deleteRequest()</text><polygon fill="#181818" points="1463.5,1006.0625,1473.5,1010.0625,1463.5,1014.0625,1467.5,1010.0625" style="stroke:#181818;stroke-width:1.0;"/><line style="stroke:#181818;stroke-width:1.0;" x1="1054.5" x2="1469.5" y1="1010.0625" y2="1010.0625"/><text fill="#000000" font-family="sans-serif" font-size="20" font-weight="bold" lengthAdjust="spacing" textLength="22" x="1061.5" y="1003.668">21</text><text fill="#000000" font-family="sans-serif" font-size="20" lengthAdjust="spacing" textLength="130" x="1087.5" y="1003.668">deleteRquest()</text><polygon fill="#181818" points="1808.5,1045.2188,1818.5,1049.2188,1808.5,1053.2188,1812.5,1049.2188" style="stroke:#181818;stroke-width:1.0;"/><line style="stroke:#181818;stroke-width:1.0;" x1="1485.5" x2="1814.5" y1="1049.2188" y2="1049.2188"/><text fill="#000000" font-family="sans-serif" font-size="20" font-weight="bold" lengthAdjust="spacing" textLength="22" x="1492.5" y="1042.8242">22</text><text fill="#000000" font-family="sans-serif" font-size="20" lengthAdjust="spacing" textLength="141" x="1518.5" y="1042.8242">deleteRequest()</text><polygon fill="#181818" points="1496.5,1084.375,1486.5,1088.375,1496.5,1092.375,1492.5,1088.375" style="stroke:#181818;stroke-width:1.0;"/><line style="stroke:#181818;stroke-width:1.0;stroke-dasharray:2.0,2.0;" x1="1490.5" x2="1824.5" y1="1088.375" y2="1088.375"/><text fill="#000000" font-family="sans-serif" font-size="20" font-weight="bold" lengthAdjust="spacing" textLength="22" x="1502.5" y="1081.9805">23</text><text fill="#000000" font-family="sans-serif" font-size="20" lengthAdjust="spacing" textLength="285" x="1528.5" y="1081.9805">Request Deleted and Email Sent</text><polygon fill="#181818" points="1065.5,1123.5313,1055.5,1127.5313,1065.5,1131.5313,1061.5,1127.5313" style="stroke:#181818;stroke-width:1.0;"/><line style="stroke:#181818;stroke-width:1.0;stroke-dasharray:2.0,2.0;" x1="1059.5" x2="1479.5" y1="1127.5313" y2="1127.5313"/><text fill="#000000" font-family="sans-serif" font-size="20" font-weight="bold" lengthAdjust="spacing" textLength="22" x="1071.5" y="1121.1367">24</text><text fill="#000000" font-family="sans-serif" font-size="20" lengthAdjust="spacing" textLength="285" x="1097.5" y="1121.1367">Request Deleted and Email Sent</text><polygon fill="#181818" points="657.5,1162.6875,647.5,1166.6875,657.5,1170.6875,653.5,1166.6875" style="stroke:#181818;stroke-width:1.0;"/><line style="stroke:#181818;stroke-width:1.0;stroke-dasharray:2.0,2.0;" x1="651.5" x2="1048.5" y1="1166.6875" y2="1166.6875"/><text fill="#000000" font-family="sans-serif" font-size="20" font-weight="bold" lengthAdjust="spacing" textLength="22" x="663.5" y="1160.293">25</text><text fill="#000000" font-family="sans-serif" font-size="20" lengthAdjust="spacing" textLength="285" x="689.5" y="1160.293">Request Deleted and Email Sent</text><polygon fill="#181818" points="64.5,1201.8438,54.5,1205.8438,64.5,1209.8438,60.5,1205.8438" style="stroke:#181818;stroke-width:1.0;"/><line style="stroke:#181818;stroke-width:1.0;stroke-dasharray:2.0,2.0;" x1="58.5" x2="635.5" y1="1205.8438" y2="1205.8438"/><text fill="#000000" font-family="sans-serif" font-size="20" font-weight="bold" lengthAdjust="spacing" textLength="22" x="70.5" y="1199.4492">26</text><text fill="#000000" font-family="sans-serif" font-size="20" lengthAdjust="spacing" textLength="495" x="96.5" y="1199.4492">Informs operation success (Announcement was Deleted)</text><!--SRC=[hPJFZjem4CRlVeeHby9XfQf73fNINLeXhL05kmzWaWbO99xKTahfqtViUC49ov-glN08l_ayyyrdsvtIZJIohYZVOG45bhAjt5VIRgL-8tpwAEmR0ZLfohU6QWHdMap-QMI-anjSkKE5O31tKc-g5B1RMT1UwGsKih8eX6mTwRPUen7YmrOL22MHMzCl8ND71aRP1hKRWRIGVLi8Ld4gLutK3aRJxuOQDEwGQKsjph5cr2xnHulMlSv3qUjyM4FMfVmZZsYegj04_l5b-JoeM693Ld4p2crWbhC-4KyySeUE6cBfgGCskyPsn6BX7L4_fSFWXE0VUFZC0yAKWPq5Hs2HLx95g9HrG2KqqI3eENGIOdS42x2Cdvk5SeFy_GG4EqJuaw7bZ94DkZZmbyCJCsF-CAkRYWw8Sxr2QnNfyUIamRC9hlJr0u5dRZFXFCYeP-DX9k4Ax9CHYusRjAKUEplr7xmoTpG_IHKw3xnDBE5TdtACQH-CxlaAlayBKXV7XV2MUH4QWQDSO8Nzthpzr3WMV64jwPCEU-cLUgNb-L7zzLjMpdtL08EYaxcvy4UgQnLclxhwo_1fnzaDqaTTP95T13FRTQrwTpAX5pxfZ3qSfNi3DksQixx58hMrAqfYT4_DUQHk5vsozRQ9spNlf6ckIpAr1NzNfMEts98yvop2kAUtvtVWg3aP10brSILCNVR-GvnYY2y7gWFY1K-VWNVo5DapTFXYNDJi7e9qqn62fr1IXCiugwMgOEM3TVqH-OlYiytVN_kF2OW7JFp6_m00]--></g></svg>