<?xml version="1.0" encoding="UTF-8" standalone="no"?><svg xmlns="http://www.w3.org/2000/svg" xmlns:xlink="http://www.w3.org/1999/xlink" contentStyleType="text/css" height="930px" preserveAspectRatio="none" style="width:1233px;height:930px;background:#FFFFFF;" version="1.1" viewBox="0 0 1233 930" width="1233px" zoomAndPan="magnify"><defs/><g><!--class Repositories--><g id="elem_Repositories"><rect codeLine="12" fill="#F1F1F1" height="151.7813" id="Repositories" rx="2.5" ry="2.5" style="stroke:#181818;stroke-width:0.5;" width="289" x="818.5" y="19.5"/><ellipse cx="903.5" cy="37.0781" fill="#ADD1B2" rx="12" ry="12" style="stroke:#181818;stroke-width:1.0;"/><path d="M905.6406,32 Q905.8281,31.75 906.0469,31.625 Q906.2656,31.4844 906.5156,31.4844 Q906.9531,31.4844 907.2344,31.7969 Q907.5156,32.0938 907.5156,32.8125 L907.5156,34.5156 Q907.5156,35.2344 907.2344,35.5469 Q906.9531,35.8594 906.5156,35.8594 Q906.125,35.8594 905.875,35.625 Q905.625,35.4063 905.5156,34.7969 Q905.4531,34.375 905.2344,34.1563 Q904.8438,33.7188 904.125,33.4531 Q903.4063,33.1875 902.6875,33.1875 Q901.7813,33.1875 901.0313,33.5781 Q900.2813,33.9688 899.7031,34.8594 Q899.125,35.7344 899.125,36.9375 L899.125,38.2344 Q899.125,39.6875 900.1719,40.6563 Q901.2344,41.625 903.0938,41.625 Q904.2031,41.625 904.9844,41.3125 Q905.4219,41.1406 905.9375,40.625 Q906.25,40.3125 906.4219,40.2188 Q906.5938,40.125 906.8281,40.125 Q907.2188,40.125 907.5156,40.4375 Q907.8281,40.7344 907.8281,41.1406 Q907.8281,41.5469 907.4219,42.0156 Q906.8281,42.7031 905.8906,43.0938 Q904.625,43.625 903.1094,43.625 Q901.3281,43.625 899.9063,42.8906 Q898.75,42.2969 897.9375,41.0313 Q897.125,39.7656 897.125,38.2813 L897.125,36.9219 Q897.125,35.3594 897.8438,34.0156 Q898.5781,32.6563 899.8594,31.9219 Q901.1563,31.1875 902.6094,31.1875 Q903.4688,31.1875 904.2188,31.3906 Q904.9844,31.5938 905.6406,32 Z " fill="#000000"/><text fill="#000000" font-family="sans-serif" font-size="20" lengthAdjust="spacing" textLength="110" x="925.5" y="45.2617">Repositories</text><line style="stroke:#181818;stroke-width:0.5;" x1="819.5" x2="1106.5" y1="54.6563" y2="54.6563"/><line style="stroke:#181818;stroke-width:0.5;" x1="819.5" x2="1106.5" y1="62.6563" y2="62.6563"/><text fill="#000000" font-family="sans-serif" font-size="20" lengthAdjust="spacing" textLength="131" x="824.5" y="87.418">-Repositories()</text><text fill="#000000" font-family="sans-serif" font-size="20" lengthAdjust="spacing" textLength="256" x="824.5" y="112.5742">+getInstance() : Repositories</text><text fill="#000000" font-family="sans-serif" font-size="20" lengthAdjust="spacing" textLength="277" x="824.5" y="137.7305">+getAnnouncementRepository()</text><text fill="#000000" font-family="sans-serif" font-size="20" lengthAdjust="spacing" textLength="222" x="824.5" y="162.8867">+getRequestRepository()</text></g><!--class Announcement--><g id="elem_Announcement"><rect codeLine="18" fill="#F1F1F1" height="126.625" id="Announcement" rx="2.5" ry="2.5" style="stroke:#181818;stroke-width:0.5;" width="346" x="687" y="797"/><ellipse cx="791.5" cy="814.5781" fill="#ADD1B2" rx="12" ry="12" style="stroke:#181818;stroke-width:1.0;"/><path d="M793.6406,809.5 Q793.8281,809.25 794.0469,809.125 Q794.2656,808.9844 794.5156,808.9844 Q794.9531,808.9844 795.2344,809.2969 Q795.5156,809.5938 795.5156,810.3125 L795.5156,812.0156 Q795.5156,812.7344 795.2344,813.0469 Q794.9531,813.3594 794.5156,813.3594 Q794.125,813.3594 793.875,813.125 Q793.625,812.9063 793.5156,812.2969 Q793.4531,811.875 793.2344,811.6563 Q792.8438,811.2188 792.125,810.9531 Q791.4063,810.6875 790.6875,810.6875 Q789.7813,810.6875 789.0313,811.0781 Q788.2813,811.4688 787.7031,812.3594 Q787.125,813.2344 787.125,814.4375 L787.125,815.7344 Q787.125,817.1875 788.1719,818.1563 Q789.2344,819.125 791.0938,819.125 Q792.2031,819.125 792.9844,818.8125 Q793.4219,818.6406 793.9375,818.125 Q794.25,817.8125 794.4219,817.7188 Q794.5938,817.625 794.8281,817.625 Q795.2188,817.625 795.5156,817.9375 Q795.8281,818.2344 795.8281,818.6406 Q795.8281,819.0469 795.4219,819.5156 Q794.8281,820.2031 793.8906,820.5938 Q792.625,821.125 791.1094,821.125 Q789.3281,821.125 787.9063,820.3906 Q786.75,819.7969 785.9375,818.5313 Q785.125,817.2656 785.125,815.7813 L785.125,814.4219 Q785.125,812.8594 785.8438,811.5156 Q786.5781,810.1563 787.8594,809.4219 Q789.1563,808.6875 790.6094,808.6875 Q791.4688,808.6875 792.2188,808.8906 Q792.9844,809.0938 793.6406,809.5 Z " fill="#000000"/><text fill="#000000" font-family="sans-serif" font-size="20" lengthAdjust="spacing" textLength="128" x="813.5" y="822.7617">Announcement</text><line style="stroke:#181818;stroke-width:0.5;" x1="688" x2="1032" y1="832.1563" y2="832.1563"/><text fill="#000000" font-family="sans-serif" font-size="20" lengthAdjust="spacing" textLength="152" x="693" y="856.918">-Request request</text><text fill="#000000" font-family="sans-serif" font-size="20" lengthAdjust="spacing" textLength="221" x="693" y="882.0742">-Commission commission</text><line style="stroke:#181818;stroke-width:0.5;" x1="688" x2="1032" y1="890.4688" y2="890.4688"/><text fill="#000000" font-family="sans-serif" font-size="20" lengthAdjust="spacing" textLength="334" x="693" y="915.2305">+Announcement(request, commission)</text></g><!--class Request--><g id="elem_Request"><rect codeLine="24" fill="#F1F1F1" height="126.625" id="Request" rx="2.5" ry="2.5" style="stroke:#181818;stroke-width:0.5;" width="197" x="967.5" y="583"/><ellipse cx="1025" cy="600.5781" fill="#ADD1B2" rx="12" ry="12" style="stroke:#181818;stroke-width:1.0;"/><path d="M1027.1406,595.5 Q1027.3281,595.25 1027.5469,595.125 Q1027.7656,594.9844 1028.0156,594.9844 Q1028.4531,594.9844 1028.7344,595.2969 Q1029.0156,595.5938 1029.0156,596.3125 L1029.0156,598.0156 Q1029.0156,598.7344 1028.7344,599.0469 Q1028.4531,599.3594 1028.0156,599.3594 Q1027.625,599.3594 1027.375,599.125 Q1027.125,598.9063 1027.0156,598.2969 Q1026.9531,597.875 1026.7344,597.6563 Q1026.3438,597.2188 1025.625,596.9531 Q1024.9063,596.6875 1024.1875,596.6875 Q1023.2813,596.6875 1022.5313,597.0781 Q1021.7813,597.4688 1021.2031,598.3594 Q1020.625,599.2344 1020.625,600.4375 L1020.625,601.7344 Q1020.625,603.1875 1021.6719,604.1563 Q1022.7344,605.125 1024.5938,605.125 Q1025.7031,605.125 1026.4844,604.8125 Q1026.9219,604.6406 1027.4375,604.125 Q1027.75,603.8125 1027.9219,603.7188 Q1028.0938,603.625 1028.3281,603.625 Q1028.7188,603.625 1029.0156,603.9375 Q1029.3281,604.2344 1029.3281,604.6406 Q1029.3281,605.0469 1028.9219,605.5156 Q1028.3281,606.2031 1027.3906,606.5938 Q1026.125,607.125 1024.6094,607.125 Q1022.8281,607.125 1021.4063,606.3906 Q1020.25,605.7969 1019.4375,604.5313 Q1018.625,603.2656 1018.625,601.7813 L1018.625,600.4219 Q1018.625,598.8594 1019.3438,597.5156 Q1020.0781,596.1563 1021.3594,595.4219 Q1022.6563,594.6875 1024.1094,594.6875 Q1024.9688,594.6875 1025.7188,594.8906 Q1026.4844,595.0938 1027.1406,595.5 Z " fill="#000000"/><text fill="#000000" font-family="sans-serif" font-size="20" lengthAdjust="spacing" textLength="73" x="1047" y="608.7617">Request</text><line style="stroke:#181818;stroke-width:0.5;" x1="968.5" x2="1163.5" y1="618.1563" y2="618.1563"/><text fill="#000000" font-family="sans-serif" font-size="20" lengthAdjust="spacing" textLength="163" x="973.5" y="642.918">-Property property</text><text fill="#000000" font-family="sans-serif" font-size="20" lengthAdjust="spacing" textLength="185" x="973.5" y="668.0742">-Employee employee</text><text fill="#000000" font-family="sans-serif" font-size="20" lengthAdjust="spacing" textLength="137" x="973.5" y="693.2305">-Person Person</text><line style="stroke:#181818;stroke-width:0.5;" x1="968.5" x2="1163.5" y1="701.625" y2="701.625"/></g><!--class Agent--><g id="elem_Agent"><rect codeLine="30" fill="#F1F1F1" height="51.1563" id="Agent" rx="2.5" ry="2.5" style="stroke:#181818;stroke-width:0.5;" width="85" x="484.5" y="835"/><ellipse cx="500.5" cy="852.5781" fill="#ADD1B2" rx="12" ry="12" style="stroke:#181818;stroke-width:1.0;"/><path d="M502.6406,847.5 Q502.8281,847.25 503.0469,847.125 Q503.2656,846.9844 503.5156,846.9844 Q503.9531,846.9844 504.2344,847.2969 Q504.5156,847.5938 504.5156,848.3125 L504.5156,850.0156 Q504.5156,850.7344 504.2344,851.0469 Q503.9531,851.3594 503.5156,851.3594 Q503.125,851.3594 502.875,851.125 Q502.625,850.9063 502.5156,850.2969 Q502.4531,849.875 502.2344,849.6563 Q501.8438,849.2188 501.125,848.9531 Q500.4063,848.6875 499.6875,848.6875 Q498.7813,848.6875 498.0313,849.0781 Q497.2813,849.4688 496.7031,850.3594 Q496.125,851.2344 496.125,852.4375 L496.125,853.7344 Q496.125,855.1875 497.1719,856.1563 Q498.2344,857.125 500.0938,857.125 Q501.2031,857.125 501.9844,856.8125 Q502.4219,856.6406 502.9375,856.125 Q503.25,855.8125 503.4219,855.7188 Q503.5938,855.625 503.8281,855.625 Q504.2188,855.625 504.5156,855.9375 Q504.8281,856.2344 504.8281,856.6406 Q504.8281,857.0469 504.4219,857.5156 Q503.8281,858.2031 502.8906,858.5938 Q501.625,859.125 500.1094,859.125 Q498.3281,859.125 496.9063,858.3906 Q495.75,857.7969 494.9375,856.5313 Q494.125,855.2656 494.125,853.7813 L494.125,852.4219 Q494.125,850.8594 494.8438,849.5156 Q495.5781,848.1563 496.8594,847.4219 Q498.1563,846.6875 499.6094,846.6875 Q500.4688,846.6875 501.2188,846.8906 Q501.9844,847.0938 502.6406,847.5 Z " fill="#000000"/><text fill="#000000" font-family="sans-serif" font-size="20" lengthAdjust="spacing" textLength="51" x="515.5" y="860.7617">Agent</text><line style="stroke:#181818;stroke-width:0.5;" x1="485.5" x2="568.5" y1="870.1563" y2="870.1563"/><line style="stroke:#181818;stroke-width:0.5;" x1="485.5" x2="568.5" y1="878.1563" y2="878.1563"/></g><!--class Person--><g id="elem_Person"><rect codeLine="33" fill="#F1F1F1" height="176.9375" id="Person" rx="2.5" ry="2.5" style="stroke:#181818;stroke-width:0.5;" width="190" x="432" y="245"/><ellipse cx="491.5" cy="262.5781" fill="#ADD1B2" rx="12" ry="12" style="stroke:#181818;stroke-width:1.0;"/><path d="M493.6406,257.5 Q493.8281,257.25 494.0469,257.125 Q494.2656,256.9844 494.5156,256.9844 Q494.9531,256.9844 495.2344,257.2969 Q495.5156,257.5938 495.5156,258.3125 L495.5156,260.0156 Q495.5156,260.7344 495.2344,261.0469 Q494.9531,261.3594 494.5156,261.3594 Q494.125,261.3594 493.875,261.125 Q493.625,260.9063 493.5156,260.2969 Q493.4531,259.875 493.2344,259.6563 Q492.8438,259.2188 492.125,258.9531 Q491.4063,258.6875 490.6875,258.6875 Q489.7813,258.6875 489.0313,259.0781 Q488.2813,259.4688 487.7031,260.3594 Q487.125,261.2344 487.125,262.4375 L487.125,263.7344 Q487.125,265.1875 488.1719,266.1563 Q489.2344,267.125 491.0938,267.125 Q492.2031,267.125 492.9844,266.8125 Q493.4219,266.6406 493.9375,266.125 Q494.25,265.8125 494.4219,265.7188 Q494.5938,265.625 494.8281,265.625 Q495.2188,265.625 495.5156,265.9375 Q495.8281,266.2344 495.8281,266.6406 Q495.8281,267.0469 495.4219,267.5156 Q494.8281,268.2031 493.8906,268.5938 Q492.625,269.125 491.1094,269.125 Q489.3281,269.125 487.9063,268.3906 Q486.75,267.7969 485.9375,266.5313 Q485.125,265.2656 485.125,263.7813 L485.125,262.4219 Q485.125,260.8594 485.8438,259.5156 Q486.5781,258.1563 487.8594,257.4219 Q489.1563,256.6875 490.6094,256.6875 Q491.4688,256.6875 492.2188,256.8906 Q492.9844,257.0938 493.6406,257.5 Z " fill="#000000"/><text fill="#000000" font-family="sans-serif" font-size="20" lengthAdjust="spacing" textLength="62" x="513.5" y="270.7617">Person</text><line style="stroke:#181818;stroke-width:0.5;" x1="433" x2="621" y1="280.1563" y2="280.1563"/><text fill="#000000" font-family="sans-serif" font-size="20" lengthAdjust="spacing" textLength="92" x="438" y="304.918">-User user</text><text fill="#000000" font-family="sans-serif" font-size="20" lengthAdjust="spacing" textLength="178" x="438" y="330.0742">-int passportNumber</text><text fill="#000000" font-family="sans-serif" font-size="20" lengthAdjust="spacing" textLength="127" x="438" y="355.2305">-int taxNumber</text><text fill="#000000" font-family="sans-serif" font-size="20" lengthAdjust="spacing" textLength="154" x="438" y="380.3867">-int phoneNumber</text><text fill="#000000" font-family="sans-serif" font-size="20" lengthAdjust="spacing" textLength="157" x="438" y="405.543">-Address address</text><line style="stroke:#181818;stroke-width:0.5;" x1="433" x2="621" y1="413.9375" y2="413.9375"/></g><!--class Employee--><g id="elem_Employee"><rect codeLine="40" fill="#F1F1F1" height="76.3125" id="Employee" rx="2.5" ry="2.5" style="stroke:#181818;stroke-width:0.5;" width="153" x="450.5" y="608.5"/><ellipse cx="480.9" cy="626.0781" fill="#ADD1B2" rx="12" ry="12" style="stroke:#181818;stroke-width:1.0;"/><path d="M483.0406,621 Q483.2281,620.75 483.4469,620.625 Q483.6656,620.4844 483.9156,620.4844 Q484.3531,620.4844 484.6344,620.7969 Q484.9156,621.0938 484.9156,621.8125 L484.9156,623.5156 Q484.9156,624.2344 484.6344,624.5469 Q484.3531,624.8594 483.9156,624.8594 Q483.525,624.8594 483.275,624.625 Q483.025,624.4063 482.9156,623.7969 Q482.8531,623.375 482.6344,623.1563 Q482.2438,622.7188 481.525,622.4531 Q480.8063,622.1875 480.0875,622.1875 Q479.1813,622.1875 478.4313,622.5781 Q477.6813,622.9688 477.1031,623.8594 Q476.525,624.7344 476.525,625.9375 L476.525,627.2344 Q476.525,628.6875 477.5719,629.6563 Q478.6344,630.625 480.4938,630.625 Q481.6031,630.625 482.3844,630.3125 Q482.8219,630.1406 483.3375,629.625 Q483.65,629.3125 483.8219,629.2188 Q483.9938,629.125 484.2281,629.125 Q484.6188,629.125 484.9156,629.4375 Q485.2281,629.7344 485.2281,630.1406 Q485.2281,630.5469 484.8219,631.0156 Q484.2281,631.7031 483.2906,632.0938 Q482.025,632.625 480.5094,632.625 Q478.7281,632.625 477.3063,631.8906 Q476.15,631.2969 475.3375,630.0313 Q474.525,628.7656 474.525,627.2813 L474.525,625.9219 Q474.525,624.3594 475.2438,623.0156 Q475.9781,621.6563 477.2594,620.9219 Q478.5563,620.1875 480.0094,620.1875 Q480.8688,620.1875 481.6188,620.3906 Q482.3844,620.5938 483.0406,621 Z " fill="#000000"/><text fill="#000000" font-family="sans-serif" font-size="20" lengthAdjust="spacing" textLength="87" x="499.1" y="634.2617">Employee</text><line style="stroke:#181818;stroke-width:0.5;" x1="451.5" x2="602.5" y1="643.6563" y2="643.6563"/><text fill="#000000" font-family="sans-serif" font-size="20" lengthAdjust="spacing" textLength="141" x="456.5" y="668.418">-Agency agency</text><line style="stroke:#181818;stroke-width:0.5;" x1="451.5" x2="602.5" y1="676.8125" y2="676.8125"/></g><!--class AnnouncementRepository--><g id="elem_AnnouncementRepository"><rect codeLine="44" fill="#F1F1F1" height="101.4688" id="AnnouncementRepository" rx="2.5" ry="2.5" style="stroke:#181818;stroke-width:0.5;" width="365" x="677.5" y="452"/><ellipse cx="744" cy="469.5781" fill="#ADD1B2" rx="12" ry="12" style="stroke:#181818;stroke-width:1.0;"/><path d="M746.1406,464.5 Q746.3281,464.25 746.5469,464.125 Q746.7656,463.9844 747.0156,463.9844 Q747.4531,463.9844 747.7344,464.2969 Q748.0156,464.5938 748.0156,465.3125 L748.0156,467.0156 Q748.0156,467.7344 747.7344,468.0469 Q747.4531,468.3594 747.0156,468.3594 Q746.625,468.3594 746.375,468.125 Q746.125,467.9063 746.0156,467.2969 Q745.9531,466.875 745.7344,466.6563 Q745.3438,466.2188 744.625,465.9531 Q743.9063,465.6875 743.1875,465.6875 Q742.2813,465.6875 741.5313,466.0781 Q740.7813,466.4688 740.2031,467.3594 Q739.625,468.2344 739.625,469.4375 L739.625,470.7344 Q739.625,472.1875 740.6719,473.1563 Q741.7344,474.125 743.5938,474.125 Q744.7031,474.125 745.4844,473.8125 Q745.9219,473.6406 746.4375,473.125 Q746.75,472.8125 746.9219,472.7188 Q747.0938,472.625 747.3281,472.625 Q747.7188,472.625 748.0156,472.9375 Q748.3281,473.2344 748.3281,473.6406 Q748.3281,474.0469 747.9219,474.5156 Q747.3281,475.2031 746.3906,475.5938 Q745.125,476.125 743.6094,476.125 Q741.8281,476.125 740.4063,475.3906 Q739.25,474.7969 738.4375,473.5313 Q737.625,472.2656 737.625,470.7813 L737.625,469.4219 Q737.625,467.8594 738.3438,466.5156 Q739.0781,465.1563 740.3594,464.4219 Q741.6563,463.6875 743.1094,463.6875 Q743.9688,463.6875 744.7188,463.8906 Q745.4844,464.0938 746.1406,464.5 Z " fill="#000000"/><text fill="#000000" font-family="sans-serif" font-size="20" lengthAdjust="spacing" textLength="223" x="766" y="477.7617">AnnouncementRepository</text><line style="stroke:#181818;stroke-width:0.5;" x1="678.5" x2="1041.5" y1="487.1563" y2="487.1563"/><text fill="#000000" font-family="sans-serif" font-size="20" lengthAdjust="spacing" textLength="353" x="683.5" y="511.918">-List&lt;Announcement&gt; announcementList</text><line style="stroke:#181818;stroke-width:0.5;" x1="678.5" x2="1041.5" y1="520.3125" y2="520.3125"/><text fill="#000000" font-family="sans-serif" font-size="20" lengthAdjust="spacing" textLength="210" x="683.5" y="545.0742">+createAnnouncement()</text></g><!--class PostAnnouncementController--><g id="elem_PostAnnouncementController"><rect codeLine="50" fill="#F1F1F1" height="176.9375" id="PostAnnouncementController" rx="2.5" ry="2.5" style="stroke:#181818;stroke-width:0.5;" width="289" x="382.5" y="7"/><ellipse cx="399.4" cy="24.5781" fill="#ADD1B2" rx="12" ry="12" style="stroke:#181818;stroke-width:1.0;"/><path d="M401.5406,19.5 Q401.7281,19.25 401.9469,19.125 Q402.1656,18.9844 402.4156,18.9844 Q402.8531,18.9844 403.1344,19.2969 Q403.4156,19.5938 403.4156,20.3125 L403.4156,22.0156 Q403.4156,22.7344 403.1344,23.0469 Q402.8531,23.3594 402.4156,23.3594 Q402.025,23.3594 401.775,23.125 Q401.525,22.9063 401.4156,22.2969 Q401.3531,21.875 401.1344,21.6563 Q400.7438,21.2188 400.025,20.9531 Q399.3063,20.6875 398.5875,20.6875 Q397.6813,20.6875 396.9313,21.0781 Q396.1813,21.4688 395.6031,22.3594 Q395.025,23.2344 395.025,24.4375 L395.025,25.7344 Q395.025,27.1875 396.0719,28.1563 Q397.1344,29.125 398.9938,29.125 Q400.1031,29.125 400.8844,28.8125 Q401.3219,28.6406 401.8375,28.125 Q402.15,27.8125 402.3219,27.7188 Q402.4938,27.625 402.7281,27.625 Q403.1188,27.625 403.4156,27.9375 Q403.7281,28.2344 403.7281,28.6406 Q403.7281,29.0469 403.3219,29.5156 Q402.7281,30.2031 401.7906,30.5938 Q400.525,31.125 399.0094,31.125 Q397.2281,31.125 395.8063,30.3906 Q394.65,29.7969 393.8375,28.5313 Q393.025,27.2656 393.025,25.7813 L393.025,24.4219 Q393.025,22.8594 393.7438,21.5156 Q394.4781,20.1563 395.7594,19.4219 Q397.0563,18.6875 398.5094,18.6875 Q399.3688,18.6875 400.1188,18.8906 Q400.8844,19.0938 401.5406,19.5 Z " fill="#000000"/><text fill="#000000" font-family="sans-serif" font-size="20" lengthAdjust="spacing" textLength="253" x="414.6" y="32.7617">PostAnnouncementController</text><line style="stroke:#181818;stroke-width:0.5;" x1="383.5" x2="670.5" y1="42.1563" y2="42.1563"/><line style="stroke:#181818;stroke-width:0.5;" x1="383.5" x2="670.5" y1="50.1563" y2="50.1563"/><text fill="#000000" font-family="sans-serif" font-size="20" lengthAdjust="spacing" textLength="277" x="388.5" y="74.918">+postAnnouncementController()</text><text fill="#000000" font-family="sans-serif" font-size="20" lengthAdjust="spacing" textLength="277" x="388.5" y="100.0742">+getAnnouncementRepository()</text><text fill="#000000" font-family="sans-serif" font-size="20" lengthAdjust="spacing" textLength="222" x="388.5" y="125.2305">+getRequestRepository()</text><text fill="#000000" font-family="sans-serif" font-size="20" lengthAdjust="spacing" textLength="192" x="388.5" y="150.3867">+getRequestByDate()</text><text fill="#000000" font-family="sans-serif" font-size="20" lengthAdjust="spacing" textLength="226" x="388.5" y="175.543">+getEmployeeInSession()</text></g><!--class RequestRepository--><g id="elem_RequestRepository"><rect codeLine="58" fill="#F1F1F1" height="76.3125" id="RequestRepository" rx="2.5" ry="2.5" style="stroke:#181818;stroke-width:0.5;" width="202" x="952" y="295.5"/><ellipse cx="968" cy="313.0781" fill="#ADD1B2" rx="12" ry="12" style="stroke:#181818;stroke-width:1.0;"/><path d="M970.1406,308 Q970.3281,307.75 970.5469,307.625 Q970.7656,307.4844 971.0156,307.4844 Q971.4531,307.4844 971.7344,307.7969 Q972.0156,308.0938 972.0156,308.8125 L972.0156,310.5156 Q972.0156,311.2344 971.7344,311.5469 Q971.4531,311.8594 971.0156,311.8594 Q970.625,311.8594 970.375,311.625 Q970.125,311.4063 970.0156,310.7969 Q969.9531,310.375 969.7344,310.1563 Q969.3438,309.7188 968.625,309.4531 Q967.9063,309.1875 967.1875,309.1875 Q966.2813,309.1875 965.5313,309.5781 Q964.7813,309.9688 964.2031,310.8594 Q963.625,311.7344 963.625,312.9375 L963.625,314.2344 Q963.625,315.6875 964.6719,316.6563 Q965.7344,317.625 967.5938,317.625 Q968.7031,317.625 969.4844,317.3125 Q969.9219,317.1406 970.4375,316.625 Q970.75,316.3125 970.9219,316.2188 Q971.0938,316.125 971.3281,316.125 Q971.7188,316.125 972.0156,316.4375 Q972.3281,316.7344 972.3281,317.1406 Q972.3281,317.5469 971.9219,318.0156 Q971.3281,318.7031 970.3906,319.0938 Q969.125,319.625 967.6094,319.625 Q965.8281,319.625 964.4063,318.8906 Q963.25,318.2969 962.4375,317.0313 Q961.625,315.7656 961.625,314.2813 L961.625,312.9219 Q961.625,311.3594 962.3438,310.0156 Q963.0781,308.6563 964.3594,307.9219 Q965.6563,307.1875 967.1094,307.1875 Q967.9688,307.1875 968.7188,307.3906 Q969.4844,307.5938 970.1406,308 Z " fill="#000000"/><text fill="#000000" font-family="sans-serif" font-size="20" lengthAdjust="spacing" textLength="168" x="983" y="321.2617">RequestRepository</text><line style="stroke:#181818;stroke-width:0.5;" x1="953" x2="1153" y1="330.6563" y2="330.6563"/><line style="stroke:#181818;stroke-width:0.5;" x1="953" x2="1153" y1="338.6563" y2="338.6563"/><text fill="#000000" font-family="sans-serif" font-size="20" lengthAdjust="spacing" textLength="158" x="958" y="363.418">+getRequestList()</text></g><!--class PropertyAnnouncementsRequestUI--><g id="elem_PropertyAnnouncementsRequestUI"><rect codeLine="62" fill="#F1F1F1" height="126.625" id="PropertyAnnouncementsRequestUI" rx="2.5" ry="2.5" style="stroke:#181818;stroke-width:0.5;" width="340" x="7" y="32"/><ellipse cx="23" cy="49.5781" fill="#ADD1B2" rx="12" ry="12" style="stroke:#181818;stroke-width:1.0;"/><path d="M25.1406,44.5 Q25.3281,44.25 25.5469,44.125 Q25.7656,43.9844 26.0156,43.9844 Q26.4531,43.9844 26.7344,44.2969 Q27.0156,44.5938 27.0156,45.3125 L27.0156,47.0156 Q27.0156,47.7344 26.7344,48.0469 Q26.4531,48.3594 26.0156,48.3594 Q25.625,48.3594 25.375,48.125 Q25.125,47.9063 25.0156,47.2969 Q24.9531,46.875 24.7344,46.6563 Q24.3438,46.2188 23.625,45.9531 Q22.9063,45.6875 22.1875,45.6875 Q21.2813,45.6875 20.5313,46.0781 Q19.7813,46.4688 19.2031,47.3594 Q18.625,48.2344 18.625,49.4375 L18.625,50.7344 Q18.625,52.1875 19.6719,53.1563 Q20.7344,54.125 22.5938,54.125 Q23.7031,54.125 24.4844,53.8125 Q24.9219,53.6406 25.4375,53.125 Q25.75,52.8125 25.9219,52.7188 Q26.0938,52.625 26.3281,52.625 Q26.7188,52.625 27.0156,52.9375 Q27.3281,53.2344 27.3281,53.6406 Q27.3281,54.0469 26.9219,54.5156 Q26.3281,55.2031 25.3906,55.5938 Q24.125,56.125 22.6094,56.125 Q20.8281,56.125 19.4063,55.3906 Q18.25,54.7969 17.4375,53.5313 Q16.625,52.2656 16.625,50.7813 L16.625,49.4219 Q16.625,47.8594 17.3438,46.5156 Q18.0781,45.1563 19.3594,44.4219 Q20.6563,43.6875 22.1094,43.6875 Q22.9688,43.6875 23.7188,43.8906 Q24.4844,44.0938 25.1406,44.5 Z " fill="#000000"/><text fill="#000000" font-family="sans-serif" font-size="20" lengthAdjust="spacing" textLength="306" x="38" y="57.7617">PropertyAnnouncementsRequestUI</text><line style="stroke:#181818;stroke-width:0.5;" x1="8" x2="346" y1="67.1563" y2="67.1563"/><line style="stroke:#181818;stroke-width:0.5;" x1="8" x2="346" y1="75.1563" y2="75.1563"/><text fill="#000000" font-family="sans-serif" font-size="20" lengthAdjust="spacing" textLength="162" x="13" y="99.918">+chooseRequest()</text><text fill="#000000" font-family="sans-serif" font-size="20" lengthAdjust="spacing" textLength="188" x="13" y="125.0742">+createCommission()</text><text fill="#000000" font-family="sans-serif" font-size="20" lengthAdjust="spacing" textLength="277" x="13" y="150.2305">+postAnnouncementController()</text></g><!--link PropertyAnnouncementsRequestUI to PostAnnouncementController--><g id="link_PropertyAnnouncementsRequestUI_PostAnnouncementController"><path codeLine="68" d="M347.22,95.5 C357.43,95.5 367.84,95.5 377.18,95.5 " fill="none" id="PropertyAnnouncementsRequestUI-to-PostAnnouncementController" style="stroke:#181818;stroke-width:1.0;stroke-dasharray:7.0,7.0;"/><polygon fill="#181818" points="382.25,95.5,373.25,91.5,377.25,95.5,373.25,99.5,382.25,95.5" style="stroke:#181818;stroke-width:1.0;"/></g><!--link PostAnnouncementController to Repositories--><g id="link_PostAnnouncementController_Repositories"><path codeLine="69" d="M671.58,95.5 C717.05,95.5 767.34,95.5 813.17,95.5 " fill="none" id="PostAnnouncementController-to-Repositories" style="stroke:#181818;stroke-width:1.0;stroke-dasharray:7.0,7.0;"/><polygon fill="#181818" points="818.44,95.5,809.44,91.5,813.44,95.5,809.44,99.5,818.44,95.5" style="stroke:#181818;stroke-width:1.0;"/><text fill="#000000" font-family="sans-serif" font-size="20" lengthAdjust="spacing" textLength="110" x="690" y="87.2617">Repositories</text></g><!--link PostAnnouncementController to Person--><g id="link_PostAnnouncementController_Person"><path codeLine="70" d="M527,184.04 C527,202.15 527,221.28 527,239.57 " fill="none" id="PostAnnouncementController-to-Person" style="stroke:#181818;stroke-width:1.0;stroke-dasharray:7.0,7.0;"/><polygon fill="#181818" points="527,244.71,531,235.71,527,239.71,523,235.71,527,244.71" style="stroke:#181818;stroke-width:1.0;"/></g><!--link Repositories to AnnouncementRepository--><g id="link_Repositories_AnnouncementRepository"><path codeLine="71" d="M943.87,171.73 C923.56,251.59 891.95,375.87 873.9,446.86 " fill="none" id="Repositories-to-AnnouncementRepository" style="stroke:#181818;stroke-width:1.0;"/><polygon fill="#181818" points="872.62,451.88,878.7103,444.1399,873.8495,447.0335,870.9559,442.1727,872.62,451.88" style="stroke:#181818;stroke-width:1.0;"/></g><!--link Repositories to RequestRepository--><g id="link_Repositories_RequestRepository"><path codeLine="72" d="M991.72,171.82 C1006.73,211.16 1024.52,257.82 1037.06,290.7 " fill="none" id="Repositories-to-RequestRepository" style="stroke:#181818;stroke-width:1.0;"/><polygon fill="#181818" points="1038.87,295.44,1039.3927,285.605,1037.0847,290.7696,1031.9201,288.4615,1038.87,295.44" style="stroke:#181818;stroke-width:1.0;"/></g><!--link AnnouncementRepository to Announcement--><g id="link_AnnouncementRepository_Announcement"><path codeLine="73" d="M860,553 C860,615.1 860,721.87 860,791.58 " fill="none" id="AnnouncementRepository-to-Announcement" style="stroke:#181818;stroke-width:1.0;stroke-dasharray:7.0,7.0;"/><polygon fill="#181818" points="860,796.95,864,787.95,860,791.95,856,787.95,860,796.95" style="stroke:#181818;stroke-width:1.0;"/></g><!--link RequestRepository to Request--><g id="link_RequestRepository_Request"><path codeLine="74" d="M1054.56,371.7 C1056.68,422.51 1060.52,514.5 1063.17,577.73 " fill="none" id="RequestRepository-to-Request" style="stroke:#181818;stroke-width:1.0;stroke-dasharray:7.0,7.0;"/><polygon fill="#181818" points="1063.39,582.99,1067.0271,573.8373,1063.1902,577.994,1059.0335,574.1571,1063.39,582.99" style="stroke:#181818;stroke-width:1.0;"/></g><!--link Repositories to Repositories--><g id="link_Repositories_Repositories"><path codeLine="75" d="M1107.73,75.59 C1128.52,78.78 1142.5,85.42 1142.5,95.5 C1142.5,104.72 1130.82,111.05 1112.93,114.51 " fill="none" id="Repositories-to-Repositories" style="stroke:#181818;stroke-width:1.0;"/><polygon fill="#181818" points="1107.73,115.41,1117.2755,117.8357,1112.6585,114.5672,1115.9269,109.9501,1107.73,115.41" style="stroke:#181818;stroke-width:1.0;"/><text fill="#000000" font-family="sans-serif" font-size="20" lengthAdjust="spacing" textLength="72" x="1148.5" y="103.7617">instance</text></g><!--reverse link Person to Employee--><g id="link_Person_Employee"><path codeLine="77" d="M527,442.71 C527,500.37 527,567.62 527,608.36 " fill="none" id="Person-backto-Employee" style="stroke:#181818;stroke-width:1.0;"/><polygon fill="none" points="520,442.37,527,422.37,534,442.37,520,442.37" style="stroke:#181818;stroke-width:1.0;"/><text fill="#000000" font-family="sans-serif" font-size="20" lengthAdjust="spacing" textLength="31" x="528" y="510.7617">is a</text></g><!--reverse link Employee to Agent--><g id="link_Employee_Agent"><path codeLine="78" d="M527,705.11 C527,747.53 527,803.12 527,834.71 " fill="none" id="Employee-backto-Agent" style="stroke:#181818;stroke-width:1.0;"/><polygon fill="none" points="520,704.91,527,684.91,534,704.91,520,704.91" style="stroke:#181818;stroke-width:1.0;"/><text fill="#000000" font-family="sans-serif" font-size="20" lengthAdjust="spacing" textLength="31" x="528" y="761.7617">is a</text></g><!--link Agent to Announcement--><g id="link_Agent_Announcement"><path codeLine="79" d="M569.51,860.5 C598.75,860.5 639.74,860.5 681.74,860.5 " fill="none" id="Agent-to-Announcement" style="stroke:#181818;stroke-width:1.0;"/><polygon fill="#181818" points="686.87,860.5,677.87,856.5,681.87,860.5,677.87,864.5,686.87,860.5" style="stroke:#181818;stroke-width:1.0;"/><text fill="#000000" font-family="sans-serif" font-size="20" lengthAdjust="spacing" textLength="81" x="587.75" y="852.2617">publishes</text></g><!--SRC=[XLJ1Rjim3BthAtHhWYn1iUDG5CYw3GWm34E3Ve0YCxOGMTGa6PlNxTz7sOejnqsMGsJnFPAFD6b_KiOA9sgDyWG5B-0e6Xs-e0bxzHlu-tjsvyySNgD1MJciWGVN01iHA-H9bB0FhGRkG0PXIfqJV2KA_AbCoOz2-npHoa1eBN2BkesNFEC0eWl8CY-fXVVR49mwD05s4asdzvwnEmt7m0Dofyegy495EGeDOwnpuizWqQk0Je7dhupJRpqnBfQTSSLB23lZgHO9YoN_C26DbAqns12b1XC6Hfi7UOOV3VWf-3UfoRr9JLJIaQcBtPdqFM5TA- -f3Yw7nvGX3x58RkyoMamsrDwXvwg_ExJWGijjUaZspxNLs09mI0zdFZXF2lfZZBejU_638V5YEIyU76_eBuLGnBJ4iVH6lpNrOG84yMjcinKQc5YtHU60ieZ-75evgAQyKP9ikUYEJEcRxuhuNvKF3pdwo4LsYp1RIGSYmAJTIvPLZNuo34-qHGwrfWQyifMzYbAGrQqvMbqPeSp-iVr4ofBjt8UTsKCt08lv18o1ehOnK2mqfvyd91Vd4_Tb5trbXUWXcQA2lalZm4RRpU8fsN_IR1vlD9VTw3ivJjRzOeTlUSQS_PnF8gpNZrUcQCwRzPgzxHbbvWYRlwJDPWXtaMTMeKgVBEfgluOFVzRqxJNPMXE9reSDzu7HRtA2-yj5lGJQvg2Lhy3_0m00]--></g></svg>