<?xml version="1.0" encoding="UTF-8" standalone="no"?><svg xmlns="http://www.w3.org/2000/svg" xmlns:xlink="http://www.w3.org/1999/xlink" contentStyleType="text/css" height="842px" preserveAspectRatio="none" style="width:742px;height:842px;background:#FFFFFF;" version="1.1" viewBox="0 0 742 842" width="742px" zoomAndPan="magnify"><defs/><g><rect fill="#FFFFFF" height="620.2344" style="stroke:#181818;stroke-width:1.0;" width="10" x="53.5" y="100.1563"/><rect fill="#FFFFFF" height="39.1563" style="stroke:#181818;stroke-width:1.0;" width="10" x="668.5" y="131.3125"/><rect fill="#FFFFFF" height="39.1563" style="stroke:#181818;stroke-width:1.0;" width="10" x="668.5" y="281.8047"/><rect fill="#FFFFFF" height="39.1563" style="stroke:#181818;stroke-width:1.0;" width="10" x="668.5" y="360.1172"/><rect fill="#FFFFFF" height="39.1563" style="stroke:#181818;stroke-width:1.0;" width="10" x="668.5" y="438.4297"/><rect fill="#FFFFFF" height="39.1563" style="stroke:#181818;stroke-width:1.0;" width="10" x="668.5" y="602.9219"/><rect fill="#FFFFFF" height="39.1563" style="stroke:#181818;stroke-width:1.0;" width="10" x="668.5" y="681.2344"/><rect fill="none" height="307.1172" style="stroke:#000000;stroke-width:1.5;" width="726.5" x="10" y="185.4688"/><rect fill="none" height="262.0938" style="stroke:#000000;stroke-width:1.5;" width="706.5" x="20" y="223.4922"/><rect fill="none" height="228.8047" style="stroke:#000000;stroke-width:1.5;" width="726.5" x="10" y="506.5859"/><rect fill="none" height="183.7813" style="stroke:#000000;stroke-width:1.5;" width="706.5" x="20" y="544.6094"/><line style="stroke:#181818;stroke-width:0.5;stroke-dasharray:5.0,5.0;" x1="58" x2="58" y1="90.1563" y2="752.3906"/><line style="stroke:#181818;stroke-width:0.5;stroke-dasharray:5.0,5.0;" x1="673.5" x2="673.5" y1="90.1563" y2="752.3906"/><text fill="#000000" font-family="sans-serif" font-size="20" lengthAdjust="spacing" textLength="51" x="30" y="85.7617">Agent</text><ellipse cx="58.5" cy="13.5" fill="#E2E2F0" rx="8" ry="8" style="stroke:#181818;stroke-width:0.5;"/><path d="M58.5,21.5 L58.5,48.5 M45.5,29.5 L71.5,29.5 M58.5,48.5 L45.5,63.5 M58.5,48.5 L71.5,63.5 " fill="none" style="stroke:#181818;stroke-width:0.5;"/><text fill="#000000" font-family="sans-serif" font-size="20" lengthAdjust="spacing" textLength="51" x="30" y="772.1523">Agent</text><ellipse cx="58.5" cy="785.0469" fill="#E2E2F0" rx="8" ry="8" style="stroke:#181818;stroke-width:0.5;"/><path d="M58.5,793.0469 L58.5,820.0469 M45.5,801.0469 L71.5,801.0469 M58.5,820.0469 L45.5,835.0469 M58.5,820.0469 L71.5,835.0469 " fill="none" style="stroke:#181818;stroke-width:0.5;"/><rect fill="#E2E2F0" height="39.1563" rx="2.5" ry="2.5" style="stroke:#181818;stroke-width:0.5;" width="86" x="630.5" y="50"/><text fill="#000000" font-family="sans-serif" font-size="20" lengthAdjust="spacing" textLength="72" x="637.5" y="77.7617">:System</text><rect fill="#E2E2F0" height="39.1563" rx="2.5" ry="2.5" style="stroke:#181818;stroke-width:0.5;" width="86" x="630.5" y="751.3906"/><text fill="#000000" font-family="sans-serif" font-size="20" lengthAdjust="spacing" textLength="72" x="637.5" y="779.1523">:System</text><rect fill="#FFFFFF" height="620.2344" style="stroke:#181818;stroke-width:1.0;" width="10" x="53.5" y="100.1563"/><rect fill="#FFFFFF" height="39.1563" style="stroke:#181818;stroke-width:1.0;" width="10" x="668.5" y="131.3125"/><rect fill="#FFFFFF" height="39.1563" style="stroke:#181818;stroke-width:1.0;" width="10" x="668.5" y="281.8047"/><rect fill="#FFFFFF" height="39.1563" style="stroke:#181818;stroke-width:1.0;" width="10" x="668.5" y="360.1172"/><rect fill="#FFFFFF" height="39.1563" style="stroke:#181818;stroke-width:1.0;" width="10" x="668.5" y="438.4297"/><rect fill="#FFFFFF" height="39.1563" style="stroke:#181818;stroke-width:1.0;" width="10" x="668.5" y="602.9219"/><rect fill="#FFFFFF" height="39.1563" style="stroke:#181818;stroke-width:1.0;" width="10" x="668.5" y="681.2344"/><polygon fill="#181818" points="656.5,127.3125,666.5,131.3125,656.5,135.3125,660.5,131.3125" style="stroke:#181818;stroke-width:1.0;"/><line style="stroke:#181818;stroke-width:1.0;" x1="63.5" x2="662.5" y1="131.3125" y2="131.3125"/><text fill="#000000" font-family="sans-serif" font-size="20" font-weight="bold" lengthAdjust="spacing" textLength="11" x="70.5" y="124.918">1</text><text fill="#000000" font-family="sans-serif" font-size="20" lengthAdjust="spacing" textLength="416" x="85.5" y="124.918">asks to see the  list of property announcements</text><polygon fill="#181818" points="74.5,166.4688,64.5,170.4688,74.5,174.4688,70.5,170.4688" style="stroke:#181818;stroke-width:1.0;"/><line style="stroke:#181818;stroke-width:1.0;stroke-dasharray:2.0,2.0;" x1="68.5" x2="672.5" y1="170.4688" y2="170.4688"/><text fill="#000000" font-family="sans-serif" font-size="20" font-weight="bold" lengthAdjust="spacing" textLength="11" x="80.5" y="164.0742">2</text><text fill="#000000" font-family="sans-serif" font-size="20" lengthAdjust="spacing" textLength="566" x="95.5" y="164.0742">shows the list of property announcements, firstly the most recent</text><path d="M10,185.4688 L86,185.4688 L86,202.625 L76,212.625 L10,212.625 L10,185.4688 " fill="#EEEEEE" style="stroke:#000000;stroke-width:1.5;"/><rect fill="none" height="307.1172" style="stroke:#000000;stroke-width:1.5;" width="726.5" x="10" y="185.4688"/><text fill="#008000" font-family="sans-serif" font-size="20" font-weight="bold" lengthAdjust="spacing" textLength="31" x="25" y="207.2305">opt</text><text fill="#0000FF" font-family="sans-serif" font-size="15" font-weight="bold" lengthAdjust="spacing" textLength="323" x="101" y="203.04">[The agent wants to post one of the requests]</text><path d="M20,223.4922 L106,223.4922 L106,240.6484 L96,250.6484 L20,250.6484 L20,223.4922 " fill="#EEEEEE" style="stroke:#000000;stroke-width:1.5;"/><rect fill="none" height="262.0938" style="stroke:#000000;stroke-width:1.5;" width="706.5" x="20" y="223.4922"/><text fill="#008000" font-family="sans-serif" font-size="20" font-weight="bold" lengthAdjust="spacing" textLength="41" x="35" y="245.2539">loop</text><polygon fill="#181818" points="656.5,277.8047,666.5,281.8047,656.5,285.8047,660.5,281.8047" style="stroke:#181818;stroke-width:1.0;"/><line style="stroke:#181818;stroke-width:1.0;" x1="63.5" x2="662.5" y1="281.8047" y2="281.8047"/><text fill="#000000" font-family="sans-serif" font-size="20" font-weight="bold" lengthAdjust="spacing" textLength="11" x="70.5" y="275.4102">3</text><text fill="#000000" font-family="sans-serif" font-size="20" lengthAdjust="spacing" textLength="197" x="85.5" y="275.4102">asks to post a request</text><polygon fill="#181818" points="74.5,316.9609,64.5,320.9609,74.5,324.9609,70.5,320.9609" style="stroke:#181818;stroke-width:1.0;"/><line style="stroke:#181818;stroke-width:1.0;stroke-dasharray:2.0,2.0;" x1="68.5" x2="672.5" y1="320.9609" y2="320.9609"/><text fill="#000000" font-family="sans-serif" font-size="20" font-weight="bold" lengthAdjust="spacing" textLength="11" x="80.5" y="314.5664">4</text><text fill="#000000" font-family="sans-serif" font-size="20" lengthAdjust="spacing" textLength="395" x="95.5" y="314.5664">shows the request list and asks to select one</text><polygon fill="#181818" points="656.5,356.1172,666.5,360.1172,656.5,364.1172,660.5,360.1172" style="stroke:#181818;stroke-width:1.0;"/><line style="stroke:#181818;stroke-width:1.0;" x1="63.5" x2="662.5" y1="360.1172" y2="360.1172"/><text fill="#000000" font-family="sans-serif" font-size="20" font-weight="bold" lengthAdjust="spacing" textLength="11" x="70.5" y="353.7227">5</text><text fill="#000000" font-family="sans-serif" font-size="20" lengthAdjust="spacing" textLength="239" x="85.5" y="353.7227">choose one of the requests</text><polygon fill="#181818" points="74.5,395.2734,64.5,399.2734,74.5,403.2734,70.5,399.2734" style="stroke:#181818;stroke-width:1.0;"/><line style="stroke:#181818;stroke-width:1.0;stroke-dasharray:2.0,2.0;" x1="68.5" x2="672.5" y1="399.2734" y2="399.2734"/><text fill="#000000" font-family="sans-serif" font-size="20" font-weight="bold" lengthAdjust="spacing" textLength="11" x="80.5" y="392.8789">6</text><text fill="#000000" font-family="sans-serif" font-size="20" lengthAdjust="spacing" textLength="453" x="95.5" y="392.8789">asks for confirmation to publish the property chosen</text><polygon fill="#181818" points="656.5,434.4297,666.5,438.4297,656.5,442.4297,660.5,438.4297" style="stroke:#181818;stroke-width:1.0;"/><line style="stroke:#181818;stroke-width:1.0;" x1="63.5" x2="662.5" y1="438.4297" y2="438.4297"/><text fill="#000000" font-family="sans-serif" font-size="20" font-weight="bold" lengthAdjust="spacing" textLength="11" x="70.5" y="432.0352">7</text><text fill="#000000" font-family="sans-serif" font-size="20" lengthAdjust="spacing" textLength="156" x="85.5" y="432.0352">Confirms the data</text><polygon fill="#181818" points="74.5,473.5859,64.5,477.5859,74.5,481.5859,70.5,477.5859" style="stroke:#181818;stroke-width:1.0;"/><line style="stroke:#181818;stroke-width:1.0;" x1="68.5" x2="672.5" y1="477.5859" y2="477.5859"/><text fill="#000000" font-family="sans-serif" font-size="20" font-weight="bold" lengthAdjust="spacing" textLength="11" x="80.5" y="471.1914">8</text><text fill="#000000" font-family="sans-serif" font-size="20" lengthAdjust="spacing" textLength="229" x="95.5" y="471.1914">informs operation success</text><path d="M10,506.5859 L86,506.5859 L86,523.7422 L76,533.7422 L10,533.7422 L10,506.5859 " fill="#EEEEEE" style="stroke:#000000;stroke-width:1.5;"/><rect fill="none" height="228.8047" style="stroke:#000000;stroke-width:1.5;" width="726.5" x="10" y="506.5859"/><text fill="#008000" font-family="sans-serif" font-size="20" font-weight="bold" lengthAdjust="spacing" textLength="31" x="25" y="528.3477">opt</text><text fill="#0000FF" font-family="sans-serif" font-size="15" font-weight="bold" lengthAdjust="spacing" textLength="337" x="101" y="524.1572">[The agent wants to delete one of the requests]</text><path d="M20,544.6094 L106,544.6094 L106,561.7656 L96,571.7656 L20,571.7656 L20,544.6094 " fill="#EEEEEE" style="stroke:#000000;stroke-width:1.5;"/><rect fill="none" height="183.7813" style="stroke:#000000;stroke-width:1.5;" width="706.5" x="20" y="544.6094"/><text fill="#008000" font-family="sans-serif" font-size="20" font-weight="bold" lengthAdjust="spacing" textLength="41" x="35" y="566.3711">loop</text><polygon fill="#181818" points="656.5,598.9219,666.5,602.9219,656.5,606.9219,660.5,602.9219" style="stroke:#181818;stroke-width:1.0;"/><line style="stroke:#181818;stroke-width:1.0;" x1="63.5" x2="662.5" y1="602.9219" y2="602.9219"/><text fill="#000000" font-family="sans-serif" font-size="20" font-weight="bold" lengthAdjust="spacing" textLength="11" x="70.5" y="596.5273">9</text><text fill="#000000" font-family="sans-serif" font-size="20" lengthAdjust="spacing" textLength="422" x="85.5" y="596.5273">asks to delete one of the announcement request</text><polygon fill="#181818" points="74.5,638.0781,64.5,642.0781,74.5,646.0781,70.5,642.0781" style="stroke:#181818;stroke-width:1.0;"/><line style="stroke:#181818;stroke-width:1.0;" x1="68.5" x2="672.5" y1="642.0781" y2="642.0781"/><text fill="#000000" font-family="sans-serif" font-size="20" font-weight="bold" lengthAdjust="spacing" textLength="22" x="80.5" y="635.6836">10</text><text fill="#000000" font-family="sans-serif" font-size="20" lengthAdjust="spacing" textLength="397" x="106.5" y="635.6836">shows the request list and asks to delete one</text><polygon fill="#181818" points="656.5,677.2344,666.5,681.2344,656.5,685.2344,660.5,681.2344" style="stroke:#181818;stroke-width:1.0;"/><line style="stroke:#181818;stroke-width:1.0;" x1="63.5" x2="662.5" y1="681.2344" y2="681.2344"/><text fill="#000000" font-family="sans-serif" font-size="20" font-weight="bold" lengthAdjust="spacing" textLength="22" x="70.5" y="674.8398">11</text><text fill="#000000" font-family="sans-serif" font-size="20" lengthAdjust="spacing" textLength="332" x="96.5" y="674.8398">chooses one of the requests to delete</text><polygon fill="#181818" points="69.5,716.3906,59.5,720.3906,69.5,724.3906,65.5,720.3906" style="stroke:#181818;stroke-width:1.0;"/><line style="stroke:#181818;stroke-width:1.0;" x1="63.5" x2="672.5" y1="720.3906" y2="720.3906"/><text fill="#000000" font-family="sans-serif" font-size="20" font-weight="bold" lengthAdjust="spacing" textLength="22" x="75.5" y="713.9961">12</text><text fill="#000000" font-family="sans-serif" font-size="20" lengthAdjust="spacing" textLength="219" x="101.5" y="713.9961">informs operation sucess</text><!--SRC=[dLD1Zfj04BppYfRFMIc9j1SV8bahnRax7sWF3OmyJ9FfPYtdzMa6lA04d4qEI8Yfggwg7kJYOuS9sy3kGYMKL64Vz2j7FVcV19y_5dA7GCkHNPEu9QWm22sEEdGNhEcajq2Go2d6EYm1qc39Ln_hYLeipaxqewVew9YuxxuHbfG60oySE46TYE8MU8QTGq-FK3dDf-UYm5uvzksPahqxDUhkK5FK7Q30uLWONxtp7KQ5tVvq4wKsduslcUHVKMa05uSZF7sPZc1li8k0CWWHQ4C0mOi2Lz0bxYZf3J16xirOQoDbrhgBJqfF9chIUwkDhvAb7YjzWCedqN3Bs9ODQrkmawAatuTmf_3TK3Z4Xgi5pPwxWSIHXY63I1eg53CPcBkje9c4T-o_v9aeOowCvQAxOFTdSBBYVVJnPiCrp4AhhXzOoKxokChMxpXQTosgvvWZzMVpr6Irjx9jaDWrt38q5_CogeqPIrJSDZ9LugEvCC8mQJGXlNCaiZADOfcVhHsMrftI-xOuB_5Frl9k_MsvOv_lMEmyPht7POtZOcKjoIprVzMkDxluOl_rrFCl]--></g></svg>