<?xml version="1.0" encoding="UTF-8" standalone="no"?><svg xmlns="http://www.w3.org/2000/svg" xmlns:xlink="http://www.w3.org/1999/xlink" contentStyleType="text/css" height="697px" preserveAspectRatio="none" style="width:2618px;height:697px;background:#FFFFFF;" version="1.1" viewBox="0 0 2618 697" width="2618px" zoomAndPan="magnify"><defs/><g><!--class Person--><g id="elem_Person"><rect codeLine="17" fill="#FFDAB9" height="180.9688" id="Person" rx="2.5" ry="2.5" style="stroke:#4169E1;stroke-width:0.5;" width="194" x="7" y="149.7168"/><text fill="#000000" font-family="sans-serif" font-size="20" lengthAdjust="spacing" textLength="67" x="70.5" y="173.2813">Person</text><line style="stroke:#4169E1;stroke-width:0.5;" x1="8" x2="200" y1="182.998" y2="182.998"/><rect fill="none" height="6" style="stroke:#C82930;stroke-width:1.0;" width="6" x="15" y="197.1387"/><text fill="#000000" font-family="sans-serif" font-size="20" lengthAdjust="spacing" textLength="57" x="28" y="205.5625">name</text><rect fill="none" height="6" style="stroke:#C82930;stroke-width:1.0;" width="6" x="15" y="220.4199"/><text fill="#000000" font-family="sans-serif" font-size="20" lengthAdjust="spacing" textLength="167" x="28" y="228.8438">passportNumber</text><rect fill="none" height="6" style="stroke:#C82930;stroke-width:1.0;" width="6" x="15" y="243.7012"/><text fill="#000000" font-family="sans-serif" font-size="20" lengthAdjust="spacing" textLength="112" x="28" y="252.125">taxNumber</text><rect fill="none" height="6" style="stroke:#C82930;stroke-width:1.0;" width="6" x="15" y="266.9824"/><text fill="#000000" font-family="sans-serif" font-size="20" lengthAdjust="spacing" textLength="56" x="28" y="275.4063">email</text><rect fill="none" height="6" style="stroke:#C82930;stroke-width:1.0;" width="6" x="15" y="290.2637"/><text fill="#000000" font-family="sans-serif" font-size="20" lengthAdjust="spacing" textLength="144" x="28" y="298.6875">phoneNumber</text><rect fill="none" height="6" style="stroke:#C82930;stroke-width:1.0;" width="6" x="15" y="313.5449"/><text fill="#000000" font-family="sans-serif" font-size="20" lengthAdjust="spacing" textLength="95" x="28" y="321.9688">password</text></g><!--class Employee--><g id="elem_Employee"><rect codeLine="26" fill="#FFDAB9" height="64.5625" id="Employee" rx="2.5" ry="2.5" style="stroke:#4169E1;stroke-width:0.5;" width="219" x="350" y="169.7168"/><text fill="#000000" font-family="sans-serif" font-size="20" lengthAdjust="spacing" textLength="99" x="410" y="193.2813">Employee</text><line style="stroke:#4169E1;stroke-width:0.5;" x1="351" x2="568" y1="202.998" y2="202.998"/><rect fill="none" height="6" style="stroke:#C82930;stroke-width:1.0;" width="6" x="358" y="217.1387"/><text fill="#000000" font-family="sans-serif" font-size="20" lengthAdjust="spacing" textLength="192" x="371" y="225.5625">agencyDesignation</text></g><!--class Agent--><g id="elem_Agent"><rect codeLine="29" fill="#FFDAB9" height="41.2813" id="Agent" rx="2.5" ry="2.5" style="stroke:#4169E1;stroke-width:0.5;" width="66" x="827.5" y="368.7168"/><text fill="#000000" font-family="sans-serif" font-size="20" lengthAdjust="spacing" textLength="60" x="830.5" y="392.2813">Agent</text><line style="stroke:#4169E1;stroke-width:0.5;" x1="828.5" x2="892.5" y1="401.998" y2="401.998"/></g><!--class PO--><g id="elem_PO"><rect codeLine="34" fill="#FFDAB9" height="41.2813" id="PO" rx="2.5" ry="2.5" style="stroke:#4169E1;stroke-width:0.5;" width="162" x="599" y="22.7168"/><text fill="#000000" font-family="sans-serif" font-size="20" lengthAdjust="spacing" textLength="156" x="602" y="46.2813">Property Owner</text><line style="stroke:#4169E1;stroke-width:0.5;" x1="600" x2="760" y1="55.998" y2="55.998"/></g><!--class Property--><g id="elem_Property"><rect codeLine="38" fill="#FFDAB9" height="134.4063" id="Property" rx="2.5" ry="2.5" style="stroke:#4169E1;stroke-width:0.5;" width="270" x="1665" y="301.2168"/><text fill="#000000" font-family="sans-serif" font-size="20" lengthAdjust="spacing" textLength="84" x="1758" y="324.7813">Property</text><line style="stroke:#4169E1;stroke-width:0.5;" x1="1666" x2="1934" y1="334.498" y2="334.498"/><rect fill="none" height="6" style="stroke:#C82930;stroke-width:1.0;" width="6" x="1673" y="348.6387"/><text fill="#000000" font-family="sans-serif" font-size="20" lengthAdjust="spacing" textLength="44" x="1686" y="357.0625">type</text><rect fill="none" height="6" style="stroke:#C82930;stroke-width:1.0;" width="6" x="1673" y="371.9199"/><text fill="#000000" font-family="sans-serif" font-size="20" lengthAdjust="spacing" textLength="44" x="1686" y="380.3438">area</text><rect fill="none" height="6" style="stroke:#C82930;stroke-width:1.0;" width="6" x="1673" y="395.2012"/><text fill="#000000" font-family="sans-serif" font-size="20" lengthAdjust="spacing" textLength="243" x="1686" y="403.625">distanceFromCityCenter</text><rect fill="none" height="6" style="stroke:#C82930;stroke-width:1.0;" width="6" x="1673" y="418.4824"/><text fill="#000000" font-family="sans-serif" font-size="20" lengthAdjust="spacing" textLength="98" x="1686" y="426.9063">photoURL</text></g><!--class Home--><g id="elem_Home"><rect codeLine="45" fill="#FFDAB9" height="134.4063" id="Home" rx="2.5" ry="2.5" style="stroke:#4169E1;stroke-width:0.5;" width="266" x="2052" y="178.2168"/><text fill="#000000" font-family="sans-serif" font-size="20" lengthAdjust="spacing" textLength="59" x="2155.5" y="201.7813">Home</text><line style="stroke:#4169E1;stroke-width:0.5;" x1="2053" x2="2317" y1="211.498" y2="211.498"/><rect fill="none" height="6" style="stroke:#C82930;stroke-width:1.0;" width="6" x="2060" y="225.6387"/><text fill="#000000" font-family="sans-serif" font-size="20" lengthAdjust="spacing" textLength="202" x="2073" y="234.0625">numberOfbedrooms</text><rect fill="none" height="6" style="stroke:#C82930;stroke-width:1.0;" width="6" x="2060" y="248.9199"/><text fill="#000000" font-family="sans-serif" font-size="20" lengthAdjust="spacing" textLength="210" x="2073" y="257.3438">numberOfbathrooms</text><rect fill="none" height="6" style="stroke:#C82930;stroke-width:1.0;" width="6" x="2060" y="272.2012"/><text fill="#000000" font-family="sans-serif" font-size="20" lengthAdjust="spacing" textLength="239" x="2073" y="280.625">numberOfParkingSpace</text><rect fill="none" height="6" style="stroke:#C82930;stroke-width:1.0;" width="6" x="2060" y="295.4824"/><text fill="#000000" font-family="sans-serif" font-size="20" lengthAdjust="spacing" textLength="201" x="2073" y="303.9063">availableEquipment</text></g><!--class Land--><g id="elem_Land"><rect codeLine="51" fill="#FFDAB9" height="41.2813" id="Land" rx="2.5" ry="2.5" style="stroke:#4169E1;stroke-width:0.5;" width="55" x="2157.5" y="347.7168"/><text fill="#000000" font-family="sans-serif" font-size="20" lengthAdjust="spacing" textLength="49" x="2160.5" y="371.2813">Land</text><line style="stroke:#4169E1;stroke-width:0.5;" x1="2158.5" x2="2211.5" y1="380.998" y2="380.998"/></g><!--class Apartment--><g id="elem_Apartment"><rect codeLine="54" fill="#FFDAB9" height="41.2813" id="Apartment" rx="2.5" ry="2.5" style="stroke:#4169E1;stroke-width:0.5;" width="114" x="2455.5" y="135.7168"/><text fill="#000000" font-family="sans-serif" font-size="20" lengthAdjust="spacing" textLength="108" x="2458.5" y="159.2813">Apartment</text><line style="stroke:#4169E1;stroke-width:0.5;" x1="2456.5" x2="2568.5" y1="168.998" y2="168.998"/></g><!--class House--><g id="elem_House"><rect codeLine="57" fill="#FFDAB9" height="111.125" id="House" rx="2.5" ry="2.5" style="stroke:#4169E1;stroke-width:0.5;" width="179" x="2423" y="211.7168"/><text fill="#000000" font-family="sans-serif" font-size="20" lengthAdjust="spacing" textLength="62" x="2481.5" y="235.2813">House</text><line style="stroke:#4169E1;stroke-width:0.5;" x1="2424" x2="2601" y1="244.998" y2="244.998"/><rect fill="none" height="6" style="stroke:#C82930;stroke-width:1.0;" width="6" x="2431" y="259.1387"/><text fill="#000000" font-family="sans-serif" font-size="20" lengthAdjust="spacing" textLength="100" x="2444" y="267.5625">basement</text><rect fill="none" height="6" style="stroke:#C82930;stroke-width:1.0;" width="6" x="2431" y="282.4199"/><text fill="#000000" font-family="sans-serif" font-size="20" lengthAdjust="spacing" textLength="152" x="2444" y="290.8438">inhabitableLoft</text><rect fill="none" height="6" style="stroke:#C82930;stroke-width:1.0;" width="6" x="2431" y="305.7012"/><text fill="#000000" font-family="sans-serif" font-size="20" lengthAdjust="spacing" textLength="128" x="2444" y="314.125">sunExposure</text></g><!--class Announcement--><g id="elem_Announcement"><rect codeLine="62" fill="#FFDAB9" height="87.8438" id="Announcement" rx="2.5" ry="2.5" style="stroke:#4169E1;stroke-width:0.5;" width="160" x="1388" y="273.2168"/><text fill="#000000" font-family="sans-serif" font-size="20" lengthAdjust="spacing" textLength="154" x="1391" y="296.7813">Announcement</text><line style="stroke:#4169E1;stroke-width:0.5;" x1="1389" x2="1547" y1="306.498" y2="306.498"/><rect fill="none" height="6" style="stroke:#C82930;stroke-width:1.0;" width="6" x="1396" y="320.6387"/><text fill="#000000" font-family="sans-serif" font-size="20" lengthAdjust="spacing" textLength="19" x="1409" y="329.0625">id</text><rect fill="none" height="6" style="stroke:#C82930;stroke-width:1.0;" width="6" x="1396" y="343.9199"/><text fill="#000000" font-family="sans-serif" font-size="20" lengthAdjust="spacing" textLength="50" x="1409" y="352.3438">state</text></g><!--class Agency--><g id="elem_Agency"><rect codeLine="66" fill="#FFDAB9" height="134.4063" id="Agency" rx="2.5" ry="2.5" style="stroke:#4169E1;stroke-width:0.5;" width="171" x="374" y="396.2168"/><text fill="#000000" font-family="sans-serif" font-size="20" lengthAdjust="spacing" textLength="74" x="422.5" y="419.7813">Agency</text><line style="stroke:#4169E1;stroke-width:0.5;" x1="375" x2="544" y1="429.498" y2="429.498"/><rect fill="none" height="6" style="stroke:#C82930;stroke-width:1.0;" width="6" x="382" y="443.6387"/><text fill="#000000" font-family="sans-serif" font-size="20" lengthAdjust="spacing" textLength="19" x="395" y="452.0625">id</text><rect fill="none" height="6" style="stroke:#C82930;stroke-width:1.0;" width="6" x="382" y="466.9199"/><text fill="#000000" font-family="sans-serif" font-size="20" lengthAdjust="spacing" textLength="118" x="395" y="475.3438">designation</text><rect fill="none" height="6" style="stroke:#C82930;stroke-width:1.0;" width="6" x="382" y="490.2012"/><text fill="#000000" font-family="sans-serif" font-size="20" lengthAdjust="spacing" textLength="144" x="395" y="498.625">phoneNumber</text><rect fill="none" height="6" style="stroke:#C82930;stroke-width:1.0;" width="6" x="382" y="513.4824"/><text fill="#000000" font-family="sans-serif" font-size="20" lengthAdjust="spacing" textLength="56" x="395" y="521.9063">email</text></g><!--class Commission--><g id="elem_Commission"><rect codeLine="72" fill="#FFDAB9" height="87.8438" id="Commission" rx="2.5" ry="2.5" style="stroke:#4169E1;stroke-width:0.5;" width="129" x="1142" y="376.2168"/><text fill="#000000" font-family="sans-serif" font-size="20" lengthAdjust="spacing" textLength="123" x="1145" y="399.7813">Commission</text><line style="stroke:#4169E1;stroke-width:0.5;" x1="1143" x2="1270" y1="409.498" y2="409.498"/><rect fill="none" height="6" style="stroke:#C82930;stroke-width:1.0;" width="6" x="1150" y="423.6387"/><text fill="#000000" font-family="sans-serif" font-size="20" lengthAdjust="spacing" textLength="44" x="1163" y="432.0625">type</text><rect fill="none" height="6" style="stroke:#C82930;stroke-width:1.0;" width="6" x="1150" y="446.9199"/><text fill="#000000" font-family="sans-serif" font-size="20" lengthAdjust="spacing" textLength="54" x="1163" y="455.3438">value</text></g><!--class Prediction--><g id="elem_Prediction"><rect codeLine="77" fill="#FFDAB9" height="64.5625" id="Prediction" rx="2.5" ry="2.5" style="stroke:#4169E1;stroke-width:0.5;" width="107" x="1153" y="180.7168"/><text fill="#000000" font-family="sans-serif" font-size="20" lengthAdjust="spacing" textLength="101" x="1156" y="204.2813">Prediction</text><line style="stroke:#4169E1;stroke-width:0.5;" x1="1154" x2="1259" y1="213.998" y2="213.998"/><rect fill="none" height="6" style="stroke:#C82930;stroke-width:1.0;" width="6" x="1161" y="228.1387"/><text fill="#000000" font-family="sans-serif" font-size="20" lengthAdjust="spacing" textLength="54" x="1174" y="236.5625">value</text></g><!--class Address--><g id="elem_Address"><rect codeLine="81" fill="#FFDAB9" height="134.4063" id="Address" rx="2.5" ry="2.5" style="stroke:#4169E1;stroke-width:0.5;" width="105" x="2132.5" y="545.2168"/><text fill="#000000" font-family="sans-serif" font-size="20" lengthAdjust="spacing" textLength="80" x="2145" y="568.7813">Address</text><line style="stroke:#4169E1;stroke-width:0.5;" x1="2133.5" x2="2236.5" y1="578.498" y2="578.498"/><rect fill="none" height="6" style="stroke:#C82930;stroke-width:1.0;" width="6" x="2140.5" y="592.6387"/><text fill="#000000" font-family="sans-serif" font-size="20" lengthAdjust="spacing" textLength="58" x="2153.5" y="601.0625">street</text><rect fill="none" height="6" style="stroke:#C82930;stroke-width:1.0;" width="6" x="2140.5" y="615.9199"/><text fill="#000000" font-family="sans-serif" font-size="20" lengthAdjust="spacing" textLength="36" x="2153.5" y="624.3438">city</text><rect fill="none" height="6" style="stroke:#C82930;stroke-width:1.0;" width="6" x="2140.5" y="639.2012"/><text fill="#000000" font-family="sans-serif" font-size="20" lengthAdjust="spacing" textLength="50" x="2153.5" y="647.625">state</text><rect fill="none" height="6" style="stroke:#C82930;stroke-width:1.0;" width="6" x="2140.5" y="662.4824"/><text fill="#000000" font-family="sans-serif" font-size="20" lengthAdjust="spacing" textLength="78" x="2153.5" y="670.9063">zipcode</text></g><!--class Role--><g id="elem_Role"><rect codeLine="87" fill="#FFDAB9" height="87.8438" id="Role" rx="2.5" ry="2.5" style="stroke:#4169E1;stroke-width:0.5;" width="139" x="791" y="116.2168"/><text fill="#000000" font-family="sans-serif" font-size="20" lengthAdjust="spacing" textLength="44" x="838.5" y="139.7813">Role</text><line style="stroke:#4169E1;stroke-width:0.5;" x1="792" x2="929" y1="149.498" y2="149.498"/><rect fill="none" height="6" style="stroke:#C82930;stroke-width:1.0;" width="6" x="799" y="163.6387"/><text fill="#000000" font-family="sans-serif" font-size="20" lengthAdjust="spacing" textLength="19" x="812" y="172.0625">id</text><rect fill="none" height="6" style="stroke:#C82930;stroke-width:1.0;" width="6" x="799" y="186.9199"/><text fill="#000000" font-family="sans-serif" font-size="20" lengthAdjust="spacing" textLength="112" x="812" y="195.3438">description</text></g><!--class Order--><g id="elem_Order"><rect codeLine="91" fill="#FFDAB9" height="87.8438" id="Order" rx="2.5" ry="2.5" style="stroke:#4169E1;stroke-width:0.5;" width="152" x="960" y="83.2168"/><text fill="#000000" font-family="sans-serif" font-size="20" lengthAdjust="spacing" textLength="57" x="1007.5" y="106.7813">Order</text><line style="stroke:#4169E1;stroke-width:0.5;" x1="961" x2="1111" y1="116.498" y2="116.498"/><rect fill="none" height="6" style="stroke:#C82930;stroke-width:1.0;" width="6" x="968" y="130.6387"/><text fill="#000000" font-family="sans-serif" font-size="20" lengthAdjust="spacing" textLength="125" x="981" y="139.0625">requestPrice</text><rect fill="none" height="6" style="stroke:#C82930;stroke-width:1.0;" width="6" x="968" y="153.9199"/><text fill="#000000" font-family="sans-serif" font-size="20" lengthAdjust="spacing" textLength="45" x="981" y="162.3438">date</text></g><!--class Deal--><g id="elem_Deal"><rect codeLine="95" fill="#FFDAB9" height="64.5625" id="Deal" rx="2.5" ry="2.5" style="stroke:#4169E1;stroke-width:0.5;" width="118" x="2126" y="423.7168"/><text fill="#000000" font-family="sans-serif" font-size="20" lengthAdjust="spacing" textLength="45" x="2162.5" y="447.2813">Deal</text><line style="stroke:#4169E1;stroke-width:0.5;" x1="2127" x2="2243" y1="456.998" y2="456.998"/><rect fill="none" height="6" style="stroke:#C82930;stroke-width:1.0;" width="6" x="2134" y="471.1387"/><text fill="#000000" font-family="sans-serif" font-size="20" lengthAdjust="spacing" textLength="91" x="2147" y="479.5625">dealType</text></g><!--class Sale--><g id="elem_Sale"><rect codeLine="98" fill="#FFDAB9" height="64.5625" id="Sale" rx="2.5" ry="2.5" style="stroke:#4169E1;stroke-width:0.5;" width="161" x="2432" y="401.7168"/><text fill="#000000" font-family="sans-serif" font-size="20" lengthAdjust="spacing" textLength="43" x="2491" y="425.2813">Sale</text><line style="stroke:#4169E1;stroke-width:0.5;" x1="2433" x2="2592" y1="434.998" y2="434.998"/><rect fill="none" height="6" style="stroke:#C82930;stroke-width:1.0;" width="6" x="2440" y="449.1387"/><text fill="#000000" font-family="sans-serif" font-size="20" lengthAdjust="spacing" textLength="134" x="2453" y="457.5625">propertyPrice</text></g><!--class Rent--><g id="elem_Rent"><rect codeLine="101" fill="#FFDAB9" height="87.8438" id="Rent" rx="2.5" ry="2.5" style="stroke:#4169E1;stroke-width:0.5;" width="197" x="2414" y="502.2168"/><text fill="#000000" font-family="sans-serif" font-size="20" lengthAdjust="spacing" textLength="47" x="2489" y="525.7813">Rent</text><line style="stroke:#4169E1;stroke-width:0.5;" x1="2415" x2="2610" y1="535.498" y2="535.498"/><rect fill="none" height="6" style="stroke:#C82930;stroke-width:1.0;" width="6" x="2422" y="549.6387"/><text fill="#000000" font-family="sans-serif" font-size="20" lengthAdjust="spacing" textLength="132" x="2435" y="558.0625">propertyRent</text><rect fill="none" height="6" style="stroke:#C82930;stroke-width:1.0;" width="6" x="2422" y="572.9199"/><text fill="#000000" font-family="sans-serif" font-size="20" lengthAdjust="spacing" textLength="170" x="2435" y="581.3438">contractDuration</text></g><!--class Client--><g id="elem_Client"><rect fill="#FFDAB9" height="41.2813" id="Client" rx="2.5" ry="2.5" style="stroke:#4169E1;stroke-width:0.5;" width="65" x="427" y="269.7168"/><text fill="#000000" font-family="sans-serif" font-size="20" lengthAdjust="spacing" textLength="59" x="430" y="293.2813">Client</text><line style="stroke:#4169E1;stroke-width:0.5;" x1="428" x2="491" y1="302.998" y2="302.998"/></g><!--link PO to Announcement--><g id="link_PO_Announcement"><path codeLine="107" d="M761.11,34.7468 C878.71,25.7568 1102.38,22.0068 1271,99.2168 C1350.13,135.4468 1411,220.5468 1442.7,273.0568 " fill="none" id="PO-Announcement" style="stroke:#4169E1;stroke-width:1.0;"/><polygon fill="#000000" points="1002.5517,23.4978,990.4425,14.2825,987.3386,23.1601,1002.5517,23.4978" style="stroke:#000000;stroke-width:1.0;"/><text fill="#000000" font-family="sans-serif" font-size="20" lengthAdjust="spacing" textLength="76" x="1008" y="27.7813">request</text><text fill="#000000" font-family="sans-serif" font-size="20" lengthAdjust="spacing" textLength="13" x="768.9128" y="53.5811">1</text><text fill="#000000" font-family="sans-serif" font-size="20" lengthAdjust="spacing" textLength="35" x="1401.4138" y="260.4783">1..*</text></g><!--link Announcement to Property--><g id="link_Announcement_Property"><path codeLine="109" d="M1548.04,329.4368 C1583.03,334.8368 1625.18,341.3568 1664.85,347.4868 " fill="none" id="Announcement-Property" style="stroke:#4169E1;stroke-width:1.0;"/><polygon fill="#000000" points="1593.9062,323.0791,1580.3219,316.2219,1578.8857,325.5162,1593.9062,323.0791" style="stroke:#000000;stroke-width:1.0;"/><text fill="#000000" font-family="sans-serif" font-size="20" lengthAdjust="spacing" textLength="35" x="1599" y="328.7813">has</text><text fill="#000000" font-family="sans-serif" font-size="20" lengthAdjust="spacing" textLength="13" x="1556.0179" y="350.2081">1</text><text fill="#000000" font-family="sans-serif" font-size="20" lengthAdjust="spacing" textLength="13" x="1644.1035" y="365.5431">1</text></g><!--link Announcement to Agent--><g id="link_Announcement_Agent"><path codeLine="110" d="M1387.89,320.8968 C1287.71,326.4268 1110.04,339.1368 960,365.2168 C937.63,369.1068 912.79,375.1668 893.66,380.2268 " fill="none" id="Announcement-Agent" style="stroke:#4169E1;stroke-width:1.0;"/><polygon fill="#000000" points="1158.557,316.8109,1173.4865,319.7548,1172.3655,310.4172,1158.557,316.8109" style="stroke:#000000;stroke-width:1.0;"/><text fill="#000000" font-family="sans-serif" font-size="20" lengthAdjust="spacing" textLength="74" x="1179.5" y="322.7813">send to</text><text fill="#000000" font-family="sans-serif" font-size="20" lengthAdjust="spacing" textLength="13" x="1366.9056" y="340.8808">1</text><text fill="#000000" font-family="sans-serif" font-size="20" lengthAdjust="spacing" textLength="13" x="901.4681" y="371.7573">1</text></g><!--link Agent to Announcement--><g id="link_Agent_Announcement"><path codeLine="120" d="M889.48,409.8968 C956.73,456.8968 1132.14,563.4768 1271,507.2168 C1343.25,477.9468 1403.58,407.8368 1437.47,361.4668 " fill="none" id="Agent-Announcement" style="stroke:#4169E1;stroke-width:1.0;"/><polygon fill="#000000" points="1163.4689,494.1531,1148.639,490.7432,1149.467,500.1112,1163.4689,494.1531" style="stroke:#000000;stroke-width:1.0;"/><text fill="#000000" font-family="sans-serif" font-size="20" lengthAdjust="spacing" textLength="96" x="1168.5" y="501.7813">publishes</text><text fill="#000000" font-family="sans-serif" font-size="20" lengthAdjust="spacing" textLength="13" x="882.2405" y="436.7074">1</text><text fill="#000000" font-family="sans-serif" font-size="20" lengthAdjust="spacing" textLength="10" x="1422.6957" y="387.5521">*</text></g><!--link Agency to Agent--><g id="link_Agency_Agent"><path codeLine="113" d="M545.12,447.5268 C633.19,431.1868 766.57,406.4468 827.32,395.1868 " fill="none" id="Agency-Agent" style="stroke:#4169E1;stroke-width:1.0;"/><polygon fill="#000000" points="667.3659,394.3985,652.2789,392.4143,653.9939,401.6611,667.3659,394.3985" style="stroke:#000000;stroke-width:1.0;"/><text fill="#000000" font-family="sans-serif" font-size="20" lengthAdjust="spacing" textLength="35" x="672.5" y="402.7813">has</text><text fill="#000000" font-family="sans-serif" font-size="20" lengthAdjust="spacing" textLength="13" x="553.0366" y="465.7258">1</text><text fill="#000000" font-family="sans-serif" font-size="20" lengthAdjust="spacing" textLength="35" x="784.5596" y="416.4263">1..*</text></g><!--link Agency to Address--><g id="link_Agency_Address"><path codeLine="114" d="M545.05,514.9068 C623.58,557.9468 745.26,612.2168 859.5,612.2168 C859.5,612.2168 859.5,612.2168 1801,612.2168 C1919.52,612.2168 2058.68,612.2168 2132.27,612.2168 " fill="none" id="Agency-Address" style="stroke:#4169E1;stroke-width:1.0;"/><polygon fill="#000000" points="1316.985,600.347,1302.8277,594.7679,1302.2522,604.1548,1316.985,600.347" style="stroke:#000000;stroke-width:1.0;"/><text fill="#000000" font-family="sans-serif" font-size="20" lengthAdjust="spacing" textLength="35" x="1322" y="606.7813">has</text><text fill="#000000" font-family="sans-serif" font-size="20" lengthAdjust="spacing" textLength="13" x="552.9605" y="538.8963">1</text><text fill="#000000" font-family="sans-serif" font-size="20" lengthAdjust="spacing" textLength="13" x="2111.6812" y="632.2467">1</text></g><!--link Commission to Announcement--><g id="link_Commission_Announcement"><path codeLine="118" d="M1271.31,394.8868 C1306.43,380.9468 1350.32,363.5268 1387.63,348.7168 " fill="none" id="Commission-Announcement" style="stroke:#4169E1;stroke-width:1.0;"/><polygon fill="#000000" points="1301.5643,352.8088,1316.7504,351.8403,1313.2808,343.0991,1301.5643,352.8088" style="stroke:#000000;stroke-width:1.0;"/><text fill="#000000" font-family="sans-serif" font-size="20" lengthAdjust="spacing" textLength="35" x="1322" y="356.7813">has</text><text fill="#000000" font-family="sans-serif" font-size="20" lengthAdjust="spacing" textLength="13" x="1279.1095" y="411.9625">1</text><text fill="#000000" font-family="sans-serif" font-size="20" lengthAdjust="spacing" textLength="13" x="1366.8931" y="371.1304">1</text></g><!--link Agent to Commission--><g id="link_Agent_Commission"><path codeLine="119" d="M893.55,392.1068 C950.01,397.1968 1068.17,407.8368 1141.76,414.4768 " fill="none" id="Agent-Commission" style="stroke:#4169E1;stroke-width:1.0;"/><polygon fill="#000000" points="1025.9677,386.5755,1011.9761,380.5932,1011.1319,389.9598,1025.9677,386.5755" style="stroke:#000000;stroke-width:1.0;"/><text fill="#000000" font-family="sans-serif" font-size="20" lengthAdjust="spacing" textLength="30" x="1031" y="392.7813">set</text><text fill="#000000" font-family="sans-serif" font-size="20" lengthAdjust="spacing" textLength="13" x="901.7072" y="413.6392">1</text><text fill="#000000" font-family="sans-serif" font-size="20" lengthAdjust="spacing" textLength="35" x="1098.9215" y="433.6111">1..*</text></g><!--link Agent to Prediction--><g id="link_Agent_Prediction"><path codeLine="121" d="M881.62,368.4368 C895.45,353.9868 914.11,334.1768 930,316.2168 C943.8,300.6168 942.48,291.4768 960,280.2168 C1019.47,241.9968 1100.5,225.3768 1152.91,218.2968 " fill="none" id="Agent-Prediction" style="stroke:#4169E1;stroke-width:1.0;"/><polygon fill="#000000" points="1006.9996,208.9837,992.0603,211.8771,996.6142,220.1056,1006.9996,208.9837" style="stroke:#000000;stroke-width:1.0;"/><text fill="#000000" font-family="sans-serif" font-size="20" lengthAdjust="spacing" textLength="66" x="1013" y="219.7813">makes</text><text fill="#000000" font-family="sans-serif" font-size="20" lengthAdjust="spacing" textLength="13" x="872.1836" y="356.133">1</text><text fill="#000000" font-family="sans-serif" font-size="20" lengthAdjust="spacing" textLength="10" x="1135.037" y="239.1375">*</text></g><!--link Employee to Agent--><g id="link_Employee_Agent"><path codeLine="125" d="M569.37,216.6768 C641.76,227.7968 729.16,244.5468 761,264.2168 C802.84,290.0668 834.12,340.3968 849.29,368.6768 " fill="none" id="Employee-Agent" style="stroke:#4169E1;stroke-width:1.0;"/><polygon fill="#000000" points="650.5304,213.675,640.0562,202.6366,635.5684,210.9013,650.5304,213.675" style="stroke:#000000;stroke-width:1.0;"/><text fill="#000000" font-family="sans-serif" font-size="20" lengthAdjust="spacing" textLength="67" x="656.5" y="216.7813">can be</text><text fill="#000000" font-family="sans-serif" font-size="20" lengthAdjust="spacing" textLength="13" x="576.825" y="236.9273">1</text><text fill="#000000" font-family="sans-serif" font-size="20" lengthAdjust="spacing" textLength="10" x="835.1362" y="356.031">*</text></g><!--link Employee to Role--><g id="link_Employee_Role"><path codeLine="126" d="M569,190.7968 C639.73,183.3468 729.88,173.8568 790.85,167.4468 " fill="none" id="Employee-Role" style="stroke:#4169E1;stroke-width:1.0;"/><polygon fill="#000000" points="658.4561,159.02,643.5712,155.8584,644.5556,165.2113,658.4561,159.02" style="stroke:#000000;stroke-width:1.0;"/><text fill="#000000" font-family="sans-serif" font-size="20" lengthAdjust="spacing" textLength="53" x="663.5" y="166.7813">has a</text><text fill="#000000" font-family="sans-serif" font-size="20" lengthAdjust="spacing" textLength="13" x="577.1563" y="209.3921">1</text><text fill="#000000" font-family="sans-serif" font-size="20" lengthAdjust="spacing" textLength="10" x="773.1517" y="187.9653">*</text></g><!--link Client to Order--><g id="link_Client_Order"><path codeLine="130" d="M492.1,295.7268 C547.36,304.2968 664.82,317.8468 761,297.2168 C841.52,279.9468 861.82,267.4168 930,221.2168 C945.35,210.8168 946.32,204.7368 960,192.2168 C967.5,185.3568 975.52,178.1968 983.44,171.2568 " fill="none" id="Client-Order" style="stroke:#4169E1;stroke-width:1.0;"/><polygon fill="#000000" points="651.755,282.8929,636.5713,281.8885,638.8808,291.0051,651.755,282.8929" style="stroke:#000000;stroke-width:1.0;"/><text fill="#000000" font-family="sans-serif" font-size="20" lengthAdjust="spacing" textLength="66" x="657" y="291.7813">makes</text><text fill="#000000" font-family="sans-serif" font-size="20" lengthAdjust="spacing" textLength="13" x="500.1644" y="317.7996">1</text><text fill="#000000" font-family="sans-serif" font-size="20" lengthAdjust="spacing" textLength="13" x="962.1347" y="197.6623">1</text></g><!--link Order to Announcement--><g id="link_Order_Announcement"><path codeLine="133" d="M1112.15,129.0768 C1159.42,132.5568 1220.75,141.4168 1271,163.2168 C1330.55,189.0468 1387.61,237.4868 1424.65,273.1568 " fill="none" id="Order-Announcement" style="stroke:#4169E1;stroke-width:1.0;"/><polygon fill="#000000" points="1193.265,123.207,1182.0913,112.8773,1178.1537,121.4178,1193.265,123.207" style="stroke:#000000;stroke-width:1.0;"/><text fill="#000000" font-family="sans-serif" font-size="20" lengthAdjust="spacing" textLength="35" x="1199" y="126.7813">has</text><text fill="#000000" font-family="sans-serif" font-size="20" lengthAdjust="spacing" textLength="13" x="1120.0276" y="148.9355">1</text><text fill="#000000" font-family="sans-serif" font-size="20" lengthAdjust="spacing" textLength="13" x="1368.0313" y="263.4227">1</text></g><!--link Person to Client--><g id="link_Person_Client"><path codeLine="135" d="M201.31,253.9968 C211.33,255.4268 221.37,256.8568 231,258.2168 C300.9,268.1268 382.9,279.6268 426.85,285.7868 " fill="none" id="Person-Client" style="stroke:#4169E1;stroke-width:1.0;"/><polygon fill="#000000" points="246.9217,246.974,233.2475,240.2978,231.9349,249.6104,246.9217,246.974" style="stroke:#000000;stroke-width:1.0;"/><text fill="#000000" font-family="sans-serif" font-size="20" lengthAdjust="spacing" textLength="67" x="252" y="252.7813">can be</text><text fill="#000000" font-family="sans-serif" font-size="20" lengthAdjust="spacing" textLength="13" x="208.9335" y="274.4292">1</text><text fill="#000000" font-family="sans-serif" font-size="20" lengthAdjust="spacing" textLength="10" x="409.0847" y="305.8094">*</text></g><!--link Person to PO--><g id="link_Person_PO"><path codeLine="136" d="M201.19,196.1368 C211.19,191.9468 221.26,187.8968 231,184.2168 C360.46,135.2568 515.21,89.2268 604.79,63.7768 " fill="none" id="Person-PO" style="stroke:#4169E1;stroke-width:1.0;"/><polygon fill="#000000" points="246.6017,138.3645,231.3848,138.4061,234.3155,147.3424,246.6017,138.3645" style="stroke:#000000;stroke-width:1.0;"/><text fill="#000000" font-family="sans-serif" font-size="20" lengthAdjust="spacing" textLength="67" x="252" y="147.7813">can be</text><text fill="#000000" font-family="sans-serif" font-size="20" lengthAdjust="spacing" textLength="13" x="209.1288" y="212.2188">1</text><text fill="#000000" font-family="sans-serif" font-size="20" lengthAdjust="spacing" textLength="10" x="581.0039" y="87.8516">*</text></g><!--link Person to Address--><g id="link_Person_Address"><path codeLine="137" d="M131.03,330.7368 C175.02,462.1468 277.44,690.2168 458.5,690.2168 C458.5,690.2168 458.5,690.2168 1801,690.2168 C1921.62,690.2168 2059.38,652.6168 2132.33,629.6268 " fill="none" id="Person-Address" style="stroke:#4169E1;stroke-width:1.0;"/><polygon fill="#000000" points="1193.9122,679.0391,1180.2934,672.2507,1178.9043,681.5521,1193.9122,679.0391" style="stroke:#000000;stroke-width:1.0;"/><text fill="#000000" font-family="sans-serif" font-size="20" lengthAdjust="spacing" textLength="35" x="1199" y="684.7813">has</text><text fill="#000000" font-family="sans-serif" font-size="20" lengthAdjust="spacing" textLength="13" x="119.6018" y="357.1241">1</text><text fill="#000000" font-family="sans-serif" font-size="20" lengthAdjust="spacing" textLength="32" x="2092.39" y="651.5267">1,0</text></g><!--link Property to Address--><g id="link_Property_Address"><path codeLine="140" d="M1906.42,435.3768 C1979.93,482.2068 2074.82,542.6668 2132.46,579.3768 " fill="none" id="Property-Address" style="stroke:#4169E1;stroke-width:1.0;"/><polygon fill="#000000" points="1979.7472,467.1557,1970.0679,455.4141,1965.0149,463.3459,1979.7472,467.1557" style="stroke:#000000;stroke-width:1.0;"/><text fill="#000000" font-family="sans-serif" font-size="20" lengthAdjust="spacing" textLength="35" x="1986" y="469.7813">has</text><text fill="#000000" font-family="sans-serif" font-size="20" lengthAdjust="spacing" textLength="13" x="1903.7243" y="462.0466">1</text><text fill="#000000" font-family="sans-serif" font-size="20" lengthAdjust="spacing" textLength="13" x="2111.5265" y="595.0653">1</text></g><!--link Property to Deal--><g id="link_Property_Deal"><path codeLine="144" d="M1935.22,399.0568 C2000.45,414.0468 2075.44,431.2768 2125.89,442.8668 " fill="none" id="Property-Deal" style="stroke:#4169E1;stroke-width:1.0;"/><polygon fill="#000000" points="1980.7968,395.6489,1967.7452,387.8252,1965.6392,396.991,1980.7968,395.6489" style="stroke:#000000;stroke-width:1.0;"/><text fill="#000000" font-family="sans-serif" font-size="20" lengthAdjust="spacing" textLength="35" x="1986" y="400.7813">has</text><text fill="#000000" font-family="sans-serif" font-size="20" lengthAdjust="spacing" textLength="13" x="1942.9703" y="419.9333">1</text><text fill="#000000" font-family="sans-serif" font-size="20" lengthAdjust="spacing" textLength="13" x="2104.8938" y="461.2496">1</text></g><!--reverse link Deal to Sale--><g id="link_Deal_Sale"><path codeLine="147" d="M2257.21,451.4068 C2308.74,447.9168 2378.42,443.2068 2431.8,439.6068 " fill="none" id="Deal-backto-Sale" style="stroke:#4169E1;stroke-width:1.0;"/><polygon fill="#4169E1" points="2244.19,452.2868,2250.4446,455.8756,2256.163,451.4824,2249.9084,447.8936,2244.19,452.2868" style="stroke:#4169E1;stroke-width:1.0;"/></g><!--reverse link Deal to Rent--><g id="link_Deal_Rent"><path codeLine="148" d="M2256.76,475.7868 C2302.76,488.5068 2363.37,505.2568 2413.92,519.2368 " fill="none" id="Deal-backto-Rent" style="stroke:#4169E1;stroke-width:1.0;"/><polygon fill="#4169E1" points="2244.19,472.3068,2248.9041,477.7637,2255.7543,475.511,2251.0402,470.0542,2244.19,472.3068" style="stroke:#4169E1;stroke-width:1.0;"/></g><!--reverse link Property to Land--><g id="link_Property_Land"><path codeLine="150" d="M1955.39,368.2168 C2031.47,368.2168 2115.68,368.2168 2157.46,368.2168 " fill="none" id="Property-backto-Land" style="stroke:#4169E1;stroke-width:1.0;"/><polygon fill="none" points="1955.22,375.2168,1935.22,368.2168,1955.22,361.2168,1955.22,375.2168" style="stroke:#4169E1;stroke-width:1.0;"/><text fill="#000000" font-family="sans-serif" font-size="20" lengthAdjust="spacing" textLength="34" x="1976.5" y="362.7813">is a</text></g><!--reverse link Property to Home--><g id="link_Property_Home"><path codeLine="151" d="M1954.54,318.9068 C1986.79,308.5468 2020.53,297.7168 2051.91,287.6368 " fill="none" id="Property-backto-Home" style="stroke:#4169E1;stroke-width:1.0;"/><polygon fill="none" points="1956.41,325.6568,1935.22,325.1068,1952.13,312.3268,1956.41,325.6568" style="stroke:#4169E1;stroke-width:1.0;"/><text fill="#000000" font-family="sans-serif" font-size="20" lengthAdjust="spacing" textLength="34" x="1976.5" y="293.7813">is a</text></g><!--reverse link Home to Apartment--><g id="link_Home_Apartment"><path codeLine="152" d="M2337.83,203.7068 C2379.67,192.2568 2422.48,180.5568 2455.13,171.6268 " fill="none" id="Home-backto-Apartment" style="stroke:#4169E1;stroke-width:1.0;"/><polygon fill="none" points="2339.53,210.4968,2318.39,209.0168,2335.84,196.9868,2339.53,210.4968" style="stroke:#4169E1;stroke-width:1.0;"/><text fill="#000000" font-family="sans-serif" font-size="20" lengthAdjust="spacing" textLength="34" x="2349" y="187.7813">is a</text></g><!--reverse link Home to House--><g id="link_Home_House"><path codeLine="153" d="M2338.36,255.5168 C2367.36,257.4768 2396.8,259.4668 2422.99,261.2368 " fill="none" id="Home-backto-House" style="stroke:#4169E1;stroke-width:1.0;"/><polygon fill="none" points="2337.88,262.4968,2318.39,254.1668,2338.82,248.5268,2337.88,262.4968" style="stroke:#4169E1;stroke-width:1.0;"/><text fill="#000000" font-family="sans-serif" font-size="20" lengthAdjust="spacing" textLength="34" x="2349" y="250.7813">is a</text></g><!--reverse link Person to Employee--><g id="link_Person_Employee"><path codeLine="155" d="M221.04,227.7468 C262.52,223.2868 309.09,218.2768 349.92,213.8868 " fill="none" id="Person-backto-Employee" style="stroke:#4169E1;stroke-width:1.0;"/><polygon fill="none" points="221.76,234.7068,201.13,229.8868,220.27,220.7868,221.76,234.7068" style="stroke:#4169E1;stroke-width:1.0;"/><text fill="#000000" font-family="sans-serif" font-size="20" lengthAdjust="spacing" textLength="34" x="258.5" y="211.7813">is a</text></g><!--SRC=[XLNRRXCn47ttLrXvYOH8LNX4g598Mu5KqQY53t3iITQgrrviBoKq_3lZzMMzIGhxilRCyLpFsEv9wevPrYh3dq1G0LlMAtzhj7-Klu6-loHpbp6qDThmnfeMgBSza57JCVx4Tl3ezmge1UwPtgaQu1ecpBFKExfboa5jLKaDVjy1DTOtXYZOUkeDjNBNU2fai2QDhazmnPnRUc_bflVmXHiz17j96Yc0Scav-XxMBQ19uSXyaRzRYH4wZ1DZAK9oP9k-48hV9yngPqslnSeeO-aQ66_M_NOxQ9VMckUeU31xfZufBCbmp5W1zbZpfme2lyEIUsFTON7qaVbX3TOPxGuanXAtAQG5rQo5jEnGtM7LllRj1cmIUlPhieUMIPKFD4R3H1jCF6Ey8Rp3JTifimSehhEWECSUQxw_1YTtcWrj-PEWIzJu5u9xDBHI4dV5p6njJGVMx-dzimOxemopkgSHdP9CYEme42BxjC1eMWlfa5eSRf64A-dtAtGpvj8ORxu_t94IrET0rLAu8U_xxGQ4DQPrnsBcctFoDRD8ZjqZKhn4z1DBoZOARdxqicinXkBnZcdnCWQmH5BvDbSc1zKxo45jc8F1GDnAtR2DzC7sdTbcgUlrpQ_EkDx2Q5bh92Q7Q3oT5hbEM2KFk9gqX-zFWQ9gvMiSYGpAbbQcRQLpSgJasAkVB3AzD1M47AOtGuy0Io4iE9UKpbi0doBZs5sQvI6PkFujEsx4M8O7et8jfOX_J8bRsKtOUHyciZ31meyUd5zRMLegq4L1NmDJBwL0J7qB2MRb8oiUQPTO6osLcAgMPCJ3s6Eyhhnbt5_tDe_GV77w8Kp7gy-TAibyEb84nsdsRaON2_nTNBoPJVX1F-IKwHMPrneoWHKBipAFUBJ1QRrw5JZCFQ8SQ16kxIkS_qWs4d_7SILyide4cMLA54Govqd5kne-JJES-KYYZwdVwdW8rYVd8-oqPbs_KT8ruCvXAsv_e2rxWXHilZ99kJjh1obvpZJT01uu1mgKJgcmePpnDgM4f4MLVkHr5S1ya90e_tUTa0hnQI7fXQbYY9wgG4yXoBZNzU_UNfvfPI4jAVJwJ-Thgfux4oQriX-sP92zGK2OL3fkXn4yDscB1YpUkJiufoCNnUz7VApfHRZXqQKCtJbH3WzEL9AuYVBo3fnJ3Wz2Lg39MCgeAmH9why0]--></g></svg>