<?xml version="1.0" encoding="UTF-8" standalone="no"?><svg xmlns="http://www.w3.org/2000/svg" xmlns:xlink="http://www.w3.org/1999/xlink" contentStyleType="text/css" height="1489px" preserveAspectRatio="none" style="width:2763px;height:1489px;background:#FFFFFF;" version="1.1" viewBox="0 0 2763 1489" width="2763px" zoomAndPan="magnify"><defs/><g><rect fill="#FFFFFF" height="1290.3125" style="stroke:#181818;stroke-width:1.0;" width="10" x="42.5" y="100.1563"/><rect fill="#FFFFFF" height="388.5625" style="stroke:#181818;stroke-width:1.0;" width="10" x="642.5" y="131.3125"/><rect fill="#FFFFFF" height="117.4688" style="stroke:#181818;stroke-width:1.0;" width="10" x="642.5" y="793.9688"/><rect fill="#FFFFFF" height="39.1563" style="stroke:#181818;stroke-width:1.0;" width="10" x="1707.5" y="245.7813"/><rect fill="#FFFFFF" height="117.4688" style="stroke:#181818;stroke-width:1.0;" width="10" x="1847.5" y="324.0938"/><rect fill="#FFFFFF" height="117.4688" style="stroke:#181818;stroke-width:1.0;" width="10" x="1847.5" y="559.0313"/><rect fill="#FFFFFF" height="39.1563" style="stroke:#181818;stroke-width:1.0;" width="10" x="2038" y="402.4063"/><rect fill="#FFFFFF" height="39.1563" style="stroke:#181818;stroke-width:1.0;" width="10" x="2281" y="715.6563"/><rect fill="#FFFFFF" height="39.1563" style="stroke:#181818;stroke-width:1.0;" width="10" x="2496" y="833.125"/><rect fill="#FFFFFF" height="228.0938" style="stroke:#181818;stroke-width:1.0;" width="10" x="2667.5" y="1068.0625"/><rect fill="none" height="299.4063" style="stroke:#000000;stroke-width:1.5;" width="2746.5" x="10" y="1083.0625"/><line style="stroke:#181818;stroke-width:0.5;stroke-dasharray:5.0,5.0;" x1="47" x2="47" y1="90.1563" y2="1399.4688"/><line style="stroke:#181818;stroke-width:0.5;stroke-dasharray:5.0,5.0;" x1="647" x2="647" y1="90.1563" y2="1399.4688"/><line style="stroke:#181818;stroke-width:0.5;stroke-dasharray:5.0,5.0;" x1="1333.5" x2="1333.5" y1="186.9688" y2="1399.4688"/><line style="stroke:#181818;stroke-width:0.5;stroke-dasharray:5.0,5.0;" x1="1525.5" x2="1525.5" y1="90.1563" y2="1399.4688"/><line style="stroke:#181818;stroke-width:0.5;stroke-dasharray:5.0,5.0;" x1="1712.5" x2="1712.5" y1="90.1563" y2="1399.4688"/><line style="stroke:#181818;stroke-width:0.5;stroke-dasharray:5.0,5.0;" x1="1852.5" x2="1852.5" y1="90.1563" y2="1399.4688"/><line style="stroke:#181818;stroke-width:0.5;stroke-dasharray:5.0,5.0;" x1="2042.5" x2="2042.5" y1="90.1563" y2="1399.4688"/><line style="stroke:#181818;stroke-width:0.5;stroke-dasharray:5.0,5.0;" x1="2285.5" x2="2285.5" y1="90.1563" y2="1399.4688"/><line style="stroke:#181818;stroke-width:0.5;stroke-dasharray:5.0,5.0;" x1="2500.5" x2="2500.5" y1="90.1563" y2="1399.4688"/><line style="stroke:#181818;stroke-width:0.5;stroke-dasharray:5.0,5.0;" x1="2672.5" x2="2672.5" y1="90.1563" y2="1399.4688"/><text fill="#000000" font-family="sans-serif" font-size="20" lengthAdjust="spacing" textLength="49" x="20" y="85.7617">Client</text><ellipse cx="47.5" cy="13.5" fill="#E3E3E3" rx="8" ry="8" style="stroke:#181818;stroke-width:0.5;"/><path d="M47.5,21.5 L47.5,48.5 M34.5,29.5 L60.5,29.5 M47.5,48.5 L34.5,63.5 M47.5,48.5 L60.5,63.5 " fill="none" style="stroke:#181818;stroke-width:0.5;"/><text fill="#000000" font-family="sans-serif" font-size="20" lengthAdjust="spacing" textLength="49" x="20" y="1419.2305">Client</text><ellipse cx="47.5" cy="1432.125" fill="#E3E3E3" rx="8" ry="8" style="stroke:#181818;stroke-width:0.5;"/><path d="M47.5,1440.125 L47.5,1467.125 M34.5,1448.125 L60.5,1448.125 M47.5,1467.125 L34.5,1482.125 M47.5,1467.125 L60.5,1482.125 " fill="none" style="stroke:#181818;stroke-width:0.5;"/><rect fill="#E3E3E3" height="39.1563" rx="2.5" ry="2.5" style="stroke:#181818;stroke-width:0.5;" width="123" x="586" y="50"/><text fill="#000000" font-family="sans-serif" font-size="20" lengthAdjust="spacing" textLength="109" x="593" y="77.7617">ScheuduleUI</text><rect fill="#E3E3E3" height="39.1563" rx="2.5" ry="2.5" style="stroke:#181818;stroke-width:0.5;" width="123" x="586" y="1398.4688"/><text fill="#000000" font-family="sans-serif" font-size="20" lengthAdjust="spacing" textLength="109" x="593" y="1426.2305">ScheuduleUI</text><rect fill="#E3E3E3" height="64.3125" rx="2.5" ry="2.5" style="stroke:#181818;stroke-width:0.5;" width="142" x="1262.5" y="1398.4688"/><text fill="#000000" font-family="sans-serif" font-size="20" lengthAdjust="spacing" textLength="118" x="1274.5" y="1426.2305">visitController</text><text fill="#000000" font-family="sans-serif" font-size="20" lengthAdjust="spacing" textLength="128" x="1269.5" y="1451.3867">:VisitController</text><rect fill="#E3E3E3" height="64.3125" rx="2.5" ry="2.5" style="stroke:#181818;stroke-width:0.5;" width="223" x="1414.5" y="24.8438"/><text fill="#000000" font-family="sans-serif" font-size="20" lengthAdjust="spacing" textLength="201" x="1425.5" y="52.6055">annoucementController</text><text fill="#000000" font-family="sans-serif" font-size="20" lengthAdjust="spacing" textLength="209" x="1421.5" y="77.7617">:AnnoucementController</text><rect fill="#E3E3E3" height="64.3125" rx="2.5" ry="2.5" style="stroke:#181818;stroke-width:0.5;" width="223" x="1414.5" y="1398.4688"/><text fill="#000000" font-family="sans-serif" font-size="20" lengthAdjust="spacing" textLength="201" x="1425.5" y="1426.2305">annoucementController</text><text fill="#000000" font-family="sans-serif" font-size="20" lengthAdjust="spacing" textLength="209" x="1421.5" y="1451.3867">:AnnoucementController</text><rect fill="#E3E3E3" height="39.1563" rx="2.5" ry="2.5" style="stroke:#181818;stroke-width:0.5;" width="130" x="1647.5" y="50"/><text fill="#000000" font-family="sans-serif" font-size="20" lengthAdjust="spacing" textLength="116" x="1654.5" y="77.7617">:Repositories</text><rect fill="#E3E3E3" height="39.1563" rx="2.5" ry="2.5" style="stroke:#181818;stroke-width:0.5;" width="130" x="1647.5" y="1398.4688"/><text fill="#000000" font-family="sans-serif" font-size="20" lengthAdjust="spacing" textLength="116" x="1654.5" y="1426.2305">:Repositories</text><rect fill="#E3E3E3" height="64.3125" rx="2.5" ry="2.5" style="stroke:#181818;stroke-width:0.5;" width="130" x="1787.5" y="24.8438"/><text fill="#000000" font-family="sans-serif" font-size="20" lengthAdjust="spacing" textLength="103" x="1801" y="52.6055">repositories</text><text fill="#000000" font-family="sans-serif" font-size="20" lengthAdjust="spacing" textLength="116" x="1794.5" y="77.7617">:Repositories</text><rect fill="#E3E3E3" height="64.3125" rx="2.5" ry="2.5" style="stroke:#181818;stroke-width:0.5;" width="130" x="1787.5" y="1398.4688"/><text fill="#000000" font-family="sans-serif" font-size="20" lengthAdjust="spacing" textLength="103" x="1801" y="1426.2305">repositories</text><text fill="#000000" font-family="sans-serif" font-size="20" lengthAdjust="spacing" textLength="116" x="1794.5" y="1451.3867">:Repositories</text><rect fill="#E3E3E3" height="64.3125" rx="2.5" ry="2.5" style="stroke:#181818;stroke-width:0.5;" width="231" x="1927.5" y="24.8438"/><text fill="#000000" font-family="sans-serif" font-size="20" lengthAdjust="spacing" textLength="217" x="1934.5" y="52.6055">annoucementRepository:</text><text fill="#000000" font-family="sans-serif" font-size="20" lengthAdjust="spacing" textLength="213" x="1936.5" y="77.7617">AnnoucementRepository</text><rect fill="#E3E3E3" height="64.3125" rx="2.5" ry="2.5" style="stroke:#181818;stroke-width:0.5;" width="231" x="1927.5" y="1398.4688"/><text fill="#000000" font-family="sans-serif" font-size="20" lengthAdjust="spacing" textLength="217" x="1934.5" y="1426.2305">annoucementRepository:</text><text fill="#000000" font-family="sans-serif" font-size="20" lengthAdjust="spacing" textLength="213" x="1936.5" y="1451.3867">AnnoucementRepository</text><rect fill="#E3E3E3" height="64.3125" rx="2.5" ry="2.5" style="stroke:#181818;stroke-width:0.5;" width="235" x="2168.5" y="24.8438"/><text fill="#000000" font-family="sans-serif" font-size="20" lengthAdjust="spacing" textLength="221" x="2175.5" y="52.6055">authenticationRepository:</text><text fill="#000000" font-family="sans-serif" font-size="20" lengthAdjust="spacing" textLength="217" x="2177.5" y="77.7617">AuthenticationRepository</text><rect fill="#E3E3E3" height="64.3125" rx="2.5" ry="2.5" style="stroke:#181818;stroke-width:0.5;" width="235" x="2168.5" y="1398.4688"/><text fill="#000000" font-family="sans-serif" font-size="20" lengthAdjust="spacing" textLength="221" x="2175.5" y="1426.2305">authenticationRepository:</text><text fill="#000000" font-family="sans-serif" font-size="20" lengthAdjust="spacing" textLength="217" x="2177.5" y="1451.3867">AuthenticationRepository</text><rect fill="#E3E3E3" height="64.3125" rx="2.5" ry="2.5" style="stroke:#181818;stroke-width:0.5;" width="175" x="2413.5" y="24.8438"/><text fill="#000000" font-family="sans-serif" font-size="20" lengthAdjust="spacing" textLength="161" x="2420.5" y="52.6055">personRepository:</text><text fill="#000000" font-family="sans-serif" font-size="20" lengthAdjust="spacing" textLength="157" x="2422.5" y="77.7617">PersonRepository</text><rect fill="#E3E3E3" height="64.3125" rx="2.5" ry="2.5" style="stroke:#181818;stroke-width:0.5;" width="175" x="2413.5" y="1398.4688"/><text fill="#000000" font-family="sans-serif" font-size="20" lengthAdjust="spacing" textLength="161" x="2420.5" y="1426.2305">personRepository:</text><text fill="#000000" font-family="sans-serif" font-size="20" lengthAdjust="spacing" textLength="157" x="2422.5" y="1451.3867">PersonRepository</text><rect fill="#E3E3E3" height="64.3125" rx="2.5" ry="2.5" style="stroke:#181818;stroke-width:0.5;" width="148" x="2598.5" y="24.8438"/><text fill="#000000" font-family="sans-serif" font-size="20" lengthAdjust="spacing" textLength="134" x="2605.5" y="52.6055">visitRepository:</text><text fill="#000000" font-family="sans-serif" font-size="20" lengthAdjust="spacing" textLength="132" x="2606.5" y="77.7617">VisitRepository</text><rect fill="#E3E3E3" height="64.3125" rx="2.5" ry="2.5" style="stroke:#181818;stroke-width:0.5;" width="148" x="2598.5" y="1398.4688"/><text fill="#000000" font-family="sans-serif" font-size="20" lengthAdjust="spacing" textLength="134" x="2605.5" y="1426.2305">visitRepository:</text><text fill="#000000" font-family="sans-serif" font-size="20" lengthAdjust="spacing" textLength="132" x="2606.5" y="1451.3867">VisitRepository</text><rect fill="#FFFFFF" height="1290.3125" style="stroke:#181818;stroke-width:1.0;" width="10" x="42.5" y="100.1563"/><rect fill="#FFFFFF" height="388.5625" style="stroke:#181818;stroke-width:1.0;" width="10" x="642.5" y="131.3125"/><rect fill="#FFFFFF" height="117.4688" style="stroke:#181818;stroke-width:1.0;" width="10" x="642.5" y="793.9688"/><rect fill="#FFFFFF" height="39.1563" style="stroke:#181818;stroke-width:1.0;" width="10" x="1707.5" y="245.7813"/><rect fill="#FFFFFF" height="117.4688" style="stroke:#181818;stroke-width:1.0;" width="10" x="1847.5" y="324.0938"/><rect fill="#FFFFFF" height="117.4688" style="stroke:#181818;stroke-width:1.0;" width="10" x="1847.5" y="559.0313"/><rect fill="#FFFFFF" height="39.1563" style="stroke:#181818;stroke-width:1.0;" width="10" x="2038" y="402.4063"/><rect fill="#FFFFFF" height="39.1563" style="stroke:#181818;stroke-width:1.0;" width="10" x="2281" y="715.6563"/><rect fill="#FFFFFF" height="39.1563" style="stroke:#181818;stroke-width:1.0;" width="10" x="2496" y="833.125"/><rect fill="#FFFFFF" height="228.0938" style="stroke:#181818;stroke-width:1.0;" width="10" x="2667.5" y="1068.0625"/><polygon fill="#181818" points="630.5,127.3125,640.5,131.3125,630.5,135.3125,634.5,131.3125" style="stroke:#181818;stroke-width:1.0;"/><line style="stroke:#181818;stroke-width:1.0;" x1="52.5" x2="636.5" y1="131.3125" y2="131.3125"/><text fill="#000000" font-family="sans-serif" font-size="20" font-weight="bold" lengthAdjust="spacing" textLength="11" x="59.5" y="124.918">1</text><text fill="#000000" font-family="sans-serif" font-size="20" lengthAdjust="spacing" textLength="201" x="74.5" y="124.918">Ask to scheudule a vist</text><polygon fill="#181818" points="1250.5,166.4688,1260.5,170.4688,1250.5,174.4688,1254.5,170.4688" style="stroke:#181818;stroke-width:1.0;"/><line style="stroke:#181818;stroke-width:1.0;" x1="652.5" x2="1256.5" y1="170.4688" y2="170.4688"/><text fill="#000000" font-family="sans-serif" font-size="20" font-weight="bold" lengthAdjust="spacing" textLength="11" x="659.5" y="164.0742">2</text><text fill="#000000" font-family="sans-serif" font-size="20" lengthAdjust="spacing" textLength="56" x="674.5" y="164.0742">create</text><rect fill="#E3E3E3" height="64.3125" rx="2.5" ry="2.5" style="stroke:#181818;stroke-width:0.5;" width="142" x="1262.5" y="139.3125"/><text fill="#000000" font-family="sans-serif" font-size="20" lengthAdjust="spacing" textLength="118" x="1274.5" y="167.0742">visitController</text><text fill="#000000" font-family="sans-serif" font-size="20" lengthAdjust="spacing" textLength="128" x="1269.5" y="192.2305">:VisitController</text><polygon fill="#181818" points="1695.5,241.7813,1705.5,245.7813,1695.5,249.7813,1699.5,245.7813" style="stroke:#181818;stroke-width:1.0;"/><line style="stroke:#181818;stroke-width:1.0;" x1="1333.5" x2="1701.5" y1="245.7813" y2="245.7813"/><text fill="#000000" font-family="sans-serif" font-size="20" font-weight="bold" lengthAdjust="spacing" textLength="11" x="1340.5" y="239.3867">3</text><text fill="#000000" font-family="sans-serif" font-size="20" lengthAdjust="spacing" textLength="116" x="1355.5" y="239.3867">getInstance()</text><polygon fill="#181818" points="1344.5,280.9375,1334.5,284.9375,1344.5,288.9375,1340.5,284.9375" style="stroke:#181818;stroke-width:1.0;"/><line style="stroke:#181818;stroke-width:1.0;stroke-dasharray:2.0,2.0;" x1="1338.5" x2="1711.5" y1="284.9375" y2="284.9375"/><text fill="#000000" font-family="sans-serif" font-size="20" font-weight="bold" lengthAdjust="spacing" textLength="11" x="1350.5" y="278.543">4</text><text fill="#000000" font-family="sans-serif" font-size="20" lengthAdjust="spacing" textLength="103" x="1365.5" y="278.543">repositories</text><polygon fill="#181818" points="1835.5,320.0938,1845.5,324.0938,1835.5,328.0938,1839.5,324.0938" style="stroke:#181818;stroke-width:1.0;"/><line style="stroke:#181818;stroke-width:1.0;" x1="1333.5" x2="1841.5" y1="324.0938" y2="324.0938"/><text fill="#000000" font-family="sans-serif" font-size="20" font-weight="bold" lengthAdjust="spacing" textLength="11" x="1340.5" y="317.6992">5</text><text fill="#000000" font-family="sans-serif" font-size="20" lengthAdjust="spacing" textLength="255" x="1355.5" y="317.6992">getAnnoucementRepository()</text><polygon fill="#181818" points="1344.5,359.25,1334.5,363.25,1344.5,367.25,1340.5,363.25" style="stroke:#181818;stroke-width:1.0;"/><line style="stroke:#181818;stroke-width:1.0;stroke-dasharray:2.0,2.0;" x1="1338.5" x2="1846.5" y1="363.25" y2="363.25"/><text fill="#000000" font-family="sans-serif" font-size="20" font-weight="bold" lengthAdjust="spacing" textLength="11" x="1350.5" y="356.8555">6</text><text fill="#000000" font-family="sans-serif" font-size="20" lengthAdjust="spacing" textLength="241" x="1365.5" y="356.8555">getAnnoucementRepository</text><polygon fill="#181818" points="2026,398.4063,2036,402.4063,2026,406.4063,2030,402.4063" style="stroke:#181818;stroke-width:1.0;"/><line style="stroke:#181818;stroke-width:1.0;" x1="1333.5" x2="2032" y1="402.4063" y2="402.4063"/><text fill="#000000" font-family="sans-serif" font-size="20" font-weight="bold" lengthAdjust="spacing" textLength="11" x="1340.5" y="396.0117">7</text><text fill="#000000" font-family="sans-serif" font-size="20" lengthAdjust="spacing" textLength="201" x="1355.5" y="396.0117">getAnnouncementList()</text><polygon fill="#181818" points="1344.5,437.5625,1334.5,441.5625,1344.5,445.5625,1340.5,441.5625" style="stroke:#181818;stroke-width:1.0;"/><line style="stroke:#181818;stroke-width:1.0;stroke-dasharray:2.0,2.0;" x1="1338.5" x2="2042" y1="441.5625" y2="441.5625"/><text fill="#000000" font-family="sans-serif" font-size="20" font-weight="bold" lengthAdjust="spacing" textLength="11" x="1350.5" y="435.168">8</text><text fill="#000000" font-family="sans-serif" font-size="20" lengthAdjust="spacing" textLength="187" x="1365.5" y="435.168">getAnnouncementList</text><polygon fill="#181818" points="663.5,476.7188,653.5,480.7188,663.5,484.7188,659.5,480.7188" style="stroke:#181818;stroke-width:1.0;"/><line style="stroke:#181818;stroke-width:1.0;stroke-dasharray:2.0,2.0;" x1="657.5" x2="1332.5" y1="480.7188" y2="480.7188"/><text fill="#000000" font-family="sans-serif" font-size="20" font-weight="bold" lengthAdjust="spacing" textLength="11" x="669.5" y="474.3242">9</text><text fill="#000000" font-family="sans-serif" font-size="20" lengthAdjust="spacing" textLength="147" x="684.5" y="474.3242">annoucementList</text><polygon fill="#181818" points="63.5,515.875,53.5,519.875,63.5,523.875,59.5,519.875" style="stroke:#181818;stroke-width:1.0;"/><line style="stroke:#181818;stroke-width:1.0;stroke-dasharray:2.0,2.0;" x1="57.5" x2="646.5" y1="519.875" y2="519.875"/><text fill="#000000" font-family="sans-serif" font-size="20" font-weight="bold" lengthAdjust="spacing" textLength="22" x="69.5" y="513.4805">10</text><text fill="#000000" font-family="sans-serif" font-size="20" lengthAdjust="spacing" textLength="315" x="95.5" y="513.4805">display properties and requeste one</text><polygon fill="#181818" points="1835.5,555.0313,1845.5,559.0313,1835.5,563.0313,1839.5,559.0313" style="stroke:#181818;stroke-width:1.0;"/><line style="stroke:#181818;stroke-width:1.0;" x1="1333.5" x2="1841.5" y1="559.0313" y2="559.0313"/><text fill="#000000" font-family="sans-serif" font-size="20" font-weight="bold" lengthAdjust="spacing" textLength="22" x="1340.5" y="552.6367">11</text><text fill="#000000" font-family="sans-serif" font-size="20" lengthAdjust="spacing" textLength="174" x="1366.5" y="552.6367">getVisitRepository()</text><polygon fill="#181818" points="1344.5,594.1875,1334.5,598.1875,1344.5,602.1875,1340.5,598.1875" style="stroke:#181818;stroke-width:1.0;"/><line style="stroke:#181818;stroke-width:1.0;stroke-dasharray:2.0,2.0;" x1="1338.5" x2="1846.5" y1="598.1875" y2="598.1875"/><text fill="#000000" font-family="sans-serif" font-size="20" font-weight="bold" lengthAdjust="spacing" textLength="22" x="1350.5" y="591.793">12</text><text fill="#000000" font-family="sans-serif" font-size="20" lengthAdjust="spacing" textLength="128" x="1376.5" y="591.793">visitRepository</text><polygon fill="#181818" points="1835.5,633.3438,1845.5,637.3438,1835.5,641.3438,1839.5,637.3438" style="stroke:#181818;stroke-width:1.0;"/><line style="stroke:#181818;stroke-width:1.0;" x1="1333.5" x2="1841.5" y1="637.3438" y2="637.3438"/><text fill="#000000" font-family="sans-serif" font-size="20" font-weight="bold" lengthAdjust="spacing" textLength="22" x="1340.5" y="630.9492">13</text><text fill="#000000" font-family="sans-serif" font-size="20" lengthAdjust="spacing" textLength="266" x="1366.5" y="630.9492">authenticationVisitRepository()</text><polygon fill="#181818" points="1344.5,672.5,1334.5,676.5,1344.5,680.5,1340.5,676.5" style="stroke:#181818;stroke-width:1.0;"/><line style="stroke:#181818;stroke-width:1.0;stroke-dasharray:2.0,2.0;" x1="1338.5" x2="1851.5" y1="676.5" y2="676.5"/><text fill="#000000" font-family="sans-serif" font-size="20" font-weight="bold" lengthAdjust="spacing" textLength="22" x="1350.5" y="670.1055">14</text><text fill="#000000" font-family="sans-serif" font-size="20" lengthAdjust="spacing" textLength="215" x="1376.5" y="670.1055">authenticationRepository</text><polygon fill="#181818" points="2269,711.6563,2279,715.6563,2269,719.6563,2273,715.6563" style="stroke:#181818;stroke-width:1.0;"/><line style="stroke:#181818;stroke-width:1.0;" x1="1333.5" x2="2275" y1="715.6563" y2="715.6563"/><text fill="#000000" font-family="sans-serif" font-size="20" font-weight="bold" lengthAdjust="spacing" textLength="22" x="1340.5" y="709.2617">15</text><text fill="#000000" font-family="sans-serif" font-size="20" lengthAdjust="spacing" textLength="282" x="1366.5" y="709.2617">getCurrentUserSession().getId()</text><polygon fill="#181818" points="1344.5,750.8125,1334.5,754.8125,1344.5,758.8125,1340.5,754.8125" style="stroke:#181818;stroke-width:1.0;"/><line style="stroke:#181818;stroke-width:1.0;stroke-dasharray:2.0,2.0;" x1="1338.5" x2="2285" y1="754.8125" y2="754.8125"/><text fill="#000000" font-family="sans-serif" font-size="20" font-weight="bold" lengthAdjust="spacing" textLength="22" x="1350.5" y="748.418">16</text><text fill="#000000" font-family="sans-serif" font-size="20" lengthAdjust="spacing" textLength="46" x="1376.5" y="748.418">email</text><polygon fill="#181818" points="1321.5,789.9688,1331.5,793.9688,1321.5,797.9688,1325.5,793.9688" style="stroke:#181818;stroke-width:1.0;"/><line style="stroke:#181818;stroke-width:1.0;" x1="652.5" x2="1327.5" y1="793.9688" y2="793.9688"/><text fill="#000000" font-family="sans-serif" font-size="20" font-weight="bold" lengthAdjust="spacing" textLength="22" x="659.5" y="787.5742">17</text><text fill="#000000" font-family="sans-serif" font-size="20" lengthAdjust="spacing" textLength="169" x="685.5" y="787.5742">getCurrentPerson()</text><polygon fill="#181818" points="2484,829.125,2494,833.125,2484,837.125,2488,833.125" style="stroke:#181818;stroke-width:1.0;"/><line style="stroke:#181818;stroke-width:1.0;" x1="1333.5" x2="2490" y1="833.125" y2="833.125"/><text fill="#000000" font-family="sans-serif" font-size="20" font-weight="bold" lengthAdjust="spacing" textLength="22" x="1340.5" y="826.7305">18</text><text fill="#000000" font-family="sans-serif" font-size="20" lengthAdjust="spacing" textLength="690" x="1366.5" y="826.7305">getPersonById(AuthenticationRepository.getCurrentUserSession().getUserId())</text><polygon fill="#181818" points="1344.5,868.2813,1334.5,872.2813,1344.5,876.2813,1340.5,872.2813" style="stroke:#181818;stroke-width:1.0;"/><line style="stroke:#181818;stroke-width:1.0;stroke-dasharray:2.0,2.0;" x1="1338.5" x2="2500" y1="872.2813" y2="872.2813"/><text fill="#000000" font-family="sans-serif" font-size="20" font-weight="bold" lengthAdjust="spacing" textLength="22" x="1350.5" y="865.8867">19</text><text fill="#000000" font-family="sans-serif" font-size="20" lengthAdjust="spacing" textLength="197" x="1376.5" y="865.8867">currentPerson: Person</text><polygon fill="#181818" points="658.5,907.4375,648.5,911.4375,658.5,915.4375,654.5,911.4375" style="stroke:#181818;stroke-width:1.0;"/><line style="stroke:#181818;stroke-width:1.0;stroke-dasharray:2.0,2.0;" x1="652.5" x2="1332.5" y1="911.4375" y2="911.4375"/><text fill="#000000" font-family="sans-serif" font-size="20" font-weight="bold" lengthAdjust="spacing" textLength="22" x="664.5" y="905.043">20</text><text fill="#000000" font-family="sans-serif" font-size="20" lengthAdjust="spacing" textLength="227" x="690.5" y="905.043">name,phoneNumber,email</text><polygon fill="#181818" points="63.5,946.5938,53.5,950.5938,63.5,954.5938,59.5,950.5938" style="stroke:#181818;stroke-width:1.0;"/><line style="stroke:#181818;stroke-width:1.0;" x1="57.5" x2="646.5" y1="950.5938" y2="950.5938"/><text fill="#000000" font-family="sans-serif" font-size="20" font-weight="bold" lengthAdjust="spacing" textLength="22" x="69.5" y="944.1992">21</text><text fill="#000000" font-family="sans-serif" font-size="20" lengthAdjust="spacing" textLength="390" x="95.5" y="944.1992">reques data(property,date,starVisit,endVisit)</text><polygon fill="#181818" points="635.5,985.75,645.5,989.75,635.5,993.75,639.5,989.75" style="stroke:#181818;stroke-width:1.0;"/><line style="stroke:#181818;stroke-width:1.0;" x1="52.5" x2="641.5" y1="989.75" y2="989.75"/><text fill="#000000" font-family="sans-serif" font-size="20" font-weight="bold" lengthAdjust="spacing" textLength="22" x="59.5" y="983.3555">22</text><text fill="#000000" font-family="sans-serif" font-size="20" lengthAdjust="spacing" textLength="378" x="85.5" y="983.3555">types data(property,date,starVisit,endVisit)</text><polygon fill="#181818" points="1321.5,1024.9063,1331.5,1028.9063,1321.5,1032.9063,1325.5,1028.9063" style="stroke:#181818;stroke-width:1.0;"/><line style="stroke:#181818;stroke-width:1.0;" x1="647.5" x2="1327.5" y1="1028.9063" y2="1028.9063"/><text fill="#000000" font-family="sans-serif" font-size="20" font-weight="bold" lengthAdjust="spacing" textLength="22" x="654.5" y="1022.5117">23</text><text fill="#000000" font-family="sans-serif" font-size="20" lengthAdjust="spacing" textLength="636" x="680.5" y="1022.5117">sendRequest(name,email,phone number,property,date,starVisit,endVisit)</text><polygon fill="#181818" points="2655.5,1064.0625,2665.5,1068.0625,2655.5,1072.0625,2659.5,1068.0625" style="stroke:#181818;stroke-width:1.0;"/><line style="stroke:#181818;stroke-width:1.0;" x1="1333.5" x2="2661.5" y1="1068.0625" y2="1068.0625"/><text fill="#000000" font-family="sans-serif" font-size="20" font-weight="bold" lengthAdjust="spacing" textLength="22" x="1340.5" y="1061.668">24</text><text fill="#000000" font-family="sans-serif" font-size="20" lengthAdjust="spacing" textLength="636" x="1366.5" y="1061.668">sendRequest(name,email,phone number,property,date,starVisit,endVisit)</text><path d="M10,1083.0625 L78,1083.0625 L78,1100.2188 L68,1110.2188 L10,1110.2188 L10,1083.0625 " fill="#EEEEEE" style="stroke:#000000;stroke-width:1.5;"/><rect fill="none" height="299.4063" style="stroke:#000000;stroke-width:1.5;" width="2746.5" x="10" y="1083.0625"/><text fill="#000000" font-family="sans-serif" font-size="20" font-weight="bold" lengthAdjust="spacing" textLength="23" x="25" y="1104.8242">alt</text><text fill="#000000" font-family="sans-serif" font-size="20" font-weight="bold" lengthAdjust="spacing" textLength="484" x="93" y="1105.8242">[visit is overlapping with previous scheudule visits]</text><polygon fill="#181818" points="1344.5,1147.5313,1334.5,1151.5313,1344.5,1155.5313,1340.5,1151.5313" style="stroke:#181818;stroke-width:1.0;"/><line style="stroke:#181818;stroke-width:1.0;stroke-dasharray:2.0,2.0;" x1="1338.5" x2="2666.5" y1="1151.5313" y2="1151.5313"/><text fill="#000000" font-family="sans-serif" font-size="20" font-weight="bold" lengthAdjust="spacing" textLength="22" x="1350.5" y="1145.1367">25</text><text fill="#000000" font-family="sans-serif" font-size="20" lengthAdjust="spacing" textLength="42" x="1376.5" y="1145.1367">false</text><polygon fill="#181818" points="658.5,1186.6875,648.5,1190.6875,658.5,1194.6875,654.5,1190.6875" style="stroke:#181818;stroke-width:1.0;"/><line style="stroke:#181818;stroke-width:1.0;stroke-dasharray:2.0,2.0;" x1="652.5" x2="1332.5" y1="1190.6875" y2="1190.6875"/><text fill="#000000" font-family="sans-serif" font-size="20" font-weight="bold" lengthAdjust="spacing" textLength="22" x="664.5" y="1184.293">26</text><text fill="#000000" font-family="sans-serif" font-size="20" lengthAdjust="spacing" textLength="425" x="690.5" y="1184.293">Send message (visit overlaps with existing visits)</text><polygon fill="#181818" points="63.5,1225.8438,53.5,1229.8438,63.5,1233.8438,59.5,1229.8438" style="stroke:#181818;stroke-width:1.0;"/><line style="stroke:#181818;stroke-width:1.0;stroke-dasharray:2.0,2.0;" x1="57.5" x2="646.5" y1="1229.8438" y2="1229.8438"/><text fill="#000000" font-family="sans-serif" font-size="20" font-weight="bold" lengthAdjust="spacing" textLength="22" x="69.5" y="1223.4492">27</text><text fill="#000000" font-family="sans-serif" font-size="20" lengthAdjust="spacing" textLength="545" x="95.5" y="1223.4492">Display message (visit overlaps with previous scheudule visits)</text><line style="stroke:#000000;stroke-width:1.0;stroke-dasharray:2.0,2.0;" x1="10" x2="2756.5" y1="1238.8438" y2="1238.8438"/><text fill="#000000" font-family="sans-serif" font-size="20" font-weight="bold" lengthAdjust="spacing" textLength="163" x="15" y="1259.6055">[visit is available]</text><polygon fill="#181818" points="1344.5,1292.1563,1334.5,1296.1563,1344.5,1300.1563,1340.5,1296.1563" style="stroke:#181818;stroke-width:1.0;"/><line style="stroke:#181818;stroke-width:1.0;stroke-dasharray:2.0,2.0;" x1="1338.5" x2="2671.5" y1="1296.1563" y2="1296.1563"/><text fill="#000000" font-family="sans-serif" font-size="20" font-weight="bold" lengthAdjust="spacing" textLength="22" x="1350.5" y="1289.7617">28</text><text fill="#000000" font-family="sans-serif" font-size="20" lengthAdjust="spacing" textLength="34" x="1376.5" y="1289.7617">true</text><polygon fill="#181818" points="658.5,1331.3125,648.5,1335.3125,658.5,1339.3125,654.5,1335.3125" style="stroke:#181818;stroke-width:1.0;"/><line style="stroke:#181818;stroke-width:1.0;stroke-dasharray:2.0,2.0;" x1="652.5" x2="1332.5" y1="1335.3125" y2="1335.3125"/><text fill="#000000" font-family="sans-serif" font-size="20" font-weight="bold" lengthAdjust="spacing" textLength="22" x="664.5" y="1328.918">29</text><text fill="#000000" font-family="sans-serif" font-size="20" lengthAdjust="spacing" textLength="222" x="690.5" y="1328.918">Send message (success)</text><polygon fill="#181818" points="63.5,1370.4688,53.5,1374.4688,63.5,1378.4688,59.5,1374.4688" style="stroke:#181818;stroke-width:1.0;"/><line style="stroke:#181818;stroke-width:1.0;stroke-dasharray:2.0,2.0;" x1="57.5" x2="646.5" y1="1374.4688" y2="1374.4688"/><text fill="#000000" font-family="sans-serif" font-size="20" font-weight="bold" lengthAdjust="spacing" textLength="22" x="69.5" y="1368.0742">30</text><text fill="#000000" font-family="sans-serif" font-size="20" lengthAdjust="spacing" textLength="241" x="95.5" y="1368.0742">Display message (success)</text><!--SRC=[hLV1Rjim3BthAuXUbXPfCUpeGu4kwu00mL0qIq-zg3QR274aJvBJPby_sd9iMP625fWlRINoFP9-f5cp5RBYckzAbM-nW09VULtQdqhQfVYByEqhCqSJs2cfyerMEmIhQ_HkAfvl-HgNzb0YQCmjb-lIDp0RNgWt8TVmoak3ZF7QAbdlNb0pzcKZ2eHNfUoBUcSyjqh3nQmKAEq5S0Ep1ICKAt9HSMdXOfbli2xg4bVpzdur7z_lXH5sHYbeLPQedsNsD3vflPvkPhyV0sGkfQfpt17poFykTjwYt4LGiaUi514gBT2qLlt1OIcQob3kOnVjUH3VAS3zGpBI0JnxbdUnynOYwX60rdP3roBdLYWvnarSEUZ4vHYzGcq2r8VWg4KZkpH8-sv764_Z4_TknsUC7fALs7EBZPeOTCzi0TUtf1_8uCvimIemHsq11-AoWsqFG783xo5lmd1gkheYf5mZcJMS47cSOUCI4GLvhz7EfQ46od5o6KNe0ucfAkhHF36swpxm37m5Ha4AF4-SOFRolNzm-KKrcaXsb2yrmObHW-hdaS9dwS3YlTGZINUr83L4WkoZunzYZLfH_5tu4KvsvaN4ETavbwQ8yL9G5Ajvva4kHleVz4w6iqLM25EL_02LLjInbcH3uHIaepyr6Y9ISjG3NWZKG1viH211-_PLJoGHIY2O4Ina68-hKx8Xk10vEUZOcJftrRrDUhSvpsgjwN9bK2_H63AONDuqmw1e8WgrbegZiqjS3pe3t75HdaRzYGIxxoSBnU59kSl9JVaXZVGixMiLV0CQC8Vo_K05INsCRixKiJbeQXbqS1z9-DKPMGMNNXrpFyKCt4-MQhwp97uNWkGxd5ORQg9VxPOqzL_OQJUneVpKcgu7eU2MJxhsF4pfBvpIXqMtWf-YBDfVZlMOBHonFLGVTsKdRnqCtJww6J1fasW3Twc0s_Yc7mO-oY7eqUp_a0GAE5qQU6dTC05XGErHbxogcYNsJTWD3JxS2rKRRsTeZGqBa0QvkENtE8-EgyUIGe8TYPLMQ9WumexDE2fyfr7S43k2InRfmsOF8KHQQJBuqStciw39-AdyI74EgVCzLPU_q4OVPEODHs9j_odm8qlCuNZUfivp-ltpkVMEZF3-0G00]--></g></svg>