<?xml version="1.0" encoding="UTF-8" standalone="no"?><svg xmlns="http://www.w3.org/2000/svg" xmlns:xlink="http://www.w3.org/1999/xlink" contentStyleType="text/css" height="1249px" preserveAspectRatio="none" style="width:1452px;height:1249px;background:#FFFFFF;" version="1.1" viewBox="0 0 1452 1249" width="1452px" zoomAndPan="magnify"><defs/><g><!--class ScheduleUI--><g id="elem_ScheduleUI"><rect codeLine="13" fill="#FFDAB9" height="76.3125" id="ScheduleUI" rx="2.5" ry="2.5" style="stroke:#4169E1;stroke-width:0.5;" width="370" x="330.29" y="7"/><ellipse cx="461.29" cy="24.5781" fill="#ADD1B2" rx="12" ry="12" style="stroke:#181818;stroke-width:1.0;"/><path d="M463.4306,19.5 Q463.6181,19.25 463.8369,19.125 Q464.0556,18.9844 464.3056,18.9844 Q464.7431,18.9844 465.0244,19.2969 Q465.3056,19.5938 465.3056,20.3125 L465.3056,22.0156 Q465.3056,22.7344 465.0244,23.0469 Q464.7431,23.3594 464.3056,23.3594 Q463.915,23.3594 463.665,23.125 Q463.415,22.9063 463.3056,22.2969 Q463.2431,21.875 463.0244,21.6563 Q462.6337,21.2188 461.915,20.9531 Q461.1962,20.6875 460.4775,20.6875 Q459.5712,20.6875 458.8212,21.0781 Q458.0712,21.4688 457.4931,22.3594 Q456.915,23.2344 456.915,24.4375 L456.915,25.7344 Q456.915,27.1875 457.9619,28.1563 Q459.0244,29.125 460.8837,29.125 Q461.9931,29.125 462.7744,28.8125 Q463.2119,28.6406 463.7275,28.125 Q464.04,27.8125 464.2119,27.7188 Q464.3837,27.625 464.6181,27.625 Q465.0087,27.625 465.3056,27.9375 Q465.6181,28.2344 465.6181,28.6406 Q465.6181,29.0469 465.2119,29.5156 Q464.6181,30.2031 463.6806,30.5938 Q462.415,31.125 460.8994,31.125 Q459.1181,31.125 457.6962,30.3906 Q456.54,29.7969 455.7275,28.5313 Q454.915,27.2656 454.915,25.7813 L454.915,24.4219 Q454.915,22.8594 455.6337,21.5156 Q456.3681,20.1563 457.6494,19.4219 Q458.9462,18.6875 460.3994,18.6875 Q461.2587,18.6875 462.0087,18.8906 Q462.7744,19.0938 463.4306,19.5 Z " fill="#000000"/><text fill="#000000" font-family="sans-serif" font-size="20" lengthAdjust="spacing" textLength="99" x="483.29" y="32.7617">ScheduleUI</text><line style="stroke:#4169E1;stroke-width:0.5;" x1="331.29" x2="699.29" y1="42.1563" y2="42.1563"/><line style="stroke:#4169E1;stroke-width:0.5;" x1="331.29" x2="699.29" y1="50.1563" y2="50.1563"/><text fill="#000000" font-family="sans-serif" font-size="20" lengthAdjust="spacing" textLength="358" x="336.29" y="74.918">+displayMessage(message: String): void</text></g><!--class VisitController--><g id="elem_VisitController"><rect codeLine="18" fill="#FFDAB9" height="252.4063" id="VisitController" rx="2.5" ry="2.5" style="stroke:#4169E1;stroke-width:0.5;" width="463" x="535.79" y="143"/><ellipse cx="701.79" cy="160.5781" fill="#ADD1B2" rx="12" ry="12" style="stroke:#181818;stroke-width:1.0;"/><path d="M703.9306,155.5 Q704.1181,155.25 704.3369,155.125 Q704.5556,154.9844 704.8056,154.9844 Q705.2431,154.9844 705.5244,155.2969 Q705.8056,155.5938 705.8056,156.3125 L705.8056,158.0156 Q705.8056,158.7344 705.5244,159.0469 Q705.2431,159.3594 704.8056,159.3594 Q704.415,159.3594 704.165,159.125 Q703.915,158.9063 703.8056,158.2969 Q703.7431,157.875 703.5244,157.6563 Q703.1338,157.2188 702.415,156.9531 Q701.6963,156.6875 700.9775,156.6875 Q700.0713,156.6875 699.3213,157.0781 Q698.5713,157.4688 697.9931,158.3594 Q697.415,159.2344 697.415,160.4375 L697.415,161.7344 Q697.415,163.1875 698.4619,164.1563 Q699.5244,165.125 701.3838,165.125 Q702.4931,165.125 703.2744,164.8125 Q703.7119,164.6406 704.2275,164.125 Q704.54,163.8125 704.7119,163.7188 Q704.8838,163.625 705.1181,163.625 Q705.5088,163.625 705.8056,163.9375 Q706.1181,164.2344 706.1181,164.6406 Q706.1181,165.0469 705.7119,165.5156 Q705.1181,166.2031 704.1806,166.5938 Q702.915,167.125 701.3994,167.125 Q699.6181,167.125 698.1963,166.3906 Q697.04,165.7969 696.2275,164.5313 Q695.415,163.2656 695.415,161.7813 L695.415,160.4219 Q695.415,158.8594 696.1338,157.5156 Q696.8681,156.1563 698.1494,155.4219 Q699.4463,154.6875 700.8994,154.6875 Q701.7588,154.6875 702.5088,154.8906 Q703.2744,155.0938 703.9306,155.5 Z " fill="#000000"/><text fill="#000000" font-family="sans-serif" font-size="20" lengthAdjust="spacing" textLength="122" x="723.79" y="168.7617">VisitController</text><line style="stroke:#4169E1;stroke-width:0.5;" x1="536.79" x2="997.79" y1="178.1563" y2="178.1563"/><text fill="#000000" font-family="sans-serif" font-size="20" lengthAdjust="spacing" textLength="279" x="541.79" y="202.918">-visitRepository: VisitRepository</text><text fill="#000000" font-family="sans-serif" font-size="20" lengthAdjust="spacing" textLength="451" x="541.79" y="228.0742">-authenticationRepository: AuthenticationRepository</text><text fill="#000000" font-family="sans-serif" font-size="20" lengthAdjust="spacing" textLength="331" x="541.79" y="253.2305">-personRepository: PersonRepository</text><text fill="#000000" font-family="sans-serif" font-size="20" lengthAdjust="spacing" textLength="204" x="541.79" y="278.3867">-currentPerson: Person</text><line style="stroke:#4169E1;stroke-width:0.5;" x1="536.79" x2="997.79" y1="286.7813" y2="286.7813"/><text fill="#000000" font-family="sans-serif" font-size="20" lengthAdjust="spacing" textLength="180" x="541.79" y="311.543">+saveVisit(visit:Visit)</text><text fill="#000000" font-family="sans-serif" font-size="20" lengthAdjust="spacing" textLength="129" x="541.79" y="336.6992">+create(): void</text><text fill="#000000" font-family="sans-serif" font-size="20" lengthAdjust="spacing" textLength="255" x="541.79" y="361.8555">+getCurrentPerson(): Person</text><text fill="#000000" font-family="sans-serif" font-size="20" lengthAdjust="spacing" textLength="434" x="541.79" y="387.0117">+sendRequest(propertyData: PropertyData): void</text></g><!--class AnnouncementController--><g id="elem_AnnouncementController"><rect codeLine="30" fill="#FFDAB9" height="101.4688" id="AnnouncementController" rx="2.5" ry="2.5" style="stroke:#4169E1;stroke-width:0.5;" width="475" x="25.79" y="218.5"/><ellipse cx="152.29" cy="236.0781" fill="#ADD1B2" rx="12" ry="12" style="stroke:#181818;stroke-width:1.0;"/><path d="M154.4306,231 Q154.6181,230.75 154.8369,230.625 Q155.0556,230.4844 155.3056,230.4844 Q155.7431,230.4844 156.0244,230.7969 Q156.3056,231.0938 156.3056,231.8125 L156.3056,233.5156 Q156.3056,234.2344 156.0244,234.5469 Q155.7431,234.8594 155.3056,234.8594 Q154.915,234.8594 154.665,234.625 Q154.415,234.4063 154.3056,233.7969 Q154.2431,233.375 154.0244,233.1563 Q153.6338,232.7188 152.915,232.4531 Q152.1963,232.1875 151.4775,232.1875 Q150.5713,232.1875 149.8213,232.5781 Q149.0713,232.9688 148.4931,233.8594 Q147.915,234.7344 147.915,235.9375 L147.915,237.2344 Q147.915,238.6875 148.9619,239.6563 Q150.0244,240.625 151.8838,240.625 Q152.9931,240.625 153.7744,240.3125 Q154.2119,240.1406 154.7275,239.625 Q155.04,239.3125 155.2119,239.2188 Q155.3838,239.125 155.6181,239.125 Q156.0088,239.125 156.3056,239.4375 Q156.6181,239.7344 156.6181,240.1406 Q156.6181,240.5469 156.2119,241.0156 Q155.6181,241.7031 154.6806,242.0938 Q153.415,242.625 151.8994,242.625 Q150.1181,242.625 148.6963,241.8906 Q147.54,241.2969 146.7275,240.0313 Q145.915,238.7656 145.915,237.2813 L145.915,235.9219 Q145.915,234.3594 146.6338,233.0156 Q147.3681,231.6563 148.6494,230.9219 Q149.9463,230.1875 151.3994,230.1875 Q152.2588,230.1875 153.0088,230.3906 Q153.7744,230.5938 154.4306,231 Z " fill="#000000"/><text fill="#000000" font-family="sans-serif" font-size="20" lengthAdjust="spacing" textLength="213" x="174.29" y="244.2617">AnnouncementController</text><line style="stroke:#4169E1;stroke-width:0.5;" x1="26.79" x2="499.79" y1="253.6563" y2="253.6563"/><text fill="#000000" font-family="sans-serif" font-size="20" lengthAdjust="spacing" textLength="463" x="31.79" y="278.418">-announcementRepository: AnnouncementRepository</text><line style="stroke:#4169E1;stroke-width:0.5;" x1="26.79" x2="499.79" y1="286.8125" y2="286.8125"/><text fill="#000000" font-family="sans-serif" font-size="20" lengthAdjust="spacing" textLength="408" x="31.79" y="311.5742">+getAnnouncementList(): List&lt;Announcement&gt;</text></g><!--class Repository--><g id="elem_Repository"><rect codeLine="35" fill="#FFDAB9" height="302.7188" id="Repository" rx="2.5" ry="2.5" style="stroke:#4169E1;stroke-width:0.5;" width="524" x="23.29" y="455"/><ellipse cx="233.29" cy="472.5781" fill="#ADD1B2" rx="12" ry="12" style="stroke:#181818;stroke-width:1.0;"/><path d="M235.4306,467.5 Q235.6181,467.25 235.8369,467.125 Q236.0556,466.9844 236.3056,466.9844 Q236.7431,466.9844 237.0244,467.2969 Q237.3056,467.5938 237.3056,468.3125 L237.3056,470.0156 Q237.3056,470.7344 237.0244,471.0469 Q236.7431,471.3594 236.3056,471.3594 Q235.915,471.3594 235.665,471.125 Q235.415,470.9063 235.3056,470.2969 Q235.2431,469.875 235.0244,469.6563 Q234.6338,469.2188 233.915,468.9531 Q233.1963,468.6875 232.4775,468.6875 Q231.5713,468.6875 230.8213,469.0781 Q230.0713,469.4688 229.4931,470.3594 Q228.915,471.2344 228.915,472.4375 L228.915,473.7344 Q228.915,475.1875 229.9619,476.1563 Q231.0244,477.125 232.8838,477.125 Q233.9931,477.125 234.7744,476.8125 Q235.2119,476.6406 235.7275,476.125 Q236.04,475.8125 236.2119,475.7188 Q236.3838,475.625 236.6181,475.625 Q237.0088,475.625 237.3056,475.9375 Q237.6181,476.2344 237.6181,476.6406 Q237.6181,477.0469 237.2119,477.5156 Q236.6181,478.2031 235.6806,478.5938 Q234.415,479.125 232.8994,479.125 Q231.1181,479.125 229.6963,478.3906 Q228.54,477.7969 227.7275,476.5313 Q226.915,475.2656 226.915,473.7813 L226.915,472.4219 Q226.915,470.8594 227.6338,469.5156 Q228.3681,468.1563 229.6494,467.4219 Q230.9463,466.6875 232.3994,466.6875 Q233.2588,466.6875 234.0088,466.8906 Q234.7744,467.0938 235.4306,467.5 Z " fill="#000000"/><text fill="#000000" font-family="sans-serif" font-size="20" lengthAdjust="spacing" textLength="95" x="255.29" y="480.7617">Repository</text><line style="stroke:#4169E1;stroke-width:0.5;" x1="24.29" x2="546.29" y1="490.1563" y2="490.1563"/><text fill="#000000" font-family="sans-serif" font-size="20" lengthAdjust="spacing" textLength="463" x="29.29" y="514.918">-announcementRepository: AnnouncementRepository</text><text fill="#000000" font-family="sans-serif" font-size="20" lengthAdjust="spacing" textLength="451" x="29.29" y="540.0742">-authenticationRepository: AuthenticationRepository</text><text fill="#000000" font-family="sans-serif" font-size="20" lengthAdjust="spacing" textLength="331" x="29.29" y="565.2305">-personRepository: PersonRepository</text><text fill="#000000" font-family="sans-serif" font-size="20" lengthAdjust="spacing" textLength="279" x="29.29" y="590.3867">-visitRepository: VisitRepository</text><text fill="#000000" font-family="sans-serif" font-size="20" lengthAdjust="spacing" textLength="389" x="29.29" y="615.543">-propertiesRepository: PropertiesRepository</text><line style="stroke:#4169E1;stroke-width:0.5;" x1="24.29" x2="546.29" y1="623.9375" y2="623.9375"/><text fill="#000000" font-family="sans-serif" font-size="20" lengthAdjust="spacing" textLength="235" x="29.29" y="648.6992">+getInstance(): Repository</text><text fill="#000000" font-family="sans-serif" font-size="20" lengthAdjust="spacing" textLength="512" x="29.29" y="673.8555">+getAnnouncementRepository(): AnnouncementRepository</text><text fill="#000000" font-family="sans-serif" font-size="20" lengthAdjust="spacing" textLength="500" x="29.29" y="699.0117">+getAuthenticationRepository(): AuthenticationRepository</text><text fill="#000000" font-family="sans-serif" font-size="20" lengthAdjust="spacing" textLength="380" x="29.29" y="724.168">+getPersonRepository(): PersonRepository</text><text fill="#000000" font-family="sans-serif" font-size="20" lengthAdjust="spacing" textLength="330" x="29.29" y="749.3242">+getVisitRepository(): VisitRepository</text></g><!--class AnnouncementRepository--><g id="elem_AnnouncementRepository"><rect codeLine="49" fill="#FFDAB9" height="76.3125" id="AnnouncementRepository" rx="2.5" ry="2.5" style="stroke:#4169E1;stroke-width:0.5;" width="420" x="61.29" y="818"/><ellipse cx="155.29" cy="835.5781" fill="#ADD1B2" rx="12" ry="12" style="stroke:#181818;stroke-width:1.0;"/><path d="M157.4306,830.5 Q157.6181,830.25 157.8369,830.125 Q158.0556,829.9844 158.3056,829.9844 Q158.7431,829.9844 159.0244,830.2969 Q159.3056,830.5938 159.3056,831.3125 L159.3056,833.0156 Q159.3056,833.7344 159.0244,834.0469 Q158.7431,834.3594 158.3056,834.3594 Q157.915,834.3594 157.665,834.125 Q157.415,833.9063 157.3056,833.2969 Q157.2431,832.875 157.0244,832.6563 Q156.6338,832.2188 155.915,831.9531 Q155.1963,831.6875 154.4775,831.6875 Q153.5713,831.6875 152.8213,832.0781 Q152.0713,832.4688 151.4931,833.3594 Q150.915,834.2344 150.915,835.4375 L150.915,836.7344 Q150.915,838.1875 151.9619,839.1563 Q153.0244,840.125 154.8838,840.125 Q155.9931,840.125 156.7744,839.8125 Q157.2119,839.6406 157.7275,839.125 Q158.04,838.8125 158.2119,838.7188 Q158.3838,838.625 158.6181,838.625 Q159.0088,838.625 159.3056,838.9375 Q159.6181,839.2344 159.6181,839.6406 Q159.6181,840.0469 159.2119,840.5156 Q158.6181,841.2031 157.6806,841.5938 Q156.415,842.125 154.8994,842.125 Q153.1181,842.125 151.6963,841.3906 Q150.54,840.7969 149.7275,839.5313 Q148.915,838.2656 148.915,836.7813 L148.915,835.4219 Q148.915,833.8594 149.6338,832.5156 Q150.3681,831.1563 151.6494,830.4219 Q152.9463,829.6875 154.3994,829.6875 Q155.2588,829.6875 156.0088,829.8906 Q156.7744,830.0938 157.4306,830.5 Z " fill="#000000"/><text fill="#000000" font-family="sans-serif" font-size="20" lengthAdjust="spacing" textLength="223" x="177.29" y="843.7617">AnnouncementRepository</text><line style="stroke:#4169E1;stroke-width:0.5;" x1="62.29" x2="480.29" y1="853.1563" y2="853.1563"/><line style="stroke:#4169E1;stroke-width:0.5;" x1="62.29" x2="480.29" y1="861.1563" y2="861.1563"/><text fill="#000000" font-family="sans-serif" font-size="20" lengthAdjust="spacing" textLength="408" x="67.29" y="885.918">+getAnnouncementList(): List&lt;Announcement&gt;</text></g><!--class AuthenticationRepository--><g id="elem_AuthenticationRepository"><rect codeLine="53" fill="#FFDAB9" height="76.3125" id="AuthenticationRepository" rx="2.5" ry="2.5" style="stroke:#4169E1;stroke-width:0.5;" width="363" x="585.79" y="979.5"/><ellipse cx="654.29" cy="997.0781" fill="#ADD1B2" rx="12" ry="12" style="stroke:#181818;stroke-width:1.0;"/><path d="M656.4306,992 Q656.6181,991.75 656.8369,991.625 Q657.0556,991.4844 657.3056,991.4844 Q657.7431,991.4844 658.0244,991.7969 Q658.3056,992.0938 658.3056,992.8125 L658.3056,994.5156 Q658.3056,995.2344 658.0244,995.5469 Q657.7431,995.8594 657.3056,995.8594 Q656.915,995.8594 656.665,995.625 Q656.415,995.4063 656.3056,994.7969 Q656.2431,994.375 656.0244,994.1563 Q655.6338,993.7188 654.915,993.4531 Q654.1963,993.1875 653.4775,993.1875 Q652.5713,993.1875 651.8213,993.5781 Q651.0713,993.9688 650.4931,994.8594 Q649.915,995.7344 649.915,996.9375 L649.915,998.2344 Q649.915,999.6875 650.9619,1000.6563 Q652.0244,1001.625 653.8838,1001.625 Q654.9931,1001.625 655.7744,1001.3125 Q656.2119,1001.1406 656.7275,1000.625 Q657.04,1000.3125 657.2119,1000.2188 Q657.3838,1000.125 657.6181,1000.125 Q658.0088,1000.125 658.3056,1000.4375 Q658.6181,1000.7344 658.6181,1001.1406 Q658.6181,1001.5469 658.2119,1002.0156 Q657.6181,1002.7031 656.6806,1003.0938 Q655.415,1003.625 653.8994,1003.625 Q652.1181,1003.625 650.6963,1002.8906 Q649.54,1002.2969 648.7275,1001.0313 Q647.915,999.7656 647.915,998.2813 L647.915,996.9219 Q647.915,995.3594 648.6338,994.0156 Q649.3681,992.6563 650.6494,991.9219 Q651.9463,991.1875 653.3994,991.1875 Q654.2588,991.1875 655.0088,991.3906 Q655.7744,991.5938 656.4306,992 Z " fill="#000000"/><text fill="#000000" font-family="sans-serif" font-size="20" lengthAdjust="spacing" textLength="217" x="676.29" y="1005.2617">AuthenticationRepository</text><line style="stroke:#4169E1;stroke-width:0.5;" x1="586.79" x2="947.79" y1="1014.6563" y2="1014.6563"/><line style="stroke:#4169E1;stroke-width:0.5;" x1="586.79" x2="947.79" y1="1022.6563" y2="1022.6563"/><text fill="#000000" font-family="sans-serif" font-size="20" lengthAdjust="spacing" textLength="351" x="591.79" y="1047.418">+getCurrentUserSession(): UserSession</text></g><!--class PersonRepository--><g id="elem_PersonRepository"><rect codeLine="57" fill="#FFDAB9" height="76.3125" id="PersonRepository" rx="2.5" ry="2.5" style="stroke:#4169E1;stroke-width:0.5;" width="625" x="820.79" y="818"/><ellipse cx="1050.29" cy="835.5781" fill="#ADD1B2" rx="12" ry="12" style="stroke:#181818;stroke-width:1.0;"/><path d="M1052.4306,830.5 Q1052.6181,830.25 1052.8369,830.125 Q1053.0556,829.9844 1053.3056,829.9844 Q1053.7431,829.9844 1054.0244,830.2969 Q1054.3056,830.5938 1054.3056,831.3125 L1054.3056,833.0156 Q1054.3056,833.7344 1054.0244,834.0469 Q1053.7431,834.3594 1053.3056,834.3594 Q1052.915,834.3594 1052.665,834.125 Q1052.415,833.9063 1052.3056,833.2969 Q1052.2431,832.875 1052.0244,832.6563 Q1051.6338,832.2188 1050.915,831.9531 Q1050.1963,831.6875 1049.4775,831.6875 Q1048.5713,831.6875 1047.8213,832.0781 Q1047.0713,832.4688 1046.4931,833.3594 Q1045.915,834.2344 1045.915,835.4375 L1045.915,836.7344 Q1045.915,838.1875 1046.9619,839.1563 Q1048.0244,840.125 1049.8838,840.125 Q1050.9931,840.125 1051.7744,839.8125 Q1052.2119,839.6406 1052.7275,839.125 Q1053.04,838.8125 1053.2119,838.7188 Q1053.3838,838.625 1053.6181,838.625 Q1054.0088,838.625 1054.3056,838.9375 Q1054.6181,839.2344 1054.6181,839.6406 Q1054.6181,840.0469 1054.2119,840.5156 Q1053.6181,841.2031 1052.6806,841.5938 Q1051.415,842.125 1049.8994,842.125 Q1048.1181,842.125 1046.6963,841.3906 Q1045.54,840.7969 1044.7275,839.5313 Q1043.915,838.2656 1043.915,836.7813 L1043.915,835.4219 Q1043.915,833.8594 1044.6338,832.5156 Q1045.3681,831.1563 1046.6494,830.4219 Q1047.9463,829.6875 1049.3994,829.6875 Q1050.2588,829.6875 1051.0088,829.8906 Q1051.7744,830.0938 1052.4306,830.5 Z " fill="#000000"/><text fill="#000000" font-family="sans-serif" font-size="20" lengthAdjust="spacing" textLength="157" x="1072.29" y="843.7617">PersonRepository</text><line style="stroke:#4169E1;stroke-width:0.5;" x1="821.79" x2="1444.79" y1="853.1563" y2="853.1563"/><line style="stroke:#4169E1;stroke-width:0.5;" x1="821.79" x2="1444.79" y1="861.1563" y2="861.1563"/><text fill="#000000" font-family="sans-serif" font-size="20" lengthAdjust="spacing" textLength="613" x="826.79" y="885.918">+getPersonById(getCurrentUserSession().getUserId(): Email): Person</text></g><!--class VisitRepository--><g id="elem_VisitRepository"><rect codeLine="61" fill="#FFDAB9" height="76.3125" id="VisitRepository" rx="2.5" ry="2.5" style="stroke:#4169E1;stroke-width:0.5;" width="198" x="516.29" y="818"/><ellipse cx="546.69" cy="835.5781" fill="#ADD1B2" rx="12" ry="12" style="stroke:#181818;stroke-width:1.0;"/><path d="M548.8306,830.5 Q549.0181,830.25 549.2369,830.125 Q549.4556,829.9844 549.7056,829.9844 Q550.1431,829.9844 550.4244,830.2969 Q550.7056,830.5938 550.7056,831.3125 L550.7056,833.0156 Q550.7056,833.7344 550.4244,834.0469 Q550.1431,834.3594 549.7056,834.3594 Q549.315,834.3594 549.065,834.125 Q548.815,833.9063 548.7056,833.2969 Q548.6431,832.875 548.4244,832.6563 Q548.0337,832.2188 547.315,831.9531 Q546.5962,831.6875 545.8775,831.6875 Q544.9712,831.6875 544.2212,832.0781 Q543.4712,832.4688 542.8931,833.3594 Q542.315,834.2344 542.315,835.4375 L542.315,836.7344 Q542.315,838.1875 543.3619,839.1563 Q544.4244,840.125 546.2837,840.125 Q547.3931,840.125 548.1744,839.8125 Q548.6119,839.6406 549.1275,839.125 Q549.44,838.8125 549.6119,838.7188 Q549.7837,838.625 550.0181,838.625 Q550.4087,838.625 550.7056,838.9375 Q551.0181,839.2344 551.0181,839.6406 Q551.0181,840.0469 550.6119,840.5156 Q550.0181,841.2031 549.0806,841.5938 Q547.815,842.125 546.2994,842.125 Q544.5181,842.125 543.0962,841.3906 Q541.94,840.7969 541.1275,839.5313 Q540.315,838.2656 540.315,836.7813 L540.315,835.4219 Q540.315,833.8594 541.0337,832.5156 Q541.7681,831.1563 543.0494,830.4219 Q544.3462,829.6875 545.7994,829.6875 Q546.6587,829.6875 547.4087,829.8906 Q548.1744,830.0938 548.8306,830.5 Z " fill="#000000"/><text fill="#000000" font-family="sans-serif" font-size="20" lengthAdjust="spacing" textLength="132" x="564.89" y="843.7617">VisitRepository</text><line style="stroke:#4169E1;stroke-width:0.5;" x1="517.29" x2="713.29" y1="853.1563" y2="853.1563"/><line style="stroke:#4169E1;stroke-width:0.5;" x1="517.29" x2="713.29" y1="861.1563" y2="861.1563"/><text fill="#000000" font-family="sans-serif" font-size="20" lengthAdjust="spacing" textLength="186" x="522.29" y="885.918">+saveVisit( visit:Visit)</text></g><!--class UserSession--><g id="elem_UserSession"><rect codeLine="68" fill="#FFDAB9" height="101.4688" id="UserSession" rx="2.5" ry="2.5" style="stroke:#4169E1;stroke-width:0.5;" width="187" x="673.79" y="1141"/><ellipse cx="709.14" cy="1158.5781" fill="#ADD1B2" rx="12" ry="12" style="stroke:#181818;stroke-width:1.0;"/><path d="M711.2806,1153.5 Q711.4681,1153.25 711.6869,1153.125 Q711.9056,1152.9844 712.1556,1152.9844 Q712.5931,1152.9844 712.8744,1153.2969 Q713.1556,1153.5938 713.1556,1154.3125 L713.1556,1156.0156 Q713.1556,1156.7344 712.8744,1157.0469 Q712.5931,1157.3594 712.1556,1157.3594 Q711.765,1157.3594 711.515,1157.125 Q711.265,1156.9063 711.1556,1156.2969 Q711.0931,1155.875 710.8744,1155.6563 Q710.4838,1155.2188 709.765,1154.9531 Q709.0463,1154.6875 708.3275,1154.6875 Q707.4213,1154.6875 706.6713,1155.0781 Q705.9213,1155.4688 705.3431,1156.3594 Q704.765,1157.2344 704.765,1158.4375 L704.765,1159.7344 Q704.765,1161.1875 705.8119,1162.1563 Q706.8744,1163.125 708.7338,1163.125 Q709.8431,1163.125 710.6244,1162.8125 Q711.0619,1162.6406 711.5775,1162.125 Q711.89,1161.8125 712.0619,1161.7188 Q712.2338,1161.625 712.4681,1161.625 Q712.8588,1161.625 713.1556,1161.9375 Q713.4681,1162.2344 713.4681,1162.6406 Q713.4681,1163.0469 713.0619,1163.5156 Q712.4681,1164.2031 711.5306,1164.5938 Q710.265,1165.125 708.7494,1165.125 Q706.9681,1165.125 705.5463,1164.3906 Q704.39,1163.7969 703.5775,1162.5313 Q702.765,1161.2656 702.765,1159.7813 L702.765,1158.4219 Q702.765,1156.8594 703.4838,1155.5156 Q704.2181,1154.1563 705.4994,1153.4219 Q706.7963,1152.6875 708.2494,1152.6875 Q709.1088,1152.6875 709.8588,1152.8906 Q710.6244,1153.0938 711.2806,1153.5 Z " fill="#000000"/><text fill="#000000" font-family="sans-serif" font-size="20" lengthAdjust="spacing" textLength="110" x="728.44" y="1166.7617">UserSession</text><line style="stroke:#4169E1;stroke-width:0.5;" x1="674.79" x2="859.79" y1="1176.1563" y2="1176.1563"/><line style="stroke:#4169E1;stroke-width:0.5;" x1="674.79" x2="859.79" y1="1184.1563" y2="1184.1563"/><text fill="#000000" font-family="sans-serif" font-size="20" lengthAdjust="spacing" textLength="134" x="679.79" y="1208.918">+getId(): String</text><text fill="#000000" font-family="sans-serif" font-size="20" lengthAdjust="spacing" textLength="175" x="679.79" y="1234.0742">+getUserId(): String</text></g><!--class Person--><g id="elem_Person"><rect codeLine="73" fill="#FFDAB9" height="126.625" id="Person" rx="2.5" ry="2.5" style="stroke:#4169E1;stroke-width:0.5;" width="208" x="1029.29" y="954"/><ellipse cx="1097.79" cy="971.5781" fill="#ADD1B2" rx="12" ry="12" style="stroke:#181818;stroke-width:1.0;"/><path d="M1099.9306,966.5 Q1100.1181,966.25 1100.3369,966.125 Q1100.5556,965.9844 1100.8056,965.9844 Q1101.2431,965.9844 1101.5244,966.2969 Q1101.8056,966.5938 1101.8056,967.3125 L1101.8056,969.0156 Q1101.8056,969.7344 1101.5244,970.0469 Q1101.2431,970.3594 1100.8056,970.3594 Q1100.415,970.3594 1100.165,970.125 Q1099.915,969.9063 1099.8056,969.2969 Q1099.7431,968.875 1099.5244,968.6563 Q1099.1338,968.2188 1098.415,967.9531 Q1097.6963,967.6875 1096.9775,967.6875 Q1096.0713,967.6875 1095.3213,968.0781 Q1094.5713,968.4688 1093.9931,969.3594 Q1093.415,970.2344 1093.415,971.4375 L1093.415,972.7344 Q1093.415,974.1875 1094.4619,975.1563 Q1095.5244,976.125 1097.3838,976.125 Q1098.4931,976.125 1099.2744,975.8125 Q1099.7119,975.6406 1100.2275,975.125 Q1100.54,974.8125 1100.7119,974.7188 Q1100.8838,974.625 1101.1181,974.625 Q1101.5088,974.625 1101.8056,974.9375 Q1102.1181,975.2344 1102.1181,975.6406 Q1102.1181,976.0469 1101.7119,976.5156 Q1101.1181,977.2031 1100.1806,977.5938 Q1098.915,978.125 1097.3994,978.125 Q1095.6181,978.125 1094.1963,977.3906 Q1093.04,976.7969 1092.2275,975.5313 Q1091.415,974.2656 1091.415,972.7813 L1091.415,971.4219 Q1091.415,969.8594 1092.1338,968.5156 Q1092.8681,967.1563 1094.1494,966.4219 Q1095.4463,965.6875 1096.8994,965.6875 Q1097.7588,965.6875 1098.5088,965.8906 Q1099.2744,966.0938 1099.9306,966.5 Z " fill="#000000"/><text fill="#000000" font-family="sans-serif" font-size="20" lengthAdjust="spacing" textLength="62" x="1119.79" y="979.7617">Person</text><line style="stroke:#4169E1;stroke-width:0.5;" x1="1030.29" x2="1236.29" y1="989.1563" y2="989.1563"/><text fill="#000000" font-family="sans-serif" font-size="20" lengthAdjust="spacing" textLength="123" x="1035.29" y="1013.918">+name: String</text><text fill="#000000" font-family="sans-serif" font-size="20" lengthAdjust="spacing" textLength="196" x="1035.29" y="1039.0742">+phoneNumber: String</text><text fill="#000000" font-family="sans-serif" font-size="20" lengthAdjust="spacing" textLength="121" x="1035.29" y="1064.2305">+email: String</text><line style="stroke:#4169E1;stroke-width:0.5;" x1="1030.29" x2="1236.29" y1="1072.625" y2="1072.625"/></g><!--link ScheduleUI to VisitController--><g id="link_ScheduleUI_VisitController"><path codeLine="79" d="M557.47,83.16 C575.69,99.21 598.19,119.03 621.62,139.67 " fill="none" id="ScheduleUI-to-VisitController" style="stroke:#4169E1;stroke-width:1.0;"/><polygon fill="#4169E1" points="625.39,142.99,621.2868,134.0366,621.6404,139.6824,615.9946,140.0359,625.39,142.99" style="stroke:#4169E1;stroke-width:1.0;"/></g><!--link ScheduleUI to AnnouncementController--><g id="link_ScheduleUI_AnnouncementController"><path codeLine="80" d="M473.11,83.16 C432.23,119.18 369.8,174.18 323.65,214.82 " fill="none" id="ScheduleUI-to-AnnouncementController" style="stroke:#4169E1;stroke-width:1.0;"/><polygon fill="#4169E1" points="319.8,218.22,329.2017,215.2861,323.5567,214.9204,323.9224,209.2754,319.8,218.22" style="stroke:#4169E1;stroke-width:1.0;"/></g><!--link VisitController to Repository--><g id="link_VisitController_Repository"><path codeLine="81" d="M587.47,395.17 C560.93,413.64 533.34,432.85 506.09,451.81 " fill="none" id="VisitController-to-Repository" style="stroke:#4169E1;stroke-width:1.0;"/><polygon fill="#4169E1" points="501.72,454.86,511.3909,452.9961,505.8222,452.0013,506.817,446.4326,501.72,454.86" style="stroke:#4169E1;stroke-width:1.0;"/></g><!--link AnnouncementController to Repository--><g id="link_AnnouncementController_Repository"><path codeLine="82" d="M266.54,319.5 C268.81,354.15 271.98,402.49 275.07,449.58 " fill="none" id="AnnouncementController-to-Repository" style="stroke:#4169E1;stroke-width:1.0;"/><polygon fill="#4169E1" points="275.41,454.72,278.8095,445.4764,275.0812,449.7308,270.8268,446.0025,275.41,454.72" style="stroke:#4169E1;stroke-width:1.0;"/></g><!--link VisitController to VisitRepository--><g id="link_VisitController_VisitRepository"><path codeLine="83" d="M734.78,395.14 C700.58,526.77 648.66,726.57 626.24,812.86 " fill="none" id="VisitController-to-VisitRepository" style="stroke:#4169E1;stroke-width:1.0;"/><polygon fill="#4169E1" points="624.94,817.89,631.073,810.1838,626.1963,813.0504,623.3297,808.1737,624.94,817.89" style="stroke:#4169E1;stroke-width:1.0;"/></g><!--link VisitController to AuthenticationRepository--><g id="link_VisitController_AuthenticationRepository"><path codeLine="84" d="M767.29,395.37 C767.29,566.45 767.29,864.34 767.29,974.22 " fill="none" id="VisitController-to-AuthenticationRepository" style="stroke:#4169E1;stroke-width:1.0;"/><polygon fill="#4169E1" points="767.29,979.31,771.29,970.31,767.29,974.31,763.29,970.31,767.29,979.31" style="stroke:#4169E1;stroke-width:1.0;"/></g><!--link VisitController to PersonRepository--><g id="link_VisitController_PersonRepository"><path codeLine="85" d="M845.58,395.14 C928.19,527.17 1053.69,727.76 1107.41,813.64 " fill="none" id="VisitController-to-PersonRepository" style="stroke:#4169E1;stroke-width:1.0;"/><polygon fill="#4169E1" points="1110.07,817.89,1108.692,808.138,1107.42,813.65,1101.908,812.378,1110.07,817.89" style="stroke:#4169E1;stroke-width:1.0;"/></g><!--link Repository to AnnouncementRepository--><g id="link_Repository_AnnouncementRepository"><path codeLine="86" d="M276.77,758.25 C275.65,778.02 274.58,796.82 273.7,812.5 " fill="none" id="Repository-to-AnnouncementRepository" style="stroke:#4169E1;stroke-width:1.0;"/><polygon fill="#4169E1" points="273.4,817.7,277.8833,808.9308,273.6718,812.7074,269.8952,808.4959,273.4,817.7" style="stroke:#4169E1;stroke-width:1.0;"/></g><!--link Repository to AuthenticationRepository--><g id="link_Repository_AuthenticationRepository"><path codeLine="87" d="M62.62,758.06 C23.65,801.9 6,849.86 43.29,894 C110.83,973.93 389.49,1001.72 580.72,1011.37 " fill="none" id="Repository-to-AuthenticationRepository" style="stroke:#4169E1;stroke-width:1.0;"/><polygon fill="#4169E1" points="585.78,1011.63,576.9973,1007.173,580.7866,1011.3732,576.5864,1015.1625,585.78,1011.63" style="stroke:#4169E1;stroke-width:1.0;"/></g><!--link Repository to PersonRepository--><g id="link_Repository_PersonRepository"><path codeLine="88" d="M547.51,684.03 C698.05,727.97 880.61,781.25 1001.49,816.53 " fill="none" id="Repository-to-PersonRepository" style="stroke:#4169E1;stroke-width:1.0;"/><polygon fill="#4169E1" points="1006.48,817.99,998.96,811.63,1001.68,816.59,996.72,819.31,1006.48,817.99" style="stroke:#4169E1;stroke-width:1.0;"/></g><!--link Repository to VisitRepository--><g id="link_Repository_VisitRepository"><path codeLine="89" d="M486.29,758.25 C513.92,778.97 540.13,798.63 561.63,814.75 " fill="none" id="Repository-to-VisitRepository" style="stroke:#4169E1;stroke-width:1.0;"/><polygon fill="#4169E1" points="565.86,817.93,561.06,809.33,561.86,814.93,556.26,815.73,565.86,817.93" style="stroke:#4169E1;stroke-width:1.0;"/></g><!--link PersonRepository to AuthenticationRepository--><g id="link_PersonRepository_AuthenticationRepository"><path codeLine="90" d="M1047.94,894.19 C990.72,919.13 915.49,951.92 857.32,977.26 " fill="none" id="PersonRepository-to-AuthenticationRepository" style="stroke:#4169E1;stroke-width:1.0;stroke-dasharray:7.0,7.0;"/><polygon fill="#4169E1" points="852.46,979.38,862.3086,979.4485,857.0431,977.3812,859.1105,972.1156,852.46,979.38" style="stroke:#4169E1;stroke-width:1.0;"/></g><!--link AuthenticationRepository to UserSession--><g id="link_AuthenticationRepository_UserSession"><path codeLine="92" d="M767.29,1055.82 C767.29,1079.16 767.29,1109.64 767.29,1135.7 " fill="none" id="AuthenticationRepository-to-UserSession" style="stroke:#4169E1;stroke-width:1.0;"/><polygon fill="#4169E1" points="767.29,1140.84,771.29,1131.84,767.29,1135.84,763.29,1131.84,767.29,1140.84" style="stroke:#4169E1;stroke-width:1.0;"/></g><!--link PersonRepository to Person--><g id="link_PersonRepository_Person"><path codeLine="93" d="M1133.29,894.4 C1133.29,910.56 1133.29,929.98 1133.29,948.54 " fill="none" id="PersonRepository-to-Person" style="stroke:#4169E1;stroke-width:1.0;"/><polygon fill="#4169E1" points="1133.29,953.75,1137.29,944.75,1133.29,948.75,1129.29,944.75,1133.29,953.75" style="stroke:#4169E1;stroke-width:1.0;"/></g><!--SRC=[jLHBZzCm4BxdL_YsNQ5MY6E5LkeMLge4g6grtBtsDB7gsC5skWg8_yuuZzfray8Uo2N9p3VVlCSUXQgeeQNKx0YSS3ZGMhedhTnU_0JouNrsPmSCARNIh32w1E9C3LdGL9GTQGvxrqWW1fYZAfSnm1QKwrUXSdAWqaBCAeK2rrH0j765pkua71nncXYH5uvmuUc4LX4PazJQbND6lDGEDaohDbYCTJuyJm83iHWEkZmBKmhoAoFuF6BmkT6rucijjI5ReApOreT3grqPeryxnKutL3vApBmrquQ3IJM_iuvwpmhWjOJdJUlb7HUsahJv2jPYeMPbzrwIFMQXylibEMd1CpJlxRyBAzmQ-s2qb61Qald92tTGQNnfqomxL11u3ArT0Se9HdtLOl1gGkEjAZ3s4hrD91x5QcEGeLCDaCodP-a9sc1cROpBzllUQvW1wc0sP8YI7Dmw9lAwdiepWU8x-563TRFAQ0pCDP-eeuY9_WQwSxrMIc476PH8cvQDHhgBWepA-n1ZvHU1mQ1B__uOAnv2086WQpXIR9J5HM1jyacJtXhHVsthlunLtme1ze9jH3fIlw3qfRXTzebiMiFfJBrfcbgOgojeag17fZcFZzP8bzywA5DPd0dxvNYsOFPu9aIt8T5lu4hJEtDqYiTcmsSJZ0kKUm4YaFrpIOKCUtXvXbB-iEpaOjkzsM0O-GhxqBhgBbul2X7quYIrpbRH4cB3gj0AljNb2vXO33w9c2awmlFvGtfJK_Nu2SdII-oXqPnC79u4DKQIJjmOPdBany1NmnurBatm1chAPOBxcxSqlQjPNInkECicryHpnyjmnHk2o_u0]--></g></svg>