<?xml version="1.0" encoding="UTF-8" standalone="no"?><svg xmlns="http://www.w3.org/2000/svg" xmlns:xlink="http://www.w3.org/1999/xlink" contentStyleType="text/css" height="1195px" preserveAspectRatio="none" style="width:1207px;height:1195px;background:#FFFFFF;" version="1.1" viewBox="0 0 1207 1195" width="1207px" zoomAndPan="magnify"><defs/><g><!--cluster System--><g id="cluster_System"><rect fill="none" height="958" rx="2.5" ry="2.5" style="stroke:#181818;stroke-width:1.0;" width="933" x="268" y="7.2168"/><text fill="#000000" font-family="sans-serif" font-size="20" font-weight="bold" lengthAdjust="spacing" textLength="84" x="692.5" y="27.7813">System</text></g><g id="elem_UC1"><ellipse cx="734.6534" cy="747.4475" fill="#F1F1F1" rx="176.6534" ry="37.7307" style="stroke:#181818;stroke-width:0.5;"/><text fill="#000000" font-family="sans-serif" font-size="20" lengthAdjust="spacing" textLength="309" x="581.151" y="753.4963">UC 1 - Display listed properties</text></g><g id="elem_UC2"><ellipse cx="734.581" cy="395.033" fill="#F1F1F1" rx="284.581" ry="59.3162" style="stroke:#181818;stroke-width:0.5;"/><text fill="#000000" font-family="sans-serif" font-size="20" lengthAdjust="spacing" textLength="533" x="471.081" y="399.9568">UC 2 - Publish any sale announcement on the system</text></g><g id="elem_UC3"><ellipse cx="734.2564" cy="88.0681" fill="#F1F1F1" rx="182.2564" ry="38.8513" style="stroke:#181818;stroke-width:0.5;"/><text fill="#000000" font-family="sans-serif" font-size="20" lengthAdjust="spacing" textLength="321" x="575.4982" y="93.7248">UC 3 - Register a new Employee</text></g><g id="elem_UC4"><ellipse cx="734.3029" cy="582.1774" fill="#F1F1F1" rx="450.3029" ry="92.4606" style="stroke:#181818;stroke-width:0.5;"/><text fill="#000000" font-family="sans-serif" font-size="20" lengthAdjust="spacing" textLength="869" x="302.8029" y="587.1012">UC 4 - Submit a request for listing a proerty sale or rent, choosing the resposible agent</text></g><g id="elem_UC6"><ellipse cx="734.6627" cy="231.3493" fill="#F1F1F1" rx="333.6627" ry="69.1325" style="stroke:#181818;stroke-width:0.5;"/><text fill="#000000" font-family="sans-serif" font-size="20" lengthAdjust="spacing" textLength="633" x="421.1627" y="236.2732">UC 6 - Specify districts, municipalities and parish in the system</text></g><g id="elem_UC7"><ellipse cx="734.5485" cy="884.3265" fill="#F1F1F1" rx="311.0485" ry="64.6097" style="stroke:#181818;stroke-width:0.5;"/><text fill="#000000" font-family="sans-serif" font-size="20" lengthAdjust="spacing" textLength="587" x="444.0485" y="889.2503">UC 7 - Register in the system to buy, sell or rent properties</text></g><!--entity SA--><g id="elem_SA"><ellipse cx="115" cy="127.2168" fill="#FFC0CB" rx="8" ry="8" style="stroke:#FF0000;stroke-width:2.0;"/><path d="M115,135.2168 L115,162.2168 M102,143.2168 L128,143.2168 M115,162.2168 L102,177.2168 M115,162.2168 L128,177.2168 " fill="none" style="stroke:#FF0000;stroke-width:2.0;"/><text fill="#FF0000" font-family="sans-serif" font-size="20" lengthAdjust="spacing" textLength="218" x="6" y="198.7813">System Administrator</text></g><!--entity RSA--><g id="elem_RSA"><ellipse cx="115" cy="362.2168" fill="#87CEEB" rx="8" ry="8" style="stroke:#0000FF;stroke-width:2.0;"/><path d="M115,370.2168 L115,397.2168 M102,378.2168 L128,378.2168 M115,397.2168 L102,412.2168 M115,397.2168 L128,412.2168 " fill="none" style="stroke:#0000FF;stroke-width:2.0;"/><text fill="#0000FF" font-family="sans-serif" font-size="20" lengthAdjust="spacing" textLength="169" x="30.5" y="433.7813">Real State Agent</text></g><!--entity PO--><g id="elem_PO"><ellipse cx="115" cy="549.2168" fill="#BC8F8F" rx="8" ry="8" style="stroke:#A52A2A;stroke-width:2.0;"/><path d="M115,557.2168 L115,584.2168 M102,565.2168 L128,565.2168 M115,584.2168 L102,599.2168 M115,584.2168 L128,599.2168 " fill="none" style="stroke:#A52A2A;stroke-width:2.0;"/><text fill="#A52A2A" font-family="sans-serif" font-size="20" lengthAdjust="spacing" textLength="156" x="37" y="620.7813">Property Owner</text></g><!--entity C--><g id="elem_C"><ellipse cx="115" cy="994.2168" fill="#90EE90" rx="8" ry="8" style="stroke:#008000;stroke-width:2.0;"/><path d="M115,1002.2168 L115,1029.2168 M102,1010.2168 L128,1010.2168 M115,1029.2168 L102,1044.2168 M115,1029.2168 L128,1044.2168 " fill="none" style="stroke:#008000;stroke-width:2.0;"/><text fill="#008000" font-family="sans-serif" font-size="20" lengthAdjust="spacing" textLength="59" x="85.5" y="1065.7813">Client</text></g><!--entity UU--><g id="elem_UU"><ellipse cx="115" cy="783.2168" fill="#D3D3D3" rx="8" ry="8" style="stroke:#808080;stroke-width:2.0;"/><path d="M115,791.2168 L115,818.2168 M102,799.2168 L128,799.2168 M115,818.2168 L102,833.2168 M115,818.2168 L128,833.2168 " fill="none" style="stroke:#808080;stroke-width:2.0;"/><text fill="#808080" font-family="sans-serif" font-size="20" lengthAdjust="spacing" textLength="181" x="24.5" y="854.7813">Unregistered User</text></g><!--entity SM--><g id="elem_SM"><ellipse cx="115" cy="1115.2168" fill="#FFA07A" rx="8" ry="8" style="stroke:#FA8072;stroke-width:2.0;"/><path d="M115,1123.2168 L115,1150.2168 M102,1131.2168 L128,1131.2168 M115,1150.2168 L102,1165.2168 M115,1150.2168 L128,1165.2168 " fill="none" style="stroke:#FA8072;stroke-width:2.0;"/><text fill="#FA8072" font-family="sans-serif" font-size="20" lengthAdjust="spacing" textLength="149" x="40.5" y="1186.7813">Store manager</text></g><!--entity NM--><g id="elem_NM"><ellipse cx="734.5" cy="994.2168" fill="#696969" rx="8" ry="8" style="stroke:#000000;stroke-width:2.0;"/><path d="M734.5,1002.2168 L734.5,1029.2168 M721.5,1010.2168 L747.5,1010.2168 M734.5,1029.2168 L721.5,1044.2168 M734.5,1029.2168 L747.5,1044.2168 " fill="none" style="stroke:#000000;stroke-width:2.0;"/><text fill="#000000" font-family="sans-serif" font-size="20" lengthAdjust="spacing" textLength="180" x="644.5" y="1065.7813">Network manager</text></g><!--link UU to UC1--><g id="link_UU_UC1"><path d="M205.79,806.1868 C301.7,795.4668 455.7,778.2568 572.63,765.1968 " fill="none" id="UU-to-UC1" style="stroke:#181818;stroke-width:1.0;"/><polygon fill="#181818" points="577.83,764.6168,568.4405,761.644,572.8611,765.1737,569.3315,769.5943,577.83,764.6168" style="stroke:#181818;stroke-width:1.0;"/></g><!--link UU to UC7--><g id="link_UU_UC7"><path d="M205.79,826.1068 C271.53,833.3468 364.56,843.5868 454.23,853.4668 " fill="none" id="UU-to-UC7" style="stroke:#181818;stroke-width:1.0;"/><polygon fill="#181818" points="459.32,854.0268,450.8074,849.0735,454.3495,853.484,449.939,857.0262,459.32,854.0268" style="stroke:#181818;stroke-width:1.0;"/></g><!--link RSA to UC2--><g id="link_RSA_UC2"><path d="M199.6,395.2168 C263.38,395.2168 355.26,395.2168 444.87,395.2168 " fill="none" id="RSA-to-UC2" style="stroke:#181818;stroke-width:1.0;"/><polygon fill="#181818" points="449.95,395.2168,440.95,391.2168,444.95,395.2168,440.95,399.2168,449.95,395.2168" style="stroke:#181818;stroke-width:1.0;"/></g><!--link SA to UC3--><g id="link_SA_UC3"><path d="M224.27,147.5968 C319.52,136.4868 459.62,120.1468 568.77,107.4268 " fill="none" id="SA-to-UC3" style="stroke:#181818;stroke-width:1.0;"/><polygon fill="#181818" points="573.95,106.8168,564.5521,103.8707,568.9827,107.3878,565.4656,111.8183,573.95,106.8168" style="stroke:#181818;stroke-width:1.0;"/></g><!--link SA to UC6--><g id="link_SA_UC6"><path d="M224.27,172.6668 C284.01,179.5368 361.38,188.4268 437.71,197.2068 " fill="none" id="SA-to-UC6" style="stroke:#181818;stroke-width:1.0;"/><polygon fill="#181818" points="442.73,197.7868,434.2473,192.7825,437.7629,197.2142,433.3311,200.7298,442.73,197.7868" style="stroke:#181818;stroke-width:1.0;"/></g><!--link PO to UC4--><g id="link_PO_UC4"><path d="M193.27,582.2168 C217.77,582.2168 246.83,582.2168 278.57,582.2168 " fill="none" id="PO-to-UC4" style="stroke:#181818;stroke-width:1.0;"/><polygon fill="#181818" points="283.69,582.2168,274.69,578.2168,278.69,582.2168,274.69,586.2168,283.69,582.2168" style="stroke:#181818;stroke-width:1.0;"/></g><!--SRC=[RPJDZjem4CVlVeeH7BYmLHSGIBjI9M3RNjfTH9G7CCaGh3XsQZkYRjLtxpWV40W-e67i-Va_uvdONAYI6rv8dUIOGef7NadtJIiNYJy8iy-CIJmwS1gCo4uEKc4mSK8hnXEd3OmYRnqMi4uBeOHrXfDt1Dn2j0OObqBbhr8eV36OriQdWvRfgyFVBhWwoXwvXCXnXx3EKBcQi0y8MkCeznjPOGCwT5QF57mTQcTqYSPv-3WhRAJiFg1TuxssVcFqMJMmgzcd1MUBsqf1SW9a2yCr_X6AyjqWjhohsUFLpavUh0ncL2Yax26shS8ulkNv2yu_eFbmzl80z8jGSCMp5XRzl1COSLdeLc7Fxa4RRnVLeT_HdRN9R-3l7Npy9eghqetaINvFhPsCLkWPhZA9qBRBNnOGbSM4MuGHn5juXYTu4xQKt8CC1KgXR9vIe6sAj7qUXiqeR5STAE84N7cmd6xXIkbA9LY4jwEyt0d1rZUteDaGD2VGldqQuA3m35-BKcgFs0RDXq4B2eggGo6eHS3WhmgjWoFLBcGWL4PUIg9knreOxHZID8NafBKD1u8qWxQaVuUW_DBzyNOnl6yPxYin4KTFeqZZ9X9dfr1KIYIYv5A4Ob7wL3jkGad4W-ING-wgd_nDJ1ZzG-MdO57AJl_mPLRi7viCUfk5ldvw-b8_tTLUiSdzmBCmxCtkZ4qUVLHO-1eq9-OzUyacjnFFwcblDXUC_GS0]--></g></svg>