<?xml version="1.0" encoding="UTF-8" standalone="no"?><svg xmlns="http://www.w3.org/2000/svg" xmlns:xlink="http://www.w3.org/1999/xlink" contentStyleType="text/css" height="489px" preserveAspectRatio="none" style="width:1424px;height:489px;background:#FFFFFF;" version="1.1" viewBox="0 0 1424 489" width="1424px" zoomAndPan="magnify"><defs/><g><rect fill="#FFFFFF" height="300.25" style="stroke:#181818;stroke-width:1.0;" width="10" x="621" y="105.8438"/><rect fill="#FFFFFF" height="37.2813" style="stroke:#181818;stroke-width:1.0;" width="10" x="838" y="175.4063"/><rect fill="#FFFFFF" height="37.2813" style="stroke:#181818;stroke-width:1.0;" width="10" x="995" y="249.9688"/><rect fill="#FFFFFF" height="37.2813" style="stroke:#181818;stroke-width:1.0;" width="10" x="1274" y="324.5313"/><rect fill="none" height="248.9688" style="stroke:#000000;stroke-width:1.5;" width="918.5" x="500" y="120.8438"/><line style="stroke:#181818;stroke-width:0.5;stroke-dasharray:5.0,5.0;" x1="626" x2="626" y1="66.5625" y2="424.0938"/><line style="stroke:#181818;stroke-width:0.5;stroke-dasharray:5.0,5.0;" x1="843" x2="843" y1="66.5625" y2="424.0938"/><line style="stroke:#181818;stroke-width:0.5;stroke-dasharray:5.0,5.0;" x1="1000" x2="1000" y1="66.5625" y2="424.0938"/><line style="stroke:#181818;stroke-width:0.5;stroke-dasharray:5.0,5.0;" x1="1278.5" x2="1278.5" y1="66.5625" y2="424.0938"/><rect fill="#E3E3E3" height="37.2813" rx="2.5" ry="2.5" style="stroke:#181818;stroke-width:0.5;" width="232" x="510" y="28.2813"/><text fill="#000000" font-family="sans-serif" font-size="20" lengthAdjust="spacing" textLength="218" x="517" y="53.8457">:CreateTaskController</text><rect fill="#E3E3E3" height="37.2813" rx="2.5" ry="2.5" style="stroke:#181818;stroke-width:0.5;" width="232" x="510" y="423.0938"/><text fill="#000000" font-family="sans-serif" font-size="20" lengthAdjust="spacing" textLength="218" x="517" y="448.6582">:CreateTaskController</text><rect fill="#E3E3E3" height="37.2813" rx="2.5" ry="2.5" style="stroke:#181818;stroke-width:0.5;" width="144" x="771" y="28.2813"/><text fill="#000000" font-family="sans-serif" font-size="20" lengthAdjust="spacing" textLength="130" x="778" y="53.8457">:Repositories</text><rect fill="#E3E3E3" height="37.2813" rx="2.5" ry="2.5" style="stroke:#181818;stroke-width:0.5;" width="144" x="771" y="423.0938"/><text fill="#000000" font-family="sans-serif" font-size="20" lengthAdjust="spacing" textLength="130" x="778" y="448.6582">:Repositories</text><rect fill="#E3E3E3" height="60.5625" rx="2.5" ry="2.5" style="stroke:#181818;stroke-width:0.5;" width="144" x="928" y="5"/><text fill="#000000" font-family="sans-serif" font-size="20" lengthAdjust="spacing" textLength="117" x="941.5" y="30.5645">repositories</text><text fill="#000000" font-family="sans-serif" font-size="20" lengthAdjust="spacing" textLength="130" x="935" y="53.8457">:Repositories</text><rect fill="#E3E3E3" height="60.5625" rx="2.5" ry="2.5" style="stroke:#181818;stroke-width:0.5;" width="144" x="928" y="423.0938"/><text fill="#000000" font-family="sans-serif" font-size="20" lengthAdjust="spacing" textLength="117" x="941.5" y="448.6582">repositories</text><text fill="#000000" font-family="sans-serif" font-size="20" lengthAdjust="spacing" textLength="130" x="935" y="471.9395">:Repositories</text><rect fill="#E3E3E3" height="60.5625" rx="2.5" ry="2.5" style="stroke:#181818;stroke-width:0.5;" width="259" x="1149.5" y="5"/><text fill="#000000" font-family="sans-serif" font-size="20" lengthAdjust="spacing" textLength="245" x="1156.5" y="30.5645">taskCategoryRepository:</text><text fill="#000000" font-family="sans-serif" font-size="20" lengthAdjust="spacing" textLength="242" x="1158" y="53.8457">TaskCategoryRepository</text><rect fill="#E3E3E3" height="60.5625" rx="2.5" ry="2.5" style="stroke:#181818;stroke-width:0.5;" width="259" x="1149.5" y="423.0938"/><text fill="#000000" font-family="sans-serif" font-size="20" lengthAdjust="spacing" textLength="245" x="1156.5" y="448.6582">taskCategoryRepository:</text><text fill="#000000" font-family="sans-serif" font-size="20" lengthAdjust="spacing" textLength="242" x="1158" y="471.9395">TaskCategoryRepository</text><rect fill="#FFFFFF" height="300.25" style="stroke:#181818;stroke-width:1.0;" width="10" x="621" y="105.8438"/><rect fill="#FFFFFF" height="37.2813" style="stroke:#181818;stroke-width:1.0;" width="10" x="838" y="175.4063"/><rect fill="#FFFFFF" height="37.2813" style="stroke:#181818;stroke-width:1.0;" width="10" x="995" y="249.9688"/><rect fill="#FFFFFF" height="37.2813" style="stroke:#181818;stroke-width:1.0;" width="10" x="1274" y="324.5313"/><polygon fill="#181818" points="609,101.8438,619,105.8438,609,109.8438,613,105.8438" style="stroke:#181818;stroke-width:1.0;"/><line style="stroke:#181818;stroke-width:1.0;" x1="0" x2="615" y1="105.8438" y2="105.8438"/><text fill="#000000" font-family="sans-serif" font-size="20" font-weight="bold" lengthAdjust="spacing" textLength="28" x="7" y="99.127">12</text><text fill="#000000" font-family="sans-serif" font-size="20" lengthAdjust="spacing" textLength="570" x="39" y="99.127">getTaskCategoryByDescription(taskCategoryDescription)</text><path d="M500,120.8438 L756,120.8438 L756,136.125 L746,146.125 L500,146.125 L500,120.8438 " fill="#EEEEEE" style="stroke:#000000;stroke-width:1.5;"/><rect fill="none" height="248.9688" style="stroke:#000000;stroke-width:1.5;" width="918.5" x="500" y="120.8438"/><text fill="#000000" font-family="sans-serif" font-size="20" font-weight="bold" lengthAdjust="spacing" textLength="211" x="515" y="140.4082">Get Task Category</text><polygon fill="#181818" points="826,171.4063,836,175.4063,826,179.4063,830,175.4063" style="stroke:#181818;stroke-width:1.0;"/><line style="stroke:#181818;stroke-width:1.0;" x1="631" x2="832" y1="175.4063" y2="175.4063"/><text fill="#000000" font-family="sans-serif" font-size="20" font-weight="bold" lengthAdjust="spacing" textLength="50" x="638" y="168.6895">12.1</text><text fill="#000000" font-family="sans-serif" font-size="20" lengthAdjust="spacing" textLength="134" x="692" y="168.6895">getInstance()</text><polygon fill="#181818" points="642,208.6875,632,212.6875,642,216.6875,638,212.6875" style="stroke:#181818;stroke-width:1.0;"/><line style="stroke:#181818;stroke-width:1.0;stroke-dasharray:2.0,2.0;" x1="636" x2="842" y1="212.6875" y2="212.6875"/><text fill="#000000" font-family="sans-serif" font-size="20" font-weight="bold" lengthAdjust="spacing" textLength="50" x="648" y="205.9707">12.2</text><text fill="#000000" font-family="sans-serif" font-size="20" lengthAdjust="spacing" textLength="117" x="702" y="205.9707">repositories</text><polygon fill="#181818" points="983,245.9688,993,249.9688,983,253.9688,987,249.9688" style="stroke:#181818;stroke-width:1.0;"/><line style="stroke:#181818;stroke-width:1.0;" x1="631" x2="989" y1="249.9688" y2="249.9688"/><text fill="#000000" font-family="sans-serif" font-size="20" font-weight="bold" lengthAdjust="spacing" textLength="50" x="638" y="243.252">12.3</text><text fill="#000000" font-family="sans-serif" font-size="20" lengthAdjust="spacing" textLength="291" x="692" y="243.252">getTaskCategoryRepository()</text><polygon fill="#181818" points="642,283.25,632,287.25,642,291.25,638,287.25" style="stroke:#181818;stroke-width:1.0;"/><line style="stroke:#181818;stroke-width:1.0;" x1="636" x2="999" y1="287.25" y2="287.25"/><text fill="#000000" font-family="sans-serif" font-size="20" font-weight="bold" lengthAdjust="spacing" textLength="50" x="648" y="280.5332">12.4</text><text fill="#000000" font-family="sans-serif" font-size="20" lengthAdjust="spacing" textLength="238" x="702" y="280.5332">taskCategoryRepository</text><polygon fill="#181818" points="1262,320.5313,1272,324.5313,1262,328.5313,1266,324.5313" style="stroke:#181818;stroke-width:1.0;"/><line style="stroke:#181818;stroke-width:1.0;" x1="631" x2="1268" y1="324.5313" y2="324.5313"/><text fill="#000000" font-family="sans-serif" font-size="20" font-weight="bold" lengthAdjust="spacing" textLength="50" x="638" y="317.8145">12.5</text><text fill="#000000" font-family="sans-serif" font-size="20" lengthAdjust="spacing" textLength="570" x="692" y="317.8145">getTaskCategoryByDescription(taskCategoryDescription)</text><polygon fill="#181818" points="642,357.8125,632,361.8125,642,365.8125,638,361.8125" style="stroke:#181818;stroke-width:1.0;"/><line style="stroke:#181818;stroke-width:1.0;stroke-dasharray:2.0,2.0;" x1="636" x2="1278" y1="361.8125" y2="361.8125"/><text fill="#000000" font-family="sans-serif" font-size="20" font-weight="bold" lengthAdjust="spacing" textLength="50" x="648" y="355.0957">12.6</text><text fill="#000000" font-family="sans-serif" font-size="20" lengthAdjust="spacing" textLength="132" x="702" y="355.0957">taskCategory</text><polygon fill="#181818" points="11,402.0938,1,406.0938,11,410.0938,7,406.0938" style="stroke:#181818;stroke-width:1.0;"/><line style="stroke:#181818;stroke-width:1.0;stroke-dasharray:2.0,2.0;" x1="5" x2="625" y1="406.0938" y2="406.0938"/><text fill="#000000" font-family="sans-serif" font-size="20" font-weight="bold" lengthAdjust="spacing" textLength="28" x="17" y="399.377">13</text><text fill="#000000" font-family="sans-serif" font-size="20" lengthAdjust="spacing" textLength="132" x="49" y="399.377">taskCategory</text><!--SRC=[dP8zJyCm48Pt_ufJftO8ecMB418KWP0we3PZ5-CSgPN4ZkmBgFnw78UaRkiYX3VVntlFVTXIgeORNbTQb9X3Zk-yhUX9Azh8BuJ5DRD32DHQQR4pkaOWqsBWQRWeUO4RsbS81WLnLLHXWDtnN7zALS0xhomovimaXMou8fYaIuESCEEsNBhAHbSLcWbm2yjilJg9NMEZhIHj95eVCnhs6zcL9QsEKqoGiLNd0g-h- -muWpeIHrGuqODykbLPrE5LuYx6UEk0sleD3SmNBBdpFK4A1LAOyh1_H2kCR4XgDGq10lliHEvgxWo2v8SBxMS5xXL6jmqy8tac67IyhtiUm8541jTplIZhDYXmEXjpnYgnQOzHtOkf9Zzjfn3kOapByM_o0tYtiFC97b9Zt7x9Hw1UvR2F-CvZZCTI0rGSvT-BFclWqds5BLrWIE9TndhxhGgglB-j_XjUuestt2P9j0uB2lWhPTy0]--></g></svg>