<?xml version="1.0" encoding="UTF-8" standalone="no"?><svg xmlns="http://www.w3.org/2000/svg" xmlns:xlink="http://www.w3.org/1999/xlink" contentStyleType="text/css" height="1400px" preserveAspectRatio="none" style="width:1121px;height:1400px;background:#FFFFFF;" version="1.1" viewBox="0 0 1121 1400" width="1121px" zoomAndPan="magnify"><defs/><g><!--class UI--><g id="elem_UI"><rect codeLine="14" fill="#FFDAB9" height="50" id="UI" rx="2.5" ry="2.5" style="stroke:#4169E1;stroke-width:0.5;" width="201" x="677.47" y="7"/><ellipse cx="693.47" cy="24" fill="#ADD1B2" rx="12" ry="12" style="stroke:#181818;stroke-width:1.0;"/><path d="M696.5325,31.0781 Q695.845,31.4375 695.095,31.6094 Q694.345,31.7813 693.5169,31.7813 Q690.5638,31.7813 689.0013,29.8438 Q687.4544,27.8906 687.4544,24.2188 Q687.4544,20.5469 689.0013,18.6094 Q690.5638,16.6563 693.5169,16.6563 Q694.345,16.6563 695.095,16.8281 Q695.8606,17 696.5325,17.3594 L696.5325,20.5625 Q695.7825,19.875 695.0794,19.5625 Q694.3919,19.25 693.6419,19.25 Q692.0638,19.25 691.2513,20.5 Q690.4544,21.75 690.4544,24.2188 Q690.4544,26.6875 691.2513,27.9375 Q692.0638,29.1875 693.6419,29.1875 Q694.3919,29.1875 695.0794,28.875 Q695.7825,28.5625 696.5325,27.875 L696.5325,31.0781 Z " fill="#000000"/><text fill="#000000" font-family="sans-serif" font-size="20" lengthAdjust="spacing" textLength="167" x="708.47" y="30.9238">"ListPropertiesUI</text><line style="stroke:#4169E1;stroke-width:0.5;" x1="678.47" x2="877.47" y1="41" y2="41"/><line style="stroke:#4169E1;stroke-width:0.5;" x1="678.47" x2="877.47" y1="49" y2="49"/></g><!--class CONTROL--><g id="elem_CONTROL"><rect codeLine="15" fill="#FFDAB9" height="96.5625" id="CONTROL" rx="2.5" ry="2.5" style="stroke:#4169E1;stroke-width:0.5;" width="478" x="538.97" y="118"/><ellipse cx="664.97" cy="135" fill="#ADD1B2" rx="12" ry="12" style="stroke:#181818;stroke-width:1.0;"/><path d="M668.0325,142.0781 Q667.345,142.4375 666.595,142.6094 Q665.845,142.7813 665.0169,142.7813 Q662.0638,142.7813 660.5013,140.8438 Q658.9544,138.8906 658.9544,135.2188 Q658.9544,131.5469 660.5013,129.6094 Q662.0638,127.6563 665.0169,127.6563 Q665.845,127.6563 666.595,127.8281 Q667.3606,128 668.0325,128.3594 L668.0325,131.5625 Q667.2825,130.875 666.5794,130.5625 Q665.8919,130.25 665.1419,130.25 Q663.5638,130.25 662.7513,131.5 Q661.9544,132.75 661.9544,135.2188 Q661.9544,137.6875 662.7513,138.9375 Q663.5638,140.1875 665.1419,140.1875 Q665.8919,140.1875 666.5794,139.875 Q667.2825,139.5625 668.0325,138.875 L668.0325,142.0781 Z " fill="#000000"/><text fill="#000000" font-family="sans-serif" font-size="20" lengthAdjust="spacing" textLength="217" x="686.97" y="141.9238">"ListPropertController</text><line style="stroke:#4169E1;stroke-width:0.5;" x1="539.97" x2="1015.97" y1="152" y2="152"/><line style="stroke:#4169E1;stroke-width:0.5;" x1="539.97" x2="1015.97" y1="160" y2="160"/><text fill="#000000" font-family="sans-serif" font-size="20" lengthAdjust="spacing" textLength="466" x="544.97" y="182.5645">+ListPropertiesController(PropertyrRepository)</text><text fill="#000000" font-family="sans-serif" font-size="20" lengthAdjust="spacing" textLength="186" x="544.97" y="205.8457">+showProperties()</text></g><!--class Repositories--><g id="elem_Repositories"><rect codeLine="19" fill="#FFDAB9" height="96.5625" id="Repositories" rx="2.5" ry="2.5" style="stroke:#4169E1;stroke-width:0.5;" width="276" x="448.97" y="276"/><ellipse cx="520.97" cy="293" fill="#ADD1B2" rx="12" ry="12" style="stroke:#181818;stroke-width:1.0;"/><path d="M524.0325,300.0781 Q523.345,300.4375 522.595,300.6094 Q521.845,300.7813 521.0169,300.7813 Q518.0638,300.7813 516.5013,298.8438 Q514.9544,296.8906 514.9544,293.2188 Q514.9544,289.5469 516.5013,287.6094 Q518.0638,285.6563 521.0169,285.6563 Q521.845,285.6563 522.595,285.8281 Q523.3606,286 524.0325,286.3594 L524.0325,289.5625 Q523.2825,288.875 522.5794,288.5625 Q521.8919,288.25 521.1419,288.25 Q519.5638,288.25 518.7513,289.5 Q517.9544,290.75 517.9544,293.2188 Q517.9544,295.6875 518.7513,296.9375 Q519.5638,298.1875 521.1419,298.1875 Q521.8919,298.1875 522.5794,297.875 Q523.2825,297.5625 524.0325,296.875 L524.0325,300.0781 Z " fill="#000000"/><text fill="#000000" font-family="sans-serif" font-size="20" lengthAdjust="spacing" textLength="123" x="542.97" y="299.9238">Repositories</text><line style="stroke:#4169E1;stroke-width:0.5;" x1="449.97" x2="723.97" y1="310" y2="310"/><line style="stroke:#4169E1;stroke-width:0.5;" x1="449.97" x2="723.97" y1="318" y2="318"/><text fill="#000000" font-family="sans-serif" font-size="20" lengthAdjust="spacing" textLength="264" x="454.97" y="340.5645">+getPropertyrRepository()</text><text fill="#000000" font-family="sans-serif" font-size="20" lengthAdjust="spacing" textLength="151" x="454.97" y="363.8457">+getInstance()</text></g><!--class PROP_REP--><g id="elem_PROP_REP"><rect codeLine="23" fill="#FFDAB9" height="166.4063" id="PROP_REP" rx="2.5" ry="2.5" style="stroke:#4169E1;stroke-width:0.5;" width="337" x="418.47" y="434"/><ellipse cx="483.47" cy="451" fill="#ADD1B2" rx="12" ry="12" style="stroke:#181818;stroke-width:1.0;"/><path d="M486.5325,458.0781 Q485.845,458.4375 485.095,458.6094 Q484.345,458.7813 483.5169,458.7813 Q480.5637,458.7813 479.0012,456.8438 Q477.4544,454.8906 477.4544,451.2188 Q477.4544,447.5469 479.0012,445.6094 Q480.5637,443.6563 483.5169,443.6563 Q484.345,443.6563 485.095,443.8281 Q485.8606,444 486.5325,444.3594 L486.5325,447.5625 Q485.7825,446.875 485.0794,446.5625 Q484.3919,446.25 483.6419,446.25 Q482.0637,446.25 481.2512,447.5 Q480.4544,448.75 480.4544,451.2188 Q480.4544,453.6875 481.2512,454.9375 Q482.0637,456.1875 483.6419,456.1875 Q484.3919,456.1875 485.0794,455.875 Q485.7825,455.5625 486.5325,454.875 L486.5325,458.0781 Z " fill="#000000"/><text fill="#000000" font-family="sans-serif" font-size="20" lengthAdjust="spacing" textLength="198" x="505.47" y="457.9238">PropertyrRepository</text><line style="stroke:#4169E1;stroke-width:0.5;" x1="419.47" x2="754.47" y1="468" y2="468"/><line style="stroke:#4169E1;stroke-width:0.5;" x1="419.47" x2="754.47" y1="476" y2="476"/><text fill="#000000" font-family="sans-serif" font-size="20" lengthAdjust="spacing" textLength="284" x="424.47" y="498.5645">+getPropertiesByType(type)</text><text fill="#000000" font-family="sans-serif" font-size="20" lengthAdjust="spacing" textLength="153" x="424.47" y="521.8457">+filterByType()</text><text fill="#000000" font-family="sans-serif" font-size="20" lengthAdjust="spacing" textLength="150" x="424.47" y="545.127">+filterByDeal()</text><text fill="#000000" font-family="sans-serif" font-size="20" lengthAdjust="spacing" textLength="325" x="424.47" y="568.4082">+filterByNumberOfBathfrooms()</text><text fill="#000000" font-family="sans-serif" font-size="20" lengthAdjust="spacing" textLength="310" x="424.47" y="591.6895">+filterByNumberOfBedrooms()</text></g><!--class Property--><g id="elem_Property"><rect codeLine="33" fill="#FFDAB9" height="166.4063" id="Property" rx="2.5" ry="2.5" style="stroke:#4169E1;stroke-width:0.5;" width="337" x="420.47" y="795"/><ellipse cx="541.97" cy="812" fill="#A9DCDF" rx="12" ry="12" style="stroke:#181818;stroke-width:1.0;"/><path d="M541.9856,806.8125 L540.6263,812.7656 L543.3606,812.7656 L541.9856,806.8125 Z M540.2356,804.1719 L543.7513,804.1719 L547.6888,818.75 L544.8138,818.75 L543.9075,815.1406 L540.0481,815.1406 L539.1731,818.75 L536.2981,818.75 L540.2356,804.1719 Z " fill="#000000"/><text fill="#000000" font-family="sans-serif" font-size="20" font-style="italic" lengthAdjust="spacing" textLength="85" x="563.97" y="818.9238">Property</text><line style="stroke:#4169E1;stroke-width:0.5;" x1="421.47" x2="756.47" y1="829" y2="829"/><text fill="#000000" font-family="sans-serif" font-size="20" lengthAdjust="spacing" textLength="175" x="426.47" y="851.5645">-double areaInM2</text><text fill="#000000" font-family="sans-serif" font-size="20" lengthAdjust="spacing" textLength="325" x="426.47" y="874.8457">-double distanceFromCityCenter</text><text fill="#000000" font-family="sans-serif" font-size="20" lengthAdjust="spacing" textLength="300" x="426.47" y="898.127">-ArrayList &lt;String&gt; photoURL</text><text fill="#000000" font-family="sans-serif" font-size="20" lengthAdjust="spacing" textLength="202" x="426.47" y="921.4082">-String typeProperty</text><text fill="#000000" font-family="sans-serif" font-size="20" lengthAdjust="spacing" textLength="171" x="426.47" y="944.6895">-Address address</text><line style="stroke:#4169E1;stroke-width:0.5;" x1="421.47" x2="756.47" y1="953.4063" y2="953.4063"/></g><!--class Land--><g id="elem_Land"><rect codeLine="42" fill="#FFDAB9" height="50" id="Land" rx="2.5" ry="2.5" style="stroke:#4169E1;stroke-width:0.5;" width="83" x="509.47" y="1092.5"/><ellipse cx="525.47" cy="1109.5" fill="#ADD1B2" rx="12" ry="12" style="stroke:#181818;stroke-width:1.0;"/><path d="M528.5325,1116.5781 Q527.845,1116.9375 527.095,1117.1094 Q526.345,1117.2813 525.5169,1117.2813 Q522.5638,1117.2813 521.0013,1115.3438 Q519.4544,1113.3906 519.4544,1109.7188 Q519.4544,1106.0469 521.0013,1104.1094 Q522.5638,1102.1563 525.5169,1102.1563 Q526.345,1102.1563 527.095,1102.3281 Q527.8606,1102.5 528.5325,1102.8594 L528.5325,1106.0625 Q527.7825,1105.375 527.0794,1105.0625 Q526.3919,1104.75 525.6419,1104.75 Q524.0638,1104.75 523.2513,1106 Q522.4544,1107.25 522.4544,1109.7188 Q522.4544,1112.1875 523.2513,1113.4375 Q524.0638,1114.6875 525.6419,1114.6875 Q526.3919,1114.6875 527.0794,1114.375 Q527.7825,1114.0625 528.5325,1113.375 L528.5325,1116.5781 Z " fill="#000000"/><text fill="#000000" font-family="sans-serif" font-size="20" lengthAdjust="spacing" textLength="49" x="540.47" y="1116.4238">Land</text><line style="stroke:#4169E1;stroke-width:0.5;" x1="510.47" x2="591.47" y1="1126.5" y2="1126.5"/><line style="stroke:#4169E1;stroke-width:0.5;" x1="510.47" x2="591.47" y1="1134.5" y2="1134.5"/></g><!--class Apartment--><g id="elem_Apartment"><rect codeLine="45" fill="#FFDAB9" height="50" id="Apartment" rx="2.5" ry="2.5" style="stroke:#4169E1;stroke-width:0.5;" width="142" x="645.97" y="1309"/><ellipse cx="661.97" cy="1326" fill="#ADD1B2" rx="12" ry="12" style="stroke:#181818;stroke-width:1.0;"/><path d="M665.0325,1333.0781 Q664.345,1333.4375 663.595,1333.6094 Q662.845,1333.7813 662.0169,1333.7813 Q659.0638,1333.7813 657.5013,1331.8438 Q655.9544,1329.8906 655.9544,1326.2188 Q655.9544,1322.5469 657.5013,1320.6094 Q659.0638,1318.6563 662.0169,1318.6563 Q662.845,1318.6563 663.595,1318.8281 Q664.3606,1319 665.0325,1319.3594 L665.0325,1322.5625 Q664.2825,1321.875 663.5794,1321.5625 Q662.8919,1321.25 662.1419,1321.25 Q660.5638,1321.25 659.7513,1322.5 Q658.9544,1323.75 658.9544,1326.2188 Q658.9544,1328.6875 659.7513,1329.9375 Q660.5638,1331.1875 662.1419,1331.1875 Q662.8919,1331.1875 663.5794,1330.875 Q664.2825,1330.5625 665.0325,1329.875 L665.0325,1333.0781 Z " fill="#000000"/><text fill="#000000" font-family="sans-serif" font-size="20" lengthAdjust="spacing" textLength="108" x="676.97" y="1332.9238">Apartment</text><line style="stroke:#4169E1;stroke-width:0.5;" x1="646.97" x2="786.97" y1="1343" y2="1343"/><line style="stroke:#4169E1;stroke-width:0.5;" x1="646.97" x2="786.97" y1="1351" y2="1351"/></g><!--class House--><g id="elem_House"><rect codeLine="48" fill="#FFDAB9" height="119.8438" id="House" rx="2.5" ry="2.5" style="stroke:#4169E1;stroke-width:0.5;" width="257" x="823.47" y="1274"/><ellipse cx="916.47" cy="1291" fill="#ADD1B2" rx="12" ry="12" style="stroke:#181818;stroke-width:1.0;"/><path d="M919.5325,1298.0781 Q918.845,1298.4375 918.095,1298.6094 Q917.345,1298.7813 916.5169,1298.7813 Q913.5638,1298.7813 912.0013,1296.8438 Q910.4544,1294.8906 910.4544,1291.2188 Q910.4544,1287.5469 912.0013,1285.6094 Q913.5638,1283.6563 916.5169,1283.6563 Q917.345,1283.6563 918.095,1283.8281 Q918.8606,1284 919.5325,1284.3594 L919.5325,1287.5625 Q918.7825,1286.875 918.0794,1286.5625 Q917.3919,1286.25 916.6419,1286.25 Q915.0638,1286.25 914.2513,1287.5 Q913.4544,1288.75 913.4544,1291.2188 Q913.4544,1293.6875 914.2513,1294.9375 Q915.0638,1296.1875 916.6419,1296.1875 Q917.3919,1296.1875 918.0794,1295.875 Q918.7825,1295.5625 919.5325,1294.875 L919.5325,1298.0781 Z " fill="#000000"/><text fill="#000000" font-family="sans-serif" font-size="20" lengthAdjust="spacing" textLength="62" x="938.47" y="1297.9238">House</text><line style="stroke:#4169E1;stroke-width:0.5;" x1="824.47" x2="1079.47" y1="1308" y2="1308"/><text fill="#000000" font-family="sans-serif" font-size="20" lengthAdjust="spacing" textLength="193" x="829.47" y="1330.5645">-boolean basement</text><text fill="#000000" font-family="sans-serif" font-size="20" lengthAdjust="spacing" textLength="245" x="829.47" y="1353.8457">-boolean inhabitableLoft</text><text fill="#000000" font-family="sans-serif" font-size="20" lengthAdjust="spacing" textLength="202" x="829.47" y="1377.127">-String sunExposure</text><line style="stroke:#4169E1;stroke-width:0.5;" x1="824.47" x2="1079.47" y1="1385.8438" y2="1385.8438"/></g><!--class Home--><g id="elem_Home"><rect codeLine="54" fill="#FFDAB9" height="143.125" id="Home" rx="2.5" ry="2.5" style="stroke:#4169E1;stroke-width:0.5;" width="415" x="627.47" y="1046"/><ellipse cx="800.97" cy="1063" fill="#A9DCDF" rx="12" ry="12" style="stroke:#181818;stroke-width:1.0;"/><path d="M800.9856,1057.8125 L799.6263,1063.7656 L802.3606,1063.7656 L800.9856,1057.8125 Z M799.2356,1055.1719 L802.7513,1055.1719 L806.6888,1069.75 L803.8138,1069.75 L802.9075,1066.1406 L799.0481,1066.1406 L798.1731,1069.75 L795.2981,1069.75 L799.2356,1055.1719 Z " fill="#000000"/><text fill="#000000" font-family="sans-serif" font-size="20" font-style="italic" lengthAdjust="spacing" textLength="59" x="822.97" y="1069.9238">Home</text><line style="stroke:#4169E1;stroke-width:0.5;" x1="628.47" x2="1041.47" y1="1080" y2="1080"/><text fill="#000000" font-family="sans-serif" font-size="20" lengthAdjust="spacing" textLength="243" x="633.47" y="1102.5645">-int numberOfBedrooms</text><text fill="#000000" font-family="sans-serif" font-size="20" lengthAdjust="spacing" textLength="251" x="633.47" y="1125.8457">-int numberOfBathrooms</text><text fill="#000000" font-family="sans-serif" font-size="20" lengthAdjust="spacing" textLength="279" x="633.47" y="1149.127">-int numberOfParkingSpace</text><text fill="#000000" font-family="sans-serif" font-size="20" lengthAdjust="spacing" textLength="403" x="633.47" y="1172.4082">-ArrayList &lt;String&gt; availableEquipment</text><line style="stroke:#4169E1;stroke-width:0.5;" x1="628.47" x2="1041.47" y1="1181.125" y2="1181.125"/></g><!--class Properties_By_Price--><g id="elem_Properties_By_Price"><rect codeLine="60" fill="#FFDAB9" height="73.2813" id="Properties_By_Price" rx="2.5" ry="2.5" style="stroke:#4169E1;stroke-width:0.5;" width="451" x="116.47" y="661"/><ellipse cx="239.97" cy="678" fill="#ADD1B2" rx="12" ry="12" style="stroke:#181818;stroke-width:1.0;"/><path d="M243.0325,685.0781 Q242.345,685.4375 241.595,685.6094 Q240.845,685.7813 240.0169,685.7813 Q237.0638,685.7813 235.5013,683.8438 Q233.9544,681.8906 233.9544,678.2188 Q233.9544,674.5469 235.5013,672.6094 Q237.0638,670.6563 240.0169,670.6563 Q240.845,670.6563 241.595,670.8281 Q242.3606,671 243.0325,671.3594 L243.0325,674.5625 Q242.2825,673.875 241.5794,673.5625 Q240.8919,673.25 240.1419,673.25 Q238.5638,673.25 237.7513,674.5 Q236.9544,675.75 236.9544,678.2188 Q236.9544,680.6875 237.7513,681.9375 Q238.5638,683.1875 240.1419,683.1875 Q240.8919,683.1875 241.5794,682.875 Q242.2825,682.5625 243.0325,681.875 L243.0325,685.0781 Z " fill="#000000"/><text fill="#000000" font-family="sans-serif" font-size="20" lengthAdjust="spacing" textLength="195" x="261.97" y="684.9238">Properties_By_Price</text><line style="stroke:#4169E1;stroke-width:0.5;" x1="117.47" x2="566.47" y1="695" y2="695"/><line style="stroke:#4169E1;stroke-width:0.5;" x1="117.47" x2="566.47" y1="703" y2="703"/><text fill="#000000" font-family="sans-serif" font-size="20" lengthAdjust="spacing" textLength="439" x="122.47" y="725.5645">+compare(price1:double,price2:double):int</text></g><!--class Properties_By_City--><g id="elem_Properties_By_City"><rect codeLine="65" fill="#FFDAB9" height="73.2813" id="Properties_By_City" rx="2.5" ry="2.5" style="stroke:#4169E1;stroke-width:0.5;" width="459" x="602.47" y="661"/><ellipse cx="734.97" cy="678" fill="#ADD1B2" rx="12" ry="12" style="stroke:#181818;stroke-width:1.0;"/><path d="M738.0325,685.0781 Q737.345,685.4375 736.595,685.6094 Q735.845,685.7813 735.0169,685.7813 Q732.0638,685.7813 730.5013,683.8438 Q728.9544,681.8906 728.9544,678.2188 Q728.9544,674.5469 730.5013,672.6094 Q732.0638,670.6563 735.0169,670.6563 Q735.845,670.6563 736.595,670.8281 Q737.3606,671 738.0325,671.3594 L738.0325,674.5625 Q737.2825,673.875 736.5794,673.5625 Q735.8919,673.25 735.1419,673.25 Q733.5638,673.25 732.7513,674.5 Q731.9544,675.75 731.9544,678.2188 Q731.9544,680.6875 732.7513,681.9375 Q733.5638,683.1875 735.1419,683.1875 Q735.8919,683.1875 736.5794,682.875 Q737.2825,682.5625 738.0325,681.875 L738.0325,685.0781 Z " fill="#000000"/><text fill="#000000" font-family="sans-serif" font-size="20" lengthAdjust="spacing" textLength="185" x="756.97" y="684.9238">Properties_By_City</text><line style="stroke:#4169E1;stroke-width:0.5;" x1="603.47" x2="1060.47" y1="695" y2="695"/><line style="stroke:#4169E1;stroke-width:0.5;" x1="603.47" x2="1060.47" y1="703" y2="703"/><text fill="#000000" font-family="sans-serif" font-size="20" lengthAdjust="spacing" textLength="447" x="608.47" y="725.5645">+compare(parish1:String,parish2:String):int</text></g><!--reverse link Property to Land--><g id="link_Property_Land"><path codeLine="72" d="M572.65,980.98 C566.06,1022.18 559.03,1066.12 554.82,1092.44 " fill="none" id="Property-backto-Land" style="stroke:#4169E1;stroke-width:1.0;"/><polygon fill="none" points="565.77,979.71,575.84,961.07,579.59,981.92,565.77,979.71" style="stroke:#4169E1;stroke-width:1.0;"/><text fill="#000000" font-family="sans-serif" font-size="20" lengthAdjust="spacing" textLength="34" x="570.97" y="1010.5645">is a</text></g><!--reverse link Property to Home--><g id="link_Property_Home"><path codeLine="73" d="M688.61,975.2 C713.1,998.84 738.87,1023.72 761.84,1045.9 " fill="none" id="Property-backto-Home" style="stroke:#4169E1;stroke-width:1.0;"/><polygon fill="none" points="683.5,979.99,673.97,961.07,693.22,969.92,683.5,979.99" style="stroke:#4169E1;stroke-width:1.0;"/><text fill="#000000" font-family="sans-serif" font-size="20" lengthAdjust="spacing" textLength="34" x="727.97" y="1010.5645">is a</text></g><!--reverse link Home to Apartment--><g id="link_Home_Apartment"><path codeLine="74" d="M786.47,1206.65 C766.03,1243.81 743.86,1284.12 730.18,1308.98 " fill="none" id="Home-backto-Apartment" style="stroke:#4169E1;stroke-width:1.0;"/><polygon fill="none" points="780.39,1203.18,796.17,1189.03,792.66,1209.93,780.39,1203.18" style="stroke:#4169E1;stroke-width:1.0;"/><text fill="#000000" font-family="sans-serif" font-size="20" lengthAdjust="spacing" textLength="34" x="779.97" y="1238.5645">is a</text></g><!--reverse link Home to House--><g id="link_Home_House"><path codeLine="75" d="M883.15,1206.83 C895.47,1229.42 908.43,1253.18 919.73,1273.9 " fill="none" id="Home-backto-House" style="stroke:#4169E1;stroke-width:1.0;"/><polygon fill="none" points="876.87,1209.94,873.44,1189.03,889.16,1203.24,876.87,1209.94" style="stroke:#4169E1;stroke-width:1.0;"/><text fill="#000000" font-family="sans-serif" font-size="20" lengthAdjust="spacing" textLength="34" x="900.97" y="1238.5645">is a</text></g><!--link UI to CONTROL--><g id="link_UI_CONTROL"><path codeLine="77" d="M777.97,57.3 C777.97,72.74 777.97,93.33 777.97,112.41 " fill="none" id="UI-to-CONTROL" style="stroke:#4169E1;stroke-width:1.0;stroke-dasharray:7.0,7.0;"/><polygon fill="#4169E1" points="777.97,117.74,781.97,108.74,777.97,112.74,773.97,108.74,777.97,117.74" style="stroke:#4169E1;stroke-width:1.0;"/></g><!--link CONTROL to Repositories--><g id="link_CONTROL_Repositories"><path codeLine="78" d="M719.62,215.15 C697.33,233.36 671.83,254.19 649.18,272.68 " fill="none" id="CONTROL-to-Repositories" style="stroke:#4169E1;stroke-width:1.0;stroke-dasharray:7.0,7.0;"/><polygon fill="#4169E1" points="645.28,275.87,654.7827,273.282,649.1549,272.71,649.7268,267.0822,645.28,275.87" style="stroke:#4169E1;stroke-width:1.0;"/></g><!--link Repositories to PROP_REP--><g id="link_Repositories_PROP_REP"><path codeLine="79" d="M586.97,373.08 C586.97,389.9 586.97,409.4 586.97,428.48 " fill="none" id="Repositories-to-PROP_REP" style="stroke:#4169E1;stroke-width:1.0;"/><polygon fill="#4169E1" points="586.97,433.84,590.97,424.84,586.97,428.84,582.97,424.84,586.97,433.84" style="stroke:#4169E1;stroke-width:1.0;"/></g><!--link CONTROL to Property--><g id="link_CONTROL_Property"><path codeLine="80" d="M1017.04,205.07 C1072.15,227.96 1114.97,264.67 1114.97,323.5 C1114.97,323.5 1114.97,323.5 1114.97,698.5 C1114.97,774.46 915.77,824.53 762.54,851.81 " fill="none" id="CONTROL-to-Property" style="stroke:#4169E1;stroke-width:1.0;stroke-dasharray:7.0,7.0;"/><polygon fill="#4169E1" points="757.57,852.69,767.129,855.0619,762.4936,851.8194,765.7361,847.1841,757.57,852.69" style="stroke:#4169E1;stroke-width:1.0;"/></g><!--link PROP_REP to Property--><g id="link_PROP_REP_Property"><path codeLine="81" d="M418.16,533.18 C242.8,555.85 6,610.03 98.97,734 C137.61,785.53 290.35,824.65 415.16,848.83 " fill="none" id="PROP_REP-to-Property" style="stroke:#4169E1;stroke-width:1.0;"/><polygon fill="#4169E1" points="420.33,849.83,412.2449,844.2058,415.4196,848.8879,410.7375,852.0625,420.33,849.83" style="stroke:#4169E1;stroke-width:1.0;"/></g><!--link CONTROL to PROP_REP--><g id="link_CONTROL_PROP_REP"><path codeLine="82" d="M778.14,215.21 C776.39,258.78 768.86,323.72 741.97,373 C730.8,393.47 715.6,412.6 699.05,429.8 " fill="none" id="CONTROL-to-PROP_REP" style="stroke:#4169E1;stroke-width:1.0;stroke-dasharray:7.0,7.0;"/><polygon fill="#4169E1" points="695.28,433.67,704.4362,430.0418,698.7796,430.0989,698.7225,424.4424,695.28,433.67" style="stroke:#4169E1;stroke-width:1.0;"/></g><!--link PROP_REP to Properties_By_City--><g id="link_PROP_REP_Properties_By_City"><path codeLine="85" d="M699.79,600.2 C727.33,620.27 755.54,640.82 778.78,657.75 " fill="none" id="PROP_REP-to-Properties_By_City" style="stroke:#4169E1;stroke-width:1.0;stroke-dasharray:7.0,7.0;"/><polygon fill="#4169E1" points="783.06,660.87,778.1376,652.3394,779.0176,657.9274,773.4296,658.8074,783.06,660.87" style="stroke:#4169E1;stroke-width:1.0;"/><text fill="#000000" font-family="sans-serif" font-size="20" lengthAdjust="spacing" textLength="13" x="695.9269" y="626.8974">1</text><text fill="#000000" font-family="sans-serif" font-size="20" lengthAdjust="spacing" textLength="13" x="760.5364" y="648.1621">1</text></g><!--link PROP_REP to Properties_By_Price--><g id="link_PROP_REP_Properties_By_Price"><path codeLine="86" d="M474.15,600.2 C446.6,620.27 418.4,640.82 395.16,657.75 " fill="none" id="PROP_REP-to-Properties_By_Price" style="stroke:#4169E1;stroke-width:1.0;stroke-dasharray:7.0,7.0;"/><polygon fill="#4169E1" points="390.87,660.87,400.4957,658.7852,394.9056,657.9181,395.7727,652.3281,390.87,660.87" style="stroke:#4169E1;stroke-width:1.0;"/><text fill="#000000" font-family="sans-serif" font-size="20" lengthAdjust="spacing" textLength="13" x="450.8959" y="626.8974">1</text><text fill="#000000" font-family="sans-serif" font-size="20" lengthAdjust="spacing" textLength="13" x="385.1575" y="648.1621">1</text></g><!--SRC=[XLHDRzim3BthLmYvD4MROCqn60eqMOi6o1eZQSu5RTEsK4No97cTr-s_Z_wAbTJeTB11lYUI8fzaNuNAmS11wkWLOnvZ0eLq3rgvdVYDVFQ5NTYEmmzQwIWp-e3ScG9PZ-GGlKAAErTAv0OZ1ogLFi5c4EiteLAUWBJeHvL2eIjpvDguJBCBYOdZJdCZqipnM5JXX5PUi4Y2jNVE6H4M3bUHLdMnLEkaMm-22h5K3gKyEiz3y7V6QIse-DJeGiLBBRNX0KAK1KMIrEYTCVgj0RQw1BcGTF9wcpOncdFaBsDDxD5eBQmBZCxHE85slnfni7o_6iANr72ZfKHJavQRf-VjPltEhavZzBHnwopD5dDjXTEcl6HNDjDlFNryIUKqsOuiSbFO5Dr00E9No4fPcb-4tlRH0BkkDDXkWfVjVN0Iat8iocSQwRYQAmLDX7HeMfzdVqEGllrK748qcsG1BakCrWSxY6BSOLMx6OJM6OXSEzIkr7gu4nxh8YGjW45OgU-pUdG-48lcj0-awwLmvH8LPUjfD7yegp7mhpjId4flUPvff_VRTKzg45uTjqllHOXZWrGOD7_MQsGDAdvdnoxVaJRTWV9xlaTTM6nqEk6XrX91yH0iLhmkXmS9bK4e7D3HrZhn6MsDjb3tlsY6XQd5UjQyn-foj-c4SboTzRoFTuBIl3w10p1qyT8TlHBOCmOQ2pz1oAhq-n-5oEiJTdtefVMoA5y28oBgobMa3zGp7EULVJDlHdfTMxFMkfnJAUm2R8GghXf0rpN6pkfdSPgWKe8V7uomsSsyAVIwCMUjsMQedeC31vb0Y4v4K6kpVv6ybQ6X2QKuXB5f9o3-zSzamgULHlYS2zBF1woULeVLHkC_2ca8h1NL0OFrVRROViMdqzlkYMBjl_RvZmpp3JwPt7OlXRU3jXnlImTFAchdz8CVzxCZTtGp8eI-7sVtFquje7y0]--></g></svg>