<?xml version="1.0" encoding="UTF-8" standalone="no"?><svg xmlns="http://www.w3.org/2000/svg" xmlns:xlink="http://www.w3.org/1999/xlink" contentStyleType="text/css" height="1452px" preserveAspectRatio="none" style="width:1844px;height:1452px;background:#FFFFFF;" version="1.1" viewBox="0 0 1844 1452" width="1844px" zoomAndPan="magnify"><defs/><g><!--class ApplicationSession--><g id="elem_ApplicationSession"><rect codeLine="11" fill="#F1F1F1" height="96.5625" id="ApplicationSession" rx="2.5" ry="2.5" style="stroke:#181818;stroke-width:0.5;" width="230" x="158.5" y="361.2168"/><ellipse cx="177.2" cy="378.2168" fill="#ADD1B2" rx="12" ry="12" style="stroke:#181818;stroke-width:1.0;"/><path d="M180.2625,385.2949 Q179.575,385.6543 178.825,385.8262 Q178.075,385.998 177.2469,385.998 Q174.2938,385.998 172.7313,384.0605 Q171.1844,382.1074 171.1844,378.4355 Q171.1844,374.7637 172.7313,372.8262 Q174.2938,370.873 177.2469,370.873 Q178.075,370.873 178.825,371.0449 Q179.5906,371.2168 180.2625,371.5762 L180.2625,374.7793 Q179.5125,374.0918 178.8094,373.7793 Q178.1219,373.4668 177.3719,373.4668 Q175.7938,373.4668 174.9813,374.7168 Q174.1844,375.9668 174.1844,378.4355 Q174.1844,380.9043 174.9813,382.1543 Q175.7938,383.4043 177.3719,383.4043 Q178.1219,383.4043 178.8094,383.0918 Q179.5125,382.7793 180.2625,382.0918 L180.2625,385.2949 Z " fill="#000000"/><text fill="#000000" font-family="sans-serif" font-size="20" lengthAdjust="spacing" textLength="190" x="192.8" y="385.1406">ApplicationSession</text><line style="stroke:#181818;stroke-width:0.5;" x1="159.5" x2="387.5" y1="395.2168" y2="395.2168"/><line style="stroke:#181818;stroke-width:0.5;" x1="159.5" x2="387.5" y1="403.2168" y2="403.2168"/><text fill="#000000" font-family="sans-serif" font-size="20" lengthAdjust="spacing" textLength="212" x="164.5" y="425.7813">+static getInstance()</text><text fill="#000000" font-family="sans-serif" font-size="20" lengthAdjust="spacing" textLength="218" x="164.5" y="449.0625">+getCurrentSession()</text></g><!--class UserSession--><g id="elem_UserSession"><rect codeLine="17" fill="#F1F1F1" height="73.2813" id="UserSession" rx="2.5" ry="2.5" style="stroke:#181818;stroke-width:0.5;" width="180" x="72.5" y="671.2168"/><ellipse cx="99.75" cy="688.2168" fill="#ADD1B2" rx="12" ry="12" style="stroke:#181818;stroke-width:1.0;"/><path d="M102.8125,695.2949 Q102.125,695.6543 101.375,695.8262 Q100.625,695.998 99.7969,695.998 Q96.8438,695.998 95.2813,694.0605 Q93.7344,692.1074 93.7344,688.4355 Q93.7344,684.7637 95.2813,682.8262 Q96.8438,680.873 99.7969,680.873 Q100.625,680.873 101.375,681.0449 Q102.1406,681.2168 102.8125,681.5762 L102.8125,684.7793 Q102.0625,684.0918 101.3594,683.7793 Q100.6719,683.4668 99.9219,683.4668 Q98.3438,683.4668 97.5313,684.7168 Q96.7344,685.9668 96.7344,688.4355 Q96.7344,690.9043 97.5313,692.1543 Q98.3438,693.4043 99.9219,693.4043 Q100.6719,693.4043 101.3594,693.0918 Q102.0625,692.7793 102.8125,692.0918 L102.8125,695.2949 Z " fill="#000000"/><text fill="#000000" font-family="sans-serif" font-size="20" lengthAdjust="spacing" textLength="121" x="117.25" y="695.1406">UserSession</text><line style="stroke:#181818;stroke-width:0.5;" x1="73.5" x2="251.5" y1="705.2168" y2="705.2168"/><line style="stroke:#181818;stroke-width:0.5;" x1="73.5" x2="251.5" y1="713.2168" y2="713.2168"/><text fill="#000000" font-family="sans-serif" font-size="20" lengthAdjust="spacing" textLength="168" x="78.5" y="735.7813">+getUserEmail()</text></g><!--class Employee--><g id="elem_Employee"><rect codeLine="22" fill="#F1F1F1" height="143.125" id="Employee" rx="2.5" ry="2.5" style="stroke:#181818;stroke-width:0.5;" width="133" x="1243" y="1302.2168"/><ellipse cx="1259" cy="1319.2168" fill="#ADD1B2" rx="12" ry="12" style="stroke:#181818;stroke-width:1.0;"/><path d="M1262.0625,1326.2949 Q1261.375,1326.6543 1260.625,1326.8262 Q1259.875,1326.998 1259.0469,1326.998 Q1256.0938,1326.998 1254.5313,1325.0605 Q1252.9844,1323.1074 1252.9844,1319.4355 Q1252.9844,1315.7637 1254.5313,1313.8262 Q1256.0938,1311.873 1259.0469,1311.873 Q1259.875,1311.873 1260.625,1312.0449 Q1261.3906,1312.2168 1262.0625,1312.5762 L1262.0625,1315.7793 Q1261.3125,1315.0918 1260.6094,1314.7793 Q1259.9219,1314.4668 1259.1719,1314.4668 Q1257.5938,1314.4668 1256.7813,1315.7168 Q1255.9844,1316.9668 1255.9844,1319.4355 Q1255.9844,1321.9043 1256.7813,1323.1543 Q1257.5938,1324.4043 1259.1719,1324.4043 Q1259.9219,1324.4043 1260.6094,1324.0918 Q1261.3125,1323.7793 1262.0625,1323.0918 L1262.0625,1326.2949 Z " fill="#000000"/><text fill="#000000" font-family="sans-serif" font-size="20" lengthAdjust="spacing" textLength="99" x="1274" y="1326.1406">Employee</text><line style="stroke:#181818;stroke-width:0.5;" x1="1244" x2="1375" y1="1336.2168" y2="1336.2168"/><text fill="#000000" font-family="sans-serif" font-size="20" lengthAdjust="spacing" textLength="64" x="1249" y="1358.7813">-name</text><text fill="#000000" font-family="sans-serif" font-size="20" lengthAdjust="spacing" textLength="63" x="1249" y="1382.0625">-email</text><text fill="#000000" font-family="sans-serif" font-size="20" lengthAdjust="spacing" textLength="87" x="1249" y="1405.3438">-position</text><text fill="#000000" font-family="sans-serif" font-size="20" lengthAdjust="spacing" textLength="70" x="1249" y="1428.625">-phone</text><line style="stroke:#181818;stroke-width:0.5;" x1="1244" x2="1375" y1="1437.3418" y2="1437.3418"/></g><!--class Task--><g id="elem_Task"><rect codeLine="29" fill="#F1F1F1" height="259.5313" id="Task" rx="2.5" ry="2.5" style="stroke:#181818;stroke-width:0.5;" width="434" x="909.5" y="957.2168"/><ellipse cx="1099" cy="974.2168" fill="#ADD1B2" rx="12" ry="12" style="stroke:#181818;stroke-width:1.0;"/><path d="M1102.0625,981.2949 Q1101.375,981.6543 1100.625,981.8262 Q1099.875,981.998 1099.0469,981.998 Q1096.0938,981.998 1094.5313,980.0605 Q1092.9844,978.1074 1092.9844,974.4355 Q1092.9844,970.7637 1094.5313,968.8262 Q1096.0938,966.873 1099.0469,966.873 Q1099.875,966.873 1100.625,967.0449 Q1101.3906,967.2168 1102.0625,967.5762 L1102.0625,970.7793 Q1101.3125,970.0918 1100.6094,969.7793 Q1099.9219,969.4668 1099.1719,969.4668 Q1097.5938,969.4668 1096.7813,970.7168 Q1095.9844,971.9668 1095.9844,974.4355 Q1095.9844,976.9043 1096.7813,978.1543 Q1097.5938,979.4043 1099.1719,979.4043 Q1099.9219,979.4043 1100.6094,979.0918 Q1101.3125,978.7793 1102.0625,978.0918 L1102.0625,981.2949 Z " fill="#000000"/><text fill="#000000" font-family="sans-serif" font-size="20" lengthAdjust="spacing" textLength="46" x="1121" y="981.1406">Task</text><line style="stroke:#181818;stroke-width:0.5;" x1="910.5" x2="1342.5" y1="991.2168" y2="991.2168"/><text fill="#000000" font-family="sans-serif" font-size="20" lengthAdjust="spacing" textLength="169" x="915.5" y="1013.7813">-String reference</text><text fill="#000000" font-family="sans-serif" font-size="20" lengthAdjust="spacing" textLength="186" x="915.5" y="1037.0625">-String description</text><text fill="#000000" font-family="sans-serif" font-size="20" lengthAdjust="spacing" textLength="272" x="915.5" y="1060.3438">-String informalDescription</text><text fill="#000000" font-family="sans-serif" font-size="20" lengthAdjust="spacing" textLength="280" x="915.5" y="1083.625">-String technicalDescription</text><text fill="#000000" font-family="sans-serif" font-size="20" lengthAdjust="spacing" textLength="170" x="915.5" y="1106.9063">-Integer duration</text><text fill="#000000" font-family="sans-serif" font-size="20" lengthAdjust="spacing" textLength="125" x="915.5" y="1130.1875">-Double cost</text><line style="stroke:#181818;stroke-width:0.5;" x1="910.5" x2="1342.5" y1="1138.9043" y2="1138.9043"/><text fill="#000000" font-family="sans-serif" font-size="20" lengthAdjust="spacing" textLength="296" x="915.5" y="1161.4688">+Task(reference, description,</text><text fill="#000000" font-family="sans-serif" font-size="20" lengthAdjust="spacing" textLength="422" x="915.5" y="1184.75">informalDescription, technicalDescription,</text><text fill="#000000" font-family="sans-serif" font-size="20" lengthAdjust="spacing" textLength="403" x="915.5" y="1208.0313">duration, cost, createdBy, taskCategory)</text></g><!--class TaskCategory--><g id="elem_TaskCategory"><rect codeLine="40" fill="#F1F1F1" height="96.5625" id="TaskCategory" rx="2.5" ry="2.5" style="stroke:#181818;stroke-width:0.5;" width="293" x="531" y="1325.2168"/><ellipse cx="605" cy="1342.2168" fill="#ADD1B2" rx="12" ry="12" style="stroke:#181818;stroke-width:1.0;"/><path d="M608.0625,1349.2949 Q607.375,1349.6543 606.625,1349.8262 Q605.875,1349.998 605.0469,1349.998 Q602.0938,1349.998 600.5313,1348.0605 Q598.9844,1346.1074 598.9844,1342.4355 Q598.9844,1338.7637 600.5313,1336.8262 Q602.0938,1334.873 605.0469,1334.873 Q605.875,1334.873 606.625,1335.0449 Q607.3906,1335.2168 608.0625,1335.5762 L608.0625,1338.7793 Q607.3125,1338.0918 606.6094,1337.7793 Q605.9219,1337.4668 605.1719,1337.4668 Q603.5938,1337.4668 602.7813,1338.7168 Q601.9844,1339.9668 601.9844,1342.4355 Q601.9844,1344.9043 602.7813,1346.1543 Q603.5938,1347.4043 605.1719,1347.4043 Q605.9219,1347.4043 606.6094,1347.0918 Q607.3125,1346.7793 608.0625,1346.0918 L608.0625,1349.2949 Z " fill="#000000"/><text fill="#000000" font-family="sans-serif" font-size="20" lengthAdjust="spacing" textLength="136" x="627" y="1349.1406">TaskCategory</text><line style="stroke:#181818;stroke-width:0.5;" x1="532" x2="823" y1="1359.2168" y2="1359.2168"/><text fill="#000000" font-family="sans-serif" font-size="20" lengthAdjust="spacing" textLength="186" x="537" y="1381.7813">-String description</text><line style="stroke:#181818;stroke-width:0.5;" x1="532" x2="823" y1="1390.498" y2="1390.498"/><text fill="#000000" font-family="sans-serif" font-size="20" lengthAdjust="spacing" textLength="281" x="537" y="1413.0625">+TaskCategory(description)</text></g><!--class Organization--><g id="elem_Organization"><rect codeLine="46" fill="#F1F1F1" height="329.375" id="Organization" rx="2.5" ry="2.5" style="stroke:#181818;stroke-width:0.5;" width="847" x="990" y="543.2168"/><ellipse cx="1344" cy="560.2168" fill="#ADD1B2" rx="12" ry="12" style="stroke:#181818;stroke-width:1.0;"/><path d="M1347.0625,567.2949 Q1346.375,567.6543 1345.625,567.8262 Q1344.875,567.998 1344.0469,567.998 Q1341.0938,567.998 1339.5313,566.0605 Q1337.9844,564.1074 1337.9844,560.4355 Q1337.9844,556.7637 1339.5313,554.8262 Q1341.0938,552.873 1344.0469,552.873 Q1344.875,552.873 1345.625,553.0449 Q1346.3906,553.2168 1347.0625,553.5762 L1347.0625,556.7793 Q1346.3125,556.0918 1345.6094,555.7793 Q1344.9219,555.4668 1344.1719,555.4668 Q1342.5938,555.4668 1341.7813,556.7168 Q1340.9844,557.9668 1340.9844,560.4355 Q1340.9844,562.9043 1341.7813,564.1543 Q1342.5938,565.4043 1344.1719,565.4043 Q1344.9219,565.4043 1345.6094,565.0918 Q1346.3125,564.7793 1347.0625,564.0918 L1347.0625,567.2949 Z " fill="#000000"/><text fill="#000000" font-family="sans-serif" font-size="20" lengthAdjust="spacing" textLength="130" x="1366" y="567.1406">Organization</text><line style="stroke:#181818;stroke-width:0.5;" x1="991" x2="1836" y1="577.2168" y2="577.2168"/><text fill="#000000" font-family="sans-serif" font-size="20" lengthAdjust="spacing" textLength="131" x="996" y="599.7813">-String name</text><text fill="#000000" font-family="sans-serif" font-size="20" lengthAdjust="spacing" textLength="186" x="996" y="623.0625">-String vatNumber</text><text fill="#000000" font-family="sans-serif" font-size="20" lengthAdjust="spacing" textLength="152" x="996" y="646.3438">-String website</text><text fill="#000000" font-family="sans-serif" font-size="20" lengthAdjust="spacing" textLength="137" x="996" y="669.625">-String phone</text><text fill="#000000" font-family="sans-serif" font-size="20" lengthAdjust="spacing" textLength="130" x="996" y="692.9063">-String email</text><line style="stroke:#181818;stroke-width:0.5;" x1="991" x2="1836" y1="701.623" y2="701.623"/><text fill="#000000" font-family="sans-serif" font-size="20" lengthAdjust="spacing" textLength="149" x="996" y="724.1875">-addTask(task)</text><text fill="#000000" font-family="sans-serif" font-size="20" lengthAdjust="spacing" textLength="191" x="996" y="747.4688">-validateTask(task)</text><text fill="#000000" font-family="sans-serif" font-size="20" lengthAdjust="spacing" textLength="318" x="996" y="770.75">+anyEmployeeHasEmail(email)</text><text fill="#000000" font-family="sans-serif" font-size="20" lengthAdjust="spacing" textLength="835" x="996" y="794.0313">+Organization(name, vatNumber, webSite, phone, email, postalAddress, manager)</text><text fill="#000000" font-family="sans-serif" font-size="20" lengthAdjust="spacing" textLength="580" x="996" y="817.3125">+createTask(reference, description, informalDesccription,</text><text fill="#000000" font-family="sans-serif" font-size="20" lengthAdjust="spacing" textLength="622" x="996" y="840.5938">technicalDescription, duration, cost, taskCategoryDescription)</text><text fill="#000000" font-family="sans-serif" font-size="20" lengthAdjust="spacing" textLength="293" x="996" y="863.875">-getEmployeeByEmail(email)</text></g><!--class TaskCategoryRepository--><g id="elem_TaskCategoryRepository"><rect codeLine="63" fill="#F1F1F1" height="73.2813" id="TaskCategoryRepository" rx="2.5" ry="2.5" style="stroke:#181818;stroke-width:0.5;" width="465" x="610" y="373.2168"/><ellipse cx="717" cy="390.2168" fill="#ADD1B2" rx="12" ry="12" style="stroke:#181818;stroke-width:1.0;"/><path d="M720.0625,397.2949 Q719.375,397.6543 718.625,397.8262 Q717.875,397.998 717.0469,397.998 Q714.0938,397.998 712.5313,396.0605 Q710.9844,394.1074 710.9844,390.4355 Q710.9844,386.7637 712.5313,384.8262 Q714.0938,382.873 717.0469,382.873 Q717.875,382.873 718.625,383.0449 Q719.3906,383.2168 720.0625,383.5762 L720.0625,386.7793 Q719.3125,386.0918 718.6094,385.7793 Q717.9219,385.4668 717.1719,385.4668 Q715.5938,385.4668 714.7813,386.7168 Q713.9844,387.9668 713.9844,390.4355 Q713.9844,392.9043 714.7813,394.1543 Q715.5938,395.4043 717.1719,395.4043 Q717.9219,395.4043 718.6094,395.0918 Q719.3125,394.7793 720.0625,394.0918 L720.0625,397.2949 Z " fill="#000000"/><text fill="#000000" font-family="sans-serif" font-size="20" lengthAdjust="spacing" textLength="242" x="739" y="397.1406">TaskCategoryRepository</text><line style="stroke:#181818;stroke-width:0.5;" x1="611" x2="1074" y1="407.2168" y2="407.2168"/><line style="stroke:#181818;stroke-width:0.5;" x1="611" x2="1074" y1="415.2168" y2="415.2168"/><text fill="#000000" font-family="sans-serif" font-size="20" lengthAdjust="spacing" textLength="453" x="616" y="437.7813">+getTaskCategoryByDescription(description)</text></g><!--class OrganizationRepository--><g id="elem_OrganizationRepository"><rect codeLine="67" fill="#F1F1F1" height="73.2813" id="OrganizationRepository" rx="2.5" ry="2.5" style="stroke:#181818;stroke-width:0.5;" width="445" x="1309" y="373.2168"/><ellipse cx="1409" cy="390.2168" fill="#ADD1B2" rx="12" ry="12" style="stroke:#181818;stroke-width:1.0;"/><path d="M1412.0625,397.2949 Q1411.375,397.6543 1410.625,397.8262 Q1409.875,397.998 1409.0469,397.998 Q1406.0938,397.998 1404.5313,396.0605 Q1402.9844,394.1074 1402.9844,390.4355 Q1402.9844,386.7637 1404.5313,384.8262 Q1406.0938,382.873 1409.0469,382.873 Q1409.875,382.873 1410.625,383.0449 Q1411.3906,383.2168 1412.0625,383.5762 L1412.0625,386.7793 Q1411.3125,386.0918 1410.6094,385.7793 Q1409.9219,385.4668 1409.1719,385.4668 Q1407.5938,385.4668 1406.7813,386.7168 Q1405.9844,387.9668 1405.9844,390.4355 Q1405.9844,392.9043 1406.7813,394.1543 Q1407.5938,395.4043 1409.1719,395.4043 Q1409.9219,395.4043 1410.6094,395.0918 Q1411.3125,394.7793 1412.0625,394.0918 L1412.0625,397.2949 Z " fill="#000000"/><text fill="#000000" font-family="sans-serif" font-size="20" lengthAdjust="spacing" textLength="236" x="1431" y="397.1406">OrganizationRepository</text><line style="stroke:#181818;stroke-width:0.5;" x1="1310" x2="1753" y1="407.2168" y2="407.2168"/><line style="stroke:#181818;stroke-width:0.5;" x1="1310" x2="1753" y1="415.2168" y2="415.2168"/><text fill="#000000" font-family="sans-serif" font-size="20" lengthAdjust="spacing" textLength="433" x="1315" y="437.7813">+getOrganizationByEmployeeEmail(email)</text></g><!--class Repositories--><g id="elem_Repositories"><rect codeLine="71" fill="#F1F1F1" height="143.125" id="Repositories" rx="2.5" ry="2.5" style="stroke:#181818;stroke-width:0.5;" width="320" x="1345.5" y="98.2168"/><ellipse cx="1439.5" cy="115.2168" fill="#ADD1B2" rx="12" ry="12" style="stroke:#181818;stroke-width:1.0;"/><path d="M1442.5625,122.2949 Q1441.875,122.6543 1441.125,122.8262 Q1440.375,122.998 1439.5469,122.998 Q1436.5938,122.998 1435.0313,121.0605 Q1433.4844,119.1074 1433.4844,115.4355 Q1433.4844,111.7637 1435.0313,109.8262 Q1436.5938,107.873 1439.5469,107.873 Q1440.375,107.873 1441.125,108.0449 Q1441.8906,108.2168 1442.5625,108.5762 L1442.5625,111.7793 Q1441.8125,111.0918 1441.1094,110.7793 Q1440.4219,110.4668 1439.6719,110.4668 Q1438.0938,110.4668 1437.2813,111.7168 Q1436.4844,112.9668 1436.4844,115.4355 Q1436.4844,117.9043 1437.2813,119.1543 Q1438.0938,120.4043 1439.6719,120.4043 Q1440.4219,120.4043 1441.1094,120.0918 Q1441.8125,119.7793 1442.5625,119.0918 L1442.5625,122.2949 Z " fill="#000000"/><text fill="#000000" font-family="sans-serif" font-size="20" lengthAdjust="spacing" textLength="123" x="1461.5" y="122.1406">Repositories</text><line style="stroke:#181818;stroke-width:0.5;" x1="1346.5" x2="1664.5" y1="132.2168" y2="132.2168"/><line style="stroke:#181818;stroke-width:0.5;" x1="1346.5" x2="1664.5" y1="140.2168" y2="140.2168"/><text fill="#000000" font-family="sans-serif" font-size="20" lengthAdjust="spacing" textLength="146" x="1351.5" y="162.7813">-Repositories()</text><text fill="#000000" font-family="sans-serif" font-size="20" lengthAdjust="spacing" textLength="293" x="1351.5" y="186.0625">+getInstance() : Repositories</text><text fill="#000000" font-family="sans-serif" font-size="20" lengthAdjust="spacing" textLength="308" x="1351.5" y="209.3438">+getTaskCategoryRepository()</text><text fill="#000000" font-family="sans-serif" font-size="20" lengthAdjust="spacing" textLength="302" x="1351.5" y="232.625">+getOrganizationRepository()</text></g><!--class CreateTaskController--><g id="elem_CreateTaskController"><rect codeLine="78" fill="#F1F1F1" height="212.9688" id="CreateTaskController" rx="2.5" ry="2.5" style="stroke:#181818;stroke-width:0.5;" width="738" x="209.5" y="63.2168"/><ellipse cx="468.5" cy="80.2168" fill="#ADD1B2" rx="12" ry="12" style="stroke:#181818;stroke-width:1.0;"/><path d="M471.5625,87.2949 Q470.875,87.6543 470.125,87.8262 Q469.375,87.998 468.5469,87.998 Q465.5938,87.998 464.0313,86.0605 Q462.4844,84.1074 462.4844,80.4355 Q462.4844,76.7637 464.0313,74.8262 Q465.5938,72.873 468.5469,72.873 Q469.375,72.873 470.125,73.0449 Q470.8906,73.2168 471.5625,73.5762 L471.5625,76.7793 Q470.8125,76.0918 470.1094,75.7793 Q469.4219,75.4668 468.6719,75.4668 Q467.0938,75.4668 466.2813,76.7168 Q465.4844,77.9668 465.4844,80.4355 Q465.4844,82.9043 466.2813,84.1543 Q467.0938,85.4043 468.6719,85.4043 Q469.4219,85.4043 470.1094,85.0918 Q470.8125,84.7793 471.5625,84.0918 L471.5625,87.2949 Z " fill="#000000"/><text fill="#000000" font-family="sans-serif" font-size="20" lengthAdjust="spacing" textLength="211" x="490.5" y="87.1406">CreateTaskController</text><line style="stroke:#181818;stroke-width:0.5;" x1="210.5" x2="946.5" y1="97.2168" y2="97.2168"/><line style="stroke:#181818;stroke-width:0.5;" x1="210.5" x2="946.5" y1="105.2168" y2="105.2168"/><text fill="#000000" font-family="sans-serif" font-size="20" lengthAdjust="spacing" textLength="726" x="215.5" y="127.7813">+CreateTaskController(organizationRepository, taskCategoryRepository)</text><text fill="#000000" font-family="sans-serif" font-size="20" lengthAdjust="spacing" textLength="219" x="215.5" y="151.0625">+getTaskCategories()</text><text fill="#000000" font-family="sans-serif" font-size="20" lengthAdjust="spacing" textLength="471" x="215.5" y="174.3438">+createTask(userEmail, reference, description,</text><text fill="#000000" font-family="sans-serif" font-size="20" lengthAdjust="spacing" textLength="422" x="215.5" y="197.625">informalDescription, technicalDescription,</text><text fill="#000000" font-family="sans-serif" font-size="20" lengthAdjust="spacing" textLength="359" x="215.5" y="220.9063">duration, cost, categoryDescription)</text><text fill="#000000" font-family="sans-serif" font-size="20" lengthAdjust="spacing" textLength="577" x="215.5" y="244.1875">-getTaskCategoryByDescription(taskCategoryDescription)</text><text fill="#000000" font-family="sans-serif" font-size="20" lengthAdjust="spacing" textLength="283" x="215.5" y="267.4688">-getEmployeeFromSession()</text></g><g id="elem_GMN12"><path d="M983,118.2168 L983,221.3418 L1310,221.3418 L1310,128.2168 L1300,118.2168 L983,118.2168 " fill="#FEFFDD" style="stroke:#181818;stroke-width:0.5;"/><path d="M1300,118.2168 L1300,128.2168 L1310,128.2168 L1300,118.2168 " fill="#FEFFDD" style="stroke:#181818;stroke-width:1.0;"/><text fill="#000000" font-family="sans-serif" font-size="20" lengthAdjust="spacing" textLength="230" x="989" y="141.7813">- userEmail is obtained</text><text fill="#000000" font-family="sans-serif" font-size="20" lengthAdjust="spacing" textLength="214" x="989" y="165.0625">from the user session</text><text fill="#000000" font-family="sans-serif" font-size="20" lengthAdjust="spacing" textLength="214" x="989" y="188.3438">- categoryDescription</text><text fill="#000000" font-family="sans-serif" font-size="20" lengthAdjust="spacing" textLength="306" x="989" y="211.625">is retrieved from selected date</text></g><g id="elem_GMN15"><path d="M730.5,679.2168 L730.5,735.7793 A0,0 0 0 0 730.5,735.7793 L954.5,735.7793 A0,0 0 0 0 954.5,735.7793 L954.5,689.2168 L944.5,679.2168 L846.5,679.2168 L842.5,446.4168 L838.5,679.2168 L730.5,679.2168 A0,0 0 0 0 730.5,679.2168 " fill="#FEFFDD" style="stroke:#181818;stroke-width:0.5;"/><path d="M944.5,679.2168 L944.5,689.2168 L954.5,689.2168 L944.5,679.2168 " fill="#FEFFDD" style="stroke:#181818;stroke-width:0.5;"/><text fill="#000000" font-family="sans-serif" font-size="20" lengthAdjust="spacing" textLength="203" x="736.5" y="702.7813">- used for displaying</text><text fill="#000000" font-family="sans-serif" font-size="20" lengthAdjust="spacing" textLength="162" x="736.5" y="726.0625">the category list</text></g><!--class CreateTaskUI--><g id="elem_CreateTaskUI"><rect codeLine="98" fill="#F1F1F1" height="50" id="CreateTaskUI" rx="2.5" ry="2.5" style="stroke:#181818;stroke-width:0.5;" width="167" x="7" y="144.7168"/><ellipse cx="23" cy="161.7168" fill="#ADD1B2" rx="12" ry="12" style="stroke:#181818;stroke-width:1.0;"/><path d="M26.0625,168.7949 Q25.375,169.1543 24.625,169.3262 Q23.875,169.498 23.0469,169.498 Q20.0938,169.498 18.5313,167.5605 Q16.9844,165.6074 16.9844,161.9355 Q16.9844,158.2637 18.5313,156.3262 Q20.0938,154.373 23.0469,154.373 Q23.875,154.373 24.625,154.5449 Q25.3906,154.7168 26.0625,155.0762 L26.0625,158.2793 Q25.3125,157.5918 24.6094,157.2793 Q23.9219,156.9668 23.1719,156.9668 Q21.5938,156.9668 20.7813,158.2168 Q19.9844,159.4668 19.9844,161.9355 Q19.9844,164.4043 20.7813,165.6543 Q21.5938,166.9043 23.1719,166.9043 Q23.9219,166.9043 24.6094,166.5918 Q25.3125,166.2793 26.0625,165.5918 L26.0625,168.7949 Z " fill="#000000"/><text fill="#000000" font-family="sans-serif" font-size="20" lengthAdjust="spacing" textLength="133" x="38" y="168.6406">CreateTaskUI</text><line style="stroke:#181818;stroke-width:0.5;" x1="8" x2="173" y1="178.7168" y2="178.7168"/><line style="stroke:#181818;stroke-width:0.5;" x1="8" x2="173" y1="186.7168" y2="186.7168"/></g><!--link CreateTaskController to GMN12--><g id="link_CreateTaskController_GMN12"><path d="M947.52,169.7168 C953.63,169.7168 957.17,169.7168 957.17,169.7168 C957.17,169.7168 967.22,169.7168 982.7,169.7168 " fill="none" id="CreateTaskController-GMN12" style="stroke:#181818;stroke-width:1.0;stroke-dasharray:7.0,7.0;"/></g><!--link Repositories to Repositories--><g id="link_Repositories_Repositories"><path codeLine="101" d="M1665.78,145.3168 C1686.67,149.5168 1700.5,157.6468 1700.5,169.7168 C1700.5,180.7468 1688.94,188.4868 1671,192.9468 " fill="none" id="Repositories-to-Repositories" style="stroke:#181818;stroke-width:1.0;"/><polygon fill="#181818" points="1665.78,194.1168,1675.44,196.0362,1670.6572,193.0155,1673.6779,188.2327,1665.78,194.1168" style="stroke:#181818;stroke-width:1.0;"/><text fill="#000000" font-family="sans-serif" font-size="20" lengthAdjust="spacing" textLength="85" x="1706.5" y="176.7813">instance</text></g><!--link ApplicationSession to ApplicationSession--><g id="link_ApplicationSession_ApplicationSession"><path codeLine="102" d="M388.59,393.8268 C409.14,395.8968 423.5,401.1868 423.5,409.7168 C423.5,417.5068 411.5,422.6068 393.75,424.9968 " fill="none" id="ApplicationSession-to-ApplicationSession" style="stroke:#181818;stroke-width:1.0;"/><polygon fill="#181818" points="388.59,425.6068,397.9972,428.5231,393.5555,425.0201,397.0585,420.5784,388.59,425.6068" style="stroke:#181818;stroke-width:1.0;"/><text fill="#000000" font-family="sans-serif" font-size="20" lengthAdjust="spacing" textLength="85" x="429.5" y="416.7813">instance</text></g><!--link CreateTaskUI to CreateTaskController--><g id="link_CreateTaskUI_CreateTaskController"><path codeLine="104" d="M174.22,169.7168 C184.46,169.7168 194.66,169.7168 204.15,169.7168 " fill="none" id="CreateTaskUI-to-CreateTaskController" style="stroke:#181818;stroke-width:1.0;stroke-dasharray:7.0,7.0;"/><polygon fill="#181818" points="209.35,169.7168,200.35,165.7168,204.35,169.7168,200.35,173.7168,209.35,169.7168" style="stroke:#181818;stroke-width:1.0;"/></g><!--link CreateTaskController to Repositories--><g id="link_CreateTaskController_Repositories"><path codeLine="106" d="M947.61,68.1368 C958.97,65.0168 965.5,63.2168 965.5,63.2168 C965.5,63.2168 1087,32.2168 1087,32.2168 C1087,32.2168 1206,32.2168 1206,32.2168 C1206,32.2168 1327.5,63.2168 1327.5,63.2168 C1327.5,63.2168 1351.2,77.3968 1381.3,95.4068 " fill="none" id="CreateTaskController-to-Repositories" style="stroke:#181818;stroke-width:1.0;stroke-dasharray:7.0,7.0;"/><polygon fill="#181818" points="1385.78,98.0868,1380.1087,90.0347,1381.4888,95.5206,1376.0028,96.9006,1385.78,98.0868" style="stroke:#181818;stroke-width:1.0;"/><text fill="#000000" font-family="sans-serif" font-size="20" lengthAdjust="spacing" textLength="117" x="1088" y="27.7813">repositories</text></g><!--link Repositories to TaskCategoryRepository--><g id="link_Repositories_TaskCategoryRepository"><path codeLine="108" d="M1485.63,241.5768 C1473.58,284.5768 1460.5,331.2168 1460.5,331.2168 C1460.5,331.2168 1102.5,361.2168 1102.5,361.2168 C1102.5,361.2168 1077.07,365.8668 1042.12,372.2468 " fill="none" id="Repositories-to-TaskCategoryRepository" style="stroke:#181818;stroke-width:1.0;"/><polygon fill="#181818" points="1036.89,373.2068,1046.4568,375.547,1041.8107,372.3199,1045.0378,367.6739,1036.89,373.2068" style="stroke:#181818;stroke-width:1.0;"/><text fill="#000000" font-family="sans-serif" font-size="20" lengthAdjust="spacing" textLength="13" x="1056.1836" y="360.5195">1</text></g><!--link CreateTaskController to TaskCategory--><g id="link_CreateTaskController_TaskCategory"><path codeLine="110" d="M568.72,276.4968 C562.85,340.0568 556.5,408.7168 556.5,408.7168 C556.5,408.7168 556.5,408.7168 556.5,1088.2168 C556.5,1088.2168 620.24,1238.0768 655.19,1320.2668 " fill="none" id="CreateTaskController-to-TaskCategory" style="stroke:#181818;stroke-width:1.0;stroke-dasharray:7.0,7.0;"/><polygon fill="#181818" points="657.25,1325.0968,657.4331,1315.2496,655.3046,1320.4908,650.0635,1318.3623,657.25,1325.0968" style="stroke:#181818;stroke-width:1.0;"/></g><!--link CreateTaskController to OrganizationRepository--><g id="link_CreateTaskController_OrganizationRepository"><path codeLine="111" d="M947.61,271.3368 C958.97,274.4368 965.5,276.2168 965.5,276.2168 C965.5,276.2168 1171.5,306.2168 1171.5,306.2168 C1171.5,306.2168 1298.56,342.3968 1401.71,371.7568 " fill="none" id="CreateTaskController-to-OrganizationRepository" style="stroke:#181818;stroke-width:1.0;stroke-dasharray:7.0,7.0;"/><polygon fill="#181818" points="1406.6,373.1568,1399.0452,366.8382,1401.7924,371.7832,1396.8474,374.5304,1406.6,373.1568" style="stroke:#181818;stroke-width:1.0;"/><text fill="#000000" font-family="sans-serif" font-size="20" lengthAdjust="spacing" textLength="232" x="1259.5" y="325.7813">organizationRepository</text></g><!--link CreateTaskController to TaskCategoryRepository--><g id="link_CreateTaskController_TaskCategoryRepository"><path codeLine="112" d="M695.83,276.4968 C732.6,309.6468 770.91,344.1768 799.15,369.6368 " fill="none" id="CreateTaskController-to-TaskCategoryRepository" style="stroke:#181818;stroke-width:1.0;stroke-dasharray:7.0,7.0;"/><polygon fill="#181818" points="802.89,373.0068,798.8762,364.0129,799.1735,369.662,793.5245,369.9593,802.89,373.0068" style="stroke:#181818;stroke-width:1.0;"/><text fill="#000000" font-family="sans-serif" font-size="20" lengthAdjust="spacing" textLength="242" x="751.5" y="325.7813">TaskCategoryRepository</text></g><!--link Repositories to OrganizationRepository--><g id="link_Repositories_OrganizationRepository"><path codeLine="114" d="M1513.23,241.4768 C1517.74,282.7468 1523.27,333.3368 1527.05,367.9968 " fill="none" id="Repositories-to-OrganizationRepository" style="stroke:#181818;stroke-width:1.0;"/><polygon fill="#181818" points="1527.6,372.9968,1530.5994,363.6158,1527.0572,368.0263,1522.6467,364.4842,1527.6,372.9968" style="stroke:#181818;stroke-width:1.0;"/><text fill="#000000" font-family="sans-serif" font-size="20" lengthAdjust="spacing" textLength="13" x="1512.8775" y="360.5748">1</text></g><!--link OrganizationRepository to Organization--><g id="link_OrganizationRepository_Organization"><path codeLine="116" d="M1517.27,446.4168 C1507.76,470.2568 1494.5,503.5268 1480.63,538.3368 " fill="none" id="OrganizationRepository-to-Organization" style="stroke:#181818;stroke-width:1.0;"/><polygon fill="#181818" points="1478.75,543.0268,1485.8064,536.1561,1480.607,538.3844,1478.3786,533.1849,1478.75,543.0268" style="stroke:#181818;stroke-width:1.0;"/><text fill="#000000" font-family="sans-serif" font-size="20" lengthAdjust="spacing" textLength="10" x="1471.4801" y="530.6055">*</text></g><!--link ApplicationSession to UserSession--><g id="link_ApplicationSession_UserSession"><path codeLine="117" d="M255.67,458.2768 C234.07,515.8568 198.07,611.8568 177.73,666.1168 " fill="none" id="ApplicationSession-to-UserSession" style="stroke:#181818;stroke-width:1.0;"/><polygon fill="#181818" points="175.93,670.9168,182.8354,663.8943,177.6856,666.2352,175.3448,661.0853,175.93,670.9168" style="stroke:#181818;stroke-width:1.0;"/><text fill="#000000" font-family="sans-serif" font-size="20" lengthAdjust="spacing" textLength="119" x="245.5" y="507.7813">userSession</text><text fill="#000000" font-family="sans-serif" font-size="20" lengthAdjust="spacing" textLength="13" x="164.0778" y="658.4816">1</text></g><!--link CreateTaskController to Organization--><g id="link_CreateTaskController_Organization"><path codeLine="119" d="M908.66,276.2268 C963.26,293.6768 1002.5,306.2168 1002.5,306.2168 C1002.5,306.2168 1092.5,361.2168 1092.5,361.2168 C1092.5,361.2168 1163.5,458.2168 1163.5,458.2168 C1163.5,458.2168 1200.1,494.5968 1245.29,539.5168 " fill="none" id="CreateTaskController-to-Organization" style="stroke:#181818;stroke-width:1.0;stroke-dasharray:7.0,7.0;"/><polygon fill="#181818" points="1248.84,543.0368,1245.2673,533.8588,1245.2902,539.5156,1239.6334,539.5385,1248.84,543.0368" style="stroke:#181818;stroke-width:1.0;"/><text fill="#000000" font-family="sans-serif" font-size="20" lengthAdjust="spacing" textLength="126" x="1164.5" y="416.7813">organization</text><text fill="#000000" font-family="sans-serif" font-size="20" lengthAdjust="spacing" textLength="13" x="1228.0843" y="530.616">1</text></g><!--link CreateTaskController to ApplicationSession--><g id="link_CreateTaskController_ApplicationSession"><path codeLine="120" d="M442.95,276.4968 C406.71,304.7668 369.18,334.0568 338.68,357.8568 " fill="none" id="CreateTaskController-to-ApplicationSession" style="stroke:#181818;stroke-width:1.0;stroke-dasharray:7.0,7.0;"/><polygon fill="#181818" points="334.61,361.0268,344.1681,358.6516,338.5545,357.9541,339.2519,352.3404,334.61,361.0268" style="stroke:#181818;stroke-width:1.0;"/></g><!--link CreateTaskController to UserSession--><g id="link_CreateTaskController_UserSession"><path codeLine="121" d="M335.8,276.2768 C234.75,320.2268 140.5,361.2168 140.5,361.2168 C140.5,361.2168 140.5,458.2168 140.5,458.2168 C140.5,458.2168 152.62,595.1668 158.87,665.7368 " fill="none" id="CreateTaskController-to-UserSession" style="stroke:#181818;stroke-width:1.0;stroke-dasharray:7.0,7.0;"/><polygon fill="#181818" points="159.35,671.1168,162.538,661.7982,158.9076,666.1364,154.5694,662.506,159.35,671.1168" style="stroke:#181818;stroke-width:1.0;"/></g><!--link Task to TaskCategory--><g id="link_Task_TaskCategory"><path codeLine="122" d="M922.69,1217.3568 C863.96,1254.5668 803.32,1292.9968 757.04,1322.3168 " fill="none" id="Task-to-TaskCategory" style="stroke:#181818;stroke-width:1.0;"/><polygon fill="#181818" points="752.61,1325.1268,762.3517,1323.6781,756.8307,1322.4461,758.0626,1316.925,752.61,1325.1268" style="stroke:#181818;stroke-width:1.0;"/><text fill="#000000" font-family="sans-serif" font-size="20" lengthAdjust="spacing" textLength="132" x="876.5" y="1266.7813">taskCategory</text><text fill="#000000" font-family="sans-serif" font-size="20" lengthAdjust="spacing" textLength="10" x="901.9232" y="1243.2439">*</text><text fill="#000000" font-family="sans-serif" font-size="20" lengthAdjust="spacing" textLength="13" x="748.8295" y="1312.6649">1</text></g><!--link TaskCategoryRepository to TaskCategory--><g id="link_TaskCategoryRepository_TaskCategory"><path codeLine="123" d="M807.66,446.2268 C769.15,485.4768 712.5,543.2168 712.5,543.2168 C712.5,543.2168 687.42,1137.6968 679.72,1320.1268 " fill="none" id="TaskCategoryRepository-to-TaskCategory" style="stroke:#181818;stroke-width:1.0;"/><polygon fill="#181818" points="679.51,1325.1368,683.8917,1316.3163,679.7241,1320.1414,675.899,1315.9738,679.51,1325.1368" style="stroke:#181818;stroke-width:1.0;"/><text fill="#000000" font-family="sans-serif" font-size="20" lengthAdjust="spacing" textLength="132" x="698.5" y="921.7813">taskCategory</text><text fill="#000000" font-family="sans-serif" font-size="20" lengthAdjust="spacing" textLength="13" x="787.5547" y="473.043">1</text><text fill="#000000" font-family="sans-serif" font-size="20" lengthAdjust="spacing" textLength="10" x="669.1082" y="1312.6763">*</text></g><!--link Organization to Task--><g id="link_Organization_Task"><path codeLine="124" d="M1289.08,872.3768 C1268.6,899.3068 1247.6,926.9368 1227.77,953.0068 " fill="none" id="Organization-to-Task" style="stroke:#181818;stroke-width:1.0;"/><polygon fill="#181818" points="1224.6,957.1768,1233.23,952.4309,1227.6251,953.1957,1226.8602,947.5908,1224.6,957.1768" style="stroke:#181818;stroke-width:1.0;"/><text fill="#000000" font-family="sans-serif" font-size="20" lengthAdjust="spacing" textLength="52" x="1262.5" y="921.7813">tasks</text><text fill="#000000" font-family="sans-serif" font-size="20" lengthAdjust="spacing" textLength="13" x="1270.1477" y="898.9214">1</text><text fill="#000000" font-family="sans-serif" font-size="20" lengthAdjust="spacing" textLength="10" x="1219.9823" y="944.5801">*</text></g><!--link Task to Employee--><g id="link_Task_Employee"><path codeLine="125" d="M1209.7,1217.5668 C1227.37,1245.0368 1245.46,1273.1568 1261.3,1297.7868 " fill="none" id="Task-to-Employee" style="stroke:#181818;stroke-width:1.0;"/><polygon fill="#181818" points="1264.03,1302.0168,1262.5045,1292.2868,1261.3161,1297.8174,1255.7855,1296.629,1264.03,1302.0168" style="stroke:#181818;stroke-width:1.0;"/><text fill="#000000" font-family="sans-serif" font-size="20" lengthAdjust="spacing" textLength="101" x="1241.5" y="1266.7813">createdBy</text></g><!--link Organization to Employee--><g id="link_Organization_Employee"><path codeLine="127" d="M1396.76,872.4068 C1381.56,1021.0568 1361.5,1217.2168 1361.5,1217.2168 C1361.5,1217.2168 1351.5,1272.2168 1351.5,1272.2168 C1351.5,1272.2168 1347.07,1282.8068 1341.1,1297.1168 " fill="none" id="Organization-to-Employee" style="stroke:#181818;stroke-width:1.0;"/><polygon fill="#181818" points="1339.01,1302.0968,1346.1713,1295.3354,1340.9381,1297.4835,1338.79,1292.2504,1339.01,1302.0968" style="stroke:#181818;stroke-width:1.0;"/><text fill="#000000" font-family="sans-serif" font-size="20" lengthAdjust="spacing" textLength="84" x="1388.5" y="1094.2813">employs</text><text fill="#000000" font-family="sans-serif" font-size="20" lengthAdjust="spacing" textLength="10" x="1331.4227" y="1289.4868">*</text></g><!--SRC=[jLPBRzGm4BxxLrXSkeKK5OuzLEe3H2yWiVJ6nPlCxbfrxCXsMgM8_yxOUOrJf-g57ghiF3v_y_2CtOFKZR2YLgPyW8fNi1Ujyb-Dzblv3FppEJjnemslZJRbqPeQkBSji5dJYF91763hEmNSGkc5FYXgu8wYCazI7_XUA4SrIchmNGEyCQeBF-Y9az9ORnZnAfLmxifxAtUjXxlIwCZtdB4J1NlFlU5M7ewULpBGaKOp5dtuLTCeMOeWse9pGVE7SVpxm9r7SSaFuEyqVkiIDgU32cKthRM0UUcTKFDtXBntO9TOw134NseX5RNzKZVAT02yDppZMjGmV48m7huRusIaFVmy6ipCXF9Bk8S9OOjPmCHQs0CIB24LL-1AAnk2DIYatXjR2tMxPk2XF6fCLSRYJdiuWELLQmKHtvfsXmrG6kVPa8V0T3DHAoYTuhVES2YovwBjU5OHyV6_1U6XkkxG0m-vmHy7OxlJD4kZU9ajcXP2TJJV43r1_64FGildo6E9I0evI1w5_zxMEx2f-0bsMDk5RL_WHDItmo0JLHLJ6K8z7MIFGiaA2IyK7xZGtTXdtuJhUp2YZGOqZaqWNinaYq1mYmIBdbJH4ob2ItgXhghAOgyNl1OQhxmT8Vjol5RkfED8ORFrvijoqnhVqkBqkS3xDePytIKHinEavyGZJLEsHNv2l7HpiyHRJ2skwSblQ94y8hMudWgLS9xG9WG9RceuAgGJQfvQ_28noaSpiwCWUVvqXDrCbRx1FM6DKZW9nlXooet9OgOrdUMdMReqLj9hxJXa2_v_fiohBRVU76zlrw-uK9Ebees7ONkPVJQX0yWKEvUEcvqNk2shgDiZ9lT7Y2RS3Rkfzyf453M8OG4d3ppYGo02E52uEyEpG7Z1G5SyK1i8xeptQ8CCypqrSqGqWwj2kaQ93WTRr0Ho8nDSyxWmPlnbcztVONjXOfBBS7QPNeuB72zz-xENApvOPwJ4XoN7VRpCvvrbU__Z2ogMNhuNlDzzUhUMj9K3y0Jgi6wrCdqkUFuAlksu16YDU1ha46MU3cChDAFR-zGjMyq1dZoya5bBdc7hWIrfBNApxfXvEAxQqXTXVAk5gCuofSVJwQHWAsaFRcDoNdDF0biw3SQkPnGqqsFqOdvDfSMP08Wfn4_7_W40]--></g></svg>