<?xml version="1.0" encoding="UTF-8" standalone="no"?><svg xmlns="http://www.w3.org/2000/svg" xmlns:xlink="http://www.w3.org/1999/xlink" contentStyleType="text/css" height="979px" preserveAspectRatio="none" style="width:1309px;height:979px;background:#FFFFFF;" version="1.1" viewBox="0 0 1309 979" width="1309px" zoomAndPan="magnify"><defs/><g><rect fill="#FFFFFF" height="781.125" style="stroke:#181818;stroke-width:1.0;" width="10" x="81.5" y="100.1563"/><rect fill="#FFFFFF" height="749.9688" style="stroke:#181818;stroke-width:1.0;" width="10" x="393.5" y="131.3125"/><rect fill="#FFFFFF" height="612.5" style="stroke:#181818;stroke-width:1.0;" width="10" x="704.5" y="220.625"/><rect fill="#FFFFFF" height="39.1563" style="stroke:#181818;stroke-width:1.0;" width="10" x="903.5" y="259.7813"/><rect fill="#FFFFFF" height="39.1563" style="stroke:#181818;stroke-width:1.0;" width="10" x="1043.5" y="338.0938"/><rect fill="#FFFFFF" height="39.1563" style="stroke:#181818;stroke-width:1.0;" width="10" x="1208.5" y="416.4063"/><rect fill="none" height="272.25" style="stroke:#000000;stroke-width:1.5;" width="352" x="566.5" y="522.7188"/><rect fill="none" height="168.7813" style="stroke:#000000;stroke-width:1.5;" width="332" x="576.5" y="567.0313"/><line style="stroke:#181818;stroke-width:0.5;stroke-dasharray:5.0,5.0;" x1="86" x2="86" y1="90.1563" y2="890.2813"/><line style="stroke:#181818;stroke-width:0.5;stroke-dasharray:5.0,5.0;" x1="398.5" x2="398.5" y1="90.1563" y2="890.2813"/><line style="stroke:#181818;stroke-width:0.5;stroke-dasharray:5.0,5.0;" x1="709.5" x2="709.5" y1="174.3906" y2="890.2813"/><line style="stroke:#181818;stroke-width:0.5;stroke-dasharray:5.0,5.0;" x1="908.5" x2="908.5" y1="90.1563" y2="890.2813"/><line style="stroke:#181818;stroke-width:0.5;stroke-dasharray:5.0,5.0;" x1="1048.5" x2="1048.5" y1="90.1563" y2="890.2813"/><line style="stroke:#181818;stroke-width:0.5;stroke-dasharray:5.0,5.0;" x1="1213.5" x2="1213.5" y1="90.1563" y2="890.2813"/><text fill="#000000" font-family="sans-serif" font-size="20" lengthAdjust="spacing" textLength="157" x="5" y="85.7617">Network Manager</text><ellipse cx="86.5" cy="13.5" fill="#E2E2F0" rx="8" ry="8" style="stroke:#181818;stroke-width:0.5;"/><path d="M86.5,21.5 L86.5,48.5 M73.5,29.5 L99.5,29.5 M86.5,48.5 L73.5,63.5 M86.5,48.5 L99.5,63.5 " fill="none" style="stroke:#181818;stroke-width:0.5;"/><text fill="#000000" font-family="sans-serif" font-size="20" lengthAdjust="spacing" textLength="157" x="5" y="910.043">Network Manager</text><ellipse cx="86.5" cy="922.9375" fill="#E2E2F0" rx="8" ry="8" style="stroke:#181818;stroke-width:0.5;"/><path d="M86.5,930.9375 L86.5,957.9375 M73.5,938.9375 L99.5,938.9375 M86.5,957.9375 L73.5,972.9375 M86.5,957.9375 L99.5,972.9375 " fill="none" style="stroke:#181818;stroke-width:0.5;"/><rect fill="#E2E2F0" height="39.1563" rx="2.5" ry="2.5" style="stroke:#181818;stroke-width:0.5;" width="180" x="308.5" y="50"/><text fill="#000000" font-family="sans-serif" font-size="20" lengthAdjust="spacing" textLength="166" x="315.5" y="77.7617">:PropertyServiceUI</text><rect fill="#E2E2F0" height="39.1563" rx="2.5" ry="2.5" style="stroke:#181818;stroke-width:0.5;" width="180" x="308.5" y="889.2813"/><text fill="#000000" font-family="sans-serif" font-size="20" lengthAdjust="spacing" textLength="166" x="315.5" y="917.043">:PropertyServiceUI</text><rect fill="#E2E2F0" height="39.1563" rx="2.5" ry="2.5" style="stroke:#181818;stroke-width:0.5;" width="246" x="586.5" y="889.2813"/><text fill="#000000" font-family="sans-serif" font-size="20" lengthAdjust="spacing" textLength="232" x="593.5" y="917.043">:PropertyServiceController</text><rect fill="#E2E2F0" height="39.1563" rx="2.5" ry="2.5" style="stroke:#181818;stroke-width:0.5;" width="130" x="843.5" y="50"/><text fill="#000000" font-family="sans-serif" font-size="20" lengthAdjust="spacing" textLength="116" x="850.5" y="77.7617">:Repositories</text><rect fill="#E2E2F0" height="39.1563" rx="2.5" ry="2.5" style="stroke:#181818;stroke-width:0.5;" width="130" x="843.5" y="889.2813"/><text fill="#000000" font-family="sans-serif" font-size="20" lengthAdjust="spacing" textLength="116" x="850.5" y="917.043">:Repositories</text><rect fill="#E2E2F0" height="64.3125" rx="2.5" ry="2.5" style="stroke:#181818;stroke-width:0.5;" width="130" x="983.5" y="24.8438"/><text fill="#000000" font-family="sans-serif" font-size="20" lengthAdjust="spacing" textLength="103" x="997" y="52.6055">repositories</text><text fill="#000000" font-family="sans-serif" font-size="20" lengthAdjust="spacing" textLength="116" x="990.5" y="77.7617">:Repositories</text><rect fill="#E2E2F0" height="64.3125" rx="2.5" ry="2.5" style="stroke:#181818;stroke-width:0.5;" width="130" x="983.5" y="889.2813"/><text fill="#000000" font-family="sans-serif" font-size="20" lengthAdjust="spacing" textLength="103" x="997" y="917.043">repositories</text><text fill="#000000" font-family="sans-serif" font-size="20" lengthAdjust="spacing" textLength="116" x="990.5" y="942.1992">:Repositories</text><rect fill="#E2E2F0" height="64.3125" rx="2.5" ry="2.5" style="stroke:#181818;stroke-width:0.5;" width="180" x="1123.5" y="24.8438"/><text fill="#000000" font-family="sans-serif" font-size="20" lengthAdjust="spacing" textLength="166" x="1130.5" y="52.6055">AgencyRepository:</text><text fill="#000000" font-family="sans-serif" font-size="20" lengthAdjust="spacing" textLength="160" x="1133.5" y="77.7617">AgencyRepository</text><rect fill="#E2E2F0" height="64.3125" rx="2.5" ry="2.5" style="stroke:#181818;stroke-width:0.5;" width="180" x="1123.5" y="889.2813"/><text fill="#000000" font-family="sans-serif" font-size="20" lengthAdjust="spacing" textLength="166" x="1130.5" y="917.043">AgencyRepository:</text><text fill="#000000" font-family="sans-serif" font-size="20" lengthAdjust="spacing" textLength="160" x="1133.5" y="942.1992">AgencyRepository</text><rect fill="#FFFFFF" height="781.125" style="stroke:#181818;stroke-width:1.0;" width="10" x="81.5" y="100.1563"/><rect fill="#FFFFFF" height="749.9688" style="stroke:#181818;stroke-width:1.0;" width="10" x="393.5" y="131.3125"/><rect fill="#FFFFFF" height="612.5" style="stroke:#181818;stroke-width:1.0;" width="10" x="704.5" y="220.625"/><rect fill="#FFFFFF" height="39.1563" style="stroke:#181818;stroke-width:1.0;" width="10" x="903.5" y="259.7813"/><rect fill="#FFFFFF" height="39.1563" style="stroke:#181818;stroke-width:1.0;" width="10" x="1043.5" y="338.0938"/><rect fill="#FFFFFF" height="39.1563" style="stroke:#181818;stroke-width:1.0;" width="10" x="1208.5" y="416.4063"/><polygon fill="#181818" points="381.5,127.3125,391.5,131.3125,381.5,135.3125,385.5,131.3125" style="stroke:#181818;stroke-width:1.0;"/><line style="stroke:#181818;stroke-width:1.0;" x1="91.5" x2="387.5" y1="131.3125" y2="131.3125"/><text fill="#000000" font-family="sans-serif" font-size="20" font-weight="bold" lengthAdjust="spacing" textLength="11" x="98.5" y="124.918">1</text><text fill="#000000" font-family="sans-serif" font-size="20" lengthAdjust="spacing" textLength="260" x="113.5" y="124.918">asks to see agencies subsets</text><polygon fill="#181818" points="574.5,166.4688,584.5,170.4688,574.5,174.4688,578.5,170.4688" style="stroke:#181818;stroke-width:1.0;"/><line style="stroke:#181818;stroke-width:1.0;" x1="403.5" x2="580.5" y1="170.4688" y2="170.4688"/><text fill="#000000" font-family="sans-serif" font-size="20" font-weight="bold" lengthAdjust="spacing" textLength="11" x="410.5" y="164.0742">2</text><text fill="#000000" font-family="sans-serif" font-size="20" lengthAdjust="spacing" textLength="56" x="425.5" y="164.0742">create</text><rect fill="#E2E2F0" height="39.1563" rx="2.5" ry="2.5" style="stroke:#181818;stroke-width:0.5;" width="246" x="586.5" y="139.3125"/><text fill="#000000" font-family="sans-serif" font-size="20" lengthAdjust="spacing" textLength="232" x="593.5" y="167.0742">:PropertyServiceController</text><polygon fill="#181818" points="692.5,216.625,702.5,220.625,692.5,224.625,696.5,220.625" style="stroke:#181818;stroke-width:1.0;"/><line style="stroke:#181818;stroke-width:1.0;" x1="403.5" x2="698.5" y1="220.625" y2="220.625"/><text fill="#000000" font-family="sans-serif" font-size="20" font-weight="bold" lengthAdjust="spacing" textLength="11" x="410.5" y="214.2305">3</text><text fill="#000000" font-family="sans-serif" font-size="20" lengthAdjust="spacing" textLength="122" x="425.5" y="214.2305">getAgencies()</text><polygon fill="#181818" points="891.5,255.7813,901.5,259.7813,891.5,263.7813,895.5,259.7813" style="stroke:#181818;stroke-width:1.0;"/><line style="stroke:#181818;stroke-width:1.0;" x1="714.5" x2="897.5" y1="259.7813" y2="259.7813"/><text fill="#000000" font-family="sans-serif" font-size="20" font-weight="bold" lengthAdjust="spacing" textLength="11" x="721.5" y="253.3867">4</text><text fill="#000000" font-family="sans-serif" font-size="20" lengthAdjust="spacing" textLength="116" x="736.5" y="253.3867">getInstance()</text><polygon fill="#181818" points="725.5,294.9375,715.5,298.9375,725.5,302.9375,721.5,298.9375" style="stroke:#181818;stroke-width:1.0;"/><line style="stroke:#181818;stroke-width:1.0;stroke-dasharray:2.0,2.0;" x1="719.5" x2="907.5" y1="298.9375" y2="298.9375"/><text fill="#000000" font-family="sans-serif" font-size="20" font-weight="bold" lengthAdjust="spacing" textLength="11" x="731.5" y="292.543">5</text><text fill="#000000" font-family="sans-serif" font-size="20" lengthAdjust="spacing" textLength="103" x="746.5" y="292.543">repositories</text><polygon fill="#181818" points="1031.5,334.0938,1041.5,338.0938,1031.5,342.0938,1035.5,338.0938" style="stroke:#181818;stroke-width:1.0;"/><line style="stroke:#181818;stroke-width:1.0;" x1="714.5" x2="1037.5" y1="338.0938" y2="338.0938"/><text fill="#000000" font-family="sans-serif" font-size="20" font-weight="bold" lengthAdjust="spacing" textLength="11" x="721.5" y="331.6992">6</text><text fill="#000000" font-family="sans-serif" font-size="20" lengthAdjust="spacing" textLength="202" x="736.5" y="331.6992">getAgencyRepository()</text><polygon fill="#181818" points="725.5,373.25,715.5,377.25,725.5,381.25,721.5,377.25" style="stroke:#181818;stroke-width:1.0;"/><line style="stroke:#181818;stroke-width:1.0;stroke-dasharray:2.0,2.0;" x1="719.5" x2="1047.5" y1="377.25" y2="377.25"/><text fill="#000000" font-family="sans-serif" font-size="20" font-weight="bold" lengthAdjust="spacing" textLength="11" x="731.5" y="370.8555">7</text><text fill="#000000" font-family="sans-serif" font-size="20" lengthAdjust="spacing" textLength="160" x="746.5" y="370.8555">AgencyRepository</text><polygon fill="#181818" points="1196.5,412.4063,1206.5,416.4063,1196.5,420.4063,1200.5,416.4063" style="stroke:#181818;stroke-width:1.0;"/><line style="stroke:#181818;stroke-width:1.0;" x1="714.5" x2="1202.5" y1="416.4063" y2="416.4063"/><text fill="#000000" font-family="sans-serif" font-size="20" font-weight="bold" lengthAdjust="spacing" textLength="11" x="721.5" y="410.0117">8</text><text fill="#000000" font-family="sans-serif" font-size="20" lengthAdjust="spacing" textLength="122" x="736.5" y="410.0117">getAgencies()</text><polygon fill="#181818" points="725.5,451.5625,715.5,455.5625,725.5,459.5625,721.5,455.5625" style="stroke:#181818;stroke-width:1.0;"/><line style="stroke:#181818;stroke-width:1.0;stroke-dasharray:2.0,2.0;" x1="719.5" x2="1212.5" y1="455.5625" y2="455.5625"/><text fill="#000000" font-family="sans-serif" font-size="20" font-weight="bold" lengthAdjust="spacing" textLength="11" x="731.5" y="449.168">9</text><text fill="#000000" font-family="sans-serif" font-size="20" lengthAdjust="spacing" textLength="80" x="746.5" y="449.168">Agencies</text><line style="stroke:#181818;stroke-width:1.0;" x1="714.5" x2="756.5" y1="494.7188" y2="494.7188"/><line style="stroke:#181818;stroke-width:1.0;" x1="756.5" x2="756.5" y1="494.7188" y2="507.7188"/><line style="stroke:#181818;stroke-width:1.0;" x1="715.5" x2="756.5" y1="507.7188" y2="507.7188"/><polygon fill="#181818" points="725.5,503.7188,715.5,507.7188,725.5,511.7188,721.5,507.7188" style="stroke:#181818;stroke-width:1.0;"/><text fill="#000000" font-family="sans-serif" font-size="20" font-weight="bold" lengthAdjust="spacing" textLength="22" x="721.5" y="488.3242">10</text><text fill="#000000" font-family="sans-serif" font-size="20" lengthAdjust="spacing" textLength="65" x="747.5" y="488.3242">int j = 0</text><path d="M566.5,522.7188 L652.5,522.7188 L652.5,539.875 L642.5,549.875 L566.5,549.875 L566.5,522.7188 " fill="#EEEEEE" style="stroke:#000000;stroke-width:1.5;"/><rect fill="none" height="272.25" style="stroke:#000000;stroke-width:1.5;" width="352" x="566.5" y="522.7188"/><text fill="#000000" font-family="sans-serif" font-size="20" font-weight="bold" lengthAdjust="spacing" textLength="41" x="581.5" y="544.4805">loop</text><text fill="#000000" font-family="sans-serif" font-size="20" font-weight="bold" lengthAdjust="spacing" textLength="133" x="667.5" y="545.4805">[AgenciesDto]</text><path d="M576.5,567.0313 L644.5,567.0313 L644.5,584.1875 L634.5,594.1875 L576.5,594.1875 L576.5,567.0313 " fill="#EEEEEE" style="stroke:#000000;stroke-width:1.5;"/><rect fill="none" height="168.7813" style="stroke:#000000;stroke-width:1.5;" width="332" x="576.5" y="567.0313"/><text fill="#000000" font-family="sans-serif" font-size="20" font-weight="bold" lengthAdjust="spacing" textLength="23" x="591.5" y="588.793">alt</text><text fill="#000000" font-family="sans-serif" font-size="20" font-weight="bold" lengthAdjust="spacing" textLength="83" x="659.5" y="589.793">[j is pair]</text><line style="stroke:#181818;stroke-width:1.0;" x1="714.5" x2="756.5" y1="635.5" y2="635.5"/><line style="stroke:#181818;stroke-width:1.0;" x1="756.5" x2="756.5" y1="635.5" y2="648.5"/><line style="stroke:#181818;stroke-width:1.0;" x1="715.5" x2="756.5" y1="648.5" y2="648.5"/><polygon fill="#181818" points="725.5,644.5,715.5,648.5,725.5,652.5,721.5,648.5" style="stroke:#181818;stroke-width:1.0;"/><text fill="#000000" font-family="sans-serif" font-size="20" font-weight="bold" lengthAdjust="spacing" textLength="22" x="721.5" y="629.1055">11</text><text fill="#000000" font-family="sans-serif" font-size="20" lengthAdjust="spacing" textLength="149" x="747.5" y="629.1055">save in Alpha set</text><line style="stroke:#000000;stroke-width:1.0;stroke-dasharray:2.0,2.0;" x1="576.5" x2="908.5" y1="657.5" y2="657.5"/><text fill="#000000" font-family="sans-serif" font-size="20" font-weight="bold" lengthAdjust="spacing" textLength="83" x="581.5" y="678.2617">[j is odd]</text><line style="stroke:#181818;stroke-width:1.0;" x1="714.5" x2="756.5" y1="714.8125" y2="714.8125"/><line style="stroke:#181818;stroke-width:1.0;" x1="756.5" x2="756.5" y1="714.8125" y2="727.8125"/><line style="stroke:#181818;stroke-width:1.0;" x1="715.5" x2="756.5" y1="727.8125" y2="727.8125"/><polygon fill="#181818" points="725.5,723.8125,715.5,727.8125,725.5,731.8125,721.5,727.8125" style="stroke:#181818;stroke-width:1.0;"/><text fill="#000000" font-family="sans-serif" font-size="20" font-weight="bold" lengthAdjust="spacing" textLength="22" x="721.5" y="708.418">12</text><text fill="#000000" font-family="sans-serif" font-size="20" lengthAdjust="spacing" textLength="141" x="747.5" y="708.418">save in Beta set</text><line style="stroke:#181818;stroke-width:1.0;" x1="714.5" x2="756.5" y1="773.9688" y2="773.9688"/><line style="stroke:#181818;stroke-width:1.0;" x1="756.5" x2="756.5" y1="773.9688" y2="786.9688"/><line style="stroke:#181818;stroke-width:1.0;" x1="715.5" x2="756.5" y1="786.9688" y2="786.9688"/><polygon fill="#181818" points="725.5,782.9688,715.5,786.9688,725.5,790.9688,721.5,786.9688" style="stroke:#181818;stroke-width:1.0;"/><text fill="#000000" font-family="sans-serif" font-size="20" font-weight="bold" lengthAdjust="spacing" textLength="22" x="721.5" y="767.5742">13</text><text fill="#000000" font-family="sans-serif" font-size="20" lengthAdjust="spacing" textLength="28" x="747.5" y="767.5742">j++</text><polygon fill="#181818" points="414.5,829.125,404.5,833.125,414.5,837.125,410.5,833.125" style="stroke:#181818;stroke-width:1.0;"/><line style="stroke:#181818;stroke-width:1.0;" x1="408.5" x2="708.5" y1="833.125" y2="833.125"/><text fill="#000000" font-family="sans-serif" font-size="20" font-weight="bold" lengthAdjust="spacing" textLength="22" x="420.5" y="826.7305">14</text><text fill="#000000" font-family="sans-serif" font-size="20" lengthAdjust="spacing" textLength="251" x="446.5" y="826.7305">Alpha set and Beta set Dto's</text><polygon fill="#181818" points="102.5,868.2813,92.5,872.2813,102.5,876.2813,98.5,872.2813" style="stroke:#181818;stroke-width:1.0;"/><line style="stroke:#181818;stroke-width:1.0;stroke-dasharray:2.0,2.0;" x1="96.5" x2="392.5" y1="872.2813" y2="872.2813"/><text fill="#000000" font-family="sans-serif" font-size="20" font-weight="bold" lengthAdjust="spacing" textLength="22" x="108.5" y="865.8867">15</text><text fill="#000000" font-family="sans-serif" font-size="20" lengthAdjust="spacing" textLength="252" x="134.5" y="865.8867">show Alpha set and Beta set</text><!--SRC=[VPDFRzim3CNl-XH4BjrQ12Xs3B01QOS10PgWQDfRBuhCsgeLqP2KPDcd7_rVjfFwIBtV8_L4-rpRGZgvDwHoJ2313tamuG_PiDN_47xS2zzAO4-MLEPeZ_0XZSVeg90gbobkmzaWE5H1sjJ40f_9X4xQfWqgv26GFUntw8IuoNJ2daHXHt-5L84Sp3OOJkHoM4lBpcu6qiDcBTWkQAKBQGFC5i-E2dJXl4Ltr0hVLfNiRVMrx96lvyYOnlNnzULf1BnWGLxp71fzfUaAvwqkhyR33n4N4UzsQl3yj7mT4iiKhJhtnejtEovLvBWeH1cHFig0PI02cc-pXlallZiicCez10AF2BB4UGhmXvt7u7kWS-6ykYBpx596SdlBJieXAxXbN-TgYc7Ps7xxtazJ1Iag3MilH5QZA-jvFnJ6wALynIM7UJF50kB4HO9VMxL3bSyGNI2ADPwcUYnHQVj-atU8UjP0ssIil9xOz6qdxBoFlNM8EqyTsYaQIFEkVS9Fk1U6gEWyVWSIqfH7slFlgzsOy_A83CFI59daJGf28F-vDK19Sat_WA6MeqqcmtpUtOdXGRMlNG-GDkaSW6Uy6LosNh1o5PdaVUUk6Psku692ml3x3m00]--></g></svg>