<?xml version="1.0" encoding="UTF-8" standalone="no"?><svg xmlns="http://www.w3.org/2000/svg" xmlns:xlink="http://www.w3.org/1999/xlink" contentStyleType="text/css" height="1053px" preserveAspectRatio="none" style="width:641px;height:1053px;background:#FFFFFF;" version="1.1" viewBox="0 0 641 1053" width="641px" zoomAndPan="magnify"><defs/><g><!--class PropertySubsetServiceUI--><g id="elem_PropertySubsetServiceUI"><rect codeLine="17" fill="#FFDAB9" height="51.1563" id="PropertySubsetServiceUI" rx="2.5" ry="2.5" style="stroke:#4169E1;stroke-width:0.5;" width="255" x="175.5" y="7"/><ellipse cx="191.5" cy="24.5781" fill="#ADD1B2" rx="12" ry="12" style="stroke:#181818;stroke-width:1.0;"/><path d="M193.6406,19.5 Q193.8281,19.25 194.0469,19.125 Q194.2656,18.9844 194.5156,18.9844 Q194.9531,18.9844 195.2344,19.2969 Q195.5156,19.5938 195.5156,20.3125 L195.5156,22.0156 Q195.5156,22.7344 195.2344,23.0469 Q194.9531,23.3594 194.5156,23.3594 Q194.125,23.3594 193.875,23.125 Q193.625,22.9063 193.5156,22.2969 Q193.4531,21.875 193.2344,21.6563 Q192.8438,21.2188 192.125,20.9531 Q191.4063,20.6875 190.6875,20.6875 Q189.7813,20.6875 189.0313,21.0781 Q188.2813,21.4688 187.7031,22.3594 Q187.125,23.2344 187.125,24.4375 L187.125,25.7344 Q187.125,27.1875 188.1719,28.1563 Q189.2344,29.125 191.0938,29.125 Q192.2031,29.125 192.9844,28.8125 Q193.4219,28.6406 193.9375,28.125 Q194.25,27.8125 194.4219,27.7188 Q194.5938,27.625 194.8281,27.625 Q195.2188,27.625 195.5156,27.9375 Q195.8281,28.2344 195.8281,28.6406 Q195.8281,29.0469 195.4219,29.5156 Q194.8281,30.2031 193.8906,30.5938 Q192.625,31.125 191.1094,31.125 Q189.3281,31.125 187.9063,30.3906 Q186.75,29.7969 185.9375,28.5313 Q185.125,27.2656 185.125,25.7813 L185.125,24.4219 Q185.125,22.8594 185.8438,21.5156 Q186.5781,20.1563 187.8594,19.4219 Q189.1563,18.6875 190.6094,18.6875 Q191.4688,18.6875 192.2188,18.8906 Q192.9844,19.0938 193.6406,19.5 Z " fill="#000000"/><text fill="#000000" font-family="sans-serif" font-size="20" lengthAdjust="spacing" textLength="221" x="206.5" y="32.7617">PropertySubsetServiceUI</text><line style="stroke:#4169E1;stroke-width:0.5;" x1="176.5" x2="429.5" y1="42.1563" y2="42.1563"/><line style="stroke:#4169E1;stroke-width:0.5;" x1="176.5" x2="429.5" y1="50.1563" y2="50.1563"/></g><!--class PropertySubsetServiceController--><g id="elem_PropertySubsetServiceController"><rect codeLine="21" fill="#FFDAB9" height="51.1563" id="PropertySubsetServiceController" rx="2.5" ry="2.5" style="stroke:#4169E1;stroke-width:0.5;" width="321" x="142.5" y="119"/><ellipse cx="158.5" cy="136.5781" fill="#ADD1B2" rx="12" ry="12" style="stroke:#181818;stroke-width:1.0;"/><path d="M160.6406,131.5 Q160.8281,131.25 161.0469,131.125 Q161.2656,130.9844 161.5156,130.9844 Q161.9531,130.9844 162.2344,131.2969 Q162.5156,131.5938 162.5156,132.3125 L162.5156,134.0156 Q162.5156,134.7344 162.2344,135.0469 Q161.9531,135.3594 161.5156,135.3594 Q161.125,135.3594 160.875,135.125 Q160.625,134.9063 160.5156,134.2969 Q160.4531,133.875 160.2344,133.6563 Q159.8438,133.2188 159.125,132.9531 Q158.4063,132.6875 157.6875,132.6875 Q156.7813,132.6875 156.0313,133.0781 Q155.2813,133.4688 154.7031,134.3594 Q154.125,135.2344 154.125,136.4375 L154.125,137.7344 Q154.125,139.1875 155.1719,140.1563 Q156.2344,141.125 158.0938,141.125 Q159.2031,141.125 159.9844,140.8125 Q160.4219,140.6406 160.9375,140.125 Q161.25,139.8125 161.4219,139.7188 Q161.5938,139.625 161.8281,139.625 Q162.2188,139.625 162.5156,139.9375 Q162.8281,140.2344 162.8281,140.6406 Q162.8281,141.0469 162.4219,141.5156 Q161.8281,142.2031 160.8906,142.5938 Q159.625,143.125 158.1094,143.125 Q156.3281,143.125 154.9063,142.3906 Q153.75,141.7969 152.9375,140.5313 Q152.125,139.2656 152.125,137.7813 L152.125,136.4219 Q152.125,134.8594 152.8438,133.5156 Q153.5781,132.1563 154.8594,131.4219 Q156.1563,130.6875 157.6094,130.6875 Q158.4688,130.6875 159.2188,130.8906 Q159.9844,131.0938 160.6406,131.5 Z " fill="#000000"/><text fill="#000000" font-family="sans-serif" font-size="20" lengthAdjust="spacing" textLength="287" x="173.5" y="144.7617">PropertySubsetServiceController</text><line style="stroke:#4169E1;stroke-width:0.5;" x1="143.5" x2="462.5" y1="154.1563" y2="154.1563"/><line style="stroke:#4169E1;stroke-width:0.5;" x1="143.5" x2="462.5" y1="162.1563" y2="162.1563"/></g><!--class Repositories--><g id="elem_Repositories"><rect codeLine="25" fill="#FFDAB9" height="126.625" id="Repositories" rx="2.5" ry="2.5" style="stroke:#4169E1;stroke-width:0.5;" width="292" x="7" y="231"/><ellipse cx="93.5" cy="248.5781" fill="#ADD1B2" rx="12" ry="12" style="stroke:#181818;stroke-width:1.0;"/><path d="M95.6406,243.5 Q95.8281,243.25 96.0469,243.125 Q96.2656,242.9844 96.5156,242.9844 Q96.9531,242.9844 97.2344,243.2969 Q97.5156,243.5938 97.5156,244.3125 L97.5156,246.0156 Q97.5156,246.7344 97.2344,247.0469 Q96.9531,247.3594 96.5156,247.3594 Q96.125,247.3594 95.875,247.125 Q95.625,246.9063 95.5156,246.2969 Q95.4531,245.875 95.2344,245.6563 Q94.8438,245.2188 94.125,244.9531 Q93.4063,244.6875 92.6875,244.6875 Q91.7813,244.6875 91.0313,245.0781 Q90.2813,245.4688 89.7031,246.3594 Q89.125,247.2344 89.125,248.4375 L89.125,249.7344 Q89.125,251.1875 90.1719,252.1563 Q91.2344,253.125 93.0938,253.125 Q94.2031,253.125 94.9844,252.8125 Q95.4219,252.6406 95.9375,252.125 Q96.25,251.8125 96.4219,251.7188 Q96.5938,251.625 96.8281,251.625 Q97.2188,251.625 97.5156,251.9375 Q97.8281,252.2344 97.8281,252.6406 Q97.8281,253.0469 97.4219,253.5156 Q96.8281,254.2031 95.8906,254.5938 Q94.625,255.125 93.1094,255.125 Q91.3281,255.125 89.9063,254.3906 Q88.75,253.7969 87.9375,252.5313 Q87.125,251.2656 87.125,249.7813 L87.125,248.4219 Q87.125,246.8594 87.8438,245.5156 Q88.5781,244.1563 89.8594,243.4219 Q91.1563,242.6875 92.6094,242.6875 Q93.4688,242.6875 94.2188,242.8906 Q94.9844,243.0938 95.6406,243.5 Z " fill="#000000"/><text fill="#000000" font-family="sans-serif" font-size="20" lengthAdjust="spacing" textLength="110" x="115.5" y="256.7617">Repositories</text><line style="stroke:#4169E1;stroke-width:0.5;" x1="8" x2="298" y1="266.1563" y2="266.1563"/><line style="stroke:#4169E1;stroke-width:0.5;" x1="8" x2="298" y1="274.1563" y2="274.1563"/><rect fill="#F24D5C" height="6" style="stroke:#C82930;stroke-width:1.0;" width="6" x="15" y="289.2344"/><text fill="#000000" font-family="sans-serif" font-size="20" lengthAdjust="spacing" textLength="124" x="28" y="298.918">Repositories()</text><ellipse cx="18" cy="317.3906" fill="#84BE84" rx="3" ry="3" style="stroke:#038048;stroke-width:1.0;"/><text fill="#000000" font-family="sans-serif" font-size="20" lengthAdjust="spacing" textLength="244" x="28" y="324.0742">getInstance() : Repositories</text><ellipse cx="18" cy="342.5469" fill="#84BE84" rx="3" ry="3" style="stroke:#038048;stroke-width:1.0;"/><text fill="#000000" font-family="sans-serif" font-size="20" lengthAdjust="spacing" textLength="265" x="28" y="349.2305">getAnnouncementRepository()</text></g><!--class AgencyRepository--><g id="elem_AgencyRepository"><rect codeLine="31" fill="#FFDAB9" height="76.3125" id="AgencyRepository" rx="2.5" ry="2.5" style="stroke:#4169E1;stroke-width:0.5;" width="275" x="98.5" y="419"/><ellipse cx="151.5" cy="436.5781" fill="#ADD1B2" rx="12" ry="12" style="stroke:#181818;stroke-width:1.0;"/><path d="M153.6406,431.5 Q153.8281,431.25 154.0469,431.125 Q154.2656,430.9844 154.5156,430.9844 Q154.9531,430.9844 155.2344,431.2969 Q155.5156,431.5938 155.5156,432.3125 L155.5156,434.0156 Q155.5156,434.7344 155.2344,435.0469 Q154.9531,435.3594 154.5156,435.3594 Q154.125,435.3594 153.875,435.125 Q153.625,434.9063 153.5156,434.2969 Q153.4531,433.875 153.2344,433.6563 Q152.8438,433.2188 152.125,432.9531 Q151.4063,432.6875 150.6875,432.6875 Q149.7813,432.6875 149.0313,433.0781 Q148.2813,433.4688 147.7031,434.3594 Q147.125,435.2344 147.125,436.4375 L147.125,437.7344 Q147.125,439.1875 148.1719,440.1563 Q149.2344,441.125 151.0938,441.125 Q152.2031,441.125 152.9844,440.8125 Q153.4219,440.6406 153.9375,440.125 Q154.25,439.8125 154.4219,439.7188 Q154.5938,439.625 154.8281,439.625 Q155.2188,439.625 155.5156,439.9375 Q155.8281,440.2344 155.8281,440.6406 Q155.8281,441.0469 155.4219,441.5156 Q154.8281,442.2031 153.8906,442.5938 Q152.625,443.125 151.1094,443.125 Q149.3281,443.125 147.9063,442.3906 Q146.75,441.7969 145.9375,440.5313 Q145.125,439.2656 145.125,437.7813 L145.125,436.4219 Q145.125,434.8594 145.8438,433.5156 Q146.5781,432.1563 147.8594,431.4219 Q149.1563,430.6875 150.6094,430.6875 Q151.4688,430.6875 152.2188,430.8906 Q152.9844,431.0938 153.6406,431.5 Z " fill="#000000"/><text fill="#000000" font-family="sans-serif" font-size="20" lengthAdjust="spacing" textLength="160" x="173.5" y="444.7617">AgencyRepository</text><line style="stroke:#4169E1;stroke-width:0.5;" x1="99.5" x2="372.5" y1="454.1563" y2="454.1563"/><line style="stroke:#4169E1;stroke-width:0.5;" x1="99.5" x2="372.5" y1="462.1563" y2="462.1563"/><ellipse cx="109.5" cy="480.2344" fill="#84BE84" rx="3" ry="3" style="stroke:#038048;stroke-width:1.0;"/><text fill="#000000" font-family="sans-serif" font-size="20" lengthAdjust="spacing" textLength="248" x="119.5" y="486.918">List&lt;Agency&gt; getAgencies()</text></g><!--class Agency--><g id="elem_Agency"><rect codeLine="35" fill="#FFDAB9" height="202.0938" id="Agency" rx="2.5" ry="2.5" style="stroke:#4169E1;stroke-width:0.5;" width="579" x="55.5" y="556"/><ellipse cx="308" cy="573.5781" fill="#ADD1B2" rx="12" ry="12" style="stroke:#181818;stroke-width:1.0;"/><path d="M310.1406,568.5 Q310.3281,568.25 310.5469,568.125 Q310.7656,567.9844 311.0156,567.9844 Q311.4531,567.9844 311.7344,568.2969 Q312.0156,568.5938 312.0156,569.3125 L312.0156,571.0156 Q312.0156,571.7344 311.7344,572.0469 Q311.4531,572.3594 311.0156,572.3594 Q310.625,572.3594 310.375,572.125 Q310.125,571.9063 310.0156,571.2969 Q309.9531,570.875 309.7344,570.6563 Q309.3438,570.2188 308.625,569.9531 Q307.9063,569.6875 307.1875,569.6875 Q306.2813,569.6875 305.5313,570.0781 Q304.7813,570.4688 304.2031,571.3594 Q303.625,572.2344 303.625,573.4375 L303.625,574.7344 Q303.625,576.1875 304.6719,577.1563 Q305.7344,578.125 307.5938,578.125 Q308.7031,578.125 309.4844,577.8125 Q309.9219,577.6406 310.4375,577.125 Q310.75,576.8125 310.9219,576.7188 Q311.0938,576.625 311.3281,576.625 Q311.7188,576.625 312.0156,576.9375 Q312.3281,577.2344 312.3281,577.6406 Q312.3281,578.0469 311.9219,578.5156 Q311.3281,579.2031 310.3906,579.5938 Q309.125,580.125 307.6094,580.125 Q305.8281,580.125 304.4063,579.3906 Q303.25,578.7969 302.4375,577.5313 Q301.625,576.2656 301.625,574.7813 L301.625,573.4219 Q301.625,571.8594 302.3438,570.5156 Q303.0781,569.1563 304.3594,568.4219 Q305.6563,567.6875 307.1094,567.6875 Q307.9688,567.6875 308.7188,567.8906 Q309.4844,568.0938 310.1406,568.5 Z " fill="#000000"/><text fill="#000000" font-family="sans-serif" font-size="20" lengthAdjust="spacing" textLength="65" x="330" y="581.7617">Agency</text><line style="stroke:#4169E1;stroke-width:0.5;" x1="56.5" x2="633.5" y1="591.1563" y2="591.1563"/><rect fill="none" height="6" style="stroke:#C82930;stroke-width:1.0;" width="6" x="63.5" y="606.2344"/><text fill="#000000" font-family="sans-serif" font-size="20" lengthAdjust="spacing" textLength="72" x="76.5" y="615.918">String id</text><rect fill="none" height="6" style="stroke:#C82930;stroke-width:1.0;" width="6" x="63.5" y="631.3906"/><text fill="#000000" font-family="sans-serif" font-size="20" lengthAdjust="spacing" textLength="150" x="76.5" y="641.0742">Address address</text><rect fill="none" height="6" style="stroke:#C82930;stroke-width:1.0;" width="6" x="63.5" y="656.5469"/><text fill="#000000" font-family="sans-serif" font-size="20" lengthAdjust="spacing" textLength="156" x="76.5" y="666.2305">String designation</text><rect fill="none" height="6" style="stroke:#C82930;stroke-width:1.0;" width="6" x="63.5" y="681.7031"/><text fill="#000000" font-family="sans-serif" font-size="20" lengthAdjust="spacing" textLength="178" x="76.5" y="691.3867">String phoneNumber</text><rect fill="none" height="6" style="stroke:#C82930;stroke-width:1.0;" width="6" x="63.5" y="706.8594"/><text fill="#000000" font-family="sans-serif" font-size="20" lengthAdjust="spacing" textLength="173" x="76.5" y="716.543">Email emailAddress</text><line style="stroke:#4169E1;stroke-width:0.5;" x1="56.5" x2="633.5" y1="724.9375" y2="724.9375"/><ellipse cx="66.5" cy="743.0156" fill="#84BE84" rx="3" ry="3" style="stroke:#038048;stroke-width:1.0;"/><text fill="#000000" font-family="sans-serif" font-size="20" lengthAdjust="spacing" textLength="552" x="76.5" y="749.6992">Agency(id, address, designation, phoneNumber, emailAddress)</text></g><!--class Address--><g id="elem_Address"><rect codeLine="44" fill="#FFDAB9" height="227.25" id="Address" rx="2.5" ry="2.5" style="stroke:#4169E1;stroke-width:0.5;" width="369" x="17.5" y="819"/><ellipse cx="161" cy="836.5781" fill="#ADD1B2" rx="12" ry="12" style="stroke:#181818;stroke-width:1.0;"/><path d="M163.1406,831.5 Q163.3281,831.25 163.5469,831.125 Q163.7656,830.9844 164.0156,830.9844 Q164.4531,830.9844 164.7344,831.2969 Q165.0156,831.5938 165.0156,832.3125 L165.0156,834.0156 Q165.0156,834.7344 164.7344,835.0469 Q164.4531,835.3594 164.0156,835.3594 Q163.625,835.3594 163.375,835.125 Q163.125,834.9063 163.0156,834.2969 Q162.9531,833.875 162.7344,833.6563 Q162.3438,833.2188 161.625,832.9531 Q160.9063,832.6875 160.1875,832.6875 Q159.2813,832.6875 158.5313,833.0781 Q157.7813,833.4688 157.2031,834.3594 Q156.625,835.2344 156.625,836.4375 L156.625,837.7344 Q156.625,839.1875 157.6719,840.1563 Q158.7344,841.125 160.5938,841.125 Q161.7031,841.125 162.4844,840.8125 Q162.9219,840.6406 163.4375,840.125 Q163.75,839.8125 163.9219,839.7188 Q164.0938,839.625 164.3281,839.625 Q164.7188,839.625 165.0156,839.9375 Q165.3281,840.2344 165.3281,840.6406 Q165.3281,841.0469 164.9219,841.5156 Q164.3281,842.2031 163.3906,842.5938 Q162.125,843.125 160.6094,843.125 Q158.8281,843.125 157.4063,842.3906 Q156.25,841.7969 155.4375,840.5313 Q154.625,839.2656 154.625,837.7813 L154.625,836.4219 Q154.625,834.8594 155.3438,833.5156 Q156.0781,832.1563 157.3594,831.4219 Q158.6563,830.6875 160.1094,830.6875 Q160.9688,830.6875 161.7188,830.8906 Q162.4844,831.0938 163.1406,831.5 Z " fill="#000000"/><text fill="#000000" font-family="sans-serif" font-size="20" lengthAdjust="spacing" textLength="73" x="183" y="844.7617">Address</text><line style="stroke:#4169E1;stroke-width:0.5;" x1="18.5" x2="385.5" y1="854.1563" y2="854.1563"/><rect fill="none" height="6" style="stroke:#C82930;stroke-width:1.0;" width="6" x="25.5" y="869.2344"/><text fill="#000000" font-family="sans-serif" font-size="20" lengthAdjust="spacing" textLength="108" x="38.5" y="878.918">String street</text><rect fill="none" height="6" style="stroke:#C82930;stroke-width:1.0;" width="6" x="25.5" y="894.3906"/><text fill="#000000" font-family="sans-serif" font-size="20" lengthAdjust="spacing" textLength="87" x="38.5" y="904.0742">String city</text><rect fill="none" height="6" style="stroke:#C82930;stroke-width:1.0;" width="6" x="25.5" y="919.5469"/><text fill="#000000" font-family="sans-serif" font-size="20" lengthAdjust="spacing" textLength="101" x="38.5" y="929.2305">String state</text><rect fill="none" height="6" style="stroke:#C82930;stroke-width:1.0;" width="6" x="25.5" y="944.7031"/><text fill="#000000" font-family="sans-serif" font-size="20" lengthAdjust="spacing" textLength="93" x="38.5" y="954.3867">int zipcode</text><rect fill="none" height="6" style="stroke:#C82930;stroke-width:1.0;" width="6" x="25.5" y="969.8594"/><text fill="#000000" font-family="sans-serif" font-size="20" lengthAdjust="spacing" textLength="115" x="38.5" y="979.543">String district</text><line style="stroke:#4169E1;stroke-width:0.5;" x1="18.5" x2="385.5" y1="987.9375" y2="987.9375"/><ellipse cx="28.5" cy="1006.0156" fill="#84BE84" rx="3" ry="3" style="stroke:#038048;stroke-width:1.0;"/><text fill="#000000" font-family="sans-serif" font-size="20" lengthAdjust="spacing" textLength="342" x="38.5" y="1012.6992">setAddress(street, city, state, zipcode)</text><ellipse cx="28.5" cy="1031.1719" fill="#84BE84" rx="3" ry="3" style="stroke:#038048;stroke-width:1.0;"/><text fill="#000000" font-family="sans-serif" font-size="20" lengthAdjust="spacing" textLength="115" x="38.5" y="1037.8555">getAddress()</text></g><!--class Email--><g id="elem_Email"><rect codeLine="54" fill="#FFDAB9" height="101.4688" id="Email" rx="2.5" ry="2.5" style="stroke:#4169E1;stroke-width:0.5;" width="135" x="421.5" y="882"/><ellipse cx="461.35" cy="899.5781" fill="#ADD1B2" rx="12" ry="12" style="stroke:#181818;stroke-width:1.0;"/><path d="M463.4906,894.5 Q463.6781,894.25 463.8969,894.125 Q464.1156,893.9844 464.3656,893.9844 Q464.8031,893.9844 465.0844,894.2969 Q465.3656,894.5938 465.3656,895.3125 L465.3656,897.0156 Q465.3656,897.7344 465.0844,898.0469 Q464.8031,898.3594 464.3656,898.3594 Q463.975,898.3594 463.725,898.125 Q463.475,897.9063 463.3656,897.2969 Q463.3031,896.875 463.0844,896.6563 Q462.6938,896.2188 461.975,895.9531 Q461.2563,895.6875 460.5375,895.6875 Q459.6313,895.6875 458.8813,896.0781 Q458.1313,896.4688 457.5531,897.3594 Q456.975,898.2344 456.975,899.4375 L456.975,900.7344 Q456.975,902.1875 458.0219,903.1563 Q459.0844,904.125 460.9438,904.125 Q462.0531,904.125 462.8344,903.8125 Q463.2719,903.6406 463.7875,903.125 Q464.1,902.8125 464.2719,902.7188 Q464.4438,902.625 464.6781,902.625 Q465.0688,902.625 465.3656,902.9375 Q465.6781,903.2344 465.6781,903.6406 Q465.6781,904.0469 465.2719,904.5156 Q464.6781,905.2031 463.7406,905.5938 Q462.475,906.125 460.9594,906.125 Q459.1781,906.125 457.7563,905.3906 Q456.6,904.7969 455.7875,903.5313 Q454.975,902.2656 454.975,900.7813 L454.975,899.4219 Q454.975,897.8594 455.6938,896.5156 Q456.4281,895.1563 457.7094,894.4219 Q459.0063,893.6875 460.4594,893.6875 Q461.3188,893.6875 462.0688,893.8906 Q462.8344,894.0938 463.4906,894.5 Z " fill="#000000"/><text fill="#000000" font-family="sans-serif" font-size="20" lengthAdjust="spacing" textLength="48" x="481.65" y="907.7617">Email</text><line style="stroke:#4169E1;stroke-width:0.5;" x1="422.5" x2="555.5" y1="917.1563" y2="917.1563"/><rect fill="none" height="6" style="stroke:#C82930;stroke-width:1.0;" width="6" x="429.5" y="932.2344"/><text fill="#000000" font-family="sans-serif" font-size="20" lengthAdjust="spacing" textLength="103" x="442.5" y="941.918">String email</text><line style="stroke:#4169E1;stroke-width:0.5;" x1="422.5" x2="555.5" y1="950.3125" y2="950.3125"/><ellipse cx="432.5" cy="968.3906" fill="#84BE84" rx="3" ry="3" style="stroke:#038048;stroke-width:1.0;"/><text fill="#000000" font-family="sans-serif" font-size="20" lengthAdjust="spacing" textLength="108" x="442.5" y="975.0742">Email(email)</text></g><!--link PropertySubsetServiceUI to PropertySubsetServiceController--><g id="link_PropertySubsetServiceUI_PropertySubsetServiceController"><path codeLine="60" d="M303,58.19 C303,74.6 303,96.26 303,113.65 " fill="none" id="PropertySubsetServiceUI-to-PropertySubsetServiceController" style="stroke:#4169E1;stroke-width:1.0;"/><polygon fill="#4169E1" points="303,118.9,307,109.9,303,113.9,299,109.9,303,118.9" style="stroke:#4169E1;stroke-width:1.0;"/></g><!--link PropertySubsetServiceController to Repositories--><g id="link_PropertySubsetServiceController_Repositories"><path codeLine="64" d="M277.89,170.27 C261.97,185.99 240.55,207.12 219.95,227.44 " fill="none" id="PropertySubsetServiceController-to-Repositories" style="stroke:#4169E1;stroke-width:1.0;"/><polygon fill="#4169E1" points="216.38,230.96,225.5936,227.4802,219.9369,227.446,219.9712,221.7892,216.38,230.96" style="stroke:#4169E1;stroke-width:1.0;"/></g><!--link PropertySubsetServiceController to Agency--><g id="link_PropertySubsetServiceController_Agency"><path codeLine="65" d="M335.95,170 C369.94,195.27 418,231 418,231 C418,231 418,358 418,358 C418,358 391,495 391,495 C391,495 383.76,520.34 375.02,550.92 " fill="none" id="PropertySubsetServiceController-to-Agency" style="stroke:#4169E1;stroke-width:1.0;"/><polygon fill="#4169E1" points="373.61,555.87,379.9227,548.3102,374.9798,551.0613,372.2287,546.1185,373.61,555.87" style="stroke:#4169E1;stroke-width:1.0;"/></g><!--link Repositories to Repositories--><g id="link_Repositories_Repositories"><path codeLine="66" d="M299.3,278.68 C320.06,281.24 334,286.51 334,294.5 C334,301.8 322.36,306.83 304.49,309.6 " fill="none" id="Repositories-to-Repositories" style="stroke:#4169E1;stroke-width:1.0;"/><polygon fill="#4169E1" points="299.3,310.32,308.7643,313.0453,304.2526,309.6329,307.665,305.1212,299.3,310.32" style="stroke:#4169E1;stroke-width:1.0;"/><text fill="#000000" font-family="sans-serif" font-size="20" lengthAdjust="spacing" textLength="72" x="340" y="302.7617">instance</text></g><!--link Repositories to AgencyRepository--><g id="link_Repositories_AgencyRepository"><path codeLine="67" d="M185.33,358.01 C195.06,376.84 205.51,397.04 214.37,414.17 " fill="none" id="Repositories-to-AgencyRepository" style="stroke:#4169E1;stroke-width:1.0;"/><polygon fill="#4169E1" points="216.83,418.92,216.2446,409.0886,214.5313,414.4797,209.1402,412.7664,216.83,418.92" style="stroke:#4169E1;stroke-width:1.0;"/></g><!--link AgencyRepository to Agency--><g id="link_AgencyRepository_Agency"><path codeLine="70" d="M256.5,495.24 C265.39,511.38 276.28,531.18 287.35,551.28 " fill="none" id="AgencyRepository-to-Agency" style="stroke:#4169E1;stroke-width:1.0;stroke-dasharray:7.0,7.0;"/><polygon fill="#4169E1" points="289.87,555.85,289.0339,546.0367,287.4588,551.4698,282.0256,549.8947,289.87,555.85" style="stroke:#4169E1;stroke-width:1.0;"/></g><!--link Agency to Email--><g id="link_Agency_Email"><path codeLine="71" d="M397.8,758.29 C419.96,800.37 444.73,847.41 462.85,881.84 " fill="none" id="Agency-Email" style="stroke:#4169E1;stroke-width:1.0;"/><text fill="#000000" font-family="sans-serif" font-size="20" lengthAdjust="spacing" textLength="11" x="389.978" y="786.6991">1</text><text fill="#000000" font-family="sans-serif" font-size="20" lengthAdjust="spacing" textLength="11" x="447.7948" y="869.4893">1</text></g><!--link Agency to Address--><g id="link_Agency_Address"><path codeLine="72" d="M292.56,758.29 C282.28,777.95 271.43,798.71 260.95,818.75 " fill="none" id="Agency-Address" style="stroke:#4169E1;stroke-width:1.0;"/><text fill="#000000" font-family="sans-serif" font-size="20" lengthAdjust="spacing" textLength="11" x="277.6672" y="786.6991">1</text><text fill="#000000" font-family="sans-serif" font-size="20" lengthAdjust="spacing" textLength="11" x="253.3741" y="806.4208">1</text></g><!--SRC=[ZLDTQzim57tNhn1zIKgSikrnZ89RLWYC4Hhw0nJvsX6HTStLzOfRzj-do79YkzqwFSJnFUUU-w5ZVpIkKQHgY_e8XIoWLAtb1tIyCoyWltmI2pzmP8qEzO6m1idKWhWWZT97LS6EEmkIGBDobHqJ_44L-6nS9Kjb_HYnnW5t3SW6RNTw6LSyWqYCOenegxpFcSdiMuQDHXSR3lskX_DWGZEUJwBLEIXc4l9Lo73kmW0LOUkAUxH8SWjA7xPjMKOq9yBd7dZ4Jjax6wQFQKW5q1pvBHOMIfQCaanrO5cOqquCEh5uya3IE0OgbOQ547qNMy86YBjTk_V0Ew1VHiFJvbK4iNzHxiDD4LeBDAO-GeFUC9A1OS3r9BYyZi6Lh80tpeVhqh2ybbydf0ibTowiHaCDZi-CBeYSA-OLEDrTi5Hr9NyOpzzwz3PAdVxs7SoIputkmgK6evWYlUT5GH1egdzEMGLuKpaLbpi1cWCw-DdMUw04VA-LiH9El_b8QfNgBqsH3JMoiMusriec0kCXKfUpAJmJ04zZsd0tPoc650hca2-cqLZ0RDImIZAQKzV11AdciY-IHU6i5yi6ZT5D3_HHr_rEPZt72LDQ92nZ9ARr1juC1XP_CQvShsy_Sgm8vmDAb9buydyI-liKawzWBXIyRfBntnBdRWvZ9yqtFh-vETTBDhxwV1L4uYCkxvtuO3yX_W00]--></g></svg>