<?xml version="1.0" encoding="UTF-8" standalone="no"?><svg xmlns="http://www.w3.org/2000/svg" xmlns:xlink="http://www.w3.org/1999/xlink" contentStyleType="text/css" height="489px" preserveAspectRatio="none" style="width:961px;height:489px;background:#FFFFFF;" version="1.1" viewBox="0 0 961 489" width="961px" zoomAndPan="magnify"><defs/><g><rect fill="#FFFFFF" height="300.25" style="stroke:#181818;stroke-width:1.0;" width="10" x="239" y="105.8438"/><rect fill="#FFFFFF" height="37.2813" style="stroke:#181818;stroke-width:1.0;" width="10" x="442" y="175.4063"/><rect fill="#FFFFFF" height="37.2813" style="stroke:#181818;stroke-width:1.0;" width="10" x="599" y="249.9688"/><rect fill="#FFFFFF" height="37.2813" style="stroke:#181818;stroke-width:1.0;" width="10" x="810.5" y="324.5313"/><rect fill="none" height="248.9688" style="stroke:#000000;stroke-width:1.5;" width="837" x="118" y="120.8438"/><line style="stroke:#181818;stroke-width:0.5;stroke-dasharray:5.0,5.0;" x1="244" x2="244" y1="66.5625" y2="424.0938"/><line style="stroke:#181818;stroke-width:0.5;stroke-dasharray:5.0,5.0;" x1="447" x2="447" y1="66.5625" y2="424.0938"/><line style="stroke:#181818;stroke-width:0.5;stroke-dasharray:5.0,5.0;" x1="604" x2="604" y1="66.5625" y2="424.0938"/><line style="stroke:#181818;stroke-width:0.5;stroke-dasharray:5.0,5.0;" x1="815" x2="815" y1="66.5625" y2="424.0938"/><rect fill="#E3E3E3" height="37.2813" rx="2.5" ry="2.5" style="stroke:#181818;stroke-width:0.5;" width="232" x="128" y="28.2813"/><text fill="#000000" font-family="sans-serif" font-size="20" lengthAdjust="spacing" textLength="218" x="135" y="53.8457">:CreateTaskController</text><rect fill="#E3E3E3" height="37.2813" rx="2.5" ry="2.5" style="stroke:#181818;stroke-width:0.5;" width="232" x="128" y="423.0938"/><text fill="#000000" font-family="sans-serif" font-size="20" lengthAdjust="spacing" textLength="218" x="135" y="448.6582">:CreateTaskController</text><rect fill="#E3E3E3" height="37.2813" rx="2.5" ry="2.5" style="stroke:#181818;stroke-width:0.5;" width="144" x="375" y="28.2813"/><text fill="#000000" font-family="sans-serif" font-size="20" lengthAdjust="spacing" textLength="130" x="382" y="53.8457">:Repositories</text><rect fill="#E3E3E3" height="37.2813" rx="2.5" ry="2.5" style="stroke:#181818;stroke-width:0.5;" width="144" x="375" y="423.0938"/><text fill="#000000" font-family="sans-serif" font-size="20" lengthAdjust="spacing" textLength="130" x="382" y="448.6582">:Repositories</text><rect fill="#E3E3E3" height="60.5625" rx="2.5" ry="2.5" style="stroke:#181818;stroke-width:0.5;" width="144" x="532" y="5"/><text fill="#000000" font-family="sans-serif" font-size="20" lengthAdjust="spacing" textLength="117" x="545.5" y="30.5645">repositories</text><text fill="#000000" font-family="sans-serif" font-size="20" lengthAdjust="spacing" textLength="130" x="539" y="53.8457">:Repositories</text><rect fill="#E3E3E3" height="60.5625" rx="2.5" ry="2.5" style="stroke:#181818;stroke-width:0.5;" width="144" x="532" y="423.0938"/><text fill="#000000" font-family="sans-serif" font-size="20" lengthAdjust="spacing" textLength="117" x="545.5" y="448.6582">repositories</text><text fill="#000000" font-family="sans-serif" font-size="20" lengthAdjust="spacing" textLength="130" x="539" y="471.9395">:Repositories</text><rect fill="#E3E3E3" height="60.5625" rx="2.5" ry="2.5" style="stroke:#181818;stroke-width:0.5;" width="259" x="686" y="5"/><text fill="#000000" font-family="sans-serif" font-size="20" lengthAdjust="spacing" textLength="245" x="693" y="30.5645">taskCategoryRepository:</text><text fill="#000000" font-family="sans-serif" font-size="20" lengthAdjust="spacing" textLength="242" x="694.5" y="53.8457">TaskCategoryRepository</text><rect fill="#E3E3E3" height="60.5625" rx="2.5" ry="2.5" style="stroke:#181818;stroke-width:0.5;" width="259" x="686" y="423.0938"/><text fill="#000000" font-family="sans-serif" font-size="20" lengthAdjust="spacing" textLength="245" x="693" y="448.6582">taskCategoryRepository:</text><text fill="#000000" font-family="sans-serif" font-size="20" lengthAdjust="spacing" textLength="242" x="694.5" y="471.9395">TaskCategoryRepository</text><rect fill="#FFFFFF" height="300.25" style="stroke:#181818;stroke-width:1.0;" width="10" x="239" y="105.8438"/><rect fill="#FFFFFF" height="37.2813" style="stroke:#181818;stroke-width:1.0;" width="10" x="442" y="175.4063"/><rect fill="#FFFFFF" height="37.2813" style="stroke:#181818;stroke-width:1.0;" width="10" x="599" y="249.9688"/><rect fill="#FFFFFF" height="37.2813" style="stroke:#181818;stroke-width:1.0;" width="10" x="810.5" y="324.5313"/><polygon fill="#181818" points="227,101.8438,237,105.8438,227,109.8438,231,105.8438" style="stroke:#181818;stroke-width:1.0;"/><line style="stroke:#181818;stroke-width:1.0;" x1="0" x2="233" y1="105.8438" y2="105.8438"/><text fill="#000000" font-family="sans-serif" font-size="20" font-weight="bold" lengthAdjust="spacing" textLength="14" x="7" y="99.127">3</text><text fill="#000000" font-family="sans-serif" font-size="20" lengthAdjust="spacing" textLength="202" x="25" y="99.127">getTaskCategories()</text><path d="M118,120.8438 L423,120.8438 L423,136.125 L413,146.125 L118,146.125 L118,120.8438 " fill="#EEEEEE" style="stroke:#000000;stroke-width:1.5;"/><rect fill="none" height="248.9688" style="stroke:#000000;stroke-width:1.5;" width="837" x="118" y="120.8438"/><text fill="#000000" font-family="sans-serif" font-size="20" font-weight="bold" lengthAdjust="spacing" textLength="260" x="133" y="140.4082">Get Task Category List</text><polygon fill="#181818" points="430,171.4063,440,175.4063,430,179.4063,434,175.4063" style="stroke:#181818;stroke-width:1.0;"/><line style="stroke:#181818;stroke-width:1.0;" x1="249" x2="436" y1="175.4063" y2="175.4063"/><text fill="#000000" font-family="sans-serif" font-size="20" font-weight="bold" lengthAdjust="spacing" textLength="36" x="256" y="168.6895">3.1</text><text fill="#000000" font-family="sans-serif" font-size="20" lengthAdjust="spacing" textLength="134" x="296" y="168.6895">getInstance()</text><polygon fill="#181818" points="260,208.6875,250,212.6875,260,216.6875,256,212.6875" style="stroke:#181818;stroke-width:1.0;"/><line style="stroke:#181818;stroke-width:1.0;stroke-dasharray:2.0,2.0;" x1="254" x2="446" y1="212.6875" y2="212.6875"/><text fill="#000000" font-family="sans-serif" font-size="20" font-weight="bold" lengthAdjust="spacing" textLength="36" x="266" y="205.9707">3.2</text><text fill="#000000" font-family="sans-serif" font-size="20" lengthAdjust="spacing" textLength="117" x="306" y="205.9707">repositories</text><polygon fill="#181818" points="587,245.9688,597,249.9688,587,253.9688,591,249.9688" style="stroke:#181818;stroke-width:1.0;"/><line style="stroke:#181818;stroke-width:1.0;" x1="249" x2="593" y1="249.9688" y2="249.9688"/><text fill="#000000" font-family="sans-serif" font-size="20" font-weight="bold" lengthAdjust="spacing" textLength="36" x="256" y="243.252">3.3</text><text fill="#000000" font-family="sans-serif" font-size="20" lengthAdjust="spacing" textLength="291" x="296" y="243.252">getTaskCategoryRepository()</text><polygon fill="#181818" points="260,283.25,250,287.25,260,291.25,256,287.25" style="stroke:#181818;stroke-width:1.0;"/><line style="stroke:#181818;stroke-width:1.0;stroke-dasharray:2.0,2.0;" x1="254" x2="603" y1="287.25" y2="287.25"/><text fill="#000000" font-family="sans-serif" font-size="20" font-weight="bold" lengthAdjust="spacing" textLength="36" x="266" y="280.5332">3.4</text><text fill="#000000" font-family="sans-serif" font-size="20" lengthAdjust="spacing" textLength="238" x="306" y="280.5332">taskCategoryRepository</text><polygon fill="#181818" points="798.5,320.5313,808.5,324.5313,798.5,328.5313,802.5,324.5313" style="stroke:#181818;stroke-width:1.0;"/><line style="stroke:#181818;stroke-width:1.0;" x1="249" x2="804.5" y1="324.5313" y2="324.5313"/><text fill="#000000" font-family="sans-serif" font-size="20" font-weight="bold" lengthAdjust="spacing" textLength="36" x="256" y="317.8145">3.5</text><text fill="#000000" font-family="sans-serif" font-size="20" lengthAdjust="spacing" textLength="202" x="296" y="317.8145">getTaskCategories()</text><polygon fill="#181818" points="260,357.8125,250,361.8125,260,365.8125,256,361.8125" style="stroke:#181818;stroke-width:1.0;"/><line style="stroke:#181818;stroke-width:1.0;stroke-dasharray:2.0,2.0;" x1="254" x2="814.5" y1="361.8125" y2="361.8125"/><text fill="#000000" font-family="sans-serif" font-size="20" font-weight="bold" lengthAdjust="spacing" textLength="36" x="266" y="355.0957">3.6</text><text fill="#000000" font-family="sans-serif" font-size="20" lengthAdjust="spacing" textLength="167" x="306" y="355.0957">taskCategoryList</text><polygon fill="#181818" points="11,402.0938,1,406.0938,11,410.0938,7,406.0938" style="stroke:#181818;stroke-width:1.0;"/><line style="stroke:#181818;stroke-width:1.0;stroke-dasharray:2.0,2.0;" x1="5" x2="243" y1="406.0938" y2="406.0938"/><text fill="#000000" font-family="sans-serif" font-size="20" font-weight="bold" lengthAdjust="spacing" textLength="14" x="17" y="399.377">4</text><text fill="#000000" font-family="sans-serif" font-size="20" lengthAdjust="spacing" textLength="167" x="35" y="399.377">taskCategoryList</text><!--SRC=[ZL8xQyCm4DxrAuuiRGUNlYPJ2YNGKiXG4ezP5FlY2CkIaSvjqrzVMQaJEPOXMWo-xtKFMmdLSCDhgVCA2oXmorj9RrhHIlmYFDmnsqEWrahdEwDh138j1fM6vnKlSKLxYM0m9wvA6GBiZXVwMwWIjbnQP8otf5LRRz0mThKJ1S9MQzhe7yOSWqGk6gu8PkdS82VCkAtcBfJHKgAP0RSmpvQBC-mI6sq5QIFGUipnntubkaJESqWn0MEjnWAVYzTioA0kYKjKEj6JVBfMMRJWLUAbS0Zmo1WaBxufIA542ZWkpFND07nxptXEuilL3tC0zqgZsmRUaRmVz8Qm49OOyv3-UHjd5vdFmVr3MRV379rlo3kQnWOxG7OlffxyDvb2EFe1jS3BRVf6kZsDvXRCUgeFlzzHSAzsIXfV-LJciMGVCXvjOjtHk5E7TDx0X5Dokh2m9tyW4zrCENeygi9_WzDyyZ-Ua-HW57CArFtjiZy0]--></g></svg>