<?xml version="1.0" encoding="UTF-8" standalone="no"?><svg xmlns="http://www.w3.org/2000/svg" xmlns:xlink="http://www.w3.org/1999/xlink" contentStyleType="text/css" height="1475px" preserveAspectRatio="none" style="width:2712px;height:1475px;background:#FFFFFF;" version="1.1" viewBox="0 0 2712 1475" width="2712px" zoomAndPan="magnify"><defs/><g><!--class ApplicationSession--><g id="elem_ApplicationSession"><rect codeLine="11" fill="#F1F1F1" height="96.5625" id="ApplicationSession" rx="2.5" ry="2.5" style="stroke:#181818;stroke-width:0.5;" width="230" x="186.5" y="384.2168"/><ellipse cx="205.2" cy="401.2168" fill="#ADD1B2" rx="12" ry="12" style="stroke:#181818;stroke-width:1.0;"/><path d="M208.2625,408.2949 Q207.575,408.6543 206.825,408.8262 Q206.075,408.998 205.2469,408.998 Q202.2938,408.998 200.7313,407.0605 Q199.1844,405.1074 199.1844,401.4355 Q199.1844,397.7637 200.7313,395.8262 Q202.2938,393.873 205.2469,393.873 Q206.075,393.873 206.825,394.0449 Q207.5906,394.2168 208.2625,394.5762 L208.2625,397.7793 Q207.5125,397.0918 206.8094,396.7793 Q206.1219,396.4668 205.3719,396.4668 Q203.7938,396.4668 202.9813,397.7168 Q202.1844,398.9668 202.1844,401.4355 Q202.1844,403.9043 202.9813,405.1543 Q203.7938,406.4043 205.3719,406.4043 Q206.1219,406.4043 206.8094,406.0918 Q207.5125,405.7793 208.2625,405.0918 L208.2625,408.2949 Z " fill="#000000"/><text fill="#000000" font-family="sans-serif" font-size="20" lengthAdjust="spacing" textLength="190" x="220.8" y="408.1406">ApplicationSession</text><line style="stroke:#181818;stroke-width:0.5;" x1="187.5" x2="415.5" y1="418.2168" y2="418.2168"/><line style="stroke:#181818;stroke-width:0.5;" x1="187.5" x2="415.5" y1="426.2168" y2="426.2168"/><text fill="#000000" font-family="sans-serif" font-size="20" lengthAdjust="spacing" textLength="212" x="192.5" y="448.7813">+static getInstance()</text><text fill="#000000" font-family="sans-serif" font-size="20" lengthAdjust="spacing" textLength="218" x="192.5" y="472.0625">+getCurrentSession()</text></g><!--class UserSession--><g id="elem_UserSession"><rect codeLine="17" fill="#F1F1F1" height="73.2813" id="UserSession" rx="2.5" ry="2.5" style="stroke:#181818;stroke-width:0.5;" width="180" x="100.5" y="694.2168"/><ellipse cx="127.75" cy="711.2168" fill="#ADD1B2" rx="12" ry="12" style="stroke:#181818;stroke-width:1.0;"/><path d="M130.8125,718.2949 Q130.125,718.6543 129.375,718.8262 Q128.625,718.998 127.7969,718.998 Q124.8438,718.998 123.2813,717.0605 Q121.7344,715.1074 121.7344,711.4355 Q121.7344,707.7637 123.2813,705.8262 Q124.8438,703.873 127.7969,703.873 Q128.625,703.873 129.375,704.0449 Q130.1406,704.2168 130.8125,704.5762 L130.8125,707.7793 Q130.0625,707.0918 129.3594,706.7793 Q128.6719,706.4668 127.9219,706.4668 Q126.3438,706.4668 125.5313,707.7168 Q124.7344,708.9668 124.7344,711.4355 Q124.7344,713.9043 125.5313,715.1543 Q126.3438,716.4043 127.9219,716.4043 Q128.6719,716.4043 129.3594,716.0918 Q130.0625,715.7793 130.8125,715.0918 L130.8125,718.2949 Z " fill="#000000"/><text fill="#000000" font-family="sans-serif" font-size="20" lengthAdjust="spacing" textLength="121" x="145.25" y="718.1406">UserSession</text><line style="stroke:#181818;stroke-width:0.5;" x1="101.5" x2="279.5" y1="728.2168" y2="728.2168"/><line style="stroke:#181818;stroke-width:0.5;" x1="101.5" x2="279.5" y1="736.2168" y2="736.2168"/><text fill="#000000" font-family="sans-serif" font-size="20" lengthAdjust="spacing" textLength="168" x="106.5" y="758.7813">+getUserEmail()</text></g><!--class AuthFacade--><g id="elem_AuthFacade"><rect codeLine="21" fill="#F1F1F1" height="236.25" id="AuthFacade" rx="2.5" ry="2.5" style="stroke:#181818;stroke-width:0.5;" width="858" x="1847.5" y="63.2168"/><ellipse cx="2212" cy="80.2168" fill="#ADD1B2" rx="12" ry="12" style="stroke:#181818;stroke-width:1.0;"/><path d="M2215.0625,87.2949 Q2214.375,87.6543 2213.625,87.8262 Q2212.875,87.998 2212.0469,87.998 Q2209.0938,87.998 2207.5313,86.0605 Q2205.9844,84.1074 2205.9844,80.4355 Q2205.9844,76.7637 2207.5313,74.8262 Q2209.0938,72.873 2212.0469,72.873 Q2212.875,72.873 2213.625,73.0449 Q2214.3906,73.2168 2215.0625,73.5762 L2215.0625,76.7793 Q2214.3125,76.0918 2213.6094,75.7793 Q2212.9219,75.4668 2212.1719,75.4668 Q2210.5938,75.4668 2209.7813,76.7168 Q2208.9844,77.9668 2208.9844,80.4355 Q2208.9844,82.9043 2209.7813,84.1543 Q2210.5938,85.4043 2212.1719,85.4043 Q2212.9219,85.4043 2213.6094,85.0918 Q2214.3125,84.7793 2215.0625,84.0918 L2215.0625,87.2949 Z " fill="#000000"/><text fill="#000000" font-family="sans-serif" font-size="20" lengthAdjust="spacing" textLength="120" x="2234" y="87.1406">AuthFacade</text><line style="stroke:#181818;stroke-width:0.5;" x1="1848.5" x2="2704.5" y1="97.2168" y2="97.2168"/><line style="stroke:#181818;stroke-width:0.5;" x1="1848.5" x2="2704.5" y1="105.2168" y2="105.2168"/><text fill="#000000" font-family="sans-serif" font-size="20" lengthAdjust="spacing" textLength="523" x="1853.5" y="127.7813">+boolean addUserRole(String id, String description)</text><text fill="#000000" font-family="sans-serif" font-size="20" lengthAdjust="spacing" textLength="583" x="1853.5" y="151.0625">+boolean addUser(String name, String email, String pwd)</text><text fill="#000000" font-family="sans-serif" font-size="20" lengthAdjust="spacing" textLength="810" x="1853.5" y="174.3438">+boolean addUserWithRole(String name, String email, String pwd, String roleId)</text><text fill="#000000" font-family="sans-serif" font-size="20" lengthAdjust="spacing" textLength="846" x="1853.5" y="197.625">+boolean addUserWithRoles(String name, String email, String pwd, String[] rolesId)</text><text fill="#000000" font-family="sans-serif" font-size="20" lengthAdjust="spacing" textLength="344" x="1853.5" y="220.9063">+boolean existsUser(String email)</text><text fill="#000000" font-family="sans-serif" font-size="20" lengthAdjust="spacing" textLength="537" x="1853.5" y="244.1875">+UserSession doLogin(String email, String password)</text><text fill="#000000" font-family="sans-serif" font-size="20" lengthAdjust="spacing" textLength="390" x="1853.5" y="267.4688">+UserSession getCurrentUserSession()</text><text fill="#000000" font-family="sans-serif" font-size="20" lengthAdjust="spacing" textLength="175" x="1853.5" y="290.75">+void doLogout()</text></g><!--class Employee--><g id="elem_Employee"><rect codeLine="31" fill="#F1F1F1" height="143.125" id="Employee" rx="2.5" ry="2.5" style="stroke:#181818;stroke-width:0.5;" width="133" x="1271" y="1325.2168"/><ellipse cx="1287" cy="1342.2168" fill="#ADD1B2" rx="12" ry="12" style="stroke:#181818;stroke-width:1.0;"/><path d="M1290.0625,1349.2949 Q1289.375,1349.6543 1288.625,1349.8262 Q1287.875,1349.998 1287.0469,1349.998 Q1284.0938,1349.998 1282.5313,1348.0605 Q1280.9844,1346.1074 1280.9844,1342.4355 Q1280.9844,1338.7637 1282.5313,1336.8262 Q1284.0938,1334.873 1287.0469,1334.873 Q1287.875,1334.873 1288.625,1335.0449 Q1289.3906,1335.2168 1290.0625,1335.5762 L1290.0625,1338.7793 Q1289.3125,1338.0918 1288.6094,1337.7793 Q1287.9219,1337.4668 1287.1719,1337.4668 Q1285.5938,1337.4668 1284.7813,1338.7168 Q1283.9844,1339.9668 1283.9844,1342.4355 Q1283.9844,1344.9043 1284.7813,1346.1543 Q1285.5938,1347.4043 1287.1719,1347.4043 Q1287.9219,1347.4043 1288.6094,1347.0918 Q1289.3125,1346.7793 1290.0625,1346.0918 L1290.0625,1349.2949 Z " fill="#000000"/><text fill="#000000" font-family="sans-serif" font-size="20" lengthAdjust="spacing" textLength="99" x="1302" y="1349.1406">Employee</text><line style="stroke:#181818;stroke-width:0.5;" x1="1272" x2="1403" y1="1359.2168" y2="1359.2168"/><text fill="#000000" font-family="sans-serif" font-size="20" lengthAdjust="spacing" textLength="64" x="1277" y="1381.7813">-name</text><text fill="#000000" font-family="sans-serif" font-size="20" lengthAdjust="spacing" textLength="63" x="1277" y="1405.0625">-email</text><text fill="#000000" font-family="sans-serif" font-size="20" lengthAdjust="spacing" textLength="87" x="1277" y="1428.3438">-position</text><text fill="#000000" font-family="sans-serif" font-size="20" lengthAdjust="spacing" textLength="70" x="1277" y="1451.625">-phone</text><line style="stroke:#181818;stroke-width:0.5;" x1="1272" x2="1403" y1="1460.3418" y2="1460.3418"/></g><!--class Task--><g id="elem_Task"><rect codeLine="38" fill="#F1F1F1" height="259.5313" id="Task" rx="2.5" ry="2.5" style="stroke:#181818;stroke-width:0.5;" width="434" x="937.5" y="980.2168"/><ellipse cx="1127" cy="997.2168" fill="#ADD1B2" rx="12" ry="12" style="stroke:#181818;stroke-width:1.0;"/><path d="M1130.0625,1004.2949 Q1129.375,1004.6543 1128.625,1004.8262 Q1127.875,1004.998 1127.0469,1004.998 Q1124.0938,1004.998 1122.5313,1003.0605 Q1120.9844,1001.1074 1120.9844,997.4355 Q1120.9844,993.7637 1122.5313,991.8262 Q1124.0938,989.873 1127.0469,989.873 Q1127.875,989.873 1128.625,990.0449 Q1129.3906,990.2168 1130.0625,990.5762 L1130.0625,993.7793 Q1129.3125,993.0918 1128.6094,992.7793 Q1127.9219,992.4668 1127.1719,992.4668 Q1125.5938,992.4668 1124.7813,993.7168 Q1123.9844,994.9668 1123.9844,997.4355 Q1123.9844,999.9043 1124.7813,1001.1543 Q1125.5938,1002.4043 1127.1719,1002.4043 Q1127.9219,1002.4043 1128.6094,1002.0918 Q1129.3125,1001.7793 1130.0625,1001.0918 L1130.0625,1004.2949 Z " fill="#000000"/><text fill="#000000" font-family="sans-serif" font-size="20" lengthAdjust="spacing" textLength="46" x="1149" y="1004.1406">Task</text><line style="stroke:#181818;stroke-width:0.5;" x1="938.5" x2="1370.5" y1="1014.2168" y2="1014.2168"/><text fill="#000000" font-family="sans-serif" font-size="20" lengthAdjust="spacing" textLength="169" x="943.5" y="1036.7813">-String reference</text><text fill="#000000" font-family="sans-serif" font-size="20" lengthAdjust="spacing" textLength="186" x="943.5" y="1060.0625">-String description</text><text fill="#000000" font-family="sans-serif" font-size="20" lengthAdjust="spacing" textLength="272" x="943.5" y="1083.3438">-String informalDescription</text><text fill="#000000" font-family="sans-serif" font-size="20" lengthAdjust="spacing" textLength="280" x="943.5" y="1106.625">-String technicalDescription</text><text fill="#000000" font-family="sans-serif" font-size="20" lengthAdjust="spacing" textLength="170" x="943.5" y="1129.9063">-Integer duration</text><text fill="#000000" font-family="sans-serif" font-size="20" lengthAdjust="spacing" textLength="125" x="943.5" y="1153.1875">-Double cost</text><line style="stroke:#181818;stroke-width:0.5;" x1="938.5" x2="1370.5" y1="1161.9043" y2="1161.9043"/><text fill="#000000" font-family="sans-serif" font-size="20" lengthAdjust="spacing" textLength="296" x="943.5" y="1184.4688">+Task(reference, description,</text><text fill="#000000" font-family="sans-serif" font-size="20" lengthAdjust="spacing" textLength="422" x="943.5" y="1207.75">informalDescription, technicalDescription,</text><text fill="#000000" font-family="sans-serif" font-size="20" lengthAdjust="spacing" textLength="403" x="943.5" y="1231.0313">duration, cost, createdBy, taskCategory)</text></g><!--class TaskCategory--><g id="elem_TaskCategory"><rect codeLine="49" fill="#F1F1F1" height="96.5625" id="TaskCategory" rx="2.5" ry="2.5" style="stroke:#181818;stroke-width:0.5;" width="293" x="559" y="1348.2168"/><ellipse cx="633" cy="1365.2168" fill="#ADD1B2" rx="12" ry="12" style="stroke:#181818;stroke-width:1.0;"/><path d="M636.0625,1372.2949 Q635.375,1372.6543 634.625,1372.8262 Q633.875,1372.998 633.0469,1372.998 Q630.0938,1372.998 628.5313,1371.0605 Q626.9844,1369.1074 626.9844,1365.4355 Q626.9844,1361.7637 628.5313,1359.8262 Q630.0938,1357.873 633.0469,1357.873 Q633.875,1357.873 634.625,1358.0449 Q635.3906,1358.2168 636.0625,1358.5762 L636.0625,1361.7793 Q635.3125,1361.0918 634.6094,1360.7793 Q633.9219,1360.4668 633.1719,1360.4668 Q631.5938,1360.4668 630.7813,1361.7168 Q629.9844,1362.9668 629.9844,1365.4355 Q629.9844,1367.9043 630.7813,1369.1543 Q631.5938,1370.4043 633.1719,1370.4043 Q633.9219,1370.4043 634.6094,1370.0918 Q635.3125,1369.7793 636.0625,1369.0918 L636.0625,1372.2949 Z " fill="#000000"/><text fill="#000000" font-family="sans-serif" font-size="20" lengthAdjust="spacing" textLength="136" x="655" y="1372.1406">TaskCategory</text><line style="stroke:#181818;stroke-width:0.5;" x1="560" x2="851" y1="1382.2168" y2="1382.2168"/><text fill="#000000" font-family="sans-serif" font-size="20" lengthAdjust="spacing" textLength="186" x="565" y="1404.7813">-String description</text><line style="stroke:#181818;stroke-width:0.5;" x1="560" x2="851" y1="1413.498" y2="1413.498"/><text fill="#000000" font-family="sans-serif" font-size="20" lengthAdjust="spacing" textLength="281" x="565" y="1436.0625">+TaskCategory(description)</text></g><!--class Organization--><g id="elem_Organization"><rect codeLine="55" fill="#F1F1F1" height="329.375" id="Organization" rx="2.5" ry="2.5" style="stroke:#181818;stroke-width:0.5;" width="847" x="1018" y="566.2168"/><ellipse cx="1372" cy="583.2168" fill="#ADD1B2" rx="12" ry="12" style="stroke:#181818;stroke-width:1.0;"/><path d="M1375.0625,590.2949 Q1374.375,590.6543 1373.625,590.8262 Q1372.875,590.998 1372.0469,590.998 Q1369.0938,590.998 1367.5313,589.0605 Q1365.9844,587.1074 1365.9844,583.4355 Q1365.9844,579.7637 1367.5313,577.8262 Q1369.0938,575.873 1372.0469,575.873 Q1372.875,575.873 1373.625,576.0449 Q1374.3906,576.2168 1375.0625,576.5762 L1375.0625,579.7793 Q1374.3125,579.0918 1373.6094,578.7793 Q1372.9219,578.4668 1372.1719,578.4668 Q1370.5938,578.4668 1369.7813,579.7168 Q1368.9844,580.9668 1368.9844,583.4355 Q1368.9844,585.9043 1369.7813,587.1543 Q1370.5938,588.4043 1372.1719,588.4043 Q1372.9219,588.4043 1373.6094,588.0918 Q1374.3125,587.7793 1375.0625,587.0918 L1375.0625,590.2949 Z " fill="#000000"/><text fill="#000000" font-family="sans-serif" font-size="20" lengthAdjust="spacing" textLength="130" x="1394" y="590.1406">Organization</text><line style="stroke:#181818;stroke-width:0.5;" x1="1019" x2="1864" y1="600.2168" y2="600.2168"/><text fill="#000000" font-family="sans-serif" font-size="20" lengthAdjust="spacing" textLength="131" x="1024" y="622.7813">-String name</text><text fill="#000000" font-family="sans-serif" font-size="20" lengthAdjust="spacing" textLength="186" x="1024" y="646.0625">-String vatNumber</text><text fill="#000000" font-family="sans-serif" font-size="20" lengthAdjust="spacing" textLength="152" x="1024" y="669.3438">-String website</text><text fill="#000000" font-family="sans-serif" font-size="20" lengthAdjust="spacing" textLength="137" x="1024" y="692.625">-String phone</text><text fill="#000000" font-family="sans-serif" font-size="20" lengthAdjust="spacing" textLength="130" x="1024" y="715.9063">-String email</text><line style="stroke:#181818;stroke-width:0.5;" x1="1019" x2="1864" y1="724.623" y2="724.623"/><text fill="#000000" font-family="sans-serif" font-size="20" lengthAdjust="spacing" textLength="149" x="1024" y="747.1875">-addTask(task)</text><text fill="#000000" font-family="sans-serif" font-size="20" lengthAdjust="spacing" textLength="191" x="1024" y="770.4688">-validateTask(task)</text><text fill="#000000" font-family="sans-serif" font-size="20" lengthAdjust="spacing" textLength="318" x="1024" y="793.75">+anyEmployeeHasEmail(email)</text><text fill="#000000" font-family="sans-serif" font-size="20" lengthAdjust="spacing" textLength="835" x="1024" y="817.0313">+Organization(name, vatNumber, webSite, phone, email, postalAddress, manager)</text><text fill="#000000" font-family="sans-serif" font-size="20" lengthAdjust="spacing" textLength="599" x="1024" y="840.3125">+RegisterUser(reference, description, informalDesccription,</text><text fill="#000000" font-family="sans-serif" font-size="20" lengthAdjust="spacing" textLength="622" x="1024" y="863.5938">technicalDescription, duration, cost, taskCategoryDescription)</text><text fill="#000000" font-family="sans-serif" font-size="20" lengthAdjust="spacing" textLength="293" x="1024" y="886.875">-getEmployeeByEmail(email)</text></g><!--class TaskCategoryRepository--><g id="elem_TaskCategoryRepository"><rect codeLine="72" fill="#F1F1F1" height="73.2813" id="TaskCategoryRepository" rx="2.5" ry="2.5" style="stroke:#181818;stroke-width:0.5;" width="465" x="638" y="396.2168"/><ellipse cx="745" cy="413.2168" fill="#ADD1B2" rx="12" ry="12" style="stroke:#181818;stroke-width:1.0;"/><path d="M748.0625,420.2949 Q747.375,420.6543 746.625,420.8262 Q745.875,420.998 745.0469,420.998 Q742.0938,420.998 740.5313,419.0605 Q738.9844,417.1074 738.9844,413.4355 Q738.9844,409.7637 740.5313,407.8262 Q742.0938,405.873 745.0469,405.873 Q745.875,405.873 746.625,406.0449 Q747.3906,406.2168 748.0625,406.5762 L748.0625,409.7793 Q747.3125,409.0918 746.6094,408.7793 Q745.9219,408.4668 745.1719,408.4668 Q743.5938,408.4668 742.7813,409.7168 Q741.9844,410.9668 741.9844,413.4355 Q741.9844,415.9043 742.7813,417.1543 Q743.5938,418.4043 745.1719,418.4043 Q745.9219,418.4043 746.6094,418.0918 Q747.3125,417.7793 748.0625,417.0918 L748.0625,420.2949 Z " fill="#000000"/><text fill="#000000" font-family="sans-serif" font-size="20" lengthAdjust="spacing" textLength="242" x="767" y="420.1406">TaskCategoryRepository</text><line style="stroke:#181818;stroke-width:0.5;" x1="639" x2="1102" y1="430.2168" y2="430.2168"/><line style="stroke:#181818;stroke-width:0.5;" x1="639" x2="1102" y1="438.2168" y2="438.2168"/><text fill="#000000" font-family="sans-serif" font-size="20" lengthAdjust="spacing" textLength="453" x="644" y="460.7813">+getTaskCategoryByDescription(description)</text></g><!--class OrganizationRepository--><g id="elem_OrganizationRepository"><rect codeLine="76" fill="#F1F1F1" height="73.2813" id="OrganizationRepository" rx="2.5" ry="2.5" style="stroke:#181818;stroke-width:0.5;" width="445" x="1337" y="396.2168"/><ellipse cx="1437" cy="413.2168" fill="#ADD1B2" rx="12" ry="12" style="stroke:#181818;stroke-width:1.0;"/><path d="M1440.0625,420.2949 Q1439.375,420.6543 1438.625,420.8262 Q1437.875,420.998 1437.0469,420.998 Q1434.0938,420.998 1432.5313,419.0605 Q1430.9844,417.1074 1430.9844,413.4355 Q1430.9844,409.7637 1432.5313,407.8262 Q1434.0938,405.873 1437.0469,405.873 Q1437.875,405.873 1438.625,406.0449 Q1439.3906,406.2168 1440.0625,406.5762 L1440.0625,409.7793 Q1439.3125,409.0918 1438.6094,408.7793 Q1437.9219,408.4668 1437.1719,408.4668 Q1435.5938,408.4668 1434.7813,409.7168 Q1433.9844,410.9668 1433.9844,413.4355 Q1433.9844,415.9043 1434.7813,417.1543 Q1435.5938,418.4043 1437.1719,418.4043 Q1437.9219,418.4043 1438.6094,418.0918 Q1439.3125,417.7793 1440.0625,417.0918 L1440.0625,420.2949 Z " fill="#000000"/><text fill="#000000" font-family="sans-serif" font-size="20" lengthAdjust="spacing" textLength="236" x="1459" y="420.1406">OrganizationRepository</text><line style="stroke:#181818;stroke-width:0.5;" x1="1338" x2="1781" y1="430.2168" y2="430.2168"/><line style="stroke:#181818;stroke-width:0.5;" x1="1338" x2="1781" y1="438.2168" y2="438.2168"/><text fill="#000000" font-family="sans-serif" font-size="20" lengthAdjust="spacing" textLength="433" x="1343" y="460.7813">+getOrganizationByEmployeeEmail(email)</text></g><!--class Repositories--><g id="elem_Repositories"><rect codeLine="80" fill="#F1F1F1" height="143.125" id="Repositories" rx="2.5" ry="2.5" style="stroke:#181818;stroke-width:0.5;" width="320" x="1377.5" y="109.7168"/><ellipse cx="1471.5" cy="126.7168" fill="#ADD1B2" rx="12" ry="12" style="stroke:#181818;stroke-width:1.0;"/><path d="M1474.5625,133.7949 Q1473.875,134.1543 1473.125,134.3262 Q1472.375,134.498 1471.5469,134.498 Q1468.5938,134.498 1467.0313,132.5605 Q1465.4844,130.6074 1465.4844,126.9355 Q1465.4844,123.2637 1467.0313,121.3262 Q1468.5938,119.373 1471.5469,119.373 Q1472.375,119.373 1473.125,119.5449 Q1473.8906,119.7168 1474.5625,120.0762 L1474.5625,123.2793 Q1473.8125,122.5918 1473.1094,122.2793 Q1472.4219,121.9668 1471.6719,121.9668 Q1470.0938,121.9668 1469.2813,123.2168 Q1468.4844,124.4668 1468.4844,126.9355 Q1468.4844,129.4043 1469.2813,130.6543 Q1470.0938,131.9043 1471.6719,131.9043 Q1472.4219,131.9043 1473.1094,131.5918 Q1473.8125,131.2793 1474.5625,130.5918 L1474.5625,133.7949 Z " fill="#000000"/><text fill="#000000" font-family="sans-serif" font-size="20" lengthAdjust="spacing" textLength="123" x="1493.5" y="133.6406">Repositories</text><line style="stroke:#181818;stroke-width:0.5;" x1="1378.5" x2="1696.5" y1="143.7168" y2="143.7168"/><line style="stroke:#181818;stroke-width:0.5;" x1="1378.5" x2="1696.5" y1="151.7168" y2="151.7168"/><text fill="#000000" font-family="sans-serif" font-size="20" lengthAdjust="spacing" textLength="146" x="1383.5" y="174.2813">-Repositories()</text><text fill="#000000" font-family="sans-serif" font-size="20" lengthAdjust="spacing" textLength="293" x="1383.5" y="197.5625">+getInstance() : Repositories</text><text fill="#000000" font-family="sans-serif" font-size="20" lengthAdjust="spacing" textLength="308" x="1383.5" y="220.8438">+getTaskCategoryRepository()</text><text fill="#000000" font-family="sans-serif" font-size="20" lengthAdjust="spacing" textLength="302" x="1383.5" y="244.125">+getOrganizationRepository()</text></g><!--class RegisterUserController--><g id="elem_RegisterUserController"><rect codeLine="87" fill="#F1F1F1" height="212.9688" id="RegisterUserController" rx="2.5" ry="2.5" style="stroke:#181818;stroke-width:0.5;" width="754" x="225.5" y="74.7168"/><ellipse cx="484.5" cy="91.7168" fill="#ADD1B2" rx="12" ry="12" style="stroke:#181818;stroke-width:1.0;"/><path d="M487.5625,98.7949 Q486.875,99.1543 486.125,99.3262 Q485.375,99.498 484.5469,99.498 Q481.5938,99.498 480.0313,97.5605 Q478.4844,95.6074 478.4844,91.9355 Q478.4844,88.2637 480.0313,86.3262 Q481.5938,84.373 484.5469,84.373 Q485.375,84.373 486.125,84.5449 Q486.8906,84.7168 487.5625,85.0762 L487.5625,88.2793 Q486.8125,87.5918 486.1094,87.2793 Q485.4219,86.9668 484.6719,86.9668 Q483.0938,86.9668 482.2813,88.2168 Q481.4844,89.4668 481.4844,91.9355 Q481.4844,94.4043 482.2813,95.6543 Q483.0938,96.9043 484.6719,96.9043 Q485.4219,96.9043 486.1094,96.5918 Q486.8125,96.2793 487.5625,95.5918 L487.5625,98.7949 Z " fill="#000000"/><text fill="#000000" font-family="sans-serif" font-size="20" lengthAdjust="spacing" textLength="227" x="506.5" y="98.6406">RegisterUserController</text><line style="stroke:#181818;stroke-width:0.5;" x1="226.5" x2="978.5" y1="108.7168" y2="108.7168"/><line style="stroke:#181818;stroke-width:0.5;" x1="226.5" x2="978.5" y1="116.7168" y2="116.7168"/><text fill="#000000" font-family="sans-serif" font-size="20" lengthAdjust="spacing" textLength="742" x="231.5" y="139.2813">+RegisterUserController(organizationRepository, taskCategoryRepository)</text><text fill="#000000" font-family="sans-serif" font-size="20" lengthAdjust="spacing" textLength="219" x="231.5" y="162.5625">+getTaskCategories()</text><text fill="#000000" font-family="sans-serif" font-size="20" lengthAdjust="spacing" textLength="490" x="231.5" y="185.8438">+RegisterUser(userEmail, reference, description,</text><text fill="#000000" font-family="sans-serif" font-size="20" lengthAdjust="spacing" textLength="422" x="231.5" y="209.125">informalDescription, technicalDescription,</text><text fill="#000000" font-family="sans-serif" font-size="20" lengthAdjust="spacing" textLength="359" x="231.5" y="232.4063">duration, cost, categoryDescription)</text><text fill="#000000" font-family="sans-serif" font-size="20" lengthAdjust="spacing" textLength="577" x="231.5" y="255.6875">-getTaskCategoryByDescription(taskCategoryDescription)</text><text fill="#000000" font-family="sans-serif" font-size="20" lengthAdjust="spacing" textLength="283" x="231.5" y="278.9688">-getEmployeeFromSession()</text></g><g id="elem_GMN13"><path d="M1015,129.7168 L1015,232.8418 L1342,232.8418 L1342,139.7168 L1332,129.7168 L1015,129.7168 " fill="#FEFFDD" style="stroke:#181818;stroke-width:0.5;"/><path d="M1332,129.7168 L1332,139.7168 L1342,139.7168 L1332,129.7168 " fill="#FEFFDD" style="stroke:#181818;stroke-width:1.0;"/><text fill="#000000" font-family="sans-serif" font-size="20" lengthAdjust="spacing" textLength="230" x="1021" y="153.2813">- userEmail is obtained</text><text fill="#000000" font-family="sans-serif" font-size="20" lengthAdjust="spacing" textLength="214" x="1021" y="176.5625">from the user session</text><text fill="#000000" font-family="sans-serif" font-size="20" lengthAdjust="spacing" textLength="214" x="1021" y="199.8438">- categoryDescription</text><text fill="#000000" font-family="sans-serif" font-size="20" lengthAdjust="spacing" textLength="306" x="1021" y="223.125">is retrieved from selected date</text></g><g id="elem_GMN16"><path d="M758.5,702.2168 L758.5,758.7793 A0,0 0 0 0 758.5,758.7793 L982.5,758.7793 A0,0 0 0 0 982.5,758.7793 L982.5,712.2168 L972.5,702.2168 L874.5,702.2168 L870.5,469.4168 L866.5,702.2168 L758.5,702.2168 A0,0 0 0 0 758.5,702.2168 " fill="#FEFFDD" style="stroke:#181818;stroke-width:0.5;"/><path d="M972.5,702.2168 L972.5,712.2168 L982.5,712.2168 L972.5,702.2168 " fill="#FEFFDD" style="stroke:#181818;stroke-width:0.5;"/><text fill="#000000" font-family="sans-serif" font-size="20" lengthAdjust="spacing" textLength="203" x="764.5" y="725.7813">- used for displaying</text><text fill="#000000" font-family="sans-serif" font-size="20" lengthAdjust="spacing" textLength="162" x="764.5" y="749.0625">the category list</text></g><!--class RegisterUserUI--><g id="elem_RegisterUserUI"><rect codeLine="107" fill="#F1F1F1" height="50" id="RegisterUserUI" rx="2.5" ry="2.5" style="stroke:#181818;stroke-width:0.5;" width="183" x="7" y="156.2168"/><ellipse cx="23" cy="173.2168" fill="#ADD1B2" rx="12" ry="12" style="stroke:#181818;stroke-width:1.0;"/><path d="M26.0625,180.2949 Q25.375,180.6543 24.625,180.8262 Q23.875,180.998 23.0469,180.998 Q20.0938,180.998 18.5313,179.0605 Q16.9844,177.1074 16.9844,173.4355 Q16.9844,169.7637 18.5313,167.8262 Q20.0938,165.873 23.0469,165.873 Q23.875,165.873 24.625,166.0449 Q25.3906,166.2168 26.0625,166.5762 L26.0625,169.7793 Q25.3125,169.0918 24.6094,168.7793 Q23.9219,168.4668 23.1719,168.4668 Q21.5938,168.4668 20.7813,169.7168 Q19.9844,170.9668 19.9844,173.4355 Q19.9844,175.9043 20.7813,177.1543 Q21.5938,178.4043 23.1719,178.4043 Q23.9219,178.4043 24.6094,178.0918 Q25.3125,177.7793 26.0625,177.0918 L26.0625,180.2949 Z " fill="#000000"/><text fill="#000000" font-family="sans-serif" font-size="20" lengthAdjust="spacing" textLength="149" x="38" y="180.1406">RegisterUserUI</text><line style="stroke:#181818;stroke-width:0.5;" x1="8" x2="189" y1="190.2168" y2="190.2168"/><line style="stroke:#181818;stroke-width:0.5;" x1="8" x2="189" y1="198.2168" y2="198.2168"/></g><!--link RegisterUserController to GMN13--><g id="link_RegisterUserController_GMN13"><path d="M979.67,181.2168 C984.04,181.2168 986.5,181.2168 986.5,181.2168 C986.5,181.2168 997.76,181.2168 1014.83,181.2168 " fill="none" id="RegisterUserController-GMN13" style="stroke:#181818;stroke-width:1.0;stroke-dasharray:7.0,7.0;"/></g><!--link Repositories to Repositories--><g id="link_Repositories_Repositories"><path codeLine="110" d="M1697.78,154.8468 C1718.67,159.3768 1732.5,168.1668 1732.5,181.2168 C1732.5,193.1468 1720.94,201.5168 1703,206.3268 " fill="none" id="Repositories-to-Repositories" style="stroke:#181818;stroke-width:1.0;"/><polygon fill="#181818" points="1697.78,207.5868,1707.4719,209.3383,1702.6374,206.401,1705.5746,201.5665,1697.78,207.5868" style="stroke:#181818;stroke-width:1.0;"/><text fill="#000000" font-family="sans-serif" font-size="20" lengthAdjust="spacing" textLength="85" x="1738.5" y="188.2813">instance</text></g><!--link ApplicationSession to ApplicationSession--><g id="link_ApplicationSession_ApplicationSession"><path codeLine="111" d="M416.59,416.8268 C437.14,418.8968 451.5,424.1868 451.5,432.7168 C451.5,440.5068 439.5,445.6068 421.75,447.9968 " fill="none" id="ApplicationSession-to-ApplicationSession" style="stroke:#181818;stroke-width:1.0;"/><polygon fill="#181818" points="416.59,448.6068,425.9972,451.5231,421.5555,448.0201,425.0585,443.5784,416.59,448.6068" style="stroke:#181818;stroke-width:1.0;"/><text fill="#000000" font-family="sans-serif" font-size="20" lengthAdjust="spacing" textLength="85" x="457.5" y="439.7813">instance</text></g><!--link RegisterUserUI to RegisterUserController--><g id="link_RegisterUserUI_RegisterUserController"><path codeLine="113" d="M190.36,181.2168 C200.71,181.2168 210.89,181.2168 220.27,181.2168 " fill="none" id="RegisterUserUI-to-RegisterUserController" style="stroke:#181818;stroke-width:1.0;stroke-dasharray:7.0,7.0;"/><polygon fill="#181818" points="225.4,181.2168,216.4,177.2168,220.4,181.2168,216.4,185.2168,225.4,181.2168" style="stroke:#181818;stroke-width:1.0;"/></g><!--link RegisterUserController to Repositories--><g id="link_RegisterUserController_Repositories"><path codeLine="115" d="M959.27,74.6368 C982.88,67.5868 997.5,63.2168 997.5,63.2168 C997.5,63.2168 1119,34.2168 1119,34.2168 C1119,34.2168 1238,34.2168 1238,34.2168 C1238,34.2168 1359.5,63.2168 1359.5,63.2168 C1359.5,63.2168 1389.71,83.2468 1425.24,106.7968 " fill="none" id="RegisterUserController-to-Repositories" style="stroke:#181818;stroke-width:1.0;stroke-dasharray:7.0,7.0;"/><polygon fill="#181818" points="1429.59,109.6868,1424.3005,101.3789,1425.4232,106.9232,1419.8788,108.0458,1429.59,109.6868" style="stroke:#181818;stroke-width:1.0;"/><text fill="#000000" font-family="sans-serif" font-size="20" lengthAdjust="spacing" textLength="117" x="1120" y="27.7813">repositories</text></g><!--link Repositories to TaskCategoryRepository--><g id="link_Repositories_TaskCategoryRepository"><path codeLine="117" d="M1517.29,253.1668 C1503.79,300.5468 1488.5,354.2168 1488.5,354.2168 C1488.5,354.2168 1130.5,384.2168 1130.5,384.2168 C1130.5,384.2168 1105.07,388.8668 1070.12,395.2468 " fill="none" id="Repositories-to-TaskCategoryRepository" style="stroke:#181818;stroke-width:1.0;"/><polygon fill="#181818" points="1064.89,396.2068,1074.4568,398.547,1069.8107,395.3199,1073.0378,390.6739,1064.89,396.2068" style="stroke:#181818;stroke-width:1.0;"/><text fill="#000000" font-family="sans-serif" font-size="20" lengthAdjust="spacing" textLength="13" x="1084.1836" y="383.5195">1</text></g><!--link RegisterUserController to TaskCategory--><g id="link_RegisterUserController_TaskCategory"><path codeLine="119" d="M594.87,288.0268 C589.96,356.0268 584.5,431.7168 584.5,431.7168 C584.5,431.7168 584.5,431.7168 584.5,1111.2168 C584.5,1111.2168 648.24,1261.0768 683.19,1343.2668 " fill="none" id="RegisterUserController-to-TaskCategory" style="stroke:#181818;stroke-width:1.0;stroke-dasharray:7.0,7.0;"/><polygon fill="#181818" points="685.25,1348.0968,685.4331,1338.2496,683.3046,1343.4908,678.0635,1341.3623,685.25,1348.0968" style="stroke:#181818;stroke-width:1.0;"/></g><!--link RegisterUserController to OrganizationRepository--><g id="link_RegisterUserController_OrganizationRepository"><path codeLine="120" d="M958.91,287.7868 C982.73,294.8468 997.5,299.2168 997.5,299.2168 C997.5,299.2168 1199.5,329.2168 1199.5,329.2168 C1199.5,329.2168 1326.56,365.3968 1429.71,394.7568 " fill="none" id="RegisterUserController-to-OrganizationRepository" style="stroke:#181818;stroke-width:1.0;stroke-dasharray:7.0,7.0;"/><polygon fill="#181818" points="1434.6,396.1568,1427.0452,389.8382,1429.7924,394.7832,1424.8474,397.5304,1434.6,396.1568" style="stroke:#181818;stroke-width:1.0;"/><text fill="#000000" font-family="sans-serif" font-size="20" lengthAdjust="spacing" textLength="232" x="1287.5" y="348.7813">organizationRepository</text></g><!--link RegisterUserController to TaskCategoryRepository--><g id="link_RegisterUserController_TaskCategoryRepository"><path codeLine="121" d="M716.16,288.0268 C755.89,325.0168 798.06,364.2768 828.27,392.3968 " fill="none" id="RegisterUserController-to-TaskCategoryRepository" style="stroke:#181818;stroke-width:1.0;stroke-dasharray:7.0,7.0;"/><polygon fill="#181818" points="832.26,396.1168,828.3921,387.0592,828.5981,392.7123,822.945,392.9183,832.26,396.1168" style="stroke:#181818;stroke-width:1.0;"/><text fill="#000000" font-family="sans-serif" font-size="20" lengthAdjust="spacing" textLength="242" x="785.5" y="348.7813">TaskCategoryRepository</text></g><!--link Repositories to OrganizationRepository--><g id="link_Repositories_OrganizationRepository"><path codeLine="123" d="M1543.75,253.0468 C1547.67,297.5368 1552.59,353.3568 1555.88,390.6568 " fill="none" id="Repositories-to-OrganizationRepository" style="stroke:#181818;stroke-width:1.0;"/><polygon fill="#181818" points="1556.35,396.0168,1559.538,386.6982,1555.9076,391.0364,1551.5694,387.406,1556.35,396.0168" style="stroke:#181818;stroke-width:1.0;"/><text fill="#000000" font-family="sans-serif" font-size="20" lengthAdjust="spacing" textLength="13" x="1541.7517" y="383.5981">1</text></g><!--link OrganizationRepository to Organization--><g id="link_OrganizationRepository_Organization"><path codeLine="125" d="M1545.27,469.4168 C1535.76,493.2568 1522.5,526.5268 1508.63,561.3368 " fill="none" id="OrganizationRepository-to-Organization" style="stroke:#181818;stroke-width:1.0;"/><polygon fill="#181818" points="1506.75,566.0268,1513.8064,559.1561,1508.607,561.3844,1506.3786,556.1849,1506.75,566.0268" style="stroke:#181818;stroke-width:1.0;"/><text fill="#000000" font-family="sans-serif" font-size="20" lengthAdjust="spacing" textLength="10" x="1499.4801" y="553.6055">*</text></g><!--link ApplicationSession to UserSession--><g id="link_ApplicationSession_UserSession"><path codeLine="126" d="M283.67,481.2768 C262.07,538.8568 226.07,634.8568 205.73,689.1168 " fill="none" id="ApplicationSession-to-UserSession" style="stroke:#181818;stroke-width:1.0;"/><polygon fill="#181818" points="203.93,693.9168,210.8354,686.8943,205.6856,689.2352,203.3448,684.0853,203.93,693.9168" style="stroke:#181818;stroke-width:1.0;"/><text fill="#000000" font-family="sans-serif" font-size="20" lengthAdjust="spacing" textLength="119" x="273.5" y="530.7813">userSession</text><text fill="#000000" font-family="sans-serif" font-size="20" lengthAdjust="spacing" textLength="13" x="192.0778" y="681.4816">1</text></g><!--link RegisterUserController to Organization--><g id="link_RegisterUserController_Organization"><path codeLine="128" d="M914.16,287.7768 C983.31,311.1968 1036.5,329.2168 1036.5,329.2168 C1036.5,329.2168 1120.5,384.2168 1120.5,384.2168 C1120.5,384.2168 1191.5,481.2168 1191.5,481.2168 C1191.5,481.2168 1228.1,517.5968 1273.29,562.5168 " fill="none" id="RegisterUserController-to-Organization" style="stroke:#181818;stroke-width:1.0;stroke-dasharray:7.0,7.0;"/><polygon fill="#181818" points="1276.84,566.0368,1273.2673,556.8588,1273.2902,562.5156,1267.6334,562.5385,1276.84,566.0368" style="stroke:#181818;stroke-width:1.0;"/><text fill="#000000" font-family="sans-serif" font-size="20" lengthAdjust="spacing" textLength="126" x="1192.5" y="439.7813">organization</text><text fill="#000000" font-family="sans-serif" font-size="20" lengthAdjust="spacing" textLength="13" x="1256.0843" y="553.616">1</text></g><!--link RegisterUserController to ApplicationSession--><g id="link_RegisterUserController_ApplicationSession"><path codeLine="129" d="M474.85,288.0268 C436.05,320.1868 395.17,354.0668 362.87,380.8468 " fill="none" id="RegisterUserController-to-ApplicationSession" style="stroke:#181818;stroke-width:1.0;stroke-dasharray:7.0,7.0;"/><polygon fill="#181818" points="358.97,384.0768,368.4516,381.4123,362.8193,380.8857,363.3459,375.2534,358.97,384.0768" style="stroke:#181818;stroke-width:1.0;"/></g><!--link RegisterUserController to UserSession--><g id="link_RegisterUserController_UserSession"><path codeLine="130" d="M375.65,287.8068 C270.53,336.7268 168.5,384.2168 168.5,384.2168 C168.5,384.2168 168.5,481.2168 168.5,481.2168 C168.5,481.2168 180.62,618.1668 186.87,688.7368 " fill="none" id="RegisterUserController-to-UserSession" style="stroke:#181818;stroke-width:1.0;stroke-dasharray:7.0,7.0;"/><polygon fill="#181818" points="187.35,694.1168,190.538,684.7982,186.9076,689.1364,182.5694,685.506,187.35,694.1168" style="stroke:#181818;stroke-width:1.0;"/></g><!--link Task to TaskCategory--><g id="link_Task_TaskCategory"><path codeLine="131" d="M950.69,1240.3568 C891.96,1277.5668 831.32,1315.9968 785.04,1345.3168 " fill="none" id="Task-to-TaskCategory" style="stroke:#181818;stroke-width:1.0;"/><polygon fill="#181818" points="780.61,1348.1268,790.3517,1346.6781,784.8307,1345.4461,786.0626,1339.925,780.61,1348.1268" style="stroke:#181818;stroke-width:1.0;"/><text fill="#000000" font-family="sans-serif" font-size="20" lengthAdjust="spacing" textLength="132" x="904.5" y="1289.7813">taskCategory</text><text fill="#000000" font-family="sans-serif" font-size="20" lengthAdjust="spacing" textLength="10" x="929.9232" y="1266.2439">*</text><text fill="#000000" font-family="sans-serif" font-size="20" lengthAdjust="spacing" textLength="13" x="776.8295" y="1335.6649">1</text></g><!--link TaskCategoryRepository to TaskCategory--><g id="link_TaskCategoryRepository_TaskCategory"><path codeLine="132" d="M835.66,469.2268 C797.15,508.4768 740.5,566.2168 740.5,566.2168 C740.5,566.2168 715.42,1160.6968 707.72,1343.1268 " fill="none" id="TaskCategoryRepository-to-TaskCategory" style="stroke:#181818;stroke-width:1.0;"/><polygon fill="#181818" points="707.51,1348.1368,711.8917,1339.3163,707.7241,1343.1414,703.899,1338.9738,707.51,1348.1368" style="stroke:#181818;stroke-width:1.0;"/><text fill="#000000" font-family="sans-serif" font-size="20" lengthAdjust="spacing" textLength="132" x="726.5" y="944.7813">taskCategory</text><text fill="#000000" font-family="sans-serif" font-size="20" lengthAdjust="spacing" textLength="13" x="815.5547" y="496.043">1</text><text fill="#000000" font-family="sans-serif" font-size="20" lengthAdjust="spacing" textLength="10" x="697.1082" y="1335.6763">*</text></g><!--link Organization to Task--><g id="link_Organization_Task"><path codeLine="133" d="M1317.08,895.3768 C1296.6,922.3068 1275.6,949.9368 1255.77,976.0068 " fill="none" id="Organization-to-Task" style="stroke:#181818;stroke-width:1.0;"/><polygon fill="#181818" points="1252.6,980.1768,1261.23,975.4309,1255.6251,976.1957,1254.8602,970.5908,1252.6,980.1768" style="stroke:#181818;stroke-width:1.0;"/><text fill="#000000" font-family="sans-serif" font-size="20" lengthAdjust="spacing" textLength="52" x="1290.5" y="944.7813">tasks</text><text fill="#000000" font-family="sans-serif" font-size="20" lengthAdjust="spacing" textLength="13" x="1298.1477" y="921.9214">1</text><text fill="#000000" font-family="sans-serif" font-size="20" lengthAdjust="spacing" textLength="10" x="1247.9823" y="967.5801">*</text></g><!--link Task to Employee--><g id="link_Task_Employee"><path codeLine="134" d="M1237.7,1240.5668 C1255.37,1268.0368 1273.46,1296.1568 1289.3,1320.7868 " fill="none" id="Task-to-Employee" style="stroke:#181818;stroke-width:1.0;"/><polygon fill="#181818" points="1292.03,1325.0168,1290.5045,1315.2868,1289.3161,1320.8174,1283.7855,1319.629,1292.03,1325.0168" style="stroke:#181818;stroke-width:1.0;"/><text fill="#000000" font-family="sans-serif" font-size="20" lengthAdjust="spacing" textLength="101" x="1269.5" y="1289.7813">createdBy</text></g><!--link Organization to Employee--><g id="link_Organization_Employee"><path codeLine="136" d="M1424.76,895.4068 C1409.56,1044.0568 1389.5,1240.2168 1389.5,1240.2168 C1389.5,1240.2168 1379.5,1295.2168 1379.5,1295.2168 C1379.5,1295.2168 1375.07,1305.8068 1369.1,1320.1168 " fill="none" id="Organization-to-Employee" style="stroke:#181818;stroke-width:1.0;"/><polygon fill="#181818" points="1367.01,1325.0968,1374.1713,1318.3354,1368.9381,1320.4835,1366.79,1315.2504,1367.01,1325.0968" style="stroke:#181818;stroke-width:1.0;"/><text fill="#000000" font-family="sans-serif" font-size="20" lengthAdjust="spacing" textLength="84" x="1416.5" y="1117.2813">employs</text><text fill="#000000" font-family="sans-serif" font-size="20" lengthAdjust="spacing" textLength="10" x="1359.4227" y="1312.4868">*</text></g><!--SRC=[jLTBR-Cs4BxpLn1xYTrL5jiUVLWWZmrge6Y1k8iUsXveSImJeKY1f9nw5_tl7L8lKgRSzD0S0cauyyqtBsfiNuHgc66rrEKBSChXm5hfdhHoE_4Lw0yVoOqTT6YjbIwFHjT0dMc1J2SDArzO1Jjtba0Db8wfIiOAziYuVXMgeWScRNmYXG9tRe0sMfxzI-nnFDJ6QH9PbP9PU-US4VlMmRRKAl3zICYDX8EZJbCZggEZN7WwGYj2WWszQnefIkP5Ex3MdtmZ5F_UK-jGND8At5RXiofXjUwFKFRG6WEObyu8J_uU8BzOC7CiDF3YppKJCkZstbjtV68buq07pRtM4fYYZ7DlyOnlgnq6XhaIlA3z8mTR6j5uskkyuM2aM0sZ6NZ_urlpoXUCVnFk67k-3Z8-6pJP_Xkc_M-Wl_yPOEqbBlmbhBDnh05aK8lAGBd-ILT2hVBEi1Alsl2SuLJeI3gsmKaBtc7hraLb_LmtKfzXAEfj2BL_3BxxvqPR4PgnVprgxFUnZtvbzcL4638C1q0s9QJYg1tI0w4EsjHCFYufE2YF2WSWex5L3YembBU6HU97tUvnh4jj7Udpu9ckHcf5JAVuGsKu55c_g3luAW8-_ZV07F3xCrgWamTygRGvhzCi3U9vjkAqH5G7zLKoHIFYBwPYIdmDFEQ8KI5xoOcvdzjw3oOLly8UQplJxGgSYBfsw6KuAI6LFjHrBpinAJWIdXsyfqoTXpxxaTdkPaa688vZrGtRIBRm17T8iEX85SDCO4iw9kyuDzZh1QsPmelS393FKE7CWGb3jr3mfEUYqcOhJkS5ZwlyEB_aRlqy3a7VdvEOoGqIjEmK9ohR9CyGncvgbt0xnnhtiUStD4aUCTQu7qkLS1xHHWG1TcovM1X_UQQl4TqaIlbe9dOnI9x_Ak4qrVe1Dm2yXINU1jyohJ0ThtGMDwth95zdASVn9XtN3f_GWlu_jytLnbjkaRStxHEkIydAeBI3VZVHXuMazZ1Zz5HOglUEuJR4mza1KQaxGb2XjjyzEgjCJE44CGpW7GGdNFG2W0M9kv5V-vXZ11IddbnFSQ-TGntacE-jYIEYQVne2Dj8TiOhBfnuSWCJNEFmqp7XNxRRboss6IOd6OlRJ-cORF2YwGQ1N2vnNZiZZMp8pE67JqlP9mkJyE62a8c7yOBzk-_VBILlqGNwY4skwItSI1kQ7yctkaoWbkd7eVQnvWaHia0qc7sNccKhsyF7QzecTFwmT5yBRKvibfzhffcV2bUqury1OPFpiTrcsW0PnFS7MKY-DnjITCqy2Mvkr2lRZf4_6LVLpRHhfIKQ0I9L28-M_0C0]--></g></svg>