<?xml version="1.0" encoding="UTF-8" standalone="no"?><svg xmlns="http://www.w3.org/2000/svg" xmlns:xlink="http://www.w3.org/1999/xlink" contentStyleType="text/css" height="1501px" preserveAspectRatio="none" style="width:2569px;height:1501px;background:#FFFFFF;" version="1.1" viewBox="0 0 2569 1501" width="2569px" zoomAndPan="magnify"><defs/><g><rect fill="#FFFFFF" height="1294.0469" style="stroke:#181818;stroke-width:1.0;" width="10" x="97.5" y="100.1563"/><rect fill="#FFFFFF" height="64.3125" style="stroke:#181818;stroke-width:1.0;" width="10" x="636.5" y="131.3125"/><rect fill="#FFFFFF" height="767.8594" style="stroke:#181818;stroke-width:1.0;" width="10" x="636.5" y="234.7813"/><rect fill="#FFFFFF" height="352.4063" style="stroke:#181818;stroke-width:1.0;" width="10" x="636.5" y="1041.7969"/><rect fill="#FFFFFF" height="402.7188" style="stroke:#181818;stroke-width:1.0;" width="10" x="1157.5" y="560.7656"/><rect fill="#FFFFFF" height="274.0938" style="stroke:#181818;stroke-width:1.0;" width="10" x="1157.5" y="1080.9531"/><rect fill="#FFFFFF" height="39.1563" style="stroke:#181818;stroke-width:1.0;" width="10" x="1342.5" y="599.9219"/><rect fill="#FFFFFF" height="39.1563" style="stroke:#181818;stroke-width:1.0;" width="10" x="1342.5" y="1120.1094"/><rect fill="#FFFFFF" height="39.1563" style="stroke:#181818;stroke-width:1.0;" width="10" x="1482.5" y="678.2344"/><rect fill="#FFFFFF" height="39.1563" style="stroke:#181818;stroke-width:1.0;" width="10" x="1482.5" y="1198.4219"/><rect fill="#FFFFFF" height="64.3125" style="stroke:#181818;stroke-width:1.0;" width="10" x="1689.5" y="781.7031"/><rect fill="#FFFFFF" height="39.1563" style="stroke:#181818;stroke-width:1.0;" width="10" x="1689.5" y="885.1719"/><rect fill="#FFFFFF" height="39.1563" style="stroke:#181818;stroke-width:1.0;" width="10" x="2443" y="1276.7344"/><rect fill="none" height="247.6719" style="stroke:#000000;stroke-width:1.5;" width="1272.5" x="10" y="249.7813"/><line style="stroke:#181818;stroke-width:0.5;stroke-dasharray:5.0,5.0;" x1="102" x2="102" y1="90.1563" y2="1412.2031"/><line style="stroke:#181818;stroke-width:0.5;stroke-dasharray:5.0,5.0;" x1="641.5" x2="641.5" y1="90.1563" y2="1412.2031"/><line style="stroke:#181818;stroke-width:0.5;stroke-dasharray:5.0,5.0;" x1="1162.5" x2="1162.5" y1="90.1563" y2="1412.2031"/><line style="stroke:#181818;stroke-width:0.5;stroke-dasharray:5.0,5.0;" x1="1347.5" x2="1347.5" y1="90.1563" y2="1412.2031"/><line style="stroke:#181818;stroke-width:0.5;stroke-dasharray:5.0,5.0;" x1="1487.5" x2="1487.5" y1="90.1563" y2="1412.2031"/><line style="stroke:#181818;stroke-width:0.5;stroke-dasharray:5.0,5.0;" x1="1694" x2="1694" y1="90.1563" y2="1412.2031"/><line style="stroke:#181818;stroke-width:0.5;stroke-dasharray:5.0,5.0;" x1="1874" x2="1874" y1="90.1563" y2="1412.2031"/><line style="stroke:#181818;stroke-width:0.5;stroke-dasharray:5.0,5.0;" x1="2248.5" x2="2248.5" y1="831.8594" y2="1412.2031"/><line style="stroke:#181818;stroke-width:0.5;stroke-dasharray:5.0,5.0;" x1="2447.5" x2="2447.5" y1="90.1563" y2="1412.2031"/><text fill="#000000" font-family="sans-serif" font-size="20" lengthAdjust="spacing" textLength="159" x="20" y="85.7617">Unregistered User</text><ellipse cx="102.5" cy="13.5" fill="#E2E2F0" rx="8" ry="8" style="stroke:#181818;stroke-width:0.5;"/><path d="M102.5,21.5 L102.5,48.5 M89.5,29.5 L115.5,29.5 M102.5,48.5 L89.5,63.5 M102.5,48.5 L115.5,63.5 " fill="none" style="stroke:#181818;stroke-width:0.5;"/><text fill="#000000" font-family="sans-serif" font-size="20" lengthAdjust="spacing" textLength="159" x="20" y="1431.9648">Unregistered User</text><ellipse cx="102.5" cy="1444.8594" fill="#E2E2F0" rx="8" ry="8" style="stroke:#181818;stroke-width:0.5;"/><path d="M102.5,1452.8594 L102.5,1479.8594 M89.5,1460.8594 L115.5,1460.8594 M102.5,1479.8594 L89.5,1494.8594 M102.5,1479.8594 L115.5,1494.8594 " fill="none" style="stroke:#181818;stroke-width:0.5;"/><rect fill="#E2E2F0" height="39.1563" rx="2.5" ry="2.5" style="stroke:#181818;stroke-width:0.5;" width="154" x="564.5" y="50"/><text fill="#000000" font-family="sans-serif" font-size="20" lengthAdjust="spacing" textLength="140" x="571.5" y="77.7617">:RegisterUserUI</text><rect fill="#E2E2F0" height="39.1563" rx="2.5" ry="2.5" style="stroke:#181818;stroke-width:0.5;" width="154" x="564.5" y="1411.2031"/><text fill="#000000" font-family="sans-serif" font-size="20" lengthAdjust="spacing" textLength="140" x="571.5" y="1438.9648">:RegisterUserUI</text><rect fill="#E2E2F0" height="39.1563" rx="2.5" ry="2.5" style="stroke:#181818;stroke-width:0.5;" width="220" x="1052.5" y="50"/><text fill="#000000" font-family="sans-serif" font-size="20" lengthAdjust="spacing" textLength="206" x="1059.5" y="77.7617">:RegisterUserController</text><rect fill="#E2E2F0" height="39.1563" rx="2.5" ry="2.5" style="stroke:#181818;stroke-width:0.5;" width="220" x="1052.5" y="1411.2031"/><text fill="#000000" font-family="sans-serif" font-size="20" lengthAdjust="spacing" textLength="206" x="1059.5" y="1438.9648">:RegisterUserController</text><rect fill="#E2E2F0" height="39.1563" rx="2.5" ry="2.5" style="stroke:#181818;stroke-width:0.5;" width="130" x="1282.5" y="50"/><text fill="#000000" font-family="sans-serif" font-size="20" lengthAdjust="spacing" textLength="116" x="1289.5" y="77.7617">:Repositories</text><rect fill="#E2E2F0" height="39.1563" rx="2.5" ry="2.5" style="stroke:#181818;stroke-width:0.5;" width="130" x="1282.5" y="1411.2031"/><text fill="#000000" font-family="sans-serif" font-size="20" lengthAdjust="spacing" textLength="116" x="1289.5" y="1438.9648">:Repositories</text><rect fill="#E2E2F0" height="64.3125" rx="2.5" ry="2.5" style="stroke:#181818;stroke-width:0.5;" width="130" x="1422.5" y="24.8438"/><text fill="#000000" font-family="sans-serif" font-size="20" lengthAdjust="spacing" textLength="103" x="1436" y="52.6055">repositories</text><text fill="#000000" font-family="sans-serif" font-size="20" lengthAdjust="spacing" textLength="116" x="1429.5" y="77.7617">:Repositories</text><rect fill="#E2E2F0" height="64.3125" rx="2.5" ry="2.5" style="stroke:#181818;stroke-width:0.5;" width="130" x="1422.5" y="1411.2031"/><text fill="#000000" font-family="sans-serif" font-size="20" lengthAdjust="spacing" textLength="103" x="1436" y="1438.9648">repositories</text><text fill="#000000" font-family="sans-serif" font-size="20" lengthAdjust="spacing" textLength="116" x="1429.5" y="1464.1211">:Repositories</text><rect fill="#E2E2F0" height="64.3125" rx="2.5" ry="2.5" style="stroke:#181818;stroke-width:0.5;" width="175" x="1607" y="24.8438"/><text fill="#000000" font-family="sans-serif" font-size="20" lengthAdjust="spacing" textLength="161" x="1614" y="52.6055">personRepository:</text><text fill="#000000" font-family="sans-serif" font-size="20" lengthAdjust="spacing" textLength="157" x="1616" y="77.7617">PersonRepository</text><rect fill="#E2E2F0" height="64.3125" rx="2.5" ry="2.5" style="stroke:#181818;stroke-width:0.5;" width="175" x="1607" y="1411.2031"/><text fill="#000000" font-family="sans-serif" font-size="20" lengthAdjust="spacing" textLength="161" x="1614" y="1438.9648">personRepository:</text><text fill="#000000" font-family="sans-serif" font-size="20" lengthAdjust="spacing" textLength="157" x="1616" y="1464.1211">PersonRepository</text><rect fill="#E2E2F0" height="39.1563" rx="2.5" ry="2.5" style="stroke:#181818;stroke-width:0.5;" width="164" x="1792" y="50"/><text fill="#000000" font-family="sans-serif" font-size="20" lengthAdjust="spacing" textLength="150" x="1799" y="77.7617">Auth:AuthFacade</text><rect fill="#E2E2F0" height="39.1563" rx="2.5" ry="2.5" style="stroke:#181818;stroke-width:0.5;" width="164" x="1792" y="1411.2031"/><text fill="#000000" font-family="sans-serif" font-size="20" lengthAdjust="spacing" textLength="150" x="1799" y="1438.9648">Auth:AuthFacade</text><rect fill="#E2E2F0" height="39.1563" rx="2.5" ry="2.5" style="stroke:#181818;stroke-width:0.5;" width="148" x="2174.5" y="1411.2031"/><text fill="#000000" font-family="sans-serif" font-size="20" lengthAdjust="spacing" textLength="134" x="2181.5" y="1438.9648">person: Person</text><rect fill="#E2E2F0" height="39.1563" rx="2.5" ry="2.5" style="stroke:#181818;stroke-width:0.5;" width="231" x="2332.5" y="50"/><text fill="#000000" font-family="sans-serif" font-size="20" lengthAdjust="spacing" textLength="217" x="2339.5" y="77.7617">AuthenticationRepository</text><rect fill="#E2E2F0" height="39.1563" rx="2.5" ry="2.5" style="stroke:#181818;stroke-width:0.5;" width="231" x="2332.5" y="1411.2031"/><text fill="#000000" font-family="sans-serif" font-size="20" lengthAdjust="spacing" textLength="217" x="2339.5" y="1438.9648">AuthenticationRepository</text><rect fill="#FFFFFF" height="1294.0469" style="stroke:#181818;stroke-width:1.0;" width="10" x="97.5" y="100.1563"/><rect fill="#FFFFFF" height="64.3125" style="stroke:#181818;stroke-width:1.0;" width="10" x="636.5" y="131.3125"/><rect fill="#FFFFFF" height="767.8594" style="stroke:#181818;stroke-width:1.0;" width="10" x="636.5" y="234.7813"/><rect fill="#FFFFFF" height="352.4063" style="stroke:#181818;stroke-width:1.0;" width="10" x="636.5" y="1041.7969"/><rect fill="#FFFFFF" height="402.7188" style="stroke:#181818;stroke-width:1.0;" width="10" x="1157.5" y="560.7656"/><rect fill="#FFFFFF" height="274.0938" style="stroke:#181818;stroke-width:1.0;" width="10" x="1157.5" y="1080.9531"/><rect fill="#FFFFFF" height="39.1563" style="stroke:#181818;stroke-width:1.0;" width="10" x="1342.5" y="599.9219"/><rect fill="#FFFFFF" height="39.1563" style="stroke:#181818;stroke-width:1.0;" width="10" x="1342.5" y="1120.1094"/><rect fill="#FFFFFF" height="39.1563" style="stroke:#181818;stroke-width:1.0;" width="10" x="1482.5" y="678.2344"/><rect fill="#FFFFFF" height="39.1563" style="stroke:#181818;stroke-width:1.0;" width="10" x="1482.5" y="1198.4219"/><rect fill="#FFFFFF" height="64.3125" style="stroke:#181818;stroke-width:1.0;" width="10" x="1689.5" y="781.7031"/><rect fill="#FFFFFF" height="39.1563" style="stroke:#181818;stroke-width:1.0;" width="10" x="1689.5" y="885.1719"/><rect fill="#FFFFFF" height="39.1563" style="stroke:#181818;stroke-width:1.0;" width="10" x="2443" y="1276.7344"/><polygon fill="#181818" points="624.5,127.3125,634.5,131.3125,624.5,135.3125,628.5,131.3125" style="stroke:#181818;stroke-width:1.0;"/><line style="stroke:#181818;stroke-width:1.0;" x1="107.5" x2="630.5" y1="131.3125" y2="131.3125"/><text fill="#000000" font-family="sans-serif" font-size="20" font-weight="bold" lengthAdjust="spacing" textLength="11" x="114.5" y="124.918">1</text><text fill="#000000" font-family="sans-serif" font-size="20" lengthAdjust="spacing" textLength="189" x="129.5" y="124.918">register in the system</text><polygon fill="#181818" points="118.5,191.625,108.5,195.625,118.5,199.625,114.5,195.625" style="stroke:#181818;stroke-width:1.0;"/><line style="stroke:#181818;stroke-width:1.0;stroke-dasharray:2.0,2.0;" x1="112.5" x2="640.5" y1="195.625" y2="195.625"/><text fill="#000000" font-family="sans-serif" font-size="20" font-weight="bold" lengthAdjust="spacing" textLength="11" x="124.5" y="176.6523">2</text><text fill="#000000" font-family="sans-serif" font-size="20" lengthAdjust="spacing" textLength="490" x="139.5" y="164.0742">requests data(name, passport card number, tax number</text><text fill="#000000" font-family="sans-serif" font-size="20" lengthAdjust="spacing" textLength="376" x="139.5" y="189.2305">, address, email,phone number, password)</text><path d="M651,153.8906 L651,188.8906 L930,188.8906 L930,163.8906 L920,153.8906 L651,153.8906 " fill="#FEFFDD" style="stroke:#181818;stroke-width:0.5;"/><path d="M920,153.8906 L920,163.8906 L930,163.8906 L920,153.8906 " fill="#FEFFDD" style="stroke:#181818;stroke-width:0.5;"/><text fill="#000000" font-family="sans-serif" font-size="20" lengthAdjust="spacing" textLength="258" x="657" y="179.6523">the Address is not mandatory</text><polygon fill="#181818" points="624.5,230.7813,634.5,234.7813,624.5,238.7813,628.5,234.7813" style="stroke:#181818;stroke-width:1.0;"/><line style="stroke:#181818;stroke-width:1.0;" x1="107.5" x2="630.5" y1="234.7813" y2="234.7813"/><text fill="#000000" font-family="sans-serif" font-size="20" font-weight="bold" lengthAdjust="spacing" textLength="11" x="114.5" y="228.3867">3</text><text fill="#000000" font-family="sans-serif" font-size="20" lengthAdjust="spacing" textLength="187" x="129.5" y="228.3867">types requested data</text><path d="M10,249.7813 L78,249.7813 L78,266.9375 L68,276.9375 L10,276.9375 L10,249.7813 " fill="#EEEEEE" style="stroke:#000000;stroke-width:1.5;"/><rect fill="none" height="247.6719" style="stroke:#000000;stroke-width:1.5;" width="1272.5" x="10" y="249.7813"/><text fill="#008000" font-family="sans-serif" font-size="20" font-weight="bold" lengthAdjust="spacing" textLength="23" x="25" y="271.543">alt</text><text fill="#0000FF" font-family="sans-serif" font-size="15" font-weight="bold" lengthAdjust="spacing" textLength="124" x="93" y="267.3525">[type a password]</text><polygon fill="#181818" points="118.5,307.9609,108.5,311.9609,118.5,315.9609,114.5,311.9609" style="stroke:#181818;stroke-width:1.0;"/><line style="stroke:#181818;stroke-width:1.0;stroke-dasharray:2.0,2.0;" x1="112.5" x2="635.5" y1="311.9609" y2="311.9609"/><text fill="#000000" font-family="sans-serif" font-size="20" font-weight="bold" lengthAdjust="spacing" textLength="11" x="124.5" y="305.5664">4</text><text fill="#000000" font-family="sans-serif" font-size="20" lengthAdjust="spacing" textLength="191" x="139.5" y="305.5664">request the password</text><polygon fill="#181818" points="624.5,347.1172,634.5,351.1172,624.5,355.1172,628.5,351.1172" style="stroke:#181818;stroke-width:1.0;"/><line style="stroke:#181818;stroke-width:1.0;" x1="107.5" x2="630.5" y1="351.1172" y2="351.1172"/><text fill="#000000" font-family="sans-serif" font-size="20" font-weight="bold" lengthAdjust="spacing" textLength="11" x="114.5" y="344.7227">5</text><text fill="#000000" font-family="sans-serif" font-size="20" lengthAdjust="spacing" textLength="173" x="129.5" y="344.7227">types the password</text><line style="stroke:#000000;stroke-width:1.0;stroke-dasharray:2.0,2.0;" x1="10" x2="1282.5" y1="360.1172" y2="360.1172"/><text fill="#0000FF" font-family="sans-serif" font-size="15" font-weight="bold" lengthAdjust="spacing" textLength="161" x="15" y="375.6885">[Generate a password]</text><polygon fill="#181818" points="118.5,407.1406,108.5,411.1406,118.5,415.1406,114.5,411.1406" style="stroke:#181818;stroke-width:1.0;"/><line style="stroke:#181818;stroke-width:1.0;stroke-dasharray:2.0,2.0;" x1="112.5" x2="635.5" y1="411.1406" y2="411.1406"/><text fill="#000000" font-family="sans-serif" font-size="20" font-weight="bold" lengthAdjust="spacing" textLength="11" x="124.5" y="404.7461">6</text><text fill="#000000" font-family="sans-serif" font-size="20" lengthAdjust="spacing" textLength="410" x="139.5" y="404.7461">informs that the password had been generated</text><polygon fill="#181818" points="1150.5,446.2969,1160.5,450.2969,1150.5,454.2969,1154.5,450.2969" style="stroke:#181818;stroke-width:1.0;"/><line style="stroke:#181818;stroke-width:1.0;" x1="646.5" x2="1156.5" y1="450.2969" y2="450.2969"/><text fill="#000000" font-family="sans-serif" font-size="20" font-weight="bold" lengthAdjust="spacing" textLength="11" x="653.5" y="443.9023">7</text><text fill="#000000" font-family="sans-serif" font-size="20" lengthAdjust="spacing" textLength="178" x="668.5" y="443.9023">generatepassword()</text><polygon fill="#181818" points="657.5,485.4531,647.5,489.4531,657.5,493.4531,653.5,489.4531" style="stroke:#181818;stroke-width:1.0;"/><line style="stroke:#181818;stroke-width:1.0;stroke-dasharray:2.0,2.0;" x1="651.5" x2="1161.5" y1="489.4531" y2="489.4531"/><text fill="#000000" font-family="sans-serif" font-size="20" font-weight="bold" lengthAdjust="spacing" textLength="11" x="663.5" y="483.0586">8</text><text fill="#000000" font-family="sans-serif" font-size="20" lengthAdjust="spacing" textLength="86" x="678.5" y="483.0586">password</text><polygon fill="#181818" points="1145.5,556.7656,1155.5,560.7656,1145.5,564.7656,1149.5,560.7656" style="stroke:#181818;stroke-width:1.0;"/><line style="stroke:#181818;stroke-width:1.0;" x1="646.5" x2="1151.5" y1="560.7656" y2="560.7656"/><text fill="#000000" font-family="sans-serif" font-size="20" font-weight="bold" lengthAdjust="spacing" textLength="11" x="653.5" y="541.793">9</text><text fill="#000000" font-family="sans-serif" font-size="20" lengthAdjust="spacing" textLength="477" x="668.5" y="529.2148">registerUser(name, passport card number, tax number</text><text fill="#000000" font-family="sans-serif" font-size="20" lengthAdjust="spacing" textLength="376" x="668.5" y="554.3711">, address, email,phone number, password)</text><polygon fill="#181818" points="1330.5,595.9219,1340.5,599.9219,1330.5,603.9219,1334.5,599.9219" style="stroke:#181818;stroke-width:1.0;"/><line style="stroke:#181818;stroke-width:1.0;" x1="1167.5" x2="1336.5" y1="599.9219" y2="599.9219"/><text fill="#000000" font-family="sans-serif" font-size="20" font-weight="bold" lengthAdjust="spacing" textLength="22" x="1174.5" y="593.5273">10</text><text fill="#000000" font-family="sans-serif" font-size="20" lengthAdjust="spacing" textLength="116" x="1200.5" y="593.5273">getInstance()</text><polygon fill="#181818" points="1178.5,635.0781,1168.5,639.0781,1178.5,643.0781,1174.5,639.0781" style="stroke:#181818;stroke-width:1.0;"/><line style="stroke:#181818;stroke-width:1.0;stroke-dasharray:2.0,2.0;" x1="1172.5" x2="1346.5" y1="639.0781" y2="639.0781"/><text fill="#000000" font-family="sans-serif" font-size="20" font-weight="bold" lengthAdjust="spacing" textLength="22" x="1184.5" y="632.6836">11</text><text fill="#000000" font-family="sans-serif" font-size="20" lengthAdjust="spacing" textLength="103" x="1210.5" y="632.6836">repositories</text><polygon fill="#181818" points="1470.5,674.2344,1480.5,678.2344,1470.5,682.2344,1474.5,678.2344" style="stroke:#181818;stroke-width:1.0;"/><line style="stroke:#181818;stroke-width:1.0;" x1="1167.5" x2="1476.5" y1="678.2344" y2="678.2344"/><text fill="#000000" font-family="sans-serif" font-size="20" font-weight="bold" lengthAdjust="spacing" textLength="22" x="1174.5" y="671.8398">12</text><text fill="#000000" font-family="sans-serif" font-size="20" lengthAdjust="spacing" textLength="199" x="1200.5" y="671.8398">getPersonRepository()</text><polygon fill="#181818" points="1178.5,713.3906,1168.5,717.3906,1178.5,721.3906,1174.5,717.3906" style="stroke:#181818;stroke-width:1.0;"/><line style="stroke:#181818;stroke-width:1.0;stroke-dasharray:2.0,2.0;" x1="1172.5" x2="1486.5" y1="717.3906" y2="717.3906"/><text fill="#000000" font-family="sans-serif" font-size="20" font-weight="bold" lengthAdjust="spacing" textLength="22" x="1184.5" y="710.9961">13</text><text fill="#000000" font-family="sans-serif" font-size="20" lengthAdjust="spacing" textLength="157" x="1210.5" y="710.9961">PersonRepository</text><polygon fill="#181818" points="1677.5,777.7031,1687.5,781.7031,1677.5,785.7031,1681.5,781.7031" style="stroke:#181818;stroke-width:1.0;"/><line style="stroke:#181818;stroke-width:1.0;" x1="1167.5" x2="1683.5" y1="781.7031" y2="781.7031"/><text fill="#000000" font-family="sans-serif" font-size="20" font-weight="bold" lengthAdjust="spacing" textLength="22" x="1174.5" y="762.7305">14</text><text fill="#000000" font-family="sans-serif" font-size="20" lengthAdjust="spacing" textLength="477" x="1200.5" y="750.1523">registerUser(name, passport card number, tax number</text><text fill="#000000" font-family="sans-serif" font-size="20" lengthAdjust="spacing" textLength="376" x="1200.5" y="775.3086">, address, email,phone number, password)</text><polygon fill="#181818" points="2162.5,842.0156,2172.5,846.0156,2162.5,850.0156,2166.5,846.0156" style="stroke:#181818;stroke-width:1.0;"/><line style="stroke:#181818;stroke-width:1.0;" x1="1694.5" x2="2168.5" y1="846.0156" y2="846.0156"/><text fill="#000000" font-family="sans-serif" font-size="20" font-weight="bold" lengthAdjust="spacing" textLength="22" x="1701.5" y="827.043">15</text><text fill="#000000" font-family="sans-serif" font-size="20" lengthAdjust="spacing" textLength="425" x="1727.5" y="814.4648">create(name, passport card number, tax number</text><text fill="#000000" font-family="sans-serif" font-size="20" lengthAdjust="spacing" textLength="376" x="1727.5" y="839.6211">, address, email,phone number, password)</text><rect fill="#E2E2F0" height="39.1563" rx="2.5" ry="2.5" style="stroke:#181818;stroke-width:0.5;" width="148" x="2174.5" y="803.8594"/><text fill="#000000" font-family="sans-serif" font-size="20" lengthAdjust="spacing" textLength="134" x="2181.5" y="831.6211">person: Person</text><polygon fill="#181818" points="1677.5,881.1719,1687.5,885.1719,1677.5,889.1719,1681.5,885.1719" style="stroke:#181818;stroke-width:1.0;"/><line style="stroke:#181818;stroke-width:1.0;" x1="1167.5" x2="1683.5" y1="885.1719" y2="885.1719"/><text fill="#000000" font-family="sans-serif" font-size="20" font-weight="bold" lengthAdjust="spacing" textLength="22" x="1174.5" y="878.7773">16</text><text fill="#000000" font-family="sans-serif" font-size="20" lengthAdjust="spacing" textLength="143" x="1200.5" y="878.7773">validate(Person)</text><polygon fill="#181818" points="1178.5,920.3281,1168.5,924.3281,1178.5,928.3281,1174.5,924.3281" style="stroke:#181818;stroke-width:1.0;"/><line style="stroke:#181818;stroke-width:1.0;stroke-dasharray:2.0,2.0;" x1="1172.5" x2="1693.5" y1="924.3281" y2="924.3281"/><text fill="#000000" font-family="sans-serif" font-size="20" font-weight="bold" lengthAdjust="spacing" textLength="22" x="1184.5" y="917.9336">17</text><text fill="#000000" font-family="sans-serif" font-size="20" lengthAdjust="spacing" textLength="139" x="1210.5" y="917.9336">boolean answer</text><polygon fill="#181818" points="657.5,959.4844,647.5,963.4844,657.5,967.4844,653.5,963.4844" style="stroke:#181818;stroke-width:1.0;"/><line style="stroke:#181818;stroke-width:1.0;stroke-dasharray:2.0,2.0;" x1="651.5" x2="1161.5" y1="963.4844" y2="963.4844"/><text fill="#000000" font-family="sans-serif" font-size="20" font-weight="bold" lengthAdjust="spacing" textLength="22" x="663.5" y="957.0898">18</text><text fill="#000000" font-family="sans-serif" font-size="20" lengthAdjust="spacing" textLength="139" x="689.5" y="957.0898">boolean answer</text><polygon fill="#181818" points="118.5,998.6406,108.5,1002.6406,118.5,1006.6406,114.5,1002.6406" style="stroke:#181818;stroke-width:1.0;"/><line style="stroke:#181818;stroke-width:1.0;stroke-dasharray:2.0,2.0;" x1="112.5" x2="640.5" y1="1002.6406" y2="1002.6406"/><text fill="#000000" font-family="sans-serif" font-size="20" font-weight="bold" lengthAdjust="spacing" textLength="22" x="124.5" y="996.2461">19</text><text fill="#000000" font-family="sans-serif" font-size="20" lengthAdjust="spacing" textLength="366" x="150.5" y="996.2461">shows the data and requests confirmation</text><polygon fill="#181818" points="624.5,1037.7969,634.5,1041.7969,624.5,1045.7969,628.5,1041.7969" style="stroke:#181818;stroke-width:1.0;"/><line style="stroke:#181818;stroke-width:1.0;" x1="107.5" x2="630.5" y1="1041.7969" y2="1041.7969"/><text fill="#000000" font-family="sans-serif" font-size="20" font-weight="bold" lengthAdjust="spacing" textLength="22" x="114.5" y="1035.4023">20</text><text fill="#000000" font-family="sans-serif" font-size="20" lengthAdjust="spacing" textLength="152" x="140.5" y="1035.4023">confirms the data</text><polygon fill="#181818" points="1145.5,1076.9531,1155.5,1080.9531,1145.5,1084.9531,1149.5,1080.9531" style="stroke:#181818;stroke-width:1.0;"/><line style="stroke:#181818;stroke-width:1.0;" x1="646.5" x2="1151.5" y1="1080.9531" y2="1080.9531"/><text fill="#000000" font-family="sans-serif" font-size="20" font-weight="bold" lengthAdjust="spacing" textLength="22" x="653.5" y="1074.5586">21</text><text fill="#000000" font-family="sans-serif" font-size="20" lengthAdjust="spacing" textLength="96" x="679.5" y="1074.5586">saveUser()</text><polygon fill="#181818" points="1330.5,1116.1094,1340.5,1120.1094,1330.5,1124.1094,1334.5,1120.1094" style="stroke:#181818;stroke-width:1.0;"/><line style="stroke:#181818;stroke-width:1.0;" x1="1167.5" x2="1336.5" y1="1120.1094" y2="1120.1094"/><text fill="#000000" font-family="sans-serif" font-size="20" font-weight="bold" lengthAdjust="spacing" textLength="22" x="1174.5" y="1113.7148">22</text><text fill="#000000" font-family="sans-serif" font-size="20" lengthAdjust="spacing" textLength="116" x="1200.5" y="1113.7148">getInstance()</text><polygon fill="#181818" points="1178.5,1155.2656,1168.5,1159.2656,1178.5,1163.2656,1174.5,1159.2656" style="stroke:#181818;stroke-width:1.0;"/><line style="stroke:#181818;stroke-width:1.0;stroke-dasharray:2.0,2.0;" x1="1172.5" x2="1346.5" y1="1159.2656" y2="1159.2656"/><text fill="#000000" font-family="sans-serif" font-size="20" font-weight="bold" lengthAdjust="spacing" textLength="22" x="1184.5" y="1152.8711">23</text><text fill="#000000" font-family="sans-serif" font-size="20" lengthAdjust="spacing" textLength="103" x="1210.5" y="1152.8711">repositories</text><polygon fill="#181818" points="1470.5,1194.4219,1480.5,1198.4219,1470.5,1202.4219,1474.5,1198.4219" style="stroke:#181818;stroke-width:1.0;"/><line style="stroke:#181818;stroke-width:1.0;" x1="1167.5" x2="1476.5" y1="1198.4219" y2="1198.4219"/><text fill="#000000" font-family="sans-serif" font-size="20" font-weight="bold" lengthAdjust="spacing" textLength="22" x="1174.5" y="1192.0273">24</text><text fill="#000000" font-family="sans-serif" font-size="20" lengthAdjust="spacing" textLength="259" x="1200.5" y="1192.0273">getAuthenticationRepository()</text><polygon fill="#181818" points="1178.5,1233.5781,1168.5,1237.5781,1178.5,1241.5781,1174.5,1237.5781" style="stroke:#181818;stroke-width:1.0;"/><line style="stroke:#181818;stroke-width:1.0;stroke-dasharray:2.0,2.0;" x1="1172.5" x2="1486.5" y1="1237.5781" y2="1237.5781"/><text fill="#000000" font-family="sans-serif" font-size="20" font-weight="bold" lengthAdjust="spacing" textLength="22" x="1184.5" y="1231.1836">25</text><text fill="#000000" font-family="sans-serif" font-size="20" lengthAdjust="spacing" textLength="217" x="1210.5" y="1231.1836">AuthenticationRepository</text><polygon fill="#181818" points="2431,1272.7344,2441,1276.7344,2431,1280.7344,2435,1276.7344" style="stroke:#181818;stroke-width:1.0;"/><line style="stroke:#181818;stroke-width:1.0;" x1="1167.5" x2="2437" y1="1276.7344" y2="1276.7344"/><text fill="#000000" font-family="sans-serif" font-size="20" font-weight="bold" lengthAdjust="spacing" textLength="22" x="1174.5" y="1270.3398">26</text><text fill="#000000" font-family="sans-serif" font-size="20" lengthAdjust="spacing" textLength="206" x="1200.5" y="1270.3398">addUser(Person,roleId)</text><polygon fill="#181818" points="1178.5,1311.8906,1168.5,1315.8906,1178.5,1319.8906,1174.5,1315.8906" style="stroke:#181818;stroke-width:1.0;"/><line style="stroke:#181818;stroke-width:1.0;stroke-dasharray:2.0,2.0;" x1="1172.5" x2="2447" y1="1315.8906" y2="1315.8906"/><text fill="#000000" font-family="sans-serif" font-size="20" font-weight="bold" lengthAdjust="spacing" textLength="22" x="1184.5" y="1309.4961">27</text><text fill="#000000" font-family="sans-serif" font-size="20" lengthAdjust="spacing" textLength="109" x="1210.5" y="1309.4961">boolean true</text><polygon fill="#181818" points="657.5,1351.0469,647.5,1355.0469,657.5,1359.0469,653.5,1355.0469" style="stroke:#181818;stroke-width:1.0;"/><line style="stroke:#181818;stroke-width:1.0;stroke-dasharray:2.0,2.0;" x1="651.5" x2="1161.5" y1="1355.0469" y2="1355.0469"/><text fill="#000000" font-family="sans-serif" font-size="20" font-weight="bold" lengthAdjust="spacing" textLength="22" x="663.5" y="1348.6523">28</text><text fill="#000000" font-family="sans-serif" font-size="20" lengthAdjust="spacing" textLength="109" x="689.5" y="1348.6523">boolean true</text><polygon fill="#181818" points="113.5,1390.2031,103.5,1394.2031,113.5,1398.2031,109.5,1394.2031" style="stroke:#181818;stroke-width:1.0;"/><line style="stroke:#181818;stroke-width:1.0;stroke-dasharray:2.0,2.0;" x1="107.5" x2="640.5" y1="1394.2031" y2="1394.2031"/><text fill="#000000" font-family="sans-serif" font-size="20" font-weight="bold" lengthAdjust="spacing" textLength="22" x="119.5" y="1387.8086">29</text><text fill="#000000" font-family="sans-serif" font-size="20" lengthAdjust="spacing" textLength="219" x="145.5" y="1387.8086">informs operation sucess</text><!--SRC=[rLPDRzim3BtxLn2zj1qIO1kmImu5YWBj0lHGDFMj5yPcOg6sv4boq-pNZvBjMFw8WG7RWFNGrlBZuoF59zcy2LcYnY9NoHkbaD8EgzpUAsatuYV1ry-HQI5GAAcIJAk2O8UveU1LYSaRxcbZZpc1fiIYtESXm6IOgeEG-oOKAwjaLMn9HvUOMp0kCi1lw4T5Cg47hQhoEs5AsecwKxdIiDT4yXouWstpYkPGli8ltwBBJAHSab9sgpu6JvXOPhg8fQQzC9OqDoasf2y03SHnnDHM9A94QU5YzTo0729UrvZr3EQELMYLvmtVtSlpumXTAYDOWo3ZCQU5uqQu7dCR-o4wY7YLOuAdnzkNVaH9sYZP4QzUvTDWgOuSBFPPRYkRhTolUqnukox0XNJFKobN3MNDxdejtj6IwsiKnx2yuUx12jhMWv1WCm9pvASYWAyPleQbmySUpnjjh84KBLv9B6Z10sfCgRI517KAzUGjmE97y_-hN02cgIPZ5a05YdnHPahI2Ue83agdrr5AOMQf-AyM-yn64FmudRSr7mW3Z8829GjoVIEPkXNgLMcF9PbMkxCYY-_Lw6pYG80dCJxbHEa-VHyqJDH345iI7aYIThbc-8NSALsuQEmd0VOtRDcMi6zekk0RFzWStRvgWwwkFSQ_NRRoEb4oZUgDFH7em3j_VcDFpVO-Z6fPDrEEyxNOjJHypYLq5OHEsTCNESMoR2fpXNKk3GTiaguLvfnSAnawCrJa_HvvR9TlPEKWPntGPHb0_zqsZ4H6mnKdxzCdLfHeueY_wlMncfaElMCkKgUeVZTNr2XwsStxLgcSK09AS-2RSavDtqJd0-lP3ZrjCdMepmDtv718sfsWYP8xeGkqWWTljXdzKp4ys1gEBiNuv6uBDlXEVgY6PloFlEYkF99yrVcc_OOdpmMElDdcF1V0EdYyVH_hVLhmDmQjGskTpNMMSs8ghURlgq3SMTBfsHo6rvCPJLqtgdJt1fE2gHAsRJGxYqFEuDbDN3Yf_A7n2m00]--></g></svg>