<?xml version="1.0" encoding="UTF-8" standalone="no"?><svg xmlns="http://www.w3.org/2000/svg" xmlns:xlink="http://www.w3.org/1999/xlink" contentStyleType="text/css" height="1380px" preserveAspectRatio="none" style="width:891px;height:1380px;background:#FFFFFF;" version="1.1" viewBox="0 0 891 1380" width="891px" zoomAndPan="magnify"><defs/><g><!--class User--><g id="elem_User"><rect codeLine="9" fill="#F1F1F1" height="252.4063" id="User" rx="2.5" ry="2.5" style="stroke:#181818;stroke-width:0.5;" width="394" x="28.5" y="884"/><ellipse cx="200.5" cy="901.5781" fill="#ADD1B2" rx="12" ry="12" style="stroke:#181818;stroke-width:1.0;"/><path d="M202.6406,896.5 Q202.8281,896.25 203.0469,896.125 Q203.2656,895.9844 203.5156,895.9844 Q203.9531,895.9844 204.2344,896.2969 Q204.5156,896.5938 204.5156,897.3125 L204.5156,899.0156 Q204.5156,899.7344 204.2344,900.0469 Q203.9531,900.3594 203.5156,900.3594 Q203.125,900.3594 202.875,900.125 Q202.625,899.9063 202.5156,899.2969 Q202.4531,898.875 202.2344,898.6563 Q201.8438,898.2188 201.125,897.9531 Q200.4063,897.6875 199.6875,897.6875 Q198.7813,897.6875 198.0313,898.0781 Q197.2813,898.4688 196.7031,899.3594 Q196.125,900.2344 196.125,901.4375 L196.125,902.7344 Q196.125,904.1875 197.1719,905.1563 Q198.2344,906.125 200.0938,906.125 Q201.2031,906.125 201.9844,905.8125 Q202.4219,905.6406 202.9375,905.125 Q203.25,904.8125 203.4219,904.7188 Q203.5938,904.625 203.8281,904.625 Q204.2188,904.625 204.5156,904.9375 Q204.8281,905.2344 204.8281,905.6406 Q204.8281,906.0469 204.4219,906.5156 Q203.8281,907.2031 202.8906,907.5938 Q201.625,908.125 200.1094,908.125 Q198.3281,908.125 196.9063,907.3906 Q195.75,906.7969 194.9375,905.5313 Q194.125,904.2656 194.125,902.7813 L194.125,901.4219 Q194.125,899.8594 194.8438,898.5156 Q195.5781,897.1563 196.8594,896.4219 Q198.1563,895.6875 199.6094,895.6875 Q200.4688,895.6875 201.2188,895.8906 Q201.9844,896.0938 202.6406,896.5 Z " fill="#000000"/><text fill="#000000" font-family="sans-serif" font-size="20" lengthAdjust="spacing" textLength="41" x="222.5" y="909.7617">User</text><line style="stroke:#181818;stroke-width:0.5;" x1="29.5" x2="421.5" y1="919.1563" y2="919.1563"/><text fill="#000000" font-family="sans-serif" font-size="20" lengthAdjust="spacing" textLength="55" x="34.5" y="943.918">-name</text><text fill="#000000" font-family="sans-serif" font-size="20" lengthAdjust="spacing" textLength="152" x="34.5" y="969.0742">-passportNumber</text><text fill="#000000" font-family="sans-serif" font-size="20" lengthAdjust="spacing" textLength="101" x="34.5" y="994.2305">-taxNumber</text><text fill="#000000" font-family="sans-serif" font-size="20" lengthAdjust="spacing" textLength="53" x="34.5" y="1019.3867">-email</text><text fill="#000000" font-family="sans-serif" font-size="20" lengthAdjust="spacing" textLength="128" x="34.5" y="1044.543">-phoneNumber</text><text fill="#000000" font-family="sans-serif" font-size="20" lengthAdjust="spacing" textLength="93" x="34.5" y="1069.6992">-password</text><line style="stroke:#181818;stroke-width:0.5;" x1="29.5" x2="421.5" y1="1078.0938" y2="1078.0938"/><text fill="#000000" font-family="sans-serif" font-size="20" lengthAdjust="spacing" textLength="371" x="34.5" y="1102.8555">+User(name, passportnumber, tax number</text><text fill="#000000" font-family="sans-serif" font-size="20" lengthAdjust="spacing" textLength="382" x="34.5" y="1128.0117">, address, email,phone number, password )</text></g><!--class Repositories--><g id="elem_Repositories"><rect codeLine="18" fill="#F1F1F1" height="151.7813" id="Repositories" rx="2.5" ry="2.5" style="stroke:#181818;stroke-width:0.5;" width="283" x="263" y="358"/><ellipse cx="345" cy="375.5781" fill="#ADD1B2" rx="12" ry="12" style="stroke:#181818;stroke-width:1.0;"/><path d="M347.1406,370.5 Q347.3281,370.25 347.5469,370.125 Q347.7656,369.9844 348.0156,369.9844 Q348.4531,369.9844 348.7344,370.2969 Q349.0156,370.5938 349.0156,371.3125 L349.0156,373.0156 Q349.0156,373.7344 348.7344,374.0469 Q348.4531,374.3594 348.0156,374.3594 Q347.625,374.3594 347.375,374.125 Q347.125,373.9063 347.0156,373.2969 Q346.9531,372.875 346.7344,372.6563 Q346.3438,372.2188 345.625,371.9531 Q344.9063,371.6875 344.1875,371.6875 Q343.2813,371.6875 342.5313,372.0781 Q341.7813,372.4688 341.2031,373.3594 Q340.625,374.2344 340.625,375.4375 L340.625,376.7344 Q340.625,378.1875 341.6719,379.1563 Q342.7344,380.125 344.5938,380.125 Q345.7031,380.125 346.4844,379.8125 Q346.9219,379.6406 347.4375,379.125 Q347.75,378.8125 347.9219,378.7188 Q348.0938,378.625 348.3281,378.625 Q348.7188,378.625 349.0156,378.9375 Q349.3281,379.2344 349.3281,379.6406 Q349.3281,380.0469 348.9219,380.5156 Q348.3281,381.2031 347.3906,381.5938 Q346.125,382.125 344.6094,382.125 Q342.8281,382.125 341.4063,381.3906 Q340.25,380.7969 339.4375,379.5313 Q338.625,378.2656 338.625,376.7813 L338.625,375.4219 Q338.625,373.8594 339.3438,372.5156 Q340.0781,371.1563 341.3594,370.4219 Q342.6563,369.6875 344.1094,369.6875 Q344.9688,369.6875 345.7188,369.8906 Q346.4844,370.0938 347.1406,370.5 Z " fill="#000000"/><text fill="#000000" font-family="sans-serif" font-size="20" lengthAdjust="spacing" textLength="110" x="367" y="383.7617">Repositories</text><line style="stroke:#181818;stroke-width:0.5;" x1="264" x2="545" y1="393.1563" y2="393.1563"/><line style="stroke:#181818;stroke-width:0.5;" x1="264" x2="545" y1="401.1563" y2="401.1563"/><text fill="#000000" font-family="sans-serif" font-size="20" lengthAdjust="spacing" textLength="131" x="269" y="425.918">-Repositories()</text><text fill="#000000" font-family="sans-serif" font-size="20" lengthAdjust="spacing" textLength="256" x="269" y="451.0742">+getInstance() : Repositories</text><text fill="#000000" font-family="sans-serif" font-size="20" lengthAdjust="spacing" textLength="211" x="269" y="476.2305">+getPersonRepository()</text><text fill="#000000" font-family="sans-serif" font-size="20" lengthAdjust="spacing" textLength="271" x="269" y="501.3867">+getAuthenticationRepository()</text></g><!--class PersonRepository--><g id="elem_PersonRepository"><rect codeLine="25" fill="#F1F1F1" height="151.7813" id="PersonRepository" rx="2.5" ry="2.5" style="stroke:#181818;stroke-width:0.5;" width="437" x="7" y="621"/><ellipse cx="142.5" cy="638.5781" fill="#ADD1B2" rx="12" ry="12" style="stroke:#181818;stroke-width:1.0;"/><path d="M144.6406,633.5 Q144.8281,633.25 145.0469,633.125 Q145.2656,632.9844 145.5156,632.9844 Q145.9531,632.9844 146.2344,633.2969 Q146.5156,633.5938 146.5156,634.3125 L146.5156,636.0156 Q146.5156,636.7344 146.2344,637.0469 Q145.9531,637.3594 145.5156,637.3594 Q145.125,637.3594 144.875,637.125 Q144.625,636.9063 144.5156,636.2969 Q144.4531,635.875 144.2344,635.6563 Q143.8438,635.2188 143.125,634.9531 Q142.4063,634.6875 141.6875,634.6875 Q140.7813,634.6875 140.0313,635.0781 Q139.2813,635.4688 138.7031,636.3594 Q138.125,637.2344 138.125,638.4375 L138.125,639.7344 Q138.125,641.1875 139.1719,642.1563 Q140.2344,643.125 142.0938,643.125 Q143.2031,643.125 143.9844,642.8125 Q144.4219,642.6406 144.9375,642.125 Q145.25,641.8125 145.4219,641.7188 Q145.5938,641.625 145.8281,641.625 Q146.2188,641.625 146.5156,641.9375 Q146.8281,642.2344 146.8281,642.6406 Q146.8281,643.0469 146.4219,643.5156 Q145.8281,644.2031 144.8906,644.5938 Q143.625,645.125 142.1094,645.125 Q140.3281,645.125 138.9063,644.3906 Q137.75,643.7969 136.9375,642.5313 Q136.125,641.2656 136.125,639.7813 L136.125,638.4219 Q136.125,636.8594 136.8438,635.5156 Q137.5781,634.1563 138.8594,633.4219 Q140.1563,632.6875 141.6094,632.6875 Q142.4688,632.6875 143.2188,632.8906 Q143.9844,633.0938 144.6406,633.5 Z " fill="#000000"/><text fill="#000000" font-family="sans-serif" font-size="20" lengthAdjust="spacing" textLength="157" x="164.5" y="646.7617">PersonRepository</text><line style="stroke:#181818;stroke-width:0.5;" x1="8" x2="443" y1="656.1563" y2="656.1563"/><line style="stroke:#181818;stroke-width:0.5;" x1="8" x2="443" y1="664.1563" y2="664.1563"/><text fill="#000000" font-family="sans-serif" font-size="20" lengthAdjust="spacing" textLength="425" x="13" y="688.918">+addPerson(name, passportnumber, tax number</text><text fill="#000000" font-family="sans-serif" font-size="20" lengthAdjust="spacing" textLength="376" x="13" y="714.0742">, address, email,phone number, password)</text><text fill="#000000" font-family="sans-serif" font-size="20" lengthAdjust="spacing" textLength="193" x="13" y="739.2305">+validatePerson(user)</text><text fill="#000000" font-family="sans-serif" font-size="20" lengthAdjust="spacing" textLength="167" x="13" y="764.3867">+savePerson(user)</text></g><!--class AuthenticationRepository--><g id="elem_AuthenticationRepository"><rect codeLine="32" fill="#F1F1F1" height="252.4063" id="AuthenticationRepository" rx="2.5" ry="2.5" style="stroke:#181818;stroke-width:0.5;" width="251" x="561" y="571"/><ellipse cx="577" cy="588.5781" fill="#ADD1B2" rx="12" ry="12" style="stroke:#181818;stroke-width:1.0;"/><path d="M579.1406,583.5 Q579.3281,583.25 579.5469,583.125 Q579.7656,582.9844 580.0156,582.9844 Q580.4531,582.9844 580.7344,583.2969 Q581.0156,583.5938 581.0156,584.3125 L581.0156,586.0156 Q581.0156,586.7344 580.7344,587.0469 Q580.4531,587.3594 580.0156,587.3594 Q579.625,587.3594 579.375,587.125 Q579.125,586.9063 579.0156,586.2969 Q578.9531,585.875 578.7344,585.6563 Q578.3438,585.2188 577.625,584.9531 Q576.9063,584.6875 576.1875,584.6875 Q575.2813,584.6875 574.5313,585.0781 Q573.7813,585.4688 573.2031,586.3594 Q572.625,587.2344 572.625,588.4375 L572.625,589.7344 Q572.625,591.1875 573.6719,592.1563 Q574.7344,593.125 576.5938,593.125 Q577.7031,593.125 578.4844,592.8125 Q578.9219,592.6406 579.4375,592.125 Q579.75,591.8125 579.9219,591.7188 Q580.0938,591.625 580.3281,591.625 Q580.7188,591.625 581.0156,591.9375 Q581.3281,592.2344 581.3281,592.6406 Q581.3281,593.0469 580.9219,593.5156 Q580.3281,594.2031 579.3906,594.5938 Q578.125,595.125 576.6094,595.125 Q574.8281,595.125 573.4063,594.3906 Q572.25,593.7969 571.4375,592.5313 Q570.625,591.2656 570.625,589.7813 L570.625,588.4219 Q570.625,586.8594 571.3438,585.5156 Q572.0781,584.1563 573.3594,583.4219 Q574.6563,582.6875 576.1094,582.6875 Q576.9688,582.6875 577.7188,582.8906 Q578.4844,583.0938 579.1406,583.5 Z " fill="#000000"/><text fill="#000000" font-family="sans-serif" font-size="20" lengthAdjust="spacing" textLength="217" x="592" y="596.7617">AuthenticationRepository</text><line style="stroke:#181818;stroke-width:0.5;" x1="562" x2="811" y1="606.1563" y2="606.1563"/><line style="stroke:#181818;stroke-width:0.5;" x1="562" x2="811" y1="614.1563" y2="614.1563"/><text fill="#000000" font-family="sans-serif" font-size="20" lengthAdjust="spacing" textLength="184" x="567" y="638.918">+doLogin(email,pwd)</text><text fill="#000000" font-family="sans-serif" font-size="20" lengthAdjust="spacing" textLength="108" x="567" y="664.0742">+doLogout()</text><text fill="#000000" font-family="sans-serif" font-size="20" lengthAdjust="spacing" textLength="188" x="567" y="689.2305">+getCurrentSession()</text><text fill="#000000" font-family="sans-serif" font-size="20" lengthAdjust="spacing" textLength="140" x="567" y="714.3867">+addUserRole()</text><text fill="#000000" font-family="sans-serif" font-size="20" lengthAdjust="spacing" textLength="179" x="567" y="739.543">+addUserWithRole()</text><text fill="#000000" font-family="sans-serif" font-size="20" lengthAdjust="spacing" textLength="202" x="567" y="764.6992">+passwordGenerator()</text><text fill="#000000" font-family="sans-serif" font-size="20" lengthAdjust="spacing" textLength="127" x="567" y="789.8555">+updateUser()</text><text fill="#000000" font-family="sans-serif" font-size="20" lengthAdjust="spacing" textLength="95" x="567" y="815.0117">+getUser()</text></g><!--class UserSession--><g id="elem_UserSession"><rect codeLine="43" fill="#F1F1F1" height="176.9375" id="UserSession" rx="2.5" ry="2.5" style="stroke:#181818;stroke-width:0.5;" width="395" x="489" y="921.5"/><ellipse cx="627" cy="939.0781" fill="#ADD1B2" rx="12" ry="12" style="stroke:#181818;stroke-width:1.0;"/><path d="M629.1406,934 Q629.3281,933.75 629.5469,933.625 Q629.7656,933.4844 630.0156,933.4844 Q630.4531,933.4844 630.7344,933.7969 Q631.0156,934.0938 631.0156,934.8125 L631.0156,936.5156 Q631.0156,937.2344 630.7344,937.5469 Q630.4531,937.8594 630.0156,937.8594 Q629.625,937.8594 629.375,937.625 Q629.125,937.4063 629.0156,936.7969 Q628.9531,936.375 628.7344,936.1563 Q628.3438,935.7188 627.625,935.4531 Q626.9063,935.1875 626.1875,935.1875 Q625.2813,935.1875 624.5313,935.5781 Q623.7813,935.9688 623.2031,936.8594 Q622.625,937.7344 622.625,938.9375 L622.625,940.2344 Q622.625,941.6875 623.6719,942.6563 Q624.7344,943.625 626.5938,943.625 Q627.7031,943.625 628.4844,943.3125 Q628.9219,943.1406 629.4375,942.625 Q629.75,942.3125 629.9219,942.2188 Q630.0938,942.125 630.3281,942.125 Q630.7188,942.125 631.0156,942.4375 Q631.3281,942.7344 631.3281,943.1406 Q631.3281,943.5469 630.9219,944.0156 Q630.3281,944.7031 629.3906,945.0938 Q628.125,945.625 626.6094,945.625 Q624.8281,945.625 623.4063,944.8906 Q622.25,944.2969 621.4375,943.0313 Q620.625,941.7656 620.625,940.2813 L620.625,938.9219 Q620.625,937.3594 621.3438,936.0156 Q622.0781,934.6563 623.3594,933.9219 Q624.6563,933.1875 626.1094,933.1875 Q626.9688,933.1875 627.7188,933.3906 Q628.4844,933.5938 629.1406,934 Z " fill="#000000"/><text fill="#000000" font-family="sans-serif" font-size="20" lengthAdjust="spacing" textLength="110" x="649" y="947.2617">UserSession</text><line style="stroke:#181818;stroke-width:0.5;" x1="490" x2="883" y1="956.6563" y2="956.6563"/><line style="stroke:#181818;stroke-width:0.5;" x1="490" x2="883" y1="964.6563" y2="964.6563"/><text fill="#000000" font-family="sans-serif" font-size="20" lengthAdjust="spacing" textLength="197" x="495" y="989.418">+boolean isLoggedIn()</text><text fill="#000000" font-family="sans-serif" font-size="20" lengthAdjust="spacing" textLength="383" x="495" y="1014.5742">+boolean isLoggedInWithRole(String roleId)</text><text fill="#000000" font-family="sans-serif" font-size="20" lengthAdjust="spacing" textLength="203" x="495" y="1039.7305">+String getUserName()</text><text fill="#000000" font-family="sans-serif" font-size="20" lengthAdjust="spacing" textLength="172" x="495" y="1064.8867">+Email get UserId()</text><text fill="#000000" font-family="sans-serif" font-size="20" lengthAdjust="spacing" textLength="353" x="495" y="1090.043">+doLogin(String email, String password)</text></g><!--class RegisterUserController--><g id="elem_RegisterUserController"><rect codeLine="52" fill="#F1F1F1" height="151.7813" id="RegisterUserController" rx="2.5" ry="2.5" style="stroke:#181818;stroke-width:0.5;" width="450" x="179.5" y="119"/><ellipse cx="300" cy="136.5781" fill="#ADD1B2" rx="12" ry="12" style="stroke:#181818;stroke-width:1.0;"/><path d="M302.1406,131.5 Q302.3281,131.25 302.5469,131.125 Q302.7656,130.9844 303.0156,130.9844 Q303.4531,130.9844 303.7344,131.2969 Q304.0156,131.5938 304.0156,132.3125 L304.0156,134.0156 Q304.0156,134.7344 303.7344,135.0469 Q303.4531,135.3594 303.0156,135.3594 Q302.625,135.3594 302.375,135.125 Q302.125,134.9063 302.0156,134.2969 Q301.9531,133.875 301.7344,133.6563 Q301.3438,133.2188 300.625,132.9531 Q299.9063,132.6875 299.1875,132.6875 Q298.2813,132.6875 297.5313,133.0781 Q296.7813,133.4688 296.2031,134.3594 Q295.625,135.2344 295.625,136.4375 L295.625,137.7344 Q295.625,139.1875 296.6719,140.1563 Q297.7344,141.125 299.5938,141.125 Q300.7031,141.125 301.4844,140.8125 Q301.9219,140.6406 302.4375,140.125 Q302.75,139.8125 302.9219,139.7188 Q303.0938,139.625 303.3281,139.625 Q303.7188,139.625 304.0156,139.9375 Q304.3281,140.2344 304.3281,140.6406 Q304.3281,141.0469 303.9219,141.5156 Q303.3281,142.2031 302.3906,142.5938 Q301.125,143.125 299.6094,143.125 Q297.8281,143.125 296.4063,142.3906 Q295.25,141.7969 294.4375,140.5313 Q293.625,139.2656 293.625,137.7813 L293.625,136.4219 Q293.625,134.8594 294.3438,133.5156 Q295.0781,132.1563 296.3594,131.4219 Q297.6563,130.6875 299.1094,130.6875 Q299.9688,130.6875 300.7188,130.8906 Q301.4844,131.0938 302.1406,131.5 Z " fill="#000000"/><text fill="#000000" font-family="sans-serif" font-size="20" lengthAdjust="spacing" textLength="200" x="322" y="144.7617">RegisterUserController</text><line style="stroke:#181818;stroke-width:0.5;" x1="180.5" x2="628.5" y1="154.1563" y2="154.1563"/><line style="stroke:#181818;stroke-width:0.5;" x1="180.5" x2="628.5" y1="162.1563" y2="162.1563"/><text fill="#000000" font-family="sans-serif" font-size="20" lengthAdjust="spacing" textLength="438" x="185.5" y="186.918">+registerUser(name, passportnumber, tax number</text><text fill="#000000" font-family="sans-serif" font-size="20" lengthAdjust="spacing" textLength="376" x="185.5" y="212.0742">, address, email,phone number, password)</text><text fill="#000000" font-family="sans-serif" font-size="20" lengthAdjust="spacing" textLength="108" x="185.5" y="237.2305">+saveUser()</text><text fill="#000000" font-family="sans-serif" font-size="20" lengthAdjust="spacing" textLength="192" x="185.5" y="262.3867">+generatePassword()</text></g><!--class RegisterUserUI--><g id="elem_RegisterUserUI"><rect codeLine="58" fill="#F1F1F1" height="51.1563" id="RegisterUserUI" rx="2.5" ry="2.5" style="stroke:#181818;stroke-width:0.5;" width="168" x="320.5" y="7"/><ellipse cx="336.5" cy="24.5781" fill="#ADD1B2" rx="12" ry="12" style="stroke:#181818;stroke-width:1.0;"/><path d="M338.6406,19.5 Q338.8281,19.25 339.0469,19.125 Q339.2656,18.9844 339.5156,18.9844 Q339.9531,18.9844 340.2344,19.2969 Q340.5156,19.5938 340.5156,20.3125 L340.5156,22.0156 Q340.5156,22.7344 340.2344,23.0469 Q339.9531,23.3594 339.5156,23.3594 Q339.125,23.3594 338.875,23.125 Q338.625,22.9063 338.5156,22.2969 Q338.4531,21.875 338.2344,21.6563 Q337.8438,21.2188 337.125,20.9531 Q336.4063,20.6875 335.6875,20.6875 Q334.7813,20.6875 334.0313,21.0781 Q333.2813,21.4688 332.7031,22.3594 Q332.125,23.2344 332.125,24.4375 L332.125,25.7344 Q332.125,27.1875 333.1719,28.1563 Q334.2344,29.125 336.0938,29.125 Q337.2031,29.125 337.9844,28.8125 Q338.4219,28.6406 338.9375,28.125 Q339.25,27.8125 339.4219,27.7188 Q339.5938,27.625 339.8281,27.625 Q340.2188,27.625 340.5156,27.9375 Q340.8281,28.2344 340.8281,28.6406 Q340.8281,29.0469 340.4219,29.5156 Q339.8281,30.2031 338.8906,30.5938 Q337.625,31.125 336.1094,31.125 Q334.3281,31.125 332.9063,30.3906 Q331.75,29.7969 330.9375,28.5313 Q330.125,27.2656 330.125,25.7813 L330.125,24.4219 Q330.125,22.8594 330.8438,21.5156 Q331.5781,20.1563 332.8594,19.4219 Q334.1563,18.6875 335.6094,18.6875 Q336.4688,18.6875 337.2188,18.8906 Q337.9844,19.0938 338.6406,19.5 Z " fill="#000000"/><text fill="#000000" font-family="sans-serif" font-size="20" lengthAdjust="spacing" textLength="134" x="351.5" y="32.7617">RegisterUserUI</text><line style="stroke:#181818;stroke-width:0.5;" x1="321.5" x2="487.5" y1="42.1563" y2="42.1563"/><line style="stroke:#181818;stroke-width:0.5;" x1="321.5" x2="487.5" y1="50.1563" y2="50.1563"/></g><!--class Address--><g id="elem_Address"><rect codeLine="61" fill="#F1F1F1" height="176.9375" id="Address" rx="2.5" ry="2.5" style="stroke:#181818;stroke-width:0.5;" width="339" x="56" y="1197"/><ellipse cx="184.5" cy="1214.5781" fill="#ADD1B2" rx="12" ry="12" style="stroke:#181818;stroke-width:1.0;"/><path d="M186.6406,1209.5 Q186.8281,1209.25 187.0469,1209.125 Q187.2656,1208.9844 187.5156,1208.9844 Q187.9531,1208.9844 188.2344,1209.2969 Q188.5156,1209.5938 188.5156,1210.3125 L188.5156,1212.0156 Q188.5156,1212.7344 188.2344,1213.0469 Q187.9531,1213.3594 187.5156,1213.3594 Q187.125,1213.3594 186.875,1213.125 Q186.625,1212.9063 186.5156,1212.2969 Q186.4531,1211.875 186.2344,1211.6563 Q185.8438,1211.2188 185.125,1210.9531 Q184.4063,1210.6875 183.6875,1210.6875 Q182.7813,1210.6875 182.0313,1211.0781 Q181.2813,1211.4688 180.7031,1212.3594 Q180.125,1213.2344 180.125,1214.4375 L180.125,1215.7344 Q180.125,1217.1875 181.1719,1218.1563 Q182.2344,1219.125 184.0938,1219.125 Q185.2031,1219.125 185.9844,1218.8125 Q186.4219,1218.6406 186.9375,1218.125 Q187.25,1217.8125 187.4219,1217.7188 Q187.5938,1217.625 187.8281,1217.625 Q188.2188,1217.625 188.5156,1217.9375 Q188.8281,1218.2344 188.8281,1218.6406 Q188.8281,1219.0469 188.4219,1219.5156 Q187.8281,1220.2031 186.8906,1220.5938 Q185.625,1221.125 184.1094,1221.125 Q182.3281,1221.125 180.9063,1220.3906 Q179.75,1219.7969 178.9375,1218.5313 Q178.125,1217.2656 178.125,1215.7813 L178.125,1214.4219 Q178.125,1212.8594 178.8438,1211.5156 Q179.5781,1210.1563 180.8594,1209.4219 Q182.1563,1208.6875 183.6094,1208.6875 Q184.4688,1208.6875 185.2188,1208.8906 Q185.9844,1209.0938 186.6406,1209.5 Z " fill="#000000"/><text fill="#000000" font-family="sans-serif" font-size="20" lengthAdjust="spacing" textLength="73" x="206.5" y="1222.7617">Address</text><line style="stroke:#181818;stroke-width:0.5;" x1="57" x2="394" y1="1232.1563" y2="1232.1563"/><text fill="#000000" font-family="sans-serif" font-size="20" lengthAdjust="spacing" textLength="115" x="62" y="1256.918">-String street</text><text fill="#000000" font-family="sans-serif" font-size="20" lengthAdjust="spacing" textLength="94" x="62" y="1282.0742">-String city</text><text fill="#000000" font-family="sans-serif" font-size="20" lengthAdjust="spacing" textLength="108" x="62" y="1307.2305">-String state</text><text fill="#000000" font-family="sans-serif" font-size="20" lengthAdjust="spacing" textLength="131" x="62" y="1332.3867">-String zipcode</text><line style="stroke:#181818;stroke-width:0.5;" x1="57" x2="394" y1="1340.7813" y2="1340.7813"/><text fill="#000000" font-family="sans-serif" font-size="20" lengthAdjust="spacing" textLength="327" x="62" y="1365.543">+Address(street, city, state, zipcode)</text></g><!--link RegisterUserUI to RegisterUserController--><g id="link_RegisterUserUI_RegisterUserController"><path codeLine="69" d="M404.5,58.23 C404.5,73.3 404.5,93.51 404.5,113.72 " fill="none" id="RegisterUserUI-to-RegisterUserController" style="stroke:#181818;stroke-width:1.0;stroke-dasharray:7.0,7.0;"/><polygon fill="#181818" points="404.5,118.86,408.5257,109.8715,404.5143,113.86,400.5257,109.8486,404.5,118.86" style="stroke:#181818;stroke-width:1.0;"/></g><!--link RegisterUserController to AuthenticationRepository--><g id="link_RegisterUserController_AuthenticationRepository"><path codeLine="72" d="M525.45,271.07 C593.72,313.45 665.5,358 665.5,358 C665.5,358 672.48,470.37 678.39,565.53 " fill="none" id="RegisterUserController-to-AuthenticationRepository" style="stroke:#181818;stroke-width:1.0;stroke-dasharray:7.0,7.0;"/><polygon fill="#181818" points="678.71,570.62,682.1375,561.3868,678.3963,565.6298,674.1533,561.8887,678.71,570.62" style="stroke:#181818;stroke-width:1.0;"/></g><!--link RegisterUserController to PersonRepository--><g id="link_RegisterUserController_PersonRepository"><path codeLine="73" d="M330.59,271.31 C289.06,313.61 245.5,358 245.5,358 C245.5,358 236.15,516.03 230.24,615.98 " fill="none" id="RegisterUserController-to-PersonRepository" style="stroke:#181818;stroke-width:1.0;stroke-dasharray:7.0,7.0;"/><polygon fill="#181818" points="229.94,620.99,234.4733,612.2465,230.2403,615.999,226.4878,611.766,229.94,620.99" style="stroke:#181818;stroke-width:1.0;"/></g><!--link RegisterUserController to Repositories--><g id="link_RegisterUserController_Repositories"><path codeLine="74" d="M404.5,271.31 C404.5,297.24 404.5,326.35 404.5,352.66 " fill="none" id="RegisterUserController-to-Repositories" style="stroke:#181818;stroke-width:1.0;stroke-dasharray:7.0,7.0;"/><polygon fill="#181818" points="404.5,357.88,408.5,348.88,404.5,352.88,400.5,348.88,404.5,357.88" style="stroke:#181818;stroke-width:1.0;"/><text fill="#000000" font-family="sans-serif" font-size="20" lengthAdjust="spacing" textLength="103" x="405.5" y="322.7617">repositories</text></g><!--link Repositories to Repositories--><g id="link_Repositories_Repositories"><path codeLine="76" d="M546.1,416.02 C566.94,418.84 581,424.84 581,434 C581,442.37 569.25,448.1 551.32,451.18 " fill="none" id="Repositories-to-Repositories" style="stroke:#181818;stroke-width:1.0;"/><polygon fill="#181818" points="546.1,451.98,555.603,454.567,551.042,451.2208,554.3883,446.6598,546.1,451.98" style="stroke:#181818;stroke-width:1.0;"/><text fill="#000000" font-family="sans-serif" font-size="20" lengthAdjust="spacing" textLength="72" x="587" y="442.2617">instance</text></g><!--link Repositories to PersonRepository--><g id="link_Repositories_PersonRepository"><path codeLine="77" d="M352.97,510.14 C330.13,543.43 303.25,582.63 280.08,616.42 " fill="none" id="Repositories-to-PersonRepository" style="stroke:#181818;stroke-width:1.0;"/><polygon fill="#181818" points="276.98,620.94,285.3666,615.7762,279.806,616.8152,278.7669,611.2546,276.98,620.94" style="stroke:#181818;stroke-width:1.0;"/></g><!--link Repositories to AuthenticationRepository--><g id="link_Repositories_AuthenticationRepository"><path codeLine="78" d="M485.69,510.14 C508.01,530.8 532.78,553.73 557.09,576.22 " fill="none" id="Repositories-to-AuthenticationRepository" style="stroke:#181818;stroke-width:1.0;"/><polygon fill="#181818" points="560.98,579.83,557.0755,570.7882,557.3043,576.4404,551.6521,576.6692,560.98,579.83" style="stroke:#181818;stroke-width:1.0;"/></g><!--link AuthenticationRepository to UserSession--><g id="link_AuthenticationRepository_UserSession"><path codeLine="81" d="M686.5,823.15 C686.5,854.26 686.5,887.06 686.5,916.3 " fill="none" id="AuthenticationRepository-to-UserSession" style="stroke:#181818;stroke-width:1.0;stroke-dasharray:7.0,7.0;"/><polygon fill="#181818" points="686.5,921.34,690.5,912.34,686.5,916.34,682.5,912.34,686.5,921.34" style="stroke:#181818;stroke-width:1.0;"/></g><!--link PersonRepository to User--><g id="link_PersonRepository_User"><path codeLine="84" d="M225.5,773.28 C225.5,804.9 225.5,842.6 225.5,878.48 " fill="none" id="PersonRepository-to-User" style="stroke:#181818;stroke-width:1.0;stroke-dasharray:7.0,7.0;"/><polygon fill="#181818" points="225.5,883.76,229.5,874.76,225.5,878.76,221.5,874.76,225.5,883.76" style="stroke:#181818;stroke-width:1.0;"/></g><!--link User to Address--><g id="link_User_Address"><path codeLine="86" d="M225.5,1136.14 C225.5,1154.92 225.5,1173.98 225.5,1191.91 " fill="none" id="User-to-Address" style="stroke:#181818;stroke-width:1.0;"/><polygon fill="#181818" points="225.5,1196.94,229.5,1187.94,225.5,1191.94,221.5,1187.94,225.5,1196.94" style="stroke:#181818;stroke-width:1.0;"/><text fill="#000000" font-family="sans-serif" font-size="20" lengthAdjust="spacing" textLength="11" x="214.1648" y="1165.3425">1</text><text fill="#000000" font-family="sans-serif" font-size="20" lengthAdjust="spacing" textLength="11" x="214.0617" y="1184.6572">1</text></g><!--SRC=[hLLDJ-Cm4BtxLrXSqYefi7laW5IXtLMa5KAjghtinOs7r6fgHxP3jw3-znqxJke4mWaE4B-PUVFc-GEp5x9ccXqgLUo1KmxFhAdiJoNjMhm2_NvB4jFbq8EIgjXfTG1gTGFa4gbPiMSbhEsf0ggXi4oMLPnWTeohev0bVMQLYIELa61FDT1QLIUtY3lsGQMj8b5LKJ5ZbjPgiMqiv8MINkyj8Jv2DmOqVICKVnPKiWE4png3DP8zDeSjw01Qzc-mXWCJLLUmKn86KKTnL9hxPUexpLo7h2UNFZrplBJz_YipoZZNO4pMqcUUc7Qf7IcTatCOOGMrCi8gBS3qeyJWR1uab61pQT3p0cPpUZT8kgGyWJPAzh5JNBvix0wa5GMpOfJJwndNlv4KHshHhpDWJj8NLWdEB0Jg1Wr6rB2N8N8ctMPFgMzDIxdwhKeXPw7jaSyZN3MsCm9zU6YqHgOroaIcBe32tIwlL0KZw8-mknZkflW54ZH33LsWgTr4_gnSkeNbEJwqeRMJdcuLKZD9XK6X9V2yLVG1tkjOuut0IwRnE_TpfW49xHvndrgI7yuD1_ksEMzHsfaLobhFQ5XTDkbY_WfAOInen_A0xmQshiBTItKK-yeZWjJkEFHsefdURtWAAR6hiS1DZiBw4xriktcjYp2YiHh0Ha0Xx6aGnpRH-bNKXU8EIGFThAN8V6NM5cHTdjELR78o4dLzVJzX9259j9WmsvLFNOBFQiPN-hFSmNDqXuzyzCOaWnTdaBbOl2iLuQrwd_Y1db76v9GacGnD1VnOqPqZoOt_jp62anj2niBw7DnCzzlNNNsxyXhTtt0Mo7y0]--></g></svg>