<?xml version="1.0" encoding="UTF-8" standalone="no"?><svg xmlns="http://www.w3.org/2000/svg" xmlns:xlink="http://www.w3.org/1999/xlink" contentStyleType="text/css" height="1884px" preserveAspectRatio="none" style="width:1086px;height:1884px;background:#FFFFFF;" version="1.1" viewBox="0 0 1086 1884" width="1086px" zoomAndPan="magnify"><defs/><g><text fill="#000000" font-family="sans-serif" font-size="14" font-weight="bold" lengthAdjust="spacing" textLength="228" x="430.25" y="29.5332">System Sequence Diagram (SSD)</text><rect fill="#FFFFFF" height="1646.7656" style="stroke:#181818;stroke-width:1.0;" width="10" x="98.5" y="138.7656"/><rect fill="#FFFFFF" height="39.1563" style="stroke:#181818;stroke-width:1.0;" width="10" x="1011.5" y="169.9219"/><rect fill="#FFFFFF" height="39.1563" style="stroke:#181818;stroke-width:1.0;" width="10" x="1011.5" y="248.2344"/><rect fill="#FFFFFF" height="77.1797" style="stroke:#181818;stroke-width:1.0;" width="10" x="1011.5" y="509.9063"/><rect fill="#FFFFFF" height="46.1563" style="stroke:#181818;stroke-width:1.0;" width="10" x="1011.5" y="626.2422"/><rect fill="#FFFFFF" height="39.1563" style="stroke:#181818;stroke-width:1.0;" width="10" x="1011.5" y="1737.375"/><rect fill="none" height="130.2031" style="stroke:#000000;stroke-width:1.5;" width="1049.5" x="20" y="302.3906"/><rect fill="none" height="109.3359" style="stroke:#000000;stroke-width:1.5;" width="1049.5" x="20" y="524.9063"/><rect fill="none" height="671.8359" style="stroke:#000000;stroke-width:1.5;" width="1069.5" x="10" y="687.3984"/><rect fill="none" height="109.3359" style="stroke:#000000;stroke-width:1.5;" width="1049.5" x="20" y="981.2266"/><rect fill="none" height="109.3359" style="stroke:#000000;stroke-width:1.5;" width="1049.5" x="20" y="1242.8984"/><rect fill="none" height="208.5156" style="stroke:#000000;stroke-width:1.5;" width="1049.5" x="20" y="1451.5469"/><line style="stroke:#181818;stroke-width:0.5;stroke-dasharray:5.0,5.0;" x1="103" x2="103" y1="128.7656" y2="1794.5313"/><line style="stroke:#181818;stroke-width:0.5;stroke-dasharray:5.0,5.0;" x1="1016.5" x2="1016.5" y1="128.7656" y2="1794.5313"/><text fill="#000000" font-family="sans-serif" font-size="20" lengthAdjust="spacing" textLength="141" x="30" y="124.3711">Property Owner</text><ellipse cx="103.5" cy="52.1094" fill="#BC8F8F" rx="8" ry="8" style="stroke:#181818;stroke-width:0.5;"/><path d="M103.5,60.1094 L103.5,87.1094 M90.5,68.1094 L116.5,68.1094 M103.5,87.1094 L90.5,102.1094 M103.5,87.1094 L116.5,102.1094 " fill="none" style="stroke:#181818;stroke-width:0.5;"/><text fill="#000000" font-family="sans-serif" font-size="20" lengthAdjust="spacing" textLength="141" x="30" y="1814.293">Property Owner</text><ellipse cx="103.5" cy="1827.1875" fill="#BC8F8F" rx="8" ry="8" style="stroke:#181818;stroke-width:0.5;"/><path d="M103.5,1835.1875 L103.5,1862.1875 M90.5,1843.1875 L116.5,1843.1875 M103.5,1862.1875 L90.5,1877.1875 M103.5,1862.1875 L116.5,1877.1875 " fill="none" style="stroke:#181818;stroke-width:0.5;"/><rect fill="#E2E2F0" height="39.1563" rx="2.5" ry="2.5" style="stroke:#181818;stroke-width:0.5;" width="86" x="973.5" y="88.6094"/><text fill="#000000" font-family="sans-serif" font-size="20" lengthAdjust="spacing" textLength="72" x="980.5" y="116.3711">:System</text><rect fill="#E2E2F0" height="39.1563" rx="2.5" ry="2.5" style="stroke:#181818;stroke-width:0.5;" width="86" x="973.5" y="1793.5313"/><text fill="#000000" font-family="sans-serif" font-size="20" lengthAdjust="spacing" textLength="72" x="980.5" y="1821.293">:System</text><rect fill="#FFFFFF" height="1646.7656" style="stroke:#181818;stroke-width:1.0;" width="10" x="98.5" y="138.7656"/><rect fill="#FFFFFF" height="39.1563" style="stroke:#181818;stroke-width:1.0;" width="10" x="1011.5" y="169.9219"/><rect fill="#FFFFFF" height="39.1563" style="stroke:#181818;stroke-width:1.0;" width="10" x="1011.5" y="248.2344"/><rect fill="#FFFFFF" height="77.1797" style="stroke:#181818;stroke-width:1.0;" width="10" x="1011.5" y="509.9063"/><rect fill="#FFFFFF" height="46.1563" style="stroke:#181818;stroke-width:1.0;" width="10" x="1011.5" y="626.2422"/><rect fill="#FFFFFF" height="39.1563" style="stroke:#181818;stroke-width:1.0;" width="10" x="1011.5" y="1737.375"/><polygon fill="#181818" points="999.5,165.9219,1009.5,169.9219,999.5,173.9219,1003.5,169.9219" style="stroke:#181818;stroke-width:1.0;"/><line style="stroke:#181818;stroke-width:1.0;" x1="108.5" x2="1005.5" y1="169.9219" y2="169.9219"/><text fill="#000000" font-family="sans-serif" font-size="20" font-weight="bold" lengthAdjust="spacing" textLength="11" x="115.5" y="163.5273">1</text><text fill="#000000" font-family="sans-serif" font-size="20" lengthAdjust="spacing" textLength="216" x="130.5" y="163.5273">asks to listing a property</text><polygon fill="#181818" points="119.5,205.0781,109.5,209.0781,119.5,213.0781,115.5,209.0781" style="stroke:#181818;stroke-width:1.0;"/><line style="stroke:#181818;stroke-width:1.0;stroke-dasharray:2.0,2.0;" x1="113.5" x2="1015.5" y1="209.0781" y2="209.0781"/><text fill="#000000" font-family="sans-serif" font-size="20" font-weight="bold" lengthAdjust="spacing" textLength="11" x="125.5" y="202.6836">2</text><text fill="#000000" font-family="sans-serif" font-size="20" lengthAdjust="spacing" textLength="512" x="140.5" y="202.6836">shows the list of agencies available and asks to select one</text><polygon fill="#181818" points="999.5,244.2344,1009.5,248.2344,999.5,252.2344,1003.5,248.2344" style="stroke:#181818;stroke-width:1.0;"/><line style="stroke:#181818;stroke-width:1.0;" x1="108.5" x2="1005.5" y1="248.2344" y2="248.2344"/><text fill="#000000" font-family="sans-serif" font-size="20" font-weight="bold" lengthAdjust="spacing" textLength="11" x="115.5" y="241.8398">3</text><text fill="#000000" font-family="sans-serif" font-size="20" lengthAdjust="spacing" textLength="148" x="130.5" y="241.8398">selects a agency</text><polygon fill="#181818" points="119.5,283.3906,109.5,287.3906,119.5,291.3906,115.5,287.3906" style="stroke:#181818;stroke-width:1.0;"/><line style="stroke:#181818;stroke-width:1.0;stroke-dasharray:2.0,2.0;" x1="113.5" x2="1015.5" y1="287.3906" y2="287.3906"/><text fill="#000000" font-family="sans-serif" font-size="20" font-weight="bold" lengthAdjust="spacing" textLength="11" x="125.5" y="280.9961">4</text><text fill="#000000" font-family="sans-serif" font-size="20" lengthAdjust="spacing" textLength="864" x="140.5" y="280.9961">shows the list of agents available and asks to select one or use a feature to select a random agent</text><path d="M20,302.3906 L88,302.3906 L88,319.5469 L78,329.5469 L20,329.5469 L20,302.3906 " fill="#EEEEEE" style="stroke:#000000;stroke-width:1.5;"/><rect fill="none" height="130.2031" style="stroke:#000000;stroke-width:1.5;" width="1049.5" x="20" y="302.3906"/><text fill="#008000" font-family="sans-serif" font-size="20" font-weight="bold" lengthAdjust="spacing" textLength="23" x="35" y="324.1523">alt</text><text fill="#0000FF" font-family="sans-serif" font-size="15" font-weight="bold" lengthAdjust="spacing" textLength="111" x="103" y="319.9619">[Select a agent]</text><polygon fill="#181818" points="1004.5,360.5703,1014.5,364.5703,1004.5,368.5703,1008.5,364.5703" style="stroke:#181818;stroke-width:1.0;"/><line style="stroke:#181818;stroke-width:1.0;" x1="108.5" x2="1010.5" y1="364.5703" y2="364.5703"/><text fill="#000000" font-family="sans-serif" font-size="20" font-weight="bold" lengthAdjust="spacing" textLength="28" x="115.5" y="358.1758">5.1</text><text fill="#000000" font-family="sans-serif" font-size="20" lengthAdjust="spacing" textLength="134" x="147.5" y="358.1758">selects a agent</text><line style="stroke:#000000;stroke-width:1.0;stroke-dasharray:2.0,2.0;" x1="20" x2="1069.5" y1="373.5703" y2="373.5703"/><text fill="#0000FF" font-family="sans-serif" font-size="15" font-weight="bold" lengthAdjust="spacing" textLength="118" x="25" y="389.1416">[random feature]</text><polygon fill="#181818" points="1004.5,420.5938,1014.5,424.5938,1004.5,428.5938,1008.5,424.5938" style="stroke:#181818;stroke-width:1.0;"/><line style="stroke:#181818;stroke-width:1.0;" x1="108.5" x2="1010.5" y1="424.5938" y2="424.5938"/><text fill="#000000" font-family="sans-serif" font-size="20" font-weight="bold" lengthAdjust="spacing" textLength="28" x="115.5" y="418.1992">5.2</text><text fill="#000000" font-family="sans-serif" font-size="20" lengthAdjust="spacing" textLength="235" x="147.5" y="418.1992">randomly assing one agent</text><polygon fill="#181818" points="119.5,466.75,109.5,470.75,119.5,474.75,115.5,470.75" style="stroke:#181818;stroke-width:1.0;"/><line style="stroke:#181818;stroke-width:1.0;stroke-dasharray:2.0,2.0;" x1="113.5" x2="1015.5" y1="470.75" y2="470.75"/><text fill="#000000" font-family="sans-serif" font-size="20" font-weight="bold" lengthAdjust="spacing" textLength="11" x="125.5" y="464.3555">6</text><text fill="#000000" font-family="sans-serif" font-size="20" lengthAdjust="spacing" textLength="593" x="140.5" y="464.3555">requests the property address (i.e. street,city,district,state,zipcode)</text><polygon fill="#181818" points="999.5,505.9063,1009.5,509.9063,999.5,513.9063,1003.5,509.9063" style="stroke:#181818;stroke-width:1.0;"/><line style="stroke:#181818;stroke-width:1.0;" x1="108.5" x2="1005.5" y1="509.9063" y2="509.9063"/><text fill="#000000" font-family="sans-serif" font-size="20" font-weight="bold" lengthAdjust="spacing" textLength="11" x="115.5" y="503.5117">7</text><text fill="#000000" font-family="sans-serif" font-size="20" lengthAdjust="spacing" textLength="220" x="130.5" y="503.5117">types the requested data</text><path d="M20,524.9063 L106,524.9063 L106,542.0625 L96,552.0625 L20,552.0625 L20,524.9063 " fill="#EEEEEE" style="stroke:#000000;stroke-width:1.5;"/><rect fill="none" height="109.3359" style="stroke:#000000;stroke-width:1.5;" width="1049.5" x="20" y="524.9063"/><text fill="#008000" font-family="sans-serif" font-size="20" font-weight="bold" lengthAdjust="spacing" textLength="41" x="35" y="546.668">loop</text><text fill="#0000FF" font-family="sans-serif" font-size="15" font-weight="bold" lengthAdjust="spacing" textLength="227" x="121" y="542.4775">[selectiong one or more photos]</text><polygon fill="#181818" points="119.5,583.0859,109.5,587.0859,119.5,591.0859,115.5,587.0859" style="stroke:#181818;stroke-width:1.0;"/><line style="stroke:#181818;stroke-width:1.0;stroke-dasharray:2.0,2.0;" x1="113.5" x2="1015.5" y1="587.0859" y2="587.0859"/><text fill="#000000" font-family="sans-serif" font-size="20" font-weight="bold" lengthAdjust="spacing" textLength="11" x="125.5" y="580.6914">8</text><text fill="#000000" font-family="sans-serif" font-size="20" lengthAdjust="spacing" textLength="275" x="140.5" y="580.6914">requests photos (i.e photoURL)</text><polygon fill="#181818" points="999.5,622.2422,1009.5,626.2422,999.5,630.2422,1003.5,626.2422" style="stroke:#181818;stroke-width:1.0;"/><line style="stroke:#181818;stroke-width:1.0;" x1="108.5" x2="1005.5" y1="626.2422" y2="626.2422"/><text fill="#000000" font-family="sans-serif" font-size="20" font-weight="bold" lengthAdjust="spacing" textLength="11" x="115.5" y="619.8477">9</text><text fill="#000000" font-family="sans-serif" font-size="20" lengthAdjust="spacing" textLength="220" x="130.5" y="619.8477">types the requested data</text><polygon fill="#181818" points="119.5,668.3984,109.5,672.3984,119.5,676.3984,115.5,672.3984" style="stroke:#181818;stroke-width:1.0;"/><line style="stroke:#181818;stroke-width:1.0;stroke-dasharray:2.0,2.0;" x1="113.5" x2="1015.5" y1="672.3984" y2="672.3984"/><text fill="#000000" font-family="sans-serif" font-size="20" font-weight="bold" lengthAdjust="spacing" textLength="22" x="125.5" y="666.0039">10</text><text fill="#000000" font-family="sans-serif" font-size="20" lengthAdjust="spacing" textLength="256" x="151.5" y="666.0039">requests the type of property</text><path d="M10,687.3984 L78,687.3984 L78,704.5547 L68,714.5547 L10,714.5547 L10,687.3984 " fill="#EEEEEE" style="stroke:#000000;stroke-width:1.5;"/><rect fill="none" height="671.8359" style="stroke:#000000;stroke-width:1.5;" width="1069.5" x="10" y="687.3984"/><text fill="#008000" font-family="sans-serif" font-size="20" font-weight="bold" lengthAdjust="spacing" textLength="23" x="25" y="709.1602">alt</text><text fill="#0000FF" font-family="sans-serif" font-size="15" font-weight="bold" lengthAdjust="spacing" textLength="133" x="93" y="704.9697">[Property is a land]</text><polygon fill="#181818" points="1004.5,745.5781,1014.5,749.5781,1004.5,753.5781,1008.5,749.5781" style="stroke:#181818;stroke-width:1.0;"/><line style="stroke:#181818;stroke-width:1.0;" x1="108.5" x2="1010.5" y1="749.5781" y2="749.5781"/><text fill="#000000" font-family="sans-serif" font-size="20" font-weight="bold" lengthAdjust="spacing" textLength="22" x="115.5" y="743.1836">11</text><text fill="#000000" font-family="sans-serif" font-size="20" lengthAdjust="spacing" textLength="187" x="141.5" y="743.1836">types requested data</text><polygon fill="#181818" points="119.5,784.7344,109.5,788.7344,119.5,792.7344,115.5,788.7344" style="stroke:#181818;stroke-width:1.0;"/><line style="stroke:#181818;stroke-width:1.0;stroke-dasharray:2.0,2.0;" x1="113.5" x2="1015.5" y1="788.7344" y2="788.7344"/><text fill="#000000" font-family="sans-serif" font-size="20" font-weight="bold" lengthAdjust="spacing" textLength="22" x="125.5" y="782.3398">12</text><text fill="#000000" font-family="sans-serif" font-size="20" lengthAdjust="spacing" textLength="281" x="151.5" y="782.3398">request the Land characteristics</text><polygon fill="#181818" points="1004.5,823.8906,1014.5,827.8906,1004.5,831.8906,1008.5,827.8906" style="stroke:#181818;stroke-width:1.0;"/><line style="stroke:#181818;stroke-width:1.0;" x1="108.5" x2="1010.5" y1="827.8906" y2="827.8906"/><text fill="#000000" font-family="sans-serif" font-size="20" font-weight="bold" lengthAdjust="spacing" textLength="22" x="115.5" y="821.4961">13</text><text fill="#000000" font-family="sans-serif" font-size="20" lengthAdjust="spacing" textLength="187" x="141.5" y="821.4961">types requested data</text><line style="stroke:#000000;stroke-width:1.0;stroke-dasharray:2.0,2.0;" x1="10" x2="1079.5" y1="836.8906" y2="836.8906"/><text fill="#0000FF" font-family="sans-serif" font-size="15" font-weight="bold" lengthAdjust="spacing" textLength="192" x="15" y="852.4619">[Property is a appartement]</text><polygon fill="#181818" points="1004.5,883.9141,1014.5,887.9141,1004.5,891.9141,1008.5,887.9141" style="stroke:#181818;stroke-width:1.0;"/><line style="stroke:#181818;stroke-width:1.0;" x1="108.5" x2="1010.5" y1="887.9141" y2="887.9141"/><text fill="#000000" font-family="sans-serif" font-size="20" font-weight="bold" lengthAdjust="spacing" textLength="22" x="115.5" y="881.5195">11</text><text fill="#000000" font-family="sans-serif" font-size="20" lengthAdjust="spacing" textLength="187" x="141.5" y="881.5195">types requested data</text><polygon fill="#181818" points="119.5,923.0703,109.5,927.0703,119.5,931.0703,115.5,927.0703" style="stroke:#181818;stroke-width:1.0;"/><line style="stroke:#181818;stroke-width:1.0;stroke-dasharray:2.0,2.0;" x1="113.5" x2="1015.5" y1="927.0703" y2="927.0703"/><text fill="#000000" font-family="sans-serif" font-size="20" font-weight="bold" lengthAdjust="spacing" textLength="22" x="125.5" y="920.6758">12</text><text fill="#000000" font-family="sans-serif" font-size="20" lengthAdjust="spacing" textLength="349" x="151.5" y="920.6758">request the appartement characteristics</text><polygon fill="#181818" points="1004.5,962.2266,1014.5,966.2266,1004.5,970.2266,1008.5,966.2266" style="stroke:#181818;stroke-width:1.0;"/><line style="stroke:#181818;stroke-width:1.0;" x1="108.5" x2="1010.5" y1="966.2266" y2="966.2266"/><text fill="#000000" font-family="sans-serif" font-size="20" font-weight="bold" lengthAdjust="spacing" textLength="22" x="115.5" y="959.832">13</text><text fill="#000000" font-family="sans-serif" font-size="20" lengthAdjust="spacing" textLength="187" x="141.5" y="959.832">types requested data</text><path d="M20,981.2266 L106,981.2266 L106,998.3828 L96,1008.3828 L20,1008.3828 L20,981.2266 " fill="#EEEEEE" style="stroke:#000000;stroke-width:1.5;"/><rect fill="none" height="109.3359" style="stroke:#000000;stroke-width:1.5;" width="1049.5" x="20" y="981.2266"/><text fill="#008000" font-family="sans-serif" font-size="20" font-weight="bold" lengthAdjust="spacing" textLength="41" x="35" y="1002.9883">loop</text><text fill="#0000FF" font-family="sans-serif" font-size="15" font-weight="bold" lengthAdjust="spacing" textLength="230" x="121" y="998.7979">[select one or more equipments]</text><polygon fill="#181818" points="119.5,1039.4063,109.5,1043.4063,119.5,1047.4063,115.5,1043.4063" style="stroke:#181818;stroke-width:1.0;"/><line style="stroke:#181818;stroke-width:1.0;stroke-dasharray:2.0,2.0;" x1="113.5" x2="1015.5" y1="1043.4063" y2="1043.4063"/><text fill="#000000" font-family="sans-serif" font-size="20" font-weight="bold" lengthAdjust="spacing" textLength="22" x="125.5" y="1037.0117">14</text><text fill="#000000" font-family="sans-serif" font-size="20" lengthAdjust="spacing" textLength="244" x="151.5" y="1037.0117">request available equipment</text><polygon fill="#181818" points="1004.5,1078.5625,1014.5,1082.5625,1004.5,1086.5625,1008.5,1082.5625" style="stroke:#181818;stroke-width:1.0;"/><line style="stroke:#181818;stroke-width:1.0;" x1="108.5" x2="1010.5" y1="1082.5625" y2="1082.5625"/><text fill="#000000" font-family="sans-serif" font-size="20" font-weight="bold" lengthAdjust="spacing" textLength="22" x="115.5" y="1076.168">15</text><text fill="#000000" font-family="sans-serif" font-size="20" lengthAdjust="spacing" textLength="187" x="141.5" y="1076.168">types requested data</text><line style="stroke:#000000;stroke-width:1.0;stroke-dasharray:2.0,2.0;" x1="10" x2="1079.5" y1="1098.5625" y2="1098.5625"/><text fill="#0000FF" font-family="sans-serif" font-size="15" font-weight="bold" lengthAdjust="spacing" textLength="147" x="15" y="1114.1338">[Property is a house]</text><polygon fill="#181818" points="1004.5,1145.5859,1014.5,1149.5859,1004.5,1153.5859,1008.5,1149.5859" style="stroke:#181818;stroke-width:1.0;"/><line style="stroke:#181818;stroke-width:1.0;" x1="108.5" x2="1010.5" y1="1149.5859" y2="1149.5859"/><text fill="#000000" font-family="sans-serif" font-size="20" font-weight="bold" lengthAdjust="spacing" textLength="22" x="115.5" y="1143.1914">11</text><text fill="#000000" font-family="sans-serif" font-size="20" lengthAdjust="spacing" textLength="187" x="141.5" y="1143.1914">types requested data</text><polygon fill="#181818" points="119.5,1184.7422,109.5,1188.7422,119.5,1192.7422,115.5,1188.7422" style="stroke:#181818;stroke-width:1.0;"/><line style="stroke:#181818;stroke-width:1.0;stroke-dasharray:2.0,2.0;" x1="113.5" x2="1015.5" y1="1188.7422" y2="1188.7422"/><text fill="#000000" font-family="sans-serif" font-size="20" font-weight="bold" lengthAdjust="spacing" textLength="22" x="125.5" y="1182.3477">12</text><text fill="#000000" font-family="sans-serif" font-size="20" lengthAdjust="spacing" textLength="293" x="151.5" y="1182.3477">request the House characteristics</text><polygon fill="#181818" points="1004.5,1223.8984,1014.5,1227.8984,1004.5,1231.8984,1008.5,1227.8984" style="stroke:#181818;stroke-width:1.0;"/><line style="stroke:#181818;stroke-width:1.0;" x1="108.5" x2="1010.5" y1="1227.8984" y2="1227.8984"/><text fill="#000000" font-family="sans-serif" font-size="20" font-weight="bold" lengthAdjust="spacing" textLength="22" x="115.5" y="1221.5039">13</text><text fill="#000000" font-family="sans-serif" font-size="20" lengthAdjust="spacing" textLength="187" x="141.5" y="1221.5039">types requested data</text><path d="M20,1242.8984 L106,1242.8984 L106,1260.0547 L96,1270.0547 L20,1270.0547 L20,1242.8984 " fill="#EEEEEE" style="stroke:#000000;stroke-width:1.5;"/><rect fill="none" height="109.3359" style="stroke:#000000;stroke-width:1.5;" width="1049.5" x="20" y="1242.8984"/><text fill="#008000" font-family="sans-serif" font-size="20" font-weight="bold" lengthAdjust="spacing" textLength="41" x="35" y="1264.6602">loop</text><text fill="#0000FF" font-family="sans-serif" font-size="15" font-weight="bold" lengthAdjust="spacing" textLength="230" x="121" y="1260.4697">[select one or more equipments]</text><polygon fill="#181818" points="119.5,1301.0781,109.5,1305.0781,119.5,1309.0781,115.5,1305.0781" style="stroke:#181818;stroke-width:1.0;"/><line style="stroke:#181818;stroke-width:1.0;stroke-dasharray:2.0,2.0;" x1="113.5" x2="1015.5" y1="1305.0781" y2="1305.0781"/><text fill="#000000" font-family="sans-serif" font-size="20" font-weight="bold" lengthAdjust="spacing" textLength="22" x="125.5" y="1298.6836">14</text><text fill="#000000" font-family="sans-serif" font-size="20" lengthAdjust="spacing" textLength="244" x="151.5" y="1298.6836">request available equipment</text><polygon fill="#181818" points="1004.5,1340.2344,1014.5,1344.2344,1004.5,1348.2344,1008.5,1344.2344" style="stroke:#181818;stroke-width:1.0;"/><line style="stroke:#181818;stroke-width:1.0;" x1="108.5" x2="1010.5" y1="1344.2344" y2="1344.2344"/><text fill="#000000" font-family="sans-serif" font-size="20" font-weight="bold" lengthAdjust="spacing" textLength="22" x="115.5" y="1337.8398">15</text><text fill="#000000" font-family="sans-serif" font-size="20" lengthAdjust="spacing" textLength="187" x="141.5" y="1337.8398">types requested data</text><polygon fill="#181818" points="119.5,1393.3906,109.5,1397.3906,119.5,1401.3906,115.5,1397.3906" style="stroke:#181818;stroke-width:1.0;"/><line style="stroke:#181818;stroke-width:1.0;stroke-dasharray:2.0,2.0;" x1="113.5" x2="1015.5" y1="1397.3906" y2="1397.3906"/><text fill="#000000" font-family="sans-serif" font-size="20" font-weight="bold" lengthAdjust="spacing" textLength="22" x="125.5" y="1390.9961">16</text><text fill="#000000" font-family="sans-serif" font-size="20" lengthAdjust="spacing" textLength="186" x="151.5" y="1390.9961">request the dealType</text><polygon fill="#181818" points="1004.5,1432.5469,1014.5,1436.5469,1004.5,1440.5469,1008.5,1436.5469" style="stroke:#181818;stroke-width:1.0;"/><line style="stroke:#181818;stroke-width:1.0;" x1="108.5" x2="1010.5" y1="1436.5469" y2="1436.5469"/><text fill="#000000" font-family="sans-serif" font-size="20" font-weight="bold" lengthAdjust="spacing" textLength="22" x="115.5" y="1430.1523">17</text><text fill="#000000" font-family="sans-serif" font-size="20" lengthAdjust="spacing" textLength="187" x="141.5" y="1430.1523">types requested data</text><path d="M20,1451.5469 L88,1451.5469 L88,1468.7031 L78,1478.7031 L20,1478.7031 L20,1451.5469 " fill="#EEEEEE" style="stroke:#000000;stroke-width:1.5;"/><rect fill="none" height="208.5156" style="stroke:#000000;stroke-width:1.5;" width="1049.5" x="20" y="1451.5469"/><text fill="#008000" font-family="sans-serif" font-size="20" font-weight="bold" lengthAdjust="spacing" textLength="23" x="35" y="1473.3086">alt</text><text fill="#0000FF" font-family="sans-serif" font-size="15" font-weight="bold" lengthAdjust="spacing" textLength="93" x="103" y="1469.1182">[Deal is Sale]</text><polygon fill="#181818" points="119.5,1509.7266,109.5,1513.7266,119.5,1517.7266,115.5,1513.7266" style="stroke:#181818;stroke-width:1.0;"/><line style="stroke:#181818;stroke-width:1.0;stroke-dasharray:2.0,2.0;" x1="113.5" x2="1015.5" y1="1513.7266" y2="1513.7266"/><text fill="#000000" font-family="sans-serif" font-size="20" font-weight="bold" lengthAdjust="spacing" textLength="22" x="125.5" y="1507.332">18</text><text fill="#000000" font-family="sans-serif" font-size="20" lengthAdjust="spacing" textLength="148" x="151.5" y="1507.332">request the price</text><polygon fill="#181818" points="1004.5,1548.8828,1014.5,1552.8828,1004.5,1556.8828,1008.5,1552.8828" style="stroke:#181818;stroke-width:1.0;"/><line style="stroke:#181818;stroke-width:1.0;" x1="108.5" x2="1010.5" y1="1552.8828" y2="1552.8828"/><text fill="#000000" font-family="sans-serif" font-size="20" font-weight="bold" lengthAdjust="spacing" textLength="22" x="115.5" y="1546.4883">19</text><text fill="#000000" font-family="sans-serif" font-size="20" lengthAdjust="spacing" textLength="187" x="141.5" y="1546.4883">types requested data</text><line style="stroke:#000000;stroke-width:1.0;stroke-dasharray:2.0,2.0;" x1="20" x2="1069.5" y1="1561.8828" y2="1561.8828"/><text fill="#0000FF" font-family="sans-serif" font-size="15" font-weight="bold" lengthAdjust="spacing" textLength="96" x="25" y="1577.4541">[Deal is Rent]</text><polygon fill="#181818" points="119.5,1608.9063,109.5,1612.9063,119.5,1616.9063,115.5,1612.9063" style="stroke:#181818;stroke-width:1.0;"/><line style="stroke:#181818;stroke-width:1.0;stroke-dasharray:2.0,2.0;" x1="113.5" x2="1015.5" y1="1612.9063" y2="1612.9063"/><text fill="#000000" font-family="sans-serif" font-size="20" font-weight="bold" lengthAdjust="spacing" textLength="22" x="125.5" y="1606.5117">18</text><text fill="#000000" font-family="sans-serif" font-size="20" lengthAdjust="spacing" textLength="252" x="151.5" y="1606.5117">request the contract duration</text><polygon fill="#181818" points="1004.5,1648.0625,1014.5,1652.0625,1004.5,1656.0625,1008.5,1652.0625" style="stroke:#181818;stroke-width:1.0;"/><line style="stroke:#181818;stroke-width:1.0;" x1="108.5" x2="1010.5" y1="1652.0625" y2="1652.0625"/><text fill="#000000" font-family="sans-serif" font-size="20" font-weight="bold" lengthAdjust="spacing" textLength="22" x="115.5" y="1645.668">19</text><text fill="#000000" font-family="sans-serif" font-size="20" lengthAdjust="spacing" textLength="187" x="141.5" y="1645.668">types requested data</text><polygon fill="#181818" points="119.5,1694.2188,109.5,1698.2188,119.5,1702.2188,115.5,1698.2188" style="stroke:#181818;stroke-width:1.0;"/><line style="stroke:#181818;stroke-width:1.0;stroke-dasharray:2.0,2.0;" x1="113.5" x2="1015.5" y1="1698.2188" y2="1698.2188"/><text fill="#000000" font-family="sans-serif" font-size="20" font-weight="bold" lengthAdjust="spacing" textLength="22" x="125.5" y="1691.8242">20</text><text fill="#000000" font-family="sans-serif" font-size="20" lengthAdjust="spacing" textLength="354" x="151.5" y="1691.8242">shows the data and asks to confirmation</text><polygon fill="#181818" points="999.5,1733.375,1009.5,1737.375,999.5,1741.375,1003.5,1737.375" style="stroke:#181818;stroke-width:1.0;"/><line style="stroke:#181818;stroke-width:1.0;" x1="108.5" x2="1005.5" y1="1737.375" y2="1737.375"/><text fill="#000000" font-family="sans-serif" font-size="20" font-weight="bold" lengthAdjust="spacing" textLength="22" x="115.5" y="1730.9805">21</text><text fill="#000000" font-family="sans-serif" font-size="20" lengthAdjust="spacing" textLength="152" x="141.5" y="1730.9805">confirms the data</text><polygon fill="#181818" points="119.5,1772.5313,109.5,1776.5313,119.5,1780.5313,115.5,1776.5313" style="stroke:#181818;stroke-width:1.0;"/><line style="stroke:#181818;stroke-width:1.0;stroke-dasharray:2.0,2.0;" x1="113.5" x2="1015.5" y1="1776.5313" y2="1776.5313"/><text fill="#000000" font-family="sans-serif" font-size="20" font-weight="bold" lengthAdjust="spacing" textLength="22" x="125.5" y="1770.1367">22</text><text fill="#000000" font-family="sans-serif" font-size="20" lengthAdjust="spacing" textLength="239" x="151.5" y="1770.1367">Displays operation success</text><!--SRC=[rLPDJzj04BtxLupe8I05r5IYgZXKQXjH3Y0GRd_0i9uagwnttTqrrFpwplehji59eFJGd1nxvirxRsR7TckfCxIOAYFMb4122yoLFpVQn_AHuCFxo3KXa1fjnCgQb621ob7dKOPYZKkAVQ48B0cFUgcw0Mw5YNcGUbcdHbvw3eqBvoc5c7xbf0N1NE8oX1_6yVmeYYPmBZdA5Lw5LBw1oZT_E-XD_dThyko2C24R97mpobXOMY8z5hm9krCvROig_PYTHfChcIHCojDlfiA20vL9HscTU4NEiILVb5ng4AGzsPrXYGpUIQCZpBtHUNh7IH4Ap_mERgp9oFe2hXyqsGD01pVN0EzkZIk-MlEW8uWOsqiXCzGU3iugTyl8whB4alVeYLCZg7-CSlovQSKPHwyTU0DAEXzSHyZgocL6Yr13XdijL0rop7YCUiPjDmyCjg8I3Sm2MAiMaXpWFKg5T-mawgGjwaYn0s0qbPW9RIqtO5ubCtHLvNc-B-JgTpC5xaxk-2ai27rkgVCOmNAIIIkiBPes3OVJarbrYsSzRc0s-Nk9zvLEuhFMCAZ9RSEe8bN18breVH2tAKmw6LBzM9KPMcd3S3jVkTbC3s2IM9vsE9GdTC97Xy-bdmhfYsd2Xbif_DHvjcNwA3DX4ZeQiMki_Rx8g2fPrmyB3JsEZu4o9gkDuqEtR9gP6kvXjZBUkD5fQILMSQMewlhdxUK_PTwqOZUr01YWmootNTX5RI8NKBOXxGvScCLs0SamPGgx70PpCPl1jZchz3wZjVdr_bHfBA-hhXHt6GwaMF525RnUmxuIBdfnuJQXF2rzbPY5bThtuWd1dl3Nbz-kjSFaxoKtiPq3q1j-ZfPPAENsOBVPZstQgmdnOCEsVgnC7huUtixz_So_26NVSDB-0-_hPTzVC4-CuKMYVZ3eOBNjQKFOAdD62BsDKT5mfprNCUCN1RsaMc-QccgtGwE6a_Hf3og2Fml3G42IMom_srvf-puV9I6dzm72rHVIffl2-xzlwjGDyFWhSd8kDLjsmxjdbEHSkanXuI2Sr98Fk5m8VjUFyFe3]--></g></svg>