<?xml version="1.0" encoding="UTF-8" standalone="no"?><svg xmlns="http://www.w3.org/2000/svg" xmlns:xlink="http://www.w3.org/1999/xlink" contentStyleType="text/css" height="2070px" preserveAspectRatio="none" style="width:3683px;height:2070px;background:#FFFFFF;" version="1.1" viewBox="0 0 3683 2070" width="3683px" zoomAndPan="magnify"><defs/><g><!--class Land--><g id="elem_Land"><rect codeLine="17" fill="#FFDAB9" height="202.0938" id="Land" rx="2.5" ry="2.5" style="stroke:#4169E1;stroke-width:0.5;" width="579" x="2110" y="1348"/><ellipse cx="2373.5" cy="1365.5781" fill="#ADD1B2" rx="12" ry="12" style="stroke:#181818;stroke-width:1.0;"/><path d="M2375.6406,1360.5 Q2375.8281,1360.25 2376.0469,1360.125 Q2376.2656,1359.9844 2376.5156,1359.9844 Q2376.9531,1359.9844 2377.2344,1360.2969 Q2377.5156,1360.5938 2377.5156,1361.3125 L2377.5156,1363.0156 Q2377.5156,1363.7344 2377.2344,1364.0469 Q2376.9531,1364.3594 2376.5156,1364.3594 Q2376.125,1364.3594 2375.875,1364.125 Q2375.625,1363.9063 2375.5156,1363.2969 Q2375.4531,1362.875 2375.2344,1362.6563 Q2374.8438,1362.2188 2374.125,1361.9531 Q2373.4063,1361.6875 2372.6875,1361.6875 Q2371.7813,1361.6875 2371.0313,1362.0781 Q2370.2813,1362.4688 2369.7031,1363.3594 Q2369.125,1364.2344 2369.125,1365.4375 L2369.125,1366.7344 Q2369.125,1368.1875 2370.1719,1369.1563 Q2371.2344,1370.125 2373.0938,1370.125 Q2374.2031,1370.125 2374.9844,1369.8125 Q2375.4219,1369.6406 2375.9375,1369.125 Q2376.25,1368.8125 2376.4219,1368.7188 Q2376.5938,1368.625 2376.8281,1368.625 Q2377.2188,1368.625 2377.5156,1368.9375 Q2377.8281,1369.2344 2377.8281,1369.6406 Q2377.8281,1370.0469 2377.4219,1370.5156 Q2376.8281,1371.2031 2375.8906,1371.5938 Q2374.625,1372.125 2373.1094,1372.125 Q2371.3281,1372.125 2369.9063,1371.3906 Q2368.75,1370.7969 2367.9375,1369.5313 Q2367.125,1368.2656 2367.125,1366.7813 L2367.125,1365.4219 Q2367.125,1363.8594 2367.8438,1362.5156 Q2368.5781,1361.1563 2369.8594,1360.4219 Q2371.1563,1359.6875 2372.6094,1359.6875 Q2373.4688,1359.6875 2374.2188,1359.8906 Q2374.9844,1360.0938 2375.6406,1360.5 Z " fill="#000000"/><text fill="#000000" font-family="sans-serif" font-size="20" lengthAdjust="spacing" textLength="43" x="2395.5" y="1373.7617">Land</text><line style="stroke:#4169E1;stroke-width:0.5;" x1="2111" x2="2688" y1="1383.1563" y2="1383.1563"/><rect fill="none" height="6" style="stroke:#C82930;stroke-width:1.0;" width="6" x="2118" y="1398.2344"/><text fill="#000000" font-family="sans-serif" font-size="20" lengthAdjust="spacing" textLength="104" x="2131" y="1407.918">double area</text><rect fill="none" height="6" style="stroke:#C82930;stroke-width:1.0;" width="6" x="2118" y="1423.3906"/><text fill="#000000" font-family="sans-serif" font-size="20" lengthAdjust="spacing" textLength="276" x="2131" y="1433.0742">double distanceFromCityCentre</text><rect fill="none" height="6" style="stroke:#C82930;stroke-width:1.0;" width="6" x="2118" y="1448.5469"/><text fill="#000000" font-family="sans-serif" font-size="20" lengthAdjust="spacing" textLength="247" x="2131" y="1458.2305">ArrayList&lt;String&gt; photoURL</text><rect fill="none" height="6" style="stroke:#C82930;stroke-width:1.0;" width="6" x="2118" y="1473.7031"/><text fill="#000000" font-family="sans-serif" font-size="20" lengthAdjust="spacing" textLength="150" x="2131" y="1483.3867">Address address</text><rect fill="none" height="6" style="stroke:#C82930;stroke-width:1.0;" width="6" x="2118" y="1498.8594"/><text fill="#000000" font-family="sans-serif" font-size="20" lengthAdjust="spacing" textLength="83" x="2131" y="1508.543">Deal deal</text><line style="stroke:#4169E1;stroke-width:0.5;" x1="2111" x2="2688" y1="1516.9375" y2="1516.9375"/><ellipse cx="2121" cy="1535.0156" fill="#84BE84" rx="3" ry="3" style="stroke:#038048;stroke-width:1.0;"/><text fill="#000000" font-family="sans-serif" font-size="20" lengthAdjust="spacing" textLength="552" x="2131" y="1541.6992">Land(area, distanceFromCityCentre, photoURL, address, deal)</text></g><!--class Apartment--><g id="elem_Apartment"><rect codeLine="26" fill="#FFDAB9" height="176.9375" id="Apartment" rx="2.5" ry="2.5" style="stroke:#4169E1;stroke-width:0.5;" width="952" x="2724.5" y="1360.5"/><ellipse cx="3150.5" cy="1378.0781" fill="#ADD1B2" rx="12" ry="12" style="stroke:#181818;stroke-width:1.0;"/><path d="M3152.6406,1373 Q3152.8281,1372.75 3153.0469,1372.625 Q3153.2656,1372.4844 3153.5156,1372.4844 Q3153.9531,1372.4844 3154.2344,1372.7969 Q3154.5156,1373.0938 3154.5156,1373.8125 L3154.5156,1375.5156 Q3154.5156,1376.2344 3154.2344,1376.5469 Q3153.9531,1376.8594 3153.5156,1376.8594 Q3153.125,1376.8594 3152.875,1376.625 Q3152.625,1376.4063 3152.5156,1375.7969 Q3152.4531,1375.375 3152.2344,1375.1563 Q3151.8438,1374.7188 3151.125,1374.4531 Q3150.4063,1374.1875 3149.6875,1374.1875 Q3148.7813,1374.1875 3148.0313,1374.5781 Q3147.2813,1374.9688 3146.7031,1375.8594 Q3146.125,1376.7344 3146.125,1377.9375 L3146.125,1379.2344 Q3146.125,1380.6875 3147.1719,1381.6563 Q3148.2344,1382.625 3150.0938,1382.625 Q3151.2031,1382.625 3151.9844,1382.3125 Q3152.4219,1382.1406 3152.9375,1381.625 Q3153.25,1381.3125 3153.4219,1381.2188 Q3153.5938,1381.125 3153.8281,1381.125 Q3154.2188,1381.125 3154.5156,1381.4375 Q3154.8281,1381.7344 3154.8281,1382.1406 Q3154.8281,1382.5469 3154.4219,1383.0156 Q3153.8281,1383.7031 3152.8906,1384.0938 Q3151.625,1384.625 3150.1094,1384.625 Q3148.3281,1384.625 3146.9063,1383.8906 Q3145.75,1383.2969 3144.9375,1382.0313 Q3144.125,1380.7656 3144.125,1379.2813 L3144.125,1377.9219 Q3144.125,1376.3594 3144.8438,1375.0156 Q3145.5781,1373.6563 3146.8594,1372.9219 Q3148.1563,1372.1875 3149.6094,1372.1875 Q3150.4688,1372.1875 3151.2188,1372.3906 Q3151.9844,1372.5938 3152.6406,1373 Z " fill="#000000"/><text fill="#000000" font-family="sans-serif" font-size="20" lengthAdjust="spacing" textLength="91" x="3172.5" y="1386.2617">Apartment</text><line style="stroke:#4169E1;stroke-width:0.5;" x1="2725.5" x2="3675.5" y1="1395.6563" y2="1395.6563"/><rect fill="none" height="6" style="stroke:#C82930;stroke-width:1.0;" width="6" x="2732.5" y="1410.7344"/><text fill="#000000" font-family="sans-serif" font-size="20" lengthAdjust="spacing" textLength="203" x="2745.5" y="1420.418">int numberOfBedrooms</text><rect fill="none" height="6" style="stroke:#C82930;stroke-width:1.0;" width="6" x="2732.5" y="1435.8906"/><text fill="#000000" font-family="sans-serif" font-size="20" lengthAdjust="spacing" textLength="208" x="2745.5" y="1445.5742">int numberOfBathrooms</text><rect fill="none" height="6" style="stroke:#C82930;stroke-width:1.0;" width="6" x="2732.5" y="1461.0469"/><text fill="#000000" font-family="sans-serif" font-size="20" lengthAdjust="spacing" textLength="235" x="2745.5" y="1470.7305">int numberOfParkingSpace</text><rect fill="none" height="6" style="stroke:#C82930;stroke-width:1.0;" width="6" x="2732.5" y="1486.2031"/><text fill="#000000" font-family="sans-serif" font-size="20" lengthAdjust="spacing" textLength="280" x="2745.5" y="1495.8867">List&lt;String&gt; availableEquipment</text><line style="stroke:#4169E1;stroke-width:0.5;" x1="2725.5" x2="3675.5" y1="1504.2813" y2="1504.2813"/><ellipse cx="2735.5" cy="1522.3594" fill="#84BE84" rx="3" ry="3" style="stroke:#038048;stroke-width:1.0;"/><text fill="#000000" font-family="sans-serif" font-size="20" lengthAdjust="spacing" textLength="925" x="2745.5" y="1529.043">Apartment(land, numberOfBedrooms, numberOfBathrooms, numberOfParkingSpace, availableEquipment)</text></g><!--class House--><g id="elem_House"><rect codeLine="34" fill="#FFDAB9" height="151.7813" id="House" rx="2.5" ry="2.5" style="stroke:#4169E1;stroke-width:0.5;" width="546" x="1528.5" y="1373"/><ellipse cx="1769.5" cy="1390.5781" fill="#ADD1B2" rx="12" ry="12" style="stroke:#181818;stroke-width:1.0;"/><path d="M1771.6406,1385.5 Q1771.8281,1385.25 1772.0469,1385.125 Q1772.2656,1384.9844 1772.5156,1384.9844 Q1772.9531,1384.9844 1773.2344,1385.2969 Q1773.5156,1385.5938 1773.5156,1386.3125 L1773.5156,1388.0156 Q1773.5156,1388.7344 1773.2344,1389.0469 Q1772.9531,1389.3594 1772.5156,1389.3594 Q1772.125,1389.3594 1771.875,1389.125 Q1771.625,1388.9063 1771.5156,1388.2969 Q1771.4531,1387.875 1771.2344,1387.6563 Q1770.8438,1387.2188 1770.125,1386.9531 Q1769.4063,1386.6875 1768.6875,1386.6875 Q1767.7813,1386.6875 1767.0313,1387.0781 Q1766.2813,1387.4688 1765.7031,1388.3594 Q1765.125,1389.2344 1765.125,1390.4375 L1765.125,1391.7344 Q1765.125,1393.1875 1766.1719,1394.1563 Q1767.2344,1395.125 1769.0938,1395.125 Q1770.2031,1395.125 1770.9844,1394.8125 Q1771.4219,1394.6406 1771.9375,1394.125 Q1772.25,1393.8125 1772.4219,1393.7188 Q1772.5938,1393.625 1772.8281,1393.625 Q1773.2188,1393.625 1773.5156,1393.9375 Q1773.8281,1394.2344 1773.8281,1394.6406 Q1773.8281,1395.0469 1773.4219,1395.5156 Q1772.8281,1396.2031 1771.8906,1396.5938 Q1770.625,1397.125 1769.1094,1397.125 Q1767.3281,1397.125 1765.9063,1396.3906 Q1764.75,1395.7969 1763.9375,1394.5313 Q1763.125,1393.2656 1763.125,1391.7813 L1763.125,1390.4219 Q1763.125,1388.8594 1763.8438,1387.5156 Q1764.5781,1386.1563 1765.8594,1385.4219 Q1767.1563,1384.6875 1768.6094,1384.6875 Q1769.4688,1384.6875 1770.2188,1384.8906 Q1770.9844,1385.0938 1771.6406,1385.5 Z " fill="#000000"/><text fill="#000000" font-family="sans-serif" font-size="20" lengthAdjust="spacing" textLength="55" x="1791.5" y="1398.7617">House</text><line style="stroke:#4169E1;stroke-width:0.5;" x1="1529.5" x2="2073.5" y1="1408.1563" y2="1408.1563"/><rect fill="none" height="6" style="stroke:#C82930;stroke-width:1.0;" width="6" x="1536.5" y="1423.2344"/><text fill="#000000" font-family="sans-serif" font-size="20" lengthAdjust="spacing" textLength="161" x="1549.5" y="1432.918">boolean basement</text><rect fill="none" height="6" style="stroke:#C82930;stroke-width:1.0;" width="6" x="1536.5" y="1448.3906"/><text fill="#000000" font-family="sans-serif" font-size="20" lengthAdjust="spacing" textLength="202" x="1549.5" y="1458.0742">boolean inhabitableLoft</text><rect fill="none" height="6" style="stroke:#C82930;stroke-width:1.0;" width="6" x="1536.5" y="1473.5469"/><text fill="#000000" font-family="sans-serif" font-size="20" lengthAdjust="spacing" textLength="169" x="1549.5" y="1483.2305">String sunExposure</text><line style="stroke:#4169E1;stroke-width:0.5;" x1="1529.5" x2="2073.5" y1="1491.625" y2="1491.625"/><ellipse cx="1539.5" cy="1509.7031" fill="#84BE84" rx="3" ry="3" style="stroke:#038048;stroke-width:1.0;"/><text fill="#000000" font-family="sans-serif" font-size="20" lengthAdjust="spacing" textLength="519" x="1549.5" y="1516.3867">House(apartment, basement, inhabitableLoft, sunExposure)</text></g><!--class Address--><g id="elem_Address"><rect codeLine="41" fill="#FFDAB9" height="227.25" id="Address" rx="2.5" ry="2.5" style="stroke:#4169E1;stroke-width:0.5;" width="369" x="1075" y="1649"/><ellipse cx="1218.5" cy="1666.5781" fill="#ADD1B2" rx="12" ry="12" style="stroke:#181818;stroke-width:1.0;"/><path d="M1220.6406,1661.5 Q1220.8281,1661.25 1221.0469,1661.125 Q1221.2656,1660.9844 1221.5156,1660.9844 Q1221.9531,1660.9844 1222.2344,1661.2969 Q1222.5156,1661.5938 1222.5156,1662.3125 L1222.5156,1664.0156 Q1222.5156,1664.7344 1222.2344,1665.0469 Q1221.9531,1665.3594 1221.5156,1665.3594 Q1221.125,1665.3594 1220.875,1665.125 Q1220.625,1664.9063 1220.5156,1664.2969 Q1220.4531,1663.875 1220.2344,1663.6563 Q1219.8438,1663.2188 1219.125,1662.9531 Q1218.4063,1662.6875 1217.6875,1662.6875 Q1216.7813,1662.6875 1216.0313,1663.0781 Q1215.2813,1663.4688 1214.7031,1664.3594 Q1214.125,1665.2344 1214.125,1666.4375 L1214.125,1667.7344 Q1214.125,1669.1875 1215.1719,1670.1563 Q1216.2344,1671.125 1218.0938,1671.125 Q1219.2031,1671.125 1219.9844,1670.8125 Q1220.4219,1670.6406 1220.9375,1670.125 Q1221.25,1669.8125 1221.4219,1669.7188 Q1221.5938,1669.625 1221.8281,1669.625 Q1222.2188,1669.625 1222.5156,1669.9375 Q1222.8281,1670.2344 1222.8281,1670.6406 Q1222.8281,1671.0469 1222.4219,1671.5156 Q1221.8281,1672.2031 1220.8906,1672.5938 Q1219.625,1673.125 1218.1094,1673.125 Q1216.3281,1673.125 1214.9063,1672.3906 Q1213.75,1671.7969 1212.9375,1670.5313 Q1212.125,1669.2656 1212.125,1667.7813 L1212.125,1666.4219 Q1212.125,1664.8594 1212.8438,1663.5156 Q1213.5781,1662.1563 1214.8594,1661.4219 Q1216.1563,1660.6875 1217.6094,1660.6875 Q1218.4688,1660.6875 1219.2188,1660.8906 Q1219.9844,1661.0938 1220.6406,1661.5 Z " fill="#000000"/><text fill="#000000" font-family="sans-serif" font-size="20" lengthAdjust="spacing" textLength="73" x="1240.5" y="1674.7617">Address</text><line style="stroke:#4169E1;stroke-width:0.5;" x1="1076" x2="1443" y1="1684.1563" y2="1684.1563"/><rect fill="none" height="6" style="stroke:#C82930;stroke-width:1.0;" width="6" x="1083" y="1699.2344"/><text fill="#000000" font-family="sans-serif" font-size="20" lengthAdjust="spacing" textLength="108" x="1096" y="1708.918">String street</text><rect fill="none" height="6" style="stroke:#C82930;stroke-width:1.0;" width="6" x="1083" y="1724.3906"/><text fill="#000000" font-family="sans-serif" font-size="20" lengthAdjust="spacing" textLength="87" x="1096" y="1734.0742">String city</text><rect fill="none" height="6" style="stroke:#C82930;stroke-width:1.0;" width="6" x="1083" y="1749.5469"/><text fill="#000000" font-family="sans-serif" font-size="20" lengthAdjust="spacing" textLength="101" x="1096" y="1759.2305">String state</text><rect fill="none" height="6" style="stroke:#C82930;stroke-width:1.0;" width="6" x="1083" y="1774.7031"/><text fill="#000000" font-family="sans-serif" font-size="20" lengthAdjust="spacing" textLength="93" x="1096" y="1784.3867">int zipcode</text><rect fill="none" height="6" style="stroke:#C82930;stroke-width:1.0;" width="6" x="1083" y="1799.8594"/><text fill="#000000" font-family="sans-serif" font-size="20" lengthAdjust="spacing" textLength="115" x="1096" y="1809.543">String district</text><line style="stroke:#4169E1;stroke-width:0.5;" x1="1076" x2="1443" y1="1817.9375" y2="1817.9375"/><ellipse cx="1086" cy="1836.0156" fill="#84BE84" rx="3" ry="3" style="stroke:#038048;stroke-width:1.0;"/><text fill="#000000" font-family="sans-serif" font-size="20" lengthAdjust="spacing" textLength="342" x="1096" y="1842.6992">setAddress(street, city, state, zipcode)</text><ellipse cx="1086" cy="1861.1719" fill="#84BE84" rx="3" ry="3" style="stroke:#038048;stroke-width:1.0;"/><text fill="#000000" font-family="sans-serif" font-size="20" lengthAdjust="spacing" textLength="115" x="1096" y="1867.8555">getAddress()</text></g><!--class Person--><g id="elem_Person"><rect codeLine="51" fill="#FFDAB9" height="277.5625" id="Person" rx="2.5" ry="2.5" style="stroke:#4169E1;stroke-width:0.5;" width="872" x="621.5" y="1310"/><ellipse cx="1022" cy="1327.5781" fill="#ADD1B2" rx="12" ry="12" style="stroke:#181818;stroke-width:1.0;"/><path d="M1024.1406,1322.5 Q1024.3281,1322.25 1024.5469,1322.125 Q1024.7656,1321.9844 1025.0156,1321.9844 Q1025.4531,1321.9844 1025.7344,1322.2969 Q1026.0156,1322.5938 1026.0156,1323.3125 L1026.0156,1325.0156 Q1026.0156,1325.7344 1025.7344,1326.0469 Q1025.4531,1326.3594 1025.0156,1326.3594 Q1024.625,1326.3594 1024.375,1326.125 Q1024.125,1325.9063 1024.0156,1325.2969 Q1023.9531,1324.875 1023.7344,1324.6563 Q1023.3438,1324.2188 1022.625,1323.9531 Q1021.9063,1323.6875 1021.1875,1323.6875 Q1020.2813,1323.6875 1019.5313,1324.0781 Q1018.7813,1324.4688 1018.2031,1325.3594 Q1017.625,1326.2344 1017.625,1327.4375 L1017.625,1328.7344 Q1017.625,1330.1875 1018.6719,1331.1563 Q1019.7344,1332.125 1021.5938,1332.125 Q1022.7031,1332.125 1023.4844,1331.8125 Q1023.9219,1331.6406 1024.4375,1331.125 Q1024.75,1330.8125 1024.9219,1330.7188 Q1025.0938,1330.625 1025.3281,1330.625 Q1025.7188,1330.625 1026.0156,1330.9375 Q1026.3281,1331.2344 1026.3281,1331.6406 Q1026.3281,1332.0469 1025.9219,1332.5156 Q1025.3281,1333.2031 1024.3906,1333.5938 Q1023.125,1334.125 1021.6094,1334.125 Q1019.8281,1334.125 1018.4063,1333.3906 Q1017.25,1332.7969 1016.4375,1331.5313 Q1015.625,1330.2656 1015.625,1328.7813 L1015.625,1327.4219 Q1015.625,1325.8594 1016.3438,1324.5156 Q1017.0781,1323.1563 1018.3594,1322.4219 Q1019.6563,1321.6875 1021.1094,1321.6875 Q1021.9688,1321.6875 1022.7188,1321.8906 Q1023.4844,1322.0938 1024.1406,1322.5 Z " fill="#000000"/><text fill="#000000" font-family="sans-serif" font-size="20" lengthAdjust="spacing" textLength="62" x="1044" y="1335.7617">Person</text><line style="stroke:#4169E1;stroke-width:0.5;" x1="622.5" x2="1492.5" y1="1345.1563" y2="1345.1563"/><rect fill="none" height="6" style="stroke:#C82930;stroke-width:1.0;" width="6" x="629.5" y="1360.2344"/><text fill="#000000" font-family="sans-serif" font-size="20" lengthAdjust="spacing" textLength="105" x="642.5" y="1369.918">String name</text><rect fill="none" height="6" style="stroke:#C82930;stroke-width:1.0;" width="6" x="629.5" y="1385.3906"/><text fill="#000000" font-family="sans-serif" font-size="20" lengthAdjust="spacing" textLength="171" x="642.5" y="1395.0742">int passportNumber</text><rect fill="none" height="6" style="stroke:#C82930;stroke-width:1.0;" width="6" x="629.5" y="1410.5469"/><text fill="#000000" font-family="sans-serif" font-size="20" lengthAdjust="spacing" textLength="120" x="642.5" y="1420.2305">int taxNumber</text><rect fill="none" height="6" style="stroke:#C82930;stroke-width:1.0;" width="6" x="629.5" y="1435.7031"/><text fill="#000000" font-family="sans-serif" font-size="20" lengthAdjust="spacing" textLength="147" x="642.5" y="1445.3867">int phoneNumber</text><rect fill="none" height="6" style="stroke:#C82930;stroke-width:1.0;" width="6" x="629.5" y="1460.8594"/><text fill="#000000" font-family="sans-serif" font-size="20" lengthAdjust="spacing" textLength="173" x="642.5" y="1470.543">Email emailAddress</text><rect fill="none" height="6" style="stroke:#C82930;stroke-width:1.0;" width="6" x="629.5" y="1486.0156"/><text fill="#000000" font-family="sans-serif" font-size="20" lengthAdjust="spacing" textLength="94" x="642.5" y="1495.6992">String pwd</text><rect fill="none" height="6" style="stroke:#C82930;stroke-width:1.0;" width="6" x="629.5" y="1511.1719"/><text fill="#000000" font-family="sans-serif" font-size="20" lengthAdjust="spacing" textLength="107" x="642.5" y="1520.8555">String roleId</text><rect fill="none" height="6" style="stroke:#C82930;stroke-width:1.0;" width="6" x="629.5" y="1536.3281"/><text fill="#000000" font-family="sans-serif" font-size="20" lengthAdjust="spacing" textLength="150" x="642.5" y="1546.0117">Address address</text><line style="stroke:#4169E1;stroke-width:0.5;" x1="622.5" x2="1492.5" y1="1554.4063" y2="1554.4063"/><ellipse cx="632.5" cy="1572.4844" fill="#84BE84" rx="3" ry="3" style="stroke:#038048;stroke-width:1.0;"/><text fill="#000000" font-family="sans-serif" font-size="20" lengthAdjust="spacing" textLength="845" x="642.5" y="1579.168">Person(name, passportNumber, taxNumber, phoneNumber, emailAddress, pwd, roleId, address)</text></g><!--class Repositories--><g id="elem_Repositories"><rect codeLine="63" fill="#FFDAB9" height="126.625" id="Repositories" rx="2.5" ry="2.5" style="stroke:#4169E1;stroke-width:0.5;" width="292" x="2011.5" y="332"/><ellipse cx="2098" cy="349.5781" fill="#ADD1B2" rx="12" ry="12" style="stroke:#181818;stroke-width:1.0;"/><path d="M2100.1406,344.5 Q2100.3281,344.25 2100.5469,344.125 Q2100.7656,343.9844 2101.0156,343.9844 Q2101.4531,343.9844 2101.7344,344.2969 Q2102.0156,344.5938 2102.0156,345.3125 L2102.0156,347.0156 Q2102.0156,347.7344 2101.7344,348.0469 Q2101.4531,348.3594 2101.0156,348.3594 Q2100.625,348.3594 2100.375,348.125 Q2100.125,347.9063 2100.0156,347.2969 Q2099.9531,346.875 2099.7344,346.6563 Q2099.3438,346.2188 2098.625,345.9531 Q2097.9063,345.6875 2097.1875,345.6875 Q2096.2813,345.6875 2095.5313,346.0781 Q2094.7813,346.4688 2094.2031,347.3594 Q2093.625,348.2344 2093.625,349.4375 L2093.625,350.7344 Q2093.625,352.1875 2094.6719,353.1563 Q2095.7344,354.125 2097.5938,354.125 Q2098.7031,354.125 2099.4844,353.8125 Q2099.9219,353.6406 2100.4375,353.125 Q2100.75,352.8125 2100.9219,352.7188 Q2101.0938,352.625 2101.3281,352.625 Q2101.7188,352.625 2102.0156,352.9375 Q2102.3281,353.2344 2102.3281,353.6406 Q2102.3281,354.0469 2101.9219,354.5156 Q2101.3281,355.2031 2100.3906,355.5938 Q2099.125,356.125 2097.6094,356.125 Q2095.8281,356.125 2094.4063,355.3906 Q2093.25,354.7969 2092.4375,353.5313 Q2091.625,352.2656 2091.625,350.7813 L2091.625,349.4219 Q2091.625,347.8594 2092.3438,346.5156 Q2093.0781,345.1563 2094.3594,344.4219 Q2095.6563,343.6875 2097.1094,343.6875 Q2097.9688,343.6875 2098.7188,343.8906 Q2099.4844,344.0938 2100.1406,344.5 Z " fill="#000000"/><text fill="#000000" font-family="sans-serif" font-size="20" lengthAdjust="spacing" textLength="110" x="2120" y="357.7617">Repositories</text><line style="stroke:#4169E1;stroke-width:0.5;" x1="2012.5" x2="2302.5" y1="367.1563" y2="367.1563"/><line style="stroke:#4169E1;stroke-width:0.5;" x1="2012.5" x2="2302.5" y1="375.1563" y2="375.1563"/><rect fill="#F24D5C" height="6" style="stroke:#C82930;stroke-width:1.0;" width="6" x="2019.5" y="390.2344"/><text fill="#000000" font-family="sans-serif" font-size="20" lengthAdjust="spacing" textLength="124" x="2032.5" y="399.918">Repositories()</text><ellipse cx="2022.5" cy="418.3906" fill="#84BE84" rx="3" ry="3" style="stroke:#038048;stroke-width:1.0;"/><text fill="#000000" font-family="sans-serif" font-size="20" lengthAdjust="spacing" textLength="244" x="2032.5" y="425.0742">getInstance() : Repositories</text><ellipse cx="2022.5" cy="443.5469" fill="#84BE84" rx="3" ry="3" style="stroke:#038048;stroke-width:1.0;"/><text fill="#000000" font-family="sans-serif" font-size="20" lengthAdjust="spacing" textLength="265" x="2032.5" y="450.2305">getAnnouncementRepository()</text></g><!--class Employee--><g id="elem_Employee"><rect codeLine="69" fill="#FFDAB9" height="302.7188" id="Employee" rx="2.5" ry="2.5" style="stroke:#4169E1;stroke-width:0.5;" width="972" x="360.5" y="946"/><ellipse cx="798.5" cy="963.5781" fill="#ADD1B2" rx="12" ry="12" style="stroke:#181818;stroke-width:1.0;"/><path d="M800.6406,958.5 Q800.8281,958.25 801.0469,958.125 Q801.2656,957.9844 801.5156,957.9844 Q801.9531,957.9844 802.2344,958.2969 Q802.5156,958.5938 802.5156,959.3125 L802.5156,961.0156 Q802.5156,961.7344 802.2344,962.0469 Q801.9531,962.3594 801.5156,962.3594 Q801.125,962.3594 800.875,962.125 Q800.625,961.9063 800.5156,961.2969 Q800.4531,960.875 800.2344,960.6563 Q799.8438,960.2188 799.125,959.9531 Q798.4063,959.6875 797.6875,959.6875 Q796.7813,959.6875 796.0313,960.0781 Q795.2813,960.4688 794.7031,961.3594 Q794.125,962.2344 794.125,963.4375 L794.125,964.7344 Q794.125,966.1875 795.1719,967.1563 Q796.2344,968.125 798.0938,968.125 Q799.2031,968.125 799.9844,967.8125 Q800.4219,967.6406 800.9375,967.125 Q801.25,966.8125 801.4219,966.7188 Q801.5938,966.625 801.8281,966.625 Q802.2188,966.625 802.5156,966.9375 Q802.8281,967.2344 802.8281,967.6406 Q802.8281,968.0469 802.4219,968.5156 Q801.8281,969.2031 800.8906,969.5938 Q799.625,970.125 798.1094,970.125 Q796.3281,970.125 794.9063,969.3906 Q793.75,968.7969 792.9375,967.5313 Q792.125,966.2656 792.125,964.7813 L792.125,963.4219 Q792.125,961.8594 792.8438,960.5156 Q793.5781,959.1563 794.8594,958.4219 Q796.1563,957.6875 797.6094,957.6875 Q798.4688,957.6875 799.2188,957.8906 Q799.9844,958.0938 800.6406,958.5 Z " fill="#000000"/><text fill="#000000" font-family="sans-serif" font-size="20" lengthAdjust="spacing" textLength="87" x="820.5" y="971.7617">Employee</text><line style="stroke:#4169E1;stroke-width:0.5;" x1="361.5" x2="1331.5" y1="981.1563" y2="981.1563"/><rect fill="none" height="6" style="stroke:#C82930;stroke-width:1.0;" width="6" x="368.5" y="996.2344"/><text fill="#000000" font-family="sans-serif" font-size="20" lengthAdjust="spacing" textLength="105" x="381.5" y="1005.918">String name</text><rect fill="none" height="6" style="stroke:#C82930;stroke-width:1.0;" width="6" x="368.5" y="1021.3906"/><text fill="#000000" font-family="sans-serif" font-size="20" lengthAdjust="spacing" textLength="171" x="381.5" y="1031.0742">int passportNumber</text><rect fill="none" height="6" style="stroke:#C82930;stroke-width:1.0;" width="6" x="368.5" y="1046.5469"/><text fill="#000000" font-family="sans-serif" font-size="20" lengthAdjust="spacing" textLength="120" x="381.5" y="1056.2305">int taxNumber</text><rect fill="none" height="6" style="stroke:#C82930;stroke-width:1.0;" width="6" x="368.5" y="1071.7031"/><text fill="#000000" font-family="sans-serif" font-size="20" lengthAdjust="spacing" textLength="147" x="381.5" y="1081.3867">int phoneNumber</text><rect fill="none" height="6" style="stroke:#C82930;stroke-width:1.0;" width="6" x="368.5" y="1096.8594"/><text fill="#000000" font-family="sans-serif" font-size="20" lengthAdjust="spacing" textLength="173" x="381.5" y="1106.543">Email emailAddress</text><rect fill="none" height="6" style="stroke:#C82930;stroke-width:1.0;" width="6" x="368.5" y="1122.0156"/><text fill="#000000" font-family="sans-serif" font-size="20" lengthAdjust="spacing" textLength="94" x="381.5" y="1131.6992">String pwd</text><rect fill="none" height="6" style="stroke:#C82930;stroke-width:1.0;" width="6" x="368.5" y="1147.1719"/><text fill="#000000" font-family="sans-serif" font-size="20" lengthAdjust="spacing" textLength="107" x="381.5" y="1156.8555">String roleId</text><rect fill="none" height="6" style="stroke:#C82930;stroke-width:1.0;" width="6" x="368.5" y="1172.3281"/><text fill="#000000" font-family="sans-serif" font-size="20" lengthAdjust="spacing" textLength="150" x="381.5" y="1182.0117">Address address</text><rect fill="none" height="6" style="stroke:#C82930;stroke-width:1.0;" width="6" x="368.5" y="1197.4844"/><text fill="#000000" font-family="sans-serif" font-size="20" lengthAdjust="spacing" textLength="134" x="381.5" y="1207.168">Agency agency</text><line style="stroke:#4169E1;stroke-width:0.5;" x1="361.5" x2="1331.5" y1="1215.5625" y2="1215.5625"/><ellipse cx="371.5" cy="1233.6406" fill="#84BE84" rx="3" ry="3" style="stroke:#038048;stroke-width:1.0;"/><text fill="#000000" font-family="sans-serif" font-size="20" lengthAdjust="spacing" textLength="945" x="381.5" y="1240.3242">Employee(name, passportNumber, taxNumber, phoneNumber, emailAddress, pwd, roleId, address, agency)</text></g><!--class Agency--><g id="elem_Agency"><rect codeLine="82" fill="#FFDAB9" height="202.0938" id="Agency" rx="2.5" ry="2.5" style="stroke:#4169E1;stroke-width:0.5;" width="579" x="7" y="1348"/><ellipse cx="259.5" cy="1365.5781" fill="#ADD1B2" rx="12" ry="12" style="stroke:#181818;stroke-width:1.0;"/><path d="M261.6406,1360.5 Q261.8281,1360.25 262.0469,1360.125 Q262.2656,1359.9844 262.5156,1359.9844 Q262.9531,1359.9844 263.2344,1360.2969 Q263.5156,1360.5938 263.5156,1361.3125 L263.5156,1363.0156 Q263.5156,1363.7344 263.2344,1364.0469 Q262.9531,1364.3594 262.5156,1364.3594 Q262.125,1364.3594 261.875,1364.125 Q261.625,1363.9063 261.5156,1363.2969 Q261.4531,1362.875 261.2344,1362.6563 Q260.8438,1362.2188 260.125,1361.9531 Q259.4063,1361.6875 258.6875,1361.6875 Q257.7813,1361.6875 257.0313,1362.0781 Q256.2813,1362.4688 255.7031,1363.3594 Q255.125,1364.2344 255.125,1365.4375 L255.125,1366.7344 Q255.125,1368.1875 256.1719,1369.1563 Q257.2344,1370.125 259.0938,1370.125 Q260.2031,1370.125 260.9844,1369.8125 Q261.4219,1369.6406 261.9375,1369.125 Q262.25,1368.8125 262.4219,1368.7188 Q262.5938,1368.625 262.8281,1368.625 Q263.2188,1368.625 263.5156,1368.9375 Q263.8281,1369.2344 263.8281,1369.6406 Q263.8281,1370.0469 263.4219,1370.5156 Q262.8281,1371.2031 261.8906,1371.5938 Q260.625,1372.125 259.1094,1372.125 Q257.3281,1372.125 255.9063,1371.3906 Q254.75,1370.7969 253.9375,1369.5313 Q253.125,1368.2656 253.125,1366.7813 L253.125,1365.4219 Q253.125,1363.8594 253.8438,1362.5156 Q254.5781,1361.1563 255.8594,1360.4219 Q257.1563,1359.6875 258.6094,1359.6875 Q259.4688,1359.6875 260.2188,1359.8906 Q260.9844,1360.0938 261.6406,1360.5 Z " fill="#000000"/><text fill="#000000" font-family="sans-serif" font-size="20" lengthAdjust="spacing" textLength="65" x="281.5" y="1373.7617">Agency</text><line style="stroke:#4169E1;stroke-width:0.5;" x1="8" x2="585" y1="1383.1563" y2="1383.1563"/><rect fill="none" height="6" style="stroke:#C82930;stroke-width:1.0;" width="6" x="15" y="1398.2344"/><text fill="#000000" font-family="sans-serif" font-size="20" lengthAdjust="spacing" textLength="72" x="28" y="1407.918">String id</text><rect fill="none" height="6" style="stroke:#C82930;stroke-width:1.0;" width="6" x="15" y="1423.3906"/><text fill="#000000" font-family="sans-serif" font-size="20" lengthAdjust="spacing" textLength="150" x="28" y="1433.0742">Address address</text><rect fill="none" height="6" style="stroke:#C82930;stroke-width:1.0;" width="6" x="15" y="1448.5469"/><text fill="#000000" font-family="sans-serif" font-size="20" lengthAdjust="spacing" textLength="156" x="28" y="1458.2305">String designation</text><rect fill="none" height="6" style="stroke:#C82930;stroke-width:1.0;" width="6" x="15" y="1473.7031"/><text fill="#000000" font-family="sans-serif" font-size="20" lengthAdjust="spacing" textLength="178" x="28" y="1483.3867">String phoneNumber</text><rect fill="none" height="6" style="stroke:#C82930;stroke-width:1.0;" width="6" x="15" y="1498.8594"/><text fill="#000000" font-family="sans-serif" font-size="20" lengthAdjust="spacing" textLength="173" x="28" y="1508.543">Email emailAddress</text><line style="stroke:#4169E1;stroke-width:0.5;" x1="8" x2="585" y1="1516.9375" y2="1516.9375"/><ellipse cx="18" cy="1535.0156" fill="#84BE84" rx="3" ry="3" style="stroke:#038048;stroke-width:1.0;"/><text fill="#000000" font-family="sans-serif" font-size="20" lengthAdjust="spacing" textLength="552" x="28" y="1541.6992">Agency(id, address, designation, phoneNumber, emailAddress)</text></g><!--class Email--><g id="elem_Email"><rect codeLine="91" fill="#FFDAB9" height="101.4688" id="Email" rx="2.5" ry="2.5" style="stroke:#4169E1;stroke-width:0.5;" width="135" x="787" y="1712"/><ellipse cx="826.85" cy="1729.5781" fill="#ADD1B2" rx="12" ry="12" style="stroke:#181818;stroke-width:1.0;"/><path d="M828.9906,1724.5 Q829.1781,1724.25 829.3969,1724.125 Q829.6156,1723.9844 829.8656,1723.9844 Q830.3031,1723.9844 830.5844,1724.2969 Q830.8656,1724.5938 830.8656,1725.3125 L830.8656,1727.0156 Q830.8656,1727.7344 830.5844,1728.0469 Q830.3031,1728.3594 829.8656,1728.3594 Q829.475,1728.3594 829.225,1728.125 Q828.975,1727.9063 828.8656,1727.2969 Q828.8031,1726.875 828.5844,1726.6563 Q828.1938,1726.2188 827.475,1725.9531 Q826.7563,1725.6875 826.0375,1725.6875 Q825.1313,1725.6875 824.3813,1726.0781 Q823.6313,1726.4688 823.0531,1727.3594 Q822.475,1728.2344 822.475,1729.4375 L822.475,1730.7344 Q822.475,1732.1875 823.5219,1733.1563 Q824.5844,1734.125 826.4438,1734.125 Q827.5531,1734.125 828.3344,1733.8125 Q828.7719,1733.6406 829.2875,1733.125 Q829.6,1732.8125 829.7719,1732.7188 Q829.9438,1732.625 830.1781,1732.625 Q830.5688,1732.625 830.8656,1732.9375 Q831.1781,1733.2344 831.1781,1733.6406 Q831.1781,1734.0469 830.7719,1734.5156 Q830.1781,1735.2031 829.2406,1735.5938 Q827.975,1736.125 826.4594,1736.125 Q824.6781,1736.125 823.2563,1735.3906 Q822.1,1734.7969 821.2875,1733.5313 Q820.475,1732.2656 820.475,1730.7813 L820.475,1729.4219 Q820.475,1727.8594 821.1938,1726.5156 Q821.9281,1725.1563 823.2094,1724.4219 Q824.5063,1723.6875 825.9594,1723.6875 Q826.8188,1723.6875 827.5688,1723.8906 Q828.3344,1724.0938 828.9906,1724.5 Z " fill="#000000"/><text fill="#000000" font-family="sans-serif" font-size="20" lengthAdjust="spacing" textLength="48" x="847.15" y="1737.7617">Email</text><line style="stroke:#4169E1;stroke-width:0.5;" x1="788" x2="921" y1="1747.1563" y2="1747.1563"/><rect fill="none" height="6" style="stroke:#C82930;stroke-width:1.0;" width="6" x="795" y="1762.2344"/><text fill="#000000" font-family="sans-serif" font-size="20" lengthAdjust="spacing" textLength="103" x="808" y="1771.918">String email</text><line style="stroke:#4169E1;stroke-width:0.5;" x1="788" x2="921" y1="1780.3125" y2="1780.3125"/><ellipse cx="798" cy="1798.3906" fill="#84BE84" rx="3" ry="3" style="stroke:#038048;stroke-width:1.0;"/><text fill="#000000" font-family="sans-serif" font-size="20" lengthAdjust="spacing" textLength="108" x="808" y="1805.0742">Email(email)</text></g><!--class AnnouncementUI--><g id="elem_AnnouncementUI"><rect codeLine="96" fill="#FFDAB9" height="51.1563" id="AnnouncementUI" rx="2.5" ry="2.5" style="stroke:#4169E1;stroke-width:0.5;" width="181" x="1871" y="7"/><ellipse cx="1887" cy="24.5781" fill="#ADD1B2" rx="12" ry="12" style="stroke:#181818;stroke-width:1.0;"/><path d="M1889.1406,19.5 Q1889.3281,19.25 1889.5469,19.125 Q1889.7656,18.9844 1890.0156,18.9844 Q1890.4531,18.9844 1890.7344,19.2969 Q1891.0156,19.5938 1891.0156,20.3125 L1891.0156,22.0156 Q1891.0156,22.7344 1890.7344,23.0469 Q1890.4531,23.3594 1890.0156,23.3594 Q1889.625,23.3594 1889.375,23.125 Q1889.125,22.9063 1889.0156,22.2969 Q1888.9531,21.875 1888.7344,21.6563 Q1888.3438,21.2188 1887.625,20.9531 Q1886.9063,20.6875 1886.1875,20.6875 Q1885.2813,20.6875 1884.5313,21.0781 Q1883.7813,21.4688 1883.2031,22.3594 Q1882.625,23.2344 1882.625,24.4375 L1882.625,25.7344 Q1882.625,27.1875 1883.6719,28.1563 Q1884.7344,29.125 1886.5938,29.125 Q1887.7031,29.125 1888.4844,28.8125 Q1888.9219,28.6406 1889.4375,28.125 Q1889.75,27.8125 1889.9219,27.7188 Q1890.0938,27.625 1890.3281,27.625 Q1890.7188,27.625 1891.0156,27.9375 Q1891.3281,28.2344 1891.3281,28.6406 Q1891.3281,29.0469 1890.9219,29.5156 Q1890.3281,30.2031 1889.3906,30.5938 Q1888.125,31.125 1886.6094,31.125 Q1884.8281,31.125 1883.4063,30.3906 Q1882.25,29.7969 1881.4375,28.5313 Q1880.625,27.2656 1880.625,25.7813 L1880.625,24.4219 Q1880.625,22.8594 1881.3438,21.5156 Q1882.0781,20.1563 1883.3594,19.4219 Q1884.6563,18.6875 1886.1094,18.6875 Q1886.9688,18.6875 1887.7188,18.8906 Q1888.4844,19.0938 1889.1406,19.5 Z " fill="#000000"/><text fill="#000000" font-family="sans-serif" font-size="20" lengthAdjust="spacing" textLength="147" x="1902" y="32.7617">AnnouncementUI</text><line style="stroke:#4169E1;stroke-width:0.5;" x1="1872" x2="2051" y1="42.1563" y2="42.1563"/><line style="stroke:#4169E1;stroke-width:0.5;" x1="1872" x2="2051" y1="50.1563" y2="50.1563"/></g><!--class AnnouncementController--><g id="elem_AnnouncementController"><rect codeLine="99" fill="#FFDAB9" height="151.7813" id="AnnouncementController" rx="2.5" ry="2.5" style="stroke:#4169E1;stroke-width:0.5;" width="600" x="1661.5" y="119"/><ellipse cx="1850.5" cy="136.5781" fill="#ADD1B2" rx="12" ry="12" style="stroke:#181818;stroke-width:1.0;"/><path d="M1852.6406,131.5 Q1852.8281,131.25 1853.0469,131.125 Q1853.2656,130.9844 1853.5156,130.9844 Q1853.9531,130.9844 1854.2344,131.2969 Q1854.5156,131.5938 1854.5156,132.3125 L1854.5156,134.0156 Q1854.5156,134.7344 1854.2344,135.0469 Q1853.9531,135.3594 1853.5156,135.3594 Q1853.125,135.3594 1852.875,135.125 Q1852.625,134.9063 1852.5156,134.2969 Q1852.4531,133.875 1852.2344,133.6563 Q1851.8438,133.2188 1851.125,132.9531 Q1850.4063,132.6875 1849.6875,132.6875 Q1848.7813,132.6875 1848.0313,133.0781 Q1847.2813,133.4688 1846.7031,134.3594 Q1846.125,135.2344 1846.125,136.4375 L1846.125,137.7344 Q1846.125,139.1875 1847.1719,140.1563 Q1848.2344,141.125 1850.0938,141.125 Q1851.2031,141.125 1851.9844,140.8125 Q1852.4219,140.6406 1852.9375,140.125 Q1853.25,139.8125 1853.4219,139.7188 Q1853.5938,139.625 1853.8281,139.625 Q1854.2188,139.625 1854.5156,139.9375 Q1854.8281,140.2344 1854.8281,140.6406 Q1854.8281,141.0469 1854.4219,141.5156 Q1853.8281,142.2031 1852.8906,142.5938 Q1851.625,143.125 1850.1094,143.125 Q1848.3281,143.125 1846.9063,142.3906 Q1845.75,141.7969 1844.9375,140.5313 Q1844.125,139.2656 1844.125,137.7813 L1844.125,136.4219 Q1844.125,134.8594 1844.8438,133.5156 Q1845.5781,132.1563 1846.8594,131.4219 Q1848.1563,130.6875 1849.6094,130.6875 Q1850.4688,130.6875 1851.2188,130.8906 Q1851.9844,131.0938 1852.6406,131.5 Z " fill="#000000"/><text fill="#000000" font-family="sans-serif" font-size="20" lengthAdjust="spacing" textLength="213" x="1872.5" y="144.7617">AnnouncementController</text><line style="stroke:#4169E1;stroke-width:0.5;" x1="1662.5" x2="2260.5" y1="154.1563" y2="154.1563"/><line style="stroke:#4169E1;stroke-width:0.5;" x1="1662.5" x2="2260.5" y1="162.1563" y2="162.1563"/><ellipse cx="1672.5" cy="180.2344" fill="#84BE84" rx="3" ry="3" style="stroke:#038048;stroke-width:1.0;"/><text fill="#000000" font-family="sans-serif" font-size="20" lengthAdjust="spacing" textLength="214" x="1682.5" y="186.918">getEmployeeInSession()</text><ellipse cx="1672.5" cy="205.3906" fill="#84BE84" rx="3" ry="3" style="stroke:#038048;stroke-width:1.0;"/><text fill="#000000" font-family="sans-serif" font-size="20" lengthAdjust="spacing" textLength="122" x="1682.5" y="212.0742">getClientList()</text><ellipse cx="1672.5" cy="230.5469" fill="#84BE84" rx="3" ry="3" style="stroke:#038048;stroke-width:1.0;"/><text fill="#000000" font-family="sans-serif" font-size="20" lengthAdjust="spacing" textLength="573" x="1682.5" y="237.2305">publishAnnouncement(Request request, Commission commission)</text><ellipse cx="1672.5" cy="255.7031" fill="#84BE84" rx="3" ry="3" style="stroke:#038048;stroke-width:1.0;"/><text fill="#000000" font-family="sans-serif" font-size="20" lengthAdjust="spacing" textLength="201" x="1682.5" y="262.3867">getAnnouncementList()</text></g><!--class AnnouncementRepository--><g id="elem_AnnouncementRepository"><rect codeLine="106" fill="#FFDAB9" height="126.625" id="AnnouncementRepository" rx="2.5" ry="2.5" style="stroke:#4169E1;stroke-width:0.5;" width="362" x="1994.5" y="520"/><ellipse cx="2059.5" cy="537.5781" fill="#ADD1B2" rx="12" ry="12" style="stroke:#181818;stroke-width:1.0;"/><path d="M2061.6406,532.5 Q2061.8281,532.25 2062.0469,532.125 Q2062.2656,531.9844 2062.5156,531.9844 Q2062.9531,531.9844 2063.2344,532.2969 Q2063.5156,532.5938 2063.5156,533.3125 L2063.5156,535.0156 Q2063.5156,535.7344 2063.2344,536.0469 Q2062.9531,536.3594 2062.5156,536.3594 Q2062.125,536.3594 2061.875,536.125 Q2061.625,535.9063 2061.5156,535.2969 Q2061.4531,534.875 2061.2344,534.6563 Q2060.8438,534.2188 2060.125,533.9531 Q2059.4063,533.6875 2058.6875,533.6875 Q2057.7813,533.6875 2057.0313,534.0781 Q2056.2813,534.4688 2055.7031,535.3594 Q2055.125,536.2344 2055.125,537.4375 L2055.125,538.7344 Q2055.125,540.1875 2056.1719,541.1563 Q2057.2344,542.125 2059.0938,542.125 Q2060.2031,542.125 2060.9844,541.8125 Q2061.4219,541.6406 2061.9375,541.125 Q2062.25,540.8125 2062.4219,540.7188 Q2062.5938,540.625 2062.8281,540.625 Q2063.2188,540.625 2063.5156,540.9375 Q2063.8281,541.2344 2063.8281,541.6406 Q2063.8281,542.0469 2063.4219,542.5156 Q2062.8281,543.2031 2061.8906,543.5938 Q2060.625,544.125 2059.1094,544.125 Q2057.3281,544.125 2055.9063,543.3906 Q2054.75,542.7969 2053.9375,541.5313 Q2053.125,540.2656 2053.125,538.7813 L2053.125,537.4219 Q2053.125,535.8594 2053.8438,534.5156 Q2054.5781,533.1563 2055.8594,532.4219 Q2057.1563,531.6875 2058.6094,531.6875 Q2059.4688,531.6875 2060.2188,531.8906 Q2060.9844,532.0938 2061.6406,532.5 Z " fill="#000000"/><text fill="#000000" font-family="sans-serif" font-size="20" lengthAdjust="spacing" textLength="223" x="2081.5" y="545.7617">AnnouncementRepository</text><line style="stroke:#4169E1;stroke-width:0.5;" x1="1995.5" x2="2355.5" y1="555.1563" y2="555.1563"/><line style="stroke:#4169E1;stroke-width:0.5;" x1="1995.5" x2="2355.5" y1="563.1563" y2="563.1563"/><ellipse cx="2005.5" cy="581.2344" fill="#84BE84" rx="3" ry="3" style="stroke:#038048;stroke-width:1.0;"/><text fill="#000000" font-family="sans-serif" font-size="20" lengthAdjust="spacing" textLength="309" x="2015.5" y="587.918">saveAnnouncement(announcement)</text><ellipse cx="2005.5" cy="606.3906" fill="#84BE84" rx="3" ry="3" style="stroke:#038048;stroke-width:1.0;"/><text fill="#000000" font-family="sans-serif" font-size="20" lengthAdjust="spacing" textLength="335" x="2015.5" y="613.0742">validateAnnouncement(announcement)</text><ellipse cx="2005.5" cy="631.5469" fill="#84BE84" rx="3" ry="3" style="stroke:#038048;stroke-width:1.0;"/><text fill="#000000" font-family="sans-serif" font-size="20" lengthAdjust="spacing" textLength="201" x="2015.5" y="638.2305">getAnnouncementList()</text></g><!--class Announcement--><g id="elem_Announcement"><rect codeLine="114" fill="#FFDAB9" height="176.9375" id="Announcement" rx="2.5" ry="2.5" style="stroke:#4169E1;stroke-width:0.5;" width="400" x="1761.5" y="708"/><ellipse cx="1893" cy="725.5781" fill="#ADD1B2" rx="12" ry="12" style="stroke:#181818;stroke-width:1.0;"/><path d="M1895.1406,720.5 Q1895.3281,720.25 1895.5469,720.125 Q1895.7656,719.9844 1896.0156,719.9844 Q1896.4531,719.9844 1896.7344,720.2969 Q1897.0156,720.5938 1897.0156,721.3125 L1897.0156,723.0156 Q1897.0156,723.7344 1896.7344,724.0469 Q1896.4531,724.3594 1896.0156,724.3594 Q1895.625,724.3594 1895.375,724.125 Q1895.125,723.9063 1895.0156,723.2969 Q1894.9531,722.875 1894.7344,722.6563 Q1894.3438,722.2188 1893.625,721.9531 Q1892.9063,721.6875 1892.1875,721.6875 Q1891.2813,721.6875 1890.5313,722.0781 Q1889.7813,722.4688 1889.2031,723.3594 Q1888.625,724.2344 1888.625,725.4375 L1888.625,726.7344 Q1888.625,728.1875 1889.6719,729.1563 Q1890.7344,730.125 1892.5938,730.125 Q1893.7031,730.125 1894.4844,729.8125 Q1894.9219,729.6406 1895.4375,729.125 Q1895.75,728.8125 1895.9219,728.7188 Q1896.0938,728.625 1896.3281,728.625 Q1896.7188,728.625 1897.0156,728.9375 Q1897.3281,729.2344 1897.3281,729.6406 Q1897.3281,730.0469 1896.9219,730.5156 Q1896.3281,731.2031 1895.3906,731.5938 Q1894.125,732.125 1892.6094,732.125 Q1890.8281,732.125 1889.4063,731.3906 Q1888.25,730.7969 1887.4375,729.5313 Q1886.625,728.2656 1886.625,726.7813 L1886.625,725.4219 Q1886.625,723.8594 1887.3438,722.5156 Q1888.0781,721.1563 1889.3594,720.4219 Q1890.6563,719.6875 1892.1094,719.6875 Q1892.9688,719.6875 1893.7188,719.8906 Q1894.4844,720.0938 1895.1406,720.5 Z " fill="#000000"/><text fill="#000000" font-family="sans-serif" font-size="20" lengthAdjust="spacing" textLength="128" x="1915" y="733.7617">Announcement</text><line style="stroke:#4169E1;stroke-width:0.5;" x1="1762.5" x2="2160.5" y1="743.1563" y2="743.1563"/><rect fill="none" height="6" style="stroke:#C82930;stroke-width:1.0;" width="6" x="1769.5" y="758.2344"/><text fill="#000000" font-family="sans-serif" font-size="20" lengthAdjust="spacing" textLength="145" x="1782.5" y="767.918">Request request</text><rect fill="none" height="6" style="stroke:#C82930;stroke-width:1.0;" width="6" x="1769.5" y="783.3906"/><text fill="#000000" font-family="sans-serif" font-size="20" lengthAdjust="spacing" textLength="214" x="1782.5" y="793.0742">Commission commission</text><rect fill="none" height="6" style="stroke:#C82930;stroke-width:1.0;" width="6" x="1769.5" y="808.5469"/><text fill="#000000" font-family="sans-serif" font-size="20" lengthAdjust="spacing" textLength="87" x="1782.5" y="818.2305">Date date</text><rect fill="none" height="6" style="stroke:#C82930;stroke-width:1.0;" width="6" x="1769.5" y="833.7031"/><text fill="#000000" font-family="sans-serif" font-size="20" lengthAdjust="spacing" textLength="170" x="1782.5" y="843.3867">List&lt;Order&gt; orders</text><line style="stroke:#4169E1;stroke-width:0.5;" x1="1762.5" x2="2160.5" y1="851.7813" y2="851.7813"/><ellipse cx="1772.5" cy="869.8594" fill="#84BE84" rx="3" ry="3" style="stroke:#038048;stroke-width:1.0;"/><text fill="#000000" font-family="sans-serif" font-size="20" lengthAdjust="spacing" textLength="373" x="1782.5" y="876.543">Announcement(request, commission, date)</text></g><!--class Request--><g id="elem_Request"><rect codeLine="122" fill="#FFDAB9" height="176.9375" id="Request" rx="2.5" ry="2.5" style="stroke:#4169E1;stroke-width:0.5;" width="453" x="1735" y="1009"/><ellipse cx="1920.5" cy="1026.5781" fill="#ADD1B2" rx="12" ry="12" style="stroke:#181818;stroke-width:1.0;"/><path d="M1922.6406,1021.5 Q1922.8281,1021.25 1923.0469,1021.125 Q1923.2656,1020.9844 1923.5156,1020.9844 Q1923.9531,1020.9844 1924.2344,1021.2969 Q1924.5156,1021.5938 1924.5156,1022.3125 L1924.5156,1024.0156 Q1924.5156,1024.7344 1924.2344,1025.0469 Q1923.9531,1025.3594 1923.5156,1025.3594 Q1923.125,1025.3594 1922.875,1025.125 Q1922.625,1024.9063 1922.5156,1024.2969 Q1922.4531,1023.875 1922.2344,1023.6563 Q1921.8438,1023.2188 1921.125,1022.9531 Q1920.4063,1022.6875 1919.6875,1022.6875 Q1918.7813,1022.6875 1918.0313,1023.0781 Q1917.2813,1023.4688 1916.7031,1024.3594 Q1916.125,1025.2344 1916.125,1026.4375 L1916.125,1027.7344 Q1916.125,1029.1875 1917.1719,1030.1563 Q1918.2344,1031.125 1920.0938,1031.125 Q1921.2031,1031.125 1921.9844,1030.8125 Q1922.4219,1030.6406 1922.9375,1030.125 Q1923.25,1029.8125 1923.4219,1029.7188 Q1923.5938,1029.625 1923.8281,1029.625 Q1924.2188,1029.625 1924.5156,1029.9375 Q1924.8281,1030.2344 1924.8281,1030.6406 Q1924.8281,1031.0469 1924.4219,1031.5156 Q1923.8281,1032.2031 1922.8906,1032.5938 Q1921.625,1033.125 1920.1094,1033.125 Q1918.3281,1033.125 1916.9063,1032.3906 Q1915.75,1031.7969 1914.9375,1030.5313 Q1914.125,1029.2656 1914.125,1027.7813 L1914.125,1026.4219 Q1914.125,1024.8594 1914.8438,1023.5156 Q1915.5781,1022.1563 1916.8594,1021.4219 Q1918.1563,1020.6875 1919.6094,1020.6875 Q1920.4688,1020.6875 1921.2188,1020.8906 Q1921.9844,1021.0938 1922.6406,1021.5 Z " fill="#000000"/><text fill="#000000" font-family="sans-serif" font-size="20" lengthAdjust="spacing" textLength="73" x="1942.5" y="1034.7617">Request</text><line style="stroke:#4169E1;stroke-width:0.5;" x1="1736" x2="2187" y1="1044.1563" y2="1044.1563"/><rect fill="none" height="6" style="stroke:#C82930;stroke-width:1.0;" width="6" x="1743" y="1059.2344"/><text fill="#000000" font-family="sans-serif" font-size="20" lengthAdjust="spacing" textLength="178" x="1756" y="1068.918">Employee employee</text><rect fill="none" height="6" style="stroke:#C82930;stroke-width:1.0;" width="6" x="1743" y="1084.3906"/><text fill="#000000" font-family="sans-serif" font-size="20" lengthAdjust="spacing" textLength="128" x="1756" y="1094.0742">Person person</text><rect fill="none" height="6" style="stroke:#C82930;stroke-width:1.0;" width="6" x="1743" y="1109.5469"/><text fill="#000000" font-family="sans-serif" font-size="20" lengthAdjust="spacing" textLength="156" x="1756" y="1119.2305">Property property</text><rect fill="none" height="6" style="stroke:#C82930;stroke-width:1.0;" width="6" x="1743" y="1134.7031"/><text fill="#000000" font-family="sans-serif" font-size="20" lengthAdjust="spacing" textLength="159" x="1756" y="1144.3867">boolean isPending</text><line style="stroke:#4169E1;stroke-width:0.5;" x1="1736" x2="2187" y1="1152.7813" y2="1152.7813"/><ellipse cx="1746" cy="1170.8594" fill="#84BE84" rx="3" ry="3" style="stroke:#038048;stroke-width:1.0;"/><text fill="#000000" font-family="sans-serif" font-size="20" lengthAdjust="spacing" textLength="426" x="1756" y="1177.543">Request(employee, person, property, isPending)</text></g><!--class Deal--><g id="elem_Deal"><rect codeLine="130" fill="#FFDAB9" height="126.625" id="Deal" rx="2.5" ry="2.5" style="stroke:#4169E1;stroke-width:0.5;" width="108" x="2345.5" y="1699"/><ellipse cx="2376.8" cy="1716.5781" fill="#ADD1B2" rx="12" ry="12" style="stroke:#181818;stroke-width:1.0;"/><path d="M2378.9406,1711.5 Q2379.1281,1711.25 2379.3469,1711.125 Q2379.5656,1710.9844 2379.8156,1710.9844 Q2380.2531,1710.9844 2380.5344,1711.2969 Q2380.8156,1711.5938 2380.8156,1712.3125 L2380.8156,1714.0156 Q2380.8156,1714.7344 2380.5344,1715.0469 Q2380.2531,1715.3594 2379.8156,1715.3594 Q2379.425,1715.3594 2379.175,1715.125 Q2378.925,1714.9063 2378.8156,1714.2969 Q2378.7531,1713.875 2378.5344,1713.6563 Q2378.1438,1713.2188 2377.425,1712.9531 Q2376.7063,1712.6875 2375.9875,1712.6875 Q2375.0813,1712.6875 2374.3313,1713.0781 Q2373.5813,1713.4688 2373.0031,1714.3594 Q2372.425,1715.2344 2372.425,1716.4375 L2372.425,1717.7344 Q2372.425,1719.1875 2373.4719,1720.1563 Q2374.5344,1721.125 2376.3938,1721.125 Q2377.5031,1721.125 2378.2844,1720.8125 Q2378.7219,1720.6406 2379.2375,1720.125 Q2379.55,1719.8125 2379.7219,1719.7188 Q2379.8938,1719.625 2380.1281,1719.625 Q2380.5188,1719.625 2380.8156,1719.9375 Q2381.1281,1720.2344 2381.1281,1720.6406 Q2381.1281,1721.0469 2380.7219,1721.5156 Q2380.1281,1722.2031 2379.1906,1722.5938 Q2377.925,1723.125 2376.4094,1723.125 Q2374.6281,1723.125 2373.2063,1722.3906 Q2372.05,1721.7969 2371.2375,1720.5313 Q2370.425,1719.2656 2370.425,1717.7813 L2370.425,1716.4219 Q2370.425,1714.8594 2371.1438,1713.5156 Q2371.8781,1712.1563 2373.1594,1711.4219 Q2374.4563,1710.6875 2375.9094,1710.6875 Q2376.7688,1710.6875 2377.5188,1710.8906 Q2378.2844,1711.0938 2378.9406,1711.5 Z " fill="#000000"/><text fill="#000000" font-family="sans-serif" font-size="20" lengthAdjust="spacing" textLength="40" x="2395.2" y="1724.7617">Deal</text><line style="stroke:#4169E1;stroke-width:0.5;" x1="2346.5" x2="2452.5" y1="1734.1563" y2="1734.1563"/><rect fill="none" height="6" style="stroke:#C82930;stroke-width:1.0;" width="6" x="2353.5" y="1749.2344"/><text fill="#000000" font-family="sans-serif" font-size="20" lengthAdjust="spacing" textLength="81" x="2366.5" y="1758.918">Rent rent</text><rect fill="none" height="6" style="stroke:#C82930;stroke-width:1.0;" width="6" x="2353.5" y="1774.3906"/><text fill="#000000" font-family="sans-serif" font-size="20" lengthAdjust="spacing" textLength="81" x="2366.5" y="1784.0742">Sale sale</text><line style="stroke:#4169E1;stroke-width:0.5;" x1="2346.5" x2="2452.5" y1="1792.4688" y2="1792.4688"/><ellipse cx="2356.5" cy="1810.5469" fill="#84BE84" rx="3" ry="3" style="stroke:#038048;stroke-width:1.0;"/><text fill="#000000" font-family="sans-serif" font-size="20" lengthAdjust="spacing" textLength="54" x="2366.5" y="1817.2305">Deal()</text></g><!--class Rent--><g id="elem_Rent"><rect codeLine="136" fill="#FFDAB9" height="126.625" id="Rent" rx="2.5" ry="2.5" style="stroke:#4169E1;stroke-width:0.5;" width="197" x="2164" y="1937"/><ellipse cx="2237.5" cy="1954.5781" fill="#ADD1B2" rx="12" ry="12" style="stroke:#181818;stroke-width:1.0;"/><path d="M2239.6406,1949.5 Q2239.8281,1949.25 2240.0469,1949.125 Q2240.2656,1948.9844 2240.5156,1948.9844 Q2240.9531,1948.9844 2241.2344,1949.2969 Q2241.5156,1949.5938 2241.5156,1950.3125 L2241.5156,1952.0156 Q2241.5156,1952.7344 2241.2344,1953.0469 Q2240.9531,1953.3594 2240.5156,1953.3594 Q2240.125,1953.3594 2239.875,1953.125 Q2239.625,1952.9063 2239.5156,1952.2969 Q2239.4531,1951.875 2239.2344,1951.6563 Q2238.8438,1951.2188 2238.125,1950.9531 Q2237.4063,1950.6875 2236.6875,1950.6875 Q2235.7813,1950.6875 2235.0313,1951.0781 Q2234.2813,1951.4688 2233.7031,1952.3594 Q2233.125,1953.2344 2233.125,1954.4375 L2233.125,1955.7344 Q2233.125,1957.1875 2234.1719,1958.1563 Q2235.2344,1959.125 2237.0938,1959.125 Q2238.2031,1959.125 2238.9844,1958.8125 Q2239.4219,1958.6406 2239.9375,1958.125 Q2240.25,1957.8125 2240.4219,1957.7188 Q2240.5938,1957.625 2240.8281,1957.625 Q2241.2188,1957.625 2241.5156,1957.9375 Q2241.8281,1958.2344 2241.8281,1958.6406 Q2241.8281,1959.0469 2241.4219,1959.5156 Q2240.8281,1960.2031 2239.8906,1960.5938 Q2238.625,1961.125 2237.1094,1961.125 Q2235.3281,1961.125 2233.9063,1960.3906 Q2232.75,1959.7969 2231.9375,1958.5313 Q2231.125,1957.2656 2231.125,1955.7813 L2231.125,1954.4219 Q2231.125,1952.8594 2231.8438,1951.5156 Q2232.5781,1950.1563 2233.8594,1949.4219 Q2235.1563,1948.6875 2236.6094,1948.6875 Q2237.4688,1948.6875 2238.2188,1948.8906 Q2238.9844,1949.0938 2239.6406,1949.5 Z " fill="#000000"/><text fill="#000000" font-family="sans-serif" font-size="20" lengthAdjust="spacing" textLength="41" x="2259.5" y="1962.7617">Rent</text><line style="stroke:#4169E1;stroke-width:0.5;" x1="2165" x2="2360" y1="1972.1563" y2="1972.1563"/><rect fill="none" height="6" style="stroke:#C82930;stroke-width:1.0;" width="6" x="2172" y="1987.2344"/><text fill="#000000" font-family="sans-serif" font-size="20" lengthAdjust="spacing" textLength="107" x="2185" y="1996.918">double price</text><rect fill="none" height="6" style="stroke:#C82930;stroke-width:1.0;" width="6" x="2172" y="2012.3906"/><text fill="#000000" font-family="sans-serif" font-size="20" lengthAdjust="spacing" textLength="170" x="2185" y="2022.0742">int contractDuration</text><line style="stroke:#4169E1;stroke-width:0.5;" x1="2165" x2="2360" y1="2030.4688" y2="2030.4688"/><ellipse cx="2175" cy="2048.5469" fill="#84BE84" rx="3" ry="3" style="stroke:#038048;stroke-width:1.0;"/><text fill="#000000" font-family="sans-serif" font-size="20" lengthAdjust="spacing" textLength="98" x="2185" y="2055.2305">Rent(price)</text></g><!--class Sale--><g id="elem_Sale"><rect codeLine="142" fill="#FFDAB9" height="101.4688" id="Sale" rx="2.5" ry="2.5" style="stroke:#4169E1;stroke-width:0.5;" width="279" x="2396" y="1950"/><ellipse cx="2511.5" cy="1967.5781" fill="#ADD1B2" rx="12" ry="12" style="stroke:#181818;stroke-width:1.0;"/><path d="M2513.6406,1962.5 Q2513.8281,1962.25 2514.0469,1962.125 Q2514.2656,1961.9844 2514.5156,1961.9844 Q2514.9531,1961.9844 2515.2344,1962.2969 Q2515.5156,1962.5938 2515.5156,1963.3125 L2515.5156,1965.0156 Q2515.5156,1965.7344 2515.2344,1966.0469 Q2514.9531,1966.3594 2514.5156,1966.3594 Q2514.125,1966.3594 2513.875,1966.125 Q2513.625,1965.9063 2513.5156,1965.2969 Q2513.4531,1964.875 2513.2344,1964.6563 Q2512.8438,1964.2188 2512.125,1963.9531 Q2511.4063,1963.6875 2510.6875,1963.6875 Q2509.7813,1963.6875 2509.0313,1964.0781 Q2508.2813,1964.4688 2507.7031,1965.3594 Q2507.125,1966.2344 2507.125,1967.4375 L2507.125,1968.7344 Q2507.125,1970.1875 2508.1719,1971.1563 Q2509.2344,1972.125 2511.0938,1972.125 Q2512.2031,1972.125 2512.9844,1971.8125 Q2513.4219,1971.6406 2513.9375,1971.125 Q2514.25,1970.8125 2514.4219,1970.7188 Q2514.5938,1970.625 2514.8281,1970.625 Q2515.2188,1970.625 2515.5156,1970.9375 Q2515.8281,1971.2344 2515.8281,1971.6406 Q2515.8281,1972.0469 2515.4219,1972.5156 Q2514.8281,1973.2031 2513.8906,1973.5938 Q2512.625,1974.125 2511.1094,1974.125 Q2509.3281,1974.125 2507.9063,1973.3906 Q2506.75,1972.7969 2505.9375,1971.5313 Q2505.125,1970.2656 2505.125,1968.7813 L2505.125,1967.4219 Q2505.125,1965.8594 2505.8438,1964.5156 Q2506.5781,1963.1563 2507.8594,1962.4219 Q2509.1563,1961.6875 2510.6094,1961.6875 Q2511.4688,1961.6875 2512.2188,1961.8906 Q2512.9844,1962.0938 2513.6406,1962.5 Z " fill="#000000"/><text fill="#000000" font-family="sans-serif" font-size="20" lengthAdjust="spacing" textLength="39" x="2533.5" y="1975.7617">Sale</text><line style="stroke:#4169E1;stroke-width:0.5;" x1="2397" x2="2674" y1="1985.1563" y2="1985.1563"/><rect fill="none" height="6" style="stroke:#C82930;stroke-width:1.0;" width="6" x="2404" y="2000.2344"/><text fill="#000000" font-family="sans-serif" font-size="20" lengthAdjust="spacing" textLength="107" x="2417" y="2009.918">double price</text><line style="stroke:#4169E1;stroke-width:0.5;" x1="2397" x2="2674" y1="2018.3125" y2="2018.3125"/><ellipse cx="2407" cy="2036.3906" fill="#84BE84" rx="3" ry="3" style="stroke:#038048;stroke-width:1.0;"/><text fill="#000000" font-family="sans-serif" font-size="20" lengthAdjust="spacing" textLength="252" x="2417" y="2043.0742">Sale(price, contractDuration)</text></g><!--link AnnouncementUI to AnnouncementController--><g id="link_AnnouncementUI_AnnouncementController"><path codeLine="148" d="M1961.5,58.23 C1961.5,73.3 1961.5,93.51 1961.5,113.72 " fill="none" id="AnnouncementUI-to-AnnouncementController" style="stroke:#4169E1;stroke-width:1.0;"/><polygon fill="#4169E1" points="1961.5,118.86,1965.5257,109.8715,1961.5143,113.86,1957.5257,109.8486,1961.5,118.86" style="stroke:#4169E1;stroke-width:1.0;"/></g><!--link Repositories to Repositories--><g id="link_Repositories_Repositories"><path codeLine="150" d="M2303.8,379.68 C2324.56,382.24 2338.5,387.51 2338.5,395.5 C2338.5,402.8 2326.86,407.83 2308.99,410.6 " fill="none" id="Repositories-to-Repositories" style="stroke:#4169E1;stroke-width:1.0;"/><polygon fill="#4169E1" points="2303.8,411.32,2313.2643,414.0453,2308.7526,410.6329,2312.165,406.1212,2303.8,411.32" style="stroke:#4169E1;stroke-width:1.0;"/><text fill="#000000" font-family="sans-serif" font-size="20" lengthAdjust="spacing" textLength="72" x="2344.5" y="403.7617">instance</text></g><!--link AnnouncementController to Repositories--><g id="link_AnnouncementController_Repositories"><path codeLine="153" d="M2035.6,271.04 C2054.2,289.88 2074.02,309.95 2092.16,328.32 " fill="none" id="AnnouncementController-to-Repositories" style="stroke:#4169E1;stroke-width:1.0;"/><polygon fill="#4169E1" points="2095.76,331.97,2092.2802,322.7564,2092.246,328.4131,2086.5892,328.3788,2095.76,331.97" style="stroke:#4169E1;stroke-width:1.0;"/></g><!--link AnnouncementController to Announcement--><g id="link_AnnouncementController_Announcement"><path codeLine="154" d="M1961.5,271.02 C1961.5,380.45 1961.5,583.73 1961.5,702.52 " fill="none" id="AnnouncementController-to-Announcement" style="stroke:#4169E1;stroke-width:1.0;"/><polygon fill="#4169E1" points="1961.5,707.76,1965.5,698.76,1961.5,702.76,1957.5,698.76,1961.5,707.76" style="stroke:#4169E1;stroke-width:1.0;"/></g><!--link Repositories to AnnouncementRepository--><g id="link_Repositories_AnnouncementRepository"><path codeLine="155" d="M2163.57,459.21 C2165.29,477.05 2167.18,496.55 2168.94,514.67 " fill="none" id="Repositories-to-AnnouncementRepository" style="stroke:#4169E1;stroke-width:1.0;"/><polygon fill="#4169E1" points="2169.43,519.74,2172.5385,510.3946,2168.9452,514.7636,2164.5762,511.1703,2169.43,519.74" style="stroke:#4169E1;stroke-width:1.0;"/></g><!--link AnnouncementRepository to Announcement--><g id="link_AnnouncementRepository_Announcement"><path codeLine="157" d="M2111.87,647.24 C2093.85,665 2073.86,684.72 2054.49,703.82 " fill="none" id="AnnouncementRepository-to-Announcement" style="stroke:#4169E1;stroke-width:1.0;"/><polygon fill="#4169E1" points="2050.62,707.63,2059.8407,704.169,2054.184,704.1232,2054.2298,698.4665,2050.62,707.63" style="stroke:#4169E1;stroke-width:1.0;"/></g><!--link Announcement to Request--><g id="link_Announcement_Request"><path codeLine="158" d="M1961.5,885.19 C1961.5,924.13 1961.5,969.87 1961.5,1008.81 " fill="none" id="Announcement-Request" style="stroke:#4169E1;stroke-width:1.0;"/><text fill="#000000" font-family="sans-serif" font-size="20" lengthAdjust="spacing" textLength="11" x="1950.0789" y="913.7075">1</text><text fill="#000000" font-family="sans-serif" font-size="20" lengthAdjust="spacing" textLength="11" x="1950.0617" y="996.5169">1</text></g><!--link Request to Land--><g id="link_Request_Land"><path codeLine="159" d="M2071.18,1186.02 C2131.43,1234.1 2206.53,1294.02 2269.69,1344.42 " fill="none" id="Request-to-Land" style="stroke:#4169E1;stroke-width:1.0;"/><polygon fill="#4169E1" points="2273.84,1347.73,2269.2876,1338.9964,2269.9273,1344.617,2264.3067,1345.2567,2273.84,1347.73" style="stroke:#4169E1;stroke-width:1.0;"/></g><!--link Request to Apartment--><g id="link_Request_Apartment"><path codeLine="160" d="M2188.03,1162.4 C2383.33,1217.49 2667.36,1297.61 2884.92,1358.98 " fill="none" id="Request-to-Apartment" style="stroke:#4169E1;stroke-width:1.0;"/><polygon fill="#4169E1" points="2890.05,1360.43,2882.4729,1354.1381,2885.2376,1359.0734,2880.3023,1361.838,2890.05,1360.43" style="stroke:#4169E1;stroke-width:1.0;"/></g><!--link Request to House--><g id="link_Request_House"><path codeLine="161" d="M1921.33,1186.24 C1895.77,1242.08 1862.92,1313.84 1838.08,1368.1 " fill="none" id="Request-to-House" style="stroke:#4169E1;stroke-width:1.0;"/><polygon fill="#4169E1" points="1835.85,1372.96,1843.2157,1366.4219,1837.919,1368.4082,1835.9328,1363.1115,1835.85,1372.96" style="stroke:#4169E1;stroke-width:1.0;"/></g><!--link Request to Person--><g id="link_Request_Person"><path codeLine="162" d="M1735.13,1186.02 C1641.94,1222.05 1531.53,1264.73 1427.19,1305.07 " fill="none" id="Request-to-Person" style="stroke:#4169E1;stroke-width:1.0;"/><polygon fill="#4169E1" points="1414.82,1309.85,1421.8583,1311.419,1426.0137,1305.5255,1418.9753,1303.9565,1414.82,1309.85" style="stroke:#4169E1;stroke-width:1.0;"/></g><!--link Deal to Sale--><g id="link_Deal_Sale"><path codeLine="164" d="M2435.59,1826.12 C2456.9,1863.11 2483.62,1909.48 2504.07,1944.96 " fill="none" id="Deal-to-Sale" style="stroke:#4169E1;stroke-width:1.0;"/><polygon fill="#4169E1" points="2506.78,1949.67,2505.7426,1939.8759,2504.2793,1945.3403,2498.815,1943.877,2506.78,1949.67" style="stroke:#4169E1;stroke-width:1.0;"/></g><!--link Deal to Rent--><g id="link_Deal_Rent"><path codeLine="165" d="M2363.15,1826.12 C2344.1,1858.93 2320.78,1899.11 2301.37,1932.53 " fill="none" id="Deal-to-Rent" style="stroke:#4169E1;stroke-width:1.0;"/><polygon fill="#4169E1" points="2298.79,1936.99,2306.7693,1931.2167,2301.3014,1932.6665,2299.8516,1927.1985,2298.79,1936.99" style="stroke:#4169E1;stroke-width:1.0;"/></g><!--link Land to Deal--><g id="link_Land_Deal"><path codeLine="167" d="M2399.5,1550.28 C2399.5,1599.01 2399.5,1656.07 2399.5,1698.6 " fill="none" id="Land-Deal" style="stroke:#4169E1;stroke-width:1.0;"/></g><!--link Land to Address--><g id="link_Land_Address"><path codeLine="168" d="M2176.07,1550.11 C2128.1,1571.6 2091.5,1588 2091.5,1588 C2091.5,1588 1689.26,1671.88 1444.15,1722.99 " fill="none" id="Land-Address" style="stroke:#4169E1;stroke-width:1.0;"/></g><!--link Person to Address--><g id="link_Person_Address"><path codeLine="169" d="M1147.28,1588.44 C1160.34,1608.59 1173.66,1629.13 1186.35,1648.69 " fill="none" id="Person-Address" style="stroke:#4169E1;stroke-width:1.0;"/></g><!--link Employee to Agency--><g id="link_Employee_Agency"><path codeLine="170" d="M609.66,1249 C557,1282.47 502.43,1317.14 453.89,1347.98 " fill="none" id="Employee-Agency" style="stroke:#4169E1;stroke-width:1.0;"/></g><!--link Employee to Person--><g id="link_Employee_Person"><path codeLine="171" d="M937.36,1249 C947.29,1265.45 957.4,1282.19 967.32,1298.63 " fill="none" id="Employee-to-Person" style="stroke:#4169E1;stroke-width:1.0;"/><polygon fill="#4169E1" points="974.16,1309.95,974.4853,1302.7462,967.9609,1299.6752,967.6355,1306.879,974.16,1309.95" style="stroke:#4169E1;stroke-width:1.0;"/></g><!--link Person to Email--><g id="link_Person_Email"><path codeLine="173" d="M967.28,1588.44 C938.58,1632.48 908.67,1678.38 886.86,1711.84 " fill="none" id="Person-Email" style="stroke:#4169E1;stroke-width:1.0;"/></g><!--link Agency to Email--><g id="link_Agency_Email"><path codeLine="174" d="M475.74,1550.06 C581.86,1609.3 710.16,1680.92 786.9,1723.76 " fill="none" id="Agency-Email" style="stroke:#4169E1;stroke-width:1.0;"/></g><!--SRC=[rLRDRkCs4BxhAOYzMAbfeErnKGH8l0bg8EW6CV80j3IMYL2abgIIzGPzzmufag9aEzj3B_N1acQ6ttppHzAySDanpLgXgXUeIGrxrWjxhwJTyXz0Vl-rM9XeGrebLNNGgWLYTG_5gEbOzS8QsDgZ0AAXiams8ZSm1rQhDouRicV2v1h19TXZ1wHJukW-Sez9gRHLHQwf13FcnbhDTxs5JQMa9unyL_5tpv6CiGwqIS9Y1a7U2uA_MmoWqQgNzLe9fSaZiEhmsE_tNdkZjNeR54_goCIjmEZzCgLhq7FDtyL2mDuIguZcpS6IchkSS2MBnRC1JRYqeFUiWaLH32mUcAm3bHMfLRz3wam3cqfgRZ2p5TnZ3TRS7jSWhOPWWoJPyG4j_jXYLcHpJRg3ikhvwI4QrBK6zCM6Pv1-0IQmxapuxwLdKZhNz88xcd1fXA8Uu0e33-7SO8PjY-On9eoOoBxTWVwwluLQAzMQCnfc3nTKZqnZuPejTbe8U18gUsLSCCpHtRUUTyvp22SnAGK6Haz8q5FdzAnJUiP75l6VgZUGAhXJIW2JPCSC93AZcCi3st7hi1xKFcg7M8ZfvTttJfa-L7OvO9SiHa8JB9qZqNnrNezG-lUPAomdpDnNMEYv5REnoLn9Vl2kKZLCZLolQ5x5j1kmmMSvEA4Uc0vWD69S1VDcDCzOFu8sIiv9IzRcR3gqx71x-ClNB5DOzlr4XfqhOIAzQx6e1Dp_pMGkWhVkhPuAD9PmKtymKil0ktH4wOmV7MdHd0sTKA3EBGskqfHbcNa2B36tIdCOYveBooop6pcCSNb5Fa-CikHBYNjVvPigMHppMjordL17WFzRDL3QWAoEXFb723b6yv_NY0O_-UmD_cTvun-JZbC5XZUI-QDZceX_cxfby5_oUh9T9zmFGfoKtw7FOl2sAQFuNdf97dlMLyyRN7zMiyRh1kPHuCduFlPahD56Rf4BCirxUYquBdH7G99sU4HoSyY1ooVureEnU2NnJqhMgcsvHoDLUhqwFmW1_IpbSKWIPSDUOUASPH_HnIiJlCOTyAU65xcSOvDj0PDuW_HiqF7uHpAa7ZTuVwf-TRUQQ-8lDwcDSiOfdoCUzIYJFMhWyfuQDEmW45w2FEpodNz4cLRuRO-a2o_p0zGyWgon1mEvuAkCq3J0qGH0npKPHt_v6PCdNURIQRrbxlw8Vy69Coud0MQP3pUq3i_0V3-iN6kpodxfzJZ5Ix-qzBOPdlTt4M_fzSCYUeBhOHRFcs8sSQlLzOLHAuh98U8C9uBFo7yuDn0uMtPXSEVhFxBBLQSipezPKLmOlnF0oM1y-kqJMlX7w94YzgLRw2wx4q6wBawa_WAMINu9JLiKle6SYIlE-ENgMnJ-KhyQhjZf8sxEeUqpIHgGLJoqSj7eSrpfDzqY733n-ny0]--></g></svg>