<?xml version="1.0" encoding="UTF-8" standalone="no"?><svg xmlns="http://www.w3.org/2000/svg" xmlns:xlink="http://www.w3.org/1999/xlink" contentStyleType="text/css" height="532px" preserveAspectRatio="none" style="width:1203px;height:532px;background:#FFFFFF;" version="1.1" viewBox="0 0 1203 532" width="1203px" zoomAndPan="magnify"><defs/><g><text fill="#000000" font-family="sans-serif" font-size="14" font-weight="bold" lengthAdjust="spacing" textLength="398" x="401" y="27.9951">System Sequence Diagram (SSD) - Alternative One</text><rect fill="#FFFFFF" height="37.2813" style="stroke:#181818;stroke-width:1.0;" width="10" x="660" y="164.8594"/><rect fill="#FFFFFF" height="63.5625" style="stroke:#181818;stroke-width:1.0;" width="10" x="660" y="288.9844"/><rect fill="#FFFFFF" height="46.2813" style="stroke:#181818;stroke-width:1.0;" width="10" x="660" y="389.8281"/><line style="stroke:#181818;stroke-width:0.5;stroke-dasharray:5.0,5.0;" x1="86" x2="86" y1="125.5781" y2="445.1094"/><line style="stroke:#181818;stroke-width:0.5;stroke-dasharray:5.0,5.0;" x1="664.5" x2="664.5" y1="125.5781" y2="445.1094"/><text fill="#000000" font-family="sans-serif" font-size="20" lengthAdjust="spacing" textLength="156" x="5" y="120.8613">Unregister User</text><ellipse cx="86" cy="50.7969" fill="#D3D3D3" rx="8" ry="8" style="stroke:#181818;stroke-width:0.5;"/><path d="M86,58.7969 L86,85.7969 M73,66.7969 L99,66.7969 M86,85.7969 L73,100.7969 M86,85.7969 L99,100.7969 " fill="none" style="stroke:#181818;stroke-width:0.5;"/><text fill="#000000" font-family="sans-serif" font-size="20" lengthAdjust="spacing" textLength="156" x="5" y="462.6738">Unregister User</text><ellipse cx="86" cy="475.8906" fill="#D3D3D3" rx="8" ry="8" style="stroke:#181818;stroke-width:0.5;"/><path d="M86,483.8906 L86,510.8906 M73,491.8906 L99,491.8906 M86,510.8906 L73,525.8906 M86,510.8906 L99,525.8906 " fill="none" style="stroke:#181818;stroke-width:0.5;"/><rect fill="#E2E2F0" height="37.2813" rx="2.5" ry="2.5" style="stroke:#181818;stroke-width:0.5;" width="95" x="617.5" y="87.2969"/><text fill="#000000" font-family="sans-serif" font-size="20" lengthAdjust="spacing" textLength="81" x="624.5" y="112.8613">:System</text><rect fill="#E2E2F0" height="37.2813" rx="2.5" ry="2.5" style="stroke:#181818;stroke-width:0.5;" width="95" x="617.5" y="444.1094"/><text fill="#000000" font-family="sans-serif" font-size="20" lengthAdjust="spacing" textLength="81" x="624.5" y="469.6738">:System</text><rect fill="#FFFFFF" height="37.2813" style="stroke:#181818;stroke-width:1.0;" width="10" x="660" y="164.8594"/><rect fill="#FFFFFF" height="63.5625" style="stroke:#181818;stroke-width:1.0;" width="10" x="660" y="288.9844"/><rect fill="#FFFFFF" height="46.2813" style="stroke:#181818;stroke-width:1.0;" width="10" x="660" y="389.8281"/><polygon fill="#181818" points="648,160.8594,658,164.8594,648,168.8594,652,164.8594" style="stroke:#181818;stroke-width:1.0;"/><line style="stroke:#181818;stroke-width:1.0;" x1="86" x2="654" y1="164.8594" y2="164.8594"/><text fill="#000000" font-family="sans-serif" font-size="20" font-weight="bold" lengthAdjust="spacing" textLength="14" x="93" y="158.1426">1</text><text fill="#000000" font-family="sans-serif" font-size="20" lengthAdjust="spacing" textLength="243" x="111" y="158.1426">asks to create a account</text><polygon fill="#181818" points="97,198.1406,87,202.1406,97,206.1406,93,202.1406" style="stroke:#181818;stroke-width:1.0;"/><line style="stroke:#181818;stroke-width:1.0;stroke-dasharray:2.0,2.0;" x1="91" x2="664" y1="202.1406" y2="202.1406"/><text fill="#000000" font-family="sans-serif" font-size="20" font-weight="bold" lengthAdjust="spacing" textLength="14" x="103" y="195.4238">2</text><text fill="#000000" font-family="sans-serif" font-size="20" lengthAdjust="spacing" textLength="274" x="121" y="195.4238">requests user's information</text><polygon fill="#181818" points="648,284.9844,658,288.9844,648,292.9844,652,288.9844" style="stroke:#181818;stroke-width:1.0;"/><line style="stroke:#181818;stroke-width:1.0;" x1="86" x2="654" y1="288.9844" y2="288.9844"/><text fill="#000000" font-family="sans-serif" font-size="20" font-weight="bold" lengthAdjust="spacing" textLength="14" x="93" y="270.627">3</text><text fill="#000000" font-family="sans-serif" font-size="20" lengthAdjust="spacing" textLength="537" x="111" y="258.9863">types data (name, passport card number, tax number</text><text fill="#000000" font-family="sans-serif" font-size="20" lengthAdjust="spacing" textLength="427" x="111" y="282.2676">, address, email,phone number, password)</text><path d="M675,215.1406 L675,318.1406 L1196,318.1406 L1196,225.1406 L1186,215.1406 L675,215.1406 " fill="#FEFFDD" style="stroke:#181818;stroke-width:0.5;"/><path d="M1186,215.1406 L1186,225.1406 L1196,225.1406 L1186,215.1406 " fill="#FEFFDD" style="stroke:#181818;stroke-width:0.5;"/><text fill="#000000" font-family="sans-serif" font-size="20" lengthAdjust="spacing" textLength="319" x="681" y="238.7051">-&gt;the Address is not mandatory</text><text fill="#000000" font-family="sans-serif" font-size="20" lengthAdjust="spacing" textLength="6" x="681" y="261.9863"> </text><text fill="#000000" font-family="sans-serif" font-size="20" lengthAdjust="spacing" textLength="494" x="681" y="285.2676">-&gt; a password of seven alphanumeric characters,</text><text fill="#000000" font-family="sans-serif" font-size="20" lengthAdjust="spacing" textLength="446" x="681" y="308.5488">including three capital letters and two digits</text><polygon fill="#181818" points="97,348.5469,87,352.5469,97,356.5469,93,352.5469" style="stroke:#181818;stroke-width:1.0;"/><line style="stroke:#181818;stroke-width:1.0;stroke-dasharray:2.0,2.0;" x1="91" x2="664" y1="352.5469" y2="352.5469"/><text fill="#000000" font-family="sans-serif" font-size="20" font-weight="bold" lengthAdjust="spacing" textLength="14" x="103" y="345.8301">4</text><text fill="#000000" font-family="sans-serif" font-size="20" lengthAdjust="spacing" textLength="400" x="121" y="345.8301">shows all data and requests cofirmation</text><polygon fill="#181818" points="648,385.8281,658,389.8281,648,393.8281,652,389.8281" style="stroke:#181818;stroke-width:1.0;"/><line style="stroke:#181818;stroke-width:1.0;" x1="86" x2="654" y1="389.8281" y2="389.8281"/><text fill="#000000" font-family="sans-serif" font-size="20" font-weight="bold" lengthAdjust="spacing" textLength="14" x="93" y="383.1113">5</text><text fill="#000000" font-family="sans-serif" font-size="20" lengthAdjust="spacing" textLength="177" x="111" y="383.1113">confirms the data</text><polygon fill="#181818" points="97,423.1094,87,427.1094,97,431.1094,93,427.1094" style="stroke:#181818;stroke-width:1.0;"/><line style="stroke:#181818;stroke-width:1.0;stroke-dasharray:2.0,2.0;" x1="91" x2="659" y1="427.1094" y2="427.1094"/><text fill="#000000" font-family="sans-serif" font-size="20" font-weight="bold" lengthAdjust="spacing" textLength="14" x="103" y="420.3926">6</text><text fill="#000000" font-family="sans-serif" font-size="20" lengthAdjust="spacing" textLength="250" x="121" y="420.3926">informs operation sucess</text><!--SRC=[bL9DRzim3BtxLn3P8IsG0Dk0NN8O4AneTrYnGv3RBgp4s49aqfFefDwl7sKdNJ2a-_39ajvxV7natWVkC64RnUt9WwSTzb7lXNKJVX2yVrlbCmHQON5DafPWXp7JnLE7ReyrRNI818cS8jVn4f0Rz78CN9-ebGOrw6R8IYriw7jFx0Zk0jO5VhFPtDt24jPHAJ5gE11yPQFDuJuOBmyQYvXTODJpyQBUMV4XITzz9lIKIbEV94g2EX7nQ-1ViAVOqvzGOqBlFbJpn-2zcL9wDYiMGR4ol-ZzH7oad2saTGmrWoEsrluAyw6a6OGhx5MuRv-CLA5JypVRSg8wM889jfdI3333TWjlleIwqOT4GsNA6bpea1Lcgodj4JRzLXNOPvJbn_CeLlQwpw02BX4g0G8w9pthYBNAuL2kBmLErAMfcDRA5i0woPgXDrVp385tabeSsoXuJrTbVlEXGqSPF2h23MDB2zkod3j92WwJXocC1IW-d_w_yGBG-sG1Be1Q377HDSBq0Yq2Hqd-zcelvOx5pgdaDnxDa3O4wqaKGYu0Q97DbgIXEeCifRCsoCv6UI06Z5s3LffISE0Q6xApKPcrYHNOnTwNBTR65jAQwe9YX4XQO615G8zYAr07pIE7xAeul9fwRkHeh1Ydp0hzPH1ETk7_9-242yssmJ8eel- -0jF8CqX7QImBkNSMOLNz1000]--></g></svg>