<?xml version="1.0" encoding="UTF-8" standalone="no"?><svg xmlns="http://www.w3.org/2000/svg" xmlns:xlink="http://www.w3.org/1999/xlink" contentStyleType="text/css" height="457px" preserveAspectRatio="none" style="width:605px;height:457px;background:#FFFFFF;" version="1.1" viewBox="0 0 605 457" width="605px" zoomAndPan="magnify"><defs/><g><text fill="#000000" font-family="sans-serif" font-size="14" font-weight="bold" lengthAdjust="spacing" textLength="259" x="172" y="27.9951">System Sequence Diagram (SSD)</text><rect fill="#FFFFFF" height="37.2813" style="stroke:#181818;stroke-width:1.0;" width="10" x="546.5" y="164.8594"/><rect fill="#FFFFFF" height="37.2813" style="stroke:#181818;stroke-width:1.0;" width="10" x="546.5" y="239.4219"/><rect fill="#FFFFFF" height="46.2813" style="stroke:#181818;stroke-width:1.0;" width="10" x="546.5" y="313.9844"/><line style="stroke:#181818;stroke-width:0.5;stroke-dasharray:5.0,5.0;" x1="37" x2="37" y1="125.5781" y2="369.2656"/><line style="stroke:#181818;stroke-width:0.5;stroke-dasharray:5.0,5.0;" x1="551" x2="551" y1="125.5781" y2="369.2656"/><text fill="#000000" font-family="sans-serif" font-size="20" lengthAdjust="spacing" textLength="59" x="5" y="120.8613">Client</text><ellipse cx="37.5" cy="50.7969" fill="#D3D3D3" rx="8" ry="8" style="stroke:#181818;stroke-width:0.5;"/><path d="M37.5,58.7969 L37.5,85.7969 M24.5,66.7969 L50.5,66.7969 M37.5,85.7969 L24.5,100.7969 M37.5,85.7969 L50.5,100.7969 " fill="none" style="stroke:#181818;stroke-width:0.5;"/><text fill="#000000" font-family="sans-serif" font-size="20" lengthAdjust="spacing" textLength="59" x="5" y="386.8301">Client</text><ellipse cx="37.5" cy="400.0469" fill="#D3D3D3" rx="8" ry="8" style="stroke:#181818;stroke-width:0.5;"/><path d="M37.5,408.0469 L37.5,435.0469 M24.5,416.0469 L50.5,416.0469 M37.5,435.0469 L24.5,450.0469 M37.5,435.0469 L50.5,450.0469 " fill="none" style="stroke:#181818;stroke-width:0.5;"/><rect fill="#E2E2F0" height="37.2813" rx="2.5" ry="2.5" style="stroke:#181818;stroke-width:0.5;" width="95" x="504" y="87.2969"/><text fill="#000000" font-family="sans-serif" font-size="20" lengthAdjust="spacing" textLength="81" x="511" y="112.8613">:System</text><rect fill="#E2E2F0" height="37.2813" rx="2.5" ry="2.5" style="stroke:#181818;stroke-width:0.5;" width="95" x="504" y="368.2656"/><text fill="#000000" font-family="sans-serif" font-size="20" lengthAdjust="spacing" textLength="81" x="511" y="393.8301">:System</text><rect fill="#FFFFFF" height="37.2813" style="stroke:#181818;stroke-width:1.0;" width="10" x="546.5" y="164.8594"/><rect fill="#FFFFFF" height="37.2813" style="stroke:#181818;stroke-width:1.0;" width="10" x="546.5" y="239.4219"/><rect fill="#FFFFFF" height="46.2813" style="stroke:#181818;stroke-width:1.0;" width="10" x="546.5" y="313.9844"/><polygon fill="#181818" points="534.5,160.8594,544.5,164.8594,534.5,168.8594,538.5,164.8594" style="stroke:#181818;stroke-width:1.0;"/><line style="stroke:#181818;stroke-width:1.0;" x1="37.5" x2="540.5" y1="164.8594" y2="164.8594"/><text fill="#000000" font-family="sans-serif" font-size="20" font-weight="bold" lengthAdjust="spacing" textLength="14" x="44.5" y="158.1426">1</text><text fill="#000000" font-family="sans-serif" font-size="20" lengthAdjust="spacing" textLength="421" x="62.5" y="158.1426">Ask to leave a message to scheudle a visit</text><polygon fill="#181818" points="48.5,198.1406,38.5,202.1406,48.5,206.1406,44.5,202.1406" style="stroke:#181818;stroke-width:1.0;"/><line style="stroke:#181818;stroke-width:1.0;" x1="42.5" x2="550.5" y1="202.1406" y2="202.1406"/><text fill="#000000" font-family="sans-serif" font-size="20" font-weight="bold" lengthAdjust="spacing" textLength="14" x="54.5" y="195.4238">2</text><text fill="#000000" font-family="sans-serif" font-size="20" lengthAdjust="spacing" textLength="220" x="72.5" y="195.4238">requests the message</text><polygon fill="#181818" points="534.5,235.4219,544.5,239.4219,534.5,243.4219,538.5,239.4219" style="stroke:#181818;stroke-width:1.0;"/><line style="stroke:#181818;stroke-width:1.0;" x1="37.5" x2="540.5" y1="239.4219" y2="239.4219"/><text fill="#000000" font-family="sans-serif" font-size="20" font-weight="bold" lengthAdjust="spacing" textLength="14" x="44.5" y="232.7051">3</text><text fill="#000000" font-family="sans-serif" font-size="20" lengthAdjust="spacing" textLength="472" x="62.5" y="232.7051">types the data(property,date,starVisit,endVisit)</text><polygon fill="#181818" points="48.5,272.7031,38.5,276.7031,48.5,280.7031,44.5,276.7031" style="stroke:#181818;stroke-width:1.0;"/><line style="stroke:#181818;stroke-width:1.0;" x1="42.5" x2="550.5" y1="276.7031" y2="276.7031"/><text fill="#000000" font-family="sans-serif" font-size="20" font-weight="bold" lengthAdjust="spacing" textLength="14" x="54.5" y="269.9863">4</text><text fill="#000000" font-family="sans-serif" font-size="20" lengthAdjust="spacing" textLength="440" x="72.5" y="269.9863">shows the request and requests cofirmation</text><polygon fill="#181818" points="534.5,309.9844,544.5,313.9844,534.5,317.9844,538.5,313.9844" style="stroke:#181818;stroke-width:1.0;"/><line style="stroke:#181818;stroke-width:1.0;" x1="37.5" x2="540.5" y1="313.9844" y2="313.9844"/><text fill="#000000" font-family="sans-serif" font-size="20" font-weight="bold" lengthAdjust="spacing" textLength="14" x="44.5" y="307.2676">5</text><text fill="#000000" font-family="sans-serif" font-size="20" lengthAdjust="spacing" textLength="208" x="62.5" y="307.2676">confirms the request</text><polygon fill="#181818" points="48.5,347.2656,38.5,351.2656,48.5,355.2656,44.5,351.2656" style="stroke:#181818;stroke-width:1.0;"/><line style="stroke:#181818;stroke-width:1.0;" x1="42.5" x2="545.5" y1="351.2656" y2="351.2656"/><text fill="#000000" font-family="sans-serif" font-size="20" font-weight="bold" lengthAdjust="spacing" textLength="14" x="54.5" y="344.5488">6</text><text fill="#000000" font-family="sans-serif" font-size="20" lengthAdjust="spacing" textLength="250" x="72.5" y="344.5488">informs operation sucess</text><!--SRC=[ZP5FJ-Cm4CNl_XIZxg4WTQNTbVRI0n8g0WvmYiHziAV9g8uTx4dPxATdd3IY8FxK9zjvx-Ktptd7eSE4hOzsHmuSRR7tSXs3LFoVuCylasS9j354swJO4cpHPphwrA7TOKsL39uWaHKCjJyMv0PTVEPG7wn6M5HQ3LceXOgUUWgMu8gnBlApghewDsO9rwogF8WlLhr0B_FnA7tstwJOTxU4Zb8POHDzJ50del2P-5Nsw7lwIZNsyVklMTwpSmebz4zHTE22iZoQz62yfvoraalFTG1BGIXzAtDSkkCO3FOIGzy-gicW5ULRR3nhoW8mm-OEVjnntSXDei5eeB3b3eF0OZrLEigchJ6WIoq_B-Q-rt2PTo0HFE6U0A6TACfLjWtrPK24FMUMqQq8l4UXDv67C8tLyBK-kqwK9OCqD0UEEaSVsjyHoT3Hv7KeUDQbs56IOQKdMcN1z51eLXJSk3a_cIityNaAFX021lTAQ-EMKujZwwVJsXYAxKtkoKGSjh5uouJZZo7tLWipvWK0]--></g></svg>