<?xml version="1.0" encoding="UTF-8" standalone="no"?><svg xmlns="http://www.w3.org/2000/svg" xmlns:xlink="http://www.w3.org/1999/xlink" contentStyleType="text/css" height="446px" preserveAspectRatio="none" style="width:1604px;height:446px;background:#FFFFFF;" version="1.1" viewBox="0 0 1604 446" width="1604px" zoomAndPan="magnify"><defs/><g><!--class Agent--><g id="elem_Agent"><rect codeLine="16" fill="#FFDAB9" height="41.2813" id="Agent" rx="2.5" ry="2.5" style="stroke:#4169E1;stroke-width:0.5;" width="66" x="792" y="7"/><text fill="#000000" font-family="sans-serif" font-size="20" lengthAdjust="spacing" textLength="60" x="795" y="30.5645">Agent</text><line style="stroke:#4169E1;stroke-width:0.5;" x1="793" x2="857" y1="40.2813" y2="40.2813"/></g><!--class PO--><g id="elem_PO"><rect codeLine="19" fill="#FFDAB9" height="204.25" id="PO" rx="2.5" ry="2.5" style="stroke:#4169E1;stroke-width:0.5;" width="222" x="7" y="144.5"/><text fill="#000000" font-family="sans-serif" font-size="20" lengthAdjust="spacing" textLength="156" x="40" y="168.0645">Property Owner</text><line style="stroke:#4169E1;stroke-width:0.5;" x1="8" x2="228" y1="177.7813" y2="177.7813"/><rect fill="none" height="6" style="stroke:#C82930;stroke-width:1.0;" width="6" x="15" y="191.9219"/><text fill="#000000" font-family="sans-serif" font-size="20" lengthAdjust="spacing" textLength="57" x="28" y="200.3457">name</text><rect fill="none" height="6" style="stroke:#C82930;stroke-width:1.0;" width="6" x="15" y="215.2031"/><text fill="#000000" font-family="sans-serif" font-size="20" lengthAdjust="spacing" textLength="195" x="28" y="223.627">citizenCardNumber</text><rect fill="none" height="6" style="stroke:#C82930;stroke-width:1.0;" width="6" x="15" y="238.4844"/><text fill="#000000" font-family="sans-serif" font-size="20" lengthAdjust="spacing" textLength="112" x="28" y="246.9082">taxNumber</text><rect fill="none" height="6" style="stroke:#C82930;stroke-width:1.0;" width="6" x="15" y="261.7656"/><text fill="#000000" font-family="sans-serif" font-size="20" lengthAdjust="spacing" textLength="78" x="28" y="270.1895">address</text><rect fill="none" height="6" style="stroke:#C82930;stroke-width:1.0;" width="6" x="15" y="285.0469"/><text fill="#000000" font-family="sans-serif" font-size="20" lengthAdjust="spacing" textLength="56" x="28" y="293.4707">email</text><rect fill="none" height="6" style="stroke:#C82930;stroke-width:1.0;" width="6" x="15" y="308.3281"/><text fill="#000000" font-family="sans-serif" font-size="20" lengthAdjust="spacing" textLength="144" x="28" y="316.752">phoneNumber</text><rect fill="none" height="6" style="stroke:#C82930;stroke-width:1.0;" width="6" x="15" y="331.6094"/><text fill="#000000" font-family="sans-serif" font-size="20" lengthAdjust="spacing" textLength="95" x="28" y="340.0332">password</text></g><!--class Property--><g id="elem_Property"><rect codeLine="28" fill="#FFDAB9" height="180.9688" id="Property" rx="2.5" ry="2.5" style="stroke:#4169E1;stroke-width:0.5;" width="270" x="690" y="83"/><text fill="#000000" font-family="sans-serif" font-size="20" lengthAdjust="spacing" textLength="84" x="783" y="106.5645">Property</text><line style="stroke:#4169E1;stroke-width:0.5;" x1="691" x2="959" y1="116.2813" y2="116.2813"/><rect fill="none" height="6" style="stroke:#C82930;stroke-width:1.0;" width="6" x="698" y="130.4219"/><text fill="#000000" font-family="sans-serif" font-size="20" lengthAdjust="spacing" textLength="44" x="711" y="138.8457">type</text><rect fill="none" height="6" style="stroke:#C82930;stroke-width:1.0;" width="6" x="698" y="153.7031"/><text fill="#000000" font-family="sans-serif" font-size="20" lengthAdjust="spacing" textLength="44" x="711" y="162.127">area</text><rect fill="none" height="6" style="stroke:#C82930;stroke-width:1.0;" width="6" x="698" y="176.9844"/><text fill="#000000" font-family="sans-serif" font-size="20" lengthAdjust="spacing" textLength="80" x="711" y="185.4082">location</text><rect fill="none" height="6" style="stroke:#C82930;stroke-width:1.0;" width="6" x="698" y="200.2656"/><text fill="#000000" font-family="sans-serif" font-size="20" lengthAdjust="spacing" textLength="243" x="711" y="208.6895">distanceFromCityCenter</text><rect fill="none" height="6" style="stroke:#C82930;stroke-width:1.0;" width="6" x="698" y="223.5469"/><text fill="#000000" font-family="sans-serif" font-size="20" lengthAdjust="spacing" textLength="157" x="711" y="231.9707">requested price</text><rect fill="none" height="6" style="stroke:#C82930;stroke-width:1.0;" width="6" x="698" y="246.8281"/><text fill="#000000" font-family="sans-serif" font-size="20" lengthAdjust="spacing" textLength="127" x="711" y="255.252">photographs</text></g><!--class Home--><g id="elem_Home"><rect codeLine="37" fill="#FFDAB9" height="134.4063" id="Home" rx="2.5" ry="2.5" style="stroke:#4169E1;stroke-width:0.5;" width="266" x="1056" y="30.5"/><text fill="#000000" font-family="sans-serif" font-size="20" lengthAdjust="spacing" textLength="59" x="1159.5" y="54.0645">Home</text><line style="stroke:#4169E1;stroke-width:0.5;" x1="1057" x2="1321" y1="63.7813" y2="63.7813"/><rect fill="none" height="6" style="stroke:#C82930;stroke-width:1.0;" width="6" x="1064" y="77.9219"/><text fill="#000000" font-family="sans-serif" font-size="20" lengthAdjust="spacing" textLength="202" x="1077" y="86.3457">numberOfbedrooms</text><rect fill="none" height="6" style="stroke:#C82930;stroke-width:1.0;" width="6" x="1064" y="101.2031"/><text fill="#000000" font-family="sans-serif" font-size="20" lengthAdjust="spacing" textLength="210" x="1077" y="109.627">numberOfbathrooms</text><rect fill="none" height="6" style="stroke:#C82930;stroke-width:1.0;" width="6" x="1064" y="124.4844"/><text fill="#000000" font-family="sans-serif" font-size="20" lengthAdjust="spacing" textLength="239" x="1077" y="132.9082">numberOfParkingSpace</text><rect fill="none" height="6" style="stroke:#C82930;stroke-width:1.0;" width="6" x="1064" y="147.7656"/><text fill="#000000" font-family="sans-serif" font-size="20" lengthAdjust="spacing" textLength="201" x="1077" y="156.1895">availableEquipment</text></g><!--class Land--><g id="elem_Land"><rect codeLine="43" fill="#FFDAB9" height="41.2813" id="Land" rx="2.5" ry="2.5" style="stroke:#4169E1;stroke-width:0.5;" width="55" x="1161.5" y="200"/><text fill="#000000" font-family="sans-serif" font-size="20" lengthAdjust="spacing" textLength="49" x="1164.5" y="223.5645">Land</text><line style="stroke:#4169E1;stroke-width:0.5;" x1="1162.5" x2="1215.5" y1="233.2813" y2="233.2813"/></g><!--class Apartment--><g id="elem_Apartment"><rect codeLine="46" fill="#FFDAB9" height="41.2813" id="Apartment" rx="2.5" ry="2.5" style="stroke:#4169E1;stroke-width:0.5;" width="114" x="1450.5" y="22"/><text fill="#000000" font-family="sans-serif" font-size="20" lengthAdjust="spacing" textLength="108" x="1453.5" y="45.5645">Apartment</text><line style="stroke:#4169E1;stroke-width:0.5;" x1="1451.5" x2="1563.5" y1="55.2813" y2="55.2813"/></g><!--class House--><g id="elem_House"><rect codeLine="49" fill="#FFDAB9" height="111.125" id="House" rx="2.5" ry="2.5" style="stroke:#4169E1;stroke-width:0.5;" width="179" x="1418" y="98"/><text fill="#000000" font-family="sans-serif" font-size="20" lengthAdjust="spacing" textLength="62" x="1476.5" y="121.5645">House</text><line style="stroke:#4169E1;stroke-width:0.5;" x1="1419" x2="1596" y1="131.2813" y2="131.2813"/><rect fill="none" height="6" style="stroke:#C82930;stroke-width:1.0;" width="6" x="1426" y="145.4219"/><text fill="#000000" font-family="sans-serif" font-size="20" lengthAdjust="spacing" textLength="100" x="1439" y="153.8457">basement</text><rect fill="none" height="6" style="stroke:#C82930;stroke-width:1.0;" width="6" x="1426" y="168.7031"/><text fill="#000000" font-family="sans-serif" font-size="20" lengthAdjust="spacing" textLength="152" x="1439" y="177.127">inhabitableLoft</text><rect fill="none" height="6" style="stroke:#C82930;stroke-width:1.0;" width="6" x="1426" y="191.9844"/><text fill="#000000" font-family="sans-serif" font-size="20" lengthAdjust="spacing" textLength="128" x="1439" y="200.4082">sunExposure</text></g><!--class Anouncement--><g id="elem_Anouncement"><rect codeLine="54" fill="#FFDAB9" height="64.5625" id="Anouncement" rx="2.5" ry="2.5" style="stroke:#4169E1;stroke-width:0.5;" width="147" x="387" y="214"/><text fill="#000000" font-family="sans-serif" font-size="20" lengthAdjust="spacing" textLength="141" x="390" y="237.5645">Anouncement</text><line style="stroke:#4169E1;stroke-width:0.5;" x1="388" x2="533" y1="247.2813" y2="247.2813"/><rect fill="none" height="6" style="stroke:#C82930;stroke-width:1.0;" width="6" x="395" y="261.4219"/><text fill="#000000" font-family="sans-serif" font-size="20" lengthAdjust="spacing" textLength="50" x="408" y="269.8457">state</text></g><!--class Sale--><g id="elem_Sale"><rect codeLine="57" fill="#FFDAB9" height="41.2813" id="Sale" rx="2.5" ry="2.5" style="stroke:#4169E1;stroke-width:0.5;" width="49" x="800.5" y="299"/><text fill="#000000" font-family="sans-serif" font-size="20" lengthAdjust="spacing" textLength="43" x="803.5" y="322.5645">Sale</text><line style="stroke:#4169E1;stroke-width:0.5;" x1="801.5" x2="848.5" y1="332.2813" y2="332.2813"/></g><!--class Lease--><g id="elem_Lease"><rect codeLine="60" fill="#FFDAB9" height="64.5625" id="Lease" rx="2.5" ry="2.5" style="stroke:#4169E1;stroke-width:0.5;" width="197" x="726.5" y="375"/><text fill="#000000" font-family="sans-serif" font-size="20" lengthAdjust="spacing" textLength="57" x="796.5" y="398.5645">Lease</text><line style="stroke:#4169E1;stroke-width:0.5;" x1="727.5" x2="922.5" y1="408.2813" y2="408.2813"/><rect fill="none" height="6" style="stroke:#C82930;stroke-width:1.0;" width="6" x="734.5" y="422.4219"/><text fill="#000000" font-family="sans-serif" font-size="20" lengthAdjust="spacing" textLength="170" x="747.5" y="430.8457">contractDuration</text></g><!--link PO to Anouncement--><g id="link_PO_Anouncement"><path codeLine="65" d="M229.08,246.5 C280.76,246.5 340.94,246.5 386.83,246.5 " fill="none" id="PO-Anouncement" style="stroke:#4169E1;stroke-width:1.0;"/><polygon fill="#000000" points="275,234.1406,260.5279,229.4383,260.5279,238.8429,275,234.1406" style="stroke:#000000;stroke-width:1.0;"/><text fill="#000000" font-family="sans-serif" font-size="20" lengthAdjust="spacing" textLength="76" x="280" y="241.0645">request</text><text fill="#000000" font-family="sans-serif" font-size="20" lengthAdjust="spacing" textLength="13" x="236.9799" y="265.8382">1</text><text fill="#000000" font-family="sans-serif" font-size="20" lengthAdjust="spacing" textLength="13" x="365.9383" y="266.2319">1</text></g><!--link Anouncement to Sale--><g id="link_Anouncement_Sale"><path codeLine="68" d="M534.25,269.8 C544.19,272.61 554.31,275.26 564,277.5 C650.21,297.41 754.64,311.22 800.49,316.77 " fill="none" id="Anouncement-Sale" style="stroke:#4169E1;stroke-width:1.0;"/><polygon fill="#000000" points="583.3783,266.5305,569.9433,259.3854,568.3093,268.6469,583.3783,266.5305" style="stroke:#000000;stroke-width:1.0;"/><text fill="#000000" font-family="sans-serif" font-size="20" lengthAdjust="spacing" textLength="67" x="588.5" y="272.0645">can be</text><text fill="#000000" font-family="sans-serif" font-size="20" lengthAdjust="spacing" textLength="13" x="541.8988" y="291.7156">1</text><text fill="#000000" font-family="sans-serif" font-size="20" lengthAdjust="spacing" textLength="13" x="779.5437" y="337.5818">1</text></g><!--link Anouncement to Lease--><g id="link_Anouncement_Lease"><path codeLine="69" d="M495.67,279.32 C514.57,296 539.2,315.44 564,328.5 C614.82,355.27 676.11,374.45 726.41,387.2 " fill="none" id="Anouncement-Lease" style="stroke:#4169E1;stroke-width:1.0;"/><polygon fill="#000000" points="582.747,319.5289,571.6286,309.1397,567.6454,317.6592,582.747,319.5289" style="stroke:#000000;stroke-width:1.0;"/><text fill="#000000" font-family="sans-serif" font-size="20" lengthAdjust="spacing" textLength="67" x="588.5" y="323.0645">can be</text><text fill="#000000" font-family="sans-serif" font-size="20" lengthAdjust="spacing" textLength="13" x="487.2393" y="305.0052">1</text><text fill="#000000" font-family="sans-serif" font-size="20" lengthAdjust="spacing" textLength="13" x="705.364" y="405.1182">1</text></g><!--link Anouncement to Property--><g id="link_Anouncement_Property"><path codeLine="71" d="M534.42,231.82 C578.98,222.84 637.32,211.09 689.96,200.49 " fill="none" id="Anouncement-Property" style="stroke:#4169E1;stroke-width:1.0;"/><polygon fill="#000000" points="599.3425,193.5609,584.2268,191.8089,586.0838,201.0283,599.3425,193.5609" style="stroke:#000000;stroke-width:1.0;"/><text fill="#000000" font-family="sans-serif" font-size="20" lengthAdjust="spacing" textLength="35" x="604.5" y="202.0645">has</text><text fill="#000000" font-family="sans-serif" font-size="20" lengthAdjust="spacing" textLength="13" x="542.085" y="250.1156">1</text><text fill="#000000" font-family="sans-serif" font-size="20" lengthAdjust="spacing" textLength="13" x="669.2195" y="221.1679">1</text></g><!--link Anouncement to Agent--><g id="link_Anouncement_Agent"><path codeLine="72" d="M493.77,213.99 C535.56,173.63 612.29,105.28 690,65.5 C722.72,48.75 763.82,38.5 791.82,32.93 " fill="none" id="Anouncement-Agent" style="stroke:#4169E1;stroke-width:1.0;"/><polygon fill="#000000" points="578.8373,67.9871,564.0272,71.482,568.9099,79.5197,578.8373,67.9871" style="stroke:#000000;stroke-width:1.0;"/><text fill="#000000" font-family="sans-serif" font-size="20" lengthAdjust="spacing" textLength="74" x="585" y="79.0645">send to</text><text fill="#000000" font-family="sans-serif" font-size="20" lengthAdjust="spacing" textLength="13" x="485.873" y="201.2336">1</text><text fill="#000000" font-family="sans-serif" font-size="20" lengthAdjust="spacing" textLength="13" x="771.008" y="54.8275">1</text></g><!--reverse link Property to Land--><g id="link_Property_Land"><path codeLine="74" d="M980.17,193.52 C1048.85,202.43 1122.8,212.04 1161.28,217.03 " fill="none" id="Property-backto-Land" style="stroke:#4169E1;stroke-width:1.0;"/><polygon fill="none" points="978.96,200.42,960.02,190.9,980.76,186.53,978.96,200.42" style="stroke:#4169E1;stroke-width:1.0;"/><text fill="#000000" font-family="sans-serif" font-size="20" lengthAdjust="spacing" textLength="34" x="991" y="190.0645">is a</text></g><!--reverse link Property to Home--><g id="link_Property_Home"><path codeLine="75" d="M979.69,141.23 C1005.03,135.91 1031.11,130.44 1055.87,125.24 " fill="none" id="Property-backto-Home" style="stroke:#4169E1;stroke-width:1.0;"/><polygon fill="none" points="981.04,148.1,960.02,145.36,978.16,134.4,981.04,148.1" style="stroke:#4169E1;stroke-width:1.0;"/><text fill="#000000" font-family="sans-serif" font-size="20" lengthAdjust="spacing" textLength="34" x="991" y="127.0645">is a</text></g><!--reverse link Home to Apartment--><g id="link_Home_Apartment"><path codeLine="76" d="M1342.18,71.06 C1380.78,64.35 1419.87,57.55 1450.24,52.28 " fill="none" id="Home-backto-Apartment" style="stroke:#4169E1;stroke-width:1.0;"/><polygon fill="none" points="1343.29,77.97,1322.39,74.49,1340.9,64.17,1343.29,77.97" style="stroke:#4169E1;stroke-width:1.0;"/><text fill="#000000" font-family="sans-serif" font-size="20" lengthAdjust="spacing" textLength="34" x="1353" y="57.0645">is a</text></g><!--reverse link Home to House--><g id="link_Home_House"><path codeLine="77" d="M1342.14,124.42 C1368.08,129.01 1394.24,133.64 1417.82,137.81 " fill="none" id="Home-backto-House" style="stroke:#4169E1;stroke-width:1.0;"/><polygon fill="none" points="1340.87,131.3,1322.39,120.92,1343.3,117.52,1340.87,131.3" style="stroke:#4169E1;stroke-width:1.0;"/><text fill="#000000" font-family="sans-serif" font-size="20" lengthAdjust="spacing" textLength="34" x="1353" y="121.0645">is a</text></g><!--SRC=[TLHDRzim3BthLn2vv9IYsx4O0gHPYmuerc3v1RH4sq9joQNafLcx_pv6_eYJ9RfO99_89_B9uTMw1XdhokjNCc0enxQAZzx5hVr3yFLMpSE0WTexhqlsDK7abjGnqg1-nOAsSLyHCEc8hgYcW52YyJlh2iYn2ZJDMbb7STyGU8wbLnNb4Q87jaKPmTX3DklTz8IkC8HLZ6opDj8FxLqYUwjAQmYqPIsrqxucIMc2cY-6zMY5OH2UmcLqghFSyA50rhtSgc3VEhFsbMVO4Efoq-PvYgwO_QuB_F9xhEuhQKawvjaGdqV-JaZ8-bpfw3byBiwMwWYi2dBnGycfpfvjs3V4SGylEqSy0momUUbvBi1XJVrMsoZDS6jayxEjC-BU7_7zn4PZc4BeBQhHLls-ARsZ4smZ57Pogv7Eo6OWS1ZWa9W9eT-Bh31DhpED3Q8CJO-YeRMD-xLSSYp2zDPIYAB2XgqcEBA9lc1iod1inzD1W-Fb4zMNF2F3tjVXt8snlEJV8ClKYwreTwJ-Mxg0MKKFRwrjQc4tLdn6PoRpM8bQOdqweoVV1Xf8PHWe9UXCwqhCR3paVlRvu0sjUtXlV6YPZfcT24vJbxk7HOn7m1OhcbHz9Xohoak8Z3f-Rxbh-vde-YKmrxsgy7zGpPF2bAXhzcK6YqNwJ5Z1tJ0gM2erdqJK53Kvd2ZBCOqECe8bN0McovmWhq571Tv1AMzXUGsN7fA00Zbp-AqiBtPaKHBBT0gw55CtOx5lybxXvg05IMa3YD3FWqcQNL1rHkSV5NCfcAGp19Jw1m00]--></g></svg>