<?xml version="1.0" encoding="UTF-8" standalone="no"?><svg xmlns="http://www.w3.org/2000/svg" xmlns:xlink="http://www.w3.org/1999/xlink" contentStyleType="text/css" height="879px" preserveAspectRatio="none" style="width:824px;height:879px;background:#FFFFFF;" version="1.1" viewBox="0 0 824 879" width="824px" zoomAndPan="magnify"><defs/><g><!--class Property--><g id="elem_Property"><rect codeLine="16" fill="#FFDAB9" height="143.7813" id="Property" rx="2.5" ry="2.5" style="stroke:#4169E1;stroke-width:0.5;" width="239" x="122" y="292"/><text fill="#000000" font-family="sans-serif" font-size="20" lengthAdjust="spacing" textLength="76" x="203.5" y="317.7617">Property</text><line style="stroke:#4169E1;stroke-width:0.5;" x1="123" x2="360" y1="327.1563" y2="327.1563"/><rect fill="none" height="6" style="stroke:#C82930;stroke-width:1.0;" width="6" x="130" y="342.2344"/><text fill="#000000" font-family="sans-serif" font-size="20" lengthAdjust="spacing" textLength="38" x="143" y="351.918">type</text><rect fill="none" height="6" style="stroke:#C82930;stroke-width:1.0;" width="6" x="130" y="367.3906"/><text fill="#000000" font-family="sans-serif" font-size="20" lengthAdjust="spacing" textLength="40" x="143" y="377.0742">area</text><rect fill="none" height="6" style="stroke:#C82930;stroke-width:1.0;" width="6" x="130" y="392.5469"/><text fill="#000000" font-family="sans-serif" font-size="20" lengthAdjust="spacing" textLength="212" x="143" y="402.2305">distanceFromCityCenter</text><rect fill="none" height="6" style="stroke:#C82930;stroke-width:1.0;" width="6" x="130" y="417.7031"/><text fill="#000000" font-family="sans-serif" font-size="20" lengthAdjust="spacing" textLength="87" x="143" y="427.3867">photoURL</text></g><!--class Home--><g id="elem_Home"><rect codeLine="23" fill="#FFDAB9" height="143.7813" id="Home" rx="2.5" ry="2.5" style="stroke:#4169E1;stroke-width:0.5;" width="236" x="492.5" y="523"/><text fill="#000000" font-family="sans-serif" font-size="20" lengthAdjust="spacing" textLength="51" x="585" y="548.7617">Home</text><line style="stroke:#4169E1;stroke-width:0.5;" x1="493.5" x2="727.5" y1="558.1563" y2="558.1563"/><rect fill="none" height="6" style="stroke:#C82930;stroke-width:1.0;" width="6" x="500.5" y="573.2344"/><text fill="#000000" font-family="sans-serif" font-size="20" lengthAdjust="spacing" textLength="175" x="513.5" y="582.918">numberOfbedrooms</text><rect fill="none" height="6" style="stroke:#C82930;stroke-width:1.0;" width="6" x="500.5" y="598.3906"/><text fill="#000000" font-family="sans-serif" font-size="20" lengthAdjust="spacing" textLength="180" x="513.5" y="608.0742">numberOfbathrooms</text><rect fill="none" height="6" style="stroke:#C82930;stroke-width:1.0;" width="6" x="500.5" y="623.5469"/><text fill="#000000" font-family="sans-serif" font-size="20" lengthAdjust="spacing" textLength="209" x="513.5" y="633.2305">numberOfParkingSpace</text><rect fill="none" height="6" style="stroke:#C82930;stroke-width:1.0;" width="6" x="500.5" y="648.7031"/><text fill="#000000" font-family="sans-serif" font-size="20" lengthAdjust="spacing" textLength="168" x="513.5" y="658.3867">availableEquipment</text></g><!--class Land--><g id="elem_Land"><rect codeLine="29" fill="#FFDAB9" height="43.1563" id="Land" rx="2.5" ry="2.5" style="stroke:#4169E1;stroke-width:0.5;" width="49" x="136" y="573.5"/><text fill="#000000" font-family="sans-serif" font-size="20" lengthAdjust="spacing" textLength="43" x="139" y="599.2617">Land</text><line style="stroke:#4169E1;stroke-width:0.5;" x1="137" x2="184" y1="608.6563" y2="608.6563"/></g><!--class Apartment--><g id="elem_Apartment"><rect codeLine="32" fill="#FFDAB9" height="43.1563" id="Apartment" rx="2.5" ry="2.5" style="stroke:#4169E1;stroke-width:0.5;" width="97" x="720" y="792"/><text fill="#000000" font-family="sans-serif" font-size="20" lengthAdjust="spacing" textLength="91" x="723" y="817.7617">Apartment</text><line style="stroke:#4169E1;stroke-width:0.5;" x1="721" x2="816" y1="827.1563" y2="827.1563"/></g><!--class House--><g id="elem_House"><rect codeLine="35" fill="#FFDAB9" height="118.625" id="House" rx="2.5" ry="2.5" style="stroke:#4169E1;stroke-width:0.5;" width="154" x="530.5" y="754"/><text fill="#000000" font-family="sans-serif" font-size="20" lengthAdjust="spacing" textLength="55" x="580" y="779.7617">House</text><line style="stroke:#4169E1;stroke-width:0.5;" x1="531.5" x2="683.5" y1="789.1563" y2="789.1563"/><rect fill="none" height="6" style="stroke:#C82930;stroke-width:1.0;" width="6" x="538.5" y="804.2344"/><text fill="#000000" font-family="sans-serif" font-size="20" lengthAdjust="spacing" textLength="86" x="551.5" y="813.918">basement</text><rect fill="none" height="6" style="stroke:#C82930;stroke-width:1.0;" width="6" x="538.5" y="829.3906"/><text fill="#000000" font-family="sans-serif" font-size="20" lengthAdjust="spacing" textLength="127" x="551.5" y="839.0742">inhabitableLoft</text><rect fill="none" height="6" style="stroke:#C82930;stroke-width:1.0;" width="6" x="538.5" y="854.5469"/><text fill="#000000" font-family="sans-serif" font-size="20" lengthAdjust="spacing" textLength="112" x="551.5" y="864.2305">sunExposure</text></g><!--class Announcement--><g id="elem_Announcement"><rect codeLine="40" fill="#FFDAB9" height="68.3125" id="Announcement" rx="2.5" ry="2.5" style="stroke:#4169E1;stroke-width:0.5;" width="134" x="197.5" y="137"/><text fill="#000000" font-family="sans-serif" font-size="20" lengthAdjust="spacing" textLength="128" x="200.5" y="162.7617">Announcement</text><line style="stroke:#4169E1;stroke-width:0.5;" x1="198.5" x2="330.5" y1="172.1563" y2="172.1563"/><rect fill="none" height="6" style="stroke:#C82930;stroke-width:1.0;" width="6" x="205.5" y="187.2344"/><text fill="#000000" font-family="sans-serif" font-size="20" lengthAdjust="spacing" textLength="44" x="218.5" y="196.918">state</text></g><!--class Visit--><g id="elem_Visit"><rect codeLine="44" fill="#FFDAB9" height="43.1563" id="Visit" rx="2.5" ry="2.5" style="stroke:#4169E1;stroke-width:0.5;" width="43" x="32" y="573.5"/><text fill="#000000" font-family="sans-serif" font-size="20" lengthAdjust="spacing" textLength="37" x="35" y="599.2617">Visit</text><line style="stroke:#4169E1;stroke-width:0.5;" x1="33" x2="74" y1="608.6563" y2="608.6563"/></g><!--class Prediction--><g id="elem_Prediction"><rect codeLine="49" fill="#FFDAB9" height="68.3125" id="Prediction" rx="2.5" ry="2.5" style="stroke:#4169E1;stroke-width:0.5;" width="93" x="7" y="779.5"/><text fill="#000000" font-family="sans-serif" font-size="20" lengthAdjust="spacing" textLength="87" x="10" y="805.2617">Prediction</text><line style="stroke:#4169E1;stroke-width:0.5;" x1="8" x2="99" y1="814.6563" y2="814.6563"/><rect fill="none" height="6" style="stroke:#C82930;stroke-width:1.0;" width="6" x="15" y="829.7344"/><text fill="#000000" font-family="sans-serif" font-size="20" lengthAdjust="spacing" textLength="45" x="28" y="839.418">value</text></g><!--class Order--><g id="elem_Order"><rect codeLine="53" fill="#FFDAB9" height="43.1563" id="Order" rx="2.5" ry="2.5" style="stroke:#4169E1;stroke-width:0.5;" width="58" x="396.5" y="342.5"/><text fill="#000000" font-family="sans-serif" font-size="20" lengthAdjust="spacing" textLength="52" x="399.5" y="368.2617">Order</text><line style="stroke:#4169E1;stroke-width:0.5;" x1="397.5" x2="453.5" y1="377.6563" y2="377.6563"/></g><!--class Address--><g id="elem_Address"><rect codeLine="56" fill="#FFDAB9" height="143.7813" id="Address" rx="2.5" ry="2.5" style="stroke:#4169E1;stroke-width:0.5;" width="94" x="220.5" y="523"/><text fill="#000000" font-family="sans-serif" font-size="20" lengthAdjust="spacing" textLength="73" x="231" y="548.7617">Address</text><line style="stroke:#4169E1;stroke-width:0.5;" x1="221.5" x2="313.5" y1="558.1563" y2="558.1563"/><rect fill="none" height="6" style="stroke:#C82930;stroke-width:1.0;" width="6" x="228.5" y="573.2344"/><text fill="#000000" font-family="sans-serif" font-size="20" lengthAdjust="spacing" textLength="51" x="241.5" y="582.918">street</text><rect fill="none" height="6" style="stroke:#C82930;stroke-width:1.0;" width="6" x="228.5" y="598.3906"/><text fill="#000000" font-family="sans-serif" font-size="20" lengthAdjust="spacing" textLength="30" x="241.5" y="608.0742">city</text><rect fill="none" height="6" style="stroke:#C82930;stroke-width:1.0;" width="6" x="228.5" y="623.5469"/><text fill="#000000" font-family="sans-serif" font-size="20" lengthAdjust="spacing" textLength="44" x="241.5" y="633.2305">state</text><rect fill="none" height="6" style="stroke:#C82930;stroke-width:1.0;" width="6" x="228.5" y="648.7031"/><text fill="#000000" font-family="sans-serif" font-size="20" lengthAdjust="spacing" textLength="67" x="241.5" y="658.3867">zipcode</text></g><!--class Deal--><g id="elem_Deal"><rect codeLine="63" fill="#FFDAB9" height="68.3125" id="Deal" rx="2.5" ry="2.5" style="stroke:#4169E1;stroke-width:0.5;" width="108" x="349.5" y="561"/><text fill="#000000" font-family="sans-serif" font-size="20" lengthAdjust="spacing" textLength="40" x="383.5" y="586.7617">Deal</text><line style="stroke:#4169E1;stroke-width:0.5;" x1="350.5" x2="456.5" y1="596.1563" y2="596.1563"/><rect fill="none" height="6" style="stroke:#C82930;stroke-width:1.0;" width="6" x="357.5" y="611.2344"/><text fill="#000000" font-family="sans-serif" font-size="20" lengthAdjust="spacing" textLength="81" x="370.5" y="620.918">dealType</text></g><!--class Sale--><g id="elem_Sale"><rect codeLine="66" fill="#FFDAB9" height="68.3125" id="Sale" rx="2.5" ry="2.5" style="stroke:#4169E1;stroke-width:0.5;" width="146" x="346.5" y="779.5"/><text fill="#000000" font-family="sans-serif" font-size="20" lengthAdjust="spacing" textLength="39" x="400" y="805.2617">Sale</text><line style="stroke:#4169E1;stroke-width:0.5;" x1="347.5" x2="491.5" y1="814.6563" y2="814.6563"/><rect fill="none" height="6" style="stroke:#C82930;stroke-width:1.0;" width="6" x="354.5" y="829.7344"/><text fill="#000000" font-family="sans-serif" font-size="20" lengthAdjust="spacing" textLength="119" x="367.5" y="839.418">propertyPrice</text></g><!--class Rent--><g id="elem_Rent"><rect codeLine="69" fill="#FFDAB9" height="93.4688" id="Rent" rx="2.5" ry="2.5" style="stroke:#4169E1;stroke-width:0.5;" width="171" x="140" y="767"/><text fill="#000000" font-family="sans-serif" font-size="20" lengthAdjust="spacing" textLength="41" x="205" y="792.7617">Rent</text><line style="stroke:#4169E1;stroke-width:0.5;" x1="141" x2="310" y1="802.1563" y2="802.1563"/><rect fill="none" height="6" style="stroke:#C82930;stroke-width:1.0;" width="6" x="148" y="817.2344"/><text fill="#000000" font-family="sans-serif" font-size="20" lengthAdjust="spacing" textLength="115" x="161" y="826.918">propertyRent</text><rect fill="none" height="6" style="stroke:#C82930;stroke-width:1.0;" width="6" x="148" y="842.3906"/><text fill="#000000" font-family="sans-serif" font-size="20" lengthAdjust="spacing" textLength="144" x="161" y="852.0742">contractDuration</text></g><!--class Client--><g id="elem_Client"><rect fill="#FFDAB9" height="43.1563" id="Client" rx="2.5" ry="2.5" style="stroke:#4169E1;stroke-width:0.5;" width="55" x="237" y="7"/><text fill="#000000" font-family="sans-serif" font-size="20" lengthAdjust="spacing" textLength="49" x="240" y="32.7617">Client</text><line style="stroke:#4169E1;stroke-width:0.5;" x1="238" x2="291" y1="42.1563" y2="42.1563"/></g><!--link Announcement to Property--><g id="link_Announcement_Property"><path codeLine="75" d="M254.14,205.06 C251.53,214.63 249.04,225.15 247.5,235 C244.63,253.35 242.99,273.35 242.09,291.97 " fill="none" id="Announcement-Property" style="stroke:#4169E1;stroke-width:1.0;"/><polygon fill="#000000" points="254.4013,256.5023,261.0466,242.8131,251.7311,241.5215,254.4013,256.5023" style="stroke:#000000;stroke-width:1.0;"/><text fill="#000000" font-family="sans-serif" font-size="20" lengthAdjust="spacing" textLength="31" x="268.5" y="256.7617">has</text><text fill="#000000" font-family="sans-serif" font-size="20" lengthAdjust="spacing" textLength="11" x="240.3149" y="234.1013">1</text><text fill="#000000" font-family="sans-serif" font-size="20" lengthAdjust="spacing" textLength="11" x="230.622" y="279.6928">1</text></g><!--link Client to Visit--><g id="link_Client_Visit"><path codeLine="80" d="M245.79,50.3 C227.51,71.24 199.59,104.95 179.5,137 C138.86,201.85 127.77,219.09 104.5,292 C71.76,394.58 58.9,523.84 54.96,573.38 " fill="none" id="Client-Visit" style="stroke:#4169E1;stroke-width:1.0;"/><polygon fill="#000000" points="130.7582,256.0936,140.1357,244.1096,131.3007,240.8864,130.7582,256.0936" style="stroke:#000000;stroke-width:1.0;"/><text fill="#000000" font-family="sans-serif" font-size="20" lengthAdjust="spacing" textLength="77" x="146.5" y="256.7617">schedule</text><text fill="#000000" font-family="sans-serif" font-size="20" lengthAdjust="spacing" textLength="11" x="229.1914" y="78.9936">1</text><text fill="#000000" font-family="sans-serif" font-size="20" lengthAdjust="spacing" textLength="11" x="43.0258" y="561.2515">1</text></g><!--link Client to Announcement--><g id="link_Client_Announcement"><path codeLine="81" d="M264.5,50.23 C264.5,73.05 264.5,110.07 264.5,136.91 " fill="none" id="Client-Announcement" style="stroke:#4169E1;stroke-width:1.0;"/><polygon fill="#000000" points="272.5,101.5781,277.2023,87.106,267.7977,87.106,272.5,101.5781" style="stroke:#000000;stroke-width:1.0;"/><text fill="#000000" font-family="sans-serif" font-size="20" lengthAdjust="spacing" textLength="32" x="285.5" y="101.7617">see</text><text fill="#000000" font-family="sans-serif" font-size="20" lengthAdjust="spacing" textLength="11" x="252.2281" y="78.9074">1</text><text fill="#000000" font-family="sans-serif" font-size="20" lengthAdjust="spacing" textLength="8" x="255.8125" y="124.6506">*</text></g><!--link Client to Order--><g id="link_Client_Order"><path codeLine="82" d="M292.13,47.88 C303.78,56.61 316.86,67.8 326.5,80 C373.96,140.03 377.57,162.31 401.5,235 C413.59,271.72 420.24,316.5 423.32,342.18 " fill="none" id="Client-Order" style="stroke:#4169E1;stroke-width:1.0;"/><polygon fill="#000000" points="402.7572,178.385,401.1598,163.2522,392.57,167.0813,402.7572,178.385" style="stroke:#000000;stroke-width:1.0;"/><text fill="#000000" font-family="sans-serif" font-size="20" lengthAdjust="spacing" textLength="66" x="412.5" y="179.2617">request</text><text fill="#000000" font-family="sans-serif" font-size="20" lengthAdjust="spacing" textLength="11" x="300.2054" y="45.3187">1</text><text fill="#000000" font-family="sans-serif" font-size="20" lengthAdjust="spacing" textLength="31" x="426.4002" y="330.0052">1..*</text></g><!--link Property to Visit--><g id="link_Property_Visit"><path codeLine="85" d="M165.33,436.07 C155.97,445.83 146.8,455.96 138.5,466 C109.27,501.37 80.95,546.99 65.51,573.12 " fill="none" id="Property-Visit" style="stroke:#4169E1;stroke-width:1.0;"/><polygon fill="#000000" points="141.7901,486.0447,154.1114,477.115,146.5094,471.5781,141.7901,486.0447" style="stroke:#000000;stroke-width:1.0;"/><text fill="#000000" font-family="sans-serif" font-size="20" lengthAdjust="spacing" textLength="31" x="159.5" y="487.7617">has</text><text fill="#000000" font-family="sans-serif" font-size="20" lengthAdjust="spacing" textLength="11" x="146.801" y="464.6453">1</text><text fill="#000000" font-family="sans-serif" font-size="20" lengthAdjust="spacing" textLength="8" x="59.3623" y="560.9313">*</text></g><!--link Property to Address--><g id="link_Property_Address"><path codeLine="86" d="M249.58,436.2 C252.71,463.77 256.29,495.27 259.42,522.84 " fill="none" id="Property-Address" style="stroke:#4169E1;stroke-width:1.0;"/><polygon fill="#000000" points="264.4028,487.527,267.4419,472.6167,258.0974,473.678,264.4028,487.527" style="stroke:#000000;stroke-width:1.0;"/><text fill="#000000" font-family="sans-serif" font-size="20" lengthAdjust="spacing" textLength="31" x="276.5" y="487.7617">has</text><text fill="#000000" font-family="sans-serif" font-size="20" lengthAdjust="spacing" textLength="11" x="238.8098" y="464.522">1</text><text fill="#000000" font-family="sans-serif" font-size="20" lengthAdjust="spacing" textLength="11" x="247.1257" y="510.5504">1</text></g><!--link Visit to Prediction--><g id="link_Visit_Prediction"><path codeLine="89" d="M53.5,616.76 C53.5,654.33 53.5,733.9 53.5,779.17 " fill="none" id="Visit-Prediction" style="stroke:#4169E1;stroke-width:1.0;"/><polygon fill="#000000" points="61.5,718.5781,66.2023,704.106,56.7977,704.106,61.5,718.5781" style="stroke:#000000;stroke-width:1.0;"/><text fill="#000000" font-family="sans-serif" font-size="20" lengthAdjust="spacing" textLength="31" x="74.5" y="718.7617">has</text><text fill="#000000" font-family="sans-serif" font-size="20" lengthAdjust="spacing" textLength="11" x="41.2281" y="645.4443">1</text><text fill="#000000" font-family="sans-serif" font-size="20" lengthAdjust="spacing" textLength="11" x="41.5891" y="767.1626">1</text></g><!--link Announcement to Order--><g id="link_Announcement_Order"><path codeLine="92" d="M292.46,205.37 C307.42,222.71 326.43,244 344.5,262 C358.78,276.22 365.27,276.8 378.5,292 C392.19,307.72 405.05,327.66 413.85,342.41 " fill="none" id="Announcement-Order" style="stroke:#4169E1;stroke-width:1.0;"/><polygon fill="#000000" points="347.1954,242.5897,353.2716,256.5408,360.3114,250.3049,347.1954,242.5897" style="stroke:#000000;stroke-width:1.0;"/><text fill="#000000" font-family="sans-serif" font-size="20" lengthAdjust="spacing" textLength="31" x="365.5" y="256.7617">has</text><text fill="#000000" font-family="sans-serif" font-size="20" lengthAdjust="spacing" textLength="11" x="285.3203" y="234.1741">1</text><text fill="#000000" font-family="sans-serif" font-size="20" lengthAdjust="spacing" textLength="11" x="398.8841" y="330.2884">1</text></g><!--link Property to Deal--><g id="link_Property_Deal"><path codeLine="93" d="M294.93,436.18 C302.25,446.15 309.6,456.3 316.5,466 C339.15,497.87 364.15,534.86 381.52,560.86 " fill="none" id="Property-Deal" style="stroke:#4169E1;stroke-width:1.0;"/><polygon fill="#000000" points="346.0634,486.1489,341.6703,471.5799,333.9459,476.9445,346.0634,486.1489" style="stroke:#000000;stroke-width:1.0;"/><text fill="#000000" font-family="sans-serif" font-size="20" lengthAdjust="spacing" textLength="31" x="354.5" y="487.7617">has</text><text fill="#000000" font-family="sans-serif" font-size="20" lengthAdjust="spacing" textLength="11" x="288.1988" y="464.5002">1</text><text fill="#000000" font-family="sans-serif" font-size="20" lengthAdjust="spacing" textLength="11" x="365.7969" y="548.592">1</text></g><!--reverse link Deal to Sale--><g id="link_Deal_Sale"><path codeLine="96" d="M406.92,642.32 C409.97,683.56 414.35,742.86 417.06,779.46 " fill="none" id="Deal-backto-Sale" style="stroke:#4169E1;stroke-width:1.0;"/><polygon fill="#4169E1" points="405.96,629.35,402.4129,635.6284,406.844,641.3174,410.3911,635.039,405.96,629.35" style="stroke:#4169E1;stroke-width:1.0;"/></g><!--reverse link Deal to Rent--><g id="link_Deal_Rent"><path codeLine="97" d="M367.5,639.78 C337.19,676.65 293.98,729.2 263.2,766.64 " fill="none" id="Deal-backto-Rent" style="stroke:#4169E1;stroke-width:1.0;"/><polygon fill="#4169E1" points="376.08,629.35,369.1797,631.4443,368.4589,638.6192,375.3592,636.525,376.08,629.35" style="stroke:#4169E1;stroke-width:1.0;"/></g><!--reverse link Property to Land--><g id="link_Property_Land"><path codeLine="99" d="M209.55,455.32 C194.26,498.56 177.26,546.62 167.83,573.29 " fill="none" id="Property-backto-Land" style="stroke:#4169E1;stroke-width:1.0;"/><polygon fill="none" points="203.05,452.72,216.32,436.2,216.25,457.39,203.05,452.72" style="stroke:#4169E1;stroke-width:1.0;"/><text fill="#000000" font-family="sans-serif" font-size="20" lengthAdjust="spacing" textLength="31" x="204.5" y="487.7617">is a</text></g><!--reverse link Property to Home--><g id="link_Property_Home"><path codeLine="100" d="M373.23,446.75 C413.35,471.65 457.12,498.81 496.01,522.95 " fill="none" id="Property-backto-Home" style="stroke:#4169E1;stroke-width:1.0;"/><polygon fill="none" points="369.28,452.54,355.98,436.05,376.66,440.64,369.28,452.54" style="stroke:#4169E1;stroke-width:1.0;"/><text fill="#000000" font-family="sans-serif" font-size="20" lengthAdjust="spacing" textLength="31" x="437.5" y="487.7617">is a</text></g><!--reverse link Home to Apartment--><g id="link_Home_Apartment"><path codeLine="101" d="M674.27,683.38 C703.36,723.24 735.31,767.02 753.53,791.99 " fill="none" id="Home-backto-Apartment" style="stroke:#4169E1;stroke-width:1.0;"/><polygon fill="none" points="668.59,687.47,662.45,667.19,679.9,679.22,668.59,687.47" style="stroke:#4169E1;stroke-width:1.0;"/><text fill="#000000" font-family="sans-serif" font-size="20" lengthAdjust="spacing" textLength="31" x="704.5" y="718.7617">is a</text></g><!--reverse link Home to House--><g id="link_Home_House"><path codeLine="102" d="M609.23,687.46 C608.92,709.95 608.6,733.44 608.31,753.91 " fill="none" id="Home-backto-House" style="stroke:#4169E1;stroke-width:1.0;"/><polygon fill="none" points="602.24,687.09,609.51,667.19,616.24,687.29,602.24,687.09" style="stroke:#4169E1;stroke-width:1.0;"/><text fill="#000000" font-family="sans-serif" font-size="20" lengthAdjust="spacing" textLength="31" x="609.5" y="718.7617">is a</text></g><!--SRC=[ZLJ1Jjmm4BtxAomkaP1s1JqYX0GBg9MGMEsslNljIMBXs67iG1VAltVin4bOzj1SRCyyltb-OyS_QTiA58rnyWaKLr2ApeHxPyDMlm7_TiOAdp6ySTR96bq3F607RCgqGZw92hPXRu0Zo21iPUO0NmlbNhMjU2cCXpchqHR2lWNkCDIE5GRAm8FZgAiwSAKZdNPslaKQuVrr2AXtNO0VqjcazepLMW6N6YKLJ_C6Y5DvLYpoTwz9eYUX96OCiWDk_iuuVJTqh0fTPzNA6OTy3KBMwwuiK_OQqRtsYOtR2tDZo9EqpQ42FCnyCDPphz6rW67VrrZmUFXXAX34C5NQauiIxidlbGxx5TW0E2JRsWNtQ_F0YBKd_HwxaXbjr-m07yiTA7IkyOTX4UfZyRL0ig7QKZT7GIz26x4pSFVSwROX3MF51s7L-oJWckmB4V0-5zLvoA9smaCYw9VQrcAdG-H-S6ME-ixU_McTxn0cPckf1H9wyW4NH9XP-bjxtHUUJ0QbqyN9hho8JrruZ3tYymCeXU3zWFO10GPLakpFqLWsJTzqAvsQ4Tw2C5cUeldFsDPClXLcDA8T-hz6BIV4PdQwZDXCTj4T3oXakErGfEVmCRlJqqSmsxyN_pN9YhcLRBxW9-SdVB58GxwV_8BNmlChyfGLAwFZddwOevFr1FMo1jNHsxew19sUV6fXnC8HsFboISY-BHVq4tdkm8TOlSY2sAXiHfthzrA_86WO6ZiTfqXxMB_pqy77EpDX_ykoh3fkkZmg8jwE6MjSiXGx9K2y7TCgTVrOSnSr8BsO2exbs78iU_cNM9RnVL95xRduaaj_YvnBYpu-Fk9ZoVIQS-8V]--></g></svg>