<?xml version="1.0" encoding="UTF-8" standalone="no"?><svg xmlns="http://www.w3.org/2000/svg" xmlns:xlink="http://www.w3.org/1999/xlink" contentStyleType="text/css" height="1791px" preserveAspectRatio="none" style="width:663px;height:1791px;background:#FFFFFF;" version="1.1" viewBox="0 0 663 1791" width="663px" zoomAndPan="magnify"><defs/><g><!--class Repositories--><g id="elem_Repositories"><rect codeLine="17" fill="#FFDAB9" height="126.625" id="Repositories" rx="2.5" ry="2.5" style="stroke:#4169E1;stroke-width:0.5;" width="292" x="41" y="357"/><ellipse cx="127.5" cy="374.5781" fill="#ADD1B2" rx="12" ry="12" style="stroke:#181818;stroke-width:1.0;"/><path d="M129.6406,369.5 Q129.8281,369.25 130.0469,369.125 Q130.2656,368.9844 130.5156,368.9844 Q130.9531,368.9844 131.2344,369.2969 Q131.5156,369.5938 131.5156,370.3125 L131.5156,372.0156 Q131.5156,372.7344 131.2344,373.0469 Q130.9531,373.3594 130.5156,373.3594 Q130.125,373.3594 129.875,373.125 Q129.625,372.9063 129.5156,372.2969 Q129.4531,371.875 129.2344,371.6563 Q128.8438,371.2188 128.125,370.9531 Q127.4063,370.6875 126.6875,370.6875 Q125.7813,370.6875 125.0313,371.0781 Q124.2813,371.4688 123.7031,372.3594 Q123.125,373.2344 123.125,374.4375 L123.125,375.7344 Q123.125,377.1875 124.1719,378.1563 Q125.2344,379.125 127.0938,379.125 Q128.2031,379.125 128.9844,378.8125 Q129.4219,378.6406 129.9375,378.125 Q130.25,377.8125 130.4219,377.7188 Q130.5938,377.625 130.8281,377.625 Q131.2188,377.625 131.5156,377.9375 Q131.8281,378.2344 131.8281,378.6406 Q131.8281,379.0469 131.4219,379.5156 Q130.8281,380.2031 129.8906,380.5938 Q128.625,381.125 127.1094,381.125 Q125.3281,381.125 123.9063,380.3906 Q122.75,379.7969 121.9375,378.5313 Q121.125,377.2656 121.125,375.7813 L121.125,374.4219 Q121.125,372.8594 121.8438,371.5156 Q122.5781,370.1563 123.8594,369.4219 Q125.1563,368.6875 126.6094,368.6875 Q127.4688,368.6875 128.2188,368.8906 Q128.9844,369.0938 129.6406,369.5 Z " fill="#000000"/><text fill="#000000" font-family="sans-serif" font-size="20" lengthAdjust="spacing" textLength="110" x="149.5" y="382.7617">Repositories</text><line style="stroke:#4169E1;stroke-width:0.5;" x1="42" x2="332" y1="392.1563" y2="392.1563"/><line style="stroke:#4169E1;stroke-width:0.5;" x1="42" x2="332" y1="400.1563" y2="400.1563"/><rect fill="#F24D5C" height="6" style="stroke:#C82930;stroke-width:1.0;" width="6" x="49" y="415.2344"/><text fill="#000000" font-family="sans-serif" font-size="20" lengthAdjust="spacing" textLength="124" x="62" y="424.918">Repositories()</text><ellipse cx="52" cy="443.3906" fill="#84BE84" rx="3" ry="3" style="stroke:#038048;stroke-width:1.0;"/><text fill="#000000" font-family="sans-serif" font-size="20" lengthAdjust="spacing" textLength="244" x="62" y="450.0742">getInstance() : Repositories</text><ellipse cx="52" cy="468.5469" fill="#84BE84" rx="3" ry="3" style="stroke:#038048;stroke-width:1.0;"/><text fill="#000000" font-family="sans-serif" font-size="20" lengthAdjust="spacing" textLength="265" x="62" y="475.2305">getAnnouncementRepository()</text></g><!--class AnnouncementRepository--><g id="elem_AnnouncementRepository"><rect codeLine="23" fill="#FFDAB9" height="101.4688" id="AnnouncementRepository" rx="2.5" ry="2.5" style="stroke:#4169E1;stroke-width:0.5;" width="360" x="7" y="545"/><ellipse cx="71" cy="562.5781" fill="#ADD1B2" rx="12" ry="12" style="stroke:#181818;stroke-width:1.0;"/><path d="M73.1406,557.5 Q73.3281,557.25 73.5469,557.125 Q73.7656,556.9844 74.0156,556.9844 Q74.4531,556.9844 74.7344,557.2969 Q75.0156,557.5938 75.0156,558.3125 L75.0156,560.0156 Q75.0156,560.7344 74.7344,561.0469 Q74.4531,561.3594 74.0156,561.3594 Q73.625,561.3594 73.375,561.125 Q73.125,560.9063 73.0156,560.2969 Q72.9531,559.875 72.7344,559.6563 Q72.3438,559.2188 71.625,558.9531 Q70.9063,558.6875 70.1875,558.6875 Q69.2813,558.6875 68.5313,559.0781 Q67.7813,559.4688 67.2031,560.3594 Q66.625,561.2344 66.625,562.4375 L66.625,563.7344 Q66.625,565.1875 67.6719,566.1563 Q68.7344,567.125 70.5938,567.125 Q71.7031,567.125 72.4844,566.8125 Q72.9219,566.6406 73.4375,566.125 Q73.75,565.8125 73.9219,565.7188 Q74.0938,565.625 74.3281,565.625 Q74.7188,565.625 75.0156,565.9375 Q75.3281,566.2344 75.3281,566.6406 Q75.3281,567.0469 74.9219,567.5156 Q74.3281,568.2031 73.3906,568.5938 Q72.125,569.125 70.6094,569.125 Q68.8281,569.125 67.4063,568.3906 Q66.25,567.7969 65.4375,566.5313 Q64.625,565.2656 64.625,563.7813 L64.625,562.4219 Q64.625,560.8594 65.3438,559.5156 Q66.0781,558.1563 67.3594,557.4219 Q68.6563,556.6875 70.1094,556.6875 Q70.9688,556.6875 71.7188,556.8906 Q72.4844,557.0938 73.1406,557.5 Z " fill="#000000"/><text fill="#000000" font-family="sans-serif" font-size="20" lengthAdjust="spacing" textLength="223" x="93" y="570.7617">AnnouncementRepository</text><line style="stroke:#4169E1;stroke-width:0.5;" x1="8" x2="366" y1="580.1563" y2="580.1563"/><line style="stroke:#4169E1;stroke-width:0.5;" x1="8" x2="366" y1="588.1563" y2="588.1563"/><ellipse cx="18" cy="606.2344" fill="#84BE84" rx="3" ry="3" style="stroke:#038048;stroke-width:1.0;"/><text fill="#000000" font-family="sans-serif" font-size="20" lengthAdjust="spacing" textLength="201" x="28" y="612.918">getAnnouncementList()</text><ellipse cx="18" cy="631.3906" fill="#84BE84" rx="3" ry="3" style="stroke:#038048;stroke-width:1.0;"/><text fill="#000000" font-family="sans-serif" font-size="20" lengthAdjust="spacing" textLength="333" x="28" y="638.0742">removeAnnouncement(announcement)</text></g><!--class OrderCheckUI--><g id="elem_OrderCheckUI"><rect codeLine="28" fill="#FFDAB9" height="51.1563" id="OrderCheckUI" rx="2.5" ry="2.5" style="stroke:#4169E1;stroke-width:0.5;" width="160" x="257" y="7"/><ellipse cx="273" cy="24.5781" fill="#ADD1B2" rx="12" ry="12" style="stroke:#181818;stroke-width:1.0;"/><path d="M275.1406,19.5 Q275.3281,19.25 275.5469,19.125 Q275.7656,18.9844 276.0156,18.9844 Q276.4531,18.9844 276.7344,19.2969 Q277.0156,19.5938 277.0156,20.3125 L277.0156,22.0156 Q277.0156,22.7344 276.7344,23.0469 Q276.4531,23.3594 276.0156,23.3594 Q275.625,23.3594 275.375,23.125 Q275.125,22.9063 275.0156,22.2969 Q274.9531,21.875 274.7344,21.6563 Q274.3438,21.2188 273.625,20.9531 Q272.9063,20.6875 272.1875,20.6875 Q271.2813,20.6875 270.5313,21.0781 Q269.7813,21.4688 269.2031,22.3594 Q268.625,23.2344 268.625,24.4375 L268.625,25.7344 Q268.625,27.1875 269.6719,28.1563 Q270.7344,29.125 272.5938,29.125 Q273.7031,29.125 274.4844,28.8125 Q274.9219,28.6406 275.4375,28.125 Q275.75,27.8125 275.9219,27.7188 Q276.0938,27.625 276.3281,27.625 Q276.7188,27.625 277.0156,27.9375 Q277.3281,28.2344 277.3281,28.6406 Q277.3281,29.0469 276.9219,29.5156 Q276.3281,30.2031 275.3906,30.5938 Q274.125,31.125 272.6094,31.125 Q270.8281,31.125 269.4063,30.3906 Q268.25,29.7969 267.4375,28.5313 Q266.625,27.2656 266.625,25.7813 L266.625,24.4219 Q266.625,22.8594 267.3438,21.5156 Q268.0781,20.1563 269.3594,19.4219 Q270.6563,18.6875 272.1094,18.6875 Q272.9688,18.6875 273.7188,18.8906 Q274.4844,19.0938 275.1406,19.5 Z " fill="#000000"/><text fill="#000000" font-family="sans-serif" font-size="20" lengthAdjust="spacing" textLength="126" x="288" y="32.7617">OrderCheckUI</text><line style="stroke:#4169E1;stroke-width:0.5;" x1="258" x2="416" y1="42.1563" y2="42.1563"/><line style="stroke:#4169E1;stroke-width:0.5;" x1="258" x2="416" y1="50.1563" y2="50.1563"/></g><!--class OrderCheckController--><g id="elem_OrderCheckController"><rect codeLine="31" fill="#FFDAB9" height="176.9375" id="OrderCheckController" rx="2.5" ry="2.5" style="stroke:#4169E1;stroke-width:0.5;" width="638" x="18" y="119"/><ellipse cx="236.5" cy="136.5781" fill="#ADD1B2" rx="12" ry="12" style="stroke:#181818;stroke-width:1.0;"/><path d="M238.6406,131.5 Q238.8281,131.25 239.0469,131.125 Q239.2656,130.9844 239.5156,130.9844 Q239.9531,130.9844 240.2344,131.2969 Q240.5156,131.5938 240.5156,132.3125 L240.5156,134.0156 Q240.5156,134.7344 240.2344,135.0469 Q239.9531,135.3594 239.5156,135.3594 Q239.125,135.3594 238.875,135.125 Q238.625,134.9063 238.5156,134.2969 Q238.4531,133.875 238.2344,133.6563 Q237.8438,133.2188 237.125,132.9531 Q236.4063,132.6875 235.6875,132.6875 Q234.7813,132.6875 234.0313,133.0781 Q233.2813,133.4688 232.7031,134.3594 Q232.125,135.2344 232.125,136.4375 L232.125,137.7344 Q232.125,139.1875 233.1719,140.1563 Q234.2344,141.125 236.0938,141.125 Q237.2031,141.125 237.9844,140.8125 Q238.4219,140.6406 238.9375,140.125 Q239.25,139.8125 239.4219,139.7188 Q239.5938,139.625 239.8281,139.625 Q240.2188,139.625 240.5156,139.9375 Q240.8281,140.2344 240.8281,140.6406 Q240.8281,141.0469 240.4219,141.5156 Q239.8281,142.2031 238.8906,142.5938 Q237.625,143.125 236.1094,143.125 Q234.3281,143.125 232.9063,142.3906 Q231.75,141.7969 230.9375,140.5313 Q230.125,139.2656 230.125,137.7813 L230.125,136.4219 Q230.125,134.8594 230.8438,133.5156 Q231.5781,132.1563 232.8594,131.4219 Q234.1563,130.6875 235.6094,130.6875 Q236.4688,130.6875 237.2188,130.8906 Q237.9844,131.0938 238.6406,131.5 Z " fill="#000000"/><text fill="#000000" font-family="sans-serif" font-size="20" lengthAdjust="spacing" textLength="192" x="258.5" y="144.7617">OrderCheckController</text><line style="stroke:#4169E1;stroke-width:0.5;" x1="19" x2="655" y1="154.1563" y2="154.1563"/><line style="stroke:#4169E1;stroke-width:0.5;" x1="19" x2="655" y1="162.1563" y2="162.1563"/><ellipse cx="29" cy="180.2344" fill="#84BE84" rx="3" ry="3" style="stroke:#038048;stroke-width:1.0;"/><text fill="#000000" font-family="sans-serif" font-size="20" lengthAdjust="spacing" textLength="255" x="39" y="186.918">getAnnouncementsByOrder()</text><ellipse cx="29" cy="205.3906" fill="#84BE84" rx="3" ry="3" style="stroke:#038048;stroke-width:1.0;"/><text fill="#000000" font-family="sans-serif" font-size="20" lengthAdjust="spacing" textLength="179" x="39" y="212.0742">getOrdersByOrder()</text><ellipse cx="29" cy="230.5469" fill="#84BE84" rx="3" ry="3" style="stroke:#038048;stroke-width:1.0;"/><text fill="#000000" font-family="sans-serif" font-size="20" lengthAdjust="spacing" textLength="605" x="39" y="237.2305">acceptThisOrder(Announcement announcement, Order chosenOrder)</text><ellipse cx="29" cy="255.7031" fill="#84BE84" rx="3" ry="3" style="stroke:#038048;stroke-width:1.0;"/><text fill="#000000" font-family="sans-serif" font-size="20" lengthAdjust="spacing" textLength="611" x="39" y="262.3867">removeThisOrder(Announcement announcement, Order chosenOrder)</text><ellipse cx="29" cy="280.8594" fill="#84BE84" rx="3" ry="3" style="stroke:#038048;stroke-width:1.0;"/><text fill="#000000" font-family="sans-serif" font-size="20" lengthAdjust="spacing" textLength="444" x="39" y="287.543">notifyClient(Person person, boolean wasAccepted)</text></g><!--class Order--><g id="elem_Order"><rect codeLine="39" fill="#FFDAB9" height="176.9375" id="Order" rx="2.5" ry="2.5" style="stroke:#4169E1;stroke-width:0.5;" width="412" x="183" y="1107"/><ellipse cx="358.5" cy="1124.5781" fill="#ADD1B2" rx="12" ry="12" style="stroke:#181818;stroke-width:1.0;"/><path d="M360.6406,1119.5 Q360.8281,1119.25 361.0469,1119.125 Q361.2656,1118.9844 361.5156,1118.9844 Q361.9531,1118.9844 362.2344,1119.2969 Q362.5156,1119.5938 362.5156,1120.3125 L362.5156,1122.0156 Q362.5156,1122.7344 362.2344,1123.0469 Q361.9531,1123.3594 361.5156,1123.3594 Q361.125,1123.3594 360.875,1123.125 Q360.625,1122.9063 360.5156,1122.2969 Q360.4531,1121.875 360.2344,1121.6563 Q359.8438,1121.2188 359.125,1120.9531 Q358.4063,1120.6875 357.6875,1120.6875 Q356.7813,1120.6875 356.0313,1121.0781 Q355.2813,1121.4688 354.7031,1122.3594 Q354.125,1123.2344 354.125,1124.4375 L354.125,1125.7344 Q354.125,1127.1875 355.1719,1128.1563 Q356.2344,1129.125 358.0938,1129.125 Q359.2031,1129.125 359.9844,1128.8125 Q360.4219,1128.6406 360.9375,1128.125 Q361.25,1127.8125 361.4219,1127.7188 Q361.5938,1127.625 361.8281,1127.625 Q362.2188,1127.625 362.5156,1127.9375 Q362.8281,1128.2344 362.8281,1128.6406 Q362.8281,1129.0469 362.4219,1129.5156 Q361.8281,1130.2031 360.8906,1130.5938 Q359.625,1131.125 358.1094,1131.125 Q356.3281,1131.125 354.9063,1130.3906 Q353.75,1129.7969 352.9375,1128.5313 Q352.125,1127.2656 352.125,1125.7813 L352.125,1124.4219 Q352.125,1122.8594 352.8438,1121.5156 Q353.5781,1120.1563 354.8594,1119.4219 Q356.1563,1118.6875 357.6094,1118.6875 Q358.4688,1118.6875 359.2188,1118.8906 Q359.9844,1119.0938 360.6406,1119.5 Z " fill="#000000"/><text fill="#000000" font-family="sans-serif" font-size="20" lengthAdjust="spacing" textLength="52" x="380.5" y="1132.7617">Order</text><line style="stroke:#4169E1;stroke-width:0.5;" x1="184" x2="594" y1="1142.1563" y2="1142.1563"/><rect fill="none" height="6" style="stroke:#C82930;stroke-width:1.0;" width="6" x="191" y="1157.2344"/><text fill="#000000" font-family="sans-serif" font-size="20" lengthAdjust="spacing" textLength="128" x="204" y="1166.918">Person person</text><rect fill="none" height="6" style="stroke:#C82930;stroke-width:1.0;" width="6" x="191" y="1182.3906"/><text fill="#000000" font-family="sans-serif" font-size="20" lengthAdjust="spacing" textLength="107" x="204" y="1192.0742">double price</text><rect fill="none" height="6" style="stroke:#C82930;stroke-width:1.0;" width="6" x="191" y="1207.5469"/><text fill="#000000" font-family="sans-serif" font-size="20" lengthAdjust="spacing" textLength="87" x="204" y="1217.2305">Date date</text><line style="stroke:#4169E1;stroke-width:0.5;" x1="184" x2="594" y1="1225.625" y2="1225.625"/><ellipse cx="194" cy="1243.7031" fill="#84BE84" rx="3" ry="3" style="stroke:#038048;stroke-width:1.0;"/><text fill="#000000" font-family="sans-serif" font-size="20" lengthAdjust="spacing" textLength="378" x="204" y="1250.3867">selectOrder(Announcement announcement)</text><ellipse cx="194" cy="1268.8594" fill="#84BE84" rx="3" ry="3" style="stroke:#038048;stroke-width:1.0;"/><text fill="#000000" font-family="sans-serif" font-size="20" lengthAdjust="spacing" textLength="385" x="204" y="1275.543">validateOrder(announcement, chosenOrder)</text></g><!--class Person--><g id="elem_Person"><rect codeLine="47" fill="#FFDAB9" height="202.0938" id="Person" rx="2.5" ry="2.5" style="stroke:#4169E1;stroke-width:0.5;" width="205" x="286.5" y="1345"/><ellipse cx="353.5" cy="1362.5781" fill="#ADD1B2" rx="12" ry="12" style="stroke:#181818;stroke-width:1.0;"/><path d="M355.6406,1357.5 Q355.8281,1357.25 356.0469,1357.125 Q356.2656,1356.9844 356.5156,1356.9844 Q356.9531,1356.9844 357.2344,1357.2969 Q357.5156,1357.5938 357.5156,1358.3125 L357.5156,1360.0156 Q357.5156,1360.7344 357.2344,1361.0469 Q356.9531,1361.3594 356.5156,1361.3594 Q356.125,1361.3594 355.875,1361.125 Q355.625,1360.9063 355.5156,1360.2969 Q355.4531,1359.875 355.2344,1359.6563 Q354.8438,1359.2188 354.125,1358.9531 Q353.4063,1358.6875 352.6875,1358.6875 Q351.7813,1358.6875 351.0313,1359.0781 Q350.2813,1359.4688 349.7031,1360.3594 Q349.125,1361.2344 349.125,1362.4375 L349.125,1363.7344 Q349.125,1365.1875 350.1719,1366.1563 Q351.2344,1367.125 353.0938,1367.125 Q354.2031,1367.125 354.9844,1366.8125 Q355.4219,1366.6406 355.9375,1366.125 Q356.25,1365.8125 356.4219,1365.7188 Q356.5938,1365.625 356.8281,1365.625 Q357.2188,1365.625 357.5156,1365.9375 Q357.8281,1366.2344 357.8281,1366.6406 Q357.8281,1367.0469 357.4219,1367.5156 Q356.8281,1368.2031 355.8906,1368.5938 Q354.625,1369.125 353.1094,1369.125 Q351.3281,1369.125 349.9063,1368.3906 Q348.75,1367.7969 347.9375,1366.5313 Q347.125,1365.2656 347.125,1363.7813 L347.125,1362.4219 Q347.125,1360.8594 347.8438,1359.5156 Q348.5781,1358.1563 349.8594,1357.4219 Q351.1563,1356.6875 352.6094,1356.6875 Q353.4688,1356.6875 354.2188,1356.8906 Q354.9844,1357.0938 355.6406,1357.5 Z " fill="#000000"/><text fill="#000000" font-family="sans-serif" font-size="20" lengthAdjust="spacing" textLength="62" x="375.5" y="1370.7617">Person</text><line style="stroke:#4169E1;stroke-width:0.5;" x1="287.5" x2="490.5" y1="1380.1563" y2="1380.1563"/><rect fill="none" height="6" style="stroke:#C82930;stroke-width:1.0;" width="6" x="294.5" y="1395.2344"/><text fill="#000000" font-family="sans-serif" font-size="20" lengthAdjust="spacing" textLength="105" x="307.5" y="1404.918">String name</text><rect fill="none" height="6" style="stroke:#C82930;stroke-width:1.0;" width="6" x="294.5" y="1420.3906"/><text fill="#000000" font-family="sans-serif" font-size="20" lengthAdjust="spacing" textLength="171" x="307.5" y="1430.0742">int passportNumber</text><rect fill="none" height="6" style="stroke:#C82930;stroke-width:1.0;" width="6" x="294.5" y="1445.5469"/><text fill="#000000" font-family="sans-serif" font-size="20" lengthAdjust="spacing" textLength="120" x="307.5" y="1455.2305">int taxNumber</text><rect fill="none" height="6" style="stroke:#C82930;stroke-width:1.0;" width="6" x="294.5" y="1470.7031"/><text fill="#000000" font-family="sans-serif" font-size="20" lengthAdjust="spacing" textLength="100" x="307.5" y="1480.3867">Email email</text><rect fill="none" height="6" style="stroke:#C82930;stroke-width:1.0;" width="6" x="294.5" y="1495.8594"/><text fill="#000000" font-family="sans-serif" font-size="20" lengthAdjust="spacing" textLength="178" x="307.5" y="1505.543">String phoneNumber</text><rect fill="none" height="6" style="stroke:#C82930;stroke-width:1.0;" width="6" x="294.5" y="1521.0156"/><text fill="#000000" font-family="sans-serif" font-size="20" lengthAdjust="spacing" textLength="150" x="307.5" y="1530.6992">Address address</text><line style="stroke:#4169E1;stroke-width:0.5;" x1="287.5" x2="490.5" y1="1539.0938" y2="1539.0938"/></g><!--class Address--><g id="elem_Address"><rect codeLine="56" fill="#FFDAB9" height="176.9375" id="Address" rx="2.5" ry="2.5" style="stroke:#4169E1;stroke-width:0.5;" width="142" x="318" y="1608"/><ellipse cx="349.75" cy="1625.5781" fill="#ADD1B2" rx="12" ry="12" style="stroke:#181818;stroke-width:1.0;"/><path d="M351.8906,1620.5 Q352.0781,1620.25 352.2969,1620.125 Q352.5156,1619.9844 352.7656,1619.9844 Q353.2031,1619.9844 353.4844,1620.2969 Q353.7656,1620.5938 353.7656,1621.3125 L353.7656,1623.0156 Q353.7656,1623.7344 353.4844,1624.0469 Q353.2031,1624.3594 352.7656,1624.3594 Q352.375,1624.3594 352.125,1624.125 Q351.875,1623.9063 351.7656,1623.2969 Q351.7031,1622.875 351.4844,1622.6563 Q351.0938,1622.2188 350.375,1621.9531 Q349.6563,1621.6875 348.9375,1621.6875 Q348.0313,1621.6875 347.2813,1622.0781 Q346.5313,1622.4688 345.9531,1623.3594 Q345.375,1624.2344 345.375,1625.4375 L345.375,1626.7344 Q345.375,1628.1875 346.4219,1629.1563 Q347.4844,1630.125 349.3438,1630.125 Q350.4531,1630.125 351.2344,1629.8125 Q351.6719,1629.6406 352.1875,1629.125 Q352.5,1628.8125 352.6719,1628.7188 Q352.8438,1628.625 353.0781,1628.625 Q353.4688,1628.625 353.7656,1628.9375 Q354.0781,1629.2344 354.0781,1629.6406 Q354.0781,1630.0469 353.6719,1630.5156 Q353.0781,1631.2031 352.1406,1631.5938 Q350.875,1632.125 349.3594,1632.125 Q347.5781,1632.125 346.1563,1631.3906 Q345,1630.7969 344.1875,1629.5313 Q343.375,1628.2656 343.375,1626.7813 L343.375,1625.4219 Q343.375,1623.8594 344.0938,1622.5156 Q344.8281,1621.1563 346.1094,1620.4219 Q347.4063,1619.6875 348.8594,1619.6875 Q349.7188,1619.6875 350.4688,1619.8906 Q351.2344,1620.0938 351.8906,1620.5 Z " fill="#000000"/><text fill="#000000" font-family="sans-serif" font-size="20" lengthAdjust="spacing" textLength="73" x="368.25" y="1633.7617">Address</text><line style="stroke:#4169E1;stroke-width:0.5;" x1="319" x2="459" y1="1643.1563" y2="1643.1563"/><rect fill="none" height="6" style="stroke:#C82930;stroke-width:1.0;" width="6" x="326" y="1658.2344"/><text fill="#000000" font-family="sans-serif" font-size="20" lengthAdjust="spacing" textLength="108" x="339" y="1667.918">String street</text><rect fill="none" height="6" style="stroke:#C82930;stroke-width:1.0;" width="6" x="326" y="1683.3906"/><text fill="#000000" font-family="sans-serif" font-size="20" lengthAdjust="spacing" textLength="87" x="339" y="1693.0742">String city</text><rect fill="none" height="6" style="stroke:#C82930;stroke-width:1.0;" width="6" x="326" y="1708.5469"/><text fill="#000000" font-family="sans-serif" font-size="20" lengthAdjust="spacing" textLength="115" x="339" y="1718.2305">String district</text><rect fill="none" height="6" style="stroke:#C82930;stroke-width:1.0;" width="6" x="326" y="1733.7031"/><text fill="#000000" font-family="sans-serif" font-size="20" lengthAdjust="spacing" textLength="101" x="339" y="1743.3867">String state</text><rect fill="none" height="6" style="stroke:#C82930;stroke-width:1.0;" width="6" x="326" y="1758.8594"/><text fill="#000000" font-family="sans-serif" font-size="20" lengthAdjust="spacing" textLength="93" x="339" y="1768.543">int zipcode</text><line style="stroke:#4169E1;stroke-width:0.5;" x1="319" x2="459" y1="1776.9375" y2="1776.9375"/></g><!--class Announcement--><g id="elem_Announcement"><rect codeLine="64" fill="#FFDAB9" height="202.0938" id="Announcement" rx="2.5" ry="2.5" style="stroke:#4169E1;stroke-width:0.5;" width="251" x="61.5" y="707"/><ellipse cx="118.5" cy="724.5781" fill="#ADD1B2" rx="12" ry="12" style="stroke:#181818;stroke-width:1.0;"/><path d="M120.6406,719.5 Q120.8281,719.25 121.0469,719.125 Q121.2656,718.9844 121.5156,718.9844 Q121.9531,718.9844 122.2344,719.2969 Q122.5156,719.5938 122.5156,720.3125 L122.5156,722.0156 Q122.5156,722.7344 122.2344,723.0469 Q121.9531,723.3594 121.5156,723.3594 Q121.125,723.3594 120.875,723.125 Q120.625,722.9063 120.5156,722.2969 Q120.4531,721.875 120.2344,721.6563 Q119.8438,721.2188 119.125,720.9531 Q118.4063,720.6875 117.6875,720.6875 Q116.7813,720.6875 116.0313,721.0781 Q115.2813,721.4688 114.7031,722.3594 Q114.125,723.2344 114.125,724.4375 L114.125,725.7344 Q114.125,727.1875 115.1719,728.1563 Q116.2344,729.125 118.0938,729.125 Q119.2031,729.125 119.9844,728.8125 Q120.4219,728.6406 120.9375,728.125 Q121.25,727.8125 121.4219,727.7188 Q121.5938,727.625 121.8281,727.625 Q122.2188,727.625 122.5156,727.9375 Q122.8281,728.2344 122.8281,728.6406 Q122.8281,729.0469 122.4219,729.5156 Q121.8281,730.2031 120.8906,730.5938 Q119.625,731.125 118.1094,731.125 Q116.3281,731.125 114.9063,730.3906 Q113.75,729.7969 112.9375,728.5313 Q112.125,727.2656 112.125,725.7813 L112.125,724.4219 Q112.125,722.8594 112.8438,721.5156 Q113.5781,720.1563 114.8594,719.4219 Q116.1563,718.6875 117.6094,718.6875 Q118.4688,718.6875 119.2188,718.8906 Q119.9844,719.0938 120.6406,719.5 Z " fill="#000000"/><text fill="#000000" font-family="sans-serif" font-size="20" lengthAdjust="spacing" textLength="128" x="140.5" y="732.7617">Announcement</text><line style="stroke:#4169E1;stroke-width:0.5;" x1="62.5" x2="311.5" y1="742.1563" y2="742.1563"/><rect fill="none" height="6" style="stroke:#C82930;stroke-width:1.0;" width="6" x="69.5" y="757.2344"/><text fill="#000000" font-family="sans-serif" font-size="20" lengthAdjust="spacing" textLength="145" x="82.5" y="766.918">Request request</text><rect fill="none" height="6" style="stroke:#C82930;stroke-width:1.0;" width="6" x="69.5" y="782.3906"/><text fill="#000000" font-family="sans-serif" font-size="20" lengthAdjust="spacing" textLength="214" x="82.5" y="792.0742">Commission commission</text><rect fill="none" height="6" style="stroke:#C82930;stroke-width:1.0;" width="6" x="69.5" y="807.5469"/><text fill="#000000" font-family="sans-serif" font-size="20" lengthAdjust="spacing" textLength="87" x="82.5" y="817.2305">Date date</text><rect fill="none" height="6" style="stroke:#C82930;stroke-width:1.0;" width="6" x="69.5" y="832.7031"/><text fill="#000000" font-family="sans-serif" font-size="20" lengthAdjust="spacing" textLength="111" x="82.5" y="842.3867">boolean sold</text><rect fill="none" height="6" style="stroke:#C82930;stroke-width:1.0;" width="6" x="69.5" y="857.8594"/><text fill="#000000" font-family="sans-serif" font-size="20" lengthAdjust="spacing" textLength="224" x="82.5" y="867.543">ArrayList &lt;Order&gt; orders</text><line style="stroke:#4169E1;stroke-width:0.5;" x1="62.5" x2="311.5" y1="875.9375" y2="875.9375"/><ellipse cx="72.5" cy="894.0156" fill="#84BE84" rx="3" ry="3" style="stroke:#038048;stroke-width:1.0;"/><text fill="#000000" font-family="sans-serif" font-size="20" lengthAdjust="spacing" textLength="194" x="82.5" y="900.6992">selectAnnouncement()</text></g><!--class Orders--><g id="elem_Orders"><rect codeLine="73" fill="#FFDAB9" height="76.3125" id="Orders" rx="2.5" ry="2.5" style="stroke:#4169E1;stroke-width:0.5;" width="251" x="183.5" y="970"/><ellipse cx="273.5" cy="987.5781" fill="#ADD1B2" rx="12" ry="12" style="stroke:#181818;stroke-width:1.0;"/><path d="M275.6406,982.5 Q275.8281,982.25 276.0469,982.125 Q276.2656,981.9844 276.5156,981.9844 Q276.9531,981.9844 277.2344,982.2969 Q277.5156,982.5938 277.5156,983.3125 L277.5156,985.0156 Q277.5156,985.7344 277.2344,986.0469 Q276.9531,986.3594 276.5156,986.3594 Q276.125,986.3594 275.875,986.125 Q275.625,985.9063 275.5156,985.2969 Q275.4531,984.875 275.2344,984.6563 Q274.8438,984.2188 274.125,983.9531 Q273.4063,983.6875 272.6875,983.6875 Q271.7813,983.6875 271.0313,984.0781 Q270.2813,984.4688 269.7031,985.3594 Q269.125,986.2344 269.125,987.4375 L269.125,988.7344 Q269.125,990.1875 270.1719,991.1563 Q271.2344,992.125 273.0938,992.125 Q274.2031,992.125 274.9844,991.8125 Q275.4219,991.6406 275.9375,991.125 Q276.25,990.8125 276.4219,990.7188 Q276.5938,990.625 276.8281,990.625 Q277.2188,990.625 277.5156,990.9375 Q277.8281,991.2344 277.8281,991.6406 Q277.8281,992.0469 277.4219,992.5156 Q276.8281,993.2031 275.8906,993.5938 Q274.625,994.125 273.1094,994.125 Q271.3281,994.125 269.9063,993.3906 Q268.75,992.7969 267.9375,991.5313 Q267.125,990.2656 267.125,988.7813 L267.125,987.4219 Q267.125,985.8594 267.8438,984.5156 Q268.5781,983.1563 269.8594,982.4219 Q271.1563,981.6875 272.6094,981.6875 Q273.4688,981.6875 274.2188,981.8906 Q274.9844,982.0938 275.6406,982.5 Z " fill="#000000"/><text fill="#000000" font-family="sans-serif" font-size="20" lengthAdjust="spacing" textLength="62" x="295.5" y="995.7617">Orders</text><line style="stroke:#4169E1;stroke-width:0.5;" x1="184.5" x2="433.5" y1="1005.1563" y2="1005.1563"/><rect fill="none" height="6" style="stroke:#C82930;stroke-width:1.0;" width="6" x="191.5" y="1020.2344"/><text fill="#000000" font-family="sans-serif" font-size="20" lengthAdjust="spacing" textLength="224" x="204.5" y="1029.918">ArrayList &lt;Order&gt; orders</text><line style="stroke:#4169E1;stroke-width:0.5;" x1="184.5" x2="433.5" y1="1038.3125" y2="1038.3125"/></g><!--class Date--><g id="elem_Date"><rect codeLine="77" fill="#FFDAB9" height="126.625" id="Date" rx="2.5" ry="2.5" style="stroke:#4169E1;stroke-width:0.5;" width="106" x="111" y="1382.5"/><ellipse cx="140.5" cy="1400.0781" fill="#ADD1B2" rx="12" ry="12" style="stroke:#181818;stroke-width:1.0;"/><path d="M142.6406,1395 Q142.8281,1394.75 143.0469,1394.625 Q143.2656,1394.4844 143.5156,1394.4844 Q143.9531,1394.4844 144.2344,1394.7969 Q144.5156,1395.0938 144.5156,1395.8125 L144.5156,1397.5156 Q144.5156,1398.2344 144.2344,1398.5469 Q143.9531,1398.8594 143.5156,1398.8594 Q143.125,1398.8594 142.875,1398.625 Q142.625,1398.4063 142.5156,1397.7969 Q142.4531,1397.375 142.2344,1397.1563 Q141.8438,1396.7188 141.125,1396.4531 Q140.4063,1396.1875 139.6875,1396.1875 Q138.7813,1396.1875 138.0313,1396.5781 Q137.2813,1396.9688 136.7031,1397.8594 Q136.125,1398.7344 136.125,1399.9375 L136.125,1401.2344 Q136.125,1402.6875 137.1719,1403.6563 Q138.2344,1404.625 140.0938,1404.625 Q141.2031,1404.625 141.9844,1404.3125 Q142.4219,1404.1406 142.9375,1403.625 Q143.25,1403.3125 143.4219,1403.2188 Q143.5938,1403.125 143.8281,1403.125 Q144.2188,1403.125 144.5156,1403.4375 Q144.8281,1403.7344 144.8281,1404.1406 Q144.8281,1404.5469 144.4219,1405.0156 Q143.8281,1405.7031 142.8906,1406.0938 Q141.625,1406.625 140.1094,1406.625 Q138.3281,1406.625 136.9063,1405.8906 Q135.75,1405.2969 134.9375,1404.0313 Q134.125,1402.7656 134.125,1401.2813 L134.125,1399.9219 Q134.125,1398.3594 134.8438,1397.0156 Q135.5781,1395.6563 136.8594,1394.9219 Q138.1563,1394.1875 139.6094,1394.1875 Q140.4688,1394.1875 141.2188,1394.3906 Q141.9844,1394.5938 142.6406,1395 Z " fill="#000000"/><text fill="#000000" font-family="sans-serif" font-size="20" lengthAdjust="spacing" textLength="42" x="158.5" y="1408.2617">Date</text><line style="stroke:#4169E1;stroke-width:0.5;" x1="112" x2="216" y1="1417.6563" y2="1417.6563"/><rect fill="none" height="6" style="stroke:#C82930;stroke-width:1.0;" width="6" x="119" y="1432.7344"/><text fill="#000000" font-family="sans-serif" font-size="20" lengthAdjust="spacing" textLength="65" x="132" y="1442.418">int year</text><rect fill="none" height="6" style="stroke:#C82930;stroke-width:1.0;" width="6" x="119" y="1457.8906"/><text fill="#000000" font-family="sans-serif" font-size="20" lengthAdjust="spacing" textLength="79" x="132" y="1467.5742">int month</text><rect fill="none" height="6" style="stroke:#C82930;stroke-width:1.0;" width="6" x="119" y="1483.0469"/><text fill="#000000" font-family="sans-serif" font-size="20" lengthAdjust="spacing" textLength="58" x="132" y="1492.7305">int day</text><line style="stroke:#4169E1;stroke-width:0.5;" x1="112" x2="216" y1="1501.125" y2="1501.125"/></g><!--link OrderCheckUI to OrderCheckController--><g id="link_OrderCheckUI_OrderCheckController"><path codeLine="84" d="M337,58.29 C337,73.19 337,93.19 337,113.66 " fill="none" id="OrderCheckUI-to-OrderCheckController" style="stroke:#4169E1;stroke-width:1.0;"/><polygon fill="#4169E1" points="337,118.87,341,109.87,337,113.87,333,109.87,337,118.87" style="stroke:#4169E1;stroke-width:1.0;"/></g><!--link OrderCheckController to Repositories--><g id="link_OrderCheckController_Repositories"><path codeLine="87" d="M274.69,296.15 C261.33,314.94 247.42,334.5 234.72,352.37 " fill="none" id="OrderCheckController-to-Repositories" style="stroke:#4169E1;stroke-width:1.0;"/><polygon fill="#4169E1" points="231.52,356.88,239.9877,351.8503,234.4113,352.8007,233.4609,347.2243,231.52,356.88" style="stroke:#4169E1;stroke-width:1.0;"/></g><!--link OrderCheckController to Order--><g id="link_OrderCheckController_Order"><path codeLine="88" d="M405.48,296.17 C430.6,328.32 453,357 453,357 C453,357 488,419.5 488,419.5 C488,419.5 488,419.5 488,1009 C488,1009 463.02,1055.81 438.15,1102.4 " fill="none" id="OrderCheckController-to-Order" style="stroke:#4169E1;stroke-width:1.0;"/><polygon fill="#4169E1" points="435.75,1106.91,443.5106,1100.8459,438.1,1102.4966,436.4493,1097.086,435.75,1106.91" style="stroke:#4169E1;stroke-width:1.0;"/></g><!--link Repositories to Repositories--><g id="link_Repositories_Repositories"><path codeLine="91" d="M333.3,404.68 C354.06,407.24 368,412.51 368,420.5 C368,427.8 356.36,432.83 338.49,435.6 " fill="none" id="Repositories-to-Repositories" style="stroke:#4169E1;stroke-width:1.0;"/><polygon fill="#4169E1" points="333.3,436.32,342.7643,439.0453,338.2526,435.6329,341.665,431.1212,333.3,436.32" style="stroke:#4169E1;stroke-width:1.0;"/><text fill="#000000" font-family="sans-serif" font-size="20" lengthAdjust="spacing" textLength="72" x="374" y="428.7617">instance</text></g><!--link Repositories to AnnouncementRepository--><g id="link_Repositories_AnnouncementRepository"><path codeLine="92" d="M187,484.45 C187,502.48 187,522 187,539.52 " fill="none" id="Repositories-to-AnnouncementRepository" style="stroke:#4169E1;stroke-width:1.0;"/><polygon fill="#4169E1" points="187,544.88,191,535.88,187,539.88,183,535.88,187,544.88" style="stroke:#4169E1;stroke-width:1.0;"/></g><!--link AnnouncementRepository to Announcement--><g id="link_AnnouncementRepository_Announcement"><path codeLine="95" d="M187,646.12 C187,662.78 187,682.06 187,701.36 " fill="none" id="AnnouncementRepository-to-Announcement" style="stroke:#4169E1;stroke-width:1.0;stroke-dasharray:7.0,7.0;"/><polygon fill="#4169E1" points="187,706.8,191,697.8,187,701.8,183,697.8,187,706.8" style="stroke:#4169E1;stroke-width:1.0;"/></g><!--reverse link Order to Person--><g id="link_Order_Person"><path codeLine="96" d="M389,1297.12 C389,1312.77 389,1328.95 389,1344.6 " fill="none" id="Order-backto-Person" style="stroke:#4169E1;stroke-width:1.0;"/><polygon fill="#4169E1" points="389,1284.11,385,1290.11,389,1296.11,393,1290.11,389,1284.11" style="stroke:#4169E1;stroke-width:1.0;"/></g><!--reverse link Order to Date--><g id="link_Order_Date"><path codeLine="97" d="M300.61,1294.12 C272.44,1325.24 242.14,1358.69 217.26,1386.18 " fill="none" id="Order-backto-Date" style="stroke:#4169E1;stroke-width:1.0;"/><polygon fill="#4169E1" points="309.67,1284.11,302.6767,1285.8688,301.6104,1293.0006,308.6037,1291.2418,309.67,1284.11" style="stroke:#4169E1;stroke-width:1.0;"/></g><!--link Announcement to Orders--><g id="link_Announcement_Orders"><path codeLine="100" d="M248.71,909.16 C262.07,930.84 275.38,952.44 286.09,969.81 " fill="none" id="Announcement-Orders" style="stroke:#4169E1;stroke-width:1.0;"/><text fill="#000000" font-family="sans-serif" font-size="20" lengthAdjust="spacing" textLength="11" x="241.6623" y="937.9156">1</text><text fill="#000000" font-family="sans-serif" font-size="20" lengthAdjust="spacing" textLength="11" x="270.5622" y="957.4805">1</text></g><!--reverse link Announcement to Date--><g id="link_Announcement_Date"><path codeLine="101" d="M172.23,922.24 C168.73,949.04 166,970 166,970 C166,970 165,1107 165,1107 C165,1107 164.47,1284.47 164.19,1382.22 " fill="none" id="Announcement-backto-Date" style="stroke:#4169E1;stroke-width:1.0;"/><polygon fill="#4169E1" points="173.94,909.13,169.2014,914.5656,172.3964,921.0303,177.135,915.5947,173.94,909.13" style="stroke:#4169E1;stroke-width:1.0;"/></g><!--link Orders to Order--><g id="link_Orders_Order"><path codeLine="102" d="M325,1046.09 C332.57,1063.64 341.96,1085.41 351.19,1106.82 " fill="none" id="Orders-Order" style="stroke:#4169E1;stroke-width:1.0;"/><text fill="#000000" font-family="sans-serif" font-size="20" lengthAdjust="spacing" textLength="11" x="315.7391" y="1075.2177">1</text><text fill="#000000" font-family="sans-serif" font-size="20" lengthAdjust="spacing" textLength="8" x="339.8583" y="1094.5277">*</text></g><!--reverse link Person to Address--><g id="link_Person_Address"><path codeLine="105" d="M389,1560.29 C389,1576.21 389,1592.37 389,1607.71 " fill="none" id="Person-backto-Address" style="stroke:#4169E1;stroke-width:1.0;"/><polygon fill="#4169E1" points="389,1547,385,1553,389,1559,393,1553,389,1547" style="stroke:#4169E1;stroke-width:1.0;"/></g><!--SRC=[fLJDRjim3BxxAOHUqcvDiUqu30NIR0K235lHhW-WIBGjH1OzIMxd5dttqV9FfCJ13lF1jiYFv4UAfDifKtFBAurY1v99o7cZ_IqQ_w1UW7twa2tSY64L6XIbnGgOjmraUqtDnOuNyE1R3So2yDmKEWQuaajyLgPWETSkrcXbmBSri1frsntYY9CIhSSirWZDdLjvRzMsyR0HQ09XuhiSdrj5P9pld1QJC3jmmLupHiyD9L1OR8nSeqRBxe2Bygx9yw1TMOlFlU8UMwvlD6KVpD1Ai8UQjsoX8VVC8xEgA3sJggk9GfCj7XrOfem7ctC1YophMTn3ZKvvj0fSpsYPoCulWl0zAy1lZAFw2ZY_O9yJq1woCePo4L21yHEY9ITlOy1vn52D8n_VbVCJ1GiLFa6iFkVH8GhoCrId1B5xtBpEYTVKQ1Qr1diYiBjf0phEFmYE55m8gFslKhbU7djXCR_BFZuJ9JemuJ_DxFzy6FGgRzTQTNMv8w9eM1q-bsoBg84RzipTAj05ULYjyV8Joq4ciTbIIzTM2HX4Nxa79karH7UWgTF-mNwa-iIrwcnxU9fVajb4iMSrSdoWwQE9DhmQwL1ZqovmhgPv_T5KMx2HmlC_YUnRnPLcqBrJXtM91XBeIaeB59_ttwYDUy418-SjW4zbGlasbKXgQYgbFxGTgzcpVb6rG0dpayFsi_gx0UUfWy9taAwngfHpDFXCJB-pDxUSUiEXbcFMrlAs6pts9Lp4DGlhnYLtdSpXOJUvYU19NvD181JWVU8jSBi_qUxtvVueUTjPzkjiCwwpB1vujbnUpuuwcKM7EKGmJJRRILHGaCS47H-EVD7ILCC6FGREhqNotySviJMlhbBBdYvxjnpdE19qPIP_2JnfgREFPmIZzt25gNPoCTnlX-lWxywcKWmXXmtI6GnJalq5]--></g></svg>