<?xml version="1.0" encoding="UTF-8" standalone="no"?><svg xmlns="http://www.w3.org/2000/svg" xmlns:xlink="http://www.w3.org/1999/xlink" contentStyleType="text/css" height="1386px" preserveAspectRatio="none" style="width:2337px;height:1386px;background:#FFFFFF;" version="1.1" viewBox="0 0 2337 1386" width="2337px" zoomAndPan="magnify"><defs/><g><rect fill="#FFFFFF" height="1186.6875" style="stroke:#181818;stroke-width:1.0;" width="10" x="28.5" y="100.1563"/><rect fill="#FFFFFF" height="454.7188" style="stroke:#181818;stroke-width:1.0;" width="10" x="520.5" y="131.3125"/><rect fill="#FFFFFF" height="221.7813" style="stroke:#181818;stroke-width:1.0;" width="10" x="520.5" y="625.1875"/><rect fill="#FFFFFF" height="78.3125" style="stroke:#181818;stroke-width:1.0;" width="10" x="520.5" y="886.125"/><rect fill="#FFFFFF" height="326.25" style="stroke:#181818;stroke-width:1.0;" width="10" x="1014.5" y="220.625"/><rect fill="#FFFFFF" height="143.4688" style="stroke:#181818;stroke-width:1.0;" width="10" x="1014.5" y="664.3438"/><rect fill="#FFFFFF" height="39.1563" style="stroke:#181818;stroke-width:1.0;" width="10" x="1696.5" y="259.7813"/><rect fill="#FFFFFF" height="39.1563" style="stroke:#181818;stroke-width:1.0;" width="10" x="1836.5" y="338.0938"/><rect fill="#FFFFFF" height="39.1563" style="stroke:#181818;stroke-width:1.0;" width="10" x="2030" y="416.4063"/><rect fill="none" height="300.4063" style="stroke:#000000;stroke-width:1.5;" width="1924" x="406.5" y="979.4375"/><line style="stroke:#181818;stroke-width:0.5;stroke-dasharray:5.0,5.0;" x1="33" x2="33" y1="90.1563" y2="1296.8438"/><line style="stroke:#181818;stroke-width:0.5;stroke-dasharray:5.0,5.0;" x1="525.5" x2="525.5" y1="90.1563" y2="1296.8438"/><line style="stroke:#181818;stroke-width:0.5;stroke-dasharray:5.0,5.0;" x1="1019.5" x2="1019.5" y1="174.3906" y2="1296.8438"/><line style="stroke:#181818;stroke-width:0.5;stroke-dasharray:5.0,5.0;" x1="1411.5" x2="1411.5" y1="90.1563" y2="1296.8438"/><line style="stroke:#181818;stroke-width:0.5;stroke-dasharray:5.0,5.0;" x1="1559.5" x2="1559.5" y1="90.1563" y2="1296.8438"/><line style="stroke:#181818;stroke-width:0.5;stroke-dasharray:5.0,5.0;" x1="1701.5" x2="1701.5" y1="90.1563" y2="1296.8438"/><line style="stroke:#181818;stroke-width:0.5;stroke-dasharray:5.0,5.0;" x1="1841.5" x2="1841.5" y1="90.1563" y2="1296.8438"/><line style="stroke:#181818;stroke-width:0.5;stroke-dasharray:5.0,5.0;" x1="2034.5" x2="2034.5" y1="90.1563" y2="1296.8438"/><line style="stroke:#181818;stroke-width:0.5;stroke-dasharray:5.0,5.0;" x1="2241.5" x2="2241.5" y1="90.1563" y2="1296.8438"/><text fill="#000000" font-family="sans-serif" font-size="20" lengthAdjust="spacing" textLength="51" x="5" y="85.7617">Agent</text><ellipse cx="33.5" cy="13.5" fill="#9C9C9C" rx="8" ry="8" style="stroke:#181818;stroke-width:0.5;"/><path d="M33.5,21.5 L33.5,48.5 M20.5,29.5 L46.5,29.5 M33.5,48.5 L20.5,63.5 M33.5,48.5 L46.5,63.5 " fill="none" style="stroke:#181818;stroke-width:0.5;"/><text fill="#000000" font-family="sans-serif" font-size="20" lengthAdjust="spacing" textLength="51" x="5" y="1316.6055">Agent</text><ellipse cx="33.5" cy="1329.5" fill="#9C9C9C" rx="8" ry="8" style="stroke:#181818;stroke-width:0.5;"/><path d="M33.5,1337.5 L33.5,1364.5 M20.5,1345.5 L46.5,1345.5 M33.5,1364.5 L20.5,1379.5 M33.5,1364.5 L46.5,1379.5 " fill="none" style="stroke:#181818;stroke-width:0.5;"/><rect fill="#E3E3E3" height="39.1563" rx="2.5" ry="2.5" style="stroke:#181818;stroke-width:0.5;" width="218" x="416.5" y="50"/><text fill="#000000" font-family="sans-serif" font-size="20" lengthAdjust="spacing" textLength="204" x="423.5" y="77.7617">:VerifyAnnouncementUI</text><rect fill="#E3E3E3" height="39.1563" rx="2.5" ry="2.5" style="stroke:#181818;stroke-width:0.5;" width="218" x="416.5" y="1295.8438"/><text fill="#000000" font-family="sans-serif" font-size="20" lengthAdjust="spacing" textLength="204" x="423.5" y="1323.6055">:VerifyAnnouncementUI</text><rect fill="#E3E3E3" height="39.1563" rx="2.5" ry="2.5" style="stroke:#181818;stroke-width:0.5;" width="222" x="908.5" y="1295.8438"/><text fill="#000000" font-family="sans-serif" font-size="20" lengthAdjust="spacing" textLength="208" x="915.5" y="1323.6055">:CheckOrdersController</text><rect fill="#E3E3E3" height="39.1563" rx="2.5" ry="2.5" style="stroke:#181818;stroke-width:0.5;" width="142" x="1340.5" y="50"/><text fill="#000000" font-family="sans-serif" font-size="20" lengthAdjust="spacing" textLength="128" x="1347.5" y="77.7617">Announcement</text><rect fill="#E3E3E3" height="39.1563" rx="2.5" ry="2.5" style="stroke:#181818;stroke-width:0.5;" width="142" x="1340.5" y="1295.8438"/><text fill="#000000" font-family="sans-serif" font-size="20" lengthAdjust="spacing" textLength="128" x="1347.5" y="1323.6055">Announcement</text><rect fill="#E3E3E3" height="39.1563" rx="2.5" ry="2.5" style="stroke:#181818;stroke-width:0.5;" width="134" x="1492.5" y="50"/><text fill="#000000" font-family="sans-serif" font-size="20" lengthAdjust="spacing" textLength="120" x="1499.5" y="77.7617">AgentSession</text><rect fill="#E3E3E3" height="39.1563" rx="2.5" ry="2.5" style="stroke:#181818;stroke-width:0.5;" width="134" x="1492.5" y="1295.8438"/><text fill="#000000" font-family="sans-serif" font-size="20" lengthAdjust="spacing" textLength="120" x="1499.5" y="1323.6055">AgentSession</text><rect fill="#E3E3E3" height="39.1563" rx="2.5" ry="2.5" style="stroke:#181818;stroke-width:0.5;" width="130" x="1636.5" y="50"/><text fill="#000000" font-family="sans-serif" font-size="20" lengthAdjust="spacing" textLength="116" x="1643.5" y="77.7617">:Repositories</text><rect fill="#E3E3E3" height="39.1563" rx="2.5" ry="2.5" style="stroke:#181818;stroke-width:0.5;" width="130" x="1636.5" y="1295.8438"/><text fill="#000000" font-family="sans-serif" font-size="20" lengthAdjust="spacing" textLength="116" x="1643.5" y="1323.6055">:Repositories</text><rect fill="#E3E3E3" height="64.3125" rx="2.5" ry="2.5" style="stroke:#181818;stroke-width:0.5;" width="130" x="1776.5" y="24.8438"/><text fill="#000000" font-family="sans-serif" font-size="20" lengthAdjust="spacing" textLength="103" x="1790" y="52.6055">repositories</text><text fill="#000000" font-family="sans-serif" font-size="20" lengthAdjust="spacing" textLength="116" x="1783.5" y="77.7617">:Repositories</text><rect fill="#E3E3E3" height="64.3125" rx="2.5" ry="2.5" style="stroke:#181818;stroke-width:0.5;" width="130" x="1776.5" y="1295.8438"/><text fill="#000000" font-family="sans-serif" font-size="20" lengthAdjust="spacing" textLength="103" x="1790" y="1323.6055">repositories</text><text fill="#000000" font-family="sans-serif" font-size="20" lengthAdjust="spacing" textLength="116" x="1783.5" y="1348.7617">:Repositories</text><rect fill="#E3E3E3" height="39.1563" rx="2.5" ry="2.5" style="stroke:#181818;stroke-width:0.5;" width="237" x="1916.5" y="50"/><text fill="#000000" font-family="sans-serif" font-size="20" lengthAdjust="spacing" textLength="223" x="1923.5" y="77.7617">AnnouncementRepository</text><rect fill="#E3E3E3" height="39.1563" rx="2.5" ry="2.5" style="stroke:#181818;stroke-width:0.5;" width="237" x="1916.5" y="1295.8438"/><text fill="#000000" font-family="sans-serif" font-size="20" lengthAdjust="spacing" textLength="223" x="1923.5" y="1323.6055">AnnouncementRepository</text><rect fill="#E3E3E3" height="39.1563" rx="2.5" ry="2.5" style="stroke:#181818;stroke-width:0.5;" width="157" x="2163.5" y="50"/><text fill="#000000" font-family="sans-serif" font-size="20" lengthAdjust="spacing" textLength="143" x="2170.5" y="77.7617">EmailRepository</text><rect fill="#E3E3E3" height="39.1563" rx="2.5" ry="2.5" style="stroke:#181818;stroke-width:0.5;" width="157" x="2163.5" y="1295.8438"/><text fill="#000000" font-family="sans-serif" font-size="20" lengthAdjust="spacing" textLength="143" x="2170.5" y="1323.6055">EmailRepository</text><rect fill="#FFFFFF" height="1186.6875" style="stroke:#181818;stroke-width:1.0;" width="10" x="28.5" y="100.1563"/><rect fill="#FFFFFF" height="454.7188" style="stroke:#181818;stroke-width:1.0;" width="10" x="520.5" y="131.3125"/><rect fill="#FFFFFF" height="221.7813" style="stroke:#181818;stroke-width:1.0;" width="10" x="520.5" y="625.1875"/><rect fill="#FFFFFF" height="78.3125" style="stroke:#181818;stroke-width:1.0;" width="10" x="520.5" y="886.125"/><rect fill="#FFFFFF" height="326.25" style="stroke:#181818;stroke-width:1.0;" width="10" x="1014.5" y="220.625"/><rect fill="#FFFFFF" height="143.4688" style="stroke:#181818;stroke-width:1.0;" width="10" x="1014.5" y="664.3438"/><rect fill="#FFFFFF" height="39.1563" style="stroke:#181818;stroke-width:1.0;" width="10" x="1696.5" y="259.7813"/><rect fill="#FFFFFF" height="39.1563" style="stroke:#181818;stroke-width:1.0;" width="10" x="1836.5" y="338.0938"/><rect fill="#FFFFFF" height="39.1563" style="stroke:#181818;stroke-width:1.0;" width="10" x="2030" y="416.4063"/><polygon fill="#181818" points="508.5,127.3125,518.5,131.3125,508.5,135.3125,512.5,131.3125" style="stroke:#181818;stroke-width:1.0;"/><line style="stroke:#181818;stroke-width:1.0;" x1="38.5" x2="514.5" y1="131.3125" y2="131.3125"/><text fill="#000000" font-family="sans-serif" font-size="20" font-weight="bold" lengthAdjust="spacing" textLength="11" x="45.5" y="124.918">1</text><text fill="#000000" font-family="sans-serif" font-size="20" lengthAdjust="spacing" textLength="304" x="60.5" y="124.918">asks check orders from a property</text><polygon fill="#181818" points="896.5,166.4688,906.5,170.4688,896.5,174.4688,900.5,170.4688" style="stroke:#181818;stroke-width:1.0;"/><line style="stroke:#181818;stroke-width:1.0;" x1="530.5" x2="902.5" y1="170.4688" y2="170.4688"/><text fill="#000000" font-family="sans-serif" font-size="20" font-weight="bold" lengthAdjust="spacing" textLength="11" x="537.5" y="164.0742">2</text><text fill="#000000" font-family="sans-serif" font-size="20" lengthAdjust="spacing" textLength="56" x="552.5" y="164.0742">create</text><rect fill="#E3E3E3" height="39.1563" rx="2.5" ry="2.5" style="stroke:#181818;stroke-width:0.5;" width="222" x="908.5" y="139.3125"/><text fill="#000000" font-family="sans-serif" font-size="20" lengthAdjust="spacing" textLength="208" x="915.5" y="167.0742">:CheckOrdersController</text><polygon fill="#181818" points="1002.5,216.625,1012.5,220.625,1002.5,224.625,1006.5,220.625" style="stroke:#181818;stroke-width:1.0;"/><line style="stroke:#181818;stroke-width:1.0;" x1="530.5" x2="1008.5" y1="220.625" y2="220.625"/><text fill="#000000" font-family="sans-serif" font-size="20" font-weight="bold" lengthAdjust="spacing" textLength="11" x="537.5" y="214.2305">3</text><text fill="#000000" font-family="sans-serif" font-size="20" lengthAdjust="spacing" textLength="255" x="552.5" y="214.2305">getAnnouncementsByOrder()</text><polygon fill="#181818" points="1684.5,255.7813,1694.5,259.7813,1684.5,263.7813,1688.5,259.7813" style="stroke:#181818;stroke-width:1.0;"/><line style="stroke:#181818;stroke-width:1.0;" x1="1024.5" x2="1690.5" y1="259.7813" y2="259.7813"/><text fill="#000000" font-family="sans-serif" font-size="20" font-weight="bold" lengthAdjust="spacing" textLength="11" x="1031.5" y="253.3867">4</text><text fill="#000000" font-family="sans-serif" font-size="20" lengthAdjust="spacing" textLength="116" x="1046.5" y="253.3867">getInstance()</text><polygon fill="#181818" points="1035.5,294.9375,1025.5,298.9375,1035.5,302.9375,1031.5,298.9375" style="stroke:#181818;stroke-width:1.0;"/><line style="stroke:#181818;stroke-width:1.0;stroke-dasharray:2.0,2.0;" x1="1029.5" x2="1700.5" y1="298.9375" y2="298.9375"/><text fill="#000000" font-family="sans-serif" font-size="20" font-weight="bold" lengthAdjust="spacing" textLength="11" x="1041.5" y="292.543">5</text><text fill="#000000" font-family="sans-serif" font-size="20" lengthAdjust="spacing" textLength="103" x="1056.5" y="292.543">repositories</text><polygon fill="#181818" points="1824.5,334.0938,1834.5,338.0938,1824.5,342.0938,1828.5,338.0938" style="stroke:#181818;stroke-width:1.0;"/><line style="stroke:#181818;stroke-width:1.0;" x1="1024.5" x2="1830.5" y1="338.0938" y2="338.0938"/><text fill="#000000" font-family="sans-serif" font-size="20" font-weight="bold" lengthAdjust="spacing" textLength="11" x="1031.5" y="331.6992">6</text><text fill="#000000" font-family="sans-serif" font-size="20" lengthAdjust="spacing" textLength="265" x="1046.5" y="331.6992">getAnnouncementRepository()</text><polygon fill="#181818" points="1035.5,373.25,1025.5,377.25,1035.5,381.25,1031.5,377.25" style="stroke:#181818;stroke-width:1.0;"/><line style="stroke:#181818;stroke-width:1.0;stroke-dasharray:2.0,2.0;" x1="1029.5" x2="1840.5" y1="377.25" y2="377.25"/><text fill="#000000" font-family="sans-serif" font-size="20" font-weight="bold" lengthAdjust="spacing" textLength="11" x="1041.5" y="370.8555">7</text><text fill="#000000" font-family="sans-serif" font-size="20" lengthAdjust="spacing" textLength="223" x="1056.5" y="370.8555">AnnouncementRepository</text><polygon fill="#181818" points="2018,412.4063,2028,416.4063,2018,420.4063,2022,416.4063" style="stroke:#181818;stroke-width:1.0;"/><line style="stroke:#181818;stroke-width:1.0;" x1="1024.5" x2="2024" y1="416.4063" y2="416.4063"/><text fill="#000000" font-family="sans-serif" font-size="20" font-weight="bold" lengthAdjust="spacing" textLength="11" x="1031.5" y="410.0117">8</text><text fill="#000000" font-family="sans-serif" font-size="20" lengthAdjust="spacing" textLength="201" x="1046.5" y="410.0117">getAnnouncementList()</text><polygon fill="#181818" points="1035.5,451.5625,1025.5,455.5625,1035.5,459.5625,1031.5,455.5625" style="stroke:#181818;stroke-width:1.0;"/><line style="stroke:#181818;stroke-width:1.0;stroke-dasharray:2.0,2.0;" x1="1029.5" x2="2034" y1="455.5625" y2="455.5625"/><text fill="#000000" font-family="sans-serif" font-size="20" font-weight="bold" lengthAdjust="spacing" textLength="11" x="1041.5" y="449.168">9</text><text fill="#000000" font-family="sans-serif" font-size="20" lengthAdjust="spacing" textLength="157" x="1056.5" y="449.168">announcementList</text><line style="stroke:#181818;stroke-width:1.0;" x1="1024.5" x2="1066.5" y1="494.7188" y2="494.7188"/><line style="stroke:#181818;stroke-width:1.0;" x1="1066.5" x2="1066.5" y1="494.7188" y2="507.7188"/><line style="stroke:#181818;stroke-width:1.0;" x1="1025.5" x2="1066.5" y1="507.7188" y2="507.7188"/><polygon fill="#181818" points="1035.5,503.7188,1025.5,507.7188,1035.5,511.7188,1031.5,507.7188" style="stroke:#181818;stroke-width:1.0;"/><text fill="#000000" font-family="sans-serif" font-size="20" font-weight="bold" lengthAdjust="spacing" textLength="22" x="1031.5" y="488.3242">10</text><text fill="#000000" font-family="sans-serif" font-size="20" lengthAdjust="spacing" textLength="342" x="1057.5" y="488.3242">sort announcements by ascending date</text><polygon fill="#181818" points="541.5,542.875,531.5,546.875,541.5,550.875,537.5,546.875" style="stroke:#181818;stroke-width:1.0;"/><line style="stroke:#181818;stroke-width:1.0;stroke-dasharray:2.0,2.0;" x1="535.5" x2="1018.5" y1="546.875" y2="546.875"/><text fill="#000000" font-family="sans-serif" font-size="20" font-weight="bold" lengthAdjust="spacing" textLength="22" x="547.5" y="540.4805">11</text><text fill="#000000" font-family="sans-serif" font-size="20" lengthAdjust="spacing" textLength="167" x="573.5" y="540.4805">announcementsDto</text><polygon fill="#181818" points="49.5,582.0313,39.5,586.0313,49.5,590.0313,45.5,586.0313" style="stroke:#181818;stroke-width:1.0;"/><line style="stroke:#181818;stroke-width:1.0;stroke-dasharray:2.0,2.0;" x1="43.5" x2="524.5" y1="586.0313" y2="586.0313"/><text fill="#000000" font-family="sans-serif" font-size="20" font-weight="bold" lengthAdjust="spacing" textLength="22" x="55.5" y="579.6367">12</text><text fill="#000000" font-family="sans-serif" font-size="20" lengthAdjust="spacing" textLength="303" x="81.5" y="579.6367">shows all announcements by order</text><polygon fill="#181818" points="508.5,621.1875,518.5,625.1875,508.5,629.1875,512.5,625.1875" style="stroke:#181818;stroke-width:1.0;"/><line style="stroke:#181818;stroke-width:1.0;" x1="38.5" x2="514.5" y1="625.1875" y2="625.1875"/><text fill="#000000" font-family="sans-serif" font-size="20" font-weight="bold" lengthAdjust="spacing" textLength="22" x="45.5" y="618.793">13</text><text fill="#000000" font-family="sans-serif" font-size="20" lengthAdjust="spacing" textLength="222" x="71.5" y="618.793">chose one announcement</text><polygon fill="#181818" points="1002.5,660.3438,1012.5,664.3438,1002.5,668.3438,1006.5,664.3438" style="stroke:#181818;stroke-width:1.0;"/><line style="stroke:#181818;stroke-width:1.0;" x1="530.5" x2="1008.5" y1="664.3438" y2="664.3438"/><text fill="#000000" font-family="sans-serif" font-size="20" font-weight="bold" lengthAdjust="spacing" textLength="22" x="537.5" y="657.9492">14</text><text fill="#000000" font-family="sans-serif" font-size="20" lengthAdjust="spacing" textLength="439" x="563.5" y="657.9492">getOrdersByOrder(Announcement announcement)</text><line style="stroke:#181818;stroke-width:1.0;" x1="1024.5" x2="1066.5" y1="703.5" y2="703.5"/><line style="stroke:#181818;stroke-width:1.0;" x1="1066.5" x2="1066.5" y1="703.5" y2="716.5"/><line style="stroke:#181818;stroke-width:1.0;" x1="1025.5" x2="1066.5" y1="716.5" y2="716.5"/><polygon fill="#181818" points="1035.5,712.5,1025.5,716.5,1035.5,720.5,1031.5,716.5" style="stroke:#181818;stroke-width:1.0;"/><text fill="#000000" font-family="sans-serif" font-size="20" font-weight="bold" lengthAdjust="spacing" textLength="22" x="1031.5" y="697.1055">15</text><text fill="#000000" font-family="sans-serif" font-size="20" lengthAdjust="spacing" textLength="104" x="1057.5" y="697.1055">getOrders()</text><line style="stroke:#181818;stroke-width:1.0;" x1="1024.5" x2="1066.5" y1="755.6563" y2="755.6563"/><line style="stroke:#181818;stroke-width:1.0;" x1="1066.5" x2="1066.5" y1="755.6563" y2="768.6563"/><line style="stroke:#181818;stroke-width:1.0;" x1="1025.5" x2="1066.5" y1="768.6563" y2="768.6563"/><polygon fill="#181818" points="1035.5,764.6563,1025.5,768.6563,1035.5,772.6563,1031.5,768.6563" style="stroke:#181818;stroke-width:1.0;"/><text fill="#000000" font-family="sans-serif" font-size="20" font-weight="bold" lengthAdjust="spacing" textLength="22" x="1031.5" y="749.2617">16</text><text fill="#000000" font-family="sans-serif" font-size="20" lengthAdjust="spacing" textLength="267" x="1057.5" y="749.2617">sort orders by ascending price</text><polygon fill="#181818" points="541.5,803.8125,531.5,807.8125,541.5,811.8125,537.5,807.8125" style="stroke:#181818;stroke-width:1.0;"/><line style="stroke:#181818;stroke-width:1.0;stroke-dasharray:2.0,2.0;" x1="535.5" x2="1018.5" y1="807.8125" y2="807.8125"/><text fill="#000000" font-family="sans-serif" font-size="20" font-weight="bold" lengthAdjust="spacing" textLength="22" x="547.5" y="801.418">17</text><text fill="#000000" font-family="sans-serif" font-size="20" lengthAdjust="spacing" textLength="93" x="573.5" y="801.418">OrdersDto</text><polygon fill="#181818" points="49.5,842.9688,39.5,846.9688,49.5,850.9688,45.5,846.9688" style="stroke:#181818;stroke-width:1.0;"/><line style="stroke:#181818;stroke-width:1.0;stroke-dasharray:2.0,2.0;" x1="43.5" x2="524.5" y1="846.9688" y2="846.9688"/><text fill="#000000" font-family="sans-serif" font-size="20" font-weight="bold" lengthAdjust="spacing" textLength="22" x="55.5" y="840.5742">18</text><text fill="#000000" font-family="sans-serif" font-size="20" lengthAdjust="spacing" textLength="224" x="81.5" y="840.5742">shows all orders by order</text><polygon fill="#181818" points="508.5,882.125,518.5,886.125,508.5,890.125,512.5,886.125" style="stroke:#181818;stroke-width:1.0;"/><line style="stroke:#181818;stroke-width:1.0;" x1="38.5" x2="514.5" y1="886.125" y2="886.125"/><text fill="#000000" font-family="sans-serif" font-size="20" font-weight="bold" lengthAdjust="spacing" textLength="22" x="45.5" y="879.7305">19</text><text fill="#000000" font-family="sans-serif" font-size="20" lengthAdjust="spacing" textLength="143" x="71.5" y="879.7305">chose one order</text><polygon fill="#181818" points="49.5,921.2813,39.5,925.2813,49.5,929.2813,45.5,925.2813" style="stroke:#181818;stroke-width:1.0;"/><line style="stroke:#181818;stroke-width:1.0;stroke-dasharray:2.0,2.0;" x1="43.5" x2="519.5" y1="925.2813" y2="925.2813"/><text fill="#000000" font-family="sans-serif" font-size="20" font-weight="bold" lengthAdjust="spacing" textLength="22" x="55.5" y="918.8867">20</text><text fill="#000000" font-family="sans-serif" font-size="20" lengthAdjust="spacing" textLength="432" x="81.5" y="918.8867">shows the validate options (Accept/Denied/Redo)</text><polygon fill="#181818" points="513.5,960.4375,523.5,964.4375,513.5,968.4375,517.5,964.4375" style="stroke:#181818;stroke-width:1.0;"/><line style="stroke:#181818;stroke-width:1.0;" x1="38.5" x2="519.5" y1="964.4375" y2="964.4375"/><text fill="#000000" font-family="sans-serif" font-size="20" font-weight="bold" lengthAdjust="spacing" textLength="22" x="45.5" y="958.043">21</text><text fill="#000000" font-family="sans-serif" font-size="20" lengthAdjust="spacing" textLength="149" x="71.5" y="958.043">chose one option</text><path d="M406.5,979.4375 L474.5,979.4375 L474.5,996.5938 L464.5,1006.5938 L406.5,1006.5938 L406.5,979.4375 " fill="#EEEEEE" style="stroke:#000000;stroke-width:1.5;"/><rect fill="none" height="300.4063" style="stroke:#000000;stroke-width:1.5;" width="1924" x="406.5" y="979.4375"/><text fill="#000000" font-family="sans-serif" font-size="20" font-weight="bold" lengthAdjust="spacing" textLength="23" x="421.5" y="1001.1992">alt</text><text fill="#000000" font-family="sans-serif" font-size="20" font-weight="bold" lengthAdjust="spacing" textLength="163" x="489.5" y="1002.1992">[option = Accept]</text><polygon fill="#181818" points="1007.5,1043.9063,1017.5,1047.9063,1007.5,1051.9063,1011.5,1047.9063" style="stroke:#181818;stroke-width:1.0;"/><line style="stroke:#181818;stroke-width:1.0;" x1="525.5" x2="1013.5" y1="1047.9063" y2="1047.9063"/><text fill="#000000" font-family="sans-serif" font-size="20" font-weight="bold" lengthAdjust="spacing" textLength="22" x="532.5" y="1041.5117">22</text><text fill="#000000" font-family="sans-serif" font-size="20" lengthAdjust="spacing" textLength="408" x="558.5" y="1041.5117">acceptThisOrder(announcementDto, orderDto)</text><polygon fill="#181818" points="2230,1083.0625,2240,1087.0625,2230,1091.0625,2234,1087.0625" style="stroke:#181818;stroke-width:1.0;"/><line style="stroke:#181818;stroke-width:1.0;" x1="1019.5" x2="2236" y1="1087.0625" y2="1087.0625"/><text fill="#000000" font-family="sans-serif" font-size="20" font-weight="bold" lengthAdjust="spacing" textLength="22" x="1026.5" y="1080.668">23</text><text fill="#000000" font-family="sans-serif" font-size="20" lengthAdjust="spacing" textLength="609" x="1052.5" y="1080.668">Message(true, subject, getEmployeeInSession(), person, information)</text><line style="stroke:#000000;stroke-width:1.0;stroke-dasharray:2.0,2.0;" x1="406.5" x2="2330.5" y1="1096.0625" y2="1096.0625"/><text fill="#000000" font-family="sans-serif" font-size="20" font-weight="bold" lengthAdjust="spacing" textLength="163" x="411.5" y="1116.8242">[option = Denied]</text><polygon fill="#181818" points="1007.5,1149.375,1017.5,1153.375,1007.5,1157.375,1011.5,1153.375" style="stroke:#181818;stroke-width:1.0;"/><line style="stroke:#181818;stroke-width:1.0;" x1="525.5" x2="1013.5" y1="1153.375" y2="1153.375"/><text fill="#000000" font-family="sans-serif" font-size="20" font-weight="bold" lengthAdjust="spacing" textLength="22" x="532.5" y="1146.9805">24</text><text fill="#000000" font-family="sans-serif" font-size="20" lengthAdjust="spacing" textLength="414" x="558.5" y="1146.9805">removeThisOrder(announcementDto, orderDto)</text><polygon fill="#181818" points="2230,1188.5313,2240,1192.5313,2230,1196.5313,2234,1192.5313" style="stroke:#181818;stroke-width:1.0;"/><line style="stroke:#181818;stroke-width:1.0;" x1="1019.5" x2="2236" y1="1192.5313" y2="1192.5313"/><text fill="#000000" font-family="sans-serif" font-size="20" font-weight="bold" lengthAdjust="spacing" textLength="22" x="1026.5" y="1186.1367">25</text><text fill="#000000" font-family="sans-serif" font-size="20" lengthAdjust="spacing" textLength="609" x="1052.5" y="1186.1367">Message(true, subject, getEmployeeInSession(), person, information)</text><line style="stroke:#000000;stroke-width:1.0;stroke-dasharray:2.0,2.0;" x1="406.5" x2="2330.5" y1="1201.5313" y2="1201.5313"/><text fill="#000000" font-family="sans-serif" font-size="20" font-weight="bold" lengthAdjust="spacing" textLength="139" x="411.5" y="1222.293">[option = Skip]</text><line style="stroke:#181818;stroke-width:1.0;" x1="525.5" x2="567.5" y1="1258.8438" y2="1258.8438"/><line style="stroke:#181818;stroke-width:1.0;" x1="567.5" x2="567.5" y1="1258.8438" y2="1271.8438"/><line style="stroke:#181818;stroke-width:1.0;" x1="526.5" x2="567.5" y1="1271.8438" y2="1271.8438"/><polygon fill="#181818" points="536.5,1267.8438,526.5,1271.8438,536.5,1275.8438,532.5,1271.8438" style="stroke:#181818;stroke-width:1.0;"/><text fill="#000000" font-family="sans-serif" font-size="20" font-weight="bold" lengthAdjust="spacing" textLength="22" x="532.5" y="1252.4492">26</text><text fill="#000000" font-family="sans-serif" font-size="20" lengthAdjust="spacing" textLength="215" x="558.5" y="1252.4492">new CheckOrderUI.run()</text><!--SRC=[pLNBRjim4BppAnRfeKxWD4MF1bf0UHGmaAA5dVJK2qsjBTOILo3fkEhNTodQ4ILREVSca3kpmvaLwRRQrDBAgYIrnHnoNCjTwR-IyKlz5-7JH-6E9L2H8LLOgX2ytM6oKqkrbHjS-gP4iAYyD9ioBN25p6clpGRMidGeXDnvChjgXLQ8zuNE4TP4VaL_X5IUB5na6pJ-0gI33Dujo3MtblP6C9tNIjVIUBYO_KIhrqrc3EsCmeeHp_CMypmVLDuLgBRVROxMtV7XB9KbshRqxcdns2zE-QA2P65G6bGkqJbD9ZPU3Xeli2Qd-KWQNLlnkj0iTN29VUX3R8BuPKu9VZncJ-E2E_eJwTrM7_vGILqES8Cr4MBHBz8ZP49aSFs5BOOPLsuTgE0jK6ikh7a-G49jgKRhcmx7aGZ6C38uVdN5Q6MHTv9LNjkWJpMxswPDRNBPCRM9YRQUSMVyZ3HputWE5QRGS-QBSmpN1qKpIECGERvDTHGLCZezJ0T9DRLvYXRHTHt9BUaVOSU6v-jF9JngvzFc8tt42Dzr5vGSiARQnbYFQkCP7LdVet6mQdYa59eyN1Lv68u8UPstjFhUKzeqZaKOfk075xk2zWvaMPusQOSr1OVfxCPQ5UGGo60FEJRBqULukHp7DNMWHp8wnz6JLo8EwOnRXv-iPrDjjKAH6ZMB56_wazhJiRxbIsfBh3ln8oNs1SABB7L84QZsV4Cwc6HAOUrlxj5ep6yMcDFb-GOjOAX4blwm0vyXKlLpaEtQKw5TZ25rdksOHk7yrRaxkEcOv1lVv_oQJS8ZDmMtM_tc5sqQedcewf8QnBavtFcJoodmFUV8J46RDTbA1dLy9YmTTbhZUVjQBLRqWl-VrkLMrmUbxSzWS0_Ty_ay_s1tp2Lu-aJld_y7]--></g></svg>