<?xml version="1.0" encoding="UTF-8" standalone="no"?><svg xmlns="http://www.w3.org/2000/svg" xmlns:xlink="http://www.w3.org/1999/xlink" contentStyleType="text/css" height="1940px" preserveAspectRatio="none" style="width:2266px;height:1940px;background:#FFFFFF;" version="1.1" viewBox="0 0 2266 1940" width="2266px" zoomAndPan="magnify"><defs/><g><!--class ListingRequestUI--><g id="elem_ListingRequestUI"><rect codeLine="16" fill="#FFDAB9" height="50" id="ListingRequestUI" rx="2.5" ry="2.5" style="stroke:#4169E1;stroke-width:0.5;" width="204" x="810.5" y="7"/><ellipse cx="826.5" cy="24" fill="#ADD1B2" rx="12" ry="12" style="stroke:#181818;stroke-width:1.0;"/><path d="M829.5625,31.0781 Q828.875,31.4375 828.125,31.6094 Q827.375,31.7813 826.5469,31.7813 Q823.5938,31.7813 822.0313,29.8438 Q820.4844,27.8906 820.4844,24.2188 Q820.4844,20.5469 822.0313,18.6094 Q823.5938,16.6563 826.5469,16.6563 Q827.375,16.6563 828.125,16.8281 Q828.8906,17 829.5625,17.3594 L829.5625,20.5625 Q828.8125,19.875 828.1094,19.5625 Q827.4219,19.25 826.6719,19.25 Q825.0938,19.25 824.2813,20.5 Q823.4844,21.75 823.4844,24.2188 Q823.4844,26.6875 824.2813,27.9375 Q825.0938,29.1875 826.6719,29.1875 Q827.4219,29.1875 828.1094,28.875 Q828.8125,28.5625 829.5625,27.875 L829.5625,31.0781 Z " fill="#000000"/><text fill="#000000" font-family="sans-serif" font-size="20" lengthAdjust="spacing" textLength="170" x="841.5" y="30.9238">ListingRequestUI</text><line style="stroke:#4169E1;stroke-width:0.5;" x1="811.5" x2="1013.5" y1="41" y2="41"/><line style="stroke:#4169E1;stroke-width:0.5;" x1="811.5" x2="1013.5" y1="49" y2="49"/></g><!--class ListingRequestController--><g id="elem_ListingRequestController"><rect codeLine="19" fill="#FFDAB9" height="119.8438" id="ListingRequestController" rx="2.5" ry="2.5" style="stroke:#4169E1;stroke-width:0.5;" width="577" x="624" y="118"/><ellipse cx="784" cy="135" fill="#ADD1B2" rx="12" ry="12" style="stroke:#181818;stroke-width:1.0;"/><path d="M787.0625,142.0781 Q786.375,142.4375 785.625,142.6094 Q784.875,142.7813 784.0469,142.7813 Q781.0938,142.7813 779.5313,140.8438 Q777.9844,138.8906 777.9844,135.2188 Q777.9844,131.5469 779.5313,129.6094 Q781.0938,127.6563 784.0469,127.6563 Q784.875,127.6563 785.625,127.8281 Q786.3906,128 787.0625,128.3594 L787.0625,131.5625 Q786.3125,130.875 785.6094,130.5625 Q784.9219,130.25 784.1719,130.25 Q782.5938,130.25 781.7813,131.5 Q780.9844,132.75 780.9844,135.2188 Q780.9844,137.6875 781.7813,138.9375 Q782.5938,140.1875 784.1719,140.1875 Q784.9219,140.1875 785.6094,139.875 Q786.3125,139.5625 787.0625,138.875 L787.0625,142.0781 Z " fill="#000000"/><text fill="#000000" font-family="sans-serif" font-size="20" lengthAdjust="spacing" textLength="248" x="806" y="141.9238">ListingRequestController</text><line style="stroke:#4169E1;stroke-width:0.5;" x1="625" x2="1200" y1="152" y2="152"/><line style="stroke:#4169E1;stroke-width:0.5;" x1="625" x2="1200" y1="160" y2="160"/><text fill="#000000" font-family="sans-serif" font-size="20" lengthAdjust="spacing" textLength="565" x="630" y="182.5645">+registerUser(name, passport card number, tax number</text><text fill="#000000" font-family="sans-serif" font-size="20" lengthAdjust="spacing" textLength="427" x="630" y="205.8457">, address, email,phone number, password)</text><text fill="#000000" font-family="sans-serif" font-size="20" lengthAdjust="spacing" textLength="123" x="630" y="229.127">+saveUser()</text></g><!--class Property--><g id="elem_Property"><rect codeLine="23" fill="#FFDAB9" height="212.9688" id="Property" rx="2.5" ry="2.5" style="stroke:#4169E1;stroke-width:0.5;" width="725" x="231" y="1243"/><ellipse cx="546.5" cy="1260" fill="#A9DCDF" rx="12" ry="12" style="stroke:#181818;stroke-width:1.0;"/><path d="M546.5156,1254.8125 L545.1563,1260.7656 L547.8906,1260.7656 L546.5156,1254.8125 Z M544.7656,1252.1719 L548.2813,1252.1719 L552.2188,1266.75 L549.3438,1266.75 L548.4375,1263.1406 L544.5781,1263.1406 L543.7031,1266.75 L540.8281,1266.75 L544.7656,1252.1719 Z " fill="#000000"/><text fill="#000000" font-family="sans-serif" font-size="20" font-style="italic" lengthAdjust="spacing" textLength="85" x="568.5" y="1266.9238">Property</text><line style="stroke:#4169E1;stroke-width:0.5;" x1="232" x2="955" y1="1277" y2="1277"/><text fill="#000000" font-family="sans-serif" font-size="20" lengthAdjust="spacing" textLength="175" x="237" y="1299.5645">-double areaInM2</text><text fill="#000000" font-family="sans-serif" font-size="20" lengthAdjust="spacing" textLength="325" x="237" y="1322.8457">-double distanceFromCityCentre</text><text fill="#000000" font-family="sans-serif" font-size="20" lengthAdjust="spacing" textLength="300" x="237" y="1346.127">-ArrayList &lt;String&gt; photoURL</text><text fill="#000000" font-family="sans-serif" font-size="20" lengthAdjust="spacing" textLength="202" x="237" y="1369.4082">-String typeProperty</text><text fill="#000000" font-family="sans-serif" font-size="20" lengthAdjust="spacing" textLength="173" x="237" y="1392.6895">-Address Address</text><line style="stroke:#4169E1;stroke-width:0.5;" x1="232" x2="955" y1="1401.4063" y2="1401.4063"/><text fill="#000000" font-family="sans-serif" font-size="20" lengthAdjust="spacing" textLength="713" x="237" y="1423.9707">+Property(areaInM2, distanceFromCityCentre, photoURL, typeProperty,</text><text fill="#000000" font-family="sans-serif" font-size="20" lengthAdjust="spacing" textLength="239" x="237" y="1447.252">Address, Housing, Deal)</text></g><!--class Home--><g id="elem_Home"><rect codeLine="32" fill="#FFDAB9" height="143.125" id="Home" rx="2.5" ry="2.5" style="stroke:#4169E1;stroke-width:0.5;" width="415" x="7" y="1517"/><ellipse cx="180.5" cy="1534" fill="#A9DCDF" rx="12" ry="12" style="stroke:#181818;stroke-width:1.0;"/><path d="M180.5156,1528.8125 L179.1563,1534.7656 L181.8906,1534.7656 L180.5156,1528.8125 Z M178.7656,1526.1719 L182.2813,1526.1719 L186.2188,1540.75 L183.3438,1540.75 L182.4375,1537.1406 L178.5781,1537.1406 L177.7031,1540.75 L174.8281,1540.75 L178.7656,1526.1719 Z " fill="#000000"/><text fill="#000000" font-family="sans-serif" font-size="20" font-style="italic" lengthAdjust="spacing" textLength="59" x="202.5" y="1540.9238">Home</text><line style="stroke:#4169E1;stroke-width:0.5;" x1="8" x2="421" y1="1551" y2="1551"/><text fill="#000000" font-family="sans-serif" font-size="20" lengthAdjust="spacing" textLength="243" x="13" y="1573.5645">-int numberOfBedrooms</text><text fill="#000000" font-family="sans-serif" font-size="20" lengthAdjust="spacing" textLength="251" x="13" y="1596.8457">-int numberOfBathrooms</text><text fill="#000000" font-family="sans-serif" font-size="20" lengthAdjust="spacing" textLength="279" x="13" y="1620.127">-int numberOfParkingSpace</text><text fill="#000000" font-family="sans-serif" font-size="20" lengthAdjust="spacing" textLength="403" x="13" y="1643.4082">-ArrayList &lt;String&gt; availableEquipment</text><line style="stroke:#4169E1;stroke-width:0.5;" x1="8" x2="421" y1="1652.125" y2="1652.125"/></g><!--class House--><g id="elem_House"><rect codeLine="38" fill="#FFDAB9" height="119.8438" id="House" rx="2.5" ry="2.5" style="stroke:#4169E1;stroke-width:0.5;" width="257" x="207" y="1767.5"/><ellipse cx="300" cy="1784.5" fill="#ADD1B2" rx="12" ry="12" style="stroke:#181818;stroke-width:1.0;"/><path d="M303.0625,1791.5781 Q302.375,1791.9375 301.625,1792.1094 Q300.875,1792.2813 300.0469,1792.2813 Q297.0938,1792.2813 295.5313,1790.3438 Q293.9844,1788.3906 293.9844,1784.7188 Q293.9844,1781.0469 295.5313,1779.1094 Q297.0938,1777.1563 300.0469,1777.1563 Q300.875,1777.1563 301.625,1777.3281 Q302.3906,1777.5 303.0625,1777.8594 L303.0625,1781.0625 Q302.3125,1780.375 301.6094,1780.0625 Q300.9219,1779.75 300.1719,1779.75 Q298.5938,1779.75 297.7813,1781 Q296.9844,1782.25 296.9844,1784.7188 Q296.9844,1787.1875 297.7813,1788.4375 Q298.5938,1789.6875 300.1719,1789.6875 Q300.9219,1789.6875 301.6094,1789.375 Q302.3125,1789.0625 303.0625,1788.375 L303.0625,1791.5781 Z " fill="#000000"/><text fill="#000000" font-family="sans-serif" font-size="20" lengthAdjust="spacing" textLength="62" x="322" y="1791.4238">House</text><line style="stroke:#4169E1;stroke-width:0.5;" x1="208" x2="463" y1="1801.5" y2="1801.5"/><text fill="#000000" font-family="sans-serif" font-size="20" lengthAdjust="spacing" textLength="193" x="213" y="1824.0645">-boolean basement</text><text fill="#000000" font-family="sans-serif" font-size="20" lengthAdjust="spacing" textLength="245" x="213" y="1847.3457">-boolean inhabitableLoft</text><text fill="#000000" font-family="sans-serif" font-size="20" lengthAdjust="spacing" textLength="202" x="213" y="1870.627">-String sunExposure</text><line style="stroke:#4169E1;stroke-width:0.5;" x1="208" x2="463" y1="1879.3438" y2="1879.3438"/></g><!--class Apartement--><g id="elem_Apartement"><rect codeLine="43" fill="#FFDAB9" height="50" id="Apartement" rx="2.5" ry="2.5" style="stroke:#4169E1;stroke-width:0.5;" width="154" x="17.5" y="1802.5"/><ellipse cx="33.5" cy="1819.5" fill="#ADD1B2" rx="12" ry="12" style="stroke:#181818;stroke-width:1.0;"/><path d="M36.5625,1826.5781 Q35.875,1826.9375 35.125,1827.1094 Q34.375,1827.2813 33.5469,1827.2813 Q30.5938,1827.2813 29.0313,1825.3438 Q27.4844,1823.3906 27.4844,1819.7188 Q27.4844,1816.0469 29.0313,1814.1094 Q30.5938,1812.1563 33.5469,1812.1563 Q34.375,1812.1563 35.125,1812.3281 Q35.8906,1812.5 36.5625,1812.8594 L36.5625,1816.0625 Q35.8125,1815.375 35.1094,1815.0625 Q34.4219,1814.75 33.6719,1814.75 Q32.0938,1814.75 31.2813,1816 Q30.4844,1817.25 30.4844,1819.7188 Q30.4844,1822.1875 31.2813,1823.4375 Q32.0938,1824.6875 33.6719,1824.6875 Q34.4219,1824.6875 35.1094,1824.375 Q35.8125,1824.0625 36.5625,1823.375 L36.5625,1826.5781 Z " fill="#000000"/><text fill="#000000" font-family="sans-serif" font-size="20" lengthAdjust="spacing" textLength="120" x="48.5" y="1826.4238">Apartement</text><line style="stroke:#4169E1;stroke-width:0.5;" x1="18.5" x2="170.5" y1="1836.5" y2="1836.5"/><line style="stroke:#4169E1;stroke-width:0.5;" x1="18.5" x2="170.5" y1="1844.5" y2="1844.5"/></g><!--class Land--><g id="elem_Land"><rect codeLine="46" fill="#FFDAB9" height="50" id="Land" rx="2.5" ry="2.5" style="stroke:#4169E1;stroke-width:0.5;" width="83" x="457" y="1563.5"/><ellipse cx="473" cy="1580.5" fill="#ADD1B2" rx="12" ry="12" style="stroke:#181818;stroke-width:1.0;"/><path d="M476.0625,1587.5781 Q475.375,1587.9375 474.625,1588.1094 Q473.875,1588.2813 473.0469,1588.2813 Q470.0938,1588.2813 468.5313,1586.3438 Q466.9844,1584.3906 466.9844,1580.7188 Q466.9844,1577.0469 468.5313,1575.1094 Q470.0938,1573.1563 473.0469,1573.1563 Q473.875,1573.1563 474.625,1573.3281 Q475.3906,1573.5 476.0625,1573.8594 L476.0625,1577.0625 Q475.3125,1576.375 474.6094,1576.0625 Q473.9219,1575.75 473.1719,1575.75 Q471.5938,1575.75 470.7813,1577 Q469.9844,1578.25 469.9844,1580.7188 Q469.9844,1583.1875 470.7813,1584.4375 Q471.5938,1585.6875 473.1719,1585.6875 Q473.9219,1585.6875 474.6094,1585.375 Q475.3125,1585.0625 476.0625,1584.375 L476.0625,1587.5781 Z " fill="#000000"/><text fill="#000000" font-family="sans-serif" font-size="20" lengthAdjust="spacing" textLength="49" x="488" y="1587.4238">Land</text><line style="stroke:#4169E1;stroke-width:0.5;" x1="458" x2="539" y1="1597.5" y2="1597.5"/><line style="stroke:#4169E1;stroke-width:0.5;" x1="458" x2="539" y1="1605.5" y2="1605.5"/></g><!--class Address--><g id="elem_Address"><rect codeLine="49" fill="#FFDAB9" height="212.9688" id="Address" rx="2.5" ry="2.5" style="stroke:#4169E1;stroke-width:0.5;" width="637" x="1284" y="1721"/><ellipse cx="1558" cy="1738" fill="#ADD1B2" rx="12" ry="12" style="stroke:#181818;stroke-width:1.0;"/><path d="M1561.0625,1745.0781 Q1560.375,1745.4375 1559.625,1745.6094 Q1558.875,1745.7813 1558.0469,1745.7813 Q1555.0938,1745.7813 1553.5313,1743.8438 Q1551.9844,1741.8906 1551.9844,1738.2188 Q1551.9844,1734.5469 1553.5313,1732.6094 Q1555.0938,1730.6563 1558.0469,1730.6563 Q1558.875,1730.6563 1559.625,1730.8281 Q1560.3906,1731 1561.0625,1731.3594 L1561.0625,1734.5625 Q1560.3125,1733.875 1559.6094,1733.5625 Q1558.9219,1733.25 1558.1719,1733.25 Q1556.5938,1733.25 1555.7813,1734.5 Q1554.9844,1735.75 1554.9844,1738.2188 Q1554.9844,1740.6875 1555.7813,1741.9375 Q1556.5938,1743.1875 1558.1719,1743.1875 Q1558.9219,1743.1875 1559.6094,1742.875 Q1560.3125,1742.5625 1561.0625,1741.875 L1561.0625,1745.0781 Z " fill="#000000"/><text fill="#000000" font-family="sans-serif" font-size="20" lengthAdjust="spacing" textLength="80" x="1580" y="1744.9238">Address</text><line style="stroke:#4169E1;stroke-width:0.5;" x1="1285" x2="1920" y1="1755" y2="1755"/><text fill="#000000" font-family="sans-serif" font-size="20" lengthAdjust="spacing" textLength="132" x="1290" y="1777.5645">-String street</text><text fill="#000000" font-family="sans-serif" font-size="20" lengthAdjust="spacing" textLength="110" x="1290" y="1800.8457">-String city</text><text fill="#000000" font-family="sans-serif" font-size="20" lengthAdjust="spacing" textLength="124" x="1290" y="1824.127">-String state</text><text fill="#000000" font-family="sans-serif" font-size="20" lengthAdjust="spacing" textLength="118" x="1290" y="1847.4082">-int zipcode</text><text fill="#000000" font-family="sans-serif" font-size="20" lengthAdjust="spacing" textLength="136" x="1290" y="1870.6895">-String distric</text><line style="stroke:#4169E1;stroke-width:0.5;" x1="1285" x2="1920" y1="1879.4063" y2="1879.4063"/><text fill="#000000" font-family="sans-serif" font-size="20" lengthAdjust="spacing" textLength="622" x="1290" y="1901.9707">+setAdress(String street, String city, String state, int zipcode)</text><text fill="#000000" font-family="sans-serif" font-size="20" lengthAdjust="spacing" textLength="625" x="1290" y="1925.252">+getAdress(String street, String city, String state, int zipcode)</text></g><!--class Repositories--><g id="elem_Repositories"><rect codeLine="59" fill="#FFDAB9" height="212.9688" id="Repositories" rx="2.5" ry="2.5" style="stroke:#4169E1;stroke-width:0.5;" width="305" x="1312" y="323"/><ellipse cx="1398.5" cy="340" fill="#ADD1B2" rx="12" ry="12" style="stroke:#181818;stroke-width:1.0;"/><path d="M1401.5625,347.0781 Q1400.875,347.4375 1400.125,347.6094 Q1399.375,347.7813 1398.5469,347.7813 Q1395.5938,347.7813 1394.0313,345.8438 Q1392.4844,343.8906 1392.4844,340.2188 Q1392.4844,336.5469 1394.0313,334.6094 Q1395.5938,332.6563 1398.5469,332.6563 Q1399.375,332.6563 1400.125,332.8281 Q1400.8906,333 1401.5625,333.3594 L1401.5625,336.5625 Q1400.8125,335.875 1400.1094,335.5625 Q1399.4219,335.25 1398.6719,335.25 Q1397.0938,335.25 1396.2813,336.5 Q1395.4844,337.75 1395.4844,340.2188 Q1395.4844,342.6875 1396.2813,343.9375 Q1397.0938,345.1875 1398.6719,345.1875 Q1399.4219,345.1875 1400.1094,344.875 Q1400.8125,344.5625 1401.5625,343.875 L1401.5625,347.0781 Z " fill="#000000"/><text fill="#000000" font-family="sans-serif" font-size="20" lengthAdjust="spacing" textLength="123" x="1420.5" y="346.9238">Repositories</text><line style="stroke:#4169E1;stroke-width:0.5;" x1="1313" x2="1616" y1="357" y2="357"/><line style="stroke:#4169E1;stroke-width:0.5;" x1="1313" x2="1616" y1="365" y2="365"/><text fill="#000000" font-family="sans-serif" font-size="20" lengthAdjust="spacing" textLength="146" x="1318" y="387.5645">-Repositories()</text><text fill="#000000" font-family="sans-serif" font-size="20" lengthAdjust="spacing" textLength="293" x="1318" y="410.8457">+getInstance() : Repositories</text><text fill="#000000" font-family="sans-serif" font-size="20" lengthAdjust="spacing" textLength="271" x="1318" y="434.127">+getEmployeeRepository()</text><text fill="#000000" font-family="sans-serif" font-size="20" lengthAdjust="spacing" textLength="256" x="1318" y="457.4082">+getPropertyRepository()</text><text fill="#000000" font-family="sans-serif" font-size="20" lengthAdjust="spacing" textLength="256" x="1318" y="480.6895">+getPropertyRepository()</text><text fill="#000000" font-family="sans-serif" font-size="20" lengthAdjust="spacing" textLength="246" x="1318" y="503.9707">+getAgencyRepository()</text><text fill="#000000" font-family="sans-serif" font-size="20" lengthAdjust="spacing" textLength="217" x="1318" y="527.252">+getUserRepository()</text></g><!--class User--><g id="elem_User"><rect codeLine="68" fill="#FFDAB9" height="96.5625" id="User" rx="2.5" ry="2.5" style="stroke:#4169E1;stroke-width:0.5;" width="445" x="1656" y="1301"/><ellipse cx="1851.5" cy="1318" fill="#ADD1B2" rx="12" ry="12" style="stroke:#181818;stroke-width:1.0;"/><path d="M1854.5625,1325.0781 Q1853.875,1325.4375 1853.125,1325.6094 Q1852.375,1325.7813 1851.5469,1325.7813 Q1848.5938,1325.7813 1847.0313,1323.8438 Q1845.4844,1321.8906 1845.4844,1318.2188 Q1845.4844,1314.5469 1847.0313,1312.6094 Q1848.5938,1310.6563 1851.5469,1310.6563 Q1852.375,1310.6563 1853.125,1310.8281 Q1853.8906,1311 1854.5625,1311.3594 L1854.5625,1314.5625 Q1853.8125,1313.875 1853.1094,1313.5625 Q1852.4219,1313.25 1851.6719,1313.25 Q1850.0938,1313.25 1849.2813,1314.5 Q1848.4844,1315.75 1848.4844,1318.2188 Q1848.4844,1320.6875 1849.2813,1321.9375 Q1850.0938,1323.1875 1851.6719,1323.1875 Q1852.4219,1323.1875 1853.1094,1322.875 Q1853.8125,1322.5625 1854.5625,1321.875 L1854.5625,1325.0781 Z " fill="#000000"/><text fill="#000000" font-family="sans-serif" font-size="20" lengthAdjust="spacing" textLength="45" x="1873.5" y="1324.9238">User</text><line style="stroke:#4169E1;stroke-width:0.5;" x1="1657" x2="2100" y1="1335" y2="1335"/><line style="stroke:#4169E1;stroke-width:0.5;" x1="1657" x2="2100" y1="1343" y2="1343"/><text fill="#000000" font-family="sans-serif" font-size="20" lengthAdjust="spacing" textLength="432" x="1662" y="1365.5645">+User(name, passportnumber, tax number</text><text fill="#000000" font-family="sans-serif" font-size="20" lengthAdjust="spacing" textLength="433" x="1662" y="1388.8457">, address, email,phone number, password )</text></g><!--class UsersRepository--><g id="elem_UsersRepository"><rect codeLine="72" fill="#FFDAB9" height="166.4063" id="UsersRepository" rx="2.5" ry="2.5" style="stroke:#4169E1;stroke-width:0.5;" width="521" x="1594" y="724"/><ellipse cx="1769.5" cy="741" fill="#ADD1B2" rx="12" ry="12" style="stroke:#181818;stroke-width:1.0;"/><path d="M1772.5625,748.0781 Q1771.875,748.4375 1771.125,748.6094 Q1770.375,748.7813 1769.5469,748.7813 Q1766.5938,748.7813 1765.0313,746.8438 Q1763.4844,744.8906 1763.4844,741.2188 Q1763.4844,737.5469 1765.0313,735.6094 Q1766.5938,733.6563 1769.5469,733.6563 Q1770.375,733.6563 1771.125,733.8281 Q1771.8906,734 1772.5625,734.3594 L1772.5625,737.5625 Q1771.8125,736.875 1771.1094,736.5625 Q1770.4219,736.25 1769.6719,736.25 Q1768.0938,736.25 1767.2813,737.5 Q1766.4844,738.75 1766.4844,741.2188 Q1766.4844,743.6875 1767.2813,744.9375 Q1768.0938,746.1875 1769.6719,746.1875 Q1770.4219,746.1875 1771.1094,745.875 Q1771.8125,745.5625 1772.5625,744.875 L1772.5625,748.0781 Z " fill="#000000"/><text fill="#000000" font-family="sans-serif" font-size="20" lengthAdjust="spacing" textLength="161" x="1791.5" y="747.9238">UsersRepository</text><line style="stroke:#4169E1;stroke-width:0.5;" x1="1595" x2="2114" y1="758" y2="758"/><line style="stroke:#4169E1;stroke-width:0.5;" x1="1595" x2="2114" y1="766" y2="766"/><text fill="#000000" font-family="sans-serif" font-size="20" lengthAdjust="spacing" textLength="509" x="1600" y="788.5645">+registerUser(name, passportnumber, tax number</text><text fill="#000000" font-family="sans-serif" font-size="20" lengthAdjust="spacing" textLength="427" x="1600" y="811.8457">, address, email,phone number, password)</text><text fill="#000000" font-family="sans-serif" font-size="20" lengthAdjust="spacing" textLength="201" x="1600" y="835.127">+validateUser(user)</text><text fill="#000000" font-family="sans-serif" font-size="20" lengthAdjust="spacing" textLength="130" x="1600" y="858.4082">+getUser(id)</text><text fill="#000000" font-family="sans-serif" font-size="20" lengthAdjust="spacing" textLength="166" x="1600" y="881.6895">+saveUser(user)</text></g><!--class EmployeeRepository--><g id="elem_EmployeeRepository"><rect codeLine="78" fill="#FFDAB9" height="50" id="EmployeeRepository" rx="2.5" ry="2.5" style="stroke:#4169E1;stroke-width:0.5;" width="239" x="1345" y="782"/><ellipse cx="1361" cy="799" fill="#ADD1B2" rx="12" ry="12" style="stroke:#181818;stroke-width:1.0;"/><path d="M1364.0625,806.0781 Q1363.375,806.4375 1362.625,806.6094 Q1361.875,806.7813 1361.0469,806.7813 Q1358.0938,806.7813 1356.5313,804.8438 Q1354.9844,802.8906 1354.9844,799.2188 Q1354.9844,795.5469 1356.5313,793.6094 Q1358.0938,791.6563 1361.0469,791.6563 Q1361.875,791.6563 1362.625,791.8281 Q1363.3906,792 1364.0625,792.3594 L1364.0625,795.5625 Q1363.3125,794.875 1362.6094,794.5625 Q1361.9219,794.25 1361.1719,794.25 Q1359.5938,794.25 1358.7813,795.5 Q1357.9844,796.75 1357.9844,799.2188 Q1357.9844,801.6875 1358.7813,802.9375 Q1359.5938,804.1875 1361.1719,804.1875 Q1361.9219,804.1875 1362.6094,803.875 Q1363.3125,803.5625 1364.0625,802.875 L1364.0625,806.0781 Z " fill="#000000"/><text fill="#000000" font-family="sans-serif" font-size="20" lengthAdjust="spacing" textLength="205" x="1376" y="805.9238">EmployeeRepository</text><line style="stroke:#4169E1;stroke-width:0.5;" x1="1346" x2="1583" y1="816" y2="816"/><line style="stroke:#4169E1;stroke-width:0.5;" x1="1346" x2="1583" y1="824" y2="824"/></g><!--class PropertyRepository--><g id="elem_PropertyRepository"><rect codeLine="81" fill="#FFDAB9" height="96.5625" id="PropertyRepository" rx="2.5" ry="2.5" style="stroke:#4169E1;stroke-width:0.5;" width="224" x="1082.5" y="597"/><ellipse cx="1098.5" cy="614" fill="#ADD1B2" rx="12" ry="12" style="stroke:#181818;stroke-width:1.0;"/><path d="M1101.5625,621.0781 Q1100.875,621.4375 1100.125,621.6094 Q1099.375,621.7813 1098.5469,621.7813 Q1095.5938,621.7813 1094.0313,619.8438 Q1092.4844,617.8906 1092.4844,614.2188 Q1092.4844,610.5469 1094.0313,608.6094 Q1095.5938,606.6563 1098.5469,606.6563 Q1099.375,606.6563 1100.125,606.8281 Q1100.8906,607 1101.5625,607.3594 L1101.5625,610.5625 Q1100.8125,609.875 1100.1094,609.5625 Q1099.4219,609.25 1098.6719,609.25 Q1097.0938,609.25 1096.2813,610.5 Q1095.4844,611.75 1095.4844,614.2188 Q1095.4844,616.6875 1096.2813,617.9375 Q1097.0938,619.1875 1098.6719,619.1875 Q1099.4219,619.1875 1100.1094,618.875 Q1100.8125,618.5625 1101.5625,617.875 L1101.5625,621.0781 Z " fill="#000000"/><text fill="#000000" font-family="sans-serif" font-size="20" lengthAdjust="spacing" textLength="190" x="1113.5" y="620.9238">PropertyRepository</text><line style="stroke:#4169E1;stroke-width:0.5;" x1="1083.5" x2="1305.5" y1="631" y2="631"/><line style="stroke:#4169E1;stroke-width:0.5;" x1="1083.5" x2="1305.5" y1="639" y2="639"/><text fill="#000000" font-family="sans-serif" font-size="20" lengthAdjust="spacing" textLength="153" x="1088.5" y="661.5645">+addRequest()</text><text fill="#000000" font-family="sans-serif" font-size="20" lengthAdjust="spacing" textLength="195" x="1088.5" y="684.8457">+validateRequest()</text></g><!--class Employee--><g id="elem_Employee"><rect codeLine="85" fill="#FFDAB9" height="119.8438" id="Employee" rx="2.5" ry="2.5" style="stroke:#4169E1;stroke-width:0.5;" width="171" x="1378" y="1289.5"/><ellipse cx="1411.1" cy="1306.5" fill="#ADD1B2" rx="12" ry="12" style="stroke:#181818;stroke-width:1.0;"/><path d="M1414.1625,1313.5781 Q1413.475,1313.9375 1412.725,1314.1094 Q1411.975,1314.2813 1411.1469,1314.2813 Q1408.1938,1314.2813 1406.6313,1312.3438 Q1405.0844,1310.3906 1405.0844,1306.7188 Q1405.0844,1303.0469 1406.6313,1301.1094 Q1408.1938,1299.1563 1411.1469,1299.1563 Q1411.975,1299.1563 1412.725,1299.3281 Q1413.4906,1299.5 1414.1625,1299.8594 L1414.1625,1303.0625 Q1413.4125,1302.375 1412.7094,1302.0625 Q1412.0219,1301.75 1411.2719,1301.75 Q1409.6938,1301.75 1408.8813,1303 Q1408.0844,1304.25 1408.0844,1306.7188 Q1408.0844,1309.1875 1408.8813,1310.4375 Q1409.6938,1311.6875 1411.2719,1311.6875 Q1412.0219,1311.6875 1412.7094,1311.375 Q1413.4125,1311.0625 1414.1625,1310.375 L1414.1625,1313.5781 Z " fill="#000000"/><text fill="#000000" font-family="sans-serif" font-size="20" lengthAdjust="spacing" textLength="99" x="1429.9" y="1313.4238">Employee</text><line style="stroke:#4169E1;stroke-width:0.5;" x1="1379" x2="1548" y1="1323.5" y2="1323.5"/><text fill="#000000" font-family="sans-serif" font-size="20" lengthAdjust="spacing" textLength="159" x="1384" y="1346.0645">-Agency agency</text><text fill="#000000" font-family="sans-serif" font-size="20" lengthAdjust="spacing" textLength="148" x="1384" y="1369.3457">-Person person</text><text fill="#000000" font-family="sans-serif" font-size="20" lengthAdjust="spacing" textLength="95" x="1384" y="1392.627">-Role role</text><line style="stroke:#4169E1;stroke-width:0.5;" x1="1379" x2="1548" y1="1401.3438" y2="1401.3438"/></g><!--class Request--><g id="elem_Request"><rect codeLine="91" fill="#FFDAB9" height="166.4063" id="Request" rx="2.5" ry="2.5" style="stroke:#4169E1;stroke-width:0.5;" width="433" x="978" y="943.5"/><ellipse cx="1149" cy="960.5" fill="#ADD1B2" rx="12" ry="12" style="stroke:#181818;stroke-width:1.0;"/><path d="M1152.0625,967.5781 Q1151.375,967.9375 1150.625,968.1094 Q1149.875,968.2813 1149.0469,968.2813 Q1146.0938,968.2813 1144.5313,966.3438 Q1142.9844,964.3906 1142.9844,960.7188 Q1142.9844,957.0469 1144.5313,955.1094 Q1146.0938,953.1563 1149.0469,953.1563 Q1149.875,953.1563 1150.625,953.3281 Q1151.3906,953.5 1152.0625,953.8594 L1152.0625,957.0625 Q1151.3125,956.375 1150.6094,956.0625 Q1149.9219,955.75 1149.1719,955.75 Q1147.5938,955.75 1146.7813,957 Q1145.9844,958.25 1145.9844,960.7188 Q1145.9844,963.1875 1146.7813,964.4375 Q1147.5938,965.6875 1149.1719,965.6875 Q1149.9219,965.6875 1150.6094,965.375 Q1151.3125,965.0625 1152.0625,964.375 L1152.0625,967.5781 Z " fill="#000000"/><text fill="#000000" font-family="sans-serif" font-size="20" lengthAdjust="spacing" textLength="82" x="1171" y="967.4238">Request</text><line style="stroke:#4169E1;stroke-width:0.5;" x1="979" x2="1410" y1="977.5" y2="977.5"/><text fill="#000000" font-family="sans-serif" font-size="20" lengthAdjust="spacing" textLength="101" x="984" y="1000.0645">-User user</text><text fill="#000000" font-family="sans-serif" font-size="20" lengthAdjust="spacing" textLength="211" x="984" y="1023.3457">-Employee Employee</text><text fill="#000000" font-family="sans-serif" font-size="20" lengthAdjust="spacing" textLength="182" x="984" y="1046.627">-Property property</text><text fill="#000000" font-family="sans-serif" font-size="20" lengthAdjust="spacing" textLength="101" x="984" y="1069.9082">-Deal deal</text><line style="stroke:#4169E1;stroke-width:0.5;" x1="979" x2="1410" y1="1078.625" y2="1078.625"/><text fill="#000000" font-family="sans-serif" font-size="20" lengthAdjust="spacing" textLength="421" x="984" y="1101.1895">+Request(Employee, property, deal, user)</text></g><!--class Deal--><g id="elem_Deal"><rect codeLine="98" fill="#FFDAB9" height="96.5625" id="Deal" rx="2.5" ry="2.5" style="stroke:#4169E1;stroke-width:0.5;" width="281" x="1054" y="1301"/><ellipse cx="1167.5" cy="1318" fill="#A9DCDF" rx="12" ry="12" style="stroke:#181818;stroke-width:1.0;"/><path d="M1167.5156,1312.8125 L1166.1563,1318.7656 L1168.8906,1318.7656 L1167.5156,1312.8125 Z M1165.7656,1310.1719 L1169.2813,1310.1719 L1173.2188,1324.75 L1170.3438,1324.75 L1169.4375,1321.1406 L1165.5781,1321.1406 L1164.7031,1324.75 L1161.8281,1324.75 L1165.7656,1310.1719 Z " fill="#000000"/><text fill="#000000" font-family="sans-serif" font-size="20" font-style="italic" lengthAdjust="spacing" textLength="45" x="1189.5" y="1324.9238">Deal</text><line style="stroke:#4169E1;stroke-width:0.5;" x1="1055" x2="1334" y1="1335" y2="1335"/><text fill="#000000" font-family="sans-serif" font-size="20" lengthAdjust="spacing" textLength="232" x="1060" y="1357.5645">-enum public DealType</text><line style="stroke:#4169E1;stroke-width:0.5;" x1="1055" x2="1334" y1="1366.2813" y2="1366.2813"/><text fill="#000000" font-family="sans-serif" font-size="20" lengthAdjust="spacing" textLength="269" x="1060" y="1388.8457">+Deal(DealType:dealType)</text></g><!--class Sale--><g id="elem_Sale"><rect codeLine="102" fill="#FFDAB9" height="96.5625" id="Sale" rx="2.5" ry="2.5" style="stroke:#4169E1;stroke-width:0.5;" width="285" x="1151" y="1540"/><ellipse cx="1267.5" cy="1557" fill="#ADD1B2" rx="12" ry="12" style="stroke:#181818;stroke-width:1.0;"/><path d="M1270.5625,1564.0781 Q1269.875,1564.4375 1269.125,1564.6094 Q1268.375,1564.7813 1267.5469,1564.7813 Q1264.5938,1564.7813 1263.0313,1562.8438 Q1261.4844,1560.8906 1261.4844,1557.2188 Q1261.4844,1553.5469 1263.0313,1551.6094 Q1264.5938,1549.6563 1267.5469,1549.6563 Q1268.375,1549.6563 1269.125,1549.8281 Q1269.8906,1550 1270.5625,1550.3594 L1270.5625,1553.5625 Q1269.8125,1552.875 1269.1094,1552.5625 Q1268.4219,1552.25 1267.6719,1552.25 Q1266.0938,1552.25 1265.2813,1553.5 Q1264.4844,1554.75 1264.4844,1557.2188 Q1264.4844,1559.6875 1265.2813,1560.9375 Q1266.0938,1562.1875 1267.6719,1562.1875 Q1268.4219,1562.1875 1269.1094,1561.875 Q1269.8125,1561.5625 1270.5625,1560.875 L1270.5625,1564.0781 Z " fill="#000000"/><text fill="#000000" font-family="sans-serif" font-size="20" lengthAdjust="spacing" textLength="43" x="1289.5" y="1563.9238">Sale</text><line style="stroke:#4169E1;stroke-width:0.5;" x1="1152" x2="1435" y1="1574" y2="1574"/><text fill="#000000" font-family="sans-serif" font-size="20" lengthAdjust="spacing" textLength="216" x="1157" y="1596.5645">-double propertyPrice</text><line style="stroke:#4169E1;stroke-width:0.5;" x1="1152" x2="1435" y1="1605.2813" y2="1605.2813"/><text fill="#000000" font-family="sans-serif" font-size="20" lengthAdjust="spacing" textLength="273" x="1157" y="1627.8457">+createSale(propertyPrice)</text></g><!--class Rent--><g id="elem_Rent"><rect codeLine="106" fill="#FFDAB9" height="119.8438" id="Rent" rx="2.5" ry="2.5" style="stroke:#4169E1;stroke-width:0.5;" width="469" x="647" y="1528.5"/><ellipse cx="853.5" cy="1545.5" fill="#ADD1B2" rx="12" ry="12" style="stroke:#181818;stroke-width:1.0;"/><path d="M856.5625,1552.5781 Q855.875,1552.9375 855.125,1553.1094 Q854.375,1553.2813 853.5469,1553.2813 Q850.5938,1553.2813 849.0313,1551.3438 Q847.4844,1549.3906 847.4844,1545.7188 Q847.4844,1542.0469 849.0313,1540.1094 Q850.5938,1538.1563 853.5469,1538.1563 Q854.375,1538.1563 855.125,1538.3281 Q855.8906,1538.5 856.5625,1538.8594 L856.5625,1542.0625 Q855.8125,1541.375 855.1094,1541.0625 Q854.4219,1540.75 853.6719,1540.75 Q852.0938,1540.75 851.2813,1542 Q850.4844,1543.25 850.4844,1545.7188 Q850.4844,1548.1875 851.2813,1549.4375 Q852.0938,1550.6875 853.6719,1550.6875 Q854.4219,1550.6875 855.1094,1550.375 Q855.8125,1550.0625 856.5625,1549.375 L856.5625,1552.5781 Z " fill="#000000"/><text fill="#000000" font-family="sans-serif" font-size="20" lengthAdjust="spacing" textLength="47" x="875.5" y="1552.4238">Rent</text><line style="stroke:#4169E1;stroke-width:0.5;" x1="648" x2="1115" y1="1562.5" y2="1562.5"/><text fill="#000000" font-family="sans-serif" font-size="20" lengthAdjust="spacing" textLength="214" x="653" y="1585.0645">-double propertyRent</text><text fill="#000000" font-family="sans-serif" font-size="20" lengthAdjust="spacing" textLength="210" x="653" y="1608.3457">-int contractDuration</text><line style="stroke:#4169E1;stroke-width:0.5;" x1="648" x2="1115" y1="1617.0625" y2="1617.0625"/><text fill="#000000" font-family="sans-serif" font-size="20" lengthAdjust="spacing" textLength="457" x="653" y="1639.627">+createRent(propertyRent, contractDuration)</text></g><!--class Agency--><g id="elem_Agency"><rect codeLine="111" fill="#FFDAB9" height="143.125" id="Agency" rx="2.5" ry="2.5" style="stroke:#4169E1;stroke-width:0.5;" width="204" x="1655.5" y="1517"/><ellipse cx="1716" cy="1534" fill="#ADD1B2" rx="12" ry="12" style="stroke:#181818;stroke-width:1.0;"/><path d="M1719.0625,1541.0781 Q1718.375,1541.4375 1717.625,1541.6094 Q1716.875,1541.7813 1716.0469,1541.7813 Q1713.0938,1541.7813 1711.5313,1539.8438 Q1709.9844,1537.8906 1709.9844,1534.2188 Q1709.9844,1530.5469 1711.5313,1528.6094 Q1713.0938,1526.6563 1716.0469,1526.6563 Q1716.875,1526.6563 1717.625,1526.8281 Q1718.3906,1527 1719.0625,1527.3594 L1719.0625,1530.5625 Q1718.3125,1529.875 1717.6094,1529.5625 Q1716.9219,1529.25 1716.1719,1529.25 Q1714.5938,1529.25 1713.7813,1530.5 Q1712.9844,1531.75 1712.9844,1534.2188 Q1712.9844,1536.6875 1713.7813,1537.9375 Q1714.5938,1539.1875 1716.1719,1539.1875 Q1716.9219,1539.1875 1717.6094,1538.875 Q1718.3125,1538.5625 1719.0625,1537.875 L1719.0625,1541.0781 Z " fill="#000000"/><text fill="#000000" font-family="sans-serif" font-size="20" lengthAdjust="spacing" textLength="74" x="1738" y="1540.9238">Agency</text><line style="stroke:#4169E1;stroke-width:0.5;" x1="1656.5" x2="1858.5" y1="1551" y2="1551"/><text fill="#000000" font-family="sans-serif" font-size="20" lengthAdjust="spacing" textLength="59" x="1661.5" y="1573.5645">-int id</text><text fill="#000000" font-family="sans-serif" font-size="20" lengthAdjust="spacing" textLength="192" x="1661.5" y="1596.8457">-String designation</text><text fill="#000000" font-family="sans-serif" font-size="20" lengthAdjust="spacing" textLength="184" x="1661.5" y="1620.127">-int phoneNumber</text><text fill="#000000" font-family="sans-serif" font-size="20" lengthAdjust="spacing" textLength="130" x="1661.5" y="1643.4082">-String email</text><line style="stroke:#4169E1;stroke-width:0.5;" x1="1656.5" x2="1858.5" y1="1652.125" y2="1652.125"/></g><!--class AgencyRepository--><g id="elem_AgencyRepository"><rect codeLine="117" fill="#FFDAB9" height="50" id="AgencyRepository" rx="2.5" ry="2.5" style="stroke:#4169E1;stroke-width:0.5;" width="214" x="2045.5" y="1163"/><ellipse cx="2061.5" cy="1180" fill="#ADD1B2" rx="12" ry="12" style="stroke:#181818;stroke-width:1.0;"/><path d="M2064.5625,1187.0781 Q2063.875,1187.4375 2063.125,1187.6094 Q2062.375,1187.7813 2061.5469,1187.7813 Q2058.5938,1187.7813 2057.0313,1185.8438 Q2055.4844,1183.8906 2055.4844,1180.2188 Q2055.4844,1176.5469 2057.0313,1174.6094 Q2058.5938,1172.6563 2061.5469,1172.6563 Q2062.375,1172.6563 2063.125,1172.8281 Q2063.8906,1173 2064.5625,1173.3594 L2064.5625,1176.5625 Q2063.8125,1175.875 2063.1094,1175.5625 Q2062.4219,1175.25 2061.6719,1175.25 Q2060.0938,1175.25 2059.2813,1176.5 Q2058.4844,1177.75 2058.4844,1180.2188 Q2058.4844,1182.6875 2059.2813,1183.9375 Q2060.0938,1185.1875 2061.6719,1185.1875 Q2062.4219,1185.1875 2063.1094,1184.875 Q2063.8125,1184.5625 2064.5625,1183.875 L2064.5625,1187.0781 Z " fill="#000000"/><text fill="#000000" font-family="sans-serif" font-size="20" lengthAdjust="spacing" textLength="180" x="2076.5" y="1186.9238">AgencyRepository</text><line style="stroke:#4169E1;stroke-width:0.5;" x1="2046.5" x2="2258.5" y1="1197" y2="1197"/><line style="stroke:#4169E1;stroke-width:0.5;" x1="2046.5" x2="2258.5" y1="1205" y2="1205"/></g><!--class Person--><g id="elem_Person"><rect codeLine="120" fill="#FFDAB9" height="212.9688" id="Person" rx="2.5" ry="2.5" style="stroke:#4169E1;stroke-width:0.5;" width="219" x="1518" y="920"/><ellipse cx="1589.5" cy="937" fill="#ADD1B2" rx="12" ry="12" style="stroke:#181818;stroke-width:1.0;"/><path d="M1592.5625,944.0781 Q1591.875,944.4375 1591.125,944.6094 Q1590.375,944.7813 1589.5469,944.7813 Q1586.5938,944.7813 1585.0313,942.8438 Q1583.4844,940.8906 1583.4844,937.2188 Q1583.4844,933.5469 1585.0313,931.6094 Q1586.5938,929.6563 1589.5469,929.6563 Q1590.375,929.6563 1591.125,929.8281 Q1591.8906,930 1592.5625,930.3594 L1592.5625,933.5625 Q1591.8125,932.875 1591.1094,932.5625 Q1590.4219,932.25 1589.6719,932.25 Q1588.0938,932.25 1587.2813,933.5 Q1586.4844,934.75 1586.4844,937.2188 Q1586.4844,939.6875 1587.2813,940.9375 Q1588.0938,942.1875 1589.6719,942.1875 Q1590.4219,942.1875 1591.1094,941.875 Q1591.8125,941.5625 1592.5625,940.875 L1592.5625,944.0781 Z " fill="#000000"/><text fill="#000000" font-family="sans-serif" font-size="20" lengthAdjust="spacing" textLength="67" x="1611.5" y="943.9238">Person</text><line style="stroke:#4169E1;stroke-width:0.5;" x1="1519" x2="1736" y1="954" y2="954"/><text fill="#000000" font-family="sans-serif" font-size="20" lengthAdjust="spacing" textLength="131" x="1524" y="976.5645">-String name</text><text fill="#000000" font-family="sans-serif" font-size="20" lengthAdjust="spacing" textLength="207" x="1524" y="999.8457">-int passportNumber</text><text fill="#000000" font-family="sans-serif" font-size="20" lengthAdjust="spacing" textLength="152" x="1524" y="1023.127">-int taxNumber</text><text fill="#000000" font-family="sans-serif" font-size="20" lengthAdjust="spacing" textLength="130" x="1524" y="1046.4082">-String email</text><text fill="#000000" font-family="sans-serif" font-size="20" lengthAdjust="spacing" textLength="184" x="1524" y="1069.6895">-int phoneNumber</text><text fill="#000000" font-family="sans-serif" font-size="20" lengthAdjust="spacing" textLength="169" x="1524" y="1092.9707">-String password</text><text fill="#000000" font-family="sans-serif" font-size="20" lengthAdjust="spacing" textLength="171" x="1524" y="1116.252">-Address address</text><line style="stroke:#4169E1;stroke-width:0.5;" x1="1519" x2="1736" y1="1124.9688" y2="1124.9688"/></g><!--class Role--><g id="elem_Role"><rect fill="#FFDAB9" height="50" id="Role" rx="2.5" ry="2.5" style="stroke:#4169E1;stroke-width:0.5;" width="78" x="1471.5" y="1563.5"/><ellipse cx="1487.5" cy="1580.5" fill="#ADD1B2" rx="12" ry="12" style="stroke:#181818;stroke-width:1.0;"/><path d="M1490.5625,1587.5781 Q1489.875,1587.9375 1489.125,1588.1094 Q1488.375,1588.2813 1487.5469,1588.2813 Q1484.5938,1588.2813 1483.0313,1586.3438 Q1481.4844,1584.3906 1481.4844,1580.7188 Q1481.4844,1577.0469 1483.0313,1575.1094 Q1484.5938,1573.1563 1487.5469,1573.1563 Q1488.375,1573.1563 1489.125,1573.3281 Q1489.8906,1573.5 1490.5625,1573.8594 L1490.5625,1577.0625 Q1489.8125,1576.375 1489.1094,1576.0625 Q1488.4219,1575.75 1487.6719,1575.75 Q1486.0938,1575.75 1485.2813,1577 Q1484.4844,1578.25 1484.4844,1580.7188 Q1484.4844,1583.1875 1485.2813,1584.4375 Q1486.0938,1585.6875 1487.6719,1585.6875 Q1488.4219,1585.6875 1489.1094,1585.375 Q1489.8125,1585.0625 1490.5625,1584.375 L1490.5625,1587.5781 Z " fill="#000000"/><text fill="#000000" font-family="sans-serif" font-size="20" lengthAdjust="spacing" textLength="44" x="1502.5" y="1587.4238">Role</text><line style="stroke:#4169E1;stroke-width:0.5;" x1="1472.5" x2="1548.5" y1="1597.5" y2="1597.5"/><line style="stroke:#4169E1;stroke-width:0.5;" x1="1472.5" x2="1548.5" y1="1605.5" y2="1605.5"/></g><!--link ListingRequestUI to ListingRequestController--><g id="link_ListingRequestUI_ListingRequestController"><path codeLine="131" d="M912.5,57.1 C912.5,72.38 912.5,92.93 912.5,112.69 " fill="none" id="ListingRequestUI-to-ListingRequestController" style="stroke:#4169E1;stroke-width:1.0;stroke-dasharray:7.0,7.0;"/><polygon fill="#4169E1" points="912.5,117.69,916.5,108.69,912.5,112.69,908.5,108.69,912.5,117.69" style="stroke:#4169E1;stroke-width:1.0;"/></g><!--link ListingRequestController to Repositories--><g id="link_ListingRequestController_Repositories"><path codeLine="134" d="M1043.32,238.13 C1122.32,273.84 1223.52,319.58 1306.92,357.27 " fill="none" id="ListingRequestController-to-Repositories" style="stroke:#4169E1;stroke-width:1.0;stroke-dasharray:7.0,7.0;"/><polygon fill="#4169E1" points="1311.88,359.52,1305.3228,352.1713,1307.3228,357.4628,1302.0313,359.4629,1311.88,359.52" style="stroke:#4169E1;stroke-width:1.0;"/><text fill="#000000" font-family="sans-serif" font-size="20" lengthAdjust="spacing" textLength="117" x="1155.5" y="287.5645">repositories</text></g><!--link ListingRequestController to Request--><g id="link_ListingRequestController_Request"><path codeLine="135" d="M930.05,238.08 C970.24,373.35 1065.5,694 1065.5,694 C1065.5,694 1122.31,839.98 1160.53,938.2 " fill="none" id="ListingRequestController-to-Request" style="stroke:#4169E1;stroke-width:1.0;stroke-dasharray:7.0,7.0;"/><polygon fill="#4169E1" points="1162.45,943.13,1162.9102,933.2919,1160.635,938.4711,1155.4559,936.1959,1162.45,943.13" style="stroke:#4169E1;stroke-width:1.0;"/></g><!--link Repositories to Repositories--><g id="link_Repositories_Repositories"><path codeLine="137" d="M1617.16,406.81 C1638.06,410.58 1652,418.14 1652,429.5 C1652,439.88 1640.35,447.09 1622.39,451.13 " fill="none" id="Repositories-to-Repositories" style="stroke:#4169E1;stroke-width:1.0;"/><polygon fill="#4169E1" points="1617.16,452.19,1626.7721,454.3365,1622.0618,451.2039,1625.1944,446.4936,1617.16,452.19" style="stroke:#4169E1;stroke-width:1.0;"/><text fill="#000000" font-family="sans-serif" font-size="20" lengthAdjust="spacing" textLength="85" x="1658" y="436.5645">instance</text></g><!--link Repositories to EmployeeRepository--><g id="link_Repositories_EmployeeRepository"><path codeLine="138" d="M1464.5,536.1 C1464.5,617.89 1464.5,725.59 1464.5,776.68 " fill="none" id="Repositories-to-EmployeeRepository" style="stroke:#4169E1;stroke-width:1.0;"/><polygon fill="#4169E1" points="1464.5,781.74,1468.5,772.74,1464.5,776.74,1460.5,772.74,1464.5,781.74" style="stroke:#4169E1;stroke-width:1.0;"/></g><!--link Repositories to PropertyRepository--><g id="link_Repositories_PropertyRepository"><path codeLine="139" d="M1331.08,536.25 C1305.82,556.27 1280.48,576.35 1258.61,593.69 " fill="none" id="Repositories-to-PropertyRepository" style="stroke:#4169E1;stroke-width:1.0;"/><polygon fill="#4169E1" points="1254.56,596.89,1264.0933,594.4167,1258.4727,593.777,1259.1124,588.1564,1254.56,596.89" style="stroke:#4169E1;stroke-width:1.0;"/></g><!--link Repositories to AgencyRepository--><g id="link_Repositories_AgencyRepository"><path codeLine="140" d="M1617.24,498.94 C1810.79,585.67 2119.5,724 2119.5,724 C2119.5,724 2143.13,1055.52 2150.4,1157.51 " fill="none" id="Repositories-to-AgencyRepository" style="stroke:#4169E1;stroke-width:1.0;"/><polygon fill="#4169E1" points="2150.77,1162.76,2154.1167,1153.4972,2150.4127,1157.7728,2146.1372,1154.0688,2150.77,1162.76" style="stroke:#4169E1;stroke-width:1.0;"/></g><!--link Repositories to UsersRepository--><g id="link_Repositories_UsersRepository"><path codeLine="141" d="M1574.17,536.1 C1634.58,594.26 1708.59,665.52 1765.4,720.21 " fill="none" id="Repositories-to-UsersRepository" style="stroke:#4169E1;stroke-width:1.0;"/><polygon fill="#4169E1" points="1769.11,723.79,1765.3891,714.671,1765.5036,720.3267,1759.8479,720.4412,1769.11,723.79" style="stroke:#4169E1;stroke-width:1.0;"/></g><!--link UsersRepository to User--><g id="link_UsersRepository_User"><path codeLine="144" d="M1858.15,890.09 C1863.13,1002.4 1871.94,1200.79 1876.14,1295.41 " fill="none" id="UsersRepository-to-User" style="stroke:#4169E1;stroke-width:1.0;stroke-dasharray:7.0,7.0;"/><polygon fill="#4169E1" points="1876.38,1300.67,1879.9636,1291.4963,1876.151,1295.6752,1871.972,1291.8626,1876.38,1300.67" style="stroke:#4169E1;stroke-width:1.0;"/></g><!--link AgencyRepository to Agency--><g id="link_AgencyRepository_Agency"><path codeLine="146" d="M2149.42,1213.17 C2141.05,1278.89 2118.5,1456 2118.5,1456 C2118.5,1456 1970.68,1509.85 1864.22,1548.63 " fill="none" id="AgencyRepository-to-Agency" style="stroke:#4169E1;stroke-width:1.0;stroke-dasharray:7.0,7.0;"/><polygon fill="#4169E1" points="1859.5,1550.34,1869.3258,1551.0139,1864.1973,1548.6267,1866.5845,1543.4982,1859.5,1550.34" style="stroke:#4169E1;stroke-width:1.0;"/></g><!--reverse link Agency to Address--><g id="link_Agency_Address"><path codeLine="147" d="M1703.81,1671.6 C1693.47,1687.4 1682.52,1704.15 1671.78,1720.57 " fill="none" id="Agency-backto-Address" style="stroke:#4169E1;stroke-width:1.0;"/><polygon fill="#4169E1" points="1711.2,1660.29,1704.5692,1663.1242,1704.6351,1670.335,1711.2659,1667.5008,1711.2,1660.29" style="stroke:#4169E1;stroke-width:1.0;"/></g><!--link PropertyRepository to Request--><g id="link_PropertyRepository_Request"><path codeLine="149" d="M1194.5,694.12 C1194.5,755.08 1194.5,861.88 1194.5,937.75 " fill="none" id="PropertyRepository-to-Request" style="stroke:#4169E1;stroke-width:1.0;stroke-dasharray:7.0,7.0;"/><polygon fill="#4169E1" points="1194.5,943.16,1198.5,934.16,1194.5,938.16,1190.5,934.16,1194.5,943.16" style="stroke:#4169E1;stroke-width:1.0;"/></g><!--reverse link Request to Employee--><g id="link_Request_Employee"><path codeLine="150" d="M1271.83,1119.78 C1317.54,1174.32 1374.07,1241.79 1413.86,1289.27 " fill="none" id="Request-backto-Employee" style="stroke:#4169E1;stroke-width:1.0;"/><polygon fill="#4169E1" points="1263.42,1109.75,1264.2134,1116.9173,1271.1346,1118.9416,1270.3412,1111.7743,1263.42,1109.75" style="stroke:#4169E1;stroke-width:1.0;"/></g><!--reverse link Request to Property--><g id="link_Request_Property"><path codeLine="151" d="M1076.05,1117.55 C1013.89,1164.81 950.5,1213 950.5,1213 C950.5,1213 917.57,1225.5 871.71,1242.9 " fill="none" id="Request-backto-Property" style="stroke:#4169E1;stroke-width:1.0;"/><polygon fill="#4169E1" points="1086.41,1109.67,1079.213,1110.1206,1076.8609,1116.9374,1084.0579,1116.4867,1086.41,1109.67" style="stroke:#4169E1;stroke-width:1.0;"/></g><!--reverse link Request to Deal--><g id="link_Request_Deal"><path codeLine="152" d="M1194.5,1122.8 C1194.5,1181.44 1194.5,1254.08 1194.5,1300.84 " fill="none" id="Request-backto-Deal" style="stroke:#4169E1;stroke-width:1.0;"/><polygon fill="#4169E1" points="1194.5,1109.75,1190.5,1115.75,1194.5,1121.75,1198.5,1115.75,1194.5,1109.75" style="stroke:#4169E1;stroke-width:1.0;"/></g><!--reverse link Request to User--><g id="link_Request_User"><path codeLine="153" d="M1381.15,1115.09 C1508.65,1174.93 1672.75,1251.94 1776.82,1300.78 " fill="none" id="Request-backto-User" style="stroke:#4169E1;stroke-width:1.0;"/><polygon fill="#4169E1" points="1369.32,1109.54,1373.0504,1115.7112,1380.1817,1114.6413,1376.4513,1108.4701,1369.32,1109.54" style="stroke:#4169E1;stroke-width:1.0;"/></g><!--link EmployeeRepository to Employee--><g id="link_EmployeeRepository_Employee"><path codeLine="155" d="M1464.46,832.27 C1464.31,911.41 1463.84,1163.76 1463.62,1283.82 " fill="none" id="EmployeeRepository-to-Employee" style="stroke:#4169E1;stroke-width:1.0;stroke-dasharray:7.0,7.0;"/><polygon fill="#4169E1" points="1463.61,1289.09,1467.61,1280.09,1463.61,1284.09,1459.61,1280.09,1463.61,1289.09" style="stroke:#4169E1;stroke-width:1.0;"/></g><!--link PropertyRepository to Property--><g id="link_PropertyRepository_Property"><path codeLine="157" d="M1153.66,694.2 C1058.6,805.24 820.51,1083.34 687.36,1238.87 " fill="none" id="PropertyRepository-to-Property" style="stroke:#4169E1;stroke-width:1.0;stroke-dasharray:7.0,7.0;"/><polygon fill="#4169E1" points="683.84,1242.97,692.7328,1238.7371,687.0928,1239.1727,686.6572,1233.5326,683.84,1242.97" style="stroke:#4169E1;stroke-width:1.0;"/></g><!--reverse link Property to Address--><g id="link_Property_Address"><path codeLine="158" d="M607.3,1469.17 C617.46,1556.47 629.5,1660 629.5,1660 C629.5,1660 1000.14,1723.42 1283.9,1771.98 " fill="none" id="Property-backto-Address" style="stroke:#4169E1;stroke-width:1.0;"/><polygon fill="#4169E1" points="605.79,1456.15,602.516,1462.575,607.1875,1468.0683,610.4615,1461.6433,605.79,1456.15" style="stroke:#4169E1;stroke-width:1.0;"/></g><!--reverse link Property to Home--><g id="link_Property_Home"><path codeLine="159" d="M407.72,1466.68 C380.25,1483.85 352.69,1501.09 327.32,1516.95 " fill="none" id="Property-backto-Home" style="stroke:#4169E1;stroke-width:1.0;"/><polygon fill="none" points="404.11,1460.67,424.78,1456,411.54,1472.54,404.11,1460.67" style="stroke:#4169E1;stroke-width:1.0;"/></g><!--reverse link Home to House--><g id="link_Home_House"><path codeLine="160" d="M259.87,1678.36 C275.02,1708.05 291.54,1740.39 305.25,1767.26 " fill="none" id="Home-backto-House" style="stroke:#4169E1;stroke-width:1.0;"/><polygon fill="none" points="253.5,1681.28,250.64,1660.29,265.97,1674.92,253.5,1681.28" style="stroke:#4169E1;stroke-width:1.0;"/></g><!--reverse link Property to Land--><g id="link_Property_Land"><path codeLine="161" d="M543.64,1474.88 C530.14,1508.56 516.9,1541.6 508.28,1563.09 " fill="none" id="Property-backto-Land" style="stroke:#4169E1;stroke-width:1.0;"/><polygon fill="none" points="537.2,1472.14,551.14,1456.18,550.2,1477.35,537.2,1472.14" style="stroke:#4169E1;stroke-width:1.0;"/></g><!--reverse link Home to Apartement--><g id="link_Home_Apartement"><path codeLine="162" d="M169.56,1678.26 C147.03,1722.75 121.48,1773.21 106.75,1802.3 " fill="none" id="Home-backto-Apartement" style="stroke:#4169E1;stroke-width:1.0;"/><polygon fill="none" points="163.38,1674.97,178.66,1660.29,175.87,1681.29,163.38,1674.97" style="stroke:#4169E1;stroke-width:1.0;"/></g><!--reverse link Person to User--><g id="link_Person_User"><path codeLine="166" d="M1718.16,1143.45 C1760.61,1197.73 1808.83,1259.4 1841.21,1300.81 " fill="none" id="Person-backto-User" style="stroke:#4169E1;stroke-width:1.0;"/><polygon fill="#4169E1" points="1710.03,1133.05,1710.577,1140.2403,1717.4246,1142.5009,1716.8776,1135.3106,1710.03,1133.05" style="stroke:#4169E1;stroke-width:1.0;"/></g><!--reverse link Person to Employee--><g id="link_Person_Employee"><path codeLine="167" d="M1567.6,1144.74 C1542.51,1193.85 1514.44,1248.8 1493.77,1289.25 " fill="none" id="Person-backto-Employee" style="stroke:#4169E1;stroke-width:1.0;"/><polygon fill="#4169E1" points="1573.57,1133.05,1567.2776,1136.5722,1568.1087,1143.7352,1574.4011,1140.2131,1573.57,1133.05" style="stroke:#4169E1;stroke-width:1.0;"/></g><!--link Person to Address--><g id="link_Person_Address"><path codeLine="168" d="M1624.19,1133.19 C1619.54,1281.86 1611.09,1551.93 1606.22,1707.49 " fill="none" id="Person-to-Address" style="stroke:#4169E1;stroke-width:1.0;"/><polygon fill="#4169E1" points="1605.81,1720.79,1609.9928,1714.916,1606.1795,1708.7957,1601.9966,1714.6697,1605.81,1720.79" style="stroke:#4169E1;stroke-width:1.0;"/></g><!--link Employee to Agency--><g id="link_Employee_Agency"><path codeLine="171" d="M1536.93,1409.69 C1574.01,1439.59 1619.51,1476.26 1659.53,1508.52 " fill="none" id="Employee-to-Agency" style="stroke:#4169E1;stroke-width:1.0;"/><polygon fill="#4169E1" points="1669.85,1516.84,1667.6907,1509.9598,1660.5093,1509.3067,1662.6685,1516.1869,1669.85,1516.84" style="stroke:#4169E1;stroke-width:1.0;"/></g><!--link Employee to Role--><g id="link_Employee_Role"><path codeLine="172" d="M1475.24,1409.69 C1484,1453.9 1495.71,1512.93 1503.18,1550.6 " fill="none" id="Employee-to-Role" style="stroke:#4169E1;stroke-width:1.0;"/><polygon fill="#4169E1" points="1505.73,1563.44,1508.4857,1556.7762,1503.3944,1551.6695,1500.6387,1558.3333,1505.73,1563.44" style="stroke:#4169E1;stroke-width:1.0;"/></g><!--reverse link Deal to Sale--><g id="link_Deal_Sale"><path codeLine="175" d="M1222.2,1416.81 C1238.55,1455.94 1258.86,1504.57 1273.62,1539.9 " fill="none" id="Deal-backto-Sale" style="stroke:#4169E1;stroke-width:1.0;"/><polygon fill="none" points="1215.66,1419.33,1214.42,1398.18,1228.58,1413.93,1215.66,1419.33" style="stroke:#4169E1;stroke-width:1.0;"/></g><!--reverse link Deal to Rent--><g id="link_Deal_Rent"><path codeLine="176" d="M1115.56,1410.27 C1067.83,1446.42 1007.21,1492.31 959.63,1528.34 " fill="none" id="Deal-backto-Rent" style="stroke:#4169E1;stroke-width:1.0;"/><polygon fill="none" points="1111.37,1404.67,1131.54,1398.18,1119.82,1415.83,1111.37,1404.67" style="stroke:#4169E1;stroke-width:1.0;"/></g><!--SRC=[fLPDRziu4BtpL_1cfv6BHOz1KS194pH0TjUmDxTUQ6ai4v59bQIIkjxzxpkaI8gKujsYyS4sPuPlFlb8_SH5onGxDB9yWefMi6DTO-waC1l-0-Y7tyXC1njwa4AMUoKFG8tgW0oQbfLFh8QDEJP05PI6YRf93VIULVA5YvhkMADJJSC5c6CBj9NDqIvIZr4fbP4asLKsJEkbCOflEmFtfHGkNWnt4Jvt76FHncBMKJY6e2T2yNEDyTTATgAwaOrKT0MitA-wtSvfbqh9brwnbaVMN3UOlDicLGLghFc7p1hO6MeaLRpU6rfnMn8k1PazQb2K2mDgnqgOaJw81wuDHhc6RnreytYFKI7AQxeRx8oIJOCeDl9B1JNgGLdSkM07AB0NMhTOBreoLL7H7RQW2chOT___goWegoe5MXSK3emtHRkN0gAf1NZ1p2wi0ysUmO5VO4HigurYfV6rModPWZ97NyH59RijrfmfOFVYzm-PiC8mcIZX3iVdXflZ3M0YVHKNM5zsj7dIZnligAW_KOp8oCVrGs_GIwcTXE3Jx-ppeFxN2I-3oJm4KfpnNaGtHOPTa6MepnVPQNHTqC_0cbTAy0KFWyyUk-fB-EVk6YebvK6_ec5cVqQrOWg7izxWOJfV6FQC3MDOqTjl7MyFc4US51jh28PkfMo02Rfb6fnLBkPYpxRSMA07kGjQNsVTYTllhTITWWY-n4DZ75BlOPXF9gfaN4D7JYD8B3SOcWjB7leuc37ZSxUdXFxWRIaho8riCnKl-sPJ3MRfNCupLqNgfCZmYnJwmiFKRuIn1V4bM0FMZXkfE0nrI8NpnEczw2TpVa6lCgF1vFRGDl884BN7520CxQzebpM8yepE7lfC4phiA0mxtbk-GZnle1oQkz5302VoNrpt9fQxV6ODhx2Z3XZFa4APhy2SMuD8WhqoX3XjJ78GffK_-P9XM9xDOxr318Dyx2FCKTyoojoFbwsmKbBGjly90oVjLOnVwM0wz3YJhfCs9RyElkAVW1zulit8rt4YFXbOuxC8qOVjHTnGEBE2XlgDMDG1XQW0EqHRl3HuwHH_8JDx1tOv3xAholyPYhLXc7F0yHTF2665b15mIhmO35ZhUQOUaDQHw2P0wu5DBG6KzaR6L3vtYhaxFdLXRUVfnc9YF_ZiMtjAi7arOimADA_5uAStSuFzXvlhtDpD_GZ_zM5repFYR7l4KY_-h6MEh08FtNddFn5bE8bXmlqDua-l7T_PupsPl97Ul_zqzd64MvB5sIUKXSZO-WeVhma5_yz69oMpZBKpkCLYWiyztqyDfsmojPcIojHctEQfnOXQIVyirMGaTrbQ6Pdrc6GCxImo7NstY1sqbUa9XqpZpaeOxEpco3sfCBxwKg4bWapWOYNJEZfV4NSMwUnSMD5Rj4opYiAFVwFKFW29_GfBfBYHYNqX9IR3ImeBtnyyGZo5nooITGpSonQBTp4MCelQIDvEt_SaazaB0JUugZd2TT5O4aoMbgF-1G00]--></g></svg>