<?xml version="1.0" encoding="UTF-8" standalone="no"?><svg xmlns="http://www.w3.org/2000/svg" xmlns:xlink="http://www.w3.org/1999/xlink" contentStyleType="text/css" height="615px" preserveAspectRatio="none" style="width:1989px;height:615px;background:#FFFFFF;" version="1.1" viewBox="0 0 1989 615" width="1989px" zoomAndPan="magnify"><defs/><g><!--class Agency--><g id="elem_Agency"><rect codeLine="18" fill="#FFDAB9" height="134.4063" id="Agency" rx="2.5" ry="2.5" style="stroke:#4169E1;stroke-width:0.5;" width="171" x="7" y="474.5"/><text fill="#000000" font-family="sans-serif" font-size="20" lengthAdjust="spacing" textLength="74" x="55.5" y="498.0645">Agency</text><line style="stroke:#4169E1;stroke-width:0.5;" x1="8" x2="177" y1="507.7813" y2="507.7813"/><rect fill="none" height="6" style="stroke:#C82930;stroke-width:1.0;" width="6" x="15" y="521.9219"/><text fill="#000000" font-family="sans-serif" font-size="20" lengthAdjust="spacing" textLength="19" x="28" y="530.3457">id</text><rect fill="none" height="6" style="stroke:#C82930;stroke-width:1.0;" width="6" x="15" y="545.2031"/><text fill="#000000" font-family="sans-serif" font-size="20" lengthAdjust="spacing" textLength="118" x="28" y="553.627">designation</text><rect fill="none" height="6" style="stroke:#C82930;stroke-width:1.0;" width="6" x="15" y="568.4844"/><text fill="#000000" font-family="sans-serif" font-size="20" lengthAdjust="spacing" textLength="144" x="28" y="576.9082">phoneNumber</text><rect fill="none" height="6" style="stroke:#C82930;stroke-width:1.0;" width="6" x="15" y="591.7656"/><text fill="#000000" font-family="sans-serif" font-size="20" lengthAdjust="spacing" textLength="56" x="28" y="600.1895">email</text></g><!--class Commission--><g id="elem_Commission"><rect codeLine="25" fill="#FFDAB9" height="87.8438" id="Commission" rx="2.5" ry="2.5" style="stroke:#4169E1;stroke-width:0.5;" width="129" x="473" y="161.5"/><text fill="#000000" font-family="sans-serif" font-size="20" lengthAdjust="spacing" textLength="123" x="476" y="185.0645">Commission</text><line style="stroke:#4169E1;stroke-width:0.5;" x1="474" x2="601" y1="194.7813" y2="194.7813"/><rect fill="none" height="6" style="stroke:#C82930;stroke-width:1.0;" width="6" x="481" y="208.9219"/><text fill="#000000" font-family="sans-serif" font-size="20" lengthAdjust="spacing" textLength="44" x="494" y="217.3457">type</text><rect fill="none" height="6" style="stroke:#C82930;stroke-width:1.0;" width="6" x="481" y="232.2031"/><text fill="#000000" font-family="sans-serif" font-size="20" lengthAdjust="spacing" textLength="54" x="494" y="240.627">value</text></g><!--class Anouncement--><g id="elem_Anouncement"><rect codeLine="30" fill="#FFDAB9" height="87.8438" id="Anouncement" rx="2.5" ry="2.5" style="stroke:#4169E1;stroke-width:0.5;" width="147" x="758" y="214.5"/><text fill="#000000" font-family="sans-serif" font-size="20" lengthAdjust="spacing" textLength="141" x="761" y="238.0645">Anouncement</text><line style="stroke:#4169E1;stroke-width:0.5;" x1="759" x2="904" y1="247.7813" y2="247.7813"/><rect fill="none" height="6" style="stroke:#C82930;stroke-width:1.0;" width="6" x="766" y="261.9219"/><text fill="#000000" font-family="sans-serif" font-size="20" lengthAdjust="spacing" textLength="50" x="779" y="270.3457">state</text><rect fill="none" height="6" style="stroke:#C82930;stroke-width:1.0;" width="6" x="766" y="285.2031"/><text fill="#000000" font-family="sans-serif" font-size="20" lengthAdjust="spacing" textLength="50" x="779" y="293.627">price</text></g><!--class Property--><g id="elem_Property"><rect codeLine="35" fill="#FFDAB9" height="157.6875" id="Property" rx="2.5" ry="2.5" style="stroke:#4169E1;stroke-width:0.5;" width="270" x="1054" y="9.5"/><text fill="#000000" font-family="sans-serif" font-size="20" lengthAdjust="spacing" textLength="84" x="1147" y="33.0645">Property</text><line style="stroke:#4169E1;stroke-width:0.5;" x1="1055" x2="1323" y1="42.7813" y2="42.7813"/><rect fill="none" height="6" style="stroke:#C82930;stroke-width:1.0;" width="6" x="1062" y="56.9219"/><text fill="#000000" font-family="sans-serif" font-size="20" lengthAdjust="spacing" textLength="44" x="1075" y="65.3457">type</text><rect fill="none" height="6" style="stroke:#C82930;stroke-width:1.0;" width="6" x="1062" y="80.2031"/><text fill="#000000" font-family="sans-serif" font-size="20" lengthAdjust="spacing" textLength="44" x="1075" y="88.627">area</text><rect fill="none" height="6" style="stroke:#C82930;stroke-width:1.0;" width="6" x="1062" y="103.4844"/><text fill="#000000" font-family="sans-serif" font-size="20" lengthAdjust="spacing" textLength="80" x="1075" y="111.9082">location</text><rect fill="none" height="6" style="stroke:#C82930;stroke-width:1.0;" width="6" x="1062" y="126.7656"/><text fill="#000000" font-family="sans-serif" font-size="20" lengthAdjust="spacing" textLength="243" x="1075" y="135.1895">distanceFromCityCenter</text><rect fill="none" height="6" style="stroke:#C82930;stroke-width:1.0;" width="6" x="1062" y="150.0469"/><text fill="#000000" font-family="sans-serif" font-size="20" lengthAdjust="spacing" textLength="127" x="1075" y="158.4707">photographs</text></g><!--class Lease--><g id="elem_Lease"><rect codeLine="43" fill="#FFDAB9" height="64.5625" id="Lease" rx="2.5" ry="2.5" style="stroke:#4169E1;stroke-width:0.5;" width="197" x="1090.5" y="279"/><text fill="#000000" font-family="sans-serif" font-size="20" lengthAdjust="spacing" textLength="57" x="1160.5" y="302.5645">Lease</text><line style="stroke:#4169E1;stroke-width:0.5;" x1="1091.5" x2="1286.5" y1="312.2813" y2="312.2813"/><rect fill="none" height="6" style="stroke:#C82930;stroke-width:1.0;" width="6" x="1098.5" y="326.4219"/><text fill="#000000" font-family="sans-serif" font-size="20" lengthAdjust="spacing" textLength="170" x="1111.5" y="334.8457">contractDuration</text></g><!--class Address--><g id="elem_Address"><rect codeLine="47" fill="#FFDAB9" height="134.4063" id="Address" rx="2.5" ry="2.5" style="stroke:#4169E1;stroke-width:0.5;" width="105" x="1521.5" y="347.5"/><text fill="#000000" font-family="sans-serif" font-size="20" lengthAdjust="spacing" textLength="80" x="1534" y="371.0645">Address</text><line style="stroke:#4169E1;stroke-width:0.5;" x1="1522.5" x2="1625.5" y1="380.7813" y2="380.7813"/><rect fill="none" height="6" style="stroke:#C82930;stroke-width:1.0;" width="6" x="1529.5" y="394.9219"/><text fill="#000000" font-family="sans-serif" font-size="20" lengthAdjust="spacing" textLength="58" x="1542.5" y="403.3457">street</text><rect fill="none" height="6" style="stroke:#C82930;stroke-width:1.0;" width="6" x="1529.5" y="418.2031"/><text fill="#000000" font-family="sans-serif" font-size="20" lengthAdjust="spacing" textLength="36" x="1542.5" y="426.627">city</text><rect fill="none" height="6" style="stroke:#C82930;stroke-width:1.0;" width="6" x="1529.5" y="441.4844"/><text fill="#000000" font-family="sans-serif" font-size="20" lengthAdjust="spacing" textLength="50" x="1542.5" y="449.9082">state</text><rect fill="none" height="6" style="stroke:#C82930;stroke-width:1.0;" width="6" x="1529.5" y="464.7656"/><text fill="#000000" font-family="sans-serif" font-size="20" lengthAdjust="spacing" textLength="78" x="1542.5" y="473.1895">zipcode</text></g><!--class Home--><g id="elem_Home"><rect codeLine="54" fill="#FFDAB9" height="134.4063" id="Home" rx="2.5" ry="2.5" style="stroke:#4169E1;stroke-width:0.5;" width="266" x="1441" y="83.5"/><text fill="#000000" font-family="sans-serif" font-size="20" lengthAdjust="spacing" textLength="59" x="1544.5" y="107.0645">Home</text><line style="stroke:#4169E1;stroke-width:0.5;" x1="1442" x2="1706" y1="116.7813" y2="116.7813"/><rect fill="none" height="6" style="stroke:#C82930;stroke-width:1.0;" width="6" x="1449" y="130.9219"/><text fill="#000000" font-family="sans-serif" font-size="20" lengthAdjust="spacing" textLength="202" x="1462" y="139.3457">numberOfbedrooms</text><rect fill="none" height="6" style="stroke:#C82930;stroke-width:1.0;" width="6" x="1449" y="154.2031"/><text fill="#000000" font-family="sans-serif" font-size="20" lengthAdjust="spacing" textLength="210" x="1462" y="162.627">numberOfbathrooms</text><rect fill="none" height="6" style="stroke:#C82930;stroke-width:1.0;" width="6" x="1449" y="177.4844"/><text fill="#000000" font-family="sans-serif" font-size="20" lengthAdjust="spacing" textLength="239" x="1462" y="185.9082">numberOfParkingSpace</text><rect fill="none" height="6" style="stroke:#C82930;stroke-width:1.0;" width="6" x="1449" y="200.7656"/><text fill="#000000" font-family="sans-serif" font-size="20" lengthAdjust="spacing" textLength="201" x="1462" y="209.1895">availableEquipment</text></g><!--class Land--><g id="elem_Land"><rect codeLine="61" fill="#FFDAB9" height="41.2813" id="Land" rx="2.5" ry="2.5" style="stroke:#4169E1;stroke-width:0.5;" width="55" x="1546.5" y="7"/><text fill="#000000" font-family="sans-serif" font-size="20" lengthAdjust="spacing" textLength="49" x="1549.5" y="30.5645">Land</text><line style="stroke:#4169E1;stroke-width:0.5;" x1="1547.5" x2="1600.5" y1="40.2813" y2="40.2813"/></g><!--class House--><g id="elem_House"><rect codeLine="65" fill="#FFDAB9" height="111.125" id="House" rx="2.5" ry="2.5" style="stroke:#4169E1;stroke-width:0.5;" width="179" x="1803" y="40"/><text fill="#000000" font-family="sans-serif" font-size="20" lengthAdjust="spacing" textLength="62" x="1861.5" y="63.5645">House</text><line style="stroke:#4169E1;stroke-width:0.5;" x1="1804" x2="1981" y1="73.2813" y2="73.2813"/><rect fill="none" height="6" style="stroke:#C82930;stroke-width:1.0;" width="6" x="1811" y="87.4219"/><text fill="#000000" font-family="sans-serif" font-size="20" lengthAdjust="spacing" textLength="100" x="1824" y="95.8457">basement</text><rect fill="none" height="6" style="stroke:#C82930;stroke-width:1.0;" width="6" x="1811" y="110.7031"/><text fill="#000000" font-family="sans-serif" font-size="20" lengthAdjust="spacing" textLength="152" x="1824" y="119.127">inhabitableLoft</text><rect fill="none" height="6" style="stroke:#C82930;stroke-width:1.0;" width="6" x="1811" y="133.9844"/><text fill="#000000" font-family="sans-serif" font-size="20" lengthAdjust="spacing" textLength="128" x="1824" y="142.4082">sunExposure</text></g><!--class Agent--><g id="elem_Agent"><rect fill="#FFDAB9" height="41.2813" id="Agent" rx="2.5" ry="2.5" style="stroke:#4169E1;stroke-width:0.5;" width="66" x="295" y="289"/><text fill="#000000" font-family="sans-serif" font-size="20" lengthAdjust="spacing" textLength="60" x="298" y="312.5645">Agent</text><line style="stroke:#4169E1;stroke-width:0.5;" x1="296" x2="360" y1="322.2813" y2="322.2813"/></g><!--class Order--><g id="elem_Order"><rect fill="#FFDAB9" height="41.2813" id="Order" rx="2.5" ry="2.5" style="stroke:#4169E1;stroke-width:0.5;" width="63" x="1157.5" y="391"/><text fill="#000000" font-family="sans-serif" font-size="20" lengthAdjust="spacing" textLength="57" x="1160.5" y="414.5645">Order</text><line style="stroke:#4169E1;stroke-width:0.5;" x1="1158.5" x2="1219.5" y1="424.2813" y2="424.2813"/></g><!--class Sale--><g id="elem_Sale"><rect fill="#FFDAB9" height="41.2813" id="Sale" rx="2.5" ry="2.5" style="stroke:#4169E1;stroke-width:0.5;" width="49" x="1164.5" y="203"/><text fill="#000000" font-family="sans-serif" font-size="20" lengthAdjust="spacing" textLength="43" x="1167.5" y="226.5645">Sale</text><line style="stroke:#4169E1;stroke-width:0.5;" x1="1165.5" x2="1212.5" y1="236.2813" y2="236.2813"/></g><!--class Client--><g id="elem_Client"><rect fill="#FFDAB9" height="41.2813" id="Client" rx="2.5" ry="2.5" style="stroke:#4169E1;stroke-width:0.5;" width="65" x="505" y="387"/><text fill="#000000" font-family="sans-serif" font-size="20" lengthAdjust="spacing" textLength="59" x="508" y="410.5645">Client</text><line style="stroke:#4169E1;stroke-width:0.5;" x1="506" x2="569" y1="420.2813" y2="420.2813"/></g><!--class Apartment--><g id="elem_Apartment"><rect fill="#FFDAB9" height="41.2813" id="Apartment" rx="2.5" ry="2.5" style="stroke:#4169E1;stroke-width:0.5;" width="114" x="1835.5" y="186"/><text fill="#000000" font-family="sans-serif" font-size="20" lengthAdjust="spacing" textLength="108" x="1838.5" y="209.5645">Apartment</text><line style="stroke:#4169E1;stroke-width:0.5;" x1="1836.5" x2="1948.5" y1="219.2813" y2="219.2813"/></g><!--link Agency to Agent--><g id="link_Agency_Agent"><path codeLine="73" d="M161.04,474.4 C210.33,425.42 273.96,362.2 306.24,330.13 " fill="none" id="Agency-Agent" style="stroke:#4169E1;stroke-width:1.0;"/><polygon fill="#000000" points="221.675,353.502,208.0945,360.3667,214.7231,367.0381,221.675,353.502" style="stroke:#000000;stroke-width:1.0;"/><text fill="#000000" font-family="sans-serif" font-size="20" lengthAdjust="spacing" textLength="35" x="229" y="366.0645">has</text><text fill="#000000" font-family="sans-serif" font-size="20" lengthAdjust="spacing" textLength="13" x="154.4379" y="461.8524">1</text><text fill="#000000" font-family="sans-serif" font-size="20" lengthAdjust="spacing" textLength="35" x="261.1796" y="356.9278">1..*</text></g><!--link Agency to Address--><g id="link_Agency_Address"><path codeLine="74" d="M178.03,557.1 C222.25,563.97 277.37,570.5 327,570.5 C327,570.5 327,570.5 1190,570.5 C1316.54,570.5 1450.38,496.56 1521.49,450.49 " fill="none" id="Agency-Address" style="stroke:#4169E1;stroke-width:1.0;"/><polygon fill="#000000" points="667.4749,557.5078,652.6762,553.9651,653.4201,563.3402,667.4749,557.5078" style="stroke:#000000;stroke-width:1.0;"/><text fill="#000000" font-family="sans-serif" font-size="20" lengthAdjust="spacing" textLength="35" x="672.5" y="565.0645">has</text><text fill="#000000" font-family="sans-serif" font-size="20" lengthAdjust="spacing" textLength="13" x="185.9388" y="577.988">1</text><text fill="#000000" font-family="sans-serif" font-size="20" lengthAdjust="spacing" textLength="13" x="1500.5605" y="475.4275">1</text></g><!--link Commission to Anouncement--><g id="link_Commission_Anouncement"><path codeLine="77" d="M602.22,217.07 C648.12,225.4 710.12,236.65 757.92,245.33 " fill="none" id="Commission-Anouncement" style="stroke:#4169E1;stroke-width:1.0;"/><polygon fill="#000000" points="651.6286,209.7119,665.0283,216.9231,666.7079,207.6698,651.6286,209.7119" style="stroke:#000000;stroke-width:1.0;"/><text fill="#000000" font-family="sans-serif" font-size="20" lengthAdjust="spacing" textLength="35" x="672.5" y="218.0645">has</text><text fill="#000000" font-family="sans-serif" font-size="20" lengthAdjust="spacing" textLength="13" x="610.0097" y="238.1817">1</text><text fill="#000000" font-family="sans-serif" font-size="20" lengthAdjust="spacing" textLength="13" x="737.0371" y="263.7516">1</text></g><!--link Agent to Commission--><g id="link_Agent_Commission"><path codeLine="80" d="M361.42,293.25 C391.17,278.34 436.09,255.83 472.97,237.34 " fill="none" id="Agent-Commission" style="stroke:#4169E1;stroke-width:1.0;"/><polygon fill="#000000" points="406.152,238.556,391.107,240.8368,395.3209,249.2445,406.152,238.556" style="stroke:#000000;stroke-width:1.0;"/><text fill="#000000" font-family="sans-serif" font-size="20" lengthAdjust="spacing" textLength="30" x="412" y="249.0645">set</text><text fill="#000000" font-family="sans-serif" font-size="20" lengthAdjust="spacing" textLength="13" x="369.0298" y="310.909">1</text><text fill="#000000" font-family="sans-serif" font-size="20" lengthAdjust="spacing" textLength="35" x="429.8952" y="234.9282">1..*</text></g><!--link Agent to Anouncement--><g id="link_Agent_Anouncement"><path codeLine="81" d="M361.01,308.2 C412.08,305.93 515.08,300.63 602,291.5 C654.32,286.01 713.05,277.47 757.87,270.46 " fill="none" id="Agent-Anouncement" style="stroke:#4169E1;stroke-width:1.0;"/><polygon fill="#000000" points="494.4641,278.3833,479.6118,275.0722,480.5021,284.4345,494.4641,278.3833" style="stroke:#000000;stroke-width:1.0;"/><text fill="#000000" font-family="sans-serif" font-size="20" lengthAdjust="spacing" textLength="96" x="499.5" y="286.0645">publishes</text><text fill="#000000" font-family="sans-serif" font-size="20" lengthAdjust="spacing" textLength="13" x="369.1589" y="328.8682">1</text><text fill="#000000" font-family="sans-serif" font-size="20" lengthAdjust="spacing" textLength="10" x="739.7613" y="291.4663">*</text></g><!--link Anouncement to Agent--><g id="link_Anouncement_Agent"><path codeLine="86" d="M771.42,214.36 C699.8,166.58 575.92,102.37 473,143.5 C404.8,170.75 357.75,250.88 338.6,288.96 " fill="none" id="Anouncement-Agent" style="stroke:#4169E1;stroke-width:1.0;"/><polygon fill="#000000" points="489.6162,119.4995,504.6768,121.6753,503.0794,112.4074,489.6162,119.4995" style="stroke:#000000;stroke-width:1.0;"/><text fill="#000000" font-family="sans-serif" font-size="20" lengthAdjust="spacing" textLength="74" x="510.5" y="125.0645">send to</text><text fill="#000000" font-family="sans-serif" font-size="20" lengthAdjust="spacing" textLength="13" x="748.6411" y="201.7845">1</text><text fill="#000000" font-family="sans-serif" font-size="20" lengthAdjust="spacing" textLength="13" x="326.6506" y="276.3142">1</text></g><!--link Agent to Order--><g id="link_Agent_Order"><path codeLine="82" d="M342.81,330.17 C365.54,362.09 414.2,422.12 473,445.5 C720.7,543.98 1055.28,453.56 1157.25,421.65 " fill="none" id="Agent-Order" style="stroke:#4169E1;stroke-width:1.0;"/><polygon fill="#000000" points="632.05,471.2477,645.9068,477.5359,646.9566,468.1902,632.05,471.2477" style="stroke:#000000;stroke-width:1.0;"/><text fill="#000000" font-family="sans-serif" font-size="20" lengthAdjust="spacing" textLength="74" x="653" y="479.0645">send to</text><text fill="#000000" font-family="sans-serif" font-size="20" lengthAdjust="spacing" textLength="13" x="331.9394" y="356.978">1</text><text fill="#000000" font-family="sans-serif" font-size="20" lengthAdjust="spacing" textLength="10" x="1139.6703" y="444.6798">*</text></g><!--link Anouncement to Property--><g id="link_Anouncement_Property"><path codeLine="85" d="M905.2,222.08 C915.19,217.15 925.34,212.18 935,207.5 C973.45,188.89 1015.36,169.02 1053.81,150.94 " fill="none" id="Anouncement-Property" style="stroke:#4169E1;stroke-width:1.0;"/><polygon fill="#000000" points="966.2158,152.6864,951.1319,154.6938,955.1926,163.1765,966.2158,152.6864" style="stroke:#000000;stroke-width:1.0;"/><text fill="#000000" font-family="sans-serif" font-size="20" lengthAdjust="spacing" textLength="35" x="972" y="163.0645">has</text><text fill="#000000" font-family="sans-serif" font-size="20" lengthAdjust="spacing" textLength="13" x="913.0947" y="238.2129">1</text><text fill="#000000" font-family="sans-serif" font-size="20" lengthAdjust="spacing" textLength="13" x="1033.0613" y="173.5643">1</text></g><!--link Anouncement to Sale--><g id="link_Anouncement_Sale"><path codeLine="87" d="M905.3,251.33 C986.15,243.37 1112.13,230.97 1164.22,225.84 " fill="none" id="Anouncement-Sale" style="stroke:#4169E1;stroke-width:1.0;"/><polygon fill="#000000" points="950.9615,227.3568,936.0983,224.0951,937.0197,233.4544,950.9615,227.3568" style="stroke:#000000;stroke-width:1.0;"/><text fill="#000000" font-family="sans-serif" font-size="20" lengthAdjust="spacing" textLength="67" x="956" y="235.0645">can be</text><text fill="#000000" font-family="sans-serif" font-size="20" lengthAdjust="spacing" textLength="13" x="912.9536" y="270.328">1</text><text fill="#000000" font-family="sans-serif" font-size="20" lengthAdjust="spacing" textLength="13" x="1143.5955" y="247.778">1</text></g><!--link Anouncement to Lease--><g id="link_Anouncement_Lease"><path codeLine="88" d="M905.11,275.76 C915.12,277.86 925.29,279.84 935,281.5 C986.01,290.22 1043.24,297.24 1090.35,302.29 " fill="none" id="Anouncement-Lease" style="stroke:#4169E1;stroke-width:1.0;"/><polygon fill="#000000" points="950.9192,270.2748,937.2599,263.5683,935.9266,272.8778,950.9192,270.2748" style="stroke:#000000;stroke-width:1.0;"/><text fill="#000000" font-family="sans-serif" font-size="20" lengthAdjust="spacing" textLength="67" x="956" y="276.0645">can be</text><text fill="#000000" font-family="sans-serif" font-size="20" lengthAdjust="spacing" textLength="13" x="912.9958" y="297.177">1</text><text fill="#000000" font-family="sans-serif" font-size="20" lengthAdjust="spacing" textLength="13" x="1069.628" y="321.049">1</text></g><!--link Anouncement to Order--><g id="link_Anouncement_Order"><path codeLine="89" d="M892.11,302.57 C905.78,311.55 920.56,320.41 935,327.5 C1011.44,365.04 1108.7,392.01 1157.36,404.21 " fill="none" id="Anouncement-Order" style="stroke:#4169E1;stroke-width:1.0;"/><polygon fill="#000000" points="951.5297,312.2781,963.3611,321.8474,966.7262,313.0655,951.5297,312.2781" style="stroke:#000000;stroke-width:1.0;"/><text fill="#000000" font-family="sans-serif" font-size="20" lengthAdjust="spacing" textLength="35" x="972" y="322.0645">has</text><text fill="#000000" font-family="sans-serif" font-size="20" lengthAdjust="spacing" textLength="13" x="886.7192" y="328.9797">1</text><text fill="#000000" font-family="sans-serif" font-size="20" lengthAdjust="spacing" textLength="13" x="1136.4936" y="395.899">1</text></g><!--link Client to Anouncement--><g id="link_Client_Anouncement"><path codeLine="92" d="M570.17,403.87 C609.34,398.32 677.09,385.17 728,356.5 C752.45,342.73 775.46,321.79 793.45,302.79 " fill="none" id="Client-Anouncement" style="stroke:#4169E1;stroke-width:1.0;"/><polygon fill="#000000" points="667.288,340.8413,652.1646,342.5261,656.0432,351.0936,667.288,340.8413" style="stroke:#000000;stroke-width:1.0;"/><text fill="#000000" font-family="sans-serif" font-size="20" lengthAdjust="spacing" textLength="34" x="673" y="351.0645">see</text><text fill="#000000" font-family="sans-serif" font-size="20" lengthAdjust="spacing" textLength="13" x="577.8816" y="396.4557">1</text><text fill="#000000" font-family="sans-serif" font-size="20" lengthAdjust="spacing" textLength="10" x="777.6652" y="328.8806">*</text></g><!--link Client to Order--><g id="link_Client_Order"><path codeLine="93" d="M570.27,407.7 C680.93,408.38 1048.65,410.64 1157.43,411.31 " fill="none" id="Client-Order" style="stroke:#4169E1;stroke-width:1.0;"/><polygon fill="#000000" points="798.4998,396.1898,784.0569,391.3986,783.9991,400.803,798.4998,396.1898" style="stroke:#000000;stroke-width:1.0;"/><text fill="#000000" font-family="sans-serif" font-size="20" lengthAdjust="spacing" textLength="76" x="803.5" y="403.0645">request</text><text fill="#000000" font-family="sans-serif" font-size="20" lengthAdjust="spacing" textLength="13" x="578.0013" y="428.5679">1</text><text fill="#000000" font-family="sans-serif" font-size="20" lengthAdjust="spacing" textLength="35" x="1114.6095" y="431.677">1..*</text></g><!--link Property to Address--><g id="link_Property_Address"><path codeLine="96" d="M1301.54,167.7 C1309.22,173.62 1316.77,179.59 1324,185.5 C1394.95,243.47 1471.89,315.83 1521.18,363.51 " fill="none" id="Property-Address" style="stroke:#4169E1;stroke-width:1.0;"/><polygon fill="#000000" points="1367.9715,208.4643,1360.2981,195.3238,1354.0398,202.3437,1367.9715,208.4643" style="stroke:#000000;stroke-width:1.0;"/><text fill="#000000" font-family="sans-serif" font-size="20" lengthAdjust="spacing" textLength="35" x="1375" y="210.0645">has</text><text fill="#000000" font-family="sans-serif" font-size="20" lengthAdjust="spacing" textLength="13" x="1297.3214" y="193.8001">1</text><text fill="#000000" font-family="sans-serif" font-size="20" lengthAdjust="spacing" textLength="13" x="1500.5796" y="377.0068">1</text></g><!--reverse link Property to Land--><g id="link_Property_Land"><path codeLine="99" d="M1344.39,63.91 C1420.47,51.79 1504.68,38.38 1546.46,31.73 " fill="none" id="Property-backto-Land" style="stroke:#4169E1;stroke-width:1.0;"/><polygon fill="none" points="1345.08,70.89,1324.22,67.12,1342.87,57.06,1345.08,70.89" style="stroke:#4169E1;stroke-width:1.0;"/><text fill="#000000" font-family="sans-serif" font-size="20" lengthAdjust="spacing" textLength="34" x="1365.5" y="49.0645">is a</text></g><!--reverse link Property to Home--><g id="link_Property_Home"><path codeLine="100" d="M1343.99,113.43 C1376.1,118.63 1409.68,124.06 1440.91,129.12 " fill="none" id="Property-backto-Home" style="stroke:#4169E1;stroke-width:1.0;"/><polygon fill="none" points="1342.85,120.33,1324.22,110.23,1345.09,106.51,1342.85,120.33" style="stroke:#4169E1;stroke-width:1.0;"/><text fill="#000000" font-family="sans-serif" font-size="20" lengthAdjust="spacing" textLength="34" x="1365.5" y="111.0645">is a</text></g><!--reverse link Home to Apartment--><g id="link_Home_Apartment"><path codeLine="101" d="M1727.18,177.43 C1765.78,184.26 1804.87,191.17 1835.24,196.54 " fill="none" id="Home-backto-Apartment" style="stroke:#4169E1;stroke-width:1.0;"/><polygon fill="none" points="1725.87,184.3,1707.39,173.92,1728.3,170.52,1725.87,184.3" style="stroke:#4169E1;stroke-width:1.0;"/><text fill="#000000" font-family="sans-serif" font-size="20" lengthAdjust="spacing" textLength="34" x="1738" y="175.0645">is a</text></g><!--reverse link Home to House--><g id="link_Home_House"><path codeLine="102" d="M1727.14,124.06 C1753.08,119.55 1779.24,115.01 1802.82,110.91 " fill="none" id="Home-backto-House" style="stroke:#4169E1;stroke-width:1.0;"/><polygon fill="none" points="1728.29,130.97,1707.39,127.49,1725.9,117.17,1728.29,130.97" style="stroke:#4169E1;stroke-width:1.0;"/><text fill="#000000" font-family="sans-serif" font-size="20" lengthAdjust="spacing" textLength="34" x="1738" y="111.0645">is a</text></g><!--SRC=[ZLJ1Rjim3BthAuHS31H8qEqO50FIhCK656kmV84iCRPGMN8bkbswxjz7ov9j9EamNMoJrEFZqvF3axQjyA8nJZw1uWeEeZDuxopkzHlmpzUi2Bc6DyuwMNlN04VV0PiohP1Fee8z7Wrm3nA5hSoy8DH2kLTjAtuG9i0SrMWBU6o1Eu-rOmOEoD5nhwiQkT8zcdPslaCQ4S86qUkoG_WkdOrahrcj5N2flQJUyRq1WbI1iMAPrxqcYe684fano4x0-M_6QTtIM9LtdLLRPvpdEn2otdM7Gynkl7UlG-AdEmfpQqYJkCrv1VuqysVEWjRxHgBpuNrviWesKDXKOELn8BBaMgKN1K5NLaHDXaXREmi_kgO4doBG26twXWFIrZMD3e5sfBcMlTx3suj8t59JIzDAQC1YxXnG8EHMNijPzSwx5ZoE92TOBZo8z4hUcjDLcX2fnpqPQQlnkALU8tEQ1LtbHLk7gSq3Y02f1nqsUY7nQ-S7q8cwKXv2I7K1FG2cFTGbHyTPtdGhdPeDywttTPx4HZaV3oKexrmJJiC2wqlndV1af6fFzs4KueNEGfG6xfuxtVR2pWOJLb7BEOTkd9IND7MiJmwmjIWrzb0Fxf2ZeRDtlreNEd_kiBH8CZjSed2UB5Wn6ArWmvClFYtuSacFrUfg4Ls8VCrh4VYNiv95LdsiOCNajeBDd3VVCvaixRjX0mqSME09YHdCcWV0n6Ggkpe5RRlIw513k5Jws5zFAkByXj3e2D3r_IS0OZ53cp7FXfy4kLoNLKle7nVk1VsDrbmAoqluk2pUWF-eovDbJRT6nt66vyTo1UX1Jwe6xJEaX-SE0iOZpZ8KR1JadvQuOCfb3PxCNC6bNC5M8_0D_I3vAjwKDTU1YxDSlBWv5p-6-8P-w9W6F4l6cvOIVm40]--></g></svg>