<?xml version="1.0" encoding="UTF-8" standalone="no"?><svg xmlns="http://www.w3.org/2000/svg" xmlns:xlink="http://www.w3.org/1999/xlink" contentStyleType="text/css" height="1249px" preserveAspectRatio="none" style="width:555px;height:1249px;background:#FFFFFF;" version="1.1" viewBox="0 0 555 1249" width="555px" zoomAndPan="magnify"><defs/><g><text fill="#000000" font-family="sans-serif" font-size="14" font-weight="bold" lengthAdjust="spacing" textLength="63" x="239" y="24.5332">US08-DM</text><!--class Agent--><g id="elem_Agent"><rect codeLine="15" fill="#FFDAB9" height="43.1563" id="Agent" rx="2.5" ry="2.5" style="stroke:#4169E1;stroke-width:0.5;" width="57" x="400.5" y="481.6094"/><text fill="#000000" font-family="sans-serif" font-size="20" lengthAdjust="spacing" textLength="51" x="403.5" y="507.3711">Agent</text><line style="stroke:#4169E1;stroke-width:0.5;" x1="401.5" x2="456.5" y1="516.7656" y2="516.7656"/></g><!--class Announcement--><g id="elem_Announcement"><rect codeLine="18" fill="#FFDAB9" height="93.4688" id="Announcement" rx="2.5" ry="2.5" style="stroke:#4169E1;stroke-width:0.5;" width="134" x="363" y="637.1094"/><text fill="#000000" font-family="sans-serif" font-size="20" lengthAdjust="spacing" textLength="128" x="366" y="662.8711">Announcement</text><line style="stroke:#4169E1;stroke-width:0.5;" x1="364" x2="496" y1="672.2656" y2="672.2656"/><rect fill="none" height="6" style="stroke:#C82930;stroke-width:1.0;" width="6" x="371" y="687.3438"/><text fill="#000000" font-family="sans-serif" font-size="20" lengthAdjust="spacing" textLength="44" x="384" y="697.0273">state</text><rect fill="none" height="6" style="stroke:#C82930;stroke-width:1.0;" width="6" x="371" y="712.5"/><text fill="#000000" font-family="sans-serif" font-size="20" lengthAdjust="spacing" textLength="43" x="384" y="722.1836">price</text></g><!--class Property--><g id="elem_Property"><rect codeLine="23" fill="#FFDAB9" height="168.9375" id="Property" rx="2.5" ry="2.5" style="stroke:#4169E1;stroke-width:0.5;" width="239" x="183.5" y="842.6094"/><text fill="#000000" font-family="sans-serif" font-size="20" lengthAdjust="spacing" textLength="76" x="265" y="868.3711">Property</text><line style="stroke:#4169E1;stroke-width:0.5;" x1="184.5" x2="421.5" y1="877.7656" y2="877.7656"/><rect fill="none" height="6" style="stroke:#C82930;stroke-width:1.0;" width="6" x="191.5" y="892.8438"/><text fill="#000000" font-family="sans-serif" font-size="20" lengthAdjust="spacing" textLength="38" x="204.5" y="902.5273">type</text><rect fill="none" height="6" style="stroke:#C82930;stroke-width:1.0;" width="6" x="191.5" y="918"/><text fill="#000000" font-family="sans-serif" font-size="20" lengthAdjust="spacing" textLength="40" x="204.5" y="927.6836">area</text><rect fill="none" height="6" style="stroke:#C82930;stroke-width:1.0;" width="6" x="191.5" y="943.1563"/><text fill="#000000" font-family="sans-serif" font-size="20" lengthAdjust="spacing" textLength="67" x="204.5" y="952.8398">location</text><rect fill="none" height="6" style="stroke:#C82930;stroke-width:1.0;" width="6" x="191.5" y="968.3125"/><text fill="#000000" font-family="sans-serif" font-size="20" lengthAdjust="spacing" textLength="212" x="204.5" y="977.9961">distanceFromCityCenter</text><rect fill="none" height="6" style="stroke:#C82930;stroke-width:1.0;" width="6" x="191.5" y="993.4688"/><text fill="#000000" font-family="sans-serif" font-size="20" lengthAdjust="spacing" textLength="109" x="204.5" y="1003.1523">photographs</text></g><!--class Home--><g id="elem_Home"><rect codeLine="31" fill="#FFDAB9" height="143.7813" id="Home" rx="2.5" ry="2.5" style="stroke:#4169E1;stroke-width:0.5;" width="236" x="7" y="611.6094"/><text fill="#000000" font-family="sans-serif" font-size="20" lengthAdjust="spacing" textLength="51" x="99.5" y="637.3711">Home</text><line style="stroke:#4169E1;stroke-width:0.5;" x1="8" x2="242" y1="646.7656" y2="646.7656"/><rect fill="none" height="6" style="stroke:#C82930;stroke-width:1.0;" width="6" x="15" y="661.8438"/><text fill="#000000" font-family="sans-serif" font-size="20" lengthAdjust="spacing" textLength="175" x="28" y="671.5273">numberOfbedrooms</text><rect fill="none" height="6" style="stroke:#C82930;stroke-width:1.0;" width="6" x="15" y="687"/><text fill="#000000" font-family="sans-serif" font-size="20" lengthAdjust="spacing" textLength="180" x="28" y="696.6836">numberOfbathrooms</text><rect fill="none" height="6" style="stroke:#C82930;stroke-width:1.0;" width="6" x="15" y="712.1563"/><text fill="#000000" font-family="sans-serif" font-size="20" lengthAdjust="spacing" textLength="209" x="28" y="721.8398">numberOfParkingSpace</text><rect fill="none" height="6" style="stroke:#C82930;stroke-width:1.0;" width="6" x="15" y="737.3125"/><text fill="#000000" font-family="sans-serif" font-size="20" lengthAdjust="spacing" textLength="168" x="28" y="746.9961">availableEquipment</text></g><!--class Land--><g id="elem_Land"><rect codeLine="38" fill="#FFDAB9" height="43.1563" id="Land" rx="2.5" ry="2.5" style="stroke:#4169E1;stroke-width:0.5;" width="49" x="278.5" y="662.1094"/><text fill="#000000" font-family="sans-serif" font-size="20" lengthAdjust="spacing" textLength="43" x="281.5" y="687.8711">Land</text><line style="stroke:#4169E1;stroke-width:0.5;" x1="279.5" x2="326.5" y1="697.2656" y2="697.2656"/></g><!--class Address--><g id="elem_Address"><rect codeLine="41" fill="#FFDAB9" height="143.7813" id="Address" rx="2.5" ry="2.5" style="stroke:#4169E1;stroke-width:0.5;" width="94" x="256" y="1098.6094"/><text fill="#000000" font-family="sans-serif" font-size="20" lengthAdjust="spacing" textLength="73" x="266.5" y="1124.3711">Address</text><line style="stroke:#4169E1;stroke-width:0.5;" x1="257" x2="349" y1="1133.7656" y2="1133.7656"/><rect fill="none" height="6" style="stroke:#C82930;stroke-width:1.0;" width="6" x="264" y="1148.8438"/><text fill="#000000" font-family="sans-serif" font-size="20" lengthAdjust="spacing" textLength="51" x="277" y="1158.5273">street</text><rect fill="none" height="6" style="stroke:#C82930;stroke-width:1.0;" width="6" x="264" y="1174"/><text fill="#000000" font-family="sans-serif" font-size="20" lengthAdjust="spacing" textLength="30" x="277" y="1183.6836">city</text><rect fill="none" height="6" style="stroke:#C82930;stroke-width:1.0;" width="6" x="264" y="1199.1563"/><text fill="#000000" font-family="sans-serif" font-size="20" lengthAdjust="spacing" textLength="44" x="277" y="1208.8398">state</text><rect fill="none" height="6" style="stroke:#C82930;stroke-width:1.0;" width="6" x="264" y="1224.3125"/><text fill="#000000" font-family="sans-serif" font-size="20" lengthAdjust="spacing" textLength="67" x="277" y="1233.9961">zipcode</text></g><!--class Employee--><g id="elem_Employee"><rect codeLine="48" fill="#FFDAB9" height="68.3125" id="Employee" rx="2.5" ry="2.5" style="stroke:#4169E1;stroke-width:0.5;" width="192" x="333" y="326.6094"/><text fill="#000000" font-family="sans-serif" font-size="20" lengthAdjust="spacing" textLength="87" x="385.5" y="352.3711">Employee</text><line style="stroke:#4169E1;stroke-width:0.5;" x1="334" x2="524" y1="361.7656" y2="361.7656"/><rect fill="none" height="6" style="stroke:#C82930;stroke-width:1.0;" width="6" x="341" y="376.8438"/><text fill="#000000" font-family="sans-serif" font-size="20" lengthAdjust="spacing" textLength="165" x="354" y="386.5273">agencyDesignation</text></g><!--class User--><g id="elem_User"><rect codeLine="52" fill="#FFDAB9" height="194.0938" id="User" rx="2.5" ry="2.5" style="stroke:#4169E1;stroke-width:0.5;" width="192" x="333" y="45.6094"/><text fill="#000000" font-family="sans-serif" font-size="20" lengthAdjust="spacing" textLength="41" x="408.5" y="71.3711">User</text><line style="stroke:#4169E1;stroke-width:0.5;" x1="334" x2="524" y1="80.7656" y2="80.7656"/><rect fill="none" height="6" style="stroke:#C82930;stroke-width:1.0;" width="6" x="341" y="95.8438"/><text fill="#000000" font-family="sans-serif" font-size="20" lengthAdjust="spacing" textLength="48" x="354" y="105.5273">name</text><rect fill="none" height="6" style="stroke:#C82930;stroke-width:1.0;" width="6" x="341" y="121"/><text fill="#000000" font-family="sans-serif" font-size="20" lengthAdjust="spacing" textLength="165" x="354" y="130.6836">citizenCardNumber</text><rect fill="none" height="6" style="stroke:#C82930;stroke-width:1.0;" width="6" x="341" y="146.1563"/><text fill="#000000" font-family="sans-serif" font-size="20" lengthAdjust="spacing" textLength="94" x="354" y="155.8398">taxNumber</text><rect fill="none" height="6" style="stroke:#C82930;stroke-width:1.0;" width="6" x="341" y="171.3125"/><text fill="#000000" font-family="sans-serif" font-size="20" lengthAdjust="spacing" textLength="46" x="354" y="180.9961">email</text><rect fill="none" height="6" style="stroke:#C82930;stroke-width:1.0;" width="6" x="341" y="196.4688"/><text fill="#000000" font-family="sans-serif" font-size="20" lengthAdjust="spacing" textLength="121" x="354" y="206.1523">phoneNumber</text><rect fill="none" height="6" style="stroke:#C82930;stroke-width:1.0;" width="6" x="341" y="221.625"/><text fill="#000000" font-family="sans-serif" font-size="20" lengthAdjust="spacing" textLength="86" x="354" y="231.3086">password</text></g><!--reverse link User to Employee--><g id="link_User_Employee"><path codeLine="61" d="M429,260.0094 C429,284.4494 429,308.3194 429,326.5594 " fill="none" id="User-backto-Employee" style="stroke:#4169E1;stroke-width:1.0;"/><polygon fill="none" points="422,259.9194,429,239.9194,436,259.9194,422,259.9194" style="stroke:#4169E1;stroke-width:1.0;"/><text fill="#000000" font-family="sans-serif" font-size="20" lengthAdjust="spacing" textLength="31" x="430" y="291.3711">is a</text></g><!--reverse link Employee to Agent--><g id="link_Employee_Agent"><path codeLine="62" d="M429,415.0794 C429,438.1594 429,463.8194 429,481.2494 " fill="none" id="Employee-backto-Agent" style="stroke:#4169E1;stroke-width:1.0;"/><polygon fill="none" points="422,414.9094,429,394.9094,436,414.9094,422,414.9094" style="stroke:#4169E1;stroke-width:1.0;"/><text fill="#000000" font-family="sans-serif" font-size="20" lengthAdjust="spacing" textLength="31" x="430" y="446.3711">is a</text></g><!--link Agent to Announcement--><g id="link_Agent_Announcement"><path codeLine="63" d="M400.48,515.3994 C383.96,523.5994 364.59,536.4594 355,554.6094 C349.4,565.2194 351.23,570.2194 355,581.6094 C361.58,601.5194 373.78,620.6994 386.44,636.8994 " fill="none" id="Agent-Announcement" style="stroke:#4169E1;stroke-width:1.0;"/><polygon fill="#000000" points="362.0817,576.1346,368.4141,562.2979,359.0717,561.2184,362.0817,576.1346" style="stroke:#000000;stroke-width:1.0;"/><text fill="#000000" font-family="sans-serif" font-size="20" lengthAdjust="spacing" textLength="81" x="376" y="576.3711">publishes</text></g><!--link Announcement to Agent--><g id="link_Announcement_Agent"><path codeLine="68" d="M453.33,637.0294 C462.91,612.4694 470.07,581.7194 462,554.6094 C458.83,543.9694 452.63,533.4794 446.45,524.8494 " fill="none" id="Announcement-Agent" style="stroke:#4169E1;stroke-width:1.0;"/><polygon fill="#000000" points="473.5103,560.2025,469.7027,574.9353,479.0897,574.3596,473.5103,560.2025" style="stroke:#000000;stroke-width:1.0;"/><text fill="#000000" font-family="sans-serif" font-size="20" lengthAdjust="spacing" textLength="60" x="487" y="576.3711">sent to</text></g><!--link Announcement to Property--><g id="link_Announcement_Property"><path codeLine="64" d="M405.96,730.3194 C389.35,761.9094 366.77,804.8494 346.99,842.4594 " fill="none" id="Announcement-Property" style="stroke:#4169E1;stroke-width:1.0;"/><polygon fill="#000000" points="379.2766,806.2682,390.1742,795.6477,381.8504,791.2705,379.2766,806.2682" style="stroke:#000000;stroke-width:1.0;"/><text fill="#000000" font-family="sans-serif" font-size="20" lengthAdjust="spacing" textLength="48" x="396" y="807.3711">has a</text></g><!--reverse link Land to Property--><g id="link_Land_Property"><path codeLine="65" d="M303,725.3594 C303,757.3394 303,802.9294 303,842.5794 " fill="none" id="Land-backto-Property" style="stroke:#4169E1;stroke-width:1.0;"/><polygon fill="none" points="296,725.1994,303,705.1994,310,725.1994,296,725.1994" style="stroke:#4169E1;stroke-width:1.0;"/><text fill="#000000" font-family="sans-serif" font-size="20" lengthAdjust="spacing" textLength="31" x="304" y="807.3711">is a</text></g><!--reverse link Home to Property--><g id="link_Home_Property"><path codeLine="66" d="M189.46,772.0694 C206.33,794.9594 224.48,819.5794 241.2,842.2694 " fill="none" id="Home-backto-Property" style="stroke:#4169E1;stroke-width:1.0;"/><polygon fill="none" points="183.67,776.0094,177.44,755.7594,194.94,767.7094,183.67,776.0094" style="stroke:#4169E1;stroke-width:1.0;"/><text fill="#000000" font-family="sans-serif" font-size="20" lengthAdjust="spacing" textLength="31" x="221" y="807.3711">is a</text></g><!--link Property to Address--><g id="link_Property_Address"><path codeLine="67" d="M303,1011.8994 C303,1040.0994 303,1071.2694 303,1098.4094 " fill="none" id="Property-Address" style="stroke:#4169E1;stroke-width:1.0;"/><polygon fill="#000000" points="311,1063.1875,315.7023,1048.7154,306.2977,1048.7154,311,1063.1875" style="stroke:#000000;stroke-width:1.0;"/><text fill="#000000" font-family="sans-serif" font-size="20" lengthAdjust="spacing" textLength="48" x="324" y="1063.3711">has a</text></g><!--SRC=[TLBBRjim4BphAtZBIK7GKs4K0H8dHWvfQzJ81wp9jKIOuh9BggxIvj-x4gs7qrONaJl3cNt5e_K161f7-eX66Jn0wzA6VDhPLrGVReghE79KGvvqpTIWIjnYCIC1z14gtANEeMBK2NpbbeHOWw6JzPKwW8jO5BKrgBHbBRJXt62goSJYgXo_ZHMnA9BoR0ekDBM36DMlGibtBmbKJAqtQtB4QekWwsrxE0pe7JETCl2DEd3tJh8VdX4RvFV8Mv5i4k-NtSt7yk5pKMIdkmfz4h-tAU2zE6fiSboLaYsah5ogm5RZJDuo1UJK2R5KgGiZ3HZXV9GXGBBaprTZHKxaDzBnjKtTMcoGH_MQ4bKCeOwpnrC_cbxVjyqU-UjXZuQ9cdX-D8KXrV-ARu6bkzLEnZcbzmEiWxt3n- -j3NsbizqpU7FH3sCOXv6KCJ5YoXfQSi-dHNjURT1a5lrvR8AZ3Z4tKfR9w-u1ewryxib4V8d8kKXenYp5GjRLhu7Dbw6MSpp1puixDbBDt46F5sWG-PDiHEzrFTXy-bsMwdfARQLiL53CWG7FUp5Y-TO_krYFbGhjtjbOOrItnINMawVrMAaQHAWd3VtDAIpWR3EC-Z_O51YoE0zbeVkN-LX1x7-9rEqV]--></g></svg>