<?xml version="1.0" encoding="UTF-8" standalone="no"?><svg xmlns="http://www.w3.org/2000/svg" xmlns:xlink="http://www.w3.org/1999/xlink" contentStyleType="text/css" height="839px" preserveAspectRatio="none" style="width:912px;height:839px;background:#FFFFFF;" version="1.1" viewBox="0 0 912 839" width="912px" zoomAndPan="magnify"><defs/><g><!--class Property--><g id="elem_Property"><rect codeLine="16" fill="#FFDAB9" height="134.4063" id="Property" rx="2.5" ry="2.5" style="stroke:#4169E1;stroke-width:0.5;" width="270" x="135.5" y="283"/><text fill="#000000" font-family="sans-serif" font-size="20" lengthAdjust="spacing" textLength="84" x="228.5" y="306.5645">Property</text><line style="stroke:#4169E1;stroke-width:0.5;" x1="136.5" x2="404.5" y1="316.2813" y2="316.2813"/><rect fill="none" height="6" style="stroke:#C82930;stroke-width:1.0;" width="6" x="143.5" y="330.4219"/><text fill="#000000" font-family="sans-serif" font-size="20" lengthAdjust="spacing" textLength="44" x="156.5" y="338.8457">type</text><rect fill="none" height="6" style="stroke:#C82930;stroke-width:1.0;" width="6" x="143.5" y="353.7031"/><text fill="#000000" font-family="sans-serif" font-size="20" lengthAdjust="spacing" textLength="44" x="156.5" y="362.127">area</text><rect fill="none" height="6" style="stroke:#C82930;stroke-width:1.0;" width="6" x="143.5" y="376.9844"/><text fill="#000000" font-family="sans-serif" font-size="20" lengthAdjust="spacing" textLength="243" x="156.5" y="385.4082">distanceFromCityCenter</text><rect fill="none" height="6" style="stroke:#C82930;stroke-width:1.0;" width="6" x="143.5" y="400.2656"/><text fill="#000000" font-family="sans-serif" font-size="20" lengthAdjust="spacing" textLength="98" x="156.5" y="408.6895">photoURL</text></g><!--class Home--><g id="elem_Home"><rect codeLine="23" fill="#FFDAB9" height="134.4063" id="Home" rx="2.5" ry="2.5" style="stroke:#4169E1;stroke-width:0.5;" width="266" x="533.5" y="502"/><text fill="#000000" font-family="sans-serif" font-size="20" lengthAdjust="spacing" textLength="59" x="637" y="525.5645">Home</text><line style="stroke:#4169E1;stroke-width:0.5;" x1="534.5" x2="798.5" y1="535.2813" y2="535.2813"/><rect fill="none" height="6" style="stroke:#C82930;stroke-width:1.0;" width="6" x="541.5" y="549.4219"/><text fill="#000000" font-family="sans-serif" font-size="20" lengthAdjust="spacing" textLength="202" x="554.5" y="557.8457">numberOfbedrooms</text><rect fill="none" height="6" style="stroke:#C82930;stroke-width:1.0;" width="6" x="541.5" y="572.7031"/><text fill="#000000" font-family="sans-serif" font-size="20" lengthAdjust="spacing" textLength="210" x="554.5" y="581.127">numberOfbathrooms</text><rect fill="none" height="6" style="stroke:#C82930;stroke-width:1.0;" width="6" x="541.5" y="595.9844"/><text fill="#000000" font-family="sans-serif" font-size="20" lengthAdjust="spacing" textLength="239" x="554.5" y="604.4082">numberOfParkingSpace</text><rect fill="none" height="6" style="stroke:#C82930;stroke-width:1.0;" width="6" x="541.5" y="619.2656"/><text fill="#000000" font-family="sans-serif" font-size="20" lengthAdjust="spacing" textLength="201" x="554.5" y="627.6895">availableEquipment</text></g><!--class Land--><g id="elem_Land"><rect codeLine="29" fill="#FFDAB9" height="41.2813" id="Land" rx="2.5" ry="2.5" style="stroke:#4169E1;stroke-width:0.5;" width="55" x="150" y="548.5"/><text fill="#000000" font-family="sans-serif" font-size="20" lengthAdjust="spacing" textLength="49" x="153" y="572.0645">Land</text><line style="stroke:#4169E1;stroke-width:0.5;" x1="151" x2="204" y1="581.7813" y2="581.7813"/></g><!--class Apartment--><g id="elem_Apartment"><rect codeLine="32" fill="#FFDAB9" height="41.2813" id="Apartment" rx="2.5" ry="2.5" style="stroke:#4169E1;stroke-width:0.5;" width="114" x="791.5" y="756"/><text fill="#000000" font-family="sans-serif" font-size="20" lengthAdjust="spacing" textLength="108" x="794.5" y="779.5645">Apartment</text><line style="stroke:#4169E1;stroke-width:0.5;" x1="792.5" x2="904.5" y1="789.2813" y2="789.2813"/></g><!--class House--><g id="elem_House"><rect codeLine="35" fill="#FFDAB9" height="111.125" id="House" rx="2.5" ry="2.5" style="stroke:#4169E1;stroke-width:0.5;" width="179" x="577" y="721"/><text fill="#000000" font-family="sans-serif" font-size="20" lengthAdjust="spacing" textLength="62" x="635.5" y="744.5645">House</text><line style="stroke:#4169E1;stroke-width:0.5;" x1="578" x2="755" y1="754.2813" y2="754.2813"/><rect fill="none" height="6" style="stroke:#C82930;stroke-width:1.0;" width="6" x="585" y="768.4219"/><text fill="#000000" font-family="sans-serif" font-size="20" lengthAdjust="spacing" textLength="100" x="598" y="776.8457">basement</text><rect fill="none" height="6" style="stroke:#C82930;stroke-width:1.0;" width="6" x="585" y="791.7031"/><text fill="#000000" font-family="sans-serif" font-size="20" lengthAdjust="spacing" textLength="152" x="598" y="800.127">inhabitableLoft</text><rect fill="none" height="6" style="stroke:#C82930;stroke-width:1.0;" width="6" x="585" y="814.9844"/><text fill="#000000" font-family="sans-serif" font-size="20" lengthAdjust="spacing" textLength="128" x="598" y="823.4082">sunExposure</text></g><!--class Announcement--><g id="elem_Announcement"><rect codeLine="40" fill="#FFDAB9" height="64.5625" id="Announcement" rx="2.5" ry="2.5" style="stroke:#4169E1;stroke-width:0.5;" width="160" x="215.5" y="133"/><text fill="#000000" font-family="sans-serif" font-size="20" lengthAdjust="spacing" textLength="154" x="218.5" y="156.5645">Announcement</text><line style="stroke:#4169E1;stroke-width:0.5;" x1="216.5" x2="374.5" y1="166.2813" y2="166.2813"/><rect fill="none" height="6" style="stroke:#C82930;stroke-width:1.0;" width="6" x="223.5" y="180.4219"/><text fill="#000000" font-family="sans-serif" font-size="20" lengthAdjust="spacing" textLength="50" x="236.5" y="188.8457">state</text></g><!--class Visit--><g id="elem_Visit"><rect codeLine="44" fill="#FFDAB9" height="41.2813" id="Visit" rx="2.5" ry="2.5" style="stroke:#4169E1;stroke-width:0.5;" width="50" x="36.5" y="548.5"/><text fill="#000000" font-family="sans-serif" font-size="20" lengthAdjust="spacing" textLength="44" x="39.5" y="572.0645">Visit</text><line style="stroke:#4169E1;stroke-width:0.5;" x1="37.5" x2="85.5" y1="581.7813" y2="581.7813"/></g><!--class Prediction--><g id="elem_Prediction"><rect codeLine="49" fill="#FFDAB9" height="64.5625" id="Prediction" rx="2.5" ry="2.5" style="stroke:#4169E1;stroke-width:0.5;" width="107" x="7" y="744"/><text fill="#000000" font-family="sans-serif" font-size="20" lengthAdjust="spacing" textLength="101" x="10" y="767.5645">Prediction</text><line style="stroke:#4169E1;stroke-width:0.5;" x1="8" x2="113" y1="777.2813" y2="777.2813"/><rect fill="none" height="6" style="stroke:#C82930;stroke-width:1.0;" width="6" x="15" y="791.4219"/><text fill="#000000" font-family="sans-serif" font-size="20" lengthAdjust="spacing" textLength="54" x="28" y="799.8457">value</text></g><!--class Order--><g id="elem_Order"><rect codeLine="53" fill="#FFDAB9" height="41.2813" id="Order" rx="2.5" ry="2.5" style="stroke:#4169E1;stroke-width:0.5;" width="63" x="441" y="329.5"/><text fill="#000000" font-family="sans-serif" font-size="20" lengthAdjust="spacing" textLength="57" x="444" y="353.0645">Order</text><line style="stroke:#4169E1;stroke-width:0.5;" x1="442" x2="503" y1="362.7813" y2="362.7813"/></g><!--class Address--><g id="elem_Address"><rect codeLine="56" fill="#FFDAB9" height="134.4063" id="Address" rx="2.5" ry="2.5" style="stroke:#4169E1;stroke-width:0.5;" width="105" x="240" y="502"/><text fill="#000000" font-family="sans-serif" font-size="20" lengthAdjust="spacing" textLength="80" x="252.5" y="525.5645">Address</text><line style="stroke:#4169E1;stroke-width:0.5;" x1="241" x2="344" y1="535.2813" y2="535.2813"/><rect fill="none" height="6" style="stroke:#C82930;stroke-width:1.0;" width="6" x="248" y="549.4219"/><text fill="#000000" font-family="sans-serif" font-size="20" lengthAdjust="spacing" textLength="58" x="261" y="557.8457">street</text><rect fill="none" height="6" style="stroke:#C82930;stroke-width:1.0;" width="6" x="248" y="572.7031"/><text fill="#000000" font-family="sans-serif" font-size="20" lengthAdjust="spacing" textLength="36" x="261" y="581.127">city</text><rect fill="none" height="6" style="stroke:#C82930;stroke-width:1.0;" width="6" x="248" y="595.9844"/><text fill="#000000" font-family="sans-serif" font-size="20" lengthAdjust="spacing" textLength="50" x="261" y="604.4082">state</text><rect fill="none" height="6" style="stroke:#C82930;stroke-width:1.0;" width="6" x="248" y="619.2656"/><text fill="#000000" font-family="sans-serif" font-size="20" lengthAdjust="spacing" textLength="78" x="261" y="627.6895">zipcode</text></g><!--class Deal--><g id="elem_Deal"><rect codeLine="63" fill="#FFDAB9" height="64.5625" id="Deal" rx="2.5" ry="2.5" style="stroke:#4169E1;stroke-width:0.5;" width="118" x="380.5" y="536.5"/><text fill="#000000" font-family="sans-serif" font-size="20" lengthAdjust="spacing" textLength="45" x="417" y="560.0645">Deal</text><line style="stroke:#4169E1;stroke-width:0.5;" x1="381.5" x2="497.5" y1="569.7813" y2="569.7813"/><rect fill="none" height="6" style="stroke:#C82930;stroke-width:1.0;" width="6" x="388.5" y="583.9219"/><text fill="#000000" font-family="sans-serif" font-size="20" lengthAdjust="spacing" textLength="91" x="401.5" y="592.3457">dealType</text></g><!--class Sale--><g id="elem_Sale"><rect codeLine="66" fill="#FFDAB9" height="64.5625" id="Sale" rx="2.5" ry="2.5" style="stroke:#4169E1;stroke-width:0.5;" width="161" x="381" y="744"/><text fill="#000000" font-family="sans-serif" font-size="20" lengthAdjust="spacing" textLength="43" x="440" y="767.5645">Sale</text><line style="stroke:#4169E1;stroke-width:0.5;" x1="382" x2="541" y1="777.2813" y2="777.2813"/><rect fill="none" height="6" style="stroke:#C82930;stroke-width:1.0;" width="6" x="389" y="791.4219"/><text fill="#000000" font-family="sans-serif" font-size="20" lengthAdjust="spacing" textLength="134" x="402" y="799.8457">propertyPrice</text></g><!--class Rent--><g id="elem_Rent"><rect codeLine="69" fill="#FFDAB9" height="87.8438" id="Rent" rx="2.5" ry="2.5" style="stroke:#4169E1;stroke-width:0.5;" width="197" x="149" y="732.5"/><text fill="#000000" font-family="sans-serif" font-size="20" lengthAdjust="spacing" textLength="47" x="224" y="756.0645">Rent</text><line style="stroke:#4169E1;stroke-width:0.5;" x1="150" x2="345" y1="765.7813" y2="765.7813"/><rect fill="none" height="6" style="stroke:#C82930;stroke-width:1.0;" width="6" x="157" y="779.9219"/><text fill="#000000" font-family="sans-serif" font-size="20" lengthAdjust="spacing" textLength="132" x="170" y="788.3457">propertyRent</text><rect fill="none" height="6" style="stroke:#C82930;stroke-width:1.0;" width="6" x="157" y="803.2031"/><text fill="#000000" font-family="sans-serif" font-size="20" lengthAdjust="spacing" textLength="170" x="170" y="811.627">contractDuration</text></g><!--class Client--><g id="elem_Client"><rect fill="#FFDAB9" height="41.2813" id="Client" rx="2.5" ry="2.5" style="stroke:#4169E1;stroke-width:0.5;" width="65" x="263" y="7"/><text fill="#000000" font-family="sans-serif" font-size="20" lengthAdjust="spacing" textLength="59" x="266" y="30.5645">Client</text><line style="stroke:#4169E1;stroke-width:0.5;" x1="264" x2="327" y1="40.2813" y2="40.2813"/></g><!--link Announcement to Property--><g id="link_Announcement_Property"><path codeLine="75" d="M288.09,198.3 C286.06,207.81 284,218.29 282.5,228 C279.76,245.73 277.51,265.03 275.74,282.9 " fill="none" id="Announcement-Property" style="stroke:#4169E1;stroke-width:1.0;"/><polygon fill="#000000" points="289.3444,248.5567,296.0879,234.9156,286.7819,233.5571,289.3444,248.5567" style="stroke:#000000;stroke-width:1.0;"/><text fill="#000000" font-family="sans-serif" font-size="20" lengthAdjust="spacing" textLength="35" x="303.5" y="247.5645">has</text><text fill="#000000" font-family="sans-serif" font-size="20" lengthAdjust="spacing" textLength="13" x="272.7862" y="224.2612">1</text><text fill="#000000" font-family="sans-serif" font-size="20" lengthAdjust="spacing" textLength="13" x="262.6101" y="270.3524">1</text></g><!--link Client to Visit--><g id="link_Client_Visit"><path codeLine="80" d="M273.87,48.29 C252.76,68.33 220.53,100.85 197.5,133 C153.5,194.42 142.84,211.82 117.5,283 C83.26,379.2 68.15,501.53 63.33,548.47 " fill="none" id="Client-Visit" style="stroke:#4169E1;stroke-width:1.0;"/><polygon fill="#000000" points="144.3963,248.014,154.3449,236.4997,145.6769,232.8511,144.3963,248.014" style="stroke:#000000;stroke-width:1.0;"/><text fill="#000000" font-family="sans-serif" font-size="20" lengthAdjust="spacing" textLength="90" x="160.5" y="247.5645">schedule</text><text fill="#000000" font-family="sans-serif" font-size="20" lengthAdjust="spacing" textLength="13" x="254.0133" y="74.7251">1</text><text fill="#000000" font-family="sans-serif" font-size="20" lengthAdjust="spacing" textLength="13" x="49.1333" y="535.8268">1</text></g><!--link Client to Announcement--><g id="link_Client_Announcement"><path codeLine="81" d="M295.5,48.28 C295.5,70.45 295.5,106.72 295.5,132.85 " fill="none" id="Client-Announcement" style="stroke:#4169E1;stroke-width:1.0;"/><polygon fill="#000000" points="303.5,98.6406,308.2023,84.1685,298.7977,84.1685,303.5,98.6406" style="stroke:#000000;stroke-width:1.0;"/><text fill="#000000" font-family="sans-serif" font-size="20" lengthAdjust="spacing" textLength="34" x="316.5" y="97.5645">see</text><text fill="#000000" font-family="sans-serif" font-size="20" lengthAdjust="spacing" textLength="13" x="280.9156" y="74.7127">1</text><text fill="#000000" font-family="sans-serif" font-size="20" lengthAdjust="spacing" textLength="10" x="284.5781" y="120.3406">*</text></g><!--link Client to Order--><g id="link_Client_Order"><path codeLine="82" d="M325.41,48.17 C336.85,56.55 349.54,66.94 359.5,78 C378.92,99.56 444.8,223.48 446.5,228 C459.45,262.38 466.7,304.82 470.09,329.21 " fill="none" id="Client-Order" style="stroke:#4169E1;stroke-width:1.0;"/><polygon fill="#000000" points="442.1617,172.7534,439.7184,157.734,431.3568,162.0385,442.1617,172.7534" style="stroke:#000000;stroke-width:1.0;"/><text fill="#000000" font-family="sans-serif" font-size="20" lengthAdjust="spacing" textLength="76" x="451.5" y="172.5645">request</text><text fill="#000000" font-family="sans-serif" font-size="20" lengthAdjust="spacing" textLength="13" x="318.4088" y="74.978">1</text><text fill="#000000" font-family="sans-serif" font-size="20" lengthAdjust="spacing" textLength="35" x="473.7682" y="316.9038">1..*</text></g><!--link Property to Visit--><g id="link_Property_Visit"><path codeLine="85" d="M187.71,417.22 C176.89,426.87 166.21,436.95 156.5,447 C124.58,480.03 92.67,523.3 75.16,548.14 " fill="none" id="Property-Visit" style="stroke:#4169E1;stroke-width:1.0;"/><polygon fill="#000000" points="159.2848,465.7071,172.285,457.7982,165.1534,451.6674,159.2848,465.7071" style="stroke:#000000;stroke-width:1.0;"/><text fill="#000000" font-family="sans-serif" font-size="20" lengthAdjust="spacing" textLength="35" x="177.5" y="466.5645">has</text><text fill="#000000" font-family="sans-serif" font-size="20" lengthAdjust="spacing" textLength="13" x="165.502" y="443.896">1</text><text fill="#000000" font-family="sans-serif" font-size="20" lengthAdjust="spacing" textLength="10" x="67.2709" y="535.8167">*</text></g><!--link Property to Address--><g id="link_Property_Address"><path codeLine="86" d="M277.22,417.29 C279.94,444.08 283.07,474.95 285.78,501.75 " fill="none" id="Property-Address" style="stroke:#4169E1;stroke-width:1.0;"/><polygon fill="#000000" points="291.3067,467.5999,294.5257,452.7273,285.1691,453.6756,291.3067,467.5999" style="stroke:#000000;stroke-width:1.0;"/><text fill="#000000" font-family="sans-serif" font-size="20" lengthAdjust="spacing" textLength="35" x="303.5" y="466.5645">has</text><text fill="#000000" font-family="sans-serif" font-size="20" lengthAdjust="spacing" textLength="13" x="264.2427" y="443.9732">1</text><text fill="#000000" font-family="sans-serif" font-size="20" lengthAdjust="spacing" textLength="13" x="271.4167" y="489.1869">1</text></g><!--link Visit to Prediction--><g id="link_Visit_Prediction"><path codeLine="89" d="M61.4,589.7 C61.23,625.37 60.86,700.9 60.65,743.86 " fill="none" id="Visit-Prediction" style="stroke:#4169E1;stroke-width:1.0;"/><polygon fill="#000000" points="69.4611,686.6405,74.2337,672.1914,64.8293,672.1457,69.4611,686.6405" style="stroke:#000000;stroke-width:1.0;"/><text fill="#000000" font-family="sans-serif" font-size="20" lengthAdjust="spacing" textLength="35" x="82.5" y="685.5645">has</text><text fill="#000000" font-family="sans-serif" font-size="20" lengthAdjust="spacing" textLength="13" x="46.7087" y="616.5157">1</text><text fill="#000000" font-family="sans-serif" font-size="20" lengthAdjust="spacing" textLength="13" x="46.4792" y="731.3524">1</text></g><!--link Announcement to Order--><g id="link_Announcement_Order"><path codeLine="92" d="M326.86,198.1 C343.84,214.83 365.41,235.48 385.5,253 C401.72,267.14 408.51,267.56 423.5,283 C437.42,297.34 450.77,315.73 460.01,329.46 " fill="none" id="Announcement-Order" style="stroke:#4169E1;stroke-width:1.0;"/><polygon fill="#000000" points="387.805,235.0222,394.8049,248.5335,401.4098,241.8386,387.805,235.0222" style="stroke:#000000;stroke-width:1.0;"/><text fill="#000000" font-family="sans-serif" font-size="20" lengthAdjust="spacing" textLength="35" x="406.5" y="247.5645">has</text><text fill="#000000" font-family="sans-serif" font-size="20" lengthAdjust="spacing" textLength="13" x="317.9774" y="224.028">1</text><text fill="#000000" font-family="sans-serif" font-size="20" lengthAdjust="spacing" textLength="13" x="442.1438" y="316.8142">1</text></g><!--link Property to Deal--><g id="link_Property_Deal"><path codeLine="93" d="M323.95,417.18 C331.89,427.14 339.94,437.32 347.5,447 C371.05,477.16 397.44,511.97 415.89,536.49 " fill="none" id="Property-Deal" style="stroke:#4169E1;stroke-width:1.0;"/><polygon fill="#000000" points="377.3831,465.9774,372.2741,451.6438,364.8248,457.3843,377.3831,465.9774" style="stroke:#000000;stroke-width:1.0;"/><text fill="#000000" font-family="sans-serif" font-size="20" lengthAdjust="spacing" textLength="35" x="385.5" y="466.5645">has</text><text fill="#000000" font-family="sans-serif" font-size="20" lengthAdjust="spacing" textLength="13" x="315.7917" y="443.8519">1</text><text fill="#000000" font-family="sans-serif" font-size="20" lengthAdjust="spacing" textLength="13" x="397.1503" y="523.7336">1</text></g><!--reverse link Deal to Sale--><g id="link_Deal_Sale"><path codeLine="96" d="M444.28,614.69 C448.46,653.67 454.41,709.25 458.11,743.81 " fill="none" id="Deal-backto-Sale" style="stroke:#4169E1;stroke-width:1.0;"/><polygon fill="#4169E1" points="442.89,601.66,439.5522,608.0521,444.1689,613.5917,447.5067,607.1995,442.89,601.66" style="stroke:#4169E1;stroke-width:1.0;"/></g><!--reverse link Deal to Rent--><g id="link_Deal_Rent"><path codeLine="97" d="M400.64,611.59 C367.83,646.71 321.03,696.8 287.82,732.35 " fill="none" id="Deal-backto-Rent" style="stroke:#4169E1;stroke-width:1.0;"/><polygon fill="#4169E1" points="409.92,601.66,402.9014,603.3152,401.7298,610.4305,408.7484,608.7753,409.92,601.66" style="stroke:#4169E1;stroke-width:1.0;"/></g><!--reverse link Property to Land--><g id="link_Property_Land"><path codeLine="99" d="M234.16,435.78 C216.51,476.97 196.8,522.96 185.9,548.39 " fill="none" id="Property-backto-Land" style="stroke:#4169E1;stroke-width:1.0;"/><polygon fill="none" points="227.78,432.91,242.09,417.29,240.65,438.43,227.78,432.91" style="stroke:#4169E1;stroke-width:1.0;"/><text fill="#000000" font-family="sans-serif" font-size="20" lengthAdjust="spacing" textLength="34" x="228.5" y="466.5645">is a</text></g><!--reverse link Property to Home--><g id="link_Property_Home"><path codeLine="100" d="M409.01,426.9 C453.59,451.33 502.59,478.18 545.78,501.85 " fill="none" id="Property-backto-Home" style="stroke:#4169E1;stroke-width:1.0;"/><polygon fill="none" points="405.37,432.89,391.2,417.14,412.1,420.61,405.37,432.89" style="stroke:#4169E1;stroke-width:1.0;"/><text fill="#000000" font-family="sans-serif" font-size="20" lengthAdjust="spacing" textLength="34" x="480.5" y="466.5645">is a</text></g><!--reverse link Home to Apartment--><g id="link_Home_Apartment"><path codeLine="101" d="M738.53,651.33 C772.28,689.44 809.67,731.66 831.01,755.75 " fill="none" id="Home-backto-Apartment" style="stroke:#4169E1;stroke-width:1.0;"/><polygon fill="none" points="733.11,655.77,725.09,636.15,743.59,646.48,733.11,655.77" style="stroke:#4169E1;stroke-width:1.0;"/><text fill="#000000" font-family="sans-serif" font-size="20" lengthAdjust="spacing" textLength="34" x="768.5" y="685.5645">is a</text></g><!--reverse link Home to House--><g id="link_Home_House"><path codeLine="102" d="M666.5,656.25 C666.5,678.11 666.5,701 666.5,720.82 " fill="none" id="Home-backto-House" style="stroke:#4169E1;stroke-width:1.0;"/><polygon fill="none" points="659.5,656.15,666.5,636.15,673.5,656.15,659.5,656.15" style="stroke:#4169E1;stroke-width:1.0;"/><text fill="#000000" font-family="sans-serif" font-size="20" lengthAdjust="spacing" textLength="34" x="667.5" y="685.5645">is a</text></g><!--SRC=[ZLJ1Jjmm4BtxAomkaP1s1JqYX0GBg9MGMEsslNljIMBXs67iG1VAltVin4bOzj1SRCyyltb-OyS_QTiA58rnyWaKLr2ApeHxPyDMlm7_TiOAdp6ySTR96bq3F607RCgqGZw92hPXRu0Zo21iPUO0NmlbNhMjU2cCXpchqHR2lWNkCDIE5GRAm8FZgAiwSAKZdNPslaKQuVrr2AXtNO0VqjcazepLMW6N6YKLJ_C6Y5DvLYpoTwz9eYUX96OCiWDk_iuuVJTqh0fTPzNA6OTy3KBMwwuiK_OQqRtsYOtR2tDZo9EqpQ42FCnyCDPphz6rW67VrrZmUFXXAX34C5NQauiIxidlbGxx5TW0E2JRsWNtQ_F0YBKd_HwxaXbjr-m07yiTA7IkyOTX4UfZyRL0ig7QKZT7GIz26x4pSFVSwROX3MF51s7L-oJWckmB4V0-5zLvoA9smaCYw9VQrcAdG-H-S6ME-ixU_McTxn0cPckf1H9wyW4NH9XP-bjxtHUUJ0QbqyN9hho8JrruZ3tYymCeXU3zWFO10GPLakpFqLWsJTzqAvsQ4Tw2C5cUeldFsDPClXLcDA8T-hz6BIV4PdQwZDXCTj4T3oXakErGfEVmCRlJqqSmsxyN_pN9YhcLRBxW9-SdVB58GxwV_8BNmlChyfGLAwFZddwOevFr1FMo1jNHsxew19sUV6fXnC8HsFboISY-BHVq4tdkm8TOlSY2sAXiHfthzrA_86WO6ZiTfqXxMB_pqy77EpDX_ykoh3fkkZmg8jwE6MjSiXGx9K2y7TCgTVrOSnSr8BsO2exbs78iU_cNM9RnVL95xRduaaj_YvnBYpu-Fk9ZoVIQS-8V]--></g></svg>