<?xml version="1.0" encoding="UTF-8" standalone="no"?><svg xmlns="http://www.w3.org/2000/svg" xmlns:xlink="http://www.w3.org/1999/xlink" contentStyleType="text/css" height="1588px" preserveAspectRatio="none" style="width:1692px;height:1588px;background:#FFFFFF;" version="1.1" viewBox="0 0 1692 1588" width="1692px" zoomAndPan="magnify"><defs/><g><!--class Property--><g id="elem_Property"><rect codeLine="11" fill="#F1F1F1" height="259.5313" id="Property" rx="2.5" ry="2.5" style="stroke:#181818;stroke-width:0.5;" width="725" x="7" y="843"/><ellipse cx="323" cy="860" fill="#ADD1B2" rx="12" ry="12" style="stroke:#181818;stroke-width:1.0;"/><path d="M326.0625,867.0781 Q325.375,867.4375 324.625,867.6094 Q323.875,867.7813 323.0469,867.7813 Q320.0938,867.7813 318.5313,865.8438 Q316.9844,863.8906 316.9844,860.2188 Q316.9844,856.5469 318.5313,854.6094 Q320.0938,852.6563 323.0469,852.6563 Q323.875,852.6563 324.625,852.8281 Q325.3906,853 326.0625,853.3594 L326.0625,856.5625 Q325.3125,855.875 324.6094,855.5625 Q323.9219,855.25 323.1719,855.25 Q321.5938,855.25 320.7813,856.5 Q319.9844,857.75 319.9844,860.2188 Q319.9844,862.6875 320.7813,863.9375 Q321.5938,865.1875 323.1719,865.1875 Q323.9219,865.1875 324.6094,864.875 Q325.3125,864.5625 326.0625,863.875 L326.0625,867.0781 Z " fill="#000000"/><text fill="#000000" font-family="sans-serif" font-size="20" lengthAdjust="spacing" textLength="84" x="345" y="866.9238">Property</text><line style="stroke:#181818;stroke-width:0.5;" x1="8" x2="731" y1="877" y2="877"/><text fill="#000000" font-family="sans-serif" font-size="20" lengthAdjust="spacing" textLength="175" x="13" y="899.5645">-double areaInM2</text><text fill="#000000" font-family="sans-serif" font-size="20" lengthAdjust="spacing" textLength="325" x="13" y="922.8457">-double distanceFromCityCentre</text><text fill="#000000" font-family="sans-serif" font-size="20" lengthAdjust="spacing" textLength="188" x="13" y="946.127">-String[] photoURL</text><text fill="#000000" font-family="sans-serif" font-size="20" lengthAdjust="spacing" textLength="202" x="13" y="969.4082">-String typeProperty</text><text fill="#000000" font-family="sans-serif" font-size="20" lengthAdjust="spacing" textLength="173" x="13" y="992.6895">-Address Address</text><text fill="#000000" font-family="sans-serif" font-size="20" lengthAdjust="spacing" textLength="131" x="13" y="1015.9707">-Home Home</text><text fill="#000000" font-family="sans-serif" font-size="20" lengthAdjust="spacing" textLength="103" x="13" y="1039.252">-Deal Deal</text><line style="stroke:#181818;stroke-width:0.5;" x1="8" x2="731" y1="1047.9688" y2="1047.9688"/><text fill="#000000" font-family="sans-serif" font-size="20" lengthAdjust="spacing" textLength="713" x="13" y="1070.5332">+Property(areaInM2, distanceFromCityCentre, photoURL, typeProperty,</text><text fill="#000000" font-family="sans-serif" font-size="20" lengthAdjust="spacing" textLength="239" x="13" y="1093.8145">Address, Housing, Deal)</text></g><!--class Address--><g id="elem_Address"><rect codeLine="23" fill="#F1F1F1" height="212.9688" id="Address" rx="2.5" ry="2.5" style="stroke:#181818;stroke-width:0.5;" width="637" x="31" y="1164"/><ellipse cx="305" cy="1181" fill="#ADD1B2" rx="12" ry="12" style="stroke:#181818;stroke-width:1.0;"/><path d="M308.0625,1188.0781 Q307.375,1188.4375 306.625,1188.6094 Q305.875,1188.7813 305.0469,1188.7813 Q302.0938,1188.7813 300.5313,1186.8438 Q298.9844,1184.8906 298.9844,1181.2188 Q298.9844,1177.5469 300.5313,1175.6094 Q302.0938,1173.6563 305.0469,1173.6563 Q305.875,1173.6563 306.625,1173.8281 Q307.3906,1174 308.0625,1174.3594 L308.0625,1177.5625 Q307.3125,1176.875 306.6094,1176.5625 Q305.9219,1176.25 305.1719,1176.25 Q303.5938,1176.25 302.7813,1177.5 Q301.9844,1178.75 301.9844,1181.2188 Q301.9844,1183.6875 302.7813,1184.9375 Q303.5938,1186.1875 305.1719,1186.1875 Q305.9219,1186.1875 306.6094,1185.875 Q307.3125,1185.5625 308.0625,1184.875 L308.0625,1188.0781 Z " fill="#000000"/><text fill="#000000" font-family="sans-serif" font-size="20" lengthAdjust="spacing" textLength="80" x="327" y="1187.9238">Address</text><line style="stroke:#181818;stroke-width:0.5;" x1="32" x2="667" y1="1198" y2="1198"/><text fill="#000000" font-family="sans-serif" font-size="20" lengthAdjust="spacing" textLength="132" x="37" y="1220.5645">-String street</text><text fill="#000000" font-family="sans-serif" font-size="20" lengthAdjust="spacing" textLength="110" x="37" y="1243.8457">-String city</text><text fill="#000000" font-family="sans-serif" font-size="20" lengthAdjust="spacing" textLength="124" x="37" y="1267.127">-String state</text><text fill="#000000" font-family="sans-serif" font-size="20" lengthAdjust="spacing" textLength="118" x="37" y="1290.4082">-int zipcode</text><text fill="#000000" font-family="sans-serif" font-size="20" lengthAdjust="spacing" textLength="136" x="37" y="1313.6895">-String distric</text><line style="stroke:#181818;stroke-width:0.5;" x1="32" x2="667" y1="1322.4063" y2="1322.4063"/><text fill="#000000" font-family="sans-serif" font-size="20" lengthAdjust="spacing" textLength="622" x="37" y="1344.9707">+setAdress(String street, String city, String state, int zipcode)</text><text fill="#000000" font-family="sans-serif" font-size="20" lengthAdjust="spacing" textLength="625" x="37" y="1368.252">+getAdress(String street, String city, String state, int zipcode)</text></g><!--class Repositories--><g id="elem_Repositories"><rect codeLine="33" fill="#F1F1F1" height="189.6875" id="Repositories" rx="2.5" ry="2.5" style="stroke:#181818;stroke-width:0.5;" width="305" x="562" y="253"/><ellipse cx="648.5" cy="270" fill="#ADD1B2" rx="12" ry="12" style="stroke:#181818;stroke-width:1.0;"/><path d="M651.5625,277.0781 Q650.875,277.4375 650.125,277.6094 Q649.375,277.7813 648.5469,277.7813 Q645.5938,277.7813 644.0313,275.8438 Q642.4844,273.8906 642.4844,270.2188 Q642.4844,266.5469 644.0313,264.6094 Q645.5938,262.6563 648.5469,262.6563 Q649.375,262.6563 650.125,262.8281 Q650.8906,263 651.5625,263.3594 L651.5625,266.5625 Q650.8125,265.875 650.1094,265.5625 Q649.4219,265.25 648.6719,265.25 Q647.0938,265.25 646.2813,266.5 Q645.4844,267.75 645.4844,270.2188 Q645.4844,272.6875 646.2813,273.9375 Q647.0938,275.1875 648.6719,275.1875 Q649.4219,275.1875 650.1094,274.875 Q650.8125,274.5625 651.5625,273.875 L651.5625,277.0781 Z " fill="#000000"/><text fill="#000000" font-family="sans-serif" font-size="20" lengthAdjust="spacing" textLength="123" x="670.5" y="276.9238">Repositories</text><line style="stroke:#181818;stroke-width:0.5;" x1="563" x2="866" y1="287" y2="287"/><line style="stroke:#181818;stroke-width:0.5;" x1="563" x2="866" y1="295" y2="295"/><text fill="#000000" font-family="sans-serif" font-size="20" lengthAdjust="spacing" textLength="146" x="568" y="317.5645">-Repositories()</text><text fill="#000000" font-family="sans-serif" font-size="20" lengthAdjust="spacing" textLength="293" x="568" y="340.8457">+getInstance() : Repositories</text><text fill="#000000" font-family="sans-serif" font-size="20" lengthAdjust="spacing" textLength="227" x="568" y="364.127">+getUsersRepository()</text><text fill="#000000" font-family="sans-serif" font-size="20" lengthAdjust="spacing" textLength="271" x="568" y="387.4082">+getEmployeeRepository()</text><text fill="#000000" font-family="sans-serif" font-size="20" lengthAdjust="spacing" textLength="254" x="568" y="410.6895">+getRequestRepository()</text><text fill="#000000" font-family="sans-serif" font-size="20" lengthAdjust="spacing" textLength="256" x="568" y="433.9707">+getPropertyRepository()</text></g><!--class Employee--><g id="elem_Employee"><rect codeLine="42" fill="#F1F1F1" height="189.6875" id="Employee" rx="2.5" ry="2.5" style="stroke:#181818;stroke-width:0.5;" width="186" x="767.5" y="878"/><ellipse cx="807.35" cy="895" fill="#ADD1B2" rx="12" ry="12" style="stroke:#181818;stroke-width:1.0;"/><path d="M810.4125,902.0781 Q809.725,902.4375 808.975,902.6094 Q808.225,902.7813 807.3969,902.7813 Q804.4438,902.7813 802.8813,900.8438 Q801.3344,898.8906 801.3344,895.2188 Q801.3344,891.5469 802.8813,889.6094 Q804.4438,887.6563 807.3969,887.6563 Q808.225,887.6563 808.975,887.8281 Q809.7406,888 810.4125,888.3594 L810.4125,891.5625 Q809.6625,890.875 808.9594,890.5625 Q808.2719,890.25 807.5219,890.25 Q805.9438,890.25 805.1313,891.5 Q804.3344,892.75 804.3344,895.2188 Q804.3344,897.6875 805.1313,898.9375 Q805.9438,900.1875 807.5219,900.1875 Q808.2719,900.1875 808.9594,899.875 Q809.6625,899.5625 810.4125,898.875 L810.4125,902.0781 Z " fill="#000000"/><text fill="#000000" font-family="sans-serif" font-size="20" lengthAdjust="spacing" textLength="99" x="827.65" y="901.9238">Employee</text><line style="stroke:#181818;stroke-width:0.5;" x1="768.5" x2="952.5" y1="912" y2="912"/><text fill="#000000" font-family="sans-serif" font-size="20" lengthAdjust="spacing" textLength="64" x="773.5" y="934.5645">-name</text><text fill="#000000" font-family="sans-serif" font-size="20" lengthAdjust="spacing" textLength="174" x="773.5" y="957.8457">-passportNumber</text><text fill="#000000" font-family="sans-serif" font-size="20" lengthAdjust="spacing" textLength="119" x="773.5" y="981.127">-taxNumber</text><text fill="#000000" font-family="sans-serif" font-size="20" lengthAdjust="spacing" textLength="63" x="773.5" y="1004.4082">-email</text><text fill="#000000" font-family="sans-serif" font-size="20" lengthAdjust="spacing" textLength="151" x="773.5" y="1027.6895">-phoneNumber</text><text fill="#000000" font-family="sans-serif" font-size="20" lengthAdjust="spacing" textLength="102" x="773.5" y="1050.9707">-password</text><line style="stroke:#181818;stroke-width:0.5;" x1="768.5" x2="952.5" y1="1059.6875" y2="1059.6875"/></g><!--class PublishAnnouncementUI--><g id="elem_PublishAnnouncementUI"><rect codeLine="51" fill="#F1F1F1" height="50" id="PublishAnnouncementUI" rx="2.5" ry="2.5" style="stroke:#181818;stroke-width:0.5;" width="282" x="676.5" y="7"/><ellipse cx="692.5" cy="24" fill="#ADD1B2" rx="12" ry="12" style="stroke:#181818;stroke-width:1.0;"/><path d="M695.5625,31.0781 Q694.875,31.4375 694.125,31.6094 Q693.375,31.7813 692.5469,31.7813 Q689.5938,31.7813 688.0313,29.8438 Q686.4844,27.8906 686.4844,24.2188 Q686.4844,20.5469 688.0313,18.6094 Q689.5938,16.6563 692.5469,16.6563 Q693.375,16.6563 694.125,16.8281 Q694.8906,17 695.5625,17.3594 L695.5625,20.5625 Q694.8125,19.875 694.1094,19.5625 Q693.4219,19.25 692.6719,19.25 Q691.0938,19.25 690.2813,20.5 Q689.4844,21.75 689.4844,24.2188 Q689.4844,26.6875 690.2813,27.9375 Q691.0938,29.1875 692.6719,29.1875 Q693.4219,29.1875 694.1094,28.875 Q694.8125,28.5625 695.5625,27.875 L695.5625,31.0781 Z " fill="#000000"/><text fill="#000000" font-family="sans-serif" font-size="20" lengthAdjust="spacing" textLength="248" x="707.5" y="30.9238">PublishAnnouncementUI</text><line style="stroke:#181818;stroke-width:0.5;" x1="677.5" x2="957.5" y1="41" y2="41"/><line style="stroke:#181818;stroke-width:0.5;" x1="677.5" x2="957.5" y1="49" y2="49"/></g><!--class PublishAnnouncementController--><g id="elem_PublishAnnouncementController"><rect codeLine="54" fill="#F1F1F1" height="50" id="PublishAnnouncementController" rx="2.5" ry="2.5" style="stroke:#181818;stroke-width:0.5;" width="360" x="637.5" y="118"/><ellipse cx="653.5" cy="135" fill="#ADD1B2" rx="12" ry="12" style="stroke:#181818;stroke-width:1.0;"/><path d="M656.5625,142.0781 Q655.875,142.4375 655.125,142.6094 Q654.375,142.7813 653.5469,142.7813 Q650.5938,142.7813 649.0313,140.8438 Q647.4844,138.8906 647.4844,135.2188 Q647.4844,131.5469 649.0313,129.6094 Q650.5938,127.6563 653.5469,127.6563 Q654.375,127.6563 655.125,127.8281 Q655.8906,128 656.5625,128.3594 L656.5625,131.5625 Q655.8125,130.875 655.1094,130.5625 Q654.4219,130.25 653.6719,130.25 Q652.0938,130.25 651.2813,131.5 Q650.4844,132.75 650.4844,135.2188 Q650.4844,137.6875 651.2813,138.9375 Q652.0938,140.1875 653.6719,140.1875 Q654.4219,140.1875 655.1094,139.875 Q655.8125,139.5625 656.5625,138.875 L656.5625,142.0781 Z " fill="#000000"/><text fill="#000000" font-family="sans-serif" font-size="20" lengthAdjust="spacing" textLength="326" x="668.5" y="141.9238">PublishAnnouncementController</text><line style="stroke:#181818;stroke-width:0.5;" x1="638.5" x2="996.5" y1="152" y2="152"/><line style="stroke:#181818;stroke-width:0.5;" x1="638.5" x2="996.5" y1="160" y2="160"/></g><!--class Home--><g id="elem_Home"><rect codeLine="57" fill="#F1F1F1" height="166.4063" id="Home" rx="2.5" ry="2.5" style="stroke:#181818;stroke-width:0.5;" width="982" x="703.5" y="1187.5"/><ellipse cx="1160.5" cy="1204.5" fill="#ADD1B2" rx="12" ry="12" style="stroke:#181818;stroke-width:1.0;"/><path d="M1163.5625,1211.5781 Q1162.875,1211.9375 1162.125,1212.1094 Q1161.375,1212.2813 1160.5469,1212.2813 Q1157.5938,1212.2813 1156.0313,1210.3438 Q1154.4844,1208.3906 1154.4844,1204.7188 Q1154.4844,1201.0469 1156.0313,1199.1094 Q1157.5938,1197.1563 1160.5469,1197.1563 Q1161.375,1197.1563 1162.125,1197.3281 Q1162.8906,1197.5 1163.5625,1197.8594 L1163.5625,1201.0625 Q1162.8125,1200.375 1162.1094,1200.0625 Q1161.4219,1199.75 1160.6719,1199.75 Q1159.0938,1199.75 1158.2813,1201 Q1157.4844,1202.25 1157.4844,1204.7188 Q1157.4844,1207.1875 1158.2813,1208.4375 Q1159.0938,1209.6875 1160.6719,1209.6875 Q1161.4219,1209.6875 1162.1094,1209.375 Q1162.8125,1209.0625 1163.5625,1208.375 L1163.5625,1211.5781 Z " fill="#000000"/><text fill="#000000" font-family="sans-serif" font-size="20" lengthAdjust="spacing" textLength="59" x="1182.5" y="1211.4238">Home</text><line style="stroke:#181818;stroke-width:0.5;" x1="704.5" x2="1684.5" y1="1221.5" y2="1221.5"/><text fill="#000000" font-family="sans-serif" font-size="20" lengthAdjust="spacing" textLength="210" x="709.5" y="1244.0645">-numberOfBedrooms</text><text fill="#000000" font-family="sans-serif" font-size="20" lengthAdjust="spacing" textLength="218" x="709.5" y="1267.3457">-numberOfBathrooms</text><text fill="#000000" font-family="sans-serif" font-size="20" lengthAdjust="spacing" textLength="246" x="709.5" y="1290.627">-numberOfParkingSpace</text><text fill="#000000" font-family="sans-serif" font-size="20" lengthAdjust="spacing" textLength="208" x="709.5" y="1313.9082">-availableEquipment</text><line style="stroke:#181818;stroke-width:0.5;" x1="704.5" x2="1684.5" y1="1322.625" y2="1322.625"/><text fill="#000000" font-family="sans-serif" font-size="20" lengthAdjust="spacing" textLength="970" x="709.5" y="1345.1895">+Home(numberOfBedrooms, numberOfBathrooms,numberOfParkingSpace,availableEquipment)</text></g><!--class House--><g id="elem_House"><rect codeLine="65" fill="#F1F1F1" height="143.125" id="House" rx="2.5" ry="2.5" style="stroke:#181818;stroke-width:0.5;" width="511" x="939" y="1438"/><ellipse cx="1159" cy="1455" fill="#ADD1B2" rx="12" ry="12" style="stroke:#181818;stroke-width:1.0;"/><path d="M1162.0625,1462.0781 Q1161.375,1462.4375 1160.625,1462.6094 Q1159.875,1462.7813 1159.0469,1462.7813 Q1156.0938,1462.7813 1154.5313,1460.8438 Q1152.9844,1458.8906 1152.9844,1455.2188 Q1152.9844,1451.5469 1154.5313,1449.6094 Q1156.0938,1447.6563 1159.0469,1447.6563 Q1159.875,1447.6563 1160.625,1447.8281 Q1161.3906,1448 1162.0625,1448.3594 L1162.0625,1451.5625 Q1161.3125,1450.875 1160.6094,1450.5625 Q1159.9219,1450.25 1159.1719,1450.25 Q1157.5938,1450.25 1156.7813,1451.5 Q1155.9844,1452.75 1155.9844,1455.2188 Q1155.9844,1457.6875 1156.7813,1458.9375 Q1157.5938,1460.1875 1159.1719,1460.1875 Q1159.9219,1460.1875 1160.6094,1459.875 Q1161.3125,1459.5625 1162.0625,1458.875 L1162.0625,1462.0781 Z " fill="#000000"/><text fill="#000000" font-family="sans-serif" font-size="20" lengthAdjust="spacing" textLength="62" x="1181" y="1461.9238">House</text><line style="stroke:#181818;stroke-width:0.5;" x1="940" x2="1449" y1="1472" y2="1472"/><text fill="#000000" font-family="sans-serif" font-size="20" lengthAdjust="spacing" textLength="107" x="945" y="1494.5645">-basement</text><text fill="#000000" font-family="sans-serif" font-size="20" lengthAdjust="spacing" textLength="159" x="945" y="1517.8457">-inhabitableLoft</text><text fill="#000000" font-family="sans-serif" font-size="20" lengthAdjust="spacing" textLength="135" x="945" y="1541.127">-sunExposure</text><line style="stroke:#181818;stroke-width:0.5;" x1="940" x2="1449" y1="1549.8438" y2="1549.8438"/><text fill="#000000" font-family="sans-serif" font-size="20" lengthAdjust="spacing" textLength="499" x="945" y="1572.4082">+House(basement, inhabitableLoft, sunExposure)</text></g><!--class UsersRepository--><g id="elem_UsersRepository"><rect codeLine="72" fill="#F1F1F1" height="50" id="UsersRepository" rx="2.5" ry="2.5" style="stroke:#181818;stroke-width:0.5;" width="195" x="343" y="527.5"/><ellipse cx="359" cy="544.5" fill="#ADD1B2" rx="12" ry="12" style="stroke:#181818;stroke-width:1.0;"/><path d="M362.0625,551.5781 Q361.375,551.9375 360.625,552.1094 Q359.875,552.2813 359.0469,552.2813 Q356.0938,552.2813 354.5313,550.3438 Q352.9844,548.3906 352.9844,544.7188 Q352.9844,541.0469 354.5313,539.1094 Q356.0938,537.1563 359.0469,537.1563 Q359.875,537.1563 360.625,537.3281 Q361.3906,537.5 362.0625,537.8594 L362.0625,541.0625 Q361.3125,540.375 360.6094,540.0625 Q359.9219,539.75 359.1719,539.75 Q357.5938,539.75 356.7813,541 Q355.9844,542.25 355.9844,544.7188 Q355.9844,547.1875 356.7813,548.4375 Q357.5938,549.6875 359.1719,549.6875 Q359.9219,549.6875 360.6094,549.375 Q361.3125,549.0625 362.0625,548.375 L362.0625,551.5781 Z " fill="#000000"/><text fill="#000000" font-family="sans-serif" font-size="20" lengthAdjust="spacing" textLength="161" x="374" y="551.4238">UsersRepository</text><line style="stroke:#181818;stroke-width:0.5;" x1="344" x2="537" y1="561.5" y2="561.5"/><line style="stroke:#181818;stroke-width:0.5;" x1="344" x2="537" y1="569.5" y2="569.5"/></g><!--class AnnouncementRepository--><g id="elem_AnnouncementRepository"><rect codeLine="75" fill="#F1F1F1" height="96.5625" id="AnnouncementRepository" rx="2.5" ry="2.5" style="stroke:#181818;stroke-width:0.5;" width="294" x="573.5" y="504"/><ellipse cx="589.5" cy="521" fill="#ADD1B2" rx="12" ry="12" style="stroke:#181818;stroke-width:1.0;"/><path d="M592.5625,528.0781 Q591.875,528.4375 591.125,528.6094 Q590.375,528.7813 589.5469,528.7813 Q586.5938,528.7813 585.0313,526.8438 Q583.4844,524.8906 583.4844,521.2188 Q583.4844,517.5469 585.0313,515.6094 Q586.5938,513.6563 589.5469,513.6563 Q590.375,513.6563 591.125,513.8281 Q591.8906,514 592.5625,514.3594 L592.5625,517.5625 Q591.8125,516.875 591.1094,516.5625 Q590.4219,516.25 589.6719,516.25 Q588.0938,516.25 587.2813,517.5 Q586.4844,518.75 586.4844,521.2188 Q586.4844,523.6875 587.2813,524.9375 Q588.0938,526.1875 589.6719,526.1875 Q590.4219,526.1875 591.1094,525.875 Q591.8125,525.5625 592.5625,524.875 L592.5625,528.0781 Z " fill="#000000"/><text fill="#000000" font-family="sans-serif" font-size="20" lengthAdjust="spacing" textLength="260" x="604.5" y="527.9238">AnnouncementRepository</text><line style="stroke:#181818;stroke-width:0.5;" x1="574.5" x2="866.5" y1="538" y2="538"/><line style="stroke:#181818;stroke-width:0.5;" x1="574.5" x2="866.5" y1="546" y2="546"/><text fill="#000000" font-family="sans-serif" font-size="20" lengthAdjust="spacing" textLength="225" x="579.5" y="568.5645">+addAnnouncement()</text><text fill="#000000" font-family="sans-serif" font-size="20" lengthAdjust="spacing" textLength="267" x="579.5" y="591.8457">+validateAnnouncement()</text></g><!--class Announcement--><g id="elem_Announcement"><rect codeLine="80" fill="#F1F1F1" height="119.8438" id="Announcement" rx="2.5" ry="2.5" style="stroke:#181818;stroke-width:0.5;" width="407" x="657" y="662"/><ellipse cx="779" cy="679" fill="#ADD1B2" rx="12" ry="12" style="stroke:#181818;stroke-width:1.0;"/><path d="M782.0625,686.0781 Q781.375,686.4375 780.625,686.6094 Q779.875,686.7813 779.0469,686.7813 Q776.0938,686.7813 774.5313,684.8438 Q772.9844,682.8906 772.9844,679.2188 Q772.9844,675.5469 774.5313,673.6094 Q776.0938,671.6563 779.0469,671.6563 Q779.875,671.6563 780.625,671.8281 Q781.3906,672 782.0625,672.3594 L782.0625,675.5625 Q781.3125,674.875 780.6094,674.5625 Q779.9219,674.25 779.1719,674.25 Q777.5938,674.25 776.7813,675.5 Q775.9844,676.75 775.9844,679.2188 Q775.9844,681.6875 776.7813,682.9375 Q777.5938,684.1875 779.1719,684.1875 Q779.9219,684.1875 780.6094,683.875 Q781.3125,683.5625 782.0625,682.875 L782.0625,686.0781 Z " fill="#000000"/><text fill="#000000" font-family="sans-serif" font-size="20" lengthAdjust="spacing" textLength="154" x="801" y="685.9238">Announcement</text><line style="stroke:#181818;stroke-width:0.5;" x1="658" x2="1063" y1="696" y2="696"/><text fill="#000000" font-family="sans-serif" font-size="20" lengthAdjust="spacing" textLength="171" x="663" y="718.5645">-Request request</text><text fill="#000000" font-family="sans-serif" font-size="20" lengthAdjust="spacing" textLength="256" x="663" y="741.8457">-Commission commission</text><line style="stroke:#181818;stroke-width:0.5;" x1="658" x2="1063" y1="750.5625" y2="750.5625"/><text fill="#000000" font-family="sans-serif" font-size="20" lengthAdjust="spacing" textLength="395" x="663" y="773.127">+Announcement(request, commission)</text></g><!--class Deal--><g id="elem_Deal"><rect fill="#F1F1F1" height="50" id="Deal" rx="2.5" ry="2.5" style="stroke:#181818;stroke-width:0.5;" width="79" x="988" y="948"/><ellipse cx="1004" cy="965" fill="#ADD1B2" rx="12" ry="12" style="stroke:#181818;stroke-width:1.0;"/><path d="M1007.0625,972.0781 Q1006.375,972.4375 1005.625,972.6094 Q1004.875,972.7813 1004.0469,972.7813 Q1001.0938,972.7813 999.5313,970.8438 Q997.9844,968.8906 997.9844,965.2188 Q997.9844,961.5469 999.5313,959.6094 Q1001.0938,957.6563 1004.0469,957.6563 Q1004.875,957.6563 1005.625,957.8281 Q1006.3906,958 1007.0625,958.3594 L1007.0625,961.5625 Q1006.3125,960.875 1005.6094,960.5625 Q1004.9219,960.25 1004.1719,960.25 Q1002.5938,960.25 1001.7813,961.5 Q1000.9844,962.75 1000.9844,965.2188 Q1000.9844,967.6875 1001.7813,968.9375 Q1002.5938,970.1875 1004.1719,970.1875 Q1004.9219,970.1875 1005.6094,969.875 Q1006.3125,969.5625 1007.0625,968.875 L1007.0625,972.0781 Z " fill="#000000"/><text fill="#000000" font-family="sans-serif" font-size="20" lengthAdjust="spacing" textLength="45" x="1019" y="971.9238">Deal</text><line style="stroke:#181818;stroke-width:0.5;" x1="989" x2="1066" y1="982" y2="982"/><line style="stroke:#181818;stroke-width:0.5;" x1="989" x2="1066" y1="990" y2="990"/></g><!--link PublishAnnouncementUI to PublishAnnouncementController--><g id="link_PublishAnnouncementUI_PublishAnnouncementController"><path codeLine="87" d="M817.5,57.19 C817.5,73.56 817.5,95.28 817.5,112.64 " fill="none" id="PublishAnnouncementUI-to-PublishAnnouncementController" style="stroke:#181818;stroke-width:1.0;stroke-dasharray:7.0,7.0;"/><polygon fill="#181818" points="817.5,117.88,821.5,108.88,817.5,112.88,813.5,108.88,817.5,117.88" style="stroke:#181818;stroke-width:1.0;"/></g><!--link PublishAnnouncementController to Repositories--><g id="link_PublishAnnouncementController_Repositories"><path codeLine="90" d="M798.71,168.16 C787.53,182.53 775.5,198 775.5,198 C775.5,198 766.33,220.4 755.1,247.83 " fill="none" id="PublishAnnouncementController-to-Repositories" style="stroke:#181818;stroke-width:1.0;stroke-dasharray:7.0,7.0;"/><polygon fill="#181818" points="753.13,252.64,760.23,245.8144,755.0165,248.0095,752.8213,242.796,753.13,252.64" style="stroke:#181818;stroke-width:1.0;"/><text fill="#000000" font-family="sans-serif" font-size="20" lengthAdjust="spacing" textLength="117" x="776.5" y="217.5645">repositories</text></g><!--link PublishAnnouncementController to Announcement--><g id="link_PublishAnnouncementController_Announcement"><path codeLine="91" d="M853.74,168.16 C875.3,182.53 898.5,198 898.5,198 C898.5,198 898.5,223 898.5,223 C898.5,223 884.5,601 884.5,601 C884.5,601 879.05,628.23 873.35,656.75 " fill="none" id="PublishAnnouncementController-to-Announcement" style="stroke:#181818;stroke-width:1.0;stroke-dasharray:7.0,7.0;"/><polygon fill="#181818" points="872.36,661.7,878.0294,653.6465,873.3296,656.7949,870.1812,652.0952,872.36,661.7" style="stroke:#181818;stroke-width:1.0;"/></g><!--link Repositories to UsersRepository--><g id="link_Repositories_UsersRepository"><path codeLine="92" d="M587.13,443.14 C547.03,472.77 505.83,503.22 477.36,524.26 " fill="none" id="Repositories-to-UsersRepository" style="stroke:#181818;stroke-width:1.0;"/><polygon fill="#181818" points="473.25,527.3,482.8637,525.1605,477.2688,524.3252,478.104,518.7304,473.25,527.3" style="stroke:#181818;stroke-width:1.0;"/></g><!--link Repositories to AnnouncementRepository--><g id="link_Repositories_AnnouncementRepository"><path codeLine="93" d="M717.29,443.14 C717.85,462.23 718.43,481.66 718.94,498.7 " fill="none" id="Repositories-to-AnnouncementRepository" style="stroke:#181818;stroke-width:1.0;"/><polygon fill="#181818" points="719.09,503.91,722.8313,494.7994,718.9472,498.912,714.8346,495.0279,719.09,503.91" style="stroke:#181818;stroke-width:1.0;"/></g><!--link AnnouncementRepository to Announcement--><g id="link_AnnouncementRepository_Announcement"><path codeLine="95" d="M760.24,601.05 C774.97,618.67 791.92,638.95 807.63,657.75 " fill="none" id="AnnouncementRepository-to-Announcement" style="stroke:#181818;stroke-width:1.0;stroke-dasharray:7.0,7.0;"/><polygon fill="#181818" points="811.18,661.99,808.4566,652.5252,807.965,658.1606,802.3296,657.6691,811.18,661.99" style="stroke:#181818;stroke-width:1.0;"/></g><!--link Announcement to Property--><g id="link_Announcement_Property"><path codeLine="96" d="M744.14,782.01 C709.26,799.7 669.52,819.85 629.26,840.27 " fill="none" id="Announcement-to-Property" style="stroke:#181818;stroke-width:1.0;"/><polygon fill="#181818" points="624.35,842.76,634.1863,842.2625,628.8106,840.5011,630.572,835.1254,624.35,842.76" style="stroke:#181818;stroke-width:1.0;"/></g><!--link Announcement to Deal--><g id="link_Announcement_Deal"><path codeLine="97" d="M914.86,782.3 C942.57,812.53 970.5,843 970.5,843 C970.5,843 997.76,904.7 1014.58,942.76 " fill="none" id="Announcement-to-Deal" style="stroke:#181818;stroke-width:1.0;"/><polygon fill="#181818" points="1016.78,947.74,1016.8115,937.8912,1014.7639,943.1645,1009.4906,941.1169,1016.78,947.74" style="stroke:#181818;stroke-width:1.0;"/></g><!--link Announcement to Employee--><g id="link_Announcement_Employee"><path codeLine="98" d="M860.5,782.01 C860.5,809.06 860.5,841.88 860.5,872.58 " fill="none" id="Announcement-to-Employee" style="stroke:#181818;stroke-width:1.0;"/><polygon fill="#181818" points="860.5,877.89,864.5,868.89,860.5,872.89,856.5,868.89,860.5,877.89" style="stroke:#181818;stroke-width:1.0;"/></g><!--link Property to Address--><g id="link_Property_Address"><path codeLine="100" d="M360.76,1103.18 C359.51,1121.63 358.23,1140.48 357.01,1158.55 " fill="none" id="Property-to-Address" style="stroke:#181818;stroke-width:1.0;"/><polygon fill="#181818" points="356.67,1163.62,361.278,1154.9156,357.013,1158.6318,353.2969,1154.3668,356.67,1163.62" style="stroke:#181818;stroke-width:1.0;"/></g><!--reverse link Property to Home--><g id="link_Property_Home"><path codeLine="101" d="M742.52,1107.61 C818.46,1134.81 896.19,1162.65 965.31,1187.41 " fill="none" id="Property-backto-Home" style="stroke:#181818;stroke-width:1.0;"/><polygon fill="#181818" points="729.86,1103.07,734.1595,1108.8591,741.157,1107.1169,736.8575,1101.3278,729.86,1103.07" style="stroke:#181818;stroke-width:1.0;"/></g><!--reverse link Home to House--><g id="link_Home_House"><path codeLine="102" d="M1194.5,1366.76 C1194.5,1390.5 1194.5,1415.54 1194.5,1437.85 " fill="none" id="Home-backto-House" style="stroke:#181818;stroke-width:1.0;"/><polygon fill="#181818" points="1194.5,1353.73,1190.5,1359.73,1194.5,1365.73,1198.5,1359.73,1194.5,1353.73" style="stroke:#181818;stroke-width:1.0;"/></g><!--SRC=[fLLDRniX4BtpAxZ5Rd0KvPX39DTrL4jf6yNogUe1B-DT51Osm2PnglxtmYwimTwaX_fWc_buRsQO6SmZbmtLj1QgU0I66UneA-ojadRDtm1VNQ8p4srmhQGgAgrgm5QtW0wQXXQFj8IrtGl06WfBPIbI0rDHfbwuBF6E2fDg19TWzmtWHeczFwICWr9fgr3YLGXgpDnQpRUjXLMXP1Vl9K9d0dOMMuKrBokB6VVXS2KHwdpmlLODQBl7ln5sdnbJxTO5JJNGbVnsbGaPDowJ0cvTpWjkzmkGLaDlidRSilpv2pULichpS9UAiGywClMAEMCQ77_uxOLVVItzLt_y0bHW_zKTpoF090P7tec8346GZ9cWm4OSIMjSOAI3dw8_iHmnh50D7E8t3XLiBYjupELWHMq87NDfyHjl2iKWD_8XQrxqAM43TjunJZ8cafAG39-aqDC0K_ulp5201sYKuLPf3eSgfC99mhcIVVadKtoT6HrCDWQq6LJxr7jPDqBj0SQr3_3KWh7ZodYZcNR88GB7y2MD7UKcqvZ6JS_tjjw23a9BNxCpr9IBw50f2PdMGxmepGvyzsuwkAdcKghMLQDsJRXPkU9zPB1mEqKh8K2dXhxtGzIou_on-mnCArMR8ocrrOZudcgt4ygrMq0XO_hiSg5kUfTFBMyySwYYfveSan1yGa36iCafx3JDeZKnZIqrCB3EkApebbllUATsGMXQkNnrzzY6NNBU-K-Yf-_Kp8lWn2EXFMgrjAvfvJEBlXQKiTHYwBHdAZXpmtAa78LDXgLhNBVtkzyWNQYwviQupOkBuM-WoU236qdCEiQppGgDDzh5nSt77UQSayF7pUZ1iXrmxH991llVtgaAPL2psStn9PqQZ5yLGkzSuGbZTYSUS7XtJZJTqt8YZTi3eU5jxE8A3zKW_3IRzMzLzshr9zUtVm40]--></g></svg>