<?xml version="1.0" encoding="UTF-8" standalone="no"?><svg xmlns="http://www.w3.org/2000/svg" xmlns:xlink="http://www.w3.org/1999/xlink" contentStyleType="text/css" height="473px" preserveAspectRatio="none" style="width:531px;height:473px;background:#FFFFFF;" version="1.1" viewBox="0 0 531 473" width="531px" zoomAndPan="magnify"><defs/><g><text fill="#000000" font-family="sans-serif" font-size="14" font-weight="bold" lengthAdjust="spacing" textLength="228" x="150.75" y="29.5332">System Sequence Diagram (SSD)</text><rect fill="#FFFFFF" height="39.1563" style="stroke:#181818;stroke-width:1.0;" width="10" x="477.5" y="169.9219"/><rect fill="#FFFFFF" height="39.1563" style="stroke:#181818;stroke-width:1.0;" width="10" x="477.5" y="248.2344"/><rect fill="#FFFFFF" height="48.1563" style="stroke:#181818;stroke-width:1.0;" width="10" x="477.5" y="326.5469"/><line style="stroke:#181818;stroke-width:0.5;stroke-dasharray:5.0,5.0;" x1="32" x2="32" y1="128.7656" y2="383.7031"/><line style="stroke:#181818;stroke-width:0.5;stroke-dasharray:5.0,5.0;" x1="482.5" x2="482.5" y1="128.7656" y2="383.7031"/><text fill="#000000" font-family="sans-serif" font-size="20" lengthAdjust="spacing" textLength="49" x="5" y="124.3711">Client</text><ellipse cx="32.5" cy="52.1094" fill="#D3D3D3" rx="8" ry="8" style="stroke:#181818;stroke-width:0.5;"/><path d="M32.5,60.1094 L32.5,87.1094 M19.5,68.1094 L45.5,68.1094 M32.5,87.1094 L19.5,102.1094 M32.5,87.1094 L45.5,102.1094 " fill="none" style="stroke:#181818;stroke-width:0.5;"/><text fill="#000000" font-family="sans-serif" font-size="20" lengthAdjust="spacing" textLength="49" x="5" y="403.4648">Client</text><ellipse cx="32.5" cy="416.3594" fill="#D3D3D3" rx="8" ry="8" style="stroke:#181818;stroke-width:0.5;"/><path d="M32.5,424.3594 L32.5,451.3594 M19.5,432.3594 L45.5,432.3594 M32.5,451.3594 L19.5,466.3594 M32.5,451.3594 L45.5,466.3594 " fill="none" style="stroke:#181818;stroke-width:0.5;"/><rect fill="#E2E2F0" height="39.1563" rx="2.5" ry="2.5" style="stroke:#181818;stroke-width:0.5;" width="86" x="439.5" y="88.6094"/><text fill="#000000" font-family="sans-serif" font-size="20" lengthAdjust="spacing" textLength="72" x="446.5" y="116.3711">:System</text><rect fill="#E2E2F0" height="39.1563" rx="2.5" ry="2.5" style="stroke:#181818;stroke-width:0.5;" width="86" x="439.5" y="382.7031"/><text fill="#000000" font-family="sans-serif" font-size="20" lengthAdjust="spacing" textLength="72" x="446.5" y="410.4648">:System</text><rect fill="#FFFFFF" height="39.1563" style="stroke:#181818;stroke-width:1.0;" width="10" x="477.5" y="169.9219"/><rect fill="#FFFFFF" height="39.1563" style="stroke:#181818;stroke-width:1.0;" width="10" x="477.5" y="248.2344"/><rect fill="#FFFFFF" height="48.1563" style="stroke:#181818;stroke-width:1.0;" width="10" x="477.5" y="326.5469"/><polygon fill="#181818" points="465.5,165.9219,475.5,169.9219,465.5,173.9219,469.5,169.9219" style="stroke:#181818;stroke-width:1.0;"/><line style="stroke:#181818;stroke-width:1.0;" x1="32.5" x2="471.5" y1="169.9219" y2="169.9219"/><text fill="#000000" font-family="sans-serif" font-size="20" font-weight="bold" lengthAdjust="spacing" textLength="11" x="39.5" y="163.5273">1</text><text fill="#000000" font-family="sans-serif" font-size="20" lengthAdjust="spacing" textLength="373" x="54.5" y="163.5273">Ask to leave a message to scheudle a visit</text><polygon fill="#181818" points="43.5,205.0781,33.5,209.0781,43.5,213.0781,39.5,209.0781" style="stroke:#181818;stroke-width:1.0;"/><line style="stroke:#181818;stroke-width:1.0;" x1="37.5" x2="481.5" y1="209.0781" y2="209.0781"/><text fill="#000000" font-family="sans-serif" font-size="20" font-weight="bold" lengthAdjust="spacing" textLength="11" x="49.5" y="202.6836">2</text><text fill="#000000" font-family="sans-serif" font-size="20" lengthAdjust="spacing" textLength="195" x="64.5" y="202.6836">requests the message</text><polygon fill="#181818" points="465.5,244.2344,475.5,248.2344,465.5,252.2344,469.5,248.2344" style="stroke:#181818;stroke-width:1.0;"/><line style="stroke:#181818;stroke-width:1.0;" x1="32.5" x2="471.5" y1="248.2344" y2="248.2344"/><text fill="#000000" font-family="sans-serif" font-size="20" font-weight="bold" lengthAdjust="spacing" textLength="11" x="39.5" y="241.8398">3</text><text fill="#000000" font-family="sans-serif" font-size="20" lengthAdjust="spacing" textLength="411" x="54.5" y="241.8398">types the data(property,date,starVisit,endVisit)</text><polygon fill="#181818" points="43.5,283.3906,33.5,287.3906,43.5,291.3906,39.5,287.3906" style="stroke:#181818;stroke-width:1.0;"/><line style="stroke:#181818;stroke-width:1.0;" x1="37.5" x2="481.5" y1="287.3906" y2="287.3906"/><text fill="#000000" font-family="sans-serif" font-size="20" font-weight="bold" lengthAdjust="spacing" textLength="11" x="49.5" y="280.9961">4</text><text fill="#000000" font-family="sans-serif" font-size="20" lengthAdjust="spacing" textLength="383" x="64.5" y="280.9961">shows the request and requests cofirmation</text><polygon fill="#181818" points="465.5,322.5469,475.5,326.5469,465.5,330.5469,469.5,326.5469" style="stroke:#181818;stroke-width:1.0;"/><line style="stroke:#181818;stroke-width:1.0;" x1="32.5" x2="471.5" y1="326.5469" y2="326.5469"/><text fill="#000000" font-family="sans-serif" font-size="20" font-weight="bold" lengthAdjust="spacing" textLength="11" x="39.5" y="320.1523">5</text><text fill="#000000" font-family="sans-serif" font-size="20" lengthAdjust="spacing" textLength="179" x="54.5" y="320.1523">confirms the request</text><polygon fill="#181818" points="43.5,361.7031,33.5,365.7031,43.5,369.7031,39.5,365.7031" style="stroke:#181818;stroke-width:1.0;"/><line style="stroke:#181818;stroke-width:1.0;" x1="37.5" x2="476.5" y1="365.7031" y2="365.7031"/><text fill="#000000" font-family="sans-serif" font-size="20" font-weight="bold" lengthAdjust="spacing" textLength="11" x="49.5" y="359.3086">6</text><text fill="#000000" font-family="sans-serif" font-size="20" lengthAdjust="spacing" textLength="219" x="64.5" y="359.3086">informs operation sucess</text><!--SRC=[ZP5FJ-Cm4CNl_XIZxg4WTQNTbVRI0n8g0WvmYiHziAV9g8uTx4dPxATdd3IY8FxK9zjvx-Ktptd7eSE4hOzsHmuSRR7tSXs3LFoVuCylasS9j354swJO4cpHPphwrA7TOKsL39uWaHKCjJyMv0PTVEPG7wn6M5HQ3LceXOgUUWgMu8gnBlApghewDsO9rwogF8WlLhr0B_FnA7tstwJOTxU4Zb8POHDzJ50del2P-5Nsw7lwIZNsyVklMTwpSmebz4zHTE22iZoQz62yfvoraalFTG1BGIXzAtDSkkCO3FOIGzy-gicW5ULRR3nhoW8mm-OEVjnntSXDei5eeB3b3eF0OZrLEigchJ6WIoq_B-Q-rt2PTo0HFE6U0A6TACfLjWtrPK24FMUMqQq8l4UXDv67C8tLyBK-kqwK9OCqD0UEEaSVsjyHoT3Hv7KeUDQbs56IOQKdMcN1z51eLXJSk3a_cIityNaAFX021lTAQ-EMKujZwwVJsXYAxKtkoKGSjh5uouJZZo7tLWipvWK0]--></g></svg>