<?xml version="1.0" encoding="UTF-8" standalone="no"?><svg xmlns="http://www.w3.org/2000/svg" xmlns:xlink="http://www.w3.org/1999/xlink" contentStyleType="text/css" height="1589px" preserveAspectRatio="none" style="width:1217px;height:1589px;background:#FFFFFF;" version="1.1" viewBox="0 0 1217 1589" width="1217px" zoomAndPan="magnify"><defs/><g><text fill="#000000" font-family="sans-serif" font-size="14" font-weight="bold" lengthAdjust="spacing" textLength="398" x="410.75" y="27.9951">System Sequence Diagram (SSD) - Alternative One</text><rect fill="#FFFFFF" height="1356.9922" style="stroke:#181818;stroke-width:1.0;" width="10" x="106" y="135.5781"/><rect fill="#FFFFFF" height="210.3281" style="stroke:#181818;stroke-width:1.0;" width="10" x="1138" y="164.8594"/><rect fill="#FFFFFF" height="37.2813" style="stroke:#181818;stroke-width:1.0;" width="10" x="1138" y="412.4688"/><rect fill="#FFFFFF" height="101.0234" style="stroke:#181818;stroke-width:1.0;" width="10" x="1138" y="521.7734"/><rect fill="#FFFFFF" height="748.9297" style="stroke:#181818;stroke-width:1.0;" width="10" x="1138" y="660.0781"/><rect fill="#FFFFFF" height="37.2813" style="stroke:#181818;stroke-width:1.0;" width="10" x="1138" y="1446.2891"/><rect fill="none" height="159.0469" style="stroke:#000000;stroke-width:1.5;" width="1180.5" x="20" y="179.8594"/><rect fill="none" height="121.7656" style="stroke:#000000;stroke-width:1.5;" width="1180.5" x="20" y="464.75"/><rect fill="none" height="697.6484" style="stroke:#000000;stroke-width:1.5;" width="1200.5" x="10" y="675.0781"/><rect fill="none" height="196.3281" style="stroke:#000000;stroke-width:1.5;" width="1180.5" x="20" y="709.8203"/><rect fill="none" height="196.3281" style="stroke:#000000;stroke-width:1.5;" width="1180.5" x="20" y="939.6094"/><rect fill="none" height="196.3281" style="stroke:#000000;stroke-width:1.5;" width="1180.5" x="20" y="1169.3984"/><line style="stroke:#181818;stroke-width:0.5;stroke-dasharray:5.0,5.0;" x1="111" x2="111" y1="125.5781" y2="1501.5703"/><line style="stroke:#181818;stroke-width:0.5;stroke-dasharray:5.0,5.0;" x1="1142.5" x2="1142.5" y1="125.5781" y2="1501.5703"/><text fill="#000000" font-family="sans-serif" font-size="20" lengthAdjust="spacing" textLength="156" x="30" y="120.8613">Proprety Owner</text><ellipse cx="111" cy="50.7969" fill="#E2E2F0" rx="8" ry="8" style="stroke:#181818;stroke-width:0.5;"/><path d="M111,58.7969 L111,85.7969 M98,66.7969 L124,66.7969 M111,85.7969 L98,100.7969 M111,85.7969 L124,100.7969 " fill="none" style="stroke:#181818;stroke-width:0.5;"/><text fill="#000000" font-family="sans-serif" font-size="20" lengthAdjust="spacing" textLength="156" x="30" y="1519.1348">Proprety Owner</text><ellipse cx="111" cy="1532.3516" fill="#E2E2F0" rx="8" ry="8" style="stroke:#181818;stroke-width:0.5;"/><path d="M111,1540.3516 L111,1567.3516 M98,1548.3516 L124,1548.3516 M111,1567.3516 L98,1582.3516 M111,1567.3516 L124,1582.3516 " fill="none" style="stroke:#181818;stroke-width:0.5;"/><rect fill="#E2E2F0" height="37.2813" rx="2.5" ry="2.5" style="stroke:#181818;stroke-width:0.5;" width="95" x="1095.5" y="87.2969"/><text fill="#000000" font-family="sans-serif" font-size="20" lengthAdjust="spacing" textLength="81" x="1102.5" y="112.8613">:System</text><rect fill="#E2E2F0" height="37.2813" rx="2.5" ry="2.5" style="stroke:#181818;stroke-width:0.5;" width="95" x="1095.5" y="1500.5703"/><text fill="#000000" font-family="sans-serif" font-size="20" lengthAdjust="spacing" textLength="81" x="1102.5" y="1526.1348">:System</text><rect fill="#FFFFFF" height="1356.9922" style="stroke:#181818;stroke-width:1.0;" width="10" x="106" y="135.5781"/><rect fill="#FFFFFF" height="210.3281" style="stroke:#181818;stroke-width:1.0;" width="10" x="1138" y="164.8594"/><rect fill="#FFFFFF" height="37.2813" style="stroke:#181818;stroke-width:1.0;" width="10" x="1138" y="412.4688"/><rect fill="#FFFFFF" height="101.0234" style="stroke:#181818;stroke-width:1.0;" width="10" x="1138" y="521.7734"/><rect fill="#FFFFFF" height="748.9297" style="stroke:#181818;stroke-width:1.0;" width="10" x="1138" y="660.0781"/><rect fill="#FFFFFF" height="37.2813" style="stroke:#181818;stroke-width:1.0;" width="10" x="1138" y="1446.2891"/><polygon fill="#181818" points="1126,160.8594,1136,164.8594,1126,168.8594,1130,164.8594" style="stroke:#181818;stroke-width:1.0;"/><line style="stroke:#181818;stroke-width:1.0;" x1="116" x2="1132" y1="164.8594" y2="164.8594"/><text fill="#000000" font-family="sans-serif" font-size="20" font-weight="bold" lengthAdjust="spacing" textLength="14" x="123" y="158.1426">1</text><text fill="#000000" font-family="sans-serif" font-size="20" lengthAdjust="spacing" textLength="247" x="141" y="158.1426">asks to listing a property</text><path d="M20,179.8594 L96,179.8594 L96,195.1406 L86,205.1406 L20,205.1406 L20,179.8594 " fill="#EEEEEE" style="stroke:#000000;stroke-width:1.5;"/><rect fill="none" height="159.0469" style="stroke:#000000;stroke-width:1.5;" width="1180.5" x="20" y="179.8594"/><text fill="#008000" font-family="sans-serif" font-size="20" font-weight="bold" lengthAdjust="spacing" textLength="31" x="35" y="199.4238">alt</text><text fill="#0000FF" font-family="sans-serif" font-size="15" font-weight="bold" lengthAdjust="spacing" textLength="139" x="111" y="195.7827">[registered user]</text><polygon fill="#181818" points="127,232.8828,117,236.8828,127,240.8828,123,236.8828" style="stroke:#181818;stroke-width:1.0;"/><line style="stroke:#181818;stroke-width:1.0;stroke-dasharray:2.0,2.0;" x1="121" x2="1137" y1="236.8828" y2="236.8828"/><text fill="#000000" font-family="sans-serif" font-size="20" font-weight="bold" lengthAdjust="spacing" textLength="14" x="133" y="230.166">2</text><text fill="#000000" font-family="sans-serif" font-size="20" lengthAdjust="spacing" textLength="297" x="151" y="230.166">auto fills the user information</text><line style="stroke:#000000;stroke-width:1.0;stroke-dasharray:2.0,2.0;" x1="20" x2="1200.5" y1="245.8828" y2="245.8828"/><text fill="#0000FF" font-family="sans-serif" font-size="15" font-weight="bold" lengthAdjust="spacing" textLength="159" x="25" y="259.8062">[unregistered user]</text><polygon fill="#181818" points="127,289.625,117,293.625,127,297.625,123,293.625" style="stroke:#181818;stroke-width:1.0;"/><line style="stroke:#181818;stroke-width:1.0;stroke-dasharray:2.0,2.0;" x1="121" x2="1137" y1="293.625" y2="293.625"/><text fill="#000000" font-family="sans-serif" font-size="20" font-weight="bold" lengthAdjust="spacing" textLength="36" x="133" y="286.9082">2.1</text><text fill="#000000" font-family="sans-serif" font-size="20" lengthAdjust="spacing" textLength="952" x="173" y="286.9082">asks to users information (name, citizenCardNumber,taxNumber,address,email,phoneNumber)</text><polygon fill="#181818" points="1126,326.9063,1136,330.9063,1126,334.9063,1130,330.9063" style="stroke:#181818;stroke-width:1.0;"/><line style="stroke:#181818;stroke-width:1.0;" x1="116" x2="1132" y1="330.9063" y2="330.9063"/><text fill="#000000" font-family="sans-serif" font-size="20" font-weight="bold" lengthAdjust="spacing" textLength="36" x="123" y="324.1895">2.2</text><text fill="#000000" font-family="sans-serif" font-size="20" lengthAdjust="spacing" textLength="251" x="163" y="324.1895">types the requested data</text><polygon fill="#181818" points="127,371.1875,117,375.1875,127,379.1875,123,375.1875" style="stroke:#181818;stroke-width:1.0;"/><line style="stroke:#181818;stroke-width:1.0;stroke-dasharray:2.0,2.0;" x1="121" x2="1142" y1="375.1875" y2="375.1875"/><text fill="#000000" font-family="sans-serif" font-size="20" font-weight="bold" lengthAdjust="spacing" textLength="14" x="133" y="368.4707">3</text><text fill="#000000" font-family="sans-serif" font-size="20" lengthAdjust="spacing" textLength="581" x="151" y="368.4707">shows the list of agencies available and asks to select one</text><polygon fill="#181818" points="1126,408.4688,1136,412.4688,1126,416.4688,1130,412.4688" style="stroke:#181818;stroke-width:1.0;"/><line style="stroke:#181818;stroke-width:1.0;" x1="116" x2="1132" y1="412.4688" y2="412.4688"/><text fill="#000000" font-family="sans-serif" font-size="20" font-weight="bold" lengthAdjust="spacing" textLength="14" x="123" y="405.752">4</text><text fill="#000000" font-family="sans-serif" font-size="20" lengthAdjust="spacing" textLength="165" x="141" y="405.752">selects a agency</text><polygon fill="#181818" points="127,445.75,117,449.75,127,453.75,123,449.75" style="stroke:#181818;stroke-width:1.0;"/><line style="stroke:#181818;stroke-width:1.0;stroke-dasharray:2.0,2.0;" x1="121" x2="1142" y1="449.75" y2="449.75"/><text fill="#000000" font-family="sans-serif" font-size="20" font-weight="bold" lengthAdjust="spacing" textLength="14" x="133" y="443.0332">5</text><text fill="#000000" font-family="sans-serif" font-size="20" lengthAdjust="spacing" textLength="980" x="151" y="443.0332">shows the list of agents available and asks to select one or use a feature to select a random agent</text><path d="M20,464.75 L96,464.75 L96,480.0313 L86,490.0313 L20,490.0313 L20,464.75 " fill="#EEEEEE" style="stroke:#000000;stroke-width:1.5;"/><rect fill="none" height="121.7656" style="stroke:#000000;stroke-width:1.5;" width="1180.5" x="20" y="464.75"/><text fill="#008000" font-family="sans-serif" font-size="20" font-weight="bold" lengthAdjust="spacing" textLength="31" x="35" y="484.3145">alt</text><text fill="#0000FF" font-family="sans-serif" font-size="15" font-weight="bold" lengthAdjust="spacing" textLength="132" x="111" y="480.6733">[Select a agent]</text><polygon fill="#181818" points="1126,517.7734,1136,521.7734,1126,525.7734,1130,521.7734" style="stroke:#181818;stroke-width:1.0;"/><line style="stroke:#181818;stroke-width:1.0;" x1="116" x2="1132" y1="521.7734" y2="521.7734"/><text fill="#000000" font-family="sans-serif" font-size="20" font-weight="bold" lengthAdjust="spacing" textLength="14" x="123" y="515.0566">6</text><text fill="#000000" font-family="sans-serif" font-size="20" lengthAdjust="spacing" textLength="151" x="141" y="515.0566">selects a agent</text><line style="stroke:#000000;stroke-width:1.0;stroke-dasharray:2.0,2.0;" x1="20" x2="1200.5" y1="530.7734" y2="530.7734"/><text fill="#0000FF" font-family="sans-serif" font-size="15" font-weight="bold" lengthAdjust="spacing" textLength="143" x="25" y="544.6968">[random feature]</text><polygon fill="#181818" points="1126,574.5156,1136,578.5156,1126,582.5156,1130,578.5156" style="stroke:#181818;stroke-width:1.0;"/><line style="stroke:#181818;stroke-width:1.0;" x1="116" x2="1132" y1="578.5156" y2="578.5156"/><text fill="#000000" font-family="sans-serif" font-size="20" font-weight="bold" lengthAdjust="spacing" textLength="14" x="123" y="571.7988">7</text><text fill="#000000" font-family="sans-serif" font-size="20" lengthAdjust="spacing" textLength="272" x="141" y="571.7988">randomly assing one agent</text><polygon fill="#181818" points="127,618.7969,117,622.7969,127,626.7969,123,622.7969" style="stroke:#181818;stroke-width:1.0;"/><line style="stroke:#181818;stroke-width:1.0;stroke-dasharray:2.0,2.0;" x1="121" x2="1142" y1="622.7969" y2="622.7969"/><text fill="#000000" font-family="sans-serif" font-size="20" font-weight="bold" lengthAdjust="spacing" textLength="14" x="133" y="616.0801">8</text><text fill="#000000" font-family="sans-serif" font-size="20" lengthAdjust="spacing" textLength="826" x="151" y="616.0801">requests the property type (house,apartment,land) and business type (sell or rent)</text><polygon fill="#181818" points="1126,656.0781,1136,660.0781,1126,664.0781,1130,660.0781" style="stroke:#181818;stroke-width:1.0;"/><line style="stroke:#181818;stroke-width:1.0;" x1="116" x2="1132" y1="660.0781" y2="660.0781"/><text fill="#000000" font-family="sans-serif" font-size="20" font-weight="bold" lengthAdjust="spacing" textLength="14" x="123" y="653.3613">9</text><text fill="#000000" font-family="sans-serif" font-size="20" lengthAdjust="spacing" textLength="251" x="141" y="653.3613">types the requested data</text><path d="M10,675.0781 L86,675.0781 L86,690.3594 L76,700.3594 L10,700.3594 L10,675.0781 " fill="#EEEEEE" style="stroke:#000000;stroke-width:1.5;"/><rect fill="none" height="697.6484" style="stroke:#000000;stroke-width:1.5;" width="1200.5" x="10" y="675.0781"/><text fill="#008000" font-family="sans-serif" font-size="20" font-weight="bold" lengthAdjust="spacing" textLength="31" x="25" y="694.6426">alt</text><text fill="#0000FF" font-family="sans-serif" font-size="15" font-weight="bold" lengthAdjust="spacing" textLength="48" x="101" y="691.0015">[land]</text><path d="M20,709.8203 L96,709.8203 L96,725.1016 L86,735.1016 L20,735.1016 L20,709.8203 " fill="#EEEEEE" style="stroke:#000000;stroke-width:1.5;"/><rect fill="none" height="196.3281" style="stroke:#000000;stroke-width:1.5;" width="1180.5" x="20" y="709.8203"/><text fill="#008000" font-family="sans-serif" font-size="20" font-weight="bold" lengthAdjust="spacing" textLength="31" x="35" y="729.3848">alt</text><text fill="#0000FF" font-family="sans-serif" font-size="15" font-weight="bold" lengthAdjust="spacing" textLength="41" x="111" y="725.7437">[sell]</text><polygon fill="#181818" points="127,762.8438,117,766.8438,127,770.8438,123,766.8438" style="stroke:#181818;stroke-width:1.0;"/><line style="stroke:#181818;stroke-width:1.0;stroke-dasharray:2.0,2.0;" x1="121" x2="1137" y1="766.8438" y2="766.8438"/><text fill="#000000" font-family="sans-serif" font-size="20" font-weight="bold" lengthAdjust="spacing" textLength="14" x="133" y="760.127">9</text><text fill="#000000" font-family="sans-serif" font-size="20" lengthAdjust="spacing" textLength="317" x="151" y="760.127">request the land characteristics</text><polygon fill="#181818" points="1126,800.125,1136,804.125,1126,808.125,1130,804.125" style="stroke:#181818;stroke-width:1.0;"/><line style="stroke:#181818;stroke-width:1.0;" x1="116" x2="1132" y1="804.125" y2="804.125"/><text fill="#000000" font-family="sans-serif" font-size="20" font-weight="bold" lengthAdjust="spacing" textLength="28" x="123" y="797.4082">10</text><text fill="#000000" font-family="sans-serif" font-size="20" lengthAdjust="spacing" textLength="212" x="155" y="797.4082">types requested data</text><line style="stroke:#000000;stroke-width:1.0;stroke-dasharray:2.0,2.0;" x1="20" x2="1200.5" y1="813.125" y2="813.125"/><text fill="#0000FF" font-family="sans-serif" font-size="15" font-weight="bold" lengthAdjust="spacing" textLength="48" x="25" y="827.0483">[rent]</text><polygon fill="#181818" points="127,856.8672,117,860.8672,127,864.8672,123,860.8672" style="stroke:#181818;stroke-width:1.0;"/><line style="stroke:#181818;stroke-width:1.0;stroke-dasharray:2.0,2.0;" x1="121" x2="1137" y1="860.8672" y2="860.8672"/><text fill="#000000" font-family="sans-serif" font-size="20" font-weight="bold" lengthAdjust="spacing" textLength="14" x="133" y="854.1504">9</text><text fill="#000000" font-family="sans-serif" font-size="20" lengthAdjust="spacing" textLength="580" x="151" y="854.1504">request the land characteristics and the contract duration</text><polygon fill="#181818" points="1126,894.1484,1136,898.1484,1126,902.1484,1130,898.1484" style="stroke:#181818;stroke-width:1.0;"/><line style="stroke:#181818;stroke-width:1.0;" x1="116" x2="1132" y1="898.1484" y2="898.1484"/><text fill="#000000" font-family="sans-serif" font-size="20" font-weight="bold" lengthAdjust="spacing" textLength="28" x="123" y="891.4316">10</text><text fill="#000000" font-family="sans-serif" font-size="20" lengthAdjust="spacing" textLength="212" x="155" y="891.4316">types requested data</text><line style="stroke:#000000;stroke-width:1.0;stroke-dasharray:2.0,2.0;" x1="10" x2="1210.5" y1="914.1484" y2="914.1484"/><text fill="#0000FF" font-family="sans-serif" font-size="15" font-weight="bold" lengthAdjust="spacing" textLength="101" x="15" y="928.0718">[apartment]</text><path d="M20,939.6094 L96,939.6094 L96,954.8906 L86,964.8906 L20,964.8906 L20,939.6094 " fill="#EEEEEE" style="stroke:#000000;stroke-width:1.5;"/><rect fill="none" height="196.3281" style="stroke:#000000;stroke-width:1.5;" width="1180.5" x="20" y="939.6094"/><text fill="#008000" font-family="sans-serif" font-size="20" font-weight="bold" lengthAdjust="spacing" textLength="31" x="35" y="959.1738">alt</text><text fill="#0000FF" font-family="sans-serif" font-size="15" font-weight="bold" lengthAdjust="spacing" textLength="41" x="111" y="955.5327">[sell]</text><polygon fill="#181818" points="127,992.6328,117,996.6328,127,1000.6328,123,996.6328" style="stroke:#181818;stroke-width:1.0;"/><line style="stroke:#181818;stroke-width:1.0;stroke-dasharray:2.0,2.0;" x1="121" x2="1137" y1="996.6328" y2="996.6328"/><text fill="#000000" font-family="sans-serif" font-size="20" font-weight="bold" lengthAdjust="spacing" textLength="14" x="133" y="989.916">9</text><text fill="#000000" font-family="sans-serif" font-size="20" lengthAdjust="spacing" textLength="379" x="151" y="989.916">request the apartment characteristics</text><polygon fill="#181818" points="1126,1029.9141,1136,1033.9141,1126,1037.9141,1130,1033.9141" style="stroke:#181818;stroke-width:1.0;"/><line style="stroke:#181818;stroke-width:1.0;" x1="116" x2="1132" y1="1033.9141" y2="1033.9141"/><text fill="#000000" font-family="sans-serif" font-size="20" font-weight="bold" lengthAdjust="spacing" textLength="28" x="123" y="1027.1973">10</text><text fill="#000000" font-family="sans-serif" font-size="20" lengthAdjust="spacing" textLength="212" x="155" y="1027.1973">types requested data</text><line style="stroke:#000000;stroke-width:1.0;stroke-dasharray:2.0,2.0;" x1="20" x2="1200.5" y1="1042.9141" y2="1042.9141"/><text fill="#0000FF" font-family="sans-serif" font-size="15" font-weight="bold" lengthAdjust="spacing" textLength="48" x="25" y="1056.8374">[rent]</text><polygon fill="#181818" points="127,1086.6563,117,1090.6563,127,1094.6563,123,1090.6563" style="stroke:#181818;stroke-width:1.0;"/><line style="stroke:#181818;stroke-width:1.0;stroke-dasharray:2.0,2.0;" x1="121" x2="1137" y1="1090.6563" y2="1090.6563"/><text fill="#000000" font-family="sans-serif" font-size="20" font-weight="bold" lengthAdjust="spacing" textLength="14" x="133" y="1083.9395">9</text><text fill="#000000" font-family="sans-serif" font-size="20" lengthAdjust="spacing" textLength="642" x="151" y="1083.9395">request the apartment characteristics and the contract duration</text><polygon fill="#181818" points="1126,1123.9375,1136,1127.9375,1126,1131.9375,1130,1127.9375" style="stroke:#181818;stroke-width:1.0;"/><line style="stroke:#181818;stroke-width:1.0;" x1="116" x2="1132" y1="1127.9375" y2="1127.9375"/><text fill="#000000" font-family="sans-serif" font-size="20" font-weight="bold" lengthAdjust="spacing" textLength="28" x="123" y="1121.2207">10</text><text fill="#000000" font-family="sans-serif" font-size="20" lengthAdjust="spacing" textLength="212" x="155" y="1121.2207">types requested data</text><line style="stroke:#000000;stroke-width:1.0;stroke-dasharray:2.0,2.0;" x1="10" x2="1210.5" y1="1143.9375" y2="1143.9375"/><text fill="#0000FF" font-family="sans-serif" font-size="15" font-weight="bold" lengthAdjust="spacing" textLength="63" x="15" y="1157.8608">[house]</text><path d="M20,1169.3984 L96,1169.3984 L96,1184.6797 L86,1194.6797 L20,1194.6797 L20,1169.3984 " fill="#EEEEEE" style="stroke:#000000;stroke-width:1.5;"/><rect fill="none" height="196.3281" style="stroke:#000000;stroke-width:1.5;" width="1180.5" x="20" y="1169.3984"/><text fill="#008000" font-family="sans-serif" font-size="20" font-weight="bold" lengthAdjust="spacing" textLength="31" x="35" y="1188.9629">alt</text><text fill="#0000FF" font-family="sans-serif" font-size="15" font-weight="bold" lengthAdjust="spacing" textLength="41" x="111" y="1185.3218">[sell]</text><polygon fill="#181818" points="127,1222.4219,117,1226.4219,127,1230.4219,123,1226.4219" style="stroke:#181818;stroke-width:1.0;"/><line style="stroke:#181818;stroke-width:1.0;stroke-dasharray:2.0,2.0;" x1="121" x2="1137" y1="1226.4219" y2="1226.4219"/><text fill="#000000" font-family="sans-serif" font-size="20" font-weight="bold" lengthAdjust="spacing" textLength="14" x="133" y="1219.7051">9</text><text fill="#000000" font-family="sans-serif" font-size="20" lengthAdjust="spacing" textLength="333" x="151" y="1219.7051">request the house characteristics</text><polygon fill="#181818" points="1126,1259.7031,1136,1263.7031,1126,1267.7031,1130,1263.7031" style="stroke:#181818;stroke-width:1.0;"/><line style="stroke:#181818;stroke-width:1.0;" x1="116" x2="1132" y1="1263.7031" y2="1263.7031"/><text fill="#000000" font-family="sans-serif" font-size="20" font-weight="bold" lengthAdjust="spacing" textLength="28" x="123" y="1256.9863">10</text><text fill="#000000" font-family="sans-serif" font-size="20" lengthAdjust="spacing" textLength="212" x="155" y="1256.9863">types requested data</text><line style="stroke:#000000;stroke-width:1.0;stroke-dasharray:2.0,2.0;" x1="20" x2="1200.5" y1="1272.7031" y2="1272.7031"/><text fill="#0000FF" font-family="sans-serif" font-size="15" font-weight="bold" lengthAdjust="spacing" textLength="48" x="25" y="1286.6265">[rent]</text><polygon fill="#181818" points="127,1316.4453,117,1320.4453,127,1324.4453,123,1320.4453" style="stroke:#181818;stroke-width:1.0;"/><line style="stroke:#181818;stroke-width:1.0;stroke-dasharray:2.0,2.0;" x1="121" x2="1137" y1="1320.4453" y2="1320.4453"/><text fill="#000000" font-family="sans-serif" font-size="20" font-weight="bold" lengthAdjust="spacing" textLength="14" x="133" y="1313.7285">9</text><text fill="#000000" font-family="sans-serif" font-size="20" lengthAdjust="spacing" textLength="596" x="151" y="1313.7285">request the house characteristics and the contract duration</text><polygon fill="#181818" points="1126,1353.7266,1136,1357.7266,1126,1361.7266,1130,1357.7266" style="stroke:#181818;stroke-width:1.0;"/><line style="stroke:#181818;stroke-width:1.0;" x1="116" x2="1132" y1="1357.7266" y2="1357.7266"/><text fill="#000000" font-family="sans-serif" font-size="20" font-weight="bold" lengthAdjust="spacing" textLength="28" x="123" y="1351.0098">10</text><text fill="#000000" font-family="sans-serif" font-size="20" lengthAdjust="spacing" textLength="212" x="155" y="1351.0098">types requested data</text><polygon fill="#181818" points="127,1405.0078,117,1409.0078,127,1413.0078,123,1409.0078" style="stroke:#181818;stroke-width:1.0;"/><line style="stroke:#181818;stroke-width:1.0;stroke-dasharray:2.0,2.0;" x1="121" x2="1142" y1="1409.0078" y2="1409.0078"/><text fill="#000000" font-family="sans-serif" font-size="20" font-weight="bold" lengthAdjust="spacing" textLength="28" x="133" y="1402.291">11</text><text fill="#000000" font-family="sans-serif" font-size="20" lengthAdjust="spacing" textLength="406" x="165" y="1402.291">shows the data and asks to confirmation</text><polygon fill="#181818" points="1126,1442.2891,1136,1446.2891,1126,1450.2891,1130,1446.2891" style="stroke:#181818;stroke-width:1.0;"/><line style="stroke:#181818;stroke-width:1.0;" x1="116" x2="1132" y1="1446.2891" y2="1446.2891"/><text fill="#000000" font-family="sans-serif" font-size="20" font-weight="bold" lengthAdjust="spacing" textLength="28" x="123" y="1439.5723">12</text><text fill="#000000" font-family="sans-serif" font-size="20" lengthAdjust="spacing" textLength="177" x="155" y="1439.5723">confirms the data</text><polygon fill="#181818" points="127,1479.5703,117,1483.5703,127,1487.5703,123,1483.5703" style="stroke:#181818;stroke-width:1.0;"/><line style="stroke:#181818;stroke-width:1.0;stroke-dasharray:2.0,2.0;" x1="121" x2="1142" y1="1483.5703" y2="1483.5703"/><text fill="#000000" font-family="sans-serif" font-size="20" font-weight="bold" lengthAdjust="spacing" textLength="28" x="133" y="1476.8535">13</text><text fill="#000000" font-family="sans-serif" font-size="20" lengthAdjust="spacing" textLength="268" x="165" y="1476.8535">Displays operation success</text><!--SRC=[lLPDRzim3BtxLn2zf07IOUcmmteOKBJeTkaI8B-0aUb4Y2nvajpM-_MZ93jnqhWVGxeS0aSY7zyZd-IuZTGLMYoL4HlA8QS2Q-NlZFOB-OVWydFckX0eZJPYRKr9KA1orDkgK6nmHGlVA09BmgDUgNw0MsDk7gLUjQcPbvv35utpLCA2VjUa1S6jn5K8FryiRiTm0TVAazNevGF1J7FQ2Euavxd6gm362wXyzxDNhqFyOKrT_IJCoGPHDqOP2ojBf8U2Ts5BLTDBKR53qw_Pw5xcEPFozCHKk0M1ogYdlKsy9-UuITTAhZG8qYpjrR1SXcvAepEilT5rkUIa38LdVcTpQofBle7PeoPx1kXWFiiWOpmlXQnGUpYxIZsEk-anvii7z1J3syzy1XVVku5SSVJ6WJUWfFEXqmWLLoFhcvYnHMWXunfFmjAA4yYobsh7L3lq5lU2It0XXcSrK4YbkCYQOYn8NHXRObGR4ucT0hKUmjnr12u_JOTBjKf2hkiNWNED9Kr0IC-Jr3TeyryHRkBngNt2FBSyZmcLADMaMXjDQMSyr3ZVL9H4sJ1GNkLZXHwJ8ftpTtR0_iiWTxSsZmaip05C0UmCBIHNm0TcX4ls7J9e9zAHOhy0quoOEHqEQeXsIcJOLE7ubD_9qx_E4jZ7F1WkMn3wsb9l6y5oaYaJre2UpdYBBcSN_2Qbkz1ZoD61BOkMu4lGAL8rBDI5GnC4xehmy8Sxs9ebDR4xQj5CSBustA89XcDTCjX4SPbnREYovZhippQGfQdGKSjHutSQu4NV7WNP8eramVSURvTx_UIf1APx3OktDRFSMpmu3j-URQQgtAj-gvBTGXV4cYzGmJT4kAk4WsVvHwKUaTd_x2qa7nmQwzIymrhO5Fno2HkGrpPTX_yYQ5z0ttjHpTPE7pgVRPNdGpg1g5DFPPZjy6XECvizIV6yV-XOOeL3aQUS27meq_ytZjvpJy1q-eOtOK3UU-insK9sVt3UTpctgJlWuLjvT2SrAfYpamT9tafNAMmSXDTC-Y_aQY7uHJB0woy0]--></g></svg>