<?xml version="1.0" encoding="UTF-8" standalone="no"?><svg xmlns="http://www.w3.org/2000/svg" xmlns:xlink="http://www.w3.org/1999/xlink" contentStyleType="text/css" height="677px" preserveAspectRatio="none" style="width:1210px;height:677px;background:#FFFFFF;" version="1.1" viewBox="0 0 1210 677" width="1210px" zoomAndPan="magnify"><defs/><g><text fill="#000000" font-family="sans-serif" font-size="14" font-weight="bold" lengthAdjust="spacing" textLength="259" x="479" y="27.9951">System Sequence Diagram (SSD)</text><rect fill="#FFFFFF" height="37.2813" style="stroke:#181818;stroke-width:1.0;" width="10" x="591.5" y="164.8594"/><rect fill="#FFFFFF" height="72.0234" style="stroke:#181818;stroke-width:1.0;" width="10" x="591.5" y="239.4219"/><rect fill="#FFFFFF" height="141.5859" style="stroke:#181818;stroke-width:1.0;" width="10" x="591.5" y="348.7266"/><rect fill="#FFFFFF" height="46.2813" style="stroke:#181818;stroke-width:1.0;" width="10" x="591.5" y="534.5938"/><rect fill="none" height="102.3047" style="stroke:#000000;stroke-width:1.5;" width="644" x="10" y="254.4219"/><rect fill="none" height="127.5859" style="stroke:#000000;stroke-width:1.5;" width="644" x="10" y="370.7266"/><line style="stroke:#181818;stroke-width:0.5;stroke-dasharray:5.0,5.0;" x1="52" x2="52" y1="125.5781" y2="589.875"/><line style="stroke:#181818;stroke-width:0.5;stroke-dasharray:5.0,5.0;" x1="596" x2="596" y1="125.5781" y2="589.875"/><text fill="#000000" font-family="sans-serif" font-size="20" lengthAdjust="spacing" textLength="59" x="20" y="120.8613">Client</text><ellipse cx="52.5" cy="50.7969" fill="#90EE90" rx="8" ry="8" style="stroke:#181818;stroke-width:0.5;"/><path d="M52.5,58.7969 L52.5,85.7969 M39.5,66.7969 L65.5,66.7969 M52.5,85.7969 L39.5,100.7969 M52.5,85.7969 L65.5,100.7969 " fill="none" style="stroke:#181818;stroke-width:0.5;"/><text fill="#000000" font-family="sans-serif" font-size="20" lengthAdjust="spacing" textLength="59" x="20" y="607.4395">Client</text><ellipse cx="52.5" cy="620.6563" fill="#90EE90" rx="8" ry="8" style="stroke:#181818;stroke-width:0.5;"/><path d="M52.5,628.6563 L52.5,655.6563 M39.5,636.6563 L65.5,636.6563 M52.5,655.6563 L39.5,670.6563 M52.5,655.6563 L65.5,670.6563 " fill="none" style="stroke:#181818;stroke-width:0.5;"/><rect fill="#E2E2F0" height="37.2813" rx="2.5" ry="2.5" style="stroke:#181818;stroke-width:0.5;" width="95" x="549" y="87.2969"/><text fill="#000000" font-family="sans-serif" font-size="20" lengthAdjust="spacing" textLength="81" x="556" y="112.8613">:System</text><rect fill="#E2E2F0" height="37.2813" rx="2.5" ry="2.5" style="stroke:#181818;stroke-width:0.5;" width="95" x="549" y="588.875"/><text fill="#000000" font-family="sans-serif" font-size="20" lengthAdjust="spacing" textLength="81" x="556" y="614.4395">:System</text><rect fill="#FFFFFF" height="37.2813" style="stroke:#181818;stroke-width:1.0;" width="10" x="591.5" y="164.8594"/><rect fill="#FFFFFF" height="72.0234" style="stroke:#181818;stroke-width:1.0;" width="10" x="591.5" y="239.4219"/><rect fill="#FFFFFF" height="141.5859" style="stroke:#181818;stroke-width:1.0;" width="10" x="591.5" y="348.7266"/><rect fill="#FFFFFF" height="46.2813" style="stroke:#181818;stroke-width:1.0;" width="10" x="591.5" y="534.5938"/><polygon fill="#181818" points="579.5,160.8594,589.5,164.8594,579.5,168.8594,583.5,164.8594" style="stroke:#181818;stroke-width:1.0;"/><line style="stroke:#181818;stroke-width:1.0;" x1="52.5" x2="585.5" y1="164.8594" y2="164.8594"/><text fill="#000000" font-family="sans-serif" font-size="20" font-weight="bold" lengthAdjust="spacing" textLength="14" x="59.5" y="158.1426">1</text><text fill="#000000" font-family="sans-serif" font-size="20" lengthAdjust="spacing" textLength="277" x="77.5" y="158.1426">asks to purchase a property</text><polygon fill="#181818" points="63.5,198.1406,53.5,202.1406,63.5,206.1406,59.5,202.1406" style="stroke:#181818;stroke-width:1.0;"/><line style="stroke:#181818;stroke-width:1.0;stroke-dasharray:2.0,2.0;" x1="57.5" x2="595.5" y1="202.1406" y2="202.1406"/><text fill="#000000" font-family="sans-serif" font-size="20" font-weight="bold" lengthAdjust="spacing" textLength="14" x="69.5" y="195.4238">2</text><text fill="#000000" font-family="sans-serif" font-size="20" lengthAdjust="spacing" textLength="478" x="87.5" y="195.4238">shows all announcements and ask to select one</text><polygon fill="#181818" points="579.5,235.4219,589.5,239.4219,579.5,243.4219,583.5,239.4219" style="stroke:#181818;stroke-width:1.0;"/><line style="stroke:#181818;stroke-width:1.0;" x1="52.5" x2="585.5" y1="239.4219" y2="239.4219"/><text fill="#000000" font-family="sans-serif" font-size="20" font-weight="bold" lengthAdjust="spacing" textLength="14" x="59.5" y="232.7051">3</text><text fill="#000000" font-family="sans-serif" font-size="20" lengthAdjust="spacing" textLength="258" x="77.5" y="232.7051">selects an announcement</text><path d="M10,254.4219 L104,254.4219 L104,269.7031 L94,279.7031 L10,279.7031 L10,254.4219 " fill="#EEEEEE" style="stroke:#000000;stroke-width:1.5;"/><rect fill="none" height="102.3047" style="stroke:#000000;stroke-width:1.5;" width="644" x="10" y="254.4219"/><text fill="#008000" font-family="sans-serif" font-size="20" font-weight="bold" lengthAdjust="spacing" textLength="49" x="25" y="273.9863">loop</text><text fill="#0000FF" font-family="sans-serif" font-size="15" font-weight="bold" lengthAdjust="spacing" textLength="369" x="119" y="270.3452">[While  requestPrice &lt;= advertisementPrice]</text><path d="M659,259.4219 L659,408.4219 L1203,408.4219 L1203,269.4219 L1193,259.4219 L659,259.4219 " fill="#FEFFDD" style="stroke:#181818;stroke-width:0.5;"/><path d="M1193,259.4219 L1193,269.4219 L1203,269.4219 L1193,259.4219 " fill="#FEFFDD" style="stroke:#181818;stroke-width:0.5;"/><text fill="#000000" font-family="sans-serif" font-size="20" lengthAdjust="spacing" textLength="475" x="665" y="282.9863">-&gt; the request price, need to be lower or equal,</text><text fill="#000000" font-family="sans-serif" font-size="20" lengthAdjust="spacing" textLength="266" x="683" y="306.2676">to the advertisement price</text><text fill="#000000" font-family="sans-serif" font-size="20" lengthAdjust="spacing" textLength="6" x="665" y="329.5488"> </text><text fill="#000000" font-family="sans-serif" font-size="20" lengthAdjust="spacing" textLength="496" x="665" y="352.8301">-&gt; if the requested price has already been posted</text><text fill="#000000" font-family="sans-serif" font-size="20" lengthAdjust="spacing" textLength="497" x="683" y="376.1113">by other user, the system must state that and the</text><text fill="#000000" font-family="sans-serif" font-size="20" lengthAdjust="spacing" textLength="505" x="683" y="399.3926">order placed previously should be considered first.</text><polygon fill="#181818" points="63.5,307.4453,53.5,311.4453,63.5,315.4453,59.5,311.4453" style="stroke:#181818;stroke-width:1.0;"/><line style="stroke:#181818;stroke-width:1.0;stroke-dasharray:2.0,2.0;" x1="57.5" x2="595.5" y1="311.4453" y2="311.4453"/><text fill="#000000" font-family="sans-serif" font-size="20" font-weight="bold" lengthAdjust="spacing" textLength="14" x="69.5" y="304.7285">4</text><text fill="#000000" font-family="sans-serif" font-size="20" lengthAdjust="spacing" textLength="181" x="87.5" y="304.7285">requests the price</text><polygon fill="#181818" points="579.5,344.7266,589.5,348.7266,579.5,352.7266,583.5,348.7266" style="stroke:#181818;stroke-width:1.0;"/><line style="stroke:#181818;stroke-width:1.0;" x1="52.5" x2="585.5" y1="348.7266" y2="348.7266"/><text fill="#000000" font-family="sans-serif" font-size="20" font-weight="bold" lengthAdjust="spacing" textLength="14" x="59.5" y="342.0098">5</text><text fill="#000000" font-family="sans-serif" font-size="20" lengthAdjust="spacing" textLength="105" x="77.5" y="342.0098">types data</text><path d="M10,370.7266 L86,370.7266 L86,386.0078 L76,396.0078 L10,396.0078 L10,370.7266 " fill="#EEEEEE" style="stroke:#000000;stroke-width:1.5;"/><rect fill="none" height="127.5859" style="stroke:#000000;stroke-width:1.5;" width="644" x="10" y="370.7266"/><text fill="#008000" font-family="sans-serif" font-size="20" font-weight="bold" lengthAdjust="spacing" textLength="31" x="25" y="390.291">alt</text><text fill="#0000FF" font-family="sans-serif" font-size="15" font-weight="bold" lengthAdjust="spacing" textLength="310" x="101" y="386.6499">[if requestPrice = other requestPrice]</text><polygon fill="#181818" points="63.5,447.0313,53.5,451.0313,63.5,455.0313,59.5,451.0313" style="stroke:#181818;stroke-width:1.0;"/><line style="stroke:#181818;stroke-width:1.0;stroke-dasharray:2.0,2.0;" x1="57.5" x2="590.5" y1="451.0313" y2="451.0313"/><text fill="#000000" font-family="sans-serif" font-size="20" font-weight="bold" lengthAdjust="spacing" textLength="36" x="69.5" y="432.6738">6.1</text><text fill="#000000" font-family="sans-serif" font-size="20" lengthAdjust="spacing" textLength="461" x="109.5" y="421.0332">displays that there is already an order request</text><text fill="#000000" font-family="sans-serif" font-size="20" lengthAdjust="spacing" textLength="469" x="115.5" y="444.3145">with the same price and requests confirmation</text><line style="stroke:#000000;stroke-width:1.0;stroke-dasharray:2.0,2.0;" x1="10" x2="654" y1="460.0313" y2="460.0313"/><polygon fill="#181818" points="63.5,486.3125,53.5,490.3125,63.5,494.3125,59.5,490.3125" style="stroke:#181818;stroke-width:1.0;"/><line style="stroke:#181818;stroke-width:1.0;stroke-dasharray:2.0,2.0;" x1="57.5" x2="595.5" y1="490.3125" y2="490.3125"/><text fill="#000000" font-family="sans-serif" font-size="20" font-weight="bold" lengthAdjust="spacing" textLength="36" x="69.5" y="483.5957">6.2</text><text fill="#000000" font-family="sans-serif" font-size="20" lengthAdjust="spacing" textLength="400" x="109.5" y="483.5957">shows all data and requests cofirmation</text><polygon fill="#181818" points="579.5,530.5938,589.5,534.5938,579.5,538.5938,583.5,534.5938" style="stroke:#181818;stroke-width:1.0;"/><line style="stroke:#181818;stroke-width:1.0;" x1="52.5" x2="585.5" y1="534.5938" y2="534.5938"/><text fill="#000000" font-family="sans-serif" font-size="20" font-weight="bold" lengthAdjust="spacing" textLength="14" x="59.5" y="527.877">7</text><text fill="#000000" font-family="sans-serif" font-size="20" lengthAdjust="spacing" textLength="177" x="77.5" y="527.877">confirms the data</text><polygon fill="#181818" points="63.5,567.875,53.5,571.875,63.5,575.875,59.5,571.875" style="stroke:#181818;stroke-width:1.0;"/><line style="stroke:#181818;stroke-width:1.0;stroke-dasharray:2.0,2.0;" x1="57.5" x2="590.5" y1="571.875" y2="571.875"/><text fill="#000000" font-family="sans-serif" font-size="20" font-weight="bold" lengthAdjust="spacing" textLength="14" x="69.5" y="565.1582">8</text><text fill="#000000" font-family="sans-serif" font-size="20" lengthAdjust="spacing" textLength="250" x="87.5" y="565.1582">informs operation sucess</text><!--SRC=[XLJ1RjGm4BtdAqRbK93QYY81KaMHKAkM0vMGzi2bbzbuDh7MiOCzxXA-dh6TfBkGfNlPn7xp_DxuJS9MsnuzTiRLMrAWQ8FHy9splDA_2TwzhS84WSvPLxVUTGGRD87sjdgijzZGYWT3uAbcj8tP1uGMbTjfsuob5MiMw6e8J1siw6SaMnFSQcmI_FLgTVkcgaxXJWig36oaLDxHyFpsJ3wLttiN-w-4YdnoSEECyz1u8diC_0nRcqZ_G-LsNBwlJX-qKgA9wPT84Rz9okcUqR7mWKAGZdmnkh5GasNoByAKJgtJpbOOsTdOhQMemff5tycDqS9o0XYWFCAhRxff-Jxx4rRMjUvHra-kIbipjZnM5SXlh3l_FFNzIX3R0EoWZxvkCH0WzDxrv7d89NAuVaAURYglZSNdmZCoNidzkbq0D0RGMXV5MISRic9LEYCT4SY8Et2MCekY9Uu5YQKkKHrmmr5znhaUVhGfEP95wNFWxrvBkZvT0wedyQP3fiYhfJN7V8trqgEMf3C9Fy7_DJ1lBRZWeQS02Xbdr99siYh_MoVhFjrlWGjLKZ3AAKhEm9BChBHsJM9wHnuaA890SpOV8hkfyC3tQ6HcrfjzSg7C-o1va1lrCa-3d40MUfTsP-hr04xgFCH0_YnJX6AtYo4DH_B6BN9EGTgUIvsN6ONUO9rFeoVjOZ13Yb4qAlcfdGrQGBA_qJxmnTIUt9foz_EGm8UBox8atmTnSt3hrwFA_SNgQ92L3Y9h24LuAYJGptsG41Rj8zkZXPtcjfZ7Rin8DZn7Hwo8XGxpPATpYvNq6Nnvd59Y_gOxP5iUf2b8UqtwU6p2He4bv7D45zEz95RRZKlLwREHPK68jNpNgkeF]--></g></svg>