<?xml version="1.0" encoding="UTF-8" standalone="no"?><svg xmlns="http://www.w3.org/2000/svg" xmlns:xlink="http://www.w3.org/1999/xlink" contentStyleType="text/css" height="2824px" preserveAspectRatio="none" style="width:1474px;height:2824px;background:#FFFFFF;" version="1.1" viewBox="0 0 1474 2824" width="1474px" zoomAndPan="magnify"><defs/><g><!--cluster System--><g id="cluster_System"><rect fill="none" height="2811" rx="2.5" ry="2.5" style="stroke:#181818;stroke-width:1.0;" width="1230" x="238" y="7"/><text fill="#000000" font-family="sans-serif" font-size="20" font-weight="bold" lengthAdjust="spacing" textLength="70" x="818" y="29.7617">System</text></g><g id="elem_UC1"><ellipse cx="852.7695" cy="2175.8539" fill="#F1F1F1" rx="162.2695" ry="34.8539" style="stroke:#181818;stroke-width:0.5;"/><text fill="#000000" font-family="sans-serif" font-size="20" lengthAdjust="spacing" textLength="274" x="715.7695" y="2183.4848">UC 1 - Display listed properties</text></g><g id="elem_UC2"><ellipse cx="853.0546" cy="1237.9109" fill="#F1F1F1" rx="252.5546" ry="52.9109" style="stroke:#181818;stroke-width:0.5;"/><text fill="#000000" font-family="sans-serif" font-size="20" lengthAdjust="spacing" textLength="465" x="623.5546" y="1244.0945">UC 2 - Publish any sale announcement on the system</text></g><g id="elem_UC3"><ellipse cx="853.0377" cy="294.2075" fill="#F1F1F1" rx="169.0377" ry="36.2075" style="stroke:#181818;stroke-width:0.5;"/><text fill="#000000" font-family="sans-serif" font-size="20" lengthAdjust="spacing" textLength="289" x="708.8293" y="301.7132">UC 3 - Register a new Employee</text></g><g id="elem_UC4"><ellipse cx="853.0383" cy="1565.0077" fill="#F1F1F1" rx="398.0383" ry="82.0077" style="stroke:#181818;stroke-width:0.5;"/><text fill="#000000" font-family="sans-serif" font-size="20" lengthAdjust="spacing" textLength="762" x="475.0383" y="1571.1912">UC 4 - Submit a request for listing a proerty sale or rent, choosing the resposible agent</text></g><g id="elem_UC6"><ellipse cx="852.9038" cy="425.9808" fill="#F1F1F1" rx="292.9038" ry="60.9808" style="stroke:#181818;stroke-width:0.5;"/><text fill="#000000" font-family="sans-serif" font-size="20" lengthAdjust="spacing" textLength="548" x="581.9038" y="432.1644">UC 6 - Specify districts, municipalities and parish in the system</text></g><g id="elem_UC7"><ellipse cx="852.7671" cy="2048.1534" fill="#F1F1F1" rx="278.7671" ry="58.1534" style="stroke:#181818;stroke-width:0.5;"/><text fill="#000000" font-family="sans-serif" font-size="20" lengthAdjust="spacing" textLength="519" x="596.2671" y="2054.337">UC 7 - Register in the system to buy, sell or rent properties</text></g><g id="elem_UC8"><ellipse cx="852.8928" cy="776.9786" fill="#F1F1F1" rx="455.3928" ry="93.4786" style="stroke:#181818;stroke-width:0.5;"/><text fill="#000000" font-family="sans-serif" font-size="20" lengthAdjust="spacing" textLength="872" x="416.8928" y="783.1622">UC 8 - See the list of property announcement requests made to myself and post the announcement.</text></g><g id="elem_UC9"><ellipse cx="853.0546" cy="1738.1109" fill="#F1F1F1" rx="268.5546" ry="56.1109" style="stroke:#181818;stroke-width:0.5;"/><text fill="#000000" font-family="sans-serif" font-size="20" lengthAdjust="spacing" textLength="492" x="607.0546" y="1744.2945">UC 9 - Leave a message to the agent to schedule a visit</text></g><g id="elem_UC10"><ellipse cx="853.1624" cy="1892.0325" fill="#F1F1F1" rx="303.1624" ry="63.0325" style="stroke:#181818;stroke-width:0.5;"/><text fill="#000000" font-family="sans-serif" font-size="20" lengthAdjust="spacing" textLength="569" x="571.6624" y="1898.2161">UC 10 - Place an order to purchase the property with the amount</text></g><g id="elem_UC11"><ellipse cx="852.8284" cy="1028.1657" fill="#F1F1F1" rx="598.8284" ry="122.1657" style="stroke:#181818;stroke-width:0.5;"/><text fill="#000000" font-family="sans-serif" font-size="20" lengthAdjust="spacing" textLength="1167" x="272.3284" y="1034.3493">UC 11 - List real estate purchase orders to accept or decline a purchase order for a property and send a notification to the costumer.</text></g><g id="elem_UC12"><ellipse cx="852.8362" cy="136.7672" fill="#F1F1F1" rx="414.3362" ry="85.2672" style="stroke:#181818;stroke-width:0.5;"/><text fill="#000000" font-family="sans-serif" font-size="20" lengthAdjust="spacing" textLength="789" x="458.3362" y="142.9508">UC 12 - Import information from a legacy system that has been in use in several agencies.</text></g><g id="elem_UC15"><ellipse cx="853.1513" cy="585.1303" fill="#F1F1F1" rx="303.6513" ry="63.1303" style="stroke:#181818;stroke-width:0.5;"/><text fill="#000000" font-family="sans-serif" font-size="20" lengthAdjust="spacing" textLength="564" x="571.1513" y="591.3139">UC 15 - List all booking requests for properties managed by me.</text></g><g id="elem_UC16"><ellipse cx="852.9397" cy="1387.1879" fill="#F1F1F1" rx="291.4397" ry="60.6879" style="stroke:#181818;stroke-width:0.5;"/><text fill="#000000" font-family="sans-serif" font-size="20" lengthAdjust="spacing" textLength="539" x="583.4397" y="1393.3715">UC 16 - I want to respond to the user that scheduled the visit.</text></g><g id="elem_UC17"><ellipse cx="853.1372" cy="2762.1274" fill="#F1F1F1" rx="186.1372" ry="39.6274" style="stroke:#181818;stroke-width:0.5;"/><text fill="#000000" font-family="sans-serif" font-size="20" lengthAdjust="spacing" textLength="320" x="693.1169" y="2768.3221">UC 17 - I want to list all deals made.</text></g><g id="elem_UC18"><ellipse cx="853.0544" cy="2351.9109" fill="#F1F1F1" rx="515.0544" ry="105.4109" style="stroke:#181818;stroke-width:0.5;"/><text fill="#000000" font-family="sans-serif" font-size="20" lengthAdjust="spacing" textLength="736" x="488.0544" y="2320.3601">UC 18 - Analyse the deals (only sale of houses and apartments) made. In particular,</text><text fill="#000000" font-family="sans-serif" font-size="20" lengthAdjust="spacing" textLength="572" x="570.0544" y="2345.5163">I intend to compare property sale values with the forecast values.</text><text fill="#000000" font-family="sans-serif" font-size="20" lengthAdjust="spacing" textLength="617" x="547.5544" y="2370.6726">The prediction of the value of the business/property must be estimated</text><text fill="#000000" font-family="sans-serif" font-size="20" lengthAdjust="spacing" textLength="856" x="419.0544" y="2395.8288">based on the characteristics of the property and using linear and multilinear regression algorithms.</text></g><g id="elem_UC19"><ellipse cx="853.1747" cy="2589.8349" fill="#F1F1F1" rx="472.1747" ry="96.8349" style="stroke:#181818;stroke-width:0.5;"/><text fill="#000000" font-family="sans-serif" font-size="20" lengthAdjust="spacing" textLength="457" x="627.6747" y="2583.4404">UC 19 - Divide the set of all stores into two subsets,</text><text fill="#000000" font-family="sans-serif" font-size="20" lengthAdjust="spacing" textLength="874" x="413.1747" y="2608.5967">so that the total number of properties of the stores between the two subsets is the closest possible.</text></g><!--entity SA--><g id="elem_SA"><ellipse cx="100" cy="260" fill="#FFC0CB" rx="8" ry="8" style="stroke:#FF0000;stroke-width:2.0;"/><path d="M100,268 L100,295 M87,276 L113,276 M100,295 L87,310 M100,295 L113,310 " fill="none" style="stroke:#FF0000;stroke-width:2.0;"/><text fill="#FF0000" font-family="sans-serif" font-size="20" lengthAdjust="spacing" textLength="188" x="6" y="333.7617">System Administrator</text></g><!--entity RSA--><g id="elem_RSA"><ellipse cx="100" cy="994" fill="#87CEEB" rx="8" ry="8" style="stroke:#0000FF;stroke-width:2.0;"/><path d="M100,1002 L100,1029 M87,1010 L113,1010 M100,1029 L87,1044 M100,1029 L113,1044 " fill="none" style="stroke:#0000FF;stroke-width:2.0;"/><text fill="#0000FF" font-family="sans-serif" font-size="20" lengthAdjust="spacing" textLength="150" x="25" y="1067.7617">Real State Agent</text></g><!--entity PO--><g id="elem_PO"><ellipse cx="100" cy="1531" fill="#BC8F8F" rx="8" ry="8" style="stroke:#A52A2A;stroke-width:2.0;"/><path d="M100,1539 L100,1566 M87,1547 L113,1547 M100,1566 L87,1581 M100,1566 L113,1581 " fill="none" style="stroke:#A52A2A;stroke-width:2.0;"/><text fill="#A52A2A" font-family="sans-serif" font-size="20" lengthAdjust="spacing" textLength="141" x="29.5" y="1604.7617">Property Owner</text></g><!--entity C--><g id="elem_C"><ellipse cx="100" cy="1781" fill="#90EE90" rx="8" ry="8" style="stroke:#008000;stroke-width:2.0;"/><path d="M100,1789 L100,1816 M87,1797 L113,1797 M100,1816 L87,1831 M100,1816 L113,1831 " fill="none" style="stroke:#008000;stroke-width:2.0;"/><text fill="#008000" font-family="sans-serif" font-size="20" lengthAdjust="spacing" textLength="49" x="75.5" y="1854.7617">Client</text></g><!--entity UU--><g id="elem_UU"><ellipse cx="100" cy="2078" fill="#D3D3D3" rx="8" ry="8" style="stroke:#808080;stroke-width:2.0;"/><path d="M100,2086 L100,2113 M87,2094 L113,2094 M100,2113 L87,2128 M100,2113 L113,2128 " fill="none" style="stroke:#808080;stroke-width:2.0;"/><text fill="#808080" font-family="sans-serif" font-size="20" lengthAdjust="spacing" textLength="159" x="20.5" y="2151.7617">Unregistered User</text></g><!--entity SM--><g id="elem_SM"><ellipse cx="100" cy="2318" fill="#FFA07A" rx="8" ry="8" style="stroke:#FA8072;stroke-width:2.0;"/><path d="M100,2326 L100,2353 M87,2334 L113,2334 M100,2353 L87,2368 M100,2353 L113,2368 " fill="none" style="stroke:#FA8072;stroke-width:2.0;"/><text fill="#FA8072" font-family="sans-serif" font-size="20" lengthAdjust="spacing" textLength="131" x="34.5" y="2391.7617">Store manager</text></g><!--entity NM--><g id="elem_NM"><ellipse cx="100" cy="2642" fill="#696969" rx="8" ry="8" style="stroke:#000000;stroke-width:2.0;"/><path d="M100,2650 L100,2677 M87,2658 L113,2658 M100,2677 L87,2692 M100,2677 L113,2692 " fill="none" style="stroke:#000000;stroke-width:2.0;"/><text fill="#000000" font-family="sans-serif" font-size="20" lengthAdjust="spacing" textLength="156" x="22" y="2715.7617">Network manager</text></g><!--link UU to UC1--><g id="link_UU_UC1"><path d="M179.79,2118.72 C196.38,2120.13 213.76,2121.62 230,2123 C388.83,2136.54 570.48,2152.02 696.29,2162.73 " fill="none" id="UU-to-UC1" style="stroke:#181818;stroke-width:1.0;"/><polygon fill="#181818" points="701.49,2163.18,692.8656,2158.4239,696.5084,2162.7518,692.1805,2166.3945,701.49,2163.18" style="stroke:#181818;stroke-width:1.0;"/></g><!--link UU to UC7--><g id="link_UU_UC7"><path d="M179.6,2105.3 C276.15,2097.07 444.92,2082.69 589.21,2070.39 " fill="none" id="UU-to-UC7" style="stroke:#181818;stroke-width:1.0;"/><polygon fill="#181818" points="594.33,2069.96,585.0205,2066.7455,589.3484,2070.3882,585.7056,2074.7161,594.33,2069.96" style="stroke:#181818;stroke-width:1.0;"/></g><!--link RSA to UC2--><g id="link_RSA_UC2"><path d="M129.18,1072.25 C152.16,1104.3 187.69,1145.61 230,1167 C343.13,1224.21 482.3,1244.02 600.29,1248.65 " fill="none" id="RSA-to-UC2" style="stroke:#181818;stroke-width:1.0;"/><polygon fill="#181818" points="605.54,1248.84,596.6951,1244.5078,600.5435,1248.6539,596.3973,1252.5022,605.54,1248.84" style="stroke:#181818;stroke-width:1.0;"/></g><!--link RSA to UC8--><g id="link_RSA_UC8"><path d="M129.75,983.86 C152.91,952.03 188.41,910.8 230,888 C290.59,854.79 359.02,831.2 427.76,814.51 " fill="none" id="RSA-to-UC8" style="stroke:#181818;stroke-width:1.0;"/><polygon fill="#181818" points="432.71,813.32,423.023,811.5416,427.8494,814.4923,424.8987,819.3186,432.71,813.32" style="stroke:#181818;stroke-width:1.0;"/></g><!--link RSA to UC11--><g id="link_RSA_UC11"><path d="M175.06,1028 C196.23,1028 221.11,1028 248.61,1028 " fill="none" id="RSA-to-UC11" style="stroke:#181818;stroke-width:1.0;"/><polygon fill="#181818" points="253.78,1028,244.78,1024,248.78,1028,244.78,1032,253.78,1028" style="stroke:#181818;stroke-width:1.0;"/></g><!--link RSA to UC15--><g id="link_RSA_UC15"><path d="M102.65,983.79 C108.14,906.03 131.48,745.5 230,666 C323.63,590.44 452.29,565.02 568.31,560.52 " fill="none" id="RSA-to-UC15" style="stroke:#181818;stroke-width:1.0;"/><polygon fill="#181818" points="573.48,560.34,564.3377,556.6768,568.4834,560.5256,564.6347,564.6713,573.48,560.34" style="stroke:#181818;stroke-width:1.0;"/></g><!--link RSA to UC16--><g id="link_RSA_UC16"><path d="M107.76,1072.05 C120.01,1135.43 152.2,1250.95 230,1308 C328.07,1379.91 458.99,1404.1 575.42,1408.53 " fill="none" id="RSA-to-UC16" style="stroke:#181818;stroke-width:1.0;"/><polygon fill="#181818" points="580.61,1408.71,571.7523,1404.404,575.6129,1408.5387,571.4782,1412.3993,580.61,1408.71" style="stroke:#181818;stroke-width:1.0;"/></g><!--link SA to UC3--><g id="link_SA_UC3"><path d="M194.22,294 C314.95,294 527.77,294 678.61,294 " fill="none" id="SA-to-UC3" style="stroke:#181818;stroke-width:1.0;"/><polygon fill="#181818" points="683.95,294,674.95,290,678.95,294,674.95,298,683.95,294" style="stroke:#181818;stroke-width:1.0;"/></g><!--link SA to UC6--><g id="link_SA_UC6"><path d="M194.07,335.59 C206,339.93 218.18,343.88 230,347 C339.3,375.85 462.28,394.3 569.86,406.03 " fill="none" id="SA-to-UC6" style="stroke:#181818;stroke-width:1.0;"/><polygon fill="#181818" points="574.97,406.58,566.4574,401.6267,569.9995,406.0372,565.589,409.5794,574.97,406.58" style="stroke:#181818;stroke-width:1.0;"/></g><!--link SA to UC12--><g id="link_SA_UC12"><path d="M194.14,252.03 C206.06,247.55 218.22,243.39 230,240 C313.79,215.88 405.67,196.8 492.48,181.95 " fill="none" id="SA-to-UC12" style="stroke:#181818;stroke-width:1.0;"/><polygon fill="#181818" points="497.66,181.07,488.1145,178.6443,492.7315,181.9128,489.4631,186.5299,497.66,181.07" style="stroke:#181818;stroke-width:1.0;"/></g><!--link PO to UC4--><g id="link_PO_UC4"><path d="M170.64,1565 C236.68,1565 341.6,1565 449.51,1565 " fill="none" id="PO-to-UC4" style="stroke:#181818;stroke-width:1.0;"/><polygon fill="#181818" points="454.65,1565,445.65,1561,449.65,1565,445.65,1569,454.65,1565" style="stroke:#181818;stroke-width:1.0;"/></g><!--link C to UC9--><g id="link_C_UC9"><path d="M124.72,1812.57 C197.77,1805.08 425.4,1781.74 606.75,1763.15 " fill="none" id="C-to-UC9" style="stroke:#181818;stroke-width:1.0;"/><polygon fill="#181818" points="611.84,1762.62,602.4762,1759.5673,606.8665,1763.1345,603.2994,1767.5249,611.84,1762.62" style="stroke:#181818;stroke-width:1.0;"/></g><!--link C to UC10--><g id="link_C_UC10"><path d="M124.72,1817.43 C193.66,1824.5 400.28,1845.68 575.74,1863.68 " fill="none" id="C-to-UC10" style="stroke:#181818;stroke-width:1.0;"/><polygon fill="#181818" points="580.93,1864.21,572.3894,1859.3051,575.9565,1863.6955,571.5662,1867.2627,580.93,1864.21" style="stroke:#181818;stroke-width:1.0;"/></g><!--link SM to UC18--><g id="link_SM_UC18"><path d="M165.68,2352 C207.64,2352 266.68,2352 332.7,2352 " fill="none" id="SM-to-UC18" style="stroke:#181818;stroke-width:1.0;"/><polygon fill="#181818" points="337.88,2352,328.88,2348,332.88,2352,328.88,2356,337.88,2352" style="stroke:#181818;stroke-width:1.0;"/></g><!--link NM to UC17--><g id="link_NM_UC17"><path d="M178.14,2694.33 C195.15,2697.93 213.13,2701.39 230,2704 C376.81,2726.69 544.59,2741.71 668.87,2750.76 " fill="none" id="NM-to-UC17" style="stroke:#181818;stroke-width:1.0;"/><polygon fill="#181818" points="674.01,2751.14,665.3188,2746.5072,669.0228,2750.7827,664.7472,2754.4867,674.01,2751.14" style="stroke:#181818;stroke-width:1.0;"/></g><!--link NM to UC19--><g id="link_NM_UC19"><path d="M178.19,2667.16 C241.5,2659.91 336.52,2649.03 435.39,2637.71 " fill="none" id="NM-to-UC19" style="stroke:#181818;stroke-width:1.0;"/><polygon fill="#181818" points="440.4,2637.13,431.0021,2634.1839,435.4327,2637.701,431.9156,2642.1316,440.4,2637.13" style="stroke:#181818;stroke-width:1.0;"/></g><!--SRC=[RLPDR-Cs4BthLmoIWriWIUDiFhj0YoJRBW9aiq5SttgXgB5Dc29Laegh5ltldI4foOwjWqsHciUPDs-6z6jb6k54hQrSOmKLBaIhm-_MX9dw1-7Yl2WqBW842qujLm4gvL06PKqXPB0EZcQT3rZ3VLKhetnmWcQFG7YOtGCSDygiFsjby6U7LHoSbLPNdmF-7NYgHtb3eM4MH42uNw894U6D8UWvdgsx1zrY0YhxqHOIp_LGhyusw487tpS6aoklto4_ns_MTm_ERam26uVRQ3oPuHwr8dSOv17sd-Dd9kMhGynuut0BBqxsxisDmoKHXHGzp7tsS3xVnUi6kEu0MiVV3WcWNuHQ6B7COBDl7noS2LtRxE7MU0iqpVPMFVGBXerrwntmbnxy-8kgHqyVj93hZwXnig27DIFCKYDakVnRC4JhKGgFS0JpHvZ2ANnHlj6Y0yq4LT2aL2hqYQJ7wRxP1PczjYLPh42O3hoWNOGnjZKIQyuTnHLM23xkd84kze4-4T1RJWq8CBY1t-f6smun6ttQDxeaerbRreea0Wx_Qj47M11t784oIvgb8A8SesEquiYd4v0hQpr_mAuvz0szbUpveFxvu-N-VjUyNuDIBJegHIet9OC_WRerIgf6QCLaKVZ4dN1CYJeG_FK-xirsy3isNFfbsvs0Hwrx__SpSxEFUSk-8aOifWFiehVhTZEKYVCaj0fvmxgZtHOf3akM3B5jSGPvszlzRUzessSKxsG1DNfFZ39aX61o-SNB5LOjqmtlobFoCjpT0LcUiy18oEm1nLyHGOJGj4wk-2F67QBQgB1AEzNaQv_7wVa1M9RxCxFYkFLHzDpx1jIuZ-UDX9JO12Q-GidrnPBQ-IpgJMnJMr6ow8T4R8DQA2cuOVSaI2AqhT6TzTuTAAefLzLJtLWNI0s4NoU8XRCrmMfS2jaD0bc90EGEbDJcM3m4nNyUtz5HRCow9AKCIPiUgBxfLS-789cLrgwvE0PXS8YZvd93gg3iACKZxjK1NAwO9zY8bFXOQKHDve8-TSd_NX5Ld8-Y674F5CpqPWTNzvvNbCsauz7yG6rCkJZkZT1Tbb2o-y4QtNUA1QmisQHg5bJEWPNlVypWJuPBF2ZPQk5E_ZJaZ381KspIrhIu9Sm8-IxecFIZI8bKTYdaXJC2-IEg6IiLptXs8jB1w_rBsLBVehhwQG2lMy8eaKMiI2XO4L19eLPzwoMnEZfIq75JbBv7sb5i6xiX2rouE57JHKJbTpeoANEUNH9wQHr5K9EUOA3uG1-OtiK3vLrLYM6FiGDnaZmVcPxv8Xbig1sq9QrwPj7Rf0Us23QGV4rRbwIIiNcn07C46QYaSvAr7ur6F50-XQ-jvtE1MbbiycUZttS5Eyv7v7_5HD5naneYRTjAPgzIOadNir-BoTwzeU0xm-dfB_5O7CStnUJZPQhWYrHQlU0n3RbpzYDg0CFmQXnU5yNaqEMku5jPGlkqDRxU6bE1JtQlOKMyWgNLosAIRbN5OzpfBlzJcvpiN6QAsRUqS4kkVBYB52zvxMOO4PV_0m00]--></g></svg>