<?xml version="1.0" encoding="UTF-8" standalone="no"?><svg xmlns="http://www.w3.org/2000/svg" xmlns:xlink="http://www.w3.org/1999/xlink" contentStyleType="text/css" height="664px" preserveAspectRatio="none" style="width:940px;height:664px;background:#FFFFFF;" version="1.1" viewBox="0 0 940 664" width="940px" zoomAndPan="magnify"><defs/><g><text fill="#000000" font-family="sans-serif" font-size="14" font-weight="bold" lengthAdjust="spacing" textLength="228" x="352.25" y="29.5332">System Sequence Diagram (SSD)</text><rect fill="#FFFFFF" height="39.1563" style="stroke:#181818;stroke-width:1.0;" width="10" x="407.5" y="169.9219"/><rect fill="#FFFFFF" height="39.1563" style="stroke:#181818;stroke-width:1.0;" width="10" x="407.5" y="248.2344"/><rect fill="#FFFFFF" height="67.3125" style="stroke:#181818;stroke-width:1.0;" width="10" x="407.5" y="354.7031"/><rect fill="#FFFFFF" height="67.3125" style="stroke:#181818;stroke-width:1.0;" width="10" x="407.5" y="489.3281"/><line style="stroke:#181818;stroke-width:0.5;stroke-dasharray:5.0,5.0;" x1="33" x2="33" y1="128.7656" y2="574.6406"/><line style="stroke:#181818;stroke-width:0.5;stroke-dasharray:5.0,5.0;" x1="412.5" x2="412.5" y1="128.7656" y2="574.6406"/><text fill="#000000" font-family="sans-serif" font-size="20" lengthAdjust="spacing" textLength="51" x="5" y="124.3711">Agent</text><ellipse cx="33.5" cy="52.1094" fill="#87CEEB" rx="8" ry="8" style="stroke:#181818;stroke-width:0.5;"/><path d="M33.5,60.1094 L33.5,87.1094 M20.5,68.1094 L46.5,68.1094 M33.5,87.1094 L20.5,102.1094 M33.5,87.1094 L46.5,102.1094 " fill="none" style="stroke:#181818;stroke-width:0.5;"/><text fill="#000000" font-family="sans-serif" font-size="20" lengthAdjust="spacing" textLength="51" x="5" y="594.4023">Agent</text><ellipse cx="33.5" cy="607.2969" fill="#87CEEB" rx="8" ry="8" style="stroke:#181818;stroke-width:0.5;"/><path d="M33.5,615.2969 L33.5,642.2969 M20.5,623.2969 L46.5,623.2969 M33.5,642.2969 L20.5,657.2969 M33.5,642.2969 L46.5,657.2969 " fill="none" style="stroke:#181818;stroke-width:0.5;"/><rect fill="#E2E2F0" height="39.1563" rx="2.5" ry="2.5" style="stroke:#181818;stroke-width:0.5;" width="86" x="369.5" y="88.6094"/><text fill="#000000" font-family="sans-serif" font-size="20" lengthAdjust="spacing" textLength="72" x="376.5" y="116.3711">:System</text><rect fill="#E2E2F0" height="39.1563" rx="2.5" ry="2.5" style="stroke:#181818;stroke-width:0.5;" width="86" x="369.5" y="573.6406"/><text fill="#000000" font-family="sans-serif" font-size="20" lengthAdjust="spacing" textLength="72" x="376.5" y="601.4023">:System</text><rect fill="#FFFFFF" height="39.1563" style="stroke:#181818;stroke-width:1.0;" width="10" x="407.5" y="169.9219"/><rect fill="#FFFFFF" height="39.1563" style="stroke:#181818;stroke-width:1.0;" width="10" x="407.5" y="248.2344"/><rect fill="#FFFFFF" height="67.3125" style="stroke:#181818;stroke-width:1.0;" width="10" x="407.5" y="354.7031"/><rect fill="#FFFFFF" height="67.3125" style="stroke:#181818;stroke-width:1.0;" width="10" x="407.5" y="489.3281"/><polygon fill="#181818" points="395.5,165.9219,405.5,169.9219,395.5,173.9219,399.5,169.9219" style="stroke:#181818;stroke-width:1.0;"/><line style="stroke:#181818;stroke-width:1.0;" x1="33.5" x2="401.5" y1="169.9219" y2="169.9219"/><text fill="#000000" font-family="sans-serif" font-size="20" font-weight="bold" lengthAdjust="spacing" textLength="11" x="40.5" y="163.5273">1</text><text fill="#000000" font-family="sans-serif" font-size="20" lengthAdjust="spacing" textLength="340" x="55.5" y="163.5273">chooses the visit request to respond to</text><polygon fill="#181818" points="44.5,205.0781,34.5,209.0781,44.5,213.0781,40.5,209.0781" style="stroke:#181818;stroke-width:1.0;"/><line style="stroke:#181818;stroke-width:1.0;stroke-dasharray:2.0,2.0;" x1="38.5" x2="411.5" y1="209.0781" y2="209.0781"/><text fill="#000000" font-family="sans-serif" font-size="20" font-weight="bold" lengthAdjust="spacing" textLength="11" x="50.5" y="202.6836">2</text><text fill="#000000" font-family="sans-serif" font-size="20" lengthAdjust="spacing" textLength="253" x="65.5" y="202.6836">request the message subject</text><polygon fill="#181818" points="395.5,244.2344,405.5,248.2344,395.5,252.2344,399.5,248.2344" style="stroke:#181818;stroke-width:1.0;"/><line style="stroke:#181818;stroke-width:1.0;" x1="33.5" x2="401.5" y1="248.2344" y2="248.2344"/><text fill="#000000" font-family="sans-serif" font-size="20" font-weight="bold" lengthAdjust="spacing" textLength="11" x="40.5" y="241.8398">3</text><text fill="#000000" font-family="sans-serif" font-size="20" lengthAdjust="spacing" textLength="126" x="55.5" y="241.8398">types the data</text><polygon fill="#181818" points="44.5,283.3906,34.5,287.3906,44.5,291.3906,40.5,287.3906" style="stroke:#181818;stroke-width:1.0;"/><line style="stroke:#181818;stroke-width:1.0;stroke-dasharray:2.0,2.0;" x1="38.5" x2="411.5" y1="287.3906" y2="287.3906"/><text fill="#000000" font-family="sans-serif" font-size="20" font-weight="bold" lengthAdjust="spacing" textLength="11" x="50.5" y="280.9961">4</text><text fill="#000000" font-family="sans-serif" font-size="20" lengthAdjust="spacing" textLength="234" x="65.5" y="280.9961">request the message body</text><polygon fill="#181818" points="395.5,350.7031,405.5,354.7031,395.5,358.7031,399.5,354.7031" style="stroke:#181818;stroke-width:1.0;"/><line style="stroke:#181818;stroke-width:1.0;" x1="33.5" x2="401.5" y1="354.7031" y2="354.7031"/><text fill="#000000" font-family="sans-serif" font-size="20" font-weight="bold" lengthAdjust="spacing" textLength="11" x="40.5" y="348.3086">5</text><text fill="#000000" font-family="sans-serif" font-size="20" lengthAdjust="spacing" textLength="126" x="55.5" y="348.3086">types the data</text><path d="M422,300.3906 L422,385.3906 L933,385.3906 L933,310.3906 L923,300.3906 L422,300.3906 " fill="#FEFFDD" style="stroke:#181818;stroke-width:0.5;"/><path d="M923,300.3906 L923,310.3906 L933,310.3906 L923,300.3906 " fill="#FEFFDD" style="stroke:#181818;stroke-width:0.5;"/><text fill="#000000" font-family="sans-serif" font-size="20" lengthAdjust="spacing" textLength="490" x="428" y="326.1523">These services must be configured using a configuration</text><text fill="#000000" font-family="sans-serif" font-size="20" lengthAdjust="spacing" textLength="329" x="434" y="351.3086">file to enable using different platforms</text><text fill="#000000" font-family="sans-serif" font-size="20" lengthAdjust="spacing" textLength="330" x="428" y="376.4648">(e.g.: gmail, DEI's email service, etc.)</text><polygon fill="#181818" points="44.5,418.0156,34.5,422.0156,44.5,426.0156,40.5,422.0156" style="stroke:#181818;stroke-width:1.0;"/><line style="stroke:#181818;stroke-width:1.0;stroke-dasharray:2.0,2.0;" x1="38.5" x2="411.5" y1="422.0156" y2="422.0156"/><text fill="#000000" font-family="sans-serif" font-size="20" font-weight="bold" lengthAdjust="spacing" textLength="11" x="50.5" y="415.6211">6</text><text fill="#000000" font-family="sans-serif" font-size="20" lengthAdjust="spacing" textLength="253" x="65.5" y="415.6211">asks to confirm the message</text><polygon fill="#181818" points="395.5,485.3281,405.5,489.3281,395.5,493.3281,399.5,489.3281" style="stroke:#181818;stroke-width:1.0;"/><line style="stroke:#181818;stroke-width:1.0;" x1="33.5" x2="401.5" y1="489.3281" y2="489.3281"/><text fill="#000000" font-family="sans-serif" font-size="20" font-weight="bold" lengthAdjust="spacing" textLength="11" x="40.5" y="482.9336">7</text><text fill="#000000" font-family="sans-serif" font-size="20" lengthAdjust="spacing" textLength="193" x="55.5" y="482.9336">confirms the message</text><path d="M422,435.0156 L422,520.0156 L856,520.0156 L856,445.0156 L846,435.0156 L422,435.0156 " fill="#FEFFDD" style="stroke:#181818;stroke-width:0.5;"/><path d="M846,435.0156 L846,445.0156 L856,445.0156 L846,435.0156 " fill="#FEFFDD" style="stroke:#181818;stroke-width:0.5;"/><text fill="#000000" font-family="sans-serif" font-size="20" lengthAdjust="spacing" textLength="407" x="428" y="460.7773">When an Agent responds to a booking request</text><text fill="#000000" font-family="sans-serif" font-size="20" lengthAdjust="spacing" textLength="403" x="428" y="485.9336">the list of booking requests should be updated</text><text fill="#000000" font-family="sans-serif" font-size="20" lengthAdjust="spacing" textLength="216" x="428" y="511.0898">to not show this request.</text><polygon fill="#181818" points="44.5,552.6406,34.5,556.6406,44.5,560.6406,40.5,556.6406" style="stroke:#181818;stroke-width:1.0;"/><line style="stroke:#181818;stroke-width:1.0;stroke-dasharray:2.0,2.0;" x1="38.5" x2="411.5" y1="556.6406" y2="556.6406"/><text fill="#000000" font-family="sans-serif" font-size="20" font-weight="bold" lengthAdjust="spacing" textLength="11" x="50.5" y="550.2461">8</text><text fill="#000000" font-family="sans-serif" font-size="20" lengthAdjust="spacing" textLength="268" x="65.5" y="550.2461">informs the message was sent</text><!--SRC=[dLGzRzim4DtvAmxku0H8ZBP05my1qhffEsHIWIvPJk99OaMHAe-og_xw7YqfLf9-1DcEudlttZsUpOrn7GPihIyQqg2fnDx66-zYPduHl7sjU8P0wvqlwk1RWX8jq-AgmwB1Yh8uM890HKHNsIM0QzJ-O5mrKLKqKQ3Pm95QoEX7JwuWs1ci4lmiotRdIgtXnWYAXsY5AcUqyVvqQZxJFmNVTvy9DOKqmGTlVO0g4Bc_WK-mtFRqBzGnZZVlrFhMQ2sU8lqKAp9lih9U33eHRubP4hcsfd9Ga8iK_WlJ9aLdl5FOH-_wDXUImYAAlzLr9KrMW0p72bvbpV0-cPQ6qHIcG_cusew97d5ZgTI8lxoQqzv2KNlFn11hWhrX4-NDn0z7Y5vAxhpJKYPfiySulvEQ6bnAhx7fzaIKLkqu372VVvT1bAR73PvQYKCt6T4OyQMAkTV32-JWYPxpKWTJrKa9ljR4CWw5lIc4rlOYcnCKtfMcweFyO7fEEuttdp0ztvs3CksjX4aESwb6c3PbII5PwYp6qeUMuSwTqQRQRA5gqTWBs7tyicQWT9Y5Bu1YiJa7DQMn30EvuQHpr0_jCfHdvJ7n-07nGGZVQdA0RbASbkEeYHAxRz9WyvFSkTJ66Ybz-VYMvK_0zrQd1FjEufVuXE11vDBLGJmOdj4RUCuk63UckDo5Wwm-o_KVvbSAGFq6]--></g></svg>