<?xml version="1.0" encoding="UTF-8" standalone="no"?><svg xmlns="http://www.w3.org/2000/svg" xmlns:xlink="http://www.w3.org/1999/xlink" contentStyleType="text/css" height="1064px" preserveAspectRatio="none" style="width:714px;height:1064px;background:#FFFFFF;" version="1.1" viewBox="0 0 714 1064" width="714px" zoomAndPan="magnify"><defs/><g><rect fill="#FFFFFF" height="869.0313" style="stroke:#181818;stroke-width:1.0;" width="10" x="48" y="98.2813"/><rect fill="#FFFFFF" height="37.2813" style="stroke:#181818;stroke-width:1.0;" width="10" x="645" y="127.5625"/><rect fill="#FFFFFF" height="37.2813" style="stroke:#181818;stroke-width:1.0;" width="10" x="645" y="202.125"/><rect fill="#FFFFFF" height="341.6328" style="stroke:#181818;stroke-width:1.0;" width="10" x="645" y="276.6875"/><rect fill="#FFFFFF" height="228.1484" style="stroke:#181818;stroke-width:1.0;" width="10" x="645" y="655.6016"/><rect fill="#FFFFFF" height="37.2813" style="stroke:#181818;stroke-width:1.0;" width="10" x="645" y="921.0313"/><rect fill="none" height="290.3516" style="stroke:#000000;stroke-width:1.5;" width="697.5" x="10" y="291.6875"/><rect fill="none" height="102.3047" style="stroke:#000000;stroke-width:1.5;" width="697.5" x="10" y="670.6016"/><line style="stroke:#181818;stroke-width:0.5;stroke-dasharray:5.0,5.0;" x1="53" x2="53" y1="88.2813" y2="976.3125"/><line style="stroke:#181818;stroke-width:0.5;stroke-dasharray:5.0,5.0;" x1="649.5" x2="649.5" y1="88.2813" y2="976.3125"/><text fill="#000000" font-family="sans-serif" font-size="20" lengthAdjust="spacing" textLength="60" x="20" y="83.5645">Agent</text><ellipse cx="53" cy="13.5" fill="#E2E2F0" rx="8" ry="8" style="stroke:#181818;stroke-width:0.5;"/><path d="M53,21.5 L53,48.5 M40,29.5 L66,29.5 M53,48.5 L40,63.5 M53,48.5 L66,63.5 " fill="none" style="stroke:#181818;stroke-width:0.5;"/><text fill="#000000" font-family="sans-serif" font-size="20" lengthAdjust="spacing" textLength="60" x="20" y="993.877">Agent</text><ellipse cx="53" cy="1007.0938" fill="#E2E2F0" rx="8" ry="8" style="stroke:#181818;stroke-width:0.5;"/><path d="M53,1015.0938 L53,1042.0938 M40,1023.0938 L66,1023.0938 M53,1042.0938 L40,1057.0938 M53,1042.0938 L66,1057.0938 " fill="none" style="stroke:#181818;stroke-width:0.5;"/><rect fill="#E2E2F0" height="37.2813" rx="2.5" ry="2.5" style="stroke:#181818;stroke-width:0.5;" width="95" x="602.5" y="50"/><text fill="#000000" font-family="sans-serif" font-size="20" lengthAdjust="spacing" textLength="81" x="609.5" y="75.5645">:System</text><rect fill="#E2E2F0" height="37.2813" rx="2.5" ry="2.5" style="stroke:#181818;stroke-width:0.5;" width="95" x="602.5" y="975.3125"/><text fill="#000000" font-family="sans-serif" font-size="20" lengthAdjust="spacing" textLength="81" x="609.5" y="1000.877">:System</text><rect fill="#FFFFFF" height="869.0313" style="stroke:#181818;stroke-width:1.0;" width="10" x="48" y="98.2813"/><rect fill="#FFFFFF" height="37.2813" style="stroke:#181818;stroke-width:1.0;" width="10" x="645" y="127.5625"/><rect fill="#FFFFFF" height="37.2813" style="stroke:#181818;stroke-width:1.0;" width="10" x="645" y="202.125"/><rect fill="#FFFFFF" height="341.6328" style="stroke:#181818;stroke-width:1.0;" width="10" x="645" y="276.6875"/><rect fill="#FFFFFF" height="228.1484" style="stroke:#181818;stroke-width:1.0;" width="10" x="645" y="655.6016"/><rect fill="#FFFFFF" height="37.2813" style="stroke:#181818;stroke-width:1.0;" width="10" x="645" y="921.0313"/><polygon fill="#181818" points="633,123.5625,643,127.5625,633,131.5625,637,127.5625" style="stroke:#181818;stroke-width:1.0;"/><line style="stroke:#181818;stroke-width:1.0;" x1="58" x2="639" y1="127.5625" y2="127.5625"/><text fill="#000000" font-family="sans-serif" font-size="20" font-weight="bold" lengthAdjust="spacing" textLength="14" x="65" y="120.8457">1</text><text fill="#000000" font-family="sans-serif" font-size="20" lengthAdjust="spacing" textLength="284" x="83" y="120.8457">asks to announce a property</text><polygon fill="#181818" points="69,160.8438,59,164.8438,69,168.8438,65,164.8438" style="stroke:#181818;stroke-width:1.0;"/><line style="stroke:#181818;stroke-width:1.0;stroke-dasharray:2.0,2.0;" x1="63" x2="649" y1="164.8438" y2="164.8438"/><text fill="#000000" font-family="sans-serif" font-size="20" font-weight="bold" lengthAdjust="spacing" textLength="14" x="75" y="158.127">2</text><text fill="#000000" font-family="sans-serif" font-size="20" lengthAdjust="spacing" textLength="545" x="93" y="158.127">shows the list of users available and asks to select one</text><polygon fill="#181818" points="633,198.125,643,202.125,633,206.125,637,202.125" style="stroke:#181818;stroke-width:1.0;"/><line style="stroke:#181818;stroke-width:1.0;" x1="58" x2="639" y1="202.125" y2="202.125"/><text fill="#000000" font-family="sans-serif" font-size="20" font-weight="bold" lengthAdjust="spacing" textLength="14" x="65" y="195.4082">3</text><text fill="#000000" font-family="sans-serif" font-size="20" lengthAdjust="spacing" textLength="136" x="83" y="195.4082">selects a user</text><polygon fill="#181818" points="69,235.4063,59,239.4063,69,243.4063,65,239.4063" style="stroke:#181818;stroke-width:1.0;"/><line style="stroke:#181818;stroke-width:1.0;stroke-dasharray:2.0,2.0;" x1="63" x2="649" y1="239.4063" y2="239.4063"/><text fill="#000000" font-family="sans-serif" font-size="20" font-weight="bold" lengthAdjust="spacing" textLength="14" x="75" y="232.6895">4</text><text fill="#000000" font-family="sans-serif" font-size="20" lengthAdjust="spacing" textLength="510" x="93" y="232.6895">requests the property type (house,apartment,land)</text><polygon fill="#181818" points="633,272.6875,643,276.6875,633,280.6875,637,276.6875" style="stroke:#181818;stroke-width:1.0;"/><line style="stroke:#181818;stroke-width:1.0;" x1="58" x2="639" y1="276.6875" y2="276.6875"/><text fill="#000000" font-family="sans-serif" font-size="20" font-weight="bold" lengthAdjust="spacing" textLength="14" x="65" y="269.9707">5</text><text fill="#000000" font-family="sans-serif" font-size="20" lengthAdjust="spacing" textLength="251" x="83" y="269.9707">types the requested data</text><path d="M10,291.6875 L86,291.6875 L86,306.9688 L76,316.9688 L10,316.9688 L10,291.6875 " fill="#EEEEEE" style="stroke:#000000;stroke-width:1.5;"/><rect fill="none" height="290.3516" style="stroke:#000000;stroke-width:1.5;" width="697.5" x="10" y="291.6875"/><text fill="#008000" font-family="sans-serif" font-size="20" font-weight="bold" lengthAdjust="spacing" textLength="31" x="25" y="311.252">alt</text><text fill="#0000FF" font-family="sans-serif" font-size="15" font-weight="bold" lengthAdjust="spacing" textLength="48" x="101" y="307.6108">[land]</text><polygon fill="#181818" points="69,344.7109,59,348.7109,69,352.7109,65,348.7109" style="stroke:#181818;stroke-width:1.0;"/><line style="stroke:#181818;stroke-width:1.0;stroke-dasharray:2.0,2.0;" x1="63" x2="644" y1="348.7109" y2="348.7109"/><text fill="#000000" font-family="sans-serif" font-size="20" font-weight="bold" lengthAdjust="spacing" textLength="14" x="75" y="341.9941">5</text><text fill="#000000" font-family="sans-serif" font-size="20" lengthAdjust="spacing" textLength="317" x="93" y="341.9941">request the land characteristics</text><polygon fill="#181818" points="633,381.9922,643,385.9922,633,389.9922,637,385.9922" style="stroke:#181818;stroke-width:1.0;"/><line style="stroke:#181818;stroke-width:1.0;" x1="58" x2="639" y1="385.9922" y2="385.9922"/><text fill="#000000" font-family="sans-serif" font-size="20" font-weight="bold" lengthAdjust="spacing" textLength="14" x="65" y="379.2754">6</text><text fill="#000000" font-family="sans-serif" font-size="20" lengthAdjust="spacing" textLength="212" x="83" y="379.2754">types requested data</text><line style="stroke:#000000;stroke-width:1.0;stroke-dasharray:2.0,2.0;" x1="10" x2="707.5" y1="394.9922" y2="394.9922"/><text fill="#0000FF" font-family="sans-serif" font-size="15" font-weight="bold" lengthAdjust="spacing" textLength="101" x="15" y="408.9155">[apartment]</text><polygon fill="#181818" points="69,438.7344,59,442.7344,69,446.7344,65,442.7344" style="stroke:#181818;stroke-width:1.0;"/><line style="stroke:#181818;stroke-width:1.0;stroke-dasharray:2.0,2.0;" x1="63" x2="644" y1="442.7344" y2="442.7344"/><text fill="#000000" font-family="sans-serif" font-size="20" font-weight="bold" lengthAdjust="spacing" textLength="14" x="75" y="436.0176">5</text><text fill="#000000" font-family="sans-serif" font-size="20" lengthAdjust="spacing" textLength="379" x="93" y="436.0176">request the apartment characteristics</text><polygon fill="#181818" points="633,476.0156,643,480.0156,633,484.0156,637,480.0156" style="stroke:#181818;stroke-width:1.0;"/><line style="stroke:#181818;stroke-width:1.0;" x1="58" x2="639" y1="480.0156" y2="480.0156"/><text fill="#000000" font-family="sans-serif" font-size="20" font-weight="bold" lengthAdjust="spacing" textLength="14" x="65" y="473.2988">6</text><text fill="#000000" font-family="sans-serif" font-size="20" lengthAdjust="spacing" textLength="212" x="83" y="473.2988">types requested data</text><line style="stroke:#000000;stroke-width:1.0;stroke-dasharray:2.0,2.0;" x1="10" x2="707.5" y1="489.0156" y2="489.0156"/><text fill="#0000FF" font-family="sans-serif" font-size="15" font-weight="bold" lengthAdjust="spacing" textLength="63" x="15" y="502.939">[house]</text><polygon fill="#181818" points="69,532.7578,59,536.7578,69,540.7578,65,536.7578" style="stroke:#181818;stroke-width:1.0;"/><line style="stroke:#181818;stroke-width:1.0;stroke-dasharray:2.0,2.0;" x1="63" x2="644" y1="536.7578" y2="536.7578"/><text fill="#000000" font-family="sans-serif" font-size="20" font-weight="bold" lengthAdjust="spacing" textLength="14" x="75" y="530.041">5</text><text fill="#000000" font-family="sans-serif" font-size="20" lengthAdjust="spacing" textLength="333" x="93" y="530.041">request the house characteristics</text><polygon fill="#181818" points="633,570.0391,643,574.0391,633,578.0391,637,574.0391" style="stroke:#181818;stroke-width:1.0;"/><line style="stroke:#181818;stroke-width:1.0;" x1="58" x2="639" y1="574.0391" y2="574.0391"/><text fill="#000000" font-family="sans-serif" font-size="20" font-weight="bold" lengthAdjust="spacing" textLength="14" x="65" y="567.3223">6</text><text fill="#000000" font-family="sans-serif" font-size="20" lengthAdjust="spacing" textLength="212" x="83" y="567.3223">types requested data</text><polygon fill="#181818" points="69,614.3203,59,618.3203,69,622.3203,65,618.3203" style="stroke:#181818;stroke-width:1.0;"/><line style="stroke:#181818;stroke-width:1.0;" x1="63" x2="649" y1="618.3203" y2="618.3203"/><text fill="#000000" font-family="sans-serif" font-size="20" font-weight="bold" lengthAdjust="spacing" textLength="14" x="75" y="611.6035">7</text><text fill="#000000" font-family="sans-serif" font-size="20" lengthAdjust="spacing" textLength="397" x="93" y="611.6035">requests the business type (sell or rent)</text><polygon fill="#181818" points="633,651.6016,643,655.6016,633,659.6016,637,655.6016" style="stroke:#181818;stroke-width:1.0;"/><line style="stroke:#181818;stroke-width:1.0;" x1="58" x2="639" y1="655.6016" y2="655.6016"/><text fill="#000000" font-family="sans-serif" font-size="20" font-weight="bold" lengthAdjust="spacing" textLength="14" x="65" y="648.8848">8</text><text fill="#000000" font-family="sans-serif" font-size="20" lengthAdjust="spacing" textLength="251" x="83" y="648.8848">types the requested data</text><path d="M10,670.6016 L86,670.6016 L86,685.8828 L76,695.8828 L10,695.8828 L10,670.6016 " fill="#EEEEEE" style="stroke:#000000;stroke-width:1.5;"/><rect fill="none" height="102.3047" style="stroke:#000000;stroke-width:1.5;" width="697.5" x="10" y="670.6016"/><text fill="#008000" font-family="sans-serif" font-size="20" font-weight="bold" lengthAdjust="spacing" textLength="31" x="25" y="690.166">alt</text><text fill="#0000FF" font-family="sans-serif" font-size="15" font-weight="bold" lengthAdjust="spacing" textLength="48" x="101" y="686.5249">[rent]</text><polygon fill="#181818" points="69,723.625,59,727.625,69,731.625,65,727.625" style="stroke:#181818;stroke-width:1.0;"/><line style="stroke:#181818;stroke-width:1.0;stroke-dasharray:2.0,2.0;" x1="63" x2="644" y1="727.625" y2="727.625"/><text fill="#000000" font-family="sans-serif" font-size="20" font-weight="bold" lengthAdjust="spacing" textLength="14" x="75" y="720.9082">9</text><text fill="#000000" font-family="sans-serif" font-size="20" lengthAdjust="spacing" textLength="295" x="93" y="720.9082">request the contract duration</text><polygon fill="#181818" points="633,760.9063,643,764.9063,633,768.9063,637,764.9063" style="stroke:#181818;stroke-width:1.0;"/><line style="stroke:#181818;stroke-width:1.0;" x1="58" x2="639" y1="764.9063" y2="764.9063"/><text fill="#000000" font-family="sans-serif" font-size="20" font-weight="bold" lengthAdjust="spacing" textLength="28" x="65" y="758.1895">10</text><text fill="#000000" font-family="sans-serif" font-size="20" lengthAdjust="spacing" textLength="212" x="97" y="758.1895">types requested data</text><polygon fill="#181818" points="69,805.1875,59,809.1875,69,813.1875,65,809.1875" style="stroke:#181818;stroke-width:1.0;"/><line style="stroke:#181818;stroke-width:1.0;stroke-dasharray:2.0,2.0;" x1="63" x2="644" y1="809.1875" y2="809.1875"/><text fill="#000000" font-family="sans-serif" font-size="20" font-weight="bold" lengthAdjust="spacing" textLength="28" x="75" y="802.4707">11</text><text fill="#000000" font-family="sans-serif" font-size="20" lengthAdjust="spacing" textLength="241" x="107" y="802.4707">request the commission</text><polygon fill="#181818" points="633,842.4688,643,846.4688,633,850.4688,637,846.4688" style="stroke:#181818;stroke-width:1.0;"/><line style="stroke:#181818;stroke-width:1.0;" x1="58" x2="639" y1="846.4688" y2="846.4688"/><text fill="#000000" font-family="sans-serif" font-size="20" font-weight="bold" lengthAdjust="spacing" textLength="28" x="65" y="839.752">12</text><text fill="#000000" font-family="sans-serif" font-size="20" lengthAdjust="spacing" textLength="212" x="97" y="839.752">types requested data</text><polygon fill="#181818" points="69,879.75,59,883.75,69,887.75,65,883.75" style="stroke:#181818;stroke-width:1.0;"/><line style="stroke:#181818;stroke-width:1.0;stroke-dasharray:2.0,2.0;" x1="63" x2="649" y1="883.75" y2="883.75"/><text fill="#000000" font-family="sans-serif" font-size="20" font-weight="bold" lengthAdjust="spacing" textLength="28" x="75" y="877.0332">13</text><text fill="#000000" font-family="sans-serif" font-size="20" lengthAdjust="spacing" textLength="370" x="107" y="877.0332">shows the data and ask confirmation</text><polygon fill="#181818" points="633,917.0313,643,921.0313,633,925.0313,637,921.0313" style="stroke:#181818;stroke-width:1.0;"/><line style="stroke:#181818;stroke-width:1.0;" x1="58" x2="639" y1="921.0313" y2="921.0313"/><text fill="#000000" font-family="sans-serif" font-size="20" font-weight="bold" lengthAdjust="spacing" textLength="28" x="65" y="914.3145">14</text><text fill="#000000" font-family="sans-serif" font-size="20" lengthAdjust="spacing" textLength="177" x="97" y="914.3145">confirms the data</text><polygon fill="#181818" points="69,954.3125,59,958.3125,69,962.3125,65,958.3125" style="stroke:#181818;stroke-width:1.0;"/><line style="stroke:#181818;stroke-width:1.0;stroke-dasharray:2.0,2.0;" x1="63" x2="649" y1="958.3125" y2="958.3125"/><text fill="#000000" font-family="sans-serif" font-size="20" font-weight="bold" lengthAdjust="spacing" textLength="28" x="75" y="951.5957">15</text><text fill="#000000" font-family="sans-serif" font-size="20" lengthAdjust="spacing" textLength="268" x="107" y="951.5957">Displays operation success</text><!--SRC=[lLHDRzim3BtxLn2vP0DQO1lGImy3Z0tTBWK6v1SmCfC8aILFbBfvltwK_9LiTfgXnNGo9FBnyV6PVDIsGO-rSUf85LIqmsZ2WxDXetyHV7XNhD44uD0QRVS53_6meU-HhA8ltiNcAs55FcLzSiPvs7iYknGyXMrDf4jHcSBxksBzgAlA40JwEL5PJudS9puIC-wfD7flGP4Dv9yDgxGd5RIp1SRWRAotabIW2i9lLUu5P0N8K1Q5W0IjT8CsmEf-qtAWEhzrdpb9Fs6W50pzAU7sOny0zn9yP0WEq5eNXGaWDDurv4ERCqQ40J9Tzjct0bGA1X_S3m4v41ZD0TmE8fDdm2VK1hSY4zfghCHaf3rmbZ9MHRCbpbbsEOAOaPU9fRFMEvc8lDIYr7Zx1sMVXEVGiHuQXj0s16yEJehSO18tGTmOOV_sUgu9fCFjYoGJOy3Bh9EbKw7f9j-E1e2xyvSkNzevwQORGT9Q7SHUIimcyz2AppBdsCumJOSCo-m68IvGkuhP2FHIUkVyyhXUB5j6UJNTJkSuE6_6UDl8sigltnjFN6v0Vd8l6lqNm_c_fhgeZvBbbwI1AdhCo-drj9ajLzUQ-RJEFzHOt4yfQbX6gQMTzlNKpLLgzraJtZFRw45RDF1DhBz4xxFcnc3BaBPGPWCSbH9VpBFw3G00]--></g></svg>