<?xml version="1.0" encoding="UTF-8" standalone="no"?><svg xmlns="http://www.w3.org/2000/svg" xmlns:xlink="http://www.w3.org/1999/xlink" contentStyleType="text/css" height="540px" preserveAspectRatio="none" style="width:685px;height:540px;background:#FFFFFF;" version="1.1" viewBox="0 0 685 540" width="685px" zoomAndPan="magnify"><defs/><g><rect fill="#FFFFFF" height="345.8125" style="stroke:#181818;stroke-width:1.0;" width="10" x="112" y="98.2813"/><rect fill="#FFFFFF" height="83.8438" style="stroke:#181818;stroke-width:1.0;" width="10" x="627" y="127.5625"/><rect fill="#FFFFFF" height="37.2813" style="stroke:#181818;stroke-width:1.0;" width="10" x="627" y="248.6875"/><rect fill="#FFFFFF" height="37.2813" style="stroke:#181818;stroke-width:1.0;" width="10" x="627" y="323.25"/><rect fill="#FFFFFF" height="37.2813" style="stroke:#181818;stroke-width:1.0;" width="10" x="627" y="397.8125"/><line style="stroke:#181818;stroke-width:0.5;stroke-dasharray:5.0,5.0;" x1="117" x2="117" y1="88.2813" y2="453.0938"/><line style="stroke:#181818;stroke-width:0.5;stroke-dasharray:5.0,5.0;" x1="631.5" x2="631.5" y1="88.2813" y2="453.0938"/><text fill="#000000" font-family="sans-serif" font-size="20" lengthAdjust="spacing" textLength="218" x="5" y="83.5645">System Administrator</text><ellipse cx="117" cy="13.5" fill="#E3E3E3" rx="8" ry="8" style="stroke:#181818;stroke-width:0.5;"/><path d="M117,21.5 L117,48.5 M104,29.5 L130,29.5 M117,48.5 L104,63.5 M117,48.5 L130,63.5 " fill="none" style="stroke:#181818;stroke-width:0.5;"/><text fill="#000000" font-family="sans-serif" font-size="20" lengthAdjust="spacing" textLength="218" x="5" y="470.6582">System Administrator</text><ellipse cx="117" cy="483.875" fill="#E3E3E3" rx="8" ry="8" style="stroke:#181818;stroke-width:0.5;"/><path d="M117,491.875 L117,518.875 M104,499.875 L130,499.875 M117,518.875 L104,533.875 M117,518.875 L130,533.875 " fill="none" style="stroke:#181818;stroke-width:0.5;"/><rect fill="#E3E3E3" height="37.2813" rx="2.5" ry="2.5" style="stroke:#181818;stroke-width:0.5;" width="95" x="584.5" y="50"/><text fill="#000000" font-family="sans-serif" font-size="20" lengthAdjust="spacing" textLength="81" x="591.5" y="75.5645">:System</text><rect fill="#E3E3E3" height="37.2813" rx="2.5" ry="2.5" style="stroke:#181818;stroke-width:0.5;" width="95" x="584.5" y="452.0938"/><text fill="#000000" font-family="sans-serif" font-size="20" lengthAdjust="spacing" textLength="81" x="591.5" y="477.6582">:System</text><rect fill="#FFFFFF" height="345.8125" style="stroke:#181818;stroke-width:1.0;" width="10" x="112" y="98.2813"/><rect fill="#FFFFFF" height="83.8438" style="stroke:#181818;stroke-width:1.0;" width="10" x="627" y="127.5625"/><rect fill="#FFFFFF" height="37.2813" style="stroke:#181818;stroke-width:1.0;" width="10" x="627" y="248.6875"/><rect fill="#FFFFFF" height="37.2813" style="stroke:#181818;stroke-width:1.0;" width="10" x="627" y="323.25"/><rect fill="#FFFFFF" height="37.2813" style="stroke:#181818;stroke-width:1.0;" width="10" x="627" y="397.8125"/><polygon fill="#181818" points="615,123.5625,625,127.5625,615,131.5625,619,127.5625" style="stroke:#181818;stroke-width:1.0;"/><line style="stroke:#181818;stroke-width:1.0;" x1="122" x2="621" y1="127.5625" y2="127.5625"/><text fill="#000000" font-family="sans-serif" font-size="20" font-weight="bold" lengthAdjust="spacing" textLength="14" x="129" y="120.8457">1</text><text fill="#000000" font-family="sans-serif" font-size="20" lengthAdjust="spacing" textLength="323" x="147" y="120.8457">asks to register a new employee</text><polygon fill="#181818" points="133,207.4063,123,211.4063,133,215.4063,129,211.4063" style="stroke:#181818;stroke-width:1.0;"/><line style="stroke:#181818;stroke-width:1.0;stroke-dasharray:2.0,2.0;" x1="127" x2="631" y1="211.4063" y2="211.4063"/><text fill="#000000" font-family="sans-serif" font-size="20" font-weight="bold" lengthAdjust="spacing" textLength="14" x="139" y="181.4082">2</text><text fill="#000000" font-family="sans-serif" font-size="20" lengthAdjust="spacing" textLength="422" x="157" y="158.127">requests data(name, citizen card number,</text><text fill="#000000" font-family="sans-serif" font-size="20" lengthAdjust="spacing" textLength="267" x="157" y="181.4082">tax number, adress, email,</text><text fill="#000000" font-family="sans-serif" font-size="20" lengthAdjust="spacing" textLength="240" x="157" y="204.6895">phone number, agency)</text><polygon fill="#181818" points="615,244.6875,625,248.6875,615,252.6875,619,248.6875" style="stroke:#181818;stroke-width:1.0;"/><line style="stroke:#181818;stroke-width:1.0;" x1="122" x2="621" y1="248.6875" y2="248.6875"/><text fill="#000000" font-family="sans-serif" font-size="20" font-weight="bold" lengthAdjust="spacing" textLength="14" x="129" y="241.9707">3</text><text fill="#000000" font-family="sans-serif" font-size="20" lengthAdjust="spacing" textLength="212" x="147" y="241.9707">types requested data</text><polygon fill="#181818" points="133,281.9688,123,285.9688,133,289.9688,129,285.9688" style="stroke:#181818;stroke-width:1.0;"/><line style="stroke:#181818;stroke-width:1.0;stroke-dasharray:2.0,2.0;" x1="127" x2="631" y1="285.9688" y2="285.9688"/><text fill="#000000" font-family="sans-serif" font-size="20" font-weight="bold" lengthAdjust="spacing" textLength="14" x="139" y="279.252">4</text><text fill="#000000" font-family="sans-serif" font-size="20" lengthAdjust="spacing" textLength="463" x="157" y="279.252">shows roles category list and ask to select one</text><polygon fill="#181818" points="615,319.25,625,323.25,615,327.25,619,323.25" style="stroke:#181818;stroke-width:1.0;"/><line style="stroke:#181818;stroke-width:1.0;" x1="122" x2="621" y1="323.25" y2="323.25"/><text fill="#000000" font-family="sans-serif" font-size="20" font-weight="bold" lengthAdjust="spacing" textLength="14" x="129" y="316.5332">5</text><text fill="#000000" font-family="sans-serif" font-size="20" lengthAdjust="spacing" textLength="224" x="147" y="316.5332">selects a role category</text><polygon fill="#181818" points="133,356.5313,123,360.5313,133,364.5313,129,360.5313" style="stroke:#181818;stroke-width:1.0;"/><line style="stroke:#181818;stroke-width:1.0;stroke-dasharray:2.0,2.0;" x1="127" x2="631" y1="360.5313" y2="360.5313"/><text fill="#000000" font-family="sans-serif" font-size="20" font-weight="bold" lengthAdjust="spacing" textLength="14" x="139" y="353.8145">6</text><text fill="#000000" font-family="sans-serif" font-size="20" lengthAdjust="spacing" textLength="413" x="157" y="353.8145">shows all data and requests confirmation</text><polygon fill="#181818" points="615,393.8125,625,397.8125,615,401.8125,619,397.8125" style="stroke:#181818;stroke-width:1.0;"/><line style="stroke:#181818;stroke-width:1.0;" x1="122" x2="621" y1="397.8125" y2="397.8125"/><text fill="#000000" font-family="sans-serif" font-size="20" font-weight="bold" lengthAdjust="spacing" textLength="14" x="129" y="391.0957">7</text><text fill="#000000" font-family="sans-serif" font-size="20" lengthAdjust="spacing" textLength="138" x="147" y="391.0957">confirms data</text><polygon fill="#181818" points="133,431.0938,123,435.0938,133,439.0938,129,435.0938" style="stroke:#181818;stroke-width:1.0;"/><line style="stroke:#181818;stroke-width:1.0;stroke-dasharray:2.0,2.0;" x1="127" x2="631" y1="435.0938" y2="435.0938"/><text fill="#000000" font-family="sans-serif" font-size="20" font-weight="bold" lengthAdjust="spacing" textLength="14" x="139" y="428.377">8</text><text fill="#000000" font-family="sans-serif" font-size="20" lengthAdjust="spacing" textLength="250" x="157" y="428.377">informs operation sucess</text><!--SRC=[dL6zJWCn3DxlAQnE81K9CNP0Oe0NwCfY4lSQDR6Fs4SvdXxVNNjbw58o9R6_7t_MG-8EAvOiuK0H8ksmp_OcRDlqG_3qsEYv1OgmX7sLGc2rfp-L3iC1MzhQa0ag1KDkyzy6tMEKO-8MTfYLcWPx4-xB1rM_1vCAg-sWHWLUOacSr2hwxmfGuRLqMGQYnhaiXTGX6wmsS__KCLydflI5HXT80x0yuE7vr0aRHnqKJDnjws9K0O7f27G6EcvXEzF3V4uS3qwtK6-SwBCdDOM8XdUCXTOGadcA305hX7dSDRopuVVombX9TUt2cF9OxFR2T2ctn66u7wKZNJDqTJWREjApet6jRkdsYNGlHsUHx5p1KQtK0RAd1SXn373CJodxli4zt-Xn1ghdFYei0l-rYJbFOqxUbbq4uLsg1Iq9t-Zl1DN_XPTu9oDOEggJEcWVVD5NJVm2]--></g></svg>