<?xml version="1.0" encoding="UTF-8" standalone="no"?><svg xmlns="http://www.w3.org/2000/svg" xmlns:xlink="http://www.w3.org/1999/xlink" contentStyleType="text/css" height="547px" preserveAspectRatio="none" style="width:1513px;height:547px;background:#FFFFFF;" version="1.1" viewBox="0 0 1513 547" width="1513px" zoomAndPan="magnify"><defs/><g><!--class Commission--><g id="elem_Commission"><rect codeLine="19" fill="#FFDAB9" height="87.8438" id="Commission" rx="2.5" ry="2.5" style="stroke:#4169E1;stroke-width:0.5;" width="129" x="7" y="453"/><text fill="#000000" font-family="sans-serif" font-size="20" lengthAdjust="spacing" textLength="123" x="10" y="476.5645">Commission</text><line style="stroke:#4169E1;stroke-width:0.5;" x1="8" x2="135" y1="486.2813" y2="486.2813"/><rect fill="none" height="6" style="stroke:#C82930;stroke-width:1.0;" width="6" x="15" y="500.4219"/><text fill="#000000" font-family="sans-serif" font-size="20" lengthAdjust="spacing" textLength="44" x="28" y="508.8457">type</text><rect fill="none" height="6" style="stroke:#C82930;stroke-width:1.0;" width="6" x="15" y="523.7031"/><text fill="#000000" font-family="sans-serif" font-size="20" lengthAdjust="spacing" textLength="54" x="28" y="532.127">value</text></g><!--class Anouncement--><g id="elem_Anouncement"><rect codeLine="24" fill="#FFDAB9" height="87.8438" id="Anouncement" rx="2.5" ry="2.5" style="stroke:#4169E1;stroke-width:0.5;" width="147" x="253" y="342"/><text fill="#000000" font-family="sans-serif" font-size="20" lengthAdjust="spacing" textLength="141" x="256" y="365.5645">Anouncement</text><line style="stroke:#4169E1;stroke-width:0.5;" x1="254" x2="399" y1="375.2813" y2="375.2813"/><rect fill="none" height="6" style="stroke:#C82930;stroke-width:1.0;" width="6" x="261" y="389.4219"/><text fill="#000000" font-family="sans-serif" font-size="20" lengthAdjust="spacing" textLength="50" x="274" y="397.8457">state</text><rect fill="none" height="6" style="stroke:#C82930;stroke-width:1.0;" width="6" x="261" y="412.7031"/><text fill="#000000" font-family="sans-serif" font-size="20" lengthAdjust="spacing" textLength="50" x="274" y="421.127">price</text></g><!--class Property--><g id="elem_Property"><rect codeLine="29" fill="#FFDAB9" height="157.6875" id="Property" rx="2.5" ry="2.5" style="stroke:#4169E1;stroke-width:0.5;" width="270" x="578" y="164"/><text fill="#000000" font-family="sans-serif" font-size="20" lengthAdjust="spacing" textLength="84" x="671" y="187.5645">Property</text><line style="stroke:#4169E1;stroke-width:0.5;" x1="579" x2="847" y1="197.2813" y2="197.2813"/><rect fill="none" height="6" style="stroke:#C82930;stroke-width:1.0;" width="6" x="586" y="211.4219"/><text fill="#000000" font-family="sans-serif" font-size="20" lengthAdjust="spacing" textLength="44" x="599" y="219.8457">type</text><rect fill="none" height="6" style="stroke:#C82930;stroke-width:1.0;" width="6" x="586" y="234.7031"/><text fill="#000000" font-family="sans-serif" font-size="20" lengthAdjust="spacing" textLength="44" x="599" y="243.127">area</text><rect fill="none" height="6" style="stroke:#C82930;stroke-width:1.0;" width="6" x="586" y="257.9844"/><text fill="#000000" font-family="sans-serif" font-size="20" lengthAdjust="spacing" textLength="80" x="599" y="266.4082">location</text><rect fill="none" height="6" style="stroke:#C82930;stroke-width:1.0;" width="6" x="586" y="281.2656"/><text fill="#000000" font-family="sans-serif" font-size="20" lengthAdjust="spacing" textLength="243" x="599" y="289.6895">distanceFromCityCenter</text><rect fill="none" height="6" style="stroke:#C82930;stroke-width:1.0;" width="6" x="586" y="304.5469"/><text fill="#000000" font-family="sans-serif" font-size="20" lengthAdjust="spacing" textLength="127" x="599" y="312.9707">photographs</text></g><!--class Lease--><g id="elem_Lease"><rect codeLine="37" fill="#FFDAB9" height="64.5625" id="Lease" rx="2.5" ry="2.5" style="stroke:#4169E1;stroke-width:0.5;" width="197" x="614.5" y="357.5"/><text fill="#000000" font-family="sans-serif" font-size="20" lengthAdjust="spacing" textLength="57" x="684.5" y="381.0645">Lease</text><line style="stroke:#4169E1;stroke-width:0.5;" x1="615.5" x2="810.5" y1="390.7813" y2="390.7813"/><rect fill="none" height="6" style="stroke:#C82930;stroke-width:1.0;" width="6" x="622.5" y="404.9219"/><text fill="#000000" font-family="sans-serif" font-size="20" lengthAdjust="spacing" textLength="170" x="635.5" y="413.3457">contractDuration</text></g><!--class Address--><g id="elem_Address"><rect codeLine="41" fill="#FFDAB9" height="134.4063" id="Address" rx="2.5" ry="2.5" style="stroke:#4169E1;stroke-width:0.5;" width="105" x="1045.5" y="7"/><text fill="#000000" font-family="sans-serif" font-size="20" lengthAdjust="spacing" textLength="80" x="1058" y="30.5645">Address</text><line style="stroke:#4169E1;stroke-width:0.5;" x1="1046.5" x2="1149.5" y1="40.2813" y2="40.2813"/><rect fill="none" height="6" style="stroke:#C82930;stroke-width:1.0;" width="6" x="1053.5" y="54.4219"/><text fill="#000000" font-family="sans-serif" font-size="20" lengthAdjust="spacing" textLength="58" x="1066.5" y="62.8457">street</text><rect fill="none" height="6" style="stroke:#C82930;stroke-width:1.0;" width="6" x="1053.5" y="77.7031"/><text fill="#000000" font-family="sans-serif" font-size="20" lengthAdjust="spacing" textLength="36" x="1066.5" y="86.127">city</text><rect fill="none" height="6" style="stroke:#C82930;stroke-width:1.0;" width="6" x="1053.5" y="100.9844"/><text fill="#000000" font-family="sans-serif" font-size="20" lengthAdjust="spacing" textLength="50" x="1066.5" y="109.4082">state</text><rect fill="none" height="6" style="stroke:#C82930;stroke-width:1.0;" width="6" x="1053.5" y="124.2656"/><text fill="#000000" font-family="sans-serif" font-size="20" lengthAdjust="spacing" textLength="78" x="1066.5" y="132.6895">zipcode</text></g><!--class Home--><g id="elem_Home"><rect codeLine="48" fill="#FFDAB9" height="134.4063" id="Home" rx="2.5" ry="2.5" style="stroke:#4169E1;stroke-width:0.5;" width="266" x="965" y="176"/><text fill="#000000" font-family="sans-serif" font-size="20" lengthAdjust="spacing" textLength="59" x="1068.5" y="199.5645">Home</text><line style="stroke:#4169E1;stroke-width:0.5;" x1="966" x2="1230" y1="209.2813" y2="209.2813"/><rect fill="none" height="6" style="stroke:#C82930;stroke-width:1.0;" width="6" x="973" y="223.4219"/><text fill="#000000" font-family="sans-serif" font-size="20" lengthAdjust="spacing" textLength="202" x="986" y="231.8457">numberOfbedrooms</text><rect fill="none" height="6" style="stroke:#C82930;stroke-width:1.0;" width="6" x="973" y="246.7031"/><text fill="#000000" font-family="sans-serif" font-size="20" lengthAdjust="spacing" textLength="210" x="986" y="255.127">numberOfbathrooms</text><rect fill="none" height="6" style="stroke:#C82930;stroke-width:1.0;" width="6" x="973" y="269.9844"/><text fill="#000000" font-family="sans-serif" font-size="20" lengthAdjust="spacing" textLength="239" x="986" y="278.4082">numberOfParkingSpace</text><rect fill="none" height="6" style="stroke:#C82930;stroke-width:1.0;" width="6" x="973" y="293.2656"/><text fill="#000000" font-family="sans-serif" font-size="20" lengthAdjust="spacing" textLength="201" x="986" y="301.6895">availableEquipment</text></g><!--class Land--><g id="elem_Land"><rect codeLine="55" fill="#FFDAB9" height="41.2813" id="Land" rx="2.5" ry="2.5" style="stroke:#4169E1;stroke-width:0.5;" width="55" x="1070.5" y="345.5"/><text fill="#000000" font-family="sans-serif" font-size="20" lengthAdjust="spacing" textLength="49" x="1073.5" y="369.0645">Land</text><line style="stroke:#4169E1;stroke-width:0.5;" x1="1071.5" x2="1124.5" y1="378.7813" y2="378.7813"/></g><!--class House--><g id="elem_House"><rect codeLine="59" fill="#FFDAB9" height="111.125" id="House" rx="2.5" ry="2.5" style="stroke:#4169E1;stroke-width:0.5;" width="179" x="1327" y="132.5"/><text fill="#000000" font-family="sans-serif" font-size="20" lengthAdjust="spacing" textLength="62" x="1385.5" y="156.0645">House</text><line style="stroke:#4169E1;stroke-width:0.5;" x1="1328" x2="1505" y1="165.7813" y2="165.7813"/><rect fill="none" height="6" style="stroke:#C82930;stroke-width:1.0;" width="6" x="1335" y="179.9219"/><text fill="#000000" font-family="sans-serif" font-size="20" lengthAdjust="spacing" textLength="100" x="1348" y="188.3457">basement</text><rect fill="none" height="6" style="stroke:#C82930;stroke-width:1.0;" width="6" x="1335" y="203.2031"/><text fill="#000000" font-family="sans-serif" font-size="20" lengthAdjust="spacing" textLength="152" x="1348" y="211.627">inhabitableLoft</text><rect fill="none" height="6" style="stroke:#C82930;stroke-width:1.0;" width="6" x="1335" y="226.4844"/><text fill="#000000" font-family="sans-serif" font-size="20" lengthAdjust="spacing" textLength="128" x="1348" y="234.9082">sunExposure</text></g><!--class Agent--><g id="elem_Agent"><rect fill="#FFDAB9" height="41.2813" id="Agent" rx="2.5" ry="2.5" style="stroke:#4169E1;stroke-width:0.5;" width="66" x="680" y="478.5"/><text fill="#000000" font-family="sans-serif" font-size="20" lengthAdjust="spacing" textLength="60" x="683" y="502.0645">Agent</text><line style="stroke:#4169E1;stroke-width:0.5;" x1="681" x2="745" y1="511.7813" y2="511.7813"/></g><!--class Sale--><g id="elem_Sale"><rect fill="#FFDAB9" height="41.2813" id="Sale" rx="2.5" ry="2.5" style="stroke:#4169E1;stroke-width:0.5;" width="49" x="688.5" y="87.5"/><text fill="#000000" font-family="sans-serif" font-size="20" lengthAdjust="spacing" textLength="43" x="691.5" y="111.0645">Sale</text><line style="stroke:#4169E1;stroke-width:0.5;" x1="689.5" x2="736.5" y1="120.7813" y2="120.7813"/></g><!--class Client--><g id="elem_Client"><rect fill="#FFDAB9" height="41.2813" id="Client" rx="2.5" ry="2.5" style="stroke:#4169E1;stroke-width:0.5;" width="65" x="39" y="365.5"/><text fill="#000000" font-family="sans-serif" font-size="20" lengthAdjust="spacing" textLength="59" x="42" y="389.0645">Client</text><line style="stroke:#4169E1;stroke-width:0.5;" x1="40" x2="103" y1="398.7813" y2="398.7813"/></g><!--class Apartment--><g id="elem_Apartment"><rect fill="#FFDAB9" height="41.2813" id="Apartment" rx="2.5" ry="2.5" style="stroke:#4169E1;stroke-width:0.5;" width="114" x="1359.5" y="278.5"/><text fill="#000000" font-family="sans-serif" font-size="20" lengthAdjust="spacing" textLength="108" x="1362.5" y="302.0645">Apartment</text><line style="stroke:#4169E1;stroke-width:0.5;" x1="1360.5" x2="1472.5" y1="311.7813" y2="311.7813"/></g><!--link Commission to Anouncement--><g id="link_Commission_Anouncement"><path codeLine="68" d="M136.02,469.13 C171.44,453.59 215.71,434.17 252.55,418.01 " fill="none" id="Commission-Anouncement" style="stroke:#4169E1;stroke-width:1.0;"/><polygon fill="#000000" points="166.6739,421.8545,181.816,420.3467,178.0379,411.7344,166.6739,421.8545" style="stroke:#000000;stroke-width:1.0;"/><text fill="#000000" font-family="sans-serif" font-size="20" lengthAdjust="spacing" textLength="35" x="187" y="425.5645">has</text><text fill="#000000" font-family="sans-serif" font-size="20" lengthAdjust="spacing" textLength="13" x="143.7878" y="485.9279">1</text><text fill="#000000" font-family="sans-serif" font-size="20" lengthAdjust="spacing" textLength="13" x="231.8821" y="440.7423">1</text></g><!--link Agent to Commission--><g id="link_Agent_Commission"><path codeLine="71" d="M679.74,504.11 C646.75,509.06 593.95,516.21 548,519 C400.76,527.95 227.67,513.72 136.37,504.29 " fill="none" id="Agent-Commission" style="stroke:#4169E1;stroke-width:1.0;"/><polygon fill="#000000" points="300.5,501.6433,314.9737,506.3408,314.9706,496.9362,300.5,501.6433" style="stroke:#000000;stroke-width:1.0;"/><text fill="#000000" font-family="sans-serif" font-size="20" lengthAdjust="spacing" textLength="30" x="321.5" y="508.5645">set</text><text fill="#000000" font-family="sans-serif" font-size="20" lengthAdjust="spacing" textLength="13" x="658.9123" y="498.4164">1</text><text fill="#000000" font-family="sans-serif" font-size="20" lengthAdjust="spacing" textLength="35" x="143.9635" y="524.6068">1..*</text></g><!--link Agent to Anouncement--><g id="link_Agent_Anouncement"><path codeLine="72" d="M679.68,490.73 C627.08,477.11 519.79,448.72 430,421 C420.3,418 410.13,414.72 400.12,411.39 " fill="none" id="Agent-Anouncement" style="stroke:#4169E1;stroke-width:1.0;"/><polygon fill="#000000" points="430.3039,406.4565,442.9424,414.9313,445.5101,405.884,430.3039,406.4565" style="stroke:#000000;stroke-width:1.0;"/><text fill="#000000" font-family="sans-serif" font-size="20" lengthAdjust="spacing" textLength="96" x="451" y="415.5645">publishes</text><text fill="#000000" font-family="sans-serif" font-size="20" lengthAdjust="spacing" textLength="13" x="659.0893" y="482.5258">1</text><text fill="#000000" font-family="sans-serif" font-size="20" lengthAdjust="spacing" textLength="10" x="408.2277" y="433.7813">*</text></g><!--link Anouncement to Agent--><g id="link_Anouncement_Agent"><path codeLine="76" d="M359.38,430.06 C377.46,451.33 402.05,474.84 430,487 C514.03,523.55 625.77,513.11 679.9,504.82 " fill="none" id="Anouncement-Agent" style="stroke:#4169E1;stroke-width:1.0;"/><polygon fill="#000000" points="456.7909,476.4578,443.7652,468.5911,441.6289,477.7499,456.7909,476.4578" style="stroke:#000000;stroke-width:1.0;"/><text fill="#000000" font-family="sans-serif" font-size="20" lengthAdjust="spacing" textLength="74" x="462" y="481.5645">send to</text><text fill="#000000" font-family="sans-serif" font-size="20" lengthAdjust="spacing" textLength="13" x="350.0897" y="456.4683">1</text><text fill="#000000" font-family="sans-serif" font-size="20" lengthAdjust="spacing" textLength="13" x="659.1038" y="526.7943">1</text></g><!--link Anouncement to Property--><g id="link_Anouncement_Property"><path codeLine="75" d="M400.27,358.93 C450.24,340.35 518.04,315.13 577.66,292.96 " fill="none" id="Anouncement-Property" style="stroke:#4169E1;stroke-width:1.0;"/><polygon fill="#000000" points="475.9983,290.8521,460.7947,291.4892,464.0728,300.304,475.9983,290.8521" style="stroke:#000000;stroke-width:1.0;"/><text fill="#000000" font-family="sans-serif" font-size="20" lengthAdjust="spacing" textLength="35" x="481.5" y="300.5645">has</text><text fill="#000000" font-family="sans-serif" font-size="20" lengthAdjust="spacing" textLength="13" x="407.9207" y="376.0313">1</text><text fill="#000000" font-family="sans-serif" font-size="20" lengthAdjust="spacing" textLength="13" x="556.9031" y="314.9018">1</text></g><!--link Anouncement to Sale--><g id="link_Anouncement_Sale"><path codeLine="77" d="M360.85,341.74 C404.55,287.03 486.47,195.15 578,146 C613.79,126.78 660.32,116.42 688.07,111.57 " fill="none" id="Anouncement-Sale" style="stroke:#4169E1;stroke-width:1.0;"/><polygon fill="#000000" points="459.0434,149.038,444.5009,153.5182,449.9117,161.2103,459.0434,149.038" style="stroke:#000000;stroke-width:1.0;"/><text fill="#000000" font-family="sans-serif" font-size="20" lengthAdjust="spacing" textLength="67" x="465.5" y="160.5645">can be</text><text fill="#000000" font-family="sans-serif" font-size="20" lengthAdjust="spacing" textLength="13" x="351.9405" y="329.1468">1</text><text fill="#000000" font-family="sans-serif" font-size="20" lengthAdjust="spacing" textLength="13" x="667.4089" y="133.8078">1</text></g><!--link Anouncement to Lease--><g id="link_Anouncement_Lease"><path codeLine="78" d="M400.27,386.76 C460.91,387.39 547.81,388.29 614.47,388.99 " fill="none" id="Anouncement-Lease" style="stroke:#4169E1;stroke-width:1.0;"/><polygon fill="#000000" points="460.4996,374.7239,446.0772,369.8712,445.9793,379.2753,460.4996,374.7239" style="stroke:#000000;stroke-width:1.0;"/><text fill="#000000" font-family="sans-serif" font-size="20" lengthAdjust="spacing" textLength="67" x="465.5" y="381.5645">can be</text><text fill="#000000" font-family="sans-serif" font-size="20" lengthAdjust="spacing" textLength="13" x="407.9207" y="406.5138">1</text><text fill="#000000" font-family="sans-serif" font-size="20" lengthAdjust="spacing" textLength="13" x="593.4286" y="408.3851">1</text></g><!--link Client to Anouncement--><g id="link_Client_Anouncement"><path codeLine="81" d="M104.03,386 C141.05,386 203.65,386 252.87,386 " fill="none" id="Client-Anouncement" style="stroke:#4169E1;stroke-width:1.0;"/><polygon fill="#000000" points="182.5,373.6406,168.0279,368.9383,168.0279,378.3429,182.5,373.6406" style="stroke:#000000;stroke-width:1.0;"/><text fill="#000000" font-family="sans-serif" font-size="20" lengthAdjust="spacing" textLength="34" x="187.5" y="380.5645">see</text><text fill="#000000" font-family="sans-serif" font-size="20" lengthAdjust="spacing" textLength="13" x="112.0799" y="406.9363">1</text><text fill="#000000" font-family="sans-serif" font-size="20" lengthAdjust="spacing" textLength="10" x="234.7613" y="405.7729">*</text></g><!--link Property to Address--><g id="link_Property_Address"><path codeLine="84" d="M848.22,183.77 C916.36,153.71 995.16,118.94 1045.5,96.73 " fill="none" id="Property-Address" style="stroke:#4169E1;stroke-width:1.0;"/><polygon fill="#000000" points="893.3193,133.4114,878.1805,134.951,881.9767,143.5553,893.3193,133.4114" style="stroke:#000000;stroke-width:1.0;"/><text fill="#000000" font-family="sans-serif" font-size="20" lengthAdjust="spacing" textLength="35" x="899" y="143.5645">has</text><text fill="#000000" font-family="sans-serif" font-size="20" lengthAdjust="spacing" textLength="13" x="855.9703" y="199.7405">1</text><text fill="#000000" font-family="sans-serif" font-size="20" lengthAdjust="spacing" textLength="13" x="1024.5719" y="119.8857">1</text></g><!--reverse link Property to Land--><g id="link_Property_Land"><path codeLine="87" d="M867.46,295.32 C899.61,306.01 933.36,317.04 965,327 C1001.35,338.45 1043.65,350.77 1070.37,358.43 " fill="none" id="Property-backto-Land" style="stroke:#4169E1;stroke-width:1.0;"/><polygon fill="none" points="864.96,301.87,848.21,288.9,869.4,288.59,864.96,301.87" style="stroke:#4169E1;stroke-width:1.0;"/><text fill="#000000" font-family="sans-serif" font-size="20" lengthAdjust="spacing" textLength="34" x="889.5" y="295.5645">is a</text></g><!--reverse link Property to Home--><g id="link_Property_Home"><path codeLine="88" d="M868.45,243 C900.42,243 933.83,243 964.91,243 " fill="none" id="Property-backto-Home" style="stroke:#4169E1;stroke-width:1.0;"/><polygon fill="none" points="868.22,250,848.22,243,868.22,236,868.22,250" style="stroke:#4169E1;stroke-width:1.0;"/><text fill="#000000" font-family="sans-serif" font-size="20" lengthAdjust="spacing" textLength="34" x="889.5" y="237.5645">is a</text></g><!--reverse link Home to Apartment--><g id="link_Home_Apartment"><path codeLine="89" d="M1251.18,269.93 C1289.78,276.76 1328.87,283.67 1359.24,289.04 " fill="none" id="Home-backto-Apartment" style="stroke:#4169E1;stroke-width:1.0;"/><polygon fill="none" points="1249.87,276.8,1231.39,266.42,1252.3,263.02,1249.87,276.8" style="stroke:#4169E1;stroke-width:1.0;"/><text fill="#000000" font-family="sans-serif" font-size="20" lengthAdjust="spacing" textLength="34" x="1262" y="267.5645">is a</text></g><!--reverse link Home to House--><g id="link_Home_House"><path codeLine="90" d="M1251.14,216.56 C1277.08,212.05 1303.24,207.51 1326.82,203.41 " fill="none" id="Home-backto-House" style="stroke:#4169E1;stroke-width:1.0;"/><polygon fill="none" points="1252.29,223.47,1231.39,219.99,1249.9,209.67,1252.29,223.47" style="stroke:#4169E1;stroke-width:1.0;"/><text fill="#000000" font-family="sans-serif" font-size="20" lengthAdjust="spacing" textLength="34" x="1262" y="203.5645">is a</text></g><!--SRC=[TLJBRjim4BppAuXS10ImaVPe104SDq4B1AXHVy6AN4b4A59TKacTfl_UDILPX1-yKEGEPsUN8uPNupeWQArNhwYbnWfw6v-zYplpWVBhdIZ2X96jTrurv5kKaNeKSwG3zGerxkBUeYHK4LnjSq1eGFjtusfPWGsOirhZCEuxb9vYuuN5Aihe9PcwYLAR0vlnBZ-XB8ImZf5CsKVyeRnBOkz4OpHAPKXnxlJT8bFg84IncCQpOOc1XRAOnJp42RtyAoIFHowi9jyxlV7MazmYg6RRLrMAhedy-n3uvVTW7ort9Htpf95E8_zo7Jm-rofw2f-Bar48CMZO-BOr8N3vevp5eL73rnkCb0DqxLYamXPT7A5S9CGHB3ioAaDloNT8SJz1Pre9X31-iYaWzNvOQiECdEEP7R0nSR_XN4XJWiP7NnDqJPZJl20477FmBKK25R_rD93EqhKc3674XKY8SJp3MQRTOoqVfbDUPyLyFnXogiJrROdqiofHa_TjEDs6s5pQtmBn_TSxDlAn4MzWB9GMdtxtfZiqDYiCdEQKkOR-MAaikUg47vR6DL2QUA1wyTMq6thtzAVpeQTpOuo3M-O6zuVp89kacFrHYCmhDrzkv6AHfimMSYKR2FAUpwrhNXSYJJDwkRozoIstaW6ZV3Y1tPwITdrfJMWmC9IfvnWdo82PgCbzewA7QxWXyK46TvkVXAl07V0_lP8Ad2pnEYpPCSTn1wr9IeVvUf411_malH378dB1WvEFTLsyrKM3n6weyLAi4CiZyJq_37APhBQI9aWuYoNdJx6q6FRN_935KVbPC5br3Fm7]--></g></svg>