<?xml version="1.0" encoding="UTF-8" standalone="no"?><svg xmlns="http://www.w3.org/2000/svg" xmlns:xlink="http://www.w3.org/1999/xlink" contentStyleType="text/css" height="1399px" preserveAspectRatio="none" style="width:2085px;height:1399px;background:#FFFFFF;" version="1.1" viewBox="0 0 2085 1399" width="2085px" zoomAndPan="magnify"><defs/><g><rect fill="#FFFFFF" height="1195.8438" style="stroke:#181818;stroke-width:1.0;" width="10" x="120.5" y="98.2813"/><rect fill="#FFFFFF" height="244.9688" style="stroke:#181818;stroke-width:1.0;" width="10" x="639.5" y="127.5625"/><rect fill="#FFFFFF" height="37.2813" style="stroke:#181818;stroke-width:1.0;" width="10" x="639.5" y="409.8125"/><rect fill="#FFFFFF" height="37.2813" style="stroke:#181818;stroke-width:1.0;" width="10" x="639.5" y="530.9375"/><rect fill="#FFFFFF" height="688.625" style="stroke:#181818;stroke-width:1.0;" width="10" x="639.5" y="605.5"/><rect fill="#FFFFFF" height="122.125" style="stroke:#181818;stroke-width:1.0;" width="10" x="1316.5" y="213.125"/><rect fill="#FFFFFF" height="590.7813" style="stroke:#181818;stroke-width:1.0;" width="10" x="1316.5" y="666.0625"/><rect fill="#FFFFFF" height="133.125" style="stroke:#181818;stroke-width:1.0;" width="10" x="1321.5" y="711.3438"/><rect fill="#FFFFFF" height="133.125" style="stroke:#181818;stroke-width:1.0;" width="10" x="1321.5" y="896.75"/><rect fill="#FFFFFF" height="122.125" style="stroke:#181818;stroke-width:1.0;" width="10" x="1995.5" y="1097.4375"/><line style="stroke:#181818;stroke-width:0.5;stroke-dasharray:5.0,5.0;" x1="125" x2="125" y1="88.2813" y2="1312.125"/><line style="stroke:#181818;stroke-width:0.5;stroke-dasharray:5.0,5.0;" x1="644.5" x2="644.5" y1="88.2813" y2="1312.125"/><line style="stroke:#181818;stroke-width:0.5;stroke-dasharray:5.0,5.0;" x1="1321.5" x2="1321.5" y1="169.7031" y2="1312.125"/><line style="stroke:#181818;stroke-width:0.5;stroke-dasharray:5.0,5.0;" x1="2000" x2="2000" y1="88.2813" y2="1312.125"/><text fill="#000000" font-family="sans-serif" font-size="20" lengthAdjust="spacing" textLength="235" x="5" y="83.5645">Organization Employee</text><ellipse cx="125.5" cy="13.5" fill="#E3E3E3" rx="8" ry="8" style="stroke:#181818;stroke-width:0.5;"/><path d="M125.5,21.5 L125.5,48.5 M112.5,29.5 L138.5,29.5 M125.5,48.5 L112.5,63.5 M125.5,48.5 L138.5,63.5 " fill="none" style="stroke:#181818;stroke-width:0.5;"/><text fill="#000000" font-family="sans-serif" font-size="20" lengthAdjust="spacing" textLength="235" x="5" y="1329.6895">Organization Employee</text><ellipse cx="125.5" cy="1342.9063" fill="#E3E3E3" rx="8" ry="8" style="stroke:#181818;stroke-width:0.5;"/><path d="M125.5,1350.9063 L125.5,1377.9063 M112.5,1358.9063 L138.5,1358.9063 M125.5,1377.9063 L112.5,1392.9063 M125.5,1377.9063 L138.5,1392.9063 " fill="none" style="stroke:#181818;stroke-width:0.5;"/><rect fill="#E3E3E3" height="37.2813" rx="2.5" ry="2.5" style="stroke:#181818;stroke-width:0.5;" width="154" x="567.5" y="50"/><text fill="#000000" font-family="sans-serif" font-size="20" lengthAdjust="spacing" textLength="140" x="574.5" y="75.5645">:CreateTaskUI</text><rect fill="#E3E3E3" height="37.2813" rx="2.5" ry="2.5" style="stroke:#181818;stroke-width:0.5;" width="154" x="567.5" y="1311.125"/><text fill="#000000" font-family="sans-serif" font-size="20" lengthAdjust="spacing" textLength="140" x="574.5" y="1336.6895">:CreateTaskUI</text><rect fill="#E3E3E3" height="37.2813" rx="2.5" ry="2.5" style="stroke:#181818;stroke-width:0.5;" width="232" x="1205.5" y="1311.125"/><text fill="#000000" font-family="sans-serif" font-size="20" lengthAdjust="spacing" textLength="218" x="1212.5" y="1336.6895">:CreateTaskController</text><rect fill="#E3E3E3" height="60.5625" rx="2.5" ry="2.5" style="stroke:#181818;stroke-width:0.5;" width="151" x="1925" y="26.7188"/><text fill="#000000" font-family="sans-serif" font-size="20" lengthAdjust="spacing" textLength="126" x="1937.5" y="52.2832">organization</text><text fill="#000000" font-family="sans-serif" font-size="20" lengthAdjust="spacing" textLength="137" x="1932" y="75.5645">:Organization</text><rect fill="#E3E3E3" height="60.5625" rx="2.5" ry="2.5" style="stroke:#181818;stroke-width:0.5;" width="151" x="1925" y="1311.125"/><text fill="#000000" font-family="sans-serif" font-size="20" lengthAdjust="spacing" textLength="126" x="1937.5" y="1336.6895">organization</text><text fill="#000000" font-family="sans-serif" font-size="20" lengthAdjust="spacing" textLength="137" x="1932" y="1359.9707">:Organization</text><rect fill="#FFFFFF" height="1195.8438" style="stroke:#181818;stroke-width:1.0;" width="10" x="120.5" y="98.2813"/><rect fill="#FFFFFF" height="244.9688" style="stroke:#181818;stroke-width:1.0;" width="10" x="639.5" y="127.5625"/><rect fill="#FFFFFF" height="37.2813" style="stroke:#181818;stroke-width:1.0;" width="10" x="639.5" y="409.8125"/><rect fill="#FFFFFF" height="37.2813" style="stroke:#181818;stroke-width:1.0;" width="10" x="639.5" y="530.9375"/><rect fill="#FFFFFF" height="688.625" style="stroke:#181818;stroke-width:1.0;" width="10" x="639.5" y="605.5"/><rect fill="#FFFFFF" height="122.125" style="stroke:#181818;stroke-width:1.0;" width="10" x="1316.5" y="213.125"/><rect fill="#FFFFFF" height="590.7813" style="stroke:#181818;stroke-width:1.0;" width="10" x="1316.5" y="666.0625"/><rect fill="#FFFFFF" height="133.125" style="stroke:#181818;stroke-width:1.0;" width="10" x="1321.5" y="711.3438"/><rect fill="#FFFFFF" height="133.125" style="stroke:#181818;stroke-width:1.0;" width="10" x="1321.5" y="896.75"/><rect fill="#FFFFFF" height="122.125" style="stroke:#181818;stroke-width:1.0;" width="10" x="1995.5" y="1097.4375"/><polygon fill="#181818" points="627.5,123.5625,637.5,127.5625,627.5,131.5625,631.5,127.5625" style="stroke:#181818;stroke-width:1.0;"/><line style="stroke:#181818;stroke-width:1.0;" x1="130.5" x2="633.5" y1="127.5625" y2="127.5625"/><text fill="#000000" font-family="sans-serif" font-size="20" font-weight="bold" lengthAdjust="spacing" textLength="14" x="137.5" y="120.8457">1</text><text fill="#000000" font-family="sans-serif" font-size="20" lengthAdjust="spacing" textLength="253" x="155.5" y="120.8457">asks to create a new task</text><polygon fill="#181818" points="1193.5,160.8438,1203.5,164.8438,1193.5,168.8438,1197.5,164.8438" style="stroke:#181818;stroke-width:1.0;"/><line style="stroke:#181818;stroke-width:1.0;" x1="649.5" x2="1199.5" y1="164.8438" y2="164.8438"/><text fill="#000000" font-family="sans-serif" font-size="20" font-weight="bold" lengthAdjust="spacing" textLength="14" x="656.5" y="158.127">2</text><text fill="#000000" font-family="sans-serif" font-size="20" lengthAdjust="spacing" textLength="63" x="674.5" y="158.127">create</text><rect fill="#E3E3E3" height="37.2813" rx="2.5" ry="2.5" style="stroke:#181818;stroke-width:0.5;" width="232" x="1205.5" y="135.5625"/><text fill="#000000" font-family="sans-serif" font-size="20" lengthAdjust="spacing" textLength="218" x="1212.5" y="161.127">:CreateTaskController</text><polygon fill="#181818" points="1304.5,209.125,1314.5,213.125,1304.5,217.125,1308.5,213.125" style="stroke:#181818;stroke-width:1.0;"/><line style="stroke:#181818;stroke-width:1.0;" x1="649.5" x2="1310.5" y1="213.125" y2="213.125"/><text fill="#000000" font-family="sans-serif" font-size="20" font-weight="bold" lengthAdjust="spacing" textLength="14" x="656.5" y="206.4082">3</text><text fill="#000000" font-family="sans-serif" font-size="20" lengthAdjust="spacing" textLength="202" x="674.5" y="206.4082">getTaskCategories()</text><rect fill="none" height="79.8438" style="stroke:#000000;stroke-width:1.5;" width="238" x="1202.5" y="221.125"/><path d="M1202.5,221.125 L1280.5,221.125 L1280.5,236.125 L1270.5,246.125 L1202.5,246.125 L1202.5,221.125 " fill="#EEEEEE" style="stroke:#000000;stroke-width:2.0;"/><text fill="#000000" font-family="sans-serif" font-size="20" font-weight="bold" lengthAdjust="spacing" textLength="33" x="1215.5" y="241.6895">ref</text><text fill="#000000" font-family="sans-serif" font-size="20" lengthAdjust="spacing" textLength="225" x="1209" y="268.6895">Get Task Category List</text><text fill="#000000" font-family="sans-serif" font-size="20" lengthAdjust="spacing" textLength="6" x="1318.5" y="291.9707"> </text><polygon fill="#181818" points="660.5,331.25,650.5,335.25,660.5,339.25,656.5,335.25" style="stroke:#181818;stroke-width:1.0;"/><line style="stroke:#181818;stroke-width:1.0;stroke-dasharray:2.0,2.0;" x1="654.5" x2="1320.5" y1="335.25" y2="335.25"/><text fill="#000000" font-family="sans-serif" font-size="20" font-weight="bold" lengthAdjust="spacing" textLength="14" x="666.5" y="328.5332">4</text><text fill="#000000" font-family="sans-serif" font-size="20" lengthAdjust="spacing" textLength="167" x="684.5" y="328.5332">taskCategoryList</text><polygon fill="#181818" points="141.5,368.5313,131.5,372.5313,141.5,376.5313,137.5,372.5313" style="stroke:#181818;stroke-width:1.0;"/><line style="stroke:#181818;stroke-width:1.0;stroke-dasharray:2.0,2.0;" x1="135.5" x2="643.5" y1="372.5313" y2="372.5313"/><text fill="#000000" font-family="sans-serif" font-size="20" font-weight="bold" lengthAdjust="spacing" textLength="14" x="147.5" y="365.8145">5</text><text fill="#000000" font-family="sans-serif" font-size="20" lengthAdjust="spacing" textLength="467" x="165.5" y="365.8145">shows task category list and asks to sleect one</text><polygon fill="#181818" points="627.5,405.8125,637.5,409.8125,627.5,413.8125,631.5,409.8125" style="stroke:#181818;stroke-width:1.0;"/><line style="stroke:#181818;stroke-width:1.0;" x1="130.5" x2="633.5" y1="409.8125" y2="409.8125"/><text fill="#000000" font-family="sans-serif" font-size="20" font-weight="bold" lengthAdjust="spacing" textLength="14" x="137.5" y="403.0957">6</text><text fill="#000000" font-family="sans-serif" font-size="20" lengthAdjust="spacing" textLength="228" x="155.5" y="403.0957">selects a task category</text><polygon fill="#181818" points="141.5,443.0938,131.5,447.0938,141.5,451.0938,137.5,447.0938" style="stroke:#181818;stroke-width:1.0;"/><line style="stroke:#181818;stroke-width:1.0;stroke-dasharray:2.0,2.0;" x1="135.5" x2="643.5" y1="447.0938" y2="447.0938"/><text fill="#000000" font-family="sans-serif" font-size="20" font-weight="bold" lengthAdjust="spacing" textLength="14" x="147.5" y="440.377">7</text><text fill="#000000" font-family="sans-serif" font-size="20" lengthAdjust="spacing" textLength="137" x="165.5" y="440.377">requests data</text><polygon fill="#181818" points="627.5,526.9375,637.5,530.9375,627.5,534.9375,631.5,530.9375" style="stroke:#181818;stroke-width:1.0;"/><line style="stroke:#181818;stroke-width:1.0;" x1="130.5" x2="633.5" y1="530.9375" y2="530.9375"/><text fill="#000000" font-family="sans-serif" font-size="20" font-weight="bold" lengthAdjust="spacing" textLength="14" x="137.5" y="500.9395">8</text><text fill="#000000" font-family="sans-serif" font-size="20" lengthAdjust="spacing" textLength="451" x="155.5" y="477.6582">types requested data (reference, description,</text><text fill="#000000" font-family="sans-serif" font-size="20" lengthAdjust="spacing" textLength="430" x="155.5" y="500.9395">informal description, technical description,</text><text fill="#000000" font-family="sans-serif" font-size="20" lengthAdjust="spacing" textLength="146" x="155.5" y="524.2207">duration, cost)</text><polygon fill="#181818" points="141.5,564.2188,131.5,568.2188,141.5,572.2188,137.5,568.2188" style="stroke:#181818;stroke-width:1.0;"/><line style="stroke:#181818;stroke-width:1.0;stroke-dasharray:2.0,2.0;" x1="135.5" x2="643.5" y1="568.2188" y2="568.2188"/><text fill="#000000" font-family="sans-serif" font-size="20" font-weight="bold" lengthAdjust="spacing" textLength="14" x="147.5" y="561.502">9</text><text fill="#000000" font-family="sans-serif" font-size="20" lengthAdjust="spacing" textLength="447" x="165.5" y="561.502">shows selected category and requested data</text><polygon fill="#181818" points="627.5,601.5,637.5,605.5,627.5,609.5,631.5,605.5" style="stroke:#181818;stroke-width:1.0;"/><line style="stroke:#181818;stroke-width:1.0;" x1="130.5" x2="633.5" y1="605.5" y2="605.5"/><text fill="#000000" font-family="sans-serif" font-size="20" font-weight="bold" lengthAdjust="spacing" textLength="28" x="137.5" y="598.7832">10</text><text fill="#000000" font-family="sans-serif" font-size="20" lengthAdjust="spacing" textLength="131" x="169.5" y="598.7832">submits data</text><polygon fill="#181818" points="1304.5,662.0625,1314.5,666.0625,1304.5,670.0625,1308.5,666.0625" style="stroke:#181818;stroke-width:1.0;"/><line style="stroke:#181818;stroke-width:1.0;" x1="649.5" x2="1310.5" y1="666.0625" y2="666.0625"/><text fill="#000000" font-family="sans-serif" font-size="20" font-weight="bold" lengthAdjust="spacing" textLength="28" x="656.5" y="647.7051">11</text><text fill="#000000" font-family="sans-serif" font-size="20" lengthAdjust="spacing" textLength="552" x="688.5" y="636.0645">createTask(reference, description, informalDescription,</text><text fill="#000000" font-family="sans-serif" font-size="20" lengthAdjust="spacing" textLength="616" x="688.5" y="659.3457">technicalDescription,duration, cost, taskCategoryDescription)</text><line style="stroke:#181818;stroke-width:1.0;" x1="1326.5" x2="1373.5" y1="698.3438" y2="698.3438"/><line style="stroke:#181818;stroke-width:1.0;" x1="1373.5" x2="1373.5" y1="698.3438" y2="711.3438"/><line style="stroke:#181818;stroke-width:1.0;" x1="1332.5" x2="1373.5" y1="711.3438" y2="711.3438"/><polygon fill="#181818" points="1342.5,707.3438,1332.5,711.3438,1342.5,715.3438,1338.5,711.3438" style="stroke:#181818;stroke-width:1.0;"/><text fill="#000000" font-family="sans-serif" font-size="20" font-weight="bold" lengthAdjust="spacing" textLength="28" x="1338.5" y="691.627">12</text><text fill="#000000" font-family="sans-serif" font-size="20" lengthAdjust="spacing" textLength="570" x="1370.5" y="691.627">getTaskCategoryByDescription(taskCategoryDescription)</text><rect fill="none" height="79.8438" style="stroke:#000000;stroke-width:1.5;" width="264" x="1202.5" y="724.3438"/><path d="M1202.5,724.3438 L1280.5,724.3438 L1280.5,739.3438 L1270.5,749.3438 L1202.5,749.3438 L1202.5,724.3438 " fill="#EEEEEE" style="stroke:#000000;stroke-width:2.0;"/><text fill="#000000" font-family="sans-serif" font-size="20" font-weight="bold" lengthAdjust="spacing" textLength="33" x="1215.5" y="744.9082">ref</text><text fill="#000000" font-family="sans-serif" font-size="20" lengthAdjust="spacing" textLength="256" x="1206.5" y="771.9082">Get Task Category Object</text><text fill="#000000" font-family="sans-serif" font-size="20" lengthAdjust="spacing" textLength="6" x="1331.5" y="795.1895"> </text><line style="stroke:#181818;stroke-width:1.0;stroke-dasharray:2.0,2.0;" x1="1331.5" x2="1373.5" y1="843.4688" y2="843.4688"/><line style="stroke:#181818;stroke-width:1.0;stroke-dasharray:2.0,2.0;" x1="1373.5" x2="1373.5" y1="843.4688" y2="856.4688"/><line style="stroke:#181818;stroke-width:1.0;stroke-dasharray:2.0,2.0;" x1="1326.5" x2="1373.5" y1="856.4688" y2="856.4688"/><polygon fill="#181818" points="1336.5,852.4688,1326.5,856.4688,1336.5,860.4688,1332.5,856.4688" style="stroke:#181818;stroke-width:1.0;"/><text fill="#000000" font-family="sans-serif" font-size="20" font-weight="bold" lengthAdjust="spacing" textLength="28" x="1338.5" y="836.752">13</text><text fill="#000000" font-family="sans-serif" font-size="20" lengthAdjust="spacing" textLength="132" x="1370.5" y="836.752">taskCategory</text><line style="stroke:#181818;stroke-width:1.0;" x1="1326.5" x2="1373.5" y1="883.75" y2="883.75"/><line style="stroke:#181818;stroke-width:1.0;" x1="1373.5" x2="1373.5" y1="883.75" y2="896.75"/><line style="stroke:#181818;stroke-width:1.0;" x1="1332.5" x2="1373.5" y1="896.75" y2="896.75"/><polygon fill="#181818" points="1342.5,892.75,1332.5,896.75,1342.5,900.75,1338.5,896.75" style="stroke:#181818;stroke-width:1.0;"/><text fill="#000000" font-family="sans-serif" font-size="20" font-weight="bold" lengthAdjust="spacing" textLength="28" x="1338.5" y="877.0332">14</text><text fill="#000000" font-family="sans-serif" font-size="20" lengthAdjust="spacing" textLength="276" x="1370.5" y="877.0332">getEmployeeFromSession()</text><rect fill="none" height="79.8438" style="stroke:#000000;stroke-width:1.5;" width="238" x="1202.5" y="909.75"/><path d="M1202.5,909.75 L1280.5,909.75 L1280.5,924.75 L1270.5,934.75 L1202.5,934.75 L1202.5,909.75 " fill="#EEEEEE" style="stroke:#000000;stroke-width:2.0;"/><text fill="#000000" font-family="sans-serif" font-size="20" font-weight="bold" lengthAdjust="spacing" textLength="33" x="1215.5" y="930.3145">ref</text><text fill="#000000" font-family="sans-serif" font-size="20" lengthAdjust="spacing" textLength="141" x="1251" y="957.3145">Get Employee</text><text fill="#000000" font-family="sans-serif" font-size="20" lengthAdjust="spacing" textLength="6" x="1318.5" y="980.5957"> </text><line style="stroke:#181818;stroke-width:1.0;" x1="1331.5" x2="1373.5" y1="1028.875" y2="1028.875"/><line style="stroke:#181818;stroke-width:1.0;" x1="1373.5" x2="1373.5" y1="1028.875" y2="1041.875"/><line style="stroke:#181818;stroke-width:1.0;" x1="1326.5" x2="1373.5" y1="1041.875" y2="1041.875"/><polygon fill="#181818" points="1336.5,1037.875,1326.5,1041.875,1336.5,1045.875,1332.5,1041.875" style="stroke:#181818;stroke-width:1.0;"/><text fill="#000000" font-family="sans-serif" font-size="20" font-weight="bold" lengthAdjust="spacing" textLength="28" x="1338.5" y="1022.1582">15</text><text fill="#000000" font-family="sans-serif" font-size="20" lengthAdjust="spacing" textLength="98" x="1370.5" y="1022.1582">employee</text><polygon fill="#181818" points="1983.5,1093.4375,1993.5,1097.4375,1983.5,1101.4375,1987.5,1097.4375" style="stroke:#181818;stroke-width:1.0;"/><line style="stroke:#181818;stroke-width:1.0;" x1="1326.5" x2="1989.5" y1="1097.4375" y2="1097.4375"/><text fill="#000000" font-family="sans-serif" font-size="20" font-weight="bold" lengthAdjust="spacing" textLength="28" x="1333.5" y="1079.0801">16</text><text fill="#000000" font-family="sans-serif" font-size="20" lengthAdjust="spacing" textLength="552" x="1365.5" y="1067.4395">createTask(reference, description, informalDescription,</text><text fill="#000000" font-family="sans-serif" font-size="20" lengthAdjust="spacing" textLength="618" x="1365.5" y="1090.7207">technicalDescription, duration, cost, taskCategory, employee)</text><rect fill="none" height="79.8438" style="stroke:#000000;stroke-width:1.5;" width="157" x="1922" y="1105.4375"/><path d="M1922,1105.4375 L2000,1105.4375 L2000,1120.4375 L1990,1130.4375 L1922,1130.4375 L1922,1105.4375 " fill="#EEEEEE" style="stroke:#000000;stroke-width:2.0;"/><text fill="#000000" font-family="sans-serif" font-size="20" font-weight="bold" lengthAdjust="spacing" textLength="33" x="1935" y="1126.002">ref</text><text fill="#000000" font-family="sans-serif" font-size="20" lengthAdjust="spacing" textLength="118" x="1941.5" y="1153.002">Create Task</text><text fill="#000000" font-family="sans-serif" font-size="20" lengthAdjust="spacing" textLength="6" x="1997.5" y="1176.2832"> </text><polygon fill="#181818" points="1337.5,1215.5625,1327.5,1219.5625,1337.5,1223.5625,1333.5,1219.5625" style="stroke:#181818;stroke-width:1.0;"/><line style="stroke:#181818;stroke-width:1.0;stroke-dasharray:2.0,2.0;" x1="1331.5" x2="1999.5" y1="1219.5625" y2="1219.5625"/><text fill="#000000" font-family="sans-serif" font-size="20" font-weight="bold" lengthAdjust="spacing" textLength="28" x="1343.5" y="1212.8457">17</text><text fill="#000000" font-family="sans-serif" font-size="20" lengthAdjust="spacing" textLength="42" x="1375.5" y="1212.8457">task</text><polygon fill="#181818" points="660.5,1252.8438,650.5,1256.8438,660.5,1260.8438,656.5,1256.8438" style="stroke:#181818;stroke-width:1.0;"/><line style="stroke:#181818;stroke-width:1.0;stroke-dasharray:2.0,2.0;" x1="654.5" x2="1320.5" y1="1256.8438" y2="1256.8438"/><text fill="#000000" font-family="sans-serif" font-size="20" font-weight="bold" lengthAdjust="spacing" textLength="28" x="666.5" y="1250.127">18</text><text fill="#000000" font-family="sans-serif" font-size="20" lengthAdjust="spacing" textLength="42" x="698.5" y="1250.127">task</text><polygon fill="#181818" points="136.5,1290.125,126.5,1294.125,136.5,1298.125,132.5,1294.125" style="stroke:#181818;stroke-width:1.0;"/><line style="stroke:#181818;stroke-width:1.0;stroke-dasharray:2.0,2.0;" x1="130.5" x2="643.5" y1="1294.125" y2="1294.125"/><text fill="#000000" font-family="sans-serif" font-size="20" font-weight="bold" lengthAdjust="spacing" textLength="28" x="142.5" y="1287.4082">19</text><text fill="#000000" font-family="sans-serif" font-size="20" lengthAdjust="spacing" textLength="266" x="174.5" y="1287.4082">displays operation success</text><!--SRC=[jLN1Rjim3BtxAuXSbXGfCEoOmu0jNOi27G8qxIqNHMOSBRBaIN8pz-j7oRKZDtQI0PrF2VNu-FX4INOdLC4CowNcEqmXnGqhfRlLoYt5AyANpubj891hfVdMw1p1cHAZbOBn7SjmwIg9O90xfZ8P0-oMfNelL0OR9Yqc2IkTLcM-HfCadxOYHTXexTRwJyAuqmP62vCn9LwP4rh1ZxoGka8S0RFmxUPdGgnES54mvM0qcnja3f-OtJtV1yZp_I1YJgqPBIMQW9m_FJvqiJegl5ApM4V8M3pU9LwaU27682O1-kW7N7-boZ0ZrCw2qy13LM2WS0-EeZMqJIQP8U0_IgHqB-VgYYZgr9vLMilGXKu8a6aZq8udBT3W1lGBchenYBuxTE3Ju2slWWTXtK40gjHd7mAjp43LuGf2hfjstK5C5JWRM8e37BuTolQUpMWszDu64k2DD4aqm4XHOwMLI6C5MjMUHCoDYV46M9I4jkHyX_Qq-wqWWxzBj9IUCiSkAUUg0csJvayHvS6Op4I3YkEKyYqtel0pD5qfeJRQv4nsmk2GRvNWxy8hbPQ6rGYkhPjSs4DjQkq3AMgDPM6NOw4N-LckSn4RScQ4sm7s0pTa13G-t7JwRNs8mrqJffsHYt2JouTtu3HLtsE-yTawPsgTFfB3HtEn_aKRTynrT4YFJkHRLx7m3dZmJFPRqzoyjtJjBz5QRyf_wBufCznnVyEjL6m8_hbNkiy_UbhXrBXEMwq3FeO7Pj16lzhdOlt2XJ7gDV4uI4pl9sR8lID9qGDmElDerm-tr0nIOGl9AWkwmDemkcaufp7hkvIYl_xL_Gi0]--></g></svg>