<?xml version="1.0" encoding="UTF-8" standalone="no"?><svg xmlns="http://www.w3.org/2000/svg" xmlns:xlink="http://www.w3.org/1999/xlink" contentStyleType="text/css" height="835px" preserveAspectRatio="none" style="width:2007px;height:835px;background:#FFFFFF;" version="1.1" viewBox="0 0 2007 835" width="2007px" zoomAndPan="magnify"><defs/><g><rect fill="#FFFFFF" height="646.0625" style="stroke:#181818;stroke-width:1.0;" width="10" x="327" y="105.8438"/><rect fill="#FFFFFF" height="37.2813" style="stroke:#181818;stroke-width:1.0;" width="10" x="558.5" y="175.4063"/><rect fill="#FFFFFF" height="37.2813" style="stroke:#181818;stroke-width:1.0;" width="10" x="779.5" y="249.9688"/><rect fill="#FFFFFF" height="37.2813" style="stroke:#181818;stroke-width:1.0;" width="10" x="976.5" y="324.5313"/><rect fill="#FFFFFF" height="37.2813" style="stroke:#181818;stroke-width:1.0;" width="10" x="1294" y="399.0938"/><rect fill="#FFFFFF" height="159.4063" style="stroke:#181818;stroke-width:1.0;" width="10" x="1502.5" y="473.6563"/><rect fill="#FFFFFF" height="37.2813" style="stroke:#181818;stroke-width:1.0;" width="10" x="1900.5" y="551.5"/><rect fill="#FFFFFF" height="37.2813" style="stroke:#181818;stroke-width:1.0;" width="10" x="1900.5" y="670.3438"/><rect fill="none" height="594.7813" style="stroke:#000000;stroke-width:1.5;" width="1795" x="206" y="120.8438"/><rect fill="none" height="108.125" style="stroke:#000000;stroke-width:1.5;" width="620" x="1371" y="488.6563"/><line style="stroke:#181818;stroke-width:0.5;stroke-dasharray:5.0,5.0;" x1="332" x2="332" y1="66.5625" y2="769.9063"/><line style="stroke:#181818;stroke-width:0.5;stroke-dasharray:5.0,5.0;" x1="563" x2="563" y1="66.5625" y2="769.9063"/><line style="stroke:#181818;stroke-width:0.5;stroke-dasharray:5.0,5.0;" x1="784" x2="784" y1="66.5625" y2="769.9063"/><line style="stroke:#181818;stroke-width:0.5;stroke-dasharray:5.0,5.0;" x1="981" x2="981" y1="66.5625" y2="769.9063"/><line style="stroke:#181818;stroke-width:0.5;stroke-dasharray:5.0,5.0;" x1="1145" x2="1145" y1="66.5625" y2="769.9063"/><line style="stroke:#181818;stroke-width:0.5;stroke-dasharray:5.0,5.0;" x1="1299" x2="1299" y1="66.5625" y2="769.9063"/><line style="stroke:#181818;stroke-width:0.5;stroke-dasharray:5.0,5.0;" x1="1507" x2="1507" y1="66.5625" y2="769.9063"/><line style="stroke:#181818;stroke-width:0.5;stroke-dasharray:5.0,5.0;" x1="1905" x2="1905" y1="66.5625" y2="769.9063"/><rect fill="#E3E3E3" height="37.2813" rx="2.5" ry="2.5" style="stroke:#181818;stroke-width:0.5;" width="232" x="216" y="28.2813"/><text fill="#000000" font-family="sans-serif" font-size="20" lengthAdjust="spacing" textLength="218" x="223" y="53.8457">:CreateTaskController</text><rect fill="#E3E3E3" height="37.2813" rx="2.5" ry="2.5" style="stroke:#181818;stroke-width:0.5;" width="232" x="216" y="768.9063"/><text fill="#000000" font-family="sans-serif" font-size="20" lengthAdjust="spacing" textLength="218" x="223" y="794.4707">:CreateTaskController</text><rect fill="#E3E3E3" height="37.2813" rx="2.5" ry="2.5" style="stroke:#181818;stroke-width:0.5;" width="211" x="458" y="28.2813"/><text fill="#000000" font-family="sans-serif" font-size="20" lengthAdjust="spacing" textLength="197" x="465" y="53.8457">:ApplicationSession</text><rect fill="#E3E3E3" height="37.2813" rx="2.5" ry="2.5" style="stroke:#181818;stroke-width:0.5;" width="211" x="458" y="768.9063"/><text fill="#000000" font-family="sans-serif" font-size="20" lengthAdjust="spacing" textLength="197" x="465" y="794.4707">:ApplicationSession</text><rect fill="#E3E3E3" height="60.5625" rx="2.5" ry="2.5" style="stroke:#181818;stroke-width:0.5;" width="211" x="679" y="5"/><text fill="#000000" font-family="sans-serif" font-size="20" lengthAdjust="spacing" textLength="114" x="727.5" y="30.5645">appSession</text><text fill="#000000" font-family="sans-serif" font-size="20" lengthAdjust="spacing" textLength="197" x="686" y="53.8457">:ApplicationSession</text><rect fill="#E3E3E3" height="60.5625" rx="2.5" ry="2.5" style="stroke:#181818;stroke-width:0.5;" width="211" x="679" y="768.9063"/><text fill="#000000" font-family="sans-serif" font-size="20" lengthAdjust="spacing" textLength="114" x="727.5" y="794.4707">appSession</text><text fill="#000000" font-family="sans-serif" font-size="20" lengthAdjust="spacing" textLength="197" x="686" y="817.752">:ApplicationSession</text><rect fill="#E3E3E3" height="60.5625" rx="2.5" ry="2.5" style="stroke:#181818;stroke-width:0.5;" width="163" x="900" y="5"/><text fill="#000000" font-family="sans-serif" font-size="20" lengthAdjust="spacing" textLength="149" x="907" y="30.5645">currentSession</text><text fill="#000000" font-family="sans-serif" font-size="20" lengthAdjust="spacing" textLength="128" x="917.5" y="53.8457">:UserSession</text><rect fill="#E3E3E3" height="60.5625" rx="2.5" ry="2.5" style="stroke:#181818;stroke-width:0.5;" width="163" x="900" y="768.9063"/><text fill="#000000" font-family="sans-serif" font-size="20" lengthAdjust="spacing" textLength="149" x="907" y="794.4707">currentSession</text><text fill="#000000" font-family="sans-serif" font-size="20" lengthAdjust="spacing" textLength="128" x="917.5" y="817.752">:UserSession</text><rect fill="#E3E3E3" height="37.2813" rx="2.5" ry="2.5" style="stroke:#181818;stroke-width:0.5;" width="144" x="1073" y="28.2813"/><text fill="#000000" font-family="sans-serif" font-size="20" lengthAdjust="spacing" textLength="130" x="1080" y="53.8457">:Repositories</text><rect fill="#E3E3E3" height="37.2813" rx="2.5" ry="2.5" style="stroke:#181818;stroke-width:0.5;" width="144" x="1073" y="768.9063"/><text fill="#000000" font-family="sans-serif" font-size="20" lengthAdjust="spacing" textLength="130" x="1080" y="794.4707">:Repositories</text><rect fill="#E3E3E3" height="60.5625" rx="2.5" ry="2.5" style="stroke:#181818;stroke-width:0.5;" width="144" x="1227" y="5"/><text fill="#000000" font-family="sans-serif" font-size="20" lengthAdjust="spacing" textLength="117" x="1240.5" y="30.5645">repositories</text><text fill="#000000" font-family="sans-serif" font-size="20" lengthAdjust="spacing" textLength="130" x="1234" y="53.8457">:Repositories</text><rect fill="#E3E3E3" height="60.5625" rx="2.5" ry="2.5" style="stroke:#181818;stroke-width:0.5;" width="144" x="1227" y="768.9063"/><text fill="#000000" font-family="sans-serif" font-size="20" lengthAdjust="spacing" textLength="117" x="1240.5" y="794.4707">repositories</text><text fill="#000000" font-family="sans-serif" font-size="20" lengthAdjust="spacing" textLength="130" x="1234" y="817.752">:Repositories</text><rect fill="#E3E3E3" height="60.5625" rx="2.5" ry="2.5" style="stroke:#181818;stroke-width:0.5;" width="253" x="1381" y="5"/><text fill="#000000" font-family="sans-serif" font-size="20" lengthAdjust="spacing" textLength="239" x="1388" y="30.5645">organizationRepository:</text><text fill="#000000" font-family="sans-serif" font-size="20" lengthAdjust="spacing" textLength="236" x="1389.5" y="53.8457">OrganizationRepository</text><rect fill="#E3E3E3" height="60.5625" rx="2.5" ry="2.5" style="stroke:#181818;stroke-width:0.5;" width="253" x="1381" y="768.9063"/><text fill="#000000" font-family="sans-serif" font-size="20" lengthAdjust="spacing" textLength="239" x="1388" y="794.4707">organizationRepository:</text><text fill="#000000" font-family="sans-serif" font-size="20" lengthAdjust="spacing" textLength="236" x="1389.5" y="817.752">OrganizationRepository</text><rect fill="#E3E3E3" height="60.5625" rx="2.5" ry="2.5" style="stroke:#181818;stroke-width:0.5;" width="151" x="1830" y="5"/><text fill="#000000" font-family="sans-serif" font-size="20" lengthAdjust="spacing" textLength="126" x="1842.5" y="30.5645">organization</text><text fill="#000000" font-family="sans-serif" font-size="20" lengthAdjust="spacing" textLength="137" x="1837" y="53.8457">:Organization</text><rect fill="#E3E3E3" height="60.5625" rx="2.5" ry="2.5" style="stroke:#181818;stroke-width:0.5;" width="151" x="1830" y="768.9063"/><text fill="#000000" font-family="sans-serif" font-size="20" lengthAdjust="spacing" textLength="126" x="1842.5" y="794.4707">organization</text><text fill="#000000" font-family="sans-serif" font-size="20" lengthAdjust="spacing" textLength="137" x="1837" y="817.752">:Organization</text><rect fill="#FFFFFF" height="646.0625" style="stroke:#181818;stroke-width:1.0;" width="10" x="327" y="105.8438"/><rect fill="#FFFFFF" height="37.2813" style="stroke:#181818;stroke-width:1.0;" width="10" x="558.5" y="175.4063"/><rect fill="#FFFFFF" height="37.2813" style="stroke:#181818;stroke-width:1.0;" width="10" x="779.5" y="249.9688"/><rect fill="#FFFFFF" height="37.2813" style="stroke:#181818;stroke-width:1.0;" width="10" x="976.5" y="324.5313"/><rect fill="#FFFFFF" height="37.2813" style="stroke:#181818;stroke-width:1.0;" width="10" x="1294" y="399.0938"/><rect fill="#FFFFFF" height="159.4063" style="stroke:#181818;stroke-width:1.0;" width="10" x="1502.5" y="473.6563"/><rect fill="#FFFFFF" height="37.2813" style="stroke:#181818;stroke-width:1.0;" width="10" x="1900.5" y="551.5"/><rect fill="#FFFFFF" height="37.2813" style="stroke:#181818;stroke-width:1.0;" width="10" x="1900.5" y="670.3438"/><polygon fill="#181818" points="315,101.8438,325,105.8438,315,109.8438,319,105.8438" style="stroke:#181818;stroke-width:1.0;"/><line style="stroke:#181818;stroke-width:1.0;" x1="0" x2="321" y1="105.8438" y2="105.8438"/><text fill="#000000" font-family="sans-serif" font-size="20" font-weight="bold" lengthAdjust="spacing" textLength="28" x="7" y="99.127">14</text><text fill="#000000" font-family="sans-serif" font-size="20" lengthAdjust="spacing" textLength="276" x="39" y="99.127">getEmployeeFromSession()</text><path d="M206,120.8438 L409,120.8438 L409,136.125 L399,146.125 L206,146.125 L206,120.8438 " fill="#EEEEEE" style="stroke:#000000;stroke-width:1.5;"/><rect fill="none" height="594.7813" style="stroke:#000000;stroke-width:1.5;" width="1795" x="206" y="120.8438"/><text fill="#000000" font-family="sans-serif" font-size="20" font-weight="bold" lengthAdjust="spacing" textLength="158" x="221" y="140.4082">Get Employee</text><polygon fill="#181818" points="546.5,171.4063,556.5,175.4063,546.5,179.4063,550.5,175.4063" style="stroke:#181818;stroke-width:1.0;"/><line style="stroke:#181818;stroke-width:1.0;" x1="337" x2="552.5" y1="175.4063" y2="175.4063"/><text fill="#000000" font-family="sans-serif" font-size="20" font-weight="bold" lengthAdjust="spacing" textLength="50" x="344" y="168.6895">14.1</text><text fill="#000000" font-family="sans-serif" font-size="20" lengthAdjust="spacing" textLength="134" x="398" y="168.6895">getInstance()</text><polygon fill="#181818" points="348,208.6875,338,212.6875,348,216.6875,344,212.6875" style="stroke:#181818;stroke-width:1.0;"/><line style="stroke:#181818;stroke-width:1.0;" x1="342" x2="562.5" y1="212.6875" y2="212.6875"/><text fill="#000000" font-family="sans-serif" font-size="20" font-weight="bold" lengthAdjust="spacing" textLength="50" x="354" y="205.9707">14.2</text><text fill="#000000" font-family="sans-serif" font-size="20" lengthAdjust="spacing" textLength="114" x="408" y="205.9707">appSession</text><polygon fill="#181818" points="767.5,245.9688,777.5,249.9688,767.5,253.9688,771.5,249.9688" style="stroke:#181818;stroke-width:1.0;"/><line style="stroke:#181818;stroke-width:1.0;" x1="337" x2="773.5" y1="249.9688" y2="249.9688"/><text fill="#000000" font-family="sans-serif" font-size="20" font-weight="bold" lengthAdjust="spacing" textLength="50" x="344" y="243.252">14.3</text><text fill="#000000" font-family="sans-serif" font-size="20" lengthAdjust="spacing" textLength="201" x="398" y="243.252">getCurrentSession()</text><polygon fill="#181818" points="348,283.25,338,287.25,348,291.25,344,287.25" style="stroke:#181818;stroke-width:1.0;"/><line style="stroke:#181818;stroke-width:1.0;stroke-dasharray:2.0,2.0;" x1="342" x2="783.5" y1="287.25" y2="287.25"/><text fill="#000000" font-family="sans-serif" font-size="20" font-weight="bold" lengthAdjust="spacing" textLength="50" x="354" y="280.5332">14.4</text><text fill="#000000" font-family="sans-serif" font-size="20" lengthAdjust="spacing" textLength="149" x="408" y="280.5332">currentSession</text><polygon fill="#181818" points="964.5,320.5313,974.5,324.5313,964.5,328.5313,968.5,324.5313" style="stroke:#181818;stroke-width:1.0;"/><line style="stroke:#181818;stroke-width:1.0;" x1="337" x2="970.5" y1="324.5313" y2="324.5313"/><text fill="#000000" font-family="sans-serif" font-size="20" font-weight="bold" lengthAdjust="spacing" textLength="50" x="344" y="317.8145">14.5</text><text fill="#000000" font-family="sans-serif" font-size="20" lengthAdjust="spacing" textLength="236" x="398" y="317.8145">email = getUserEmail()</text><polygon fill="#181818" points="348,357.8125,338,361.8125,348,365.8125,344,361.8125" style="stroke:#181818;stroke-width:1.0;"/><line style="stroke:#181818;stroke-width:1.0;stroke-dasharray:2.0,2.0;" x1="342" x2="980.5" y1="361.8125" y2="361.8125"/><text fill="#000000" font-family="sans-serif" font-size="20" font-weight="bold" lengthAdjust="spacing" textLength="50" x="354" y="355.0957">14.6</text><text fill="#000000" font-family="sans-serif" font-size="20" lengthAdjust="spacing" textLength="56" x="408" y="355.0957">email</text><polygon fill="#181818" points="1282,395.0938,1292,399.0938,1282,403.0938,1286,399.0938" style="stroke:#181818;stroke-width:1.0;"/><line style="stroke:#181818;stroke-width:1.0;" x1="337" x2="1288" y1="399.0938" y2="399.0938"/><text fill="#000000" font-family="sans-serif" font-size="20" font-weight="bold" lengthAdjust="spacing" textLength="50" x="344" y="392.377">14.7</text><text fill="#000000" font-family="sans-serif" font-size="20" lengthAdjust="spacing" textLength="285" x="398" y="392.377">getOrganizationRepository()</text><polygon fill="#181818" points="348,432.375,338,436.375,348,440.375,344,436.375" style="stroke:#181818;stroke-width:1.0;"/><line style="stroke:#181818;stroke-width:1.0;stroke-dasharray:2.0,2.0;" x1="342" x2="1298" y1="436.375" y2="436.375"/><text fill="#000000" font-family="sans-serif" font-size="20" font-weight="bold" lengthAdjust="spacing" textLength="50" x="354" y="429.6582">14.8</text><text fill="#000000" font-family="sans-serif" font-size="20" lengthAdjust="spacing" textLength="232" x="408" y="429.6582">organizationRepository</text><polygon fill="#181818" points="1490.5,469.6563,1500.5,473.6563,1490.5,477.6563,1494.5,473.6563" style="stroke:#181818;stroke-width:1.0;"/><line style="stroke:#181818;stroke-width:1.0;" x1="337" x2="1496.5" y1="473.6563" y2="473.6563"/><text fill="#000000" font-family="sans-serif" font-size="20" font-weight="bold" lengthAdjust="spacing" textLength="50" x="344" y="466.9395">14.9</text><text fill="#000000" font-family="sans-serif" font-size="20" lengthAdjust="spacing" textLength="362" x="398" y="466.9395">getOrganizationByUserEmail(email)</text><path d="M1371,488.6563 L1465,488.6563 L1465,503.9375 L1455,513.9375 L1371,513.9375 L1371,488.6563 " fill="#EEEEEE" style="stroke:#000000;stroke-width:1.5;"/><rect fill="none" height="108.125" style="stroke:#000000;stroke-width:1.5;" width="620" x="1371" y="488.6563"/><text fill="#000000" font-family="sans-serif" font-size="20" font-weight="bold" lengthAdjust="spacing" textLength="49" x="1386" y="508.2207">loop</text><text fill="#000000" font-family="sans-serif" font-size="20" font-weight="bold" lengthAdjust="spacing" textLength="272" x="1480" y="509.2207">[[for each organization]</text><polygon fill="#181818" points="1888.5,547.5,1898.5,551.5,1888.5,555.5,1892.5,551.5" style="stroke:#181818;stroke-width:1.0;"/><line style="stroke:#181818;stroke-width:1.0;" x1="1512.5" x2="1894.5" y1="551.5" y2="551.5"/><text fill="#000000" font-family="sans-serif" font-size="20" font-weight="bold" lengthAdjust="spacing" textLength="64" x="1519.5" y="544.7832">14.10</text><text fill="#000000" font-family="sans-serif" font-size="20" lengthAdjust="spacing" textLength="301" x="1587.5" y="544.7832">anyEmployeeHasEmail(email)</text><polygon fill="#181818" points="1523.5,584.7813,1513.5,588.7813,1523.5,592.7813,1519.5,588.7813" style="stroke:#181818;stroke-width:1.0;"/><line style="stroke:#181818;stroke-width:1.0;stroke-dasharray:2.0,2.0;" x1="1517.5" x2="1904.5" y1="588.7813" y2="588.7813"/><text fill="#000000" font-family="sans-serif" font-size="20" font-weight="bold" lengthAdjust="spacing" textLength="64" x="1529.5" y="582.0645">14.11</text><text fill="#000000" font-family="sans-serif" font-size="20" lengthAdjust="spacing" textLength="95" x="1597.5" y="582.0645">true/false</text><polygon fill="#181818" points="348,629.0625,338,633.0625,348,637.0625,344,633.0625" style="stroke:#181818;stroke-width:1.0;"/><line style="stroke:#181818;stroke-width:1.0;stroke-dasharray:2.0,2.0;" x1="342" x2="1506.5" y1="633.0625" y2="633.0625"/><text fill="#000000" font-family="sans-serif" font-size="20" font-weight="bold" lengthAdjust="spacing" textLength="64" x="354" y="626.3457">14.12</text><text fill="#000000" font-family="sans-serif" font-size="20" lengthAdjust="spacing" textLength="126" x="422" y="626.3457">organization</text><polygon fill="#181818" points="1888.5,666.3438,1898.5,670.3438,1888.5,674.3438,1892.5,670.3438" style="stroke:#181818;stroke-width:1.0;"/><line style="stroke:#181818;stroke-width:1.0;" x1="337" x2="1894.5" y1="670.3438" y2="670.3438"/><text fill="#000000" font-family="sans-serif" font-size="20" font-weight="bold" lengthAdjust="spacing" textLength="64" x="344" y="663.627">14.13</text><text fill="#000000" font-family="sans-serif" font-size="20" lengthAdjust="spacing" textLength="286" x="412" y="663.627">getEmployeeByEmail(email)</text><polygon fill="#181818" points="348,703.625,338,707.625,348,711.625,344,707.625" style="stroke:#181818;stroke-width:1.0;"/><line style="stroke:#181818;stroke-width:1.0;stroke-dasharray:2.0,2.0;" x1="342" x2="1904.5" y1="707.625" y2="707.625"/><text fill="#000000" font-family="sans-serif" font-size="20" font-weight="bold" lengthAdjust="spacing" textLength="64" x="354" y="700.9082">14.14</text><text fill="#000000" font-family="sans-serif" font-size="20" lengthAdjust="spacing" textLength="98" x="422" y="700.9082">employee</text><polygon fill="#181818" points="11,747.9063,1,751.9063,11,755.9063,7,751.9063" style="stroke:#181818;stroke-width:1.0;"/><line style="stroke:#181818;stroke-width:1.0;stroke-dasharray:2.0,2.0;" x1="5" x2="331" y1="751.9063" y2="751.9063"/><text fill="#000000" font-family="sans-serif" font-size="20" font-weight="bold" lengthAdjust="spacing" textLength="28" x="17" y="745.1895">15</text><text fill="#000000" font-family="sans-serif" font-size="20" lengthAdjust="spacing" textLength="98" x="49" y="745.1895">employee</text><!--SRC=[XLJ1Rjim3BtxAuXUjXsohSDs2RO2QP1c0meqYDFJ2XIgpJX2P4cGv6tkrqzIR4Uo5PIN81BVunFvJ7saN195QYQA8vPGufuqpDm9RdBwYl3bSwRx5AW55yL1YHh1g0Q36qcA8wamDor3K5WOmYiM9kW3ASLVoYlO4wOni_7kG4k4lH3cHVpBR9gX1PM46xYQBnKIWpkYZqkhH0d6K5q1qR3SRUz7kGif6Is8eOBdgBNzyPdFYyqcpYHITWbF_19g0YeQfT0sOm0-QbGX8b_b-U9Xf6cBKcXgXAAeVTPmqERKjSO87aDKWB1L9WIR-yKkHWXL4KvV_HFEzFCd_f2yy2pfgykyLaa8EN5irrb66lk2fdv11TTVizcD7mpCeKApgYKJBUATDKhNgFSVOi37wumKXlwnCpvDD0CRbHADX3KQw2dyiGlFRgkueVeYlxYs7YlGClSv0wEVF0JX3g3JE8Up3OQa4cFmf6vVTXcv8LKyWhlmjOVYiPrI0fBrJoQR0zQ4ClZXf3WVhjpVb8hEb96GqrcWnPEb98pHlGhdGT-6j8rIGhnj8ndk912HTd5ALKpLQqfBcQYyRS_zykzEQBtmSKJgcH0IVk-50Yli4AcFyboa-RpexTf-AuItlT5_4ftKDjNeFZv8XUESNMo8BUTMzgVJzXrZWowx0k4LyZ8kUEbLvnqGDIKroRSQFSnskuusoctxnW37pUbxqWd3yLf9lDkzrvC6- -gRF_a-cqs80WA_n_u3]--></g></svg>