<?xml version="1.0" encoding="UTF-8" standalone="no"?><svg xmlns="http://www.w3.org/2000/svg" xmlns:xlink="http://www.w3.org/1999/xlink" contentStyleType="text/css" height="1159px" preserveAspectRatio="none" style="width:2266px;height:1159px;background:#FFFFFF;" version="1.1" viewBox="0 0 2266 1159" width="2266px" zoomAndPan="magnify"><defs/><g><rect fill="#FFFFFF" height="955.0313" style="stroke:#181818;stroke-width:1.0;" width="10" x="90.5" y="98.2813"/><rect fill="#FFFFFF" height="197.4063" style="stroke:#181818;stroke-width:1.0;" width="10" x="707.5" y="127.5625"/><rect fill="#FFFFFF" height="37.2813" style="stroke:#181818;stroke-width:1.0;" width="10" x="707.5" y="362.25"/><rect fill="#FFFFFF" height="83.8438" style="stroke:#181818;stroke-width:1.0;" width="10" x="707.5" y="460.0938"/><rect fill="#FFFFFF" height="472.0938" style="stroke:#181818;stroke-width:1.0;" width="10" x="707.5" y="581.2188"/><rect fill="#FFFFFF" height="150.125" style="stroke:#181818;stroke-width:1.0;" width="10" x="1467.5" y="174.8438"/><rect fill="#FFFFFF" height="37.2813" style="stroke:#181818;stroke-width:1.0;" width="10" x="1677.5" y="213.125"/><rect fill="#FFFFFF" height="37.2813" style="stroke:#181818;stroke-width:1.0;" width="10" x="1831.5" y="287.6875"/><rect fill="#FFFFFF" height="359.9688" style="stroke:#181818;stroke-width:1.0;" width="10" x="2016" y="702.3438"/><rect fill="#FFFFFF" height="28" style="stroke:#181818;stroke-width:1.0;" width="10" x="2021" y="779.9063"/><rect fill="#FFFFFF" height="28" style="stroke:#181818;stroke-width:1.0;" width="10" x="2021" y="899.4688"/><rect fill="none" height="105.5625" style="stroke:#000000;stroke-width:1.5;" width="342.5" x="1908.5" y="717.3438"/><rect fill="none" height="105.5625" style="stroke:#000000;stroke-width:1.5;" width="351.5" x="1908.5" y="836.9063"/><line style="stroke:#181818;stroke-width:0.5;stroke-dasharray:5.0,5.0;" x1="95" x2="95" y1="88.2813" y2="1071.3125"/><line style="stroke:#181818;stroke-width:0.5;stroke-dasharray:5.0,5.0;" x1="712" x2="712" y1="88.2813" y2="1071.3125"/><line style="stroke:#181818;stroke-width:0.5;stroke-dasharray:5.0,5.0;" x1="1472.5" x2="1472.5" y1="169.7031" y2="1071.3125"/><line style="stroke:#181818;stroke-width:0.5;stroke-dasharray:5.0,5.0;" x1="1682.5" x2="1682.5" y1="88.2813" y2="1071.3125"/><line style="stroke:#181818;stroke-width:0.5;stroke-dasharray:5.0,5.0;" x1="1836.5" x2="1836.5" y1="88.2813" y2="1071.3125"/><line style="stroke:#181818;stroke-width:0.5;stroke-dasharray:5.0,5.0;" x1="2020.5" x2="2020.5" y1="88.2813" y2="1071.3125"/><text fill="#000000" font-family="sans-serif" font-size="20" lengthAdjust="spacing" textLength="175" x="5" y="83.5645">UnregisteredUser</text><ellipse cx="95.5" cy="13.5" fill="#E3E3E3" rx="8" ry="8" style="stroke:#181818;stroke-width:0.5;"/><path d="M95.5,21.5 L95.5,48.5 M82.5,29.5 L108.5,29.5 M95.5,48.5 L82.5,63.5 M95.5,48.5 L108.5,63.5 " fill="none" style="stroke:#181818;stroke-width:0.5;"/><text fill="#000000" font-family="sans-serif" font-size="20" lengthAdjust="spacing" textLength="175" x="5" y="1088.877">UnregisteredUser</text><ellipse cx="95.5" cy="1102.0938" fill="#E3E3E3" rx="8" ry="8" style="stroke:#181818;stroke-width:0.5;"/><path d="M95.5,1110.0938 L95.5,1137.0938 M82.5,1118.0938 L108.5,1118.0938 M95.5,1137.0938 L82.5,1152.0938 M95.5,1137.0938 L108.5,1152.0938 " fill="none" style="stroke:#181818;stroke-width:0.5;"/><rect fill="#E3E3E3" height="37.2813" rx="2.5" ry="2.5" style="stroke:#181818;stroke-width:0.5;" width="171" x="627" y="50"/><text fill="#000000" font-family="sans-serif" font-size="20" lengthAdjust="spacing" textLength="157" x="634" y="75.5645">ListPropertiesUI</text><rect fill="#E3E3E3" height="37.2813" rx="2.5" ry="2.5" style="stroke:#181818;stroke-width:0.5;" width="171" x="627" y="1070.3125"/><text fill="#000000" font-family="sans-serif" font-size="20" lengthAdjust="spacing" textLength="157" x="634" y="1095.877">ListPropertiesUI</text><rect fill="#E3E3E3" height="37.2813" rx="2.5" ry="2.5" style="stroke:#181818;stroke-width:0.5;" width="256" x="1344.5" y="1070.3125"/><text fill="#000000" font-family="sans-serif" font-size="20" lengthAdjust="spacing" textLength="242" x="1351.5" y="1095.877">:ListPropertiesController</text><rect fill="#E3E3E3" height="37.2813" rx="2.5" ry="2.5" style="stroke:#181818;stroke-width:0.5;" width="144" x="1610.5" y="50"/><text fill="#000000" font-family="sans-serif" font-size="20" lengthAdjust="spacing" textLength="130" x="1617.5" y="75.5645">:Repositories</text><rect fill="#E3E3E3" height="37.2813" rx="2.5" ry="2.5" style="stroke:#181818;stroke-width:0.5;" width="144" x="1610.5" y="1070.3125"/><text fill="#000000" font-family="sans-serif" font-size="20" lengthAdjust="spacing" textLength="130" x="1617.5" y="1095.877">:Repositories</text><rect fill="#E3E3E3" height="60.5625" rx="2.5" ry="2.5" style="stroke:#181818;stroke-width:0.5;" width="144" x="1764.5" y="26.7188"/><text fill="#000000" font-family="sans-serif" font-size="20" lengthAdjust="spacing" textLength="117" x="1778" y="52.2832">repositories</text><text fill="#000000" font-family="sans-serif" font-size="20" lengthAdjust="spacing" textLength="130" x="1771.5" y="75.5645">:Repositories</text><rect fill="#E3E3E3" height="60.5625" rx="2.5" ry="2.5" style="stroke:#181818;stroke-width:0.5;" width="144" x="1764.5" y="1070.3125"/><text fill="#000000" font-family="sans-serif" font-size="20" lengthAdjust="spacing" textLength="117" x="1778" y="1095.877">repositories</text><text fill="#000000" font-family="sans-serif" font-size="20" lengthAdjust="spacing" textLength="130" x="1771.5" y="1119.1582">:Repositories</text><rect fill="#E3E3E3" height="60.5625" rx="2.5" ry="2.5" style="stroke:#181818;stroke-width:0.5;" width="205" x="1918.5" y="26.7188"/><text fill="#000000" font-family="sans-serif" font-size="20" lengthAdjust="spacing" textLength="191" x="1925.5" y="52.2832">Propertyrepository:</text><text fill="#000000" font-family="sans-serif" font-size="20" lengthAdjust="spacing" textLength="184" x="1929" y="75.5645">Propertyrepository</text><rect fill="#E3E3E3" height="60.5625" rx="2.5" ry="2.5" style="stroke:#181818;stroke-width:0.5;" width="205" x="1918.5" y="1070.3125"/><text fill="#000000" font-family="sans-serif" font-size="20" lengthAdjust="spacing" textLength="191" x="1925.5" y="1095.877">Propertyrepository:</text><text fill="#000000" font-family="sans-serif" font-size="20" lengthAdjust="spacing" textLength="184" x="1929" y="1119.1582">Propertyrepository</text><rect fill="#FFFFFF" height="955.0313" style="stroke:#181818;stroke-width:1.0;" width="10" x="90.5" y="98.2813"/><rect fill="#FFFFFF" height="197.4063" style="stroke:#181818;stroke-width:1.0;" width="10" x="707.5" y="127.5625"/><rect fill="#FFFFFF" height="37.2813" style="stroke:#181818;stroke-width:1.0;" width="10" x="707.5" y="362.25"/><rect fill="#FFFFFF" height="83.8438" style="stroke:#181818;stroke-width:1.0;" width="10" x="707.5" y="460.0938"/><rect fill="#FFFFFF" height="472.0938" style="stroke:#181818;stroke-width:1.0;" width="10" x="707.5" y="581.2188"/><rect fill="#FFFFFF" height="150.125" style="stroke:#181818;stroke-width:1.0;" width="10" x="1467.5" y="174.8438"/><rect fill="#FFFFFF" height="37.2813" style="stroke:#181818;stroke-width:1.0;" width="10" x="1677.5" y="213.125"/><rect fill="#FFFFFF" height="37.2813" style="stroke:#181818;stroke-width:1.0;" width="10" x="1831.5" y="287.6875"/><rect fill="#FFFFFF" height="359.9688" style="stroke:#181818;stroke-width:1.0;" width="10" x="2016" y="702.3438"/><rect fill="#FFFFFF" height="28" style="stroke:#181818;stroke-width:1.0;" width="10" x="2021" y="779.9063"/><rect fill="#FFFFFF" height="28" style="stroke:#181818;stroke-width:1.0;" width="10" x="2021" y="899.4688"/><polygon fill="#181818" points="695.5,123.5625,705.5,127.5625,695.5,131.5625,699.5,127.5625" style="stroke:#181818;stroke-width:1.0;"/><line style="stroke:#181818;stroke-width:1.0;" x1="100.5" x2="701.5" y1="127.5625" y2="127.5625"/><text fill="#000000" font-family="sans-serif" font-size="20" font-weight="bold" lengthAdjust="spacing" textLength="14" x="107.5" y="120.8457">1</text><text fill="#000000" font-family="sans-serif" font-size="20" lengthAdjust="spacing" textLength="246" x="125.5" y="120.8457">asks to shows properties</text><polygon fill="#181818" points="1332.5,160.8438,1342.5,164.8438,1332.5,168.8438,1336.5,164.8438" style="stroke:#181818;stroke-width:1.0;"/><line style="stroke:#181818;stroke-width:1.0;" x1="717.5" x2="1338.5" y1="164.8438" y2="164.8438"/><text fill="#000000" font-family="sans-serif" font-size="20" font-weight="bold" lengthAdjust="spacing" textLength="14" x="724.5" y="158.127">2</text><text fill="#000000" font-family="sans-serif" font-size="20" lengthAdjust="spacing" textLength="63" x="742.5" y="158.127">create</text><rect fill="#E3E3E3" height="37.2813" rx="2.5" ry="2.5" style="stroke:#181818;stroke-width:0.5;" width="256" x="1344.5" y="135.5625"/><text fill="#000000" font-family="sans-serif" font-size="20" lengthAdjust="spacing" textLength="242" x="1351.5" y="161.127">:ListPropertiesController</text><polygon fill="#181818" points="1665.5,209.125,1675.5,213.125,1665.5,217.125,1669.5,213.125" style="stroke:#181818;stroke-width:1.0;"/><line style="stroke:#181818;stroke-width:1.0;" x1="1477.5" x2="1671.5" y1="213.125" y2="213.125"/><text fill="#000000" font-family="sans-serif" font-size="20" font-weight="bold" lengthAdjust="spacing" textLength="14" x="1484.5" y="206.4082">3</text><text fill="#000000" font-family="sans-serif" font-size="20" lengthAdjust="spacing" textLength="134" x="1502.5" y="206.4082">getInstance()</text><polygon fill="#181818" points="1488.5,246.4063,1478.5,250.4063,1488.5,254.4063,1484.5,250.4063" style="stroke:#181818;stroke-width:1.0;"/><line style="stroke:#181818;stroke-width:1.0;stroke-dasharray:2.0,2.0;" x1="1482.5" x2="1681.5" y1="250.4063" y2="250.4063"/><text fill="#000000" font-family="sans-serif" font-size="20" font-weight="bold" lengthAdjust="spacing" textLength="14" x="1494.5" y="243.6895">4</text><text fill="#000000" font-family="sans-serif" font-size="20" lengthAdjust="spacing" textLength="117" x="1512.5" y="243.6895">repositories</text><polygon fill="#181818" points="1819.5,283.6875,1829.5,287.6875,1819.5,291.6875,1823.5,287.6875" style="stroke:#181818;stroke-width:1.0;"/><line style="stroke:#181818;stroke-width:1.0;" x1="1477.5" x2="1825.5" y1="287.6875" y2="287.6875"/><text fill="#000000" font-family="sans-serif" font-size="20" font-weight="bold" lengthAdjust="spacing" textLength="14" x="1484.5" y="280.9707">5</text><text fill="#000000" font-family="sans-serif" font-size="20" lengthAdjust="spacing" textLength="256" x="1502.5" y="280.9707">getPropertiesRepository()</text><polygon fill="#181818" points="1483.5,320.9688,1473.5,324.9688,1483.5,328.9688,1479.5,324.9688" style="stroke:#181818;stroke-width:1.0;"/><line style="stroke:#181818;stroke-width:1.0;stroke-dasharray:2.0,2.0;" x1="1477.5" x2="1835.5" y1="324.9688" y2="324.9688"/><text fill="#000000" font-family="sans-serif" font-size="20" font-weight="bold" lengthAdjust="spacing" textLength="14" x="1489.5" y="318.252">6</text><text fill="#000000" font-family="sans-serif" font-size="20" lengthAdjust="spacing" textLength="207" x="1507.5" y="318.252">PropertiesRepository</text><polygon fill="#181818" points="695.5,358.25,705.5,362.25,695.5,366.25,699.5,362.25" style="stroke:#181818;stroke-width:1.0;"/><line style="stroke:#181818;stroke-width:1.0;" x1="100.5" x2="701.5" y1="362.25" y2="362.25"/><text fill="#000000" font-family="sans-serif" font-size="20" font-weight="bold" lengthAdjust="spacing" textLength="14" x="107.5" y="355.5332">7</text><text fill="#000000" font-family="sans-serif" font-size="20" lengthAdjust="spacing" textLength="274" x="125.5" y="355.5332">selects the type of property</text><polygon fill="#181818" points="111.5,395.5313,101.5,399.5313,111.5,403.5313,107.5,399.5313" style="stroke:#181818;stroke-width:1.0;"/><line style="stroke:#181818;stroke-width:1.0;stroke-dasharray:2.0,2.0;" x1="105.5" x2="711.5" y1="399.5313" y2="399.5313"/><text fill="#000000" font-family="sans-serif" font-size="20" font-weight="bold" lengthAdjust="spacing" textLength="14" x="117.5" y="392.8145">8</text><text fill="#000000" font-family="sans-serif" font-size="20" lengthAdjust="spacing" textLength="312" x="135.5" y="392.8145">shows filters and requests data</text><polygon fill="#181818" points="695.5,456.0938,705.5,460.0938,695.5,464.0938,699.5,460.0938" style="stroke:#181818;stroke-width:1.0;"/><line style="stroke:#181818;stroke-width:1.0;" x1="100.5" x2="701.5" y1="460.0938" y2="460.0938"/><text fill="#000000" font-family="sans-serif" font-size="20" font-weight="bold" lengthAdjust="spacing" textLength="14" x="107.5" y="441.7363">9</text><text fill="#000000" font-family="sans-serif" font-size="20" lengthAdjust="spacing" textLength="470" x="125.5" y="430.0957">Selects requested data (bedrooms, bathrooms,</text><text fill="#000000" font-family="sans-serif" font-size="20" lengthAdjust="spacing" textLength="376" x="131.5" y="453.377">type of contract and type of property)</text><polygon fill="#181818" points="111.5,539.9375,101.5,543.9375,111.5,547.9375,107.5,543.9375" style="stroke:#181818;stroke-width:1.0;"/><line style="stroke:#181818;stroke-width:1.0;stroke-dasharray:2.0,2.0;" x1="105.5" x2="711.5" y1="543.9375" y2="543.9375"/><text fill="#000000" font-family="sans-serif" font-size="20" font-weight="bold" lengthAdjust="spacing" textLength="28" x="117.5" y="513.9395">10</text><text fill="#000000" font-family="sans-serif" font-size="20" lengthAdjust="spacing" textLength="551" x="149.5" y="490.6582">shows selected category and requested data(rent, buy,</text><text fill="#000000" font-family="sans-serif" font-size="20" lengthAdjust="spacing" textLength="402" x="149.5" y="513.9395">number of rooms,number of bathrooms,</text><text fill="#000000" font-family="sans-serif" font-size="20" lengthAdjust="spacing" textLength="254" x="155.5" y="537.2207">land, house, apartament)</text><polygon fill="#181818" points="695.5,577.2188,705.5,581.2188,695.5,585.2188,699.5,581.2188" style="stroke:#181818;stroke-width:1.0;"/><line style="stroke:#181818;stroke-width:1.0;" x1="100.5" x2="701.5" y1="581.2188" y2="581.2188"/><text fill="#000000" font-family="sans-serif" font-size="20" font-weight="bold" lengthAdjust="spacing" textLength="28" x="107.5" y="574.502">11</text><text fill="#000000" font-family="sans-serif" font-size="20" lengthAdjust="spacing" textLength="105" x="139.5" y="574.502">types data</text><polygon fill="#181818" points="1460.5,661.0625,1470.5,665.0625,1460.5,669.0625,1464.5,665.0625" style="stroke:#181818;stroke-width:1.0;"/><line style="stroke:#181818;stroke-width:1.0;" x1="717.5" x2="1466.5" y1="665.0625" y2="665.0625"/><text fill="#000000" font-family="sans-serif" font-size="20" font-weight="bold" lengthAdjust="spacing" textLength="28" x="724.5" y="635.0645">12</text><text fill="#000000" font-family="sans-serif" font-size="20" lengthAdjust="spacing" textLength="699" x="756.5" y="611.7832">parameters:getPropertiesWithParameters(rent, buy,number of rooms,</text><text fill="#000000" font-family="sans-serif" font-size="20" lengthAdjust="spacing" textLength="556" x="756.5" y="635.0645">number of bathrooms, land, house, apartament, sort by</text><text fill="#000000" font-family="sans-serif" font-size="20" lengthAdjust="spacing" textLength="576" x="762.5" y="658.3457">price ascending, sort bt price descending , sort by parish)</text><polygon fill="#181818" points="2004,698.3438,2014,702.3438,2004,706.3438,2008,702.3438" style="stroke:#181818;stroke-width:1.0;"/><line style="stroke:#181818;stroke-width:1.0;" x1="1472.5" x2="2010" y1="702.3438" y2="702.3438"/><text fill="#000000" font-family="sans-serif" font-size="20" font-weight="bold" lengthAdjust="spacing" textLength="28" x="1479.5" y="695.627">13</text><text fill="#000000" font-family="sans-serif" font-size="20" lengthAdjust="spacing" textLength="115" x="1511.5" y="695.627">parameters</text><path d="M1908.5,717.3438 L1991.5,717.3438 L1991.5,732.625 L1981.5,742.625 L1908.5,742.625 L1908.5,717.3438 " fill="#EEEEEE" style="stroke:#000000;stroke-width:1.5;"/><rect fill="none" height="105.5625" style="stroke:#000000;stroke-width:1.5;" width="342.5" x="1908.5" y="717.3438"/><text fill="#000000" font-family="sans-serif" font-size="20" font-weight="bold" lengthAdjust="spacing" textLength="38" x="1923.5" y="736.9082">opt</text><line style="stroke:#181818;stroke-width:1.0;" x1="2031" x2="2073" y1="771.9063" y2="771.9063"/><line style="stroke:#181818;stroke-width:1.0;" x1="2073" x2="2073" y1="771.9063" y2="784.9063"/><line style="stroke:#181818;stroke-width:1.0;" x1="2032" x2="2073" y1="784.9063" y2="784.9063"/><polygon fill="#181818" points="2042,780.9063,2032,784.9063,2042,788.9063,2038,784.9063" style="stroke:#181818;stroke-width:1.0;"/><text fill="#000000" font-family="sans-serif" font-size="20" font-weight="bold" lengthAdjust="spacing" textLength="28" x="2038" y="765.1895">14</text><text fill="#000000" font-family="sans-serif" font-size="20" lengthAdjust="spacing" textLength="169" x="2070" y="765.1895">sort(parameters)</text><path d="M1908.5,836.9063 L1991.5,836.9063 L1991.5,852.1875 L1981.5,862.1875 L1908.5,862.1875 L1908.5,836.9063 " fill="#EEEEEE" style="stroke:#000000;stroke-width:1.5;"/><rect fill="none" height="105.5625" style="stroke:#000000;stroke-width:1.5;" width="351.5" x="1908.5" y="836.9063"/><text fill="#000000" font-family="sans-serif" font-size="20" font-weight="bold" lengthAdjust="spacing" textLength="38" x="1923.5" y="856.4707">opt</text><line style="stroke:#181818;stroke-width:1.0;" x1="2031" x2="2073" y1="891.4688" y2="891.4688"/><line style="stroke:#181818;stroke-width:1.0;" x1="2073" x2="2073" y1="891.4688" y2="904.4688"/><line style="stroke:#181818;stroke-width:1.0;" x1="2032" x2="2073" y1="904.4688" y2="904.4688"/><polygon fill="#181818" points="2042,900.4688,2032,904.4688,2042,908.4688,2038,904.4688" style="stroke:#181818;stroke-width:1.0;"/><text fill="#000000" font-family="sans-serif" font-size="20" font-weight="bold" lengthAdjust="spacing" textLength="28" x="2038" y="884.752">15</text><text fill="#000000" font-family="sans-serif" font-size="20" lengthAdjust="spacing" textLength="178" x="2070" y="884.752">filter(parameters)</text><polygon fill="#181818" points="1483.5,974.75,1473.5,978.75,1483.5,982.75,1479.5,978.75" style="stroke:#181818;stroke-width:1.0;"/><line style="stroke:#181818;stroke-width:1.0;stroke-dasharray:2.0,2.0;" x1="1477.5" x2="2015" y1="978.75" y2="978.75"/><text fill="#000000" font-family="sans-serif" font-size="20" font-weight="bold" lengthAdjust="spacing" textLength="28" x="1489.5" y="972.0332">16</text><text fill="#000000" font-family="sans-serif" font-size="20" lengthAdjust="spacing" textLength="102" x="1521.5" y="972.0332">properties</text><polygon fill="#181818" points="728.5,1012.0313,718.5,1016.0313,728.5,1020.0313,724.5,1016.0313" style="stroke:#181818;stroke-width:1.0;"/><line style="stroke:#181818;stroke-width:1.0;stroke-dasharray:2.0,2.0;" x1="722.5" x2="1471.5" y1="1016.0313" y2="1016.0313"/><text fill="#000000" font-family="sans-serif" font-size="20" font-weight="bold" lengthAdjust="spacing" textLength="28" x="734.5" y="1009.3145">17</text><text fill="#000000" font-family="sans-serif" font-size="20" lengthAdjust="spacing" textLength="102" x="766.5" y="1009.3145">properties</text><polygon fill="#181818" points="106.5,1049.3125,96.5,1053.3125,106.5,1057.3125,102.5,1053.3125" style="stroke:#181818;stroke-width:1.0;"/><line style="stroke:#181818;stroke-width:1.0;stroke-dasharray:2.0,2.0;" x1="100.5" x2="711.5" y1="1053.3125" y2="1053.3125"/><text fill="#000000" font-family="sans-serif" font-size="20" font-weight="bold" lengthAdjust="spacing" textLength="28" x="112.5" y="1046.5957">18</text><text fill="#000000" font-family="sans-serif" font-size="20" lengthAdjust="spacing" textLength="418" x="144.5" y="1046.5957">displays properties and operation success</text><!--SRC=[jLLDQ-Cm4BthLmozj2a9B7lC8L1Q5W9TA4t3NdfHv74iuaXUITwkzzVlI79iENQwxM45WLWpy-RDf-n1geeRVYorE6066UQyBjqthTn6_a7u-eNPameSjTAYCFg8u4oDYQJYui3tk75DYM1GEAxsPQfW2vxfDwdsaFFI8cEyTbhLnnqQnguBcI7aMhkT_isuSDh0rLOPt4lhq62sjMYkW5kuU_ZE2D198Ikk75mzaiQJqHNI7ThjEcXjrqEbvL3hde8pkYnRpFkNvySp_MUij9L4WxI3JdVHRAIFZBWFJKnYyQh604-FToz3YvPFqrasorSrlWpMBzmUxhd3FLtqL5Wub2xvYsGXDmpQGn-mM54cO4a01mjEKmtqcuMgoqEltM5GvjWr98S05eJZuPPKs9yrMcSXuux3ZS6SYgC4pgbjh32oSbAhEO1KkJP7NiAh6aeSYa99GPB1TLOR7ly9RTsCfGIkXK7FB5JfdDagND_U4hUenjX0fuihM0z4_lXR3p9HNKBSerihIvqiy6OsiksWfrfZfEtFb9T56uBFRTyn8_CCF-Vk59ZlkXX9t_qzm7jHXNwT32DWzhodWD_Z7u7FwfJ8OwNOXCJtvdbhMonfsL1t5xIIcWf1vwS6Zon6rgEcZbEHov8sZGMkic6Rim-msBGiMaE_HiE0x30pMX_j77RS5V4lZSI9gF1xY823qtFsiq_HZtaWnwBT4caWBH-QL-M8IjqGYRXwlSD8g_yUK2q9PWw5hYqDEVVxYny9PVQHhFY8aXockZ6AnIgsK7WXqAT_EUZK7z8LJvqieNzEFWsdft-9_1oiDWvs3SLN6IcG5gH0bT4udKIk5VWj5INGMNcwqXOn1Jw0nMfwFI_xkDWm0vVMkLVIbMDiMk6Y8y_iflSsO__ob5JkWWP57QZutoVPn57wJtocnNuUGYybZriepMArNQUNeytJpz8ICcchaZVf4nd6o7-4zmbiBGHQEzNzoQT_YFy2]--></g></svg>