<?xml version="1.0" encoding="UTF-8" standalone="no"?><svg xmlns="http://www.w3.org/2000/svg" xmlns:xlink="http://www.w3.org/1999/xlink" contentStyleType="text/css" height="597px" preserveAspectRatio="none" style="width:1066px;height:597px;background:#FFFFFF;" version="1.1" viewBox="0 0 1066 597" width="1066px" zoomAndPan="magnify"><defs/><g><rect fill="#FFFFFF" height="361.5313" style="stroke:#181818;stroke-width:1.0;" width="10" x="473" y="152.4063"/><rect fill="#FFFFFF" height="148.8438" style="stroke:#181818;stroke-width:1.0;" width="10" x="478" y="313.8125"/><rect fill="#FFFFFF" height="48.2813" style="stroke:#181818;stroke-width:1.0;" width="10" x="483" y="364.0938"/><rect fill="none" height="310.25" style="stroke:#000000;stroke-width:1.5;" width="667.5" x="392.5" y="167.4063"/><line style="stroke:#181818;stroke-width:0.5;stroke-dasharray:5.0,5.0;" x1="477.5" x2="477.5" y1="66.5625" y2="531.9375"/><line style="stroke:#181818;stroke-width:0.5;stroke-dasharray:5.0,5.0;" x1="1016" x2="1016" y1="244.6094" y2="531.9375"/><rect fill="#E3E3E3" height="60.5625" rx="2.5" ry="2.5" style="stroke:#181818;stroke-width:0.5;" width="151" x="402.5" y="5"/><text fill="#000000" font-family="sans-serif" font-size="20" lengthAdjust="spacing" textLength="126" x="415" y="30.5645">organization</text><text fill="#000000" font-family="sans-serif" font-size="20" lengthAdjust="spacing" textLength="137" x="409.5" y="53.8457">:Organization</text><rect fill="#E3E3E3" height="60.5625" rx="2.5" ry="2.5" style="stroke:#181818;stroke-width:0.5;" width="151" x="402.5" y="530.9375"/><text fill="#000000" font-family="sans-serif" font-size="20" lengthAdjust="spacing" textLength="126" x="415" y="556.502">organization</text><text fill="#000000" font-family="sans-serif" font-size="20" lengthAdjust="spacing" textLength="137" x="409.5" y="579.7832">:Organization</text><rect fill="#E3E3E3" height="60.5625" rx="2.5" ry="2.5" style="stroke:#181818;stroke-width:0.5;" width="67" x="983" y="530.9375"/><text fill="#000000" font-family="sans-serif" font-size="20" lengthAdjust="spacing" textLength="42" x="995.5" y="556.502">task</text><text fill="#000000" font-family="sans-serif" font-size="20" lengthAdjust="spacing" textLength="53" x="990" y="579.7832">:Task</text><rect fill="#FFFFFF" height="361.5313" style="stroke:#181818;stroke-width:1.0;" width="10" x="473" y="152.4063"/><rect fill="#FFFFFF" height="148.8438" style="stroke:#181818;stroke-width:1.0;" width="10" x="478" y="313.8125"/><rect fill="#FFFFFF" height="48.2813" style="stroke:#181818;stroke-width:1.0;" width="10" x="483" y="364.0938"/><polygon fill="#181818" points="461,148.4063,471,152.4063,461,156.4063,465,152.4063" style="stroke:#181818;stroke-width:1.0;"/><line style="stroke:#181818;stroke-width:1.0;" x1="0" x2="467" y1="152.4063" y2="152.4063"/><text fill="#000000" font-family="sans-serif" font-size="20" font-weight="bold" lengthAdjust="spacing" textLength="28" x="7" y="122.4082">16</text><text fill="#000000" font-family="sans-serif" font-size="20" lengthAdjust="spacing" textLength="342" x="39" y="99.127">createTask(reference, description,</text><text fill="#000000" font-family="sans-serif" font-size="20" lengthAdjust="spacing" textLength="422" x="39" y="122.4082">informalDescription, technicalDescription,</text><text fill="#000000" font-family="sans-serif" font-size="20" lengthAdjust="spacing" textLength="406" x="39" y="145.6895">duration, cost, taskCategory, employee )</text><path d="M392.5,167.4063 L574.5,167.4063 L574.5,182.6875 L564.5,192.6875 L392.5,192.6875 L392.5,167.4063 " fill="#EEEEEE" style="stroke:#000000;stroke-width:1.5;"/><rect fill="none" height="310.25" style="stroke:#000000;stroke-width:1.5;" width="667.5" x="392.5" y="167.4063"/><text fill="#000000" font-family="sans-serif" font-size="20" font-weight="bold" lengthAdjust="spacing" textLength="137" x="407.5" y="186.9707">Create Task</text><polygon fill="#181818" points="971,264.5313,981,268.5313,971,272.5313,975,268.5313" style="stroke:#181818;stroke-width:1.0;"/><line style="stroke:#181818;stroke-width:1.0;" x1="483" x2="977" y1="268.5313" y2="268.5313"/><text fill="#000000" font-family="sans-serif" font-size="20" font-weight="bold" lengthAdjust="spacing" textLength="50" x="490" y="238.5332">16.1</text><text fill="#000000" font-family="sans-serif" font-size="20" lengthAdjust="spacing" textLength="296" x="544" y="215.252">create(reference, description,</text><text fill="#000000" font-family="sans-serif" font-size="20" lengthAdjust="spacing" textLength="422" x="544" y="238.5332">informalDescription, technicalDescription,</text><text fill="#000000" font-family="sans-serif" font-size="20" lengthAdjust="spacing" textLength="400" x="544" y="261.8145">duration, cost, taskCategory, employee)</text><rect fill="#E3E3E3" height="60.5625" rx="2.5" ry="2.5" style="stroke:#181818;stroke-width:0.5;" width="67" x="983" y="204.9688"/><text fill="#000000" font-family="sans-serif" font-size="20" lengthAdjust="spacing" textLength="42" x="995.5" y="230.5332">task</text><text fill="#000000" font-family="sans-serif" font-size="20" lengthAdjust="spacing" textLength="53" x="990" y="253.8145">:Task</text><line style="stroke:#181818;stroke-width:1.0;" x1="483" x2="530" y1="300.8125" y2="300.8125"/><line style="stroke:#181818;stroke-width:1.0;" x1="530" x2="530" y1="300.8125" y2="313.8125"/><line style="stroke:#181818;stroke-width:1.0;" x1="489" x2="530" y1="313.8125" y2="313.8125"/><polygon fill="#181818" points="499,309.8125,489,313.8125,499,317.8125,495,313.8125" style="stroke:#181818;stroke-width:1.0;"/><text fill="#000000" font-family="sans-serif" font-size="20" font-weight="bold" lengthAdjust="spacing" textLength="50" x="495" y="294.0957">16.2</text><text fill="#000000" font-family="sans-serif" font-size="20" lengthAdjust="spacing" textLength="148" x="549" y="294.0957">addTask (task)</text><line style="stroke:#181818;stroke-width:1.0;" x1="488" x2="535" y1="351.0938" y2="351.0938"/><line style="stroke:#181818;stroke-width:1.0;" x1="535" x2="535" y1="351.0938" y2="364.0938"/><line style="stroke:#181818;stroke-width:1.0;" x1="494" x2="535" y1="364.0938" y2="364.0938"/><polygon fill="#181818" points="504,360.0938,494,364.0938,504,368.0938,500,364.0938" style="stroke:#181818;stroke-width:1.0;"/><text fill="#000000" font-family="sans-serif" font-size="20" font-weight="bold" lengthAdjust="spacing" textLength="50" x="500" y="344.377">16.3</text><text fill="#000000" font-family="sans-serif" font-size="20" lengthAdjust="spacing" textLength="184" x="554" y="344.377">validateTask(task)</text><line style="stroke:#181818;stroke-width:1.0;stroke-dasharray:2.0,2.0;" x1="493" x2="535" y1="411.375" y2="411.375"/><line style="stroke:#181818;stroke-width:1.0;stroke-dasharray:2.0,2.0;" x1="535" x2="535" y1="411.375" y2="424.375"/><line style="stroke:#181818;stroke-width:1.0;stroke-dasharray:2.0,2.0;" x1="488" x2="535" y1="424.375" y2="424.375"/><polygon fill="#181818" points="498,420.375,488,424.375,498,428.375,494,424.375" style="stroke:#181818;stroke-width:1.0;"/><text fill="#000000" font-family="sans-serif" font-size="20" font-weight="bold" lengthAdjust="spacing" textLength="50" x="500" y="404.6582">16.4</text><text fill="#000000" font-family="sans-serif" font-size="20" lengthAdjust="spacing" textLength="6" x="554" y="404.6582"> </text><line style="stroke:#181818;stroke-width:1.0;stroke-dasharray:2.0,2.0;" x1="488" x2="530" y1="461.6563" y2="461.6563"/><line style="stroke:#181818;stroke-width:1.0;stroke-dasharray:2.0,2.0;" x1="530" x2="530" y1="461.6563" y2="474.6563"/><line style="stroke:#181818;stroke-width:1.0;stroke-dasharray:2.0,2.0;" x1="483" x2="530" y1="474.6563" y2="474.6563"/><polygon fill="#181818" points="493,470.6563,483,474.6563,493,478.6563,489,474.6563" style="stroke:#181818;stroke-width:1.0;"/><text fill="#000000" font-family="sans-serif" font-size="20" font-weight="bold" lengthAdjust="spacing" textLength="50" x="495" y="454.9395">16.5</text><text fill="#000000" font-family="sans-serif" font-size="20" lengthAdjust="spacing" textLength="6" x="549" y="454.9395"> </text><polygon fill="#181818" points="11,509.9375,1,513.9375,11,517.9375,7,513.9375" style="stroke:#181818;stroke-width:1.0;"/><line style="stroke:#181818;stroke-width:1.0;stroke-dasharray:2.0,2.0;" x1="5" x2="477" y1="513.9375" y2="513.9375"/><text fill="#000000" font-family="sans-serif" font-size="20" font-weight="bold" lengthAdjust="spacing" textLength="28" x="17" y="507.2207">17</text><text fill="#000000" font-family="sans-serif" font-size="20" lengthAdjust="spacing" textLength="42" x="49" y="507.2207">task</text><!--SRC=[lL71JW8n5BptAruu0G4Z7ZGXneIWU2G1ZboUxTkbsUxhfkrYuEljTeCkgyQRlJITpioRQNsXkKA7fR6o80MACgnDM5aEMtqckBiL_aA1qhAL1sTBWk1gwjnKA0lCQHjEXi2H3CYvwHBy0PLzrvn3XiQJ414EMkeAES30kXnPdp5eotkUhpl70Q27zURrMX3G5v6uYriYx1QRbzL22Ao3vRfy8mUpUp5zQfHpa8umK4CUEih84KkQnAfUEbqrGoPxrfnPLw9vxg0GI1vOosjqpwfss1AazI7IelCoJiYjEqs0oihO4n6CUdbkPW9bqCV8J8qWhjpPke9b2WXDGf7WPaKAn0PjjV7uKkC_AupwOT9peb9DKXWsej5Nu6_bVX8VqMXr-OtMe4lzrUFJfpMwkbDq9HD_QNhy1Y9MhQxxOmy9UPnEayiyFPBe3_i0]--></g></svg>