<?xml version="1.0" encoding="UTF-8" standalone="no"?><svg xmlns="http://www.w3.org/2000/svg" xmlns:xlink="http://www.w3.org/1999/xlink" contentStyleType="text/css" height="1375px" preserveAspectRatio="none" style="width:1806px;height:1375px;background:#FFFFFF;" version="1.1" viewBox="0 0 1806 1375" width="1806px" zoomAndPan="magnify"><defs/><g><!--class MATCP--><g id="elem_MATCP"><rect codeLine="17" fill="#FFDAB9" height="51.1563" id="MATCP" rx="2.5" ry="2.5" style="stroke:#4169E1;stroke-width:0.5;" width="103" x="1273.5" y="7"/><ellipse cx="1289.5" cy="24.5781" fill="#ADD1B2" rx="12" ry="12" style="stroke:#181818;stroke-width:1.0;"/><path d="M1291.6406,19.5 Q1291.8281,19.25 1292.0469,19.125 Q1292.2656,18.9844 1292.5156,18.9844 Q1292.9531,18.9844 1293.2344,19.2969 Q1293.5156,19.5938 1293.5156,20.3125 L1293.5156,22.0156 Q1293.5156,22.7344 1293.2344,23.0469 Q1292.9531,23.3594 1292.5156,23.3594 Q1292.125,23.3594 1291.875,23.125 Q1291.625,22.9063 1291.5156,22.2969 Q1291.4531,21.875 1291.2344,21.6563 Q1290.8438,21.2188 1290.125,20.9531 Q1289.4063,20.6875 1288.6875,20.6875 Q1287.7813,20.6875 1287.0313,21.0781 Q1286.2813,21.4688 1285.7031,22.3594 Q1285.125,23.2344 1285.125,24.4375 L1285.125,25.7344 Q1285.125,27.1875 1286.1719,28.1563 Q1287.2344,29.125 1289.0938,29.125 Q1290.2031,29.125 1290.9844,28.8125 Q1291.4219,28.6406 1291.9375,28.125 Q1292.25,27.8125 1292.4219,27.7188 Q1292.5938,27.625 1292.8281,27.625 Q1293.2188,27.625 1293.5156,27.9375 Q1293.8281,28.2344 1293.8281,28.6406 Q1293.8281,29.0469 1293.4219,29.5156 Q1292.8281,30.2031 1291.8906,30.5938 Q1290.625,31.125 1289.1094,31.125 Q1287.3281,31.125 1285.9063,30.3906 Q1284.75,29.7969 1283.9375,28.5313 Q1283.125,27.2656 1283.125,25.7813 L1283.125,24.4219 Q1283.125,22.8594 1283.8438,21.5156 Q1284.5781,20.1563 1285.8594,19.4219 Q1287.1563,18.6875 1288.6094,18.6875 Q1289.4688,18.6875 1290.2188,18.8906 Q1290.9844,19.0938 1291.6406,19.5 Z " fill="#000000"/><text fill="#000000" font-family="sans-serif" font-size="20" lengthAdjust="spacing" textLength="69" x="1304.5" y="32.7617">MATCP</text><line style="stroke:#4169E1;stroke-width:0.5;" x1="1274.5" x2="1375.5" y1="42.1563" y2="42.1563"/><line style="stroke:#4169E1;stroke-width:0.5;" x1="1274.5" x2="1375.5" y1="50.1563" y2="50.1563"/></g><!--class ListDealFile--><g id="elem_ListDealFile"><rect codeLine="21" fill="#FFDAB9" height="76.3125" id="ListDealFile" rx="2.5" ry="2.5" style="stroke:#4169E1;stroke-width:0.5;" width="468" x="843" y="193.5"/><ellipse cx="1021.5" cy="211.0781" fill="#ADD1B2" rx="12" ry="12" style="stroke:#181818;stroke-width:1.0;"/><path d="M1023.6406,206 Q1023.8281,205.75 1024.0469,205.625 Q1024.2656,205.4844 1024.5156,205.4844 Q1024.9531,205.4844 1025.2344,205.7969 Q1025.5156,206.0938 1025.5156,206.8125 L1025.5156,208.5156 Q1025.5156,209.2344 1025.2344,209.5469 Q1024.9531,209.8594 1024.5156,209.8594 Q1024.125,209.8594 1023.875,209.625 Q1023.625,209.4063 1023.5156,208.7969 Q1023.4531,208.375 1023.2344,208.1563 Q1022.8438,207.7188 1022.125,207.4531 Q1021.4063,207.1875 1020.6875,207.1875 Q1019.7813,207.1875 1019.0313,207.5781 Q1018.2813,207.9688 1017.7031,208.8594 Q1017.125,209.7344 1017.125,210.9375 L1017.125,212.2344 Q1017.125,213.6875 1018.1719,214.6563 Q1019.2344,215.625 1021.0938,215.625 Q1022.2031,215.625 1022.9844,215.3125 Q1023.4219,215.1406 1023.9375,214.625 Q1024.25,214.3125 1024.4219,214.2188 Q1024.5938,214.125 1024.8281,214.125 Q1025.2188,214.125 1025.5156,214.4375 Q1025.8281,214.7344 1025.8281,215.1406 Q1025.8281,215.5469 1025.4219,216.0156 Q1024.8281,216.7031 1023.8906,217.0938 Q1022.625,217.625 1021.1094,217.625 Q1019.3281,217.625 1017.9063,216.8906 Q1016.75,216.2969 1015.9375,215.0313 Q1015.125,213.7656 1015.125,212.2813 L1015.125,210.9219 Q1015.125,209.3594 1015.8438,208.0156 Q1016.5781,206.6563 1017.8594,205.9219 Q1019.1563,205.1875 1020.6094,205.1875 Q1021.4688,205.1875 1022.2188,205.3906 Q1022.9844,205.5938 1023.6406,206 Z " fill="#000000"/><text fill="#000000" font-family="sans-serif" font-size="20" lengthAdjust="spacing" textLength="102" x="1043.5" y="219.2617">ListDealFile</text><line style="stroke:#4169E1;stroke-width:0.5;" x1="844" x2="1310" y1="228.6563" y2="228.6563"/><line style="stroke:#4169E1;stroke-width:0.5;" x1="844" x2="1310" y1="236.6563" y2="236.6563"/><ellipse cx="854" cy="254.7344" fill="#84BE84" rx="3" ry="3" style="stroke:#038048;stroke-width:1.0;"/><text fill="#000000" font-family="sans-serif" font-size="20" lengthAdjust="spacing" textLength="441" x="864" y="261.418">List&lt;Announcement&gt; transforminObject(String file)</text></g><!--class Apartment--><g id="elem_Apartment"><rect codeLine="25" fill="#FFDAB9" height="176.9375" id="Apartment" rx="2.5" ry="2.5" style="stroke:#4169E1;stroke-width:0.5;" width="952" x="7" y="980"/><ellipse cx="433" cy="997.5781" fill="#ADD1B2" rx="12" ry="12" style="stroke:#181818;stroke-width:1.0;"/><path d="M435.1406,992.5 Q435.3281,992.25 435.5469,992.125 Q435.7656,991.9844 436.0156,991.9844 Q436.4531,991.9844 436.7344,992.2969 Q437.0156,992.5938 437.0156,993.3125 L437.0156,995.0156 Q437.0156,995.7344 436.7344,996.0469 Q436.4531,996.3594 436.0156,996.3594 Q435.625,996.3594 435.375,996.125 Q435.125,995.9063 435.0156,995.2969 Q434.9531,994.875 434.7344,994.6563 Q434.3438,994.2188 433.625,993.9531 Q432.9063,993.6875 432.1875,993.6875 Q431.2813,993.6875 430.5313,994.0781 Q429.7813,994.4688 429.2031,995.3594 Q428.625,996.2344 428.625,997.4375 L428.625,998.7344 Q428.625,1000.1875 429.6719,1001.1563 Q430.7344,1002.125 432.5938,1002.125 Q433.7031,1002.125 434.4844,1001.8125 Q434.9219,1001.6406 435.4375,1001.125 Q435.75,1000.8125 435.9219,1000.7188 Q436.0938,1000.625 436.3281,1000.625 Q436.7188,1000.625 437.0156,1000.9375 Q437.3281,1001.2344 437.3281,1001.6406 Q437.3281,1002.0469 436.9219,1002.5156 Q436.3281,1003.2031 435.3906,1003.5938 Q434.125,1004.125 432.6094,1004.125 Q430.8281,1004.125 429.4063,1003.3906 Q428.25,1002.7969 427.4375,1001.5313 Q426.625,1000.2656 426.625,998.7813 L426.625,997.4219 Q426.625,995.8594 427.3438,994.5156 Q428.0781,993.1563 429.3594,992.4219 Q430.6563,991.6875 432.1094,991.6875 Q432.9688,991.6875 433.7188,991.8906 Q434.4844,992.0938 435.1406,992.5 Z " fill="#000000"/><text fill="#000000" font-family="sans-serif" font-size="20" lengthAdjust="spacing" textLength="91" x="455" y="1005.7617">Apartment</text><line style="stroke:#4169E1;stroke-width:0.5;" x1="8" x2="958" y1="1015.1563" y2="1015.1563"/><rect fill="none" height="6" style="stroke:#C82930;stroke-width:1.0;" width="6" x="15" y="1030.2344"/><text fill="#000000" font-family="sans-serif" font-size="20" lengthAdjust="spacing" textLength="203" x="28" y="1039.918">int numberOfBedrooms</text><rect fill="none" height="6" style="stroke:#C82930;stroke-width:1.0;" width="6" x="15" y="1055.3906"/><text fill="#000000" font-family="sans-serif" font-size="20" lengthAdjust="spacing" textLength="208" x="28" y="1065.0742">int numberOfBathrooms</text><rect fill="none" height="6" style="stroke:#C82930;stroke-width:1.0;" width="6" x="15" y="1080.5469"/><text fill="#000000" font-family="sans-serif" font-size="20" lengthAdjust="spacing" textLength="235" x="28" y="1090.2305">int numberOfParkingSpace</text><rect fill="none" height="6" style="stroke:#C82930;stroke-width:1.0;" width="6" x="15" y="1105.7031"/><text fill="#000000" font-family="sans-serif" font-size="20" lengthAdjust="spacing" textLength="280" x="28" y="1115.3867">List&lt;String&gt; availableEquipment</text><line style="stroke:#4169E1;stroke-width:0.5;" x1="8" x2="958" y1="1123.7813" y2="1123.7813"/><ellipse cx="18" cy="1141.8594" fill="#84BE84" rx="3" ry="3" style="stroke:#038048;stroke-width:1.0;"/><text fill="#000000" font-family="sans-serif" font-size="20" lengthAdjust="spacing" textLength="925" x="28" y="1148.543">Apartment(land, numberOfBedrooms, numberOfBathrooms, numberOfParkingSpace, availableEquipment)</text></g><!--class House--><g id="elem_House"><rect codeLine="33" fill="#FFDAB9" height="151.7813" id="House" rx="2.5" ry="2.5" style="stroke:#4169E1;stroke-width:0.5;" width="546" x="474" y="1217"/><ellipse cx="715" cy="1234.5781" fill="#ADD1B2" rx="12" ry="12" style="stroke:#181818;stroke-width:1.0;"/><path d="M717.1406,1229.5 Q717.3281,1229.25 717.5469,1229.125 Q717.7656,1228.9844 718.0156,1228.9844 Q718.4531,1228.9844 718.7344,1229.2969 Q719.0156,1229.5938 719.0156,1230.3125 L719.0156,1232.0156 Q719.0156,1232.7344 718.7344,1233.0469 Q718.4531,1233.3594 718.0156,1233.3594 Q717.625,1233.3594 717.375,1233.125 Q717.125,1232.9063 717.0156,1232.2969 Q716.9531,1231.875 716.7344,1231.6563 Q716.3438,1231.2188 715.625,1230.9531 Q714.9063,1230.6875 714.1875,1230.6875 Q713.2813,1230.6875 712.5313,1231.0781 Q711.7813,1231.4688 711.2031,1232.3594 Q710.625,1233.2344 710.625,1234.4375 L710.625,1235.7344 Q710.625,1237.1875 711.6719,1238.1563 Q712.7344,1239.125 714.5938,1239.125 Q715.7031,1239.125 716.4844,1238.8125 Q716.9219,1238.6406 717.4375,1238.125 Q717.75,1237.8125 717.9219,1237.7188 Q718.0938,1237.625 718.3281,1237.625 Q718.7188,1237.625 719.0156,1237.9375 Q719.3281,1238.2344 719.3281,1238.6406 Q719.3281,1239.0469 718.9219,1239.5156 Q718.3281,1240.2031 717.3906,1240.5938 Q716.125,1241.125 714.6094,1241.125 Q712.8281,1241.125 711.4063,1240.3906 Q710.25,1239.7969 709.4375,1238.5313 Q708.625,1237.2656 708.625,1235.7813 L708.625,1234.4219 Q708.625,1232.8594 709.3438,1231.5156 Q710.0781,1230.1563 711.3594,1229.4219 Q712.6563,1228.6875 714.1094,1228.6875 Q714.9688,1228.6875 715.7188,1228.8906 Q716.4844,1229.0938 717.1406,1229.5 Z " fill="#000000"/><text fill="#000000" font-family="sans-serif" font-size="20" lengthAdjust="spacing" textLength="55" x="737" y="1242.7617">House</text><line style="stroke:#4169E1;stroke-width:0.5;" x1="475" x2="1019" y1="1252.1563" y2="1252.1563"/><rect fill="none" height="6" style="stroke:#C82930;stroke-width:1.0;" width="6" x="482" y="1267.2344"/><text fill="#000000" font-family="sans-serif" font-size="20" lengthAdjust="spacing" textLength="161" x="495" y="1276.918">boolean basement</text><rect fill="none" height="6" style="stroke:#C82930;stroke-width:1.0;" width="6" x="482" y="1292.3906"/><text fill="#000000" font-family="sans-serif" font-size="20" lengthAdjust="spacing" textLength="202" x="495" y="1302.0742">boolean inhabitableLoft</text><rect fill="none" height="6" style="stroke:#C82930;stroke-width:1.0;" width="6" x="482" y="1317.5469"/><text fill="#000000" font-family="sans-serif" font-size="20" lengthAdjust="spacing" textLength="169" x="495" y="1327.2305">String sunExposure</text><line style="stroke:#4169E1;stroke-width:0.5;" x1="475" x2="1019" y1="1335.625" y2="1335.625"/><ellipse cx="485" cy="1353.7031" fill="#84BE84" rx="3" ry="3" style="stroke:#038048;stroke-width:1.0;"/><text fill="#000000" font-family="sans-serif" font-size="20" lengthAdjust="spacing" textLength="519" x="495" y="1360.3867">House(apartment, basement, inhabitableLoft, sunExposure)</text></g><!--class Announcement--><g id="elem_Announcement"><rect codeLine="63" fill="#FFDAB9" height="277.5625" id="Announcement" rx="2.5" ry="2.5" style="stroke:#4169E1;stroke-width:0.5;" width="755" x="699.5" y="405"/><ellipse cx="1008.5" cy="422.5781" fill="#ADD1B2" rx="12" ry="12" style="stroke:#181818;stroke-width:1.0;"/><path d="M1010.6406,417.5 Q1010.8281,417.25 1011.0469,417.125 Q1011.2656,416.9844 1011.5156,416.9844 Q1011.9531,416.9844 1012.2344,417.2969 Q1012.5156,417.5938 1012.5156,418.3125 L1012.5156,420.0156 Q1012.5156,420.7344 1012.2344,421.0469 Q1011.9531,421.3594 1011.5156,421.3594 Q1011.125,421.3594 1010.875,421.125 Q1010.625,420.9063 1010.5156,420.2969 Q1010.4531,419.875 1010.2344,419.6563 Q1009.8438,419.2188 1009.125,418.9531 Q1008.4063,418.6875 1007.6875,418.6875 Q1006.7813,418.6875 1006.0313,419.0781 Q1005.2813,419.4688 1004.7031,420.3594 Q1004.125,421.2344 1004.125,422.4375 L1004.125,423.7344 Q1004.125,425.1875 1005.1719,426.1563 Q1006.2344,427.125 1008.0938,427.125 Q1009.2031,427.125 1009.9844,426.8125 Q1010.4219,426.6406 1010.9375,426.125 Q1011.25,425.8125 1011.4219,425.7188 Q1011.5938,425.625 1011.8281,425.625 Q1012.2188,425.625 1012.5156,425.9375 Q1012.8281,426.2344 1012.8281,426.6406 Q1012.8281,427.0469 1012.4219,427.5156 Q1011.8281,428.2031 1010.8906,428.5938 Q1009.625,429.125 1008.1094,429.125 Q1006.3281,429.125 1004.9063,428.3906 Q1003.75,427.7969 1002.9375,426.5313 Q1002.125,425.2656 1002.125,423.7813 L1002.125,422.4219 Q1002.125,420.8594 1002.8438,419.5156 Q1003.5781,418.1563 1004.8594,417.4219 Q1006.1563,416.6875 1007.6094,416.6875 Q1008.4688,416.6875 1009.2188,416.8906 Q1009.9844,417.0938 1010.6406,417.5 Z " fill="#000000"/><text fill="#000000" font-family="sans-serif" font-size="20" lengthAdjust="spacing" textLength="128" x="1030.5" y="430.7617">Announcement</text><line style="stroke:#4169E1;stroke-width:0.5;" x1="700.5" x2="1453.5" y1="440.1563" y2="440.1563"/><rect fill="none" height="6" style="stroke:#C82930;stroke-width:1.0;" width="6" x="707.5" y="455.2344"/><text fill="#000000" font-family="sans-serif" font-size="20" lengthAdjust="spacing" textLength="145" x="720.5" y="464.918">Request request</text><rect fill="none" height="6" style="stroke:#C82930;stroke-width:1.0;" width="6" x="707.5" y="480.3906"/><text fill="#000000" font-family="sans-serif" font-size="20" lengthAdjust="spacing" textLength="214" x="720.5" y="490.0742">Commission commission</text><rect fill="none" height="6" style="stroke:#C82930;stroke-width:1.0;" width="6" x="707.5" y="505.5469"/><text fill="#000000" font-family="sans-serif" font-size="20" lengthAdjust="spacing" textLength="87" x="720.5" y="515.2305">Date date</text><rect fill="none" height="6" style="stroke:#C82930;stroke-width:1.0;" width="6" x="707.5" y="530.7031"/><text fill="#000000" font-family="sans-serif" font-size="20" lengthAdjust="spacing" textLength="170" x="720.5" y="540.3867">List&lt;Order&gt; orders</text><rect fill="none" height="6" style="stroke:#C82930;stroke-width:1.0;" width="6" x="707.5" y="555.8594"/><text fill="#000000" font-family="sans-serif" font-size="20" lengthAdjust="spacing" textLength="156" x="720.5" y="565.543">Property property</text><rect fill="none" height="6" style="stroke:#C82930;stroke-width:1.0;" width="6" x="707.5" y="581.0156"/><text fill="#000000" font-family="sans-serif" font-size="20" lengthAdjust="spacing" textLength="85" x="720.5" y="590.6992">User user</text><rect fill="none" height="6" style="stroke:#C82930;stroke-width:1.0;" width="6" x="707.5" y="606.1719"/><text fill="#000000" font-family="sans-serif" font-size="20" lengthAdjust="spacing" textLength="224" x="720.5" y="615.8555">ArrayList &lt;Order&gt; orders</text><line style="stroke:#4169E1;stroke-width:0.5;" x1="700.5" x2="1453.5" y1="624.25" y2="624.25"/><ellipse cx="710.5" cy="642.3281" fill="#84BE84" rx="3" ry="3" style="stroke:#038048;stroke-width:1.0;"/><text fill="#000000" font-family="sans-serif" font-size="20" lengthAdjust="spacing" textLength="373" x="720.5" y="649.0117">Announcement(request, commission, date)</text><ellipse cx="710.5" cy="667.4844" fill="#84BE84" rx="3" ry="3" style="stroke:#038048;stroke-width:1.0;"/><text fill="#000000" font-family="sans-serif" font-size="20" lengthAdjust="spacing" textLength="728" x="720.5" y="674.168">checkIfRequestPriceIsLowerThanAdvertisementPrice(requestPrice, announcement)</text></g><!--class Request--><g id="elem_Request"><rect codeLine="48" fill="#FFDAB9" height="176.9375" id="Request" rx="2.5" ry="2.5" style="stroke:#4169E1;stroke-width:0.5;" width="453" x="583.5" y="743"/><ellipse cx="769" cy="760.5781" fill="#ADD1B2" rx="12" ry="12" style="stroke:#181818;stroke-width:1.0;"/><path d="M771.1406,755.5 Q771.3281,755.25 771.5469,755.125 Q771.7656,754.9844 772.0156,754.9844 Q772.4531,754.9844 772.7344,755.2969 Q773.0156,755.5938 773.0156,756.3125 L773.0156,758.0156 Q773.0156,758.7344 772.7344,759.0469 Q772.4531,759.3594 772.0156,759.3594 Q771.625,759.3594 771.375,759.125 Q771.125,758.9063 771.0156,758.2969 Q770.9531,757.875 770.7344,757.6563 Q770.3438,757.2188 769.625,756.9531 Q768.9063,756.6875 768.1875,756.6875 Q767.2813,756.6875 766.5313,757.0781 Q765.7813,757.4688 765.2031,758.3594 Q764.625,759.2344 764.625,760.4375 L764.625,761.7344 Q764.625,763.1875 765.6719,764.1563 Q766.7344,765.125 768.5938,765.125 Q769.7031,765.125 770.4844,764.8125 Q770.9219,764.6406 771.4375,764.125 Q771.75,763.8125 771.9219,763.7188 Q772.0938,763.625 772.3281,763.625 Q772.7188,763.625 773.0156,763.9375 Q773.3281,764.2344 773.3281,764.6406 Q773.3281,765.0469 772.9219,765.5156 Q772.3281,766.2031 771.3906,766.5938 Q770.125,767.125 768.6094,767.125 Q766.8281,767.125 765.4063,766.3906 Q764.25,765.7969 763.4375,764.5313 Q762.625,763.2656 762.625,761.7813 L762.625,760.4219 Q762.625,758.8594 763.3438,757.5156 Q764.0781,756.1563 765.3594,755.4219 Q766.6563,754.6875 768.1094,754.6875 Q768.9688,754.6875 769.7188,754.8906 Q770.4844,755.0938 771.1406,755.5 Z " fill="#000000"/><text fill="#000000" font-family="sans-serif" font-size="20" lengthAdjust="spacing" textLength="73" x="791" y="768.7617">Request</text><line style="stroke:#4169E1;stroke-width:0.5;" x1="584.5" x2="1035.5" y1="778.1563" y2="778.1563"/><rect fill="none" height="6" style="stroke:#C82930;stroke-width:1.0;" width="6" x="591.5" y="793.2344"/><text fill="#000000" font-family="sans-serif" font-size="20" lengthAdjust="spacing" textLength="178" x="604.5" y="802.918">Employee employee</text><rect fill="none" height="6" style="stroke:#C82930;stroke-width:1.0;" width="6" x="591.5" y="818.3906"/><text fill="#000000" font-family="sans-serif" font-size="20" lengthAdjust="spacing" textLength="128" x="604.5" y="828.0742">Person person</text><rect fill="none" height="6" style="stroke:#C82930;stroke-width:1.0;" width="6" x="591.5" y="843.5469"/><text fill="#000000" font-family="sans-serif" font-size="20" lengthAdjust="spacing" textLength="156" x="604.5" y="853.2305">Property property</text><rect fill="none" height="6" style="stroke:#C82930;stroke-width:1.0;" width="6" x="591.5" y="868.7031"/><text fill="#000000" font-family="sans-serif" font-size="20" lengthAdjust="spacing" textLength="159" x="604.5" y="878.3867">boolean isPending</text><line style="stroke:#4169E1;stroke-width:0.5;" x1="584.5" x2="1035.5" y1="886.7813" y2="886.7813"/><ellipse cx="594.5" cy="904.8594" fill="#84BE84" rx="3" ry="3" style="stroke:#038048;stroke-width:1.0;"/><text fill="#000000" font-family="sans-serif" font-size="20" lengthAdjust="spacing" textLength="426" x="604.5" y="911.543">Request(employee, person, property, isPending)</text></g><!--class Order--><g id="elem_Order"><rect codeLine="57" fill="#FFDAB9" height="126.625" id="Order" rx="2.5" ry="2.5" style="stroke:#4169E1;stroke-width:0.5;" width="155" x="1267.5" y="1005"/><ellipse cx="1314.55" cy="1022.5781" fill="#ADD1B2" rx="12" ry="12" style="stroke:#181818;stroke-width:1.0;"/><path d="M1316.6906,1017.5 Q1316.8781,1017.25 1317.0969,1017.125 Q1317.3156,1016.9844 1317.5656,1016.9844 Q1318.0031,1016.9844 1318.2844,1017.2969 Q1318.5656,1017.5938 1318.5656,1018.3125 L1318.5656,1020.0156 Q1318.5656,1020.7344 1318.2844,1021.0469 Q1318.0031,1021.3594 1317.5656,1021.3594 Q1317.175,1021.3594 1316.925,1021.125 Q1316.675,1020.9063 1316.5656,1020.2969 Q1316.5031,1019.875 1316.2844,1019.6563 Q1315.8938,1019.2188 1315.175,1018.9531 Q1314.4563,1018.6875 1313.7375,1018.6875 Q1312.8313,1018.6875 1312.0813,1019.0781 Q1311.3313,1019.4688 1310.7531,1020.3594 Q1310.175,1021.2344 1310.175,1022.4375 L1310.175,1023.7344 Q1310.175,1025.1875 1311.2219,1026.1563 Q1312.2844,1027.125 1314.1438,1027.125 Q1315.2531,1027.125 1316.0344,1026.8125 Q1316.4719,1026.6406 1316.9875,1026.125 Q1317.3,1025.8125 1317.4719,1025.7188 Q1317.6438,1025.625 1317.8781,1025.625 Q1318.2688,1025.625 1318.5656,1025.9375 Q1318.8781,1026.2344 1318.8781,1026.6406 Q1318.8781,1027.0469 1318.4719,1027.5156 Q1317.8781,1028.2031 1316.9406,1028.5938 Q1315.675,1029.125 1314.1594,1029.125 Q1312.3781,1029.125 1310.9563,1028.3906 Q1309.8,1027.7969 1308.9875,1026.5313 Q1308.175,1025.2656 1308.175,1023.7813 L1308.175,1022.4219 Q1308.175,1020.8594 1308.8938,1019.5156 Q1309.6281,1018.1563 1310.9094,1017.4219 Q1312.2063,1016.6875 1313.6594,1016.6875 Q1314.5188,1016.6875 1315.2688,1016.8906 Q1316.0344,1017.0938 1316.6906,1017.5 Z " fill="#000000"/><text fill="#000000" font-family="sans-serif" font-size="20" lengthAdjust="spacing" textLength="52" x="1336.45" y="1030.7617">Order</text><line style="stroke:#4169E1;stroke-width:0.5;" x1="1268.5" x2="1421.5" y1="1040.1563" y2="1040.1563"/><rect fill="none" height="6" style="stroke:#C82930;stroke-width:1.0;" width="6" x="1275.5" y="1055.2344"/><text fill="#000000" font-family="sans-serif" font-size="20" lengthAdjust="spacing" textLength="128" x="1288.5" y="1064.918">Person person</text><rect fill="none" height="6" style="stroke:#C82930;stroke-width:1.0;" width="6" x="1275.5" y="1080.3906"/><text fill="#000000" font-family="sans-serif" font-size="20" lengthAdjust="spacing" textLength="107" x="1288.5" y="1090.0742">double price</text><rect fill="none" height="6" style="stroke:#C82930;stroke-width:1.0;" width="6" x="1275.5" y="1105.5469"/><text fill="#000000" font-family="sans-serif" font-size="20" lengthAdjust="spacing" textLength="87" x="1288.5" y="1115.2305">Date date</text><line style="stroke:#4169E1;stroke-width:0.5;" x1="1268.5" x2="1421.5" y1="1123.625" y2="1123.625"/></g><!--class Orders--><g id="elem_Orders"><rect codeLine="69" fill="#FFDAB9" height="151.7813" id="Orders" rx="2.5" ry="2.5" style="stroke:#4169E1;stroke-width:0.5;" width="546" x="1072" y="755.5"/><ellipse cx="1309.5" cy="773.0781" fill="#ADD1B2" rx="12" ry="12" style="stroke:#181818;stroke-width:1.0;"/><path d="M1311.6406,768 Q1311.8281,767.75 1312.0469,767.625 Q1312.2656,767.4844 1312.5156,767.4844 Q1312.9531,767.4844 1313.2344,767.7969 Q1313.5156,768.0938 1313.5156,768.8125 L1313.5156,770.5156 Q1313.5156,771.2344 1313.2344,771.5469 Q1312.9531,771.8594 1312.5156,771.8594 Q1312.125,771.8594 1311.875,771.625 Q1311.625,771.4063 1311.5156,770.7969 Q1311.4531,770.375 1311.2344,770.1563 Q1310.8438,769.7188 1310.125,769.4531 Q1309.4063,769.1875 1308.6875,769.1875 Q1307.7813,769.1875 1307.0313,769.5781 Q1306.2813,769.9688 1305.7031,770.8594 Q1305.125,771.7344 1305.125,772.9375 L1305.125,774.2344 Q1305.125,775.6875 1306.1719,776.6563 Q1307.2344,777.625 1309.0938,777.625 Q1310.2031,777.625 1310.9844,777.3125 Q1311.4219,777.1406 1311.9375,776.625 Q1312.25,776.3125 1312.4219,776.2188 Q1312.5938,776.125 1312.8281,776.125 Q1313.2188,776.125 1313.5156,776.4375 Q1313.8281,776.7344 1313.8281,777.1406 Q1313.8281,777.5469 1313.4219,778.0156 Q1312.8281,778.7031 1311.8906,779.0938 Q1310.625,779.625 1309.1094,779.625 Q1307.3281,779.625 1305.9063,778.8906 Q1304.75,778.2969 1303.9375,777.0313 Q1303.125,775.7656 1303.125,774.2813 L1303.125,772.9219 Q1303.125,771.3594 1303.8438,770.0156 Q1304.5781,768.6563 1305.8594,767.9219 Q1307.1563,767.1875 1308.6094,767.1875 Q1309.4688,767.1875 1310.2188,767.3906 Q1310.9844,767.5938 1311.6406,768 Z " fill="#000000"/><text fill="#000000" font-family="sans-serif" font-size="20" lengthAdjust="spacing" textLength="62" x="1331.5" y="781.2617">Orders</text><line style="stroke:#4169E1;stroke-width:0.5;" x1="1073" x2="1617" y1="790.6563" y2="790.6563"/><rect fill="none" height="6" style="stroke:#C82930;stroke-width:1.0;" width="6" x="1080" y="805.7344"/><text fill="#000000" font-family="sans-serif" font-size="20" lengthAdjust="spacing" textLength="224" x="1093" y="815.418">ArrayList &lt;Order&gt; orders</text><line style="stroke:#4169E1;stroke-width:0.5;" x1="1073" x2="1617" y1="823.8125" y2="823.8125"/><ellipse cx="1083" cy="841.8906" fill="#84BE84" rx="3" ry="3" style="stroke:#038048;stroke-width:1.0;"/><text fill="#000000" font-family="sans-serif" font-size="20" lengthAdjust="spacing" textLength="76" x="1093" y="848.5742">Orders()</text><ellipse cx="1083" cy="867.0469" fill="#84BE84" rx="3" ry="3" style="stroke:#038048;stroke-width:1.0;"/><text fill="#000000" font-family="sans-serif" font-size="20" lengthAdjust="spacing" textLength="519" x="1093" y="873.7305">checkIfRequestPriceIsUnique(requestPrice, announcement)</text><ellipse cx="1083" cy="892.2031" fill="#84BE84" rx="3" ry="3" style="stroke:#038048;stroke-width:1.0;"/><text fill="#000000" font-family="sans-serif" font-size="20" lengthAdjust="spacing" textLength="334" x="1093" y="898.8867">createOrder(requestPrice, user, date)</text></g><!--class OLSMultipleLinearRegression--><g id="elem_OLSMultipleLinearRegression"><rect codeLine="77" fill="#FFDAB9" height="227.25" id="OLSMultipleLinearRegression" rx="2.5" ry="2.5" style="stroke:#4169E1;stroke-width:0.5;" width="453" x="1346.5" y="118"/><ellipse cx="1438.5" cy="135.5781" fill="#ADD1B2" rx="12" ry="12" style="stroke:#181818;stroke-width:1.0;"/><path d="M1440.6406,130.5 Q1440.8281,130.25 1441.0469,130.125 Q1441.2656,129.9844 1441.5156,129.9844 Q1441.9531,129.9844 1442.2344,130.2969 Q1442.5156,130.5938 1442.5156,131.3125 L1442.5156,133.0156 Q1442.5156,133.7344 1442.2344,134.0469 Q1441.9531,134.3594 1441.5156,134.3594 Q1441.125,134.3594 1440.875,134.125 Q1440.625,133.9063 1440.5156,133.2969 Q1440.4531,132.875 1440.2344,132.6563 Q1439.8438,132.2188 1439.125,131.9531 Q1438.4063,131.6875 1437.6875,131.6875 Q1436.7813,131.6875 1436.0313,132.0781 Q1435.2813,132.4688 1434.7031,133.3594 Q1434.125,134.2344 1434.125,135.4375 L1434.125,136.7344 Q1434.125,138.1875 1435.1719,139.1563 Q1436.2344,140.125 1438.0938,140.125 Q1439.2031,140.125 1439.9844,139.8125 Q1440.4219,139.6406 1440.9375,139.125 Q1441.25,138.8125 1441.4219,138.7188 Q1441.5938,138.625 1441.8281,138.625 Q1442.2188,138.625 1442.5156,138.9375 Q1442.8281,139.2344 1442.8281,139.6406 Q1442.8281,140.0469 1442.4219,140.5156 Q1441.8281,141.2031 1440.8906,141.5938 Q1439.625,142.125 1438.1094,142.125 Q1436.3281,142.125 1434.9063,141.3906 Q1433.75,140.7969 1432.9375,139.5313 Q1432.125,138.2656 1432.125,136.7813 L1432.125,135.4219 Q1432.125,133.8594 1432.8438,132.5156 Q1433.5781,131.1563 1434.8594,130.4219 Q1436.1563,129.6875 1437.6094,129.6875 Q1438.4688,129.6875 1439.2188,129.8906 Q1439.9844,130.0938 1440.6406,130.5 Z " fill="#000000"/><text fill="#000000" font-family="sans-serif" font-size="20" lengthAdjust="spacing" textLength="260" x="1460.5" y="143.7617">OLSMultipleLinearRegression</text><line style="stroke:#4169E1;stroke-width:0.5;" x1="1347.5" x2="1798.5" y1="153.1563" y2="153.1563"/><rect fill="none" height="6" style="stroke:#C82930;stroke-width:1.0;" width="6" x="1354.5" y="168.2344"/><text fill="#000000" font-family="sans-serif" font-size="20" lengthAdjust="spacing" textLength="183" x="1367.5" y="177.918">QRDecomposition qr</text><rect fill="none" height="6" style="stroke:#C82930;stroke-width:1.0;" width="6" x="1354.5" y="193.3906"/><text fill="#000000" font-family="sans-serif" font-size="20" lengthAdjust="spacing" textLength="144" x="1367.5" y="203.0742">double threshold</text><line style="stroke:#4169E1;stroke-width:0.5;" x1="1347.5" x2="1798.5" y1="211.4688" y2="211.4688"/><ellipse cx="1357.5" cy="229.5469" fill="#84BE84" rx="3" ry="3" style="stroke:#038048;stroke-width:1.0;"/><text fill="#000000" font-family="sans-serif" font-size="20" lengthAdjust="spacing" textLength="353" x="1367.5" y="236.2305">newSampleData(double[] y, double[][] x)</text><ellipse cx="1357.5" cy="254.7031" fill="#84BE84" rx="3" ry="3" style="stroke:#038048;stroke-width:1.0;"/><text fill="#000000" font-family="sans-serif" font-size="20" lengthAdjust="spacing" textLength="291" x="1367.5" y="261.3867">estimateRegressionParameters()</text><ellipse cx="1357.5" cy="279.8594" fill="#84BE84" rx="3" ry="3" style="stroke:#038048;stroke-width:1.0;"/><text fill="#000000" font-family="sans-serif" font-size="20" lengthAdjust="spacing" textLength="179" x="1367.5" y="286.543">calculateRSquared()</text><ellipse cx="1357.5" cy="305.0156" fill="#84BE84" rx="3" ry="3" style="stroke:#038048;stroke-width:1.0;"/><text fill="#000000" font-family="sans-serif" font-size="20" lengthAdjust="spacing" textLength="255" x="1367.5" y="311.6992">calculateAdjustedRSquared()</text><ellipse cx="1357.5" cy="330.1719" fill="#84BE84" rx="3" ry="3" style="stroke:#038048;stroke-width:1.0;"/><text fill="#000000" font-family="sans-serif" font-size="20" lengthAdjust="spacing" textLength="426" x="1367.5" y="336.8555">estimateRegressionParametersStandardErrors()</text></g><!--link MATCP to ListDealFile--><g id="link_MATCP_ListDealFile"><path codeLine="88" d="M1294.09,58.05 C1252.54,91.06 1178.13,150.17 1128.16,189.86 " fill="none" id="MATCP-to-ListDealFile" style="stroke:#4169E1;stroke-width:1.0;"/><polygon fill="#4169E1" points="1124,193.16,1133.5333,190.6867,1127.9127,190.047,1128.5524,184.4264,1124,193.16" style="stroke:#4169E1;stroke-width:1.0;"/></g><!--link MATCP to OLSMultipleLinearRegression--><g id="link_MATCP_OLSMultipleLinearRegression"><path codeLine="89" d="M1355.91,58.05 C1374.72,72.99 1400.27,93.29 1427.23,114.71 " fill="none" id="MATCP-to-OLSMultipleLinearRegression" style="stroke:#4169E1;stroke-width:1.0;"/><polygon fill="#4169E1" points="1431.22,117.88,1426.648,109.1566,1427.3004,114.7758,1421.6812,115.4281,1431.22,117.88" style="stroke:#4169E1;stroke-width:1.0;"/></g><!--link Announcement to Request--><g id="link_Announcement_Request"><path codeLine="93" d="M947.8,683.15 C928.77,703.5 909.62,723.98 891.9,742.93 " fill="none" id="Announcement-Request" style="stroke:#4169E1;stroke-width:1.0;"/><text fill="#000000" font-family="sans-serif" font-size="20" lengthAdjust="spacing" textLength="11" x="930.2755" y="711.2716">1</text><text fill="#000000" font-family="sans-serif" font-size="20" lengthAdjust="spacing" textLength="11" x="886.9881" y="730.6464">1</text></g><!--link Request to Apartment--><g id="link_Request_Apartment"><path codeLine="94" d="M688.24,920.01 C662.38,938.59 635.04,958.24 609.03,976.93 " fill="none" id="Request-to-Apartment" style="stroke:#4169E1;stroke-width:1.0;"/><polygon fill="#4169E1" points="604.86,979.92,614.4986,977.8958,608.9141,976.9936,609.8163,971.4091,604.86,979.92" style="stroke:#4169E1;stroke-width:1.0;"/></g><!--reverse link Apartment to House--><g id="link_Apartment_House"><path codeLine="95" d="M597.16,1165.72 C617.41,1182.78 638.22,1200.32 657.66,1216.7 " fill="none" id="Apartment-backto-House" style="stroke:#4169E1;stroke-width:1.0;"/><polygon fill="#4169E1" points="586.96,1157.12,588.9735,1164.0443,596.1396,1164.8488,594.1261,1157.9245,586.96,1157.12" style="stroke:#4169E1;stroke-width:1.0;"/></g><!--link Request to House--><g id="link_Request_House"><path codeLine="96" d="M909.07,920.01 C945.04,951.77 977,980 977,980 C977,980 977,1157 977,1157 C977,1157 930.38,1184.37 879.11,1214.46 " fill="none" id="Request-to-House" style="stroke:#4169E1;stroke-width:1.0;"/><polygon fill="#4169E1" points="874.78,1217,884.5673,1215.9001,879.0937,1214.4718,880.5221,1208.9982,874.78,1217" style="stroke:#4169E1;stroke-width:1.0;"/></g><!--link ListDealFile to Announcement--><g id="link_ListDealFile_Announcement"><path codeLine="100" d="M1077,269.65 C1077,302.18 1077,351.63 1077,399.57 " fill="none" id="ListDealFile-to-Announcement" style="stroke:#4169E1;stroke-width:1.0;stroke-dasharray:7.0,7.0;"/><polygon fill="#4169E1" points="1077,404.81,1081,395.81,1077,399.81,1073,395.81,1077,404.81" style="stroke:#4169E1;stroke-width:1.0;"/></g><!--link Announcement to Orders--><g id="link_Announcement_Orders"><path codeLine="102" d="M1206.68,683.15 C1230.06,708.06 1253.62,733.15 1274.5,755.4 " fill="none" id="Announcement-Orders" style="stroke:#4169E1;stroke-width:1.0;"/><text fill="#000000" font-family="sans-serif" font-size="20" lengthAdjust="spacing" textLength="11" x="1201.695" y="711.2716">1</text><text fill="#000000" font-family="sans-serif" font-size="20" lengthAdjust="spacing" textLength="11" x="1256.4938" y="743.0112">1</text></g><!--link Orders to Order--><g id="link_Orders_Order"><path codeLine="104" d="M1345,907.5 C1345,938.8 1345,974.75 1345,1004.63 " fill="none" id="Orders-Order" style="stroke:#4169E1;stroke-width:1.0;"/><text fill="#000000" font-family="sans-serif" font-size="20" lengthAdjust="spacing" textLength="11" x="1333.5102" y="936.1604">1</text><text fill="#000000" font-family="sans-serif" font-size="20" lengthAdjust="spacing" textLength="8" x="1336.5875" y="992.5435">*</text></g><!--SRC=[VLLDRzim3BthLmYzD5sTOjjv291-OGLQD6lQqx03Oz6nMbbo9RbjLko_ZvObnqdQv11B94K-FbAKUvAw1WkLClaJ2YwmW4RvIwFzNFv5_lqhEtJ9XbT6cxoqfaBkRODihQaXVu8bplrA8RUOUz1BDJHm9GZpAlMI5w3SKAEaHh-gaTT6hThDC6AlDDORDjJa2foRUc_bel5ubHiT01FUSVfTIWBZVEjqsGlPbWl-pZZzJYc1fJMD5cT66Sjd27avQueYQAVMcjTESMTMe4uLPH-E6IlGRcl-iKE5XUVUS2kNfUT2jfn8ezdXWqFBfVPe2yZnaB4EnStq_cpMGQ7ZKNWjdJz7K26HTtOS13-cMXFE72lKVaA50EqAOokfRnUF56Kq9qvQdkdGqThNb7BsxP6Oy9WmSDrK2xItnIaAQqpbFj20BpzHpS0IbSivrRuZOnpWTU4d75v0AbWel7XkPDr63aR7QoGZ1LfaEo2otU3PXq6p3s8CClvf6eSfMxumHY5elW27FPYrMEeI5jAtlgvDaRIHIjVeYxVQkCPYp27u7a7A9ElTPjkUik7fOJq6LUn1tk5pWyxJ3GhVA3qpLIMTe_RXUR-CkdFmo0NznNqemMtRb1CUUjCbrWVnHj5_Dl2N1Iy3W0bBmdPHrSgi43d6HPJFA0OXgyCdoQoXlL_nEYwssNOpr8AeZU1Yh55odKLtMUyWMvy962F8aEdx7YJ2D5G8SYDJamuesr-Cpv88DvZAR-EUXWEiMjxvHyJd9UPFLqNCSDRYk7BNvXNjVGbwAbx8i-nw9oXJRSA6Edo0h4ryaBQBGFV7xqn7HtlGF6X9sxs1kpBb5ecsu77BkgKZTT2Qrjlh-Gsz9hAcgq237EmTBYrsdPnO_dLtZjI5T3zaEo3vizsi74q0TALH8cBG-3e7QXEaCiAeC_hzXrE3f3NjtX9YGYWhGhKEF6j7F_e19pm7bJUgjPe_Ds1Hx6gcuh5n7iMEnRu0Ste51LXnGQz724V4TFF_Air_5kO-7uyd6yD-8Dx38Tq2jj6v1zyEw4pun0gpT8jRL_tWPUl7u0lPXs6sOTb926seDTjuXqvE9XltPHT3XD1r7cFTjmVt9Mh8_Ny0]--></g></svg>