<?xml version="1.0" encoding="UTF-8" standalone="no"?><svg xmlns="http://www.w3.org/2000/svg" xmlns:xlink="http://www.w3.org/1999/xlink" contentStyleType="text/css" height="641px" preserveAspectRatio="none" style="width:1227px;height:641px;background:#FFFFFF;" version="1.1" viewBox="0 0 1227 641" width="1227px" zoomAndPan="magnify"><defs/><g><text fill="#000000" font-family="sans-serif" font-size="14" font-weight="bold" lengthAdjust="spacing" textLength="398" x="415.75" y="27.9951">System Sequence Diagram (SSD) - Alternative One</text><rect fill="#FFFFFF" height="221.9688" style="stroke:#181818;stroke-width:1.0;" width="10" x="1158" y="164.8594"/><rect fill="#FFFFFF" height="37.2813" style="stroke:#181818;stroke-width:1.0;" width="10" x="1158" y="424.1094"/><rect fill="#FFFFFF" height="37.2813" style="stroke:#181818;stroke-width:1.0;" width="10" x="1158" y="498.6719"/><rect fill="none" height="170.6875" style="stroke:#000000;stroke-width:1.5;" width="1210.5" x="10" y="179.8594"/><line style="stroke:#181818;stroke-width:0.5;stroke-dasharray:5.0,5.0;" x1="131" x2="131" y1="125.5781" y2="553.9531"/><line style="stroke:#181818;stroke-width:0.5;stroke-dasharray:5.0,5.0;" x1="1162.5" x2="1162.5" y1="125.5781" y2="553.9531"/><text fill="#000000" font-family="sans-serif" font-size="20" lengthAdjust="spacing" textLength="216" x="20" y="120.8613">System administrator</text><ellipse cx="131" cy="50.7969" fill="#E3E3E3" rx="8" ry="8" style="stroke:#181818;stroke-width:0.5;"/><path d="M131,58.7969 L131,85.7969 M118,66.7969 L144,66.7969 M131,85.7969 L118,100.7969 M131,85.7969 L144,100.7969 " fill="none" style="stroke:#181818;stroke-width:0.5;"/><text fill="#000000" font-family="sans-serif" font-size="20" lengthAdjust="spacing" textLength="216" x="20" y="571.5176">System administrator</text><ellipse cx="131" cy="584.7344" fill="#E3E3E3" rx="8" ry="8" style="stroke:#181818;stroke-width:0.5;"/><path d="M131,592.7344 L131,619.7344 M118,600.7344 L144,600.7344 M131,619.7344 L118,634.7344 M131,619.7344 L144,634.7344 " fill="none" style="stroke:#181818;stroke-width:0.5;"/><rect fill="#E3E3E3" height="37.2813" rx="2.5" ry="2.5" style="stroke:#181818;stroke-width:0.5;" width="95" x="1115.5" y="87.2969"/><text fill="#000000" font-family="sans-serif" font-size="20" lengthAdjust="spacing" textLength="81" x="1122.5" y="112.8613">:System</text><rect fill="#E3E3E3" height="37.2813" rx="2.5" ry="2.5" style="stroke:#181818;stroke-width:0.5;" width="95" x="1115.5" y="552.9531"/><text fill="#000000" font-family="sans-serif" font-size="20" lengthAdjust="spacing" textLength="81" x="1122.5" y="578.5176">:System</text><rect fill="#FFFFFF" height="221.9688" style="stroke:#181818;stroke-width:1.0;" width="10" x="1158" y="164.8594"/><rect fill="#FFFFFF" height="37.2813" style="stroke:#181818;stroke-width:1.0;" width="10" x="1158" y="424.1094"/><rect fill="#FFFFFF" height="37.2813" style="stroke:#181818;stroke-width:1.0;" width="10" x="1158" y="498.6719"/><polygon fill="#181818" points="1146,160.8594,1156,164.8594,1146,168.8594,1150,164.8594" style="stroke:#181818;stroke-width:1.0;"/><line style="stroke:#181818;stroke-width:1.0;" x1="131" x2="1152" y1="164.8594" y2="164.8594"/><text fill="#000000" font-family="sans-serif" font-size="20" font-weight="bold" lengthAdjust="spacing" textLength="14" x="138" y="158.1426">1</text><text fill="#000000" font-family="sans-serif" font-size="20" lengthAdjust="spacing" textLength="227" x="156" y="158.1426">asks to register a store</text><path d="M10,179.8594 L86,179.8594 L86,195.1406 L76,205.1406 L10,205.1406 L10,179.8594 " fill="#EEEEEE" style="stroke:#000000;stroke-width:1.5;"/><rect fill="none" height="170.6875" style="stroke:#000000;stroke-width:1.5;" width="1210.5" x="10" y="179.8594"/><text fill="#000000" font-family="sans-serif" font-size="20" font-weight="bold" lengthAdjust="spacing" textLength="31" x="25" y="199.4238">alt</text><text fill="#000000" font-family="sans-serif" font-size="20" font-weight="bold" lengthAdjust="spacing" textLength="315" x="101" y="200.4238">[registered adminnistrator]</text><polygon fill="#181818" points="142,238.7031,132,242.7031,142,246.7031,138,242.7031" style="stroke:#181818;stroke-width:1.0;"/><line style="stroke:#181818;stroke-width:1.0;stroke-dasharray:2.0,2.0;" x1="136" x2="1157" y1="242.7031" y2="242.7031"/><text fill="#000000" font-family="sans-serif" font-size="20" font-weight="bold" lengthAdjust="spacing" textLength="14" x="148" y="235.9863">2</text><text fill="#000000" font-family="sans-serif" font-size="20" lengthAdjust="spacing" textLength="318" x="166" y="235.9863">auto fills the admin information</text><line style="stroke:#000000;stroke-width:1.0;stroke-dasharray:2.0,2.0;" x1="10" x2="1220.5" y1="251.7031" y2="251.7031"/><text fill="#000000" font-family="sans-serif" font-size="20" font-weight="bold" lengthAdjust="spacing" textLength="343" x="15" y="270.2676">[unregistered adminnistrator]</text><polygon fill="#181818" points="142,301.2656,132,305.2656,142,309.2656,138,305.2656" style="stroke:#181818;stroke-width:1.0;"/><line style="stroke:#181818;stroke-width:1.0;stroke-dasharray:2.0,2.0;" x1="136" x2="1157" y1="305.2656" y2="305.2656"/><text fill="#000000" font-family="sans-serif" font-size="20" font-weight="bold" lengthAdjust="spacing" textLength="36" x="148" y="298.5488">2.1</text><text fill="#000000" font-family="sans-serif" font-size="20" lengthAdjust="spacing" textLength="963" x="188" y="298.5488">asks to admin information (name, citizenCardNumber,taxNumber,address,email,phoneNumber)</text><polygon fill="#181818" points="1146,338.5469,1156,342.5469,1146,346.5469,1150,342.5469" style="stroke:#181818;stroke-width:1.0;"/><line style="stroke:#181818;stroke-width:1.0;" x1="131" x2="1152" y1="342.5469" y2="342.5469"/><text fill="#000000" font-family="sans-serif" font-size="20" font-weight="bold" lengthAdjust="spacing" textLength="36" x="138" y="335.8301">2.2</text><text fill="#000000" font-family="sans-serif" font-size="20" lengthAdjust="spacing" textLength="251" x="178" y="335.8301">types the requested data</text><polygon fill="#181818" points="142,382.8281,132,386.8281,142,390.8281,138,386.8281" style="stroke:#181818;stroke-width:1.0;"/><line style="stroke:#181818;stroke-width:1.0;stroke-dasharray:2.0,2.0;" x1="136" x2="1162" y1="386.8281" y2="386.8281"/><text fill="#000000" font-family="sans-serif" font-size="20" font-weight="bold" lengthAdjust="spacing" textLength="36" x="148" y="380.1113">2.3</text><text fill="#000000" font-family="sans-serif" font-size="20" lengthAdjust="spacing" textLength="755" x="188" y="380.1113">requests the store data (id, designation,location, phone number and email)</text><polygon fill="#181818" points="1146,420.1094,1156,424.1094,1146,428.1094,1150,424.1094" style="stroke:#181818;stroke-width:1.0;"/><line style="stroke:#181818;stroke-width:1.0;" x1="131" x2="1152" y1="424.1094" y2="424.1094"/><text fill="#000000" font-family="sans-serif" font-size="20" font-weight="bold" lengthAdjust="spacing" textLength="36" x="138" y="417.3926">2.4</text><text fill="#000000" font-family="sans-serif" font-size="20" lengthAdjust="spacing" textLength="212" x="178" y="417.3926">types requested data</text><polygon fill="#181818" points="142,457.3906,132,461.3906,142,465.3906,138,461.3906" style="stroke:#181818;stroke-width:1.0;"/><line style="stroke:#181818;stroke-width:1.0;stroke-dasharray:2.0,2.0;" x1="136" x2="1162" y1="461.3906" y2="461.3906"/><text fill="#000000" font-family="sans-serif" font-size="20" font-weight="bold" lengthAdjust="spacing" textLength="36" x="148" y="454.6738">2.5</text><text fill="#000000" font-family="sans-serif" font-size="20" lengthAdjust="spacing" textLength="497" x="188" y="454.6738">displays the information and asks to confirmation</text><polygon fill="#181818" points="1146,494.6719,1156,498.6719,1146,502.6719,1150,498.6719" style="stroke:#181818;stroke-width:1.0;"/><line style="stroke:#181818;stroke-width:1.0;" x1="131" x2="1152" y1="498.6719" y2="498.6719"/><text fill="#000000" font-family="sans-serif" font-size="20" font-weight="bold" lengthAdjust="spacing" textLength="36" x="138" y="491.9551">2.6</text><text fill="#000000" font-family="sans-serif" font-size="20" lengthAdjust="spacing" textLength="177" x="178" y="491.9551">confirms the data</text><polygon fill="#181818" points="142,531.9531,132,535.9531,142,539.9531,138,535.9531" style="stroke:#181818;stroke-width:1.0;"/><line style="stroke:#181818;stroke-width:1.0;stroke-dasharray:2.0,2.0;" x1="136" x2="1162" y1="535.9531" y2="535.9531"/><text fill="#000000" font-family="sans-serif" font-size="20" font-weight="bold" lengthAdjust="spacing" textLength="36" x="148" y="529.2363">2.7</text><text fill="#000000" font-family="sans-serif" font-size="20" lengthAdjust="spacing" textLength="372" x="188" y="529.2363">displays the Success of the operation</text><!--SRC=[ZPB1Rjim38RlVWeYfnHmXwt77WO4AtRS3du2Jg8T8ZBbINItxEb7IqwROius7mpP9F__8wbyOfamuHYYEv47JptEGJz7qOv_4JoyR_8b1SOeqHrJ70aqpNGLcT2TSA1Epu4WaLEK8Lmdv2Fw-8DbW1v3fgPHLaljpbbfX8w-poIEu8bnMDBtNVTq1_Tm24f9KFcPuAjO6SuQPHw_KRApqvXWjsgW7rauQqBxkmFCq1qQCrTsFA4ex1vhPesLOzE0FTq1xZzUK1ujUigWqTeOJ8uI86IJf99hdloCIcy4CEXBjismaBoWb8nYKmtk5w_3ucEjGCyXcDkHQXMmz36Drd2KgaqsBPZbt_Alau67TnzkkwxT_M47Uy6HMd2ijdZvXCb_ANAjui_rXDudohcb4Jcqqp4ArSZTgz_ROUfvejfVMdPiV-sEeMBjJRozRwAk5RMyhA2KmfvzQnSryo25lBMxMmzGa60T0vfy8QrqdZQNjmcy0RjPl8NjEKy1pnNxUi0BpsNyBahFbqN_XMw3S2sj-hVmu3_vkjavsoZ4ldp6YLA5tOPQrlKR]--></g></svg>