<?xml version="1.0" encoding="UTF-8" standalone="no"?><svg xmlns="http://www.w3.org/2000/svg" xmlns:xlink="http://www.w3.org/1999/xlink" contentStyleType="text/css" height="714px" preserveAspectRatio="none" style="width:2370px;height:714px;background:#FFFFFF;" version="1.1" viewBox="0 0 2370 714" width="2370px" zoomAndPan="magnify"><defs/><g><!--class Person--><g id="elem_Person"><rect codeLine="17" fill="#FFDAB9" height="194.0938" id="Person" rx="2.5" ry="2.5" style="stroke:#4169E1;stroke-width:0.5;" width="172" x="7" y="150.8945"/><text fill="#000000" font-family="sans-serif" font-size="20" lengthAdjust="spacing" textLength="62" x="62" y="176.6563">Person</text><line style="stroke:#4169E1;stroke-width:0.5;" x1="8" x2="178" y1="186.0508" y2="186.0508"/><rect fill="none" height="6" style="stroke:#C82930;stroke-width:1.0;" width="6" x="15" y="201.1289"/><text fill="#000000" font-family="sans-serif" font-size="20" lengthAdjust="spacing" textLength="48" x="28" y="210.8125">name</text><rect fill="none" height="6" style="stroke:#C82930;stroke-width:1.0;" width="6" x="15" y="226.2852"/><text fill="#000000" font-family="sans-serif" font-size="20" lengthAdjust="spacing" textLength="145" x="28" y="235.9688">passportNumber</text><rect fill="none" height="6" style="stroke:#C82930;stroke-width:1.0;" width="6" x="15" y="251.4414"/><text fill="#000000" font-family="sans-serif" font-size="20" lengthAdjust="spacing" textLength="94" x="28" y="261.125">taxNumber</text><rect fill="none" height="6" style="stroke:#C82930;stroke-width:1.0;" width="6" x="15" y="276.5977"/><text fill="#000000" font-family="sans-serif" font-size="20" lengthAdjust="spacing" textLength="46" x="28" y="286.2813">email</text><rect fill="none" height="6" style="stroke:#C82930;stroke-width:1.0;" width="6" x="15" y="301.7539"/><text fill="#000000" font-family="sans-serif" font-size="20" lengthAdjust="spacing" textLength="121" x="28" y="311.4375">phoneNumber</text><rect fill="none" height="6" style="stroke:#C82930;stroke-width:1.0;" width="6" x="15" y="326.9102"/><text fill="#000000" font-family="sans-serif" font-size="20" lengthAdjust="spacing" textLength="86" x="28" y="336.5938">password</text></g><!--class Employee--><g id="elem_Employee"><rect codeLine="26" fill="#FFDAB9" height="68.3125" id="Employee" rx="2.5" ry="2.5" style="stroke:#4169E1;stroke-width:0.5;" width="192" x="320" y="173.8945"/><text fill="#000000" font-family="sans-serif" font-size="20" lengthAdjust="spacing" textLength="87" x="372.5" y="199.6563">Employee</text><line style="stroke:#4169E1;stroke-width:0.5;" x1="321" x2="511" y1="209.0508" y2="209.0508"/><rect fill="none" height="6" style="stroke:#C82930;stroke-width:1.0;" width="6" x="328" y="224.1289"/><text fill="#000000" font-family="sans-serif" font-size="20" lengthAdjust="spacing" textLength="165" x="341" y="233.8125">agencyDesignation</text></g><!--class Agent--><g id="elem_Agent"><rect codeLine="29" fill="#FFDAB9" height="43.1563" id="Agent" rx="2.5" ry="2.5" style="stroke:#4169E1;stroke-width:0.5;" width="57" x="751.5" y="378.3945"/><text fill="#000000" font-family="sans-serif" font-size="20" lengthAdjust="spacing" textLength="51" x="754.5" y="404.1563">Agent</text><line style="stroke:#4169E1;stroke-width:0.5;" x1="752.5" x2="807.5" y1="413.5508" y2="413.5508"/></g><!--class PO--><g id="elem_PO"><rect codeLine="34" fill="#FFDAB9" height="43.1563" id="PO" rx="2.5" ry="2.5" style="stroke:#4169E1;stroke-width:0.5;" width="147" x="542" y="22.3945"/><text fill="#000000" font-family="sans-serif" font-size="20" lengthAdjust="spacing" textLength="141" x="545" y="48.1563">Property Owner</text><line style="stroke:#4169E1;stroke-width:0.5;" x1="543" x2="688" y1="57.5508" y2="57.5508"/></g><!--class Property--><g id="elem_Property"><rect codeLine="38" fill="#FFDAB9" height="143.7813" id="Property" rx="2.5" ry="2.5" style="stroke:#4169E1;stroke-width:0.5;" width="239" x="1511" y="302.8945"/><text fill="#000000" font-family="sans-serif" font-size="20" lengthAdjust="spacing" textLength="76" x="1592.5" y="328.6563">Property</text><line style="stroke:#4169E1;stroke-width:0.5;" x1="1512" x2="1749" y1="338.0508" y2="338.0508"/><rect fill="none" height="6" style="stroke:#C82930;stroke-width:1.0;" width="6" x="1519" y="353.1289"/><text fill="#000000" font-family="sans-serif" font-size="20" lengthAdjust="spacing" textLength="38" x="1532" y="362.8125">type</text><rect fill="none" height="6" style="stroke:#C82930;stroke-width:1.0;" width="6" x="1519" y="378.2852"/><text fill="#000000" font-family="sans-serif" font-size="20" lengthAdjust="spacing" textLength="40" x="1532" y="387.9688">area</text><rect fill="none" height="6" style="stroke:#C82930;stroke-width:1.0;" width="6" x="1519" y="403.4414"/><text fill="#000000" font-family="sans-serif" font-size="20" lengthAdjust="spacing" textLength="212" x="1532" y="413.125">distanceFromCityCenter</text><rect fill="none" height="6" style="stroke:#C82930;stroke-width:1.0;" width="6" x="1519" y="428.5977"/><text fill="#000000" font-family="sans-serif" font-size="20" lengthAdjust="spacing" textLength="87" x="1532" y="438.2813">photoURL</text></g><!--class Home--><g id="elem_Home"><rect codeLine="45" fill="#FFDAB9" height="143.7813" id="Home" rx="2.5" ry="2.5" style="stroke:#4169E1;stroke-width:0.5;" width="236" x="1863" y="173.8945"/><text fill="#000000" font-family="sans-serif" font-size="20" lengthAdjust="spacing" textLength="51" x="1955.5" y="199.6563">Home</text><line style="stroke:#4169E1;stroke-width:0.5;" x1="1864" x2="2098" y1="209.0508" y2="209.0508"/><rect fill="none" height="6" style="stroke:#C82930;stroke-width:1.0;" width="6" x="1871" y="224.1289"/><text fill="#000000" font-family="sans-serif" font-size="20" lengthAdjust="spacing" textLength="175" x="1884" y="233.8125">numberOfbedrooms</text><rect fill="none" height="6" style="stroke:#C82930;stroke-width:1.0;" width="6" x="1871" y="249.2852"/><text fill="#000000" font-family="sans-serif" font-size="20" lengthAdjust="spacing" textLength="180" x="1884" y="258.9688">numberOfbathrooms</text><rect fill="none" height="6" style="stroke:#C82930;stroke-width:1.0;" width="6" x="1871" y="274.4414"/><text fill="#000000" font-family="sans-serif" font-size="20" lengthAdjust="spacing" textLength="209" x="1884" y="284.125">numberOfParkingSpace</text><rect fill="none" height="6" style="stroke:#C82930;stroke-width:1.0;" width="6" x="1871" y="299.5977"/><text fill="#000000" font-family="sans-serif" font-size="20" lengthAdjust="spacing" textLength="168" x="1884" y="309.2813">availableEquipment</text></g><!--class Land--><g id="elem_Land"><rect codeLine="51" fill="#FFDAB9" height="43.1563" id="Land" rx="2.5" ry="2.5" style="stroke:#4169E1;stroke-width:0.5;" width="49" x="1956.5" y="353.3945"/><text fill="#000000" font-family="sans-serif" font-size="20" lengthAdjust="spacing" textLength="43" x="1959.5" y="379.1563">Land</text><line style="stroke:#4169E1;stroke-width:0.5;" x1="1957.5" x2="2004.5" y1="388.5508" y2="388.5508"/></g><!--class Apartment--><g id="elem_Apartment"><rect codeLine="54" fill="#FFDAB9" height="43.1563" id="Apartment" rx="2.5" ry="2.5" style="stroke:#4169E1;stroke-width:0.5;" width="97" x="2229" y="131.3945"/><text fill="#000000" font-family="sans-serif" font-size="20" lengthAdjust="spacing" textLength="91" x="2232" y="157.1563">Apartment</text><line style="stroke:#4169E1;stroke-width:0.5;" x1="2230" x2="2325" y1="166.5508" y2="166.5508"/></g><!--class House--><g id="elem_House"><rect codeLine="57" fill="#FFDAB9" height="118.625" id="House" rx="2.5" ry="2.5" style="stroke:#4169E1;stroke-width:0.5;" width="154" x="2200.5" y="209.3945"/><text fill="#000000" font-family="sans-serif" font-size="20" lengthAdjust="spacing" textLength="55" x="2250" y="235.1563">House</text><line style="stroke:#4169E1;stroke-width:0.5;" x1="2201.5" x2="2353.5" y1="244.5508" y2="244.5508"/><rect fill="none" height="6" style="stroke:#C82930;stroke-width:1.0;" width="6" x="2208.5" y="259.6289"/><text fill="#000000" font-family="sans-serif" font-size="20" lengthAdjust="spacing" textLength="86" x="2221.5" y="269.3125">basement</text><rect fill="none" height="6" style="stroke:#C82930;stroke-width:1.0;" width="6" x="2208.5" y="284.7852"/><text fill="#000000" font-family="sans-serif" font-size="20" lengthAdjust="spacing" textLength="127" x="2221.5" y="294.4688">inhabitableLoft</text><rect fill="none" height="6" style="stroke:#C82930;stroke-width:1.0;" width="6" x="2208.5" y="309.9414"/><text fill="#000000" font-family="sans-serif" font-size="20" lengthAdjust="spacing" textLength="112" x="2221.5" y="319.625">sunExposure</text></g><!--class Announcement--><g id="elem_Announcement"><rect codeLine="62" fill="#FFDAB9" height="93.4688" id="Announcement" rx="2.5" ry="2.5" style="stroke:#4169E1;stroke-width:0.5;" width="134" x="1264" y="277.3945"/><text fill="#000000" font-family="sans-serif" font-size="20" lengthAdjust="spacing" textLength="128" x="1267" y="303.1563">Announcement</text><line style="stroke:#4169E1;stroke-width:0.5;" x1="1265" x2="1397" y1="312.5508" y2="312.5508"/><rect fill="none" height="6" style="stroke:#C82930;stroke-width:1.0;" width="6" x="1272" y="327.6289"/><text fill="#000000" font-family="sans-serif" font-size="20" lengthAdjust="spacing" textLength="15" x="1285" y="337.3125">id</text><rect fill="none" height="6" style="stroke:#C82930;stroke-width:1.0;" width="6" x="1272" y="352.7852"/><text fill="#000000" font-family="sans-serif" font-size="20" lengthAdjust="spacing" textLength="44" x="1285" y="362.4688">state</text></g><!--class Agency--><g id="elem_Agency"><rect codeLine="66" fill="#FFDAB9" height="143.7813" id="Agency" rx="2.5" ry="2.5" style="stroke:#4169E1;stroke-width:0.5;" width="148" x="342" y="404.8945"/><text fill="#000000" font-family="sans-serif" font-size="20" lengthAdjust="spacing" textLength="65" x="383.5" y="430.6563">Agency</text><line style="stroke:#4169E1;stroke-width:0.5;" x1="343" x2="489" y1="440.0508" y2="440.0508"/><rect fill="none" height="6" style="stroke:#C82930;stroke-width:1.0;" width="6" x="350" y="455.1289"/><text fill="#000000" font-family="sans-serif" font-size="20" lengthAdjust="spacing" textLength="15" x="363" y="464.8125">id</text><rect fill="none" height="6" style="stroke:#C82930;stroke-width:1.0;" width="6" x="350" y="480.2852"/><text fill="#000000" font-family="sans-serif" font-size="20" lengthAdjust="spacing" textLength="99" x="363" y="489.9688">designation</text><rect fill="none" height="6" style="stroke:#C82930;stroke-width:1.0;" width="6" x="350" y="505.4414"/><text fill="#000000" font-family="sans-serif" font-size="20" lengthAdjust="spacing" textLength="121" x="363" y="515.125">phoneNumber</text><rect fill="none" height="6" style="stroke:#C82930;stroke-width:1.0;" width="6" x="350" y="530.5977"/><text fill="#000000" font-family="sans-serif" font-size="20" lengthAdjust="spacing" textLength="46" x="363" y="540.2813">email</text></g><!--class Commission--><g id="elem_Commission"><rect codeLine="72" fill="#FFDAB9" height="93.4688" id="Commission" rx="2.5" ry="2.5" style="stroke:#4169E1;stroke-width:0.5;" width="112" x="1039" y="383.3945"/><text fill="#000000" font-family="sans-serif" font-size="20" lengthAdjust="spacing" textLength="106" x="1042" y="409.1563">Commission</text><line style="stroke:#4169E1;stroke-width:0.5;" x1="1040" x2="1150" y1="418.5508" y2="418.5508"/><rect fill="none" height="6" style="stroke:#C82930;stroke-width:1.0;" width="6" x="1047" y="433.6289"/><text fill="#000000" font-family="sans-serif" font-size="20" lengthAdjust="spacing" textLength="38" x="1060" y="443.3125">type</text><rect fill="none" height="6" style="stroke:#C82930;stroke-width:1.0;" width="6" x="1047" y="458.7852"/><text fill="#000000" font-family="sans-serif" font-size="20" lengthAdjust="spacing" textLength="45" x="1060" y="468.4688">value</text></g><!--class Prediction--><g id="elem_Prediction"><rect codeLine="77" fill="#FFDAB9" height="68.3125" id="Prediction" rx="2.5" ry="2.5" style="stroke:#4169E1;stroke-width:0.5;" width="93" x="1048.5" y="182.8945"/><text fill="#000000" font-family="sans-serif" font-size="20" lengthAdjust="spacing" textLength="87" x="1051.5" y="208.6563">Prediction</text><line style="stroke:#4169E1;stroke-width:0.5;" x1="1049.5" x2="1140.5" y1="218.0508" y2="218.0508"/><rect fill="none" height="6" style="stroke:#C82930;stroke-width:1.0;" width="6" x="1056.5" y="233.1289"/><text fill="#000000" font-family="sans-serif" font-size="20" lengthAdjust="spacing" textLength="45" x="1069.5" y="242.8125">value</text></g><!--class Address--><g id="elem_Address"><rect codeLine="81" fill="#FFDAB9" height="143.7813" id="Address" rx="2.5" ry="2.5" style="stroke:#4169E1;stroke-width:0.5;" width="94" x="1934" y="554.8945"/><text fill="#000000" font-family="sans-serif" font-size="20" lengthAdjust="spacing" textLength="73" x="1944.5" y="580.6563">Address</text><line style="stroke:#4169E1;stroke-width:0.5;" x1="1935" x2="2027" y1="590.0508" y2="590.0508"/><rect fill="none" height="6" style="stroke:#C82930;stroke-width:1.0;" width="6" x="1942" y="605.1289"/><text fill="#000000" font-family="sans-serif" font-size="20" lengthAdjust="spacing" textLength="51" x="1955" y="614.8125">street</text><rect fill="none" height="6" style="stroke:#C82930;stroke-width:1.0;" width="6" x="1942" y="630.2852"/><text fill="#000000" font-family="sans-serif" font-size="20" lengthAdjust="spacing" textLength="30" x="1955" y="639.9688">city</text><rect fill="none" height="6" style="stroke:#C82930;stroke-width:1.0;" width="6" x="1942" y="655.4414"/><text fill="#000000" font-family="sans-serif" font-size="20" lengthAdjust="spacing" textLength="44" x="1955" y="665.125">state</text><rect fill="none" height="6" style="stroke:#C82930;stroke-width:1.0;" width="6" x="1942" y="680.5977"/><text fill="#000000" font-family="sans-serif" font-size="20" lengthAdjust="spacing" textLength="67" x="1955" y="690.2813">zipcode</text></g><!--class Role--><g id="elem_Role"><rect codeLine="87" fill="#FFDAB9" height="93.4688" id="Role" rx="2.5" ry="2.5" style="stroke:#4169E1;stroke-width:0.5;" width="122" x="719" y="118.3945"/><text fill="#000000" font-family="sans-serif" font-size="20" lengthAdjust="spacing" textLength="40" x="760" y="144.1563">Role</text><line style="stroke:#4169E1;stroke-width:0.5;" x1="720" x2="840" y1="153.5508" y2="153.5508"/><rect fill="none" height="6" style="stroke:#C82930;stroke-width:1.0;" width="6" x="727" y="168.6289"/><text fill="#000000" font-family="sans-serif" font-size="20" lengthAdjust="spacing" textLength="15" x="740" y="178.3125">id</text><rect fill="none" height="6" style="stroke:#C82930;stroke-width:1.0;" width="6" x="727" y="193.7852"/><text fill="#000000" font-family="sans-serif" font-size="20" lengthAdjust="spacing" textLength="95" x="740" y="203.4688">description</text></g><!--class Order--><g id="elem_Order"><rect codeLine="91" fill="#FFDAB9" height="93.4688" id="Order" rx="2.5" ry="2.5" style="stroke:#4169E1;stroke-width:0.5;" width="138" x="871" y="82.3945"/><text fill="#000000" font-family="sans-serif" font-size="20" lengthAdjust="spacing" textLength="52" x="914" y="108.1563">Order</text><line style="stroke:#4169E1;stroke-width:0.5;" x1="872" x2="1008" y1="117.5508" y2="117.5508"/><rect fill="none" height="6" style="stroke:#C82930;stroke-width:1.0;" width="6" x="879" y="132.6289"/><text fill="#000000" font-family="sans-serif" font-size="20" lengthAdjust="spacing" textLength="111" x="892" y="142.3125">requestPrice</text><rect fill="none" height="6" style="stroke:#C82930;stroke-width:1.0;" width="6" x="879" y="157.7852"/><text fill="#000000" font-family="sans-serif" font-size="20" lengthAdjust="spacing" textLength="39" x="892" y="167.4688">date</text></g><!--class Deal--><g id="elem_Deal"><rect codeLine="95" fill="#FFDAB9" height="68.3125" id="Deal" rx="2.5" ry="2.5" style="stroke:#4169E1;stroke-width:0.5;" width="108" x="1927" y="431.8945"/><text fill="#000000" font-family="sans-serif" font-size="20" lengthAdjust="spacing" textLength="40" x="1961" y="457.6563">Deal</text><line style="stroke:#4169E1;stroke-width:0.5;" x1="1928" x2="2034" y1="467.0508" y2="467.0508"/><rect fill="none" height="6" style="stroke:#C82930;stroke-width:1.0;" width="6" x="1935" y="482.1289"/><text fill="#000000" font-family="sans-serif" font-size="20" lengthAdjust="spacing" textLength="81" x="1948" y="491.8125">dealType</text></g><!--class Sale--><g id="elem_Sale"><rect codeLine="98" fill="#FFDAB9" height="68.3125" id="Sale" rx="2.5" ry="2.5" style="stroke:#4169E1;stroke-width:0.5;" width="146" x="2204.5" y="408.8945"/><text fill="#000000" font-family="sans-serif" font-size="20" lengthAdjust="spacing" textLength="39" x="2258" y="434.6563">Sale</text><line style="stroke:#4169E1;stroke-width:0.5;" x1="2205.5" x2="2349.5" y1="444.0508" y2="444.0508"/><rect fill="none" height="6" style="stroke:#C82930;stroke-width:1.0;" width="6" x="2212.5" y="459.1289"/><text fill="#000000" font-family="sans-serif" font-size="20" lengthAdjust="spacing" textLength="119" x="2225.5" y="468.8125">propertyPrice</text></g><!--class Rent--><g id="elem_Rent"><rect codeLine="101" fill="#FFDAB9" height="93.4688" id="Rent" rx="2.5" ry="2.5" style="stroke:#4169E1;stroke-width:0.5;" width="171" x="2192" y="512.3945"/><text fill="#000000" font-family="sans-serif" font-size="20" lengthAdjust="spacing" textLength="41" x="2257" y="538.1563">Rent</text><line style="stroke:#4169E1;stroke-width:0.5;" x1="2193" x2="2362" y1="547.5508" y2="547.5508"/><rect fill="none" height="6" style="stroke:#C82930;stroke-width:1.0;" width="6" x="2200" y="562.6289"/><text fill="#000000" font-family="sans-serif" font-size="20" lengthAdjust="spacing" textLength="115" x="2213" y="572.3125">propertyRent</text><rect fill="none" height="6" style="stroke:#C82930;stroke-width:1.0;" width="6" x="2200" y="587.7852"/><text fill="#000000" font-family="sans-serif" font-size="20" lengthAdjust="spacing" textLength="144" x="2213" y="597.4688">contractDuration</text></g><!--class Client--><g id="elem_Client"><rect fill="#FFDAB9" height="43.1563" id="Client" rx="2.5" ry="2.5" style="stroke:#4169E1;stroke-width:0.5;" width="55" x="388.5" y="277.3945"/><text fill="#000000" font-family="sans-serif" font-size="20" lengthAdjust="spacing" textLength="49" x="391.5" y="303.1563">Client</text><line style="stroke:#4169E1;stroke-width:0.5;" x1="389.5" x2="442.5" y1="312.5508" y2="312.5508"/></g><!--link PO to Announcement--><g id="link_PO_Announcement"><path codeLine="107" d="M689.33,35.8045 C796.63,27.2445 1000.7,23.9145 1151,99.8945 C1226.08,137.8445 1280.04,223.3145 1308.05,277.0145 " fill="none" id="PO-Announcement" style="stroke:#4169E1;stroke-width:1.0;"/><polygon fill="#000000" points="911.4536,24.3785,899.6779,14.7407,896.2619,23.5029,911.4536,24.3785" style="stroke:#000000;stroke-width:1.0;"/><text fill="#000000" font-family="sans-serif" font-size="20" lengthAdjust="spacing" textLength="66" x="917" y="29.6563">request</text><text fill="#000000" font-family="sans-serif" font-size="20" lengthAdjust="spacing" textLength="11" x="696.8911" y="56.9866">1</text><text fill="#000000" font-family="sans-serif" font-size="20" lengthAdjust="spacing" textLength="31" x="1272.1236" y="265.1482">1..*</text></g><!--link Announcement to Property--><g id="link_Announcement_Property"><path codeLine="109" d="M1398.02,335.2145 C1431.23,340.9045 1472.51,347.9845 1510.97,354.5745 " fill="none" id="Announcement-Property" style="stroke:#4169E1;stroke-width:1.0;"/><polygon fill="#000000" points="1443.885,327.8242,1430.4153,320.7446,1428.8265,330.0139,1443.885,327.8242" style="stroke:#000000;stroke-width:1.0;"/><text fill="#000000" font-family="sans-serif" font-size="20" lengthAdjust="spacing" textLength="31" x="1449" y="334.6563">has</text><text fill="#000000" font-family="sans-serif" font-size="20" lengthAdjust="spacing" textLength="11" x="1405.9519" y="358.5645">1</text><text fill="#000000" font-family="sans-serif" font-size="20" lengthAdjust="spacing" textLength="11" x="1491.9603" y="374.8473">1</text></g><!--link Announcement to Agent--><g id="link_Announcement_Agent"><path codeLine="110" d="M1263.99,326.7745 C1174.23,331.6445 1009.04,343.9445 871,372.8945 C849.77,377.3445 826.3,384.4645 808.66,390.2645 " fill="none" id="Announcement-Agent" style="stroke:#4169E1;stroke-width:1.0;"/><polygon fill="#000000" points="1051.5767,322.5775,1066.5595,325.2361,1065.2607,315.9216,1051.5767,322.5775" style="stroke:#000000;stroke-width:1.0;"/><text fill="#000000" font-family="sans-serif" font-size="20" lengthAdjust="spacing" textLength="65" x="1072.5" y="329.6563">send to</text><text fill="#000000" font-family="sans-serif" font-size="20" lengthAdjust="spacing" textLength="11" x="1245.0592" y="349.2013">1</text><text fill="#000000" font-family="sans-serif" font-size="20" lengthAdjust="spacing" textLength="11" x="816.5595" y="380.9087">1</text></g><!--link Agent to Announcement--><g id="link_Agent_Announcement"><path codeLine="120" d="M807.24,421.5045 C868.75,469.3945 1026.47,576.0045 1151,520.8945 C1220.09,490.3245 1273.94,418.4445 1303.84,370.4945 " fill="none" id="Agent-Announcement" style="stroke:#4169E1;stroke-width:1.0;"/><polygon fill="#000000" points="1059.4581,506.6552,1044.5813,503.4563,1045.5422,512.8117,1059.4581,506.6552" style="stroke:#000000;stroke-width:1.0;"/><text fill="#000000" font-family="sans-serif" font-size="20" lengthAdjust="spacing" textLength="81" x="1064.5" y="515.6563">publishes</text><text fill="#000000" font-family="sans-serif" font-size="20" lengthAdjust="spacing" textLength="11" x="801.2674" y="450.1542">1</text><text fill="#000000" font-family="sans-serif" font-size="20" lengthAdjust="spacing" textLength="8" x="1291.4581" y="399.5452">*</text></g><!--link Agency to Agent--><g id="link_Agency_Agent"><path codeLine="113" d="M490.26,461.3145 C570.83,444.1745 696.19,417.5045 751.35,405.7745 " fill="none" id="Agency-Agent" style="stroke:#4169E1;stroke-width:1.0;"/><polygon fill="#000000" points="604.8249,404.8081,589.6911,403.2199,591.6479,412.4187,604.8249,404.8081" style="stroke:#000000;stroke-width:1.0;"/><text fill="#000000" font-family="sans-serif" font-size="20" lengthAdjust="spacing" textLength="31" x="610" y="414.6563">has</text><text fill="#000000" font-family="sans-serif" font-size="20" lengthAdjust="spacing" textLength="11" x="498.1114" y="481.7915">1</text><text fill="#000000" font-family="sans-serif" font-size="20" lengthAdjust="spacing" textLength="31" x="712.4858" y="429.8102">1..*</text></g><!--link Agency to Address--><g id="link_Agency_Address"><path codeLine="114" d="M490.3,527.2645 C560.95,570.8345 672.53,626.8945 779,626.8945 C779,626.8945 779,626.8945 1631.5,626.8945 C1739.8,626.8945 1867.03,626.8945 1933.77,626.8945 " fill="none" id="Agency-Address" style="stroke:#4169E1;stroke-width:1.0;"/><polygon fill="#000000" points="1196.981,614.0235,1182.867,608.3359,1182.2194,617.7181,1196.981,614.0235" style="stroke:#000000;stroke-width:1.0;"/><text fill="#000000" font-family="sans-serif" font-size="20" lengthAdjust="spacing" textLength="31" x="1202" y="621.6563">has</text><text fill="#000000" font-family="sans-serif" font-size="20" lengthAdjust="spacing" textLength="11" x="497.9059" y="554.0364">1</text><text fill="#000000" font-family="sans-serif" font-size="20" lengthAdjust="spacing" textLength="11" x="1915.0253" y="649.5197">1</text></g><!--link Commission to Announcement--><g id="link_Commission_Announcement"><path codeLine="118" d="M1151.16,404.9045 C1184.94,389.6045 1228.37,369.9345 1263.97,353.8045 " fill="none" id="Commission-Announcement" style="stroke:#4169E1;stroke-width:1.0;"/><polygon fill="#000000" points="1181.7128,356.7736,1196.8357,355.0855,1192.9553,346.5188,1181.7128,356.7736" style="stroke:#000000;stroke-width:1.0;"/><text fill="#000000" font-family="sans-serif" font-size="20" lengthAdjust="spacing" textLength="31" x="1202" y="361.6563">has</text><text fill="#000000" font-family="sans-serif" font-size="20" lengthAdjust="spacing" textLength="11" x="1159.0602" y="424.0459">1</text><text fill="#000000" font-family="sans-serif" font-size="20" lengthAdjust="spacing" textLength="11" x="1245.037" y="379.1878">1</text></g><!--link Agent to Commission--><g id="link_Agent_Commission"><path codeLine="119" d="M808.5,402.5345 C859.89,407.4545 971.38,418.1445 1038.83,424.6045 " fill="none" id="Agent-Commission" style="stroke:#4169E1;stroke-width:1.0;"/><polygon fill="#000000" points="931.4635,395.2357,917.5059,389.1745,916.6089,398.5362,931.4635,395.2357" style="stroke:#000000;stroke-width:1.0;"/><text fill="#000000" font-family="sans-serif" font-size="20" lengthAdjust="spacing" textLength="27" x="936.5" y="402.6563">set</text><text fill="#000000" font-family="sans-serif" font-size="20" lengthAdjust="spacing" textLength="11" x="816.3625" y="426.7974">1</text><text fill="#000000" font-family="sans-serif" font-size="20" lengthAdjust="spacing" textLength="31" x="999.9911" y="446.1378">1..*</text></g><!--link Agent to Prediction--><g id="link_Agent_Prediction"><path codeLine="121" d="M798.37,378.2645 C810.37,363.2945 826.68,342.9145 841,324.8945 C854.39,308.0445 853.28,299.1045 871,286.8945 C925.3,249.4845 1000.52,231.3645 1048.22,223.1145 " fill="none" id="Agent-Prediction" style="stroke:#4169E1;stroke-width:1.0;"/><polygon fill="#000000" points="914.7963,214.2524,900.0211,217.8922,904.9823,225.8817,914.7963,214.2524" style="stroke:#000000;stroke-width:1.0;"/><text fill="#000000" font-family="sans-serif" font-size="20" lengthAdjust="spacing" textLength="58" x="921" y="226.6563">makes</text><text fill="#000000" font-family="sans-serif" font-size="20" lengthAdjust="spacing" textLength="11" x="790.3462" y="366.1337">1</text><text fill="#000000" font-family="sans-serif" font-size="20" lengthAdjust="spacing" textLength="8" x="1032.4443" y="246.7308">*</text></g><!--link Employee to Agent--><g id="link_Employee_Agent"><path codeLine="125" d="M512.07,222.4745 C578.5,234.0345 660.24,251.4445 689,270.8945 C729.04,297.9745 756.74,349.2745 770.02,378.3545 " fill="none" id="Employee-Agent" style="stroke:#4169E1;stroke-width:1.0;"/><polygon fill="#000000" points="589.8469,219.6103,579.8928,208.1007,575.0287,216.1498,589.8469,219.6103" style="stroke:#000000;stroke-width:1.0;"/><text fill="#000000" font-family="sans-serif" font-size="20" lengthAdjust="spacing" textLength="59" x="596" y="223.6563">can be</text><text fill="#000000" font-family="sans-serif" font-size="20" lengthAdjust="spacing" textLength="11" x="519.8465" y="245.3036">1</text><text fill="#000000" font-family="sans-serif" font-size="20" lengthAdjust="spacing" textLength="8" x="758.6124" y="365.819">*</text></g><!--link Employee to Role--><g id="link_Employee_Role"><path codeLine="126" d="M512.11,196.5945 C577.57,188.8245 662.55,178.7245 718.83,172.0445 " fill="none" id="Employee-Role" style="stroke:#4169E1;stroke-width:1.0;"/><polygon fill="#000000" points="596.4442,162.5292,581.5185,159.5665,582.6276,168.9054,596.4442,162.5292" style="stroke:#000000;stroke-width:1.0;"/><text fill="#000000" font-family="sans-serif" font-size="20" lengthAdjust="spacing" textLength="48" x="601.5" y="171.6563">has a</text><text fill="#000000" font-family="sans-serif" font-size="20" lengthAdjust="spacing" textLength="11" x="519.8895" y="217.4421">1</text><text fill="#000000" font-family="sans-serif" font-size="20" lengthAdjust="spacing" textLength="8" x="702.8874" y="195.1821">*</text></g><!--link Client to Order--><g id="link_Client_Order"><path codeLine="130" d="M443.73,304.0745 C493.03,312.6445 601.24,326.8545 689,305.8945 C762.66,288.3045 780.41,274.3145 841,228.8945 C856.6,217.2045 857.44,210.9045 871,196.8945 C877.74,189.9345 884.91,182.6445 891.98,175.5245 " fill="none" id="Client-Order" style="stroke:#4169E1;stroke-width:1.0;"/><polygon fill="#000000" points="591.19,290.2673,575.9824,289.7367,578.5749,298.7769,591.19,290.2673" style="stroke:#000000;stroke-width:1.0;"/><text fill="#000000" font-family="sans-serif" font-size="20" lengthAdjust="spacing" textLength="58" x="596.5" y="300.6563">makes</text><text fill="#000000" font-family="sans-serif" font-size="20" lengthAdjust="spacing" textLength="11" x="451.4144" y="328.9248">1</text><text fill="#000000" font-family="sans-serif" font-size="20" lengthAdjust="spacing" textLength="11" x="873.4538" y="204.5794">1</text></g><!--link Order to Announcement--><g id="link_Order_Announcement"><path codeLine="133" d="M1009.14,131.0845 C1051.71,134.6945 1106.66,143.5845 1151,164.8945 C1206.45,191.5445 1257.61,240.5245 1290.91,277.1045 " fill="none" id="Order-Announcement" style="stroke:#4169E1;stroke-width:1.0;"/><polygon fill="#000000" points="1083.6029,125.1535,1072.9172,114.3198,1068.5901,122.6697,1083.6029,125.1535" style="stroke:#000000;stroke-width:1.0;"/><text fill="#000000" font-family="sans-serif" font-size="20" lengthAdjust="spacing" textLength="31" x="1089.5" y="129.6563">has</text><text fill="#000000" font-family="sans-serif" font-size="20" lengthAdjust="spacing" textLength="11" x="1016.8373" y="153.345">1</text><text fill="#000000" font-family="sans-serif" font-size="20" lengthAdjust="spacing" textLength="11" x="1245.1476" y="271.601">1</text></g><!--link Person to Client--><g id="link_Person_Client"><path codeLine="135" d="M179.08,262.0445 C189.16,263.6945 199.31,265.3445 209,266.8945 C273.33,277.2045 349.04,288.8345 388.32,294.8345 " fill="none" id="Person-Client" style="stroke:#4169E1;stroke-width:1.0;"/><polygon fill="#000000" points="224.9035,254.7112,211.3339,247.8251,209.8779,257.1162,224.9035,254.7112" style="stroke:#000000;stroke-width:1.0;"/><text fill="#000000" font-family="sans-serif" font-size="20" lengthAdjust="spacing" textLength="59" x="230" y="261.6563">can be</text><text fill="#000000" font-family="sans-serif" font-size="20" lengthAdjust="spacing" textLength="11" x="186.9502" y="285.0992">1</text><text fill="#000000" font-family="sans-serif" font-size="20" lengthAdjust="spacing" textLength="8" x="372.598" y="317.6535">*</text></g><!--link Person to PO--><g id="link_Person_PO"><path codeLine="136" d="M179.13,202.6645 C189.11,197.8245 199.22,193.1345 209,188.8945 C324.77,138.7545 464.11,91.7145 545.64,65.4645 " fill="none" id="Person-PO" style="stroke:#4169E1;stroke-width:1.0;"/><polygon fill="#000000" points="224.4923,141.668,209.2901,142.3378,212.5872,151.1455,224.4923,141.668" style="stroke:#000000;stroke-width:1.0;"/><text fill="#000000" font-family="sans-serif" font-size="20" lengthAdjust="spacing" textLength="59" x="230" y="152.6563">can be</text><text fill="#000000" font-family="sans-serif" font-size="20" lengthAdjust="spacing" textLength="11" x="187.0045" y="220.6162">1</text><text fill="#000000" font-family="sans-serif" font-size="20" lengthAdjust="spacing" textLength="8" x="525.8686" y="91.6562">*</text></g><!--link Person to Address--><g id="link_Person_Address"><path codeLine="137" d="M115.72,344.9545 C152.25,479.6545 239.84,706.8945 415,706.8945 C415,706.8945 415,706.8945 1631.5,706.8945 C1742.31,706.8945 1868.02,668.0045 1933.99,644.4545 " fill="none" id="Person-Address" style="stroke:#4169E1;stroke-width:1.0;"/><polygon fill="#000000" points="1084.3936,694.7729,1070.8782,687.781,1069.3497,697.0605,1084.3936,694.7729" style="stroke:#000000;stroke-width:1.0;"/><text fill="#000000" font-family="sans-serif" font-size="20" lengthAdjust="spacing" textLength="31" x="1089.5" y="701.6563">has</text><text fill="#000000" font-family="sans-serif" font-size="20" lengthAdjust="spacing" textLength="11" x="105.9846" y="373.7644">1</text><text fill="#000000" font-family="sans-serif" font-size="20" lengthAdjust="spacing" textLength="28" x="1898.1731" y="669.0917">1,0</text></g><!--link Property to Address--><g id="link_Property_Address"><path codeLine="140" d="M1731.37,447.1045 C1797.94,495.2445 1882.35,556.2845 1933.71,593.4245 " fill="none" id="Property-Address" style="stroke:#4169E1;stroke-width:1.0;"/><polygon fill="#000000" points="1794.4826,476.1605,1785.5109,463.8697,1780,471.4905,1794.4826,476.1605" style="stroke:#000000;stroke-width:1.0;"/><text fill="#000000" font-family="sans-serif" font-size="20" lengthAdjust="spacing" textLength="31" x="1801" y="479.6563">has</text><text fill="#000000" font-family="sans-serif" font-size="20" lengthAdjust="spacing" textLength="11" x="1728.8639" y="475.4274">1</text><text fill="#000000" font-family="sans-serif" font-size="20" lengthAdjust="spacing" textLength="11" x="1914.9565" y="611.1338">1</text></g><!--link Property to Deal--><g id="link_Property_Deal"><path codeLine="144" d="M1750.46,405.9545 C1810.4,421.6045 1880.09,439.8045 1926.81,452.0045 " fill="none" id="Property-Deal" style="stroke:#4169E1;stroke-width:1.0;"/><polygon fill="#000000" points="1795.7404,403.4939,1782.9259,395.2877,1780.5498,404.3872,1795.7404,403.4939" style="stroke:#000000;stroke-width:1.0;"/><text fill="#000000" font-family="sans-serif" font-size="20" lengthAdjust="spacing" textLength="31" x="1801" y="409.6563">has</text><text fill="#000000" font-family="sans-serif" font-size="20" lengthAdjust="spacing" textLength="11" x="1758.1052" y="429.3821">1</text><text fill="#000000" font-family="sans-serif" font-size="20" lengthAdjust="spacing" textLength="11" x="1908.1622" y="472.5781">1</text></g><!--reverse link Deal to Sale--><g id="link_Deal_Sale"><path codeLine="147" d="M2048.3,460.7145 C2094.74,457.0845 2156.78,452.2445 2204.45,448.5245 " fill="none" id="Deal-backto-Sale" style="stroke:#4169E1;stroke-width:1.0;"/><polygon fill="#4169E1" points="2035.33,461.7245,2041.6239,465.2441,2047.2934,460.788,2040.9995,457.2685,2035.33,461.7245" style="stroke:#4169E1;stroke-width:1.0;"/></g><!--reverse link Deal to Rent--><g id="link_Deal_Rent"><path codeLine="148" d="M2047.79,486.6745 C2090.29,500.0945 2146,517.6845 2191.79,532.1445 " fill="none" id="Deal-backto-Rent" style="stroke:#4169E1;stroke-width:1.0;"/><polygon fill="#4169E1" points="2035.33,482.7345,2039.8476,488.3552,2046.7734,486.3468,2042.2558,480.7262,2035.33,482.7345" style="stroke:#4169E1;stroke-width:1.0;"/></g><!--reverse link Property to Land--><g id="link_Property_Land"><path codeLine="150" d="M1770.87,374.8945 C1840.71,374.8945 1918.34,374.8945 1956.38,374.8945 " fill="none" id="Property-backto-Land" style="stroke:#4169E1;stroke-width:1.0;"/><polygon fill="none" points="1770.46,381.8945,1750.46,374.8945,1770.46,367.8945,1770.46,381.8945" style="stroke:#4169E1;stroke-width:1.0;"/><text fill="#000000" font-family="sans-serif" font-size="20" lengthAdjust="spacing" textLength="31" x="1791" y="369.6563">is a</text></g><!--reverse link Property to Home--><g id="link_Property_Home"><path codeLine="151" d="M1769.45,323.8345 C1800.33,312.4045 1832.81,300.3745 1862.76,289.2945 " fill="none" id="Property-backto-Home" style="stroke:#4169E1;stroke-width:1.0;"/><polygon fill="none" points="1771.65,330.4845,1750.46,330.8645,1766.79,317.3545,1771.65,330.4845" style="stroke:#4169E1;stroke-width:1.0;"/><text fill="#000000" font-family="sans-serif" font-size="20" lengthAdjust="spacing" textLength="31" x="1791" y="296.6563">is a</text></g><!--reverse link Home to Apartment--><g id="link_Home_Apartment"><path codeLine="152" d="M2118.51,202.7845 C2158.03,190.3045 2198.58,177.5045 2228.71,167.9845 " fill="none" id="Home-backto-Apartment" style="stroke:#4169E1;stroke-width:1.0;"/><polygon fill="none" points="2120.42,209.5245,2099.24,208.8745,2116.2,196.1745,2120.42,209.5245" style="stroke:#4169E1;stroke-width:1.0;"/><text fill="#000000" font-family="sans-serif" font-size="20" lengthAdjust="spacing" textLength="31" x="2130" y="186.6563">is a</text></g><!--reverse link Home to House--><g id="link_Home_House"><path codeLine="153" d="M2119.36,256.6245 C2147.19,258.7945 2175.49,261.0045 2200.27,262.9445 " fill="none" id="Home-backto-House" style="stroke:#4169E1;stroke-width:1.0;"/><polygon fill="none" points="2118.63,263.5845,2099.24,255.0545,2119.72,249.6245,2118.63,263.5845" style="stroke:#4169E1;stroke-width:1.0;"/><text fill="#000000" font-family="sans-serif" font-size="20" lengthAdjust="spacing" textLength="31" x="2130" y="251.6563">is a</text></g><!--reverse link Person to Employee--><g id="link_Person_Employee"><path codeLine="155" d="M199.29,234.7745 C238.13,229.9345 281.89,224.4845 319.79,219.7545 " fill="none" id="Person-backto-Employee" style="stroke:#4169E1;stroke-width:1.0;"/><polygon fill="none" points="199.89,241.7545,179.18,237.2845,198.16,227.8645,199.89,241.7545" style="stroke:#4169E1;stroke-width:1.0;"/><text fill="#000000" font-family="sans-serif" font-size="20" lengthAdjust="spacing" textLength="31" x="234" y="218.6563">is a</text></g><!--SRC=[XLNRRXCn47ttLrXvYOH8LNX4g598Mu5KqQY53t3iITQgrrviBoKq_3lZzMMzIGhxilRCyLpFsEv9wevPrYh3dq1G0LlMAtzhj7-Klu6-loHpbp6qDThmnfeMgBSza57JCVx4Tl3ezmge1UwPtgaQu1ecpBFKExfboa5jLKaDVjy1DTOtXYZOUkeDjNBNU2fai2QDhazmnPnRUc_bflVmXHiz17j96Yc0Scav-XxMBQ19uSXyaRzRYH4wZ1DZAK9oP9k-48hV9yngPqslnSeeO-aQ66_M_NOxQ9VMckUeU31xfZufBCbmp5W1zbZpfme2lyEIUsFTON7qaVbX3TOPxGuanXAtAQG5rQo5jEnGtM7LllRj1cmIUlPhieUMIPKFD4R3H1jCF6Ey8Rp3JTifimSehhEWECSUQxw_1YTtcWrj-PEWIzJu5u9xDBHI4dV5p6njJGVMx-dzimOxemopkgSHdP9CYEme42BxjC1eMWlfa5eSRf64A-dtAtGpvj8ORxu_t94IrET0rLAu8U_xxGQ4DQPrnsBcctFoDRD8ZjqZKhn4z1DBoZOARdxqicinXkBnZcdnCWQmH5BvDbSc1zKxo45jc8F1GDnAtR2DzC7sdTbcgUlrpQ_EkDx2Q5bh92Q7Q3oT5hbEM2KFk9gqX-zFWQ9gvMiSYGpAbbQcRQLpSgJasAkVB3AzD1M47AOtGuy0Io4iE9UKpbi0doBZs5sQvI6PkFujEsx4M8O7et8jfOX_J8bRsKtOUHyciZ31meyUd5zRMLegq4L1NmDJBwL0J7qB2MRb8oiUQPTO6osLcAgMPCJ3s6Eyhhnbt5_tDe_GV77w8Kp7gy-TAibyEb84nsdsRaON2_nTNBoPJVX1F-IKwHMPrneoWHKBipAFUBJ1QRrw5JZCFQ8SQ16kxIkS_qWs4d_7SILyide4cMLA54Govqd5kne-JJES-KYYZwdVwdW8rYVd8-oqPbs_KT8ruCvXAsv_e2rxWXHilZ99kJjh1obvpZJT01uu1mgKJgcmePpnDgM4f4MLVkHr5S1ya90e_tUTa0hnQI7fXQbYY9wgG4yXoBZNzU_UNfvfPI4jAVJwJ-Thgfux4oQriX-sP92zGK2OL3fkXn4yDscB1YpUkJiufoCNnUz7VApfHRZXqQKCtJbH3WzEL9AuYVBo3fnJ3Wz2Lg39MCgeAmH9why0]--></g></svg>