<?xml version="1.0" encoding="UTF-8" standalone="no"?><svg xmlns="http://www.w3.org/2000/svg" xmlns:xlink="http://www.w3.org/1999/xlink" contentStyleType="text/css" height="794px" preserveAspectRatio="none" style="width:1442px;height:794px;background:#FFFFFF;" version="1.1" viewBox="0 0 1442 794" width="1442px" zoomAndPan="magnify"><defs/><g><!--class Employee--><g id="elem_Employee"><rect codeLine="17" fill="#FFDAB9" height="68.3125" id="Employee" rx="2.5" ry="2.5" style="stroke:#4169E1;stroke-width:0.5;" width="192" x="606.5" y="287"/><text fill="#000000" font-family="sans-serif" font-size="20" lengthAdjust="spacing" textLength="87" x="659" y="312.7617">Employee</text><line style="stroke:#4169E1;stroke-width:0.5;" x1="607.5" x2="797.5" y1="322.1563" y2="322.1563"/><rect fill="none" height="6" style="stroke:#C82930;stroke-width:1.0;" width="6" x="614.5" y="337.2344"/><text fill="#000000" font-family="sans-serif" font-size="20" lengthAdjust="spacing" textLength="165" x="627.5" y="346.918">agencyDesignation</text></g><!--class Person--><g id="elem_Person"><rect codeLine="21" fill="#FFDAB9" height="194.0938" id="Person" rx="2.5" ry="2.5" style="stroke:#4169E1;stroke-width:0.5;" width="172" x="947" y="7"/><text fill="#000000" font-family="sans-serif" font-size="20" lengthAdjust="spacing" textLength="62" x="1002" y="32.7617">Person</text><line style="stroke:#4169E1;stroke-width:0.5;" x1="948" x2="1118" y1="42.1563" y2="42.1563"/><rect fill="none" height="6" style="stroke:#C82930;stroke-width:1.0;" width="6" x="955" y="57.2344"/><text fill="#000000" font-family="sans-serif" font-size="20" lengthAdjust="spacing" textLength="48" x="968" y="66.918">name</text><rect fill="none" height="6" style="stroke:#C82930;stroke-width:1.0;" width="6" x="955" y="82.3906"/><text fill="#000000" font-family="sans-serif" font-size="20" lengthAdjust="spacing" textLength="145" x="968" y="92.0742">passportNumber</text><rect fill="none" height="6" style="stroke:#C82930;stroke-width:1.0;" width="6" x="955" y="107.5469"/><text fill="#000000" font-family="sans-serif" font-size="20" lengthAdjust="spacing" textLength="94" x="968" y="117.2305">taxNumber</text><rect fill="none" height="6" style="stroke:#C82930;stroke-width:1.0;" width="6" x="955" y="132.7031"/><text fill="#000000" font-family="sans-serif" font-size="20" lengthAdjust="spacing" textLength="46" x="968" y="142.3867">email</text><rect fill="none" height="6" style="stroke:#C82930;stroke-width:1.0;" width="6" x="955" y="157.8594"/><text fill="#000000" font-family="sans-serif" font-size="20" lengthAdjust="spacing" textLength="121" x="968" y="167.543">phoneNumber</text><rect fill="none" height="6" style="stroke:#C82930;stroke-width:1.0;" width="6" x="955" y="183.0156"/><text fill="#000000" font-family="sans-serif" font-size="20" lengthAdjust="spacing" textLength="86" x="968" y="192.6992">password</text></g><!--class PO--><g id="elem_PO"><rect codeLine="29" fill="#FFDAB9" height="43.1563" id="PO" rx="2.5" ry="2.5" style="stroke:#4169E1;stroke-width:0.5;" width="147" x="7" y="178.5"/><text fill="#000000" font-family="sans-serif" font-size="20" lengthAdjust="spacing" textLength="141" x="10" y="204.2617">Property Owner</text><line style="stroke:#4169E1;stroke-width:0.5;" x1="8" x2="153" y1="213.6563" y2="213.6563"/></g><!--class Property--><g id="elem_Property"><rect codeLine="32" fill="#FFDAB9" height="143.7813" id="Property" rx="2.5" ry="2.5" style="stroke:#4169E1;stroke-width:0.5;" width="239" x="583" y="390"/><text fill="#000000" font-family="sans-serif" font-size="20" lengthAdjust="spacing" textLength="76" x="664.5" y="415.7617">Property</text><line style="stroke:#4169E1;stroke-width:0.5;" x1="584" x2="821" y1="425.1563" y2="425.1563"/><rect fill="none" height="6" style="stroke:#C82930;stroke-width:1.0;" width="6" x="591" y="440.2344"/><text fill="#000000" font-family="sans-serif" font-size="20" lengthAdjust="spacing" textLength="38" x="604" y="449.918">type</text><rect fill="none" height="6" style="stroke:#C82930;stroke-width:1.0;" width="6" x="591" y="465.3906"/><text fill="#000000" font-family="sans-serif" font-size="20" lengthAdjust="spacing" textLength="40" x="604" y="475.0742">area</text><rect fill="none" height="6" style="stroke:#C82930;stroke-width:1.0;" width="6" x="591" y="490.5469"/><text fill="#000000" font-family="sans-serif" font-size="20" lengthAdjust="spacing" textLength="212" x="604" y="500.2305">distanceFromCityCenter</text><rect fill="none" height="6" style="stroke:#C82930;stroke-width:1.0;" width="6" x="591" y="515.7031"/><text fill="#000000" font-family="sans-serif" font-size="20" lengthAdjust="spacing" textLength="109" x="604" y="525.3867">photographs</text></g><!--class Home--><g id="elem_Home"><rect codeLine="39" fill="#FFDAB9" height="143.7813" id="Home" rx="2.5" ry="2.5" style="stroke:#4169E1;stroke-width:0.5;" width="236" x="915" y="333"/><text fill="#000000" font-family="sans-serif" font-size="20" lengthAdjust="spacing" textLength="51" x="1007.5" y="358.7617">Home</text><line style="stroke:#4169E1;stroke-width:0.5;" x1="916" x2="1150" y1="368.1563" y2="368.1563"/><rect fill="none" height="6" style="stroke:#C82930;stroke-width:1.0;" width="6" x="923" y="383.2344"/><text fill="#000000" font-family="sans-serif" font-size="20" lengthAdjust="spacing" textLength="175" x="936" y="392.918">numberOfbedrooms</text><rect fill="none" height="6" style="stroke:#C82930;stroke-width:1.0;" width="6" x="923" y="408.3906"/><text fill="#000000" font-family="sans-serif" font-size="20" lengthAdjust="spacing" textLength="180" x="936" y="418.0742">numberOfbathrooms</text><rect fill="none" height="6" style="stroke:#C82930;stroke-width:1.0;" width="6" x="923" y="433.5469"/><text fill="#000000" font-family="sans-serif" font-size="20" lengthAdjust="spacing" textLength="209" x="936" y="443.2305">numberOfParkingSpace</text><rect fill="none" height="6" style="stroke:#C82930;stroke-width:1.0;" width="6" x="923" y="458.7031"/><text fill="#000000" font-family="sans-serif" font-size="20" lengthAdjust="spacing" textLength="168" x="936" y="468.3867">availableEquipment</text></g><!--class Land--><g id="elem_Land"><rect codeLine="45" fill="#FFDAB9" height="43.1563" id="Land" rx="2.5" ry="2.5" style="stroke:#4169E1;stroke-width:0.5;" width="49" x="1008.5" y="512.5"/><text fill="#000000" font-family="sans-serif" font-size="20" lengthAdjust="spacing" textLength="43" x="1011.5" y="538.2617">Land</text><line style="stroke:#4169E1;stroke-width:0.5;" x1="1009.5" x2="1056.5" y1="547.6563" y2="547.6563"/></g><!--class Apartment--><g id="elem_Apartment"><rect codeLine="48" fill="#FFDAB9" height="43.1563" id="Apartment" rx="2.5" ry="2.5" style="stroke:#4169E1;stroke-width:0.5;" width="97" x="1309.5" y="478.5"/><text fill="#000000" font-family="sans-serif" font-size="20" lengthAdjust="spacing" textLength="91" x="1312.5" y="504.2617">Apartment</text><line style="stroke:#4169E1;stroke-width:0.5;" x1="1310.5" x2="1405.5" y1="513.6563" y2="513.6563"/></g><!--class House--><g id="elem_House"><rect codeLine="51" fill="#FFDAB9" height="118.625" id="House" rx="2.5" ry="2.5" style="stroke:#4169E1;stroke-width:0.5;" width="154" x="1281" y="324.5"/><text fill="#000000" font-family="sans-serif" font-size="20" lengthAdjust="spacing" textLength="55" x="1330.5" y="350.2617">House</text><line style="stroke:#4169E1;stroke-width:0.5;" x1="1282" x2="1434" y1="359.6563" y2="359.6563"/><rect fill="none" height="6" style="stroke:#C82930;stroke-width:1.0;" width="6" x="1289" y="374.7344"/><text fill="#000000" font-family="sans-serif" font-size="20" lengthAdjust="spacing" textLength="86" x="1302" y="384.418">basement</text><rect fill="none" height="6" style="stroke:#C82930;stroke-width:1.0;" width="6" x="1289" y="399.8906"/><text fill="#000000" font-family="sans-serif" font-size="20" lengthAdjust="spacing" textLength="127" x="1302" y="409.5742">inhabitableLoft</text><rect fill="none" height="6" style="stroke:#C82930;stroke-width:1.0;" width="6" x="1289" y="425.0469"/><text fill="#000000" font-family="sans-serif" font-size="20" lengthAdjust="spacing" textLength="112" x="1302" y="434.7305">sunExposure</text></g><!--class Announcement--><g id="elem_Announcement"><rect codeLine="56" fill="#FFDAB9" height="93.4688" id="Announcement" rx="2.5" ry="2.5" style="stroke:#4169E1;stroke-width:0.5;" width="134" x="302" y="274.5"/><text fill="#000000" font-family="sans-serif" font-size="20" lengthAdjust="spacing" textLength="128" x="305" y="300.2617">Announcement</text><line style="stroke:#4169E1;stroke-width:0.5;" x1="303" x2="435" y1="309.6563" y2="309.6563"/><rect fill="none" height="6" style="stroke:#C82930;stroke-width:1.0;" width="6" x="310" y="324.7344"/><text fill="#000000" font-family="sans-serif" font-size="20" lengthAdjust="spacing" textLength="15" x="323" y="334.418">id</text><rect fill="none" height="6" style="stroke:#C82930;stroke-width:1.0;" width="6" x="310" y="349.8906"/><text fill="#000000" font-family="sans-serif" font-size="20" lengthAdjust="spacing" textLength="44" x="323" y="359.5742">state</text></g><!--class Sale--><g id="elem_Sale"><rect codeLine="60" fill="#FFDAB9" height="68.3125" id="Sale" rx="2.5" ry="2.5" style="stroke:#4169E1;stroke-width:0.5;" width="146" x="960" y="719"/><text fill="#000000" font-family="sans-serif" font-size="20" lengthAdjust="spacing" textLength="39" x="1013.5" y="744.7617">Sale</text><line style="stroke:#4169E1;stroke-width:0.5;" x1="961" x2="1105" y1="754.1563" y2="754.1563"/><rect fill="none" height="6" style="stroke:#C82930;stroke-width:1.0;" width="6" x="968" y="769.2344"/><text fill="#000000" font-family="sans-serif" font-size="20" lengthAdjust="spacing" textLength="119" x="981" y="778.918">propertyPrice</text></g><!--class Rent--><g id="elem_Rent"><rect codeLine="63" fill="#FFDAB9" height="93.4688" id="Rent" rx="2.5" ry="2.5" style="stroke:#4169E1;stroke-width:0.5;" width="171" x="947.5" y="590.5"/><text fill="#000000" font-family="sans-serif" font-size="20" lengthAdjust="spacing" textLength="41" x="1012.5" y="616.2617">Rent</text><line style="stroke:#4169E1;stroke-width:0.5;" x1="948.5" x2="1117.5" y1="625.6563" y2="625.6563"/><rect fill="none" height="6" style="stroke:#C82930;stroke-width:1.0;" width="6" x="955.5" y="640.7344"/><text fill="#000000" font-family="sans-serif" font-size="20" lengthAdjust="spacing" textLength="115" x="968.5" y="650.418">propertyRent</text><rect fill="none" height="6" style="stroke:#C82930;stroke-width:1.0;" width="6" x="955.5" y="665.8906"/><text fill="#000000" font-family="sans-serif" font-size="20" lengthAdjust="spacing" textLength="144" x="968.5" y="675.5742">contractDuration</text></g><!--class Deal--><g id="elem_Deal"><rect codeLine="67" fill="#FFDAB9" height="68.3125" id="Deal" rx="2.5" ry="2.5" style="stroke:#4169E1;stroke-width:0.5;" width="108" x="648.5" y="603"/><text fill="#000000" font-family="sans-serif" font-size="20" lengthAdjust="spacing" textLength="40" x="682.5" y="628.7617">Deal</text><line style="stroke:#4169E1;stroke-width:0.5;" x1="649.5" x2="755.5" y1="638.1563" y2="638.1563"/><rect fill="none" height="6" style="stroke:#C82930;stroke-width:1.0;" width="6" x="656.5" y="653.2344"/><text fill="#000000" font-family="sans-serif" font-size="20" lengthAdjust="spacing" textLength="81" x="669.5" y="662.918">dealType</text></g><!--class Address--><g id="elem_Address"><rect codeLine="70" fill="#FFDAB9" height="143.7813" id="Address" rx="2.5" ry="2.5" style="stroke:#4169E1;stroke-width:0.5;" width="94" x="1311" y="124"/><text fill="#000000" font-family="sans-serif" font-size="20" lengthAdjust="spacing" textLength="73" x="1321.5" y="149.7617">Address</text><line style="stroke:#4169E1;stroke-width:0.5;" x1="1312" x2="1404" y1="159.1563" y2="159.1563"/><rect fill="none" height="6" style="stroke:#C82930;stroke-width:1.0;" width="6" x="1319" y="174.2344"/><text fill="#000000" font-family="sans-serif" font-size="20" lengthAdjust="spacing" textLength="51" x="1332" y="183.918">street</text><rect fill="none" height="6" style="stroke:#C82930;stroke-width:1.0;" width="6" x="1319" y="199.3906"/><text fill="#000000" font-family="sans-serif" font-size="20" lengthAdjust="spacing" textLength="30" x="1332" y="209.0742">city</text><rect fill="none" height="6" style="stroke:#C82930;stroke-width:1.0;" width="6" x="1319" y="224.5469"/><text fill="#000000" font-family="sans-serif" font-size="20" lengthAdjust="spacing" textLength="44" x="1332" y="234.2305">state</text><rect fill="none" height="6" style="stroke:#C82930;stroke-width:1.0;" width="6" x="1319" y="249.7031"/><text fill="#000000" font-family="sans-serif" font-size="20" lengthAdjust="spacing" textLength="67" x="1332" y="259.3867">zipcode</text></g><!--class Date--><g id="elem_Date"><rect codeLine="76" fill="#FFDAB9" height="118.625" id="Date" rx="2.5" ry="2.5" style="stroke:#4169E1;stroke-width:0.5;" width="80" x="662.5" y="132.5"/><text fill="#000000" font-family="sans-serif" font-size="20" lengthAdjust="spacing" textLength="42" x="681.5" y="158.2617">Date</text><line style="stroke:#4169E1;stroke-width:0.5;" x1="663.5" x2="741.5" y1="167.6563" y2="167.6563"/><rect fill="none" height="6" style="stroke:#C82930;stroke-width:1.0;" width="6" x="670.5" y="182.7344"/><text fill="#000000" font-family="sans-serif" font-size="20" lengthAdjust="spacing" textLength="39" x="683.5" y="192.418">year</text><rect fill="none" height="6" style="stroke:#C82930;stroke-width:1.0;" width="6" x="670.5" y="207.8906"/><text fill="#000000" font-family="sans-serif" font-size="20" lengthAdjust="spacing" textLength="53" x="683.5" y="217.5742">month</text><rect fill="none" height="6" style="stroke:#C82930;stroke-width:1.0;" width="6" x="670.5" y="233.0469"/><text fill="#000000" font-family="sans-serif" font-size="20" lengthAdjust="spacing" textLength="32" x="683.5" y="242.7305">day</text></g><!--link PO to Announcement--><g id="link_PO_Announcement"><path codeLine="84" d="M132.72,221.63 C179.96,241.58 250.35,271.31 301.83,293.06 " fill="none" id="PO-Announcement" style="stroke:#4169E1;stroke-width:1.0;"/><polygon fill="#000000" points="199.3696,235.6909,187.8676,225.7281,184.2082,234.3915,199.3696,235.6909" style="stroke:#000000;stroke-width:1.0;"/><text fill="#000000" font-family="sans-serif" font-size="20" lengthAdjust="spacing" textLength="66" x="205" y="240.7617">request</text><text fill="#000000" font-family="sans-serif" font-size="20" lengthAdjust="spacing" textLength="11" x="132.524" y="250.2843">1</text><text fill="#000000" font-family="sans-serif" font-size="20" lengthAdjust="spacing" textLength="11" x="282.8817" y="312.1159">1</text></g><!--reverse link Person to Address--><g id="link_Person_Address"><path codeLine="85" d="M1132.11,131.94 C1191.43,148.84 1264.31,169.6 1310.72,182.82 " fill="none" id="Person-backto-Address" style="stroke:#4169E1;stroke-width:1.0;"/><polygon fill="#4169E1" points="1119.29,128.29,1123.9603,133.7844,1130.8283,131.5867,1126.158,126.0922,1119.29,128.29" style="stroke:#4169E1;stroke-width:1.0;"/><polygon fill="#000000" points="1196.6939,135.7699,1184.0638,127.2826,1181.4872,136.3273,1196.6939,135.7699" style="stroke:#000000;stroke-width:1.0;"/><text fill="#000000" font-family="sans-serif" font-size="20" lengthAdjust="spacing" textLength="48" x="1202" y="141.7617">has a</text><text fill="#000000" font-family="sans-serif" font-size="20" lengthAdjust="spacing" textLength="11" x="1126.8914" y="152.101">1</text><text fill="#000000" font-family="sans-serif" font-size="20" lengthAdjust="spacing" textLength="11" x="1291.9679" y="203.5094">1</text></g><!--link PO to Person--><g id="link_PO_Person"><path codeLine="86" d="M154.15,184.31 C251.31,164.11 429.18,129.84 583,115 C700.31,103.68 835.62,101.89 926.77,102.33 " fill="none" id="PO-to-Person" style="stroke:#4169E1;stroke-width:1.0;"/><polygon fill="none" points="927,95.33,946.96,102.46,926.91,109.33,927,95.33" style="stroke:#4169E1;stroke-width:1.0;"/><text fill="#000000" font-family="sans-serif" font-size="20" lengthAdjust="spacing" textLength="31" x="494" y="112.7617">is a</text></g><!--link Announcement to Deal--><g id="link_Announcement_Deal"><path codeLine="88" d="M407.68,367.7 C448.25,416.51 516.02,493.93 583,552 C603.85,570.08 628.43,588.17 649.78,602.99 " fill="none" id="Announcement-Deal" style="stroke:#4169E1;stroke-width:1.0;"/><polygon fill="#000000" points="488.237,429.1537,481.1359,415.6953,474.5814,422.4395,488.237,429.1537" style="stroke:#000000;stroke-width:1.0;"/><text fill="#000000" font-family="sans-serif" font-size="20" lengthAdjust="spacing" textLength="48" x="495.5" y="431.7617">has a</text><text fill="#000000" font-family="sans-serif" font-size="20" lengthAdjust="spacing" textLength="11" x="401.3459" y="396.7647">1</text><text fill="#000000" font-family="sans-serif" font-size="20" lengthAdjust="spacing" textLength="11" x="629.5012" y="591.3267">1</text></g><!--link Announcement to Property--><g id="link_Announcement_Property"><path codeLine="89" d="M436.29,349.19 C478.14,367 533.42,390.51 582.67,411.46 " fill="none" id="Announcement-Property" style="stroke:#4169E1;stroke-width:1.0;"/><polygon fill="#000000" points="498.3616,351.7097,486.8851,341.7176,483.2036,350.3716,498.3616,351.7097" style="stroke:#000000;stroke-width:1.0;"/><text fill="#000000" font-family="sans-serif" font-size="20" lengthAdjust="spacing" textLength="31" x="504" y="356.7617">has</text><text fill="#000000" font-family="sans-serif" font-size="20" lengthAdjust="spacing" textLength="11" x="443.7965" y="374.1318">1</text><text fill="#000000" font-family="sans-serif" font-size="20" lengthAdjust="spacing" textLength="11" x="564.0327" y="429.9151">1</text></g><!--link Announcement to Employee--><g id="link_Announcement_Employee"><path codeLine="90" d="M436.29,321 C485.04,321 552,321 606.44,321 " fill="none" id="Announcement-Employee" style="stroke:#4169E1;stroke-width:1.0;"/><polygon fill="#000000" points="482,307.5781,467.5279,302.8758,467.5279,312.2804,482,307.5781" style="stroke:#000000;stroke-width:1.0;"/><text fill="#000000" font-family="sans-serif" font-size="20" lengthAdjust="spacing" textLength="65" x="487" y="315.7617">send to</text><text fill="#000000" font-family="sans-serif" font-size="20" lengthAdjust="spacing" textLength="11" x="443.7965" y="343.0347">1</text><text fill="#000000" font-family="sans-serif" font-size="20" lengthAdjust="spacing" textLength="11" x="587.3469" y="342.7516">1</text></g><!--reverse link Announcement to Date--><g id="link_Announcement_Date"><path codeLine="91" d="M448.52,290.44 C515.8,264.26 609.9,227.64 662.31,207.25 " fill="none" id="Announcement-backto-Date" style="stroke:#4169E1;stroke-width:1.0;"/><polygon fill="#4169E1" points="436.29,295.2,443.3322,296.7517,447.4731,290.8481,440.4309,289.2964,436.29,295.2" style="stroke:#4169E1;stroke-width:1.0;"/><polygon fill="#000000" points="489.9555,235.6771,474.7632,236.5429,478.1736,245.3073,489.9555,235.6771" style="stroke:#000000;stroke-width:1.0;"/><text fill="#000000" font-family="sans-serif" font-size="20" lengthAdjust="spacing" textLength="48" x="495.5" y="246.7617">has a</text></g><!--reverse link Property to Address--><g id="link_Property_Address"><path codeLine="94" d="M811.82,382.27 C852.02,353.76 893.13,326.15 915,316 C951.38,299.11 1204.93,234.31 1310.77,207.61 " fill="none" id="Property-backto-Address" style="stroke:#4169E1;stroke-width:1.0;"/><polygon fill="#4169E1" points="801.08,389.93,808.2876,389.7058,810.8528,382.9664,803.6452,383.1906,801.08,389.93" style="stroke:#4169E1;stroke-width:1.0;"/><polygon fill="#000000" points="1013.5507,232.935,998.3377,233.2783,1001.4449,242.1547,1013.5507,232.935" style="stroke:#000000;stroke-width:1.0;"/><text fill="#000000" font-family="sans-serif" font-size="20" lengthAdjust="spacing" textLength="48" x="1019" y="243.7617">has a</text><text fill="#000000" font-family="sans-serif" font-size="20" lengthAdjust="spacing" textLength="11" x="798.9517" y="377.649">1</text><text fill="#000000" font-family="sans-serif" font-size="20" lengthAdjust="spacing" textLength="11" x="1292.0253" y="231.9404">1</text></g><!--reverse link Deal to Rent--><g id="link_Deal_Rent"><path codeLine="97" d="M776.84,637 C827.39,637 894.7,637 947.5,637 " fill="none" id="Deal-backto-Rent" style="stroke:#4169E1;stroke-width:1.0;"/><polygon fill="none" points="776.64,644,756.64,637,776.64,630,776.64,644" style="stroke:#4169E1;stroke-width:1.0;"/></g><!--reverse link Deal to Sale--><g id="link_Deal_Sale"><path codeLine="98" d="M775.81,662.54 C830.51,681.85 905.28,708.25 959.92,727.55 " fill="none" id="Deal-backto-Sale" style="stroke:#4169E1;stroke-width:1.0;"/><polygon fill="none" points="773.17,669.03,756.64,655.77,777.83,655.83,773.17,669.03" style="stroke:#4169E1;stroke-width:1.0;"/></g><!--reverse link Property to Land--><g id="link_Property_Land"><path codeLine="101" d="M841.89,492.33 C904.91,506.14 973.14,521.1 1008.21,528.79 " fill="none" id="Property-backto-Land" style="stroke:#4169E1;stroke-width:1.0;"/><polygon fill="none" points="840.13,499.11,822.1,487.99,843.13,485.44,840.13,499.11" style="stroke:#4169E1;stroke-width:1.0;"/><text fill="#000000" font-family="sans-serif" font-size="20" lengthAdjust="spacing" textLength="31" x="853" y="489.7617">is a</text></g><!--reverse link Property to Home--><g id="link_Property_Home"><path codeLine="102" d="M841.85,437.99 C866.17,433.77 891.28,429.42 914.95,425.31 " fill="none" id="Property-backto-Home" style="stroke:#4169E1;stroke-width:1.0;"/><polygon fill="none" points="843,444.9,822.1,441.42,840.6,431.11,843,444.9" style="stroke:#4169E1;stroke-width:1.0;"/><text fill="#000000" font-family="sans-serif" font-size="20" lengthAdjust="spacing" textLength="31" x="853" y="425.7617">is a</text></g><!--reverse link Home to Apartment--><g id="link_Home_Apartment"><path codeLine="103" d="M1170.56,445.16 C1220.04,459.72 1272.72,475.21 1309.42,486 " fill="none" id="Home-backto-Apartment" style="stroke:#4169E1;stroke-width:1.0;"/><polygon fill="none" points="1168.28,451.79,1151.07,439.43,1172.23,438.36,1168.28,451.79" style="stroke:#4169E1;stroke-width:1.0;"/><text fill="#000000" font-family="sans-serif" font-size="20" lengthAdjust="spacing" textLength="31" x="1200.5" y="443.7617">is a</text></g><!--reverse link Home to House--><g id="link_Home_House"><path codeLine="104" d="M1171.06,396.09 C1208.55,393.65 1247.84,391.1 1280.59,388.97 " fill="none" id="Home-backto-House" style="stroke:#4169E1;stroke-width:1.0;"/><polygon fill="none" points="1171.48,403.08,1151.07,397.39,1170.57,389.11,1171.48,403.08" style="stroke:#4169E1;stroke-width:1.0;"/><text fill="#000000" font-family="sans-serif" font-size="20" lengthAdjust="spacing" textLength="31" x="1200.5" y="385.7617">is a</text></g><!--link Employee to Person--><g id="link_Employee_Person"><path codeLine="106" d="M792.08,286.94 C802.52,281.54 812.74,275.55 822,269 C837.92,257.74 837.43,249.96 852,237 C876.4,215.29 904.19,193.5 930.5,174.02 " fill="none" id="Employee-to-Person" style="stroke:#4169E1;stroke-width:1.0;"/><polygon fill="none" points="926.37,168.37,946.65,162.21,934.64,179.67,926.37,168.37" style="stroke:#4169E1;stroke-width:1.0;"/><text fill="#000000" font-family="sans-serif" font-size="20" lengthAdjust="spacing" textLength="31" x="853" y="203.7617">is a</text></g><!--SRC=[VLHTJzim57tthx3wKcbI4DiZcf20WZO9hHNT7t3jsyJ2iSErin9W_ttNJfo4KkQ7DlOzFlVSB_j7RHk1eZPEFeBY2lQYDU7EsR3LBy2_dREbpnXUE-jaXQu67h05DbaQ8Hz52TlG6U08CWXRcZd0LqAvWxObtmlZOSvgj8NGDS0TXien0_l0W-EeoofmfIERTdP-GnhX_LK8g7TjW9_IsIJsd5LQ0PSQ9VbEtpKGfV9iMUHrfqcX9vsaPJnaHzpybN5QrnHLYQwrwiOPXtm3GbQRThzFrYj4T-WD3wuJvjfGIj8rXmhmsF9t9eBMsvKC3lrRSRGOwnNSrern7K2lfA3aMjcjmElIYfGF8koH6q3lx22viABkLHGD6HlAwQ-stW7sPq4ypxTG2sq6TEKip6tn-e4Y6VqiDkWQmD3nzS42BhWWtsloEod9W44BZsKTFWM2uCEtqfuQHC8TjTAD3jqDs93TSX8IN8cYgVp4_2FsN6QrIULwlmE5pjN- -5Y4wjJvHY1LkTnIhuwY_b3yOcVWzgdLJKqoHe_tmgfPQ5VK7I42NkUYMf_hmtV2GoBejzfMOgT3vBvt-tpgMtlxt3ZV8apCrbA7IUZ9XzigfueI5IRiLfZii1bolK4j9y33Z2GZ7aPLD2W1XGoh5liUojTM8CoONaMRtx5meqAb4CQXY9eG88SagNxlnERDYswaKnFBAjeoHGSYrviUbL1brw8xdfDXaNJRFmJ-ev6nPMf9Hksu-BhWHP7-vfdb5_GiFRNW0xzamyH4p9UC7MAyu1MrjOYWDV6yNURnkk0wdhFbd9MzSp5pdH8wSNq66mUcXtuEpAy10JrO5T_78t0C9ALuyigMcP-DZluVCricuIpzVgUtAJNKV1yxa9siK541KiENSCh6paO5YUOiZjUOqsDZclRUoFfDVpuEuIbZciPiO5F6FXQH_GC0]--></g></svg>