<?xml version="1.0" encoding="UTF-8" standalone="no"?><svg xmlns="http://www.w3.org/2000/svg" xmlns:xlink="http://www.w3.org/1999/xlink" contentStyleType="text/css" height="1849px" preserveAspectRatio="none" style="width:3627px;height:1849px;background:#FFFFFF;" version="1.1" viewBox="0 0 3627 1849" width="3627px" zoomAndPan="magnify"><defs/><g><rect fill="#FFFFFF" height="1641.875" style="stroke:#181818;stroke-width:1.0;" width="10" x="42.5" y="100.1563"/><rect fill="#FFFFFF" height="427.7188" style="stroke:#181818;stroke-width:1.0;" width="10" x="767.5" y="131.3125"/><rect fill="#FFFFFF" height="161.3594" style="stroke:#181818;stroke-width:1.0;" width="10" x="767.5" y="598.1875"/><rect fill="#FFFFFF" height="904.1719" style="stroke:#181818;stroke-width:1.0;" width="10" x="767.5" y="798.7031"/><rect fill="#FFFFFF" height="274.0938" style="stroke:#181818;stroke-width:1.0;" width="10" x="1550.5" y="220.625"/><rect fill="#FFFFFF" height="91.3125" style="stroke:#181818;stroke-width:1.0;" width="10" x="1550.5" y="837.8594"/><rect fill="#FFFFFF" height="39.1563" style="stroke:#181818;stroke-width:1.0;" width="10" x="1550.5" y="1013.3516"/><rect fill="#FFFFFF" height="39.1563" style="stroke:#181818;stroke-width:1.0;" width="10" x="1550.5" y="1151.6875"/><rect fill="#FFFFFF" height="310.25" style="stroke:#181818;stroke-width:1.0;" width="10" x="1550.5" y="1392.625"/><rect fill="#FFFFFF" height="39.1563" style="stroke:#181818;stroke-width:1.0;" width="10" x="2328.5" y="259.7813"/><rect fill="#FFFFFF" height="39.1563" style="stroke:#181818;stroke-width:1.0;" width="10" x="2468.5" y="338.0938"/><rect fill="#FFFFFF" height="39.1563" style="stroke:#181818;stroke-width:1.0;" width="10" x="2664" y="416.4063"/><rect fill="#FFFFFF" height="231.9375" style="stroke:#181818;stroke-width:1.0;" width="10" x="2868.5" y="1431.7813"/><rect fill="#FFFFFF" height="153.625" style="stroke:#181818;stroke-width:1.0;" width="10" x="3206.5" y="1470.9375"/><rect fill="#FFFFFF" height="65.3125" style="stroke:#181818;stroke-width:1.0;" width="10" x="3580.5" y="1520.0938"/><rect fill="none" height="70.1797" style="stroke:#000000;stroke-width:1.5;" width="854.5" x="10" y="613.1875"/><rect fill="none" height="239.8047" style="stroke:#000000;stroke-width:1.5;" width="2323.5" x="10" y="697.3672"/><rect fill="none" height="311.9844" style="stroke:#000000;stroke-width:1.5;" width="1670.5" x="10" y="951.1719"/><line style="stroke:#181818;stroke-width:0.5;stroke-dasharray:5.0,5.0;" x1="47" x2="47" y1="90.1563" y2="1760.0313"/><line style="stroke:#181818;stroke-width:0.5;stroke-dasharray:5.0,5.0;" x1="772.5" x2="772.5" y1="90.1563" y2="1760.0313"/><line style="stroke:#181818;stroke-width:0.5;stroke-dasharray:5.0,5.0;" x1="1555.5" x2="1555.5" y1="174.3906" y2="1760.0313"/><line style="stroke:#181818;stroke-width:0.5;stroke-dasharray:5.0,5.0;" x1="2333.5" x2="2333.5" y1="90.1563" y2="1760.0313"/><line style="stroke:#181818;stroke-width:0.5;stroke-dasharray:5.0,5.0;" x1="2473.5" x2="2473.5" y1="90.1563" y2="1760.0313"/><line style="stroke:#181818;stroke-width:0.5;stroke-dasharray:5.0,5.0;" x1="2668.5" x2="2668.5" y1="90.1563" y2="1760.0313"/><line style="stroke:#181818;stroke-width:0.5;stroke-dasharray:5.0,5.0;" x1="2873.5" x2="2873.5" y1="90.1563" y2="1760.0313"/><line style="stroke:#181818;stroke-width:0.5;stroke-dasharray:5.0,5.0;" x1="3211" x2="3211" y1="90.1563" y2="1760.0313"/><line style="stroke:#181818;stroke-width:0.5;stroke-dasharray:5.0,5.0;" x1="3585.5" x2="3585.5" y1="1526.5938" y2="1760.0313"/><text fill="#000000" font-family="sans-serif" font-size="20" lengthAdjust="spacing" textLength="49" x="20" y="85.7617">Client</text><ellipse cx="47.5" cy="13.5" fill="#90EE90" rx="8" ry="8" style="stroke:#181818;stroke-width:0.5;"/><path d="M47.5,21.5 L47.5,48.5 M34.5,29.5 L60.5,29.5 M47.5,48.5 L34.5,63.5 M47.5,48.5 L60.5,63.5 " fill="none" style="stroke:#181818;stroke-width:0.5;"/><text fill="#000000" font-family="sans-serif" font-size="20" lengthAdjust="spacing" textLength="49" x="20" y="1779.793">Client</text><ellipse cx="47.5" cy="1792.6875" fill="#90EE90" rx="8" ry="8" style="stroke:#181818;stroke-width:0.5;"/><path d="M47.5,1800.6875 L47.5,1827.6875 M34.5,1808.6875 L60.5,1808.6875 M47.5,1827.6875 L34.5,1842.6875 M47.5,1827.6875 L60.5,1842.6875 " fill="none" style="stroke:#181818;stroke-width:0.5;"/><rect fill="#E2E2F0" height="39.1563" rx="2.5" ry="2.5" style="stroke:#181818;stroke-width:0.5;" width="164" x="690.5" y="50"/><text fill="#000000" font-family="sans-serif" font-size="20" lengthAdjust="spacing" textLength="150" x="697.5" y="77.7617">:OrderRequestUI</text><rect fill="#E2E2F0" height="39.1563" rx="2.5" ry="2.5" style="stroke:#181818;stroke-width:0.5;" width="164" x="690.5" y="1759.0313"/><text fill="#000000" font-family="sans-serif" font-size="20" lengthAdjust="spacing" textLength="150" x="697.5" y="1786.793">:OrderRequestUI</text><rect fill="#E2E2F0" height="39.1563" rx="2.5" ry="2.5" style="stroke:#181818;stroke-width:0.5;" width="230" x="1440.5" y="1759.0313"/><text fill="#000000" font-family="sans-serif" font-size="20" lengthAdjust="spacing" textLength="216" x="1447.5" y="1786.793">:OrderRequestController</text><rect fill="#E2E2F0" height="39.1563" rx="2.5" ry="2.5" style="stroke:#181818;stroke-width:0.5;" width="130" x="2268.5" y="50"/><text fill="#000000" font-family="sans-serif" font-size="20" lengthAdjust="spacing" textLength="116" x="2275.5" y="77.7617">:Repositories</text><rect fill="#E2E2F0" height="39.1563" rx="2.5" ry="2.5" style="stroke:#181818;stroke-width:0.5;" width="130" x="2268.5" y="1759.0313"/><text fill="#000000" font-family="sans-serif" font-size="20" lengthAdjust="spacing" textLength="116" x="2275.5" y="1786.793">:Repositories</text><rect fill="#E2E2F0" height="64.3125" rx="2.5" ry="2.5" style="stroke:#181818;stroke-width:0.5;" width="130" x="2408.5" y="24.8438"/><text fill="#000000" font-family="sans-serif" font-size="20" lengthAdjust="spacing" textLength="103" x="2422" y="52.6055">repositories</text><text fill="#000000" font-family="sans-serif" font-size="20" lengthAdjust="spacing" textLength="116" x="2415.5" y="77.7617">:Repositories</text><rect fill="#E2E2F0" height="64.3125" rx="2.5" ry="2.5" style="stroke:#181818;stroke-width:0.5;" width="130" x="2408.5" y="1759.0313"/><text fill="#000000" font-family="sans-serif" font-size="20" lengthAdjust="spacing" textLength="103" x="2422" y="1786.793">repositories</text><text fill="#000000" font-family="sans-serif" font-size="20" lengthAdjust="spacing" textLength="116" x="2415.5" y="1811.9492">:Repositories</text><rect fill="#E2E2F0" height="64.3125" rx="2.5" ry="2.5" style="stroke:#181818;stroke-width:0.5;" width="241" x="2548.5" y="24.8438"/><text fill="#000000" font-family="sans-serif" font-size="20" lengthAdjust="spacing" textLength="227" x="2555.5" y="52.6055">announcementRepository:</text><text fill="#000000" font-family="sans-serif" font-size="20" lengthAdjust="spacing" textLength="223" x="2557.5" y="77.7617">AnnouncementRepository</text><rect fill="#E2E2F0" height="64.3125" rx="2.5" ry="2.5" style="stroke:#181818;stroke-width:0.5;" width="241" x="2548.5" y="1759.0313"/><text fill="#000000" font-family="sans-serif" font-size="20" lengthAdjust="spacing" textLength="227" x="2555.5" y="1786.793">announcementRepository:</text><text fill="#000000" font-family="sans-serif" font-size="20" lengthAdjust="spacing" textLength="223" x="2557.5" y="1811.9492">AnnouncementRepository</text><rect fill="#E2E2F0" height="64.3125" rx="2.5" ry="2.5" style="stroke:#181818;stroke-width:0.5;" width="148" x="2799.5" y="24.8438"/><text fill="#000000" font-family="sans-serif" font-size="20" lengthAdjust="spacing" textLength="126" x="2810.5" y="52.6055">announcement</text><text fill="#000000" font-family="sans-serif" font-size="20" lengthAdjust="spacing" textLength="134" x="2806.5" y="77.7617">:Announcement</text><rect fill="#E2E2F0" height="64.3125" rx="2.5" ry="2.5" style="stroke:#181818;stroke-width:0.5;" width="148" x="2799.5" y="1759.0313"/><text fill="#000000" font-family="sans-serif" font-size="20" lengthAdjust="spacing" textLength="126" x="2810.5" y="1786.793">announcement</text><text fill="#000000" font-family="sans-serif" font-size="20" lengthAdjust="spacing" textLength="134" x="2806.5" y="1811.9492">:Announcement</text><rect fill="#E2E2F0" height="64.3125" rx="2.5" ry="2.5" style="stroke:#181818;stroke-width:0.5;" width="127" x="3148" y="24.8438"/><text fill="#000000" font-family="sans-serif" font-size="20" lengthAdjust="spacing" textLength="83" x="3170" y="52.6055">OrderList</text><text fill="#000000" font-family="sans-serif" font-size="20" lengthAdjust="spacing" textLength="113" x="3155" y="77.7617">:List&lt;Order&gt;</text><rect fill="#E2E2F0" height="64.3125" rx="2.5" ry="2.5" style="stroke:#181818;stroke-width:0.5;" width="127" x="3148" y="1759.0313"/><text fill="#000000" font-family="sans-serif" font-size="20" lengthAdjust="spacing" textLength="83" x="3170" y="1786.793">OrderList</text><text fill="#000000" font-family="sans-serif" font-size="20" lengthAdjust="spacing" textLength="113" x="3155" y="1811.9492">:List&lt;Order&gt;</text><rect fill="#E2E2F0" height="64.3125" rx="2.5" ry="2.5" style="stroke:#181818;stroke-width:0.5;" width="72" x="3549.5" y="1759.0313"/><text fill="#000000" font-family="sans-serif" font-size="20" lengthAdjust="spacing" textLength="47" x="3562" y="1786.793">order</text><text fill="#000000" font-family="sans-serif" font-size="20" lengthAdjust="spacing" textLength="58" x="3556.5" y="1811.9492">:Order</text><rect fill="#FFFFFF" height="1641.875" style="stroke:#181818;stroke-width:1.0;" width="10" x="42.5" y="100.1563"/><rect fill="#FFFFFF" height="427.7188" style="stroke:#181818;stroke-width:1.0;" width="10" x="767.5" y="131.3125"/><rect fill="#FFFFFF" height="161.3594" style="stroke:#181818;stroke-width:1.0;" width="10" x="767.5" y="598.1875"/><rect fill="#FFFFFF" height="904.1719" style="stroke:#181818;stroke-width:1.0;" width="10" x="767.5" y="798.7031"/><rect fill="#FFFFFF" height="274.0938" style="stroke:#181818;stroke-width:1.0;" width="10" x="1550.5" y="220.625"/><rect fill="#FFFFFF" height="91.3125" style="stroke:#181818;stroke-width:1.0;" width="10" x="1550.5" y="837.8594"/><rect fill="#FFFFFF" height="39.1563" style="stroke:#181818;stroke-width:1.0;" width="10" x="1550.5" y="1013.3516"/><rect fill="#FFFFFF" height="39.1563" style="stroke:#181818;stroke-width:1.0;" width="10" x="1550.5" y="1151.6875"/><rect fill="#FFFFFF" height="310.25" style="stroke:#181818;stroke-width:1.0;" width="10" x="1550.5" y="1392.625"/><rect fill="#FFFFFF" height="39.1563" style="stroke:#181818;stroke-width:1.0;" width="10" x="2328.5" y="259.7813"/><rect fill="#FFFFFF" height="39.1563" style="stroke:#181818;stroke-width:1.0;" width="10" x="2468.5" y="338.0938"/><rect fill="#FFFFFF" height="39.1563" style="stroke:#181818;stroke-width:1.0;" width="10" x="2664" y="416.4063"/><rect fill="#FFFFFF" height="231.9375" style="stroke:#181818;stroke-width:1.0;" width="10" x="2868.5" y="1431.7813"/><rect fill="#FFFFFF" height="153.625" style="stroke:#181818;stroke-width:1.0;" width="10" x="3206.5" y="1470.9375"/><rect fill="#FFFFFF" height="65.3125" style="stroke:#181818;stroke-width:1.0;" width="10" x="3580.5" y="1520.0938"/><polygon fill="#181818" points="755.5,127.3125,765.5,131.3125,755.5,135.3125,759.5,131.3125" style="stroke:#181818;stroke-width:1.0;"/><line style="stroke:#181818;stroke-width:1.0;" x1="52.5" x2="761.5" y1="131.3125" y2="131.3125"/><text fill="#000000" font-family="sans-serif" font-size="20" font-weight="bold" lengthAdjust="spacing" textLength="11" x="59.5" y="124.918">1</text><text fill="#000000" font-family="sans-serif" font-size="20" lengthAdjust="spacing" textLength="247" x="74.5" y="124.918">asks to purchase a property</text><polygon fill="#181818" points="1428.5,166.4688,1438.5,170.4688,1428.5,174.4688,1432.5,170.4688" style="stroke:#181818;stroke-width:1.0;"/><line style="stroke:#181818;stroke-width:1.0;" x1="777.5" x2="1434.5" y1="170.4688" y2="170.4688"/><text fill="#000000" font-family="sans-serif" font-size="20" font-weight="bold" lengthAdjust="spacing" textLength="11" x="784.5" y="164.0742">2</text><text fill="#000000" font-family="sans-serif" font-size="20" lengthAdjust="spacing" textLength="56" x="799.5" y="164.0742">create</text><rect fill="#E2E2F0" height="39.1563" rx="2.5" ry="2.5" style="stroke:#181818;stroke-width:0.5;" width="230" x="1440.5" y="139.3125"/><text fill="#000000" font-family="sans-serif" font-size="20" lengthAdjust="spacing" textLength="216" x="1447.5" y="167.0742">:OrderRequestController</text><polygon fill="#181818" points="1538.5,216.625,1548.5,220.625,1538.5,224.625,1542.5,220.625" style="stroke:#181818;stroke-width:1.0;"/><line style="stroke:#181818;stroke-width:1.0;" x1="777.5" x2="1544.5" y1="220.625" y2="220.625"/><text fill="#000000" font-family="sans-serif" font-size="20" font-weight="bold" lengthAdjust="spacing" textLength="11" x="784.5" y="214.2305">3</text><text fill="#000000" font-family="sans-serif" font-size="20" lengthAdjust="spacing" textLength="265" x="799.5" y="214.2305">getAnnouncementRepository()</text><polygon fill="#181818" points="2316.5,255.7813,2326.5,259.7813,2316.5,263.7813,2320.5,259.7813" style="stroke:#181818;stroke-width:1.0;"/><line style="stroke:#181818;stroke-width:1.0;" x1="1560.5" x2="2322.5" y1="259.7813" y2="259.7813"/><text fill="#000000" font-family="sans-serif" font-size="20" font-weight="bold" lengthAdjust="spacing" textLength="11" x="1567.5" y="253.3867">4</text><text fill="#000000" font-family="sans-serif" font-size="20" lengthAdjust="spacing" textLength="116" x="1582.5" y="253.3867">getInstance()</text><polygon fill="#181818" points="1571.5,294.9375,1561.5,298.9375,1571.5,302.9375,1567.5,298.9375" style="stroke:#181818;stroke-width:1.0;"/><line style="stroke:#181818;stroke-width:1.0;stroke-dasharray:2.0,2.0;" x1="1565.5" x2="2332.5" y1="298.9375" y2="298.9375"/><text fill="#000000" font-family="sans-serif" font-size="20" font-weight="bold" lengthAdjust="spacing" textLength="11" x="1577.5" y="292.543">5</text><text fill="#000000" font-family="sans-serif" font-size="20" lengthAdjust="spacing" textLength="103" x="1592.5" y="292.543">repositories</text><polygon fill="#181818" points="2456.5,334.0938,2466.5,338.0938,2456.5,342.0938,2460.5,338.0938" style="stroke:#181818;stroke-width:1.0;"/><line style="stroke:#181818;stroke-width:1.0;" x1="1560.5" x2="2462.5" y1="338.0938" y2="338.0938"/><text fill="#000000" font-family="sans-serif" font-size="20" font-weight="bold" lengthAdjust="spacing" textLength="11" x="1567.5" y="331.6992">6</text><text fill="#000000" font-family="sans-serif" font-size="20" lengthAdjust="spacing" textLength="265" x="1582.5" y="331.6992">getAnnouncementRepository()</text><polygon fill="#181818" points="1571.5,373.25,1561.5,377.25,1571.5,381.25,1567.5,377.25" style="stroke:#181818;stroke-width:1.0;"/><line style="stroke:#181818;stroke-width:1.0;stroke-dasharray:2.0,2.0;" x1="1565.5" x2="2472.5" y1="377.25" y2="377.25"/><text fill="#000000" font-family="sans-serif" font-size="20" font-weight="bold" lengthAdjust="spacing" textLength="11" x="1577.5" y="370.8555">7</text><text fill="#000000" font-family="sans-serif" font-size="20" lengthAdjust="spacing" textLength="223" x="1592.5" y="370.8555">AnnouncementRepository</text><polygon fill="#181818" points="2652,412.4063,2662,416.4063,2652,420.4063,2656,416.4063" style="stroke:#181818;stroke-width:1.0;"/><line style="stroke:#181818;stroke-width:1.0;" x1="1560.5" x2="2658" y1="416.4063" y2="416.4063"/><text fill="#000000" font-family="sans-serif" font-size="20" font-weight="bold" lengthAdjust="spacing" textLength="11" x="1567.5" y="410.0117">8</text><text fill="#000000" font-family="sans-serif" font-size="20" lengthAdjust="spacing" textLength="180" x="1582.5" y="410.0117">getAnnouncements()</text><polygon fill="#181818" points="1571.5,451.5625,1561.5,455.5625,1571.5,459.5625,1567.5,455.5625" style="stroke:#181818;stroke-width:1.0;"/><line style="stroke:#181818;stroke-width:1.0;stroke-dasharray:2.0,2.0;" x1="1565.5" x2="2668" y1="455.5625" y2="455.5625"/><text fill="#000000" font-family="sans-serif" font-size="20" font-weight="bold" lengthAdjust="spacing" textLength="11" x="1577.5" y="449.168">9</text><text fill="#000000" font-family="sans-serif" font-size="20" lengthAdjust="spacing" textLength="159" x="1592.5" y="449.168">AnnouncementList</text><polygon fill="#181818" points="788.5,490.7188,778.5,494.7188,788.5,498.7188,784.5,494.7188" style="stroke:#181818;stroke-width:1.0;"/><line style="stroke:#181818;stroke-width:1.0;stroke-dasharray:2.0,2.0;" x1="782.5" x2="1554.5" y1="494.7188" y2="494.7188"/><text fill="#000000" font-family="sans-serif" font-size="20" font-weight="bold" lengthAdjust="spacing" textLength="22" x="794.5" y="488.3242">10</text><text fill="#000000" font-family="sans-serif" font-size="20" lengthAdjust="spacing" textLength="159" x="820.5" y="488.3242">AnnouncementList</text><polygon fill="#181818" points="63.5,555.0313,53.5,559.0313,63.5,563.0313,59.5,559.0313" style="stroke:#181818;stroke-width:1.0;"/><line style="stroke:#181818;stroke-width:1.0;stroke-dasharray:2.0,2.0;" x1="57.5" x2="771.5" y1="559.0313" y2="559.0313"/><text fill="#000000" font-family="sans-serif" font-size="20" font-weight="bold" lengthAdjust="spacing" textLength="22" x="69.5" y="540.0586">11</text><text fill="#000000" font-family="sans-serif" font-size="20" lengthAdjust="spacing" textLength="218" x="95.5" y="527.4805">shows announcement list</text><text fill="#000000" font-family="sans-serif" font-size="20" lengthAdjust="spacing" textLength="198" x="101.5" y="552.6367">and asks to sleect one</text><polygon fill="#181818" points="755.5,594.1875,765.5,598.1875,755.5,602.1875,759.5,598.1875" style="stroke:#181818;stroke-width:1.0;"/><line style="stroke:#181818;stroke-width:1.0;" x1="52.5" x2="761.5" y1="598.1875" y2="598.1875"/><text fill="#000000" font-family="sans-serif" font-size="20" font-weight="bold" lengthAdjust="spacing" textLength="22" x="59.5" y="591.793">12</text><text fill="#000000" font-family="sans-serif" font-size="20" lengthAdjust="spacing" textLength="211" x="85.5" y="591.793">selects a announcement</text><path d="M10,613.1875 L86,613.1875 L86,630.3438 L76,640.3438 L10,640.3438 L10,613.1875 " fill="#EEEEEE" style="stroke:#000000;stroke-width:1.5;"/><rect fill="none" height="70.1797" style="stroke:#000000;stroke-width:1.5;" width="854.5" x="10" y="613.1875"/><text fill="#008000" font-family="sans-serif" font-size="20" font-weight="bold" lengthAdjust="spacing" textLength="31" x="25" y="634.9492">opt</text><text fill="#0000FF" font-family="sans-serif" font-size="15" font-weight="bold" lengthAdjust="spacing" textLength="189" x="101" y="630.7588">[if there is a pending offer]</text><polygon fill="#181818" points="63.5,671.3672,53.5,675.3672,63.5,679.3672,59.5,675.3672" style="stroke:#181818;stroke-width:1.0;"/><line style="stroke:#181818;stroke-width:1.0;stroke-dasharray:2.0,2.0;" x1="57.5" x2="766.5" y1="675.3672" y2="675.3672"/><text fill="#000000" font-family="sans-serif" font-size="20" font-weight="bold" lengthAdjust="spacing" textLength="22" x="69.5" y="668.9727">13</text><text fill="#000000" font-family="sans-serif" font-size="20" lengthAdjust="spacing" textLength="665" x="95.5" y="668.9727">asks the user to wait until the pending request is either accepted or rejected</text><path d="M10,697.3672 L96,697.3672 L96,714.5234 L86,724.5234 L10,724.5234 L10,697.3672 " fill="#EEEEEE" style="stroke:#000000;stroke-width:1.5;"/><rect fill="none" height="239.8047" style="stroke:#000000;stroke-width:1.5;" width="2323.5" x="10" y="697.3672"/><text fill="#008000" font-family="sans-serif" font-size="20" font-weight="bold" lengthAdjust="spacing" textLength="41" x="25" y="719.1289">loop</text><text fill="#0000FF" font-family="sans-serif" font-size="15" font-weight="bold" lengthAdjust="spacing" textLength="310" x="111" y="714.9385">[While requestPrice &lt;= advertisementPrice]</text><polygon fill="#181818" points="63.5,755.5469,53.5,759.5469,63.5,763.5469,59.5,759.5469" style="stroke:#181818;stroke-width:1.0;"/><line style="stroke:#181818;stroke-width:1.0;stroke-dasharray:2.0,2.0;" x1="57.5" x2="771.5" y1="759.5469" y2="759.5469"/><text fill="#000000" font-family="sans-serif" font-size="20" font-weight="bold" lengthAdjust="spacing" textLength="22" x="69.5" y="753.1523">14</text><text fill="#000000" font-family="sans-serif" font-size="20" lengthAdjust="spacing" textLength="158" x="95.5" y="753.1523">requests the price</text><polygon fill="#181818" points="755.5,794.7031,765.5,798.7031,755.5,802.7031,759.5,798.7031" style="stroke:#181818;stroke-width:1.0;"/><line style="stroke:#181818;stroke-width:1.0;" x1="52.5" x2="761.5" y1="798.7031" y2="798.7031"/><text fill="#000000" font-family="sans-serif" font-size="20" font-weight="bold" lengthAdjust="spacing" textLength="22" x="59.5" y="792.3086">15</text><text fill="#000000" font-family="sans-serif" font-size="20" lengthAdjust="spacing" textLength="187" x="85.5" y="792.3086">types requested data</text><polygon fill="#181818" points="1538.5,833.8594,1548.5,837.8594,1538.5,841.8594,1542.5,837.8594" style="stroke:#181818;stroke-width:1.0;"/><line style="stroke:#181818;stroke-width:1.0;" x1="777.5" x2="1544.5" y1="837.8594" y2="837.8594"/><text fill="#000000" font-family="sans-serif" font-size="20" font-weight="bold" lengthAdjust="spacing" textLength="22" x="784.5" y="831.4648">16</text><text fill="#000000" font-family="sans-serif" font-size="20" lengthAdjust="spacing" textLength="728" x="810.5" y="831.4648">checkIfRequestPriceIsLowerThanAdvertisementPrice(requestPrice, announcement)</text><line style="stroke:#181818;stroke-width:1.0;" x1="1560.5" x2="1602.5" y1="877.0156" y2="877.0156"/><line style="stroke:#181818;stroke-width:1.0;" x1="1602.5" x2="1602.5" y1="877.0156" y2="890.0156"/><line style="stroke:#181818;stroke-width:1.0;" x1="1561.5" x2="1602.5" y1="890.0156" y2="890.0156"/><polygon fill="#181818" points="1571.5,886.0156,1561.5,890.0156,1571.5,894.0156,1567.5,890.0156" style="stroke:#181818;stroke-width:1.0;"/><text fill="#000000" font-family="sans-serif" font-size="20" font-weight="bold" lengthAdjust="spacing" textLength="22" x="1567.5" y="870.6211">17</text><text fill="#000000" font-family="sans-serif" font-size="20" lengthAdjust="spacing" textLength="728" x="1593.5" y="870.6211">checkIfRequestPriceIsLowerThanAdvertisementPrice(requestPrice, announcement)</text><polygon fill="#181818" points="788.5,925.1719,778.5,929.1719,788.5,933.1719,784.5,929.1719" style="stroke:#181818;stroke-width:1.0;"/><line style="stroke:#181818;stroke-width:1.0;stroke-dasharray:2.0,2.0;" x1="782.5" x2="1554.5" y1="929.1719" y2="929.1719"/><text fill="#000000" font-family="sans-serif" font-size="20" font-weight="bold" lengthAdjust="spacing" textLength="22" x="794.5" y="922.7773">18</text><text fill="#000000" font-family="sans-serif" font-size="20" lengthAdjust="spacing" textLength="64" x="820.5" y="922.7773">answer</text><path d="M10,951.1719 L78,951.1719 L78,968.3281 L68,978.3281 L10,978.3281 L10,951.1719 " fill="#EEEEEE" style="stroke:#000000;stroke-width:1.5;"/><rect fill="none" height="311.9844" style="stroke:#000000;stroke-width:1.5;" width="1670.5" x="10" y="951.1719"/><text fill="#008000" font-family="sans-serif" font-size="20" font-weight="bold" lengthAdjust="spacing" textLength="23" x="25" y="972.9336">alt</text><text fill="#0000FF" font-family="sans-serif" font-size="15" font-weight="bold" lengthAdjust="spacing" textLength="192" x="93" y="968.7432">[requested price is unique]</text><polygon fill="#181818" points="1538.5,1009.3516,1548.5,1013.3516,1538.5,1017.3516,1542.5,1013.3516" style="stroke:#181818;stroke-width:1.0;"/><line style="stroke:#181818;stroke-width:1.0;" x1="777.5" x2="1544.5" y1="1013.3516" y2="1013.3516"/><text fill="#000000" font-family="sans-serif" font-size="20" font-weight="bold" lengthAdjust="spacing" textLength="22" x="784.5" y="1006.957">19</text><text fill="#000000" font-family="sans-serif" font-size="20" lengthAdjust="spacing" textLength="381" x="810.5" y="1006.957">checkIfRequestPriceIsUnique(requestPrice)</text><polygon fill="#181818" points="788.5,1048.5078,778.5,1052.5078,788.5,1056.5078,784.5,1052.5078" style="stroke:#181818;stroke-width:1.0;"/><line style="stroke:#181818;stroke-width:1.0;stroke-dasharray:2.0,2.0;" x1="782.5" x2="1554.5" y1="1052.5078" y2="1052.5078"/><text fill="#000000" font-family="sans-serif" font-size="20" font-weight="bold" lengthAdjust="spacing" textLength="22" x="794.5" y="1046.1133">20</text><text fill="#000000" font-family="sans-serif" font-size="20" lengthAdjust="spacing" textLength="73" x="820.5" y="1046.1133">isUnique</text><polygon fill="#181818" points="63.5,1087.6641,53.5,1091.6641,63.5,1095.6641,59.5,1091.6641" style="stroke:#181818;stroke-width:1.0;"/><line style="stroke:#181818;stroke-width:1.0;stroke-dasharray:2.0,2.0;" x1="57.5" x2="766.5" y1="1091.6641" y2="1091.6641"/><text fill="#000000" font-family="sans-serif" font-size="20" font-weight="bold" lengthAdjust="spacing" textLength="22" x="69.5" y="1085.2695">21</text><text fill="#000000" font-family="sans-serif" font-size="20" lengthAdjust="spacing" textLength="304" x="95.5" y="1085.2695">shows all data and asks to confirm</text><line style="stroke:#000000;stroke-width:1.0;stroke-dasharray:2.0,2.0;" x1="10" x2="1680.5" y1="1100.6641" y2="1100.6641"/><text fill="#0000FF" font-family="sans-serif" font-size="15" font-weight="bold" lengthAdjust="spacing" textLength="219" x="15" y="1116.2354">[requested price is not unique]</text><polygon fill="#181818" points="1538.5,1147.6875,1548.5,1151.6875,1538.5,1155.6875,1542.5,1151.6875" style="stroke:#181818;stroke-width:1.0;"/><line style="stroke:#181818;stroke-width:1.0;" x1="777.5" x2="1544.5" y1="1151.6875" y2="1151.6875"/><text fill="#000000" font-family="sans-serif" font-size="20" font-weight="bold" lengthAdjust="spacing" textLength="22" x="784.5" y="1145.293">22</text><text fill="#000000" font-family="sans-serif" font-size="20" lengthAdjust="spacing" textLength="381" x="810.5" y="1145.293">checkIfRequestPriceIsUnique(requestPrice)</text><polygon fill="#181818" points="788.5,1186.8438,778.5,1190.8438,788.5,1194.8438,784.5,1190.8438" style="stroke:#181818;stroke-width:1.0;"/><line style="stroke:#181818;stroke-width:1.0;stroke-dasharray:2.0,2.0;" x1="782.5" x2="1554.5" y1="1190.8438" y2="1190.8438"/><text fill="#000000" font-family="sans-serif" font-size="20" font-weight="bold" lengthAdjust="spacing" textLength="22" x="794.5" y="1184.4492">23</text><text fill="#000000" font-family="sans-serif" font-size="20" lengthAdjust="spacing" textLength="86" x="820.5" y="1184.4492">notUnique</text><polygon fill="#181818" points="63.5,1251.1563,53.5,1255.1563,63.5,1259.1563,59.5,1255.1563" style="stroke:#181818;stroke-width:1.0;"/><line style="stroke:#181818;stroke-width:1.0;stroke-dasharray:2.0,2.0;" x1="57.5" x2="766.5" y1="1255.1563" y2="1255.1563"/><text fill="#000000" font-family="sans-serif" font-size="20" font-weight="bold" lengthAdjust="spacing" textLength="22" x="69.5" y="1236.1836">24</text><text fill="#000000" font-family="sans-serif" font-size="20" lengthAdjust="spacing" textLength="252" x="95.5" y="1223.6055">displays that there is already</text><text fill="#000000" font-family="sans-serif" font-size="20" lengthAdjust="spacing" textLength="501" x="101.5" y="1248.7617">an order request with the same price and asks to confirm</text><polygon fill="#181818" points="755.5,1297.3125,765.5,1301.3125,755.5,1305.3125,759.5,1301.3125" style="stroke:#181818;stroke-width:1.0;"/><line style="stroke:#181818;stroke-width:1.0;" x1="52.5" x2="761.5" y1="1301.3125" y2="1301.3125"/><text fill="#000000" font-family="sans-serif" font-size="20" font-weight="bold" lengthAdjust="spacing" textLength="22" x="59.5" y="1294.918">25</text><text fill="#000000" font-family="sans-serif" font-size="20" lengthAdjust="spacing" textLength="152" x="85.5" y="1294.918">confirms the data</text><line style="stroke:#181818;stroke-width:1.0;" x1="777.5" x2="819.5" y1="1340.4688" y2="1340.4688"/><line style="stroke:#181818;stroke-width:1.0;" x1="819.5" x2="819.5" y1="1340.4688" y2="1353.4688"/><line style="stroke:#181818;stroke-width:1.0;" x1="778.5" x2="819.5" y1="1353.4688" y2="1353.4688"/><polygon fill="#181818" points="788.5,1349.4688,778.5,1353.4688,788.5,1357.4688,784.5,1353.4688" style="stroke:#181818;stroke-width:1.0;"/><text fill="#000000" font-family="sans-serif" font-size="20" font-weight="bold" lengthAdjust="spacing" textLength="22" x="784.5" y="1334.0742">26</text><text fill="#000000" font-family="sans-serif" font-size="20" lengthAdjust="spacing" textLength="84" x="810.5" y="1334.0742">getDate()</text><polygon fill="#181818" points="1538.5,1388.625,1548.5,1392.625,1538.5,1396.625,1542.5,1392.625" style="stroke:#181818;stroke-width:1.0;"/><line style="stroke:#181818;stroke-width:1.0;" x1="777.5" x2="1544.5" y1="1392.625" y2="1392.625"/><text fill="#000000" font-family="sans-serif" font-size="20" font-weight="bold" lengthAdjust="spacing" textLength="22" x="784.5" y="1386.2305">27</text><text fill="#000000" font-family="sans-serif" font-size="20" lengthAdjust="spacing" textLength="334" x="810.5" y="1386.2305">createOrder(requestPrice, user, date)</text><polygon fill="#181818" points="2856.5,1427.7813,2866.5,1431.7813,2856.5,1435.7813,2860.5,1431.7813" style="stroke:#181818;stroke-width:1.0;"/><line style="stroke:#181818;stroke-width:1.0;" x1="1560.5" x2="2862.5" y1="1431.7813" y2="1431.7813"/><text fill="#000000" font-family="sans-serif" font-size="20" font-weight="bold" lengthAdjust="spacing" textLength="22" x="1567.5" y="1425.3867">28</text><text fill="#000000" font-family="sans-serif" font-size="20" lengthAdjust="spacing" textLength="283" x="1593.5" y="1425.3867">createOrder(requestPrice, user)</text><polygon fill="#181818" points="3194.5,1466.9375,3204.5,1470.9375,3194.5,1474.9375,3198.5,1470.9375" style="stroke:#181818;stroke-width:1.0;"/><line style="stroke:#181818;stroke-width:1.0;" x1="2878.5" x2="3200.5" y1="1470.9375" y2="1470.9375"/><text fill="#000000" font-family="sans-serif" font-size="20" font-weight="bold" lengthAdjust="spacing" textLength="22" x="2885.5" y="1464.543">29</text><text fill="#000000" font-family="sans-serif" font-size="20" lengthAdjust="spacing" textLength="283" x="2911.5" y="1464.543">createOrder(requestPrice, user)</text><polygon fill="#181818" points="3537.5,1506.0938,3547.5,1510.0938,3537.5,1514.0938,3541.5,1510.0938" style="stroke:#181818;stroke-width:1.0;"/><line style="stroke:#181818;stroke-width:1.0;" x1="3216.5" x2="3543.5" y1="1510.0938" y2="1510.0938"/><text fill="#000000" font-family="sans-serif" font-size="20" font-weight="bold" lengthAdjust="spacing" textLength="22" x="3223.5" y="1503.6992">30</text><text fill="#000000" font-family="sans-serif" font-size="20" lengthAdjust="spacing" textLength="283" x="3249.5" y="1503.6992">createOrder(requestPrice, user)</text><rect fill="#E2E2F0" height="64.3125" rx="2.5" ry="2.5" style="stroke:#181818;stroke-width:0.5;" width="72" x="3549.5" y="1478.9375"/><text fill="#000000" font-family="sans-serif" font-size="20" lengthAdjust="spacing" textLength="47" x="3562" y="1506.6992">order</text><text fill="#000000" font-family="sans-serif" font-size="20" lengthAdjust="spacing" textLength="58" x="3556.5" y="1531.8555">:Order</text><polygon fill="#181818" points="3227.5,1581.4063,3217.5,1585.4063,3227.5,1589.4063,3223.5,1585.4063" style="stroke:#181818;stroke-width:1.0;"/><line style="stroke:#181818;stroke-width:1.0;stroke-dasharray:2.0,2.0;" x1="3221.5" x2="3584.5" y1="1585.4063" y2="1585.4063"/><text fill="#000000" font-family="sans-serif" font-size="20" font-weight="bold" lengthAdjust="spacing" textLength="22" x="3233.5" y="1579.0117">31</text><text fill="#000000" font-family="sans-serif" font-size="20" lengthAdjust="spacing" textLength="47" x="3259.5" y="1579.0117">order</text><polygon fill="#181818" points="2889.5,1620.5625,2879.5,1624.5625,2889.5,1628.5625,2885.5,1624.5625" style="stroke:#181818;stroke-width:1.0;"/><line style="stroke:#181818;stroke-width:1.0;stroke-dasharray:2.0,2.0;" x1="2883.5" x2="3210.5" y1="1624.5625" y2="1624.5625"/><text fill="#000000" font-family="sans-serif" font-size="20" font-weight="bold" lengthAdjust="spacing" textLength="22" x="2895.5" y="1618.168">32</text><text fill="#000000" font-family="sans-serif" font-size="20" lengthAdjust="spacing" textLength="47" x="2921.5" y="1618.168">order</text><polygon fill="#181818" points="1571.5,1659.7188,1561.5,1663.7188,1571.5,1667.7188,1567.5,1663.7188" style="stroke:#181818;stroke-width:1.0;"/><line style="stroke:#181818;stroke-width:1.0;stroke-dasharray:2.0,2.0;" x1="1565.5" x2="2872.5" y1="1663.7188" y2="1663.7188"/><text fill="#000000" font-family="sans-serif" font-size="20" font-weight="bold" lengthAdjust="spacing" textLength="22" x="1577.5" y="1657.3242">33</text><text fill="#000000" font-family="sans-serif" font-size="20" lengthAdjust="spacing" textLength="47" x="1603.5" y="1657.3242">order</text><polygon fill="#181818" points="783.5,1698.875,773.5,1702.875,783.5,1706.875,779.5,1702.875" style="stroke:#181818;stroke-width:1.0;"/><line style="stroke:#181818;stroke-width:1.0;stroke-dasharray:2.0,2.0;" x1="777.5" x2="1554.5" y1="1702.875" y2="1702.875"/><text fill="#000000" font-family="sans-serif" font-size="20" font-weight="bold" lengthAdjust="spacing" textLength="22" x="789.5" y="1696.4805">34</text><text fill="#000000" font-family="sans-serif" font-size="20" lengthAdjust="spacing" textLength="47" x="815.5" y="1696.4805">order</text><polygon fill="#181818" points="58.5,1738.0313,48.5,1742.0313,58.5,1746.0313,54.5,1742.0313" style="stroke:#181818;stroke-width:1.0;"/><line style="stroke:#181818;stroke-width:1.0;stroke-dasharray:2.0,2.0;" x1="52.5" x2="771.5" y1="1742.0313" y2="1742.0313"/><text fill="#000000" font-family="sans-serif" font-size="20" font-weight="bold" lengthAdjust="spacing" textLength="22" x="64.5" y="1735.6367">35</text><text fill="#000000" font-family="sans-serif" font-size="20" lengthAdjust="spacing" textLength="219" x="90.5" y="1735.6367">informs operation sucess</text><!--SRC=[jLTDZzis4BtpLn3RmoP15aWBz68a0OmjaXfmq60_a4ikN6biiQP9bQJYkB- -CwHaYHBbZGl45ylKl3TlXZD3sksaheKLUsMA7PIyX8rebFzWjB-N_mB_xGrpdGdV6ssAofezy8rG3WQlQb7in1Rk_L41jr1ueRTgQE0gKPg3rDiMogw5yjmTlSArWTqz_DE0Bk2ZDKtz9uWIB8cvDSfOlhK0UiwuDtjI3Pop2f7z-Zkx_YJB4lLw-8vIK3f9kHveRe6Vm3aCRgdaLlC2j0Vxh5afAGlIQ2OQRtIpVq8GkwvaYSapnZ-PxqmK7jLUtIg9d5TSE1uV-IzhkQtynn0j-l2oaBN0zQl5NnOJSaSEdNzS1SpZwepDBOPhZL9W8__3tNfaVGUrSHA5I731vhHml9UqYQW-XTW1ugkU4dnUBnzIXD3QD9YXFGRNqo- -wcNsHM39lvhdHIL3o8GZHOOShQKZ67sz3Gll0oeykjJUq1hQXdUz5MEqYVARyD3k7MEy_RHxUVCUTuWl4B9pt1jUDxQeX0CkU6rD3TOVUyo933Vrj4WVf40YshvNhv2ii81MSoPei0MVJ-2BbmceLq-LaRmACH0RicPg8ZfPQOUjNi28Dg7E5TJ4cZuvBpTjJ0i-BBi9l8JBt7M1KQrUaAuahb3dsK02QwzyffJFn92dxaJd-QPXk7FgPqHbuvbnUDFNsz22-kbSS3_gEORRzSzP3mFsQI5JOv3Is8yBF8hCmV7XxE0gJ09SAqzzwXJW0ET60yjuwVfprEGE58AGFA5duzQctwRsN6wuhy02bmIfGPTqG9hDXYRBdFmei0BUEB2az22avutsKeNbZiR64u2uGP8Rb510xV6KnrF7mj-e5Che1o7XMnbJyo-L38TuW7-siW3-zXqNvJUSLTA5YCBghC8M6bNMYMacXPaq-cCDhgEXMudmuloCJ8PVKK6nMstk1X6itDeSm3vKGYydWRmOnlewsRgNB3yfnotvCpsdVI2qGpesL_dTUhUjyO7kMdqwmvPGNJHQuje5INmCW4JrN8PcvCkMuza0PhfMgL0DIQiMHc-atSUGyNAP2rKR_rF3JV8-3HlT_y-uI-bg9OxKJC8FneN2Aq1v34EBXzl9gU4FsEsXzPpOj_qtdovTPWTPQnDR-DH-CMF108-QFr1xUyAagGoNat0_6jKtJQpNHDUcSPg1t17tBEM8R3aUlGaPaiSBteMixQsGrkBZYMbm8xk4gwSA6zwIBk9cib69Z10kG4P9cWUwJ1hw_ShY9abCwpcBQK-soM7CSdKjzSPGWT4LMD0V9UwQ0lz1CJR4nplrVm00]--></g></svg>