<?xml version="1.0" encoding="UTF-8" standalone="no"?><svg xmlns="http://www.w3.org/2000/svg" xmlns:xlink="http://www.w3.org/1999/xlink" contentStyleType="text/css" height="1767px" preserveAspectRatio="none" style="width:1086px;height:1767px;background:#FFFFFF;" version="1.1" viewBox="0 0 1086 1767" width="1086px" zoomAndPan="magnify"><defs/><g><!--class Repositories--><g id="elem_Repositories"><rect codeLine="17" fill="#FFDAB9" height="126.625" id="Repositories" rx="2.5" ry="2.5" style="stroke:#4169E1;stroke-width:0.5;" width="292" x="360.5" y="357"/><ellipse cx="447" cy="374.5781" fill="#ADD1B2" rx="12" ry="12" style="stroke:#181818;stroke-width:1.0;"/><path d="M449.1406,369.5 Q449.3281,369.25 449.5469,369.125 Q449.7656,368.9844 450.0156,368.9844 Q450.4531,368.9844 450.7344,369.2969 Q451.0156,369.5938 451.0156,370.3125 L451.0156,372.0156 Q451.0156,372.7344 450.7344,373.0469 Q450.4531,373.3594 450.0156,373.3594 Q449.625,373.3594 449.375,373.125 Q449.125,372.9063 449.0156,372.2969 Q448.9531,371.875 448.7344,371.6563 Q448.3438,371.2188 447.625,370.9531 Q446.9063,370.6875 446.1875,370.6875 Q445.2813,370.6875 444.5313,371.0781 Q443.7813,371.4688 443.2031,372.3594 Q442.625,373.2344 442.625,374.4375 L442.625,375.7344 Q442.625,377.1875 443.6719,378.1563 Q444.7344,379.125 446.5938,379.125 Q447.7031,379.125 448.4844,378.8125 Q448.9219,378.6406 449.4375,378.125 Q449.75,377.8125 449.9219,377.7188 Q450.0938,377.625 450.3281,377.625 Q450.7188,377.625 451.0156,377.9375 Q451.3281,378.2344 451.3281,378.6406 Q451.3281,379.0469 450.9219,379.5156 Q450.3281,380.2031 449.3906,380.5938 Q448.125,381.125 446.6094,381.125 Q444.8281,381.125 443.4063,380.3906 Q442.25,379.7969 441.4375,378.5313 Q440.625,377.2656 440.625,375.7813 L440.625,374.4219 Q440.625,372.8594 441.3438,371.5156 Q442.0781,370.1563 443.3594,369.4219 Q444.6563,368.6875 446.1094,368.6875 Q446.9688,368.6875 447.7188,368.8906 Q448.4844,369.0938 449.1406,369.5 Z " fill="#000000"/><text fill="#000000" font-family="sans-serif" font-size="20" lengthAdjust="spacing" textLength="110" x="469" y="382.7617">Repositories</text><line style="stroke:#4169E1;stroke-width:0.5;" x1="361.5" x2="651.5" y1="392.1563" y2="392.1563"/><line style="stroke:#4169E1;stroke-width:0.5;" x1="361.5" x2="651.5" y1="400.1563" y2="400.1563"/><rect fill="#F24D5C" height="6" style="stroke:#C82930;stroke-width:1.0;" width="6" x="368.5" y="415.2344"/><text fill="#000000" font-family="sans-serif" font-size="20" lengthAdjust="spacing" textLength="124" x="381.5" y="424.918">Repositories()</text><ellipse cx="371.5" cy="443.3906" fill="#84BE84" rx="3" ry="3" style="stroke:#038048;stroke-width:1.0;"/><text fill="#000000" font-family="sans-serif" font-size="20" lengthAdjust="spacing" textLength="244" x="381.5" y="450.0742">getInstance() : Repositories</text><ellipse cx="371.5" cy="468.5469" fill="#84BE84" rx="3" ry="3" style="stroke:#038048;stroke-width:1.0;"/><text fill="#000000" font-family="sans-serif" font-size="20" lengthAdjust="spacing" textLength="265" x="381.5" y="475.2305">getAnnouncementRepository()</text></g><!--class OrderRequestUI--><g id="elem_OrderRequestUI"><rect codeLine="23" fill="#FFDAB9" height="51.1563" id="OrderRequestUI" rx="2.5" ry="2.5" style="stroke:#4169E1;stroke-width:0.5;" width="178" x="571.5" y="7"/><ellipse cx="587.5" cy="24.5781" fill="#ADD1B2" rx="12" ry="12" style="stroke:#181818;stroke-width:1.0;"/><path d="M589.6406,19.5 Q589.8281,19.25 590.0469,19.125 Q590.2656,18.9844 590.5156,18.9844 Q590.9531,18.9844 591.2344,19.2969 Q591.5156,19.5938 591.5156,20.3125 L591.5156,22.0156 Q591.5156,22.7344 591.2344,23.0469 Q590.9531,23.3594 590.5156,23.3594 Q590.125,23.3594 589.875,23.125 Q589.625,22.9063 589.5156,22.2969 Q589.4531,21.875 589.2344,21.6563 Q588.8438,21.2188 588.125,20.9531 Q587.4063,20.6875 586.6875,20.6875 Q585.7813,20.6875 585.0313,21.0781 Q584.2813,21.4688 583.7031,22.3594 Q583.125,23.2344 583.125,24.4375 L583.125,25.7344 Q583.125,27.1875 584.1719,28.1563 Q585.2344,29.125 587.0938,29.125 Q588.2031,29.125 588.9844,28.8125 Q589.4219,28.6406 589.9375,28.125 Q590.25,27.8125 590.4219,27.7188 Q590.5938,27.625 590.8281,27.625 Q591.2188,27.625 591.5156,27.9375 Q591.8281,28.2344 591.8281,28.6406 Q591.8281,29.0469 591.4219,29.5156 Q590.8281,30.2031 589.8906,30.5938 Q588.625,31.125 587.1094,31.125 Q585.3281,31.125 583.9063,30.3906 Q582.75,29.7969 581.9375,28.5313 Q581.125,27.2656 581.125,25.7813 L581.125,24.4219 Q581.125,22.8594 581.8438,21.5156 Q582.5781,20.1563 583.8594,19.4219 Q585.1563,18.6875 586.6094,18.6875 Q587.4688,18.6875 588.2188,18.8906 Q588.9844,19.0938 589.6406,19.5 Z " fill="#000000"/><text fill="#000000" font-family="sans-serif" font-size="20" lengthAdjust="spacing" textLength="144" x="602.5" y="32.7617">OrderRequestUI</text><line style="stroke:#4169E1;stroke-width:0.5;" x1="572.5" x2="748.5" y1="42.1563" y2="42.1563"/><line style="stroke:#4169E1;stroke-width:0.5;" x1="572.5" x2="748.5" y1="50.1563" y2="50.1563"/></g><!--class OrderRequestController--><g id="elem_OrderRequestController"><rect codeLine="26" fill="#FFDAB9" height="176.9375" id="OrderRequestController" rx="2.5" ry="2.5" style="stroke:#4169E1;stroke-width:0.5;" width="838" x="241.5" y="119"/><ellipse cx="551" cy="136.5781" fill="#ADD1B2" rx="12" ry="12" style="stroke:#181818;stroke-width:1.0;"/><path d="M553.1406,131.5 Q553.3281,131.25 553.5469,131.125 Q553.7656,130.9844 554.0156,130.9844 Q554.4531,130.9844 554.7344,131.2969 Q555.0156,131.5938 555.0156,132.3125 L555.0156,134.0156 Q555.0156,134.7344 554.7344,135.0469 Q554.4531,135.3594 554.0156,135.3594 Q553.625,135.3594 553.375,135.125 Q553.125,134.9063 553.0156,134.2969 Q552.9531,133.875 552.7344,133.6563 Q552.3438,133.2188 551.625,132.9531 Q550.9063,132.6875 550.1875,132.6875 Q549.2813,132.6875 548.5313,133.0781 Q547.7813,133.4688 547.2031,134.3594 Q546.625,135.2344 546.625,136.4375 L546.625,137.7344 Q546.625,139.1875 547.6719,140.1563 Q548.7344,141.125 550.5938,141.125 Q551.7031,141.125 552.4844,140.8125 Q552.9219,140.6406 553.4375,140.125 Q553.75,139.8125 553.9219,139.7188 Q554.0938,139.625 554.3281,139.625 Q554.7188,139.625 555.0156,139.9375 Q555.3281,140.2344 555.3281,140.6406 Q555.3281,141.0469 554.9219,141.5156 Q554.3281,142.2031 553.3906,142.5938 Q552.125,143.125 550.6094,143.125 Q548.8281,143.125 547.4063,142.3906 Q546.25,141.7969 545.4375,140.5313 Q544.625,139.2656 544.625,137.7813 L544.625,136.4219 Q544.625,134.8594 545.3438,133.5156 Q546.0781,132.1563 547.3594,131.4219 Q548.6563,130.6875 550.1094,130.6875 Q550.9688,130.6875 551.7188,130.8906 Q552.4844,131.0938 553.1406,131.5 Z " fill="#000000"/><text fill="#000000" font-family="sans-serif" font-size="20" lengthAdjust="spacing" textLength="210" x="573" y="144.7617">OrderRequestController</text><line style="stroke:#4169E1;stroke-width:0.5;" x1="242.5" x2="1078.5" y1="154.1563" y2="154.1563"/><line style="stroke:#4169E1;stroke-width:0.5;" x1="242.5" x2="1078.5" y1="162.1563" y2="162.1563"/><ellipse cx="252.5" cy="180.2344" fill="#84BE84" rx="3" ry="3" style="stroke:#038048;stroke-width:1.0;"/><text fill="#000000" font-family="sans-serif" font-size="20" lengthAdjust="spacing" textLength="180" x="262.5" y="186.918">getAnnouncements()</text><ellipse cx="252.5" cy="205.3906" fill="#84BE84" rx="3" ry="3" style="stroke:#038048;stroke-width:1.0;"/><text fill="#000000" font-family="sans-serif" font-size="20" lengthAdjust="spacing" textLength="364" x="262.5" y="212.0742">getOrders(Announcement announcement)</text><ellipse cx="252.5" cy="230.5469" fill="#84BE84" rx="3" ry="3" style="stroke:#038048;stroke-width:1.0;"/><text fill="#000000" font-family="sans-serif" font-size="20" lengthAdjust="spacing" textLength="476" x="262.5" y="237.2305">addOrder(Announcement announcement, Order order)</text><ellipse cx="252.5" cy="255.7031" fill="#84BE84" rx="3" ry="3" style="stroke:#038048;stroke-width:1.0;"/><text fill="#000000" font-family="sans-serif" font-size="20" lengthAdjust="spacing" textLength="582" x="262.5" y="262.3867">isRequestPriceUnique(double offer, Announcement announcement)</text><ellipse cx="252.5" cy="280.8594" fill="#84BE84" rx="3" ry="3" style="stroke:#038048;stroke-width:1.0;"/><text fill="#000000" font-family="sans-serif" font-size="20" lengthAdjust="spacing" textLength="811" x="262.5" y="287.543">isRequestPriceIsHigherThanAnnouncementPrice(double offer, Announcement announcement)</text></g><!--class Order--><g id="elem_Order"><rect codeLine="33" fill="#FFDAB9" height="126.625" id="Order" rx="2.5" ry="2.5" style="stroke:#4169E1;stroke-width:0.5;" width="155" x="575" y="1133"/><ellipse cx="622.05" cy="1150.5781" fill="#ADD1B2" rx="12" ry="12" style="stroke:#181818;stroke-width:1.0;"/><path d="M624.1906,1145.5 Q624.3781,1145.25 624.5969,1145.125 Q624.8156,1144.9844 625.0656,1144.9844 Q625.5031,1144.9844 625.7844,1145.2969 Q626.0656,1145.5938 626.0656,1146.3125 L626.0656,1148.0156 Q626.0656,1148.7344 625.7844,1149.0469 Q625.5031,1149.3594 625.0656,1149.3594 Q624.675,1149.3594 624.425,1149.125 Q624.175,1148.9063 624.0656,1148.2969 Q624.0031,1147.875 623.7844,1147.6563 Q623.3938,1147.2188 622.675,1146.9531 Q621.9563,1146.6875 621.2375,1146.6875 Q620.3313,1146.6875 619.5813,1147.0781 Q618.8313,1147.4688 618.2531,1148.3594 Q617.675,1149.2344 617.675,1150.4375 L617.675,1151.7344 Q617.675,1153.1875 618.7219,1154.1563 Q619.7844,1155.125 621.6438,1155.125 Q622.7531,1155.125 623.5344,1154.8125 Q623.9719,1154.6406 624.4875,1154.125 Q624.8,1153.8125 624.9719,1153.7188 Q625.1438,1153.625 625.3781,1153.625 Q625.7688,1153.625 626.0656,1153.9375 Q626.3781,1154.2344 626.3781,1154.6406 Q626.3781,1155.0469 625.9719,1155.5156 Q625.3781,1156.2031 624.4406,1156.5938 Q623.175,1157.125 621.6594,1157.125 Q619.8781,1157.125 618.4563,1156.3906 Q617.3,1155.7969 616.4875,1154.5313 Q615.675,1153.2656 615.675,1151.7813 L615.675,1150.4219 Q615.675,1148.8594 616.3938,1147.5156 Q617.1281,1146.1563 618.4094,1145.4219 Q619.7063,1144.6875 621.1594,1144.6875 Q622.0188,1144.6875 622.7688,1144.8906 Q623.5344,1145.0938 624.1906,1145.5 Z " fill="#000000"/><text fill="#000000" font-family="sans-serif" font-size="20" lengthAdjust="spacing" textLength="52" x="643.95" y="1158.7617">Order</text><line style="stroke:#4169E1;stroke-width:0.5;" x1="576" x2="729" y1="1168.1563" y2="1168.1563"/><rect fill="none" height="6" style="stroke:#C82930;stroke-width:1.0;" width="6" x="583" y="1183.2344"/><text fill="#000000" font-family="sans-serif" font-size="20" lengthAdjust="spacing" textLength="128" x="596" y="1192.918">Person person</text><rect fill="none" height="6" style="stroke:#C82930;stroke-width:1.0;" width="6" x="583" y="1208.3906"/><text fill="#000000" font-family="sans-serif" font-size="20" lengthAdjust="spacing" textLength="107" x="596" y="1218.0742">double price</text><rect fill="none" height="6" style="stroke:#C82930;stroke-width:1.0;" width="6" x="583" y="1233.5469"/><text fill="#000000" font-family="sans-serif" font-size="20" lengthAdjust="spacing" textLength="87" x="596" y="1243.2305">Date date</text><line style="stroke:#4169E1;stroke-width:0.5;" x1="576" x2="729" y1="1251.625" y2="1251.625"/></g><!--class Person--><g id="elem_Person"><rect codeLine="38" fill="#FFDAB9" height="202.0938" id="Person" rx="2.5" ry="2.5" style="stroke:#4169E1;stroke-width:0.5;" width="205" x="455" y="1321"/><ellipse cx="522" cy="1338.5781" fill="#ADD1B2" rx="12" ry="12" style="stroke:#181818;stroke-width:1.0;"/><path d="M524.1406,1333.5 Q524.3281,1333.25 524.5469,1333.125 Q524.7656,1332.9844 525.0156,1332.9844 Q525.4531,1332.9844 525.7344,1333.2969 Q526.0156,1333.5938 526.0156,1334.3125 L526.0156,1336.0156 Q526.0156,1336.7344 525.7344,1337.0469 Q525.4531,1337.3594 525.0156,1337.3594 Q524.625,1337.3594 524.375,1337.125 Q524.125,1336.9063 524.0156,1336.2969 Q523.9531,1335.875 523.7344,1335.6563 Q523.3438,1335.2188 522.625,1334.9531 Q521.9063,1334.6875 521.1875,1334.6875 Q520.2813,1334.6875 519.5313,1335.0781 Q518.7813,1335.4688 518.2031,1336.3594 Q517.625,1337.2344 517.625,1338.4375 L517.625,1339.7344 Q517.625,1341.1875 518.6719,1342.1563 Q519.7344,1343.125 521.5938,1343.125 Q522.7031,1343.125 523.4844,1342.8125 Q523.9219,1342.6406 524.4375,1342.125 Q524.75,1341.8125 524.9219,1341.7188 Q525.0938,1341.625 525.3281,1341.625 Q525.7188,1341.625 526.0156,1341.9375 Q526.3281,1342.2344 526.3281,1342.6406 Q526.3281,1343.0469 525.9219,1343.5156 Q525.3281,1344.2031 524.3906,1344.5938 Q523.125,1345.125 521.6094,1345.125 Q519.8281,1345.125 518.4063,1344.3906 Q517.25,1343.7969 516.4375,1342.5313 Q515.625,1341.2656 515.625,1339.7813 L515.625,1338.4219 Q515.625,1336.8594 516.3438,1335.5156 Q517.0781,1334.1563 518.3594,1333.4219 Q519.6563,1332.6875 521.1094,1332.6875 Q521.9688,1332.6875 522.7188,1332.8906 Q523.4844,1333.0938 524.1406,1333.5 Z " fill="#000000"/><text fill="#000000" font-family="sans-serif" font-size="20" lengthAdjust="spacing" textLength="62" x="544" y="1346.7617">Person</text><line style="stroke:#4169E1;stroke-width:0.5;" x1="456" x2="659" y1="1356.1563" y2="1356.1563"/><rect fill="none" height="6" style="stroke:#C82930;stroke-width:1.0;" width="6" x="463" y="1371.2344"/><text fill="#000000" font-family="sans-serif" font-size="20" lengthAdjust="spacing" textLength="105" x="476" y="1380.918">String name</text><rect fill="none" height="6" style="stroke:#C82930;stroke-width:1.0;" width="6" x="463" y="1396.3906"/><text fill="#000000" font-family="sans-serif" font-size="20" lengthAdjust="spacing" textLength="171" x="476" y="1406.0742">int passportNumber</text><rect fill="none" height="6" style="stroke:#C82930;stroke-width:1.0;" width="6" x="463" y="1421.5469"/><text fill="#000000" font-family="sans-serif" font-size="20" lengthAdjust="spacing" textLength="94" x="476" y="1431.2305">taxNumber</text><rect fill="none" height="6" style="stroke:#C82930;stroke-width:1.0;" width="6" x="463" y="1446.7031"/><text fill="#000000" font-family="sans-serif" font-size="20" lengthAdjust="spacing" textLength="100" x="476" y="1456.3867">Email email</text><rect fill="none" height="6" style="stroke:#C82930;stroke-width:1.0;" width="6" x="463" y="1471.8594"/><text fill="#000000" font-family="sans-serif" font-size="20" lengthAdjust="spacing" textLength="178" x="476" y="1481.543">String phoneNumber</text><rect fill="none" height="6" style="stroke:#C82930;stroke-width:1.0;" width="6" x="463" y="1497.0156"/><text fill="#000000" font-family="sans-serif" font-size="20" lengthAdjust="spacing" textLength="150" x="476" y="1506.6992">Address address</text><line style="stroke:#4169E1;stroke-width:0.5;" x1="456" x2="659" y1="1515.0938" y2="1515.0938"/></g><!--class Address--><g id="elem_Address"><rect codeLine="46" fill="#FFDAB9" height="176.9375" id="Address" rx="2.5" ry="2.5" style="stroke:#4169E1;stroke-width:0.5;" width="142" x="486.5" y="1584"/><ellipse cx="518.25" cy="1601.5781" fill="#ADD1B2" rx="12" ry="12" style="stroke:#181818;stroke-width:1.0;"/><path d="M520.3906,1596.5 Q520.5781,1596.25 520.7969,1596.125 Q521.0156,1595.9844 521.2656,1595.9844 Q521.7031,1595.9844 521.9844,1596.2969 Q522.2656,1596.5938 522.2656,1597.3125 L522.2656,1599.0156 Q522.2656,1599.7344 521.9844,1600.0469 Q521.7031,1600.3594 521.2656,1600.3594 Q520.875,1600.3594 520.625,1600.125 Q520.375,1599.9063 520.2656,1599.2969 Q520.2031,1598.875 519.9844,1598.6563 Q519.5938,1598.2188 518.875,1597.9531 Q518.1563,1597.6875 517.4375,1597.6875 Q516.5313,1597.6875 515.7813,1598.0781 Q515.0313,1598.4688 514.4531,1599.3594 Q513.875,1600.2344 513.875,1601.4375 L513.875,1602.7344 Q513.875,1604.1875 514.9219,1605.1563 Q515.9844,1606.125 517.8438,1606.125 Q518.9531,1606.125 519.7344,1605.8125 Q520.1719,1605.6406 520.6875,1605.125 Q521,1604.8125 521.1719,1604.7188 Q521.3438,1604.625 521.5781,1604.625 Q521.9688,1604.625 522.2656,1604.9375 Q522.5781,1605.2344 522.5781,1605.6406 Q522.5781,1606.0469 522.1719,1606.5156 Q521.5781,1607.2031 520.6406,1607.5938 Q519.375,1608.125 517.8594,1608.125 Q516.0781,1608.125 514.6563,1607.3906 Q513.5,1606.7969 512.6875,1605.5313 Q511.875,1604.2656 511.875,1602.7813 L511.875,1601.4219 Q511.875,1599.8594 512.5938,1598.5156 Q513.3281,1597.1563 514.6094,1596.4219 Q515.9063,1595.6875 517.3594,1595.6875 Q518.2188,1595.6875 518.9688,1595.8906 Q519.7344,1596.0938 520.3906,1596.5 Z " fill="#000000"/><text fill="#000000" font-family="sans-serif" font-size="20" lengthAdjust="spacing" textLength="73" x="536.75" y="1609.7617">Address</text><line style="stroke:#4169E1;stroke-width:0.5;" x1="487.5" x2="627.5" y1="1619.1563" y2="1619.1563"/><rect fill="none" height="6" style="stroke:#C82930;stroke-width:1.0;" width="6" x="494.5" y="1634.2344"/><text fill="#000000" font-family="sans-serif" font-size="20" lengthAdjust="spacing" textLength="108" x="507.5" y="1643.918">String street</text><rect fill="none" height="6" style="stroke:#C82930;stroke-width:1.0;" width="6" x="494.5" y="1659.3906"/><text fill="#000000" font-family="sans-serif" font-size="20" lengthAdjust="spacing" textLength="87" x="507.5" y="1669.0742">String city</text><rect fill="none" height="6" style="stroke:#C82930;stroke-width:1.0;" width="6" x="494.5" y="1684.5469"/><text fill="#000000" font-family="sans-serif" font-size="20" lengthAdjust="spacing" textLength="115" x="507.5" y="1694.2305">String district</text><rect fill="none" height="6" style="stroke:#C82930;stroke-width:1.0;" width="6" x="494.5" y="1709.7031"/><text fill="#000000" font-family="sans-serif" font-size="20" lengthAdjust="spacing" textLength="101" x="507.5" y="1719.3867">String state</text><rect fill="none" height="6" style="stroke:#C82930;stroke-width:1.0;" width="6" x="494.5" y="1734.8594"/><text fill="#000000" font-family="sans-serif" font-size="20" lengthAdjust="spacing" textLength="93" x="507.5" y="1744.543">int zipcode</text><line style="stroke:#4169E1;stroke-width:0.5;" x1="487.5" x2="627.5" y1="1752.9375" y2="1752.9375"/></g><!--class Announcement--><g id="elem_Announcement"><rect codeLine="53" fill="#FFDAB9" height="176.9375" id="Announcement" rx="2.5" ry="2.5" style="stroke:#4169E1;stroke-width:0.5;" width="755" x="7" y="682"/><ellipse cx="316" cy="699.5781" fill="#ADD1B2" rx="12" ry="12" style="stroke:#181818;stroke-width:1.0;"/><path d="M318.1406,694.5 Q318.3281,694.25 318.5469,694.125 Q318.7656,693.9844 319.0156,693.9844 Q319.4531,693.9844 319.7344,694.2969 Q320.0156,694.5938 320.0156,695.3125 L320.0156,697.0156 Q320.0156,697.7344 319.7344,698.0469 Q319.4531,698.3594 319.0156,698.3594 Q318.625,698.3594 318.375,698.125 Q318.125,697.9063 318.0156,697.2969 Q317.9531,696.875 317.7344,696.6563 Q317.3438,696.2188 316.625,695.9531 Q315.9063,695.6875 315.1875,695.6875 Q314.2813,695.6875 313.5313,696.0781 Q312.7813,696.4688 312.2031,697.3594 Q311.625,698.2344 311.625,699.4375 L311.625,700.7344 Q311.625,702.1875 312.6719,703.1563 Q313.7344,704.125 315.5938,704.125 Q316.7031,704.125 317.4844,703.8125 Q317.9219,703.6406 318.4375,703.125 Q318.75,702.8125 318.9219,702.7188 Q319.0938,702.625 319.3281,702.625 Q319.7188,702.625 320.0156,702.9375 Q320.3281,703.2344 320.3281,703.6406 Q320.3281,704.0469 319.9219,704.5156 Q319.3281,705.2031 318.3906,705.5938 Q317.125,706.125 315.6094,706.125 Q313.8281,706.125 312.4063,705.3906 Q311.25,704.7969 310.4375,703.5313 Q309.625,702.2656 309.625,700.7813 L309.625,699.4219 Q309.625,697.8594 310.3438,696.5156 Q311.0781,695.1563 312.3594,694.4219 Q313.6563,693.6875 315.1094,693.6875 Q315.9688,693.6875 316.7188,693.8906 Q317.4844,694.0938 318.1406,694.5 Z " fill="#000000"/><text fill="#000000" font-family="sans-serif" font-size="20" lengthAdjust="spacing" textLength="128" x="338" y="707.7617">Announcement</text><line style="stroke:#4169E1;stroke-width:0.5;" x1="8" x2="761" y1="717.1563" y2="717.1563"/><rect fill="none" height="6" style="stroke:#C82930;stroke-width:1.0;" width="6" x="15" y="732.2344"/><text fill="#000000" font-family="sans-serif" font-size="20" lengthAdjust="spacing" textLength="156" x="28" y="741.918">Property property</text><rect fill="none" height="6" style="stroke:#C82930;stroke-width:1.0;" width="6" x="15" y="757.3906"/><text fill="#000000" font-family="sans-serif" font-size="20" lengthAdjust="spacing" textLength="178" x="28" y="767.0742">Employee employee</text><rect fill="none" height="6" style="stroke:#C82930;stroke-width:1.0;" width="6" x="15" y="782.5469"/><text fill="#000000" font-family="sans-serif" font-size="20" lengthAdjust="spacing" textLength="85" x="28" y="792.2305">User user</text><rect fill="none" height="6" style="stroke:#C82930;stroke-width:1.0;" width="6" x="15" y="807.7031"/><text fill="#000000" font-family="sans-serif" font-size="20" lengthAdjust="spacing" textLength="224" x="28" y="817.3867">ArrayList &lt;Order&gt; orders</text><line style="stroke:#4169E1;stroke-width:0.5;" x1="8" x2="761" y1="825.7813" y2="825.7813"/><ellipse cx="18" cy="843.8594" fill="#84BE84" rx="3" ry="3" style="stroke:#038048;stroke-width:1.0;"/><text fill="#000000" font-family="sans-serif" font-size="20" lengthAdjust="spacing" textLength="728" x="28" y="850.543">checkIfRequestPriceIsLowerThanAdvertisementPrice(requestPrice, announcement)</text></g><!--class Orders--><g id="elem_Orders"><rect codeLine="60" fill="#FFDAB9" height="151.7813" id="Orders" rx="2.5" ry="2.5" style="stroke:#4169E1;stroke-width:0.5;" width="546" x="190.5" y="920"/><ellipse cx="428" cy="937.5781" fill="#ADD1B2" rx="12" ry="12" style="stroke:#181818;stroke-width:1.0;"/><path d="M430.1406,932.5 Q430.3281,932.25 430.5469,932.125 Q430.7656,931.9844 431.0156,931.9844 Q431.4531,931.9844 431.7344,932.2969 Q432.0156,932.5938 432.0156,933.3125 L432.0156,935.0156 Q432.0156,935.7344 431.7344,936.0469 Q431.4531,936.3594 431.0156,936.3594 Q430.625,936.3594 430.375,936.125 Q430.125,935.9063 430.0156,935.2969 Q429.9531,934.875 429.7344,934.6563 Q429.3438,934.2188 428.625,933.9531 Q427.9063,933.6875 427.1875,933.6875 Q426.2813,933.6875 425.5313,934.0781 Q424.7813,934.4688 424.2031,935.3594 Q423.625,936.2344 423.625,937.4375 L423.625,938.7344 Q423.625,940.1875 424.6719,941.1563 Q425.7344,942.125 427.5938,942.125 Q428.7031,942.125 429.4844,941.8125 Q429.9219,941.6406 430.4375,941.125 Q430.75,940.8125 430.9219,940.7188 Q431.0938,940.625 431.3281,940.625 Q431.7188,940.625 432.0156,940.9375 Q432.3281,941.2344 432.3281,941.6406 Q432.3281,942.0469 431.9219,942.5156 Q431.3281,943.2031 430.3906,943.5938 Q429.125,944.125 427.6094,944.125 Q425.8281,944.125 424.4063,943.3906 Q423.25,942.7969 422.4375,941.5313 Q421.625,940.2656 421.625,938.7813 L421.625,937.4219 Q421.625,935.8594 422.3438,934.5156 Q423.0781,933.1563 424.3594,932.4219 Q425.6563,931.6875 427.1094,931.6875 Q427.9688,931.6875 428.7188,931.8906 Q429.4844,932.0938 430.1406,932.5 Z " fill="#000000"/><text fill="#000000" font-family="sans-serif" font-size="20" lengthAdjust="spacing" textLength="62" x="450" y="945.7617">Orders</text><line style="stroke:#4169E1;stroke-width:0.5;" x1="191.5" x2="735.5" y1="955.1563" y2="955.1563"/><rect fill="none" height="6" style="stroke:#C82930;stroke-width:1.0;" width="6" x="198.5" y="970.2344"/><text fill="#000000" font-family="sans-serif" font-size="20" lengthAdjust="spacing" textLength="224" x="211.5" y="979.918">ArrayList &lt;Order&gt; orders</text><line style="stroke:#4169E1;stroke-width:0.5;" x1="191.5" x2="735.5" y1="988.3125" y2="988.3125"/><ellipse cx="201.5" cy="1006.3906" fill="#84BE84" rx="3" ry="3" style="stroke:#038048;stroke-width:1.0;"/><text fill="#000000" font-family="sans-serif" font-size="20" lengthAdjust="spacing" textLength="76" x="211.5" y="1013.0742">Orders()</text><ellipse cx="201.5" cy="1031.5469" fill="#84BE84" rx="3" ry="3" style="stroke:#038048;stroke-width:1.0;"/><text fill="#000000" font-family="sans-serif" font-size="20" lengthAdjust="spacing" textLength="519" x="211.5" y="1038.2305">checkIfRequestPriceIsUnique(requestPrice, announcement)</text><ellipse cx="201.5" cy="1056.7031" fill="#84BE84" rx="3" ry="3" style="stroke:#038048;stroke-width:1.0;"/><text fill="#000000" font-family="sans-serif" font-size="20" lengthAdjust="spacing" textLength="334" x="211.5" y="1063.3867">createOrder(requestPrice, user, date)</text></g><!--class Date--><g id="elem_Date"><rect codeLine="67" fill="#FFDAB9" height="126.625" id="Date" rx="2.5" ry="2.5" style="stroke:#4169E1;stroke-width:0.5;" width="106" x="695.5" y="1358.5"/><ellipse cx="725" cy="1376.0781" fill="#ADD1B2" rx="12" ry="12" style="stroke:#181818;stroke-width:1.0;"/><path d="M727.1406,1371 Q727.3281,1370.75 727.5469,1370.625 Q727.7656,1370.4844 728.0156,1370.4844 Q728.4531,1370.4844 728.7344,1370.7969 Q729.0156,1371.0938 729.0156,1371.8125 L729.0156,1373.5156 Q729.0156,1374.2344 728.7344,1374.5469 Q728.4531,1374.8594 728.0156,1374.8594 Q727.625,1374.8594 727.375,1374.625 Q727.125,1374.4063 727.0156,1373.7969 Q726.9531,1373.375 726.7344,1373.1563 Q726.3438,1372.7188 725.625,1372.4531 Q724.9063,1372.1875 724.1875,1372.1875 Q723.2813,1372.1875 722.5313,1372.5781 Q721.7813,1372.9688 721.2031,1373.8594 Q720.625,1374.7344 720.625,1375.9375 L720.625,1377.2344 Q720.625,1378.6875 721.6719,1379.6563 Q722.7344,1380.625 724.5938,1380.625 Q725.7031,1380.625 726.4844,1380.3125 Q726.9219,1380.1406 727.4375,1379.625 Q727.75,1379.3125 727.9219,1379.2188 Q728.0938,1379.125 728.3281,1379.125 Q728.7188,1379.125 729.0156,1379.4375 Q729.3281,1379.7344 729.3281,1380.1406 Q729.3281,1380.5469 728.9219,1381.0156 Q728.3281,1381.7031 727.3906,1382.0938 Q726.125,1382.625 724.6094,1382.625 Q722.8281,1382.625 721.4063,1381.8906 Q720.25,1381.2969 719.4375,1380.0313 Q718.625,1378.7656 718.625,1377.2813 L718.625,1375.9219 Q718.625,1374.3594 719.3438,1373.0156 Q720.0781,1371.6563 721.3594,1370.9219 Q722.6563,1370.1875 724.1094,1370.1875 Q724.9688,1370.1875 725.7188,1370.3906 Q726.4844,1370.5938 727.1406,1371 Z " fill="#000000"/><text fill="#000000" font-family="sans-serif" font-size="20" lengthAdjust="spacing" textLength="42" x="743" y="1384.2617">Date</text><line style="stroke:#4169E1;stroke-width:0.5;" x1="696.5" x2="800.5" y1="1393.6563" y2="1393.6563"/><rect fill="none" height="6" style="stroke:#C82930;stroke-width:1.0;" width="6" x="703.5" y="1408.7344"/><text fill="#000000" font-family="sans-serif" font-size="20" lengthAdjust="spacing" textLength="58" x="716.5" y="1418.418">int day</text><rect fill="none" height="6" style="stroke:#C82930;stroke-width:1.0;" width="6" x="703.5" y="1433.8906"/><text fill="#000000" font-family="sans-serif" font-size="20" lengthAdjust="spacing" textLength="79" x="716.5" y="1443.5742">int month</text><rect fill="none" height="6" style="stroke:#C82930;stroke-width:1.0;" width="6" x="703.5" y="1459.0469"/><text fill="#000000" font-family="sans-serif" font-size="20" lengthAdjust="spacing" textLength="65" x="716.5" y="1468.7305">int year</text><line style="stroke:#4169E1;stroke-width:0.5;" x1="696.5" x2="800.5" y1="1477.125" y2="1477.125"/></g><!--class AnnouncementRepository--><g id="elem_AnnouncementRepository"><rect codeLine="72" fill="#FFDAB9" height="76.3125" id="AnnouncementRepository" rx="2.5" ry="2.5" style="stroke:#4169E1;stroke-width:0.5;" width="297" x="284" y="545"/><ellipse cx="318" cy="562.5781" fill="#ADD1B2" rx="12" ry="12" style="stroke:#181818;stroke-width:1.0;"/><path d="M320.1406,557.5 Q320.3281,557.25 320.5469,557.125 Q320.7656,556.9844 321.0156,556.9844 Q321.4531,556.9844 321.7344,557.2969 Q322.0156,557.5938 322.0156,558.3125 L322.0156,560.0156 Q322.0156,560.7344 321.7344,561.0469 Q321.4531,561.3594 321.0156,561.3594 Q320.625,561.3594 320.375,561.125 Q320.125,560.9063 320.0156,560.2969 Q319.9531,559.875 319.7344,559.6563 Q319.3438,559.2188 318.625,558.9531 Q317.9063,558.6875 317.1875,558.6875 Q316.2813,558.6875 315.5313,559.0781 Q314.7813,559.4688 314.2031,560.3594 Q313.625,561.2344 313.625,562.4375 L313.625,563.7344 Q313.625,565.1875 314.6719,566.1563 Q315.7344,567.125 317.5938,567.125 Q318.7031,567.125 319.4844,566.8125 Q319.9219,566.6406 320.4375,566.125 Q320.75,565.8125 320.9219,565.7188 Q321.0938,565.625 321.3281,565.625 Q321.7188,565.625 322.0156,565.9375 Q322.3281,566.2344 322.3281,566.6406 Q322.3281,567.0469 321.9219,567.5156 Q321.3281,568.2031 320.3906,568.5938 Q319.125,569.125 317.6094,569.125 Q315.8281,569.125 314.4063,568.3906 Q313.25,567.7969 312.4375,566.5313 Q311.625,565.2656 311.625,563.7813 L311.625,562.4219 Q311.625,560.8594 312.3438,559.5156 Q313.0781,558.1563 314.3594,557.4219 Q315.6563,556.6875 317.1094,556.6875 Q317.9688,556.6875 318.7188,556.8906 Q319.4844,557.0938 320.1406,557.5 Z " fill="#000000"/><text fill="#000000" font-family="sans-serif" font-size="20" lengthAdjust="spacing" textLength="223" x="337" y="570.7617">AnnouncementRepository</text><line style="stroke:#4169E1;stroke-width:0.5;" x1="285" x2="580" y1="580.1563" y2="580.1563"/><line style="stroke:#4169E1;stroke-width:0.5;" x1="285" x2="580" y1="588.1563" y2="588.1563"/><ellipse cx="295" cy="606.2344" fill="#84BE84" rx="3" ry="3" style="stroke:#038048;stroke-width:1.0;"/><text fill="#000000" font-family="sans-serif" font-size="20" lengthAdjust="spacing" textLength="270" x="305" y="612.918">getNotSoldAnnouncementList()</text></g><!--link OrderRequestUI to OrderRequestController--><g id="link_OrderRequestUI_OrderRequestController"><path codeLine="76" d="M660.5,58.29 C660.5,73.19 660.5,93.19 660.5,113.66 " fill="none" id="OrderRequestUI-to-OrderRequestController" style="stroke:#4169E1;stroke-width:1.0;"/><polygon fill="#4169E1" points="660.5,118.87,664.5,109.87,660.5,113.87,656.5,109.87,660.5,118.87" style="stroke:#4169E1;stroke-width:1.0;"/></g><!--link OrderRequestController to Repositories--><g id="link_OrderRequestController_Repositories"><path codeLine="79" d="M596.53,296.15 C582.7,315.1 568.29,334.84 555.16,352.83 " fill="none" id="OrderRequestController-to-Repositories" style="stroke:#4169E1;stroke-width:1.0;"/><polygon fill="#4169E1" points="552.21,356.88,560.7406,351.9576,555.1526,352.8376,554.2726,347.2496,552.21,356.88" style="stroke:#4169E1;stroke-width:1.0;"/></g><!--link OrderRequestController to Order--><g id="link_OrderRequestController_Order"><path codeLine="80" d="M726.62,296.17 C750.87,328.32 772.5,357 772.5,357 C772.5,357 815.5,419.5 815.5,419.5 C815.5,419.5 815.5,419.5 815.5,997 C815.5,997 754.5,1072 754.5,1072 C754.5,1072 731.69,1099.62 707.64,1128.74 " fill="none" id="OrderRequestController-to-Order" style="stroke:#4169E1;stroke-width:1.0;"/><polygon fill="#4169E1" points="704.4,1132.66,713.2057,1128.2486,707.5755,1128.7979,707.0262,1123.1677,704.4,1132.66" style="stroke:#4169E1;stroke-width:1.0;"/></g><!--link Repositories to Repositories--><g id="link_Repositories_Repositories"><path codeLine="83" d="M652.8,404.68 C673.56,407.24 687.5,412.51 687.5,420.5 C687.5,427.8 675.86,432.83 657.99,435.6 " fill="none" id="Repositories-to-Repositories" style="stroke:#4169E1;stroke-width:1.0;"/><polygon fill="#4169E1" points="652.8,436.32,662.2643,439.0453,657.7526,435.6329,661.165,431.1212,652.8,436.32" style="stroke:#4169E1;stroke-width:1.0;"/><text fill="#000000" font-family="sans-serif" font-size="20" lengthAdjust="spacing" textLength="72" x="693.5" y="428.7617">instance</text></g><!--link Repositories to AnnouncementRepository--><g id="link_Repositories_AnnouncementRepository"><path codeLine="84" d="M477.68,484.01 C469,502.84 459.69,523.04 451.78,540.17 " fill="none" id="Repositories-to-AnnouncementRepository" style="stroke:#4169E1;stroke-width:1.0;"/><polygon fill="#4169E1" points="449.59,544.92,456.9972,538.429,451.688,540.3815,449.7356,535.0722,449.59,544.92" style="stroke:#4169E1;stroke-width:1.0;"/></g><!--link AnnouncementRepository to Announcement--><g id="link_AnnouncementRepository_Announcement"><path codeLine="87" d="M422.9,621.09 C418.72,637.27 413.6,657.04 408.49,676.8 " fill="none" id="AnnouncementRepository-to-Announcement" style="stroke:#4169E1;stroke-width:1.0;stroke-dasharray:7.0,7.0;"/><polygon fill="#4169E1" points="407.19,681.82,413.3286,674.1182,408.4498,676.9813,405.5866,672.1025,407.19,681.82" style="stroke:#4169E1;stroke-width:1.0;"/></g><!--reverse link Order to Person--><g id="link_Order_Person"><path codeLine="88" d="M620.72,1272.27 C614.11,1287.82 607.04,1304.45 600.11,1320.76 " fill="none" id="Order-backto-Person" style="stroke:#4169E1;stroke-width:1.0;"/><polygon fill="#4169E1" points="625.91,1260.05,619.8807,1264.0057,621.2132,1271.0927,627.2425,1267.1369,625.91,1260.05" style="stroke:#4169E1;stroke-width:1.0;"/></g><!--reverse link Order to Date--><g id="link_Order_Date"><path codeLine="89" d="M684.6,1272.22 C696.62,1300.21 710.14,1331.69 721.64,1358.46 " fill="none" id="Order-backto-Date" style="stroke:#4169E1;stroke-width:1.0;"/><polygon fill="#4169E1" points="679.37,1260.05,678.0621,1267.1415,684.105,1271.0763,685.4129,1263.9848,679.37,1260.05" style="stroke:#4169E1;stroke-width:1.0;"/></g><!--link Announcement to Orders--><g id="link_Announcement_Orders"><path codeLine="90" d="M415.5,859.19 C422.59,879.25 430.06,900.39 436.94,919.86 " fill="none" id="Announcement-Orders" style="stroke:#4169E1;stroke-width:1.0;"/><text fill="#000000" font-family="sans-serif" font-size="20" lengthAdjust="spacing" textLength="11" x="406.4523" y="887.7075">1</text><text fill="#000000" font-family="sans-serif" font-size="20" lengthAdjust="spacing" textLength="11" x="422.9845" y="907.4675">1</text></g><!--link Orders to Order--><g id="link_Orders_Order"><path codeLine="92" d="M534.95,1072.04 C554.08,1092.14 574.55,1113.64 592.96,1132.97 " fill="none" id="Orders-Order" style="stroke:#4169E1;stroke-width:1.0;"/><text fill="#000000" font-family="sans-serif" font-size="20" lengthAdjust="spacing" textLength="11" x="529.6176" y="1100.4267">1</text><text fill="#000000" font-family="sans-serif" font-size="20" lengthAdjust="spacing" textLength="8" x="578.0103" y="1120.445">*</text></g><!--reverse link Person to Address--><g id="link_Person_Address"><path codeLine="94" d="M557.5,1536.29 C557.5,1552.21 557.5,1568.37 557.5,1583.71 " fill="none" id="Person-backto-Address" style="stroke:#4169E1;stroke-width:1.0;"/><polygon fill="#4169E1" points="557.5,1523,553.5,1529,557.5,1535,561.5,1529,557.5,1523" style="stroke:#4169E1;stroke-width:1.0;"/></g><!--SRC=[ZLNDRjim3BxxAOHUadH9iUqu30NIRiK255tHh0-WIdGiH14zILxd1dltqRBYI6cQpGV78Zz-_179kBKoDRTyer6iGJ899M-qlq7Zb-e5sCVtnSZjC6o31aLbSGFCsmQAlQRcOirNiFIj1cP1U6vMEWMuYajyLcR5IgvTgj7AW6zhO3NgjZka7WSbMez5gX6QEpVttggdniD2e0a1KxoptNEZA1ZdEzBL82mEADYsOFHSKG8hYusHrwZHidlWehfloZ9evzRYSwzum9RhAqtP1pEq4koXvaynqb1wvf5PjQeyawghYK9JZ1uTMAQC1rjo0QEYwADuW1gTycWLk3wYMIeQJuBitGhymZYghe3nX7tAp0R4t1XAHC06Z1y0RQIWu7gFtxl87-1d0yu_BhPlAw-f6Ing3NPxr4KQNB1purJDU7A8I2vbGBuDdFOXi53VQALSZEZUAW6FHj5XBB5vecl6iWGxPVzod5Cit3Uw7h0_AcvIow3yV-QiQF7og86iGyFgy1DbaR7kwAFe2_V09Bq6bjvmHxEa1gUXCNopiw3UeN5phgQHk6isJs2ZmlFVsVdhXYlDe7ldP7M51ZBeN4eBv9ltlqCiKNuGZFCMmBDSA9HlSubK15J27nftoUvJUL6rGBbFFwlpK4oBL4ZVKkdwZo75McCBG5ds7r4UXgnn-_oivUqjnSC-XqkwxFigZeoeGAmNPTuPj_WS6qF-8e_A9PrX4-JqL3FiAdVQVnoQoObeOhEVSXoCcR10zUs7AqTtvPY6LfiKGvHT-ssJsv2yJKwqxtsLd5lWzkX5xRVCVaNSeL-YbYcigy2uAr6_1HUxBLZakuZDPfTlR23w2qWEnp71F5kC9t11HQmPFZsyOgEjg-8AVWqyNXJYx_qSLxEBYzoo3vYTptPh915qDvRniBCFPoIdT-oveaUx8Eeqvr5JZ29Rt4qTNPpmelWB]--></g></svg>