<?xml version="1.0" encoding="UTF-8" standalone="no"?><svg xmlns="http://www.w3.org/2000/svg" xmlns:xlink="http://www.w3.org/1999/xlink" contentStyleType="text/css" height="680px" preserveAspectRatio="none" style="width:1577px;height:680px;background:#FFFFFF;" version="1.1" viewBox="0 0 1577 680" width="1577px" zoomAndPan="magnify"><defs/><g><!--class Agent--><g id="elem_Agent"><rect codeLine="17" fill="#FFDAB9" height="41.2813" id="Agent" rx="2.5" ry="2.5" style="stroke:#4169E1;stroke-width:0.5;" width="66" x="55" y="370"/><text fill="#000000" font-family="sans-serif" font-size="20" lengthAdjust="spacing" textLength="60" x="58" y="393.5645">Agent</text><line style="stroke:#4169E1;stroke-width:0.5;" x1="56" x2="120" y1="403.2813" y2="403.2813"/></g><!--class PO--><g id="elem_PO"><rect codeLine="19" fill="#FFDAB9" height="41.2813" id="PO" rx="2.5" ry="2.5" style="stroke:#4169E1;stroke-width:0.5;" width="162" x="7" y="446"/><text fill="#000000" font-family="sans-serif" font-size="20" lengthAdjust="spacing" textLength="156" x="10" y="469.5645">Property Owner</text><line style="stroke:#4169E1;stroke-width:0.5;" x1="8" x2="168" y1="479.2813" y2="479.2813"/></g><!--class Client--><g id="elem_Client"><rect codeLine="21" fill="#FFDAB9" height="41.2813" id="Client" rx="2.5" ry="2.5" style="stroke:#4169E1;stroke-width:0.5;" width="65" x="55.5" y="587"/><text fill="#000000" font-family="sans-serif" font-size="20" lengthAdjust="spacing" textLength="59" x="58.5" y="610.5645">Client</text><line style="stroke:#4169E1;stroke-width:0.5;" x1="56.5" x2="119.5" y1="620.2813" y2="620.2813"/></g><!--class Property--><g id="elem_Property"><rect codeLine="24" fill="#FFDAB9" height="134.4063" id="Property" rx="2.5" ry="2.5" style="stroke:#4169E1;stroke-width:0.5;" width="270" x="624" y="261.5"/><text fill="#000000" font-family="sans-serif" font-size="20" lengthAdjust="spacing" textLength="84" x="717" y="285.0645">Property</text><line style="stroke:#4169E1;stroke-width:0.5;" x1="625" x2="893" y1="294.7813" y2="294.7813"/><rect fill="none" height="6" style="stroke:#C82930;stroke-width:1.0;" width="6" x="632" y="308.9219"/><text fill="#000000" font-family="sans-serif" font-size="20" lengthAdjust="spacing" textLength="44" x="645" y="317.3457">type</text><rect fill="none" height="6" style="stroke:#C82930;stroke-width:1.0;" width="6" x="632" y="332.2031"/><text fill="#000000" font-family="sans-serif" font-size="20" lengthAdjust="spacing" textLength="44" x="645" y="340.627">area</text><rect fill="none" height="6" style="stroke:#C82930;stroke-width:1.0;" width="6" x="632" y="355.4844"/><text fill="#000000" font-family="sans-serif" font-size="20" lengthAdjust="spacing" textLength="243" x="645" y="363.9082">distanceFromCityCenter</text><rect fill="none" height="6" style="stroke:#C82930;stroke-width:1.0;" width="6" x="632" y="378.7656"/><text fill="#000000" font-family="sans-serif" font-size="20" lengthAdjust="spacing" textLength="98" x="645" y="387.1895">photoURL</text></g><!--class Home--><g id="elem_Home"><rect codeLine="31" fill="#FFDAB9" height="134.4063" id="Home" rx="2.5" ry="2.5" style="stroke:#4169E1;stroke-width:0.5;" width="266" x="1011" y="15.5"/><text fill="#000000" font-family="sans-serif" font-size="20" lengthAdjust="spacing" textLength="59" x="1114.5" y="39.0645">Home</text><line style="stroke:#4169E1;stroke-width:0.5;" x1="1012" x2="1276" y1="48.7813" y2="48.7813"/><rect fill="none" height="6" style="stroke:#C82930;stroke-width:1.0;" width="6" x="1019" y="62.9219"/><text fill="#000000" font-family="sans-serif" font-size="20" lengthAdjust="spacing" textLength="202" x="1032" y="71.3457">numberOfbedrooms</text><rect fill="none" height="6" style="stroke:#C82930;stroke-width:1.0;" width="6" x="1019" y="86.2031"/><text fill="#000000" font-family="sans-serif" font-size="20" lengthAdjust="spacing" textLength="210" x="1032" y="94.627">numberOfbathrooms</text><rect fill="none" height="6" style="stroke:#C82930;stroke-width:1.0;" width="6" x="1019" y="109.4844"/><text fill="#000000" font-family="sans-serif" font-size="20" lengthAdjust="spacing" textLength="239" x="1032" y="117.9082">numberOfParkingSpace</text><rect fill="none" height="6" style="stroke:#C82930;stroke-width:1.0;" width="6" x="1019" y="132.7656"/><text fill="#000000" font-family="sans-serif" font-size="20" lengthAdjust="spacing" textLength="201" x="1032" y="141.1895">availableEquipment</text></g><!--class Land--><g id="elem_Land"><rect codeLine="38" fill="#FFDAB9" height="41.2813" id="Land" rx="2.5" ry="2.5" style="stroke:#4169E1;stroke-width:0.5;" width="55" x="1116.5" y="185"/><text fill="#000000" font-family="sans-serif" font-size="20" lengthAdjust="spacing" textLength="49" x="1119.5" y="208.5645">Land</text><line style="stroke:#4169E1;stroke-width:0.5;" x1="1117.5" x2="1170.5" y1="218.2813" y2="218.2813"/></g><!--class Apartment--><g id="elem_Apartment"><rect codeLine="40" fill="#FFDAB9" height="41.2813" id="Apartment" rx="2.5" ry="2.5" style="stroke:#4169E1;stroke-width:0.5;" width="114" x="1414.5" y="7"/><text fill="#000000" font-family="sans-serif" font-size="20" lengthAdjust="spacing" textLength="108" x="1417.5" y="30.5645">Apartment</text><line style="stroke:#4169E1;stroke-width:0.5;" x1="1415.5" x2="1527.5" y1="40.2813" y2="40.2813"/></g><!--class House--><g id="elem_House"><rect codeLine="42" fill="#FFDAB9" height="111.125" id="House" rx="2.5" ry="2.5" style="stroke:#4169E1;stroke-width:0.5;" width="179" x="1382" y="83"/><text fill="#000000" font-family="sans-serif" font-size="20" lengthAdjust="spacing" textLength="62" x="1440.5" y="106.5645">House</text><line style="stroke:#4169E1;stroke-width:0.5;" x1="1383" x2="1560" y1="116.2813" y2="116.2813"/><rect fill="none" height="6" style="stroke:#C82930;stroke-width:1.0;" width="6" x="1390" y="130.4219"/><text fill="#000000" font-family="sans-serif" font-size="20" lengthAdjust="spacing" textLength="100" x="1403" y="138.8457">basement</text><rect fill="none" height="6" style="stroke:#C82930;stroke-width:1.0;" width="6" x="1390" y="153.7031"/><text fill="#000000" font-family="sans-serif" font-size="20" lengthAdjust="spacing" textLength="152" x="1403" y="162.127">inhabitableLoft</text><rect fill="none" height="6" style="stroke:#C82930;stroke-width:1.0;" width="6" x="1390" y="176.9844"/><text fill="#000000" font-family="sans-serif" font-size="20" lengthAdjust="spacing" textLength="128" x="1403" y="185.4082">sunExposure</text></g><!--class Announcement--><g id="elem_Announcement"><rect codeLine="48" fill="#FFDAB9" height="87.8438" id="Announcement" rx="2.5" ry="2.5" style="stroke:#4169E1;stroke-width:0.5;" width="160" x="347" y="421.5"/><text fill="#000000" font-family="sans-serif" font-size="20" lengthAdjust="spacing" textLength="154" x="350" y="445.0645">Announcement</text><line style="stroke:#4169E1;stroke-width:0.5;" x1="348" x2="506" y1="454.7813" y2="454.7813"/><rect fill="none" height="6" style="stroke:#C82930;stroke-width:1.0;" width="6" x="355" y="468.9219"/><text fill="#000000" font-family="sans-serif" font-size="20" lengthAdjust="spacing" textLength="19" x="368" y="477.3457">id</text><rect fill="none" height="6" style="stroke:#C82930;stroke-width:1.0;" width="6" x="355" y="492.2031"/><text fill="#000000" font-family="sans-serif" font-size="20" lengthAdjust="spacing" textLength="50" x="368" y="500.627">state</text></g><!--class Order--><g id="elem_Order"><rect codeLine="53" fill="#FFDAB9" height="64.5625" id="Order" rx="2.5" ry="2.5" style="stroke:#4169E1;stroke-width:0.5;" width="152" x="683" y="554"/><text fill="#000000" font-family="sans-serif" font-size="20" lengthAdjust="spacing" textLength="57" x="730.5" y="577.5645">Order</text><line style="stroke:#4169E1;stroke-width:0.5;" x1="684" x2="834" y1="587.2813" y2="587.2813"/><rect fill="none" height="6" style="stroke:#C82930;stroke-width:1.0;" width="6" x="691" y="601.4219"/><text fill="#000000" font-family="sans-serif" font-size="20" lengthAdjust="spacing" textLength="125" x="704" y="609.8457">requestPrice</text></g><!--class Address--><g id="elem_Address"><rect codeLine="57" fill="#FFDAB9" height="134.4063" id="Address" rx="2.5" ry="2.5" style="stroke:#4169E1;stroke-width:0.5;" width="105" x="1091.5" y="261.5"/><text fill="#000000" font-family="sans-serif" font-size="20" lengthAdjust="spacing" textLength="80" x="1104" y="285.0645">Address</text><line style="stroke:#4169E1;stroke-width:0.5;" x1="1092.5" x2="1195.5" y1="294.7813" y2="294.7813"/><rect fill="none" height="6" style="stroke:#C82930;stroke-width:1.0;" width="6" x="1099.5" y="308.9219"/><text fill="#000000" font-family="sans-serif" font-size="20" lengthAdjust="spacing" textLength="58" x="1112.5" y="317.3457">street</text><rect fill="none" height="6" style="stroke:#C82930;stroke-width:1.0;" width="6" x="1099.5" y="332.2031"/><text fill="#000000" font-family="sans-serif" font-size="20" lengthAdjust="spacing" textLength="36" x="1112.5" y="340.627">city</text><rect fill="none" height="6" style="stroke:#C82930;stroke-width:1.0;" width="6" x="1099.5" y="355.4844"/><text fill="#000000" font-family="sans-serif" font-size="20" lengthAdjust="spacing" textLength="50" x="1112.5" y="363.9082">state</text><rect fill="none" height="6" style="stroke:#C82930;stroke-width:1.0;" width="6" x="1099.5" y="378.7656"/><text fill="#000000" font-family="sans-serif" font-size="20" lengthAdjust="spacing" textLength="78" x="1112.5" y="387.1895">zipcode</text></g><!--class Deal--><g id="elem_Deal"><rect codeLine="64" fill="#FFDAB9" height="64.5625" id="Deal" rx="2.5" ry="2.5" style="stroke:#4169E1;stroke-width:0.5;" width="118" x="1085" y="431"/><text fill="#000000" font-family="sans-serif" font-size="20" lengthAdjust="spacing" textLength="45" x="1121.5" y="454.5645">Deal</text><line style="stroke:#4169E1;stroke-width:0.5;" x1="1086" x2="1202" y1="464.2813" y2="464.2813"/><rect fill="none" height="6" style="stroke:#C82930;stroke-width:1.0;" width="6" x="1093" y="478.4219"/><text fill="#000000" font-family="sans-serif" font-size="20" lengthAdjust="spacing" textLength="91" x="1106" y="486.8457">dealType</text></g><!--class Sale--><g id="elem_Sale"><rect codeLine="68" fill="#FFDAB9" height="64.5625" id="Sale" rx="2.5" ry="2.5" style="stroke:#4169E1;stroke-width:0.5;" width="161" x="1391" y="375"/><text fill="#000000" font-family="sans-serif" font-size="20" lengthAdjust="spacing" textLength="43" x="1450" y="398.5645">Sale</text><line style="stroke:#4169E1;stroke-width:0.5;" x1="1392" x2="1551" y1="408.2813" y2="408.2813"/><rect fill="none" height="6" style="stroke:#C82930;stroke-width:1.0;" width="6" x="1399" y="422.4219"/><text fill="#000000" font-family="sans-serif" font-size="20" lengthAdjust="spacing" textLength="134" x="1412" y="430.8457">propertyPrice</text></g><!--class Rent--><g id="elem_Rent"><rect codeLine="72" fill="#FFDAB9" height="87.8438" id="Rent" rx="2.5" ry="2.5" style="stroke:#4169E1;stroke-width:0.5;" width="197" x="1373" y="475.5"/><text fill="#000000" font-family="sans-serif" font-size="20" lengthAdjust="spacing" textLength="47" x="1448" y="499.0645">Rent</text><line style="stroke:#4169E1;stroke-width:0.5;" x1="1374" x2="1569" y1="508.7813" y2="508.7813"/><rect fill="none" height="6" style="stroke:#C82930;stroke-width:1.0;" width="6" x="1381" y="522.9219"/><text fill="#000000" font-family="sans-serif" font-size="20" lengthAdjust="spacing" textLength="132" x="1394" y="531.3457">propertyRent</text><rect fill="none" height="6" style="stroke:#C82930;stroke-width:1.0;" width="6" x="1381" y="546.2031"/><text fill="#000000" font-family="sans-serif" font-size="20" lengthAdjust="spacing" textLength="170" x="1394" y="554.627">contractDuration</text></g><!--class Date--><g id="elem_Date"><rect codeLine="77" fill="#FFDAB9" height="111.125" id="Date" rx="2.5" ry="2.5" style="stroke:#4169E1;stroke-width:0.5;" width="93" x="1097.5" y="531"/><text fill="#000000" font-family="sans-serif" font-size="20" lengthAdjust="spacing" textLength="47" x="1120.5" y="554.5645">Date</text><line style="stroke:#4169E1;stroke-width:0.5;" x1="1098.5" x2="1189.5" y1="564.2813" y2="564.2813"/><rect fill="none" height="6" style="stroke:#C82930;stroke-width:1.0;" width="6" x="1105.5" y="578.4219"/><text fill="#000000" font-family="sans-serif" font-size="20" lengthAdjust="spacing" textLength="43" x="1118.5" y="586.8457">year</text><rect fill="none" height="6" style="stroke:#C82930;stroke-width:1.0;" width="6" x="1105.5" y="601.7031"/><text fill="#000000" font-family="sans-serif" font-size="20" lengthAdjust="spacing" textLength="66" x="1118.5" y="610.127">month</text><rect fill="none" height="6" style="stroke:#C82930;stroke-width:1.0;" width="6" x="1105.5" y="624.9844"/><text fill="#000000" font-family="sans-serif" font-size="20" lengthAdjust="spacing" textLength="36" x="1118.5" y="633.4082">day</text></g><!--link PO to Announcement--><g id="link_PO_Announcement"><path codeLine="84" d="M169.29,466.27 C223.02,466.11 293.42,465.9 346.91,465.74 " fill="none" id="PO-Announcement" style="stroke:#4169E1;stroke-width:1.0;"/><polygon fill="#000000" points="225,453.1168,210.5139,448.4577,210.5419,457.8622,225,453.1168" style="stroke:#000000;stroke-width:1.0;"/><text fill="#000000" font-family="sans-serif" font-size="20" lengthAdjust="spacing" textLength="76" x="230" y="460.0645">request</text><text fill="#000000" font-family="sans-serif" font-size="20" lengthAdjust="spacing" textLength="13" x="177.1088" y="485.8382">1</text><text fill="#000000" font-family="sans-serif" font-size="20" lengthAdjust="spacing" textLength="35" x="304.1333" y="485.2574">1..*</text></g><!--link Announcement to Property--><g id="link_Announcement_Property"><path codeLine="86" d="M507.04,432.69 C542.03,418.16 584.18,400.67 623.85,384.2 " fill="none" id="Announcement-Property" style="stroke:#4169E1;stroke-width:1.0;"/><polygon fill="#000000" points="552.3887,381.0735,537.2196,382.2791,540.8253,390.965,552.3887,381.0735" style="stroke:#000000;stroke-width:1.0;"/><text fill="#000000" font-family="sans-serif" font-size="20" lengthAdjust="spacing" textLength="35" x="558" y="391.0645">has</text><text fill="#000000" font-family="sans-serif" font-size="20" lengthAdjust="spacing" textLength="13" x="515.0179" y="449.3101">1</text><text fill="#000000" font-family="sans-serif" font-size="20" lengthAdjust="spacing" textLength="13" x="603.1035" y="406.436">1</text></g><!--link Agent to Announcement--><g id="link_Agent_Announcement"><path codeLine="89" d="M121.33,395.29 C165.74,402.13 247.96,415.75 317,432.5 C326.7,434.86 336.82,437.57 346.81,440.4 " fill="none" id="Agent-Announcement" style="stroke:#4169E1;stroke-width:1.0;"/><polygon fill="#000000" points="214.8446,396.71,201.5761,389.26,199.7312,398.4819,214.8446,396.71" style="stroke:#000000;stroke-width:1.0;"/><text fill="#000000" font-family="sans-serif" font-size="20" lengthAdjust="spacing" textLength="96" x="220" y="402.0645">publishes</text><text fill="#000000" font-family="sans-serif" font-size="20" lengthAdjust="spacing" textLength="13" x="128.9226" y="416.9597">1</text><text fill="#000000" font-family="sans-serif" font-size="20" lengthAdjust="spacing" textLength="10" x="328.9565" y="457.7309">*</text></g><!--link Agent to Order--><g id="link_Agent_Order"><path codeLine="90" d="M121,398.36 C137.68,404.05 157.03,413.47 169,428.5 C207.55,476.94 151.52,524.79 199,564.5 C270.29,624.13 547.39,606.9 682.75,594.41 " fill="none" id="Agent-Order" style="stroke:#4169E1;stroke-width:1.0;"/><polygon fill="#000000" points="379.4468,588.5046,391.5612,597.7129,394.6601,588.8336,379.4468,588.5046" style="stroke:#000000;stroke-width:1.0;"/><text fill="#000000" font-family="sans-serif" font-size="20" lengthAdjust="spacing" textLength="74" x="400" y="598.0645">send to</text><text fill="#000000" font-family="sans-serif" font-size="20" lengthAdjust="spacing" textLength="13" x="129.1469" y="393.1737">1</text><text fill="#000000" font-family="sans-serif" font-size="20" lengthAdjust="spacing" textLength="10" x="665.0059" y="589.6665">*</text></g><!--link Client to Announcement--><g id="link_Client_Announcement"><path codeLine="93" d="M120.7,594.15 C171.99,572.54 274.67,529.27 346.73,498.9 " fill="none" id="Client-Announcement" style="stroke:#4169E1;stroke-width:1.0;"/><polygon fill="#000000" points="230.1278,501.2473,245.2902,499.9605,241.6382,491.294,230.1278,501.2473" style="stroke:#000000;stroke-width:1.0;"/><text fill="#000000" font-family="sans-serif" font-size="20" lengthAdjust="spacing" textLength="35" x="250.5" y="505.0645">has</text><text fill="#000000" font-family="sans-serif" font-size="20" lengthAdjust="spacing" textLength="13" x="128.4175" y="612.3502">1</text><text fill="#000000" font-family="sans-serif" font-size="20" lengthAdjust="spacing" textLength="10" x="328.8692" y="521.6238">*</text></g><!--link Client to Order--><g id="link_Client_Order"><path codeLine="94" d="M120.52,616.31 C190.27,634.64 362.95,673.67 507,654.5 C567.19,646.5 633.42,628.13 682.73,612.5 " fill="none" id="Client-Order" style="stroke:#4169E1;stroke-width:1.0;"/><polygon fill="#000000" points="393.9998,642.0864,379.4961,637.4823,379.5599,646.8867,393.9998,642.0864" style="stroke:#000000;stroke-width:1.0;"/><text fill="#000000" font-family="sans-serif" font-size="20" lengthAdjust="spacing" textLength="76" x="399" y="649.0645">request</text><text fill="#000000" font-family="sans-serif" font-size="20" lengthAdjust="spacing" textLength="13" x="128.5679" y="639.0634">1</text><text fill="#000000" font-family="sans-serif" font-size="20" lengthAdjust="spacing" textLength="35" x="639.9647" y="634.1997">1..*</text></g><!--link Property to Address--><g id="link_Property_Address"><path codeLine="97" d="M894.22,328.5 C962.36,328.5 1041.16,328.5 1091.5,328.5 " fill="none" id="Property-Address" style="stroke:#4169E1;stroke-width:1.0;"/><polygon fill="#000000" points="940,316.1406,925.5279,311.4383,925.5279,320.8429,940,316.1406" style="stroke:#000000;stroke-width:1.0;"/><text fill="#000000" font-family="sans-serif" font-size="20" lengthAdjust="spacing" textLength="35" x="945" y="323.0645">has</text><text fill="#000000" font-family="sans-serif" font-size="20" lengthAdjust="spacing" textLength="13" x="901.9703" y="347.6899">1</text><text fill="#000000" font-family="sans-serif" font-size="20" lengthAdjust="spacing" textLength="13" x="1070.5719" y="348.6014">1</text></g><!--link Announcement to Order--><g id="link_Announcement_Order"><path codeLine="100" d="M504.38,509.59 C515.15,515 526.23,520.14 537,524.5 C584.28,543.65 639.53,559.15 682.96,569.87 " fill="none" id="Announcement-Order" style="stroke:#4169E1;stroke-width:1.0;"/><polygon fill="#000000" points="537.4202,509.582,549.6283,518.6659,552.6361,509.7553,537.4202,509.582" style="stroke:#000000;stroke-width:1.0;"/><text fill="#000000" font-family="sans-serif" font-size="20" lengthAdjust="spacing" textLength="35" x="558" y="519.0645">has</text><text fill="#000000" font-family="sans-serif" font-size="20" lengthAdjust="spacing" textLength="13" x="501.3475" y="536.0026">1</text><text fill="#000000" font-family="sans-serif" font-size="20" lengthAdjust="spacing" textLength="13" x="662.0929" y="562.7876">1</text></g><!--link Property to Deal--><g id="link_Property_Deal"><path codeLine="101" d="M894.22,375.82 C959.45,398.81 1034.44,425.24 1084.89,443.02 " fill="none" id="Property-Deal" style="stroke:#4169E1;stroke-width:1.0;"/><polygon fill="#000000" points="939.5451,377.7998,927.4589,368.5544,924.3328,377.4242,939.5451,377.7998" style="stroke:#000000;stroke-width:1.0;"/><text fill="#000000" font-family="sans-serif" font-size="20" lengthAdjust="spacing" textLength="35" x="945" y="382.0645">has</text><text fill="#000000" font-family="sans-serif" font-size="20" lengthAdjust="spacing" textLength="13" x="901.9703" y="397.5978">1</text><text fill="#000000" font-family="sans-serif" font-size="20" lengthAdjust="spacing" textLength="13" x="1063.8938" y="460.5338">1</text></g><!--link Announcement to Date--><g id="link_Announcement_Date"><path codeLine="102" d="M507.32,476.56 C600.19,489.74 758.55,512.96 894,536.5 C932.82,543.25 942.36,545.79 981,553.5 C1020.27,561.34 1064.84,570.44 1097.28,577.09 " fill="none" id="Announcement-Date" style="stroke:#4169E1;stroke-width:1.0;"/><polygon fill="#000000" points="746.3863,482.4845,732.9097,475.418,731.3299,484.6889,746.3863,482.4845" style="stroke:#000000;stroke-width:1.0;"/><text fill="#000000" font-family="sans-serif" font-size="20" lengthAdjust="spacing" textLength="35" x="751.5" y="488.0645">has</text><text fill="#000000" font-family="sans-serif" font-size="20" lengthAdjust="spacing" textLength="13" x="515.0524" y="497.1532">1</text><text fill="#000000" font-family="sans-serif" font-size="20" lengthAdjust="spacing" textLength="13" x="1076.4633" y="595.9729">1</text></g><!--reverse link Deal to Sale--><g id="link_Deal_Sale"><path codeLine="105" d="M1216.21,451.25 C1267.74,442.39 1337.42,430.4 1390.8,421.22 " fill="none" id="Deal-backto-Sale" style="stroke:#4169E1;stroke-width:1.0;"/><polygon fill="#4169E1" points="1203.19,453.49,1209.7835,456.4099,1215.0148,451.4467,1208.4213,448.5268,1203.19,453.49" style="stroke:#4169E1;stroke-width:1.0;"/></g><!--reverse link Deal to Rent--><g id="link_Deal_Rent"><path codeLine="106" d="M1216.06,475.73 C1262.02,483.64 1322.48,494.04 1372.92,502.72 " fill="none" id="Deal-backto-Rent" style="stroke:#4169E1;stroke-width:1.0;"/><polygon fill="#4169E1" points="1203.19,473.52,1208.4204,478.4842,1215.0144,475.5655,1209.784,470.6013,1203.19,473.52" style="stroke:#4169E1;stroke-width:1.0;"/></g><!--link Order to Date--><g id="link_Order_Date"><path codeLine="109" d="M835.21,586.5 C913.2,586.5 1032.61,586.5 1097.38,586.5 " fill="none" id="Order-Date" style="stroke:#4169E1;stroke-width:1.0;"/><polygon fill="#000000" points="940,574.1406,925.5279,569.4383,925.5279,578.8429,940,574.1406" style="stroke:#000000;stroke-width:1.0;"/><text fill="#000000" font-family="sans-serif" font-size="20" lengthAdjust="spacing" textLength="35" x="945" y="581.0645">has</text><text fill="#000000" font-family="sans-serif" font-size="20" lengthAdjust="spacing" textLength="13" x="843.0933" y="606.1948">1</text><text fill="#000000" font-family="sans-serif" font-size="20" lengthAdjust="spacing" textLength="13" x="1076.578" y="580.3869">1</text></g><!--reverse link Property to Land--><g id="link_Property_Land"><path codeLine="111" d="M913.37,275.31 C945.54,264.51 979.31,253.43 1011,243.5 C1047.3,232.14 1089.61,220.19 1116.35,212.79 " fill="none" id="Property-backto-Land" style="stroke:#4169E1;stroke-width:1.0;"/><polygon fill="none" points="915.31,282.05,894.12,281.81,910.83,268.78,915.31,282.05" style="stroke:#4169E1;stroke-width:1.0;"/><text fill="#000000" font-family="sans-serif" font-size="20" lengthAdjust="spacing" textLength="34" x="935.5" y="249.0645">is a</text></g><!--reverse link Property to Home--><g id="link_Property_Home"><path codeLine="112" d="M879.47,250.31 C894.44,240.58 909.56,230.79 924,221.5 C960.64,197.93 1000.86,172.32 1036.73,149.58 " fill="none" id="Property-backto-Home" style="stroke:#4169E1;stroke-width:1.0;"/><polygon fill="none" points="883.25,256.2,862.67,261.24,875.61,244.47,883.25,256.2" style="stroke:#4169E1;stroke-width:1.0;"/><text fill="#000000" font-family="sans-serif" font-size="20" lengthAdjust="spacing" textLength="34" x="935.5" y="182.0645">is a</text></g><!--reverse link Home to Apartment--><g id="link_Home_Apartment"><path codeLine="113" d="M1297.12,56.8 C1338.87,49.75 1381.56,42.53 1414.13,37.03 " fill="none" id="Home-backto-Apartment" style="stroke:#4169E1;stroke-width:1.0;"/><polygon fill="none" points="1298.28,63.7,1277.39,60.13,1295.95,49.9,1298.28,63.7" style="stroke:#4169E1;stroke-width:1.0;"/><text fill="#000000" font-family="sans-serif" font-size="20" lengthAdjust="spacing" textLength="34" x="1308" y="45.0645">is a</text></g><!--reverse link Home to House--><g id="link_Home_House"><path codeLine="114" d="M1297.36,108.72 C1326.36,113.71 1355.8,118.77 1381.99,123.28 " fill="none" id="Home-backto-House" style="stroke:#4169E1;stroke-width:1.0;"/><polygon fill="none" points="1295.92,115.57,1277.39,105.28,1298.29,101.77,1295.92,115.57" style="stroke:#4169E1;stroke-width:1.0;"/><text fill="#000000" font-family="sans-serif" font-size="20" lengthAdjust="spacing" textLength="34" x="1308" y="105.0645">is a</text></g><!--SRC=[ZLJDJkCm4BxxAQnUAY4LiNj42AaK42iXjMft7y2r9uc5OuUnisnPUFUTE76IfaLQ7rh7C_FDDx_-HTjAe2YDao-Wk89Cr2OyEXjs-Xtuzoiszqc7byuwMQ0hWGUiWGsIIiWNaSCk70nm11c4pSrOmHT2kJTjSvu9us6CQhI5SAY0Emo5OmQom8FZgFCYSAKRDEtis48QuVqo1DJxEi0FwMmaUyKAhO1BZP9ynti91Aayco_IUTJ4q1DFuj8_iWas_yiudJkAAaTNMxLonY7VW935fiwoA5qYkhTMi7K7OUuCfIIQELI0KyddY0ITZwKC3lt7Od8OQnaiSx0XVSmsw2h0SE3hDmiuuyBppJf9LqQJBd7-J2-zUXl7WZVvxQu2GNHNfJqLIi8ZbNIbms55C82Ti2fSSB-spmFgKrFuX6ZhSW-uplQWqBdIJvz5ACwzRmHIglCTDKnFwBVGHkmDFBpMkYgRi7kNpyAgFYDKe52EilBaQZyGsWiFKTf-Qbk8lGuDxhFBqgklxSEVolaQON2oj9PgBADr3wTLCWaYZ9JNJMrxBOJN6dpOe9PZGAKG-Yvg810WKP2Kw2FezlwkA-dK2EGUXEaH57tyR6hOYtV23B5NNRqdFBRZW9BETiWH3Kv08SDzZIBEsE2SYFMM1n2fAMW3X29n4eTfKtU7S6qxjVvKoER7pSmsQpxxDkEB1VrTNbxCZkjndNBCRzbyB657QZt2R6Z-QrxGdDmoiel357zxpLD7LRqtsXVGs9pejdM_vXwiQjOJlo7STl9ODu1V8pSyRgPgRR09TuXoI13hGnc5bvfh5Dt_P2NvQQcS0uuDbr2_WecDCRXkR5Wql225fYU7hzXeR1uTizRzLq3dccXH0DByvd1EDWHmGniqhWa2qvwBYIJkh4uIx_6rNoMdedQfTC__0000]--></g></svg>