<?xml version="1.0" encoding="UTF-8" standalone="no"?><svg xmlns="http://www.w3.org/2000/svg" xmlns:xlink="http://www.w3.org/1999/xlink" contentStyleType="text/css" height="2087px" preserveAspectRatio="none" style="width:2336px;height:2087px;background:#FFFFFF;" version="1.1" viewBox="0 0 2336 2087" width="2336px" zoomAndPan="magnify"><defs/><g><!--cluster ExternalLibraries.AuthLib-1.0--><g id="cluster_ExternalLibraries.AuthLib-1.0"><rect fill="none" height="975.5" rx="2.5" ry="2.5" style="stroke:#000000;stroke-width:1.5;" width="332" x="1996.5" y="795"/><text fill="#000000" font-family="sans-serif" font-size="20" font-weight="bold" lengthAdjust="spacing" textLength="275" x="2025" y="817.7617">ExternalLibraries.AuthLib-1.0</text></g><!--class UserStore--><g id="elem_UserStore"><rect codeLine="124" fill="#FFDAB9" height="51.1563" id="UserStore" rx="2.5" ry="2.5" style="stroke:#4169E1;stroke-width:0.5;" width="123" x="2049" y="1152.5"/><ellipse cx="2065" cy="1170.0781" fill="#ADD1B2" rx="12" ry="12" style="stroke:#181818;stroke-width:1.0;"/><path d="M2067.1406,1165 Q2067.3281,1164.75 2067.5469,1164.625 Q2067.7656,1164.4844 2068.0156,1164.4844 Q2068.4531,1164.4844 2068.7344,1164.7969 Q2069.0156,1165.0938 2069.0156,1165.8125 L2069.0156,1167.5156 Q2069.0156,1168.2344 2068.7344,1168.5469 Q2068.4531,1168.8594 2068.0156,1168.8594 Q2067.625,1168.8594 2067.375,1168.625 Q2067.125,1168.4063 2067.0156,1167.7969 Q2066.9531,1167.375 2066.7344,1167.1563 Q2066.3438,1166.7188 2065.625,1166.4531 Q2064.9063,1166.1875 2064.1875,1166.1875 Q2063.2813,1166.1875 2062.5313,1166.5781 Q2061.7813,1166.9688 2061.2031,1167.8594 Q2060.625,1168.7344 2060.625,1169.9375 L2060.625,1171.2344 Q2060.625,1172.6875 2061.6719,1173.6563 Q2062.7344,1174.625 2064.5938,1174.625 Q2065.7031,1174.625 2066.4844,1174.3125 Q2066.9219,1174.1406 2067.4375,1173.625 Q2067.75,1173.3125 2067.9219,1173.2188 Q2068.0938,1173.125 2068.3281,1173.125 Q2068.7188,1173.125 2069.0156,1173.4375 Q2069.3281,1173.7344 2069.3281,1174.1406 Q2069.3281,1174.5469 2068.9219,1175.0156 Q2068.3281,1175.7031 2067.3906,1176.0938 Q2066.125,1176.625 2064.6094,1176.625 Q2062.8281,1176.625 2061.4063,1175.8906 Q2060.25,1175.2969 2059.4375,1174.0313 Q2058.625,1172.7656 2058.625,1171.2813 L2058.625,1169.9219 Q2058.625,1168.3594 2059.3438,1167.0156 Q2060.0781,1165.6563 2061.3594,1164.9219 Q2062.6563,1164.1875 2064.1094,1164.1875 Q2064.9688,1164.1875 2065.7188,1164.3906 Q2066.4844,1164.5938 2067.1406,1165 Z " fill="#000000"/><text fill="#000000" font-family="sans-serif" font-size="20" lengthAdjust="spacing" textLength="89" x="2080" y="1178.2617">UserStore</text><line style="stroke:#4169E1;stroke-width:0.5;" x1="2050" x2="2171" y1="1187.6563" y2="1187.6563"/><line style="stroke:#4169E1;stroke-width:0.5;" x1="2050" x2="2171" y1="1195.6563" y2="1195.6563"/></g><!--class Store--><g id="elem_Store"><rect codeLine="127" fill="#FFDAB9" height="151.7813" id="Store" rx="2.5" ry="2.5" style="stroke:#4169E1;stroke-width:0.5;" width="198" x="2012.5" y="839"/><ellipse cx="2083" cy="856.5781" fill="#ADD1B2" rx="12" ry="12" style="stroke:#181818;stroke-width:1.0;"/><path d="M2085.1406,851.5 Q2085.3281,851.25 2085.5469,851.125 Q2085.7656,850.9844 2086.0156,850.9844 Q2086.4531,850.9844 2086.7344,851.2969 Q2087.0156,851.5938 2087.0156,852.3125 L2087.0156,854.0156 Q2087.0156,854.7344 2086.7344,855.0469 Q2086.4531,855.3594 2086.0156,855.3594 Q2085.625,855.3594 2085.375,855.125 Q2085.125,854.9063 2085.0156,854.2969 Q2084.9531,853.875 2084.7344,853.6563 Q2084.3438,853.2188 2083.625,852.9531 Q2082.9063,852.6875 2082.1875,852.6875 Q2081.2813,852.6875 2080.5313,853.0781 Q2079.7813,853.4688 2079.2031,854.3594 Q2078.625,855.2344 2078.625,856.4375 L2078.625,857.7344 Q2078.625,859.1875 2079.6719,860.1563 Q2080.7344,861.125 2082.5938,861.125 Q2083.7031,861.125 2084.4844,860.8125 Q2084.9219,860.6406 2085.4375,860.125 Q2085.75,859.8125 2085.9219,859.7188 Q2086.0938,859.625 2086.3281,859.625 Q2086.7188,859.625 2087.0156,859.9375 Q2087.3281,860.2344 2087.3281,860.6406 Q2087.3281,861.0469 2086.9219,861.5156 Q2086.3281,862.2031 2085.3906,862.5938 Q2084.125,863.125 2082.6094,863.125 Q2080.8281,863.125 2079.4063,862.3906 Q2078.25,861.7969 2077.4375,860.5313 Q2076.625,859.2656 2076.625,857.7813 L2076.625,856.4219 Q2076.625,854.8594 2077.3438,853.5156 Q2078.0781,852.1563 2079.3594,851.4219 Q2080.6563,850.6875 2082.1094,850.6875 Q2082.9688,850.6875 2083.7188,850.8906 Q2084.4844,851.0938 2085.1406,851.5 Z " fill="#000000"/><text fill="#000000" font-family="sans-serif" font-size="20" lengthAdjust="spacing" textLength="48" x="2105" y="864.7617">Store</text><line style="stroke:#4169E1;stroke-width:0.5;" x1="2013.5" x2="2209.5" y1="874.1563" y2="874.1563"/><line style="stroke:#4169E1;stroke-width:0.5;" x1="2013.5" x2="2209.5" y1="882.1563" y2="882.1563"/><rect fill="#F24D5C" height="6" style="stroke:#C82930;stroke-width:1.0;" width="6" x="2020.5" y="897.2344"/><text fill="#000000" font-family="sans-serif" font-size="20" lengthAdjust="spacing" textLength="72" x="2033.5" y="906.918">Stores()</text><rect fill="#F24D5C" height="6" style="stroke:#C82930;stroke-width:1.0;" width="6" x="2020.5" y="922.3906"/><text fill="#000000" font-family="sans-serif" font-size="20" lengthAdjust="spacing" textLength="116" x="2033.5" y="932.0742">getInstance()</text><rect fill="#F24D5C" height="6" style="stroke:#C82930;stroke-width:1.0;" width="6" x="2020.5" y="947.5469"/><text fill="#000000" font-family="sans-serif" font-size="20" lengthAdjust="spacing" textLength="131" x="2033.5" y="957.2305">getUserStore()</text><rect fill="#F24D5C" height="6" style="stroke:#C82930;stroke-width:1.0;" width="6" x="2020.5" y="972.7031"/><text fill="#000000" font-family="sans-serif" font-size="20" lengthAdjust="spacing" textLength="171" x="2033.5" y="982.3867">getUserRoelStore()</text></g><!--class User--><g id="elem_User"><rect codeLine="133" fill="#FFDAB9" height="151.7813" id="User" rx="2.5" ry="2.5" style="stroke:#4169E1;stroke-width:0.5;" width="192" x="2012.5" y="1402.5"/><ellipse cx="2083.5" cy="1420.0781" fill="#ADD1B2" rx="12" ry="12" style="stroke:#181818;stroke-width:1.0;"/><path d="M2085.6406,1415 Q2085.8281,1414.75 2086.0469,1414.625 Q2086.2656,1414.4844 2086.5156,1414.4844 Q2086.9531,1414.4844 2087.2344,1414.7969 Q2087.5156,1415.0938 2087.5156,1415.8125 L2087.5156,1417.5156 Q2087.5156,1418.2344 2087.2344,1418.5469 Q2086.9531,1418.8594 2086.5156,1418.8594 Q2086.125,1418.8594 2085.875,1418.625 Q2085.625,1418.4063 2085.5156,1417.7969 Q2085.4531,1417.375 2085.2344,1417.1563 Q2084.8438,1416.7188 2084.125,1416.4531 Q2083.4063,1416.1875 2082.6875,1416.1875 Q2081.7813,1416.1875 2081.0313,1416.5781 Q2080.2813,1416.9688 2079.7031,1417.8594 Q2079.125,1418.7344 2079.125,1419.9375 L2079.125,1421.2344 Q2079.125,1422.6875 2080.1719,1423.6563 Q2081.2344,1424.625 2083.0938,1424.625 Q2084.2031,1424.625 2084.9844,1424.3125 Q2085.4219,1424.1406 2085.9375,1423.625 Q2086.25,1423.3125 2086.4219,1423.2188 Q2086.5938,1423.125 2086.8281,1423.125 Q2087.2188,1423.125 2087.5156,1423.4375 Q2087.8281,1423.7344 2087.8281,1424.1406 Q2087.8281,1424.5469 2087.4219,1425.0156 Q2086.8281,1425.7031 2085.8906,1426.0938 Q2084.625,1426.625 2083.1094,1426.625 Q2081.3281,1426.625 2079.9063,1425.8906 Q2078.75,1425.2969 2077.9375,1424.0313 Q2077.125,1422.7656 2077.125,1421.2813 L2077.125,1419.9219 Q2077.125,1418.3594 2077.8438,1417.0156 Q2078.5781,1415.6563 2079.8594,1414.9219 Q2081.1563,1414.1875 2082.6094,1414.1875 Q2083.4688,1414.1875 2084.2188,1414.3906 Q2084.9844,1414.5938 2085.6406,1415 Z " fill="#000000"/><text fill="#000000" font-family="sans-serif" font-size="20" lengthAdjust="spacing" textLength="41" x="2105.5" y="1428.2617">User</text><line style="stroke:#4169E1;stroke-width:0.5;" x1="2013.5" x2="2203.5" y1="1437.6563" y2="1437.6563"/><rect fill="none" height="6" style="stroke:#C82930;stroke-width:1.0;" width="6" x="2020.5" y="1452.7344"/><text fill="#000000" font-family="sans-serif" font-size="20" lengthAdjust="spacing" textLength="46" x="2033.5" y="1462.418">email</text><rect fill="none" height="6" style="stroke:#C82930;stroke-width:1.0;" width="6" x="2020.5" y="1477.8906"/><text fill="#000000" font-family="sans-serif" font-size="20" lengthAdjust="spacing" textLength="86" x="2033.5" y="1487.5742">password</text><rect fill="none" height="6" style="stroke:#C82930;stroke-width:1.0;" width="6" x="2020.5" y="1503.0469"/><text fill="#000000" font-family="sans-serif" font-size="20" lengthAdjust="spacing" textLength="48" x="2033.5" y="1512.7305">name</text><rect fill="none" height="6" style="stroke:#C82930;stroke-width:1.0;" width="6" x="2020.5" y="1528.2031"/><text fill="#000000" font-family="sans-serif" font-size="20" lengthAdjust="spacing" textLength="165" x="2033.5" y="1537.8867">UserRole userRole</text><line style="stroke:#4169E1;stroke-width:0.5;" x1="2013.5" x2="2203.5" y1="1546.2813" y2="1546.2813"/></g><!--class UserRoleStore--><g id="elem_UserRoleStore"><rect codeLine="139" fill="#FFDAB9" height="51.1563" id="UserRoleStore" rx="2.5" ry="2.5" style="stroke:#4169E1;stroke-width:0.5;" width="163" x="2144" y="1321.5"/><ellipse cx="2160" cy="1339.0781" fill="#ADD1B2" rx="12" ry="12" style="stroke:#181818;stroke-width:1.0;"/><path d="M2162.1406,1334 Q2162.3281,1333.75 2162.5469,1333.625 Q2162.7656,1333.4844 2163.0156,1333.4844 Q2163.4531,1333.4844 2163.7344,1333.7969 Q2164.0156,1334.0938 2164.0156,1334.8125 L2164.0156,1336.5156 Q2164.0156,1337.2344 2163.7344,1337.5469 Q2163.4531,1337.8594 2163.0156,1337.8594 Q2162.625,1337.8594 2162.375,1337.625 Q2162.125,1337.4063 2162.0156,1336.7969 Q2161.9531,1336.375 2161.7344,1336.1563 Q2161.3438,1335.7188 2160.625,1335.4531 Q2159.9063,1335.1875 2159.1875,1335.1875 Q2158.2813,1335.1875 2157.5313,1335.5781 Q2156.7813,1335.9688 2156.2031,1336.8594 Q2155.625,1337.7344 2155.625,1338.9375 L2155.625,1340.2344 Q2155.625,1341.6875 2156.6719,1342.6563 Q2157.7344,1343.625 2159.5938,1343.625 Q2160.7031,1343.625 2161.4844,1343.3125 Q2161.9219,1343.1406 2162.4375,1342.625 Q2162.75,1342.3125 2162.9219,1342.2188 Q2163.0938,1342.125 2163.3281,1342.125 Q2163.7188,1342.125 2164.0156,1342.4375 Q2164.3281,1342.7344 2164.3281,1343.1406 Q2164.3281,1343.5469 2163.9219,1344.0156 Q2163.3281,1344.7031 2162.3906,1345.0938 Q2161.125,1345.625 2159.6094,1345.625 Q2157.8281,1345.625 2156.4063,1344.8906 Q2155.25,1344.2969 2154.4375,1343.0313 Q2153.625,1341.7656 2153.625,1340.2813 L2153.625,1338.9219 Q2153.625,1337.3594 2154.3438,1336.0156 Q2155.0781,1334.6563 2156.3594,1333.9219 Q2157.6563,1333.1875 2159.1094,1333.1875 Q2159.9688,1333.1875 2160.7188,1333.3906 Q2161.4844,1333.5938 2162.1406,1334 Z " fill="#000000"/><text fill="#000000" font-family="sans-serif" font-size="20" lengthAdjust="spacing" textLength="129" x="2175" y="1347.2617">UserRoleStore</text><line style="stroke:#4169E1;stroke-width:0.5;" x1="2145" x2="2306" y1="1356.6563" y2="1356.6563"/><line style="stroke:#4169E1;stroke-width:0.5;" x1="2145" x2="2306" y1="1364.6563" y2="1364.6563"/></g><!--class UserRole--><g id="elem_UserRole"><rect codeLine="142" fill="#FFDAB9" height="101.4688" id="UserRole" rx="2.5" ry="2.5" style="stroke:#4169E1;stroke-width:0.5;" width="122" x="2113.5" y="1653.5"/><ellipse cx="2132.65" cy="1671.0781" fill="#ADD1B2" rx="12" ry="12" style="stroke:#181818;stroke-width:1.0;"/><path d="M2134.7906,1666 Q2134.9781,1665.75 2135.1969,1665.625 Q2135.4156,1665.4844 2135.6656,1665.4844 Q2136.1031,1665.4844 2136.3844,1665.7969 Q2136.6656,1666.0938 2136.6656,1666.8125 L2136.6656,1668.5156 Q2136.6656,1669.2344 2136.3844,1669.5469 Q2136.1031,1669.8594 2135.6656,1669.8594 Q2135.275,1669.8594 2135.025,1669.625 Q2134.775,1669.4063 2134.6656,1668.7969 Q2134.6031,1668.375 2134.3844,1668.1563 Q2133.9938,1667.7188 2133.275,1667.4531 Q2132.5563,1667.1875 2131.8375,1667.1875 Q2130.9313,1667.1875 2130.1813,1667.5781 Q2129.4313,1667.9688 2128.8531,1668.8594 Q2128.275,1669.7344 2128.275,1670.9375 L2128.275,1672.2344 Q2128.275,1673.6875 2129.3219,1674.6563 Q2130.3844,1675.625 2132.2438,1675.625 Q2133.3531,1675.625 2134.1344,1675.3125 Q2134.5719,1675.1406 2135.0875,1674.625 Q2135.4,1674.3125 2135.5719,1674.2188 Q2135.7438,1674.125 2135.9781,1674.125 Q2136.3688,1674.125 2136.6656,1674.4375 Q2136.9781,1674.7344 2136.9781,1675.1406 Q2136.9781,1675.5469 2136.5719,1676.0156 Q2135.9781,1676.7031 2135.0406,1677.0938 Q2133.775,1677.625 2132.2594,1677.625 Q2130.4781,1677.625 2129.0563,1676.8906 Q2127.9,1676.2969 2127.0875,1675.0313 Q2126.275,1673.7656 2126.275,1672.2813 L2126.275,1670.9219 Q2126.275,1669.3594 2126.9938,1668.0156 Q2127.7281,1666.6563 2129.0094,1665.9219 Q2130.3063,1665.1875 2131.7594,1665.1875 Q2132.6188,1665.1875 2133.3688,1665.3906 Q2134.1344,1665.5938 2134.7906,1666 Z " fill="#000000"/><text fill="#000000" font-family="sans-serif" font-size="20" lengthAdjust="spacing" textLength="81" x="2148.35" y="1679.2617">UserRole</text><line style="stroke:#4169E1;stroke-width:0.5;" x1="2114.5" x2="2234.5" y1="1688.6563" y2="1688.6563"/><rect fill="none" height="6" style="stroke:#C82930;stroke-width:1.0;" width="6" x="2121.5" y="1703.7344"/><text fill="#000000" font-family="sans-serif" font-size="20" lengthAdjust="spacing" textLength="15" x="2134.5" y="1713.418">id</text><rect fill="none" height="6" style="stroke:#C82930;stroke-width:1.0;" width="6" x="2121.5" y="1728.8906"/><text fill="#000000" font-family="sans-serif" font-size="20" lengthAdjust="spacing" textLength="95" x="2134.5" y="1738.5742">description</text><line style="stroke:#4169E1;stroke-width:0.5;" x1="2114.5" x2="2234.5" y1="1746.9688" y2="1746.9688"/></g><!--class ListingRequestUI--><g id="elem_ListingRequestUI"><rect codeLine="17" fill="#FFDAB9" height="176.9375" id="ListingRequestUI" rx="2.5" ry="2.5" style="stroke:#4169E1;stroke-width:0.5;" width="257" x="1377" y="7"/><ellipse cx="1427" cy="24.5781" fill="#ADD1B2" rx="12" ry="12" style="stroke:#181818;stroke-width:1.0;"/><path d="M1429.1406,19.5 Q1429.3281,19.25 1429.5469,19.125 Q1429.7656,18.9844 1430.0156,18.9844 Q1430.4531,18.9844 1430.7344,19.2969 Q1431.0156,19.5938 1431.0156,20.3125 L1431.0156,22.0156 Q1431.0156,22.7344 1430.7344,23.0469 Q1430.4531,23.3594 1430.0156,23.3594 Q1429.625,23.3594 1429.375,23.125 Q1429.125,22.9063 1429.0156,22.2969 Q1428.9531,21.875 1428.7344,21.6563 Q1428.3438,21.2188 1427.625,20.9531 Q1426.9063,20.6875 1426.1875,20.6875 Q1425.2813,20.6875 1424.5313,21.0781 Q1423.7813,21.4688 1423.2031,22.3594 Q1422.625,23.2344 1422.625,24.4375 L1422.625,25.7344 Q1422.625,27.1875 1423.6719,28.1563 Q1424.7344,29.125 1426.5938,29.125 Q1427.7031,29.125 1428.4844,28.8125 Q1428.9219,28.6406 1429.4375,28.125 Q1429.75,27.8125 1429.9219,27.7188 Q1430.0938,27.625 1430.3281,27.625 Q1430.7188,27.625 1431.0156,27.9375 Q1431.3281,28.2344 1431.3281,28.6406 Q1431.3281,29.0469 1430.9219,29.5156 Q1430.3281,30.2031 1429.3906,30.5938 Q1428.125,31.125 1426.6094,31.125 Q1424.8281,31.125 1423.4063,30.3906 Q1422.25,29.7969 1421.4375,28.5313 Q1420.625,27.2656 1420.625,25.7813 L1420.625,24.4219 Q1420.625,22.8594 1421.3438,21.5156 Q1422.0781,20.1563 1423.3594,19.4219 Q1424.6563,18.6875 1426.1094,18.6875 Q1426.9688,18.6875 1427.7188,18.8906 Q1428.4844,19.0938 1429.1406,19.5 Z " fill="#000000"/><text fill="#000000" font-family="sans-serif" font-size="20" lengthAdjust="spacing" textLength="148" x="1449" y="32.7617">ListingRequestUI</text><line style="stroke:#4169E1;stroke-width:0.5;" x1="1378" x2="1633" y1="42.1563" y2="42.1563"/><line style="stroke:#4169E1;stroke-width:0.5;" x1="1378" x2="1633" y1="50.1563" y2="50.1563"/><ellipse cx="1388" cy="68.2344" fill="#84BE84" rx="3" ry="3" style="stroke:#038048;stroke-width:1.0;"/><text fill="#000000" font-family="sans-serif" font-size="20" lengthAdjust="spacing" textLength="230" x="1398" y="74.918">displaySuccessMessage()</text><ellipse cx="1388" cy="93.3906" fill="#84BE84" rx="3" ry="3" style="stroke:#038048;stroke-width:1.0;"/><text fill="#000000" font-family="sans-serif" font-size="20" lengthAdjust="spacing" textLength="110" x="1398" y="100.0742">createDeal()</text><ellipse cx="1388" cy="118.5469" fill="#84BE84" rx="3" ry="3" style="stroke:#038048;stroke-width:1.0;"/><text fill="#000000" font-family="sans-serif" font-size="20" lengthAdjust="spacing" textLength="57" x="1398" y="125.2305">Land()</text><ellipse cx="1388" cy="143.7031" fill="#84BE84" rx="3" ry="3" style="stroke:#038048;stroke-width:1.0;"/><text fill="#000000" font-family="sans-serif" font-size="20" lengthAdjust="spacing" textLength="69" x="1398" y="150.3867">House()</text><ellipse cx="1388" cy="168.8594" fill="#84BE84" rx="3" ry="3" style="stroke:#038048;stroke-width:1.0;"/><text fill="#000000" font-family="sans-serif" font-size="20" lengthAdjust="spacing" textLength="116" x="1398" y="175.543">Apartement()</text></g><!--class ListingRequestController--><g id="elem_ListingRequestController"><rect codeLine="24" fill="#FFDAB9" height="126.625" id="ListingRequestController" rx="2.5" ry="2.5" style="stroke:#4169E1;stroke-width:0.5;" width="547" x="1232" y="245"/><ellipse cx="1394" cy="262.5781" fill="#ADD1B2" rx="12" ry="12" style="stroke:#181818;stroke-width:1.0;"/><path d="M1396.1406,257.5 Q1396.3281,257.25 1396.5469,257.125 Q1396.7656,256.9844 1397.0156,256.9844 Q1397.4531,256.9844 1397.7344,257.2969 Q1398.0156,257.5938 1398.0156,258.3125 L1398.0156,260.0156 Q1398.0156,260.7344 1397.7344,261.0469 Q1397.4531,261.3594 1397.0156,261.3594 Q1396.625,261.3594 1396.375,261.125 Q1396.125,260.9063 1396.0156,260.2969 Q1395.9531,259.875 1395.7344,259.6563 Q1395.3438,259.2188 1394.625,258.9531 Q1393.9063,258.6875 1393.1875,258.6875 Q1392.2813,258.6875 1391.5313,259.0781 Q1390.7813,259.4688 1390.2031,260.3594 Q1389.625,261.2344 1389.625,262.4375 L1389.625,263.7344 Q1389.625,265.1875 1390.6719,266.1563 Q1391.7344,267.125 1393.5938,267.125 Q1394.7031,267.125 1395.4844,266.8125 Q1395.9219,266.6406 1396.4375,266.125 Q1396.75,265.8125 1396.9219,265.7188 Q1397.0938,265.625 1397.3281,265.625 Q1397.7188,265.625 1398.0156,265.9375 Q1398.3281,266.2344 1398.3281,266.6406 Q1398.3281,267.0469 1397.9219,267.5156 Q1397.3281,268.2031 1396.3906,268.5938 Q1395.125,269.125 1393.6094,269.125 Q1391.8281,269.125 1390.4063,268.3906 Q1389.25,267.7969 1388.4375,266.5313 Q1387.625,265.2656 1387.625,263.7813 L1387.625,262.4219 Q1387.625,260.8594 1388.3438,259.5156 Q1389.0781,258.1563 1390.3594,257.4219 Q1391.6563,256.6875 1393.1094,256.6875 Q1393.9688,256.6875 1394.7188,256.8906 Q1395.4844,257.0938 1396.1406,257.5 Z " fill="#000000"/><text fill="#000000" font-family="sans-serif" font-size="20" lengthAdjust="spacing" textLength="214" x="1416" y="270.7617">ListingRequestController</text><line style="stroke:#4169E1;stroke-width:0.5;" x1="1233" x2="1778" y1="280.1563" y2="280.1563"/><line style="stroke:#4169E1;stroke-width:0.5;" x1="1233" x2="1778" y1="288.1563" y2="288.1563"/><ellipse cx="1243" cy="306.2344" fill="#84BE84" rx="3" ry="3" style="stroke:#038048;stroke-width:1.0;"/><text fill="#000000" font-family="sans-serif" font-size="20" lengthAdjust="spacing" textLength="406" x="1253" y="312.918">displayEmployeeList(agents: List&lt;Employee&gt;)</text><ellipse cx="1243" cy="331.3906" fill="#84BE84" rx="3" ry="3" style="stroke:#038048;stroke-width:1.0;"/><text fill="#000000" font-family="sans-serif" font-size="20" lengthAdjust="spacing" textLength="439" x="1253" y="338.0742">submitProperty(deal, property, person, employee)</text><ellipse cx="1243" cy="356.5469" fill="#84BE84" rx="3" ry="3" style="stroke:#038048;stroke-width:1.0;"/><text fill="#000000" font-family="sans-serif" font-size="20" lengthAdjust="spacing" textLength="520" x="1253" y="363.2305">randomAgent(List&lt;Employee&gt; employees, Agency agency)</text></g><!--class Property--><g id="elem_Property"><rect codeLine="29" fill="#FFDAB9" height="227.25" id="Property" rx="2.5" ry="2.5" style="stroke:#4169E1;stroke-width:0.5;" width="649" x="7" y="1064.5"/><ellipse cx="289.5" cy="1082.0781" fill="#A9DCDF" rx="12" ry="12" style="stroke:#181818;stroke-width:1.0;"/><path d="M291.9531,1084.1094 L287.0781,1084.1094 L286.5938,1085.3281 L287.0781,1085.3281 Q287.8125,1085.3281 288.1094,1085.6094 Q288.4219,1085.875 288.4219,1086.3281 Q288.4219,1086.7656 288.1094,1087.0469 Q287.8125,1087.3281 287.0781,1087.3281 L284.3906,1087.3281 Q283.6719,1087.3281 283.3594,1087.0469 Q283.0469,1086.7656 283.0469,1086.3281 Q283.0469,1085.875 283.375,1085.5938 Q283.7031,1085.3125 284.4375,1085.3281 L287.5781,1077.5 L286.2813,1077.5 Q285.5469,1077.5 285.2344,1077.2188 Q284.9375,1076.9375 284.9375,1076.4844 Q284.9375,1076.0313 285.2344,1075.7656 Q285.5469,1075.4844 286.2813,1075.4844 L290.5938,1075.4844 L294.5781,1085.3281 Q295.2813,1085.3281 295.5156,1085.4844 Q295.9688,1085.7969 295.9688,1086.3281 Q295.9688,1086.7656 295.6563,1087.0469 Q295.3594,1087.3281 294.6406,1087.3281 L291.9375,1087.3281 Q291.2188,1087.3281 290.9063,1087.0469 Q290.5938,1086.7656 290.5938,1086.3281 Q290.5938,1085.875 290.9063,1085.6094 Q291.2188,1085.3281 291.9375,1085.3281 L292.4219,1085.3281 L291.9531,1084.1094 Z M291.125,1082.1094 L289.5,1078.1406 L287.8906,1082.1094 L291.125,1082.1094 Z " fill="#000000"/><text fill="#000000" font-family="sans-serif" font-size="20" font-style="italic" lengthAdjust="spacing" textLength="75" x="311.5" y="1090.2617">Property</text><line style="stroke:#4169E1;stroke-width:0.5;" x1="8" x2="655" y1="1099.6563" y2="1099.6563"/><rect fill="none" height="6" style="stroke:#C82930;stroke-width:1.0;" width="6" x="15" y="1114.7344"/><text fill="#000000" font-family="sans-serif" font-size="20" lengthAdjust="spacing" textLength="148" x="28" y="1124.418">double areaInM2</text><rect fill="none" height="6" style="stroke:#C82930;stroke-width:1.0;" width="6" x="15" y="1139.8906"/><text fill="#000000" font-family="sans-serif" font-size="20" lengthAdjust="spacing" textLength="276" x="28" y="1149.5742">double distanceFromCityCentre</text><rect fill="none" height="6" style="stroke:#C82930;stroke-width:1.0;" width="6" x="15" y="1165.0469"/><text fill="#000000" font-family="sans-serif" font-size="20" lengthAdjust="spacing" textLength="253" x="28" y="1174.7305">ArrayList &lt;String&gt; photoURL</text><rect fill="none" height="6" style="stroke:#C82930;stroke-width:1.0;" width="6" x="15" y="1190.2031"/><text fill="#000000" font-family="sans-serif" font-size="20" lengthAdjust="spacing" textLength="171" x="28" y="1199.8867">String typeProperty</text><rect fill="none" height="6" style="stroke:#C82930;stroke-width:1.0;" width="6" x="15" y="1215.3594"/><text fill="#000000" font-family="sans-serif" font-size="20" lengthAdjust="spacing" textLength="152" x="28" y="1225.043">Address Address</text><line style="stroke:#4169E1;stroke-width:0.5;" x1="8" x2="655" y1="1233.4375" y2="1233.4375"/><ellipse cx="18" cy="1251.5156" fill="#84BE84" rx="3" ry="3" style="stroke:#038048;stroke-width:1.0;"/><text fill="#000000" font-family="sans-serif" font-size="20" lengthAdjust="spacing" textLength="622" x="28" y="1258.1992">Property(areaInM2, distanceFromCityCentre, photoURL, typeProperty,</text><text fill="#000000" font-family="sans-serif" font-size="20" lengthAdjust="spacing" textLength="213" x="28" y="1283.3555">Address, Housing, Deal)</text></g><!--class Home--><g id="elem_Home"><rect codeLine="38" fill="#FFDAB9" height="151.7813" id="Home" rx="2.5" ry="2.5" style="stroke:#4169E1;stroke-width:0.5;" width="361" x="316" y="1402.5"/><ellipse cx="465.5" cy="1420.0781" fill="#A9DCDF" rx="12" ry="12" style="stroke:#181818;stroke-width:1.0;"/><path d="M467.9531,1422.1094 L463.0781,1422.1094 L462.5938,1423.3281 L463.0781,1423.3281 Q463.8125,1423.3281 464.1094,1423.6094 Q464.4219,1423.875 464.4219,1424.3281 Q464.4219,1424.7656 464.1094,1425.0469 Q463.8125,1425.3281 463.0781,1425.3281 L460.3906,1425.3281 Q459.6719,1425.3281 459.3594,1425.0469 Q459.0469,1424.7656 459.0469,1424.3281 Q459.0469,1423.875 459.375,1423.5938 Q459.7031,1423.3125 460.4375,1423.3281 L463.5781,1415.5 L462.2813,1415.5 Q461.5469,1415.5 461.2344,1415.2188 Q460.9375,1414.9375 460.9375,1414.4844 Q460.9375,1414.0313 461.2344,1413.7656 Q461.5469,1413.4844 462.2813,1413.4844 L466.5938,1413.4844 L470.5781,1423.3281 Q471.2813,1423.3281 471.5156,1423.4844 Q471.9688,1423.7969 471.9688,1424.3281 Q471.9688,1424.7656 471.6563,1425.0469 Q471.3594,1425.3281 470.6406,1425.3281 L467.9375,1425.3281 Q467.2188,1425.3281 466.9063,1425.0469 Q466.5938,1424.7656 466.5938,1424.3281 Q466.5938,1423.875 466.9063,1423.6094 Q467.2188,1423.3281 467.9375,1423.3281 L468.4219,1423.3281 L467.9531,1422.1094 Z M467.125,1420.1094 L465.5,1416.1406 L463.8906,1420.1094 L467.125,1420.1094 Z " fill="#000000"/><text fill="#000000" font-family="sans-serif" font-size="20" font-style="italic" lengthAdjust="spacing" textLength="53" x="487.5" y="1428.2617">Home</text><line style="stroke:#4169E1;stroke-width:0.5;" x1="317" x2="676" y1="1437.6563" y2="1437.6563"/><rect fill="none" height="6" style="stroke:#C82930;stroke-width:1.0;" width="6" x="324" y="1452.7344"/><text fill="#000000" font-family="sans-serif" font-size="20" lengthAdjust="spacing" textLength="203" x="337" y="1462.418">int numberOfBedrooms</text><rect fill="none" height="6" style="stroke:#C82930;stroke-width:1.0;" width="6" x="324" y="1477.8906"/><text fill="#000000" font-family="sans-serif" font-size="20" lengthAdjust="spacing" textLength="208" x="337" y="1487.5742">int numberOfBathrooms</text><rect fill="none" height="6" style="stroke:#C82930;stroke-width:1.0;" width="6" x="324" y="1503.0469"/><text fill="#000000" font-family="sans-serif" font-size="20" lengthAdjust="spacing" textLength="235" x="337" y="1512.7305">int numberOfParkingSpace</text><rect fill="none" height="6" style="stroke:#C82930;stroke-width:1.0;" width="6" x="324" y="1528.2031"/><text fill="#000000" font-family="sans-serif" font-size="20" lengthAdjust="spacing" textLength="334" x="337" y="1537.8867">ArrayList &lt;String&gt; availableEquipment</text><line style="stroke:#4169E1;stroke-width:0.5;" x1="317" x2="676" y1="1546.2813" y2="1546.2813"/></g><!--class House--><g id="elem_House"><rect codeLine="44" fill="#FFDAB9" height="126.625" id="House" rx="2.5" ry="2.5" style="stroke:#4169E1;stroke-width:0.5;" width="229" x="349" y="1640.5"/><ellipse cx="431.5" cy="1658.0781" fill="#ADD1B2" rx="12" ry="12" style="stroke:#181818;stroke-width:1.0;"/><path d="M433.6406,1653 Q433.8281,1652.75 434.0469,1652.625 Q434.2656,1652.4844 434.5156,1652.4844 Q434.9531,1652.4844 435.2344,1652.7969 Q435.5156,1653.0938 435.5156,1653.8125 L435.5156,1655.5156 Q435.5156,1656.2344 435.2344,1656.5469 Q434.9531,1656.8594 434.5156,1656.8594 Q434.125,1656.8594 433.875,1656.625 Q433.625,1656.4063 433.5156,1655.7969 Q433.4531,1655.375 433.2344,1655.1563 Q432.8438,1654.7188 432.125,1654.4531 Q431.4063,1654.1875 430.6875,1654.1875 Q429.7813,1654.1875 429.0313,1654.5781 Q428.2813,1654.9688 427.7031,1655.8594 Q427.125,1656.7344 427.125,1657.9375 L427.125,1659.2344 Q427.125,1660.6875 428.1719,1661.6563 Q429.2344,1662.625 431.0938,1662.625 Q432.2031,1662.625 432.9844,1662.3125 Q433.4219,1662.1406 433.9375,1661.625 Q434.25,1661.3125 434.4219,1661.2188 Q434.5938,1661.125 434.8281,1661.125 Q435.2188,1661.125 435.5156,1661.4375 Q435.8281,1661.7344 435.8281,1662.1406 Q435.8281,1662.5469 435.4219,1663.0156 Q434.8281,1663.7031 433.8906,1664.0938 Q432.625,1664.625 431.1094,1664.625 Q429.3281,1664.625 427.9063,1663.8906 Q426.75,1663.2969 425.9375,1662.0313 Q425.125,1660.7656 425.125,1659.2813 L425.125,1657.9219 Q425.125,1656.3594 425.8438,1655.0156 Q426.5781,1653.6563 427.8594,1652.9219 Q429.1563,1652.1875 430.6094,1652.1875 Q431.4688,1652.1875 432.2188,1652.3906 Q432.9844,1652.5938 433.6406,1653 Z " fill="#000000"/><text fill="#000000" font-family="sans-serif" font-size="20" lengthAdjust="spacing" textLength="55" x="453.5" y="1666.2617">House</text><line style="stroke:#4169E1;stroke-width:0.5;" x1="350" x2="577" y1="1675.6563" y2="1675.6563"/><rect fill="none" height="6" style="stroke:#C82930;stroke-width:1.0;" width="6" x="357" y="1690.7344"/><text fill="#000000" font-family="sans-serif" font-size="20" lengthAdjust="spacing" textLength="161" x="370" y="1700.418">boolean basement</text><rect fill="none" height="6" style="stroke:#C82930;stroke-width:1.0;" width="6" x="357" y="1715.8906"/><text fill="#000000" font-family="sans-serif" font-size="20" lengthAdjust="spacing" textLength="202" x="370" y="1725.5742">boolean inhabitableLoft</text><rect fill="none" height="6" style="stroke:#C82930;stroke-width:1.0;" width="6" x="357" y="1741.0469"/><text fill="#000000" font-family="sans-serif" font-size="20" lengthAdjust="spacing" textLength="169" x="370" y="1750.7305">String sunExposure</text><line style="stroke:#4169E1;stroke-width:0.5;" x1="350" x2="577" y1="1759.125" y2="1759.125"/></g><!--class Apartement--><g id="elem_Apartement"><rect codeLine="49" fill="#FFDAB9" height="51.1563" id="Apartement" rx="2.5" ry="2.5" style="stroke:#4169E1;stroke-width:0.5;" width="136" x="613.5" y="1678.5"/><ellipse cx="629.5" cy="1696.0781" fill="#ADD1B2" rx="12" ry="12" style="stroke:#181818;stroke-width:1.0;"/><path d="M631.6406,1691 Q631.8281,1690.75 632.0469,1690.625 Q632.2656,1690.4844 632.5156,1690.4844 Q632.9531,1690.4844 633.2344,1690.7969 Q633.5156,1691.0938 633.5156,1691.8125 L633.5156,1693.5156 Q633.5156,1694.2344 633.2344,1694.5469 Q632.9531,1694.8594 632.5156,1694.8594 Q632.125,1694.8594 631.875,1694.625 Q631.625,1694.4063 631.5156,1693.7969 Q631.4531,1693.375 631.2344,1693.1563 Q630.8438,1692.7188 630.125,1692.4531 Q629.4063,1692.1875 628.6875,1692.1875 Q627.7813,1692.1875 627.0313,1692.5781 Q626.2813,1692.9688 625.7031,1693.8594 Q625.125,1694.7344 625.125,1695.9375 L625.125,1697.2344 Q625.125,1698.6875 626.1719,1699.6563 Q627.2344,1700.625 629.0938,1700.625 Q630.2031,1700.625 630.9844,1700.3125 Q631.4219,1700.1406 631.9375,1699.625 Q632.25,1699.3125 632.4219,1699.2188 Q632.5938,1699.125 632.8281,1699.125 Q633.2188,1699.125 633.5156,1699.4375 Q633.8281,1699.7344 633.8281,1700.1406 Q633.8281,1700.5469 633.4219,1701.0156 Q632.8281,1701.7031 631.8906,1702.0938 Q630.625,1702.625 629.1094,1702.625 Q627.3281,1702.625 625.9063,1701.8906 Q624.75,1701.2969 623.9375,1700.0313 Q623.125,1698.7656 623.125,1697.2813 L623.125,1695.9219 Q623.125,1694.3594 623.8438,1693.0156 Q624.5781,1691.6563 625.8594,1690.9219 Q627.1563,1690.1875 628.6094,1690.1875 Q629.4688,1690.1875 630.2188,1690.3906 Q630.9844,1690.5938 631.6406,1691 Z " fill="#000000"/><text fill="#000000" font-family="sans-serif" font-size="20" lengthAdjust="spacing" textLength="102" x="644.5" y="1704.2617">Apartement</text><line style="stroke:#4169E1;stroke-width:0.5;" x1="614.5" x2="748.5" y1="1713.6563" y2="1713.6563"/><line style="stroke:#4169E1;stroke-width:0.5;" x1="614.5" x2="748.5" y1="1721.6563" y2="1721.6563"/></g><!--class Land--><g id="elem_Land"><rect codeLine="52" fill="#FFDAB9" height="51.1563" id="Land" rx="2.5" ry="2.5" style="stroke:#4169E1;stroke-width:0.5;" width="77" x="132" y="1453"/><ellipse cx="148" cy="1470.5781" fill="#ADD1B2" rx="12" ry="12" style="stroke:#181818;stroke-width:1.0;"/><path d="M150.1406,1465.5 Q150.3281,1465.25 150.5469,1465.125 Q150.7656,1464.9844 151.0156,1464.9844 Q151.4531,1464.9844 151.7344,1465.2969 Q152.0156,1465.5938 152.0156,1466.3125 L152.0156,1468.0156 Q152.0156,1468.7344 151.7344,1469.0469 Q151.4531,1469.3594 151.0156,1469.3594 Q150.625,1469.3594 150.375,1469.125 Q150.125,1468.9063 150.0156,1468.2969 Q149.9531,1467.875 149.7344,1467.6563 Q149.3438,1467.2188 148.625,1466.9531 Q147.9063,1466.6875 147.1875,1466.6875 Q146.2813,1466.6875 145.5313,1467.0781 Q144.7813,1467.4688 144.2031,1468.3594 Q143.625,1469.2344 143.625,1470.4375 L143.625,1471.7344 Q143.625,1473.1875 144.6719,1474.1563 Q145.7344,1475.125 147.5938,1475.125 Q148.7031,1475.125 149.4844,1474.8125 Q149.9219,1474.6406 150.4375,1474.125 Q150.75,1473.8125 150.9219,1473.7188 Q151.0938,1473.625 151.3281,1473.625 Q151.7188,1473.625 152.0156,1473.9375 Q152.3281,1474.2344 152.3281,1474.6406 Q152.3281,1475.0469 151.9219,1475.5156 Q151.3281,1476.2031 150.3906,1476.5938 Q149.125,1477.125 147.6094,1477.125 Q145.8281,1477.125 144.4063,1476.3906 Q143.25,1475.7969 142.4375,1474.5313 Q141.625,1473.2656 141.625,1471.7813 L141.625,1470.4219 Q141.625,1468.8594 142.3438,1467.5156 Q143.0781,1466.1563 144.3594,1465.4219 Q145.6563,1464.6875 147.1094,1464.6875 Q147.9688,1464.6875 148.7188,1464.8906 Q149.4844,1465.0938 150.1406,1465.5 Z " fill="#000000"/><text fill="#000000" font-family="sans-serif" font-size="20" lengthAdjust="spacing" textLength="43" x="163" y="1478.7617">Land</text><line style="stroke:#4169E1;stroke-width:0.5;" x1="133" x2="208" y1="1488.1563" y2="1488.1563"/><line style="stroke:#4169E1;stroke-width:0.5;" x1="133" x2="208" y1="1496.1563" y2="1496.1563"/></g><!--class Address--><g id="elem_Address"><rect codeLine="55" fill="#FFDAB9" height="227.25" id="Address" rx="2.5" ry="2.5" style="stroke:#4169E1;stroke-width:0.5;" width="556" x="1382.5" y="1853.5"/><ellipse cx="1619.5" cy="1871.0781" fill="#ADD1B2" rx="12" ry="12" style="stroke:#181818;stroke-width:1.0;"/><path d="M1621.6406,1866 Q1621.8281,1865.75 1622.0469,1865.625 Q1622.2656,1865.4844 1622.5156,1865.4844 Q1622.9531,1865.4844 1623.2344,1865.7969 Q1623.5156,1866.0938 1623.5156,1866.8125 L1623.5156,1868.5156 Q1623.5156,1869.2344 1623.2344,1869.5469 Q1622.9531,1869.8594 1622.5156,1869.8594 Q1622.125,1869.8594 1621.875,1869.625 Q1621.625,1869.4063 1621.5156,1868.7969 Q1621.4531,1868.375 1621.2344,1868.1563 Q1620.8438,1867.7188 1620.125,1867.4531 Q1619.4063,1867.1875 1618.6875,1867.1875 Q1617.7813,1867.1875 1617.0313,1867.5781 Q1616.2813,1867.9688 1615.7031,1868.8594 Q1615.125,1869.7344 1615.125,1870.9375 L1615.125,1872.2344 Q1615.125,1873.6875 1616.1719,1874.6563 Q1617.2344,1875.625 1619.0938,1875.625 Q1620.2031,1875.625 1620.9844,1875.3125 Q1621.4219,1875.1406 1621.9375,1874.625 Q1622.25,1874.3125 1622.4219,1874.2188 Q1622.5938,1874.125 1622.8281,1874.125 Q1623.2188,1874.125 1623.5156,1874.4375 Q1623.8281,1874.7344 1623.8281,1875.1406 Q1623.8281,1875.5469 1623.4219,1876.0156 Q1622.8281,1876.7031 1621.8906,1877.0938 Q1620.625,1877.625 1619.1094,1877.625 Q1617.3281,1877.625 1615.9063,1876.8906 Q1614.75,1876.2969 1613.9375,1875.0313 Q1613.125,1873.7656 1613.125,1872.2813 L1613.125,1870.9219 Q1613.125,1869.3594 1613.8438,1868.0156 Q1614.5781,1866.6563 1615.8594,1865.9219 Q1617.1563,1865.1875 1618.6094,1865.1875 Q1619.4688,1865.1875 1620.2188,1865.3906 Q1620.9844,1865.5938 1621.6406,1866 Z " fill="#000000"/><text fill="#000000" font-family="sans-serif" font-size="20" lengthAdjust="spacing" textLength="73" x="1641.5" y="1879.2617">Address</text><line style="stroke:#4169E1;stroke-width:0.5;" x1="1383.5" x2="1937.5" y1="1888.6563" y2="1888.6563"/><rect fill="none" height="6" style="stroke:#C82930;stroke-width:1.0;" width="6" x="1390.5" y="1903.7344"/><text fill="#000000" font-family="sans-serif" font-size="20" lengthAdjust="spacing" textLength="108" x="1403.5" y="1913.418">String street</text><rect fill="none" height="6" style="stroke:#C82930;stroke-width:1.0;" width="6" x="1390.5" y="1928.8906"/><text fill="#000000" font-family="sans-serif" font-size="20" lengthAdjust="spacing" textLength="87" x="1403.5" y="1938.5742">String city</text><rect fill="none" height="6" style="stroke:#C82930;stroke-width:1.0;" width="6" x="1390.5" y="1954.0469"/><text fill="#000000" font-family="sans-serif" font-size="20" lengthAdjust="spacing" textLength="101" x="1403.5" y="1963.7305">String state</text><rect fill="none" height="6" style="stroke:#C82930;stroke-width:1.0;" width="6" x="1390.5" y="1979.2031"/><text fill="#000000" font-family="sans-serif" font-size="20" lengthAdjust="spacing" textLength="93" x="1403.5" y="1988.8867">int zipcode</text><rect fill="none" height="6" style="stroke:#C82930;stroke-width:1.0;" width="6" x="1390.5" y="2004.3594"/><text fill="#000000" font-family="sans-serif" font-size="20" lengthAdjust="spacing" textLength="109" x="1403.5" y="2014.043">String distric</text><line style="stroke:#4169E1;stroke-width:0.5;" x1="1383.5" x2="1937.5" y1="2022.4375" y2="2022.4375"/><ellipse cx="1393.5" cy="2040.5156" fill="#84BE84" rx="3" ry="3" style="stroke:#038048;stroke-width:1.0;"/><text fill="#000000" font-family="sans-serif" font-size="20" lengthAdjust="spacing" textLength="528" x="1403.5" y="2047.1992">setAdress(String street, String city, String state, int zipcode)</text><ellipse cx="1393.5" cy="2065.6719" fill="#84BE84" rx="3" ry="3" style="stroke:#038048;stroke-width:1.0;"/><text fill="#000000" font-family="sans-serif" font-size="20" lengthAdjust="spacing" textLength="529" x="1403.5" y="2072.3555">getAdress(String street, String city, String state, int zipcode)</text></g><!--class Repositories--><g id="elem_Repositories"><rect codeLine="65" fill="#FFDAB9" height="176.9375" id="Repositories" rx="2.5" ry="2.5" style="stroke:#4169E1;stroke-width:0.5;" width="271" x="1486" y="459"/><ellipse cx="1562" cy="476.5781" fill="#ADD1B2" rx="12" ry="12" style="stroke:#181818;stroke-width:1.0;"/><path d="M1564.1406,471.5 Q1564.3281,471.25 1564.5469,471.125 Q1564.7656,470.9844 1565.0156,470.9844 Q1565.4531,470.9844 1565.7344,471.2969 Q1566.0156,471.5938 1566.0156,472.3125 L1566.0156,474.0156 Q1566.0156,474.7344 1565.7344,475.0469 Q1565.4531,475.3594 1565.0156,475.3594 Q1564.625,475.3594 1564.375,475.125 Q1564.125,474.9063 1564.0156,474.2969 Q1563.9531,473.875 1563.7344,473.6563 Q1563.3438,473.2188 1562.625,472.9531 Q1561.9063,472.6875 1561.1875,472.6875 Q1560.2813,472.6875 1559.5313,473.0781 Q1558.7813,473.4688 1558.2031,474.3594 Q1557.625,475.2344 1557.625,476.4375 L1557.625,477.7344 Q1557.625,479.1875 1558.6719,480.1563 Q1559.7344,481.125 1561.5938,481.125 Q1562.7031,481.125 1563.4844,480.8125 Q1563.9219,480.6406 1564.4375,480.125 Q1564.75,479.8125 1564.9219,479.7188 Q1565.0938,479.625 1565.3281,479.625 Q1565.7188,479.625 1566.0156,479.9375 Q1566.3281,480.2344 1566.3281,480.6406 Q1566.3281,481.0469 1565.9219,481.5156 Q1565.3281,482.2031 1564.3906,482.5938 Q1563.125,483.125 1561.6094,483.125 Q1559.8281,483.125 1558.4063,482.3906 Q1557.25,481.7969 1556.4375,480.5313 Q1555.625,479.2656 1555.625,477.7813 L1555.625,476.4219 Q1555.625,474.8594 1556.3438,473.5156 Q1557.0781,472.1563 1558.3594,471.4219 Q1559.6563,470.6875 1561.1094,470.6875 Q1561.9688,470.6875 1562.7188,470.8906 Q1563.4844,471.0938 1564.1406,471.5 Z " fill="#000000"/><text fill="#000000" font-family="sans-serif" font-size="20" lengthAdjust="spacing" textLength="110" x="1584" y="484.7617">Repositories</text><line style="stroke:#4169E1;stroke-width:0.5;" x1="1487" x2="1756" y1="494.1563" y2="494.1563"/><line style="stroke:#4169E1;stroke-width:0.5;" x1="1487" x2="1756" y1="502.1563" y2="502.1563"/><rect fill="#F24D5C" height="6" style="stroke:#C82930;stroke-width:1.0;" width="6" x="1494" y="517.2344"/><text fill="#000000" font-family="sans-serif" font-size="20" lengthAdjust="spacing" textLength="124" x="1507" y="526.918">Repositories()</text><ellipse cx="1497" cy="545.3906" fill="#84BE84" rx="3" ry="3" style="stroke:#038048;stroke-width:1.0;"/><text fill="#000000" font-family="sans-serif" font-size="20" lengthAdjust="spacing" textLength="244" x="1507" y="552.0742">getInstance() : Repositories</text><ellipse cx="1497" cy="570.5469" fill="#84BE84" rx="3" ry="3" style="stroke:#038048;stroke-width:1.0;"/><text fill="#000000" font-family="sans-serif" font-size="20" lengthAdjust="spacing" textLength="199" x="1507" y="577.2305">getPersonRepository()</text><ellipse cx="1497" cy="595.7031" fill="#84BE84" rx="3" ry="3" style="stroke:#038048;stroke-width:1.0;"/><text fill="#000000" font-family="sans-serif" font-size="20" lengthAdjust="spacing" textLength="210" x="1507" y="602.3867">getRequestRepository()</text><ellipse cx="1497" cy="620.8594" fill="#84BE84" rx="3" ry="3" style="stroke:#038048;stroke-width:1.0;"/><text fill="#000000" font-family="sans-serif" font-size="20" lengthAdjust="spacing" textLength="202" x="1507" y="627.543">getAgencyRepository()</text></g><!--class PersonRepository--><g id="elem_PersonRepository"><rect codeLine="72" fill="#FFDAB9" height="51.1563" id="PersonRepository" rx="2.5" ry="2.5" style="stroke:#4169E1;stroke-width:0.5;" width="191" x="1563" y="889.5"/><ellipse cx="1579" cy="907.0781" fill="#ADD1B2" rx="12" ry="12" style="stroke:#181818;stroke-width:1.0;"/><path d="M1581.1406,902 Q1581.3281,901.75 1581.5469,901.625 Q1581.7656,901.4844 1582.0156,901.4844 Q1582.4531,901.4844 1582.7344,901.7969 Q1583.0156,902.0938 1583.0156,902.8125 L1583.0156,904.5156 Q1583.0156,905.2344 1582.7344,905.5469 Q1582.4531,905.8594 1582.0156,905.8594 Q1581.625,905.8594 1581.375,905.625 Q1581.125,905.4063 1581.0156,904.7969 Q1580.9531,904.375 1580.7344,904.1563 Q1580.3438,903.7188 1579.625,903.4531 Q1578.9063,903.1875 1578.1875,903.1875 Q1577.2813,903.1875 1576.5313,903.5781 Q1575.7813,903.9688 1575.2031,904.8594 Q1574.625,905.7344 1574.625,906.9375 L1574.625,908.2344 Q1574.625,909.6875 1575.6719,910.6563 Q1576.7344,911.625 1578.5938,911.625 Q1579.7031,911.625 1580.4844,911.3125 Q1580.9219,911.1406 1581.4375,910.625 Q1581.75,910.3125 1581.9219,910.2188 Q1582.0938,910.125 1582.3281,910.125 Q1582.7188,910.125 1583.0156,910.4375 Q1583.3281,910.7344 1583.3281,911.1406 Q1583.3281,911.5469 1582.9219,912.0156 Q1582.3281,912.7031 1581.3906,913.0938 Q1580.125,913.625 1578.6094,913.625 Q1576.8281,913.625 1575.4063,912.8906 Q1574.25,912.2969 1573.4375,911.0313 Q1572.625,909.7656 1572.625,908.2813 L1572.625,906.9219 Q1572.625,905.3594 1573.3438,904.0156 Q1574.0781,902.6563 1575.3594,901.9219 Q1576.6563,901.1875 1578.1094,901.1875 Q1578.9688,901.1875 1579.7188,901.3906 Q1580.4844,901.5938 1581.1406,902 Z " fill="#000000"/><text fill="#000000" font-family="sans-serif" font-size="20" lengthAdjust="spacing" textLength="157" x="1594" y="915.2617">PersonRepository</text><line style="stroke:#4169E1;stroke-width:0.5;" x1="1564" x2="1753" y1="924.6563" y2="924.6563"/><line style="stroke:#4169E1;stroke-width:0.5;" x1="1564" x2="1753" y1="932.6563" y2="932.6563"/></g><!--class RequestRepository--><g id="elem_RequestRepository"><rect codeLine="75" fill="#FFDAB9" height="51.1563" id="RequestRepository" rx="2.5" ry="2.5" style="stroke:#4169E1;stroke-width:0.5;" width="202" x="1404.5" y="697"/><ellipse cx="1420.5" cy="714.5781" fill="#ADD1B2" rx="12" ry="12" style="stroke:#181818;stroke-width:1.0;"/><path d="M1422.6406,709.5 Q1422.8281,709.25 1423.0469,709.125 Q1423.2656,708.9844 1423.5156,708.9844 Q1423.9531,708.9844 1424.2344,709.2969 Q1424.5156,709.5938 1424.5156,710.3125 L1424.5156,712.0156 Q1424.5156,712.7344 1424.2344,713.0469 Q1423.9531,713.3594 1423.5156,713.3594 Q1423.125,713.3594 1422.875,713.125 Q1422.625,712.9063 1422.5156,712.2969 Q1422.4531,711.875 1422.2344,711.6563 Q1421.8438,711.2188 1421.125,710.9531 Q1420.4063,710.6875 1419.6875,710.6875 Q1418.7813,710.6875 1418.0313,711.0781 Q1417.2813,711.4688 1416.7031,712.3594 Q1416.125,713.2344 1416.125,714.4375 L1416.125,715.7344 Q1416.125,717.1875 1417.1719,718.1563 Q1418.2344,719.125 1420.0938,719.125 Q1421.2031,719.125 1421.9844,718.8125 Q1422.4219,718.6406 1422.9375,718.125 Q1423.25,717.8125 1423.4219,717.7188 Q1423.5938,717.625 1423.8281,717.625 Q1424.2188,717.625 1424.5156,717.9375 Q1424.8281,718.2344 1424.8281,718.6406 Q1424.8281,719.0469 1424.4219,719.5156 Q1423.8281,720.2031 1422.8906,720.5938 Q1421.625,721.125 1420.1094,721.125 Q1418.3281,721.125 1416.9063,720.3906 Q1415.75,719.7969 1414.9375,718.5313 Q1414.125,717.2656 1414.125,715.7813 L1414.125,714.4219 Q1414.125,712.8594 1414.8438,711.5156 Q1415.5781,710.1563 1416.8594,709.4219 Q1418.1563,708.6875 1419.6094,708.6875 Q1420.4688,708.6875 1421.2188,708.8906 Q1421.9844,709.0938 1422.6406,709.5 Z " fill="#000000"/><text fill="#000000" font-family="sans-serif" font-size="20" lengthAdjust="spacing" textLength="168" x="1435.5" y="722.7617">RequestRepository</text><line style="stroke:#4169E1;stroke-width:0.5;" x1="1405.5" x2="1605.5" y1="732.1563" y2="732.1563"/><line style="stroke:#4169E1;stroke-width:0.5;" x1="1405.5" x2="1605.5" y1="740.1563" y2="740.1563"/></g><!--class AgencyRepository--><g id="elem_AgencyRepository"><rect codeLine="78" fill="#FFDAB9" height="51.1563" id="AgencyRepository" rx="2.5" ry="2.5" style="stroke:#4169E1;stroke-width:0.5;" width="194" x="1712.5" y="697"/><ellipse cx="1728.5" cy="714.5781" fill="#ADD1B2" rx="12" ry="12" style="stroke:#181818;stroke-width:1.0;"/><path d="M1730.6406,709.5 Q1730.8281,709.25 1731.0469,709.125 Q1731.2656,708.9844 1731.5156,708.9844 Q1731.9531,708.9844 1732.2344,709.2969 Q1732.5156,709.5938 1732.5156,710.3125 L1732.5156,712.0156 Q1732.5156,712.7344 1732.2344,713.0469 Q1731.9531,713.3594 1731.5156,713.3594 Q1731.125,713.3594 1730.875,713.125 Q1730.625,712.9063 1730.5156,712.2969 Q1730.4531,711.875 1730.2344,711.6563 Q1729.8438,711.2188 1729.125,710.9531 Q1728.4063,710.6875 1727.6875,710.6875 Q1726.7813,710.6875 1726.0313,711.0781 Q1725.2813,711.4688 1724.7031,712.3594 Q1724.125,713.2344 1724.125,714.4375 L1724.125,715.7344 Q1724.125,717.1875 1725.1719,718.1563 Q1726.2344,719.125 1728.0938,719.125 Q1729.2031,719.125 1729.9844,718.8125 Q1730.4219,718.6406 1730.9375,718.125 Q1731.25,717.8125 1731.4219,717.7188 Q1731.5938,717.625 1731.8281,717.625 Q1732.2188,717.625 1732.5156,717.9375 Q1732.8281,718.2344 1732.8281,718.6406 Q1732.8281,719.0469 1732.4219,719.5156 Q1731.8281,720.2031 1730.8906,720.5938 Q1729.625,721.125 1728.1094,721.125 Q1726.3281,721.125 1724.9063,720.3906 Q1723.75,719.7969 1722.9375,718.5313 Q1722.125,717.2656 1722.125,715.7813 L1722.125,714.4219 Q1722.125,712.8594 1722.8438,711.5156 Q1723.5781,710.1563 1724.8594,709.4219 Q1726.1563,708.6875 1727.6094,708.6875 Q1728.4688,708.6875 1729.2188,708.8906 Q1729.9844,709.0938 1730.6406,709.5 Z " fill="#000000"/><text fill="#000000" font-family="sans-serif" font-size="20" lengthAdjust="spacing" textLength="160" x="1743.5" y="722.7617">AgencyRepository</text><line style="stroke:#4169E1;stroke-width:0.5;" x1="1713.5" x2="1905.5" y1="732.1563" y2="732.1563"/><line style="stroke:#4169E1;stroke-width:0.5;" x1="1713.5" x2="1905.5" y1="740.1563" y2="740.1563"/></g><!--class Employee--><g id="elem_Employee"><rect codeLine="82" fill="#FFDAB9" height="101.4688" id="Employee" rx="2.5" ry="2.5" style="stroke:#4169E1;stroke-width:0.5;" width="161" x="1446" y="1428"/><ellipse cx="1480" cy="1445.5781" fill="#ADD1B2" rx="12" ry="12" style="stroke:#181818;stroke-width:1.0;"/><path d="M1482.1406,1440.5 Q1482.3281,1440.25 1482.5469,1440.125 Q1482.7656,1439.9844 1483.0156,1439.9844 Q1483.4531,1439.9844 1483.7344,1440.2969 Q1484.0156,1440.5938 1484.0156,1441.3125 L1484.0156,1443.0156 Q1484.0156,1443.7344 1483.7344,1444.0469 Q1483.4531,1444.3594 1483.0156,1444.3594 Q1482.625,1444.3594 1482.375,1444.125 Q1482.125,1443.9063 1482.0156,1443.2969 Q1481.9531,1442.875 1481.7344,1442.6563 Q1481.3438,1442.2188 1480.625,1441.9531 Q1479.9063,1441.6875 1479.1875,1441.6875 Q1478.2813,1441.6875 1477.5313,1442.0781 Q1476.7813,1442.4688 1476.2031,1443.3594 Q1475.625,1444.2344 1475.625,1445.4375 L1475.625,1446.7344 Q1475.625,1448.1875 1476.6719,1449.1563 Q1477.7344,1450.125 1479.5938,1450.125 Q1480.7031,1450.125 1481.4844,1449.8125 Q1481.9219,1449.6406 1482.4375,1449.125 Q1482.75,1448.8125 1482.9219,1448.7188 Q1483.0938,1448.625 1483.3281,1448.625 Q1483.7188,1448.625 1484.0156,1448.9375 Q1484.3281,1449.2344 1484.3281,1449.6406 Q1484.3281,1450.0469 1483.9219,1450.5156 Q1483.3281,1451.2031 1482.3906,1451.5938 Q1481.125,1452.125 1479.6094,1452.125 Q1477.8281,1452.125 1476.4063,1451.3906 Q1475.25,1450.7969 1474.4375,1449.5313 Q1473.625,1448.2656 1473.625,1446.7813 L1473.625,1445.4219 Q1473.625,1443.8594 1474.3438,1442.5156 Q1475.0781,1441.1563 1476.3594,1440.4219 Q1477.6563,1439.6875 1479.1094,1439.6875 Q1479.9688,1439.6875 1480.7188,1439.8906 Q1481.4844,1440.0938 1482.1406,1440.5 Z " fill="#000000"/><text fill="#000000" font-family="sans-serif" font-size="20" lengthAdjust="spacing" textLength="87" x="1499" y="1453.7617">Employee</text><line style="stroke:#4169E1;stroke-width:0.5;" x1="1447" x2="1606" y1="1463.1563" y2="1463.1563"/><rect fill="none" height="6" style="stroke:#C82930;stroke-width:1.0;" width="6" x="1454" y="1478.2344"/><text fill="#000000" font-family="sans-serif" font-size="20" lengthAdjust="spacing" textLength="134" x="1467" y="1487.918">Agency agency</text><rect fill="none" height="6" style="stroke:#C82930;stroke-width:1.0;" width="6" x="1454" y="1503.3906"/><text fill="#000000" font-family="sans-serif" font-size="20" lengthAdjust="spacing" textLength="128" x="1467" y="1513.0742">Person person</text><line style="stroke:#4169E1;stroke-width:0.5;" x1="1447" x2="1606" y1="1521.4688" y2="1521.4688"/></g><!--class Request--><g id="elem_Request"><rect codeLine="87" fill="#FFDAB9" height="176.9375" id="Request" rx="2.5" ry="2.5" style="stroke:#4169E1;stroke-width:0.5;" width="386" x="986.5" y="826.5"/><ellipse cx="1138.5" cy="844.0781" fill="#ADD1B2" rx="12" ry="12" style="stroke:#181818;stroke-width:1.0;"/><path d="M1140.6406,839 Q1140.8281,838.75 1141.0469,838.625 Q1141.2656,838.4844 1141.5156,838.4844 Q1141.9531,838.4844 1142.2344,838.7969 Q1142.5156,839.0938 1142.5156,839.8125 L1142.5156,841.5156 Q1142.5156,842.2344 1142.2344,842.5469 Q1141.9531,842.8594 1141.5156,842.8594 Q1141.125,842.8594 1140.875,842.625 Q1140.625,842.4063 1140.5156,841.7969 Q1140.4531,841.375 1140.2344,841.1563 Q1139.8438,840.7188 1139.125,840.4531 Q1138.4063,840.1875 1137.6875,840.1875 Q1136.7813,840.1875 1136.0313,840.5781 Q1135.2813,840.9688 1134.7031,841.8594 Q1134.125,842.7344 1134.125,843.9375 L1134.125,845.2344 Q1134.125,846.6875 1135.1719,847.6563 Q1136.2344,848.625 1138.0938,848.625 Q1139.2031,848.625 1139.9844,848.3125 Q1140.4219,848.1406 1140.9375,847.625 Q1141.25,847.3125 1141.4219,847.2188 Q1141.5938,847.125 1141.8281,847.125 Q1142.2188,847.125 1142.5156,847.4375 Q1142.8281,847.7344 1142.8281,848.1406 Q1142.8281,848.5469 1142.4219,849.0156 Q1141.8281,849.7031 1140.8906,850.0938 Q1139.625,850.625 1138.1094,850.625 Q1136.3281,850.625 1134.9063,849.8906 Q1133.75,849.2969 1132.9375,848.0313 Q1132.125,846.7656 1132.125,845.2813 L1132.125,843.9219 Q1132.125,842.3594 1132.8438,841.0156 Q1133.5781,839.6563 1134.8594,838.9219 Q1136.1563,838.1875 1137.6094,838.1875 Q1138.4688,838.1875 1139.2188,838.3906 Q1139.9844,838.5938 1140.6406,839 Z " fill="#000000"/><text fill="#000000" font-family="sans-serif" font-size="20" lengthAdjust="spacing" textLength="73" x="1160.5" y="852.2617">Request</text><line style="stroke:#4169E1;stroke-width:0.5;" x1="987.5" x2="1371.5" y1="861.6563" y2="861.6563"/><rect fill="none" height="6" style="stroke:#C82930;stroke-width:1.0;" width="6" x="994.5" y="876.7344"/><text fill="#000000" font-family="sans-serif" font-size="20" lengthAdjust="spacing" textLength="128" x="1007.5" y="886.418">Person person</text><rect fill="none" height="6" style="stroke:#C82930;stroke-width:1.0;" width="6" x="994.5" y="901.8906"/><text fill="#000000" font-family="sans-serif" font-size="20" lengthAdjust="spacing" textLength="180" x="1007.5" y="911.5742">Employee Employee</text><rect fill="none" height="6" style="stroke:#C82930;stroke-width:1.0;" width="6" x="994.5" y="927.0469"/><text fill="#000000" font-family="sans-serif" font-size="20" lengthAdjust="spacing" textLength="156" x="1007.5" y="936.7305">Property property</text><rect fill="none" height="6" style="stroke:#C82930;stroke-width:1.0;" width="6" x="994.5" y="952.2031"/><text fill="#000000" font-family="sans-serif" font-size="20" lengthAdjust="spacing" textLength="83" x="1007.5" y="961.8867">Deal deal</text><line style="stroke:#4169E1;stroke-width:0.5;" x1="987.5" x2="1371.5" y1="970.2813" y2="970.2813"/><ellipse cx="997.5" cy="988.3594" fill="#84BE84" rx="3" ry="3" style="stroke:#038048;stroke-width:1.0;"/><text fill="#000000" font-family="sans-serif" font-size="20" lengthAdjust="spacing" textLength="359" x="1007.5" y="995.043">Request(Employee, property, deal, user)</text></g><!--class Deal--><g id="elem_Deal"><rect codeLine="94" fill="#FFDAB9" height="101.4688" id="Deal" rx="2.5" ry="2.5" style="stroke:#4169E1;stroke-width:0.5;" width="252" x="1038.5" y="1127.5"/><ellipse cx="1139.5" cy="1145.0781" fill="#A9DCDF" rx="12" ry="12" style="stroke:#181818;stroke-width:1.0;"/><path d="M1141.9531,1147.1094 L1137.0781,1147.1094 L1136.5938,1148.3281 L1137.0781,1148.3281 Q1137.8125,1148.3281 1138.1094,1148.6094 Q1138.4219,1148.875 1138.4219,1149.3281 Q1138.4219,1149.7656 1138.1094,1150.0469 Q1137.8125,1150.3281 1137.0781,1150.3281 L1134.3906,1150.3281 Q1133.6719,1150.3281 1133.3594,1150.0469 Q1133.0469,1149.7656 1133.0469,1149.3281 Q1133.0469,1148.875 1133.375,1148.5938 Q1133.7031,1148.3125 1134.4375,1148.3281 L1137.5781,1140.5 L1136.2813,1140.5 Q1135.5469,1140.5 1135.2344,1140.2188 Q1134.9375,1139.9375 1134.9375,1139.4844 Q1134.9375,1139.0313 1135.2344,1138.7656 Q1135.5469,1138.4844 1136.2813,1138.4844 L1140.5938,1138.4844 L1144.5781,1148.3281 Q1145.2813,1148.3281 1145.5156,1148.4844 Q1145.9688,1148.7969 1145.9688,1149.3281 Q1145.9688,1149.7656 1145.6563,1150.0469 Q1145.3594,1150.3281 1144.6406,1150.3281 L1141.9375,1150.3281 Q1141.2188,1150.3281 1140.9063,1150.0469 Q1140.5938,1149.7656 1140.5938,1149.3281 Q1140.5938,1148.875 1140.9063,1148.6094 Q1141.2188,1148.3281 1141.9375,1148.3281 L1142.4219,1148.3281 L1141.9531,1147.1094 Z M1141.125,1145.1094 L1139.5,1141.1406 L1137.8906,1145.1094 L1141.125,1145.1094 Z " fill="#000000"/><text fill="#000000" font-family="sans-serif" font-size="20" font-style="italic" lengthAdjust="spacing" textLength="41" x="1161.5" y="1153.2617">Deal</text><line style="stroke:#4169E1;stroke-width:0.5;" x1="1039.5" x2="1289.5" y1="1162.6563" y2="1162.6563"/><rect fill="none" height="6" style="stroke:#C82930;stroke-width:1.0;" width="6" x="1046.5" y="1177.7344"/><text fill="#000000" font-family="sans-serif" font-size="20" lengthAdjust="spacing" textLength="193" x="1059.5" y="1187.418">enum public DealType</text><line style="stroke:#4169E1;stroke-width:0.5;" x1="1039.5" x2="1289.5" y1="1195.8125" y2="1195.8125"/><ellipse cx="1049.5" cy="1213.8906" fill="#84BE84" rx="3" ry="3" style="stroke:#038048;stroke-width:1.0;"/><text fill="#000000" font-family="sans-serif" font-size="20" lengthAdjust="spacing" textLength="225" x="1059.5" y="1220.5742">Deal(DealType:dealType)</text></g><!--class Sale--><g id="elem_Sale"><rect codeLine="98" fill="#FFDAB9" height="101.4688" id="Sale" rx="2.5" ry="2.5" style="stroke:#4169E1;stroke-width:0.5;" width="255" x="1156" y="1428"/><ellipse cx="1259.5" cy="1445.5781" fill="#ADD1B2" rx="12" ry="12" style="stroke:#181818;stroke-width:1.0;"/><path d="M1261.6406,1440.5 Q1261.8281,1440.25 1262.0469,1440.125 Q1262.2656,1439.9844 1262.5156,1439.9844 Q1262.9531,1439.9844 1263.2344,1440.2969 Q1263.5156,1440.5938 1263.5156,1441.3125 L1263.5156,1443.0156 Q1263.5156,1443.7344 1263.2344,1444.0469 Q1262.9531,1444.3594 1262.5156,1444.3594 Q1262.125,1444.3594 1261.875,1444.125 Q1261.625,1443.9063 1261.5156,1443.2969 Q1261.4531,1442.875 1261.2344,1442.6563 Q1260.8438,1442.2188 1260.125,1441.9531 Q1259.4063,1441.6875 1258.6875,1441.6875 Q1257.7813,1441.6875 1257.0313,1442.0781 Q1256.2813,1442.4688 1255.7031,1443.3594 Q1255.125,1444.2344 1255.125,1445.4375 L1255.125,1446.7344 Q1255.125,1448.1875 1256.1719,1449.1563 Q1257.2344,1450.125 1259.0938,1450.125 Q1260.2031,1450.125 1260.9844,1449.8125 Q1261.4219,1449.6406 1261.9375,1449.125 Q1262.25,1448.8125 1262.4219,1448.7188 Q1262.5938,1448.625 1262.8281,1448.625 Q1263.2188,1448.625 1263.5156,1448.9375 Q1263.8281,1449.2344 1263.8281,1449.6406 Q1263.8281,1450.0469 1263.4219,1450.5156 Q1262.8281,1451.2031 1261.8906,1451.5938 Q1260.625,1452.125 1259.1094,1452.125 Q1257.3281,1452.125 1255.9063,1451.3906 Q1254.75,1450.7969 1253.9375,1449.5313 Q1253.125,1448.2656 1253.125,1446.7813 L1253.125,1445.4219 Q1253.125,1443.8594 1253.8438,1442.5156 Q1254.5781,1441.1563 1255.8594,1440.4219 Q1257.1563,1439.6875 1258.6094,1439.6875 Q1259.4688,1439.6875 1260.2188,1439.8906 Q1260.9844,1440.0938 1261.6406,1440.5 Z " fill="#000000"/><text fill="#000000" font-family="sans-serif" font-size="20" lengthAdjust="spacing" textLength="39" x="1281.5" y="1453.7617">Sale</text><line style="stroke:#4169E1;stroke-width:0.5;" x1="1157" x2="1410" y1="1463.1563" y2="1463.1563"/><rect fill="none" height="6" style="stroke:#C82930;stroke-width:1.0;" width="6" x="1164" y="1478.2344"/><text fill="#000000" font-family="sans-serif" font-size="20" lengthAdjust="spacing" textLength="183" x="1177" y="1487.918">double propertyPrice</text><line style="stroke:#4169E1;stroke-width:0.5;" x1="1157" x2="1410" y1="1496.3125" y2="1496.3125"/><ellipse cx="1167" cy="1514.3906" fill="#84BE84" rx="3" ry="3" style="stroke:#038048;stroke-width:1.0;"/><text fill="#000000" font-family="sans-serif" font-size="20" lengthAdjust="spacing" textLength="228" x="1177" y="1521.0742">createSale(propertyPrice)</text></g><!--class Rent--><g id="elem_Rent"><rect codeLine="102" fill="#FFDAB9" height="126.625" id="Rent" rx="2.5" ry="2.5" style="stroke:#4169E1;stroke-width:0.5;" width="409" x="712" y="1415"/><ellipse cx="891.5" cy="1432.5781" fill="#ADD1B2" rx="12" ry="12" style="stroke:#181818;stroke-width:1.0;"/><path d="M893.6406,1427.5 Q893.8281,1427.25 894.0469,1427.125 Q894.2656,1426.9844 894.5156,1426.9844 Q894.9531,1426.9844 895.2344,1427.2969 Q895.5156,1427.5938 895.5156,1428.3125 L895.5156,1430.0156 Q895.5156,1430.7344 895.2344,1431.0469 Q894.9531,1431.3594 894.5156,1431.3594 Q894.125,1431.3594 893.875,1431.125 Q893.625,1430.9063 893.5156,1430.2969 Q893.4531,1429.875 893.2344,1429.6563 Q892.8438,1429.2188 892.125,1428.9531 Q891.4063,1428.6875 890.6875,1428.6875 Q889.7813,1428.6875 889.0313,1429.0781 Q888.2813,1429.4688 887.7031,1430.3594 Q887.125,1431.2344 887.125,1432.4375 L887.125,1433.7344 Q887.125,1435.1875 888.1719,1436.1563 Q889.2344,1437.125 891.0938,1437.125 Q892.2031,1437.125 892.9844,1436.8125 Q893.4219,1436.6406 893.9375,1436.125 Q894.25,1435.8125 894.4219,1435.7188 Q894.5938,1435.625 894.8281,1435.625 Q895.2188,1435.625 895.5156,1435.9375 Q895.8281,1436.2344 895.8281,1436.6406 Q895.8281,1437.0469 895.4219,1437.5156 Q894.8281,1438.2031 893.8906,1438.5938 Q892.625,1439.125 891.1094,1439.125 Q889.3281,1439.125 887.9063,1438.3906 Q886.75,1437.7969 885.9375,1436.5313 Q885.125,1435.2656 885.125,1433.7813 L885.125,1432.4219 Q885.125,1430.8594 885.8438,1429.5156 Q886.5781,1428.1563 887.8594,1427.4219 Q889.1563,1426.6875 890.6094,1426.6875 Q891.4688,1426.6875 892.2188,1426.8906 Q892.9844,1427.0938 893.6406,1427.5 Z " fill="#000000"/><text fill="#000000" font-family="sans-serif" font-size="20" lengthAdjust="spacing" textLength="41" x="913.5" y="1440.7617">Rent</text><line style="stroke:#4169E1;stroke-width:0.5;" x1="713" x2="1120" y1="1450.1563" y2="1450.1563"/><rect fill="none" height="6" style="stroke:#C82930;stroke-width:1.0;" width="6" x="720" y="1465.2344"/><text fill="#000000" font-family="sans-serif" font-size="20" lengthAdjust="spacing" textLength="179" x="733" y="1474.918">double propertyRent</text><rect fill="none" height="6" style="stroke:#C82930;stroke-width:1.0;" width="6" x="720" y="1490.3906"/><text fill="#000000" font-family="sans-serif" font-size="20" lengthAdjust="spacing" textLength="170" x="733" y="1500.0742">int contractDuration</text><line style="stroke:#4169E1;stroke-width:0.5;" x1="713" x2="1120" y1="1508.4688" y2="1508.4688"/><ellipse cx="723" cy="1526.5469" fill="#84BE84" rx="3" ry="3" style="stroke:#038048;stroke-width:1.0;"/><text fill="#000000" font-family="sans-serif" font-size="20" lengthAdjust="spacing" textLength="382" x="733" y="1533.2305">createRent(propertyRent, contractDuration)</text></g><!--class Agency--><g id="elem_Agency"><rect codeLine="107" fill="#FFDAB9" height="176.9375" id="Agency" rx="2.5" ry="2.5" style="stroke:#4169E1;stroke-width:0.5;" width="183" x="1716" y="1615.5"/><ellipse cx="1770.5" cy="1633.0781" fill="#ADD1B2" rx="12" ry="12" style="stroke:#181818;stroke-width:1.0;"/><path d="M1772.6406,1628 Q1772.8281,1627.75 1773.0469,1627.625 Q1773.2656,1627.4844 1773.5156,1627.4844 Q1773.9531,1627.4844 1774.2344,1627.7969 Q1774.5156,1628.0938 1774.5156,1628.8125 L1774.5156,1630.5156 Q1774.5156,1631.2344 1774.2344,1631.5469 Q1773.9531,1631.8594 1773.5156,1631.8594 Q1773.125,1631.8594 1772.875,1631.625 Q1772.625,1631.4063 1772.5156,1630.7969 Q1772.4531,1630.375 1772.2344,1630.1563 Q1771.8438,1629.7188 1771.125,1629.4531 Q1770.4063,1629.1875 1769.6875,1629.1875 Q1768.7813,1629.1875 1768.0313,1629.5781 Q1767.2813,1629.9688 1766.7031,1630.8594 Q1766.125,1631.7344 1766.125,1632.9375 L1766.125,1634.2344 Q1766.125,1635.6875 1767.1719,1636.6563 Q1768.2344,1637.625 1770.0938,1637.625 Q1771.2031,1637.625 1771.9844,1637.3125 Q1772.4219,1637.1406 1772.9375,1636.625 Q1773.25,1636.3125 1773.4219,1636.2188 Q1773.5938,1636.125 1773.8281,1636.125 Q1774.2188,1636.125 1774.5156,1636.4375 Q1774.8281,1636.7344 1774.8281,1637.1406 Q1774.8281,1637.5469 1774.4219,1638.0156 Q1773.8281,1638.7031 1772.8906,1639.0938 Q1771.625,1639.625 1770.1094,1639.625 Q1768.3281,1639.625 1766.9063,1638.8906 Q1765.75,1638.2969 1764.9375,1637.0313 Q1764.125,1635.7656 1764.125,1634.2813 L1764.125,1632.9219 Q1764.125,1631.3594 1764.8438,1630.0156 Q1765.5781,1628.6563 1766.8594,1627.9219 Q1768.1563,1627.1875 1769.6094,1627.1875 Q1770.4688,1627.1875 1771.2188,1627.3906 Q1771.9844,1627.5938 1772.6406,1628 Z " fill="#000000"/><text fill="#000000" font-family="sans-serif" font-size="20" lengthAdjust="spacing" textLength="65" x="1792.5" y="1641.2617">Agency</text><line style="stroke:#4169E1;stroke-width:0.5;" x1="1717" x2="1898" y1="1650.6563" y2="1650.6563"/><rect fill="none" height="6" style="stroke:#C82930;stroke-width:1.0;" width="6" x="1724" y="1665.7344"/><text fill="#000000" font-family="sans-serif" font-size="20" lengthAdjust="spacing" textLength="41" x="1737" y="1675.418">int id</text><rect fill="none" height="6" style="stroke:#C82930;stroke-width:1.0;" width="6" x="1724" y="1690.8906"/><text fill="#000000" font-family="sans-serif" font-size="20" lengthAdjust="spacing" textLength="156" x="1737" y="1700.5742">String designation</text><rect fill="none" height="6" style="stroke:#C82930;stroke-width:1.0;" width="6" x="1724" y="1716.0469"/><text fill="#000000" font-family="sans-serif" font-size="20" lengthAdjust="spacing" textLength="147" x="1737" y="1725.7305">int phoneNumber</text><rect fill="none" height="6" style="stroke:#C82930;stroke-width:1.0;" width="6" x="1724" y="1741.2031"/><text fill="#000000" font-family="sans-serif" font-size="20" lengthAdjust="spacing" textLength="103" x="1737" y="1750.8867">String email</text><rect fill="none" height="6" style="stroke:#C82930;stroke-width:1.0;" width="6" x="1724" y="1766.3594"/><text fill="#000000" font-family="sans-serif" font-size="20" lengthAdjust="spacing" textLength="150" x="1737" y="1776.043">Address address</text><line style="stroke:#4169E1;stroke-width:0.5;" x1="1717" x2="1898" y1="1784.4375" y2="1784.4375"/></g><!--class Person--><g id="elem_Person"><rect codeLine="114" fill="#FFDAB9" height="227.25" id="Person" rx="2.5" ry="2.5" style="stroke:#4169E1;stroke-width:0.5;" width="198" x="1559.5" y="1064.5"/><ellipse cx="1623" cy="1082.0781" fill="#ADD1B2" rx="12" ry="12" style="stroke:#181818;stroke-width:1.0;"/><path d="M1625.1406,1077 Q1625.3281,1076.75 1625.5469,1076.625 Q1625.7656,1076.4844 1626.0156,1076.4844 Q1626.4531,1076.4844 1626.7344,1076.7969 Q1627.0156,1077.0938 1627.0156,1077.8125 L1627.0156,1079.5156 Q1627.0156,1080.2344 1626.7344,1080.5469 Q1626.4531,1080.8594 1626.0156,1080.8594 Q1625.625,1080.8594 1625.375,1080.625 Q1625.125,1080.4063 1625.0156,1079.7969 Q1624.9531,1079.375 1624.7344,1079.1563 Q1624.3438,1078.7188 1623.625,1078.4531 Q1622.9063,1078.1875 1622.1875,1078.1875 Q1621.2813,1078.1875 1620.5313,1078.5781 Q1619.7813,1078.9688 1619.2031,1079.8594 Q1618.625,1080.7344 1618.625,1081.9375 L1618.625,1083.2344 Q1618.625,1084.6875 1619.6719,1085.6563 Q1620.7344,1086.625 1622.5938,1086.625 Q1623.7031,1086.625 1624.4844,1086.3125 Q1624.9219,1086.1406 1625.4375,1085.625 Q1625.75,1085.3125 1625.9219,1085.2188 Q1626.0938,1085.125 1626.3281,1085.125 Q1626.7188,1085.125 1627.0156,1085.4375 Q1627.3281,1085.7344 1627.3281,1086.1406 Q1627.3281,1086.5469 1626.9219,1087.0156 Q1626.3281,1087.7031 1625.3906,1088.0938 Q1624.125,1088.625 1622.6094,1088.625 Q1620.8281,1088.625 1619.4063,1087.8906 Q1618.25,1087.2969 1617.4375,1086.0313 Q1616.625,1084.7656 1616.625,1083.2813 L1616.625,1081.9219 Q1616.625,1080.3594 1617.3438,1079.0156 Q1618.0781,1077.6563 1619.3594,1076.9219 Q1620.6563,1076.1875 1622.1094,1076.1875 Q1622.9688,1076.1875 1623.7188,1076.3906 Q1624.4844,1076.5938 1625.1406,1077 Z " fill="#000000"/><text fill="#000000" font-family="sans-serif" font-size="20" lengthAdjust="spacing" textLength="62" x="1645" y="1090.2617">Person</text><line style="stroke:#4169E1;stroke-width:0.5;" x1="1560.5" x2="1756.5" y1="1099.6563" y2="1099.6563"/><rect fill="none" height="6" style="stroke:#C82930;stroke-width:1.0;" width="6" x="1567.5" y="1114.7344"/><text fill="#000000" font-family="sans-serif" font-size="20" lengthAdjust="spacing" textLength="105" x="1580.5" y="1124.418">String name</text><rect fill="none" height="6" style="stroke:#C82930;stroke-width:1.0;" width="6" x="1567.5" y="1139.8906"/><text fill="#000000" font-family="sans-serif" font-size="20" lengthAdjust="spacing" textLength="171" x="1580.5" y="1149.5742">int passportNumber</text><rect fill="none" height="6" style="stroke:#C82930;stroke-width:1.0;" width="6" x="1567.5" y="1165.0469"/><text fill="#000000" font-family="sans-serif" font-size="20" lengthAdjust="spacing" textLength="120" x="1580.5" y="1174.7305">int taxNumber</text><rect fill="none" height="6" style="stroke:#C82930;stroke-width:1.0;" width="6" x="1567.5" y="1190.2031"/><text fill="#000000" font-family="sans-serif" font-size="20" lengthAdjust="spacing" textLength="103" x="1580.5" y="1199.8867">String email</text><rect fill="none" height="6" style="stroke:#C82930;stroke-width:1.0;" width="6" x="1567.5" y="1215.3594"/><text fill="#000000" font-family="sans-serif" font-size="20" lengthAdjust="spacing" textLength="147" x="1580.5" y="1225.043">int phoneNumber</text><rect fill="none" height="6" style="stroke:#C82930;stroke-width:1.0;" width="6" x="1567.5" y="1240.5156"/><text fill="#000000" font-family="sans-serif" font-size="20" lengthAdjust="spacing" textLength="143" x="1580.5" y="1250.1992">String password</text><rect fill="none" height="6" style="stroke:#C82930;stroke-width:1.0;" width="6" x="1567.5" y="1265.6719"/><text fill="#000000" font-family="sans-serif" font-size="20" lengthAdjust="spacing" textLength="150" x="1580.5" y="1275.3555">Address address</text><line style="stroke:#4169E1;stroke-width:0.5;" x1="1560.5" x2="1756.5" y1="1283.75" y2="1283.75"/></g><!--link Store to Store--><g id="link_Store_Store"><path codeLine="148" d="M2210.55,893.69 C2230.9,895.97 2245.5,903.07 2245.5,915 C2245.5,925.9 2233.3,932.77 2215.66,935.62 " fill="none" id="Store-to-Store" style="stroke:#4169E1;stroke-width:1.0;"/><polygon fill="#4169E1" points="2210.55,936.31,2220.0065,939.0622,2215.5045,935.637,2218.9297,931.135,2210.55,936.31" style="stroke:#4169E1;stroke-width:1.0;"/><text fill="#000000" font-family="sans-serif" font-size="20" lengthAdjust="spacing" textLength="72" x="2251.5" y="923.2617">instance</text></g><!--link Store to UserStore--><g id="link_Store_UserStore"><path codeLine="149" d="M2111.21,991.14 C2111.01,1042.96 2110.76,1109.07 2110.62,1146.86 " fill="none" id="Store-to-UserStore" style="stroke:#4169E1;stroke-width:1.0;"/><polygon fill="#4169E1" points="2110.59,1152.22,2114.6157,1143.2315,2110.6043,1147.22,2106.6157,1143.2086,2110.59,1152.22" style="stroke:#4169E1;stroke-width:1.0;"/></g><!--link Store to UserRoleStore--><g id="link_Store_UserRoleStore"><path codeLine="150" d="M2150.96,991.12 C2170.3,1027.95 2189.5,1064.5 2189.5,1064.5 C2189.5,1064.5 2212.38,1243.43 2221.66,1315.98 " fill="none" id="Store-to-UserRoleStore" style="stroke:#4169E1;stroke-width:1.0;"/><polygon fill="#4169E1" points="2222.31,1321.02,2225.1461,1311.5883,2221.681,1316.0597,2217.2096,1312.5947,2222.31,1321.02" style="stroke:#4169E1;stroke-width:1.0;"/></g><!--link UserRoleStore to UserRole--><g id="link_UserRoleStore_UserRole"><path codeLine="151" d="M2225.14,1372.91 C2224.34,1427.83 2222.5,1554.5 2222.5,1554.5 C2222.5,1554.5 2205.87,1605.96 2192.18,1648.29 " fill="none" id="UserRoleStore-to-UserRole" style="stroke:#4169E1;stroke-width:1.0;stroke-dasharray:7.0,7.0;"/><polygon fill="#4169E1" points="2190.62,1653.14,2197.2014,1645.813,2192.1625,1648.3839,2189.5917,1643.345,2190.62,1653.14" style="stroke:#4169E1;stroke-width:1.0;"/></g><!--link UserStore to User--><g id="link_UserStore_User"><path codeLine="152" d="M2110.33,1203.68 C2110.05,1245.61 2109.47,1332.5 2109.04,1397.21 " fill="none" id="UserStore-to-User" style="stroke:#4169E1;stroke-width:1.0;stroke-dasharray:7.0,7.0;"/><polygon fill="#4169E1" points="2109,1402.22,2113.0514,1393.243,2109.0286,1397.2201,2105.0515,1393.1973,2109,1402.22" style="stroke:#4169E1;stroke-width:1.0;"/></g><!--link User to UserRole--><g id="link_User_UserRole"><path codeLine="153" d="M2130.66,1554.54 C2138.93,1582.55 2148.22,1614.02 2156.12,1640.75 " fill="none" id="User-to-UserRole" style="stroke:#4169E1;stroke-width:1.0;"/><polygon fill="#4169E1" points="2159.87,1653.46,2162.0034,1646.5717,2156.4654,1641.9531,2154.3321,1648.8414,2159.87,1653.46" style="stroke:#4169E1;stroke-width:1.0;"/></g><!--link ListingRequestUI to ListingRequestController--><g id="link_ListingRequestUI_ListingRequestController"><path codeLine="155" d="M1505.5,184.15 C1505.5,202.62 1505.5,221.84 1505.5,239.46 " fill="none" id="ListingRequestUI-to-ListingRequestController" style="stroke:#4169E1;stroke-width:1.0;stroke-dasharray:7.0,7.0;"/><polygon fill="#4169E1" points="1505.5,244.88,1509.5,235.88,1505.5,239.88,1501.5,235.88,1505.5,244.88" style="stroke:#4169E1;stroke-width:1.0;"/></g><!--link ListingRequestController to Repositories--><g id="link_ListingRequestController_Repositories"><path codeLine="158" d="M1536.13,372.08 C1548.38,397.1 1562.73,426.44 1576.15,453.84 " fill="none" id="ListingRequestController-to-Repositories" style="stroke:#4169E1;stroke-width:1.0;stroke-dasharray:7.0,7.0;"/><polygon fill="#4169E1" points="1578.46,458.57,1578.1006,448.7277,1576.2639,454.0781,1570.9136,452.2414,1578.46,458.57" style="stroke:#4169E1;stroke-width:1.0;"/><text fill="#000000" font-family="sans-serif" font-size="20" lengthAdjust="spacing" textLength="103" x="1564.5" y="423.7617">repositories</text></g><!--link ListingRequestController to Request--><g id="link_ListingRequestController_Request"><path codeLine="159" d="M1383.44,372.22 C1351.34,388.72 1325.5,402 1325.5,402 C1325.5,402 1248.08,673.49 1206,821.08 " fill="none" id="ListingRequestController-to-Request" style="stroke:#4169E1;stroke-width:1.0;stroke-dasharray:7.0,7.0;"/><polygon fill="#4169E1" points="1204.52,826.28,1210.8327,818.7202,1205.8898,821.4713,1203.1387,816.5285,1204.52,826.28" style="stroke:#4169E1;stroke-width:1.0;"/></g><!--link ListingRequestController to Agency--><g id="link_ListingRequestController_Agency"><path codeLine="160" d="M1660.69,372.04 C1762.35,413 1876.5,459 1876.5,459 C1876.5,459 1959.5,546.5 1959.5,546.5 C1959.5,546.5 1959.5,546.5 1959.5,1479.5 C1959.5,1479.5 1912.03,1549.3 1870.14,1610.89 " fill="none" id="ListingRequestController-to-Agency" style="stroke:#4169E1;stroke-width:1.0;stroke-dasharray:7.0,7.0;"/><polygon fill="#4169E1" points="1867.14,1615.31,1875.506,1610.113,1869.9496,1611.174,1868.8885,1605.6176,1867.14,1615.31" style="stroke:#4169E1;stroke-width:1.0;"/></g><!--link ListingRequestController to Employee--><g id="link_ListingRequestController_Employee"><path codeLine="161" d="M1486.25,372.19 C1452.57,481.86 1386.5,697 1386.5,697 C1386.5,697 1386.5,748 1386.5,748 C1386.5,748 1483.46,1253.22 1516,1422.77 " fill="none" id="ListingRequestController-to-Employee" style="stroke:#4169E1;stroke-width:1.0;stroke-dasharray:7.0,7.0;"/><polygon fill="#4169E1" points="1516.99,1427.93,1519.2174,1418.3363,1516.0452,1423.0201,1511.3615,1419.8479,1516.99,1427.93" style="stroke:#4169E1;stroke-width:1.0;"/></g><!--link Repositories to Repositories--><g id="link_Repositories_Repositories"><path codeLine="163" d="M1757.26,527.32 C1777.95,530.4 1792,537.13 1792,547.5 C1792,556.98 1780.26,563.41 1762.44,566.8 " fill="none" id="Repositories-to-Repositories" style="stroke:#4169E1;stroke-width:1.0;"/><polygon fill="#4169E1" points="1757.26,567.68,1766.7986,570.1325,1762.1908,566.8511,1765.4723,562.2433,1757.26,567.68" style="stroke:#4169E1;stroke-width:1.0;"/><text fill="#000000" font-family="sans-serif" font-size="20" lengthAdjust="spacing" textLength="72" x="1798" y="555.7617">instance</text></g><!--link Repositories to PersonRepository--><g id="link_Repositories_PersonRepository"><path codeLine="164" d="M1630.36,636.05 C1638.5,716.45 1650.09,830.97 1655.5,884.41 " fill="none" id="Repositories-to-PersonRepository" style="stroke:#4169E1;stroke-width:1.0;"/><polygon fill="#4169E1" points="1656.01,889.39,1659.0654,880.0271,1655.497,884.4164,1651.1076,880.8479,1656.01,889.39" style="stroke:#4169E1;stroke-width:1.0;"/></g><!--link Repositories to RequestRepository--><g id="link_Repositories_RequestRepository"><path codeLine="165" d="M1562.82,636.01 C1549.16,656.39 1535.54,676.69 1525.02,692.4 " fill="none" id="Repositories-to-RequestRepository" style="stroke:#4169E1;stroke-width:1.0;"/><polygon fill="#4169E1" points="1522.13,696.7,1530.463,691.4501,1524.9134,692.5463,1523.8172,686.9967,1522.13,696.7" style="stroke:#4169E1;stroke-width:1.0;"/></g><!--link Repositories to AgencyRepository--><g id="link_Repositories_AgencyRepository"><path codeLine="166" d="M1716.6,636.01 C1739.12,656.74 1761.56,677.39 1778.74,693.2 " fill="none" id="Repositories-to-AgencyRepository" style="stroke:#4169E1;stroke-width:1.0;"/><polygon fill="#4169E1" points="1782.55,696.7,1778.6455,687.6582,1778.8743,693.3104,1773.2221,693.5392,1782.55,696.7" style="stroke:#4169E1;stroke-width:1.0;"/></g><!--link AgencyRepository to Agency--><g id="link_AgencyRepository_Agency"><path codeLine="169" d="M1809.63,748.01 C1809.9,799.47 1810.5,914 1810.5,914 C1810.5,914 1810.5,914 1810.5,1479.5 C1810.5,1479.5 1809.57,1548.75 1808.75,1610.15 " fill="none" id="AgencyRepository-to-Agency" style="stroke:#4169E1;stroke-width:1.0;stroke-dasharray:7.0,7.0;"/><polygon fill="#4169E1" points="1808.68,1615.31,1812.7826,1606.3563,1808.7371,1610.3103,1804.7831,1606.2649,1808.68,1615.31" style="stroke:#4169E1;stroke-width:1.0;"/></g><!--reverse link Agency to Address--><g id="link_Agency_Address"><path codeLine="170" d="M1751.66,1804.15 C1742.65,1820.15 1733.26,1836.81 1724.09,1853.1 " fill="none" id="Agency-backto-Address" style="stroke:#4169E1;stroke-width:1.0;"/><polygon fill="#4169E1" points="1758.14,1792.64,1751.7092,1795.9026,1752.2475,1803.0936,1758.6783,1799.831,1758.14,1792.64" style="stroke:#4169E1;stroke-width:1.0;"/></g><!--link RequestRepository to Request--><g id="link_RequestRepository_Request"><path codeLine="172" d="M1463.55,748.01 C1430.25,767.48 1381.5,795.96 1333.76,823.86 " fill="none" id="RequestRepository-to-Request" style="stroke:#4169E1;stroke-width:1.0;stroke-dasharray:7.0,7.0;"/><polygon fill="#4169E1" points="1329.44,826.38,1339.2273,825.2801,1333.7537,823.8518,1335.1821,818.3782,1329.44,826.38" style="stroke:#4169E1;stroke-width:1.0;"/></g><!--reverse link Request to Employee--><g id="link_Request_Employee"><path codeLine="173" d="M1263.71,1013.7 C1287.72,1041.55 1307.5,1064.5 1307.5,1064.5 C1307.5,1064.5 1441.84,1317.84 1500.08,1427.68 " fill="none" id="Request-backto-Employee" style="stroke:#4169E1;stroke-width:1.0;"/><polygon fill="#4169E1" points="1255.07,1003.67,1255.9582,1010.8262,1262.9055,1012.7587,1262.0173,1005.6025,1255.07,1003.67" style="stroke:#4169E1;stroke-width:1.0;"/></g><!--reverse link Request to Property--><g id="link_Request_Property"><path codeLine="174" d="M973.57,979.38 C878.25,1008.72 762.74,1044.27 656.12,1077.09 " fill="none" id="Request-backto-Property" style="stroke:#4169E1;stroke-width:1.0;"/><polygon fill="#4169E1" points="986.28,975.47,979.3698,973.4086,974.8092,978.9944,981.7194,981.0558,986.28,975.47" style="stroke:#4169E1;stroke-width:1.0;"/></g><!--reverse link Request to Deal--><g id="link_Request_Deal"><path codeLine="175" d="M1173.7,1016.85 C1171.53,1054.7 1169.15,1096.06 1167.36,1127.26 " fill="none" id="Request-backto-Deal" style="stroke:#4169E1;stroke-width:1.0;"/><polygon fill="#4169E1" points="1174.46,1003.64,1170.1239,1009.4018,1173.7747,1015.6204,1178.1108,1009.8587,1174.46,1003.64" style="stroke:#4169E1;stroke-width:1.0;"/></g><!--reverse link Request to Person--><g id="link_Request_Person"><path codeLine="176" d="M1351.88,1009.93 C1421.49,1047.85 1499.32,1090.27 1559.16,1122.87 " fill="none" id="Request-backto-Person" style="stroke:#4169E1;stroke-width:1.0;"/><polygon fill="#4169E1" points="1340.33,1003.64,1343.6808,1010.0253,1350.8637,1009.3881,1347.5129,1003.0028,1340.33,1003.64" style="stroke:#4169E1;stroke-width:1.0;"/></g><!--link PersonRepository to Employee--><g id="link_PersonRepository_Employee"><path codeLine="178" d="M1639.18,940.52 C1605.95,982.7 1541.5,1064.5 1541.5,1064.5 C1541.5,1064.5 1532.58,1309.98 1528.5,1422.43 " fill="none" id="PersonRepository-to-Employee" style="stroke:#4169E1;stroke-width:1.0;stroke-dasharray:7.0,7.0;"/><polygon fill="#4169E1" points="1528.31,1427.68,1532.6413,1418.8347,1528.4956,1422.6834,1524.6468,1418.5377,1528.31,1427.68" style="stroke:#4169E1;stroke-width:1.0;"/></g><!--link PersonRepository to Person--><g id="link_PersonRepository_Person"><path codeLine="179" d="M1658.5,940.55 C1658.5,968.05 1658.5,1014.61 1658.5,1059.18 " fill="none" id="PersonRepository-to-Person" style="stroke:#4169E1;stroke-width:1.0;stroke-dasharray:7.0,7.0;"/><polygon fill="#4169E1" points="1658.5,1064.32,1662.5,1055.32,1658.5,1059.32,1654.5,1055.32,1658.5,1064.32" style="stroke:#4169E1;stroke-width:1.0;"/></g><!--reverse link Property to Address--><g id="link_Property_Address"><path codeLine="181" d="M312.94,1304.72 C305.43,1355.57 298.5,1402.5 298.5,1402.5 C298.5,1402.5 298.5,1554.5 298.5,1554.5 C298.5,1554.5 331.5,1792.5 331.5,1792.5 C331.5,1792.5 992.65,1878.81 1382.3,1929.68 " fill="none" id="Property-backto-Address" style="stroke:#4169E1;stroke-width:1.0;"/><polygon fill="#4169E1" points="314.85,1291.73,310.0167,1297.0816,313.0976,1303.6014,317.9309,1298.2498,314.85,1291.73" style="stroke:#4169E1;stroke-width:1.0;"/></g><!--reverse link Property to Home--><g id="link_Property_Home"><path codeLine="182" d="M403.57,1309.38 C421.17,1341.22 439.41,1374.22 455.02,1402.46 " fill="none" id="Property-backto-Home" style="stroke:#4169E1;stroke-width:1.0;"/><polygon fill="none" points="397.43,1312.74,393.88,1291.85,409.68,1305.97,397.43,1312.74" style="stroke:#4169E1;stroke-width:1.0;"/></g><!--reverse link Home to House--><g id="link_Home_House"><path codeLine="183" d="M482.46,1574.62 C479.17,1596.87 475.75,1620.03 472.74,1640.44 " fill="none" id="Home-backto-House" style="stroke:#4169E1;stroke-width:1.0;"/><polygon fill="none" points="475.57,1573.31,485.42,1554.54,489.42,1575.35,475.57,1573.31" style="stroke:#4169E1;stroke-width:1.0;"/></g><!--reverse link Property to Land--><g id="link_Property_Land"><path codeLine="184" d="M245.19,1308.46 C239.81,1316.54 236.5,1321.5 236.5,1321.5 C236.5,1321.5 199.57,1408.79 180.96,1452.78 " fill="none" id="Property-backto-Land" style="stroke:#4169E1;stroke-width:1.0;"/><polygon fill="none" points="239.5,1304.39,256.42,1291.63,251.15,1312.15,239.5,1304.39" style="stroke:#4169E1;stroke-width:1.0;"/></g><!--reverse link Home to Apartement--><g id="link_Home_Apartement"><path codeLine="185" d="M571.58,1570.21 C604.04,1609.42 639.46,1652.21 661.08,1678.33 " fill="none" id="Home-backto-Apartement" style="stroke:#4169E1;stroke-width:1.0;"/><polygon fill="none" points="565.98,1574.41,558.62,1554.54,576.76,1565.49,565.98,1574.41" style="stroke:#4169E1;stroke-width:1.0;"/></g><!--reverse link Person to User--><g id="link_Person_User"><path codeLine="189" d="M1768.37,1251.88 C1843.04,1301.41 1940.85,1366.29 2012.41,1413.76 " fill="none" id="Person-backto-User" style="stroke:#4169E1;stroke-width:1.0;"/><polygon fill="#4169E1" points="1757.53,1244.69,1760.3177,1251.3405,1767.5288,1251.3251,1764.7411,1244.6746,1757.53,1244.69" style="stroke:#4169E1;stroke-width:1.0;"/></g><!--reverse link Person to Employee--><g id="link_Person_Employee"><path codeLine="190" d="M1603.33,1303.76 C1584.05,1347.37 1563.5,1393.84 1548.51,1427.74 " fill="none" id="Person-backto-Employee" style="stroke:#4169E1;stroke-width:1.0;"/><polygon fill="#4169E1" points="1608.6,1291.85,1602.5148,1295.7192,1603.7459,1302.8244,1609.8311,1298.9552,1608.6,1291.85" style="stroke:#4169E1;stroke-width:1.0;"/></g><!--reverse link Person to Address--><g id="link_Person_Address"><path codeLine="191" d="M1658.82,1305.19 C1659.21,1456.66 1659.85,1708.33 1660.21,1853.45 " fill="none" id="Person-backto-Address" style="stroke:#4169E1;stroke-width:1.0;"/><polygon fill="#4169E1" points="1658.79,1291.76,1654.8032,1297.7688,1658.8164,1303.76,1662.8032,1297.7512,1658.79,1291.76" style="stroke:#4169E1;stroke-width:1.0;"/></g><!--reverse link Employee to Agency--><g id="link_Employee_Agency"><path codeLine="194" d="M1599.18,1537.31 C1634.81,1565.65 1678.1,1600.08 1715.97,1630.2 " fill="none" id="Employee-backto-Agency" style="stroke:#4169E1;stroke-width:1.0;"/><polygon fill="#4169E1" points="1588.86,1529.1,1591.0665,1535.9652,1598.2522,1536.569,1596.0458,1529.7038,1588.86,1529.1" style="stroke:#4169E1;stroke-width:1.0;"/></g><!--reverse link Deal to Sale--><g id="link_Deal_Sale"><path codeLine="197" d="M1191.81,1247.49 C1213.73,1302.5 1244.01,1378.44 1263.67,1427.76 " fill="none" id="Deal-backto-Sale" style="stroke:#4169E1;stroke-width:1.0;"/><polygon fill="none" points="1185.19,1249.8,1184.28,1228.63,1198.19,1244.61,1185.19,1249.8" style="stroke:#4169E1;stroke-width:1.0;"/></g><!--reverse link Deal to Rent--><g id="link_Deal_Rent"><path codeLine="198" d="M1110.47,1244.03 C1068.36,1294.72 1010.23,1364.68 968.61,1414.77 " fill="none" id="Deal-backto-Rent" style="stroke:#4169E1;stroke-width:1.0;"/><polygon fill="none" points="1105.1,1239.54,1123.27,1228.63,1115.87,1248.48,1105.1,1239.54" style="stroke:#4169E1;stroke-width:1.0;"/></g><!--SRC=[fLTVRnev47_tf_0Rq5kYNX-ZA1994nKflKFGV02pEu2LnTxQtajeZkz-Ow_jjHT87muf2PxVU6Oy_wDVk6YOOljQbYzGqGeshAtDenHcnNy1_VAPZ7JWeNifPBbJSW_Kg1P8ZpIiV65RM9b33LH1QPZOrYc3th5AldAnfHjMwnIfkG1pQ80siZxOGwenWb8PILAah9dMCsCKNxS6vgKKpc2qTne-ZnoDqSOAtKOY6OYWxuJYvmuVi5Mo5TMzhAMY2s3bRj5kDWwTAILVEs0f3wo-g_7rxffK5QWXSYIZ6ZQ66aaLt-uChRZr2PU2Z9urACg50RLX9Om8wQnuujgWcKlusO8sptDlrXzuLJSrEwpQiWIjl-CF-dayyMYfW1du2goEf2ScgdZu9blTSy_mtGRs80oIZcSrtsFabQnhD79WmSE-gUK1mFAFqGPXzBMxV1EGsw17j-izDmib6r3cCAxGl88s_eZVG6af2Wh-teJwUmfDb_kPbJtE9KTUNL2BbmVAt1-yUoHihOrYfV4H3Ohz2wQLRDUO2GnzDHVVlsH4V1pcQWcFcDNtt1pkKRVgOZl5gBE3jOFUh33FnFQMDZjfvFFogMFegDGcQD3fRrQLmaXH_xTxNlH7CAIueBs8QefCTa6ylCB55LKNr8P-Skg2RrYZ_lMOQrIq-pMelpTtK2afz_eCmipk0hHW2ajcky8Ql-mOzW_ZDKEFFlniUMDJB2QOoq5l35rBMGCJTCsqIyG1cOiTMtDZ1Jt9JK2zdtKh7juQgLi5KNYVqfs6Fgqnbzv9p-SZyZuGYUu6GtDYoKCSUpQiCa-ohld5cr9Ma3FPO2fUXXe0CtCgnvcg8bLIPFABL7GefUt_56CTubsm1FGTDr9nwFsG4iU9qhdeCdCyeTSPKy-oS6KSiKDwtNUJys1Nm1aMmZIKcKJmH6GQtO541taiz93mugnzU5gdrZUcp6LEP_HMnkTfGNxy4dX35sgork0gbjgMw1tYTOp3zRHJTfqJoqUTgN4dA5W6MAsqmPR6ImVymBxX5RZf46ZNbV_I-tp5i0y6ERuj1XCMcD2GpHhBFSxWIHAYK8OdWfPzhTlqBEsOmQTyRHLpSp5LONd7wSNYX7yo2Frx8fjNWtgkGFEjwFLqRDXZ1VpbUbpE3djiPI5PVDjWlf7dUJfe9eBjqoRH86E3UqkcmmA6lVrExuS6Mi6lk7XSjD5lO_JX3TSCmUedlbRC5k_Lh3KxF4t_lFhS6TyznoubAomScmUEV4p0053_cJf2w1QEaZMCZ1mbdw4l9TGfTXnObAZiVUEEcGSS9VhUdJhfc7wj_t9MlWMS_ZEF3dXYGyYhRdq0NIhUn9mwsgNlehz9vyFfzDPxyneZtFahWQAl1hHe9ybEzEggnqaVma2cZePIFlLSe-SvELarxOLBMo3ktCdXugveHMJpvHh_2qY6ncykEkh7J5sTVymJE_0ecrYPOTQf0qjZA4uOX-FedAZ1L3fb6GudGiYGbBxGpwTFqrZPzZdT728dwZ871ZPxD_eY9SOjDINQqP1pTUED35-V-_Wiwg-Eul0ZyLlwe4Yy-HUfTbabzbSuOjKEMEmsbx3qMn_cPswkqsFpFJqFZCvimR8DQ1pb3k_2GKREFsxOEjrs02P7Ev_-0m00]--></g></svg>