<?xml version="1.0" encoding="UTF-8" standalone="no"?><svg xmlns="http://www.w3.org/2000/svg" xmlns:xlink="http://www.w3.org/1999/xlink" contentStyleType="text/css" height="836px" preserveAspectRatio="none" style="width:1076px;height:836px;background:#FFFFFF;" version="1.1" viewBox="0 0 1076 836" width="1076px" zoomAndPan="magnify"><defs/><g><text fill="#000000" font-family="sans-serif" font-size="14" font-weight="bold" lengthAdjust="spacing" textLength="228" x="425.5" y="29.5332">System Sequence Diagram (SSD)</text><rect fill="#FFFFFF" height="598.6563" style="stroke:#181818;stroke-width:1.0;" width="10" x="96" y="138.7656"/><rect fill="#FFFFFF" height="39.1563" style="stroke:#181818;stroke-width:1.0;" width="10" x="1012" y="214.2344"/><rect fill="#FFFFFF" height="39.1563" style="stroke:#181818;stroke-width:1.0;" width="10" x="1012" y="292.5469"/><rect fill="#FFFFFF" height="39.1563" style="stroke:#181818;stroke-width:1.0;" width="10" x="1012" y="461.3281"/><rect fill="#FFFFFF" height="39.1563" style="stroke:#181818;stroke-width:1.0;" width="10" x="1012" y="564.7969"/><rect fill="none" height="233.0938" style="stroke:#000000;stroke-width:1.5;" width="1060" x="10" y="145.7656"/><rect fill="none" height="258.25" style="stroke:#000000;stroke-width:1.5;" width="1060" x="10" y="392.8594"/><line style="stroke:#181818;stroke-width:0.5;stroke-dasharray:5.0,5.0;" x1="101" x2="101" y1="128.7656" y2="746.4219"/><line style="stroke:#181818;stroke-width:0.5;stroke-dasharray:5.0,5.0;" x1="1017" x2="1017" y1="128.7656" y2="746.4219"/><text fill="#000000" font-family="sans-serif" font-size="20" lengthAdjust="spacing" textLength="156" x="20" y="124.3711">Unregistered user</text><ellipse cx="101" cy="52.1094" fill="#E3E3E3" rx="8" ry="8" style="stroke:#181818;stroke-width:0.5;"/><path d="M101,60.1094 L101,87.1094 M88,68.1094 L114,68.1094 M101,87.1094 L88,102.1094 M101,87.1094 L114,102.1094 " fill="none" style="stroke:#181818;stroke-width:0.5;"/><text fill="#000000" font-family="sans-serif" font-size="20" lengthAdjust="spacing" textLength="156" x="20" y="766.1836">Unregistered user</text><ellipse cx="101" cy="779.0781" fill="#E3E3E3" rx="8" ry="8" style="stroke:#181818;stroke-width:0.5;"/><path d="M101,787.0781 L101,814.0781 M88,795.0781 L114,795.0781 M101,814.0781 L88,829.0781 M101,814.0781 L114,829.0781 " fill="none" style="stroke:#181818;stroke-width:0.5;"/><rect fill="#E3E3E3" height="39.1563" rx="2.5" ry="2.5" style="stroke:#181818;stroke-width:0.5;" width="86" x="974" y="88.6094"/><text fill="#000000" font-family="sans-serif" font-size="20" lengthAdjust="spacing" textLength="72" x="981" y="116.3711">:System</text><rect fill="#E3E3E3" height="39.1563" rx="2.5" ry="2.5" style="stroke:#181818;stroke-width:0.5;" width="86" x="974" y="745.4219"/><text fill="#000000" font-family="sans-serif" font-size="20" lengthAdjust="spacing" textLength="72" x="981" y="773.1836">:System</text><rect fill="#FFFFFF" height="598.6563" style="stroke:#181818;stroke-width:1.0;" width="10" x="96" y="138.7656"/><rect fill="#FFFFFF" height="39.1563" style="stroke:#181818;stroke-width:1.0;" width="10" x="1012" y="214.2344"/><rect fill="#FFFFFF" height="39.1563" style="stroke:#181818;stroke-width:1.0;" width="10" x="1012" y="292.5469"/><rect fill="#FFFFFF" height="39.1563" style="stroke:#181818;stroke-width:1.0;" width="10" x="1012" y="461.3281"/><rect fill="#FFFFFF" height="39.1563" style="stroke:#181818;stroke-width:1.0;" width="10" x="1012" y="564.7969"/><path d="M10,145.7656 L86,145.7656 L86,162.9219 L76,172.9219 L10,172.9219 L10,145.7656 " fill="#EEEEEE" style="stroke:#000000;stroke-width:1.5;"/><rect fill="none" height="233.0938" style="stroke:#000000;stroke-width:1.5;" width="1060" x="10" y="145.7656"/><text fill="#000000" font-family="sans-serif" font-size="20" font-weight="bold" lengthAdjust="spacing" textLength="31" x="25" y="167.5273">opt</text><text fill="#000000" font-family="sans-serif" font-size="20" font-weight="bold" lengthAdjust="spacing" textLength="52" x="101" y="168.5273">[sort]</text><polygon fill="#181818" points="1000,210.2344,1010,214.2344,1000,218.2344,1004,214.2344" style="stroke:#181818;stroke-width:1.0;"/><line style="stroke:#181818;stroke-width:1.0;" x1="106" x2="1006" y1="214.2344" y2="214.2344"/><text fill="#000000" font-family="sans-serif" font-size="20" font-weight="bold" lengthAdjust="spacing" textLength="11" x="113" y="207.8398">1</text><text fill="#000000" font-family="sans-serif" font-size="20" lengthAdjust="spacing" textLength="199" x="128" y="207.8398">asks to sort properties</text><polygon fill="#181818" points="117,249.3906,107,253.3906,117,257.3906,113,253.3906" style="stroke:#181818;stroke-width:1.0;"/><line style="stroke:#181818;stroke-width:1.0;stroke-dasharray:2.0,2.0;" x1="111" x2="1016" y1="253.3906" y2="253.3906"/><text fill="#000000" font-family="sans-serif" font-size="20" font-weight="bold" lengthAdjust="spacing" textLength="11" x="123" y="246.9961">2</text><text fill="#000000" font-family="sans-serif" font-size="20" lengthAdjust="spacing" textLength="347" x="138" y="246.9961">shows type of filters and ask's to select</text><polygon fill="#181818" points="1000,288.5469,1010,292.5469,1000,296.5469,1004,292.5469" style="stroke:#181818;stroke-width:1.0;"/><line style="stroke:#181818;stroke-width:1.0;" x1="106" x2="1006" y1="292.5469" y2="292.5469"/><text fill="#000000" font-family="sans-serif" font-size="20" font-weight="bold" lengthAdjust="spacing" textLength="11" x="113" y="286.1523">3</text><text fill="#000000" font-family="sans-serif" font-size="20" lengthAdjust="spacing" textLength="345" x="128" y="286.1523">selects a task category(price or parish)</text><polygon fill="#181818" points="117,327.7031,107,331.7031,117,335.7031,113,331.7031" style="stroke:#181818;stroke-width:1.0;"/><line style="stroke:#181818;stroke-width:1.0;stroke-dasharray:2.0,2.0;" x1="111" x2="1016" y1="331.7031" y2="331.7031"/><text fill="#000000" font-family="sans-serif" font-size="20" font-weight="bold" lengthAdjust="spacing" textLength="11" x="123" y="325.3086">4</text><text fill="#000000" font-family="sans-serif" font-size="20" lengthAdjust="spacing" textLength="417" x="138" y="325.3086">shows selected category and requests the data</text><polygon fill="#181818" points="1005,366.8594,1015,370.8594,1005,374.8594,1009,370.8594" style="stroke:#181818;stroke-width:1.0;"/><line style="stroke:#181818;stroke-width:1.0;" x1="106" x2="1011" y1="370.8594" y2="370.8594"/><text fill="#000000" font-family="sans-serif" font-size="20" font-weight="bold" lengthAdjust="spacing" textLength="11" x="113" y="364.4648">5</text><text fill="#000000" font-family="sans-serif" font-size="20" lengthAdjust="spacing" textLength="478" x="128" y="364.4648">type of sort(price high to low, price low to high, parish)</text><path d="M10,392.8594 L86,392.8594 L86,410.0156 L76,420.0156 L10,420.0156 L10,392.8594 " fill="#EEEEEE" style="stroke:#000000;stroke-width:1.5;"/><rect fill="none" height="258.25" style="stroke:#000000;stroke-width:1.5;" width="1060" x="10" y="392.8594"/><text fill="#000000" font-family="sans-serif" font-size="20" font-weight="bold" lengthAdjust="spacing" textLength="31" x="25" y="414.6211">opt</text><text fill="#000000" font-family="sans-serif" font-size="20" font-weight="bold" lengthAdjust="spacing" textLength="57" x="101" y="415.6211">[filter]</text><polygon fill="#181818" points="1000,457.3281,1010,461.3281,1000,465.3281,1004,461.3281" style="stroke:#181818;stroke-width:1.0;"/><line style="stroke:#181818;stroke-width:1.0;" x1="106" x2="1006" y1="461.3281" y2="461.3281"/><text fill="#000000" font-family="sans-serif" font-size="20" font-weight="bold" lengthAdjust="spacing" textLength="11" x="113" y="454.9336">1</text><text fill="#000000" font-family="sans-serif" font-size="20" lengthAdjust="spacing" textLength="203" x="128" y="454.9336">asks to filter properties</text><polygon fill="#181818" points="117,496.4844,107,500.4844,117,504.4844,113,500.4844" style="stroke:#181818;stroke-width:1.0;"/><line style="stroke:#181818;stroke-width:1.0;stroke-dasharray:2.0,2.0;" x1="111" x2="1016" y1="500.4844" y2="500.4844"/><text fill="#000000" font-family="sans-serif" font-size="20" font-weight="bold" lengthAdjust="spacing" textLength="11" x="123" y="494.0898">2</text><text fill="#000000" font-family="sans-serif" font-size="20" lengthAdjust="spacing" textLength="419" x="138" y="494.0898">shows the category of filters and ask's to select</text><polygon fill="#181818" points="1000,560.7969,1010,564.7969,1000,568.7969,1004,564.7969" style="stroke:#181818;stroke-width:1.0;"/><line style="stroke:#181818;stroke-width:1.0;" x1="106" x2="1006" y1="564.7969" y2="564.7969"/><text fill="#000000" font-family="sans-serif" font-size="20" font-weight="bold" lengthAdjust="spacing" textLength="11" x="113" y="545.8242">3</text><text fill="#000000" font-family="sans-serif" font-size="20" lengthAdjust="spacing" textLength="411" x="128" y="533.2461">selects a task category(bedrooms, bathrooms,</text><text fill="#000000" font-family="sans-serif" font-size="20" lengthAdjust="spacing" textLength="330" x="134" y="558.4023">type of contract and type of property)</text><polygon fill="#181818" points="117,599.9531,107,603.9531,117,607.9531,113,603.9531" style="stroke:#181818;stroke-width:1.0;"/><line style="stroke:#181818;stroke-width:1.0;stroke-dasharray:2.0,2.0;" x1="111" x2="1016" y1="603.9531" y2="603.9531"/><text fill="#000000" font-family="sans-serif" font-size="20" font-weight="bold" lengthAdjust="spacing" textLength="11" x="123" y="597.5586">4</text><text fill="#000000" font-family="sans-serif" font-size="20" lengthAdjust="spacing" textLength="417" x="138" y="597.5586">shows selected category and requests the data</text><polygon fill="#181818" points="1005,639.1094,1015,643.1094,1005,647.1094,1009,643.1094" style="stroke:#181818;stroke-width:1.0;"/><line style="stroke:#181818;stroke-width:1.0;" x1="106" x2="1011" y1="643.1094" y2="643.1094"/><text fill="#000000" font-family="sans-serif" font-size="20" font-weight="bold" lengthAdjust="spacing" textLength="11" x="113" y="636.7148">5</text><text fill="#000000" font-family="sans-serif" font-size="20" lengthAdjust="spacing" textLength="872" x="128" y="636.7148">types the chosen filters (rent, buy,number of rooms,number of bathrooms, land, house, apartament)</text><polygon fill="#181818" points="117,685.2656,107,689.2656,117,693.2656,113,689.2656" style="stroke:#181818;stroke-width:1.0;"/><line style="stroke:#181818;stroke-width:1.0;stroke-dasharray:2.0,2.0;" x1="111" x2="1016" y1="689.2656" y2="689.2656"/><text fill="#000000" font-family="sans-serif" font-size="20" font-weight="bold" lengthAdjust="spacing" textLength="11" x="123" y="682.8711">6</text><text fill="#000000" font-family="sans-serif" font-size="20" lengthAdjust="spacing" textLength="58" x="138" y="682.8711">results</text><polygon fill="#181818" points="117,724.4219,107,728.4219,117,732.4219,113,728.4219" style="stroke:#181818;stroke-width:1.0;"/><line style="stroke:#181818;stroke-width:1.0;stroke-dasharray:2.0,2.0;" x1="111" x2="1016" y1="728.4219" y2="728.4219"/><text fill="#000000" font-family="sans-serif" font-size="20" font-weight="bold" lengthAdjust="spacing" textLength="11" x="123" y="722.0273">7</text><text fill="#000000" font-family="sans-serif" font-size="20" lengthAdjust="spacing" textLength="204" x="138" y="722.0273">shows list of properties</text><!--SRC=[pLInRjim4Dtv5GSliG45I39wwDAWFo1qwtAMpY9XYgUIfnhgr-SeIee71qMBegWcYdptxhrt4jF5XG4ZzfwR2xNGqXb7BryuIEr-4hmycRH2eEV0ZOtS4qWSwUPamEQ27TKoUO98ZM3e_2qWMMpvwa87P_I9Z14d2gsd9DH3JTz72Wt1gyCkm_Tr_Nem1aVXCFOdYhfkX2FileP8dTEgg6h7H747cE2pTnJ4Q2znZHim2EoEXNm-Bqi3e2pk1mgj5JSjuDdm890uYW9XGS3ZfrNbKPak2OHd30oH1z9-b6RunhpqcZVpirG_Aj52UTGu-AfCqq30PpWxhtuIO6XpYuVIWxpcEBEqT9VyZi1If4mWIWIDbdGSf_qGdQQh-Mb2Bjd3doek_9hyoZnhZdbyITkA9MXHy3TLhpdaM1UfrdKsf-3vMa7PqcNUoIVLviDGQEyCiIJwgp4MrDyOfFhU4lad0prH6vdxLC49nPRbjx0bsUZ_6xN7h63TN7nE_-7qbmWj9mfRUlkeK3KuJjKoN3LHhBw_lzi7hsegiAotGWMOxmBibU4mVoCVEOkKzBvBzy-FnRVN- -OcmFoX6FC6]--></g></svg>