<?xml version="1.0" encoding="UTF-8" standalone="no"?><svg xmlns="http://www.w3.org/2000/svg" xmlns:xlink="http://www.w3.org/1999/xlink" contentStyleType="text/css" height="799px" preserveAspectRatio="none" style="width:1004px;height:799px;background:#FFFFFF;" version="1.1" viewBox="0 0 1004 799" width="1004px" zoomAndPan="magnify"><defs/><g><text fill="#000000" font-family="sans-serif" font-size="14" font-weight="bold" lengthAdjust="spacing" textLength="259" x="374" y="27.9951">System Sequence Diagram (SSD)</text><rect fill="#FFFFFF" height="566.7813" style="stroke:#181818;stroke-width:1.0;" width="10" x="107.5" y="135.5781"/><rect fill="#FFFFFF" height="37.2813" style="stroke:#181818;stroke-width:1.0;" width="10" x="935.5" y="205.4219"/><rect fill="#FFFFFF" height="37.2813" style="stroke:#181818;stroke-width:1.0;" width="10" x="935.5" y="279.9844"/><rect fill="#FFFFFF" height="37.2813" style="stroke:#181818;stroke-width:1.0;" width="10" x="935.5" y="439.3906"/><rect fill="#FFFFFF" height="37.2813" style="stroke:#181818;stroke-width:1.0;" width="10" x="935.5" y="537.2344"/><rect fill="none" height="219.9688" style="stroke:#000000;stroke-width:1.5;" width="988" x="10" y="142.5781"/><rect fill="none" height="243.25" style="stroke:#000000;stroke-width:1.5;" width="988" x="10" y="376.5469"/><line style="stroke:#181818;stroke-width:0.5;stroke-dasharray:5.0,5.0;" x1="112" x2="112" y1="125.5781" y2="711.3594"/><line style="stroke:#181818;stroke-width:0.5;stroke-dasharray:5.0,5.0;" x1="940" x2="940" y1="125.5781" y2="711.3594"/><text fill="#000000" font-family="sans-serif" font-size="20" lengthAdjust="spacing" textLength="179" x="20" y="120.8613">Unregistered user</text><ellipse cx="112.5" cy="50.7969" fill="#E3E3E3" rx="8" ry="8" style="stroke:#181818;stroke-width:0.5;"/><path d="M112.5,58.7969 L112.5,85.7969 M99.5,66.7969 L125.5,66.7969 M112.5,85.7969 L99.5,100.7969 M112.5,85.7969 L125.5,100.7969 " fill="none" style="stroke:#181818;stroke-width:0.5;"/><text fill="#000000" font-family="sans-serif" font-size="20" lengthAdjust="spacing" textLength="179" x="20" y="728.9238">Unregistered user</text><ellipse cx="112.5" cy="742.1406" fill="#E3E3E3" rx="8" ry="8" style="stroke:#181818;stroke-width:0.5;"/><path d="M112.5,750.1406 L112.5,777.1406 M99.5,758.1406 L125.5,758.1406 M112.5,777.1406 L99.5,792.1406 M112.5,777.1406 L125.5,792.1406 " fill="none" style="stroke:#181818;stroke-width:0.5;"/><rect fill="#E3E3E3" height="37.2813" rx="2.5" ry="2.5" style="stroke:#181818;stroke-width:0.5;" width="95" x="893" y="87.2969"/><text fill="#000000" font-family="sans-serif" font-size="20" lengthAdjust="spacing" textLength="81" x="900" y="112.8613">:System</text><rect fill="#E3E3E3" height="37.2813" rx="2.5" ry="2.5" style="stroke:#181818;stroke-width:0.5;" width="95" x="893" y="710.3594"/><text fill="#000000" font-family="sans-serif" font-size="20" lengthAdjust="spacing" textLength="81" x="900" y="735.9238">:System</text><rect fill="#FFFFFF" height="566.7813" style="stroke:#181818;stroke-width:1.0;" width="10" x="107.5" y="135.5781"/><rect fill="#FFFFFF" height="37.2813" style="stroke:#181818;stroke-width:1.0;" width="10" x="935.5" y="205.4219"/><rect fill="#FFFFFF" height="37.2813" style="stroke:#181818;stroke-width:1.0;" width="10" x="935.5" y="279.9844"/><rect fill="#FFFFFF" height="37.2813" style="stroke:#181818;stroke-width:1.0;" width="10" x="935.5" y="439.3906"/><rect fill="#FFFFFF" height="37.2813" style="stroke:#181818;stroke-width:1.0;" width="10" x="935.5" y="537.2344"/><path d="M10,142.5781 L93,142.5781 L93,157.8594 L83,167.8594 L10,167.8594 L10,142.5781 " fill="#EEEEEE" style="stroke:#000000;stroke-width:1.5;"/><rect fill="none" height="219.9688" style="stroke:#000000;stroke-width:1.5;" width="988" x="10" y="142.5781"/><text fill="#000000" font-family="sans-serif" font-size="20" font-weight="bold" lengthAdjust="spacing" textLength="38" x="25" y="162.1426">opt</text><text fill="#000000" font-family="sans-serif" font-size="20" font-weight="bold" lengthAdjust="spacing" textLength="64" x="108" y="163.1426">[sort]</text><polygon fill="#181818" points="923.5,201.4219,933.5,205.4219,923.5,209.4219,927.5,205.4219" style="stroke:#181818;stroke-width:1.0;"/><line style="stroke:#181818;stroke-width:1.0;" x1="117.5" x2="929.5" y1="205.4219" y2="205.4219"/><text fill="#000000" font-family="sans-serif" font-size="20" font-weight="bold" lengthAdjust="spacing" textLength="14" x="124.5" y="198.7051">1</text><text fill="#000000" font-family="sans-serif" font-size="20" lengthAdjust="spacing" textLength="222" x="142.5" y="198.7051">asks to sort properties</text><polygon fill="#181818" points="128.5,238.7031,118.5,242.7031,128.5,246.7031,124.5,242.7031" style="stroke:#181818;stroke-width:1.0;"/><line style="stroke:#181818;stroke-width:1.0;stroke-dasharray:2.0,2.0;" x1="122.5" x2="939.5" y1="242.7031" y2="242.7031"/><text fill="#000000" font-family="sans-serif" font-size="20" font-weight="bold" lengthAdjust="spacing" textLength="14" x="134.5" y="235.9863">2</text><text fill="#000000" font-family="sans-serif" font-size="20" lengthAdjust="spacing" textLength="391" x="152.5" y="235.9863">shows type of filters and ask's to select</text><polygon fill="#181818" points="923.5,275.9844,933.5,279.9844,923.5,283.9844,927.5,279.9844" style="stroke:#181818;stroke-width:1.0;"/><line style="stroke:#181818;stroke-width:1.0;" x1="117.5" x2="929.5" y1="279.9844" y2="279.9844"/><text fill="#000000" font-family="sans-serif" font-size="20" font-weight="bold" lengthAdjust="spacing" textLength="14" x="124.5" y="273.2676">3</text><text fill="#000000" font-family="sans-serif" font-size="20" lengthAdjust="spacing" textLength="388" x="142.5" y="273.2676">selects a task category(price or parish)</text><polygon fill="#181818" points="128.5,313.2656,118.5,317.2656,128.5,321.2656,124.5,317.2656" style="stroke:#181818;stroke-width:1.0;"/><line style="stroke:#181818;stroke-width:1.0;stroke-dasharray:2.0,2.0;" x1="122.5" x2="939.5" y1="317.2656" y2="317.2656"/><text fill="#000000" font-family="sans-serif" font-size="20" font-weight="bold" lengthAdjust="spacing" textLength="14" x="134.5" y="310.5488">4</text><text fill="#000000" font-family="sans-serif" font-size="20" lengthAdjust="spacing" textLength="471" x="152.5" y="310.5488">shows selected category and requests the data</text><polygon fill="#181818" points="928.5,350.5469,938.5,354.5469,928.5,358.5469,932.5,354.5469" style="stroke:#181818;stroke-width:1.0;"/><line style="stroke:#181818;stroke-width:1.0;" x1="117.5" x2="934.5" y1="354.5469" y2="354.5469"/><text fill="#000000" font-family="sans-serif" font-size="20" font-weight="bold" lengthAdjust="spacing" textLength="14" x="124.5" y="347.8301">5</text><text fill="#000000" font-family="sans-serif" font-size="20" lengthAdjust="spacing" textLength="551" x="142.5" y="347.8301">type of sort(price high to low, price low to high, parish)</text><path d="M10,376.5469 L93,376.5469 L93,391.8281 L83,401.8281 L10,401.8281 L10,376.5469 " fill="#EEEEEE" style="stroke:#000000;stroke-width:1.5;"/><rect fill="none" height="243.25" style="stroke:#000000;stroke-width:1.5;" width="988" x="10" y="376.5469"/><text fill="#000000" font-family="sans-serif" font-size="20" font-weight="bold" lengthAdjust="spacing" textLength="38" x="25" y="396.1113">opt</text><text fill="#000000" font-family="sans-serif" font-size="20" font-weight="bold" lengthAdjust="spacing" textLength="75" x="108" y="397.1113">[filter]</text><polygon fill="#181818" points="923.5,435.3906,933.5,439.3906,923.5,443.3906,927.5,439.3906" style="stroke:#181818;stroke-width:1.0;"/><line style="stroke:#181818;stroke-width:1.0;" x1="117.5" x2="929.5" y1="439.3906" y2="439.3906"/><text fill="#000000" font-family="sans-serif" font-size="20" font-weight="bold" lengthAdjust="spacing" textLength="14" x="124.5" y="432.6738">1</text><text fill="#000000" font-family="sans-serif" font-size="20" lengthAdjust="spacing" textLength="231" x="142.5" y="432.6738">asks to filter properties</text><polygon fill="#181818" points="128.5,472.6719,118.5,476.6719,128.5,480.6719,124.5,476.6719" style="stroke:#181818;stroke-width:1.0;"/><line style="stroke:#181818;stroke-width:1.0;stroke-dasharray:2.0,2.0;" x1="122.5" x2="939.5" y1="476.6719" y2="476.6719"/><text fill="#000000" font-family="sans-serif" font-size="20" font-weight="bold" lengthAdjust="spacing" textLength="14" x="134.5" y="469.9551">2</text><text fill="#000000" font-family="sans-serif" font-size="20" lengthAdjust="spacing" textLength="473" x="152.5" y="469.9551">shows the category of filters and ask's to select</text><polygon fill="#181818" points="923.5,533.2344,933.5,537.2344,923.5,541.2344,927.5,537.2344" style="stroke:#181818;stroke-width:1.0;"/><line style="stroke:#181818;stroke-width:1.0;" x1="117.5" x2="929.5" y1="537.2344" y2="537.2344"/><text fill="#000000" font-family="sans-serif" font-size="20" font-weight="bold" lengthAdjust="spacing" textLength="14" x="124.5" y="518.877">3</text><text fill="#000000" font-family="sans-serif" font-size="20" lengthAdjust="spacing" textLength="348" x="142.5" y="507.2363">selects a task category(bed rooms,</text><text fill="#000000" font-family="sans-serif" font-size="20" lengthAdjust="spacing" textLength="376" x="148.5" y="530.5176">type of contract and type of property)</text><polygon fill="#181818" points="128.5,570.5156,118.5,574.5156,128.5,578.5156,124.5,574.5156" style="stroke:#181818;stroke-width:1.0;"/><line style="stroke:#181818;stroke-width:1.0;stroke-dasharray:2.0,2.0;" x1="122.5" x2="939.5" y1="574.5156" y2="574.5156"/><text fill="#000000" font-family="sans-serif" font-size="20" font-weight="bold" lengthAdjust="spacing" textLength="14" x="134.5" y="567.7988">4</text><text fill="#000000" font-family="sans-serif" font-size="20" lengthAdjust="spacing" textLength="471" x="152.5" y="567.7988">shows selected category and requests the data</text><polygon fill="#181818" points="928.5,607.7969,938.5,611.7969,928.5,615.7969,932.5,611.7969" style="stroke:#181818;stroke-width:1.0;"/><line style="stroke:#181818;stroke-width:1.0;" x1="117.5" x2="934.5" y1="611.7969" y2="611.7969"/><text fill="#000000" font-family="sans-serif" font-size="20" font-weight="bold" lengthAdjust="spacing" textLength="14" x="124.5" y="605.0801">5</text><text fill="#000000" font-family="sans-serif" font-size="20" lengthAdjust="spacing" textLength="781" x="142.5" y="605.0801">types the chosen filters (rent, buy,number of rooms, land, house, apartament)</text><polygon fill="#181818" points="128.5,652.0781,118.5,656.0781,128.5,660.0781,124.5,656.0781" style="stroke:#181818;stroke-width:1.0;"/><line style="stroke:#181818;stroke-width:1.0;stroke-dasharray:2.0,2.0;" x1="122.5" x2="939.5" y1="656.0781" y2="656.0781"/><text fill="#000000" font-family="sans-serif" font-size="20" font-weight="bold" lengthAdjust="spacing" textLength="14" x="134.5" y="649.3613">6</text><text fill="#000000" font-family="sans-serif" font-size="20" lengthAdjust="spacing" textLength="67" x="152.5" y="649.3613">results</text><polygon fill="#181818" points="128.5,689.3594,118.5,693.3594,128.5,697.3594,124.5,693.3594" style="stroke:#181818;stroke-width:1.0;"/><line style="stroke:#181818;stroke-width:1.0;stroke-dasharray:2.0,2.0;" x1="122.5" x2="939.5" y1="693.3594" y2="693.3594"/><text fill="#000000" font-family="sans-serif" font-size="20" font-weight="bold" lengthAdjust="spacing" textLength="14" x="134.5" y="686.6426">7</text><text fill="#000000" font-family="sans-serif" font-size="20" lengthAdjust="spacing" textLength="231" x="152.5" y="686.6426">shows list of properties</text><!--SRC=[pLH1pzCm3BtdLrYxi4dz9E2u0nS-yGSgRboyrckZfN5nNARowt6QjjfX284GegV8VdxFVawQRZwEA3W4RcxKGajNd89-ugYr_qxm_grB6mG6ZjpqmWE1oaGFcH6R6tPKwnm8X1h5s8L7GEgnvRkF7Lmn979ElHgqdfFI03LzdIWs1AyUkmm_rlNhoJcSbECqN4Zit2WB73v7eSvRbLYtKo8v02Ru63n5TQQbll4ZHeN3kP0l-N9q0CRYlw7ILl4W0UySZmg9HGq8Am9UFcnTdetfba1vmS0eF9BfKLhWE_EgjGJpjrQ_6D5AUJOx-6vCyqZ0LxZwOFCamDXcYJT5WuBvkB2qz9JyIOEbo9X0ZGWQA-bOvkCetjmr_ymXd_hJdtPS-CtvZNdfMVBwaibgJz2YuczslVcGRLrRxNtNPnS2toie8JlcICvK-noEOljaYSNHNwsneFx68ctktP5_ij2BxK2OXrHzYRj_ZRrQCUP5Tmkkqyt_uSvNutfE57VFZcBG2YxJNAqhjI7Ag11CkOAUxTrNWFcrus3eqt8BVZQ5KB8_MdgUFvSPW_rH7ipALy6v7m00]--></g></svg>