<?xml version="1.0" encoding="UTF-8" standalone="no"?><svg xmlns="http://www.w3.org/2000/svg" xmlns:xlink="http://www.w3.org/1999/xlink" contentStyleType="text/css" height="1297px" preserveAspectRatio="none" style="width:2488px;height:1297px;background:#FFFFFF;" version="1.1" viewBox="0 0 2488 1297" width="2488px" zoomAndPan="magnify"><defs/><g><!--class Repositories--><g id="elem_Repositories"><rect codeLine="17" fill="#FFDAB9" height="212.9688" id="Repositories" rx="2.5" ry="2.5" style="stroke:#4169E1;stroke-width:0.5;" width="338" x="1702.5" y="7"/><ellipse cx="1805.5" cy="24" fill="#ADD1B2" rx="12" ry="12" style="stroke:#181818;stroke-width:1.0;"/><path d="M1808.5625,31.0781 Q1807.875,31.4375 1807.125,31.6094 Q1806.375,31.7813 1805.5469,31.7813 Q1802.5938,31.7813 1801.0313,29.8438 Q1799.4844,27.8906 1799.4844,24.2188 Q1799.4844,20.5469 1801.0313,18.6094 Q1802.5938,16.6563 1805.5469,16.6563 Q1806.375,16.6563 1807.125,16.8281 Q1807.8906,17 1808.5625,17.3594 L1808.5625,20.5625 Q1807.8125,19.875 1807.1094,19.5625 Q1806.4219,19.25 1805.6719,19.25 Q1804.0938,19.25 1803.2813,20.5 Q1802.4844,21.75 1802.4844,24.2188 Q1802.4844,26.6875 1803.2813,27.9375 Q1804.0938,29.1875 1805.6719,29.1875 Q1806.4219,29.1875 1807.1094,28.875 Q1807.8125,28.5625 1808.5625,27.875 L1808.5625,31.0781 Z " fill="#000000"/><text fill="#000000" font-family="sans-serif" font-size="20" lengthAdjust="spacing" textLength="123" x="1827.5" y="30.9238">Repositories</text><line style="stroke:#4169E1;stroke-width:0.5;" x1="1703.5" x2="2039.5" y1="41" y2="41"/><line style="stroke:#4169E1;stroke-width:0.5;" x1="1703.5" x2="2039.5" y1="49" y2="49"/><text fill="#000000" font-family="sans-serif" font-size="20" lengthAdjust="spacing" textLength="146" x="1708.5" y="71.5645">-Repositories()</text><text fill="#000000" font-family="sans-serif" font-size="20" lengthAdjust="spacing" textLength="293" x="1708.5" y="94.8457">+getInstance() : Repositories</text><text fill="#000000" font-family="sans-serif" font-size="20" lengthAdjust="spacing" textLength="246" x="1708.5" y="118.127">+getAgencyRepository()</text><text fill="#000000" font-family="sans-serif" font-size="20" lengthAdjust="spacing" textLength="217" x="1708.5" y="141.4082">+getUserRepository()</text><text fill="#000000" font-family="sans-serif" font-size="20" lengthAdjust="spacing" textLength="271" x="1708.5" y="164.6895">+getEmployeeRepository()</text><text fill="#000000" font-family="sans-serif" font-size="20" lengthAdjust="spacing" textLength="326" x="1708.5" y="187.9707">+getAnnouncementRepository()</text><text fill="#000000" font-family="sans-serif" font-size="20" lengthAdjust="spacing" textLength="321" x="1708.5" y="211.252">+getAuthenticationRepository()</text></g><!--class AgencyRepository--><g id="elem_AgencyRepository"><rect codeLine="26" fill="#FFDAB9" height="50" id="AgencyRepository" rx="2.5" ry="2.5" style="stroke:#4169E1;stroke-width:0.5;" width="214" x="1884.5" y="361"/><ellipse cx="1900.5" cy="378" fill="#ADD1B2" rx="12" ry="12" style="stroke:#181818;stroke-width:1.0;"/><path d="M1903.5625,385.0781 Q1902.875,385.4375 1902.125,385.6094 Q1901.375,385.7813 1900.5469,385.7813 Q1897.5938,385.7813 1896.0313,383.8438 Q1894.4844,381.8906 1894.4844,378.2188 Q1894.4844,374.5469 1896.0313,372.6094 Q1897.5938,370.6563 1900.5469,370.6563 Q1901.375,370.6563 1902.125,370.8281 Q1902.8906,371 1903.5625,371.3594 L1903.5625,374.5625 Q1902.8125,373.875 1902.1094,373.5625 Q1901.4219,373.25 1900.6719,373.25 Q1899.0938,373.25 1898.2813,374.5 Q1897.4844,375.75 1897.4844,378.2188 Q1897.4844,380.6875 1898.2813,381.9375 Q1899.0938,383.1875 1900.6719,383.1875 Q1901.4219,383.1875 1902.1094,382.875 Q1902.8125,382.5625 1903.5625,381.875 L1903.5625,385.0781 Z " fill="#000000"/><text fill="#000000" font-family="sans-serif" font-size="20" lengthAdjust="spacing" textLength="180" x="1915.5" y="384.9238">AgencyRepository</text><line style="stroke:#4169E1;stroke-width:0.5;" x1="1885.5" x2="2097.5" y1="395" y2="395"/><line style="stroke:#4169E1;stroke-width:0.5;" x1="1885.5" x2="2097.5" y1="403" y2="403"/></g><!--class Agency--><g id="elem_Agency"><rect codeLine="29" fill="#FFDAB9" height="166.4063" id="Agency" rx="2.5" ry="2.5" style="stroke:#4169E1;stroke-width:0.5;" width="222" x="1794.5" y="885"/><ellipse cx="1864" cy="902" fill="#ADD1B2" rx="12" ry="12" style="stroke:#181818;stroke-width:1.0;"/><path d="M1867.0625,909.0781 Q1866.375,909.4375 1865.625,909.6094 Q1864.875,909.7813 1864.0469,909.7813 Q1861.0938,909.7813 1859.5313,907.8438 Q1857.9844,905.8906 1857.9844,902.2188 Q1857.9844,898.5469 1859.5313,896.6094 Q1861.0938,894.6563 1864.0469,894.6563 Q1864.875,894.6563 1865.625,894.8281 Q1866.3906,895 1867.0625,895.3594 L1867.0625,898.5625 Q1866.3125,897.875 1865.6094,897.5625 Q1864.9219,897.25 1864.1719,897.25 Q1862.5938,897.25 1861.7813,898.5 Q1860.9844,899.75 1860.9844,902.2188 Q1860.9844,904.6875 1861.7813,905.9375 Q1862.5938,907.1875 1864.1719,907.1875 Q1864.9219,907.1875 1865.6094,906.875 Q1866.3125,906.5625 1867.0625,905.875 L1867.0625,909.0781 Z " fill="#000000"/><text fill="#000000" font-family="sans-serif" font-size="20" lengthAdjust="spacing" textLength="74" x="1886" y="908.9238">Agency</text><line style="stroke:#4169E1;stroke-width:0.5;" x1="1795.5" x2="2015.5" y1="919" y2="919"/><text fill="#000000" font-family="sans-serif" font-size="20" lengthAdjust="spacing" textLength="93" x="1800.5" y="941.5645">-String id</text><text fill="#000000" font-family="sans-serif" font-size="20" lengthAdjust="spacing" textLength="192" x="1800.5" y="964.8457">-String designation</text><text fill="#000000" font-family="sans-serif" font-size="20" lengthAdjust="spacing" textLength="184" x="1800.5" y="988.127">-int phoneNumber</text><text fill="#000000" font-family="sans-serif" font-size="20" lengthAdjust="spacing" textLength="210" x="1800.5" y="1011.4082">-String emailAddress</text><text fill="#000000" font-family="sans-serif" font-size="20" lengthAdjust="spacing" textLength="171" x="1800.5" y="1034.6895">-Address address</text><line style="stroke:#4169E1;stroke-width:0.5;" x1="1795.5" x2="2015.5" y1="1043.4063" y2="1043.4063"/></g><!--class Request--><g id="elem_Request"><rect codeLine="36" fill="#FFDAB9" height="119.8438" id="Request" rx="2.5" ry="2.5" style="stroke:#4169E1;stroke-width:0.5;" width="222" x="1369.5" y="441"/><ellipse cx="1435" cy="458" fill="#ADD1B2" rx="12" ry="12" style="stroke:#181818;stroke-width:1.0;"/><path d="M1438.0625,465.0781 Q1437.375,465.4375 1436.625,465.6094 Q1435.875,465.7813 1435.0469,465.7813 Q1432.0938,465.7813 1430.5313,463.8438 Q1428.9844,461.8906 1428.9844,458.2188 Q1428.9844,454.5469 1430.5313,452.6094 Q1432.0938,450.6563 1435.0469,450.6563 Q1435.875,450.6563 1436.625,450.8281 Q1437.3906,451 1438.0625,451.3594 L1438.0625,454.5625 Q1437.3125,453.875 1436.6094,453.5625 Q1435.9219,453.25 1435.1719,453.25 Q1433.5938,453.25 1432.7813,454.5 Q1431.9844,455.75 1431.9844,458.2188 Q1431.9844,460.6875 1432.7813,461.9375 Q1433.5938,463.1875 1435.1719,463.1875 Q1435.9219,463.1875 1436.6094,462.875 Q1437.3125,462.5625 1438.0625,461.875 L1438.0625,465.0781 Z " fill="#000000"/><text fill="#000000" font-family="sans-serif" font-size="20" lengthAdjust="spacing" textLength="82" x="1457" y="464.9238">Request</text><line style="stroke:#4169E1;stroke-width:0.5;" x1="1370.5" x2="1590.5" y1="475" y2="475"/><text fill="#000000" font-family="sans-serif" font-size="20" lengthAdjust="spacing" textLength="182" x="1375.5" y="497.5645">-Property property</text><text fill="#000000" font-family="sans-serif" font-size="20" lengthAdjust="spacing" textLength="210" x="1375.5" y="520.8457">-Employee employee</text><text fill="#000000" font-family="sans-serif" font-size="20" lengthAdjust="spacing" textLength="101" x="1375.5" y="544.127">-User user</text><line style="stroke:#4169E1;stroke-width:0.5;" x1="1370.5" x2="1590.5" y1="552.8438" y2="552.8438"/></g><!--class Property--><g id="elem_Property"><rect codeLine="41" fill="#FFDAB9" height="189.6875" id="Property" rx="2.5" ry="2.5" style="stroke:#4169E1;stroke-width:0.5;" width="337" x="724" y="622"/><ellipse cx="845.5" cy="639" fill="#A9DCDF" rx="12" ry="12" style="stroke:#181818;stroke-width:1.0;"/><path d="M845.5156,633.8125 L844.1563,639.7656 L846.8906,639.7656 L845.5156,633.8125 Z M843.7656,631.1719 L847.2813,631.1719 L851.2188,645.75 L848.3438,645.75 L847.4375,642.1406 L843.5781,642.1406 L842.7031,645.75 L839.8281,645.75 L843.7656,631.1719 Z " fill="#000000"/><text fill="#000000" font-family="sans-serif" font-size="20" font-style="italic" lengthAdjust="spacing" textLength="85" x="867.5" y="645.9238">Property</text><line style="stroke:#4169E1;stroke-width:0.5;" x1="725" x2="1060" y1="656" y2="656"/><text fill="#000000" font-family="sans-serif" font-size="20" lengthAdjust="spacing" textLength="175" x="730" y="678.5645">-double areaInM2</text><text fill="#000000" font-family="sans-serif" font-size="20" lengthAdjust="spacing" textLength="325" x="730" y="701.8457">-double distanceFromCityCenter</text><text fill="#000000" font-family="sans-serif" font-size="20" lengthAdjust="spacing" textLength="300" x="730" y="725.127">-ArrayList &lt;String&gt; photoURL</text><text fill="#000000" font-family="sans-serif" font-size="20" lengthAdjust="spacing" textLength="202" x="730" y="748.4082">-String typeProperty</text><text fill="#000000" font-family="sans-serif" font-size="20" lengthAdjust="spacing" textLength="171" x="730" y="771.6895">-Address address</text><text fill="#000000" font-family="sans-serif" font-size="20" lengthAdjust="spacing" textLength="101" x="730" y="794.9707">-Deal deal</text><line style="stroke:#4169E1;stroke-width:0.5;" x1="725" x2="1060" y1="803.6875" y2="803.6875"/></g><!--class Home--><g id="elem_Home"><rect codeLine="49" fill="#FFDAB9" height="143.125" id="Home" rx="2.5" ry="2.5" style="stroke:#4169E1;stroke-width:0.5;" width="415" x="175" y="896.5"/><ellipse cx="348.5" cy="913.5" fill="#A9DCDF" rx="12" ry="12" style="stroke:#181818;stroke-width:1.0;"/><path d="M348.5156,908.3125 L347.1563,914.2656 L349.8906,914.2656 L348.5156,908.3125 Z M346.7656,905.6719 L350.2813,905.6719 L354.2188,920.25 L351.3438,920.25 L350.4375,916.6406 L346.5781,916.6406 L345.7031,920.25 L342.8281,920.25 L346.7656,905.6719 Z " fill="#000000"/><text fill="#000000" font-family="sans-serif" font-size="20" font-style="italic" lengthAdjust="spacing" textLength="59" x="370.5" y="920.4238">Home</text><line style="stroke:#4169E1;stroke-width:0.5;" x1="176" x2="589" y1="930.5" y2="930.5"/><text fill="#000000" font-family="sans-serif" font-size="20" lengthAdjust="spacing" textLength="243" x="181" y="953.0645">-int numberOfBedrooms</text><text fill="#000000" font-family="sans-serif" font-size="20" lengthAdjust="spacing" textLength="251" x="181" y="976.3457">-int numberOfBathrooms</text><text fill="#000000" font-family="sans-serif" font-size="20" lengthAdjust="spacing" textLength="279" x="181" y="999.627">-int numberOfParkingSpace</text><text fill="#000000" font-family="sans-serif" font-size="20" lengthAdjust="spacing" textLength="403" x="181" y="1022.9082">-ArrayList &lt;String&gt; availableEquipment</text><line style="stroke:#4169E1;stroke-width:0.5;" x1="176" x2="589" y1="1031.625" y2="1031.625"/></g><!--class House--><g id="elem_House"><rect codeLine="55" fill="#FFDAB9" height="119.8438" id="House" rx="2.5" ry="2.5" style="stroke:#4169E1;stroke-width:0.5;" width="257" x="7" y="1147"/><ellipse cx="100" cy="1164" fill="#ADD1B2" rx="12" ry="12" style="stroke:#181818;stroke-width:1.0;"/><path d="M103.0625,1171.0781 Q102.375,1171.4375 101.625,1171.6094 Q100.875,1171.7813 100.0469,1171.7813 Q97.0938,1171.7813 95.5313,1169.8438 Q93.9844,1167.8906 93.9844,1164.2188 Q93.9844,1160.5469 95.5313,1158.6094 Q97.0938,1156.6563 100.0469,1156.6563 Q100.875,1156.6563 101.625,1156.8281 Q102.3906,1157 103.0625,1157.3594 L103.0625,1160.5625 Q102.3125,1159.875 101.6094,1159.5625 Q100.9219,1159.25 100.1719,1159.25 Q98.5938,1159.25 97.7813,1160.5 Q96.9844,1161.75 96.9844,1164.2188 Q96.9844,1166.6875 97.7813,1167.9375 Q98.5938,1169.1875 100.1719,1169.1875 Q100.9219,1169.1875 101.6094,1168.875 Q102.3125,1168.5625 103.0625,1167.875 L103.0625,1171.0781 Z " fill="#000000"/><text fill="#000000" font-family="sans-serif" font-size="20" lengthAdjust="spacing" textLength="62" x="122" y="1170.9238">House</text><line style="stroke:#4169E1;stroke-width:0.5;" x1="8" x2="263" y1="1181" y2="1181"/><text fill="#000000" font-family="sans-serif" font-size="20" lengthAdjust="spacing" textLength="193" x="13" y="1203.5645">-boolean basement</text><text fill="#000000" font-family="sans-serif" font-size="20" lengthAdjust="spacing" textLength="245" x="13" y="1226.8457">-boolean inhabitableLoft</text><text fill="#000000" font-family="sans-serif" font-size="20" lengthAdjust="spacing" textLength="202" x="13" y="1250.127">-String sunExposure</text><line style="stroke:#4169E1;stroke-width:0.5;" x1="8" x2="263" y1="1258.8438" y2="1258.8438"/></g><!--class Appartement--><g id="elem_Appartement"><rect codeLine="60" fill="#FFDAB9" height="50" id="Appartement" rx="2.5" ry="2.5" style="stroke:#4169E1;stroke-width:0.5;" width="167" x="299" y="1182"/><ellipse cx="315" cy="1199" fill="#ADD1B2" rx="12" ry="12" style="stroke:#181818;stroke-width:1.0;"/><path d="M318.0625,1206.0781 Q317.375,1206.4375 316.625,1206.6094 Q315.875,1206.7813 315.0469,1206.7813 Q312.0938,1206.7813 310.5313,1204.8438 Q308.9844,1202.8906 308.9844,1199.2188 Q308.9844,1195.5469 310.5313,1193.6094 Q312.0938,1191.6563 315.0469,1191.6563 Q315.875,1191.6563 316.625,1191.8281 Q317.3906,1192 318.0625,1192.3594 L318.0625,1195.5625 Q317.3125,1194.875 316.6094,1194.5625 Q315.9219,1194.25 315.1719,1194.25 Q313.5938,1194.25 312.7813,1195.5 Q311.9844,1196.75 311.9844,1199.2188 Q311.9844,1201.6875 312.7813,1202.9375 Q313.5938,1204.1875 315.1719,1204.1875 Q315.9219,1204.1875 316.6094,1203.875 Q317.3125,1203.5625 318.0625,1202.875 L318.0625,1206.0781 Z " fill="#000000"/><text fill="#000000" font-family="sans-serif" font-size="20" lengthAdjust="spacing" textLength="133" x="330" y="1205.9238">Appartement</text><line style="stroke:#4169E1;stroke-width:0.5;" x1="300" x2="465" y1="1216" y2="1216"/><line style="stroke:#4169E1;stroke-width:0.5;" x1="300" x2="465" y1="1224" y2="1224"/></g><!--class Land--><g id="elem_Land"><rect codeLine="63" fill="#FFDAB9" height="50" id="Land" rx="2.5" ry="2.5" style="stroke:#4169E1;stroke-width:0.5;" width="83" x="634" y="943"/><ellipse cx="650" cy="960" fill="#ADD1B2" rx="12" ry="12" style="stroke:#181818;stroke-width:1.0;"/><path d="M653.0625,967.0781 Q652.375,967.4375 651.625,967.6094 Q650.875,967.7813 650.0469,967.7813 Q647.0938,967.7813 645.5313,965.8438 Q643.9844,963.8906 643.9844,960.2188 Q643.9844,956.5469 645.5313,954.6094 Q647.0938,952.6563 650.0469,952.6563 Q650.875,952.6563 651.625,952.8281 Q652.3906,953 653.0625,953.3594 L653.0625,956.5625 Q652.3125,955.875 651.6094,955.5625 Q650.9219,955.25 650.1719,955.25 Q648.5938,955.25 647.7813,956.5 Q646.9844,957.75 646.9844,960.2188 Q646.9844,962.6875 647.7813,963.9375 Q648.5938,965.1875 650.1719,965.1875 Q650.9219,965.1875 651.6094,964.875 Q652.3125,964.5625 653.0625,963.875 L653.0625,967.0781 Z " fill="#000000"/><text fill="#000000" font-family="sans-serif" font-size="20" lengthAdjust="spacing" textLength="49" x="665" y="966.9238">Land</text><line style="stroke:#4169E1;stroke-width:0.5;" x1="635" x2="716" y1="977" y2="977"/><line style="stroke:#4169E1;stroke-width:0.5;" x1="635" x2="716" y1="985" y2="985"/></g><!--class Deal--><g id="elem_Deal"><rect codeLine="66" fill="#FFDAB9" height="96.5625" id="Deal" rx="2.5" ry="2.5" style="stroke:#4169E1;stroke-width:0.5;" width="281" x="752" y="919.5"/><ellipse cx="865.5" cy="936.5" fill="#A9DCDF" rx="12" ry="12" style="stroke:#181818;stroke-width:1.0;"/><path d="M865.5156,931.3125 L864.1563,937.2656 L866.8906,937.2656 L865.5156,931.3125 Z M863.7656,928.6719 L867.2813,928.6719 L871.2188,943.25 L868.3438,943.25 L867.4375,939.6406 L863.5781,939.6406 L862.7031,943.25 L859.8281,943.25 L863.7656,928.6719 Z " fill="#000000"/><text fill="#000000" font-family="sans-serif" font-size="20" font-style="italic" lengthAdjust="spacing" textLength="45" x="887.5" y="943.4238">Deal</text><line style="stroke:#4169E1;stroke-width:0.5;" x1="753" x2="1032" y1="953.5" y2="953.5"/><text fill="#000000" font-family="sans-serif" font-size="20" lengthAdjust="spacing" textLength="232" x="758" y="976.0645">-enum public DealType</text><line style="stroke:#4169E1;stroke-width:0.5;" x1="753" x2="1032" y1="984.7813" y2="984.7813"/><text fill="#000000" font-family="sans-serif" font-size="20" lengthAdjust="spacing" textLength="269" x="758" y="1007.3457">+Deal(DealType:dealType)</text></g><!--class Sale--><g id="elem_Sale"><rect codeLine="70" fill="#FFDAB9" height="96.5625" id="Sale" rx="2.5" ry="2.5" style="stroke:#4169E1;stroke-width:0.5;" width="285" x="501" y="1158.5"/><ellipse cx="617.5" cy="1175.5" fill="#ADD1B2" rx="12" ry="12" style="stroke:#181818;stroke-width:1.0;"/><path d="M620.5625,1182.5781 Q619.875,1182.9375 619.125,1183.1094 Q618.375,1183.2813 617.5469,1183.2813 Q614.5938,1183.2813 613.0313,1181.3438 Q611.4844,1179.3906 611.4844,1175.7188 Q611.4844,1172.0469 613.0313,1170.1094 Q614.5938,1168.1563 617.5469,1168.1563 Q618.375,1168.1563 619.125,1168.3281 Q619.8906,1168.5 620.5625,1168.8594 L620.5625,1172.0625 Q619.8125,1171.375 619.1094,1171.0625 Q618.4219,1170.75 617.6719,1170.75 Q616.0938,1170.75 615.2813,1172 Q614.4844,1173.25 614.4844,1175.7188 Q614.4844,1178.1875 615.2813,1179.4375 Q616.0938,1180.6875 617.6719,1180.6875 Q618.4219,1180.6875 619.1094,1180.375 Q619.8125,1180.0625 620.5625,1179.375 L620.5625,1182.5781 Z " fill="#000000"/><text fill="#000000" font-family="sans-serif" font-size="20" lengthAdjust="spacing" textLength="43" x="639.5" y="1182.4238">Sale</text><line style="stroke:#4169E1;stroke-width:0.5;" x1="502" x2="785" y1="1192.5" y2="1192.5"/><text fill="#000000" font-family="sans-serif" font-size="20" lengthAdjust="spacing" textLength="216" x="507" y="1215.0645">-double propertyPrice</text><line style="stroke:#4169E1;stroke-width:0.5;" x1="502" x2="785" y1="1223.7813" y2="1223.7813"/><text fill="#000000" font-family="sans-serif" font-size="20" lengthAdjust="spacing" textLength="273" x="507" y="1246.3457">+createSale(propertyPrice)</text></g><!--class Rent--><g id="elem_Rent"><rect codeLine="74" fill="#FFDAB9" height="119.8438" id="Rent" rx="2.5" ry="2.5" style="stroke:#4169E1;stroke-width:0.5;" width="469" x="821" y="1147"/><ellipse cx="1027.5" cy="1164" fill="#ADD1B2" rx="12" ry="12" style="stroke:#181818;stroke-width:1.0;"/><path d="M1030.5625,1171.0781 Q1029.875,1171.4375 1029.125,1171.6094 Q1028.375,1171.7813 1027.5469,1171.7813 Q1024.5938,1171.7813 1023.0313,1169.8438 Q1021.4844,1167.8906 1021.4844,1164.2188 Q1021.4844,1160.5469 1023.0313,1158.6094 Q1024.5938,1156.6563 1027.5469,1156.6563 Q1028.375,1156.6563 1029.125,1156.8281 Q1029.8906,1157 1030.5625,1157.3594 L1030.5625,1160.5625 Q1029.8125,1159.875 1029.1094,1159.5625 Q1028.4219,1159.25 1027.6719,1159.25 Q1026.0938,1159.25 1025.2813,1160.5 Q1024.4844,1161.75 1024.4844,1164.2188 Q1024.4844,1166.6875 1025.2813,1167.9375 Q1026.0938,1169.1875 1027.6719,1169.1875 Q1028.4219,1169.1875 1029.1094,1168.875 Q1029.8125,1168.5625 1030.5625,1167.875 L1030.5625,1171.0781 Z " fill="#000000"/><text fill="#000000" font-family="sans-serif" font-size="20" lengthAdjust="spacing" textLength="47" x="1049.5" y="1170.9238">Rent</text><line style="stroke:#4169E1;stroke-width:0.5;" x1="822" x2="1289" y1="1181" y2="1181"/><text fill="#000000" font-family="sans-serif" font-size="20" lengthAdjust="spacing" textLength="214" x="827" y="1203.5645">-double propertyRent</text><text fill="#000000" font-family="sans-serif" font-size="20" lengthAdjust="spacing" textLength="210" x="827" y="1226.8457">-int contractDuration</text><line style="stroke:#4169E1;stroke-width:0.5;" x1="822" x2="1289" y1="1235.5625" y2="1235.5625"/><text fill="#000000" font-family="sans-serif" font-size="20" lengthAdjust="spacing" textLength="457" x="827" y="1258.127">+createRent(propertyRent, contractDuration)</text></g><!--class UserRepository--><g id="elem_UserRepository"><rect codeLine="79" fill="#FFDAB9" height="50" id="UserRepository" rx="2.5" ry="2.5" style="stroke:#4169E1;stroke-width:0.5;" width="185" x="1594" y="361"/><ellipse cx="1610" cy="378" fill="#ADD1B2" rx="12" ry="12" style="stroke:#181818;stroke-width:1.0;"/><path d="M1613.0625,385.0781 Q1612.375,385.4375 1611.625,385.6094 Q1610.875,385.7813 1610.0469,385.7813 Q1607.0938,385.7813 1605.5313,383.8438 Q1603.9844,381.8906 1603.9844,378.2188 Q1603.9844,374.5469 1605.5313,372.6094 Q1607.0938,370.6563 1610.0469,370.6563 Q1610.875,370.6563 1611.625,370.8281 Q1612.3906,371 1613.0625,371.3594 L1613.0625,374.5625 Q1612.3125,373.875 1611.6094,373.5625 Q1610.9219,373.25 1610.1719,373.25 Q1608.5938,373.25 1607.7813,374.5 Q1606.9844,375.75 1606.9844,378.2188 Q1606.9844,380.6875 1607.7813,381.9375 Q1608.5938,383.1875 1610.1719,383.1875 Q1610.9219,383.1875 1611.6094,382.875 Q1612.3125,382.5625 1613.0625,381.875 L1613.0625,385.0781 Z " fill="#000000"/><text fill="#000000" font-family="sans-serif" font-size="20" lengthAdjust="spacing" textLength="151" x="1625" y="384.9238">UserRepository</text><line style="stroke:#4169E1;stroke-width:0.5;" x1="1595" x2="1778" y1="395" y2="395"/><line style="stroke:#4169E1;stroke-width:0.5;" x1="1595" x2="1778" y1="403" y2="403"/></g><!--class User--><g id="elem_User"><rect codeLine="82" fill="#FFDAB9" height="73.2813" id="User" rx="2.5" ry="2.5" style="stroke:#4169E1;stroke-width:0.5;" width="160" x="1400.5" y="680.5"/><ellipse cx="1453.5" cy="697.5" fill="#ADD1B2" rx="12" ry="12" style="stroke:#181818;stroke-width:1.0;"/><path d="M1456.5625,704.5781 Q1455.875,704.9375 1455.125,705.1094 Q1454.375,705.2813 1453.5469,705.2813 Q1450.5938,705.2813 1449.0313,703.3438 Q1447.4844,701.3906 1447.4844,697.7188 Q1447.4844,694.0469 1449.0313,692.1094 Q1450.5938,690.1563 1453.5469,690.1563 Q1454.375,690.1563 1455.125,690.3281 Q1455.8906,690.5 1456.5625,690.8594 L1456.5625,694.0625 Q1455.8125,693.375 1455.1094,693.0625 Q1454.4219,692.75 1453.6719,692.75 Q1452.0938,692.75 1451.2813,694 Q1450.4844,695.25 1450.4844,697.7188 Q1450.4844,700.1875 1451.2813,701.4375 Q1452.0938,702.6875 1453.6719,702.6875 Q1454.4219,702.6875 1455.1094,702.375 Q1455.8125,702.0625 1456.5625,701.375 L1456.5625,704.5781 Z " fill="#000000"/><text fill="#000000" font-family="sans-serif" font-size="20" lengthAdjust="spacing" textLength="45" x="1475.5" y="704.4238">User</text><line style="stroke:#4169E1;stroke-width:0.5;" x1="1401.5" x2="1559.5" y1="714.5" y2="714.5"/><text fill="#000000" font-family="sans-serif" font-size="20" lengthAdjust="spacing" textLength="148" x="1406.5" y="737.0645">-Person person</text><line style="stroke:#4169E1;stroke-width:0.5;" x1="1401.5" x2="1559.5" y1="745.7813" y2="745.7813"/></g><!--class EmployeeRepository--><g id="elem_EmployeeRepository"><rect codeLine="85" fill="#FFDAB9" height="50" id="EmployeeRepository" rx="2.5" ry="2.5" style="stroke:#4169E1;stroke-width:0.5;" width="239" x="1717" y="476"/><ellipse cx="1733" cy="493" fill="#ADD1B2" rx="12" ry="12" style="stroke:#181818;stroke-width:1.0;"/><path d="M1736.0625,500.0781 Q1735.375,500.4375 1734.625,500.6094 Q1733.875,500.7813 1733.0469,500.7813 Q1730.0938,500.7813 1728.5313,498.8438 Q1726.9844,496.8906 1726.9844,493.2188 Q1726.9844,489.5469 1728.5313,487.6094 Q1730.0938,485.6563 1733.0469,485.6563 Q1733.875,485.6563 1734.625,485.8281 Q1735.3906,486 1736.0625,486.3594 L1736.0625,489.5625 Q1735.3125,488.875 1734.6094,488.5625 Q1733.9219,488.25 1733.1719,488.25 Q1731.5938,488.25 1730.7813,489.5 Q1729.9844,490.75 1729.9844,493.2188 Q1729.9844,495.6875 1730.7813,496.9375 Q1731.5938,498.1875 1733.1719,498.1875 Q1733.9219,498.1875 1734.6094,497.875 Q1735.3125,497.5625 1736.0625,496.875 L1736.0625,500.0781 Z " fill="#000000"/><text fill="#000000" font-family="sans-serif" font-size="20" lengthAdjust="spacing" textLength="205" x="1748" y="499.9238">EmployeeRepository</text><line style="stroke:#4169E1;stroke-width:0.5;" x1="1718" x2="1955" y1="510" y2="510"/><line style="stroke:#4169E1;stroke-width:0.5;" x1="1718" x2="1955" y1="518" y2="518"/></g><!--class Employee--><g id="elem_Employee"><rect codeLine="88" fill="#FFDAB9" height="119.8438" id="Employee" rx="2.5" ry="2.5" style="stroke:#4169E1;stroke-width:0.5;" width="171" x="1791" y="657"/><ellipse cx="1824.1" cy="674" fill="#ADD1B2" rx="12" ry="12" style="stroke:#181818;stroke-width:1.0;"/><path d="M1827.1625,681.0781 Q1826.475,681.4375 1825.725,681.6094 Q1824.975,681.7813 1824.1469,681.7813 Q1821.1938,681.7813 1819.6313,679.8438 Q1818.0844,677.8906 1818.0844,674.2188 Q1818.0844,670.5469 1819.6313,668.6094 Q1821.1938,666.6563 1824.1469,666.6563 Q1824.975,666.6563 1825.725,666.8281 Q1826.4906,667 1827.1625,667.3594 L1827.1625,670.5625 Q1826.4125,669.875 1825.7094,669.5625 Q1825.0219,669.25 1824.2719,669.25 Q1822.6938,669.25 1821.8813,670.5 Q1821.0844,671.75 1821.0844,674.2188 Q1821.0844,676.6875 1821.8813,677.9375 Q1822.6938,679.1875 1824.2719,679.1875 Q1825.0219,679.1875 1825.7094,678.875 Q1826.4125,678.5625 1827.1625,677.875 L1827.1625,681.0781 Z " fill="#000000"/><text fill="#000000" font-family="sans-serif" font-size="20" lengthAdjust="spacing" textLength="99" x="1842.9" y="680.9238">Employee</text><line style="stroke:#4169E1;stroke-width:0.5;" x1="1792" x2="1961" y1="691" y2="691"/><text fill="#000000" font-family="sans-serif" font-size="20" lengthAdjust="spacing" textLength="159" x="1797" y="713.5645">-Agency agency</text><text fill="#000000" font-family="sans-serif" font-size="20" lengthAdjust="spacing" textLength="148" x="1797" y="736.8457">-Person person</text><text fill="#000000" font-family="sans-serif" font-size="20" lengthAdjust="spacing" textLength="101" x="1797" y="760.127">-Role Role</text><line style="stroke:#4169E1;stroke-width:0.5;" x1="1792" x2="1961" y1="768.8438" y2="768.8438"/></g><!--class Staff--><g id="elem_Staff"><rect codeLine="93" fill="#FFDAB9" height="96.5625" id="Staff" rx="2.5" ry="2.5" style="stroke:#4169E1;stroke-width:0.5;" width="160" x="1595.5" y="668.5"/><ellipse cx="1647.5" cy="685.5" fill="#ADD1B2" rx="12" ry="12" style="stroke:#181818;stroke-width:1.0;"/><path d="M1650.5625,692.5781 Q1649.875,692.9375 1649.125,693.1094 Q1648.375,693.2813 1647.5469,693.2813 Q1644.5938,693.2813 1643.0313,691.3438 Q1641.4844,689.3906 1641.4844,685.7188 Q1641.4844,682.0469 1643.0313,680.1094 Q1644.5938,678.1563 1647.5469,678.1563 Q1648.375,678.1563 1649.125,678.3281 Q1649.8906,678.5 1650.5625,678.8594 L1650.5625,682.0625 Q1649.8125,681.375 1649.1094,681.0625 Q1648.4219,680.75 1647.6719,680.75 Q1646.0938,680.75 1645.2813,682 Q1644.4844,683.25 1644.4844,685.7188 Q1644.4844,688.1875 1645.2813,689.4375 Q1646.0938,690.6875 1647.6719,690.6875 Q1648.4219,690.6875 1649.1094,690.375 Q1649.8125,690.0625 1650.5625,689.375 L1650.5625,692.5781 Z " fill="#000000"/><text fill="#000000" font-family="sans-serif" font-size="20" lengthAdjust="spacing" textLength="47" x="1669.5" y="692.4238">Staff</text><line style="stroke:#4169E1;stroke-width:0.5;" x1="1596.5" x2="1754.5" y1="702.5" y2="702.5"/><text fill="#000000" font-family="sans-serif" font-size="20" lengthAdjust="spacing" textLength="148" x="1601.5" y="725.0645">-Person person</text><text fill="#000000" font-family="sans-serif" font-size="20" lengthAdjust="spacing" textLength="95" x="1601.5" y="748.3457">-Role role</text><line style="stroke:#4169E1;stroke-width:0.5;" x1="1596.5" x2="1754.5" y1="757.0625" y2="757.0625"/></g><!--class AnnouncementRepository--><g id="elem_AnnouncementRepository"><rect codeLine="98" fill="#FFDAB9" height="50" id="AnnouncementRepository" rx="2.5" ry="2.5" style="stroke:#4169E1;stroke-width:0.5;" width="294" x="1382.5" y="281"/><ellipse cx="1398.5" cy="298" fill="#ADD1B2" rx="12" ry="12" style="stroke:#181818;stroke-width:1.0;"/><path d="M1401.5625,305.0781 Q1400.875,305.4375 1400.125,305.6094 Q1399.375,305.7813 1398.5469,305.7813 Q1395.5938,305.7813 1394.0313,303.8438 Q1392.4844,301.8906 1392.4844,298.2188 Q1392.4844,294.5469 1394.0313,292.6094 Q1395.5938,290.6563 1398.5469,290.6563 Q1399.375,290.6563 1400.125,290.8281 Q1400.8906,291 1401.5625,291.3594 L1401.5625,294.5625 Q1400.8125,293.875 1400.1094,293.5625 Q1399.4219,293.25 1398.6719,293.25 Q1397.0938,293.25 1396.2813,294.5 Q1395.4844,295.75 1395.4844,298.2188 Q1395.4844,300.6875 1396.2813,301.9375 Q1397.0938,303.1875 1398.6719,303.1875 Q1399.4219,303.1875 1400.1094,302.875 Q1400.8125,302.5625 1401.5625,301.875 L1401.5625,305.0781 Z " fill="#000000"/><text fill="#000000" font-family="sans-serif" font-size="20" lengthAdjust="spacing" textLength="260" x="1413.5" y="304.9238">AnnouncementRepository</text><line style="stroke:#4169E1;stroke-width:0.5;" x1="1383.5" x2="1675.5" y1="315" y2="315"/><line style="stroke:#4169E1;stroke-width:0.5;" x1="1383.5" x2="1675.5" y1="323" y2="323"/></g><!--class Announcement--><g id="elem_Announcement"><rect codeLine="101" fill="#FFDAB9" height="73.2813" id="Announcement" rx="2.5" ry="2.5" style="stroke:#4169E1;stroke-width:0.5;" width="268" x="1097.5" y="680.5"/><ellipse cx="1150" cy="697.5" fill="#ADD1B2" rx="12" ry="12" style="stroke:#181818;stroke-width:1.0;"/><path d="M1153.0625,704.5781 Q1152.375,704.9375 1151.625,705.1094 Q1150.875,705.2813 1150.0469,705.2813 Q1147.0938,705.2813 1145.5313,703.3438 Q1143.9844,701.3906 1143.9844,697.7188 Q1143.9844,694.0469 1145.5313,692.1094 Q1147.0938,690.1563 1150.0469,690.1563 Q1150.875,690.1563 1151.625,690.3281 Q1152.3906,690.5 1153.0625,690.8594 L1153.0625,694.0625 Q1152.3125,693.375 1151.6094,693.0625 Q1150.9219,692.75 1150.1719,692.75 Q1148.5938,692.75 1147.7813,694 Q1146.9844,695.25 1146.9844,697.7188 Q1146.9844,700.1875 1147.7813,701.4375 Q1148.5938,702.6875 1150.1719,702.6875 Q1150.9219,702.6875 1151.6094,702.375 Q1152.3125,702.0625 1153.0625,701.375 L1153.0625,704.5781 Z " fill="#000000"/><text fill="#000000" font-family="sans-serif" font-size="20" lengthAdjust="spacing" textLength="154" x="1172" y="704.4238">Announcement</text><line style="stroke:#4169E1;stroke-width:0.5;" x1="1098.5" x2="1364.5" y1="714.5" y2="714.5"/><text fill="#000000" font-family="sans-serif" font-size="20" lengthAdjust="spacing" textLength="256" x="1103.5" y="737.0645">-Commission commission</text><line style="stroke:#4169E1;stroke-width:0.5;" x1="1098.5" x2="1364.5" y1="745.7813" y2="745.7813"/></g><!--class AuthenticationRepository--><g id="elem_AuthenticationRepository"><rect codeLine="104" fill="#FFDAB9" height="50" id="AuthenticationRepository" rx="2.5" ry="2.5" style="stroke:#4169E1;stroke-width:0.5;" width="289" x="1960" y="281"/><ellipse cx="1976" cy="298" fill="#ADD1B2" rx="12" ry="12" style="stroke:#181818;stroke-width:1.0;"/><path d="M1979.0625,305.0781 Q1978.375,305.4375 1977.625,305.6094 Q1976.875,305.7813 1976.0469,305.7813 Q1973.0938,305.7813 1971.5313,303.8438 Q1969.9844,301.8906 1969.9844,298.2188 Q1969.9844,294.5469 1971.5313,292.6094 Q1973.0938,290.6563 1976.0469,290.6563 Q1976.875,290.6563 1977.625,290.8281 Q1978.3906,291 1979.0625,291.3594 L1979.0625,294.5625 Q1978.3125,293.875 1977.6094,293.5625 Q1976.9219,293.25 1976.1719,293.25 Q1974.5938,293.25 1973.7813,294.5 Q1972.9844,295.75 1972.9844,298.2188 Q1972.9844,300.6875 1973.7813,301.9375 Q1974.5938,303.1875 1976.1719,303.1875 Q1976.9219,303.1875 1977.6094,302.875 Q1978.3125,302.5625 1979.0625,301.875 L1979.0625,305.0781 Z " fill="#000000"/><text fill="#000000" font-family="sans-serif" font-size="20" lengthAdjust="spacing" textLength="255" x="1991" y="304.9238">AuthenticationRepository</text><line style="stroke:#4169E1;stroke-width:0.5;" x1="1961" x2="2248" y1="315" y2="315"/><line style="stroke:#4169E1;stroke-width:0.5;" x1="1961" x2="2248" y1="323" y2="323"/></g><!--class AuthFacade--><g id="elem_AuthFacade"><rect codeLine="107" fill="#FFDAB9" height="50" id="AuthFacade" rx="2.5" ry="2.5" style="stroke:#4169E1;stroke-width:0.5;" width="154" x="2068.5" y="476"/><ellipse cx="2084.5" cy="493" fill="#ADD1B2" rx="12" ry="12" style="stroke:#181818;stroke-width:1.0;"/><path d="M2087.5625,500.0781 Q2086.875,500.4375 2086.125,500.6094 Q2085.375,500.7813 2084.5469,500.7813 Q2081.5938,500.7813 2080.0313,498.8438 Q2078.4844,496.8906 2078.4844,493.2188 Q2078.4844,489.5469 2080.0313,487.6094 Q2081.5938,485.6563 2084.5469,485.6563 Q2085.375,485.6563 2086.125,485.8281 Q2086.8906,486 2087.5625,486.3594 L2087.5625,489.5625 Q2086.8125,488.875 2086.1094,488.5625 Q2085.4219,488.25 2084.6719,488.25 Q2083.0938,488.25 2082.2813,489.5 Q2081.4844,490.75 2081.4844,493.2188 Q2081.4844,495.6875 2082.2813,496.9375 Q2083.0938,498.1875 2084.6719,498.1875 Q2085.4219,498.1875 2086.1094,497.875 Q2086.8125,497.5625 2087.5625,496.875 L2087.5625,500.0781 Z " fill="#000000"/><text fill="#000000" font-family="sans-serif" font-size="20" lengthAdjust="spacing" textLength="120" x="2099.5" y="499.9238">AuthFacade</text><line style="stroke:#4169E1;stroke-width:0.5;" x1="2069.5" x2="2221.5" y1="510" y2="510"/><line style="stroke:#4169E1;stroke-width:0.5;" x1="2069.5" x2="2221.5" y1="518" y2="518"/></g><!--class Person--><g id="elem_Person"><rect codeLine="110" fill="#FFDAB9" height="189.6875" id="Person" rx="2.5" ry="2.5" style="stroke:#4169E1;stroke-width:0.5;" width="222" x="1370.5" y="873"/><ellipse cx="1443.5" cy="890" fill="#ADD1B2" rx="12" ry="12" style="stroke:#181818;stroke-width:1.0;"/><path d="M1446.5625,897.0781 Q1445.875,897.4375 1445.125,897.6094 Q1444.375,897.7813 1443.5469,897.7813 Q1440.5938,897.7813 1439.0313,895.8438 Q1437.4844,893.8906 1437.4844,890.2188 Q1437.4844,886.5469 1439.0313,884.6094 Q1440.5938,882.6563 1443.5469,882.6563 Q1444.375,882.6563 1445.125,882.8281 Q1445.8906,883 1446.5625,883.3594 L1446.5625,886.5625 Q1445.8125,885.875 1445.1094,885.5625 Q1444.4219,885.25 1443.6719,885.25 Q1442.0938,885.25 1441.2813,886.5 Q1440.4844,887.75 1440.4844,890.2188 Q1440.4844,892.6875 1441.2813,893.9375 Q1442.0938,895.1875 1443.6719,895.1875 Q1444.4219,895.1875 1445.1094,894.875 Q1445.8125,894.5625 1446.5625,893.875 L1446.5625,897.0781 Z " fill="#000000"/><text fill="#000000" font-family="sans-serif" font-size="20" lengthAdjust="spacing" textLength="67" x="1465.5" y="896.9238">Person</text><line style="stroke:#4169E1;stroke-width:0.5;" x1="1371.5" x2="1591.5" y1="907" y2="907"/><text fill="#000000" font-family="sans-serif" font-size="20" lengthAdjust="spacing" textLength="131" x="1376.5" y="929.5645">-String name</text><text fill="#000000" font-family="sans-serif" font-size="20" lengthAdjust="spacing" textLength="207" x="1376.5" y="952.8457">-int passportNumber</text><text fill="#000000" font-family="sans-serif" font-size="20" lengthAdjust="spacing" textLength="152" x="1376.5" y="976.127">-int taxNumber</text><text fill="#000000" font-family="sans-serif" font-size="20" lengthAdjust="spacing" textLength="210" x="1376.5" y="999.4082">-String emailAddress</text><text fill="#000000" font-family="sans-serif" font-size="20" lengthAdjust="spacing" textLength="184" x="1376.5" y="1022.6895">-int phoneNumber</text><text fill="#000000" font-family="sans-serif" font-size="20" lengthAdjust="spacing" textLength="171" x="1376.5" y="1045.9707">-Address address</text><line style="stroke:#4169E1;stroke-width:0.5;" x1="1371.5" x2="1591.5" y1="1054.6875" y2="1054.6875"/></g><!--class Address--><g id="elem_Address"><rect codeLine="118" fill="#FFDAB9" height="166.4063" id="Address" rx="2.5" ry="2.5" style="stroke:#4169E1;stroke-width:0.5;" width="156" x="1403.5" y="1124"/><ellipse cx="1438.4" cy="1141" fill="#ADD1B2" rx="12" ry="12" style="stroke:#181818;stroke-width:1.0;"/><path d="M1441.4625,1148.0781 Q1440.775,1148.4375 1440.025,1148.6094 Q1439.275,1148.7813 1438.4469,1148.7813 Q1435.4938,1148.7813 1433.9313,1146.8438 Q1432.3844,1144.8906 1432.3844,1141.2188 Q1432.3844,1137.5469 1433.9313,1135.6094 Q1435.4938,1133.6563 1438.4469,1133.6563 Q1439.275,1133.6563 1440.025,1133.8281 Q1440.7906,1134 1441.4625,1134.3594 L1441.4625,1137.5625 Q1440.7125,1136.875 1440.0094,1136.5625 Q1439.3219,1136.25 1438.5719,1136.25 Q1436.9938,1136.25 1436.1813,1137.5 Q1435.3844,1138.75 1435.3844,1141.2188 Q1435.3844,1143.6875 1436.1813,1144.9375 Q1436.9938,1146.1875 1438.5719,1146.1875 Q1439.3219,1146.1875 1440.0094,1145.875 Q1440.7125,1145.5625 1441.4625,1144.875 L1441.4625,1148.0781 Z " fill="#000000"/><text fill="#000000" font-family="sans-serif" font-size="20" lengthAdjust="spacing" textLength="80" x="1457.6" y="1147.9238">Address</text><line style="stroke:#4169E1;stroke-width:0.5;" x1="1404.5" x2="1558.5" y1="1158" y2="1158"/><text fill="#000000" font-family="sans-serif" font-size="20" lengthAdjust="spacing" textLength="132" x="1409.5" y="1180.5645">-String street</text><text fill="#000000" font-family="sans-serif" font-size="20" lengthAdjust="spacing" textLength="110" x="1409.5" y="1203.8457">-String city</text><text fill="#000000" font-family="sans-serif" font-size="20" lengthAdjust="spacing" textLength="144" x="1409.5" y="1227.127">-String district</text><text fill="#000000" font-family="sans-serif" font-size="20" lengthAdjust="spacing" textLength="124" x="1409.5" y="1250.4082">-String state</text><text fill="#000000" font-family="sans-serif" font-size="20" lengthAdjust="spacing" textLength="118" x="1409.5" y="1273.6895">-int zipcode</text><line style="stroke:#4169E1;stroke-width:0.5;" x1="1404.5" x2="1558.5" y1="1282.4063" y2="1282.4063"/></g><!--class Role--><g id="elem_Role"><rect codeLine="125" fill="#FFDAB9" height="96.5625" id="Role" rx="2.5" ry="2.5" style="stroke:#4169E1;stroke-width:0.5;" width="131" x="1628" y="919.5"/><ellipse cx="1667.85" cy="936.5" fill="#ADD1B2" rx="12" ry="12" style="stroke:#181818;stroke-width:1.0;"/><path d="M1670.9125,943.5781 Q1670.225,943.9375 1669.475,944.1094 Q1668.725,944.2813 1667.8969,944.2813 Q1664.9438,944.2813 1663.3813,942.3438 Q1661.8344,940.3906 1661.8344,936.7188 Q1661.8344,933.0469 1663.3813,931.1094 Q1664.9438,929.1563 1667.8969,929.1563 Q1668.725,929.1563 1669.475,929.3281 Q1670.2406,929.5 1670.9125,929.8594 L1670.9125,933.0625 Q1670.1625,932.375 1669.4594,932.0625 Q1668.7719,931.75 1668.0219,931.75 Q1666.4438,931.75 1665.6313,933 Q1664.8344,934.25 1664.8344,936.7188 Q1664.8344,939.1875 1665.6313,940.4375 Q1666.4438,941.6875 1668.0219,941.6875 Q1668.7719,941.6875 1669.4594,941.375 Q1670.1625,941.0625 1670.9125,940.375 L1670.9125,943.5781 Z " fill="#000000"/><text fill="#000000" font-family="sans-serif" font-size="20" lengthAdjust="spacing" textLength="44" x="1688.15" y="943.4238">Role</text><line style="stroke:#4169E1;stroke-width:0.5;" x1="1629" x2="1758" y1="953.5" y2="953.5"/><text fill="#000000" font-family="sans-serif" font-size="20" lengthAdjust="spacing" textLength="26" x="1634" y="976.0645">-id</text><text fill="#000000" font-family="sans-serif" font-size="20" lengthAdjust="spacing" textLength="119" x="1634" y="999.3457">-description</text><line style="stroke:#4169E1;stroke-width:0.5;" x1="1629" x2="1758" y1="1008.0625" y2="1008.0625"/></g><!--class Commission--><g id="elem_Commission"><rect codeLine="129" fill="#FFDAB9" height="96.5625" id="Commission" rx="2.5" ry="2.5" style="stroke:#4169E1;stroke-width:0.5;" width="196" x="1139.5" y="919.5"/><ellipse cx="1173.05" cy="936.5" fill="#ADD1B2" rx="12" ry="12" style="stroke:#181818;stroke-width:1.0;"/><path d="M1176.1125,943.5781 Q1175.425,943.9375 1174.675,944.1094 Q1173.925,944.2813 1173.0969,944.2813 Q1170.1438,944.2813 1168.5813,942.3438 Q1167.0344,940.3906 1167.0344,936.7188 Q1167.0344,933.0469 1168.5813,931.1094 Q1170.1438,929.1563 1173.0969,929.1563 Q1173.925,929.1563 1174.675,929.3281 Q1175.4406,929.5 1176.1125,929.8594 L1176.1125,933.0625 Q1175.3625,932.375 1174.6594,932.0625 Q1173.9719,931.75 1173.2219,931.75 Q1171.6438,931.75 1170.8313,933 Q1170.0344,934.25 1170.0344,936.7188 Q1170.0344,939.1875 1170.8313,940.4375 Q1171.6438,941.6875 1173.2219,941.6875 Q1173.9719,941.6875 1174.6594,941.375 Q1175.3625,941.0625 1176.1125,940.375 L1176.1125,943.5781 Z " fill="#000000"/><text fill="#000000" font-family="sans-serif" font-size="20" lengthAdjust="spacing" textLength="123" x="1191.95" y="943.4238">Commission</text><line style="stroke:#4169E1;stroke-width:0.5;" x1="1140.5" x2="1334.5" y1="953.5" y2="953.5"/><text fill="#000000" font-family="sans-serif" font-size="20" lengthAdjust="spacing" textLength="175" x="1145.5" y="976.0645">-commissionType</text><text fill="#000000" font-family="sans-serif" font-size="20" lengthAdjust="spacing" textLength="184" x="1145.5" y="999.3457">-commissionValue</text><line style="stroke:#4169E1;stroke-width:0.5;" x1="1140.5" x2="1334.5" y1="1008.0625" y2="1008.0625"/></g><!--class EmailRepository--><g id="elem_EmailRepository"><rect codeLine="133" fill="#FFDAB9" height="50" id="EmailRepository" rx="2.5" ry="2.5" style="stroke:#4169E1;stroke-width:0.5;" width="197" x="2284" y="281"/><ellipse cx="2300" cy="298" fill="#ADD1B2" rx="12" ry="12" style="stroke:#181818;stroke-width:1.0;"/><path d="M2303.0625,305.0781 Q2302.375,305.4375 2301.625,305.6094 Q2300.875,305.7813 2300.0469,305.7813 Q2297.0938,305.7813 2295.5313,303.8438 Q2293.9844,301.8906 2293.9844,298.2188 Q2293.9844,294.5469 2295.5313,292.6094 Q2297.0938,290.6563 2300.0469,290.6563 Q2300.875,290.6563 2301.625,290.8281 Q2302.3906,291 2303.0625,291.3594 L2303.0625,294.5625 Q2302.3125,293.875 2301.6094,293.5625 Q2300.9219,293.25 2300.1719,293.25 Q2298.5938,293.25 2297.7813,294.5 Q2296.9844,295.75 2296.9844,298.2188 Q2296.9844,300.6875 2297.7813,301.9375 Q2298.5938,303.1875 2300.1719,303.1875 Q2300.9219,303.1875 2301.6094,302.875 Q2302.3125,302.5625 2303.0625,301.875 L2303.0625,305.0781 Z " fill="#000000"/><text fill="#000000" font-family="sans-serif" font-size="20" lengthAdjust="spacing" textLength="163" x="2315" y="304.9238">EmailRepository</text><line style="stroke:#4169E1;stroke-width:0.5;" x1="2285" x2="2480" y1="315" y2="315"/><line style="stroke:#4169E1;stroke-width:0.5;" x1="2285" x2="2480" y1="323" y2="323"/></g><!--link Repositories to Repositories--><g id="link_Repositories_Repositories"><path codeLine="138" d="M2040.73,91.37 C2061.72,95.3 2075.5,102.68 2075.5,113.5 C2075.5,123.39 2063.98,130.41 2045.98,134.54 " fill="none" id="Repositories-to-Repositories" style="stroke:#4169E1;stroke-width:1.0;"/><polygon fill="#4169E1" points="2040.73,135.63,2050.354,137.7227,2045.6262,134.6165,2048.7324,129.8887,2040.73,135.63" style="stroke:#4169E1;stroke-width:1.0;"/><text fill="#000000" font-family="sans-serif" font-size="20" lengthAdjust="spacing" textLength="85" x="2081.5" y="120.5645">instance</text></g><!--link Repositories to AgencyRepository--><g id="link_Repositories_AgencyRepository"><path codeLine="139" d="M1906.17,220.21 C1924.19,275.17 1942.5,331 1942.5,331 C1942.5,331 1954.22,343.92 1966.2,357.12 " fill="none" id="Repositories-to-AgencyRepository" style="stroke:#4169E1;stroke-width:1.0;"/><polygon fill="#4169E1" points="1969.58,360.84,1966.4929,351.4875,1966.2195,357.1377,1960.5692,356.8643,1969.58,360.84" style="stroke:#4169E1;stroke-width:1.0;"/></g><!--link Repositories to UserRepository--><g id="link_Repositories_UserRepository"><path codeLine="140" d="M1799.18,220.24 C1765.43,269.59 1727.91,324.45 1705.8,356.77 " fill="none" id="Repositories-to-UserRepository" style="stroke:#4169E1;stroke-width:1.0;"/><polygon fill="#4169E1" points="1702.92,360.99,1711.3066,355.8262,1705.746,356.8652,1704.7069,351.3046,1702.92,360.99" style="stroke:#4169E1;stroke-width:1.0;"/></g><!--link Repositories to EmployeeRepository--><g id="link_Repositories_EmployeeRepository"><path codeLine="141" d="M1861.91,220.09 C1854.22,304.79 1843.95,417.93 1839.16,470.65 " fill="none" id="Repositories-to-EmployeeRepository" style="stroke:#4169E1;stroke-width:1.0;"/><polygon fill="#4169E1" points="1838.69,475.86,1843.4706,467.2492,1839.1324,470.8796,1835.502,466.5414,1838.69,475.86" style="stroke:#4169E1;stroke-width:1.0;"/></g><!--link Repositories to AnnouncementRepository--><g id="link_Repositories_AnnouncementRepository"><path codeLine="142" d="M1702.25,208.77 C1656.42,234.3 1610.43,259.92 1577.43,278.3 " fill="none" id="Repositories-to-AnnouncementRepository" style="stroke:#4169E1;stroke-width:1.0;"/><polygon fill="#4169E1" points="1572.66,280.96,1582.4678,280.0614,1577.0247,278.5209,1578.5652,273.0778,1572.66,280.96" style="stroke:#4169E1;stroke-width:1.0;"/></g><!--link Repositories to AuthenticationRepository--><g id="link_Repositories_AuthenticationRepository"><path codeLine="143" d="M2000.61,220.06 C2026.57,241.29 2051.69,261.82 2070.73,277.39 " fill="none" id="Repositories-to-AuthenticationRepository" style="stroke:#4169E1;stroke-width:1.0;"/><polygon fill="#4169E1" points="2074.94,280.83,2070.4932,272.0422,2071.0651,277.67,2065.4373,278.242,2074.94,280.83" style="stroke:#4169E1;stroke-width:1.0;"/></g><!--link Repositories to EmailRepository--><g id="link_Repositories_EmailRepository"><path codeLine="144" d="M2040.59,177.54 C2133.4,212.13 2243.44,253.16 2313.12,279.13 " fill="none" id="Repositories-to-EmailRepository" style="stroke:#4169E1;stroke-width:1.0;"/><polygon fill="#4169E1" points="2318.06,280.98,2311.0191,274.0934,2313.3737,279.2369,2308.2301,281.5915,2318.06,280.98" style="stroke:#4169E1;stroke-width:1.0;"/></g><!--link AgencyRepository to Agency--><g id="link_AgencyRepository_Agency"><path codeLine="147" d="M1990.82,411.07 C1988.28,500.97 1979.5,812 1979.5,812 C1979.5,812 1963.85,844.77 1946.95,880.18 " fill="none" id="AgencyRepository-to-Agency" style="stroke:#4169E1;stroke-width:1.0;stroke-dasharray:7.0,7.0;"/><polygon fill="#4169E1" points="1944.67,884.96,1952.143,878.5448,1946.8141,880.4431,1944.9159,875.1142,1944.67,884.96" style="stroke:#4169E1;stroke-width:1.0;"/></g><!--reverse link Agency to Address--><g id="link_Agency_Address"><path codeLine="148" d="M1783.64,1057.8 C1779.13,1061.08 1776.5,1063 1776.5,1063 C1776.5,1063 1647.18,1125.69 1559.78,1168.05 " fill="none" id="Agency-backto-Address" style="stroke:#4169E1;stroke-width:1.0;"/><polygon fill="#4169E1" points="1794.44,1049.93,1787.2353,1050.2334,1784.7443,1057.0006,1791.949,1056.6972,1794.44,1049.93" style="stroke:#4169E1;stroke-width:1.0;"/></g><!--reverse link Announcement to Commission--><g id="link_Announcement_Commission"><path codeLine="149" d="M1232.67,766.68 C1233.74,810.87 1235.3,875.63 1236.35,919.46 " fill="none" id="Announcement-backto-Commission" style="stroke:#4169E1;stroke-width:1.0;"/><polygon fill="#4169E1" points="1232.36,753.68,1228.5062,759.7749,1232.65,765.6765,1236.5038,759.5816,1232.36,753.68" style="stroke:#4169E1;stroke-width:1.0;"/></g><!--reverse link Request to Property--><g id="link_Request_Property"><path codeLine="150" d="M1356.63,539.07 C1238.83,574.32 1079.5,622 1079.5,622 C1079.5,622 1072.51,625.51 1061.23,631.18 " fill="none" id="Request-backto-Property" style="stroke:#4169E1;stroke-width:1.0;"/><polygon fill="#4169E1" points="1369.33,535.27,1362.4343,533.1606,1357.835,538.7145,1364.7307,540.8239,1369.33,535.27" style="stroke:#4169E1;stroke-width:1.0;"/></g><!--reverse link Request to Employee--><g id="link_Request_Employee"><path codeLine="151" d="M1603.91,552.72 C1683.61,585.47 1772.5,622 1772.5,622 C1772.5,622 1790.16,637.96 1810.93,656.74 " fill="none" id="Request-backto-Employee" style="stroke:#4169E1;stroke-width:1.0;"/><polygon fill="#4169E1" points="1591.73,547.71,1595.7594,553.6903,1602.8294,552.271,1598.8001,546.2907,1591.73,547.71" style="stroke:#4169E1;stroke-width:1.0;"/></g><!--reverse link Request to User--><g id="link_Request_User"><path codeLine="152" d="M1480.5,574.39 C1480.5,610.06 1480.5,651.48 1480.5,680.27 " fill="none" id="Request-backto-User" style="stroke:#4169E1;stroke-width:1.0;"/><polygon fill="#4169E1" points="1480.5,561.04,1476.5,567.04,1480.5,573.04,1484.5,567.04,1480.5,561.04" style="stroke:#4169E1;stroke-width:1.0;"/></g><!--reverse link Deal to Sale--><g id="link_Deal_Sale"><path codeLine="153" d="M827.84,1030.54 C785.93,1070.43 732.15,1121.62 693.51,1158.4 " fill="none" id="Deal-backto-Sale" style="stroke:#4169E1;stroke-width:1.0;"/><polygon fill="none" points="823.1,1025.39,842.41,1016.68,832.75,1035.53,823.1,1025.39" style="stroke:#4169E1;stroke-width:1.0;"/></g><!--reverse link Deal to Rent--><g id="link_Deal_Rent"><path codeLine="154" d="M936.71,1033.28 C961,1068.6 990.93,1112.11 1014.66,1146.62 " fill="none" id="Deal-backto-Rent" style="stroke:#4169E1;stroke-width:1.0;"/><polygon fill="none" points="930.86,1037.12,925.29,1016.68,942.39,1029.19,930.86,1037.12" style="stroke:#4169E1;stroke-width:1.0;"/></g><!--reverse link Property to Deal--><g id="link_Property_Deal"><path codeLine="155" d="M892.5,825.15 C892.5,858.09 892.5,892.69 892.5,919.47 " fill="none" id="Property-backto-Deal" style="stroke:#4169E1;stroke-width:1.0;"/><polygon fill="#4169E1" points="892.5,812.14,888.5,818.14,892.5,824.14,896.5,818.14,892.5,812.14" style="stroke:#4169E1;stroke-width:1.0;"/></g><!--reverse link Property to Land--><g id="link_Property_Land"><path codeLine="156" d="M782.12,826.29 C755.46,852.44 734.5,873 734.5,873 C734.5,873 708.18,914.94 690.69,942.79 " fill="none" id="Property-backto-Land" style="stroke:#4169E1;stroke-width:1.0;"/><polygon fill="none" points="777.31,821.19,796.49,812.18,787.12,831.19,777.31,821.19" style="stroke:#4169E1;stroke-width:1.0;"/></g><!--reverse link Property to Home--><g id="link_Property_Home"><path codeLine="157" d="M705.63,809.23 C646.71,838.01 582.54,869.33 527.03,896.44 " fill="none" id="Property-backto-Home" style="stroke:#4169E1;stroke-width:1.0;"/><polygon fill="none" points="702.7,802.88,723.74,800.39,708.84,815.46,702.7,802.88" style="stroke:#4169E1;stroke-width:1.0;"/></g><!--reverse link Property to Address--><g id="link_Property_Address"><path codeLine="158" d="M998.06,821.55 C1026.96,849.91 1050.5,873 1050.5,873 C1050.5,873 1121.5,1063 1121.5,1063 C1121.5,1063 1307.5,1124 1307.5,1124 C1307.5,1124 1357.15,1147.4 1403.41,1169.2 " fill="none" id="Property-backto-Address" style="stroke:#4169E1;stroke-width:1.0;"/><polygon fill="#4169E1" points="988.51,812.18,989.9956,819.2364,997.0806,820.5791,995.595,813.5227,988.51,812.18" style="stroke:#4169E1;stroke-width:1.0;"/></g><!--reverse link Home to House--><g id="link_Home_House"><path codeLine="159" d="M294.25,1053.67 C262.14,1084.48 226.56,1118.62 197.24,1146.76 " fill="none" id="Home-backto-House" style="stroke:#4169E1;stroke-width:1.0;"/><polygon fill="none" points="289.45,1048.58,308.73,1039.79,299.14,1058.68,289.45,1048.58" style="stroke:#4169E1;stroke-width:1.0;"/></g><!--reverse link Home to Appartement--><g id="link_Home_Appartement"><path codeLine="160" d="M382.5,1059.84 C382.5,1103.81 382.5,1153.16 382.5,1181.8 " fill="none" id="Home-backto-Appartement" style="stroke:#4169E1;stroke-width:1.0;"/><polygon fill="none" points="375.5,1059.79,382.5,1039.79,389.5,1059.79,375.5,1059.79" style="stroke:#4169E1;stroke-width:1.0;"/></g><!--link UserRepository to User--><g id="link_UserRepository_User"><path codeLine="162" d="M1675.65,411.19 C1654.22,459 1608.5,561 1608.5,561 C1608.5,561 1551.17,630.42 1513.24,676.35 " fill="none" id="UserRepository-to-User" style="stroke:#4169E1;stroke-width:1.0;stroke-dasharray:7.0,7.0;"/><polygon fill="#4169E1" points="1509.87,680.44,1518.6854,676.048,1513.054,676.5849,1512.5172,670.9536,1509.87,680.44" style="stroke:#4169E1;stroke-width:1.0;"/></g><!--link User to Person--><g id="link_User_Person"><path codeLine="163" d="M1480.64,753.68 C1480.75,781.46 1480.92,821.57 1481.07,859.52 " fill="none" id="User-to-Person" style="stroke:#4169E1;stroke-width:1.0;"/><polygon fill="#4169E1" points="1481.12,872.83,1485.1002,866.8168,1481.0804,860.8301,1477.1002,866.8432,1481.12,872.83" style="stroke:#4169E1;stroke-width:1.0;"/></g><!--reverse link User to Role--><g id="link_User_Role"><path codeLine="164" d="M1519.49,763.57 C1557.31,807.79 1614.45,874.59 1652.83,919.46 " fill="none" id="User-backto-Role" style="stroke:#4169E1;stroke-width:1.0;"/><polygon fill="#4169E1" points="1511.02,753.68,1511.8749,760.8402,1518.8132,762.805,1517.9583,755.6448,1511.02,753.68" style="stroke:#4169E1;stroke-width:1.0;"/></g><!--link EmployeeRepository to Employee--><g id="link_EmployeeRepository_Employee"><path codeLine="167" d="M1841.01,526.13 C1846.67,556.38 1856.58,609.41 1864.49,651.74 " fill="none" id="EmployeeRepository-to-Employee" style="stroke:#4169E1;stroke-width:1.0;stroke-dasharray:7.0,7.0;"/><polygon fill="#4169E1" points="1865.44,656.85,1867.6994,647.2638,1864.5117,651.9369,1859.8385,648.7492,1865.44,656.85" style="stroke:#4169E1;stroke-width:1.0;"/></g><!--link EmployeeRepository to Staff--><g id="link_EmployeeRepository_Staff"><path codeLine="168" d="M1818.34,526.13 C1793.33,559.38 1747.62,620.14 1714.63,663.99 " fill="none" id="EmployeeRepository-to-Staff" style="stroke:#4169E1;stroke-width:1.0;stroke-dasharray:7.0,7.0;"/><polygon fill="#4169E1" points="1711.48,668.18,1720.0882,663.3948,1714.4869,664.1852,1713.6965,658.5838,1711.48,668.18" style="stroke:#4169E1;stroke-width:1.0;"/></g><!--reverse link Employee to Person--><g id="link_Employee_Person"><path codeLine="169" d="M1801.02,786.22 C1784.84,800.84 1772.5,812 1772.5,812 C1772.5,812 1610.5,873 1610.5,873 C1610.5,873 1603.41,878.16 1592.56,886.07 " fill="none" id="Employee-backto-Person" style="stroke:#4169E1;stroke-width:1.0;"/><polygon fill="#4169E1" points="1810.93,777.26,1803.7974,778.321,1802.0334,785.313,1809.1661,784.252,1810.93,777.26" style="stroke:#4169E1;stroke-width:1.0;"/></g><!--reverse link Employee to Role--><g id="link_Employee_Role"><path codeLine="170" d="M1825.27,787.71 C1794.43,829.66 1755.98,881.98 1728.59,919.25 " fill="none" id="Employee-backto-Role" style="stroke:#4169E1;stroke-width:1.0;"/><polygon fill="#4169E1" points="1833.13,777.01,1826.353,779.4742,1826.0211,786.6776,1832.7981,784.2135,1833.13,777.01" style="stroke:#4169E1;stroke-width:1.0;"/></g><!--reverse link Employee to Agency--><g id="link_Employee_Agency"><path codeLine="171" d="M1884.91,790.25 C1888.36,819.86 1892.37,854.3 1895.93,884.86 " fill="none" id="Employee-backto-Agency" style="stroke:#4169E1;stroke-width:1.0;"/><polygon fill="#4169E1" points="1883.37,777.01,1880.089,783.4314,1884.7545,788.9299,1888.0355,782.5084,1883.37,777.01" style="stroke:#4169E1;stroke-width:1.0;"/></g><!--reverse link Staff to Role--><g id="link_Staff_Role"><path codeLine="172" d="M1679.91,778.95 C1683.04,822.24 1687.18,879.52 1690.06,919.45 " fill="none" id="Staff-backto-Role" style="stroke:#4169E1;stroke-width:1.0;"/><polygon fill="#4169E1" points="1678.95,765.72,1675.396,771.9945,1679.8209,777.6884,1683.3749,771.4139,1678.95,765.72" style="stroke:#4169E1;stroke-width:1.0;"/></g><!--link Staff to Person--><g id="link_Staff_Person"><path codeLine="174" d="M1638.32,765.72 C1616.94,793.17 1589.18,828.79 1562.98,862.42 " fill="none" id="Staff-to-Person" style="stroke:#4169E1;stroke-width:1.0;"/><polygon fill="#4169E1" points="1554.91,872.78,1561.7522,870.5029,1562.2819,863.3113,1555.4397,865.5884,1554.91,872.78" style="stroke:#4169E1;stroke-width:1.0;"/></g><!--link AnnouncementRepository to Request--><g id="link_AnnouncementRepository_Request"><path codeLine="176" d="M1523.39,331.05 C1516.79,357.06 1505.99,399.6 1496.88,435.49 " fill="none" id="AnnouncementRepository-to-Request" style="stroke:#4169E1;stroke-width:1.0;stroke-dasharray:7.0,7.0;"/><polygon fill="#4169E1" points="1495.55,440.73,1501.6403,432.9899,1496.7795,435.8835,1493.8859,431.0227,1495.55,440.73" style="stroke:#4169E1;stroke-width:1.0;"/></g><!--reverse link Request to Announcement--><g id="link_Request_Announcement"><path codeLine="177" d="M1396.54,574.16 C1354.98,609.88 1306.65,651.41 1273.08,680.27 " fill="none" id="Request-backto-Announcement" style="stroke:#4169E1;stroke-width:1.0;"/><polygon fill="none" points="1392.07,568.77,1411.8,561.04,1401.2,579.39,1392.07,568.77" style="stroke:#4169E1;stroke-width:1.0;"/></g><!--link AuthenticationRepository to AuthFacade--><g id="link_AuthenticationRepository_AuthFacade"><path codeLine="179" d="M2109.61,331.05 C2117.15,366.54 2131.23,432.85 2139.34,470.99 " fill="none" id="AuthenticationRepository-to-AuthFacade" style="stroke:#4169E1;stroke-width:1.0;stroke-dasharray:7.0,7.0;"/><polygon fill="#4169E1" points="2140.39,475.95,2142.4231,466.3133,2139.3463,471.0602,2134.5994,467.9833,2140.39,475.95" style="stroke:#4169E1;stroke-width:1.0;"/></g><!--reverse link Person to Address--><g id="link_Person_Address"><path codeLine="181" d="M1481.5,1076.36 C1481.5,1092.35 1481.5,1108.62 1481.5,1123.98 " fill="none" id="Person-backto-Address" style="stroke:#4169E1;stroke-width:1.0;"/><polygon fill="#4169E1" points="1481.5,1063.01,1477.5,1069.01,1481.5,1075.01,1485.5,1069.01,1481.5,1063.01" style="stroke:#4169E1;stroke-width:1.0;"/></g><!--SRC=[VLPBRziu4BxhL_1cfxig5ZqMHG4dJT00QTU8jtkdgP5CH29LajfMzUQ_x_0bKQ_r8JRd6mvdldb5lt3HKaMRMh8NA4W19Urgyo25EV5VGDxzaUrqr26D599Tb6o06DL1DY8jPI-qWfFfQo0AcA6YgbC5VQ65_C55HKfQwnIfkG3Jjq1QMVVsaBuuW58PcIMtM4srFXYZ-BapyCYaSFwYktdyF73qHHjhing4SnFacX7ytAB_bPATAEvaBHKv0cMNOrUM3Zqe9Nzuu5dsjBwjCNXtJQe2r1nvpNOrb8OOIHIlBeOKt5B2fSXstpGemeK1LL86koppNZn3ApKtKd7GtgCy5UrldEot2ioZq4WkW_qDUJ-vDcWSAX2i7w0-kMnVNmNkcxQMFS0gU102cM7GW33h2fsv8COPjK5EL5v3W7EdV90pE2GZFs5QiL9uCJaMe7abt1DUZZIIzY85VEsQCwY9CZIKruUYKA0zCpa99qA3z7NW_di7seItoL795fJfIHj-17ca24tx7q7kCjhX7pH8pzeeoaoehMWgcYvaTyQQf0hee_ZoRYejk4_i0_RN7JVz7TWgYRuhHVidr20VV80VRUH6Vdj-2XeXRjiinwdZyxYzz1FG6YcbzTBjpzZWrv5YuTZzixo5GadPw1M4cii6TAGA6wuwuO08XAs4Gl_1P54auVvxnrjRPaDoFakaDl9tbh86AiYPQbUCCp4N5thcnXfwagMP4gCxSVyJgwzJC5PTYvF0E5EpUdoYehXcIseSQz4Tm219YydZp05_8VU-9znn7sNlY_1ZR8SJnOpFoYBMsr5n5kqmB1K3Ldi_WM-IwXLcmz3pI95D2Sv85ygdJerD59-mkllqukyB_V7DwHXnF8r0SEO8Iaj1MlSrA2pdJ78xWi52c0dKVQqPzMCISq_idv5RGylo-lyNbBqmri7gWBkkAqIoxsJJSAsH66Gg_XnlR8p4r2YgF5162qY4tk7hj7O5RI19P8kABIx4TEmvmD2V4zdsB5mTdPiJCifdRc5d0CpQZF5XxiInZQsE9JjlHuD5bpZpYxTC5cCIRPRYSt4Fs0t056zDIlIOXgW-PcDeo5JuD_KxEjOSSZDBJvQbUvNa-SV9eiMzoyCINYhEzznIOzeyItpP8Yklh1RiYjv65QwzEk4XotQBIEO2ylPjZ3TWv4q-556M-kY0CLDPMBbEF6ohL1X9c0WjSvcRm1_-nQETYidHJRjXULjzYuqIfsJd-anajztqNep08b47jr1oJXQ7_vSkeMbwT2Gvnzt_2Nd-9hIuFzldtF3ATYjvNugSkO6S3TmDm07q9Fit9pBtxaGIakdk9wxvS-BwRgF-riNEfv378P-UnaGVZMuLwnRW2t2OebaMfdsQm_y0]--></g></svg>