<?xml version="1.0" encoding="UTF-8" standalone="no"?><svg xmlns="http://www.w3.org/2000/svg" xmlns:xlink="http://www.w3.org/1999/xlink" contentStyleType="text/css" height="640px" preserveAspectRatio="none" style="width:906px;height:640px;background:#FFFFFF;" version="1.1" viewBox="0 0 906 640" width="906px" zoomAndPan="magnify"><defs/><g><text fill="#000000" font-family="sans-serif" font-size="14" font-weight="bold" lengthAdjust="spacing" textLength="259" x="325" y="27.9951">System Sequence Diagram (SSD)</text><rect fill="#FFFFFF" height="72.0234" style="stroke:#181818;stroke-width:1.0;" width="10" x="598" y="164.8594"/><rect fill="#FFFFFF" height="40.2813" style="stroke:#181818;stroke-width:1.0;" width="10" x="598" y="277.1641"/><rect fill="#FFFFFF" height="189.0469" style="stroke:#181818;stroke-width:1.0;" width="10" x="598" y="354.7266"/><rect fill="none" height="318.6328" style="stroke:#000000;stroke-width:1.5;" width="890" x="10" y="179.8594"/><rect fill="none" height="121.7656" style="stroke:#000000;stroke-width:1.5;" width="640.5" x="20" y="369.7266"/><line style="stroke:#181818;stroke-width:0.5;stroke-dasharray:5.0,5.0;" x1="142" x2="142" y1="125.5781" y2="552.7734"/><line style="stroke:#181818;stroke-width:0.5;stroke-dasharray:5.0,5.0;" x1="602.5" x2="602.5" y1="125.5781" y2="552.7734"/><text fill="#000000" font-family="sans-serif" font-size="20" lengthAdjust="spacing" textLength="218" x="30" y="120.8613">System Administrator</text><ellipse cx="142" cy="50.7969" fill="#FFC0CB" rx="8" ry="8" style="stroke:#181818;stroke-width:0.5;"/><path d="M142,58.7969 L142,85.7969 M129,66.7969 L155,66.7969 M142,85.7969 L129,100.7969 M142,85.7969 L155,100.7969 " fill="none" style="stroke:#181818;stroke-width:0.5;"/><text fill="#000000" font-family="sans-serif" font-size="20" lengthAdjust="spacing" textLength="218" x="30" y="570.3379">System Administrator</text><ellipse cx="142" cy="583.5547" fill="#FFC0CB" rx="8" ry="8" style="stroke:#181818;stroke-width:0.5;"/><path d="M142,591.5547 L142,618.5547 M129,599.5547 L155,599.5547 M142,618.5547 L129,633.5547 M142,618.5547 L155,633.5547 " fill="none" style="stroke:#181818;stroke-width:0.5;"/><rect fill="#E2E2F0" height="37.2813" rx="2.5" ry="2.5" style="stroke:#181818;stroke-width:0.5;" width="95" x="555.5" y="87.2969"/><text fill="#000000" font-family="sans-serif" font-size="20" lengthAdjust="spacing" textLength="81" x="562.5" y="112.8613">:System</text><rect fill="#E2E2F0" height="37.2813" rx="2.5" ry="2.5" style="stroke:#181818;stroke-width:0.5;" width="95" x="555.5" y="551.7734"/><text fill="#000000" font-family="sans-serif" font-size="20" lengthAdjust="spacing" textLength="81" x="562.5" y="577.3379">:System</text><rect fill="#FFFFFF" height="72.0234" style="stroke:#181818;stroke-width:1.0;" width="10" x="598" y="164.8594"/><rect fill="#FFFFFF" height="40.2813" style="stroke:#181818;stroke-width:1.0;" width="10" x="598" y="277.1641"/><rect fill="#FFFFFF" height="189.0469" style="stroke:#181818;stroke-width:1.0;" width="10" x="598" y="354.7266"/><polygon fill="#181818" points="586,160.8594,596,164.8594,586,168.8594,590,164.8594" style="stroke:#181818;stroke-width:1.0;"/><line style="stroke:#181818;stroke-width:1.0;" x1="142" x2="592" y1="164.8594" y2="164.8594"/><text fill="#000000" font-family="sans-serif" font-size="20" font-weight="bold" lengthAdjust="spacing" textLength="14" x="149" y="158.1426">1</text><text fill="#000000" font-family="sans-serif" font-size="20" lengthAdjust="spacing" textLength="359" x="167" y="158.1426">asks to import business information</text><path d="M10,179.8594 L104,179.8594 L104,195.1406 L94,205.1406 L10,205.1406 L10,179.8594 " fill="#EEEEEE" style="stroke:#000000;stroke-width:1.5;"/><rect fill="none" height="318.6328" style="stroke:#000000;stroke-width:1.5;" width="890" x="10" y="179.8594"/><text fill="#008000" font-family="sans-serif" font-size="20" font-weight="bold" lengthAdjust="spacing" textLength="49" x="25" y="199.4238">loop</text><text fill="#0000FF" font-family="sans-serif" font-size="15" font-weight="bold" lengthAdjust="spacing" textLength="216" x="119" y="195.7827">[while file is not accepted]</text><polygon fill="#181818" points="153,232.8828,143,236.8828,153,240.8828,149,236.8828" style="stroke:#181818;stroke-width:1.0;"/><line style="stroke:#181818;stroke-width:1.0;stroke-dasharray:2.0,2.0;" x1="147" x2="602" y1="236.8828" y2="236.8828"/><text fill="#000000" font-family="sans-serif" font-size="20" font-weight="bold" lengthAdjust="spacing" textLength="14" x="159" y="230.166">2</text><text fill="#000000" font-family="sans-serif" font-size="20" lengthAdjust="spacing" textLength="141" x="177" y="230.166">requests a file</text><polygon fill="#181818" points="586,273.1641,596,277.1641,586,281.1641,590,277.1641" style="stroke:#181818;stroke-width:1.0;"/><line style="stroke:#181818;stroke-width:1.0;" x1="142" x2="592" y1="277.1641" y2="277.1641"/><text fill="#000000" font-family="sans-serif" font-size="20" font-weight="bold" lengthAdjust="spacing" textLength="14" x="149" y="270.4473">3</text><text fill="#000000" font-family="sans-serif" font-size="20" lengthAdjust="spacing" textLength="146" x="167" y="270.4473">choose the file</text><path d="M613,249.8828 L613,282.8828 L895,282.8828 L895,259.8828 L885,249.8828 L613,249.8828 " fill="#FEFFDD" style="stroke:#181818;stroke-width:0.5;"/><path d="M885,249.8828 L885,259.8828 L895,259.8828 L885,249.8828 " fill="#FEFFDD" style="stroke:#181818;stroke-width:0.5;"/><text fill="#000000" font-family="sans-serif" font-size="20" lengthAdjust="spacing" textLength="261" x="619" y="273.4473">-&gt; The file need to be .csv</text><polygon fill="#181818" points="153,313.4453,143,317.4453,153,321.4453,149,317.4453" style="stroke:#181818;stroke-width:1.0;"/><line style="stroke:#181818;stroke-width:1.0;stroke-dasharray:2.0,2.0;" x1="147" x2="602" y1="317.4453" y2="317.4453"/><text fill="#000000" font-family="sans-serif" font-size="20" font-weight="bold" lengthAdjust="spacing" textLength="14" x="159" y="310.7285">4</text><text fill="#000000" font-family="sans-serif" font-size="20" lengthAdjust="spacing" textLength="207" x="177" y="310.7285">requests cofirmation</text><polygon fill="#181818" points="586,350.7266,596,354.7266,586,358.7266,590,354.7266" style="stroke:#181818;stroke-width:1.0;"/><line style="stroke:#181818;stroke-width:1.0;" x1="142" x2="592" y1="354.7266" y2="354.7266"/><text fill="#000000" font-family="sans-serif" font-size="20" font-weight="bold" lengthAdjust="spacing" textLength="14" x="149" y="348.0098">5</text><text fill="#000000" font-family="sans-serif" font-size="20" lengthAdjust="spacing" textLength="177" x="167" y="348.0098">confirms the data</text><path d="M20,369.7266 L96,369.7266 L96,385.0078 L86,395.0078 L20,395.0078 L20,369.7266 " fill="#EEEEEE" style="stroke:#000000;stroke-width:1.5;"/><rect fill="none" height="121.7656" style="stroke:#000000;stroke-width:1.5;" width="640.5" x="20" y="369.7266"/><text fill="#008000" font-family="sans-serif" font-size="20" font-weight="bold" lengthAdjust="spacing" textLength="31" x="35" y="389.291">alt</text><text fill="#0000FF" font-family="sans-serif" font-size="15" font-weight="bold" lengthAdjust="spacing" textLength="115" x="111" y="385.6499">[file is empty]</text><polygon fill="#181818" points="153,422.75,143,426.75,153,430.75,149,426.75" style="stroke:#181818;stroke-width:1.0;"/><line style="stroke:#181818;stroke-width:1.0;stroke-dasharray:2.0,2.0;" x1="147" x2="597" y1="426.75" y2="426.75"/><text fill="#000000" font-family="sans-serif" font-size="20" font-weight="bold" lengthAdjust="spacing" textLength="36" x="159" y="420.0332">4.1</text><text fill="#000000" font-family="sans-serif" font-size="20" lengthAdjust="spacing" textLength="249" x="199" y="420.0332">displays the file is empty</text><line style="stroke:#000000;stroke-width:1.0;stroke-dasharray:2.0,2.0;" x1="20" x2="660.5" y1="435.75" y2="435.75"/><text fill="#0000FF" font-family="sans-serif" font-size="15" font-weight="bold" lengthAdjust="spacing" textLength="197" x="25" y="449.6733">[file with wrong format]</text><polygon fill="#181818" points="153,479.4922,143,483.4922,153,487.4922,149,483.4922" style="stroke:#181818;stroke-width:1.0;"/><line style="stroke:#181818;stroke-width:1.0;stroke-dasharray:2.0,2.0;" x1="147" x2="597" y1="483.4922" y2="483.4922"/><text fill="#000000" font-family="sans-serif" font-size="20" font-weight="bold" lengthAdjust="spacing" textLength="36" x="159" y="476.7754">4.2</text><text fill="#000000" font-family="sans-serif" font-size="20" lengthAdjust="spacing" textLength="392" x="199" y="476.7754">displays the file have the wrong format</text><polygon fill="#181818" points="153,530.7734,143,534.7734,153,538.7734,149,534.7734" style="stroke:#181818;stroke-width:1.0;"/><line style="stroke:#181818;stroke-width:1.0;stroke-dasharray:2.0,2.0;" x1="147" x2="597" y1="534.7734" y2="534.7734"/><text fill="#000000" font-family="sans-serif" font-size="20" font-weight="bold" lengthAdjust="spacing" textLength="14" x="159" y="528.0566">5</text><text fill="#000000" font-family="sans-serif" font-size="20" lengthAdjust="spacing" textLength="250" x="177" y="528.0566">informs operation sucess</text><!--SRC=[bLFBRjim4BppAnRkmUqXGLCqbnmA60sINd9IVu0crzB255SXLtRTh-zIyaCEd1hHmPR8cTsPuJAlANOssJQmMwC7ZolR1tdYA1NzHVZsrUG315gEx9h4BSBAXeoJhSwwjQsnabr0IEZ4nZfC0RcndhSKwptL28b2grqMRA72rnwZGtWaMnVuvwfw_6BC79v8KNadGQdwROCSlqx53_Jdn7tt2wt7L1pyvC09weGOtmEVOClGu_zGGnntzsR-Gjwh9i4_AaNz5YdpYT4zyGLpraGMWUe83gDWkWhpLA8ZZiRsmh5lbqeoredgc-sZMlYM8cL9LbTdO3DK2u1F7SMrqT92ZZeR1MOF8s643A_6W3uAl_bn2Fv1TzSPX87QZfF0iiyKLHDGN75gxQ2cq5G5RQpWMQt0tC6sAMUqAZ-K8R8erc4dw0VCq7FiTbCQBxHfAkwpPB03xuZpUB7D1TckOSvw2WsULtYNhxfqCgbkvBXK7gtvUry38keDq2YM2BSkRuuuZ7wWNxVZU4NJq3xeYMEXvy6LjsAlkphD2No_lPkiwpqvd0YsdUpCcUkt1ZpbBjXTFkPvWOTwRSUzBKa3syJbCWyp0X-jtjZDU7RJAjEypVH_Ol9-FyDlEep3ce4xJ4Fwa7kdKspCFm00]--></g></svg>