<?xml version="1.0" encoding="UTF-8" standalone="no"?><svg xmlns="http://www.w3.org/2000/svg" xmlns:xlink="http://www.w3.org/1999/xlink" contentStyleType="text/css" height="822px" preserveAspectRatio="none" style="width:2602px;height:822px;background:#FFFFFF;" version="1.1" viewBox="0 0 2602 822" width="2602px" zoomAndPan="magnify"><defs/><g><!--class Employee--><g id="elem_Employee"><rect codeLine="12" fill="#F1F1F1" height="143.125" id="Employee" rx="2.5" ry="2.5" style="stroke:#181818;stroke-width:0.5;" width="272" x="1106" y="625.5"/><ellipse cx="1188" cy="642.5" fill="#ADD1B2" rx="12" ry="12" style="stroke:#181818;stroke-width:1.0;"/><path d="M1191.0625,649.5781 Q1190.375,649.9375 1189.625,650.1094 Q1188.875,650.2813 1188.0469,650.2813 Q1185.0938,650.2813 1183.5313,648.3438 Q1181.9844,646.3906 1181.9844,642.7188 Q1181.9844,639.0469 1183.5313,637.1094 Q1185.0938,635.1563 1188.0469,635.1563 Q1188.875,635.1563 1189.625,635.3281 Q1190.3906,635.5 1191.0625,635.8594 L1191.0625,639.0625 Q1190.3125,638.375 1189.6094,638.0625 Q1188.9219,637.75 1188.1719,637.75 Q1186.5938,637.75 1185.7813,639 Q1184.9844,640.25 1184.9844,642.7188 Q1184.9844,645.1875 1185.7813,646.4375 Q1186.5938,647.6875 1188.1719,647.6875 Q1188.9219,647.6875 1189.6094,647.375 Q1190.3125,647.0625 1191.0625,646.375 L1191.0625,649.5781 Z " fill="#000000"/><text fill="#000000" font-family="sans-serif" font-size="20" lengthAdjust="spacing" textLength="99" x="1210" y="649.4238">Employee</text><line style="stroke:#181818;stroke-width:0.5;" x1="1107" x2="1377" y1="659.5" y2="659.5"/><text fill="#000000" font-family="sans-serif" font-size="20" lengthAdjust="spacing" textLength="194" x="1112" y="682.0645">-EmployeeRole role</text><text fill="#000000" font-family="sans-serif" font-size="20" lengthAdjust="spacing" textLength="171" x="1112" y="705.3457">-Address address</text><text fill="#000000" font-family="sans-serif" font-size="20" lengthAdjust="spacing" textLength="159" x="1112" y="728.627">-Agency agency</text><line style="stroke:#181818;stroke-width:0.5;" x1="1107" x2="1377" y1="737.3438" y2="737.3438"/><text fill="#000000" font-family="sans-serif" font-size="20" lengthAdjust="spacing" textLength="260" x="1112" y="759.9082">+Employee(role, address)</text></g><!--class Person--><g id="elem_Person"><rect codeLine="19" fill="#F1F1F1" height="189.6875" id="Person" rx="2.5" ry="2.5" style="stroke:#181818;stroke-width:0.5;" width="804" x="256" y="328"/><ellipse cx="620" cy="345" fill="#ADD1B2" rx="12" ry="12" style="stroke:#181818;stroke-width:1.0;"/><path d="M623.0625,352.0781 Q622.375,352.4375 621.625,352.6094 Q620.875,352.7813 620.0469,352.7813 Q617.0938,352.7813 615.5313,350.8438 Q613.9844,348.8906 613.9844,345.2188 Q613.9844,341.5469 615.5313,339.6094 Q617.0938,337.6563 620.0469,337.6563 Q620.875,337.6563 621.625,337.8281 Q622.3906,338 623.0625,338.3594 L623.0625,341.5625 Q622.3125,340.875 621.6094,340.5625 Q620.9219,340.25 620.1719,340.25 Q618.5938,340.25 617.7813,341.5 Q616.9844,342.75 616.9844,345.2188 Q616.9844,347.6875 617.7813,348.9375 Q618.5938,350.1875 620.1719,350.1875 Q620.9219,350.1875 621.6094,349.875 Q622.3125,349.5625 623.0625,348.875 L623.0625,352.0781 Z " fill="#000000"/><text fill="#000000" font-family="sans-serif" font-size="20" lengthAdjust="spacing" textLength="67" x="642" y="351.9238">Person</text><line style="stroke:#181818;stroke-width:0.5;" x1="257" x2="1059" y1="362" y2="362"/><text fill="#000000" font-family="sans-serif" font-size="20" lengthAdjust="spacing" textLength="131" x="262" y="384.5645">-String name</text><text fill="#000000" font-family="sans-serif" font-size="20" lengthAdjust="spacing" textLength="269" x="262" y="407.8457">-String citizenCardNumber</text><text fill="#000000" font-family="sans-serif" font-size="20" lengthAdjust="spacing" textLength="186" x="262" y="431.127">-String taxNumber</text><text fill="#000000" font-family="sans-serif" font-size="20" lengthAdjust="spacing" textLength="210" x="262" y="454.4082">-String emailAddress</text><text fill="#000000" font-family="sans-serif" font-size="20" lengthAdjust="spacing" textLength="218" x="262" y="477.6895">-String phoneNumber</text><line style="stroke:#181818;stroke-width:0.5;" x1="257" x2="1059" y1="486.4063" y2="486.4063"/><text fill="#000000" font-family="sans-serif" font-size="20" lengthAdjust="spacing" textLength="792" x="262" y="508.9707">+Person(name, citizenCardNumber, taxNumber, emailAddress, phoneNumber)</text></g><!--class EmployeeRole--><g id="elem_EmployeeRole"><rect codeLine="28" fill="#F1F1F1" height="96.5625" id="EmployeeRole" rx="2.5" ry="2.5" style="stroke:#181818;stroke-width:0.5;" width="204" x="2006" y="648.5"/><ellipse cx="2034.15" cy="665.5" fill="#ADD1B2" rx="12" ry="12" style="stroke:#181818;stroke-width:1.0;"/><path d="M2037.2125,672.5781 Q2036.525,672.9375 2035.775,673.1094 Q2035.025,673.2813 2034.1969,673.2813 Q2031.2438,673.2813 2029.6813,671.3438 Q2028.1344,669.3906 2028.1344,665.7188 Q2028.1344,662.0469 2029.6813,660.1094 Q2031.2438,658.1563 2034.1969,658.1563 Q2035.025,658.1563 2035.775,658.3281 Q2036.5406,658.5 2037.2125,658.8594 L2037.2125,662.0625 Q2036.4625,661.375 2035.7594,661.0625 Q2035.0719,660.75 2034.3219,660.75 Q2032.7438,660.75 2031.9313,662 Q2031.1344,663.25 2031.1344,665.7188 Q2031.1344,668.1875 2031.9313,669.4375 Q2032.7438,670.6875 2034.3219,670.6875 Q2035.0719,670.6875 2035.7594,670.375 Q2036.4625,670.0625 2037.2125,669.375 L2037.2125,672.5781 Z " fill="#000000"/><text fill="#000000" font-family="sans-serif" font-size="20" lengthAdjust="spacing" textLength="143" x="2051.85" y="672.4238">EmployeeRole</text><line style="stroke:#181818;stroke-width:0.5;" x1="2007" x2="2209" y1="682.5" y2="682.5"/><text fill="#000000" font-family="sans-serif" font-size="20" lengthAdjust="spacing" textLength="93" x="2012" y="705.0645">-String id</text><text fill="#000000" font-family="sans-serif" font-size="20" lengthAdjust="spacing" textLength="192" x="2012" y="728.3457">-String designation</text><line style="stroke:#181818;stroke-width:0.5;" x1="2007" x2="2209" y1="737.0625" y2="737.0625"/></g><!--class Agency--><g id="elem_Agency"><rect codeLine="33" fill="#F1F1F1" height="236.25" id="Agency" rx="2.5" ry="2.5" style="stroke:#181818;stroke-width:0.5;" width="354" x="589" y="579"/><ellipse cx="724.5" cy="596" fill="#ADD1B2" rx="12" ry="12" style="stroke:#181818;stroke-width:1.0;"/><path d="M727.5625,603.0781 Q726.875,603.4375 726.125,603.6094 Q725.375,603.7813 724.5469,603.7813 Q721.5938,603.7813 720.0313,601.8438 Q718.4844,599.8906 718.4844,596.2188 Q718.4844,592.5469 720.0313,590.6094 Q721.5938,588.6563 724.5469,588.6563 Q725.375,588.6563 726.125,588.8281 Q726.8906,589 727.5625,589.3594 L727.5625,592.5625 Q726.8125,591.875 726.1094,591.5625 Q725.4219,591.25 724.6719,591.25 Q723.0938,591.25 722.2813,592.5 Q721.4844,593.75 721.4844,596.2188 Q721.4844,598.6875 722.2813,599.9375 Q723.0938,601.1875 724.6719,601.1875 Q725.4219,601.1875 726.1094,600.875 Q726.8125,600.5625 727.5625,599.875 L727.5625,603.0781 Z " fill="#000000"/><text fill="#000000" font-family="sans-serif" font-size="20" lengthAdjust="spacing" textLength="74" x="746.5" y="602.9238">Agency</text><line style="stroke:#181818;stroke-width:0.5;" x1="590" x2="942" y1="613" y2="613"/><text fill="#000000" font-family="sans-serif" font-size="20" lengthAdjust="spacing" textLength="93" x="595" y="635.5645">-String id</text><text fill="#000000" font-family="sans-serif" font-size="20" lengthAdjust="spacing" textLength="171" x="595" y="658.8457">-Address address</text><text fill="#000000" font-family="sans-serif" font-size="20" lengthAdjust="spacing" textLength="192" x="595" y="682.127">-String designation</text><text fill="#000000" font-family="sans-serif" font-size="20" lengthAdjust="spacing" textLength="218" x="595" y="705.4082">-String phoneNumber</text><text fill="#000000" font-family="sans-serif" font-size="20" lengthAdjust="spacing" textLength="210" x="595" y="728.6895">-String emailAddress</text><text fill="#000000" font-family="sans-serif" font-size="20" lengthAdjust="spacing" textLength="342" x="595" y="751.9707">-ArrayList&lt;Employee&gt; employees</text><line style="stroke:#181818;stroke-width:0.5;" x1="590" x2="942" y1="760.6875" y2="760.6875"/><text fill="#000000" font-family="sans-serif" font-size="20" lengthAdjust="spacing" textLength="254" x="595" y="783.252">+Agency(id, designation,</text><text fill="#000000" font-family="sans-serif" font-size="20" lengthAdjust="spacing" textLength="300" x="595" y="806.5332">phoneNumber, emailAddress)</text></g><!--class Address--><g id="elem_Address"><rect codeLine="43" fill="#F1F1F1" height="189.6875" id="Address" rx="2.5" ry="2.5" style="stroke:#181818;stroke-width:0.5;" width="465" x="1186.5" y="328"/><ellipse cx="1374.5" cy="345" fill="#ADD1B2" rx="12" ry="12" style="stroke:#181818;stroke-width:1.0;"/><path d="M1377.5625,352.0781 Q1376.875,352.4375 1376.125,352.6094 Q1375.375,352.7813 1374.5469,352.7813 Q1371.5938,352.7813 1370.0313,350.8438 Q1368.4844,348.8906 1368.4844,345.2188 Q1368.4844,341.5469 1370.0313,339.6094 Q1371.5938,337.6563 1374.5469,337.6563 Q1375.375,337.6563 1376.125,337.8281 Q1376.8906,338 1377.5625,338.3594 L1377.5625,341.5625 Q1376.8125,340.875 1376.1094,340.5625 Q1375.4219,340.25 1374.6719,340.25 Q1373.0938,340.25 1372.2813,341.5 Q1371.4844,342.75 1371.4844,345.2188 Q1371.4844,347.6875 1372.2813,348.9375 Q1373.0938,350.1875 1374.6719,350.1875 Q1375.4219,350.1875 1376.1094,349.875 Q1376.8125,349.5625 1377.5625,348.875 L1377.5625,352.0781 Z " fill="#000000"/><text fill="#000000" font-family="sans-serif" font-size="20" lengthAdjust="spacing" textLength="80" x="1396.5" y="351.9238">Address</text><line style="stroke:#181818;stroke-width:0.5;" x1="1187.5" x2="1650.5" y1="362" y2="362"/><text fill="#000000" font-family="sans-serif" font-size="20" lengthAdjust="spacing" textLength="132" x="1192.5" y="384.5645">-String street</text><text fill="#000000" font-family="sans-serif" font-size="20" lengthAdjust="spacing" textLength="110" x="1192.5" y="407.8457">-String city</text><text fill="#000000" font-family="sans-serif" font-size="20" lengthAdjust="spacing" textLength="144" x="1192.5" y="431.127">-String district</text><text fill="#000000" font-family="sans-serif" font-size="20" lengthAdjust="spacing" textLength="124" x="1192.5" y="454.4082">-String state</text><text fill="#000000" font-family="sans-serif" font-size="20" lengthAdjust="spacing" textLength="152" x="1192.5" y="477.6895">-String zipcode</text><line style="stroke:#181818;stroke-width:0.5;" x1="1187.5" x2="1650.5" y1="486.4063" y2="486.4063"/><text fill="#000000" font-family="sans-serif" font-size="20" lengthAdjust="spacing" textLength="453" x="1192.5" y="508.9707">+Address(street, city, district, state, zipcode)</text></g><!--class AgencyRepository--><g id="elem_AgencyRepository"><rect codeLine="55" fill="#F1F1F1" height="143.125" id="AgencyRepository" rx="2.5" ry="2.5" style="stroke:#181818;stroke-width:0.5;" width="214" x="7" y="351.5"/><ellipse cx="23" cy="368.5" fill="#ADD1B2" rx="12" ry="12" style="stroke:#181818;stroke-width:1.0;"/><path d="M26.0625,375.5781 Q25.375,375.9375 24.625,376.1094 Q23.875,376.2813 23.0469,376.2813 Q20.0938,376.2813 18.5313,374.3438 Q16.9844,372.3906 16.9844,368.7188 Q16.9844,365.0469 18.5313,363.1094 Q20.0938,361.1563 23.0469,361.1563 Q23.875,361.1563 24.625,361.3281 Q25.3906,361.5 26.0625,361.8594 L26.0625,365.0625 Q25.3125,364.375 24.6094,364.0625 Q23.9219,363.75 23.1719,363.75 Q21.5938,363.75 20.7813,365 Q19.9844,366.25 19.9844,368.7188 Q19.9844,371.1875 20.7813,372.4375 Q21.5938,373.6875 23.1719,373.6875 Q23.9219,373.6875 24.6094,373.375 Q25.3125,373.0625 26.0625,372.375 L26.0625,375.5781 Z " fill="#000000"/><text fill="#000000" font-family="sans-serif" font-size="20" lengthAdjust="spacing" textLength="180" x="38" y="375.4238">AgencyRepository</text><line style="stroke:#181818;stroke-width:0.5;" x1="8" x2="220" y1="385.5" y2="385.5"/><line style="stroke:#181818;stroke-width:0.5;" x1="8" x2="220" y1="393.5" y2="393.5"/><text fill="#000000" font-family="sans-serif" font-size="20" lengthAdjust="spacing" textLength="175" x="13" y="416.0645">+getAgencyList()</text><text fill="#000000" font-family="sans-serif" font-size="20" lengthAdjust="spacing" textLength="145" x="13" y="439.3457">+addAgency()</text><text fill="#000000" font-family="sans-serif" font-size="20" lengthAdjust="spacing" textLength="187" x="13" y="462.627">+validateAgency()</text><text fill="#000000" font-family="sans-serif" font-size="20" lengthAdjust="spacing" textLength="170" x="13" y="485.9082">+createAgency()</text></g><!--class Repositories--><g id="elem_Repositories"><rect codeLine="64" fill="#F1F1F1" height="166.4063" id="Repositories" rx="2.5" ry="2.5" style="stroke:#181818;stroke-width:0.5;" width="305" x="1604.5" y="42"/><ellipse cx="1691" cy="59" fill="#ADD1B2" rx="12" ry="12" style="stroke:#181818;stroke-width:1.0;"/><path d="M1694.0625,66.0781 Q1693.375,66.4375 1692.625,66.6094 Q1691.875,66.7813 1691.0469,66.7813 Q1688.0938,66.7813 1686.5313,64.8438 Q1684.9844,62.8906 1684.9844,59.2188 Q1684.9844,55.5469 1686.5313,53.6094 Q1688.0938,51.6563 1691.0469,51.6563 Q1691.875,51.6563 1692.625,51.8281 Q1693.3906,52 1694.0625,52.3594 L1694.0625,55.5625 Q1693.3125,54.875 1692.6094,54.5625 Q1691.9219,54.25 1691.1719,54.25 Q1689.5938,54.25 1688.7813,55.5 Q1687.9844,56.75 1687.9844,59.2188 Q1687.9844,61.6875 1688.7813,62.9375 Q1689.5938,64.1875 1691.1719,64.1875 Q1691.9219,64.1875 1692.6094,63.875 Q1693.3125,63.5625 1694.0625,62.875 L1694.0625,66.0781 Z " fill="#000000"/><text fill="#000000" font-family="sans-serif" font-size="20" lengthAdjust="spacing" textLength="123" x="1713" y="65.9238">Repositories</text><line style="stroke:#181818;stroke-width:0.5;" x1="1605.5" x2="1908.5" y1="76" y2="76"/><line style="stroke:#181818;stroke-width:0.5;" x1="1605.5" x2="1908.5" y1="84" y2="84"/><text fill="#000000" font-family="sans-serif" font-size="20" lengthAdjust="spacing" textLength="146" x="1610.5" y="106.5645">-Repositories()</text><text fill="#000000" font-family="sans-serif" font-size="20" lengthAdjust="spacing" textLength="293" x="1610.5" y="129.8457">+getInstance() : Repositories</text><text fill="#000000" font-family="sans-serif" font-size="20" lengthAdjust="spacing" textLength="271" x="1610.5" y="153.127">+getEmployeeRepository()</text><text fill="#000000" font-family="sans-serif" font-size="20" lengthAdjust="spacing" textLength="246" x="1610.5" y="176.4082">+getAgencyRepository()</text><text fill="#000000" font-family="sans-serif" font-size="20" lengthAdjust="spacing" textLength="226" x="1610.5" y="199.6895">+getRolesRepository()</text></g><!--class RegisterEmployeeController--><g id="elem_RegisterEmployeeController"><rect codeLine="73" fill="#F1F1F1" height="236.25" id="RegisterEmployeeController" rx="2.5" ry="2.5" style="stroke:#181818;stroke-width:0.5;" width="666" x="497" y="7"/><ellipse cx="685" cy="24" fill="#ADD1B2" rx="12" ry="12" style="stroke:#181818;stroke-width:1.0;"/><path d="M688.0625,31.0781 Q687.375,31.4375 686.625,31.6094 Q685.875,31.7813 685.0469,31.7813 Q682.0938,31.7813 680.5313,29.8438 Q678.9844,27.8906 678.9844,24.2188 Q678.9844,20.5469 680.5313,18.6094 Q682.0938,16.6563 685.0469,16.6563 Q685.875,16.6563 686.625,16.8281 Q687.3906,17 688.0625,17.3594 L688.0625,20.5625 Q687.3125,19.875 686.6094,19.5625 Q685.9219,19.25 685.1719,19.25 Q683.5938,19.25 682.7813,20.5 Q681.9844,21.75 681.9844,24.2188 Q681.9844,26.6875 682.7813,27.9375 Q683.5938,29.1875 685.1719,29.1875 Q685.9219,29.1875 686.6094,28.875 Q687.3125,28.5625 688.0625,27.875 L688.0625,31.0781 Z " fill="#000000"/><text fill="#000000" font-family="sans-serif" font-size="20" lengthAdjust="spacing" textLength="281" x="707" y="30.9238">RegisterEmployeeController</text><line style="stroke:#181818;stroke-width:0.5;" x1="498" x2="1162" y1="41" y2="41"/><line style="stroke:#181818;stroke-width:0.5;" x1="498" x2="1162" y1="49" y2="49"/><text fill="#000000" font-family="sans-serif" font-size="20" lengthAdjust="spacing" textLength="308" x="503" y="71.5645">+registerEmployeeController()</text><text fill="#000000" font-family="sans-serif" font-size="20" lengthAdjust="spacing" textLength="471" x="503" y="94.8457">+registerEmployee(name, citizenCardNumber,</text><text fill="#000000" font-family="sans-serif" font-size="20" lengthAdjust="spacing" textLength="648" x="509" y="118.127">taxNumber, emailAddress, phoneNumber, role, address, agency)</text><text fill="#000000" font-family="sans-serif" font-size="20" lengthAdjust="spacing" textLength="175" x="503" y="141.4082">+getAgencyList()</text><text fill="#000000" font-family="sans-serif" font-size="20" lengthAdjust="spacing" textLength="145" x="503" y="164.6895">+getRoleList()</text><text fill="#000000" font-family="sans-serif" font-size="20" lengthAdjust="spacing" textLength="189" x="503" y="187.9707">+getRepositories()</text><text fill="#000000" font-family="sans-serif" font-size="20" lengthAdjust="spacing" textLength="177" x="503" y="211.252">+saveEmployee()</text><text fill="#000000" font-family="sans-serif" font-size="20" lengthAdjust="spacing" textLength="107" x="503" y="234.5332">+setRole()</text></g><!--class RolesRepository--><g id="elem_RolesRepository"><rect codeLine="83" fill="#F1F1F1" height="143.125" id="RolesRepository" rx="2.5" ry="2.5" style="stroke:#181818;stroke-width:0.5;" width="207" x="2388.5" y="351.5"/><ellipse cx="2410.35" cy="368.5" fill="#ADD1B2" rx="12" ry="12" style="stroke:#181818;stroke-width:1.0;"/><path d="M2413.4125,375.5781 Q2412.725,375.9375 2411.975,376.1094 Q2411.225,376.2813 2410.3969,376.2813 Q2407.4438,376.2813 2405.8813,374.3438 Q2404.3344,372.3906 2404.3344,368.7188 Q2404.3344,365.0469 2405.8813,363.1094 Q2407.4438,361.1563 2410.3969,361.1563 Q2411.225,361.1563 2411.975,361.3281 Q2412.7406,361.5 2413.4125,361.8594 L2413.4125,365.0625 Q2412.6625,364.375 2411.9594,364.0625 Q2411.2719,363.75 2410.5219,363.75 Q2408.9438,363.75 2408.1313,365 Q2407.3344,366.25 2407.3344,368.7188 Q2407.3344,371.1875 2408.1313,372.4375 Q2408.9438,373.6875 2410.5219,373.6875 Q2411.2719,373.6875 2411.9594,373.375 Q2412.6625,373.0625 2413.4125,372.375 L2413.4125,375.5781 Z " fill="#000000"/><text fill="#000000" font-family="sans-serif" font-size="20" lengthAdjust="spacing" textLength="160" x="2426.65" y="375.4238">RolesRepository</text><line style="stroke:#181818;stroke-width:0.5;" x1="2389.5" x2="2594.5" y1="385.5" y2="385.5"/><line style="stroke:#181818;stroke-width:0.5;" x1="2389.5" x2="2594.5" y1="393.5" y2="393.5"/><text fill="#000000" font-family="sans-serif" font-size="20" lengthAdjust="spacing" textLength="155" x="2394.5" y="416.0645">+getRolesList()</text><text fill="#000000" font-family="sans-serif" font-size="20" lengthAdjust="spacing" textLength="153" x="2394.5" y="439.3457">+addRole(role)</text><text fill="#000000" font-family="sans-serif" font-size="20" lengthAdjust="spacing" textLength="195" x="2394.5" y="462.627">+validateRole(role)</text><text fill="#000000" font-family="sans-serif" font-size="20" lengthAdjust="spacing" textLength="140" x="2394.5" y="485.9082">+createRole()</text></g><!--class EmployeeRepository--><g id="elem_EmployeeRepository"><rect codeLine="90" fill="#F1F1F1" height="189.6875" id="EmployeeRepository" rx="2.5" ry="2.5" style="stroke:#181818;stroke-width:0.5;" width="666" x="1687" y="328"/><ellipse cx="1913" cy="345" fill="#ADD1B2" rx="12" ry="12" style="stroke:#181818;stroke-width:1.0;"/><path d="M1916.0625,352.0781 Q1915.375,352.4375 1914.625,352.6094 Q1913.875,352.7813 1913.0469,352.7813 Q1910.0938,352.7813 1908.5313,350.8438 Q1906.9844,348.8906 1906.9844,345.2188 Q1906.9844,341.5469 1908.5313,339.6094 Q1910.0938,337.6563 1913.0469,337.6563 Q1913.875,337.6563 1914.625,337.8281 Q1915.3906,338 1916.0625,338.3594 L1916.0625,341.5625 Q1915.3125,340.875 1914.6094,340.5625 Q1913.9219,340.25 1913.1719,340.25 Q1911.5938,340.25 1910.7813,341.5 Q1909.9844,342.75 1909.9844,345.2188 Q1909.9844,347.6875 1910.7813,348.9375 Q1911.5938,350.1875 1913.1719,350.1875 Q1913.9219,350.1875 1914.6094,349.875 Q1915.3125,349.5625 1916.0625,348.875 L1916.0625,352.0781 Z " fill="#000000"/><text fill="#000000" font-family="sans-serif" font-size="20" lengthAdjust="spacing" textLength="205" x="1935" y="351.9238">EmployeeRepository</text><line style="stroke:#181818;stroke-width:0.5;" x1="1688" x2="2352" y1="362" y2="362"/><line style="stroke:#181818;stroke-width:0.5;" x1="1688" x2="2352" y1="370" y2="370"/><text fill="#000000" font-family="sans-serif" font-size="20" lengthAdjust="spacing" textLength="200" x="1693" y="392.5645">+getEmployeeList()</text><text fill="#000000" font-family="sans-serif" font-size="20" lengthAdjust="spacing" textLength="268" x="1693" y="415.8457">+addEmployee(employee)</text><text fill="#000000" font-family="sans-serif" font-size="20" lengthAdjust="spacing" textLength="310" x="1693" y="439.127">+validateEmployee(employee)</text><text fill="#000000" font-family="sans-serif" font-size="20" lengthAdjust="spacing" textLength="275" x="1693" y="462.4082">+saveEmployee(employee)</text><text fill="#000000" font-family="sans-serif" font-size="20" lengthAdjust="spacing" textLength="471" x="1693" y="485.6895">+registerEmployee(name, citizenCardNumber,</text><text fill="#000000" font-family="sans-serif" font-size="20" lengthAdjust="spacing" textLength="648" x="1699" y="508.9707">taxNumber, emailAddress, phoneNumber, role, address, agency)</text></g><!--class RegisterEmployeeUI--><g id="elem_RegisterEmployeeUI"><rect codeLine="100" fill="#F1F1F1" height="50" id="RegisterEmployeeUI" rx="2.5" ry="2.5" style="stroke:#181818;stroke-width:0.5;" width="237" x="224.5" y="100"/><ellipse cx="240.5" cy="117" fill="#ADD1B2" rx="12" ry="12" style="stroke:#181818;stroke-width:1.0;"/><path d="M243.5625,124.0781 Q242.875,124.4375 242.125,124.6094 Q241.375,124.7813 240.5469,124.7813 Q237.5938,124.7813 236.0313,122.8438 Q234.4844,120.8906 234.4844,117.2188 Q234.4844,113.5469 236.0313,111.6094 Q237.5938,109.6563 240.5469,109.6563 Q241.375,109.6563 242.125,109.8281 Q242.8906,110 243.5625,110.3594 L243.5625,113.5625 Q242.8125,112.875 242.1094,112.5625 Q241.4219,112.25 240.6719,112.25 Q239.0938,112.25 238.2813,113.5 Q237.4844,114.75 237.4844,117.2188 Q237.4844,119.6875 238.2813,120.9375 Q239.0938,122.1875 240.6719,122.1875 Q241.4219,122.1875 242.1094,121.875 Q242.8125,121.5625 243.5625,120.875 L243.5625,124.0781 Z " fill="#000000"/><text fill="#000000" font-family="sans-serif" font-size="20" lengthAdjust="spacing" textLength="203" x="255.5" y="123.9238">RegisterEmployeeUI</text><line style="stroke:#181818;stroke-width:0.5;" x1="225.5" x2="460.5" y1="134" y2="134"/><line style="stroke:#181818;stroke-width:0.5;" x1="225.5" x2="460.5" y1="142" y2="142"/></g><!--link Repositories to Repositories--><g id="link_Repositories_Repositories"><path codeLine="105" d="M1909.66,98.31 C1930.56,102.74 1944.5,111.64 1944.5,125 C1944.5,137.21 1932.85,145.69 1914.89,150.45 " fill="none" id="Repositories-to-Repositories" style="stroke:#181818;stroke-width:1.0;"/><polygon fill="#181818" points="1909.66,151.69,1919.3357,153.5286,1914.5278,150.548,1917.5085,145.7401,1909.66,151.69" style="stroke:#181818;stroke-width:1.0;"/><text fill="#000000" font-family="sans-serif" font-size="20" lengthAdjust="spacing" textLength="85" x="1950.5" y="132.0645">instance</text></g><!--link RegisterEmployeeUI to RegisterEmployeeController--><g id="link_RegisterEmployeeUI_RegisterEmployeeController"><path codeLine="107" d="M461.83,125 C473.54,125 483.91,125 491.58,125 " fill="none" id="RegisterEmployeeUI-to-RegisterEmployeeController" style="stroke:#181818;stroke-width:1.0;stroke-dasharray:7.0,7.0;"/><polygon fill="#181818" points="496.91,125,487.9215,120.9743,491.91,124.9857,487.8986,128.9743,496.91,125" style="stroke:#181818;stroke-width:1.0;"/></g><!--link RolesRepository to EmployeeRole--><g id="link_RolesRepository_EmployeeRole"><path codeLine="108" d="M2401.22,494.52 C2383.87,508 2371,518 2371,518 C2371,518 2260.38,592.87 2182.62,645.5 " fill="none" id="RolesRepository-to-EmployeeRole" style="stroke:#181818;stroke-width:1.0;"/><polygon fill="#181818" points="2178.48,648.3,2188.1765,646.5744,2182.6226,645.5002,2183.6968,639.9463,2178.48,648.3" style="stroke:#181818;stroke-width:1.0;"/><text fill="#000000" font-family="sans-serif" font-size="20" lengthAdjust="spacing" textLength="10" x="2177.2789" y="635.8234">*</text></g><!--link RegisterEmployeeController to Repositories--><g id="link_RegisterEmployeeController_Repositories"><path codeLine="109" d="M1163.03,125 C1311.64,125 1479.74,125 1599.08,125 " fill="none" id="RegisterEmployeeController-to-Repositories" style="stroke:#181818;stroke-width:1.0;stroke-dasharray:7.0,7.0;"/><polygon fill="#181818" points="1604.37,125,1595.37,121,1599.37,125,1595.37,129,1604.37,125" style="stroke:#181818;stroke-width:1.0;"/><text fill="#000000" font-family="sans-serif" font-size="20" lengthAdjust="spacing" textLength="117" x="1325.25" y="116.5645">repositories</text></g><!--link Repositories to EmployeeRepository--><g id="link_Repositories_EmployeeRepository"><path codeLine="110" d="M1829.91,208.06 C1861.74,243.88 1899.32,286.18 1932.63,323.67 " fill="none" id="Repositories-to-EmployeeRepository" style="stroke:#181818;stroke-width:1.0;"/><polygon fill="#181818" points="1936.26,327.75,1933.2704,318.3659,1932.9382,324.013,1927.2911,323.6808,1936.26,327.75" style="stroke:#181818;stroke-width:1.0;"/><text fill="#000000" font-family="sans-serif" font-size="20" lengthAdjust="spacing" textLength="13" x="1916.351" y="315.1641">1</text></g><!--link Repositories to AgencyRepository--><g id="link_Repositories_AgencyRepository"><path codeLine="111" d="M1718.28,208.22 C1697.45,252.44 1676,298 1676,298 C1676,298 238,328 238,328 C238,328 226.79,336.5 211.11,348.39 " fill="none" id="Repositories-to-AgencyRepository" style="stroke:#181818;stroke-width:1.0;"/><polygon fill="#181818" points="207.03,351.48,216.6211,349.2416,211.018,348.464,211.7955,342.8609,207.03,351.48" style="stroke:#181818;stroke-width:1.0;"/><text fill="#000000" font-family="sans-serif" font-size="20" lengthAdjust="spacing" textLength="13" x="202.5478" y="338.8799">1</text></g><!--link Repositories to RolesRepository--><g id="link_Repositories_RolesRepository"><path codeLine="112" d="M1909.56,176.19 C2091.41,236.02 2371,328 2371,328 C2371,328 2381.94,336.5 2397.24,348.39 " fill="none" id="Repositories-to-RolesRepository" style="stroke:#181818;stroke-width:1.0;"/><polygon fill="#181818" points="2401.22,351.48,2396.5781,342.7936,2397.2755,348.4073,2391.6619,349.1048,2401.22,351.48" style="stroke:#181818;stroke-width:1.0;"/><text fill="#000000" font-family="sans-serif" font-size="20" lengthAdjust="spacing" textLength="13" x="2378.644" y="338.8799">1</text></g><!--link RegisterEmployeeController to AgencyRepository--><g id="link_RegisterEmployeeController_AgencyRepository"><path codeLine="113" d="M496.8,239.69 C362.18,285.63 238,328 238,328 C238,328 226.79,336.5 211.11,348.39 " fill="none" id="RegisterEmployeeController-to-AgencyRepository" style="stroke:#181818;stroke-width:1.0;stroke-dasharray:7.0,7.0;"/><polygon fill="#181818" points="207.03,351.48,216.6211,349.2416,211.018,348.464,211.7955,342.8609,207.03,351.48" style="stroke:#181818;stroke-width:1.0;"/><text fill="#000000" font-family="sans-serif" font-size="20" lengthAdjust="spacing" textLength="180" x="398" y="292.5645">AgencyRepository</text></g><!--link RegisterEmployeeController to EmployeeRepository--><g id="link_RegisterEmployeeController_EmployeeRepository"><path codeLine="114" d="M1163.1,206.2 C1397.28,262.58 1669,328 1669,328 C1669,328 1673.67,329.25 1681.93,331.46 " fill="none" id="RegisterEmployeeController-to-EmployeeRepository" style="stroke:#181818;stroke-width:1.0;stroke-dasharray:7.0,7.0;"/><polygon fill="#181818" points="1686.89,332.79,1679.2223,326.6089,1682.0584,331.5035,1677.1638,334.3396,1686.89,332.79" style="stroke:#181818;stroke-width:1.0;"/><text fill="#000000" font-family="sans-serif" font-size="20" lengthAdjust="spacing" textLength="205" x="1530" y="292.5645">EmployeeRepository</text></g><!--link AgencyRepository to Agency--><g id="link_AgencyRepository_Agency"><path codeLine="115" d="M207.03,494.52 C224.81,508 238,518 238,518 C238,518 431.11,583.1 583.76,634.56 " fill="none" id="AgencyRepository-to-Agency" style="stroke:#181818;stroke-width:1.0;"/><polygon fill="#181818" points="588.71,636.23,581.4669,629.5564,583.9738,634.6274,578.9027,637.1343,588.71,636.23" style="stroke:#181818;stroke-width:1.0;"/><text fill="#000000" font-family="sans-serif" font-size="20" lengthAdjust="spacing" textLength="10" x="571.0196" y="628.7462">*</text></g><!--link EmployeeRepository to Employee--><g id="link_EmployeeRepository_Employee"><path codeLine="116" d="M1750.89,518.08 C1627.16,561.34 1485.48,610.87 1383.09,646.67 " fill="none" id="EmployeeRepository-to-Employee" style="stroke:#181818;stroke-width:1.0;"/><polygon fill="#181818" points="1378.25,648.37,1388.0643,649.1948,1382.9731,646.7291,1385.4388,641.6379,1378.25,648.37" style="stroke:#181818;stroke-width:1.0;"/><text fill="#000000" font-family="sans-serif" font-size="20" lengthAdjust="spacing" textLength="10" x="1385.9746" y="640.6504">*</text></g><!--link RegisterEmployeeController to Person--><g id="link_RegisterEmployeeController_Person"><path codeLine="117" d="M761.77,243.41 C746.35,269.96 730.12,297.88 715.2,323.56 " fill="none" id="RegisterEmployeeController-to-Person" style="stroke:#181818;stroke-width:1.0;stroke-dasharray:7.0,7.0;"/><polygon fill="#181818" points="712.63,327.99,720.6176,322.2282,715.1476,323.6701,713.7057,318.2001,712.63,327.99" style="stroke:#181818;stroke-width:1.0;"/><text fill="#000000" font-family="sans-serif" font-size="20" lengthAdjust="spacing" textLength="13" x="703.315" y="315.4225">1</text></g><!--link Employee to EmployeeRole--><g id="link_Employee_EmployeeRole"><path codeLine="118" d="M1378.27,697 C1552.36,697 1849.77,697 2005.72,697 " fill="none" id="Employee-EmployeeRole" style="stroke:#181818;stroke-width:1.0;"/><polygon fill="#000000" points="1679.5,681.6406,1665.0279,676.9383,1665.0279,686.3429,1679.5,681.6406" style="stroke:#000000;stroke-width:1.0;"/><text fill="#000000" font-family="sans-serif" font-size="20" lengthAdjust="spacing" textLength="35" x="1684.5" y="688.5645">has</text><text fill="#000000" font-family="sans-serif" font-size="20" lengthAdjust="spacing" textLength="13" x="1386.0777" y="691.9398">1</text><text fill="#000000" font-family="sans-serif" font-size="20" lengthAdjust="spacing" textLength="13" x="1985.0714" y="691.7811">1</text></g><!--link Person to Address--><g id="link_Person_Address"><path codeLine="119" d="M1060.23,423 C1103.41,423 1146.23,423 1186.43,423 " fill="none" id="Person-Address" style="stroke:#181818;stroke-width:1.0;"/><polygon fill="#000000" points="1093.25,407.6406,1078.7779,402.9383,1078.7779,412.3429,1093.25,407.6406" style="stroke:#000000;stroke-width:1.0;"/><text fill="#000000" font-family="sans-serif" font-size="20" lengthAdjust="spacing" textLength="70" x="1098.25" y="414.5645">lives in</text><text fill="#000000" font-family="sans-serif" font-size="20" lengthAdjust="spacing" textLength="13" x="1068.5323" y="418.3369">1</text><text fill="#000000" font-family="sans-serif" font-size="20" lengthAdjust="spacing" textLength="35" x="1143.2246" y="441.9515">1..*</text></g><!--link Agency to Employee--><g id="link_Agency_Employee"><path codeLine="120" d="M943.24,697 C997.03,697 1055.26,697 1105.9,697 " fill="none" id="Agency-Employee" style="stroke:#181818;stroke-width:1.0;"/><polygon fill="#000000" points="971.5,681.6406,985.9721,686.3429,985.9721,676.9383,971.5,681.6406" style="stroke:#000000;stroke-width:1.0;"/><text fill="#000000" font-family="sans-serif" font-size="20" lengthAdjust="spacing" textLength="84" x="992.5" y="688.5645">works in</text><text fill="#000000" font-family="sans-serif" font-size="20" lengthAdjust="spacing" textLength="13" x="950.9915" y="692.08">1</text><text fill="#000000" font-family="sans-serif" font-size="20" lengthAdjust="spacing" textLength="13" x="1085.1016" y="691.9398">1</text></g><!--reverse link Person to Employee--><g id="link_Person_Employee"><path codeLine="122" d="M878.42,526.66 C954.73,562.2 1038,600.99 1105.57,632.46 " fill="none" id="Person-backto-Employee" style="stroke:#181818;stroke-width:1.0;"/><polygon fill="none" points="875.38,532.97,860.21,518.18,881.29,520.28,875.38,532.97" style="stroke:#181818;stroke-width:1.0;"/></g><!--SRC=[lLR1Rjim3BthAuHScgvsqEqO506AOWCA3CFGOhTUL9jrXDYI8IdjtAt_FjgMP4bsivsMGnAHrEFZeoXR7xXecM9DBOi3bBI49tQipHSfp3r_1Vhfafnf5qCRAMInLx81QjGHoEHfMN5W5ToRhWQge31CL7KOeFUib2zSLFI9rJhqr5o0wLgWhQoxVX5cz4wfZ2J1hg9cMbyRe_ZZqS1j8SN0zvAGingU33MIAbxj3IrvJuTBGGWPDj7FJLlB3e3-8XG_kLlVoPuxVercUbsM2Z2UZR_EMe4eEig6dy5suH7N_UxCRJWdRoxbTr1Q2aoOtoDZ546m1loYu0QvYnkcoc_7vX6KznZsCx50mtXjcNbZkvS2RE25JRRkKsHpx6m2pIAqB8G9k4VoO0NK9kNbzBy4pIl11fdzHgkKLJdOTahU1S384POQEI9XR0QbMFULQtFbQjXXsFXFszQD9DUypCASsOC84iKw1TAu4W9Lj540PbgZ_bsW4v9Hl31XF3CmBLzvMyWI2BRHWgz7nA6JNUOHid5dvdOCh6Bbxw2LcXkfN0ykQ0LczFMghC-j5JjWPN2MPrRp4k4JSw4WD0OPVIuEsdSyD7eCf70haBieO7rEjr7G5E8FdQyX14Zh2ttzCTMHworWMM7Te1pw3LvpEB8rAAUGUZV2vKWZtfsp1_5FavRHwDB8xCrYioqsp5QPcXRKrkmPF55d6tUlWtESQ1OUby6LdfPXVqyxFIypntXYqdppxeOfdJVDwWjnCvncVpSWaY5r_hU6HkCIv_nnYm8C_cYGybqyM5lAxUZqWJE8pUx42ITfatD4NtrOHVSxEJ4XcnaP5OvkIdprSRNGvoJCngNpl1oL572IAvATNOBRfJmd8HREwNQfg5agf-te80iugVf_ez8BC3xOFTfWosEX-sVqbkwPfZjYNpfSr6RJ4x9Fh2s-MJsZjbnWO0nuR8EUOE2BL0SRw22lVkVuCYVoYVqV]--></g></svg>