<?xml version="1.0" encoding="UTF-8" standalone="no"?><svg xmlns="http://www.w3.org/2000/svg" xmlns:xlink="http://www.w3.org/1999/xlink" contentStyleType="text/css" height="1326px" preserveAspectRatio="none" style="width:2661px;height:1326px;background:#FFFFFF;" version="1.1" viewBox="0 0 2661 1326" width="2661px" zoomAndPan="magnify"><defs/><g><rect fill="#FFFFFF" height="1130.4375" style="stroke:#181818;stroke-width:1.0;" width="10" x="33" y="98.2813"/><rect fill="#FFFFFF" height="434.0938" style="stroke:#181818;stroke-width:1.0;" width="10" x="593" y="127.5625"/><rect fill="#FFFFFF" height="212.4063" style="stroke:#181818;stroke-width:1.0;" width="10" x="593" y="598.9375"/><rect fill="#FFFFFF" height="74.5625" style="stroke:#181818;stroke-width:1.0;" width="10" x="593" y="848.625"/><rect fill="#FFFFFF" height="311.25" style="stroke:#181818;stroke-width:1.0;" width="10" x="1164" y="213.125"/><rect fill="#FFFFFF" height="137.8438" style="stroke:#181818;stroke-width:1.0;" width="10" x="1164" y="636.2188"/><rect fill="#FFFFFF" height="37.2813" style="stroke:#181818;stroke-width:1.0;" width="10" x="1942" y="250.4063"/><rect fill="#FFFFFF" height="37.2813" style="stroke:#181818;stroke-width:1.0;" width="10" x="2096" y="324.9688"/><rect fill="#FFFFFF" height="37.2813" style="stroke:#181818;stroke-width:1.0;" width="10" x="2315" y="399.5313"/><rect fill="none" height="283.5313" style="stroke:#000000;stroke-width:1.5;" width="2193" x="461" y="938.1875"/><line style="stroke:#181818;stroke-width:0.5;stroke-dasharray:5.0,5.0;" x1="38" x2="38" y1="88.2813" y2="1238.7188"/><line style="stroke:#181818;stroke-width:0.5;stroke-dasharray:5.0,5.0;" x1="598" x2="598" y1="88.2813" y2="1238.7188"/><line style="stroke:#181818;stroke-width:0.5;stroke-dasharray:5.0,5.0;" x1="1168.5" x2="1168.5" y1="169.7031" y2="1238.7188"/><line style="stroke:#181818;stroke-width:0.5;stroke-dasharray:5.0,5.0;" x1="1621" x2="1621" y1="88.2813" y2="1238.7188"/><line style="stroke:#181818;stroke-width:0.5;stroke-dasharray:5.0,5.0;" x1="1790" x2="1790" y1="88.2813" y2="1238.7188"/><line style="stroke:#181818;stroke-width:0.5;stroke-dasharray:5.0,5.0;" x1="1947" x2="1947" y1="88.2813" y2="1238.7188"/><line style="stroke:#181818;stroke-width:0.5;stroke-dasharray:5.0,5.0;" x1="2101" x2="2101" y1="88.2813" y2="1238.7188"/><line style="stroke:#181818;stroke-width:0.5;stroke-dasharray:5.0,5.0;" x1="2320" x2="2320" y1="88.2813" y2="1238.7188"/><line style="stroke:#181818;stroke-width:0.5;stroke-dasharray:5.0,5.0;" x1="2555" x2="2555" y1="88.2813" y2="1238.7188"/><text fill="#000000" font-family="sans-serif" font-size="20" lengthAdjust="spacing" textLength="60" x="5" y="83.5645">Agent</text><ellipse cx="38" cy="13.5" fill="#9C9C9C" rx="8" ry="8" style="stroke:#181818;stroke-width:0.5;"/><path d="M38,21.5 L38,48.5 M25,29.5 L51,29.5 M38,48.5 L25,63.5 M38,48.5 L51,63.5 " fill="none" style="stroke:#181818;stroke-width:0.5;"/><text fill="#000000" font-family="sans-serif" font-size="20" lengthAdjust="spacing" textLength="60" x="5" y="1256.2832">Agent</text><ellipse cx="38" cy="1269.5" fill="#9C9C9C" rx="8" ry="8" style="stroke:#181818;stroke-width:0.5;"/><path d="M38,1277.5 L38,1304.5 M25,1285.5 L51,1285.5 M38,1304.5 L25,1319.5 M38,1304.5 L51,1319.5 " fill="none" style="stroke:#181818;stroke-width:0.5;"/><rect fill="#E3E3E3" height="37.2813" rx="2.5" ry="2.5" style="stroke:#181818;stroke-width:0.5;" width="254" x="471" y="50"/><text fill="#000000" font-family="sans-serif" font-size="20" lengthAdjust="spacing" textLength="240" x="478" y="75.5645">:VerifyAnnouncementUI</text><rect fill="#E3E3E3" height="37.2813" rx="2.5" ry="2.5" style="stroke:#181818;stroke-width:0.5;" width="254" x="471" y="1237.7188"/><text fill="#000000" font-family="sans-serif" font-size="20" lengthAdjust="spacing" textLength="240" x="478" y="1263.2832">:VerifyAnnouncementUI</text><rect fill="#E3E3E3" height="37.2813" rx="2.5" ry="2.5" style="stroke:#181818;stroke-width:0.5;" width="249" x="1044.5" y="1237.7188"/><text fill="#000000" font-family="sans-serif" font-size="20" lengthAdjust="spacing" textLength="235" x="1051.5" y="1263.2832">:CheckOrdersController</text><rect fill="#E3E3E3" height="37.2813" rx="2.5" ry="2.5" style="stroke:#181818;stroke-width:0.5;" width="168" x="1537" y="50"/><text fill="#000000" font-family="sans-serif" font-size="20" lengthAdjust="spacing" textLength="154" x="1544" y="75.5645">Announcement</text><rect fill="#E3E3E3" height="37.2813" rx="2.5" ry="2.5" style="stroke:#181818;stroke-width:0.5;" width="168" x="1537" y="1237.7188"/><text fill="#000000" font-family="sans-serif" font-size="20" lengthAdjust="spacing" textLength="154" x="1544" y="1263.2832">Announcement</text><rect fill="#E3E3E3" height="37.2813" rx="2.5" ry="2.5" style="stroke:#181818;stroke-width:0.5;" width="150" x="1715" y="50"/><text fill="#000000" font-family="sans-serif" font-size="20" lengthAdjust="spacing" textLength="136" x="1722" y="75.5645">AgentSession</text><rect fill="#E3E3E3" height="37.2813" rx="2.5" ry="2.5" style="stroke:#181818;stroke-width:0.5;" width="150" x="1715" y="1237.7188"/><text fill="#000000" font-family="sans-serif" font-size="20" lengthAdjust="spacing" textLength="136" x="1722" y="1263.2832">AgentSession</text><rect fill="#E3E3E3" height="37.2813" rx="2.5" ry="2.5" style="stroke:#181818;stroke-width:0.5;" width="144" x="1875" y="50"/><text fill="#000000" font-family="sans-serif" font-size="20" lengthAdjust="spacing" textLength="130" x="1882" y="75.5645">:Repositories</text><rect fill="#E3E3E3" height="37.2813" rx="2.5" ry="2.5" style="stroke:#181818;stroke-width:0.5;" width="144" x="1875" y="1237.7188"/><text fill="#000000" font-family="sans-serif" font-size="20" lengthAdjust="spacing" textLength="130" x="1882" y="1263.2832">:Repositories</text><rect fill="#E3E3E3" height="60.5625" rx="2.5" ry="2.5" style="stroke:#181818;stroke-width:0.5;" width="144" x="2029" y="26.7188"/><text fill="#000000" font-family="sans-serif" font-size="20" lengthAdjust="spacing" textLength="117" x="2042.5" y="52.2832">repositories</text><text fill="#000000" font-family="sans-serif" font-size="20" lengthAdjust="spacing" textLength="130" x="2036" y="75.5645">:Repositories</text><rect fill="#E3E3E3" height="60.5625" rx="2.5" ry="2.5" style="stroke:#181818;stroke-width:0.5;" width="144" x="2029" y="1237.7188"/><text fill="#000000" font-family="sans-serif" font-size="20" lengthAdjust="spacing" textLength="117" x="2042.5" y="1263.2832">repositories</text><text fill="#000000" font-family="sans-serif" font-size="20" lengthAdjust="spacing" textLength="130" x="2036" y="1286.5645">:Repositories</text><rect fill="#E3E3E3" height="37.2813" rx="2.5" ry="2.5" style="stroke:#181818;stroke-width:0.5;" width="274" x="2183" y="50"/><text fill="#000000" font-family="sans-serif" font-size="20" lengthAdjust="spacing" textLength="260" x="2190" y="75.5645">AnnouncementRepository</text><rect fill="#E3E3E3" height="37.2813" rx="2.5" ry="2.5" style="stroke:#181818;stroke-width:0.5;" width="274" x="2183" y="1237.7188"/><text fill="#000000" font-family="sans-serif" font-size="20" lengthAdjust="spacing" textLength="260" x="2190" y="1263.2832">AnnouncementRepository</text><rect fill="#E3E3E3" height="37.2813" rx="2.5" ry="2.5" style="stroke:#181818;stroke-width:0.5;" width="177" x="2467" y="50"/><text fill="#000000" font-family="sans-serif" font-size="20" lengthAdjust="spacing" textLength="163" x="2474" y="75.5645">EmailRepository</text><rect fill="#E3E3E3" height="37.2813" rx="2.5" ry="2.5" style="stroke:#181818;stroke-width:0.5;" width="177" x="2467" y="1237.7188"/><text fill="#000000" font-family="sans-serif" font-size="20" lengthAdjust="spacing" textLength="163" x="2474" y="1263.2832">EmailRepository</text><rect fill="#FFFFFF" height="1130.4375" style="stroke:#181818;stroke-width:1.0;" width="10" x="33" y="98.2813"/><rect fill="#FFFFFF" height="434.0938" style="stroke:#181818;stroke-width:1.0;" width="10" x="593" y="127.5625"/><rect fill="#FFFFFF" height="212.4063" style="stroke:#181818;stroke-width:1.0;" width="10" x="593" y="598.9375"/><rect fill="#FFFFFF" height="74.5625" style="stroke:#181818;stroke-width:1.0;" width="10" x="593" y="848.625"/><rect fill="#FFFFFF" height="311.25" style="stroke:#181818;stroke-width:1.0;" width="10" x="1164" y="213.125"/><rect fill="#FFFFFF" height="137.8438" style="stroke:#181818;stroke-width:1.0;" width="10" x="1164" y="636.2188"/><rect fill="#FFFFFF" height="37.2813" style="stroke:#181818;stroke-width:1.0;" width="10" x="1942" y="250.4063"/><rect fill="#FFFFFF" height="37.2813" style="stroke:#181818;stroke-width:1.0;" width="10" x="2096" y="324.9688"/><rect fill="#FFFFFF" height="37.2813" style="stroke:#181818;stroke-width:1.0;" width="10" x="2315" y="399.5313"/><polygon fill="#181818" points="581,123.5625,591,127.5625,581,131.5625,585,127.5625" style="stroke:#181818;stroke-width:1.0;"/><line style="stroke:#181818;stroke-width:1.0;" x1="43" x2="587" y1="127.5625" y2="127.5625"/><text fill="#000000" font-family="sans-serif" font-size="20" font-weight="bold" lengthAdjust="spacing" textLength="14" x="50" y="120.8457">1</text><text fill="#000000" font-family="sans-serif" font-size="20" lengthAdjust="spacing" textLength="340" x="68" y="120.8457">asks check orders from a property</text><polygon fill="#181818" points="1032.5,160.8438,1042.5,164.8438,1032.5,168.8438,1036.5,164.8438" style="stroke:#181818;stroke-width:1.0;"/><line style="stroke:#181818;stroke-width:1.0;" x1="603" x2="1038.5" y1="164.8438" y2="164.8438"/><text fill="#000000" font-family="sans-serif" font-size="20" font-weight="bold" lengthAdjust="spacing" textLength="14" x="610" y="158.127">2</text><text fill="#000000" font-family="sans-serif" font-size="20" lengthAdjust="spacing" textLength="63" x="628" y="158.127">create</text><rect fill="#E3E3E3" height="37.2813" rx="2.5" ry="2.5" style="stroke:#181818;stroke-width:0.5;" width="249" x="1044.5" y="135.5625"/><text fill="#000000" font-family="sans-serif" font-size="20" lengthAdjust="spacing" textLength="235" x="1051.5" y="161.127">:CheckOrdersController</text><polygon fill="#181818" points="1152,209.125,1162,213.125,1152,217.125,1156,213.125" style="stroke:#181818;stroke-width:1.0;"/><line style="stroke:#181818;stroke-width:1.0;" x1="603" x2="1158" y1="213.125" y2="213.125"/><text fill="#000000" font-family="sans-serif" font-size="20" font-weight="bold" lengthAdjust="spacing" textLength="14" x="610" y="206.4082">3</text><text fill="#000000" font-family="sans-serif" font-size="20" lengthAdjust="spacing" textLength="295" x="628" y="206.4082">getAnnouncementsByOrder()</text><polygon fill="#181818" points="1930,246.4063,1940,250.4063,1930,254.4063,1934,250.4063" style="stroke:#181818;stroke-width:1.0;"/><line style="stroke:#181818;stroke-width:1.0;" x1="1174" x2="1936" y1="250.4063" y2="250.4063"/><text fill="#000000" font-family="sans-serif" font-size="20" font-weight="bold" lengthAdjust="spacing" textLength="14" x="1181" y="243.6895">4</text><text fill="#000000" font-family="sans-serif" font-size="20" lengthAdjust="spacing" textLength="134" x="1199" y="243.6895">getInstance()</text><polygon fill="#181818" points="1185,283.6875,1175,287.6875,1185,291.6875,1181,287.6875" style="stroke:#181818;stroke-width:1.0;"/><line style="stroke:#181818;stroke-width:1.0;stroke-dasharray:2.0,2.0;" x1="1179" x2="1946" y1="287.6875" y2="287.6875"/><text fill="#000000" font-family="sans-serif" font-size="20" font-weight="bold" lengthAdjust="spacing" textLength="14" x="1191" y="280.9707">5</text><text fill="#000000" font-family="sans-serif" font-size="20" lengthAdjust="spacing" textLength="117" x="1209" y="280.9707">repositories</text><polygon fill="#181818" points="2084,320.9688,2094,324.9688,2084,328.9688,2088,324.9688" style="stroke:#181818;stroke-width:1.0;"/><line style="stroke:#181818;stroke-width:1.0;" x1="1174" x2="2090" y1="324.9688" y2="324.9688"/><text fill="#000000" font-family="sans-serif" font-size="20" font-weight="bold" lengthAdjust="spacing" textLength="14" x="1181" y="318.252">6</text><text fill="#000000" font-family="sans-serif" font-size="20" lengthAdjust="spacing" textLength="309" x="1199" y="318.252">getAnnouncementRepository()</text><polygon fill="#181818" points="1185,358.25,1175,362.25,1185,366.25,1181,362.25" style="stroke:#181818;stroke-width:1.0;"/><line style="stroke:#181818;stroke-width:1.0;stroke-dasharray:2.0,2.0;" x1="1179" x2="2100" y1="362.25" y2="362.25"/><text fill="#000000" font-family="sans-serif" font-size="20" font-weight="bold" lengthAdjust="spacing" textLength="14" x="1191" y="355.5332">7</text><text fill="#000000" font-family="sans-serif" font-size="20" lengthAdjust="spacing" textLength="260" x="1209" y="355.5332">AnnouncementRepository</text><polygon fill="#181818" points="2303,395.5313,2313,399.5313,2303,403.5313,2307,399.5313" style="stroke:#181818;stroke-width:1.0;"/><line style="stroke:#181818;stroke-width:1.0;" x1="1174" x2="2309" y1="399.5313" y2="399.5313"/><text fill="#000000" font-family="sans-serif" font-size="20" font-weight="bold" lengthAdjust="spacing" textLength="14" x="1181" y="392.8145">8</text><text fill="#000000" font-family="sans-serif" font-size="20" lengthAdjust="spacing" textLength="238" x="1199" y="392.8145">getAnnouncementList()</text><polygon fill="#181818" points="1185,432.8125,1175,436.8125,1185,440.8125,1181,436.8125" style="stroke:#181818;stroke-width:1.0;"/><line style="stroke:#181818;stroke-width:1.0;stroke-dasharray:2.0,2.0;" x1="1179" x2="2319" y1="436.8125" y2="436.8125"/><text fill="#000000" font-family="sans-serif" font-size="20" font-weight="bold" lengthAdjust="spacing" textLength="14" x="1191" y="430.0957">9</text><text fill="#000000" font-family="sans-serif" font-size="20" lengthAdjust="spacing" textLength="187" x="1209" y="430.0957">announcementList</text><line style="stroke:#181818;stroke-width:1.0;" x1="1174" x2="1216" y1="474.0938" y2="474.0938"/><line style="stroke:#181818;stroke-width:1.0;" x1="1216" x2="1216" y1="474.0938" y2="487.0938"/><line style="stroke:#181818;stroke-width:1.0;" x1="1175" x2="1216" y1="487.0938" y2="487.0938"/><polygon fill="#181818" points="1185,483.0938,1175,487.0938,1185,491.0938,1181,487.0938" style="stroke:#181818;stroke-width:1.0;"/><text fill="#000000" font-family="sans-serif" font-size="20" font-weight="bold" lengthAdjust="spacing" textLength="28" x="1181" y="467.377">10</text><text fill="#000000" font-family="sans-serif" font-size="20" lengthAdjust="spacing" textLength="396" x="1213" y="467.377">sort announcements by ascending date</text><polygon fill="#181818" points="614,520.375,604,524.375,614,528.375,610,524.375" style="stroke:#181818;stroke-width:1.0;"/><line style="stroke:#181818;stroke-width:1.0;stroke-dasharray:2.0,2.0;" x1="608" x2="1168" y1="524.375" y2="524.375"/><text fill="#000000" font-family="sans-serif" font-size="20" font-weight="bold" lengthAdjust="spacing" textLength="28" x="620" y="517.6582">11</text><text fill="#000000" font-family="sans-serif" font-size="20" lengthAdjust="spacing" textLength="189" x="652" y="517.6582">AnnouncementList</text><polygon fill="#181818" points="54,557.6563,44,561.6563,54,565.6563,50,561.6563" style="stroke:#181818;stroke-width:1.0;"/><line style="stroke:#181818;stroke-width:1.0;stroke-dasharray:2.0,2.0;" x1="48" x2="597" y1="561.6563" y2="561.6563"/><text fill="#000000" font-family="sans-serif" font-size="20" font-weight="bold" lengthAdjust="spacing" textLength="28" x="60" y="554.9395">12</text><text fill="#000000" font-family="sans-serif" font-size="20" lengthAdjust="spacing" textLength="349" x="92" y="554.9395">shows all announcements by order</text><polygon fill="#181818" points="581,594.9375,591,598.9375,581,602.9375,585,598.9375" style="stroke:#181818;stroke-width:1.0;"/><line style="stroke:#181818;stroke-width:1.0;" x1="43" x2="587" y1="598.9375" y2="598.9375"/><text fill="#000000" font-family="sans-serif" font-size="20" font-weight="bold" lengthAdjust="spacing" textLength="28" x="50" y="592.2207">13</text><text fill="#000000" font-family="sans-serif" font-size="20" lengthAdjust="spacing" textLength="259" x="82" y="592.2207">chose one announcement</text><polygon fill="#181818" points="1152,632.2188,1162,636.2188,1152,640.2188,1156,636.2188" style="stroke:#181818;stroke-width:1.0;"/><line style="stroke:#181818;stroke-width:1.0;" x1="603" x2="1158" y1="636.2188" y2="636.2188"/><text fill="#000000" font-family="sans-serif" font-size="20" font-weight="bold" lengthAdjust="spacing" textLength="28" x="610" y="629.502">14</text><text fill="#000000" font-family="sans-serif" font-size="20" lengthAdjust="spacing" textLength="510" x="642" y="629.502">getOrdersByOrder(Announcement announcement)</text><line style="stroke:#181818;stroke-width:1.0;" x1="1174" x2="1216" y1="673.5" y2="673.5"/><line style="stroke:#181818;stroke-width:1.0;" x1="1216" x2="1216" y1="673.5" y2="686.5"/><line style="stroke:#181818;stroke-width:1.0;" x1="1175" x2="1216" y1="686.5" y2="686.5"/><polygon fill="#181818" points="1185,682.5,1175,686.5,1185,690.5,1181,686.5" style="stroke:#181818;stroke-width:1.0;"/><text fill="#000000" font-family="sans-serif" font-size="20" font-weight="bold" lengthAdjust="spacing" textLength="28" x="1181" y="666.7832">15</text><text fill="#000000" font-family="sans-serif" font-size="20" lengthAdjust="spacing" textLength="116" x="1213" y="666.7832">getOrders()</text><line style="stroke:#181818;stroke-width:1.0;" x1="1174" x2="1216" y1="723.7813" y2="723.7813"/><line style="stroke:#181818;stroke-width:1.0;" x1="1216" x2="1216" y1="723.7813" y2="736.7813"/><line style="stroke:#181818;stroke-width:1.0;" x1="1175" x2="1216" y1="736.7813" y2="736.7813"/><polygon fill="#181818" points="1185,732.7813,1175,736.7813,1185,740.7813,1181,736.7813" style="stroke:#181818;stroke-width:1.0;"/><text fill="#000000" font-family="sans-serif" font-size="20" font-weight="bold" lengthAdjust="spacing" textLength="28" x="1181" y="717.0645">16</text><text fill="#000000" font-family="sans-serif" font-size="20" lengthAdjust="spacing" textLength="315" x="1213" y="717.0645">sort orders by descending price</text><polygon fill="#181818" points="614,770.0625,604,774.0625,614,778.0625,610,774.0625" style="stroke:#181818;stroke-width:1.0;"/><line style="stroke:#181818;stroke-width:1.0;stroke-dasharray:2.0,2.0;" x1="608" x2="1168" y1="774.0625" y2="774.0625"/><text fill="#000000" font-family="sans-serif" font-size="20" font-weight="bold" lengthAdjust="spacing" textLength="28" x="620" y="767.3457">17</text><text fill="#000000" font-family="sans-serif" font-size="20" lengthAdjust="spacing" textLength="92" x="652" y="767.3457">OrderList</text><polygon fill="#181818" points="54,807.3438,44,811.3438,54,815.3438,50,811.3438" style="stroke:#181818;stroke-width:1.0;"/><line style="stroke:#181818;stroke-width:1.0;stroke-dasharray:2.0,2.0;" x1="48" x2="597" y1="811.3438" y2="811.3438"/><text fill="#000000" font-family="sans-serif" font-size="20" font-weight="bold" lengthAdjust="spacing" textLength="28" x="60" y="804.627">18</text><text fill="#000000" font-family="sans-serif" font-size="20" lengthAdjust="spacing" textLength="250" x="92" y="804.627">shows all orders by order</text><polygon fill="#181818" points="581,844.625,591,848.625,581,852.625,585,848.625" style="stroke:#181818;stroke-width:1.0;"/><line style="stroke:#181818;stroke-width:1.0;" x1="43" x2="587" y1="848.625" y2="848.625"/><text fill="#000000" font-family="sans-serif" font-size="20" font-weight="bold" lengthAdjust="spacing" textLength="28" x="50" y="841.9082">19</text><text fill="#000000" font-family="sans-serif" font-size="20" lengthAdjust="spacing" textLength="160" x="82" y="841.9082">chose one order</text><polygon fill="#181818" points="54,881.9063,44,885.9063,54,889.9063,50,885.9063" style="stroke:#181818;stroke-width:1.0;"/><line style="stroke:#181818;stroke-width:1.0;stroke-dasharray:2.0,2.0;" x1="48" x2="592" y1="885.9063" y2="885.9063"/><text fill="#000000" font-family="sans-serif" font-size="20" font-weight="bold" lengthAdjust="spacing" textLength="28" x="60" y="879.1895">20</text><text fill="#000000" font-family="sans-serif" font-size="20" lengthAdjust="spacing" textLength="494" x="92" y="879.1895">shows the validate options (Accept/Denied/Redo)</text><polygon fill="#181818" points="586,919.1875,596,923.1875,586,927.1875,590,923.1875" style="stroke:#181818;stroke-width:1.0;"/><line style="stroke:#181818;stroke-width:1.0;" x1="43" x2="592" y1="923.1875" y2="923.1875"/><text fill="#000000" font-family="sans-serif" font-size="20" font-weight="bold" lengthAdjust="spacing" textLength="28" x="50" y="916.4707">21</text><text fill="#000000" font-family="sans-serif" font-size="20" lengthAdjust="spacing" textLength="171" x="82" y="916.4707">chose one option</text><path d="M461,938.1875 L537,938.1875 L537,953.4688 L527,963.4688 L461,963.4688 L461,938.1875 " fill="#EEEEEE" style="stroke:#000000;stroke-width:1.5;"/><rect fill="none" height="283.5313" style="stroke:#000000;stroke-width:1.5;" width="2193" x="461" y="938.1875"/><text fill="#000000" font-family="sans-serif" font-size="20" font-weight="bold" lengthAdjust="spacing" textLength="31" x="476" y="957.752">alt</text><text fill="#000000" font-family="sans-serif" font-size="20" font-weight="bold" lengthAdjust="spacing" textLength="199" x="552" y="958.752">[option = Accept]</text><polygon fill="#181818" points="1157,997.0313,1167,1001.0313,1157,1005.0313,1161,1001.0313" style="stroke:#181818;stroke-width:1.0;"/><line style="stroke:#181818;stroke-width:1.0;" x1="598" x2="1163" y1="1001.0313" y2="1001.0313"/><text fill="#000000" font-family="sans-serif" font-size="20" font-weight="bold" lengthAdjust="spacing" textLength="28" x="605" y="994.3145">22</text><text fill="#000000" font-family="sans-serif" font-size="20" lengthAdjust="spacing" textLength="398" x="637" y="994.3145">acceptThisOrder(announcement, order)</text><polygon fill="#181818" points="2543.5,1034.3125,2553.5,1038.3125,2543.5,1042.3125,2547.5,1038.3125" style="stroke:#181818;stroke-width:1.0;"/><line style="stroke:#181818;stroke-width:1.0;" x1="1169" x2="2549.5" y1="1038.3125" y2="1038.3125"/><text fill="#000000" font-family="sans-serif" font-size="20" font-weight="bold" lengthAdjust="spacing" textLength="28" x="1176" y="1031.5957">23</text><text fill="#000000" font-family="sans-serif" font-size="20" lengthAdjust="spacing" textLength="542" x="1208" y="1031.5957">Email(getEmployeeInSession(), person, subject, body)</text><line style="stroke:#000000;stroke-width:1.0;stroke-dasharray:2.0,2.0;" x1="461" x2="2654" y1="1047.3125" y2="1047.3125"/><text fill="#000000" font-family="sans-serif" font-size="20" font-weight="bold" lengthAdjust="spacing" textLength="202" x="466" y="1065.877">[option = Denied]</text><polygon fill="#181818" points="1157,1096.875,1167,1100.875,1157,1104.875,1161,1100.875" style="stroke:#181818;stroke-width:1.0;"/><line style="stroke:#181818;stroke-width:1.0;" x1="598" x2="1163" y1="1100.875" y2="1100.875"/><text fill="#000000" font-family="sans-serif" font-size="20" font-weight="bold" lengthAdjust="spacing" textLength="28" x="605" y="1094.1582">24</text><text fill="#000000" font-family="sans-serif" font-size="20" lengthAdjust="spacing" textLength="406" x="637" y="1094.1582">removeThisOrder(announcement, order)</text><polygon fill="#181818" points="2543.5,1134.1563,2553.5,1138.1563,2543.5,1142.1563,2547.5,1138.1563" style="stroke:#181818;stroke-width:1.0;"/><line style="stroke:#181818;stroke-width:1.0;" x1="1169" x2="2549.5" y1="1138.1563" y2="1138.1563"/><text fill="#000000" font-family="sans-serif" font-size="20" font-weight="bold" lengthAdjust="spacing" textLength="28" x="1176" y="1131.4395">25</text><text fill="#000000" font-family="sans-serif" font-size="20" lengthAdjust="spacing" textLength="542" x="1208" y="1131.4395">Email(getEmployeeInSession(), person, subject, body)</text><line style="stroke:#000000;stroke-width:1.0;stroke-dasharray:2.0,2.0;" x1="461" x2="2654" y1="1147.1563" y2="1147.1563"/><text fill="#000000" font-family="sans-serif" font-size="20" font-weight="bold" lengthAdjust="spacing" textLength="170" x="466" y="1165.7207">[option = Skip]</text><line style="stroke:#181818;stroke-width:1.0;" x1="598" x2="640" y1="1200.7188" y2="1200.7188"/><line style="stroke:#181818;stroke-width:1.0;" x1="640" x2="640" y1="1200.7188" y2="1213.7188"/><line style="stroke:#181818;stroke-width:1.0;" x1="599" x2="640" y1="1213.7188" y2="1213.7188"/><polygon fill="#181818" points="609,1209.7188,599,1213.7188,609,1217.7188,605,1213.7188" style="stroke:#181818;stroke-width:1.0;"/><text fill="#000000" font-family="sans-serif" font-size="20" font-weight="bold" lengthAdjust="spacing" textLength="28" x="605" y="1194.002">26</text><text fill="#000000" font-family="sans-serif" font-size="20" lengthAdjust="spacing" textLength="244" x="637" y="1194.002">new CheckOrderUI.run()</text><!--SRC=[nLN1Rjim3BthAuZkiBH8rs7701lWTXqGeC26fDrf5qLcOYssQ4XAC-_hHqj9BJjnhhjIV8zFZy-ossfJIokhajGMSyXnBNUb_qR6B_LVX4yVXJksG4M6L66fGl1sXyb9BTLMRd3fcnB1elBIRCgqmHKofxqs6rZBqg4GSkV9xAeLMY7U5pf7M1Fv5VqHKdcoS9LjqFWha0uoUBSWrznRsXl1T5uhNKlZuMhs4wrUDvanj3CAAqQyp0FcPJxeV2XGRR_R7ArxuCjPAakqeVNXUV7KRqxveeAaC6XjLIxHEKqc3buE1Y-m9gVvIXfTw7WhD4lTkiG-z24sGVmofmG_dhBdSS4T_OdqxgWFVwoaBWUuGKsqQz6lqYDaGcHm-uKjXXbtRXserbkWO2wiEHyWeRPKe_LDX-EL2COmidNyveRHoYAV95MkRT2dcjrz4xOskUwOmiP4w6VS6JyZpTmupg7257hEV76EuVQWQ0RfEaIEbwcEejeTdLwcWwIQmZv5G7HJH_QMp8-muy3p_QSIdhJpwV2HEMA4xxPRb1omfjh6M8zgunqTMT-ZSR1gE58AJTu-5NaRZWWvvYsxC3J6eWrJwmStkuBs3cHPdWu9OKt1RJgxMAk2708Px277iXnTZe_BCQwfq1x9Q8wZ9sz4lAGpRXq-Chv1Zcy-rLOh5AbJiy1nsQ3KduxsaZ6fBx7ln92Ks1S8hxBKxHg1QizFf8D9fXJM_kuh6etvtG9pkZu_8026IcJf3oVm6I9LVn4or9uBxU8UKkkdKNLdxE2HOtYeJ7W9ZrLTKeCuDuVNVN8z1NxH79afkDtgD__afh2Yl67vM3hiPCMhzMLPhEWL_wkivLRN1r4XumRtqFqLN-OVx8xP16TAz3xbVm00]--></g></svg>