<?xml version="1.0" encoding="UTF-8" standalone="no"?><svg xmlns="http://www.w3.org/2000/svg" xmlns:xlink="http://www.w3.org/1999/xlink" contentStyleType="text/css" height="1814px" preserveAspectRatio="none" style="width:1188px;height:1814px;background:#FFFFFF;" version="1.1" viewBox="0 0 1188 1814" width="1188px" zoomAndPan="magnify"><defs/><g><!--class Repositories--><g id="elem_Repositories"><rect codeLine="17" fill="#FFDAB9" height="166.4063" id="Repositories" rx="2.5" ry="2.5" style="stroke:#4169E1;stroke-width:0.5;" width="336" x="386.5" y="345"/><ellipse cx="488.5" cy="362" fill="#ADD1B2" rx="12" ry="12" style="stroke:#181818;stroke-width:1.0;"/><path d="M491.5625,369.0781 Q490.875,369.4375 490.125,369.6094 Q489.375,369.7813 488.5469,369.7813 Q485.5938,369.7813 484.0313,367.8438 Q482.4844,365.8906 482.4844,362.2188 Q482.4844,358.5469 484.0313,356.6094 Q485.5938,354.6563 488.5469,354.6563 Q489.375,354.6563 490.125,354.8281 Q490.8906,355 491.5625,355.3594 L491.5625,358.5625 Q490.8125,357.875 490.1094,357.5625 Q489.4219,357.25 488.6719,357.25 Q487.0938,357.25 486.2813,358.5 Q485.4844,359.75 485.4844,362.2188 Q485.4844,364.6875 486.2813,365.9375 Q487.0938,367.1875 488.6719,367.1875 Q489.4219,367.1875 490.1094,366.875 Q490.8125,366.5625 491.5625,365.875 L491.5625,369.0781 Z " fill="#000000"/><text fill="#000000" font-family="sans-serif" font-size="20" lengthAdjust="spacing" textLength="123" x="510.5" y="368.9238">Repositories</text><line style="stroke:#4169E1;stroke-width:0.5;" x1="387.5" x2="721.5" y1="379" y2="379"/><line style="stroke:#4169E1;stroke-width:0.5;" x1="387.5" x2="721.5" y1="387" y2="387"/><rect fill="#F24D5C" height="6" style="stroke:#C82930;stroke-width:1.0;" width="6" x="394.5" y="401.1406"/><text fill="#000000" font-family="sans-serif" font-size="20" lengthAdjust="spacing" textLength="139" x="407.5" y="409.5645">Repositories()</text><ellipse cx="397.5" cy="427.4219" fill="#84BE84" rx="3" ry="3" style="stroke:#038048;stroke-width:1.0;"/><text fill="#000000" font-family="sans-serif" font-size="20" lengthAdjust="spacing" textLength="276" x="407.5" y="432.8457">getInstance() : Repositories</text><ellipse cx="397.5" cy="450.7031" fill="#84BE84" rx="3" ry="3" style="stroke:#038048;stroke-width:1.0;"/><text fill="#000000" font-family="sans-serif" font-size="20" lengthAdjust="spacing" textLength="304" x="407.5" y="456.127">getAuthenticationRepository()</text><ellipse cx="397.5" cy="473.9844" fill="#84BE84" rx="3" ry="3" style="stroke:#038048;stroke-width:1.0;"/><text fill="#000000" font-family="sans-serif" font-size="20" lengthAdjust="spacing" textLength="222" x="407.5" y="479.4082">getPersonRepository()</text><ellipse cx="397.5" cy="497.2656" fill="#84BE84" rx="3" ry="3" style="stroke:#038048;stroke-width:1.0;"/><text fill="#000000" font-family="sans-serif" font-size="20" lengthAdjust="spacing" textLength="309" x="407.5" y="502.6895">getAnnouncementRepository()</text></g><!--class AnnouncementRepository--><g id="elem_AnnouncementRepository"><rect codeLine="25" fill="#FFDAB9" height="96.5625" id="AnnouncementRepository" rx="2.5" ry="2.5" style="stroke:#4169E1;stroke-width:0.5;" width="424" x="599.5" y="572"/><ellipse cx="677" cy="589" fill="#ADD1B2" rx="12" ry="12" style="stroke:#181818;stroke-width:1.0;"/><path d="M680.0625,596.0781 Q679.375,596.4375 678.625,596.6094 Q677.875,596.7813 677.0469,596.7813 Q674.0938,596.7813 672.5313,594.8438 Q670.9844,592.8906 670.9844,589.2188 Q670.9844,585.5469 672.5313,583.6094 Q674.0938,581.6563 677.0469,581.6563 Q677.875,581.6563 678.625,581.8281 Q679.3906,582 680.0625,582.3594 L680.0625,585.5625 Q679.3125,584.875 678.6094,584.5625 Q677.9219,584.25 677.1719,584.25 Q675.5938,584.25 674.7813,585.5 Q673.9844,586.75 673.9844,589.2188 Q673.9844,591.6875 674.7813,592.9375 Q675.5938,594.1875 677.1719,594.1875 Q677.9219,594.1875 678.6094,593.875 Q679.3125,593.5625 680.0625,592.875 L680.0625,596.0781 Z " fill="#000000"/><text fill="#000000" font-family="sans-serif" font-size="20" lengthAdjust="spacing" textLength="260" x="699" y="595.9238">AnnouncementRepository</text><line style="stroke:#4169E1;stroke-width:0.5;" x1="600.5" x2="1022.5" y1="606" y2="606"/><line style="stroke:#4169E1;stroke-width:0.5;" x1="600.5" x2="1022.5" y1="614" y2="614"/><ellipse cx="610.5" cy="631.1406" fill="#84BE84" rx="3" ry="3" style="stroke:#038048;stroke-width:1.0;"/><text fill="#000000" font-family="sans-serif" font-size="20" lengthAdjust="spacing" textLength="238" x="620.5" y="636.5645">getAnnouncementList()</text><ellipse cx="610.5" cy="654.4219" fill="#84BE84" rx="3" ry="3" style="stroke:#038048;stroke-width:1.0;"/><text fill="#000000" font-family="sans-serif" font-size="20" lengthAdjust="spacing" textLength="397" x="620.5" y="659.8457">removeAnnouncement(announcement)</text></g><!--class PersonRepository--><g id="elem_PersonRepository"><rect codeLine="30" fill="#FFDAB9" height="73.2813" id="PersonRepository" rx="2.5" ry="2.5" style="stroke:#4169E1;stroke-width:0.5;" width="301" x="7" y="699"/><ellipse cx="66.5" cy="716" fill="#ADD1B2" rx="12" ry="12" style="stroke:#181818;stroke-width:1.0;"/><path d="M69.5625,723.0781 Q68.875,723.4375 68.125,723.6094 Q67.375,723.7813 66.5469,723.7813 Q63.5938,723.7813 62.0313,721.8438 Q60.4844,719.8906 60.4844,716.2188 Q60.4844,712.5469 62.0313,710.6094 Q63.5938,708.6563 66.5469,708.6563 Q67.375,708.6563 68.125,708.8281 Q68.8906,709 69.5625,709.3594 L69.5625,712.5625 Q68.8125,711.875 68.1094,711.5625 Q67.4219,711.25 66.6719,711.25 Q65.0938,711.25 64.2813,712.5 Q63.4844,713.75 63.4844,716.2188 Q63.4844,718.6875 64.2813,719.9375 Q65.0938,721.1875 66.6719,721.1875 Q67.4219,721.1875 68.1094,720.875 Q68.8125,720.5625 69.5625,719.875 L69.5625,723.0781 Z " fill="#000000"/><text fill="#000000" font-family="sans-serif" font-size="20" lengthAdjust="spacing" textLength="173" x="88.5" y="722.9238">PersonRepository</text><line style="stroke:#4169E1;stroke-width:0.5;" x1="8" x2="307" y1="733" y2="733"/><line style="stroke:#4169E1;stroke-width:0.5;" x1="8" x2="307" y1="741" y2="741"/><ellipse cx="18" cy="758.1406" fill="#84BE84" rx="3" ry="3" style="stroke:#038048;stroke-width:1.0;"/><text fill="#000000" font-family="sans-serif" font-size="20" lengthAdjust="spacing" textLength="274" x="28" y="763.5645">getPersonById(idInSession)</text></g><!--class AuthenticationRepository--><g id="elem_AuthenticationRepository"><rect codeLine="34" fill="#FFDAB9" height="73.2813" id="AuthenticationRepository" rx="2.5" ry="2.5" style="stroke:#4169E1;stroke-width:0.5;" width="392" x="172.5" y="584"/><ellipse cx="236.5" cy="601" fill="#ADD1B2" rx="12" ry="12" style="stroke:#181818;stroke-width:1.0;"/><path d="M239.5625,608.0781 Q238.875,608.4375 238.125,608.6094 Q237.375,608.7813 236.5469,608.7813 Q233.5938,608.7813 232.0313,606.8438 Q230.4844,604.8906 230.4844,601.2188 Q230.4844,597.5469 232.0313,595.6094 Q233.5938,593.6563 236.5469,593.6563 Q237.375,593.6563 238.125,593.8281 Q238.8906,594 239.5625,594.3594 L239.5625,597.5625 Q238.8125,596.875 238.1094,596.5625 Q237.4219,596.25 236.6719,596.25 Q235.0938,596.25 234.2813,597.5 Q233.4844,598.75 233.4844,601.2188 Q233.4844,603.6875 234.2813,604.9375 Q235.0938,606.1875 236.6719,606.1875 Q237.4219,606.1875 238.1094,605.875 Q238.8125,605.5625 239.5625,604.875 L239.5625,608.0781 Z " fill="#000000"/><text fill="#000000" font-family="sans-serif" font-size="20" lengthAdjust="spacing" textLength="255" x="258.5" y="607.9238">AuthenticationRepository</text><line style="stroke:#4169E1;stroke-width:0.5;" x1="173.5" x2="563.5" y1="618" y2="618"/><line style="stroke:#4169E1;stroke-width:0.5;" x1="173.5" x2="563.5" y1="626" y2="626"/><ellipse cx="183.5" cy="643.1406" fill="#84BE84" rx="3" ry="3" style="stroke:#038048;stroke-width:1.0;"/><text fill="#000000" font-family="sans-serif" font-size="20" lengthAdjust="spacing" textLength="365" x="193.5" y="648.5645">getCurrentUserSession().getUserId()</text></g><!--class OrderCheckUI--><g id="elem_OrderCheckUI"><rect codeLine="38" fill="#FFDAB9" height="50" id="OrderCheckUI" rx="2.5" ry="2.5" style="stroke:#4169E1;stroke-width:0.5;" width="174" x="728.5" y="7"/><ellipse cx="744.5" cy="24" fill="#ADD1B2" rx="12" ry="12" style="stroke:#181818;stroke-width:1.0;"/><path d="M747.5625,31.0781 Q746.875,31.4375 746.125,31.6094 Q745.375,31.7813 744.5469,31.7813 Q741.5938,31.7813 740.0313,29.8438 Q738.4844,27.8906 738.4844,24.2188 Q738.4844,20.5469 740.0313,18.6094 Q741.5938,16.6563 744.5469,16.6563 Q745.375,16.6563 746.125,16.8281 Q746.8906,17 747.5625,17.3594 L747.5625,20.5625 Q746.8125,19.875 746.1094,19.5625 Q745.4219,19.25 744.6719,19.25 Q743.0938,19.25 742.2813,20.5 Q741.4844,21.75 741.4844,24.2188 Q741.4844,26.6875 742.2813,27.9375 Q743.0938,29.1875 744.6719,29.1875 Q745.4219,29.1875 746.1094,28.875 Q746.8125,28.5625 747.5625,27.875 L747.5625,31.0781 Z " fill="#000000"/><text fill="#000000" font-family="sans-serif" font-size="20" lengthAdjust="spacing" textLength="140" x="759.5" y="30.9238">OrderCheckUI</text><line style="stroke:#4169E1;stroke-width:0.5;" x1="729.5" x2="901.5" y1="41" y2="41"/><line style="stroke:#4169E1;stroke-width:0.5;" x1="729.5" x2="901.5" y1="49" y2="49"/></g><!--class OrderCheckController--><g id="elem_OrderCheckController"><rect codeLine="41" fill="#FFDAB9" height="166.4063" id="OrderCheckController" rx="2.5" ry="2.5" style="stroke:#4169E1;stroke-width:0.5;" width="731" x="450" y="118"/><ellipse cx="702" cy="135" fill="#ADD1B2" rx="12" ry="12" style="stroke:#181818;stroke-width:1.0;"/><path d="M705.0625,142.0781 Q704.375,142.4375 703.625,142.6094 Q702.875,142.7813 702.0469,142.7813 Q699.0938,142.7813 697.5313,140.8438 Q695.9844,138.8906 695.9844,135.2188 Q695.9844,131.5469 697.5313,129.6094 Q699.0938,127.6563 702.0469,127.6563 Q702.875,127.6563 703.625,127.8281 Q704.3906,128 705.0625,128.3594 L705.0625,131.5625 Q704.3125,130.875 703.6094,130.5625 Q702.9219,130.25 702.1719,130.25 Q700.5938,130.25 699.7813,131.5 Q698.9844,132.75 698.9844,135.2188 Q698.9844,137.6875 699.7813,138.9375 Q700.5938,140.1875 702.1719,140.1875 Q702.9219,140.1875 703.6094,139.875 Q704.3125,139.5625 705.0625,138.875 L705.0625,142.0781 Z " fill="#000000"/><text fill="#000000" font-family="sans-serif" font-size="20" lengthAdjust="spacing" textLength="218" x="724" y="141.9238">OrderCheckController</text><line style="stroke:#4169E1;stroke-width:0.5;" x1="451" x2="1180" y1="152" y2="152"/><line style="stroke:#4169E1;stroke-width:0.5;" x1="451" x2="1180" y1="160" y2="160"/><ellipse cx="461" cy="177.1406" fill="#84BE84" rx="3" ry="3" style="stroke:#038048;stroke-width:1.0;"/><text fill="#000000" font-family="sans-serif" font-size="20" lengthAdjust="spacing" textLength="295" x="471" y="182.5645">getAnnouncementsByOrder()</text><ellipse cx="461" cy="200.4219" fill="#84BE84" rx="3" ry="3" style="stroke:#038048;stroke-width:1.0;"/><text fill="#000000" font-family="sans-serif" font-size="20" lengthAdjust="spacing" textLength="198" x="471" y="205.8457">getOrdersByOrder()</text><ellipse cx="461" cy="223.7031" fill="#84BE84" rx="3" ry="3" style="stroke:#038048;stroke-width:1.0;"/><text fill="#000000" font-family="sans-serif" font-size="20" lengthAdjust="spacing" textLength="696" x="471" y="229.127">acceptThisOrder(Announcement announcement, Order chosenOrder)</text><ellipse cx="461" cy="246.9844" fill="#84BE84" rx="3" ry="3" style="stroke:#038048;stroke-width:1.0;"/><text fill="#000000" font-family="sans-serif" font-size="20" lengthAdjust="spacing" textLength="704" x="471" y="252.4082">removeThisOrder(Announcement announcement, Order chosenOrder)</text><ellipse cx="461" cy="270.2656" fill="#84BE84" rx="3" ry="3" style="stroke:#038048;stroke-width:1.0;"/><text fill="#000000" font-family="sans-serif" font-size="20" lengthAdjust="spacing" textLength="504" x="471" y="275.6895">notifyClient(Person person, boolean wasAccepted)</text></g><!--class Order--><g id="elem_Order"><rect codeLine="49" fill="#FFDAB9" height="166.4063" id="Order" rx="2.5" ry="2.5" style="stroke:#4169E1;stroke-width:0.5;" width="472" x="575.5" y="1163"/><ellipse cx="778.5" cy="1180" fill="#ADD1B2" rx="12" ry="12" style="stroke:#181818;stroke-width:1.0;"/><path d="M781.5625,1187.0781 Q780.875,1187.4375 780.125,1187.6094 Q779.375,1187.7813 778.5469,1187.7813 Q775.5938,1187.7813 774.0313,1185.8438 Q772.4844,1183.8906 772.4844,1180.2188 Q772.4844,1176.5469 774.0313,1174.6094 Q775.5938,1172.6563 778.5469,1172.6563 Q779.375,1172.6563 780.125,1172.8281 Q780.8906,1173 781.5625,1173.3594 L781.5625,1176.5625 Q780.8125,1175.875 780.1094,1175.5625 Q779.4219,1175.25 778.6719,1175.25 Q777.0938,1175.25 776.2813,1176.5 Q775.4844,1177.75 775.4844,1180.2188 Q775.4844,1182.6875 776.2813,1183.9375 Q777.0938,1185.1875 778.6719,1185.1875 Q779.4219,1185.1875 780.1094,1184.875 Q780.8125,1184.5625 781.5625,1183.875 L781.5625,1187.0781 Z " fill="#000000"/><text fill="#000000" font-family="sans-serif" font-size="20" lengthAdjust="spacing" textLength="57" x="800.5" y="1186.9238">Order</text><line style="stroke:#4169E1;stroke-width:0.5;" x1="576.5" x2="1046.5" y1="1197" y2="1197"/><rect fill="none" height="6" style="stroke:#C82930;stroke-width:1.0;" width="6" x="583.5" y="1211.1406"/><text fill="#000000" font-family="sans-serif" font-size="20" lengthAdjust="spacing" textLength="141" x="596.5" y="1219.5645">Person person</text><rect fill="none" height="6" style="stroke:#C82930;stroke-width:1.0;" width="6" x="583.5" y="1234.4219"/><text fill="#000000" font-family="sans-serif" font-size="20" lengthAdjust="spacing" textLength="125" x="596.5" y="1242.8457">double price</text><rect fill="none" height="6" style="stroke:#C82930;stroke-width:1.0;" width="6" x="583.5" y="1257.7031"/><text fill="#000000" font-family="sans-serif" font-size="20" lengthAdjust="spacing" textLength="98" x="596.5" y="1266.127">Date date</text><line style="stroke:#4169E1;stroke-width:0.5;" x1="576.5" x2="1046.5" y1="1274.8438" y2="1274.8438"/><ellipse cx="586.5" cy="1291.9844" fill="#84BE84" rx="3" ry="3" style="stroke:#038048;stroke-width:1.0;"/><text fill="#000000" font-family="sans-serif" font-size="20" lengthAdjust="spacing" textLength="444" x="596.5" y="1297.4082">selectOrder(Announcement announcement)</text><ellipse cx="586.5" cy="1315.2656" fill="#84BE84" rx="3" ry="3" style="stroke:#038048;stroke-width:1.0;"/><text fill="#000000" font-family="sans-serif" font-size="20" lengthAdjust="spacing" textLength="445" x="596.5" y="1320.6895">validateOrder(announcement, chosenOrder)</text></g><!--class Person--><g id="elem_Person"><rect codeLine="57" fill="#FFDAB9" height="189.6875" id="Person" rx="2.5" ry="2.5" style="stroke:#4169E1;stroke-width:0.5;" width="238" x="98.5" y="1390"/><ellipse cx="179.5" cy="1407" fill="#ADD1B2" rx="12" ry="12" style="stroke:#181818;stroke-width:1.0;"/><path d="M182.5625,1414.0781 Q181.875,1414.4375 181.125,1414.6094 Q180.375,1414.7813 179.5469,1414.7813 Q176.5938,1414.7813 175.0313,1412.8438 Q173.4844,1410.8906 173.4844,1407.2188 Q173.4844,1403.5469 175.0313,1401.6094 Q176.5938,1399.6563 179.5469,1399.6563 Q180.375,1399.6563 181.125,1399.8281 Q181.8906,1400 182.5625,1400.3594 L182.5625,1403.5625 Q181.8125,1402.875 181.1094,1402.5625 Q180.4219,1402.25 179.6719,1402.25 Q178.0938,1402.25 177.2813,1403.5 Q176.4844,1404.75 176.4844,1407.2188 Q176.4844,1409.6875 177.2813,1410.9375 Q178.0938,1412.1875 179.6719,1412.1875 Q180.4219,1412.1875 181.1094,1411.875 Q181.8125,1411.5625 182.5625,1410.875 L182.5625,1414.0781 Z " fill="#000000"/><text fill="#000000" font-family="sans-serif" font-size="20" lengthAdjust="spacing" textLength="67" x="201.5" y="1413.9238">Person</text><line style="stroke:#4169E1;stroke-width:0.5;" x1="99.5" x2="335.5" y1="1424" y2="1424"/><rect fill="none" height="6" style="stroke:#C82930;stroke-width:1.0;" width="6" x="106.5" y="1438.1406"/><text fill="#000000" font-family="sans-serif" font-size="20" lengthAdjust="spacing" textLength="124" x="119.5" y="1446.5645">String name</text><rect fill="none" height="6" style="stroke:#C82930;stroke-width:1.0;" width="6" x="106.5" y="1461.4219"/><text fill="#000000" font-family="sans-serif" font-size="20" lengthAdjust="spacing" textLength="200" x="119.5" y="1469.8457">int passportNumber</text><rect fill="none" height="6" style="stroke:#C82930;stroke-width:1.0;" width="6" x="106.5" y="1484.7031"/><text fill="#000000" font-family="sans-serif" font-size="20" lengthAdjust="spacing" textLength="145" x="119.5" y="1493.127">int taxNumber</text><rect fill="none" height="6" style="stroke:#C82930;stroke-width:1.0;" width="6" x="106.5" y="1507.9844"/><text fill="#000000" font-family="sans-serif" font-size="20" lengthAdjust="spacing" textLength="119" x="119.5" y="1516.4082">Email email</text><rect fill="none" height="6" style="stroke:#C82930;stroke-width:1.0;" width="6" x="106.5" y="1531.2656"/><text fill="#000000" font-family="sans-serif" font-size="20" lengthAdjust="spacing" textLength="211" x="119.5" y="1539.6895">String phoneNumber</text><rect fill="none" height="6" style="stroke:#C82930;stroke-width:1.0;" width="6" x="106.5" y="1554.5469"/><text fill="#000000" font-family="sans-serif" font-size="20" lengthAdjust="spacing" textLength="164" x="119.5" y="1562.9707">Address address</text><line style="stroke:#4169E1;stroke-width:0.5;" x1="99.5" x2="335.5" y1="1571.6875" y2="1571.6875"/></g><!--class Address--><g id="elem_Address"><rect codeLine="66" fill="#FFDAB9" height="166.4063" id="Address" rx="2.5" ry="2.5" style="stroke:#4169E1;stroke-width:0.5;" width="164" x="135.5" y="1641"/><ellipse cx="174" cy="1658" fill="#ADD1B2" rx="12" ry="12" style="stroke:#181818;stroke-width:1.0;"/><path d="M177.0625,1665.0781 Q176.375,1665.4375 175.625,1665.6094 Q174.875,1665.7813 174.0469,1665.7813 Q171.0938,1665.7813 169.5313,1663.8438 Q167.9844,1661.8906 167.9844,1658.2188 Q167.9844,1654.5469 169.5313,1652.6094 Q171.0938,1650.6563 174.0469,1650.6563 Q174.875,1650.6563 175.625,1650.8281 Q176.3906,1651 177.0625,1651.3594 L177.0625,1654.5625 Q176.3125,1653.875 175.6094,1653.5625 Q174.9219,1653.25 174.1719,1653.25 Q172.5938,1653.25 171.7813,1654.5 Q170.9844,1655.75 170.9844,1658.2188 Q170.9844,1660.6875 171.7813,1661.9375 Q172.5938,1663.1875 174.1719,1663.1875 Q174.9219,1663.1875 175.6094,1662.875 Q176.3125,1662.5625 177.0625,1661.875 L177.0625,1665.0781 Z " fill="#000000"/><text fill="#000000" font-family="sans-serif" font-size="20" lengthAdjust="spacing" textLength="80" x="194" y="1664.9238">Address</text><line style="stroke:#4169E1;stroke-width:0.5;" x1="136.5" x2="298.5" y1="1675" y2="1675"/><rect fill="none" height="6" style="stroke:#C82930;stroke-width:1.0;" width="6" x="143.5" y="1689.1406"/><text fill="#000000" font-family="sans-serif" font-size="20" lengthAdjust="spacing" textLength="125" x="156.5" y="1697.5645">String street</text><rect fill="none" height="6" style="stroke:#C82930;stroke-width:1.0;" width="6" x="143.5" y="1712.4219"/><text fill="#000000" font-family="sans-serif" font-size="20" lengthAdjust="spacing" textLength="103" x="156.5" y="1720.8457">String city</text><rect fill="none" height="6" style="stroke:#C82930;stroke-width:1.0;" width="6" x="143.5" y="1735.7031"/><text fill="#000000" font-family="sans-serif" font-size="20" lengthAdjust="spacing" textLength="137" x="156.5" y="1744.127">String district</text><rect fill="none" height="6" style="stroke:#C82930;stroke-width:1.0;" width="6" x="143.5" y="1758.9844"/><text fill="#000000" font-family="sans-serif" font-size="20" lengthAdjust="spacing" textLength="117" x="156.5" y="1767.4082">String state</text><rect fill="none" height="6" style="stroke:#C82930;stroke-width:1.0;" width="6" x="143.5" y="1782.2656"/><text fill="#000000" font-family="sans-serif" font-size="20" lengthAdjust="spacing" textLength="111" x="156.5" y="1790.6895">int zipcode</text><line style="stroke:#4169E1;stroke-width:0.5;" x1="136.5" x2="298.5" y1="1799.4063" y2="1799.4063"/></g><!--class Announcement--><g id="elem_Announcement"><rect codeLine="74" fill="#FFDAB9" height="166.4063" id="Announcement" rx="2.5" ry="2.5" style="stroke:#4169E1;stroke-width:0.5;" width="281" x="671" y="802"/><ellipse cx="730" cy="819" fill="#ADD1B2" rx="12" ry="12" style="stroke:#181818;stroke-width:1.0;"/><path d="M733.0625,826.0781 Q732.375,826.4375 731.625,826.6094 Q730.875,826.7813 730.0469,826.7813 Q727.0938,826.7813 725.5313,824.8438 Q723.9844,822.8906 723.9844,819.2188 Q723.9844,815.5469 725.5313,813.6094 Q727.0938,811.6563 730.0469,811.6563 Q730.875,811.6563 731.625,811.8281 Q732.3906,812 733.0625,812.3594 L733.0625,815.5625 Q732.3125,814.875 731.6094,814.5625 Q730.9219,814.25 730.1719,814.25 Q728.5938,814.25 727.7813,815.5 Q726.9844,816.75 726.9844,819.2188 Q726.9844,821.6875 727.7813,822.9375 Q728.5938,824.1875 730.1719,824.1875 Q730.9219,824.1875 731.6094,823.875 Q732.3125,823.5625 733.0625,822.875 L733.0625,826.0781 Z " fill="#000000"/><text fill="#000000" font-family="sans-serif" font-size="20" lengthAdjust="spacing" textLength="154" x="752" y="825.9238">Announcement</text><line style="stroke:#4169E1;stroke-width:0.5;" x1="672" x2="951" y1="836" y2="836"/><rect fill="none" height="6" style="stroke:#C82930;stroke-width:1.0;" width="6" x="679" y="850.1406"/><text fill="#000000" font-family="sans-serif" font-size="20" lengthAdjust="spacing" textLength="175" x="692" y="858.5645">Property property</text><rect fill="none" height="6" style="stroke:#C82930;stroke-width:1.0;" width="6" x="679" y="873.4219"/><text fill="#000000" font-family="sans-serif" font-size="20" lengthAdjust="spacing" textLength="203" x="692" y="881.8457">Employee employee</text><rect fill="none" height="6" style="stroke:#C82930;stroke-width:1.0;" width="6" x="679" y="896.7031"/><text fill="#000000" font-family="sans-serif" font-size="20" lengthAdjust="spacing" textLength="94" x="692" y="905.127">User user</text><rect fill="none" height="6" style="stroke:#C82930;stroke-width:1.0;" width="6" x="679" y="919.9844"/><text fill="#000000" font-family="sans-serif" font-size="20" lengthAdjust="spacing" textLength="254" x="692" y="928.4082">ArrayList &lt;Order&gt; orders</text><line style="stroke:#4169E1;stroke-width:0.5;" x1="672" x2="951" y1="937.125" y2="937.125"/><ellipse cx="682" cy="954.2656" fill="#84BE84" rx="3" ry="3" style="stroke:#038048;stroke-width:1.0;"/><text fill="#000000" font-family="sans-serif" font-size="20" lengthAdjust="spacing" textLength="229" x="692" y="959.6895">selectAnnouncement()</text></g><!--class Orders--><g id="elem_Orders"><rect codeLine="82" fill="#FFDAB9" height="73.2813" id="Orders" rx="2.5" ry="2.5" style="stroke:#4169E1;stroke-width:0.5;" width="281" x="671" y="1029"/><ellipse cx="773.5" cy="1046" fill="#ADD1B2" rx="12" ry="12" style="stroke:#181818;stroke-width:1.0;"/><path d="M776.5625,1053.0781 Q775.875,1053.4375 775.125,1053.6094 Q774.375,1053.7813 773.5469,1053.7813 Q770.5938,1053.7813 769.0313,1051.8438 Q767.4844,1049.8906 767.4844,1046.2188 Q767.4844,1042.5469 769.0313,1040.6094 Q770.5938,1038.6563 773.5469,1038.6563 Q774.375,1038.6563 775.125,1038.8281 Q775.8906,1039 776.5625,1039.3594 L776.5625,1042.5625 Q775.8125,1041.875 775.1094,1041.5625 Q774.4219,1041.25 773.6719,1041.25 Q772.0938,1041.25 771.2813,1042.5 Q770.4844,1043.75 770.4844,1046.2188 Q770.4844,1048.6875 771.2813,1049.9375 Q772.0938,1051.1875 773.6719,1051.1875 Q774.4219,1051.1875 775.1094,1050.875 Q775.8125,1050.5625 776.5625,1049.875 L776.5625,1053.0781 Z " fill="#000000"/><text fill="#000000" font-family="sans-serif" font-size="20" lengthAdjust="spacing" textLength="67" x="795.5" y="1052.9238">Orders</text><line style="stroke:#4169E1;stroke-width:0.5;" x1="672" x2="951" y1="1063" y2="1063"/><rect fill="none" height="6" style="stroke:#C82930;stroke-width:1.0;" width="6" x="679" y="1077.1406"/><text fill="#000000" font-family="sans-serif" font-size="20" lengthAdjust="spacing" textLength="254" x="692" y="1085.5645">ArrayList &lt;Order&gt; orders</text><line style="stroke:#4169E1;stroke-width:0.5;" x1="672" x2="951" y1="1094.2813" y2="1094.2813"/></g><!--class User--><g id="elem_User"><rect codeLine="86" fill="#FFDAB9" height="143.125" id="User" rx="2.5" ry="2.5" style="stroke:#4169E1;stroke-width:0.5;" width="231" x="253" y="813.5"/><ellipse cx="341.5" cy="830.5" fill="#ADD1B2" rx="12" ry="12" style="stroke:#181818;stroke-width:1.0;"/><path d="M344.5625,837.5781 Q343.875,837.9375 343.125,838.1094 Q342.375,838.2813 341.5469,838.2813 Q338.5938,838.2813 337.0313,836.3438 Q335.4844,834.3906 335.4844,830.7188 Q335.4844,827.0469 337.0313,825.1094 Q338.5938,823.1563 341.5469,823.1563 Q342.375,823.1563 343.125,823.3281 Q343.8906,823.5 344.5625,823.8594 L344.5625,827.0625 Q343.8125,826.375 343.1094,826.0625 Q342.4219,825.75 341.6719,825.75 Q340.0938,825.75 339.2813,827 Q338.4844,828.25 338.4844,830.7188 Q338.4844,833.1875 339.2813,834.4375 Q340.0938,835.6875 341.6719,835.6875 Q342.4219,835.6875 343.1094,835.375 Q343.8125,835.0625 344.5625,834.375 L344.5625,837.5781 Z " fill="#000000"/><text fill="#000000" font-family="sans-serif" font-size="20" lengthAdjust="spacing" textLength="45" x="363.5" y="837.4238">User</text><line style="stroke:#4169E1;stroke-width:0.5;" x1="254" x2="483" y1="847.5" y2="847.5"/><rect fill="none" height="6" style="stroke:#C82930;stroke-width:1.0;" width="6" x="261" y="861.6406"/><text fill="#000000" font-family="sans-serif" font-size="20" lengthAdjust="spacing" textLength="82" x="274" y="870.0645">Email id</text><rect fill="none" height="6" style="stroke:#C82930;stroke-width:1.0;" width="6" x="261" y="884.9219"/><text fill="#000000" font-family="sans-serif" font-size="20" lengthAdjust="spacing" textLength="143" x="274" y="893.3457">Password pwd</text><rect fill="none" height="6" style="stroke:#C82930;stroke-width:1.0;" width="6" x="261" y="908.2031"/><text fill="#000000" font-family="sans-serif" font-size="20" lengthAdjust="spacing" textLength="124" x="274" y="916.627">String name</text><line style="stroke:#4169E1;stroke-width:0.5;" x1="254" x2="483" y1="925.3438" y2="925.3438"/><ellipse cx="264" cy="942.4844" fill="#84BE84" rx="3" ry="3" style="stroke:#038048;stroke-width:1.0;"/><text fill="#000000" font-family="sans-serif" font-size="20" lengthAdjust="spacing" textLength="204" x="274" y="947.9082">User(id, pwd, name)</text></g><!--link OrderCheckUI to OrderCheckController--><g id="link_OrderCheckUI_OrderCheckController"><path codeLine="94" d="M815.5,57.28 C815.5,72.21 815.5,92.34 815.5,112.77 " fill="none" id="OrderCheckUI-to-OrderCheckController" style="stroke:#4169E1;stroke-width:1.0;"/><polygon fill="#4169E1" points="815.5,117.97,819.5,108.97,815.5,112.97,811.5,108.97,815.5,117.97" style="stroke:#4169E1;stroke-width:1.0;"/></g><!--link OrderCheckController to Repositories--><g id="link_OrderCheckController_Repositories"><path codeLine="97" d="M720.17,284.19 C698.64,302.74 675.74,322.48 654.05,341.18 " fill="none" id="OrderCheckController-to-Repositories" style="stroke:#4169E1;stroke-width:1.0;"/><polygon fill="#4169E1" points="650.01,344.66,659.4412,341.8223,653.8002,341.399,654.2236,335.758,650.01,344.66" style="stroke:#4169E1;stroke-width:1.0;"/></g><!--link OrderCheckController to Order--><g id="link_OrderCheckController_Order"><path codeLine="98" d="M910.83,284.19 C985.39,348.46 1076.5,427 1076.5,427 C1076.5,427 1076.5,427 1076.5,1066.5 C1076.5,1066.5 1006.2,1113.85 938.02,1159.78 " fill="none" id="OrderCheckController-to-Order" style="stroke:#4169E1;stroke-width:1.0;"/><polygon fill="#4169E1" points="933.53,1162.8,943.2306,1161.0974,937.6792,1160.01,938.7666,1154.4587,933.53,1162.8" style="stroke:#4169E1;stroke-width:1.0;"/></g><!--link Repositories to Repositories--><g id="link_Repositories_Repositories"><path codeLine="101" d="M722.52,409.71 C743.61,412.94 757.5,419.03 757.5,428 C757.5,436.2 745.9,442 727.79,445.39 " fill="none" id="Repositories-to-Repositories" style="stroke:#4169E1;stroke-width:1.0;"/><polygon fill="#4169E1" points="722.52,446.29,732.0655,448.7157,727.4485,445.4472,730.7169,440.8301,722.52,446.29" style="stroke:#4169E1;stroke-width:1.0;"/><text fill="#000000" font-family="sans-serif" font-size="20" lengthAdjust="spacing" textLength="85" x="763.5" y="435.0645">instance</text></g><!--link Repositories to AnnouncementRepository--><g id="link_Repositories_AnnouncementRepository"><path codeLine="102" d="M665.36,511.17 C691.81,530.78 719.28,551.14 743.17,568.85 " fill="none" id="Repositories-to-AnnouncementRepository" style="stroke:#4169E1;stroke-width:1.0;"/><polygon fill="#4169E1" points="747.28,571.9,742.4311,563.3275,743.263,568.9228,737.6676,569.7547,747.28,571.9" style="stroke:#4169E1;stroke-width:1.0;"/></g><!--link Repositories to PersonRepository--><g id="link_Repositories_PersonRepository"><path codeLine="103" d="M386.44,489.23 C277.4,528.31 155.5,572 155.5,572 C155.5,572 155.5,669 155.5,669 C155.5,669 155.84,680.22 156.24,693.37 " fill="none" id="Repositories-to-PersonRepository" style="stroke:#4169E1;stroke-width:1.0;"/><polygon fill="#4169E1" points="156.41,698.68,160.1253,689.5588,156.2529,693.6825,152.1293,689.8101,156.41,698.68" style="stroke:#4169E1;stroke-width:1.0;"/></g><!--link Repositories to AuthenticationRepository--><g id="link_Repositories_AuthenticationRepository"><path codeLine="104" d="M474.27,511.17 C451.04,534.96 426.73,559.86 407.28,579.78 " fill="none" id="Repositories-to-AuthenticationRepository" style="stroke:#4169E1;stroke-width:1.0;"/><polygon fill="#4169E1" points="403.46,583.7,412.6088,580.0531,406.9523,580.1218,406.8836,574.4654,403.46,583.7" style="stroke:#4169E1;stroke-width:1.0;"/></g><!--link AnnouncementRepository to Announcement--><g id="link_AnnouncementRepository_Announcement"><path codeLine="107" d="M811.5,669.04 C811.5,704.53 811.5,754.04 811.5,796.6 " fill="none" id="AnnouncementRepository-to-Announcement" style="stroke:#4169E1;stroke-width:1.0;stroke-dasharray:7.0,7.0;"/><polygon fill="#4169E1" points="811.5,801.76,815.5,792.76,811.5,796.76,807.5,792.76,811.5,801.76" style="stroke:#4169E1;stroke-width:1.0;"/></g><!--link AuthenticationRepository to User--><g id="link_AuthenticationRepository_User"><path codeLine="108" d="M368.5,657.18 C368.5,695.8 368.5,758.54 368.5,808.26 " fill="none" id="AuthenticationRepository-to-User" style="stroke:#4169E1;stroke-width:1.0;stroke-dasharray:7.0,7.0;"/><polygon fill="#4169E1" points="368.5,813.34,372.5,804.34,368.5,808.34,364.5,804.34,368.5,813.34" style="stroke:#4169E1;stroke-width:1.0;"/></g><!--link PersonRepository to Person--><g id="link_PersonRepository_Person"><path codeLine="109" d="M162.94,772.04 C173.87,843.54 197.5,998 197.5,998 C197.5,998 197.5,998 197.5,1247 C197.5,1247 203.66,1319.97 209.14,1384.93 " fill="none" id="PersonRepository-to-Person" style="stroke:#4169E1;stroke-width:1.0;stroke-dasharray:7.0,7.0;"/><polygon fill="#4169E1" points="209.57,1389.99,212.7845,1380.6805,209.1418,1385.0084,204.8139,1381.3656,209.57,1389.99" style="stroke:#4169E1;stroke-width:1.0;"/></g><!--reverse link Order to Person--><g id="link_Order_Person"><path codeLine="110" d="M593.65,1333.92 C506.86,1368.55 410.35,1407.05 336.81,1436.39 " fill="none" id="Order-backto-Person" style="stroke:#4169E1;stroke-width:1.0;"/><polygon fill="#4169E1" points="605.83,1329.06,598.7751,1327.5672,594.6837,1333.5053,601.7386,1334.9981,605.83,1329.06" style="stroke:#4169E1;stroke-width:1.0;"/></g><!--link Announcement to Orders--><g id="link_Announcement_Orders"><path codeLine="111" d="M811.5,968.2 C811.5,989.42 811.5,1011.19 811.5,1028.64 " fill="none" id="Announcement-Orders" style="stroke:#4169E1;stroke-width:1.0;"/><text fill="#000000" font-family="sans-serif" font-size="20" lengthAdjust="spacing" textLength="13" x="797.9414" y="994.8974">1</text><text fill="#000000" font-family="sans-serif" font-size="20" lengthAdjust="spacing" textLength="13" x="797.4234" y="1016.1948">1</text></g><!--link Orders to Order--><g id="link_Orders_Order"><path codeLine="113" d="M811.5,1102.19 C811.5,1119.69 811.5,1141.55 811.5,1162.86 " fill="none" id="Orders-Order" style="stroke:#4169E1;stroke-width:1.0;"/><text fill="#000000" font-family="sans-serif" font-size="20" lengthAdjust="spacing" textLength="13" x="797.4234" y="1128.7359">1</text><text fill="#000000" font-family="sans-serif" font-size="20" lengthAdjust="spacing" textLength="10" x="801.0703" y="1150.286">*</text></g><!--reverse link Person to Address--><g id="link_Person_Address"><path codeLine="116" d="M217.5,1593.36 C217.5,1609.35 217.5,1625.62 217.5,1640.98 " fill="none" id="Person-backto-Address" style="stroke:#4169E1;stroke-width:1.0;"/><polygon fill="#4169E1" points="217.5,1580.01,213.5,1586.01,217.5,1592.01,221.5,1586.01,217.5,1580.01" style="stroke:#4169E1;stroke-width:1.0;"/></g><!--SRC=[fLLDRzim3BtxLmYz95sJOjjn60easGe46BQYMN-08Z6n44Ko9BcPM_I_Zv9iLt9Yx30V_44-FJsI8cqFGbNKqAFKx02SSDZHMhfxhTn6l03v_B6Os0v3ZbffLXfz1E9C3SMxfwBiGFUmSOq4Oe0vglOo1TYISdqIQazsLDhK8uK2rrH0AYqR_v7ks3krSRf8FKnIQnVE6R6j7QoPLa4mwfrtrxr0CTPvqdrlB0OKvBKWU2qnWBtHjU8hBRKX3q1P-L3lTi6xC4QVekDHDrGk9KOVbcd3mGmzRyL4miuHfuaH-z8HBdnEX5R5vCc28K8vC3lAO58KKSKZLDeAfuq06nNDCzlqEXXlo1xSMbdCBuFfDVcIWTuXYzgLe9nWrE_QOvgKvW6C7VCjbC9SC3WYIOPuwmHVHhJPFEFu8Qph-GqSzJEaxYbDFf9DXX9J-kXRDci-5NojDc0jXfeg7Cb1IhAgZK6CBqfBCBs-HRit8772zYiKkWHsU5g_NZAli6UCbXBCI0xiiWdeDC_1SEQWZ47bVfV2HdlAGj9KpUB-X9NQWWhlUPB_ZqDf9tRDIWfVefXlKeN7Z6orba0LEL6x27A13xFLdUDiPMlZkjvYTrP6C6XDtwW3ml7Mxcv1OjFyGtqdzPbAuTT6U1vV5jdWR7KQDpX8S3WfUkpaO8_YMBEsmj7pipvkmIGEH_zajkz7AYG1Vyy9gr8hoA0BpWqUDKBZCpclqJ1GP9q1SBcD2TVa5exzXQbqmxLTDgFg5r4npU5o4vE-N4PZgLo3nOalVOoLr0q0XXbVMdkOQBLz3z0OslY69rz3pkz8698sAslM_SE3q-TWbAh7XyrVioe8tWM2W1Ck8DM9ZvJv9X3W09bvq2muWfeufzVTd2xIzYVp-Tt5niTboSSbH5YQZUnHL70WOuPEFywuy6yWsb_3EV3ol3x73KVk1QQHkOfQe-QHNyFjRQwY61tG7kdpNvpDV- -9nfWuyc7UpPTiMtBrwGezU6zFL17nDfYyvyDLd-5sVJkcF6FRYiLV]--></g></svg>