<?xml version="1.0" encoding="UTF-8" standalone="no"?><svg xmlns="http://www.w3.org/2000/svg" xmlns:xlink="http://www.w3.org/1999/xlink" contentStyleType="text/css" height="977px" preserveAspectRatio="none" style="width:1423px;height:977px;background:#FFFFFF;" version="1.1" viewBox="0 0 1423 977" width="1423px" zoomAndPan="magnify"><defs/><g><!--class Agent--><g id="elem_Agent"><rect codeLine="17" fill="#FFDAB9" height="43.1563" id="Agent" rx="2.5" ry="2.5" style="stroke:#4169E1;stroke-width:0.5;" width="57" x="52" y="306.54"/><text fill="#000000" font-family="sans-serif" font-size="20" lengthAdjust="spacing" textLength="51" x="55" y="332.3017">Agent</text><line style="stroke:#4169E1;stroke-width:0.5;" x1="53" x2="108" y1="341.6962" y2="341.6962"/></g><!--class PO--><g id="elem_PO"><rect codeLine="19" fill="#FFDAB9" height="43.1563" id="PO" rx="2.5" ry="2.5" style="stroke:#4169E1;stroke-width:0.5;" width="147" x="7" y="404.54"/><text fill="#000000" font-family="sans-serif" font-size="20" lengthAdjust="spacing" textLength="141" x="10" y="430.3017">Property Owner</text><line style="stroke:#4169E1;stroke-width:0.5;" x1="8" x2="153" y1="439.6962" y2="439.6962"/></g><!--class Client--><g id="elem_Client"><rect codeLine="21" fill="#FFDAB9" height="43.1563" id="Client" rx="2.5" ry="2.5" style="stroke:#4169E1;stroke-width:0.5;" width="55" x="53" y="140.54"/><text fill="#000000" font-family="sans-serif" font-size="20" lengthAdjust="spacing" textLength="49" x="56" y="166.3017">Client</text><line style="stroke:#4169E1;stroke-width:0.5;" x1="54" x2="107" y1="175.6962" y2="175.6962"/></g><!--class Property--><g id="elem_Property"><rect codeLine="24" fill="#FFDAB9" height="143.7813" id="Property" rx="2.5" ry="2.5" style="stroke:#4169E1;stroke-width:0.5;" width="239" x="564" y="487.04"/><text fill="#000000" font-family="sans-serif" font-size="20" lengthAdjust="spacing" textLength="76" x="645.5" y="512.8017">Property</text><line style="stroke:#4169E1;stroke-width:0.5;" x1="565" x2="802" y1="522.1963" y2="522.1963"/><rect fill="none" height="6" style="stroke:#C82930;stroke-width:1.0;" width="6" x="572" y="537.2744"/><text fill="#000000" font-family="sans-serif" font-size="20" lengthAdjust="spacing" textLength="38" x="585" y="546.958">type</text><rect fill="none" height="6" style="stroke:#C82930;stroke-width:1.0;" width="6" x="572" y="562.4306"/><text fill="#000000" font-family="sans-serif" font-size="20" lengthAdjust="spacing" textLength="40" x="585" y="572.1142">area</text><rect fill="none" height="6" style="stroke:#C82930;stroke-width:1.0;" width="6" x="572" y="587.5869"/><text fill="#000000" font-family="sans-serif" font-size="20" lengthAdjust="spacing" textLength="212" x="585" y="597.2705">distanceFromCityCenter</text><rect fill="none" height="6" style="stroke:#C82930;stroke-width:1.0;" width="6" x="572" y="612.7431"/><text fill="#000000" font-family="sans-serif" font-size="20" lengthAdjust="spacing" textLength="87" x="585" y="622.4267">photoURL</text></g><!--class Home--><g id="elem_Home"><rect codeLine="31" fill="#FFDAB9" height="143.7813" id="Home" rx="2.5" ry="2.5" style="stroke:#4169E1;stroke-width:0.5;" width="236" x="916" y="806.04"/><text fill="#000000" font-family="sans-serif" font-size="20" lengthAdjust="spacing" textLength="51" x="1008.5" y="831.8017">Home</text><line style="stroke:#4169E1;stroke-width:0.5;" x1="917" x2="1151" y1="841.1963" y2="841.1963"/><rect fill="none" height="6" style="stroke:#C82930;stroke-width:1.0;" width="6" x="924" y="856.2744"/><text fill="#000000" font-family="sans-serif" font-size="20" lengthAdjust="spacing" textLength="175" x="937" y="865.958">numberOfbedrooms</text><rect fill="none" height="6" style="stroke:#C82930;stroke-width:1.0;" width="6" x="924" y="881.4306"/><text fill="#000000" font-family="sans-serif" font-size="20" lengthAdjust="spacing" textLength="180" x="937" y="891.1142">numberOfbathrooms</text><rect fill="none" height="6" style="stroke:#C82930;stroke-width:1.0;" width="6" x="924" y="906.5869"/><text fill="#000000" font-family="sans-serif" font-size="20" lengthAdjust="spacing" textLength="209" x="937" y="916.2705">numberOfParkingSpace</text><rect fill="none" height="6" style="stroke:#C82930;stroke-width:1.0;" width="6" x="924" y="931.7431"/><text fill="#000000" font-family="sans-serif" font-size="20" lengthAdjust="spacing" textLength="168" x="937" y="941.4267">availableEquipment</text></g><!--class Land--><g id="elem_Land"><rect codeLine="38" fill="#FFDAB9" height="43.1563" id="Land" rx="2.5" ry="2.5" style="stroke:#4169E1;stroke-width:0.5;" width="49" x="1009.5" y="445.54"/><text fill="#000000" font-family="sans-serif" font-size="20" lengthAdjust="spacing" textLength="43" x="1012.5" y="471.3017">Land</text><line style="stroke:#4169E1;stroke-width:0.5;" x1="1010.5" x2="1057.5" y1="480.6962" y2="480.6962"/></g><!--class Apartment--><g id="elem_Apartment"><rect codeLine="40" fill="#FFDAB9" height="43.1563" id="Apartment" rx="2.5" ry="2.5" style="stroke:#4169E1;stroke-width:0.5;" width="97" x="1282" y="773.54"/><text fill="#000000" font-family="sans-serif" font-size="20" lengthAdjust="spacing" textLength="91" x="1285" y="799.3017">Apartment</text><line style="stroke:#4169E1;stroke-width:0.5;" x1="1283" x2="1378" y1="808.6963" y2="808.6963"/></g><!--class House--><g id="elem_House"><rect codeLine="42" fill="#FFDAB9" height="118.625" id="House" rx="2.5" ry="2.5" style="stroke:#4169E1;stroke-width:0.5;" width="154" x="1253.5" y="851.54"/><text fill="#000000" font-family="sans-serif" font-size="20" lengthAdjust="spacing" textLength="55" x="1303" y="877.3017">House</text><line style="stroke:#4169E1;stroke-width:0.5;" x1="1254.5" x2="1406.5" y1="886.6963" y2="886.6963"/><rect fill="none" height="6" style="stroke:#C82930;stroke-width:1.0;" width="6" x="1261.5" y="901.7744"/><text fill="#000000" font-family="sans-serif" font-size="20" lengthAdjust="spacing" textLength="86" x="1274.5" y="911.458">basement</text><rect fill="none" height="6" style="stroke:#C82930;stroke-width:1.0;" width="6" x="1261.5" y="926.9306"/><text fill="#000000" font-family="sans-serif" font-size="20" lengthAdjust="spacing" textLength="127" x="1274.5" y="936.6142">inhabitableLoft</text><rect fill="none" height="6" style="stroke:#C82930;stroke-width:1.0;" width="6" x="1261.5" y="952.0869"/><text fill="#000000" font-family="sans-serif" font-size="20" lengthAdjust="spacing" textLength="112" x="1274.5" y="961.7705">sunExposure</text></g><!--class Announcement--><g id="elem_Announcement"><rect codeLine="48" fill="#FFDAB9" height="93.4688" id="Announcement" rx="2.5" ry="2.5" style="stroke:#4169E1;stroke-width:0.5;" width="134" x="317" y="379.54"/><text fill="#000000" font-family="sans-serif" font-size="20" lengthAdjust="spacing" textLength="128" x="320" y="405.3017">Announcement</text><line style="stroke:#4169E1;stroke-width:0.5;" x1="318" x2="450" y1="414.6962" y2="414.6962"/><rect fill="none" height="6" style="stroke:#C82930;stroke-width:1.0;" width="6" x="325" y="429.7744"/><text fill="#000000" font-family="sans-serif" font-size="20" lengthAdjust="spacing" textLength="15" x="338" y="439.458">id</text><rect fill="none" height="6" style="stroke:#C82930;stroke-width:1.0;" width="6" x="325" y="454.9306"/><text fill="#000000" font-family="sans-serif" font-size="20" lengthAdjust="spacing" textLength="44" x="338" y="464.6142">state</text></g><!--class Order--><g id="elem_Order"><rect codeLine="53" fill="#FFDAB9" height="68.3125" id="Order" rx="2.5" ry="2.5" style="stroke:#4169E1;stroke-width:0.5;" width="138" x="614.5" y="280.04"/><text fill="#000000" font-family="sans-serif" font-size="20" lengthAdjust="spacing" textLength="52" x="657.5" y="305.8017">Order</text><line style="stroke:#4169E1;stroke-width:0.5;" x1="615.5" x2="751.5" y1="315.1962" y2="315.1962"/><rect fill="none" height="6" style="stroke:#C82930;stroke-width:1.0;" width="6" x="622.5" y="330.2744"/><text fill="#000000" font-family="sans-serif" font-size="20" lengthAdjust="spacing" textLength="111" x="635.5" y="339.958">requestPrice</text></g><!--class Address--><g id="elem_Address"><rect codeLine="57" fill="#FFDAB9" height="143.7813" id="Address" rx="2.5" ry="2.5" style="stroke:#4169E1;stroke-width:0.5;" width="94" x="987" y="627.04"/><text fill="#000000" font-family="sans-serif" font-size="20" lengthAdjust="spacing" textLength="73" x="997.5" y="652.8017">Address</text><line style="stroke:#4169E1;stroke-width:0.5;" x1="988" x2="1080" y1="662.1963" y2="662.1963"/><rect fill="none" height="6" style="stroke:#C82930;stroke-width:1.0;" width="6" x="995" y="677.2744"/><text fill="#000000" font-family="sans-serif" font-size="20" lengthAdjust="spacing" textLength="51" x="1008" y="686.958">street</text><rect fill="none" height="6" style="stroke:#C82930;stroke-width:1.0;" width="6" x="995" y="702.4306"/><text fill="#000000" font-family="sans-serif" font-size="20" lengthAdjust="spacing" textLength="30" x="1008" y="712.1142">city</text><rect fill="none" height="6" style="stroke:#C82930;stroke-width:1.0;" width="6" x="995" y="727.5869"/><text fill="#000000" font-family="sans-serif" font-size="20" lengthAdjust="spacing" textLength="44" x="1008" y="737.2705">state</text><rect fill="none" height="6" style="stroke:#C82930;stroke-width:1.0;" width="6" x="995" y="752.7431"/><text fill="#000000" font-family="sans-serif" font-size="20" lengthAdjust="spacing" textLength="67" x="1008" y="762.4267">zipcode</text></g><!--class Deal--><g id="elem_Deal"><rect codeLine="64" fill="#FFDAB9" height="68.3125" id="Deal" rx="2.5" ry="2.5" style="stroke:#4169E1;stroke-width:0.5;" width="108" x="980" y="524.04"/><text fill="#000000" font-family="sans-serif" font-size="20" lengthAdjust="spacing" textLength="40" x="1014" y="549.8017">Deal</text><line style="stroke:#4169E1;stroke-width:0.5;" x1="981" x2="1087" y1="559.1963" y2="559.1963"/><rect fill="none" height="6" style="stroke:#C82930;stroke-width:1.0;" width="6" x="988" y="574.2744"/><text fill="#000000" font-family="sans-serif" font-size="20" lengthAdjust="spacing" textLength="81" x="1001" y="583.958">dealType</text></g><!--class Sale--><g id="elem_Sale"><rect codeLine="68" fill="#FFDAB9" height="68.3125" id="Sale" rx="2.5" ry="2.5" style="stroke:#4169E1;stroke-width:0.5;" width="146" x="1257.5" y="492.04"/><text fill="#000000" font-family="sans-serif" font-size="20" lengthAdjust="spacing" textLength="39" x="1311" y="517.8017">Sale</text><line style="stroke:#4169E1;stroke-width:0.5;" x1="1258.5" x2="1402.5" y1="527.1963" y2="527.1963"/><rect fill="none" height="6" style="stroke:#C82930;stroke-width:1.0;" width="6" x="1265.5" y="542.2744"/><text fill="#000000" font-family="sans-serif" font-size="20" lengthAdjust="spacing" textLength="119" x="1278.5" y="551.958">propertyPrice</text></g><!--class Rent--><g id="elem_Rent"><rect codeLine="72" fill="#FFDAB9" height="93.4688" id="Rent" rx="2.5" ry="2.5" style="stroke:#4169E1;stroke-width:0.5;" width="171" x="1245" y="595.54"/><text fill="#000000" font-family="sans-serif" font-size="20" lengthAdjust="spacing" textLength="41" x="1310" y="621.3017">Rent</text><line style="stroke:#4169E1;stroke-width:0.5;" x1="1246" x2="1415" y1="630.6963" y2="630.6963"/><rect fill="none" height="6" style="stroke:#C82930;stroke-width:1.0;" width="6" x="1253" y="645.7744"/><text fill="#000000" font-family="sans-serif" font-size="20" lengthAdjust="spacing" textLength="115" x="1266" y="655.458">propertyRent</text><rect fill="none" height="6" style="stroke:#C82930;stroke-width:1.0;" width="6" x="1253" y="670.9306"/><text fill="#000000" font-family="sans-serif" font-size="20" lengthAdjust="spacing" textLength="144" x="1266" y="680.6142">contractDuration</text></g><!--class Date--><g id="elem_Date"><rect codeLine="77" fill="#FFDAB9" height="118.625" id="Date" rx="2.5" ry="2.5" style="stroke:#4169E1;stroke-width:0.5;" width="80" x="994" y="285.54"/><text fill="#000000" font-family="sans-serif" font-size="20" lengthAdjust="spacing" textLength="42" x="1013" y="311.3017">Date</text><line style="stroke:#4169E1;stroke-width:0.5;" x1="995" x2="1073" y1="320.6962" y2="320.6962"/><rect fill="none" height="6" style="stroke:#C82930;stroke-width:1.0;" width="6" x="1002" y="335.7744"/><text fill="#000000" font-family="sans-serif" font-size="20" lengthAdjust="spacing" textLength="39" x="1015" y="345.458">year</text><rect fill="none" height="6" style="stroke:#C82930;stroke-width:1.0;" width="6" x="1002" y="360.9306"/><text fill="#000000" font-family="sans-serif" font-size="20" lengthAdjust="spacing" textLength="53" x="1015" y="370.6142">month</text><rect fill="none" height="6" style="stroke:#C82930;stroke-width:1.0;" width="6" x="1002" y="386.0869"/><text fill="#000000" font-family="sans-serif" font-size="20" lengthAdjust="spacing" textLength="32" x="1015" y="395.7705">day</text></g><!--class Message--><g id="elem_Message"><rect codeLine="83" fill="#FFDAB9" height="168.9375" id="Message" rx="2.5" ry="2.5" style="stroke:#4169E1;stroke-width:0.5;" width="123" x="322.5" y="77.54"/><text fill="#000000" font-family="sans-serif" font-size="20" lengthAdjust="spacing" textLength="81" x="343.5" y="103.3017">Message</text><line style="stroke:#4169E1;stroke-width:0.5;" x1="323.5" x2="444.5" y1="112.6962" y2="112.6962"/><rect fill="none" height="6" style="stroke:#C82930;stroke-width:1.0;" width="6" x="330.5" y="127.7744"/><text fill="#000000" font-family="sans-serif" font-size="20" lengthAdjust="spacing" textLength="62" x="343.5" y="137.458">isEmail</text><rect fill="none" height="6" style="stroke:#C82930;stroke-width:1.0;" width="6" x="330.5" y="152.9306"/><text fill="#000000" font-family="sans-serif" font-size="20" lengthAdjust="spacing" textLength="62" x="343.5" y="162.6142">subject</text><rect fill="none" height="6" style="stroke:#C82930;stroke-width:1.0;" width="6" x="330.5" y="178.0869"/><text fill="#000000" font-family="sans-serif" font-size="20" lengthAdjust="spacing" textLength="40" x="343.5" y="187.7705">from</text><rect fill="none" height="6" style="stroke:#C82930;stroke-width:1.0;" width="6" x="330.5" y="203.2431"/><text fill="#000000" font-family="sans-serif" font-size="20" lengthAdjust="spacing" textLength="17" x="343.5" y="212.9267">to</text><rect fill="none" height="6" style="stroke:#C82930;stroke-width:1.0;" width="6" x="330.5" y="228.3994"/><text fill="#000000" font-family="sans-serif" font-size="20" lengthAdjust="spacing" textLength="96" x="343.5" y="238.083">information</text></g><!--link PO to Announcement--><g id="link_PO_Announcement"><path codeLine="93" d="M154.01,428.43 C164.08,428.68 174.3,428.9 184,429.04 C229.77,429.71 241.23,429.76 287,429.04 C296.67,428.89 306.89,428.65 316.9,428.38 " fill="none" id="PO-Announcement" style="stroke:#4169E1;stroke-width:1.0;"/><polygon fill="#000000" points="207.5,415.6157,193.0264,410.9178,193.0293,420.3224,207.5,415.6157" style="stroke:#000000;stroke-width:1.0;"/><text fill="#000000" font-family="sans-serif" font-size="20" lengthAdjust="spacing" textLength="66" x="212.5" y="423.8017">request</text><text fill="#000000" font-family="sans-serif" font-size="20" lengthAdjust="spacing" textLength="11" x="162.1579" y="450.7272">1</text><text fill="#000000" font-family="sans-serif" font-size="20" lengthAdjust="spacing" textLength="31" x="278.0272" y="450.5413">1..*</text></g><!--link Announcement to Property--><g id="link_Announcement_Property"><path codeLine="95" d="M451.05,456.46 C461.07,461.03 471.3,465.68 481,470.04 C507.77,482.08 536.59,494.91 563.84,506.96 " fill="none" id="Announcement-Property" style="stroke:#4169E1;stroke-width:1.0;"/><polygon fill="#000000" points="496.3015,459.8873,485.0145,449.6816,481.1714,458.2651,496.3015,459.8873" style="stroke:#000000;stroke-width:1.0;"/><text fill="#000000" font-family="sans-serif" font-size="20" lengthAdjust="spacing" textLength="31" x="502" y="464.8017">has</text><text fill="#000000" font-family="sans-serif" font-size="20" lengthAdjust="spacing" textLength="11" x="458.9852" y="481.899">1</text><text fill="#000000" font-family="sans-serif" font-size="20" lengthAdjust="spacing" textLength="11" x="544.8219" y="525.1981">1</text></g><!--link Agent to Announcement--><g id="link_Agent_Announcement"><path codeLine="98" d="M109.32,337.34 C129.92,344.22 158.69,353.77 184,362.04 C228.16,376.46 277.91,392.46 316.62,404.86 " fill="none" id="Agent-Announcement" style="stroke:#4169E1;stroke-width:1.0;"/><polygon fill="#000000" points="199.6067,351.0957,187.3024,342.1426,184.3898,351.0848,199.6067,351.0957" style="stroke:#000000;stroke-width:1.0;"/><text fill="#000000" font-family="sans-serif" font-size="20" lengthAdjust="spacing" textLength="81" x="205" y="356.8017">publishes</text><text fill="#000000" font-family="sans-serif" font-size="20" lengthAdjust="spacing" textLength="11" x="116.8275" y="362.8705">1</text><text fill="#000000" font-family="sans-serif" font-size="20" lengthAdjust="spacing" textLength="8" x="300.8128" y="424.6553">*</text></g><!--link Agent to Order--><g id="link_Agent_Order"><path codeLine="99" d="M109.28,327.39 C199.03,325.3 482.95,318.69 614.44,315.63 " fill="none" id="Agent-Order" style="stroke:#4169E1;stroke-width:1.0;"/><polygon fill="#000000" points="340.5022,305.8043,355.0798,310.1685,354.8609,300.7665,340.5022,305.8043" style="stroke:#000000;stroke-width:1.0;"/><text fill="#000000" font-family="sans-serif" font-size="20" lengthAdjust="spacing" textLength="65" x="361.5" y="313.8017">send to</text><text fill="#000000" font-family="sans-serif" font-size="20" lengthAdjust="spacing" textLength="11" x="117.2073" y="320.1108">1</text><text fill="#000000" font-family="sans-serif" font-size="20" lengthAdjust="spacing" textLength="8" x="598.4491" y="310.1899">*</text></g><!--link Client to Announcement--><g id="link_Client_Announcement"><path codeLine="102" d="M108.31,181.87 C148.39,211.89 225.77,271.28 287,327.04 C305.06,343.48 323.96,362.54 340.18,379.52 " fill="none" id="Client-Announcement" style="stroke:#4169E1;stroke-width:1.0;"/><polygon fill="#000000" points="210.9118,224.4284,218.875,237.3953,224.9759,230.2381,210.9118,224.4284" style="stroke:#000000;stroke-width:1.0;"/><text fill="#000000" font-family="sans-serif" font-size="20" lengthAdjust="spacing" textLength="31" x="230" y="237.8017">has</text><text fill="#000000" font-family="sans-serif" font-size="20" lengthAdjust="spacing" textLength="11" x="116.0129" y="210.108">1</text><text fill="#000000" font-family="sans-serif" font-size="20" lengthAdjust="spacing" textLength="8" x="325.7542" y="367.3299">*</text></g><!--link Client to Order--><g id="link_Client_Order"><path codeLine="103" d="M108.39,142.46 C170.64,99.7 328.64,6 451,60.04 C553.88,105.47 630.77,221.71 664.16,279.85 " fill="none" id="Client-Order" style="stroke:#4169E1;stroke-width:1.0;"/><polygon fill="#000000" points="355.7662,32.538,342.8455,24.5001,340.5885,33.6298,355.7662,32.538" style="stroke:#000000;stroke-width:1.0;"/><text fill="#000000" font-family="sans-serif" font-size="20" lengthAdjust="spacing" textLength="66" x="361" y="38.8017">request</text><text fill="#000000" font-family="sans-serif" font-size="20" lengthAdjust="spacing" textLength="11" x="116.1114" y="161.5845">1</text><text fill="#000000" font-family="sans-serif" font-size="20" lengthAdjust="spacing" textLength="31" x="627.1719" y="267.5734">1..*</text></g><!--link Client to Message--><g id="link_Client_Message"><path codeLine="104" d="M108.26,162.04 C156.03,162.04 257.12,162.04 322.45,162.04 " fill="none" id="Client-Message" style="stroke:#4169E1;stroke-width:1.0;"/><polygon fill="#000000" points="204,148.6181,189.5279,143.9158,189.5279,153.3204,204,148.6181" style="stroke:#000000;stroke-width:1.0;"/><text fill="#000000" font-family="sans-serif" font-size="20" lengthAdjust="spacing" textLength="73" x="209" y="156.8017">receives</text><text fill="#000000" font-family="sans-serif" font-size="20" lengthAdjust="spacing" textLength="11" x="115.9514" y="185.6923">1</text><text fill="#000000" font-family="sans-serif" font-size="20" lengthAdjust="spacing" textLength="11" x="303.6973" y="184.2597">1</text></g><!--link Property to Address--><g id="link_Property_Address"><path codeLine="107" d="M803.46,606.83 C866.56,632.18 940.45,661.86 986.99,680.56 " fill="none" id="Property-Address" style="stroke:#4169E1;stroke-width:1.0;"/><polygon fill="#000000" points="848.4234,609.6003,836.7473,599.8421,833.2415,608.5688,848.4234,609.6003" style="stroke:#000000;stroke-width:1.0;"/><text fill="#000000" font-family="sans-serif" font-size="20" lengthAdjust="spacing" textLength="31" x="854" y="614.8017">has</text><text fill="#000000" font-family="sans-serif" font-size="20" lengthAdjust="spacing" textLength="11" x="811.1052" y="631.2771">1</text><text fill="#000000" font-family="sans-serif" font-size="20" lengthAdjust="spacing" textLength="11" x="967.9494" y="700.4347">1</text></g><!--link Announcement to Order--><g id="link_Announcement_Order"><path codeLine="110" d="M451.02,401.18 C499.56,382.91 565.31,358.16 614.34,339.7 " fill="none" id="Announcement-Order" style="stroke:#4169E1;stroke-width:1.0;"/><polygon fill="#000000" points="481.5129,359.4366,496.7138,358.7388,493.4005,349.9372,481.5129,359.4366" style="stroke:#000000;stroke-width:1.0;"/><text fill="#000000" font-family="sans-serif" font-size="20" lengthAdjust="spacing" textLength="31" x="502" y="364.8017">has</text><text fill="#000000" font-family="sans-serif" font-size="20" lengthAdjust="spacing" textLength="11" x="458.9519" y="392.8384">1</text><text fill="#000000" font-family="sans-serif" font-size="20" lengthAdjust="spacing" textLength="11" x="595.6407" y="364.3889">1</text></g><!--link Property to Deal--><g id="link_Property_Deal"><path codeLine="111" d="M803.46,558.7 C863.4,558.53 933.09,558.33 979.81,558.19 " fill="none" id="Property-Deal" style="stroke:#4169E1;stroke-width:1.0;"/><polygon fill="#000000" points="849,544.595,834.5143,539.9346,834.5415,549.3391,849,544.595" style="stroke:#000000;stroke-width:1.0;"/><text fill="#000000" font-family="sans-serif" font-size="20" lengthAdjust="spacing" textLength="31" x="854" y="552.8017">has</text><text fill="#000000" font-family="sans-serif" font-size="20" lengthAdjust="spacing" textLength="11" x="811.1052" y="580.2141">1</text><text fill="#000000" font-family="sans-serif" font-size="20" lengthAdjust="spacing" textLength="11" x="961.1622" y="580.5625">1</text></g><!--link Announcement to Date--><g id="link_Announcement_Date"><path codeLine="112" d="M451.17,423.41 C533.82,419.54 679.42,410.74 803,393.04 C870.63,383.35 948.23,365.79 993.79,354.81 " fill="none" id="Announcement-Date" style="stroke:#4169E1;stroke-width:1.0;"/><polygon fill="#000000" points="672.9368,378.6147,657.9892,375.7647,659.1688,385.095,672.9368,378.6147" style="stroke:#000000;stroke-width:1.0;"/><text fill="#000000" font-family="sans-serif" font-size="20" lengthAdjust="spacing" textLength="31" x="678" y="387.8017">has</text><text fill="#000000" font-family="sans-serif" font-size="20" lengthAdjust="spacing" textLength="11" x="459.1183" y="445.2342">1</text><text fill="#000000" font-family="sans-serif" font-size="20" lengthAdjust="spacing" textLength="11" x="974.9336" y="379.445">1</text></g><!--reverse link Deal to Sale--><g id="link_Deal_Sale"><path codeLine="115" d="M1101.3,550.84 C1147.74,545.79 1209.78,539.05 1257.45,533.87 " fill="none" id="Deal-backto-Sale" style="stroke:#4169E1;stroke-width:1.0;"/><polygon fill="#4169E1" points="1088.33,552.25,1094.7298,555.5731,1100.2587,550.9437,1093.8589,547.6206,1088.33,552.25" style="stroke:#4169E1;stroke-width:1.0;"/></g><!--reverse link Deal to Rent--><g id="link_Deal_Rent"><path codeLine="116" d="M1101.06,576.88 C1143.53,589 1199.1,604.84 1244.79,617.88 " fill="none" id="Deal-backto-Rent" style="stroke:#4169E1;stroke-width:1.0;"/><polygon fill="#4169E1" points="1088.33,573.25,1093.0061,578.7395,1099.8718,576.5345,1095.1957,571.045,1088.33,573.25" style="stroke:#4169E1;stroke-width:1.0;"/></g><!--link Order to Date--><g id="link_Order_Date"><path codeLine="119" d="M752.52,320.09 C824.43,326.49 935.36,336.35 993.83,341.56 " fill="none" id="Order-Date" style="stroke:#4169E1;stroke-width:1.0;"/><polygon fill="#000000" points="848.9685,314.3271,834.9701,308.3608,834.1366,317.7283,848.9685,314.3271" style="stroke:#000000;stroke-width:1.0;"/><text fill="#000000" font-family="sans-serif" font-size="20" lengthAdjust="spacing" textLength="31" x="854" y="321.8017">has</text><text fill="#000000" font-family="sans-serif" font-size="20" lengthAdjust="spacing" textLength="11" x="760.6706" y="342.8721">1</text><text fill="#000000" font-family="sans-serif" font-size="20" lengthAdjust="spacing" textLength="11" x="974.9805" y="334.6208">1</text></g><!--reverse link Property to Land--><g id="link_Property_Land"><path codeLine="121" d="M822.97,522.49 C893.04,503.99 971.18,483.36 1009.38,473.28 " fill="none" id="Property-backto-Land" style="stroke:#4169E1;stroke-width:1.0;"/><polygon fill="none" points="824.58,529.3,803.46,527.64,821.01,515.76,824.58,529.3" style="stroke:#4169E1;stroke-width:1.0;"/><text fill="#000000" font-family="sans-serif" font-size="20" lengthAdjust="spacing" textLength="31" x="844" y="501.8017">is a</text></g><!--reverse link Property to Home--><g id="link_Property_Home"><path codeLine="122" d="M766.53,645.84 C809.69,690.13 864.26,744.01 916,789.04 C922.45,794.65 929.21,800.32 936.1,805.93 " fill="none" id="Property-backto-Home" style="stroke:#4169E1;stroke-width:1.0;"/><polygon fill="none" points="761.25,650.45,752.35,631.22,771.3,640.71,761.25,650.45" style="stroke:#4169E1;stroke-width:1.0;"/><text fill="#000000" font-family="sans-serif" font-size="20" lengthAdjust="spacing" textLength="31" x="844" y="710.8017">is a</text></g><!--reverse link Home to Apartment--><g id="link_Home_Apartment"><path codeLine="123" d="M1171.51,839.57 C1211.03,828.43 1251.58,817 1281.71,808.51 " fill="none" id="Home-backto-Apartment" style="stroke:#4169E1;stroke-width:1.0;"/><polygon fill="none" points="1173.39,846.31,1152.24,845,1169.59,832.83,1173.39,846.31" style="stroke:#4169E1;stroke-width:1.0;"/><text fill="#000000" font-family="sans-serif" font-size="20" lengthAdjust="spacing" textLength="31" x="1183" y="823.8017">is a</text></g><!--reverse link Home to House--><g id="link_Home_House"><path codeLine="124" d="M1172.36,893.43 C1200.19,896.55 1228.49,899.72 1253.27,902.5 " fill="none" id="Home-backto-House" style="stroke:#4169E1;stroke-width:1.0;"/><polygon fill="none" points="1171.34,900.36,1152.24,891.18,1172.9,886.45,1171.34,900.36" style="stroke:#4169E1;stroke-width:1.0;"/><text fill="#000000" font-family="sans-serif" font-size="20" lengthAdjust="spacing" textLength="31" x="1183" y="888.8017">is a</text></g><!--SRC=[ZLJRJXin47ttLrXvYOGKHFk8458QG5IYIXJQ3t3isQoBrrx6NcWe_7jdlMllveBKVKXipyoPCrV_f6qjK5J6oITGN44X6XFkd0sF-WturmiszKc7LyuwMQAhW0TiW0sIMiWdiON7i3F04MGGTcl62huKohrgk-M5C1x6g4PR2BiQkCDGEcQW23muZdfR1gvqYwQT7Lj88xoVXu1wqmJuBfsDP2zOgHLmgL6IxtYkW22LPzDP-kuqCVJ4axZaHtQ0pVyoJjytYcgBhh5guOn3lW8XorLJ554wHtIldM3jTi9yCvIIQEPG0HvAFaOaw7kVo-3GlyyEFiOw1lCjs90kanMw6Z3i-FBL0awuy7orJDA5qQHBd3_IIrRlufZnDh_zKI28_gYqfq99kAEIBdJOBGW6i1VMfGlkr_fXGBrl2vyGRLDj09V51XGwL_d3Pn7AK-yhWPJgxICrJ2Rq8hGH6mEtpuskgpRixF91M9KpGWKArIWhzwxn0w6Dy12btLNRKcnqQ74VN95UVMDl_zJEDmY3axcrL6CPhJESLiaaY31INhQrpLe8pmtui48jnu1A8UGkQY4G856GbEWzwExyfclfr0Za1eJ928ekFziQPl6ZC4FiTL_l0nxhSK19PptaY0Ode93Xfa4HPsnmJiIovGv4QWhQ0A5CdCHkCFX1yT826DBdRoigQqxxvZUDSNyhgDrINxfShi9XbLbCPySViRNTBl37GZRT7n6sMlB9bmcVpUZl_Fniib_borGvViscOmdRKyi8as6aBdb9qtTD7BiHZRzPyzXHtMoCzYMqDaUwNJTTSWzMjKkFNn5kDy-i7-lFaLiULuTgNR09TuZoK6sIIzPgIT0lq4ML0cKvuf5DwknH4ludUObEn_WKSEpsXFePJEpAmNLhmwBX6Icq0p7SOfUpQNJCElUV0PtgjLa9ICjZ2wTaGm1NjBxZZY8mxRauaCI5sKlYERxcFNOiwZPQ__mF]--></g></svg>