<?xml version="1.0" encoding="UTF-8" standalone="no"?><svg xmlns="http://www.w3.org/2000/svg" xmlns:xlink="http://www.w3.org/1999/xlink" contentStyleType="text/css" height="578px" preserveAspectRatio="none" style="width:698px;height:578px;background:#FFFFFF;" version="1.1" viewBox="0 0 698 578" width="698px" zoomAndPan="magnify"><defs/><g><text fill="#000000" font-family="sans-serif" font-size="14" font-weight="bold" lengthAdjust="spacing" textLength="398" x="149" y="27.9951">System Sequence Diagram (SSD) - Alternative One</text><rect fill="#FFFFFF" height="345.8125" style="stroke:#181818;stroke-width:1.0;" width="10" x="120.5" y="135.5781"/><rect fill="#FFFFFF" height="37.2813" style="stroke:#181818;stroke-width:1.0;" width="10" x="639.5" y="164.8594"/><rect fill="#FFFFFF" height="37.2813" style="stroke:#181818;stroke-width:1.0;" width="10" x="639.5" y="285.9844"/><rect fill="#FFFFFF" height="37.2813" style="stroke:#181818;stroke-width:1.0;" width="10" x="639.5" y="360.5469"/><rect fill="#FFFFFF" height="37.2813" style="stroke:#181818;stroke-width:1.0;" width="10" x="639.5" y="435.1094"/><line style="stroke:#181818;stroke-width:0.5;stroke-dasharray:5.0,5.0;" x1="125" x2="125" y1="125.5781" y2="490.3906"/><line style="stroke:#181818;stroke-width:0.5;stroke-dasharray:5.0,5.0;" x1="644" x2="644" y1="125.5781" y2="490.3906"/><text fill="#000000" font-family="sans-serif" font-size="20" lengthAdjust="spacing" textLength="235" x="5" y="120.8613">Organization Employee</text><ellipse cx="125.5" cy="50.7969" fill="#E3E3E3" rx="8" ry="8" style="stroke:#181818;stroke-width:0.5;"/><path d="M125.5,58.7969 L125.5,85.7969 M112.5,66.7969 L138.5,66.7969 M125.5,85.7969 L112.5,100.7969 M125.5,85.7969 L138.5,100.7969 " fill="none" style="stroke:#181818;stroke-width:0.5;"/><text fill="#000000" font-family="sans-serif" font-size="20" lengthAdjust="spacing" textLength="235" x="5" y="507.9551">Organization Employee</text><ellipse cx="125.5" cy="521.1719" fill="#E3E3E3" rx="8" ry="8" style="stroke:#181818;stroke-width:0.5;"/><path d="M125.5,529.1719 L125.5,556.1719 M112.5,537.1719 L138.5,537.1719 M125.5,556.1719 L112.5,571.1719 M125.5,556.1719 L138.5,571.1719 " fill="none" style="stroke:#181818;stroke-width:0.5;"/><rect fill="#E3E3E3" height="37.2813" rx="2.5" ry="2.5" style="stroke:#181818;stroke-width:0.5;" width="95" x="597" y="87.2969"/><text fill="#000000" font-family="sans-serif" font-size="20" lengthAdjust="spacing" textLength="81" x="604" y="112.8613">:System</text><rect fill="#E3E3E3" height="37.2813" rx="2.5" ry="2.5" style="stroke:#181818;stroke-width:0.5;" width="95" x="597" y="489.3906"/><text fill="#000000" font-family="sans-serif" font-size="20" lengthAdjust="spacing" textLength="81" x="604" y="514.9551">:System</text><rect fill="#FFFFFF" height="345.8125" style="stroke:#181818;stroke-width:1.0;" width="10" x="120.5" y="135.5781"/><rect fill="#FFFFFF" height="37.2813" style="stroke:#181818;stroke-width:1.0;" width="10" x="639.5" y="164.8594"/><rect fill="#FFFFFF" height="37.2813" style="stroke:#181818;stroke-width:1.0;" width="10" x="639.5" y="285.9844"/><rect fill="#FFFFFF" height="37.2813" style="stroke:#181818;stroke-width:1.0;" width="10" x="639.5" y="360.5469"/><rect fill="#FFFFFF" height="37.2813" style="stroke:#181818;stroke-width:1.0;" width="10" x="639.5" y="435.1094"/><polygon fill="#181818" points="627.5,160.8594,637.5,164.8594,627.5,168.8594,631.5,164.8594" style="stroke:#181818;stroke-width:1.0;"/><line style="stroke:#181818;stroke-width:1.0;" x1="130.5" x2="633.5" y1="164.8594" y2="164.8594"/><text fill="#000000" font-family="sans-serif" font-size="20" font-weight="bold" lengthAdjust="spacing" textLength="14" x="137.5" y="158.1426">1</text><text fill="#000000" font-family="sans-serif" font-size="20" lengthAdjust="spacing" textLength="253" x="155.5" y="158.1426">asks to create a new task</text><polygon fill="#181818" points="141.5,198.1406,131.5,202.1406,141.5,206.1406,137.5,202.1406" style="stroke:#181818;stroke-width:1.0;"/><line style="stroke:#181818;stroke-width:1.0;stroke-dasharray:2.0,2.0;" x1="135.5" x2="643.5" y1="202.1406" y2="202.1406"/><text fill="#000000" font-family="sans-serif" font-size="20" font-weight="bold" lengthAdjust="spacing" textLength="14" x="147.5" y="195.4238">2</text><text fill="#000000" font-family="sans-serif" font-size="20" lengthAdjust="spacing" textLength="137" x="165.5" y="195.4238">requests data</text><polygon fill="#181818" points="627.5,281.9844,637.5,285.9844,627.5,289.9844,631.5,285.9844" style="stroke:#181818;stroke-width:1.0;"/><line style="stroke:#181818;stroke-width:1.0;" x1="130.5" x2="633.5" y1="285.9844" y2="285.9844"/><text fill="#000000" font-family="sans-serif" font-size="20" font-weight="bold" lengthAdjust="spacing" textLength="14" x="137.5" y="255.9863">3</text><text fill="#000000" font-family="sans-serif" font-size="20" lengthAdjust="spacing" textLength="451" x="155.5" y="232.7051">types requested data (reference, description,</text><text fill="#000000" font-family="sans-serif" font-size="20" lengthAdjust="spacing" textLength="430" x="155.5" y="255.9863">informal description, technical description,</text><text fill="#000000" font-family="sans-serif" font-size="20" lengthAdjust="spacing" textLength="146" x="155.5" y="279.2676">duration, cost)</text><polygon fill="#181818" points="141.5,319.2656,131.5,323.2656,141.5,327.2656,137.5,323.2656" style="stroke:#181818;stroke-width:1.0;"/><line style="stroke:#181818;stroke-width:1.0;stroke-dasharray:2.0,2.0;" x1="135.5" x2="643.5" y1="323.2656" y2="323.2656"/><text fill="#000000" font-family="sans-serif" font-size="20" font-weight="bold" lengthAdjust="spacing" textLength="14" x="147.5" y="316.5488">4</text><text fill="#000000" font-family="sans-serif" font-size="20" lengthAdjust="spacing" textLength="467" x="165.5" y="316.5488">shows task category list and asks to select one</text><polygon fill="#181818" points="627.5,356.5469,637.5,360.5469,627.5,364.5469,631.5,360.5469" style="stroke:#181818;stroke-width:1.0;"/><line style="stroke:#181818;stroke-width:1.0;" x1="130.5" x2="633.5" y1="360.5469" y2="360.5469"/><text fill="#000000" font-family="sans-serif" font-size="20" font-weight="bold" lengthAdjust="spacing" textLength="14" x="137.5" y="353.8301">5</text><text fill="#000000" font-family="sans-serif" font-size="20" lengthAdjust="spacing" textLength="228" x="155.5" y="353.8301">selects a task category</text><polygon fill="#181818" points="141.5,393.8281,131.5,397.8281,141.5,401.8281,137.5,397.8281" style="stroke:#181818;stroke-width:1.0;"/><line style="stroke:#181818;stroke-width:1.0;stroke-dasharray:2.0,2.0;" x1="135.5" x2="643.5" y1="397.8281" y2="397.8281"/><text fill="#000000" font-family="sans-serif" font-size="20" font-weight="bold" lengthAdjust="spacing" textLength="14" x="147.5" y="391.1113">6</text><text fill="#000000" font-family="sans-serif" font-size="20" lengthAdjust="spacing" textLength="245" x="165.5" y="391.1113">shows selected category</text><polygon fill="#181818" points="627.5,431.1094,637.5,435.1094,627.5,439.1094,631.5,435.1094" style="stroke:#181818;stroke-width:1.0;"/><line style="stroke:#181818;stroke-width:1.0;" x1="130.5" x2="633.5" y1="435.1094" y2="435.1094"/><text fill="#000000" font-family="sans-serif" font-size="20" font-weight="bold" lengthAdjust="spacing" textLength="14" x="137.5" y="428.3926">7</text><text fill="#000000" font-family="sans-serif" font-size="20" lengthAdjust="spacing" textLength="131" x="155.5" y="428.3926">submits data</text><polygon fill="#181818" points="141.5,468.3906,131.5,472.3906,141.5,476.3906,137.5,472.3906" style="stroke:#181818;stroke-width:1.0;"/><line style="stroke:#181818;stroke-width:1.0;stroke-dasharray:2.0,2.0;" x1="135.5" x2="643.5" y1="472.3906" y2="472.3906"/><text fill="#000000" font-family="sans-serif" font-size="20" font-weight="bold" lengthAdjust="spacing" textLength="14" x="147.5" y="465.6738">8</text><text fill="#000000" font-family="sans-serif" font-size="20" lengthAdjust="spacing" textLength="266" x="165.5" y="465.6738">displays operation success</text><!--SRC=[dP8nJyD038Nt_0ghKv6eX1Wx8241QuUiBEx5JK-zsE7iK8LVZvEGqY8OoartpdlV-PwZXyWjPcoIX0DLKD4EksGlmbR63uBxkq9d2JJ24lPP6WBB7PrzQJ4SiARI-aIGAHXodSu5kiTAZf5hs65IAWgBvjAoLwC6IdhhY0F1KyHwa2_Byka6Ll2OZ3AZnNU23RiDEnFkcYrbtmUJ38jDhf7ZXuk4uRbfa_H42q0z7GhlmMA8BRB1OZrTEYgcxOYAxsZqRId0rto2rSFSwjfj1mKJ29a61mBJ4Sohe-L4cj7mjRxyAqUTi6lFob-kfb2XuQYjw5V4hwrOtvBEZ65w3e5bfXtb8SvRXsd8iHsYkOLNZhoJt62wh1k5FSVme_pALPTnKWHHk_dFytGlHnt3WU2kMd8FAQe1SdKAKYdv7mFYyxqsWCcgFeIBE_xVwWJqA2zGLxNKRPjuFj0h-wYYjWbx1Mbfoj-H8P3g7wry0W00]--></g></svg>