<?xml version="1.0" encoding="UTF-8" standalone="no"?><svg xmlns="http://www.w3.org/2000/svg" xmlns:xlink="http://www.w3.org/1999/xlink" contentStyleType="text/css" height="2161px" preserveAspectRatio="none" style="width:1657px;height:2161px;background:#FFFFFF;" version="1.1" viewBox="0 0 1657 2161" width="1657px" zoomAndPan="magnify"><defs/><g><!--cluster System--><g id="cluster_System"><rect fill="none" height="2049" rx="2.5" ry="2.5" style="stroke:#181818;stroke-width:1.0;" width="1383" x="268" y="106"/><text fill="#000000" font-family="sans-serif" font-size="20" font-weight="bold" lengthAdjust="spacing" textLength="84" x="917.5" y="126.5645">System</text></g><g id="elem_UC1"><ellipse cx="959.6534" cy="1937.2307" fill="#F1F1F1" rx="176.6534" ry="37.7307" style="stroke:#181818;stroke-width:0.5;"/><text fill="#000000" font-family="sans-serif" font-size="20" lengthAdjust="spacing" textLength="309" x="806.151" y="1943.2795">UC 1 - Display listed properties</text></g><g id="elem_UC2"><ellipse cx="959.581" cy="493.8162" fill="#F1F1F1" rx="284.581" ry="59.3162" style="stroke:#181818;stroke-width:0.5;"/><text fill="#000000" font-family="sans-serif" font-size="20" lengthAdjust="spacing" textLength="533" x="696.081" y="498.74">UC 2 - Publish any sale announcement on the system</text></g><g id="elem_UC3"><ellipse cx="959.2564" cy="359.8513" fill="#F1F1F1" rx="182.2564" ry="38.8513" style="stroke:#181818;stroke-width:0.5;"/><text fill="#000000" font-family="sans-serif" font-size="20" lengthAdjust="spacing" textLength="321" x="800.4982" y="365.508">UC 3 - Register a new Employee</text></g><g id="elem_UC4"><ellipse cx="959.3029" cy="1238.9606" fill="#F1F1F1" rx="450.3029" ry="92.4606" style="stroke:#181818;stroke-width:0.5;"/><text fill="#000000" font-family="sans-serif" font-size="20" lengthAdjust="spacing" textLength="869" x="527.8029" y="1243.8844">UC 4 - Submit a request for listing a proerty sale or rent, choosing the resposible agent</text></g><g id="elem_UC6"><ellipse cx="959.6627" cy="217.1325" fill="#F1F1F1" rx="333.6627" ry="69.1325" style="stroke:#181818;stroke-width:0.5;"/><text fill="#000000" font-family="sans-serif" font-size="20" lengthAdjust="spacing" textLength="633" x="646.1627" y="222.0564">UC 6 - Specify districts, municipalities and parish in the system</text></g><g id="elem_UC7"><ellipse cx="959.5485" cy="2074.1097" fill="#F1F1F1" rx="311.0485" ry="64.6097" style="stroke:#181818;stroke-width:0.5;"/><text fill="#000000" font-family="sans-serif" font-size="20" lengthAdjust="spacing" textLength="587" x="669.0485" y="2079.0335">UC 7 - Register in the system to buy, sell or rent properties</text></g><g id="elem_UC8"><ellipse cx="959.2912" cy="694.7582" fill="#F1F1F1" rx="519.2912" ry="106.2582" style="stroke:#181818;stroke-width:0.5;"/><text fill="#000000" font-family="sans-serif" font-size="20" lengthAdjust="spacing" textLength="1002" x="458.2912" y="699.6821">UC 8 - See the list of property announcement requests made to myself and post the announcement.</text></g><g id="elem_UC9"><ellipse cx="959.3027" cy="1624.9605" fill="#F1F1F1" rx="297.8027" ry="61.9605" style="stroke:#181818;stroke-width:0.5;"/><text fill="#000000" font-family="sans-serif" font-size="20" lengthAdjust="spacing" textLength="554" x="682.3027" y="1629.8844">UC 9 - Leave a message to the agent to schedule a visit</text></g><g id="elem_UC10"><ellipse cx="959.5333" cy="1792.8067" fill="#F1F1F1" rx="342.0333" ry="70.8067" style="stroke:#181818;stroke-width:0.5;"/><text fill="#000000" font-family="sans-serif" font-size="20" lengthAdjust="spacing" textLength="650" x="637.5333" y="1797.7305">UC 10 - Place an order to purchase the property with the amount</text></g><g id="elem_UC11"><ellipse cx="959.5233" cy="974.0047" fill="#F1F1F1" rx="675.5233" ry="137.5047" style="stroke:#181818;stroke-width:0.5;"/><text fill="#000000" font-family="sans-serif" font-size="20" lengthAdjust="spacing" textLength="1322" x="301.5233" y="978.9285">UC 11 - List real estate purchase orders to accept or decline a purchase order for a property and send a notification to the costumer.</text></g><g id="elem_UC14"><ellipse cx="959.4029" cy="1446.8806" fill="#F1F1F1" rx="389.9029" ry="80.3806" style="stroke:#181818;stroke-width:0.5;"/><text fill="#000000" font-family="sans-serif" font-size="20" lengthAdjust="spacing" textLength="747" x="588.9029" y="1451.8044">UC 14 - Read the responses for appointment requests to accept or decline.</text></g><!--entity SA--><g id="elem_SA"><ellipse cx="115" cy="256" fill="#FFC0CB" rx="8" ry="8" style="stroke:#FF0000;stroke-width:2.0;"/><path d="M115,264 L115,291 M102,272 L128,272 M115,291 L102,306 M115,291 L128,306 " fill="none" style="stroke:#FF0000;stroke-width:2.0;"/><text fill="#FF0000" font-family="sans-serif" font-size="20" lengthAdjust="spacing" textLength="218" x="6" y="327.5645">System Administrator</text></g><!--entity RSA--><g id="elem_RSA"><ellipse cx="115" cy="662" fill="#87CEEB" rx="8" ry="8" style="stroke:#0000FF;stroke-width:2.0;"/><path d="M115,670 L115,697 M102,678 L128,678 M115,697 L102,712 M115,697 L128,712 " fill="none" style="stroke:#0000FF;stroke-width:2.0;"/><text fill="#0000FF" font-family="sans-serif" font-size="20" lengthAdjust="spacing" textLength="169" x="30.5" y="733.5645">Real State Agent</text></g><!--entity PO--><g id="elem_PO"><ellipse cx="115" cy="1206" fill="#BC8F8F" rx="8" ry="8" style="stroke:#A52A2A;stroke-width:2.0;"/><path d="M115,1214 L115,1241 M102,1222 L128,1222 M115,1241 L102,1256 M115,1241 L128,1256 " fill="none" style="stroke:#A52A2A;stroke-width:2.0;"/><text fill="#A52A2A" font-family="sans-serif" font-size="20" lengthAdjust="spacing" textLength="156" x="37" y="1277.5645">Property Owner</text></g><!--entity C--><g id="elem_C"><ellipse cx="115" cy="1592" fill="#90EE90" rx="8" ry="8" style="stroke:#008000;stroke-width:2.0;"/><path d="M115,1600 L115,1627 M102,1608 L128,1608 M115,1627 L102,1642 M115,1627 L128,1642 " fill="none" style="stroke:#008000;stroke-width:2.0;"/><text fill="#008000" font-family="sans-serif" font-size="20" lengthAdjust="spacing" textLength="59" x="85.5" y="1663.5645">Client</text></g><!--entity UU--><g id="elem_UU"><ellipse cx="115" cy="1972" fill="#D3D3D3" rx="8" ry="8" style="stroke:#808080;stroke-width:2.0;"/><path d="M115,1980 L115,2007 M102,1988 L128,1988 M115,2007 L102,2022 M115,2007 L128,2022 " fill="none" style="stroke:#808080;stroke-width:2.0;"/><text fill="#808080" font-family="sans-serif" font-size="20" lengthAdjust="spacing" textLength="181" x="24.5" y="2043.5645">Unregistered User</text></g><!--entity SM--><g id="elem_SM"><ellipse cx="115" cy="135" fill="#FFA07A" rx="8" ry="8" style="stroke:#FA8072;stroke-width:2.0;"/><path d="M115,143 L115,170 M102,151 L128,151 M115,170 L102,185 M115,170 L128,185 " fill="none" style="stroke:#FA8072;stroke-width:2.0;"/><text fill="#FA8072" font-family="sans-serif" font-size="20" lengthAdjust="spacing" textLength="149" x="40.5" y="206.5645">Store manager</text></g><!--entity NM--><g id="elem_NM"><ellipse cx="115" cy="14" fill="#696969" rx="8" ry="8" style="stroke:#000000;stroke-width:2.0;"/><path d="M115,22 L115,49 M102,30 L128,30 M115,49 L102,64 M115,49 L128,64 " fill="none" style="stroke:#000000;stroke-width:2.0;"/><text fill="#000000" font-family="sans-serif" font-size="20" lengthAdjust="spacing" textLength="180" x="25" y="85.5645">Network manager</text></g><!--link UU to UC1--><g id="link_UU_UC1"><path d="M205.86,1996.73 C223.79,1995.12 242.49,1993.48 260,1992 C440.13,1976.78 646.52,1960.69 787.98,1949.88 " fill="none" id="UU-to-UC1" style="stroke:#181818;stroke-width:1.0;"/><polygon fill="#181818" points="792.98,1949.5,783.6983,1946.2061,787.9949,1949.8857,784.3153,1954.1823,792.98,1949.5" style="stroke:#181818;stroke-width:1.0;"/></g><!--link UU to UC7--><g id="link_UU_UC7"><path d="M205.76,2012.35 C314.5,2021.26 503.17,2036.71 664.42,2049.91 " fill="none" id="UU-to-UC7" style="stroke:#181818;stroke-width:1.0;"/><polygon fill="#181818" points="669.66,2050.34,661.0221,2045.6085,664.6772,2049.926,660.3597,2053.581,669.66,2050.34" style="stroke:#181818;stroke-width:1.0;"/></g><!--link RSA to UC2--><g id="link_RSA_UC2"><path d="M152.97,651.83 C179.67,623.78 218.25,589.16 260,571 C388.13,515.26 541.41,493.98 671.7,487.49 " fill="none" id="RSA-to-UC2" style="stroke:#181818;stroke-width:1.0;"/><polygon fill="#181818" points="676.72,487.24,667.536,483.6826,671.7259,487.4833,667.9253,491.6731,676.72,487.24" style="stroke:#181818;stroke-width:1.0;"/></g><!--link RSA to UC8--><g id="link_RSA_UC8"><path d="M199.86,695 C258.89,695 343.42,695 434.8,695 " fill="none" id="RSA-to-UC8" style="stroke:#181818;stroke-width:1.0;"/><polygon fill="#181818" points="439.99,695,430.99,691,434.99,695,430.99,699,439.99,695" style="stroke:#181818;stroke-width:1.0;"/></g><!--link RSA to UC11--><g id="link_RSA_UC11"><path d="M155.12,738.24 C182.04,765.4 220.04,798.97 260,819 C313.06,845.6 370.65,867.66 429.22,885.97 " fill="none" id="RSA-to-UC11" style="stroke:#181818;stroke-width:1.0;"/><polygon fill="#181818" points="434.17,887.5,426.7661,881.0052,429.3961,886.0135,424.3877,888.6435,434.17,887.5" style="stroke:#181818;stroke-width:1.0;"/></g><!--link SA to UC3--><g id="link_SA_UC3"><path d="M224.1,299.69 C236.21,300.84 248.37,301.96 260,303 C437.85,318.9 641.35,335.3 782.64,346.41 " fill="none" id="SA-to-UC3" style="stroke:#181818;stroke-width:1.0;"/><polygon fill="#181818" points="787.64,346.8,778.9887,342.0931,782.656,346.4001,778.3489,350.0674,787.64,346.8" style="stroke:#181818;stroke-width:1.0;"/></g><!--link SA to UC6--><g id="link_SA_UC6"><path d="M224.42,279.73 C330.71,270.65 497.87,256.37 645.85,243.72 " fill="none" id="SA-to-UC6" style="stroke:#181818;stroke-width:1.0;"/><polygon fill="#181818" points="651.11,243.27,641.8097,240.029,646.1272,243.684,642.4721,248.0015,651.11,243.27" style="stroke:#181818;stroke-width:1.0;"/></g><!--link PO to UC4--><g id="link_PO_UC4"><path d="M193.37,1239 C266.8,1239 383.54,1239 503.94,1239 " fill="none" id="PO-to-UC4" style="stroke:#181818;stroke-width:1.0;"/><polygon fill="#181818" points="508.95,1239,499.95,1235,503.95,1239,499.95,1243,508.95,1239" style="stroke:#181818;stroke-width:1.0;"/></g><!--link C to UC9--><g id="link_C_UC9"><path d="M144.51,1625 C224.72,1625 459.25,1625 656.09,1625 " fill="none" id="C-to-UC9" style="stroke:#181818;stroke-width:1.0;"/><polygon fill="#181818" points="661.31,1625,652.31,1621,656.31,1625,652.31,1629,661.31,1625" style="stroke:#181818;stroke-width:1.0;"/></g><!--link C to UC10--><g id="link_C_UC10"><path d="M144.58,1644.92 C172.63,1663.41 217.29,1690.12 260,1704 C374.84,1741.33 505.06,1763.1 621.69,1775.76 " fill="none" id="C-to-UC10" style="stroke:#181818;stroke-width:1.0;"/><polygon fill="#181818" points="626.88,1776.32,618.3674,1771.3667,621.9095,1775.7772,617.499,1779.3194,626.88,1776.32" style="stroke:#181818;stroke-width:1.0;"/></g><!--link C to UC14--><g id="link_C_UC14"><path d="M144.58,1604.94 C172.63,1586.29 217.29,1559.31 260,1545 C362.87,1510.54 478.19,1488.19 585.03,1473.7 " fill="none" id="C-to-UC14" style="stroke:#181818;stroke-width:1.0;"/><polygon fill="#181818" points="590.11,1473.02,580.6546,1470.2642,585.1552,1473.6911,581.7283,1478.1918,590.11,1473.02" style="stroke:#181818;stroke-width:1.0;"/></g><!--SRC=[RPNDRjim3CVlUWgYEUJI5aqQz6C5DhJfjakt5Wdo08hC949aoPFaPjwmTnyfsubJnuU4biqVoJyfAsorBQINkN5gYnbak9AbYT-SZNFz1s5y9OJ1LOJemElr9aAcFQgedHLIHUVXR5w5Y3ayPhcsEaGlQVKCP83v8y2Wq7RxOBJ5JnwpP5mkdSaU8lwElDHIPYWDpAEC28zhj34HPeoWQp3VLa-cn1gqRAqEYTTQr9jt1VfOmUlEOftAsoiqrs3cGlNatSxMi8FPfV5YWviQJUamP0hzQ_32edptY0tlO7PuQR5DRs4zhaaefEfX4PeC5ujZNhN7LITe5R-xRm3z8kJIodK3c__uaE1Scjmr6NRi3hHURRrQz4-CE-UtH_2VBNpmhFD3faz6gkr7QbeKTF7CIBis2Csu_1MCA0Cg6H3EO3654Lp0imw5aHKO5YY3ecwbnb2BD1trtSRazbOkoMC3qbOG94MHrhhIAiovTrHNt2245Ba1ZVkWQmBDcjQ018ix-9eNnbM8ZTDrtsb2JlDocMiQ4V3ugyGGOKNQSGNQhccLYaZZc1AZ9vvoEWUrSIxm2voQnr3GtP8ptq__OZhfnxlXU0KglQfeAz9sqog6SyXBgvKkfD4i5fLFsadFakWJnT_qkRVTuezyUEilo-eS0XhJvj_lp6sVUSUv8YOMom5krVfLnnrgX0iqQ1bomBoYQAkw3aUUZEXwN48JzguVzfx2lg1y9m_8CGHIb949mUBoJL0Rp4gM6zvreEOrkFiJOtd50qQ3p1bG_Ha9H8IYz6h3Bp5tNzLEnqqTAQTSspwEhavWUTnVM1NFdpwgdhzzUsgA4pYGL0gBoC9dg7X_yKWTlPRcJNQbpQXPz4D3xA9UQINvWzsAe4ZGCaT_sMPtObED9caUP7OOJnjei5Aaed3QnkF6dKfq7s0Y_ecXfhrKTvlABHNloapBDPqzNyImzr4K_46ykFYSzlp1lXN3ZoU5u5EYVZfccqmUYzQYweQdZYZ1PqljTjsnRyJm-FmGwUoe7qx4i3uEn3Inxvj_wczZJ8Ju3m00]--></g></svg>