<?xml version="1.0" encoding="UTF-8" standalone="no"?><svg xmlns="http://www.w3.org/2000/svg" xmlns:xlink="http://www.w3.org/1999/xlink" contentStyleType="text/css" height="531px" preserveAspectRatio="none" style="width:501px;height:531px;background:#FFFFFF;" version="1.1" viewBox="0 0 501 531" width="501px" zoomAndPan="magnify"><defs/><g><text fill="#000000" font-family="sans-serif" font-size="14" font-weight="bold" lengthAdjust="spacing" textLength="41" x="223.25" y="22.9951">US03</text><!--class SA--><g id="elem_SA"><rect codeLine="16" fill="#F1F1F1" height="41.2813" id="SA" rx="2.5" ry="2.5" style="stroke:#181818;stroke-width:0.5;" width="224" x="14.5" y="125.7969"/><text fill="#000000" font-family="sans-serif" font-size="20" lengthAdjust="spacing" textLength="218" x="17.5" y="149.3613">System Administrator</text><line style="stroke:#181818;stroke-width:0.5;" x1="15.5" x2="237.5" y1="159.0781" y2="159.0781"/></g><!--class Employee--><g id="elem_Employee"><rect codeLine="20" fill="#F1F1F1" height="64.5625" id="Employee" rx="2.5" ry="2.5" style="stroke:#181818;stroke-width:0.5;" width="204" x="156.5" y="333.2969"/><text fill="#000000" font-family="sans-serif" font-size="20" lengthAdjust="spacing" textLength="99" x="209" y="356.8613">Employee</text><line style="stroke:#181818;stroke-width:0.5;" x1="157.5" x2="359.5" y1="366.5781" y2="366.5781"/><text fill="#000000" font-family="sans-serif" font-size="20" lengthAdjust="spacing" textLength="192" x="162.5" y="389.1426">agencyDesignation</text></g><!--class User--><g id="elem_User"><rect codeLine="25" fill="#F1F1F1" height="204.25" id="User" rx="2.5" ry="2.5" style="stroke:#181818;stroke-width:0.5;" width="214" x="280.5" y="44.2969"/><text fill="#000000" font-family="sans-serif" font-size="20" lengthAdjust="spacing" textLength="45" x="365" y="67.8613">User</text><line style="stroke:#181818;stroke-width:0.5;" x1="281.5" x2="493.5" y1="77.5781" y2="77.5781"/><text fill="#000000" font-family="sans-serif" font-size="20" lengthAdjust="spacing" textLength="64" x="286.5" y="100.1426">-name</text><text fill="#000000" font-family="sans-serif" font-size="20" lengthAdjust="spacing" textLength="202" x="286.5" y="123.4238">-citizenCardNumber</text><text fill="#000000" font-family="sans-serif" font-size="20" lengthAdjust="spacing" textLength="119" x="286.5" y="146.7051">-taxNumber</text><text fill="#000000" font-family="sans-serif" font-size="20" lengthAdjust="spacing" textLength="85" x="286.5" y="169.9863">-address</text><text fill="#000000" font-family="sans-serif" font-size="20" lengthAdjust="spacing" textLength="63" x="286.5" y="193.2676">-email</text><text fill="#000000" font-family="sans-serif" font-size="20" lengthAdjust="spacing" textLength="151" x="286.5" y="216.5488">-phoneNumber</text><text fill="#000000" font-family="sans-serif" font-size="20" lengthAdjust="spacing" textLength="102" x="286.5" y="239.8301">-password</text></g><!--class NM--><g id="elem_NM"><rect codeLine="35" fill="#F1F1F1" height="41.2813" id="NM" rx="2.5" ry="2.5" style="stroke:#181818;stroke-width:0.5;" width="183" x="7" y="483.2969"/><text fill="#000000" font-family="sans-serif" font-size="20" lengthAdjust="spacing" textLength="177" x="10" y="506.8613">Network Manager</text><line style="stroke:#181818;stroke-width:0.5;" x1="8" x2="189" y1="516.5781" y2="516.5781"/></g><!--class Agent--><g id="elem_Agent"><rect codeLine="38" fill="#F1F1F1" height="41.2813" id="Agent" rx="2.5" ry="2.5" style="stroke:#181818;stroke-width:0.5;" width="66" x="225.5" y="483.2969"/><text fill="#000000" font-family="sans-serif" font-size="20" lengthAdjust="spacing" textLength="60" x="228.5" y="506.8613">Agent</text><line style="stroke:#181818;stroke-width:0.5;" x1="226.5" x2="290.5" y1="516.5781" y2="516.5781"/></g><!--class SM--><g id="elem_SM"><rect codeLine="41" fill="#F1F1F1" height="41.2813" id="SM" rx="2.5" ry="2.5" style="stroke:#181818;stroke-width:0.5;" width="152" x="326.5" y="483.2969"/><text fill="#000000" font-family="sans-serif" font-size="20" lengthAdjust="spacing" textLength="146" x="329.5" y="506.8613">Store Manager</text><line style="stroke:#181818;stroke-width:0.5;" x1="327.5" x2="477.5" y1="516.5781" y2="516.5781"/></g><!--link SA to Employee--><g id="link_SA_Employee"><path codeLine="45" d="M118.26,166.9569 C106.44,198.5469 88.94,261.3269 116.5,303.2969 C126.31,318.2269 140.6,329.5569 156.39,338.1369 " fill="none" id="SA-Employee" style="stroke:#181818;stroke-width:1.0;"/><polygon fill="#000000" points="126.2394,298.7461,127.6826,283.5978,118.503,285.6426,126.2394,298.7461" style="stroke:#000000;stroke-width:1.0;"/><text fill="#000000" font-family="sans-serif" font-size="20" lengthAdjust="spacing" textLength="77" x="137.5" y="297.8613">register</text><text fill="#000000" font-family="sans-serif" font-size="20" lengthAdjust="spacing" textLength="13" x="96.8704" y="193.7623">1</text><text fill="#000000" font-family="sans-serif" font-size="20" lengthAdjust="spacing" textLength="35" x="113.3537" y="331.0944">1..*</text></g><!--link Employee to SA--><g id="link_Employee_SA"><path codeLine="47" d="M246.02,333.2469 C238.97,316.5269 229.58,295.8769 219.5,278.2969 C195.64,236.6769 161.86,191.8469 142.26,166.9069 " fill="none" id="Employee-SA" style="stroke:#181818;stroke-width:1.0;"/><polygon fill="#000000" points="235.266,284.1498,238.9357,298.9176,246.9151,293.9402,235.266,284.1498" style="stroke:#000000;stroke-width:1.0;"/><text fill="#000000" font-family="sans-serif" font-size="20" lengthAdjust="spacing" textLength="67" x="252.5" y="297.8613">can be</text><text fill="#000000" font-family="sans-serif" font-size="20" lengthAdjust="spacing" textLength="13" x="224.2551" y="320.4828">1</text><text fill="#000000" font-family="sans-serif" font-size="20" lengthAdjust="spacing" textLength="35" x="164.3204" y="193.6995">1..*</text></g><!--reverse link User to Employee--><g id="link_User_Employee"><path codeLine="46" d="M367,267.8069 C362.09,280.3769 356.02,292.4969 348.5,303.2969 C340.5,314.7869 329.6,324.7769 318.15,333.1669 " fill="none" id="User-backto-Employee" style="stroke:#181818;stroke-width:1.0;"/><polygon fill="none" points="360.51,265.1469,373.58,248.4669,373.76,269.6569,360.51,265.1469" style="stroke:#181818;stroke-width:1.0;"/><text fill="#000000" font-family="sans-serif" font-size="20" lengthAdjust="spacing" textLength="34" x="361.5" y="297.8613">is a</text></g><!--link Employee to Agent--><g id="link_Employee_Agent"><path codeLine="48" d="M258.5,398.3369 C258.5,424.5469 258.5,461.0169 258.5,483.2069 " fill="none" id="Employee-Agent" style="stroke:#181818;stroke-width:1.0;"/><polygon fill="#000000" points="266.5,448.9375,271.2023,434.4654,261.7977,434.4654,266.5,448.9375" style="stroke:#000000;stroke-width:1.0;"/><text fill="#000000" font-family="sans-serif" font-size="20" lengthAdjust="spacing" textLength="67" x="279.5" y="447.8613">can be</text><text fill="#000000" font-family="sans-serif" font-size="20" lengthAdjust="spacing" textLength="13" x="244.3828" y="424.5325">1</text><text fill="#000000" font-family="sans-serif" font-size="20" lengthAdjust="spacing" textLength="35" x="219.0156" y="470.5483">1..*</text></g><!--link Employee to SM--><g id="link_Employee_SM"><path codeLine="49" d="M317.53,398.3469 C330.88,407.0169 344.37,417.1469 355.5,428.2969 C371.59,444.4269 384.88,467.0169 393.17,483.0869 " fill="none" id="Employee-SM" style="stroke:#181818;stroke-width:1.0;"/><polygon fill="#000000" points="387.8273,446.9057,381.6981,432.9778,374.6821,439.2404,387.8273,446.9057" style="stroke:#000000;stroke-width:1.0;"/><text fill="#000000" font-family="sans-serif" font-size="20" lengthAdjust="spacing" textLength="67" x="395.5" y="447.8613">can be</text><text fill="#000000" font-family="sans-serif" font-size="20" lengthAdjust="spacing" textLength="13" x="313.5586" y="424.5442">1</text><text fill="#000000" font-family="sans-serif" font-size="20" lengthAdjust="spacing" textLength="35" x="351.2948" y="470.3975">1..*</text></g><!--link Employee to NM--><g id="link_Employee_NM"><path codeLine="50" d="M202.32,398.3569 C188.38,407.2569 173.9,417.4869 161.5,428.2969 C142.6,444.7669 124.5,467.0969 112.59,482.9969 " fill="none" id="Employee-NM" style="stroke:#181818;stroke-width:1.0;"/><polygon fill="#000000" points="163.6805,446.4269,177.4347,439.9171,170.9815,433.0759,163.6805,446.4269" style="stroke:#000000;stroke-width:1.0;"/><text fill="#000000" font-family="sans-serif" font-size="20" lengthAdjust="spacing" textLength="67" x="182.5" y="447.8613">can be</text><text fill="#000000" font-family="sans-serif" font-size="20" lengthAdjust="spacing" textLength="13" x="178.5469" y="424.5559">1</text><text fill="#000000" font-family="sans-serif" font-size="20" lengthAdjust="spacing" textLength="35" x="76.7588" y="470.6882">1..*</text></g><!--SRC=[ZP7BQiCm44Nt-eh1cq8X9cbteHH27z15iZ7vW8aqiKNqCDA4D7tyUoUscpYBGhKQZS_SkLVEEnjQJEXTr3ioO6YBUyUlCN1bFmZkfYh_8k1ZYBf9qHDmsjFeIujwXpLLV7G4YJHZgDqOo0sQUB2XXYswJ4hTEDeoS8HawuR1sDEKZK6DXhJ3d1VCoMxsJ6ywXixJLAd66W9javObNUs9csYoKcnPBAohwRsIqob0KHqpauU5yJROp0avfW8mGxM0JwM-Vy4Ntxfu998c04YWe8_Fb6qTiFTs9jUPKa_1109w6afjMIo69qncjVSRIaEVyVtgZiOaodcuaKVhXhfjOg0nsyg-GqpcihnO4Kjd1qiCOhAFibgAdpEo4EyyRXILPAQhYMgOKAKyGm7TcHKmcK0nAylR0ihpUypbfzRoSXBwKPLT-8Sl0SU4pO3gqXW4BvfIzAgoRGuQ0spef7QPk5xUH_YB786Iupzwgp7s0m00]--></g></svg>