<?xml version="1.0" encoding="UTF-8" standalone="no"?><svg xmlns="http://www.w3.org/2000/svg" xmlns:xlink="http://www.w3.org/1999/xlink" contentStyleType="text/css" height="1627px" preserveAspectRatio="none" style="width:1179px;height:1627px;background:#FFFFFF;" version="1.1" viewBox="0 0 1179 1627" width="1179px" zoomAndPan="magnify"><defs/><g><!--class Repositories--><g id="elem_Repositories"><rect codeLine="17" fill="#FFDAB9" height="119.8438" id="Repositories" rx="2.5" ry="2.5" style="stroke:#4169E1;stroke-width:0.5;" width="336" x="403.5" y="299"/><ellipse cx="505.5" cy="316" fill="#ADD1B2" rx="12" ry="12" style="stroke:#181818;stroke-width:1.0;"/><path d="M508.5625,323.0781 Q507.875,323.4375 507.125,323.6094 Q506.375,323.7813 505.5469,323.7813 Q502.5938,323.7813 501.0313,321.8438 Q499.4844,319.8906 499.4844,316.2188 Q499.4844,312.5469 501.0313,310.6094 Q502.5938,308.6563 505.5469,308.6563 Q506.375,308.6563 507.125,308.8281 Q507.8906,309 508.5625,309.3594 L508.5625,312.5625 Q507.8125,311.875 507.1094,311.5625 Q506.4219,311.25 505.6719,311.25 Q504.0938,311.25 503.2813,312.5 Q502.4844,313.75 502.4844,316.2188 Q502.4844,318.6875 503.2813,319.9375 Q504.0938,321.1875 505.6719,321.1875 Q506.4219,321.1875 507.1094,320.875 Q507.8125,320.5625 508.5625,319.875 L508.5625,323.0781 Z " fill="#000000"/><text fill="#000000" font-family="sans-serif" font-size="20" lengthAdjust="spacing" textLength="123" x="527.5" y="322.9238">Repositories</text><line style="stroke:#4169E1;stroke-width:0.5;" x1="404.5" x2="738.5" y1="333" y2="333"/><line style="stroke:#4169E1;stroke-width:0.5;" x1="404.5" x2="738.5" y1="341" y2="341"/><rect fill="#F24D5C" height="6" style="stroke:#C82930;stroke-width:1.0;" width="6" x="411.5" y="355.1406"/><text fill="#000000" font-family="sans-serif" font-size="20" lengthAdjust="spacing" textLength="139" x="424.5" y="363.5645">Repositories()</text><ellipse cx="414.5" cy="381.4219" fill="#84BE84" rx="3" ry="3" style="stroke:#038048;stroke-width:1.0;"/><text fill="#000000" font-family="sans-serif" font-size="20" lengthAdjust="spacing" textLength="276" x="424.5" y="386.8457">getInstance() : Repositories</text><ellipse cx="414.5" cy="404.7031" fill="#84BE84" rx="3" ry="3" style="stroke:#038048;stroke-width:1.0;"/><text fill="#000000" font-family="sans-serif" font-size="20" lengthAdjust="spacing" textLength="309" x="424.5" y="410.127">getAnnouncementRepository()</text></g><!--class OrderRequestUI--><g id="elem_OrderRequestUI"><rect codeLine="23" fill="#FFDAB9" height="50" id="OrderRequestUI" rx="2.5" ry="2.5" style="stroke:#4169E1;stroke-width:0.5;" width="194" x="646.5" y="7"/><ellipse cx="662.5" cy="24" fill="#ADD1B2" rx="12" ry="12" style="stroke:#181818;stroke-width:1.0;"/><path d="M665.5625,31.0781 Q664.875,31.4375 664.125,31.6094 Q663.375,31.7813 662.5469,31.7813 Q659.5938,31.7813 658.0313,29.8438 Q656.4844,27.8906 656.4844,24.2188 Q656.4844,20.5469 658.0313,18.6094 Q659.5938,16.6563 662.5469,16.6563 Q663.375,16.6563 664.125,16.8281 Q664.8906,17 665.5625,17.3594 L665.5625,20.5625 Q664.8125,19.875 664.1094,19.5625 Q663.4219,19.25 662.6719,19.25 Q661.0938,19.25 660.2813,20.5 Q659.4844,21.75 659.4844,24.2188 Q659.4844,26.6875 660.2813,27.9375 Q661.0938,29.1875 662.6719,29.1875 Q663.4219,29.1875 664.1094,28.875 Q664.8125,28.5625 665.5625,27.875 L665.5625,31.0781 Z " fill="#000000"/><text fill="#000000" font-family="sans-serif" font-size="20" lengthAdjust="spacing" textLength="160" x="677.5" y="30.9238">OrderRequestUI</text><line style="stroke:#4169E1;stroke-width:0.5;" x1="647.5" x2="839.5" y1="41" y2="41"/><line style="stroke:#4169E1;stroke-width:0.5;" x1="647.5" x2="839.5" y1="49" y2="49"/></g><!--class OrderRequestController--><g id="elem_OrderRequestController"><rect codeLine="26" fill="#FFDAB9" height="119.8438" id="OrderRequestController" rx="2.5" ry="2.5" style="stroke:#4169E1;stroke-width:0.5;" width="857" x="315" y="118"/><ellipse cx="620" cy="135" fill="#ADD1B2" rx="12" ry="12" style="stroke:#181818;stroke-width:1.0;"/><path d="M623.0625,142.0781 Q622.375,142.4375 621.625,142.6094 Q620.875,142.7813 620.0469,142.7813 Q617.0938,142.7813 615.5313,140.8438 Q613.9844,138.8906 613.9844,135.2188 Q613.9844,131.5469 615.5313,129.6094 Q617.0938,127.6563 620.0469,127.6563 Q620.875,127.6563 621.625,127.8281 Q622.3906,128 623.0625,128.3594 L623.0625,131.5625 Q622.3125,130.875 621.6094,130.5625 Q620.9219,130.25 620.1719,130.25 Q618.5938,130.25 617.7813,131.5 Q616.9844,132.75 616.9844,135.2188 Q616.9844,137.6875 617.7813,138.9375 Q618.5938,140.1875 620.1719,140.1875 Q620.9219,140.1875 621.6094,139.875 Q622.3125,139.5625 623.0625,138.875 L623.0625,142.0781 Z " fill="#000000"/><text fill="#000000" font-family="sans-serif" font-size="20" lengthAdjust="spacing" textLength="238" x="642" y="141.9238">OrderRequestController</text><line style="stroke:#4169E1;stroke-width:0.5;" x1="316" x2="1171" y1="152" y2="152"/><line style="stroke:#4169E1;stroke-width:0.5;" x1="316" x2="1171" y1="160" y2="160"/><ellipse cx="326" cy="177.1406" fill="#84BE84" rx="3" ry="3" style="stroke:#038048;stroke-width:1.0;"/><text fill="#000000" font-family="sans-serif" font-size="20" lengthAdjust="spacing" textLength="318" x="336" y="182.5645">submitOrder(person,price,date)</text><ellipse cx="326" cy="200.4219" fill="#84BE84" rx="3" ry="3" style="stroke:#038048;stroke-width:1.0;"/><text fill="#000000" font-family="sans-serif" font-size="20" lengthAdjust="spacing" textLength="596" x="336" y="205.8457">checkIfRequestPriceIsUnique(requestPrice, announcement)</text><ellipse cx="326" cy="223.7031" fill="#84BE84" rx="3" ry="3" style="stroke:#038048;stroke-width:1.0;"/><text fill="#000000" font-family="sans-serif" font-size="20" lengthAdjust="spacing" textLength="830" x="336" y="229.127">checkIfRequestPriceIsLowerThanAdvertisementPrice(requestPrice, announcement)</text></g><!--class Order--><g id="elem_Order"><rect codeLine="31" fill="#FFDAB9" height="119.8438" id="Order" rx="2.5" ry="2.5" style="stroke:#4169E1;stroke-width:0.5;" width="168" x="650.5" y="1022"/><ellipse cx="701.5" cy="1039" fill="#ADD1B2" rx="12" ry="12" style="stroke:#181818;stroke-width:1.0;"/><path d="M704.5625,1046.0781 Q703.875,1046.4375 703.125,1046.6094 Q702.375,1046.7813 701.5469,1046.7813 Q698.5938,1046.7813 697.0313,1044.8438 Q695.4844,1042.8906 695.4844,1039.2188 Q695.4844,1035.5469 697.0313,1033.6094 Q698.5938,1031.6563 701.5469,1031.6563 Q702.375,1031.6563 703.125,1031.8281 Q703.8906,1032 704.5625,1032.3594 L704.5625,1035.5625 Q703.8125,1034.875 703.1094,1034.5625 Q702.4219,1034.25 701.6719,1034.25 Q700.0938,1034.25 699.2813,1035.5 Q698.4844,1036.75 698.4844,1039.2188 Q698.4844,1041.6875 699.2813,1042.9375 Q700.0938,1044.1875 701.6719,1044.1875 Q702.4219,1044.1875 703.1094,1043.875 Q703.8125,1043.5625 704.5625,1042.875 L704.5625,1046.0781 Z " fill="#000000"/><text fill="#000000" font-family="sans-serif" font-size="20" lengthAdjust="spacing" textLength="57" x="723.5" y="1045.9238">Order</text><line style="stroke:#4169E1;stroke-width:0.5;" x1="651.5" x2="817.5" y1="1056" y2="1056"/><rect fill="none" height="6" style="stroke:#C82930;stroke-width:1.0;" width="6" x="658.5" y="1070.1406"/><text fill="#000000" font-family="sans-serif" font-size="20" lengthAdjust="spacing" textLength="141" x="671.5" y="1078.5645">Person person</text><rect fill="none" height="6" style="stroke:#C82930;stroke-width:1.0;" width="6" x="658.5" y="1093.4219"/><text fill="#000000" font-family="sans-serif" font-size="20" lengthAdjust="spacing" textLength="125" x="671.5" y="1101.8457">double price</text><rect fill="none" height="6" style="stroke:#C82930;stroke-width:1.0;" width="6" x="658.5" y="1116.7031"/><text fill="#000000" font-family="sans-serif" font-size="20" lengthAdjust="spacing" textLength="98" x="671.5" y="1125.127">Date date</text><line style="stroke:#4169E1;stroke-width:0.5;" x1="651.5" x2="817.5" y1="1133.8438" y2="1133.8438"/></g><!--class Person--><g id="elem_Person"><rect codeLine="36" fill="#FFDAB9" height="189.6875" id="Person" rx="2.5" ry="2.5" style="stroke:#4169E1;stroke-width:0.5;" width="238" x="507.5" y="1203"/><ellipse cx="588.5" cy="1220" fill="#ADD1B2" rx="12" ry="12" style="stroke:#181818;stroke-width:1.0;"/><path d="M591.5625,1227.0781 Q590.875,1227.4375 590.125,1227.6094 Q589.375,1227.7813 588.5469,1227.7813 Q585.5938,1227.7813 584.0313,1225.8438 Q582.4844,1223.8906 582.4844,1220.2188 Q582.4844,1216.5469 584.0313,1214.6094 Q585.5938,1212.6563 588.5469,1212.6563 Q589.375,1212.6563 590.125,1212.8281 Q590.8906,1213 591.5625,1213.3594 L591.5625,1216.5625 Q590.8125,1215.875 590.1094,1215.5625 Q589.4219,1215.25 588.6719,1215.25 Q587.0938,1215.25 586.2813,1216.5 Q585.4844,1217.75 585.4844,1220.2188 Q585.4844,1222.6875 586.2813,1223.9375 Q587.0938,1225.1875 588.6719,1225.1875 Q589.4219,1225.1875 590.1094,1224.875 Q590.8125,1224.5625 591.5625,1223.875 L591.5625,1227.0781 Z " fill="#000000"/><text fill="#000000" font-family="sans-serif" font-size="20" lengthAdjust="spacing" textLength="67" x="610.5" y="1226.9238">Person</text><line style="stroke:#4169E1;stroke-width:0.5;" x1="508.5" x2="744.5" y1="1237" y2="1237"/><rect fill="none" height="6" style="stroke:#C82930;stroke-width:1.0;" width="6" x="515.5" y="1251.1406"/><text fill="#000000" font-family="sans-serif" font-size="20" lengthAdjust="spacing" textLength="124" x="528.5" y="1259.5645">String name</text><rect fill="none" height="6" style="stroke:#C82930;stroke-width:1.0;" width="6" x="515.5" y="1274.4219"/><text fill="#000000" font-family="sans-serif" font-size="20" lengthAdjust="spacing" textLength="200" x="528.5" y="1282.8457">int passportNumber</text><rect fill="none" height="6" style="stroke:#C82930;stroke-width:1.0;" width="6" x="515.5" y="1297.7031"/><text fill="#000000" font-family="sans-serif" font-size="20" lengthAdjust="spacing" textLength="112" x="528.5" y="1306.127">taxNumber</text><rect fill="none" height="6" style="stroke:#C82930;stroke-width:1.0;" width="6" x="515.5" y="1320.9844"/><text fill="#000000" font-family="sans-serif" font-size="20" lengthAdjust="spacing" textLength="119" x="528.5" y="1329.4082">Email email</text><rect fill="none" height="6" style="stroke:#C82930;stroke-width:1.0;" width="6" x="515.5" y="1344.2656"/><text fill="#000000" font-family="sans-serif" font-size="20" lengthAdjust="spacing" textLength="211" x="528.5" y="1352.6895">String phoneNumber</text><rect fill="none" height="6" style="stroke:#C82930;stroke-width:1.0;" width="6" x="515.5" y="1367.5469"/><text fill="#000000" font-family="sans-serif" font-size="20" lengthAdjust="spacing" textLength="164" x="528.5" y="1375.9707">Address address</text><line style="stroke:#4169E1;stroke-width:0.5;" x1="508.5" x2="744.5" y1="1384.6875" y2="1384.6875"/></g><!--class Address--><g id="elem_Address"><rect codeLine="44" fill="#FFDAB9" height="166.4063" id="Address" rx="2.5" ry="2.5" style="stroke:#4169E1;stroke-width:0.5;" width="164" x="544.5" y="1454"/><ellipse cx="583" cy="1471" fill="#ADD1B2" rx="12" ry="12" style="stroke:#181818;stroke-width:1.0;"/><path d="M586.0625,1478.0781 Q585.375,1478.4375 584.625,1478.6094 Q583.875,1478.7813 583.0469,1478.7813 Q580.0938,1478.7813 578.5313,1476.8438 Q576.9844,1474.8906 576.9844,1471.2188 Q576.9844,1467.5469 578.5313,1465.6094 Q580.0938,1463.6563 583.0469,1463.6563 Q583.875,1463.6563 584.625,1463.8281 Q585.3906,1464 586.0625,1464.3594 L586.0625,1467.5625 Q585.3125,1466.875 584.6094,1466.5625 Q583.9219,1466.25 583.1719,1466.25 Q581.5938,1466.25 580.7813,1467.5 Q579.9844,1468.75 579.9844,1471.2188 Q579.9844,1473.6875 580.7813,1474.9375 Q581.5938,1476.1875 583.1719,1476.1875 Q583.9219,1476.1875 584.6094,1475.875 Q585.3125,1475.5625 586.0625,1474.875 L586.0625,1478.0781 Z " fill="#000000"/><text fill="#000000" font-family="sans-serif" font-size="20" lengthAdjust="spacing" textLength="80" x="603" y="1477.9238">Address</text><line style="stroke:#4169E1;stroke-width:0.5;" x1="545.5" x2="707.5" y1="1488" y2="1488"/><rect fill="none" height="6" style="stroke:#C82930;stroke-width:1.0;" width="6" x="552.5" y="1502.1406"/><text fill="#000000" font-family="sans-serif" font-size="20" lengthAdjust="spacing" textLength="125" x="565.5" y="1510.5645">String street</text><rect fill="none" height="6" style="stroke:#C82930;stroke-width:1.0;" width="6" x="552.5" y="1525.4219"/><text fill="#000000" font-family="sans-serif" font-size="20" lengthAdjust="spacing" textLength="103" x="565.5" y="1533.8457">String city</text><rect fill="none" height="6" style="stroke:#C82930;stroke-width:1.0;" width="6" x="552.5" y="1548.7031"/><text fill="#000000" font-family="sans-serif" font-size="20" lengthAdjust="spacing" textLength="137" x="565.5" y="1557.127">String district</text><rect fill="none" height="6" style="stroke:#C82930;stroke-width:1.0;" width="6" x="552.5" y="1571.9844"/><text fill="#000000" font-family="sans-serif" font-size="20" lengthAdjust="spacing" textLength="117" x="565.5" y="1580.4082">String state</text><rect fill="none" height="6" style="stroke:#C82930;stroke-width:1.0;" width="6" x="552.5" y="1595.2656"/><text fill="#000000" font-family="sans-serif" font-size="20" lengthAdjust="spacing" textLength="111" x="565.5" y="1603.6895">int zipcode</text><line style="stroke:#4169E1;stroke-width:0.5;" x1="545.5" x2="707.5" y1="1612.4063" y2="1612.4063"/></g><!--class Announcement--><g id="elem_Announcement"><rect codeLine="51" fill="#FFDAB9" height="166.4063" id="Announcement" rx="2.5" ry="2.5" style="stroke:#4169E1;stroke-width:0.5;" width="857" x="7" y="591"/><ellipse cx="354" cy="608" fill="#ADD1B2" rx="12" ry="12" style="stroke:#181818;stroke-width:1.0;"/><path d="M357.0625,615.0781 Q356.375,615.4375 355.625,615.6094 Q354.875,615.7813 354.0469,615.7813 Q351.0938,615.7813 349.5313,613.8438 Q347.9844,611.8906 347.9844,608.2188 Q347.9844,604.5469 349.5313,602.6094 Q351.0938,600.6563 354.0469,600.6563 Q354.875,600.6563 355.625,600.8281 Q356.3906,601 357.0625,601.3594 L357.0625,604.5625 Q356.3125,603.875 355.6094,603.5625 Q354.9219,603.25 354.1719,603.25 Q352.5938,603.25 351.7813,604.5 Q350.9844,605.75 350.9844,608.2188 Q350.9844,610.6875 351.7813,611.9375 Q352.5938,613.1875 354.1719,613.1875 Q354.9219,613.1875 355.6094,612.875 Q356.3125,612.5625 357.0625,611.875 L357.0625,615.0781 Z " fill="#000000"/><text fill="#000000" font-family="sans-serif" font-size="20" lengthAdjust="spacing" textLength="154" x="376" y="614.9238">Announcement</text><line style="stroke:#4169E1;stroke-width:0.5;" x1="8" x2="863" y1="625" y2="625"/><rect fill="none" height="6" style="stroke:#C82930;stroke-width:1.0;" width="6" x="15" y="639.1406"/><text fill="#000000" font-family="sans-serif" font-size="20" lengthAdjust="spacing" textLength="175" x="28" y="647.5645">Property property</text><rect fill="none" height="6" style="stroke:#C82930;stroke-width:1.0;" width="6" x="15" y="662.4219"/><text fill="#000000" font-family="sans-serif" font-size="20" lengthAdjust="spacing" textLength="203" x="28" y="670.8457">Employee employee</text><rect fill="none" height="6" style="stroke:#C82930;stroke-width:1.0;" width="6" x="15" y="685.7031"/><text fill="#000000" font-family="sans-serif" font-size="20" lengthAdjust="spacing" textLength="94" x="28" y="694.127">User user</text><rect fill="none" height="6" style="stroke:#C82930;stroke-width:1.0;" width="6" x="15" y="708.9844"/><text fill="#000000" font-family="sans-serif" font-size="20" lengthAdjust="spacing" textLength="254" x="28" y="717.4082">ArrayList &lt;Order&gt; orders</text><line style="stroke:#4169E1;stroke-width:0.5;" x1="8" x2="863" y1="726.125" y2="726.125"/><ellipse cx="18" cy="743.2656" fill="#84BE84" rx="3" ry="3" style="stroke:#038048;stroke-width:1.0;"/><text fill="#000000" font-family="sans-serif" font-size="20" lengthAdjust="spacing" textLength="830" x="28" y="748.6895">checkIfRequestPriceIsLowerThanAdvertisementPrice(requestPrice, announcement)</text></g><!--class Orders--><g id="elem_Orders"><rect codeLine="58" fill="#FFDAB9" height="143.125" id="Orders" rx="2.5" ry="2.5" style="stroke:#4169E1;stroke-width:0.5;" width="623" x="212" y="818"/><ellipse cx="485.5" cy="835" fill="#ADD1B2" rx="12" ry="12" style="stroke:#181818;stroke-width:1.0;"/><path d="M488.5625,842.0781 Q487.875,842.4375 487.125,842.6094 Q486.375,842.7813 485.5469,842.7813 Q482.5938,842.7813 481.0313,840.8438 Q479.4844,838.8906 479.4844,835.2188 Q479.4844,831.5469 481.0313,829.6094 Q482.5938,827.6563 485.5469,827.6563 Q486.375,827.6563 487.125,827.8281 Q487.8906,828 488.5625,828.3594 L488.5625,831.5625 Q487.8125,830.875 487.1094,830.5625 Q486.4219,830.25 485.6719,830.25 Q484.0938,830.25 483.2813,831.5 Q482.4844,832.75 482.4844,835.2188 Q482.4844,837.6875 483.2813,838.9375 Q484.0938,840.1875 485.6719,840.1875 Q486.4219,840.1875 487.1094,839.875 Q487.8125,839.5625 488.5625,838.875 L488.5625,842.0781 Z " fill="#000000"/><text fill="#000000" font-family="sans-serif" font-size="20" lengthAdjust="spacing" textLength="67" x="507.5" y="841.9238">Orders</text><line style="stroke:#4169E1;stroke-width:0.5;" x1="213" x2="834" y1="852" y2="852"/><rect fill="none" height="6" style="stroke:#C82930;stroke-width:1.0;" width="6" x="220" y="866.1406"/><text fill="#000000" font-family="sans-serif" font-size="20" lengthAdjust="spacing" textLength="254" x="233" y="874.5645">ArrayList &lt;Order&gt; orders</text><line style="stroke:#4169E1;stroke-width:0.5;" x1="213" x2="834" y1="883.2813" y2="883.2813"/><ellipse cx="223" cy="900.4219" fill="#84BE84" rx="3" ry="3" style="stroke:#038048;stroke-width:1.0;"/><text fill="#000000" font-family="sans-serif" font-size="20" lengthAdjust="spacing" textLength="83" x="233" y="905.8457">Orders()</text><ellipse cx="223" cy="923.7031" fill="#84BE84" rx="3" ry="3" style="stroke:#038048;stroke-width:1.0;"/><text fill="#000000" font-family="sans-serif" font-size="20" lengthAdjust="spacing" textLength="596" x="233" y="929.127">checkIfRequestPriceIsUnique(requestPrice, announcement)</text><ellipse cx="223" cy="946.9844" fill="#84BE84" rx="3" ry="3" style="stroke:#038048;stroke-width:1.0;"/><text fill="#000000" font-family="sans-serif" font-size="20" lengthAdjust="spacing" textLength="373" x="233" y="952.4082">createOrder(requestPrice, user, date)</text></g><!--class Date--><g id="elem_Date"><rect codeLine="65" fill="#FFDAB9" height="119.8438" id="Date" rx="2.5" ry="2.5" style="stroke:#4169E1;stroke-width:0.5;" width="126" x="780.5" y="1238"/><ellipse cx="816.75" cy="1255" fill="#ADD1B2" rx="12" ry="12" style="stroke:#181818;stroke-width:1.0;"/><path d="M819.8125,1262.0781 Q819.125,1262.4375 818.375,1262.6094 Q817.625,1262.7813 816.7969,1262.7813 Q813.8438,1262.7813 812.2813,1260.8438 Q810.7344,1258.8906 810.7344,1255.2188 Q810.7344,1251.5469 812.2813,1249.6094 Q813.8438,1247.6563 816.7969,1247.6563 Q817.625,1247.6563 818.375,1247.8281 Q819.1406,1248 819.8125,1248.3594 L819.8125,1251.5625 Q819.0625,1250.875 818.3594,1250.5625 Q817.6719,1250.25 816.9219,1250.25 Q815.3438,1250.25 814.5313,1251.5 Q813.7344,1252.75 813.7344,1255.2188 Q813.7344,1257.6875 814.5313,1258.9375 Q815.3438,1260.1875 816.9219,1260.1875 Q817.6719,1260.1875 818.3594,1259.875 Q819.0625,1259.5625 819.8125,1258.875 L819.8125,1262.0781 Z " fill="#000000"/><text fill="#000000" font-family="sans-serif" font-size="20" lengthAdjust="spacing" textLength="47" x="836.25" y="1261.9238">Date</text><line style="stroke:#4169E1;stroke-width:0.5;" x1="781.5" x2="905.5" y1="1272" y2="1272"/><rect fill="none" height="6" style="stroke:#C82930;stroke-width:1.0;" width="6" x="788.5" y="1286.1406"/><text fill="#000000" font-family="sans-serif" font-size="20" lengthAdjust="spacing" textLength="69" x="801.5" y="1294.5645">int day</text><rect fill="none" height="6" style="stroke:#C82930;stroke-width:1.0;" width="6" x="788.5" y="1309.4219"/><text fill="#000000" font-family="sans-serif" font-size="20" lengthAdjust="spacing" textLength="99" x="801.5" y="1317.8457">int month</text><rect fill="none" height="6" style="stroke:#C82930;stroke-width:1.0;" width="6" x="788.5" y="1332.7031"/><text fill="#000000" font-family="sans-serif" font-size="20" lengthAdjust="spacing" textLength="76" x="801.5" y="1341.127">int year</text><line style="stroke:#4169E1;stroke-width:0.5;" x1="781.5" x2="905.5" y1="1349.8438" y2="1349.8438"/></g><!--class AnnouncementRepository--><g id="elem_AnnouncementRepository"><rect fill="#FFDAB9" height="50" id="AnnouncementRepository" rx="2.5" ry="2.5" style="stroke:#4169E1;stroke-width:0.5;" width="294" x="342.5" y="480"/><ellipse cx="358.5" cy="497" fill="#ADD1B2" rx="12" ry="12" style="stroke:#181818;stroke-width:1.0;"/><path d="M361.5625,504.0781 Q360.875,504.4375 360.125,504.6094 Q359.375,504.7813 358.5469,504.7813 Q355.5938,504.7813 354.0313,502.8438 Q352.4844,500.8906 352.4844,497.2188 Q352.4844,493.5469 354.0313,491.6094 Q355.5938,489.6563 358.5469,489.6563 Q359.375,489.6563 360.125,489.8281 Q360.8906,490 361.5625,490.3594 L361.5625,493.5625 Q360.8125,492.875 360.1094,492.5625 Q359.4219,492.25 358.6719,492.25 Q357.0938,492.25 356.2813,493.5 Q355.4844,494.75 355.4844,497.2188 Q355.4844,499.6875 356.2813,500.9375 Q357.0938,502.1875 358.6719,502.1875 Q359.4219,502.1875 360.1094,501.875 Q360.8125,501.5625 361.5625,500.875 L361.5625,504.0781 Z " fill="#000000"/><text fill="#000000" font-family="sans-serif" font-size="20" lengthAdjust="spacing" textLength="260" x="373.5" y="503.9238">AnnouncementRepository</text><line style="stroke:#4169E1;stroke-width:0.5;" x1="343.5" x2="635.5" y1="514" y2="514"/><line style="stroke:#4169E1;stroke-width:0.5;" x1="343.5" x2="635.5" y1="522" y2="522"/></g><!--link OrderRequestUI to OrderRequestController--><g id="link_OrderRequestUI_OrderRequestController"><path codeLine="71" d="M743.5,57.1 C743.5,72.38 743.5,92.93 743.5,112.69 " fill="none" id="OrderRequestUI-to-OrderRequestController" style="stroke:#4169E1;stroke-width:1.0;"/><polygon fill="#4169E1" points="743.5,117.69,747.5,108.69,743.5,112.69,739.5,108.69,743.5,117.69" style="stroke:#4169E1;stroke-width:1.0;"/></g><!--link OrderRequestController to Repositories--><g id="link_OrderRequestController_Repositories"><path codeLine="74" d="M686.7,238.11 C669.09,256.44 649.62,276.7 631.78,295.26 " fill="none" id="OrderRequestController-to-Repositories" style="stroke:#4169E1;stroke-width:1.0;"/><polygon fill="#4169E1" points="628.24,298.95,637.359,295.2291,631.7033,295.3436,631.5888,289.6879,628.24,298.95" style="stroke:#4169E1;stroke-width:1.0;"/></g><!--link OrderRequestController to Order--><g id="link_OrderRequestController_Order"><path codeLine="75" d="M807.24,238.3 C839.74,268.53 872.5,299 872.5,299 C872.5,299 916.5,358 916.5,358 C916.5,358 916.5,358 916.5,890.5 C916.5,890.5 852.5,961 852.5,961 C852.5,961 825.06,988.91 796.64,1017.81 " fill="none" id="OrderRequestController-to-Order" style="stroke:#4169E1;stroke-width:1.0;"/><polygon fill="#4169E1" points="792.81,1021.7,801.9735,1018.0902,796.3168,1018.136,796.271,1012.4793,792.81,1021.7" style="stroke:#4169E1;stroke-width:1.0;"/></g><!--link Repositories to Repositories--><g id="link_Repositories_Repositories"><path codeLine="78" d="M739.52,344.3 C760.61,346.89 774.5,351.79 774.5,359 C774.5,365.59 762.9,370.25 744.79,372.98 " fill="none" id="Repositories-to-Repositories" style="stroke:#4169E1;stroke-width:1.0;"/><polygon fill="#4169E1" points="739.52,373.7,748.9843,376.4253,744.4726,373.0129,747.885,368.5012,739.52,373.7" style="stroke:#4169E1;stroke-width:1.0;"/><text fill="#000000" font-family="sans-serif" font-size="20" lengthAdjust="spacing" textLength="85" x="780.5" y="366.0645">instance</text></g><!--link Repositories to AnnouncementRepository--><g id="link_Repositories_AnnouncementRepository"><path codeLine="79" d="M537.67,419.4 C526.62,438.81 514.86,459.47 505.72,475.52 " fill="none" id="Repositories-to-AnnouncementRepository" style="stroke:#4169E1;stroke-width:1.0;"/><polygon fill="#4169E1" points="503.21,479.92,511.1523,474.096,505.6938,475.5805,504.2092,470.122,503.21,479.92" style="stroke:#4169E1;stroke-width:1.0;"/></g><!--link AnnouncementRepository to Announcement--><g id="link_AnnouncementRepository_Announcement"><path codeLine="82" d="M481.65,530.28 C476.8,545.27 470.26,565.51 463.62,586.03 " fill="none" id="AnnouncementRepository-to-Announcement" style="stroke:#4169E1;stroke-width:1.0;stroke-dasharray:7.0,7.0;"/><polygon fill="#4169E1" points="462.03,590.97,468.6114,583.643,463.5725,586.2139,461.0017,581.175,462.03,590.97" style="stroke:#4169E1;stroke-width:1.0;"/></g><!--reverse link Order to Person--><g id="link_Order_Person"><path codeLine="83" d="M698.78,1153.78 C690.86,1169.47 682.35,1186.34 674.04,1202.8 " fill="none" id="Order-backto-Person" style="stroke:#4169E1;stroke-width:1.0;"/><polygon fill="#4169E1" points="704.7,1142.04,698.4267,1145.5962,699.2966,1152.7546,705.5698,1149.1985,704.7,1142.04" style="stroke:#4169E1;stroke-width:1.0;"/></g><!--reverse link Order to Date--><g id="link_Order_Date"><path codeLine="84" d="M770.59,1153.86 C784.44,1181.06 800.1,1211.78 813.34,1237.78 " fill="none" id="Order-backto-Date" style="stroke:#4169E1;stroke-width:1.0;"/><polygon fill="#4169E1" points="764.57,1142.04,763.7283,1149.2018,770.0155,1152.7333,770.8572,1145.5715,764.57,1142.04" style="stroke:#4169E1;stroke-width:1.0;"/></g><!--link Announcement to Orders--><g id="link_Announcement_Orders"><path codeLine="85" d="M469.4,757.24 C477.63,777.21 486.36,798.39 494.35,817.77 " fill="none" id="Announcement-Orders" style="stroke:#4169E1;stroke-width:1.0;"/><text fill="#000000" font-family="sans-serif" font-size="20" lengthAdjust="spacing" textLength="13" x="458.7547" y="783.9408">1</text><text fill="#000000" font-family="sans-serif" font-size="20" lengthAdjust="spacing" textLength="13" x="477.9521" y="805.409">1</text></g><!--link Orders to Order--><g id="link_Orders_Order"><path codeLine="87" d="M601.77,961.16 C623.94,981.18 647.82,1002.74 669.14,1021.99 " fill="none" id="Orders-Order" style="stroke:#4169E1;stroke-width:1.0;"/><text fill="#000000" font-family="sans-serif" font-size="20" lengthAdjust="spacing" textLength="13" x="595.6106" y="987.6581">1</text><text fill="#000000" font-family="sans-serif" font-size="20" lengthAdjust="spacing" textLength="10" x="651.0046" y="1009.3114">*</text></g><!--reverse link Person to Address--><g id="link_Person_Address"><path codeLine="89" d="M626.5,1406.36 C626.5,1422.35 626.5,1438.62 626.5,1453.98 " fill="none" id="Person-backto-Address" style="stroke:#4169E1;stroke-width:1.0;"/><polygon fill="#4169E1" points="626.5,1393.01,622.5,1399.01,626.5,1405.01,630.5,1399.01,626.5,1393.01" style="stroke:#4169E1;stroke-width:1.0;"/></g><!--SRC=[jLHDRzim3BtxLmYz95sJOjjn60gatGe4ABQYNN-08ZEn45doA7gTM-o_Z_g8OwTjJbiEZiNtI3tI9FrMsqQYh8rJMoX52MlP6hfsbkxr4uYFxuk9tt54xQnJ5ReQ164BnHvffDhA3TnJPq0WA99sOuO4NydIFMgx4Mjf_10nsW9r3OZ6cIuSXZVse4DonH1HHdg_84AzQWcMojaecFNETxzhpM8yXQ2RtbWSX13FXU3V9IUmGTVQyiePX-8MfAfks_KweWj4zvY0EzT9Ssau- -Zci0GyHFuK4mDh4kG4war5ejIX9jhPOlBW0OMs1BYM2YP5aLJSGUEy9eSQV58q7vgcfz5sjW5QMi_LLJ0z5Pz6RZrZOIqdeg06IpsXoo5ONBhnUr1-1pzRyFImV7uRlE9cG6SCO2AT-NPLQugKQGFedPqrg1NCIacGXQeAr7QvpY5k0xpq3rRpSOe3uqp8WTfZpZVk4V179UsY_0L8saUF21wDE4efbvO_Rv0jalfiArsxueQ9gMJJ5qv8XApwACbn5-QUsuzRsifwvy5VbeV1-uORzbjRhm0pGFBtwForbje82CzniAPo5aRKHLaYyDqo_VTQilr0Z2S4834sAatTs59g9cf5XyuXsNqgJxfHhjodFsmjqHSJ7HUIEYvTUkbJR8ph03ZBz9BjSGHQlyyFKNOth4TyZX_fGiIfyl-x6NQLEtv_eax_HLyBXS3rJPCpPeTop4GQe5vbQB_dmTSePJSuyJQcQd3kG69OFR6yozs6ASPpBkRpYpUcczVhuF0w9xgFbiuHNeGuweW_FBo8nXjDv_NsalZwMkFuwPxNON5-FlPCWiMx-Mu930oXtgCuukJ32TlvcJkcI6mVJG5vbv5YagFbpHB2vVaiYhy0]--></g></svg>