<?xml version="1.0" encoding="UTF-8" standalone="no"?><svg xmlns="http://www.w3.org/2000/svg" xmlns:xlink="http://www.w3.org/1999/xlink" contentStyleType="text/css" height="1684px" preserveAspectRatio="none" style="width:3926px;height:1684px;background:#FFFFFF;" version="1.1" viewBox="0 0 3926 1684" width="3926px" zoomAndPan="magnify"><defs/><g><rect fill="#FFFFFF" height="1480.3516" style="stroke:#181818;stroke-width:1.0;" width="10" x="47.5" y="98.2813"/><rect fill="#FFFFFF" height="407.0938" style="stroke:#181818;stroke-width:1.0;" width="10" x="693.5" y="127.5625"/><rect fill="#FFFFFF" height="72.0234" style="stroke:#181818;stroke-width:1.0;" width="10" x="693.5" y="571.9375"/><rect fill="#FFFFFF" height="860.1094" style="stroke:#181818;stroke-width:1.0;" width="10" x="693.5" y="681.2422"/><rect fill="#FFFFFF" height="260.9688" style="stroke:#181818;stroke-width:1.0;" width="10" x="1584.5" y="213.125"/><rect fill="#FFFFFF" height="87.5625" style="stroke:#181818;stroke-width:1.0;" width="10" x="1584.5" y="718.5234"/><rect fill="#FFFFFF" height="37.2813" style="stroke:#181818;stroke-width:1.0;" width="10" x="1584.5" y="885.1094"/><rect fill="#FFFFFF" height="37.2813" style="stroke:#181818;stroke-width:1.0;" width="10" x="1584.5" y="1016.4141"/><rect fill="#FFFFFF" height="295.25" style="stroke:#181818;stroke-width:1.0;" width="10" x="1584.5" y="1246.1016"/><rect fill="#FFFFFF" height="37.2813" style="stroke:#181818;stroke-width:1.0;" width="10" x="2470.5" y="250.4063"/><rect fill="#FFFFFF" height="37.2813" style="stroke:#181818;stroke-width:1.0;" width="10" x="2624.5" y="324.9688"/><rect fill="#FFFFFF" height="37.2813" style="stroke:#181818;stroke-width:1.0;" width="10" x="2846" y="399.5313"/><rect fill="#FFFFFF" height="220.6875" style="stroke:#181818;stroke-width:1.0;" width="10" x="3083" y="1283.3828"/><rect fill="#FFFFFF" height="146.125" style="stroke:#181818;stroke-width:1.0;" width="10" x="3460" y="1320.6641"/><rect fill="#FFFFFF" height="61.5625" style="stroke:#181818;stroke-width:1.0;" width="10" x="3876" y="1367.9453"/><rect fill="none" height="227.1484" style="stroke:#000000;stroke-width:1.5;" width="2465.5" x="10" y="586.9375"/><rect fill="none" height="294.1719" style="stroke:#000000;stroke-width:1.5;" width="1719" x="10" y="828.0859"/><line style="stroke:#181818;stroke-width:0.5;stroke-dasharray:5.0,5.0;" x1="52" x2="52" y1="88.2813" y2="1596.6328"/><line style="stroke:#181818;stroke-width:0.5;stroke-dasharray:5.0,5.0;" x1="698" x2="698" y1="88.2813" y2="1596.6328"/><line style="stroke:#181818;stroke-width:0.5;stroke-dasharray:5.0,5.0;" x1="1589" x2="1589" y1="169.7031" y2="1596.6328"/><line style="stroke:#181818;stroke-width:0.5;stroke-dasharray:5.0,5.0;" x1="2475.5" x2="2475.5" y1="88.2813" y2="1596.6328"/><line style="stroke:#181818;stroke-width:0.5;stroke-dasharray:5.0,5.0;" x1="2629.5" x2="2629.5" y1="88.2813" y2="1596.6328"/><line style="stroke:#181818;stroke-width:0.5;stroke-dasharray:5.0,5.0;" x1="2850.5" x2="2850.5" y1="88.2813" y2="1596.6328"/><line style="stroke:#181818;stroke-width:0.5;stroke-dasharray:5.0,5.0;" x1="3087.5" x2="3087.5" y1="88.2813" y2="1596.6328"/><line style="stroke:#181818;stroke-width:0.5;stroke-dasharray:5.0,5.0;" x1="3464.5" x2="3464.5" y1="88.2813" y2="1596.6328"/><line style="stroke:#181818;stroke-width:0.5;stroke-dasharray:5.0,5.0;" x1="3881" x2="3881" y1="1374.4453" y2="1596.6328"/><text fill="#000000" font-family="sans-serif" font-size="20" lengthAdjust="spacing" textLength="59" x="20" y="83.5645">Client</text><ellipse cx="52.5" cy="13.5" fill="#90EE90" rx="8" ry="8" style="stroke:#181818;stroke-width:0.5;"/><path d="M52.5,21.5 L52.5,48.5 M39.5,29.5 L65.5,29.5 M52.5,48.5 L39.5,63.5 M52.5,48.5 L65.5,63.5 " fill="none" style="stroke:#181818;stroke-width:0.5;"/><text fill="#000000" font-family="sans-serif" font-size="20" lengthAdjust="spacing" textLength="59" x="20" y="1614.1973">Client</text><ellipse cx="52.5" cy="1627.4141" fill="#90EE90" rx="8" ry="8" style="stroke:#181818;stroke-width:0.5;"/><path d="M52.5,1635.4141 L52.5,1662.4141 M39.5,1643.4141 L65.5,1643.4141 M52.5,1662.4141 L39.5,1677.4141 M52.5,1662.4141 L65.5,1677.4141 " fill="none" style="stroke:#181818;stroke-width:0.5;"/><rect fill="#E2E2F0" height="37.2813" rx="2.5" ry="2.5" style="stroke:#181818;stroke-width:0.5;" width="181" x="608" y="50"/><text fill="#000000" font-family="sans-serif" font-size="20" lengthAdjust="spacing" textLength="167" x="615" y="75.5645">:OrderRequestUI</text><rect fill="#E2E2F0" height="37.2813" rx="2.5" ry="2.5" style="stroke:#181818;stroke-width:0.5;" width="181" x="608" y="1595.6328"/><text fill="#000000" font-family="sans-serif" font-size="20" lengthAdjust="spacing" textLength="167" x="615" y="1621.1973">:OrderRequestUI</text><rect fill="#E2E2F0" height="37.2813" rx="2.5" ry="2.5" style="stroke:#181818;stroke-width:0.5;" width="259" x="1460" y="1595.6328"/><text fill="#000000" font-family="sans-serif" font-size="20" lengthAdjust="spacing" textLength="245" x="1467" y="1621.1973">:OrderRequestController</text><rect fill="#E2E2F0" height="37.2813" rx="2.5" ry="2.5" style="stroke:#181818;stroke-width:0.5;" width="144" x="2403.5" y="50"/><text fill="#000000" font-family="sans-serif" font-size="20" lengthAdjust="spacing" textLength="130" x="2410.5" y="75.5645">:Repositories</text><rect fill="#E2E2F0" height="37.2813" rx="2.5" ry="2.5" style="stroke:#181818;stroke-width:0.5;" width="144" x="2403.5" y="1595.6328"/><text fill="#000000" font-family="sans-serif" font-size="20" lengthAdjust="spacing" textLength="130" x="2410.5" y="1621.1973">:Repositories</text><rect fill="#E2E2F0" height="60.5625" rx="2.5" ry="2.5" style="stroke:#181818;stroke-width:0.5;" width="144" x="2557.5" y="26.7188"/><text fill="#000000" font-family="sans-serif" font-size="20" lengthAdjust="spacing" textLength="117" x="2571" y="52.2832">repositories</text><text fill="#000000" font-family="sans-serif" font-size="20" lengthAdjust="spacing" textLength="130" x="2564.5" y="75.5645">:Repositories</text><rect fill="#E2E2F0" height="60.5625" rx="2.5" ry="2.5" style="stroke:#181818;stroke-width:0.5;" width="144" x="2557.5" y="1595.6328"/><text fill="#000000" font-family="sans-serif" font-size="20" lengthAdjust="spacing" textLength="117" x="2571" y="1621.1973">repositories</text><text fill="#000000" font-family="sans-serif" font-size="20" lengthAdjust="spacing" textLength="130" x="2564.5" y="1644.4785">:Repositories</text><rect fill="#E2E2F0" height="60.5625" rx="2.5" ry="2.5" style="stroke:#181818;stroke-width:0.5;" width="279" x="2711.5" y="26.7188"/><text fill="#000000" font-family="sans-serif" font-size="20" lengthAdjust="spacing" textLength="265" x="2718.5" y="52.2832">announcementRepository:</text><text fill="#000000" font-family="sans-serif" font-size="20" lengthAdjust="spacing" textLength="260" x="2721" y="75.5645">AnnouncementRepository</text><rect fill="#E2E2F0" height="60.5625" rx="2.5" ry="2.5" style="stroke:#181818;stroke-width:0.5;" width="279" x="2711.5" y="1595.6328"/><text fill="#000000" font-family="sans-serif" font-size="20" lengthAdjust="spacing" textLength="265" x="2718.5" y="1621.1973">announcementRepository:</text><text fill="#000000" font-family="sans-serif" font-size="20" lengthAdjust="spacing" textLength="260" x="2721" y="1644.4785">AnnouncementRepository</text><rect fill="#E2E2F0" height="60.5625" rx="2.5" ry="2.5" style="stroke:#181818;stroke-width:0.5;" width="175" x="3000.5" y="26.7188"/><text fill="#000000" font-family="sans-serif" font-size="20" lengthAdjust="spacing" textLength="152" x="3012" y="52.2832">announcement</text><text fill="#000000" font-family="sans-serif" font-size="20" lengthAdjust="spacing" textLength="161" x="3007.5" y="75.5645">:Announcement</text><rect fill="#E2E2F0" height="60.5625" rx="2.5" ry="2.5" style="stroke:#181818;stroke-width:0.5;" width="175" x="3000.5" y="1595.6328"/><text fill="#000000" font-family="sans-serif" font-size="20" lengthAdjust="spacing" textLength="152" x="3012" y="1621.1973">announcement</text><text fill="#000000" font-family="sans-serif" font-size="20" lengthAdjust="spacing" textLength="161" x="3007.5" y="1644.4785">:Announcement</text><rect fill="#E2E2F0" height="60.5625" rx="2.5" ry="2.5" style="stroke:#181818;stroke-width:0.5;" width="147" x="3391.5" y="26.7188"/><text fill="#000000" font-family="sans-serif" font-size="20" lengthAdjust="spacing" textLength="92" x="3419" y="52.2832">OrderList</text><text fill="#000000" font-family="sans-serif" font-size="20" lengthAdjust="spacing" textLength="133" x="3398.5" y="75.5645">:List&lt;Order&gt;</text><rect fill="#E2E2F0" height="60.5625" rx="2.5" ry="2.5" style="stroke:#181818;stroke-width:0.5;" width="147" x="3391.5" y="1595.6328"/><text fill="#000000" font-family="sans-serif" font-size="20" lengthAdjust="spacing" textLength="92" x="3419" y="1621.1973">OrderList</text><text fill="#000000" font-family="sans-serif" font-size="20" lengthAdjust="spacing" textLength="133" x="3398.5" y="1644.4785">:List&lt;Order&gt;</text><rect fill="#E2E2F0" height="60.5625" rx="2.5" ry="2.5" style="stroke:#181818;stroke-width:0.5;" width="78" x="3842" y="1595.6328"/><text fill="#000000" font-family="sans-serif" font-size="20" lengthAdjust="spacing" textLength="53" x="3854.5" y="1621.1973">order</text><text fill="#000000" font-family="sans-serif" font-size="20" lengthAdjust="spacing" textLength="64" x="3849" y="1644.4785">:Order</text><rect fill="#FFFFFF" height="1480.3516" style="stroke:#181818;stroke-width:1.0;" width="10" x="47.5" y="98.2813"/><rect fill="#FFFFFF" height="407.0938" style="stroke:#181818;stroke-width:1.0;" width="10" x="693.5" y="127.5625"/><rect fill="#FFFFFF" height="72.0234" style="stroke:#181818;stroke-width:1.0;" width="10" x="693.5" y="571.9375"/><rect fill="#FFFFFF" height="860.1094" style="stroke:#181818;stroke-width:1.0;" width="10" x="693.5" y="681.2422"/><rect fill="#FFFFFF" height="260.9688" style="stroke:#181818;stroke-width:1.0;" width="10" x="1584.5" y="213.125"/><rect fill="#FFFFFF" height="87.5625" style="stroke:#181818;stroke-width:1.0;" width="10" x="1584.5" y="718.5234"/><rect fill="#FFFFFF" height="37.2813" style="stroke:#181818;stroke-width:1.0;" width="10" x="1584.5" y="885.1094"/><rect fill="#FFFFFF" height="37.2813" style="stroke:#181818;stroke-width:1.0;" width="10" x="1584.5" y="1016.4141"/><rect fill="#FFFFFF" height="295.25" style="stroke:#181818;stroke-width:1.0;" width="10" x="1584.5" y="1246.1016"/><rect fill="#FFFFFF" height="37.2813" style="stroke:#181818;stroke-width:1.0;" width="10" x="2470.5" y="250.4063"/><rect fill="#FFFFFF" height="37.2813" style="stroke:#181818;stroke-width:1.0;" width="10" x="2624.5" y="324.9688"/><rect fill="#FFFFFF" height="37.2813" style="stroke:#181818;stroke-width:1.0;" width="10" x="2846" y="399.5313"/><rect fill="#FFFFFF" height="220.6875" style="stroke:#181818;stroke-width:1.0;" width="10" x="3083" y="1283.3828"/><rect fill="#FFFFFF" height="146.125" style="stroke:#181818;stroke-width:1.0;" width="10" x="3460" y="1320.6641"/><rect fill="#FFFFFF" height="61.5625" style="stroke:#181818;stroke-width:1.0;" width="10" x="3876" y="1367.9453"/><polygon fill="#181818" points="681.5,123.5625,691.5,127.5625,681.5,131.5625,685.5,127.5625" style="stroke:#181818;stroke-width:1.0;"/><line style="stroke:#181818;stroke-width:1.0;" x1="57.5" x2="687.5" y1="127.5625" y2="127.5625"/><text fill="#000000" font-family="sans-serif" font-size="20" font-weight="bold" lengthAdjust="spacing" textLength="14" x="64.5" y="120.8457">1</text><text fill="#000000" font-family="sans-serif" font-size="20" lengthAdjust="spacing" textLength="277" x="82.5" y="120.8457">asks to purchase a property</text><polygon fill="#181818" points="1448,160.8438,1458,164.8438,1448,168.8438,1452,164.8438" style="stroke:#181818;stroke-width:1.0;"/><line style="stroke:#181818;stroke-width:1.0;" x1="703.5" x2="1454" y1="164.8438" y2="164.8438"/><text fill="#000000" font-family="sans-serif" font-size="20" font-weight="bold" lengthAdjust="spacing" textLength="14" x="710.5" y="158.127">2</text><text fill="#000000" font-family="sans-serif" font-size="20" lengthAdjust="spacing" textLength="63" x="728.5" y="158.127">create</text><rect fill="#E2E2F0" height="37.2813" rx="2.5" ry="2.5" style="stroke:#181818;stroke-width:0.5;" width="259" x="1460" y="135.5625"/><text fill="#000000" font-family="sans-serif" font-size="20" lengthAdjust="spacing" textLength="245" x="1467" y="161.127">:OrderRequestController</text><polygon fill="#181818" points="1572.5,209.125,1582.5,213.125,1572.5,217.125,1576.5,213.125" style="stroke:#181818;stroke-width:1.0;"/><line style="stroke:#181818;stroke-width:1.0;" x1="703.5" x2="1578.5" y1="213.125" y2="213.125"/><text fill="#000000" font-family="sans-serif" font-size="20" font-weight="bold" lengthAdjust="spacing" textLength="14" x="710.5" y="206.4082">3</text><text fill="#000000" font-family="sans-serif" font-size="20" lengthAdjust="spacing" textLength="309" x="728.5" y="206.4082">getAnnouncementRepository()</text><polygon fill="#181818" points="2458.5,246.4063,2468.5,250.4063,2458.5,254.4063,2462.5,250.4063" style="stroke:#181818;stroke-width:1.0;"/><line style="stroke:#181818;stroke-width:1.0;" x1="1594.5" x2="2464.5" y1="250.4063" y2="250.4063"/><text fill="#000000" font-family="sans-serif" font-size="20" font-weight="bold" lengthAdjust="spacing" textLength="14" x="1601.5" y="243.6895">4</text><text fill="#000000" font-family="sans-serif" font-size="20" lengthAdjust="spacing" textLength="134" x="1619.5" y="243.6895">getInstance()</text><polygon fill="#181818" points="1605.5,283.6875,1595.5,287.6875,1605.5,291.6875,1601.5,287.6875" style="stroke:#181818;stroke-width:1.0;"/><line style="stroke:#181818;stroke-width:1.0;stroke-dasharray:2.0,2.0;" x1="1599.5" x2="2474.5" y1="287.6875" y2="287.6875"/><text fill="#000000" font-family="sans-serif" font-size="20" font-weight="bold" lengthAdjust="spacing" textLength="14" x="1611.5" y="280.9707">5</text><text fill="#000000" font-family="sans-serif" font-size="20" lengthAdjust="spacing" textLength="117" x="1629.5" y="280.9707">repositories</text><polygon fill="#181818" points="2612.5,320.9688,2622.5,324.9688,2612.5,328.9688,2616.5,324.9688" style="stroke:#181818;stroke-width:1.0;"/><line style="stroke:#181818;stroke-width:1.0;" x1="1594.5" x2="2618.5" y1="324.9688" y2="324.9688"/><text fill="#000000" font-family="sans-serif" font-size="20" font-weight="bold" lengthAdjust="spacing" textLength="14" x="1601.5" y="318.252">6</text><text fill="#000000" font-family="sans-serif" font-size="20" lengthAdjust="spacing" textLength="309" x="1619.5" y="318.252">getAnnouncementRepository()</text><polygon fill="#181818" points="1605.5,358.25,1595.5,362.25,1605.5,366.25,1601.5,362.25" style="stroke:#181818;stroke-width:1.0;"/><line style="stroke:#181818;stroke-width:1.0;stroke-dasharray:2.0,2.0;" x1="1599.5" x2="2628.5" y1="362.25" y2="362.25"/><text fill="#000000" font-family="sans-serif" font-size="20" font-weight="bold" lengthAdjust="spacing" textLength="14" x="1611.5" y="355.5332">7</text><text fill="#000000" font-family="sans-serif" font-size="20" lengthAdjust="spacing" textLength="260" x="1629.5" y="355.5332">AnnouncementRepository</text><polygon fill="#181818" points="2834,395.5313,2844,399.5313,2834,403.5313,2838,399.5313" style="stroke:#181818;stroke-width:1.0;"/><line style="stroke:#181818;stroke-width:1.0;" x1="1594.5" x2="2840" y1="399.5313" y2="399.5313"/><text fill="#000000" font-family="sans-serif" font-size="20" font-weight="bold" lengthAdjust="spacing" textLength="14" x="1601.5" y="392.8145">8</text><text fill="#000000" font-family="sans-serif" font-size="20" lengthAdjust="spacing" textLength="213" x="1619.5" y="392.8145">getAnnouncements()</text><polygon fill="#181818" points="1605.5,432.8125,1595.5,436.8125,1605.5,440.8125,1601.5,436.8125" style="stroke:#181818;stroke-width:1.0;"/><line style="stroke:#181818;stroke-width:1.0;stroke-dasharray:2.0,2.0;" x1="1599.5" x2="2850" y1="436.8125" y2="436.8125"/><text fill="#000000" font-family="sans-serif" font-size="20" font-weight="bold" lengthAdjust="spacing" textLength="14" x="1611.5" y="430.0957">9</text><text fill="#000000" font-family="sans-serif" font-size="20" lengthAdjust="spacing" textLength="189" x="1629.5" y="430.0957">AnnouncementList</text><polygon fill="#181818" points="714.5,470.0938,704.5,474.0938,714.5,478.0938,710.5,474.0938" style="stroke:#181818;stroke-width:1.0;"/><line style="stroke:#181818;stroke-width:1.0;stroke-dasharray:2.0,2.0;" x1="708.5" x2="1588.5" y1="474.0938" y2="474.0938"/><text fill="#000000" font-family="sans-serif" font-size="20" font-weight="bold" lengthAdjust="spacing" textLength="28" x="720.5" y="467.377">10</text><text fill="#000000" font-family="sans-serif" font-size="20" lengthAdjust="spacing" textLength="189" x="752.5" y="467.377">AnnouncementList</text><polygon fill="#181818" points="68.5,530.6563,58.5,534.6563,68.5,538.6563,64.5,534.6563" style="stroke:#181818;stroke-width:1.0;"/><line style="stroke:#181818;stroke-width:1.0;stroke-dasharray:2.0,2.0;" x1="62.5" x2="697.5" y1="534.6563" y2="534.6563"/><text fill="#000000" font-family="sans-serif" font-size="20" font-weight="bold" lengthAdjust="spacing" textLength="28" x="74.5" y="516.2988">11</text><text fill="#000000" font-family="sans-serif" font-size="20" lengthAdjust="spacing" textLength="256" x="106.5" y="504.6582">shows announcement list</text><text fill="#000000" font-family="sans-serif" font-size="20" lengthAdjust="spacing" textLength="222" x="112.5" y="527.9395">and asks to sleect one</text><polygon fill="#181818" points="681.5,567.9375,691.5,571.9375,681.5,575.9375,685.5,571.9375" style="stroke:#181818;stroke-width:1.0;"/><line style="stroke:#181818;stroke-width:1.0;" x1="57.5" x2="687.5" y1="571.9375" y2="571.9375"/><text fill="#000000" font-family="sans-serif" font-size="20" font-weight="bold" lengthAdjust="spacing" textLength="28" x="64.5" y="565.2207">12</text><text fill="#000000" font-family="sans-serif" font-size="20" lengthAdjust="spacing" textLength="245" x="96.5" y="565.2207">selects a announcement</text><path d="M10,586.9375 L104,586.9375 L104,602.2188 L94,612.2188 L10,612.2188 L10,586.9375 " fill="#EEEEEE" style="stroke:#000000;stroke-width:1.5;"/><rect fill="none" height="227.1484" style="stroke:#000000;stroke-width:1.5;" width="2465.5" x="10" y="586.9375"/><text fill="#008000" font-family="sans-serif" font-size="20" font-weight="bold" lengthAdjust="spacing" textLength="49" x="25" y="606.502">loop</text><text fill="#0000FF" font-family="sans-serif" font-size="15" font-weight="bold" lengthAdjust="spacing" textLength="364" x="119" y="602.8608">[While requestPrice &lt;= advertisementPrice]</text><polygon fill="#181818" points="68.5,639.9609,58.5,643.9609,68.5,647.9609,64.5,643.9609" style="stroke:#181818;stroke-width:1.0;"/><line style="stroke:#181818;stroke-width:1.0;stroke-dasharray:2.0,2.0;" x1="62.5" x2="697.5" y1="643.9609" y2="643.9609"/><text fill="#000000" font-family="sans-serif" font-size="20" font-weight="bold" lengthAdjust="spacing" textLength="28" x="74.5" y="637.2441">13</text><text fill="#000000" font-family="sans-serif" font-size="20" lengthAdjust="spacing" textLength="181" x="106.5" y="637.2441">requests the price</text><polygon fill="#181818" points="681.5,677.2422,691.5,681.2422,681.5,685.2422,685.5,681.2422" style="stroke:#181818;stroke-width:1.0;"/><line style="stroke:#181818;stroke-width:1.0;" x1="57.5" x2="687.5" y1="681.2422" y2="681.2422"/><text fill="#000000" font-family="sans-serif" font-size="20" font-weight="bold" lengthAdjust="spacing" textLength="28" x="64.5" y="674.5254">14</text><text fill="#000000" font-family="sans-serif" font-size="20" lengthAdjust="spacing" textLength="212" x="96.5" y="674.5254">types requested data</text><polygon fill="#181818" points="1572.5,714.5234,1582.5,718.5234,1572.5,722.5234,1576.5,718.5234" style="stroke:#181818;stroke-width:1.0;"/><line style="stroke:#181818;stroke-width:1.0;" x1="703.5" x2="1578.5" y1="718.5234" y2="718.5234"/><text fill="#000000" font-family="sans-serif" font-size="20" font-weight="bold" lengthAdjust="spacing" textLength="28" x="710.5" y="711.8066">15</text><text fill="#000000" font-family="sans-serif" font-size="20" lengthAdjust="spacing" textLength="830" x="742.5" y="711.8066">checkIfRequestPriceIsLowerThanAdvertisementPrice(requestPrice, announcement)</text><line style="stroke:#181818;stroke-width:1.0;" x1="1594.5" x2="1636.5" y1="755.8047" y2="755.8047"/><line style="stroke:#181818;stroke-width:1.0;" x1="1636.5" x2="1636.5" y1="755.8047" y2="768.8047"/><line style="stroke:#181818;stroke-width:1.0;" x1="1595.5" x2="1636.5" y1="768.8047" y2="768.8047"/><polygon fill="#181818" points="1605.5,764.8047,1595.5,768.8047,1605.5,772.8047,1601.5,768.8047" style="stroke:#181818;stroke-width:1.0;"/><text fill="#000000" font-family="sans-serif" font-size="20" font-weight="bold" lengthAdjust="spacing" textLength="28" x="1601.5" y="749.0879">16</text><text fill="#000000" font-family="sans-serif" font-size="20" lengthAdjust="spacing" textLength="830" x="1633.5" y="749.0879">checkIfRequestPriceIsLowerThanAdvertisementPrice(requestPrice, announcement)</text><polygon fill="#181818" points="714.5,802.0859,704.5,806.0859,714.5,810.0859,710.5,806.0859" style="stroke:#181818;stroke-width:1.0;"/><line style="stroke:#181818;stroke-width:1.0;stroke-dasharray:2.0,2.0;" x1="708.5" x2="1588.5" y1="806.0859" y2="806.0859"/><text fill="#000000" font-family="sans-serif" font-size="20" font-weight="bold" lengthAdjust="spacing" textLength="28" x="720.5" y="799.3691">17</text><text fill="#000000" font-family="sans-serif" font-size="20" lengthAdjust="spacing" textLength="72" x="752.5" y="799.3691">answer</text><path d="M10,828.0859 L86,828.0859 L86,843.3672 L76,853.3672 L10,853.3672 L10,828.0859 " fill="#EEEEEE" style="stroke:#000000;stroke-width:1.5;"/><rect fill="none" height="294.1719" style="stroke:#000000;stroke-width:1.5;" width="1719" x="10" y="828.0859"/><text fill="#008000" font-family="sans-serif" font-size="20" font-weight="bold" lengthAdjust="spacing" textLength="31" x="25" y="847.6504">alt</text><text fill="#0000FF" font-family="sans-serif" font-size="15" font-weight="bold" lengthAdjust="spacing" textLength="219" x="101" y="844.0093">[requested price is unique]</text><polygon fill="#181818" points="1572.5,881.1094,1582.5,885.1094,1572.5,889.1094,1576.5,885.1094" style="stroke:#181818;stroke-width:1.0;"/><line style="stroke:#181818;stroke-width:1.0;" x1="703.5" x2="1578.5" y1="885.1094" y2="885.1094"/><text fill="#000000" font-family="sans-serif" font-size="20" font-weight="bold" lengthAdjust="spacing" textLength="28" x="710.5" y="878.3926">18</text><text fill="#000000" font-family="sans-serif" font-size="20" lengthAdjust="spacing" textLength="432" x="742.5" y="878.3926">checkIfRequestPriceIsUnique(requestPrice)</text><polygon fill="#181818" points="714.5,918.3906,704.5,922.3906,714.5,926.3906,710.5,922.3906" style="stroke:#181818;stroke-width:1.0;"/><line style="stroke:#181818;stroke-width:1.0;stroke-dasharray:2.0,2.0;" x1="708.5" x2="1588.5" y1="922.3906" y2="922.3906"/><text fill="#000000" font-family="sans-serif" font-size="20" font-weight="bold" lengthAdjust="spacing" textLength="28" x="720.5" y="915.6738">19</text><text fill="#000000" font-family="sans-serif" font-size="20" lengthAdjust="spacing" textLength="88" x="752.5" y="915.6738">isUnique</text><polygon fill="#181818" points="68.5,955.6719,58.5,959.6719,68.5,963.6719,64.5,959.6719" style="stroke:#181818;stroke-width:1.0;"/><line style="stroke:#181818;stroke-width:1.0;stroke-dasharray:2.0,2.0;" x1="62.5" x2="692.5" y1="959.6719" y2="959.6719"/><text fill="#000000" font-family="sans-serif" font-size="20" font-weight="bold" lengthAdjust="spacing" textLength="28" x="74.5" y="952.9551">20</text><text fill="#000000" font-family="sans-serif" font-size="20" lengthAdjust="spacing" textLength="346" x="106.5" y="952.9551">shows all data and asks to confirm</text><line style="stroke:#000000;stroke-width:1.0;stroke-dasharray:2.0,2.0;" x1="10" x2="1729" y1="968.6719" y2="968.6719"/><text fill="#0000FF" font-family="sans-serif" font-size="15" font-weight="bold" lengthAdjust="spacing" textLength="251" x="15" y="982.5952">[requested price is not unique]</text><polygon fill="#181818" points="1572.5,1012.4141,1582.5,1016.4141,1572.5,1020.4141,1576.5,1016.4141" style="stroke:#181818;stroke-width:1.0;"/><line style="stroke:#181818;stroke-width:1.0;" x1="703.5" x2="1578.5" y1="1016.4141" y2="1016.4141"/><text fill="#000000" font-family="sans-serif" font-size="20" font-weight="bold" lengthAdjust="spacing" textLength="28" x="710.5" y="1009.6973">21</text><text fill="#000000" font-family="sans-serif" font-size="20" lengthAdjust="spacing" textLength="432" x="742.5" y="1009.6973">checkIfRequestPriceIsUnique(requestPrice)</text><polygon fill="#181818" points="714.5,1049.6953,704.5,1053.6953,714.5,1057.6953,710.5,1053.6953" style="stroke:#181818;stroke-width:1.0;"/><line style="stroke:#181818;stroke-width:1.0;stroke-dasharray:2.0,2.0;" x1="708.5" x2="1588.5" y1="1053.6953" y2="1053.6953"/><text fill="#000000" font-family="sans-serif" font-size="20" font-weight="bold" lengthAdjust="spacing" textLength="28" x="720.5" y="1046.9785">22</text><text fill="#000000" font-family="sans-serif" font-size="20" lengthAdjust="spacing" textLength="105" x="752.5" y="1046.9785">notUnique</text><polygon fill="#181818" points="68.5,1110.2578,58.5,1114.2578,68.5,1118.2578,64.5,1114.2578" style="stroke:#181818;stroke-width:1.0;"/><line style="stroke:#181818;stroke-width:1.0;stroke-dasharray:2.0,2.0;" x1="62.5" x2="692.5" y1="1114.2578" y2="1114.2578"/><text fill="#000000" font-family="sans-serif" font-size="20" font-weight="bold" lengthAdjust="spacing" textLength="28" x="74.5" y="1095.9004">23</text><text fill="#000000" font-family="sans-serif" font-size="20" lengthAdjust="spacing" textLength="289" x="106.5" y="1084.2598">displays that there is already</text><text fill="#000000" font-family="sans-serif" font-size="20" lengthAdjust="spacing" textLength="574" x="112.5" y="1107.541">an order request with the same price and asks to confirm</text><polygon fill="#181818" points="681.5,1154.5391,691.5,1158.5391,681.5,1162.5391,685.5,1158.5391" style="stroke:#181818;stroke-width:1.0;"/><line style="stroke:#181818;stroke-width:1.0;" x1="57.5" x2="687.5" y1="1158.5391" y2="1158.5391"/><text fill="#000000" font-family="sans-serif" font-size="20" font-weight="bold" lengthAdjust="spacing" textLength="28" x="64.5" y="1151.8223">24</text><text fill="#000000" font-family="sans-serif" font-size="20" lengthAdjust="spacing" textLength="177" x="96.5" y="1151.8223">confirms the data</text><line style="stroke:#181818;stroke-width:1.0;" x1="703.5" x2="745.5" y1="1195.8203" y2="1195.8203"/><line style="stroke:#181818;stroke-width:1.0;" x1="745.5" x2="745.5" y1="1195.8203" y2="1208.8203"/><line style="stroke:#181818;stroke-width:1.0;" x1="704.5" x2="745.5" y1="1208.8203" y2="1208.8203"/><polygon fill="#181818" points="714.5,1204.8203,704.5,1208.8203,714.5,1212.8203,710.5,1208.8203" style="stroke:#181818;stroke-width:1.0;"/><text fill="#000000" font-family="sans-serif" font-size="20" font-weight="bold" lengthAdjust="spacing" textLength="28" x="710.5" y="1189.1035">25</text><text fill="#000000" font-family="sans-serif" font-size="20" lengthAdjust="spacing" textLength="96" x="742.5" y="1189.1035">getDate()</text><polygon fill="#181818" points="1572.5,1242.1016,1582.5,1246.1016,1572.5,1250.1016,1576.5,1246.1016" style="stroke:#181818;stroke-width:1.0;"/><line style="stroke:#181818;stroke-width:1.0;" x1="703.5" x2="1578.5" y1="1246.1016" y2="1246.1016"/><text fill="#000000" font-family="sans-serif" font-size="20" font-weight="bold" lengthAdjust="spacing" textLength="28" x="710.5" y="1239.3848">26</text><text fill="#000000" font-family="sans-serif" font-size="20" lengthAdjust="spacing" textLength="373" x="742.5" y="1239.3848">createOrder(requestPrice, user, date)</text><polygon fill="#181818" points="3071,1279.3828,3081,1283.3828,3071,1287.3828,3075,1283.3828" style="stroke:#181818;stroke-width:1.0;"/><line style="stroke:#181818;stroke-width:1.0;" x1="1594.5" x2="3077" y1="1283.3828" y2="1283.3828"/><text fill="#000000" font-family="sans-serif" font-size="20" font-weight="bold" lengthAdjust="spacing" textLength="28" x="1601.5" y="1276.666">27</text><text fill="#000000" font-family="sans-serif" font-size="20" lengthAdjust="spacing" textLength="316" x="1633.5" y="1276.666">createOrder(requestPrice, user)</text><polygon fill="#181818" points="3448,1316.6641,3458,1320.6641,3448,1324.6641,3452,1320.6641" style="stroke:#181818;stroke-width:1.0;"/><line style="stroke:#181818;stroke-width:1.0;" x1="3093" x2="3454" y1="1320.6641" y2="1320.6641"/><text fill="#000000" font-family="sans-serif" font-size="20" font-weight="bold" lengthAdjust="spacing" textLength="28" x="3100" y="1313.9473">28</text><text fill="#000000" font-family="sans-serif" font-size="20" lengthAdjust="spacing" textLength="316" x="3132" y="1313.9473">createOrder(requestPrice, user)</text><polygon fill="#181818" points="3830,1353.9453,3840,1357.9453,3830,1361.9453,3834,1357.9453" style="stroke:#181818;stroke-width:1.0;"/><line style="stroke:#181818;stroke-width:1.0;" x1="3470" x2="3836" y1="1357.9453" y2="1357.9453"/><text fill="#000000" font-family="sans-serif" font-size="20" font-weight="bold" lengthAdjust="spacing" textLength="28" x="3477" y="1351.2285">29</text><text fill="#000000" font-family="sans-serif" font-size="20" lengthAdjust="spacing" textLength="316" x="3509" y="1351.2285">createOrder(requestPrice, user)</text><rect fill="#E2E2F0" height="60.5625" rx="2.5" ry="2.5" style="stroke:#181818;stroke-width:0.5;" width="78" x="3842" y="1328.6641"/><text fill="#000000" font-family="sans-serif" font-size="20" lengthAdjust="spacing" textLength="53" x="3854.5" y="1354.2285">order</text><text fill="#000000" font-family="sans-serif" font-size="20" lengthAdjust="spacing" textLength="64" x="3849" y="1377.5098">:Order</text><polygon fill="#181818" points="3481,1425.5078,3471,1429.5078,3481,1433.5078,3477,1429.5078" style="stroke:#181818;stroke-width:1.0;"/><line style="stroke:#181818;stroke-width:1.0;stroke-dasharray:2.0,2.0;" x1="3475" x2="3880" y1="1429.5078" y2="1429.5078"/><text fill="#000000" font-family="sans-serif" font-size="20" font-weight="bold" lengthAdjust="spacing" textLength="28" x="3487" y="1422.791">30</text><text fill="#000000" font-family="sans-serif" font-size="20" lengthAdjust="spacing" textLength="53" x="3519" y="1422.791">order</text><polygon fill="#181818" points="3104,1462.7891,3094,1466.7891,3104,1470.7891,3100,1466.7891" style="stroke:#181818;stroke-width:1.0;"/><line style="stroke:#181818;stroke-width:1.0;stroke-dasharray:2.0,2.0;" x1="3098" x2="3464" y1="1466.7891" y2="1466.7891"/><text fill="#000000" font-family="sans-serif" font-size="20" font-weight="bold" lengthAdjust="spacing" textLength="28" x="3110" y="1460.0723">31</text><text fill="#000000" font-family="sans-serif" font-size="20" lengthAdjust="spacing" textLength="53" x="3142" y="1460.0723">order</text><polygon fill="#181818" points="1605.5,1500.0703,1595.5,1504.0703,1605.5,1508.0703,1601.5,1504.0703" style="stroke:#181818;stroke-width:1.0;"/><line style="stroke:#181818;stroke-width:1.0;stroke-dasharray:2.0,2.0;" x1="1599.5" x2="3087" y1="1504.0703" y2="1504.0703"/><text fill="#000000" font-family="sans-serif" font-size="20" font-weight="bold" lengthAdjust="spacing" textLength="28" x="1611.5" y="1497.3535">32</text><text fill="#000000" font-family="sans-serif" font-size="20" lengthAdjust="spacing" textLength="53" x="1643.5" y="1497.3535">order</text><polygon fill="#181818" points="709.5,1537.3516,699.5,1541.3516,709.5,1545.3516,705.5,1541.3516" style="stroke:#181818;stroke-width:1.0;"/><line style="stroke:#181818;stroke-width:1.0;stroke-dasharray:2.0,2.0;" x1="703.5" x2="1588.5" y1="1541.3516" y2="1541.3516"/><text fill="#000000" font-family="sans-serif" font-size="20" font-weight="bold" lengthAdjust="spacing" textLength="28" x="715.5" y="1534.6348">33</text><text fill="#000000" font-family="sans-serif" font-size="20" lengthAdjust="spacing" textLength="53" x="747.5" y="1534.6348">order</text><polygon fill="#181818" points="63.5,1574.6328,53.5,1578.6328,63.5,1582.6328,59.5,1578.6328" style="stroke:#181818;stroke-width:1.0;"/><line style="stroke:#181818;stroke-width:1.0;stroke-dasharray:2.0,2.0;" x1="57.5" x2="697.5" y1="1578.6328" y2="1578.6328"/><text fill="#000000" font-family="sans-serif" font-size="20" font-weight="bold" lengthAdjust="spacing" textLength="28" x="69.5" y="1571.916">34</text><text fill="#000000" font-family="sans-serif" font-size="20" lengthAdjust="spacing" textLength="250" x="101.5" y="1571.916">informs operation sucess</text><!--SRC=[jLTTJzim57tthx3OGm61j4tQIyMGAgQnIaL3BMWll9Zajh7gsfdjKBfVlsidQUB4AUiayjB8kUVudljbrwovp9bc6w6IDQGqXIKhXFskf5tmFq0_VoIcDg4R9LMIQRK1kcJ2GEjJpf8rMy72xWHG3ObbSYNQ1YPZgTfokQgWPCI4fMPd1Qwrx1Rmkm2PmArMHVu3M0hQENEZXD9qfG7aa75ZzYmAE6JbbNtwGaPtF4tHNmklw0gwxbmPjNokW7TW38gR2BwID05fGRzfbd8N1QuaOOLLijWy8uYCCfvYy9Iop-gLiCIYjoStWYFd2MM6bg_qmuolCdlhrU8UbYSyPxX-ClwfCI1pjw6nZrEFUPmUiBb1kLe90RhaVvZFEjPpo9NXw0W7usts2xi5Tqb4xqE8RY6UP9_WVZPv215CIbLWX3Oehg4VFyb9z8DdYNyQvaLFsf0UHuZqCPfnus3kvyelN7kKVpMXlN9hQEk_DLQ4k2Jo5sQXoXqXj7ggN5vUOuRe625hGwsYUQ6JZ1cWZEPQvQ3jhi7ioJ2f-qNt80KIkVITdoDPeW6jXapGO0Ks7i3Jim3KUEyg8_ZaDJWsP8tKHBd9L1fizGGwj05rhA1wrkw9xN9PQHhJTjdru2aSjrqjpDNg4U4ATFawZmhnh8td0wLyG4ESkdOwpjUNOGvvF-1KLC_0XfTDlRKjN3yT4lUlEvTow_uvk4EBlL_8hZ6SfsK_Zl4eKbj3sxE32Zy9S2tTzwaHW0ESAWaaialTdvqcDo0GXEG1FOcsjb0gfxyoxWzCFwplDK-0NdsbB7t1kS2DH_jLCYIcWgBB6U10QPj6t8suR7Svc9h6tG2OPOVdKJ1eaWoIzNGvRocOcfdQWdx8c9pqX9osjLu4OJeZyQdKBV_tt3ciEIODqf6XAglN_GjWxPI9ndjD4qwV4ieDBIJ7jIE2-EW1WTT34HfmdrSSRmeOw10XV3K4RP4ekUHwKqh6YrnCgbJsNUK6SU_Bnkt_KtVAJIxOpZKJiwwZjDV311wtwSuF2Efl0hLgkkKsywrdsARgl-5moJGwD2gRieNtxLT6p1lWMF-6lbVJF0oblmZukqYdlWi3-iBHLM7iHo1sdBn9sI6RTCTSG8RavMNgIDRg1kRMojSzK-lsSmnNG-KJNf6EosIIJebq4CP3Ea4Q1ff869fyHN6z88Rr7CNWG8uUV2HMrrmkbIimTzraxay9DKM2_rO8QUFB- -jV]--></g></svg>