<?xml version="1.0" encoding="UTF-8" standalone="no"?><svg xmlns="http://www.w3.org/2000/svg" xmlns:xlink="http://www.w3.org/1999/xlink" contentStyleType="text/css" height="1463px" preserveAspectRatio="none" style="width:2520px;height:1463px;background:#FFFFFF;" version="1.1" viewBox="0 0 2520 1463" width="2520px" zoomAndPan="magnify"><defs/><g><!--cluster ExternalLibraries.AuthLib-1.0--><g id="cluster_ExternalLibraries.AuthLib-1.0"><rect fill="none" height="920.5" rx="2.5" ry="2.5" style="stroke:#000000;stroke-width:1.5;" width="357" x="7" y="290"/><text fill="#000000" font-family="sans-serif" font-size="20" font-weight="bold" lengthAdjust="spacing" textLength="336" x="17.5" y="310.5645">ExternalLibraries.AuthLib-1.0</text></g><!--class UserStore--><g id="elem_UserStore"><rect codeLine="130" fill="#FFDAB9" height="50" id="UserStore" rx="2.5" ry="2.5" style="stroke:#4169E1;stroke-width:0.5;" width="132" x="62" y="582.5"/><ellipse cx="78" cy="599.5" fill="#ADD1B2" rx="12" ry="12" style="stroke:#181818;stroke-width:1.0;"/><path d="M81.0625,606.5781 Q80.375,606.9375 79.625,607.1094 Q78.875,607.2813 78.0469,607.2813 Q75.0938,607.2813 73.5313,605.3438 Q71.9844,603.3906 71.9844,599.7188 Q71.9844,596.0469 73.5313,594.1094 Q75.0938,592.1563 78.0469,592.1563 Q78.875,592.1563 79.625,592.3281 Q80.3906,592.5 81.0625,592.8594 L81.0625,596.0625 Q80.3125,595.375 79.6094,595.0625 Q78.9219,594.75 78.1719,594.75 Q76.5938,594.75 75.7813,596 Q74.9844,597.25 74.9844,599.7188 Q74.9844,602.1875 75.7813,603.4375 Q76.5938,604.6875 78.1719,604.6875 Q78.9219,604.6875 79.6094,604.375 Q80.3125,604.0625 81.0625,603.375 L81.0625,606.5781 Z " fill="#000000"/><text fill="#000000" font-family="sans-serif" font-size="20" lengthAdjust="spacing" textLength="98" x="93" y="606.4238">UserStore</text><line style="stroke:#4169E1;stroke-width:0.5;" x1="63" x2="193" y1="616.5" y2="616.5"/><line style="stroke:#4169E1;stroke-width:0.5;" x1="63" x2="193" y1="624.5" y2="624.5"/></g><!--class Store--><g id="elem_Store"><rect codeLine="133" fill="#FFDAB9" height="143.125" id="Store" rx="2.5" ry="2.5" style="stroke:#4169E1;stroke-width:0.5;" width="210" x="23" y="332"/><ellipse cx="97" cy="349" fill="#ADD1B2" rx="12" ry="12" style="stroke:#181818;stroke-width:1.0;"/><path d="M100.0625,356.0781 Q99.375,356.4375 98.625,356.6094 Q97.875,356.7813 97.0469,356.7813 Q94.0938,356.7813 92.5313,354.8438 Q90.9844,352.8906 90.9844,349.2188 Q90.9844,345.5469 92.5313,343.6094 Q94.0938,341.6563 97.0469,341.6563 Q97.875,341.6563 98.625,341.8281 Q99.3906,342 100.0625,342.3594 L100.0625,345.5625 Q99.3125,344.875 98.6094,344.5625 Q97.9219,344.25 97.1719,344.25 Q95.5938,344.25 94.7813,345.5 Q93.9844,346.75 93.9844,349.2188 Q93.9844,351.6875 94.7813,352.9375 Q95.5938,354.1875 97.1719,354.1875 Q97.9219,354.1875 98.6094,353.875 Q99.3125,353.5625 100.0625,352.875 L100.0625,356.0781 Z " fill="#000000"/><text fill="#000000" font-family="sans-serif" font-size="20" lengthAdjust="spacing" textLength="53" x="119" y="355.9238">Store</text><line style="stroke:#4169E1;stroke-width:0.5;" x1="24" x2="232" y1="366" y2="366"/><line style="stroke:#4169E1;stroke-width:0.5;" x1="24" x2="232" y1="374" y2="374"/><text fill="#000000" font-family="sans-serif" font-size="20" lengthAdjust="spacing" textLength="86" x="29" y="396.5645">-Stores()</text><text fill="#000000" font-family="sans-serif" font-size="20" lengthAdjust="spacing" textLength="141" x="29" y="419.8457">-getInstance()</text><text fill="#000000" font-family="sans-serif" font-size="20" lengthAdjust="spacing" textLength="154" x="29" y="443.127">-getUserStore()</text><text fill="#000000" font-family="sans-serif" font-size="20" lengthAdjust="spacing" textLength="198" x="29" y="466.4082">-getUserRoelStore()</text></g><!--class User--><g id="elem_User"><rect codeLine="139" fill="#FFDAB9" height="143.125" id="User" rx="2.5" ry="2.5" style="stroke:#4169E1;stroke-width:0.5;" width="201" x="27.5" y="824"/><ellipse cx="101" cy="841" fill="#ADD1B2" rx="12" ry="12" style="stroke:#181818;stroke-width:1.0;"/><path d="M104.0625,848.0781 Q103.375,848.4375 102.625,848.6094 Q101.875,848.7813 101.0469,848.7813 Q98.0938,848.7813 96.5313,846.8438 Q94.9844,844.8906 94.9844,841.2188 Q94.9844,837.5469 96.5313,835.6094 Q98.0938,833.6563 101.0469,833.6563 Q101.875,833.6563 102.625,833.8281 Q103.3906,834 104.0625,834.3594 L104.0625,837.5625 Q103.3125,836.875 102.6094,836.5625 Q101.9219,836.25 101.1719,836.25 Q99.5938,836.25 98.7813,837.5 Q97.9844,838.75 97.9844,841.2188 Q97.9844,843.6875 98.7813,844.9375 Q99.5938,846.1875 101.1719,846.1875 Q101.9219,846.1875 102.6094,845.875 Q103.3125,845.5625 104.0625,844.875 L104.0625,848.0781 Z " fill="#000000"/><text fill="#000000" font-family="sans-serif" font-size="20" lengthAdjust="spacing" textLength="45" x="123" y="847.9238">User</text><line style="stroke:#4169E1;stroke-width:0.5;" x1="28.5" x2="227.5" y1="858" y2="858"/><text fill="#000000" font-family="sans-serif" font-size="20" lengthAdjust="spacing" textLength="63" x="33.5" y="880.5645">-email</text><text fill="#000000" font-family="sans-serif" font-size="20" lengthAdjust="spacing" textLength="102" x="33.5" y="903.8457">-password</text><text fill="#000000" font-family="sans-serif" font-size="20" lengthAdjust="spacing" textLength="64" x="33.5" y="927.127">-name</text><text fill="#000000" font-family="sans-serif" font-size="20" lengthAdjust="spacing" textLength="189" x="33.5" y="950.4082">-UserRole userRole</text><line style="stroke:#4169E1;stroke-width:0.5;" x1="28.5" x2="227.5" y1="959.125" y2="959.125"/></g><!--class UserRoleStore--><g id="elem_UserRoleStore"><rect codeLine="145" fill="#FFDAB9" height="50" id="UserRoleStore" rx="2.5" ry="2.5" style="stroke:#4169E1;stroke-width:0.5;" width="176" x="164" y="709"/><ellipse cx="180" cy="726" fill="#ADD1B2" rx="12" ry="12" style="stroke:#181818;stroke-width:1.0;"/><path d="M183.0625,733.0781 Q182.375,733.4375 181.625,733.6094 Q180.875,733.7813 180.0469,733.7813 Q177.0938,733.7813 175.5313,731.8438 Q173.9844,729.8906 173.9844,726.2188 Q173.9844,722.5469 175.5313,720.6094 Q177.0938,718.6563 180.0469,718.6563 Q180.875,718.6563 181.625,718.8281 Q182.3906,719 183.0625,719.3594 L183.0625,722.5625 Q182.3125,721.875 181.6094,721.5625 Q180.9219,721.25 180.1719,721.25 Q178.5938,721.25 177.7813,722.5 Q176.9844,723.75 176.9844,726.2188 Q176.9844,728.6875 177.7813,729.9375 Q178.5938,731.1875 180.1719,731.1875 Q180.9219,731.1875 181.6094,730.875 Q182.3125,730.5625 183.0625,729.875 L183.0625,733.0781 Z " fill="#000000"/><text fill="#000000" font-family="sans-serif" font-size="20" lengthAdjust="spacing" textLength="142" x="195" y="732.9238">UserRoleStore</text><line style="stroke:#4169E1;stroke-width:0.5;" x1="165" x2="339" y1="743" y2="743"/><line style="stroke:#4169E1;stroke-width:0.5;" x1="165" x2="339" y1="751" y2="751"/></g><!--class UserRole--><g id="elem_UserRole"><rect codeLine="148" fill="#FFDAB9" height="96.5625" id="UserRole" rx="2.5" ry="2.5" style="stroke:#4169E1;stroke-width:0.5;" width="131" x="131.5" y="1097.5"/><ellipse cx="151.1" cy="1114.5" fill="#ADD1B2" rx="12" ry="12" style="stroke:#181818;stroke-width:1.0;"/><path d="M154.1625,1121.5781 Q153.475,1121.9375 152.725,1122.1094 Q151.975,1122.2813 151.1469,1122.2813 Q148.1938,1122.2813 146.6313,1120.3438 Q145.0844,1118.3906 145.0844,1114.7188 Q145.0844,1111.0469 146.6313,1109.1094 Q148.1938,1107.1563 151.1469,1107.1563 Q151.975,1107.1563 152.725,1107.3281 Q153.4906,1107.5 154.1625,1107.8594 L154.1625,1111.0625 Q153.4125,1110.375 152.7094,1110.0625 Q152.0219,1109.75 151.2719,1109.75 Q149.6938,1109.75 148.8813,1111 Q148.0844,1112.25 148.0844,1114.7188 Q148.0844,1117.1875 148.8813,1118.4375 Q149.6938,1119.6875 151.2719,1119.6875 Q152.0219,1119.6875 152.7094,1119.375 Q153.4125,1119.0625 154.1625,1118.375 L154.1625,1121.5781 Z " fill="#000000"/><text fill="#000000" font-family="sans-serif" font-size="20" lengthAdjust="spacing" textLength="89" x="166.9" y="1121.4238">UserRole</text><line style="stroke:#4169E1;stroke-width:0.5;" x1="132.5" x2="261.5" y1="1131.5" y2="1131.5"/><text fill="#000000" font-family="sans-serif" font-size="20" lengthAdjust="spacing" textLength="26" x="137.5" y="1154.0645">-id</text><text fill="#000000" font-family="sans-serif" font-size="20" lengthAdjust="spacing" textLength="119" x="137.5" y="1177.3457">-description</text><line style="stroke:#4169E1;stroke-width:0.5;" x1="132.5" x2="261.5" y1="1186.0625" y2="1186.0625"/></g><!--class Repositories--><g id="elem_Repositories"><rect codeLine="16" fill="#FFDAB9" height="236.25" id="Repositories" rx="2.5" ry="2.5" style="stroke:#4169E1;stroke-width:0.5;" width="338" x="1004" y="7"/><ellipse cx="1107" cy="24" fill="#ADD1B2" rx="12" ry="12" style="stroke:#181818;stroke-width:1.0;"/><path d="M1110.0625,31.0781 Q1109.375,31.4375 1108.625,31.6094 Q1107.875,31.7813 1107.0469,31.7813 Q1104.0938,31.7813 1102.5313,29.8438 Q1100.9844,27.8906 1100.9844,24.2188 Q1100.9844,20.5469 1102.5313,18.6094 Q1104.0938,16.6563 1107.0469,16.6563 Q1107.875,16.6563 1108.625,16.8281 Q1109.3906,17 1110.0625,17.3594 L1110.0625,20.5625 Q1109.3125,19.875 1108.6094,19.5625 Q1107.9219,19.25 1107.1719,19.25 Q1105.5938,19.25 1104.7813,20.5 Q1103.9844,21.75 1103.9844,24.2188 Q1103.9844,26.6875 1104.7813,27.9375 Q1105.5938,29.1875 1107.1719,29.1875 Q1107.9219,29.1875 1108.6094,28.875 Q1109.3125,28.5625 1110.0625,27.875 L1110.0625,31.0781 Z " fill="#000000"/><text fill="#000000" font-family="sans-serif" font-size="20" lengthAdjust="spacing" textLength="123" x="1129" y="30.9238">Repositories</text><line style="stroke:#4169E1;stroke-width:0.5;" x1="1005" x2="1341" y1="41" y2="41"/><line style="stroke:#4169E1;stroke-width:0.5;" x1="1005" x2="1341" y1="49" y2="49"/><text fill="#000000" font-family="sans-serif" font-size="20" lengthAdjust="spacing" textLength="146" x="1010" y="71.5645">-Repositories()</text><text fill="#000000" font-family="sans-serif" font-size="20" lengthAdjust="spacing" textLength="293" x="1010" y="94.8457">+getInstance() : Repositories</text><text fill="#000000" font-family="sans-serif" font-size="20" lengthAdjust="spacing" textLength="246" x="1010" y="118.127">+getAgencyRepository()</text><text fill="#000000" font-family="sans-serif" font-size="20" lengthAdjust="spacing" textLength="239" x="1010" y="141.4082">+getPersonRepository()</text><text fill="#000000" font-family="sans-serif" font-size="20" lengthAdjust="spacing" textLength="326" x="1010" y="164.6895">+getAnnouncementRepository()</text><text fill="#000000" font-family="sans-serif" font-size="20" lengthAdjust="spacing" textLength="321" x="1010" y="187.9707">+getAuthenticationRepository()</text><text fill="#000000" font-family="sans-serif" font-size="20" lengthAdjust="spacing" textLength="229" x="1010" y="211.252">+getEmailRepository()</text><text fill="#000000" font-family="sans-serif" font-size="20" lengthAdjust="spacing" textLength="254" x="1010" y="234.5332">+getRequestRepository()</text></g><!--class Orders--><g id="elem_Orders"><rect codeLine="26" fill="#FFDAB9" height="73.2813" id="Orders" rx="2.5" ry="2.5" style="stroke:#4169E1;stroke-width:0.5;" width="273" x="1937.5" y="859"/><ellipse cx="2036" cy="876" fill="#ADD1B2" rx="12" ry="12" style="stroke:#181818;stroke-width:1.0;"/><path d="M2039.0625,883.0781 Q2038.375,883.4375 2037.625,883.6094 Q2036.875,883.7813 2036.0469,883.7813 Q2033.0938,883.7813 2031.5313,881.8438 Q2029.9844,879.8906 2029.9844,876.2188 Q2029.9844,872.5469 2031.5313,870.6094 Q2033.0938,868.6563 2036.0469,868.6563 Q2036.875,868.6563 2037.625,868.8281 Q2038.3906,869 2039.0625,869.3594 L2039.0625,872.5625 Q2038.3125,871.875 2037.6094,871.5625 Q2036.9219,871.25 2036.1719,871.25 Q2034.5938,871.25 2033.7813,872.5 Q2032.9844,873.75 2032.9844,876.2188 Q2032.9844,878.6875 2033.7813,879.9375 Q2034.5938,881.1875 2036.1719,881.1875 Q2036.9219,881.1875 2037.6094,880.875 Q2038.3125,880.5625 2039.0625,879.875 L2039.0625,883.0781 Z " fill="#000000"/><text fill="#000000" font-family="sans-serif" font-size="20" lengthAdjust="spacing" textLength="67" x="2058" y="882.9238">Orders</text><line style="stroke:#4169E1;stroke-width:0.5;" x1="1938.5" x2="2209.5" y1="893" y2="893"/><text fill="#000000" font-family="sans-serif" font-size="20" lengthAdjust="spacing" textLength="261" x="1943.5" y="915.5645">-ArrayList &lt;Order&gt; orders</text><line style="stroke:#4169E1;stroke-width:0.5;" x1="1938.5" x2="2209.5" y1="924.2813" y2="924.2813"/></g><!--class Order--><g id="elem_Order"><rect codeLine="29" fill="#FFDAB9" height="96.5625" id="Order" rx="2.5" ry="2.5" style="stroke:#4169E1;stroke-width:0.5;" width="144" x="2051" y="1097.5"/><ellipse cx="2090.85" cy="1114.5" fill="#ADD1B2" rx="12" ry="12" style="stroke:#181818;stroke-width:1.0;"/><path d="M2093.9125,1121.5781 Q2093.225,1121.9375 2092.475,1122.1094 Q2091.725,1122.2813 2090.8969,1122.2813 Q2087.9438,1122.2813 2086.3813,1120.3438 Q2084.8344,1118.3906 2084.8344,1114.7188 Q2084.8344,1111.0469 2086.3813,1109.1094 Q2087.9438,1107.1563 2090.8969,1107.1563 Q2091.725,1107.1563 2092.475,1107.3281 Q2093.2406,1107.5 2093.9125,1107.8594 L2093.9125,1111.0625 Q2093.1625,1110.375 2092.4594,1110.0625 Q2091.7719,1109.75 2091.0219,1109.75 Q2089.4438,1109.75 2088.6313,1111 Q2087.8344,1112.25 2087.8344,1114.7188 Q2087.8344,1117.1875 2088.6313,1118.4375 Q2089.4438,1119.6875 2091.0219,1119.6875 Q2091.7719,1119.6875 2092.4594,1119.375 Q2093.1625,1119.0625 2093.9125,1118.375 L2093.9125,1121.5781 Z " fill="#000000"/><text fill="#000000" font-family="sans-serif" font-size="20" lengthAdjust="spacing" textLength="57" x="2111.15" y="1121.4238">Order</text><line style="stroke:#4169E1;stroke-width:0.5;" x1="2052" x2="2194" y1="1131.5" y2="1131.5"/><text fill="#000000" font-family="sans-serif" font-size="20" lengthAdjust="spacing" textLength="105" x="2057" y="1154.0645">-Date date</text><text fill="#000000" font-family="sans-serif" font-size="20" lengthAdjust="spacing" textLength="132" x="2057" y="1177.3457">-double price</text><line style="stroke:#4169E1;stroke-width:0.5;" x1="2052" x2="2194" y1="1186.0625" y2="1186.0625"/></g><!--class AgencyRepository--><g id="elem_AgencyRepository"><rect codeLine="34" fill="#FFDAB9" height="50" id="AgencyRepository" rx="2.5" ry="2.5" style="stroke:#4169E1;stroke-width:0.5;" width="214" x="886" y="378.5"/><ellipse cx="902" cy="395.5" fill="#ADD1B2" rx="12" ry="12" style="stroke:#181818;stroke-width:1.0;"/><path d="M905.0625,402.5781 Q904.375,402.9375 903.625,403.1094 Q902.875,403.2813 902.0469,403.2813 Q899.0938,403.2813 897.5313,401.3438 Q895.9844,399.3906 895.9844,395.7188 Q895.9844,392.0469 897.5313,390.1094 Q899.0938,388.1563 902.0469,388.1563 Q902.875,388.1563 903.625,388.3281 Q904.3906,388.5 905.0625,388.8594 L905.0625,392.0625 Q904.3125,391.375 903.6094,391.0625 Q902.9219,390.75 902.1719,390.75 Q900.5938,390.75 899.7813,392 Q898.9844,393.25 898.9844,395.7188 Q898.9844,398.1875 899.7813,399.4375 Q900.5938,400.6875 902.1719,400.6875 Q902.9219,400.6875 903.6094,400.375 Q904.3125,400.0625 905.0625,399.375 L905.0625,402.5781 Z " fill="#000000"/><text fill="#000000" font-family="sans-serif" font-size="20" lengthAdjust="spacing" textLength="180" x="917" y="402.4238">AgencyRepository</text><line style="stroke:#4169E1;stroke-width:0.5;" x1="887" x2="1099" y1="412.5" y2="412.5"/><line style="stroke:#4169E1;stroke-width:0.5;" x1="887" x2="1099" y1="420.5" y2="420.5"/></g><!--class Agency--><g id="elem_Agency"><rect codeLine="37" fill="#FFDAB9" height="166.4063" id="Agency" rx="2.5" ry="2.5" style="stroke:#4169E1;stroke-width:0.5;" width="222" x="653" y="1063"/><ellipse cx="722.5" cy="1080" fill="#ADD1B2" rx="12" ry="12" style="stroke:#181818;stroke-width:1.0;"/><path d="M725.5625,1087.0781 Q724.875,1087.4375 724.125,1087.6094 Q723.375,1087.7813 722.5469,1087.7813 Q719.5938,1087.7813 718.0313,1085.8438 Q716.4844,1083.8906 716.4844,1080.2188 Q716.4844,1076.5469 718.0313,1074.6094 Q719.5938,1072.6563 722.5469,1072.6563 Q723.375,1072.6563 724.125,1072.8281 Q724.8906,1073 725.5625,1073.3594 L725.5625,1076.5625 Q724.8125,1075.875 724.1094,1075.5625 Q723.4219,1075.25 722.6719,1075.25 Q721.0938,1075.25 720.2813,1076.5 Q719.4844,1077.75 719.4844,1080.2188 Q719.4844,1082.6875 720.2813,1083.9375 Q721.0938,1085.1875 722.6719,1085.1875 Q723.4219,1085.1875 724.1094,1084.875 Q724.8125,1084.5625 725.5625,1083.875 L725.5625,1087.0781 Z " fill="#000000"/><text fill="#000000" font-family="sans-serif" font-size="20" lengthAdjust="spacing" textLength="74" x="744.5" y="1086.9238">Agency</text><line style="stroke:#4169E1;stroke-width:0.5;" x1="654" x2="874" y1="1097" y2="1097"/><text fill="#000000" font-family="sans-serif" font-size="20" lengthAdjust="spacing" textLength="93" x="659" y="1119.5645">-String id</text><text fill="#000000" font-family="sans-serif" font-size="20" lengthAdjust="spacing" textLength="192" x="659" y="1142.8457">-String designation</text><text fill="#000000" font-family="sans-serif" font-size="20" lengthAdjust="spacing" textLength="184" x="659" y="1166.127">-int phoneNumber</text><text fill="#000000" font-family="sans-serif" font-size="20" lengthAdjust="spacing" textLength="210" x="659" y="1189.4082">-String emailAddress</text><text fill="#000000" font-family="sans-serif" font-size="20" lengthAdjust="spacing" textLength="171" x="659" y="1212.6895">-Address address</text><line style="stroke:#4169E1;stroke-width:0.5;" x1="654" x2="874" y1="1221.4063" y2="1221.4063"/></g><!--class Request--><g id="elem_Request"><rect codeLine="44" fill="#FFDAB9" height="143.125" id="Request" rx="2.5" ry="2.5" style="stroke:#4169E1;stroke-width:0.5;" width="222" x="612" y="536"/><ellipse cx="677.5" cy="553" fill="#ADD1B2" rx="12" ry="12" style="stroke:#181818;stroke-width:1.0;"/><path d="M680.5625,560.0781 Q679.875,560.4375 679.125,560.6094 Q678.375,560.7813 677.5469,560.7813 Q674.5938,560.7813 673.0313,558.8438 Q671.4844,556.8906 671.4844,553.2188 Q671.4844,549.5469 673.0313,547.6094 Q674.5938,545.6563 677.5469,545.6563 Q678.375,545.6563 679.125,545.8281 Q679.8906,546 680.5625,546.3594 L680.5625,549.5625 Q679.8125,548.875 679.1094,548.5625 Q678.4219,548.25 677.6719,548.25 Q676.0938,548.25 675.2813,549.5 Q674.4844,550.75 674.4844,553.2188 Q674.4844,555.6875 675.2813,556.9375 Q676.0938,558.1875 677.6719,558.1875 Q678.4219,558.1875 679.1094,557.875 Q679.8125,557.5625 680.5625,556.875 L680.5625,560.0781 Z " fill="#000000"/><text fill="#000000" font-family="sans-serif" font-size="20" lengthAdjust="spacing" textLength="82" x="699.5" y="559.9238">Request</text><line style="stroke:#4169E1;stroke-width:0.5;" x1="613" x2="833" y1="570" y2="570"/><text fill="#000000" font-family="sans-serif" font-size="20" lengthAdjust="spacing" textLength="182" x="618" y="592.5645">-Property property</text><text fill="#000000" font-family="sans-serif" font-size="20" lengthAdjust="spacing" textLength="210" x="618" y="615.8457">-Employee employee</text><text fill="#000000" font-family="sans-serif" font-size="20" lengthAdjust="spacing" textLength="147" x="618" y="639.127">-Person Person</text><text fill="#000000" font-family="sans-serif" font-size="20" lengthAdjust="spacing" textLength="105" x="618" y="662.4082">-Date date</text><line style="stroke:#4169E1;stroke-width:0.5;" x1="613" x2="833" y1="671.125" y2="671.125"/></g><!--class Property--><g id="elem_Property"><rect codeLine="51" fill="#FFDAB9" height="212.9688" id="Property" rx="2.5" ry="2.5" style="stroke:#4169E1;stroke-width:0.5;" width="401" x="988.5" y="789"/><ellipse cx="1142" cy="806" fill="#A9DCDF" rx="12" ry="12" style="stroke:#181818;stroke-width:1.0;"/><path d="M1142.0156,800.8125 L1140.6563,806.7656 L1143.3906,806.7656 L1142.0156,800.8125 Z M1140.2656,798.1719 L1143.7813,798.1719 L1147.7188,812.75 L1144.8438,812.75 L1143.9375,809.1406 L1140.0781,809.1406 L1139.2031,812.75 L1136.3281,812.75 L1140.2656,798.1719 Z " fill="#000000"/><text fill="#000000" font-family="sans-serif" font-size="20" font-style="italic" lengthAdjust="spacing" textLength="85" x="1164" y="812.9238">Property</text><line style="stroke:#4169E1;stroke-width:0.5;" x1="989.5" x2="1388.5" y1="823" y2="823"/><text fill="#000000" font-family="sans-serif" font-size="20" lengthAdjust="spacing" textLength="271" x="994.5" y="845.5645">-enum public PropertyType</text><text fill="#000000" font-family="sans-serif" font-size="20" lengthAdjust="spacing" textLength="175" x="994.5" y="868.8457">-double areaInM2</text><text fill="#000000" font-family="sans-serif" font-size="20" lengthAdjust="spacing" textLength="325" x="994.5" y="892.127">-double distanceFromCityCenter</text><text fill="#000000" font-family="sans-serif" font-size="20" lengthAdjust="spacing" textLength="300" x="994.5" y="915.4082">-ArrayList &lt;String&gt; photoURL</text><text fill="#000000" font-family="sans-serif" font-size="20" lengthAdjust="spacing" textLength="171" x="994.5" y="938.6895">-Address address</text><text fill="#000000" font-family="sans-serif" font-size="20" lengthAdjust="spacing" textLength="101" x="994.5" y="961.9707">-Deal deal</text><line style="stroke:#4169E1;stroke-width:0.5;" x1="989.5" x2="1388.5" y1="970.6875" y2="970.6875"/><text fill="#000000" font-family="sans-serif" font-size="20" lengthAdjust="spacing" textLength="389" x="994.5" y="993.252">+Property(PropertyType:propertyType)</text></g><!--class Home--><g id="elem_Home"><rect codeLine="60" fill="#FFDAB9" height="143.125" id="Home" rx="2.5" ry="2.5" style="stroke:#4169E1;stroke-width:0.5;" width="415" x="981.5" y="1074.5"/><ellipse cx="1155" cy="1091.5" fill="#A9DCDF" rx="12" ry="12" style="stroke:#181818;stroke-width:1.0;"/><path d="M1155.0156,1086.3125 L1153.6563,1092.2656 L1156.3906,1092.2656 L1155.0156,1086.3125 Z M1153.2656,1083.6719 L1156.7813,1083.6719 L1160.7188,1098.25 L1157.8438,1098.25 L1156.9375,1094.6406 L1153.0781,1094.6406 L1152.2031,1098.25 L1149.3281,1098.25 L1153.2656,1083.6719 Z " fill="#000000"/><text fill="#000000" font-family="sans-serif" font-size="20" font-style="italic" lengthAdjust="spacing" textLength="59" x="1177" y="1098.4238">Home</text><line style="stroke:#4169E1;stroke-width:0.5;" x1="982.5" x2="1395.5" y1="1108.5" y2="1108.5"/><text fill="#000000" font-family="sans-serif" font-size="20" lengthAdjust="spacing" textLength="243" x="987.5" y="1131.0645">-int numberOfBedrooms</text><text fill="#000000" font-family="sans-serif" font-size="20" lengthAdjust="spacing" textLength="251" x="987.5" y="1154.3457">-int numberOfBathrooms</text><text fill="#000000" font-family="sans-serif" font-size="20" lengthAdjust="spacing" textLength="279" x="987.5" y="1177.627">-int numberOfParkingSpace</text><text fill="#000000" font-family="sans-serif" font-size="20" lengthAdjust="spacing" textLength="403" x="987.5" y="1200.9082">-ArrayList &lt;String&gt; availableEquipment</text><line style="stroke:#4169E1;stroke-width:0.5;" x1="982.5" x2="1395.5" y1="1209.625" y2="1209.625"/></g><!--class House--><g id="elem_House"><rect codeLine="66" fill="#FFDAB9" height="119.8438" id="House" rx="2.5" ry="2.5" style="stroke:#4169E1;stroke-width:0.5;" width="257" x="1053.5" y="1313"/><ellipse cx="1146.5" cy="1330" fill="#ADD1B2" rx="12" ry="12" style="stroke:#181818;stroke-width:1.0;"/><path d="M1149.5625,1337.0781 Q1148.875,1337.4375 1148.125,1337.6094 Q1147.375,1337.7813 1146.5469,1337.7813 Q1143.5938,1337.7813 1142.0313,1335.8438 Q1140.4844,1333.8906 1140.4844,1330.2188 Q1140.4844,1326.5469 1142.0313,1324.6094 Q1143.5938,1322.6563 1146.5469,1322.6563 Q1147.375,1322.6563 1148.125,1322.8281 Q1148.8906,1323 1149.5625,1323.3594 L1149.5625,1326.5625 Q1148.8125,1325.875 1148.1094,1325.5625 Q1147.4219,1325.25 1146.6719,1325.25 Q1145.0938,1325.25 1144.2813,1326.5 Q1143.4844,1327.75 1143.4844,1330.2188 Q1143.4844,1332.6875 1144.2813,1333.9375 Q1145.0938,1335.1875 1146.6719,1335.1875 Q1147.4219,1335.1875 1148.1094,1334.875 Q1148.8125,1334.5625 1149.5625,1333.875 L1149.5625,1337.0781 Z " fill="#000000"/><text fill="#000000" font-family="sans-serif" font-size="20" lengthAdjust="spacing" textLength="62" x="1168.5" y="1336.9238">House</text><line style="stroke:#4169E1;stroke-width:0.5;" x1="1054.5" x2="1309.5" y1="1347" y2="1347"/><text fill="#000000" font-family="sans-serif" font-size="20" lengthAdjust="spacing" textLength="193" x="1059.5" y="1369.5645">-boolean basement</text><text fill="#000000" font-family="sans-serif" font-size="20" lengthAdjust="spacing" textLength="245" x="1059.5" y="1392.8457">-boolean inhabitableLoft</text><text fill="#000000" font-family="sans-serif" font-size="20" lengthAdjust="spacing" textLength="202" x="1059.5" y="1416.127">-String sunExposure</text><line style="stroke:#4169E1;stroke-width:0.5;" x1="1054.5" x2="1309.5" y1="1424.8438" y2="1424.8438"/></g><!--class Appartement--><g id="elem_Appartement"><rect codeLine="71" fill="#FFDAB9" height="50" id="Appartement" rx="2.5" ry="2.5" style="stroke:#4169E1;stroke-width:0.5;" width="167" x="851.5" y="1348"/><ellipse cx="867.5" cy="1365" fill="#ADD1B2" rx="12" ry="12" style="stroke:#181818;stroke-width:1.0;"/><path d="M870.5625,1372.0781 Q869.875,1372.4375 869.125,1372.6094 Q868.375,1372.7813 867.5469,1372.7813 Q864.5938,1372.7813 863.0313,1370.8438 Q861.4844,1368.8906 861.4844,1365.2188 Q861.4844,1361.5469 863.0313,1359.6094 Q864.5938,1357.6563 867.5469,1357.6563 Q868.375,1357.6563 869.125,1357.8281 Q869.8906,1358 870.5625,1358.3594 L870.5625,1361.5625 Q869.8125,1360.875 869.1094,1360.5625 Q868.4219,1360.25 867.6719,1360.25 Q866.0938,1360.25 865.2813,1361.5 Q864.4844,1362.75 864.4844,1365.2188 Q864.4844,1367.6875 865.2813,1368.9375 Q866.0938,1370.1875 867.6719,1370.1875 Q868.4219,1370.1875 869.1094,1369.875 Q869.8125,1369.5625 870.5625,1368.875 L870.5625,1372.0781 Z " fill="#000000"/><text fill="#000000" font-family="sans-serif" font-size="20" lengthAdjust="spacing" textLength="133" x="882.5" y="1371.9238">Appartement</text><line style="stroke:#4169E1;stroke-width:0.5;" x1="852.5" x2="1017.5" y1="1382" y2="1382"/><line style="stroke:#4169E1;stroke-width:0.5;" x1="852.5" x2="1017.5" y1="1390" y2="1390"/></g><!--class Land--><g id="elem_Land"><rect codeLine="74" fill="#FFDAB9" height="50" id="Land" rx="2.5" ry="2.5" style="stroke:#4169E1;stroke-width:0.5;" width="83" x="1747.5" y="1121"/><ellipse cx="1763.5" cy="1138" fill="#ADD1B2" rx="12" ry="12" style="stroke:#181818;stroke-width:1.0;"/><path d="M1766.5625,1145.0781 Q1765.875,1145.4375 1765.125,1145.6094 Q1764.375,1145.7813 1763.5469,1145.7813 Q1760.5938,1145.7813 1759.0313,1143.8438 Q1757.4844,1141.8906 1757.4844,1138.2188 Q1757.4844,1134.5469 1759.0313,1132.6094 Q1760.5938,1130.6563 1763.5469,1130.6563 Q1764.375,1130.6563 1765.125,1130.8281 Q1765.8906,1131 1766.5625,1131.3594 L1766.5625,1134.5625 Q1765.8125,1133.875 1765.1094,1133.5625 Q1764.4219,1133.25 1763.6719,1133.25 Q1762.0938,1133.25 1761.2813,1134.5 Q1760.4844,1135.75 1760.4844,1138.2188 Q1760.4844,1140.6875 1761.2813,1141.9375 Q1762.0938,1143.1875 1763.6719,1143.1875 Q1764.4219,1143.1875 1765.1094,1142.875 Q1765.8125,1142.5625 1766.5625,1141.875 L1766.5625,1145.0781 Z " fill="#000000"/><text fill="#000000" font-family="sans-serif" font-size="20" lengthAdjust="spacing" textLength="49" x="1778.5" y="1144.9238">Land</text><line style="stroke:#4169E1;stroke-width:0.5;" x1="1748.5" x2="1829.5" y1="1155" y2="1155"/><line style="stroke:#4169E1;stroke-width:0.5;" x1="1748.5" x2="1829.5" y1="1163" y2="1163"/></g><!--class Deal--><g id="elem_Deal"><rect codeLine="77" fill="#FFDAB9" height="96.5625" id="Deal" rx="2.5" ry="2.5" style="stroke:#4169E1;stroke-width:0.5;" width="281" x="1431.5" y="1097.5"/><ellipse cx="1545" cy="1114.5" fill="#A9DCDF" rx="12" ry="12" style="stroke:#181818;stroke-width:1.0;"/><path d="M1545.0156,1109.3125 L1543.6563,1115.2656 L1546.3906,1115.2656 L1545.0156,1109.3125 Z M1543.2656,1106.6719 L1546.7813,1106.6719 L1550.7188,1121.25 L1547.8438,1121.25 L1546.9375,1117.6406 L1543.0781,1117.6406 L1542.2031,1121.25 L1539.3281,1121.25 L1543.2656,1106.6719 Z " fill="#000000"/><text fill="#000000" font-family="sans-serif" font-size="20" font-style="italic" lengthAdjust="spacing" textLength="45" x="1567" y="1121.4238">Deal</text><line style="stroke:#4169E1;stroke-width:0.5;" x1="1432.5" x2="1711.5" y1="1131.5" y2="1131.5"/><text fill="#000000" font-family="sans-serif" font-size="20" lengthAdjust="spacing" textLength="232" x="1437.5" y="1154.0645">-enum public DealType</text><line style="stroke:#4169E1;stroke-width:0.5;" x1="1432.5" x2="1711.5" y1="1162.7813" y2="1162.7813"/><text fill="#000000" font-family="sans-serif" font-size="20" lengthAdjust="spacing" textLength="269" x="1437.5" y="1185.3457">+Deal(DealType:dealType)</text></g><!--class Sale--><g id="elem_Sale"><rect codeLine="81" fill="#FFDAB9" height="96.5625" id="Sale" rx="2.5" ry="2.5" style="stroke:#4169E1;stroke-width:0.5;" width="285" x="1849.5" y="1324.5"/><ellipse cx="1966" cy="1341.5" fill="#ADD1B2" rx="12" ry="12" style="stroke:#181818;stroke-width:1.0;"/><path d="M1969.0625,1348.5781 Q1968.375,1348.9375 1967.625,1349.1094 Q1966.875,1349.2813 1966.0469,1349.2813 Q1963.0938,1349.2813 1961.5313,1347.3438 Q1959.9844,1345.3906 1959.9844,1341.7188 Q1959.9844,1338.0469 1961.5313,1336.1094 Q1963.0938,1334.1563 1966.0469,1334.1563 Q1966.875,1334.1563 1967.625,1334.3281 Q1968.3906,1334.5 1969.0625,1334.8594 L1969.0625,1338.0625 Q1968.3125,1337.375 1967.6094,1337.0625 Q1966.9219,1336.75 1966.1719,1336.75 Q1964.5938,1336.75 1963.7813,1338 Q1962.9844,1339.25 1962.9844,1341.7188 Q1962.9844,1344.1875 1963.7813,1345.4375 Q1964.5938,1346.6875 1966.1719,1346.6875 Q1966.9219,1346.6875 1967.6094,1346.375 Q1968.3125,1346.0625 1969.0625,1345.375 L1969.0625,1348.5781 Z " fill="#000000"/><text fill="#000000" font-family="sans-serif" font-size="20" lengthAdjust="spacing" textLength="43" x="1988" y="1348.4238">Sale</text><line style="stroke:#4169E1;stroke-width:0.5;" x1="1850.5" x2="2133.5" y1="1358.5" y2="1358.5"/><text fill="#000000" font-family="sans-serif" font-size="20" lengthAdjust="spacing" textLength="216" x="1855.5" y="1381.0645">-double propertyPrice</text><line style="stroke:#4169E1;stroke-width:0.5;" x1="1850.5" x2="2133.5" y1="1389.7813" y2="1389.7813"/><text fill="#000000" font-family="sans-serif" font-size="20" lengthAdjust="spacing" textLength="273" x="1855.5" y="1412.3457">+createSale(propertyPrice)</text></g><!--class Rent--><g id="elem_Rent"><rect codeLine="85" fill="#FFDAB9" height="119.8438" id="Rent" rx="2.5" ry="2.5" style="stroke:#4169E1;stroke-width:0.5;" width="469" x="1345.5" y="1313"/><ellipse cx="1552" cy="1330" fill="#ADD1B2" rx="12" ry="12" style="stroke:#181818;stroke-width:1.0;"/><path d="M1555.0625,1337.0781 Q1554.375,1337.4375 1553.625,1337.6094 Q1552.875,1337.7813 1552.0469,1337.7813 Q1549.0938,1337.7813 1547.5313,1335.8438 Q1545.9844,1333.8906 1545.9844,1330.2188 Q1545.9844,1326.5469 1547.5313,1324.6094 Q1549.0938,1322.6563 1552.0469,1322.6563 Q1552.875,1322.6563 1553.625,1322.8281 Q1554.3906,1323 1555.0625,1323.3594 L1555.0625,1326.5625 Q1554.3125,1325.875 1553.6094,1325.5625 Q1552.9219,1325.25 1552.1719,1325.25 Q1550.5938,1325.25 1549.7813,1326.5 Q1548.9844,1327.75 1548.9844,1330.2188 Q1548.9844,1332.6875 1549.7813,1333.9375 Q1550.5938,1335.1875 1552.1719,1335.1875 Q1552.9219,1335.1875 1553.6094,1334.875 Q1554.3125,1334.5625 1555.0625,1333.875 L1555.0625,1337.0781 Z " fill="#000000"/><text fill="#000000" font-family="sans-serif" font-size="20" lengthAdjust="spacing" textLength="47" x="1574" y="1336.9238">Rent</text><line style="stroke:#4169E1;stroke-width:0.5;" x1="1346.5" x2="1813.5" y1="1347" y2="1347"/><text fill="#000000" font-family="sans-serif" font-size="20" lengthAdjust="spacing" textLength="214" x="1351.5" y="1369.5645">-double propertyRent</text><text fill="#000000" font-family="sans-serif" font-size="20" lengthAdjust="spacing" textLength="210" x="1351.5" y="1392.8457">-int contractDuration</text><line style="stroke:#4169E1;stroke-width:0.5;" x1="1346.5" x2="1813.5" y1="1401.5625" y2="1401.5625"/><text fill="#000000" font-family="sans-serif" font-size="20" lengthAdjust="spacing" textLength="457" x="1351.5" y="1424.127">+createRent(propertyRent, contractDuration)</text></g><!--class PersonRepository--><g id="elem_PersonRepository"><rect codeLine="90" fill="#FFDAB9" height="50" id="PersonRepository" rx="2.5" ry="2.5" style="stroke:#4169E1;stroke-width:0.5;" width="207" x="386.5" y="378.5"/><ellipse cx="402.5" cy="395.5" fill="#ADD1B2" rx="12" ry="12" style="stroke:#181818;stroke-width:1.0;"/><path d="M405.5625,402.5781 Q404.875,402.9375 404.125,403.1094 Q403.375,403.2813 402.5469,403.2813 Q399.5938,403.2813 398.0313,401.3438 Q396.4844,399.3906 396.4844,395.7188 Q396.4844,392.0469 398.0313,390.1094 Q399.5938,388.1563 402.5469,388.1563 Q403.375,388.1563 404.125,388.3281 Q404.8906,388.5 405.5625,388.8594 L405.5625,392.0625 Q404.8125,391.375 404.1094,391.0625 Q403.4219,390.75 402.6719,390.75 Q401.0938,390.75 400.2813,392 Q399.4844,393.25 399.4844,395.7188 Q399.4844,398.1875 400.2813,399.4375 Q401.0938,400.6875 402.6719,400.6875 Q403.4219,400.6875 404.1094,400.375 Q404.8125,400.0625 405.5625,399.375 L405.5625,402.5781 Z " fill="#000000"/><text fill="#000000" font-family="sans-serif" font-size="20" lengthAdjust="spacing" textLength="173" x="417.5" y="402.4238">PersonRepository</text><line style="stroke:#4169E1;stroke-width:0.5;" x1="387.5" x2="592.5" y1="412.5" y2="412.5"/><line style="stroke:#4169E1;stroke-width:0.5;" x1="387.5" x2="592.5" y1="420.5" y2="420.5"/></g><!--class Employee--><g id="elem_Employee"><rect codeLine="93" fill="#FFDAB9" height="73.2813" id="Employee" rx="2.5" ry="2.5" style="stroke:#4169E1;stroke-width:0.5;" width="171" x="637.5" y="859"/><ellipse cx="670.6" cy="876" fill="#ADD1B2" rx="12" ry="12" style="stroke:#181818;stroke-width:1.0;"/><path d="M673.6625,883.0781 Q672.975,883.4375 672.225,883.6094 Q671.475,883.7813 670.6469,883.7813 Q667.6938,883.7813 666.1313,881.8438 Q664.5844,879.8906 664.5844,876.2188 Q664.5844,872.5469 666.1313,870.6094 Q667.6938,868.6563 670.6469,868.6563 Q671.475,868.6563 672.225,868.8281 Q672.9906,869 673.6625,869.3594 L673.6625,872.5625 Q672.9125,871.875 672.2094,871.5625 Q671.5219,871.25 670.7719,871.25 Q669.1938,871.25 668.3813,872.5 Q667.5844,873.75 667.5844,876.2188 Q667.5844,878.6875 668.3813,879.9375 Q669.1938,881.1875 670.7719,881.1875 Q671.5219,881.1875 672.2094,880.875 Q672.9125,880.5625 673.6625,879.875 L673.6625,883.0781 Z " fill="#000000"/><text fill="#000000" font-family="sans-serif" font-size="20" lengthAdjust="spacing" textLength="99" x="689.4" y="882.9238">Employee</text><line style="stroke:#4169E1;stroke-width:0.5;" x1="638.5" x2="807.5" y1="893" y2="893"/><text fill="#000000" font-family="sans-serif" font-size="20" lengthAdjust="spacing" textLength="159" x="643.5" y="915.5645">-Agency agency</text><line style="stroke:#4169E1;stroke-width:0.5;" x1="638.5" x2="807.5" y1="924.2813" y2="924.2813"/></g><!--class AnnouncementRepository--><g id="elem_AnnouncementRepository"><rect codeLine="96" fill="#FFDAB9" height="50" id="AnnouncementRepository" rx="2.5" ry="2.5" style="stroke:#4169E1;stroke-width:0.5;" width="294" x="1135" y="378.5"/><ellipse cx="1151" cy="395.5" fill="#ADD1B2" rx="12" ry="12" style="stroke:#181818;stroke-width:1.0;"/><path d="M1154.0625,402.5781 Q1153.375,402.9375 1152.625,403.1094 Q1151.875,403.2813 1151.0469,403.2813 Q1148.0938,403.2813 1146.5313,401.3438 Q1144.9844,399.3906 1144.9844,395.7188 Q1144.9844,392.0469 1146.5313,390.1094 Q1148.0938,388.1563 1151.0469,388.1563 Q1151.875,388.1563 1152.625,388.3281 Q1153.3906,388.5 1154.0625,388.8594 L1154.0625,392.0625 Q1153.3125,391.375 1152.6094,391.0625 Q1151.9219,390.75 1151.1719,390.75 Q1149.5938,390.75 1148.7813,392 Q1147.9844,393.25 1147.9844,395.7188 Q1147.9844,398.1875 1148.7813,399.4375 Q1149.5938,400.6875 1151.1719,400.6875 Q1151.9219,400.6875 1152.6094,400.375 Q1153.3125,400.0625 1154.0625,399.375 L1154.0625,402.5781 Z " fill="#000000"/><text fill="#000000" font-family="sans-serif" font-size="20" lengthAdjust="spacing" textLength="260" x="1166" y="402.4238">AnnouncementRepository</text><line style="stroke:#4169E1;stroke-width:0.5;" x1="1136" x2="1428" y1="412.5" y2="412.5"/><line style="stroke:#4169E1;stroke-width:0.5;" x1="1136" x2="1428" y1="420.5" y2="420.5"/></g><!--class Announcement--><g id="elem_Announcement"><rect codeLine="99" fill="#FFDAB9" height="119.8438" id="Announcement" rx="2.5" ry="2.5" style="stroke:#4169E1;stroke-width:0.5;" width="268" x="1940" y="547.5"/><ellipse cx="1992.5" cy="564.5" fill="#ADD1B2" rx="12" ry="12" style="stroke:#181818;stroke-width:1.0;"/><path d="M1995.5625,571.5781 Q1994.875,571.9375 1994.125,572.1094 Q1993.375,572.2813 1992.5469,572.2813 Q1989.5938,572.2813 1988.0313,570.3438 Q1986.4844,568.3906 1986.4844,564.7188 Q1986.4844,561.0469 1988.0313,559.1094 Q1989.5938,557.1563 1992.5469,557.1563 Q1993.375,557.1563 1994.125,557.3281 Q1994.8906,557.5 1995.5625,557.8594 L1995.5625,561.0625 Q1994.8125,560.375 1994.1094,560.0625 Q1993.4219,559.75 1992.6719,559.75 Q1991.0938,559.75 1990.2813,561 Q1989.4844,562.25 1989.4844,564.7188 Q1989.4844,567.1875 1990.2813,568.4375 Q1991.0938,569.6875 1992.6719,569.6875 Q1993.4219,569.6875 1994.1094,569.375 Q1994.8125,569.0625 1995.5625,568.375 L1995.5625,571.5781 Z " fill="#000000"/><text fill="#000000" font-family="sans-serif" font-size="20" lengthAdjust="spacing" textLength="154" x="2014.5" y="571.4238">Announcement</text><line style="stroke:#4169E1;stroke-width:0.5;" x1="1941" x2="2207" y1="581.5" y2="581.5"/><text fill="#000000" font-family="sans-serif" font-size="20" lengthAdjust="spacing" textLength="256" x="1946" y="604.0645">-Commission commission</text><text fill="#000000" font-family="sans-serif" font-size="20" lengthAdjust="spacing" textLength="105" x="1946" y="627.3457">-Date date</text><text fill="#000000" font-family="sans-serif" font-size="20" lengthAdjust="spacing" textLength="171" x="1946" y="650.627">-Request request</text><line style="stroke:#4169E1;stroke-width:0.5;" x1="1941" x2="2207" y1="659.3438" y2="659.3438"/></g><!--class AuthenticationRepository--><g id="elem_AuthenticationRepository"><rect codeLine="104" fill="#FFDAB9" height="50" id="AuthenticationRepository" rx="2.5" ry="2.5" style="stroke:#4169E1;stroke-width:0.5;" width="289" x="1464.5" y="378.5"/><ellipse cx="1480.5" cy="395.5" fill="#ADD1B2" rx="12" ry="12" style="stroke:#181818;stroke-width:1.0;"/><path d="M1483.5625,402.5781 Q1482.875,402.9375 1482.125,403.1094 Q1481.375,403.2813 1480.5469,403.2813 Q1477.5938,403.2813 1476.0313,401.3438 Q1474.4844,399.3906 1474.4844,395.7188 Q1474.4844,392.0469 1476.0313,390.1094 Q1477.5938,388.1563 1480.5469,388.1563 Q1481.375,388.1563 1482.125,388.3281 Q1482.8906,388.5 1483.5625,388.8594 L1483.5625,392.0625 Q1482.8125,391.375 1482.1094,391.0625 Q1481.4219,390.75 1480.6719,390.75 Q1479.0938,390.75 1478.2813,392 Q1477.4844,393.25 1477.4844,395.7188 Q1477.4844,398.1875 1478.2813,399.4375 Q1479.0938,400.6875 1480.6719,400.6875 Q1481.4219,400.6875 1482.1094,400.375 Q1482.8125,400.0625 1483.5625,399.375 L1483.5625,402.5781 Z " fill="#000000"/><text fill="#000000" font-family="sans-serif" font-size="20" lengthAdjust="spacing" textLength="255" x="1495.5" y="402.4238">AuthenticationRepository</text><line style="stroke:#4169E1;stroke-width:0.5;" x1="1465.5" x2="1752.5" y1="412.5" y2="412.5"/><line style="stroke:#4169E1;stroke-width:0.5;" x1="1465.5" x2="1752.5" y1="420.5" y2="420.5"/></g><!--class Person--><g id="elem_Person"><rect codeLine="107" fill="#FFDAB9" height="166.4063" id="Person" rx="2.5" ry="2.5" style="stroke:#4169E1;stroke-width:0.5;" width="219" x="380.5" y="1063"/><ellipse cx="452" cy="1080" fill="#ADD1B2" rx="12" ry="12" style="stroke:#181818;stroke-width:1.0;"/><path d="M455.0625,1087.0781 Q454.375,1087.4375 453.625,1087.6094 Q452.875,1087.7813 452.0469,1087.7813 Q449.0938,1087.7813 447.5313,1085.8438 Q445.9844,1083.8906 445.9844,1080.2188 Q445.9844,1076.5469 447.5313,1074.6094 Q449.0938,1072.6563 452.0469,1072.6563 Q452.875,1072.6563 453.625,1072.8281 Q454.3906,1073 455.0625,1073.3594 L455.0625,1076.5625 Q454.3125,1075.875 453.6094,1075.5625 Q452.9219,1075.25 452.1719,1075.25 Q450.5938,1075.25 449.7813,1076.5 Q448.9844,1077.75 448.9844,1080.2188 Q448.9844,1082.6875 449.7813,1083.9375 Q450.5938,1085.1875 452.1719,1085.1875 Q452.9219,1085.1875 453.6094,1084.875 Q454.3125,1084.5625 455.0625,1083.875 L455.0625,1087.0781 Z " fill="#000000"/><text fill="#000000" font-family="sans-serif" font-size="20" lengthAdjust="spacing" textLength="67" x="474" y="1086.9238">Person</text><line style="stroke:#4169E1;stroke-width:0.5;" x1="381.5" x2="598.5" y1="1097" y2="1097"/><text fill="#000000" font-family="sans-serif" font-size="20" lengthAdjust="spacing" textLength="101" x="386.5" y="1119.5645">-User user</text><text fill="#000000" font-family="sans-serif" font-size="20" lengthAdjust="spacing" textLength="207" x="386.5" y="1142.8457">-int passportNumber</text><text fill="#000000" font-family="sans-serif" font-size="20" lengthAdjust="spacing" textLength="152" x="386.5" y="1166.127">-int taxNumber</text><text fill="#000000" font-family="sans-serif" font-size="20" lengthAdjust="spacing" textLength="184" x="386.5" y="1189.4082">-int phoneNumber</text><text fill="#000000" font-family="sans-serif" font-size="20" lengthAdjust="spacing" textLength="171" x="386.5" y="1212.6895">-Address address</text><line style="stroke:#4169E1;stroke-width:0.5;" x1="381.5" x2="598.5" y1="1221.4063" y2="1221.4063"/></g><!--class Address--><g id="elem_Address"><rect codeLine="114" fill="#FFDAB9" height="166.4063" id="Address" rx="2.5" ry="2.5" style="stroke:#4169E1;stroke-width:0.5;" width="156" x="660" y="1290"/><ellipse cx="694.9" cy="1307" fill="#ADD1B2" rx="12" ry="12" style="stroke:#181818;stroke-width:1.0;"/><path d="M697.9625,1314.0781 Q697.275,1314.4375 696.525,1314.6094 Q695.775,1314.7813 694.9469,1314.7813 Q691.9938,1314.7813 690.4313,1312.8438 Q688.8844,1310.8906 688.8844,1307.2188 Q688.8844,1303.5469 690.4313,1301.6094 Q691.9938,1299.6563 694.9469,1299.6563 Q695.775,1299.6563 696.525,1299.8281 Q697.2906,1300 697.9625,1300.3594 L697.9625,1303.5625 Q697.2125,1302.875 696.5094,1302.5625 Q695.8219,1302.25 695.0719,1302.25 Q693.4938,1302.25 692.6813,1303.5 Q691.8844,1304.75 691.8844,1307.2188 Q691.8844,1309.6875 692.6813,1310.9375 Q693.4938,1312.1875 695.0719,1312.1875 Q695.8219,1312.1875 696.5094,1311.875 Q697.2125,1311.5625 697.9625,1310.875 L697.9625,1314.0781 Z " fill="#000000"/><text fill="#000000" font-family="sans-serif" font-size="20" lengthAdjust="spacing" textLength="80" x="714.1" y="1313.9238">Address</text><line style="stroke:#4169E1;stroke-width:0.5;" x1="661" x2="815" y1="1324" y2="1324"/><text fill="#000000" font-family="sans-serif" font-size="20" lengthAdjust="spacing" textLength="132" x="666" y="1346.5645">-String street</text><text fill="#000000" font-family="sans-serif" font-size="20" lengthAdjust="spacing" textLength="110" x="666" y="1369.8457">-String city</text><text fill="#000000" font-family="sans-serif" font-size="20" lengthAdjust="spacing" textLength="144" x="666" y="1393.127">-String district</text><text fill="#000000" font-family="sans-serif" font-size="20" lengthAdjust="spacing" textLength="124" x="666" y="1416.4082">-String state</text><text fill="#000000" font-family="sans-serif" font-size="20" lengthAdjust="spacing" textLength="118" x="666" y="1439.6895">-int zipcode</text><line style="stroke:#4169E1;stroke-width:0.5;" x1="661" x2="815" y1="1448.4063" y2="1448.4063"/></g><!--class Commission--><g id="elem_Commission"><rect codeLine="122" fill="#FFDAB9" height="96.5625" id="Commission" rx="2.5" ry="2.5" style="stroke:#4169E1;stroke-width:0.5;" width="196" x="2317" y="847"/><ellipse cx="2350.55" cy="864" fill="#ADD1B2" rx="12" ry="12" style="stroke:#181818;stroke-width:1.0;"/><path d="M2353.6125,871.0781 Q2352.925,871.4375 2352.175,871.6094 Q2351.425,871.7813 2350.5969,871.7813 Q2347.6438,871.7813 2346.0813,869.8438 Q2344.5344,867.8906 2344.5344,864.2188 Q2344.5344,860.5469 2346.0813,858.6094 Q2347.6438,856.6563 2350.5969,856.6563 Q2351.425,856.6563 2352.175,856.8281 Q2352.9406,857 2353.6125,857.3594 L2353.6125,860.5625 Q2352.8625,859.875 2352.1594,859.5625 Q2351.4719,859.25 2350.7219,859.25 Q2349.1438,859.25 2348.3313,860.5 Q2347.5344,861.75 2347.5344,864.2188 Q2347.5344,866.6875 2348.3313,867.9375 Q2349.1438,869.1875 2350.7219,869.1875 Q2351.4719,869.1875 2352.1594,868.875 Q2352.8625,868.5625 2353.6125,867.875 L2353.6125,871.0781 Z " fill="#000000"/><text fill="#000000" font-family="sans-serif" font-size="20" lengthAdjust="spacing" textLength="123" x="2369.45" y="870.9238">Commission</text><line style="stroke:#4169E1;stroke-width:0.5;" x1="2318" x2="2512" y1="881" y2="881"/><text fill="#000000" font-family="sans-serif" font-size="20" lengthAdjust="spacing" textLength="175" x="2323" y="903.5645">-commissionType</text><text fill="#000000" font-family="sans-serif" font-size="20" lengthAdjust="spacing" textLength="184" x="2323" y="926.8457">-commissionValue</text><line style="stroke:#4169E1;stroke-width:0.5;" x1="2318" x2="2512" y1="935.5625" y2="935.5625"/></g><!--class EmailRepository--><g id="elem_EmailRepository"><rect codeLine="126" fill="#FFDAB9" height="50" id="EmailRepository" rx="2.5" ry="2.5" style="stroke:#4169E1;stroke-width:0.5;" width="197" x="2060.5" y="378.5"/><ellipse cx="2076.5" cy="395.5" fill="#ADD1B2" rx="12" ry="12" style="stroke:#181818;stroke-width:1.0;"/><path d="M2079.5625,402.5781 Q2078.875,402.9375 2078.125,403.1094 Q2077.375,403.2813 2076.5469,403.2813 Q2073.5938,403.2813 2072.0313,401.3438 Q2070.4844,399.3906 2070.4844,395.7188 Q2070.4844,392.0469 2072.0313,390.1094 Q2073.5938,388.1563 2076.5469,388.1563 Q2077.375,388.1563 2078.125,388.3281 Q2078.8906,388.5 2079.5625,388.8594 L2079.5625,392.0625 Q2078.8125,391.375 2078.1094,391.0625 Q2077.4219,390.75 2076.6719,390.75 Q2075.0938,390.75 2074.2813,392 Q2073.4844,393.25 2073.4844,395.7188 Q2073.4844,398.1875 2074.2813,399.4375 Q2075.0938,400.6875 2076.6719,400.6875 Q2077.4219,400.6875 2078.1094,400.375 Q2078.8125,400.0625 2079.5625,399.375 L2079.5625,402.5781 Z " fill="#000000"/><text fill="#000000" font-family="sans-serif" font-size="20" lengthAdjust="spacing" textLength="163" x="2091.5" y="402.4238">EmailRepository</text><line style="stroke:#4169E1;stroke-width:0.5;" x1="2061.5" x2="2256.5" y1="412.5" y2="412.5"/><line style="stroke:#4169E1;stroke-width:0.5;" x1="2061.5" x2="2256.5" y1="420.5" y2="420.5"/></g><!--class Date--><g id="elem_Date"><rect codeLine="153" fill="#FFDAB9" height="119.8438" id="Date" rx="2.5" ry="2.5" style="stroke:#4169E1;stroke-width:0.5;" width="154" x="2170" y="1313"/><ellipse cx="2219" cy="1330" fill="#ADD1B2" rx="12" ry="12" style="stroke:#181818;stroke-width:1.0;"/><path d="M2222.0625,1337.0781 Q2221.375,1337.4375 2220.625,1337.6094 Q2219.875,1337.7813 2219.0469,1337.7813 Q2216.0938,1337.7813 2214.5313,1335.8438 Q2212.9844,1333.8906 2212.9844,1330.2188 Q2212.9844,1326.5469 2214.5313,1324.6094 Q2216.0938,1322.6563 2219.0469,1322.6563 Q2219.875,1322.6563 2220.625,1322.8281 Q2221.3906,1323 2222.0625,1323.3594 L2222.0625,1326.5625 Q2221.3125,1325.875 2220.6094,1325.5625 Q2219.9219,1325.25 2219.1719,1325.25 Q2217.5938,1325.25 2216.7813,1326.5 Q2215.9844,1327.75 2215.9844,1330.2188 Q2215.9844,1332.6875 2216.7813,1333.9375 Q2217.5938,1335.1875 2219.1719,1335.1875 Q2219.9219,1335.1875 2220.6094,1334.875 Q2221.3125,1334.5625 2222.0625,1333.875 L2222.0625,1337.0781 Z " fill="#000000"/><text fill="#000000" font-family="sans-serif" font-size="20" lengthAdjust="spacing" textLength="47" x="2241" y="1336.9238">Date</text><line style="stroke:#4169E1;stroke-width:0.5;" x1="2171" x2="2323" y1="1347" y2="1347"/><text fill="#000000" font-family="sans-serif" font-size="20" lengthAdjust="spacing" textLength="83" x="2176" y="1369.5645">-int year</text><text fill="#000000" font-family="sans-serif" font-size="20" lengthAdjust="spacing" textLength="142" x="2176" y="1392.8457">-Month month</text><text fill="#000000" font-family="sans-serif" font-size="20" lengthAdjust="spacing" textLength="76" x="2176" y="1416.127">-int day</text><line style="stroke:#4169E1;stroke-width:0.5;" x1="2171" x2="2323" y1="1424.8438" y2="1424.8438"/></g><!--class Email--><g id="elem_Email"><rect codeLine="158" fill="#FFDAB9" height="143.125" id="Email" rx="2.5" ry="2.5" style="stroke:#4169E1;stroke-width:0.5;" width="171" x="2243.5" y="536"/><ellipse cx="2296" cy="553" fill="#ADD1B2" rx="12" ry="12" style="stroke:#181818;stroke-width:1.0;"/><path d="M2299.0625,560.0781 Q2298.375,560.4375 2297.625,560.6094 Q2296.875,560.7813 2296.0469,560.7813 Q2293.0938,560.7813 2291.5313,558.8438 Q2289.9844,556.8906 2289.9844,553.2188 Q2289.9844,549.5469 2291.5313,547.6094 Q2293.0938,545.6563 2296.0469,545.6563 Q2296.875,545.6563 2297.625,545.8281 Q2298.3906,546 2299.0625,546.3594 L2299.0625,549.5625 Q2298.3125,548.875 2297.6094,548.5625 Q2296.9219,548.25 2296.1719,548.25 Q2294.5938,548.25 2293.7813,549.5 Q2292.9844,550.75 2292.9844,553.2188 Q2292.9844,555.6875 2293.7813,556.9375 Q2294.5938,558.1875 2296.1719,558.1875 Q2296.9219,558.1875 2297.6094,557.875 Q2298.3125,557.5625 2299.0625,556.875 L2299.0625,560.0781 Z " fill="#000000"/><text fill="#000000" font-family="sans-serif" font-size="20" lengthAdjust="spacing" textLength="57" x="2318" y="559.9238">Email</text><line style="stroke:#4169E1;stroke-width:0.5;" x1="2244.5" x2="2413.5" y1="570" y2="570"/><text fill="#000000" font-family="sans-serif" font-size="20" lengthAdjust="spacing" textLength="159" x="2249.5" y="592.5645">-Employee from</text><text fill="#000000" font-family="sans-serif" font-size="20" lengthAdjust="spacing" textLength="100" x="2249.5" y="615.8457">-Person to</text><text fill="#000000" font-family="sans-serif" font-size="20" lengthAdjust="spacing" textLength="147" x="2249.5" y="639.127">-String subject</text><text fill="#000000" font-family="sans-serif" font-size="20" lengthAdjust="spacing" textLength="123" x="2249.5" y="662.4082">-String body</text><line style="stroke:#4169E1;stroke-width:0.5;" x1="2244.5" x2="2413.5" y1="671.125" y2="671.125"/></g><!--class RequestRepository--><g id="elem_RequestRepository"><rect fill="#FFDAB9" height="50" id="RequestRepository" rx="2.5" ry="2.5" style="stroke:#4169E1;stroke-width:0.5;" width="222" x="629" y="378.5"/><ellipse cx="645" cy="395.5" fill="#ADD1B2" rx="12" ry="12" style="stroke:#181818;stroke-width:1.0;"/><path d="M648.0625,402.5781 Q647.375,402.9375 646.625,403.1094 Q645.875,403.2813 645.0469,403.2813 Q642.0938,403.2813 640.5313,401.3438 Q638.9844,399.3906 638.9844,395.7188 Q638.9844,392.0469 640.5313,390.1094 Q642.0938,388.1563 645.0469,388.1563 Q645.875,388.1563 646.625,388.3281 Q647.3906,388.5 648.0625,388.8594 L648.0625,392.0625 Q647.3125,391.375 646.6094,391.0625 Q645.9219,390.75 645.1719,390.75 Q643.5938,390.75 642.7813,392 Q641.9844,393.25 641.9844,395.7188 Q641.9844,398.1875 642.7813,399.4375 Q643.5938,400.6875 645.1719,400.6875 Q645.9219,400.6875 646.6094,400.375 Q647.3125,400.0625 648.0625,399.375 L648.0625,402.5781 Z " fill="#000000"/><text fill="#000000" font-family="sans-serif" font-size="20" lengthAdjust="spacing" textLength="188" x="660" y="402.4238">RequestRepository</text><line style="stroke:#4169E1;stroke-width:0.5;" x1="630" x2="850" y1="412.5" y2="412.5"/><line style="stroke:#4169E1;stroke-width:0.5;" x1="630" x2="850" y1="420.5" y2="420.5"/></g><!--link Store to Store--><g id="link_Store_Store"><path codeLine="167" d="M233.01,385.23 C253.47,387.35 268,393.44 268,403.5 C268,412.7 255.86,418.58 238.15,421.14 " fill="none" id="Store-to-Store" style="stroke:#4169E1;stroke-width:1.0;"/><polygon fill="#4169E1" points="233.01,421.77,242.4326,424.6361,237.9723,421.1568,241.4515,416.6965,233.01,421.77" style="stroke:#4169E1;stroke-width:1.0;"/><text fill="#000000" font-family="sans-serif" font-size="20" lengthAdjust="spacing" textLength="85" x="274" y="410.5645">instance</text></g><!--link Store to UserStore--><g id="link_Store_UserStore"><path codeLine="168" d="M128,475.15 C128,510.13 128,550.48 128,577.12 " fill="none" id="Store-to-UserStore" style="stroke:#4169E1;stroke-width:1.0;"/><polygon fill="#4169E1" points="128,582.26,132,573.26,128,577.26,124,573.26,128,582.26" style="stroke:#4169E1;stroke-width:1.0;"/></g><!--link Store to UserRoleStore--><g id="link_Store_UserRoleStore"><path codeLine="169" d="M172.66,475.25 C192.3,506.38 211,536 211,536 C211,536 234.48,648.84 245.91,703.72 " fill="none" id="Store-to-UserRoleStore" style="stroke:#4169E1;stroke-width:1.0;"/><polygon fill="#4169E1" points="246.97,708.84,249.0358,699.2102,245.9428,703.9466,241.2064,700.8537,246.97,708.84" style="stroke:#4169E1;stroke-width:1.0;"/></g><!--link UserRoleStore to UserRole--><g id="link_UserRoleStore_UserRole"><path codeLine="170" d="M251.46,759.17 C249.98,824.89 246,1002 246,1002 C246,1002 228.98,1051.66 215,1092.46 " fill="none" id="UserRoleStore-to-UserRole" style="stroke:#4169E1;stroke-width:1.0;stroke-dasharray:7.0,7.0;"/><polygon fill="#4169E1" points="213.32,1097.38,220.0132,1090.155,214.9354,1092.6481,212.4422,1087.5703,213.32,1097.38" style="stroke:#4169E1;stroke-width:1.0;"/></g><!--link UserStore to User--><g id="link_UserStore_User"><path codeLine="171" d="M128,632.88 C128,673.55 128,756.84 128,818.57 " fill="none" id="UserStore-to-User" style="stroke:#4169E1;stroke-width:1.0;stroke-dasharray:7.0,7.0;"/><polygon fill="#4169E1" points="128,823.72,132,814.72,128,818.72,124,814.72,128,823.72" style="stroke:#4169E1;stroke-width:1.0;"/></g><!--link User to UserRole--><g id="link_User_UserRole"><path codeLine="172" d="M147.59,967.05 C157.91,1004.23 170.45,1049.37 180.31,1084.88 " fill="none" id="User-to-UserRole" style="stroke:#4169E1;stroke-width:1.0;"/><polygon fill="#4169E1" points="183.81,1097.5,186.0554,1090.6474,180.5935,1085.9391,178.3481,1092.7917,183.81,1097.5" style="stroke:#4169E1;stroke-width:1.0;"/></g><!--link User to Person--><g id="link_User_Person"><path codeLine="175" d="M228.84,965.72 C272.41,995.64 323.76,1030.88 369.34,1062.17 " fill="none" id="User-to-Person" style="stroke:#4169E1;stroke-width:1.0;"/><polygon fill="#4169E1" points="380.19,1069.62,377.5081,1062.9262,370.2977,1062.8273,372.9796,1069.5211,380.19,1069.62" style="stroke:#4169E1;stroke-width:1.0;"/></g><!--link Repositories to Repositories--><g id="link_Repositories_Repositories"><path codeLine="177" d="M1342.23,100.91 C1363.22,105.19 1377,113.22 1377,125 C1377,135.77 1365.48,143.4 1347.48,147.9 " fill="none" id="Repositories-to-Repositories" style="stroke:#4169E1;stroke-width:1.0;"/><polygon fill="#4169E1" points="1342.23,149.09,1351.89,151.0094,1347.1072,147.9887,1350.1279,143.2059,1342.23,149.09" style="stroke:#4169E1;stroke-width:1.0;"/><text fill="#000000" font-family="sans-serif" font-size="20" lengthAdjust="spacing" textLength="85" x="1383" y="132.0645">instance</text></g><!--link Repositories to AgencyRepository--><g id="link_Repositories_AgencyRepository"><path codeLine="178" d="M1096.66,243.26 C1065.34,291.38 1031.75,342.97 1011.56,373.98 " fill="none" id="Repositories-to-AgencyRepository" style="stroke:#4169E1;stroke-width:1.0;"/><polygon fill="#4169E1" points="1008.68,378.41,1016.9457,373.0549,1011.4105,374.2214,1010.2439,368.6861,1008.68,378.41" style="stroke:#4169E1;stroke-width:1.0;"/></g><!--link Repositories to PersonRepository--><g id="link_Repositories_PersonRepository"><path codeLine="179" d="M1003.92,173.02 C838.74,218.95 612,282 612,282 C612,282 554.28,339.01 518.24,374.6 " fill="none" id="Repositories-to-PersonRepository" style="stroke:#4169E1;stroke-width:1.0;"/><polygon fill="#4169E1" points="514.4,378.4,523.6136,374.9202,517.9569,374.886,517.9912,369.2292,514.4,378.4" style="stroke:#4169E1;stroke-width:1.0;"/></g><!--link Repositories to AnnouncementRepository--><g id="link_Repositories_AnnouncementRepository"><path codeLine="180" d="M1219.23,243.26 C1238.12,291.18 1258.37,342.55 1270.61,373.6 " fill="none" id="Repositories-to-AnnouncementRepository" style="stroke:#4169E1;stroke-width:1.0;"/><polygon fill="#4169E1" points="1272.5,378.41,1272.9079,368.5696,1270.6603,373.7608,1265.4691,371.5132,1272.5,378.41" style="stroke:#4169E1;stroke-width:1.0;"/></g><!--link Repositories to AuthenticationRepository--><g id="link_Repositories_AuthenticationRepository"><path codeLine="181" d="M1342.24,222.36 C1398.46,254.36 1447,282 1447,282 C1447,282 1524.58,339.7 1572.36,375.25 " fill="none" id="Repositories-to-AuthenticationRepository" style="stroke:#4169E1;stroke-width:1.0;"/><polygon fill="#4169E1" points="1576.61,378.4,1571.7903,369.811,1572.6031,375.4092,1567.005,376.222,1576.61,378.4" style="stroke:#4169E1;stroke-width:1.0;"/></g><!--link Repositories to EmailRepository--><g id="link_Repositories_EmailRepository"><path codeLine="182" d="M1342.36,170.18 C1519.18,216.31 1771,282 1771,282 C1771,282 1962.45,341.46 2076.39,376.84 " fill="none" id="Repositories-to-EmailRepository" style="stroke:#4169E1;stroke-width:1.0;"/><polygon fill="#4169E1" points="2081.41,378.4,2074.0061,371.9052,2076.6361,376.9135,2071.6277,379.5435,2081.41,378.4" style="stroke:#4169E1;stroke-width:1.0;"/></g><!--link Repositories to RequestRepository--><g id="link_Repositories_RequestRepository"><path codeLine="183" d="M1003.67,212.89 C933.86,248.72 869,282 869,282 C869,282 807.97,339.01 769.86,374.6 " fill="none" id="Repositories-to-RequestRepository" style="stroke:#4169E1;stroke-width:1.0;"/><polygon fill="#4169E1" points="765.8,378.4,775.1083,375.1821,769.4548,374.9879,769.649,369.3344,765.8,378.4" style="stroke:#4169E1;stroke-width:1.0;"/></g><!--link AgencyRepository to Agency--><g id="link_AgencyRepository_Agency"><path codeLine="186" d="M986.25,428.66 C955,540.45 826,1002 826,1002 C826,1002 814.73,1028 801.79,1057.83 " fill="none" id="AgencyRepository-to-Agency" style="stroke:#4169E1;stroke-width:1.0;stroke-dasharray:7.0,7.0;"/><polygon fill="#4169E1" points="799.71,1062.64,806.9569,1055.9705,801.6968,1058.0517,799.6157,1052.7916,799.71,1062.64" style="stroke:#4169E1;stroke-width:1.0;"/></g><!--reverse link Agency to Address--><g id="link_Agency_Address"><path codeLine="187" d="M752.99,1242.28 C751.17,1258.04 749.29,1274.26 747.51,1289.66 " fill="none" id="Agency-backto-Address" style="stroke:#4169E1;stroke-width:1.0;"/><polygon fill="#4169E1" points="754.5,1229.19,749.8405,1234.6935,753.1285,1241.1114,757.788,1235.6078,754.5,1229.19" style="stroke:#4169E1;stroke-width:1.0;"/></g><!--reverse link Announcement to Commission--><g id="link_Announcement_Commission"><path codeLine="188" d="M2212.89,673.12 C2254.84,692.64 2290,709 2290,709 C2290,709 2345.77,791.77 2382.81,846.73 " fill="none" id="Announcement-backto-Commission" style="stroke:#4169E1;stroke-width:1.0;"/><polygon fill="#4169E1" points="2200.9,667.54,2204.6517,673.6983,2211.7792,672.6038,2208.0276,666.4455,2200.9,667.54" style="stroke:#4169E1;stroke-width:1.0;"/></g><!--reverse link Announcement to Date--><g id="link_Announcement_Date"><path codeLine="189" d="M2132.99,677.64 C2176.44,728.57 2228,789 2228,789 C2228,789 2240.24,1164.67 2245.07,1312.89 " fill="none" id="Announcement-backto-Date" style="stroke:#4169E1;stroke-width:1.0;"/><polygon fill="#4169E1" points="2124.43,667.6,2125.2849,674.7602,2132.2232,676.725,2131.3683,669.5648,2124.43,667.6" style="stroke:#4169E1;stroke-width:1.0;"/></g><!--reverse link Request to Property--><g id="link_Request_Property"><path codeLine="190" d="M845.4,683.62 C897.82,715.79 959.97,753.94 1016.9,788.87 " fill="none" id="Request-backto-Property" style="stroke:#4169E1;stroke-width:1.0;"/><polygon fill="#4169E1" points="834.03,676.64,837.053,683.1869,844.2589,682.9145,841.236,676.3676,834.03,676.64" style="stroke:#4169E1;stroke-width:1.0;"/></g><!--reverse link Request to Employee--><g id="link_Request_Employee"><path codeLine="191" d="M723,692.23 C723,747.65 723,817.5 723,858.94 " fill="none" id="Request-backto-Employee" style="stroke:#4169E1;stroke-width:1.0;"/><polygon fill="#4169E1" points="723,679.2,719,685.2,723,691.2,727,685.2,723,679.2" style="stroke:#4169E1;stroke-width:1.0;"/></g><!--reverse link Request to Person--><g id="link_Request_Person"><path codeLine="192" d="M676.24,690.45 C649.01,738.16 620,789 620,789 C620,789 558.38,957.74 519.99,1062.88 " fill="none" id="Request-backto-Person" style="stroke:#4169E1;stroke-width:1.0;"/><polygon fill="#4169E1" points="682.73,679.06,676.2815,682.2875,676.7806,689.4814,683.2291,686.2538,682.73,679.06" style="stroke:#4169E1;stroke-width:1.0;"/></g><!--reverse link Request to Date--><g id="link_Request_Date"><path codeLine="193" d="M846.77,641.16 C1043.86,693.17 1407,789 1407,789 C1407,789 1848,1063 1848,1063 C1848,1063 2034,1229 2034,1229 C2034,1229 2152,1290 2152,1290 C2152,1290 2163.48,1299.91 2178.46,1312.84 " fill="none" id="Request-backto-Date" style="stroke:#4169E1;stroke-width:1.0;"/><polygon fill="#4169E1" points="834.04,637.8,838.8221,643.1974,845.6435,640.8591,840.8615,635.4617,834.04,637.8" style="stroke:#4169E1;stroke-width:1.0;"/></g><!--reverse link Deal to Sale--><g id="link_Deal_Sale"><path codeLine="194" d="M1678.48,1204.04 C1747.99,1241.28 1837.68,1289.33 1903.31,1324.49 " fill="none" id="Deal-backto-Sale" style="stroke:#4169E1;stroke-width:1.0;"/><polygon fill="none" points="1675.14,1210.19,1660.81,1194.58,1681.75,1197.85,1675.14,1210.19" style="stroke:#4169E1;stroke-width:1.0;"/></g><!--reverse link Deal to Rent--><g id="link_Deal_Rent"><path codeLine="195" d="M1574.41,1214.79 C1575.52,1245.98 1576.82,1282.65 1577.89,1312.73 " fill="none" id="Deal-backto-Rent" style="stroke:#4169E1;stroke-width:1.0;"/><polygon fill="none" points="1567.41,1214.95,1573.7,1194.72,1581.4,1214.46,1567.41,1214.95" style="stroke:#4169E1;stroke-width:1.0;"/></g><!--reverse link Property to Deal--><g id="link_Property_Deal"><path codeLine="196" d="M1362.83,1009.28 C1410.58,1040.26 1459.8,1072.2 1498.49,1097.31 " fill="none" id="Property-backto-Deal" style="stroke:#4169E1;stroke-width:1.0;"/><polygon fill="#4169E1" points="1351.7,1002.07,1354.5504,1008.6938,1361.761,1008.6103,1358.9106,1001.9865,1351.7,1002.07" style="stroke:#4169E1;stroke-width:1.0;"/></g><!--reverse link Property to Land--><g id="link_Property_Land"><path codeLine="197" d="M1409.23,964.28 C1558.97,1010.36 1730,1063 1730,1063 C1730,1063 1754.21,1096.65 1771.62,1120.84 " fill="none" id="Property-backto-Land" style="stroke:#4169E1;stroke-width:1.0;"/><polygon fill="none" points="1406.74,970.84,1389.68,958.26,1410.85,957.45,1406.74,970.84" style="stroke:#4169E1;stroke-width:1.0;"/></g><!--reverse link Property to Home--><g id="link_Property_Home"><path codeLine="198" d="M1189,1022.32 C1189,1040.16 1189,1057.95 1189,1074.23 " fill="none" id="Property-backto-Home" style="stroke:#4169E1;stroke-width:1.0;"/><polygon fill="none" points="1182,1022.25,1189,1002.25,1196,1022.25,1182,1022.25" style="stroke:#4169E1;stroke-width:1.0;"/></g><!--reverse link Property to Address--><g id="link_Property_Address"><path codeLine="199" d="M1035.64,1009.99 C995.88,1039.41 964,1063 964,1063 C964,1063 893,1229 893,1229 C893,1229 854.85,1264.19 816.41,1299.66 " fill="none" id="Property-backto-Address" style="stroke:#4169E1;stroke-width:1.0;"/><polygon fill="#4169E1" points="1046.19,1002.18,1038.9876,1002.5341,1036.5443,1009.3186,1043.7467,1008.9646,1046.19,1002.18" style="stroke:#4169E1;stroke-width:1.0;"/></g><!--reverse link Home to House--><g id="link_Home_House"><path codeLine="200" d="M1186.17,1237.82 C1185.39,1263.02 1184.56,1289.74 1183.85,1312.64 " fill="none" id="Home-backto-House" style="stroke:#4169E1;stroke-width:1.0;"/><polygon fill="none" points="1179.19,1237.35,1186.8,1217.57,1193.18,1237.78,1179.19,1237.35" style="stroke:#4169E1;stroke-width:1.0;"/></g><!--reverse link Home to Appartement--><g id="link_Home_Appartement"><path codeLine="201" d="M1094.29,1230.9 C1047.16,1272.65 993.67,1320.03 962.22,1347.89 " fill="none" id="Home-backto-Appartement" style="stroke:#4169E1;stroke-width:1.0;"/><polygon fill="none" points="1089.72,1225.6,1109.33,1217.57,1099,1236.08,1089.72,1225.6" style="stroke:#4169E1;stroke-width:1.0;"/></g><!--link PersonRepository to Person--><g id="link_PersonRepository_Person"><path codeLine="203" d="M490,428.72 C490,525.62 490,888.36 490,1057.35 " fill="none" id="PersonRepository-to-Person" style="stroke:#4169E1;stroke-width:1.0;stroke-dasharray:7.0,7.0;"/><polygon fill="#4169E1" points="490,1062.78,494,1053.78,490,1057.78,486,1053.78,490,1062.78" style="stroke:#4169E1;stroke-width:1.0;"/></g><!--link Person to Person--><g id="link_Person_Person"><path codeLine="204" d="M599.64,1126.08 C620.09,1128.53 634.5,1135.17 634.5,1146 C634.5,1154.37 625.88,1160.24 612.51,1163.61 " fill="none" id="Person-to-Person" style="stroke:#4169E1;stroke-width:1.0;"/><polygon fill="#4169E1" points="599.64,1165.92,606.2534,1168.7945,611.4504,1163.7954,604.837,1160.9209,599.64,1165.92" style="stroke:#4169E1;stroke-width:1.0;"/></g><!--link Employee to Person--><g id="link_Employee_Person"><path codeLine="207" d="M690.48,932.01 C653.45,972.45 598,1033 598,1033 C598,1033 592.3,1038.91 583.53,1048.01 " fill="none" id="Employee-to-Person" style="stroke:#4169E1;stroke-width:1.0;"/><polygon fill="none" points="588.26,1053.18,569.34,1062.72,578.19,1043.46,588.26,1053.18" style="stroke:#4169E1;stroke-width:1.0;"/></g><!--reverse link Employee to Agency--><g id="link_Employee_Agency"><path codeLine="208" d="M731.04,945.2 C736.55,978.63 744,1023.8 750.43,1062.75 " fill="none" id="Employee-backto-Agency" style="stroke:#4169E1;stroke-width:1.0;"/><polygon fill="#4169E1" points="728.87,932.1,725.8989,938.6706,730.8214,943.9403,733.7925,937.3697,728.87,932.1" style="stroke:#4169E1;stroke-width:1.0;"/></g><!--link AnnouncementRepository to Announcement--><g id="link_AnnouncementRepository_Announcement"><path codeLine="211" d="M1338.32,428.56 C1386.12,448.99 1447,475 1447,475 C1447,475 1749.99,538.55 1934.72,577.29 " fill="none" id="AnnouncementRepository-to-Announcement" style="stroke:#4169E1;stroke-width:1.0;stroke-dasharray:7.0,7.0;"/><polygon fill="#4169E1" points="1939.88,578.37,1931.8937,572.6064,1934.9866,577.3428,1930.2502,580.4358,1939.88,578.37" style="stroke:#4169E1;stroke-width:1.0;"/></g><!--link Announcement to Orders--><g id="link_Announcement_Orders"><path codeLine="212" d="M2074,667.76 C2074,725.35 2074,810.93 2074,858.78 " fill="none" id="Announcement-Orders" style="stroke:#4169E1;stroke-width:1.0;"/><text fill="#000000" font-family="sans-serif" font-size="20" lengthAdjust="spacing" textLength="13" x="2060.3297" y="693.7473">1</text><text fill="#000000" font-family="sans-serif" font-size="20" lengthAdjust="spacing" textLength="13" x="2059.9234" y="846.358">1</text></g><!--link Orders to Order--><g id="link_Orders_Order"><path codeLine="213" d="M2081.02,932.1 C2089.57,975.45 2104.04,1048.84 2113.56,1097.11 " fill="none" id="Orders-Order" style="stroke:#4169E1;stroke-width:1.0;"/><text fill="#000000" font-family="sans-serif" font-size="20" lengthAdjust="spacing" textLength="13" x="2068.1094" y="958.9316">1</text><text fill="#000000" font-family="sans-serif" font-size="20" lengthAdjust="spacing" textLength="10" x="2101.6196" y="1084.6078">*</text></g><!--link RequestRepository to Request--><g id="link_RequestRepository_Request"><path codeLine="216" d="M737.95,428.87 C735.84,453.97 732.43,494.4 729.41,530.34 " fill="none" id="RequestRepository-to-Request" style="stroke:#4169E1;stroke-width:1.0;stroke-dasharray:7.0,7.0;"/><polygon fill="#4169E1" points="728.97,535.61,733.7261,526.9856,729.3982,530.6284,725.7555,526.3005,728.97,535.61" style="stroke:#4169E1;stroke-width:1.0;"/></g><!--reverse link Order to Date--><g id="link_Order_Date"><path codeLine="217" d="M2155.75,1206.43 C2173.85,1239.26 2196.25,1279.92 2214.33,1312.73 " fill="none" id="Order-backto-Date" style="stroke:#4169E1;stroke-width:1.0;"/><polygon fill="#4169E1" points="2149.3,1194.72,2148.6911,1201.9054,2155.0896,1205.231,2155.6985,1198.0456,2149.3,1194.72" style="stroke:#4169E1;stroke-width:1.0;"/></g><!--link EmailRepository to Email--><g id="link_EmailRepository_Email"><path codeLine="221" d="M2179.51,428.87 C2200.89,454.28 2235.49,495.39 2266.02,531.67 " fill="none" id="EmailRepository-to-Email" style="stroke:#4169E1;stroke-width:1.0;stroke-dasharray:7.0,7.0;"/><polygon fill="#4169E1" points="2269.34,535.61,2266.5785,526.1562,2266.1096,531.7936,2260.4723,531.3248,2269.34,535.61" style="stroke:#4169E1;stroke-width:1.0;"/></g><!--reverse link Person to Address--><g id="link_Person_Address"><path codeLine="224" d="M590.43,1238.12 C613.59,1259.13 637.88,1281.17 659.92,1301.16 " fill="none" id="Person-backto-Address" style="stroke:#4169E1;stroke-width:1.0;"/><polygon fill="#4169E1" points="580.59,1229.19,582.3488,1236.1833,589.4806,1237.2496,587.7218,1230.2563,580.59,1229.19" style="stroke:#4169E1;stroke-width:1.0;"/></g><!--SRC=[TLTBRziu4BxhLn2zn4dNGTjZK0HmqWGDa6uDUxjtMXhRtCYaIbARgAx_UuSlaQ9a7sBpc-6y7unwORoXaXvgKRv0HIhOqhRMZuBhDVi5vDE7ua857d8GN9HxAGv0j6oXY9I6bYzq1slTrK0ab9hoNPqog3sjn2lZExAbjKefDUEWkmP88-hE75ADFL58BOhaLbbJfHPQIxPfDJoLWbjxqTnv-3moj4Lf8tFNWxa8SYm8VkxG_fqKBQ_kHIqaMG8jzyjskxNKXPJYrH5MegFrNOtEssj2LY1pogcug66hYHP4ijrUaugPa331Yy8fNK4Z5DD2Cb3EW7aApIujzdu7-eahZ6K9iqjoCxZMSonsmCkk9tN9vIL89VWaQS4vUbl20RYUPcZr7ccifCRmIPQ70sNr96K5FrjGGy4dx_jt4xBWDKQMTizCQVBPuhV4HbGDkJtp5wg1LFZ77IlHRZ33ZMGb5Fs5F1pkRaRsMP-liNwm95arE5QWs8vRlntEk2RDNd3ukpriG0wOmGHXKLKIbCl9dFWJeHuzzLctKV6woLAA1gJkq0Ftm-CFXwOM7G2ATZy2lysc__9O3CcfAEX6QKbBxIixo0_wWBVOg1WpLlQqVx2tFDc7aqgWJ_pRfo5QCLU6ZzZyzqntzrWQ8H0aIQ8Bogs9bXO_Lizd8kAD1rfZi6djwgOtQfPQTzCa1rD5cPTVSHeTOvgupT3txHrKKeY3cg1GlJz3MbA9qs6tnca6e_eChj7_CU4KW_BmisMDwPy-mLz5gu8nP2D43PIJ3LMsopAOyJtTC6q4FOjjeFgYKYr_UCCARYN4ocrmR6ahAglfPyghOp4EZOtlLFODeS_yUtkS1UocyZzYnwufLi1nM10XAqlRVKvEYQMZmN3F1kJBf0EuFYDe5KDaKe83tRhofPMn4OCAmpjBB_urueywyo5uZBCYT5eOHcusKFiLupuvAHCfAKDmxbuS3amfD0Gj2pz7FUlEVYpWshJVKUwP2PoeThu5fJyKI88LA9CuDiZMuF9C9vSbQFesmaOpxkme2_Wngrij0R9QBba_sS9ynNx2kiXhNiUG66D-iQOKbHriJcUCQT0QGvlCiGZ-Izqs3iaUR2iRHVzi8GzlECquhP_PHbApNQzDyF4q_tZzmMbpGao8rtZTz8E5Jman48Z_p2qGjhb51Xjz0FUI9_2LW3gbdJAB4fLs7SMZIVyhhjI8S7g0U7BIiGrR_sDIlY5O_HDE1tfY0wj8FE0oBILh-Xu-zGanVN1C4ju13MNt3RjvRvwRUfymLBGRPlEORymjhgVXjiHNOpPPD_z1NdeRKHd9HN5njX0Abzpv_DQd-GPDSebCI7qICwmFO34uaUlhI2zYRGMOM0obN4Mk2x__8ybxMXJfyz2g7W29mIF6_D4qviYdw8ICoJavmNTch8qviuwTyYzxPc86HwxaW8sk0psDNCtxILUaRbX273jZcYdX8inl0uINom0CvJdaT6bC8IlDBktFl_5e5cboj0koVpDQVlDqwX7BP9u26MGUICDxmLL32JpO_yavUMk4WaiYcWCsejuVNuonBarJUVyJ4Nt7pkU_-xizQ8rq6SA4JjVLDEoIcv26ENltyHrgj5_ktv32VVM4Aqz0lUFY6Y5McqUTf9X7u_QmV8iCiBSjXfF7norDpny0]--></g></svg>