<?xml version="1.0" encoding="UTF-8" standalone="no"?><svg xmlns="http://www.w3.org/2000/svg" xmlns:xlink="http://www.w3.org/1999/xlink" contentStyleType="text/css" height="554px" preserveAspectRatio="none" style="width:501px;height:554px;background:#FFFFFF;" version="1.1" viewBox="0 0 501 554" width="501px" zoomAndPan="magnify"><defs/><g><text fill="#000000" font-family="sans-serif" font-size="14" font-weight="bold" lengthAdjust="spacing" textLength="41" x="223.25" y="22.9951">US03</text><!--class SA--><g id="elem_SA"><rect codeLine="16" fill="#F1F1F1" height="41.2813" id="SA" rx="2.5" ry="2.5" style="stroke:#181818;stroke-width:0.5;" width="224" x="14.5" y="125.7969"/><text fill="#000000" font-family="sans-serif" font-size="20" lengthAdjust="spacing" textLength="218" x="17.5" y="149.3613">System Administrator</text><line style="stroke:#181818;stroke-width:0.5;" x1="15.5" x2="237.5" y1="159.0781" y2="159.0781"/></g><!--class Employee--><g id="elem_Employee"><rect codeLine="20" fill="#F1F1F1" height="87.8438" id="Employee" rx="2.5" ry="2.5" style="stroke:#181818;stroke-width:0.5;" width="204" x="156.5" y="333.2969"/><text fill="#000000" font-family="sans-serif" font-size="20" lengthAdjust="spacing" textLength="99" x="209" y="356.8613">Employee</text><line style="stroke:#181818;stroke-width:0.5;" x1="157.5" x2="359.5" y1="366.5781" y2="366.5781"/><text fill="#000000" font-family="sans-serif" font-size="20" lengthAdjust="spacing" textLength="192" x="162.5" y="389.1426">agencyDesignation</text><text fill="#000000" font-family="sans-serif" font-size="20" lengthAdjust="spacing" textLength="38" x="162.5" y="412.4238">role</text></g><!--class User--><g id="elem_User"><rect codeLine="25" fill="#F1F1F1" height="204.25" id="User" rx="2.5" ry="2.5" style="stroke:#181818;stroke-width:0.5;" width="214" x="280.5" y="44.2969"/><text fill="#000000" font-family="sans-serif" font-size="20" lengthAdjust="spacing" textLength="45" x="365" y="67.8613">User</text><line style="stroke:#181818;stroke-width:0.5;" x1="281.5" x2="493.5" y1="77.5781" y2="77.5781"/><text fill="#000000" font-family="sans-serif" font-size="20" lengthAdjust="spacing" textLength="64" x="286.5" y="100.1426">-name</text><text fill="#000000" font-family="sans-serif" font-size="20" lengthAdjust="spacing" textLength="202" x="286.5" y="123.4238">-citizenCardNumber</text><text fill="#000000" font-family="sans-serif" font-size="20" lengthAdjust="spacing" textLength="119" x="286.5" y="146.7051">-taxNumber</text><text fill="#000000" font-family="sans-serif" font-size="20" lengthAdjust="spacing" textLength="85" x="286.5" y="169.9863">-address</text><text fill="#000000" font-family="sans-serif" font-size="20" lengthAdjust="spacing" textLength="63" x="286.5" y="193.2676">-email</text><text fill="#000000" font-family="sans-serif" font-size="20" lengthAdjust="spacing" textLength="151" x="286.5" y="216.5488">-phoneNumber</text><text fill="#000000" font-family="sans-serif" font-size="20" lengthAdjust="spacing" textLength="102" x="286.5" y="239.8301">-password</text></g><!--class NM--><g id="elem_NM"><rect codeLine="35" fill="#F1F1F1" height="41.2813" id="NM" rx="2.5" ry="2.5" style="stroke:#181818;stroke-width:0.5;" width="183" x="7" y="506.2969"/><text fill="#000000" font-family="sans-serif" font-size="20" lengthAdjust="spacing" textLength="177" x="10" y="529.8613">Network Manager</text><line style="stroke:#181818;stroke-width:0.5;" x1="8" x2="189" y1="539.5781" y2="539.5781"/></g><!--class Agent--><g id="elem_Agent"><rect codeLine="38" fill="#F1F1F1" height="41.2813" id="Agent" rx="2.5" ry="2.5" style="stroke:#181818;stroke-width:0.5;" width="66" x="225.5" y="506.2969"/><text fill="#000000" font-family="sans-serif" font-size="20" lengthAdjust="spacing" textLength="60" x="228.5" y="529.8613">Agent</text><line style="stroke:#181818;stroke-width:0.5;" x1="226.5" x2="290.5" y1="539.5781" y2="539.5781"/></g><!--class SM--><g id="elem_SM"><rect codeLine="41" fill="#F1F1F1" height="41.2813" id="SM" rx="2.5" ry="2.5" style="stroke:#181818;stroke-width:0.5;" width="152" x="326.5" y="506.2969"/><text fill="#000000" font-family="sans-serif" font-size="20" lengthAdjust="spacing" textLength="146" x="329.5" y="529.8613">Store Manager</text><line style="stroke:#181818;stroke-width:0.5;" x1="327.5" x2="477.5" y1="539.5781" y2="539.5781"/></g><!--link SA to Employee--><g id="link_SA_Employee"><path codeLine="45" d="M118.49,167.0069 C107.12,198.3969 90.41,260.5569 116.5,303.2969 C126.18,319.1469 140.51,331.7069 156.41,341.6069 " fill="none" id="SA-Employee" style="stroke:#181818;stroke-width:1.0;"/><polygon fill="#000000" points="126.1979,298.7553,127.7215,283.6148,118.5312,285.6108,126.1979,298.7553" style="stroke:#000000;stroke-width:1.0;"/><text fill="#000000" font-family="sans-serif" font-size="20" lengthAdjust="spacing" textLength="77" x="137.5" y="297.8613">register</text><text fill="#000000" font-family="sans-serif" font-size="20" lengthAdjust="spacing" textLength="13" x="97.1593" y="193.8251">1</text><text fill="#000000" font-family="sans-serif" font-size="20" lengthAdjust="spacing" textLength="35" x="113.375" y="334.0154">1..*</text></g><!--link Employee to SA--><g id="link_Employee_SA"><path codeLine="47" d="M243.76,332.8369 C237.21,315.4569 228.86,295.5069 219.5,278.2969 C196.72,236.3969 162.87,192.0269 142.91,167.1769 " fill="none" id="Employee-SA" style="stroke:#181818;stroke-width:1.0;"/><polygon fill="#000000" points="234.34,284.1042,237.849,298.911,245.882,294.0206,234.34,284.1042" style="stroke:#000000;stroke-width:1.0;"/><text fill="#000000" font-family="sans-serif" font-size="20" lengthAdjust="spacing" textLength="67" x="251.5" y="297.8613">can be</text><text fill="#000000" font-family="sans-serif" font-size="20" lengthAdjust="spacing" textLength="13" x="223.9763" y="320.5627">1</text><text fill="#000000" font-family="sans-serif" font-size="20" lengthAdjust="spacing" textLength="35" x="164.6381" y="193.634">1..*</text></g><!--reverse link User to Employee--><g id="link_User_Employee"><path codeLine="46" d="M365.9,267.7369 C361.2,280.2369 355.47,292.3469 348.5,303.2969 C341.58,314.1569 332.5,324.1469 322.76,333.0269 " fill="none" id="User-backto-Employee" style="stroke:#181818;stroke-width:1.0;"/><polygon fill="none" points="359.32,265.3469,372.28,248.5769,372.6,269.7669,359.32,265.3469" style="stroke:#181818;stroke-width:1.0;"/><text fill="#000000" font-family="sans-serif" font-size="20" lengthAdjust="spacing" textLength="34" x="361.5" y="297.8613">is a</text></g><!--link Employee to Agent--><g id="link_Employee_Agent"><path codeLine="48" d="M258.5,421.3569 C258.5,449.4169 258.5,484.6969 258.5,506.2269 " fill="none" id="Employee-Agent" style="stroke:#181818;stroke-width:1.0;"/><polygon fill="#000000" points="266.5,471.9375,271.2023,457.4654,261.7977,457.4654,266.5,471.9375" style="stroke:#000000;stroke-width:1.0;"/><text fill="#000000" font-family="sans-serif" font-size="20" lengthAdjust="spacing" textLength="67" x="279.5" y="470.8613">can be</text><text fill="#000000" font-family="sans-serif" font-size="20" lengthAdjust="spacing" textLength="13" x="244.5859" y="447.7652">1</text><text fill="#000000" font-family="sans-serif" font-size="20" lengthAdjust="spacing" textLength="35" x="219.0156" y="493.5734">1..*</text></g><!--link Employee to SM--><g id="link_Employee_SM"><path codeLine="49" d="M322.64,421.3269 C334.23,430.5169 345.72,440.6769 355.5,451.2969 C370.83,467.9469 384.15,490.2469 392.65,506.0969 " fill="none" id="Employee-SM" style="stroke:#181818;stroke-width:1.0;"/><polygon fill="#000000" points="387.5943,470.1058,382.0043,455.9529,374.753,461.9416,387.5943,470.1058" style="stroke:#000000;stroke-width:1.0;"/><text fill="#000000" font-family="sans-serif" font-size="20" lengthAdjust="spacing" textLength="67" x="395.5" y="470.8613">can be</text><text fill="#000000" font-family="sans-serif" font-size="20" lengthAdjust="spacing" textLength="13" x="317.7456" y="447.731">1</text><text fill="#000000" font-family="sans-serif" font-size="20" lengthAdjust="spacing" textLength="35" x="350.6416" y="493.4101">1..*</text></g><!--link Employee to NM--><g id="link_Employee_NM"><path codeLine="50" d="M196.79,421.4669 C184.68,430.8269 172.38,441.0169 161.5,451.2969 C143.4,468.3969 125.31,490.4269 113.19,506.0769 " fill="none" id="Employee-NM" style="stroke:#181818;stroke-width:1.0;"/><polygon fill="#000000" points="163.8772,469.6282,177.3939,462.6386,170.704,456.0286,163.8772,469.6282" style="stroke:#000000;stroke-width:1.0;"/><text fill="#000000" font-family="sans-serif" font-size="20" lengthAdjust="spacing" textLength="67" x="182.5" y="470.8613">can be</text><text fill="#000000" font-family="sans-serif" font-size="20" lengthAdjust="spacing" textLength="13" x="174.6243" y="447.5414">1</text><text fill="#000000" font-family="sans-serif" font-size="20" lengthAdjust="spacing" textLength="35" x="77.4699" y="493.385">1..*</text></g><!--SRC=[ZL7BQiCm4BphAnPV2eMOfBs5KWXzG0_9nUG3DjB65jR3I1lIzF7ltJXkuXmArMardfcTaNDhGuS9lOkw9GE6jhXp_1e3L_Q3u6wgyYy5V0nHDobw0aux6dtfKBTOKyK7Hv18CuRQZGcvGHFtDjImHPT9gHj7MmQEa6pTC1XxLDaOr4Ya7UQyO4vsisDwqp7qcQPADTOGQ9kqBEbdJzn4avLYon9XNKtlbPpU0Ohga9ayB8otmMPEo34LW1cg1NmgzVrBVF6TYmSY0G502WLzUAPiwu1zDW4XHTbvLgmpfHCR9X3Gqp1gon8rF64ogvtVK1fmnlUhEngJAEVXHXwj6-QkYO76t4xsxMCob-N5YbYG5fOO9EofqcefUSwKXNJWCL1Kqfsk5DMWKAKyHm7zcHKmcK0nAylR0ihpkypbvzRoWbBwKPLz-OSl8OuPDWEg2p0ONZnbEBdAjZbe3B2Xezj5SRtyLE4lveWeFVxZjnhJVW00]--></g></svg>