<?xml version="1.0" encoding="UTF-8" standalone="no"?><svg xmlns="http://www.w3.org/2000/svg" xmlns:xlink="http://www.w3.org/1999/xlink" contentStyleType="text/css" height="862px" preserveAspectRatio="none" style="width:674px;height:862px;background:#FFFFFF;" version="1.1" viewBox="0 0 674 862" width="674px" zoomAndPan="magnify"><defs/><g><!--class Property--><g id="elem_Property"><rect codeLine="17" fill="#FFDAB9" height="180.9688" id="Property" rx="2.5" ry="2.5" style="stroke:#4169E1;stroke-width:0.5;" width="270" x="81.25" y="259"/><text fill="#000000" font-family="sans-serif" font-size="20" lengthAdjust="spacing" textLength="84" x="174.25" y="282.5645">Property</text><line style="stroke:#4169E1;stroke-width:0.5;" x1="82.25" x2="350.25" y1="292.2813" y2="292.2813"/><rect fill="none" height="6" style="stroke:#C82930;stroke-width:1.0;" width="6" x="89.25" y="306.4219"/><text fill="#000000" font-family="sans-serif" font-size="20" lengthAdjust="spacing" textLength="44" x="102.25" y="314.8457">type</text><rect fill="none" height="6" style="stroke:#C82930;stroke-width:1.0;" width="6" x="89.25" y="329.7031"/><text fill="#000000" font-family="sans-serif" font-size="20" lengthAdjust="spacing" textLength="44" x="102.25" y="338.127">area</text><rect fill="none" height="6" style="stroke:#C82930;stroke-width:1.0;" width="6" x="89.25" y="352.9844"/><text fill="#000000" font-family="sans-serif" font-size="20" lengthAdjust="spacing" textLength="80" x="102.25" y="361.4082">location</text><rect fill="none" height="6" style="stroke:#C82930;stroke-width:1.0;" width="6" x="89.25" y="376.2656"/><text fill="#000000" font-family="sans-serif" font-size="20" lengthAdjust="spacing" textLength="243" x="102.25" y="384.6895">distanceFromCityCenter</text><rect fill="none" height="6" style="stroke:#C82930;stroke-width:1.0;" width="6" x="89.25" y="399.5469"/><text fill="#000000" font-family="sans-serif" font-size="20" lengthAdjust="spacing" textLength="50" x="102.25" y="407.9707">price</text><rect fill="none" height="6" style="stroke:#C82930;stroke-width:1.0;" width="6" x="89.25" y="422.8281"/><text fill="#000000" font-family="sans-serif" font-size="20" lengthAdjust="spacing" textLength="127" x="102.25" y="431.252">photographs</text></g><!--class Visit--><g id="elem_Visit"><rect codeLine="26" fill="#FFDAB9" height="41.2813" id="Visit" rx="2.5" ry="2.5" style="stroke:#4169E1;stroke-width:0.5;" width="50" x="58.25" y="571.5"/><text fill="#000000" font-family="sans-serif" font-size="20" lengthAdjust="spacing" textLength="44" x="61.25" y="595.0645">Visit</text><line style="stroke:#4169E1;stroke-width:0.5;" x1="59.25" x2="107.25" y1="604.7813" y2="604.7813"/></g><!--class Land--><g id="elem_Land"><rect codeLine="30" fill="#FFDAB9" height="41.2813" id="Land" rx="2.5" ry="2.5" style="stroke:#4169E1;stroke-width:0.5;" width="55" x="179.75" y="571.5"/><text fill="#000000" font-family="sans-serif" font-size="20" lengthAdjust="spacing" textLength="49" x="182.75" y="595.0645">Land</text><line style="stroke:#4169E1;stroke-width:0.5;" x1="180.75" x2="233.75" y1="604.7813" y2="604.7813"/></g><!--class Apartment--><g id="elem_Apartment"><rect codeLine="33" fill="#FFDAB9" height="41.2813" id="Apartment" rx="2.5" ry="2.5" style="stroke:#4169E1;stroke-width:0.5;" width="114" x="183.25" y="779"/><text fill="#000000" font-family="sans-serif" font-size="20" lengthAdjust="spacing" textLength="108" x="186.25" y="802.5645">Apartment</text><line style="stroke:#4169E1;stroke-width:0.5;" x1="184.25" x2="296.25" y1="812.2813" y2="812.2813"/></g><!--class House--><g id="elem_House"><rect codeLine="36" fill="#FFDAB9" height="111.125" id="House" rx="2.5" ry="2.5" style="stroke:#4169E1;stroke-width:0.5;" width="179" x="332.75" y="744"/><text fill="#000000" font-family="sans-serif" font-size="20" lengthAdjust="spacing" textLength="62" x="391.25" y="767.5645">House</text><line style="stroke:#4169E1;stroke-width:0.5;" x1="333.75" x2="510.75" y1="777.2813" y2="777.2813"/><rect fill="none" height="6" style="stroke:#C82930;stroke-width:1.0;" width="6" x="340.75" y="791.4219"/><text fill="#000000" font-family="sans-serif" font-size="20" lengthAdjust="spacing" textLength="100" x="353.75" y="799.8457">basement</text><rect fill="none" height="6" style="stroke:#C82930;stroke-width:1.0;" width="6" x="340.75" y="814.7031"/><text fill="#000000" font-family="sans-serif" font-size="20" lengthAdjust="spacing" textLength="152" x="353.75" y="823.127">inhabitableLoft</text><rect fill="none" height="6" style="stroke:#C82930;stroke-width:1.0;" width="6" x="340.75" y="837.9844"/><text fill="#000000" font-family="sans-serif" font-size="20" lengthAdjust="spacing" textLength="128" x="353.75" y="846.4082">sunExposure</text></g><!--class Anouncement--><g id="elem_Anouncement"><rect codeLine="41" fill="#FFDAB9" height="41.2813" id="Anouncement" rx="2.5" ry="2.5" style="stroke:#4169E1;stroke-width:0.5;" width="147" x="343.75" y="133"/><text fill="#000000" font-family="sans-serif" font-size="20" lengthAdjust="spacing" textLength="141" x="346.75" y="156.5645">Anouncement</text><line style="stroke:#4169E1;stroke-width:0.5;" x1="344.75" x2="489.75" y1="166.2813" y2="166.2813"/></g><!--class Home--><g id="elem_Home"><rect codeLine="45" fill="#FFDAB9" height="134.4063" id="Home" rx="2.5" ry="2.5" style="stroke:#4169E1;stroke-width:0.5;" width="266" x="270.25" y="525"/><text fill="#000000" font-family="sans-serif" font-size="20" lengthAdjust="spacing" textLength="59" x="373.75" y="548.5645">Home</text><line style="stroke:#4169E1;stroke-width:0.5;" x1="271.25" x2="535.25" y1="558.2813" y2="558.2813"/><rect fill="none" height="6" style="stroke:#C82930;stroke-width:1.0;" width="6" x="278.25" y="572.4219"/><text fill="#000000" font-family="sans-serif" font-size="20" lengthAdjust="spacing" textLength="202" x="291.25" y="580.8457">numberOfbedrooms</text><rect fill="none" height="6" style="stroke:#C82930;stroke-width:1.0;" width="6" x="278.25" y="595.7031"/><text fill="#000000" font-family="sans-serif" font-size="20" lengthAdjust="spacing" textLength="210" x="291.25" y="604.127">numberOfbathrooms</text><rect fill="none" height="6" style="stroke:#C82930;stroke-width:1.0;" width="6" x="278.25" y="618.9844"/><text fill="#000000" font-family="sans-serif" font-size="20" lengthAdjust="spacing" textLength="239" x="291.25" y="627.4082">numberOfParkingSpace</text><rect fill="none" height="6" style="stroke:#C82930;stroke-width:1.0;" width="6" x="278.25" y="642.2656"/><text fill="#000000" font-family="sans-serif" font-size="20" lengthAdjust="spacing" textLength="201" x="291.25" y="650.6895">availableEquipment</text></g><!--class Prediction--><g id="elem_Prediction"><rect codeLine="53" fill="#FFDAB9" height="64.5625" id="Prediction" rx="2.5" ry="2.5" style="stroke:#4169E1;stroke-width:0.5;" width="107" x="29.75" y="767"/><text fill="#000000" font-family="sans-serif" font-size="20" lengthAdjust="spacing" textLength="101" x="32.75" y="790.5645">Prediction</text><line style="stroke:#4169E1;stroke-width:0.5;" x1="30.75" x2="135.75" y1="800.2813" y2="800.2813"/><rect fill="none" height="6" style="stroke:#C82930;stroke-width:1.0;" width="6" x="37.75" y="814.4219"/><text fill="#000000" font-family="sans-serif" font-size="20" lengthAdjust="spacing" textLength="54" x="50.75" y="822.8457">value</text></g><!--class Request--><g id="elem_Request"><rect codeLine="57" fill="#FFDAB9" height="41.2813" id="Request" rx="2.5" ry="2.5" style="stroke:#4169E1;stroke-width:0.5;" width="88" x="526.25" y="133"/><text fill="#000000" font-family="sans-serif" font-size="20" lengthAdjust="spacing" textLength="82" x="529.25" y="156.5645">Request</text><line style="stroke:#4169E1;stroke-width:0.5;" x1="527.25" x2="613.25" y1="166.2813" y2="166.2813"/></g><!--class Lease--><g id="elem_Lease"><rect codeLine="61" fill="#FFDAB9" height="64.5625" id="Lease" rx="2.5" ry="2.5" style="stroke:#4169E1;stroke-width:0.5;" width="197" x="386.75" y="317"/><text fill="#000000" font-family="sans-serif" font-size="20" lengthAdjust="spacing" textLength="57" x="456.75" y="340.5645">Lease</text><line style="stroke:#4169E1;stroke-width:0.5;" x1="387.75" x2="582.75" y1="350.2813" y2="350.2813"/><rect fill="none" height="6" style="stroke:#C82930;stroke-width:1.0;" width="6" x="394.75" y="364.4219"/><text fill="#000000" font-family="sans-serif" font-size="20" lengthAdjust="spacing" textLength="170" x="407.75" y="372.8457">contractDuration</text></g><!--class Sale--><g id="elem_Sale"><rect codeLine="64" fill="#FFDAB9" height="41.2813" id="Sale" rx="2.5" ry="2.5" style="stroke:#4169E1;stroke-width:0.5;" width="49" x="618.75" y="329"/><text fill="#000000" font-family="sans-serif" font-size="20" lengthAdjust="spacing" textLength="43" x="621.75" y="352.5645">Sale</text><line style="stroke:#4169E1;stroke-width:0.5;" x1="619.75" x2="666.75" y1="362.2813" y2="362.2813"/></g><!--class Client--><g id="elem_Client"><rect fill="#FFDAB9" height="41.2813" id="Client" rx="2.5" ry="2.5" style="stroke:#4169E1;stroke-width:0.5;" width="65" x="384.75" y="7"/><text fill="#000000" font-family="sans-serif" font-size="20" lengthAdjust="spacing" textLength="59" x="387.75" y="30.5645">Client</text><line style="stroke:#4169E1;stroke-width:0.5;" x1="385.75" x2="448.75" y1="40.2813" y2="40.2813"/></g><!--link Anouncement to Property--><g id="link_Anouncement_Property"><path codeLine="69" d="M396.87,174.17 C376.01,194.3 342.09,227.05 309.24,258.75 " fill="none" id="Anouncement-Property" style="stroke:#4169E1;stroke-width:1.0;"/><polygon fill="#000000" points="365.4939,222.1964,379.1724,215.5293,372.6412,208.7625,365.4939,222.1964" style="stroke:#000000;stroke-width:1.0;"/><text fill="#000000" font-family="sans-serif" font-size="20" lengthAdjust="spacing" textLength="35" x="384.25" y="223.5645">has</text><text fill="#000000" font-family="sans-serif" font-size="20" lengthAdjust="spacing" textLength="13" x="376.982" y="200.978">1</text><text fill="#000000" font-family="sans-serif" font-size="20" lengthAdjust="spacing" textLength="13" x="303.1322" y="246.1789">1</text></g><!--link Client to Visit--><g id="link_Client_Visit"><path codeLine="72" d="M384.71,37.99 C311.23,61.39 133.42,129.57 63.25,259 C6,364.59 54.99,517.77 75.37,571.5 " fill="none" id="Client-Visit" style="stroke:#4169E1;stroke-width:1.0;"/><polygon fill="#000000" points="105.2372,223.5614,116.5644,213.4003,108.4285,208.6829,105.2372,223.5614" style="stroke:#000000;stroke-width:1.0;"/><text fill="#000000" font-family="sans-serif" font-size="20" lengthAdjust="spacing" textLength="90" x="122.25" y="223.5645">schedule</text><text fill="#000000" font-family="sans-serif" font-size="20" lengthAdjust="spacing" textLength="13" x="363.658" y="33.3461">1</text><text fill="#000000" font-family="sans-serif" font-size="20" lengthAdjust="spacing" textLength="13" x="58.6851" y="558.8645">1</text></g><!--link Client to Anouncement--><g id="link_Client_Anouncement"><path codeLine="73" d="M417.25,48.15 C417.25,71.37 417.25,109.77 417.25,132.94 " fill="none" id="Client-Anouncement" style="stroke:#4169E1;stroke-width:1.0;"/><polygon fill="#000000" points="425.25,98.6406,429.9523,84.1685,420.5477,84.1685,425.25,98.6406" style="stroke:#000000;stroke-width:1.0;"/><text fill="#000000" font-family="sans-serif" font-size="20" lengthAdjust="spacing" textLength="34" x="438.25" y="97.5645">see</text><text fill="#000000" font-family="sans-serif" font-size="20" lengthAdjust="spacing" textLength="13" x="402.5844" y="74.9529">1</text><text fill="#000000" font-family="sans-serif" font-size="20" lengthAdjust="spacing" textLength="10" x="405.9688" y="120.2891">*</text></g><!--link Client to Request--><g id="link_Client_Request"><path codeLine="74" d="M442.96,48.03 C454.72,57.05 468.77,67.96 481.25,78 C504.01,96.32 529.54,117.79 547.4,132.96 " fill="none" id="Client-Request" style="stroke:#4169E1;stroke-width:1.0;"/><polygon fill="#000000" points="524.4568,95.688,516.1953,82.909,510.2618,90.2055,524.4568,95.688" style="stroke:#000000;stroke-width:1.0;"/><text fill="#000000" font-family="sans-serif" font-size="20" lengthAdjust="spacing" textLength="66" x="531.25" y="97.5645">makes</text><text fill="#000000" font-family="sans-serif" font-size="20" lengthAdjust="spacing" textLength="13" x="434.8826" y="74.8021">1</text><text fill="#000000" font-family="sans-serif" font-size="20" lengthAdjust="spacing" textLength="35" x="502.0603" y="120.3142">1..*</text></g><!--link Property to Visit--><g id="link_Property_Visit"><path codeLine="77" d="M163.02,440.27 C157.29,450.26 151.6,460.32 146.25,470 C126.77,505.24 105.38,547.03 93.21,571.14 " fill="none" id="Property-Visit" style="stroke:#4169E1;stroke-width:1.0;"/><polygon fill="#000000" points="150.4848,489.6992,161.445,479.1433,153.1472,474.717,150.4848,489.6992" style="stroke:#000000;stroke-width:1.0;"/><text fill="#000000" font-family="sans-serif" font-size="20" lengthAdjust="spacing" textLength="35" x="167.25" y="489.5645">has</text><text fill="#000000" font-family="sans-serif" font-size="20" lengthAdjust="spacing" textLength="13" x="145.4469" y="466.6765">1</text><text fill="#000000" font-family="sans-serif" font-size="20" lengthAdjust="spacing" textLength="10" x="84.419" y="558.8167">*</text></g><!--link Visit to Prediction--><g id="link_Visit_Prediction"><path codeLine="80" d="M83.25,612.7 C83.25,648.37 83.25,723.9 83.25,766.86 " fill="none" id="Visit-Prediction" style="stroke:#4169E1;stroke-width:1.0;"/><polygon fill="#000000" points="91.25,709.6406,95.9523,695.1685,86.5477,695.1685,91.25,709.6406" style="stroke:#000000;stroke-width:1.0;"/><text fill="#000000" font-family="sans-serif" font-size="20" lengthAdjust="spacing" textLength="35" x="104.25" y="708.5645">has</text><text fill="#000000" font-family="sans-serif" font-size="20" lengthAdjust="spacing" textLength="13" x="68.5844" y="639.5157">1</text><text fill="#000000" font-family="sans-serif" font-size="20" lengthAdjust="spacing" textLength="13" x="69.0516" y="754.3524">1</text></g><!--link Anouncement to Sale--><g id="link_Anouncement_Sale"><path codeLine="83" d="M476.93,174.05 C497.42,181.96 520.02,192.07 539.25,204 C570.55,223.43 579.19,229.5 601.25,259 C617.49,280.72 629.68,309.72 636.64,328.74 " fill="none" id="Anouncement-Sale" style="stroke:#4169E1;stroke-width:1.0;"/><polygon fill="#000000" points="587.9964,222.2064,580.8725,208.7601,574.3295,215.5155,587.9964,222.2064" style="stroke:#000000;stroke-width:1.0;"/><text fill="#000000" font-family="sans-serif" font-size="20" lengthAdjust="spacing" textLength="67" x="595.25" y="223.5645">can be</text><text fill="#000000" font-family="sans-serif" font-size="20" lengthAdjust="spacing" textLength="13" x="477.5574" y="200.8273">1</text><text fill="#000000" font-family="sans-serif" font-size="20" lengthAdjust="spacing" textLength="13" x="620.4444" y="316.4411">1</text></g><!--link Anouncement to Lease--><g id="link_Anouncement_Lease"><path codeLine="84" d="M424.14,174.17 C435.93,207.79 460.04,276.58 474.2,316.97 " fill="none" id="Anouncement-Lease" style="stroke:#4169E1;stroke-width:1.0;"/><polygon fill="#000000" points="452.8966,224.1902,452.5464,208.9773,443.6714,212.0885,452.8966,224.1902" style="stroke:#000000;stroke-width:1.0;"/><text fill="#000000" font-family="sans-serif" font-size="20" lengthAdjust="spacing" textLength="67" x="463.25" y="223.5645">can be</text><text fill="#000000" font-family="sans-serif" font-size="20" lengthAdjust="spacing" textLength="13" x="411.2399" y="200.978">1</text><text fill="#000000" font-family="sans-serif" font-size="20" lengthAdjust="spacing" textLength="13" x="457.8545" y="304.2097">1</text></g><!--reverse link Property to Land--><g id="link_Property_Land"><path codeLine="86" d="M212.14,460.26 C210.56,502.55 208.91,546.58 207.99,571.22 " fill="none" id="Property-backto-Land" style="stroke:#4169E1;stroke-width:1.0;"/><polygon fill="none" points="205.16,459.78,212.9,440.05,219.15,460.3,205.16,459.78" style="stroke:#4169E1;stroke-width:1.0;"/><text fill="#000000" font-family="sans-serif" font-size="20" lengthAdjust="spacing" textLength="34" x="213.25" y="489.5645">is a</text></g><!--reverse link Property to Home--><g id="link_Property_Home"><path codeLine="87" d="M298.31,456.04 C316.44,479.36 335.16,503.43 351.68,524.68 " fill="none" id="Property-backto-Home" style="stroke:#4169E1;stroke-width:1.0;"/><polygon fill="none" points="292.63,460.14,285.88,440.05,303.68,451.55,292.63,460.14" style="stroke:#4169E1;stroke-width:1.0;"/><text fill="#000000" font-family="sans-serif" font-size="20" lengthAdjust="spacing" textLength="34" x="328.25" y="489.5645">is a</text></g><!--reverse link Home to Apartment--><g id="link_Home_Apartment"><path codeLine="88" d="M338.33,674.84 C308.21,712.81 274.94,754.77 255.92,778.75 " fill="none" id="Home-backto-Apartment" style="stroke:#4169E1;stroke-width:1.0;"/><polygon fill="none" points="332.87,670.47,350.78,659.15,343.83,679.17,332.87,670.47" style="stroke:#4169E1;stroke-width:1.0;"/><text fill="#000000" font-family="sans-serif" font-size="20" lengthAdjust="spacing" textLength="34" x="328.25" y="708.5645">is a</text></g><!--reverse link Home to House--><g id="link_Home_House"><path codeLine="89" d="M411.22,679.25 C413.25,701.11 415.36,724 417.19,743.82 " fill="none" id="Home-backto-House" style="stroke:#4169E1;stroke-width:1.0;"/><polygon fill="none" points="404.24,679.71,409.37,659.15,418.18,678.42,404.24,679.71" style="stroke:#4169E1;stroke-width:1.0;"/><text fill="#000000" font-family="sans-serif" font-size="20" lengthAdjust="spacing" textLength="34" x="414.25" y="708.5645">is a</text></g><!--SRC=[ZLFVQzim47xNNo7w4XWaj7iiez1bBHiK5XhO-ra-MoAov9waTbct_trdENBSD8FvnT9zttttKs5dN0y4dVLgXxMiiO5auxrtSMj-eVnuAHQXS6JddLUQV8SoKa9nH7fGEsXn6_SM9Q6Au5ex9mGDjNynhfKDs81pLMiSndsFqbFKNYmiDb56BycqEihQ37B6kxcBiX32ROnagXJnc_8kPtifjAbHAaEAW-TpXwnP1x5Obk_US8g14-La9gCuqPQlGlBtcSjgoITNhxtr93S8IczIqsJqbiY_ZC2ZtuFzRBadsSrJZNIA_152ZE8RyZrIt8z1bdAe_d04GZWSUIIG2n-ljGdSLONttF-rYVirkeXq07iogaZqsaVV4lGw20uwXlnXWeclm_rWU01NlnxnMou-TYmvittrAM39iOA00twu6gUXCX4gYm- -ATQGtDtFteT4U5Hst3-5a_OapbjKn5tgAgJlJOKrUT-5KpD4VSw-0UAnjLlUlgb_ps3iaDNTKp9zJdZUTwnDNgOI-HaEana9Z_YKC4Jvfb48KnTuqIA1YbyIZQCfHMx1OdOwxjdnOoytxd1u3uh5h45YTfONLnTokSo_iZ3oMce8yaQ8nTgQmM7ypRbvqamCIcETUDTlJaaVBkP36QXuXdMrMZ6nTEHQTh33CNJ9HanfpPHB-99dlelH-gQYQHH7xdzqOcWqUoXmiXgI_WSj3stEEpUNfKRY5Mxn72PMKtMVVhFgQdWmh6Y2X7TONkQ2vSjedrxLEJ0_hmBy1G00]--></g></svg>