<?xml version="1.0" encoding="UTF-8" standalone="no"?><svg xmlns="http://www.w3.org/2000/svg" xmlns:xlink="http://www.w3.org/1999/xlink" contentStyleType="text/css" height="1408px" preserveAspectRatio="none" style="width:2143px;height:1408px;background:#FFFFFF;" version="1.1" viewBox="0 0 2143 1408" width="2143px" zoomAndPan="magnify"><defs/><g><rect fill="#FFFFFF" height="1209.8438" style="stroke:#181818;stroke-width:1.0;" width="10" x="117" y="100.1563"/><rect fill="#FFFFFF" height="39.1563" style="stroke:#181818;stroke-width:1.0;" width="10" x="702" y="131.3125"/><rect fill="#FFFFFF" height="1091.375" style="stroke:#181818;stroke-width:1.0;" width="10" x="702" y="209.625"/><rect fill="#FFFFFF" height="39.1563" style="stroke:#181818;stroke-width:1.0;" width="10" x="967" y="343.25"/><rect fill="#FFFFFF" height="39.1563" style="stroke:#181818;stroke-width:1.0;" width="10" x="967" y="487.875"/><rect fill="#FFFFFF" height="649.5" style="stroke:#181818;stroke-width:1.0;" width="10" x="967" y="612.3438"/><rect fill="#FFFFFF" height="39.1563" style="stroke:#181818;stroke-width:1.0;" width="10" x="1183" y="1026.9063"/><rect fill="#FFFFFF" height="39.1563" style="stroke:#181818;stroke-width:1.0;" width="10" x="1323" y="1105.2188"/><rect fill="#FFFFFF" height="39.1563" style="stroke:#181818;stroke-width:1.0;" width="10" x="1518.5" y="1183.5313"/><rect fill="none" height="299.4063" style="stroke:#000000;stroke-width:1.5;" width="1113" x="10" y="274.7813"/><rect fill="none" height="230.9375" style="stroke:#000000;stroke-width:1.5;" width="493" x="1644" y="718.6563"/><line style="stroke:#181818;stroke-width:0.5;stroke-dasharray:5.0,5.0;" x1="122" x2="122" y1="90.1563" y2="1319"/><line style="stroke:#181818;stroke-width:0.5;stroke-dasharray:5.0,5.0;" x1="707" x2="707" y1="90.1563" y2="1319"/><line style="stroke:#181818;stroke-width:0.5;stroke-dasharray:5.0,5.0;" x1="972" x2="972" y1="252.7031" y2="1319"/><line style="stroke:#181818;stroke-width:0.5;stroke-dasharray:5.0,5.0;" x1="1188" x2="1188" y1="90.1563" y2="1319"/><line style="stroke:#181818;stroke-width:0.5;stroke-dasharray:5.0,5.0;" x1="1328" x2="1328" y1="90.1563" y2="1319"/><line style="stroke:#181818;stroke-width:0.5;stroke-dasharray:5.0,5.0;" x1="1523" x2="1523" y1="90.1563" y2="1319"/><line style="stroke:#181818;stroke-width:0.5;stroke-dasharray:5.0,5.0;" x1="1715" x2="1715" y1="90.1563" y2="1319"/><line style="stroke:#181818;stroke-width:0.5;stroke-dasharray:5.0,5.0;" x1="2061" x2="2061" y1="895.3594" y2="1319"/><text fill="#000000" font-family="sans-serif" font-size="20" lengthAdjust="spacing" textLength="198" x="20" y="85.7617">System Admininstrator</text><ellipse cx="122" cy="13.5" fill="#FFC0CB" rx="8" ry="8" style="stroke:#181818;stroke-width:0.5;"/><path d="M122,21.5 L122,48.5 M109,29.5 L135,29.5 M122,48.5 L109,63.5 M122,48.5 L135,63.5 " fill="none" style="stroke:#181818;stroke-width:0.5;"/><text fill="#000000" font-family="sans-serif" font-size="20" lengthAdjust="spacing" textLength="198" x="20" y="1338.7617">System Admininstrator</text><ellipse cx="122" cy="1351.6563" fill="#FFC0CB" rx="8" ry="8" style="stroke:#181818;stroke-width:0.5;"/><path d="M122,1359.6563 L122,1386.6563 M109,1367.6563 L135,1367.6563 M122,1386.6563 L109,1401.6563 M122,1386.6563 L135,1401.6563 " fill="none" style="stroke:#181818;stroke-width:0.5;"/><rect fill="#E2E2F0" height="39.1563" rx="2.5" ry="2.5" style="stroke:#181818;stroke-width:0.5;" width="216" x="599" y="50"/><text fill="#000000" font-family="sans-serif" font-size="20" lengthAdjust="spacing" textLength="202" x="606" y="77.7617">:ImportBusinessDataUI</text><rect fill="#E2E2F0" height="39.1563" rx="2.5" ry="2.5" style="stroke:#181818;stroke-width:0.5;" width="216" x="599" y="1318"/><text fill="#000000" font-family="sans-serif" font-size="20" lengthAdjust="spacing" textLength="202" x="606" y="1345.7617">:ImportBusinessDataUI</text><rect fill="#E2E2F0" height="39.1563" rx="2.5" ry="2.5" style="stroke:#181818;stroke-width:0.5;" width="282" x="831" y="1318"/><text fill="#000000" font-family="sans-serif" font-size="20" lengthAdjust="spacing" textLength="268" x="838" y="1345.7617">:ImportBusinessDataController</text><rect fill="#E2E2F0" height="39.1563" rx="2.5" ry="2.5" style="stroke:#181818;stroke-width:0.5;" width="130" x="1123" y="50"/><text fill="#000000" font-family="sans-serif" font-size="20" lengthAdjust="spacing" textLength="116" x="1130" y="77.7617">:Repositories</text><rect fill="#E2E2F0" height="39.1563" rx="2.5" ry="2.5" style="stroke:#181818;stroke-width:0.5;" width="130" x="1123" y="1318"/><text fill="#000000" font-family="sans-serif" font-size="20" lengthAdjust="spacing" textLength="116" x="1130" y="1345.7617">:Repositories</text><rect fill="#E2E2F0" height="64.3125" rx="2.5" ry="2.5" style="stroke:#181818;stroke-width:0.5;" width="130" x="1263" y="24.8438"/><text fill="#000000" font-family="sans-serif" font-size="20" lengthAdjust="spacing" textLength="103" x="1276.5" y="52.6055">repositories</text><text fill="#000000" font-family="sans-serif" font-size="20" lengthAdjust="spacing" textLength="116" x="1270" y="77.7617">:Repositories</text><rect fill="#E2E2F0" height="64.3125" rx="2.5" ry="2.5" style="stroke:#181818;stroke-width:0.5;" width="130" x="1263" y="1318"/><text fill="#000000" font-family="sans-serif" font-size="20" lengthAdjust="spacing" textLength="103" x="1276.5" y="1345.7617">repositories</text><text fill="#000000" font-family="sans-serif" font-size="20" lengthAdjust="spacing" textLength="116" x="1270" y="1370.918">:Repositories</text><rect fill="#E2E2F0" height="64.3125" rx="2.5" ry="2.5" style="stroke:#181818;stroke-width:0.5;" width="241" x="1403" y="24.8438"/><text fill="#000000" font-family="sans-serif" font-size="20" lengthAdjust="spacing" textLength="227" x="1410" y="52.6055">announcementRepository:</text><text fill="#000000" font-family="sans-serif" font-size="20" lengthAdjust="spacing" textLength="223" x="1412" y="77.7617">AnnouncementRepository</text><rect fill="#E2E2F0" height="64.3125" rx="2.5" ry="2.5" style="stroke:#181818;stroke-width:0.5;" width="241" x="1403" y="1318"/><text fill="#000000" font-family="sans-serif" font-size="20" lengthAdjust="spacing" textLength="227" x="1410" y="1345.7617">announcementRepository:</text><text fill="#000000" font-family="sans-serif" font-size="20" lengthAdjust="spacing" textLength="223" x="1412" y="1370.918">AnnouncementRepository</text><rect fill="#E2E2F0" height="39.1563" rx="2.5" ry="2.5" style="stroke:#181818;stroke-width:0.5;" width="122" x="1654" y="50"/><text fill="#000000" font-family="sans-serif" font-size="20" lengthAdjust="spacing" textLength="108" x="1661" y="77.7617">Transformer</text><rect fill="#E2E2F0" height="39.1563" rx="2.5" ry="2.5" style="stroke:#181818;stroke-width:0.5;" width="122" x="1654" y="1318"/><text fill="#000000" font-family="sans-serif" font-size="20" lengthAdjust="spacing" textLength="108" x="1661" y="1345.7617">Transformer</text><rect fill="#E2E2F0" height="39.1563" rx="2.5" ry="2.5" style="stroke:#181818;stroke-width:0.5;" width="132" x="1995" y="1318"/><text fill="#000000" font-family="sans-serif" font-size="20" lengthAdjust="spacing" textLength="118" x="2002" y="1345.7617">Annoucement</text><rect fill="#FFFFFF" height="1209.8438" style="stroke:#181818;stroke-width:1.0;" width="10" x="117" y="100.1563"/><rect fill="#FFFFFF" height="39.1563" style="stroke:#181818;stroke-width:1.0;" width="10" x="702" y="131.3125"/><rect fill="#FFFFFF" height="1091.375" style="stroke:#181818;stroke-width:1.0;" width="10" x="702" y="209.625"/><rect fill="#FFFFFF" height="39.1563" style="stroke:#181818;stroke-width:1.0;" width="10" x="967" y="343.25"/><rect fill="#FFFFFF" height="39.1563" style="stroke:#181818;stroke-width:1.0;" width="10" x="967" y="487.875"/><rect fill="#FFFFFF" height="649.5" style="stroke:#181818;stroke-width:1.0;" width="10" x="967" y="612.3438"/><rect fill="#FFFFFF" height="39.1563" style="stroke:#181818;stroke-width:1.0;" width="10" x="1183" y="1026.9063"/><rect fill="#FFFFFF" height="39.1563" style="stroke:#181818;stroke-width:1.0;" width="10" x="1323" y="1105.2188"/><rect fill="#FFFFFF" height="39.1563" style="stroke:#181818;stroke-width:1.0;" width="10" x="1518.5" y="1183.5313"/><polygon fill="#181818" points="690,127.3125,700,131.3125,690,135.3125,694,131.3125" style="stroke:#181818;stroke-width:1.0;"/><line style="stroke:#181818;stroke-width:1.0;" x1="127" x2="696" y1="131.3125" y2="131.3125"/><text fill="#000000" font-family="sans-serif" font-size="20" font-weight="bold" lengthAdjust="spacing" textLength="11" x="134" y="124.918">1</text><text fill="#000000" font-family="sans-serif" font-size="20" lengthAdjust="spacing" textLength="309" x="149" y="124.918">asks to import business information</text><polygon fill="#181818" points="138,166.4688,128,170.4688,138,174.4688,134,170.4688" style="stroke:#181818;stroke-width:1.0;"/><line style="stroke:#181818;stroke-width:1.0;stroke-dasharray:2.0,2.0;" x1="132" x2="706" y1="170.4688" y2="170.4688"/><text fill="#000000" font-family="sans-serif" font-size="20" font-weight="bold" lengthAdjust="spacing" textLength="11" x="144" y="164.0742">2</text><text fill="#000000" font-family="sans-serif" font-size="20" lengthAdjust="spacing" textLength="124" x="159" y="164.0742">requests a file</text><polygon fill="#181818" points="690,205.625,700,209.625,690,213.625,694,209.625" style="stroke:#181818;stroke-width:1.0;"/><line style="stroke:#181818;stroke-width:1.0;" x1="127" x2="696" y1="209.625" y2="209.625"/><text fill="#000000" font-family="sans-serif" font-size="20" font-weight="bold" lengthAdjust="spacing" textLength="11" x="134" y="203.2305">3</text><text fill="#000000" font-family="sans-serif" font-size="20" lengthAdjust="spacing" textLength="110" x="149" y="203.2305">selects a file</text><polygon fill="#181818" points="819,244.7813,829,248.7813,819,252.7813,823,248.7813" style="stroke:#181818;stroke-width:1.0;"/><line style="stroke:#181818;stroke-width:1.0;" x1="712" x2="825" y1="248.7813" y2="248.7813"/><text fill="#000000" font-family="sans-serif" font-size="20" font-weight="bold" lengthAdjust="spacing" textLength="11" x="719" y="242.3867">4</text><text fill="#000000" font-family="sans-serif" font-size="20" lengthAdjust="spacing" textLength="56" x="734" y="242.3867">create</text><rect fill="#E2E2F0" height="39.1563" rx="2.5" ry="2.5" style="stroke:#181818;stroke-width:0.5;" width="282" x="831" y="217.625"/><text fill="#000000" font-family="sans-serif" font-size="20" lengthAdjust="spacing" textLength="268" x="838" y="245.3867">:ImportBusinessDataController</text><path d="M10,274.7813 L78,274.7813 L78,291.9375 L68,301.9375 L10,301.9375 L10,274.7813 " fill="#EEEEEE" style="stroke:#000000;stroke-width:1.5;"/><rect fill="none" height="299.4063" style="stroke:#000000;stroke-width:1.5;" width="1113" x="10" y="274.7813"/><text fill="#000000" font-family="sans-serif" font-size="20" font-weight="bold" lengthAdjust="spacing" textLength="23" x="25" y="296.543">alt</text><text fill="#000000" font-family="sans-serif" font-size="20" font-weight="bold" lengthAdjust="spacing" textLength="182" x="93" y="297.543">[file format is valid]</text><polygon fill="#181818" points="955,339.25,965,343.25,955,347.25,959,343.25" style="stroke:#181818;stroke-width:1.0;"/><line style="stroke:#181818;stroke-width:1.0;" x1="712" x2="961" y1="343.25" y2="343.25"/><text fill="#000000" font-family="sans-serif" font-size="20" font-weight="bold" lengthAdjust="spacing" textLength="11" x="719" y="336.8555">5</text><text fill="#000000" font-family="sans-serif" font-size="20" lengthAdjust="spacing" textLength="221" x="734" y="336.8555">checkFileFormat(File file)</text><polygon fill="#181818" points="723,378.4063,713,382.4063,723,386.4063,719,382.4063" style="stroke:#181818;stroke-width:1.0;"/><line style="stroke:#181818;stroke-width:1.0;" x1="717" x2="971" y1="382.4063" y2="382.4063"/><text fill="#000000" font-family="sans-serif" font-size="20" font-weight="bold" lengthAdjust="spacing" textLength="11" x="729" y="376.0117">6</text><text fill="#000000" font-family="sans-serif" font-size="20" lengthAdjust="spacing" textLength="34" x="744" y="376.0117">true</text><polygon fill="#181818" points="138,417.5625,128,421.5625,138,425.5625,134,421.5625" style="stroke:#181818;stroke-width:1.0;"/><line style="stroke:#181818;stroke-width:1.0;stroke-dasharray:2.0,2.0;" x1="132" x2="701" y1="421.5625" y2="421.5625"/><text fill="#000000" font-family="sans-serif" font-size="20" font-weight="bold" lengthAdjust="spacing" textLength="11" x="144" y="415.168">7</text><text fill="#000000" font-family="sans-serif" font-size="20" lengthAdjust="spacing" textLength="215" x="159" y="415.168">shows file format is valid</text><line style="stroke:#000000;stroke-width:1.0;stroke-dasharray:2.0,2.0;" x1="10" x2="1123" y1="430.5625" y2="430.5625"/><text fill="#000000" font-family="sans-serif" font-size="20" font-weight="bold" lengthAdjust="spacing" textLength="199" x="15" y="451.3242">[file format is invalid]</text><polygon fill="#181818" points="955,483.875,965,487.875,955,491.875,959,487.875" style="stroke:#181818;stroke-width:1.0;"/><line style="stroke:#181818;stroke-width:1.0;" x1="712" x2="961" y1="487.875" y2="487.875"/><text fill="#000000" font-family="sans-serif" font-size="20" font-weight="bold" lengthAdjust="spacing" textLength="11" x="719" y="481.4805">8</text><text fill="#000000" font-family="sans-serif" font-size="20" lengthAdjust="spacing" textLength="221" x="734" y="481.4805">checkFileFormat(File file)</text><polygon fill="#181818" points="723,523.0313,713,527.0313,723,531.0313,719,527.0313" style="stroke:#181818;stroke-width:1.0;"/><line style="stroke:#181818;stroke-width:1.0;" x1="717" x2="971" y1="527.0313" y2="527.0313"/><text fill="#000000" font-family="sans-serif" font-size="20" font-weight="bold" lengthAdjust="spacing" textLength="11" x="729" y="520.6367">9</text><text fill="#000000" font-family="sans-serif" font-size="20" lengthAdjust="spacing" textLength="42" x="744" y="520.6367">false</text><polygon fill="#181818" points="138,562.1875,128,566.1875,138,570.1875,134,566.1875" style="stroke:#181818;stroke-width:1.0;"/><line style="stroke:#181818;stroke-width:1.0;stroke-dasharray:2.0,2.0;" x1="132" x2="701" y1="566.1875" y2="566.1875"/><text fill="#000000" font-family="sans-serif" font-size="20" font-weight="bold" lengthAdjust="spacing" textLength="22" x="144" y="559.793">10</text><text fill="#000000" font-family="sans-serif" font-size="20" lengthAdjust="spacing" textLength="229" x="170" y="559.793">shows file format is invalid</text><polygon fill="#181818" points="955,608.3438,965,612.3438,955,616.3438,959,612.3438" style="stroke:#181818;stroke-width:1.0;"/><line style="stroke:#181818;stroke-width:1.0;" x1="712" x2="961" y1="612.3438" y2="612.3438"/><text fill="#000000" font-family="sans-serif" font-size="20" font-weight="bold" lengthAdjust="spacing" textLength="22" x="719" y="605.9492">11</text><text fill="#000000" font-family="sans-serif" font-size="20" lengthAdjust="spacing" textLength="147" x="745" y="605.9492">readFile(File file)</text><line style="stroke:#181818;stroke-width:1.0;" x1="977" x2="1019" y1="651.5" y2="651.5"/><line style="stroke:#181818;stroke-width:1.0;" x1="1019" x2="1019" y1="651.5" y2="664.5"/><line style="stroke:#181818;stroke-width:1.0;" x1="978" x2="1019" y1="664.5" y2="664.5"/><polygon fill="#181818" points="988,660.5,978,664.5,988,668.5,984,664.5" style="stroke:#181818;stroke-width:1.0;"/><text fill="#000000" font-family="sans-serif" font-size="20" font-weight="bold" lengthAdjust="spacing" textLength="22" x="984" y="645.1055">12</text><text fill="#000000" font-family="sans-serif" font-size="20" lengthAdjust="spacing" textLength="120" x="1010" y="645.1055">String[][] data</text><polygon fill="#181818" points="1703,699.6563,1713,703.6563,1703,707.6563,1707,703.6563" style="stroke:#181818;stroke-width:1.0;"/><line style="stroke:#181818;stroke-width:1.0;" x1="977" x2="1709" y1="703.6563" y2="703.6563"/><text fill="#000000" font-family="sans-serif" font-size="20" font-weight="bold" lengthAdjust="spacing" textLength="22" x="984" y="697.2617">13</text><text fill="#000000" font-family="sans-serif" font-size="20" lengthAdjust="spacing" textLength="228" x="1010" y="697.2617">importBusinessData(data)</text><path d="M1644,718.6563 L1730,718.6563 L1730,735.8125 L1720,745.8125 L1644,745.8125 L1644,718.6563 " fill="#EEEEEE" style="stroke:#000000;stroke-width:1.5;"/><rect fill="none" height="230.9375" style="stroke:#000000;stroke-width:1.5;" width="493" x="1644" y="718.6563"/><text fill="#000000" font-family="sans-serif" font-size="20" font-weight="bold" lengthAdjust="spacing" textLength="41" x="1659" y="740.418">loop</text><text fill="#000000" font-family="sans-serif" font-size="20" font-weight="bold" lengthAdjust="spacing" textLength="226" x="1745" y="741.418">[for each line of the file]</text><line style="stroke:#181818;stroke-width:1.0;" x1="1715" x2="1757" y1="787.125" y2="787.125"/><line style="stroke:#181818;stroke-width:1.0;" x1="1757" x2="1757" y1="787.125" y2="800.125"/><line style="stroke:#181818;stroke-width:1.0;" x1="1716" x2="1757" y1="800.125" y2="800.125"/><polygon fill="#181818" points="1726,796.125,1716,800.125,1726,804.125,1722,800.125" style="stroke:#181818;stroke-width:1.0;"/><text fill="#000000" font-family="sans-serif" font-size="20" font-weight="bold" lengthAdjust="spacing" textLength="22" x="1722" y="780.7305">14</text><text fill="#000000" font-family="sans-serif" font-size="20" lengthAdjust="spacing" textLength="264" x="1748" y="780.7305">object1:String=data[i][object1]</text><line style="stroke:#181818;stroke-width:1.0;" x1="1715" x2="1757" y1="839.2813" y2="839.2813"/><line style="stroke:#181818;stroke-width:1.0;" x1="1757" x2="1757" y1="839.2813" y2="852.2813"/><line style="stroke:#181818;stroke-width:1.0;" x1="1716" x2="1757" y1="852.2813" y2="852.2813"/><polygon fill="#181818" points="1726,848.2813,1716,852.2813,1726,856.2813,1722,852.2813" style="stroke:#181818;stroke-width:1.0;"/><text fill="#000000" font-family="sans-serif" font-size="20" font-weight="bold" lengthAdjust="spacing" textLength="22" x="1722" y="832.8867">15</text><text fill="#000000" font-family="sans-serif" font-size="20" lengthAdjust="spacing" textLength="268" x="1748" y="832.8867">objectN:String=data[i][objectN]</text><polygon fill="#181818" points="1983,887.4375,1993,891.4375,1983,895.4375,1987,891.4375" style="stroke:#181818;stroke-width:1.0;"/><line style="stroke:#181818;stroke-width:1.0;stroke-dasharray:2.0,2.0;" x1="1715" x2="1989" y1="891.4375" y2="891.4375"/><text fill="#000000" font-family="sans-serif" font-size="20" font-weight="bold" lengthAdjust="spacing" textLength="22" x="1722" y="885.043">16</text><text fill="#000000" font-family="sans-serif" font-size="20" lengthAdjust="spacing" textLength="230" x="1748" y="885.043">create(object1,...,objectN)</text><rect fill="#E2E2F0" height="39.1563" rx="2.5" ry="2.5" style="stroke:#181818;stroke-width:0.5;" width="132" x="1995" y="860.2813"/><text fill="#000000" font-family="sans-serif" font-size="20" lengthAdjust="spacing" textLength="118" x="2002" y="888.043">Annoucement</text><polygon fill="#181818" points="1726,937.5938,1716,941.5938,1726,945.5938,1722,941.5938" style="stroke:#181818;stroke-width:1.0;"/><line style="stroke:#181818;stroke-width:1.0;stroke-dasharray:2.0,2.0;" x1="1720" x2="2060" y1="941.5938" y2="941.5938"/><text fill="#000000" font-family="sans-serif" font-size="20" font-weight="bold" lengthAdjust="spacing" textLength="22" x="1732" y="935.1992">17</text><text fill="#000000" font-family="sans-serif" font-size="20" lengthAdjust="spacing" textLength="157" x="1758" y="935.1992">announcementList</text><polygon fill="#181818" points="988,983.75,978,987.75,988,991.75,984,987.75" style="stroke:#181818;stroke-width:1.0;"/><line style="stroke:#181818;stroke-width:1.0;stroke-dasharray:2.0,2.0;" x1="982" x2="1714" y1="987.75" y2="987.75"/><text fill="#000000" font-family="sans-serif" font-size="20" font-weight="bold" lengthAdjust="spacing" textLength="22" x="994" y="981.3555">18</text><text fill="#000000" font-family="sans-serif" font-size="20" lengthAdjust="spacing" textLength="157" x="1020" y="981.3555">announcementList</text><polygon fill="#181818" points="1171,1022.9063,1181,1026.9063,1171,1030.9063,1175,1026.9063" style="stroke:#181818;stroke-width:1.0;"/><line style="stroke:#181818;stroke-width:1.0;" x1="977" x2="1177" y1="1026.9063" y2="1026.9063"/><text fill="#000000" font-family="sans-serif" font-size="20" font-weight="bold" lengthAdjust="spacing" textLength="22" x="984" y="1020.5117">19</text><text fill="#000000" font-family="sans-serif" font-size="20" lengthAdjust="spacing" textLength="116" x="1010" y="1020.5117">getInstance()</text><polygon fill="#181818" points="988,1062.0625,978,1066.0625,988,1070.0625,984,1066.0625" style="stroke:#181818;stroke-width:1.0;"/><line style="stroke:#181818;stroke-width:1.0;stroke-dasharray:2.0,2.0;" x1="982" x2="1187" y1="1066.0625" y2="1066.0625"/><text fill="#000000" font-family="sans-serif" font-size="20" font-weight="bold" lengthAdjust="spacing" textLength="22" x="994" y="1059.668">20</text><text fill="#000000" font-family="sans-serif" font-size="20" lengthAdjust="spacing" textLength="103" x="1020" y="1059.668">repositories</text><polygon fill="#181818" points="1311,1101.2188,1321,1105.2188,1311,1109.2188,1315,1105.2188" style="stroke:#181818;stroke-width:1.0;"/><line style="stroke:#181818;stroke-width:1.0;" x1="977" x2="1317" y1="1105.2188" y2="1105.2188"/><text fill="#000000" font-family="sans-serif" font-size="20" font-weight="bold" lengthAdjust="spacing" textLength="22" x="984" y="1098.8242">21</text><text fill="#000000" font-family="sans-serif" font-size="20" lengthAdjust="spacing" textLength="265" x="1010" y="1098.8242">getAnnouncementRepository()</text><polygon fill="#181818" points="988,1140.375,978,1144.375,988,1148.375,984,1144.375" style="stroke:#181818;stroke-width:1.0;"/><line style="stroke:#181818;stroke-width:1.0;stroke-dasharray:2.0,2.0;" x1="982" x2="1327" y1="1144.375" y2="1144.375"/><text fill="#000000" font-family="sans-serif" font-size="20" font-weight="bold" lengthAdjust="spacing" textLength="22" x="994" y="1137.9805">22</text><text fill="#000000" font-family="sans-serif" font-size="20" lengthAdjust="spacing" textLength="223" x="1020" y="1137.9805">AnnouncementRepository</text><polygon fill="#181818" points="1506.5,1179.5313,1516.5,1183.5313,1506.5,1187.5313,1510.5,1183.5313" style="stroke:#181818;stroke-width:1.0;"/><line style="stroke:#181818;stroke-width:1.0;" x1="977" x2="1512.5" y1="1183.5313" y2="1183.5313"/><text fill="#000000" font-family="sans-serif" font-size="20" font-weight="bold" lengthAdjust="spacing" textLength="22" x="984" y="1177.1367">23</text><text fill="#000000" font-family="sans-serif" font-size="20" lengthAdjust="spacing" textLength="214" x="1010" y="1177.1367">save(AnnouncementList)</text><polygon fill="#181818" points="988,1218.6875,978,1222.6875,988,1226.6875,984,1222.6875" style="stroke:#181818;stroke-width:1.0;"/><line style="stroke:#181818;stroke-width:1.0;stroke-dasharray:2.0,2.0;" x1="982" x2="1522.5" y1="1222.6875" y2="1222.6875"/><text fill="#000000" font-family="sans-serif" font-size="20" font-weight="bold" lengthAdjust="spacing" textLength="22" x="994" y="1216.293">24</text><text fill="#000000" font-family="sans-serif" font-size="20" lengthAdjust="spacing" textLength="34" x="1020" y="1216.293">true</text><polygon fill="#181818" points="723,1257.8438,713,1261.8438,723,1265.8438,719,1261.8438" style="stroke:#181818;stroke-width:1.0;"/><line style="stroke:#181818;stroke-width:1.0;stroke-dasharray:2.0,2.0;" x1="717" x2="971" y1="1261.8438" y2="1261.8438"/><text fill="#000000" font-family="sans-serif" font-size="20" font-weight="bold" lengthAdjust="spacing" textLength="22" x="729" y="1255.4492">25</text><text fill="#000000" font-family="sans-serif" font-size="20" lengthAdjust="spacing" textLength="34" x="755" y="1255.4492">true</text><polygon fill="#181818" points="138,1297,128,1301,138,1305,134,1301" style="stroke:#181818;stroke-width:1.0;"/><line style="stroke:#181818;stroke-width:1.0;stroke-dasharray:2.0,2.0;" x1="132" x2="706" y1="1301" y2="1301"/><text fill="#000000" font-family="sans-serif" font-size="20" font-weight="bold" lengthAdjust="spacing" textLength="22" x="144" y="1294.6055">26</text><text fill="#000000" font-family="sans-serif" font-size="20" lengthAdjust="spacing" textLength="525" x="170" y="1294.6055">informs that the Announcement has been created and saved</text><!--SRC=[jLLDRzim3BtxLn3TOMdG5DkEHXSWQn4WG5SCJNjASr1i9jPYIvuaj-j-_IZv8t8YhnYm-H0W4j_J8oazwZqN9LEio6MonnHItB8gDtCfp9B_GlZq8T9j21HIo2HJia3OiboZjrMoPCzsk3IlEOB2n32no_q0dR5Kld2nQw0HgumKLR515KNlCvuIfvHc8tz6B35ImTdoLHiiO9OMN72XZMAqV0PCm-pcAxmhkTX7n6rumaic39p5YwAKodofD1UezGqpx77X08-BDoElAMCbynph8wuVxc-FCFTOIir90qVjOhg5roMtsL8-VOZo44_YbE3RxUoXZs12o4eaMA0m1_huISo26tKrWbjHPEl8dvb1MwyeWkQpnPjCgIGG4tglmKZWhXomQUe1N6obAfZXb547xEYecjqYqKo8pPB6rFSV5MgZWS6MK_VRe1I3M5-9nfmkpGboyCofwz1uJD148KLuEdFZIA3E0RY6PvRp5Bg8Fecbo33PpmapTv3HtC7fvxo7wTIusz7RSaHjCaPLsDlj_V6guNYELNNbr9byqS5K3cSZlQNZ42xge445_pFt-dN_ktoFaq6HHi4yw1QaLdieWR20LdT3i3IAdl5glLf3IePm4lQWcD1M62gAvYSEChAemvcvbAND0oZz378A0xa5azNQ-XNqg2TJxqyiDz_fMNoCQssVxGahlburo-k_8RaBazojXwLCfivRQciPZ-FwfOsQqoykBoyl6fBpGPAhoSGZYNs3k-NQHC76-gMU73fq0ZvkKS2H2RP3iw3vmGWv2jo9a8rtKI76Lf6zSmT73xdT7wbRqNOAr2h3JXxIx2P7j-mO3ge61a90Nv-c5HJ6smVAdd4qEsf2GDqR0WRulKRt3DJJ-mPndK3GXOTCg6T0zTYZYPYHzzYNwfy76StQ3Q9e1avArp5r9Kd3Wmvwtsy0]--></g></svg>