<?xml version="1.0" encoding="UTF-8" standalone="no"?><svg xmlns="http://www.w3.org/2000/svg" xmlns:xlink="http://www.w3.org/1999/xlink" contentStyleType="text/css" height="1131px" preserveAspectRatio="none" style="width:1207px;height:1131px;background:#FFFFFF;" version="1.1" viewBox="0 0 1207 1131" width="1207px" zoomAndPan="magnify"><defs/><g><!--cluster System--><g id="cluster_System"><rect fill="none" height="888" rx="2.5" ry="2.5" style="stroke:#181818;stroke-width:1.0;" width="933" x="268" y="7.2168"/><text fill="#000000" font-family="sans-serif" font-size="20" font-weight="bold" lengthAdjust="spacing" textLength="84" x="692.5" y="27.7813">System</text></g><g id="elem_UC1"><ellipse cx="734.6534" cy="842.4475" fill="#F1F1F1" rx="176.6534" ry="37.7307" style="stroke:#181818;stroke-width:0.5;"/><text fill="#000000" font-family="sans-serif" font-size="20" lengthAdjust="spacing" textLength="309" x="581.151" y="848.4963">UC 1 - Display listed properties</text></g><g id="elem_UC2"><ellipse cx="734.581" cy="490.033" fill="#F1F1F1" rx="284.581" ry="59.3162" style="stroke:#181818;stroke-width:0.5;"/><text fill="#000000" font-family="sans-serif" font-size="20" lengthAdjust="spacing" textLength="533" x="471.081" y="494.9568">UC 2 - Publish any sale announcement on the system</text></g><g id="elem_UC3"><ellipse cx="734.2564" cy="88.0681" fill="#F1F1F1" rx="182.2564" ry="38.8513" style="stroke:#181818;stroke-width:0.5;"/><text fill="#000000" font-family="sans-serif" font-size="20" lengthAdjust="spacing" textLength="321" x="575.4982" y="93.7248">UC 3 - Register a new Employee</text></g><g id="elem_UC4"><ellipse cx="734.3029" cy="677.1774" fill="#F1F1F1" rx="450.3029" ry="92.4606" style="stroke:#181818;stroke-width:0.5;"/><text fill="#000000" font-family="sans-serif" font-size="20" lengthAdjust="spacing" textLength="869" x="302.8029" y="682.1012">UC 4 - Submit a request for listing a proerty sale or rent, choosing the resposible agent</text></g><g id="elem_UC5"><ellipse cx="734.3234" cy="192.2815" fill="#F1F1F1" rx="138.3234" ry="30.0647" style="stroke:#181818;stroke-width:0.5;"/><text fill="#000000" font-family="sans-serif" font-size="20" lengthAdjust="spacing" textLength="224" x="622.3234" y="198.8137">UC 5 - Register a store</text></g><g id="elem_UC6"><ellipse cx="734.6627" cy="326.3493" fill="#F1F1F1" rx="333.6627" ry="69.1325" style="stroke:#181818;stroke-width:0.5;"/><text fill="#000000" font-family="sans-serif" font-size="20" lengthAdjust="spacing" textLength="633" x="421.1627" y="331.2732">UC 6 - Specify districts, municipalities and parish in the system</text></g><!--entity SA--><g id="elem_SA"><ellipse cx="115" cy="159.2168" fill="#FFC0CB" rx="8" ry="8" style="stroke:#FF0000;stroke-width:2.0;"/><path d="M115,167.2168 L115,194.2168 M102,175.2168 L128,175.2168 M115,194.2168 L102,209.2168 M115,194.2168 L128,209.2168 " fill="none" style="stroke:#FF0000;stroke-width:2.0;"/><text fill="#FF0000" font-family="sans-serif" font-size="20" lengthAdjust="spacing" textLength="218" x="6" y="230.7813">System Administrator</text></g><!--entity RSA--><g id="elem_RSA"><ellipse cx="115" cy="457.2168" fill="#87CEEB" rx="8" ry="8" style="stroke:#0000FF;stroke-width:2.0;"/><path d="M115,465.2168 L115,492.2168 M102,473.2168 L128,473.2168 M115,492.2168 L102,507.2168 M115,492.2168 L128,507.2168 " fill="none" style="stroke:#0000FF;stroke-width:2.0;"/><text fill="#0000FF" font-family="sans-serif" font-size="20" lengthAdjust="spacing" textLength="169" x="30.5" y="528.7813">Real State Agent</text></g><!--entity O--><g id="elem_O"><ellipse cx="115" cy="644.2168" fill="#BC8F8F" rx="8" ry="8" style="stroke:#A52A2A;stroke-width:2.0;"/><path d="M115,652.2168 L115,679.2168 M102,660.2168 L128,660.2168 M115,679.2168 L102,694.2168 M115,679.2168 L128,694.2168 " fill="none" style="stroke:#A52A2A;stroke-width:2.0;"/><text fill="#A52A2A" font-family="sans-serif" font-size="20" lengthAdjust="spacing" textLength="66" x="82" y="715.7813">Owner</text></g><!--entity C--><g id="elem_C"><ellipse cx="115" cy="930.2168" fill="#90EE90" rx="8" ry="8" style="stroke:#008000;stroke-width:2.0;"/><path d="M115,938.2168 L115,965.2168 M102,946.2168 L128,946.2168 M115,965.2168 L102,980.2168 M115,965.2168 L128,980.2168 " fill="none" style="stroke:#008000;stroke-width:2.0;"/><text fill="#008000" font-family="sans-serif" font-size="20" lengthAdjust="spacing" textLength="59" x="85.5" y="1001.7813">Client</text></g><!--entity UU--><g id="elem_UU"><ellipse cx="115" cy="809.2168" fill="#D3D3D3" rx="8" ry="8" style="stroke:#808080;stroke-width:2.0;"/><path d="M115,817.2168 L115,844.2168 M102,825.2168 L128,825.2168 M115,844.2168 L102,859.2168 M115,844.2168 L128,859.2168 " fill="none" style="stroke:#808080;stroke-width:2.0;"/><text fill="#808080" font-family="sans-serif" font-size="20" lengthAdjust="spacing" textLength="181" x="24.5" y="880.7813">Unregistered User</text></g><!--entity SM--><g id="elem_SM"><ellipse cx="115" cy="1051.2168" fill="#FFA07A" rx="8" ry="8" style="stroke:#FA8072;stroke-width:2.0;"/><path d="M115,1059.2168 L115,1086.2168 M102,1067.2168 L128,1067.2168 M115,1086.2168 L102,1101.2168 M115,1086.2168 L128,1101.2168 " fill="none" style="stroke:#FA8072;stroke-width:2.0;"/><text fill="#FA8072" font-family="sans-serif" font-size="20" lengthAdjust="spacing" textLength="149" x="40.5" y="1122.7813">Store manager</text></g><!--entity NM--><g id="elem_NM"><ellipse cx="734.5" cy="930.2168" fill="#696969" rx="8" ry="8" style="stroke:#000000;stroke-width:2.0;"/><path d="M734.5,938.2168 L734.5,965.2168 M721.5,946.2168 L747.5,946.2168 M734.5,965.2168 L721.5,980.2168 M734.5,965.2168 L747.5,980.2168 " fill="none" style="stroke:#000000;stroke-width:2.0;"/><text fill="#000000" font-family="sans-serif" font-size="20" lengthAdjust="spacing" textLength="180" x="644.5" y="1001.7813">Network manager</text></g><!--link UU to UC1--><g id="link_UU_UC1"><path d="M205.79,842.2168 C296.35,842.2168 438.68,842.2168 552.71,842.2168 " fill="none" id="UU-to-UC1" style="stroke:#181818;stroke-width:1.0;"/><polygon fill="#181818" points="557.78,842.2168,548.78,838.2168,552.78,842.2168,548.78,846.2168,557.78,842.2168" style="stroke:#181818;stroke-width:1.0;"/></g><!--link RSA to UC2--><g id="link_RSA_UC2"><path d="M199.6,490.2168 C263.38,490.2168 355.26,490.2168 444.87,490.2168 " fill="none" id="RSA-to-UC2" style="stroke:#181818;stroke-width:1.0;"/><polygon fill="#181818" points="449.95,490.2168,440.95,486.2168,444.95,490.2168,440.95,494.2168,449.95,490.2168" style="stroke:#181818;stroke-width:1.0;"/></g><!--link SA to UC3--><g id="link_SA_UC3"><path d="M224.23,153.5268 C236.21,150.0268 248.3,146.8268 260,144.2168 C356.53,122.6568 466.11,109.0268 555.52,100.6168 " fill="none" id="SA-to-UC3" style="stroke:#181818;stroke-width:1.0;"/><polygon fill="#181818" points="560.57,100.1468,551.2326,97.0143,555.5923,100.6188,551.9878,104.9786,560.57,100.1468" style="stroke:#181818;stroke-width:1.0;"/></g><!--link O to UC4--><g id="link_O_UC4"><path d="M148.33,677.2168 C177.48,677.2168 224.05,677.2168 278.52,677.2168 " fill="none" id="O-to-UC4" style="stroke:#181818;stroke-width:1.0;"/><polygon fill="#181818" points="283.81,677.2168,274.81,673.2168,278.81,677.2168,274.81,681.2168,283.81,677.2168" style="stroke:#181818;stroke-width:1.0;"/></g><!--link SA to UC5--><g id="link_SA_UC5"><path d="M224.27,192.2168 C325.99,192.2168 478.86,192.2168 590.56,192.2168 " fill="none" id="SA-to-UC5" style="stroke:#181818;stroke-width:1.0;"/><polygon fill="#181818" points="595.85,192.2168,586.85,188.2168,590.85,192.2168,586.85,196.2168,595.85,192.2168" style="stroke:#181818;stroke-width:1.0;"/></g><!--link SA to UC6--><g id="link_SA_UC6"><path d="M224.05,229.1968 C236.11,232.8168 248.27,236.2368 260,239.2168 C325.73,255.9068 397.36,270.7468 464.54,283.2468 " fill="none" id="SA-to-UC6" style="stroke:#181818;stroke-width:1.0;"/><polygon fill="#181818" points="469.78,284.2268,461.6635,278.6481,464.8643,283.3123,460.2002,286.5131,469.78,284.2268" style="stroke:#181818;stroke-width:1.0;"/></g><!--SRC=[RPFDRjim3CVlVWeYkJR3cg_32Wn8t7QNhHrY-04Kct44ov8doSYyOUy-qfOJfuaE0Ss8Fv5_agwKkXPMLCfa9UQGuq4qohyQxHFv1s7-EOeK7Znu0rOMHm-vj9XvQNGaCcyiJ9BMUQnWarTII-Uj8Ey4X8Da0p2jfIwVbDJunMBU6P_sHkLF7dzxTWsK7Ge5YHSUOLEWzXrXnmWwqwHijwh17hGVh169VG7rVj9eEVeTxfpfphXsQyr9zx2BEQQnC-1Y9IaTviNtSDzPb6yMCV0kveZNEOTAKssn8A6GgeVKOIzMcbxpsZEklKDh-Uwv0VIBK0ajYW1BVdn8C16gCY73aJs2zjuXQa2_eJyPMrx1tmRuz5bMbqotIcJbHshdZEZmp0XTA8GmBdyZHZGEC-4G9f36y0WpU9QkLg85nGBbK5jJe_KINIzI_7WRDgUmdysU8euWT0jEq2j2QzFe32lk7TNbZmYkUpc0vhUW1O5seJKWGEC9NgfQcHOn12rkWvOKb3JxIjA8WCLV3JeF1zAEAv2w82yLGJM4nEWVIpazG7Oqnl45JisYg-bhpvcVfp-DbxVlhQwJTDpxS7jrUtlDsTMOoKDBYqlBAJFl7g1gjCnaBPHaQKaiKbfO5b3UaMeT_OjuF6Uphrq7U2jxUnxnWlRs8k9zw-tboByQsUleFm00]--></g></svg>