<?xml version="1.0" encoding="UTF-8" standalone="no"?><svg xmlns="http://www.w3.org/2000/svg" xmlns:xlink="http://www.w3.org/1999/xlink" contentStyleType="text/css" height="1294px" preserveAspectRatio="none" style="width:1428px;height:1294px;background:#FFFFFF;" version="1.1" viewBox="0 0 1428 1294" width="1428px" zoomAndPan="magnify"><defs/><g><!--class User--><g id="elem_User"><rect codeLine="9" fill="#F1F1F1" height="236.25" id="User" rx="2.5" ry="2.5" style="stroke:#181818;stroke-width:0.5;" width="445" x="45" y="824"/><ellipse cx="240.5" cy="841" fill="#ADD1B2" rx="12" ry="12" style="stroke:#181818;stroke-width:1.0;"/><path d="M243.5625,848.0781 Q242.875,848.4375 242.125,848.6094 Q241.375,848.7813 240.5469,848.7813 Q237.5938,848.7813 236.0313,846.8438 Q234.4844,844.8906 234.4844,841.2188 Q234.4844,837.5469 236.0313,835.6094 Q237.5938,833.6563 240.5469,833.6563 Q241.375,833.6563 242.125,833.8281 Q242.8906,834 243.5625,834.3594 L243.5625,837.5625 Q242.8125,836.875 242.1094,836.5625 Q241.4219,836.25 240.6719,836.25 Q239.0938,836.25 238.2813,837.5 Q237.4844,838.75 237.4844,841.2188 Q237.4844,843.6875 238.2813,844.9375 Q239.0938,846.1875 240.6719,846.1875 Q241.4219,846.1875 242.1094,845.875 Q242.8125,845.5625 243.5625,844.875 L243.5625,848.0781 Z " fill="#000000"/><text fill="#000000" font-family="sans-serif" font-size="20" lengthAdjust="spacing" textLength="45" x="262.5" y="847.9238">User</text><line style="stroke:#181818;stroke-width:0.5;" x1="46" x2="489" y1="858" y2="858"/><text fill="#000000" font-family="sans-serif" font-size="20" lengthAdjust="spacing" textLength="64" x="51" y="880.5645">-name</text><text fill="#000000" font-family="sans-serif" font-size="20" lengthAdjust="spacing" textLength="174" x="51" y="903.8457">-passportNumber</text><text fill="#000000" font-family="sans-serif" font-size="20" lengthAdjust="spacing" textLength="119" x="51" y="927.127">-taxNumber</text><text fill="#000000" font-family="sans-serif" font-size="20" lengthAdjust="spacing" textLength="63" x="51" y="950.4082">-email</text><text fill="#000000" font-family="sans-serif" font-size="20" lengthAdjust="spacing" textLength="151" x="51" y="973.6895">-phoneNumber</text><text fill="#000000" font-family="sans-serif" font-size="20" lengthAdjust="spacing" textLength="102" x="51" y="996.9707">-password</text><line style="stroke:#181818;stroke-width:0.5;" x1="46" x2="489" y1="1005.6875" y2="1005.6875"/><text fill="#000000" font-family="sans-serif" font-size="20" lengthAdjust="spacing" textLength="432" x="51" y="1028.252">+User(name, passportnumber, tax number</text><text fill="#000000" font-family="sans-serif" font-size="20" lengthAdjust="spacing" textLength="433" x="51" y="1051.5332">, address, email,phone number, password )</text></g><!--class Repositories--><g id="elem_Repositories"><rect codeLine="18" fill="#F1F1F1" height="143.125" id="Repositories" rx="2.5" ry="2.5" style="stroke:#181818;stroke-width:0.5;" width="305" x="469" y="323"/><ellipse cx="555.5" cy="340" fill="#ADD1B2" rx="12" ry="12" style="stroke:#181818;stroke-width:1.0;"/><path d="M558.5625,347.0781 Q557.875,347.4375 557.125,347.6094 Q556.375,347.7813 555.5469,347.7813 Q552.5938,347.7813 551.0313,345.8438 Q549.4844,343.8906 549.4844,340.2188 Q549.4844,336.5469 551.0313,334.6094 Q552.5938,332.6563 555.5469,332.6563 Q556.375,332.6563 557.125,332.8281 Q557.8906,333 558.5625,333.3594 L558.5625,336.5625 Q557.8125,335.875 557.1094,335.5625 Q556.4219,335.25 555.6719,335.25 Q554.0938,335.25 553.2813,336.5 Q552.4844,337.75 552.4844,340.2188 Q552.4844,342.6875 553.2813,343.9375 Q554.0938,345.1875 555.6719,345.1875 Q556.4219,345.1875 557.1094,344.875 Q557.8125,344.5625 558.5625,343.875 L558.5625,347.0781 Z " fill="#000000"/><text fill="#000000" font-family="sans-serif" font-size="20" lengthAdjust="spacing" textLength="123" x="577.5" y="346.9238">Repositories</text><line style="stroke:#181818;stroke-width:0.5;" x1="470" x2="773" y1="357" y2="357"/><line style="stroke:#181818;stroke-width:0.5;" x1="470" x2="773" y1="365" y2="365"/><text fill="#000000" font-family="sans-serif" font-size="20" lengthAdjust="spacing" textLength="146" x="475" y="387.5645">-Repositories()</text><text fill="#000000" font-family="sans-serif" font-size="20" lengthAdjust="spacing" textLength="293" x="475" y="410.8457">+getInstance() : Repositories</text><text fill="#000000" font-family="sans-serif" font-size="20" lengthAdjust="spacing" textLength="227" x="475" y="434.127">+getUsersRepository()</text><text fill="#000000" font-family="sans-serif" font-size="20" lengthAdjust="spacing" textLength="186" x="475" y="457.4082">+getAuthFacade()</text></g><!--class UsersRepository--><g id="elem_UsersRepository"><rect codeLine="25" fill="#F1F1F1" height="143.125" id="UsersRepository" rx="2.5" ry="2.5" style="stroke:#181818;stroke-width:0.5;" width="521" x="7" y="573.5"/><ellipse cx="182.5" cy="590.5" fill="#ADD1B2" rx="12" ry="12" style="stroke:#181818;stroke-width:1.0;"/><path d="M185.5625,597.5781 Q184.875,597.9375 184.125,598.1094 Q183.375,598.2813 182.5469,598.2813 Q179.5938,598.2813 178.0313,596.3438 Q176.4844,594.3906 176.4844,590.7188 Q176.4844,587.0469 178.0313,585.1094 Q179.5938,583.1563 182.5469,583.1563 Q183.375,583.1563 184.125,583.3281 Q184.8906,583.5 185.5625,583.8594 L185.5625,587.0625 Q184.8125,586.375 184.1094,586.0625 Q183.4219,585.75 182.6719,585.75 Q181.0938,585.75 180.2813,587 Q179.4844,588.25 179.4844,590.7188 Q179.4844,593.1875 180.2813,594.4375 Q181.0938,595.6875 182.6719,595.6875 Q183.4219,595.6875 184.1094,595.375 Q184.8125,595.0625 185.5625,594.375 L185.5625,597.5781 Z " fill="#000000"/><text fill="#000000" font-family="sans-serif" font-size="20" lengthAdjust="spacing" textLength="161" x="204.5" y="597.4238">UsersRepository</text><line style="stroke:#181818;stroke-width:0.5;" x1="8" x2="527" y1="607.5" y2="607.5"/><line style="stroke:#181818;stroke-width:0.5;" x1="8" x2="527" y1="615.5" y2="615.5"/><text fill="#000000" font-family="sans-serif" font-size="20" lengthAdjust="spacing" textLength="509" x="13" y="638.0645">+registerUser(name, passportnumber, tax number</text><text fill="#000000" font-family="sans-serif" font-size="20" lengthAdjust="spacing" textLength="427" x="13" y="661.3457">, address, email,phone number, password)</text><text fill="#000000" font-family="sans-serif" font-size="20" lengthAdjust="spacing" textLength="201" x="13" y="684.627">+validateUser(user)</text><text fill="#000000" font-family="sans-serif" font-size="20" lengthAdjust="spacing" textLength="166" x="13" y="707.9082">+saveUser(user)</text></g><!--class AuthFacade--><g id="elem_AuthFacade"><rect codeLine="32" fill="#F1F1F1" height="236.25" id="AuthFacade" rx="2.5" ry="2.5" style="stroke:#181818;stroke-width:0.5;" width="858" x="563.5" y="527"/><ellipse cx="928" cy="544" fill="#ADD1B2" rx="12" ry="12" style="stroke:#181818;stroke-width:1.0;"/><path d="M931.0625,551.0781 Q930.375,551.4375 929.625,551.6094 Q928.875,551.7813 928.0469,551.7813 Q925.0938,551.7813 923.5313,549.8438 Q921.9844,547.8906 921.9844,544.2188 Q921.9844,540.5469 923.5313,538.6094 Q925.0938,536.6563 928.0469,536.6563 Q928.875,536.6563 929.625,536.8281 Q930.3906,537 931.0625,537.3594 L931.0625,540.5625 Q930.3125,539.875 929.6094,539.5625 Q928.9219,539.25 928.1719,539.25 Q926.5938,539.25 925.7813,540.5 Q924.9844,541.75 924.9844,544.2188 Q924.9844,546.6875 925.7813,547.9375 Q926.5938,549.1875 928.1719,549.1875 Q928.9219,549.1875 929.6094,548.875 Q930.3125,548.5625 931.0625,547.875 L931.0625,551.0781 Z " fill="#000000"/><text fill="#000000" font-family="sans-serif" font-size="20" lengthAdjust="spacing" textLength="120" x="950" y="550.9238">AuthFacade</text><line style="stroke:#181818;stroke-width:0.5;" x1="564.5" x2="1420.5" y1="561" y2="561"/><line style="stroke:#181818;stroke-width:0.5;" x1="564.5" x2="1420.5" y1="569" y2="569"/><text fill="#000000" font-family="sans-serif" font-size="20" lengthAdjust="spacing" textLength="523" x="569.5" y="591.5645">+boolean addUserRole(String id, String description)</text><text fill="#000000" font-family="sans-serif" font-size="20" lengthAdjust="spacing" textLength="583" x="569.5" y="614.8457">+boolean addUser(String name, String email, String pwd)</text><text fill="#000000" font-family="sans-serif" font-size="20" lengthAdjust="spacing" textLength="810" x="569.5" y="638.127">+boolean addUserWithRole(String name, String email, String pwd, String roleId)</text><text fill="#000000" font-family="sans-serif" font-size="20" lengthAdjust="spacing" textLength="846" x="569.5" y="661.4082">+boolean addUserWithRoles(String name, String email, String pwd, String[] rolesId)</text><text fill="#000000" font-family="sans-serif" font-size="20" lengthAdjust="spacing" textLength="344" x="569.5" y="684.6895">+boolean existsUser(String email)</text><text fill="#000000" font-family="sans-serif" font-size="20" lengthAdjust="spacing" textLength="537" x="569.5" y="707.9707">+UserSession doLogin(String email, String password)</text><text fill="#000000" font-family="sans-serif" font-size="20" lengthAdjust="spacing" textLength="390" x="569.5" y="731.252">+UserSession getCurrentUserSession()</text><text fill="#000000" font-family="sans-serif" font-size="20" lengthAdjust="spacing" textLength="175" x="569.5" y="754.5332">+void doLogout()</text></g><!--class UserSession--><g id="elem_UserSession"><rect codeLine="43" fill="#F1F1F1" height="166.4063" id="UserSession" rx="2.5" ry="2.5" style="stroke:#181818;stroke-width:0.5;" width="455" x="765" y="859"/><ellipse cx="927.5" cy="876" fill="#ADD1B2" rx="12" ry="12" style="stroke:#181818;stroke-width:1.0;"/><path d="M930.5625,883.0781 Q929.875,883.4375 929.125,883.6094 Q928.375,883.7813 927.5469,883.7813 Q924.5938,883.7813 923.0313,881.8438 Q921.4844,879.8906 921.4844,876.2188 Q921.4844,872.5469 923.0313,870.6094 Q924.5938,868.6563 927.5469,868.6563 Q928.375,868.6563 929.125,868.8281 Q929.8906,869 930.5625,869.3594 L930.5625,872.5625 Q929.8125,871.875 929.1094,871.5625 Q928.4219,871.25 927.6719,871.25 Q926.0938,871.25 925.2813,872.5 Q924.4844,873.75 924.4844,876.2188 Q924.4844,878.6875 925.2813,879.9375 Q926.0938,881.1875 927.6719,881.1875 Q928.4219,881.1875 929.1094,880.875 Q929.8125,880.5625 930.5625,879.875 L930.5625,883.0781 Z " fill="#000000"/><text fill="#000000" font-family="sans-serif" font-size="20" lengthAdjust="spacing" textLength="121" x="949.5" y="882.9238">UserSession</text><line style="stroke:#181818;stroke-width:0.5;" x1="766" x2="1219" y1="893" y2="893"/><line style="stroke:#181818;stroke-width:0.5;" x1="766" x2="1219" y1="901" y2="901"/><text fill="#000000" font-family="sans-serif" font-size="20" lengthAdjust="spacing" textLength="228" x="771" y="923.5645">+boolean isLoggedIn()</text><text fill="#000000" font-family="sans-serif" font-size="20" lengthAdjust="spacing" textLength="443" x="771" y="946.8457">+boolean isLoggedInWithRole(String roleId)</text><text fill="#000000" font-family="sans-serif" font-size="20" lengthAdjust="spacing" textLength="237" x="771" y="970.127">+String getUserName()</text><text fill="#000000" font-family="sans-serif" font-size="20" lengthAdjust="spacing" textLength="199" x="771" y="993.4082">+Email get UserId()</text><text fill="#000000" font-family="sans-serif" font-size="20" lengthAdjust="spacing" textLength="410" x="771" y="1016.6895">+doLogin(String email, String password)</text></g><!--class RegisterUserController--><g id="elem_RegisterUserController"><rect codeLine="52" fill="#F1F1F1" height="119.8438" id="RegisterUserController" rx="2.5" ry="2.5" style="stroke:#181818;stroke-width:0.5;" width="521" x="361" y="118"/><ellipse cx="503.5" cy="135" fill="#ADD1B2" rx="12" ry="12" style="stroke:#181818;stroke-width:1.0;"/><path d="M506.5625,142.0781 Q505.875,142.4375 505.125,142.6094 Q504.375,142.7813 503.5469,142.7813 Q500.5938,142.7813 499.0313,140.8438 Q497.4844,138.8906 497.4844,135.2188 Q497.4844,131.5469 499.0313,129.6094 Q500.5938,127.6563 503.5469,127.6563 Q504.375,127.6563 505.125,127.8281 Q505.8906,128 506.5625,128.3594 L506.5625,131.5625 Q505.8125,130.875 505.1094,130.5625 Q504.4219,130.25 503.6719,130.25 Q502.0938,130.25 501.2813,131.5 Q500.4844,132.75 500.4844,135.2188 Q500.4844,137.6875 501.2813,138.9375 Q502.0938,140.1875 503.6719,140.1875 Q504.4219,140.1875 505.1094,139.875 Q505.8125,139.5625 506.5625,138.875 L506.5625,142.0781 Z " fill="#000000"/><text fill="#000000" font-family="sans-serif" font-size="20" lengthAdjust="spacing" textLength="227" x="525.5" y="141.9238">RegisterUserController</text><line style="stroke:#181818;stroke-width:0.5;" x1="362" x2="881" y1="152" y2="152"/><line style="stroke:#181818;stroke-width:0.5;" x1="362" x2="881" y1="160" y2="160"/><text fill="#000000" font-family="sans-serif" font-size="20" lengthAdjust="spacing" textLength="509" x="367" y="182.5645">+registerUser(name, passportnumber, tax number</text><text fill="#000000" font-family="sans-serif" font-size="20" lengthAdjust="spacing" textLength="427" x="367" y="205.8457">, address, email,phone number, password)</text><text fill="#000000" font-family="sans-serif" font-size="20" lengthAdjust="spacing" textLength="123" x="367" y="229.127">+saveUser()</text></g><!--class RegisterUserUI--><g id="elem_RegisterUserUI"><rect codeLine="57" fill="#F1F1F1" height="50" id="RegisterUserUI" rx="2.5" ry="2.5" style="stroke:#181818;stroke-width:0.5;" width="183" x="530" y="7"/><ellipse cx="546" cy="24" fill="#ADD1B2" rx="12" ry="12" style="stroke:#181818;stroke-width:1.0;"/><path d="M549.0625,31.0781 Q548.375,31.4375 547.625,31.6094 Q546.875,31.7813 546.0469,31.7813 Q543.0938,31.7813 541.5313,29.8438 Q539.9844,27.8906 539.9844,24.2188 Q539.9844,20.5469 541.5313,18.6094 Q543.0938,16.6563 546.0469,16.6563 Q546.875,16.6563 547.625,16.8281 Q548.3906,17 549.0625,17.3594 L549.0625,20.5625 Q548.3125,19.875 547.6094,19.5625 Q546.9219,19.25 546.1719,19.25 Q544.5938,19.25 543.7813,20.5 Q542.9844,21.75 542.9844,24.2188 Q542.9844,26.6875 543.7813,27.9375 Q544.5938,29.1875 546.1719,29.1875 Q546.9219,29.1875 547.6094,28.875 Q548.3125,28.5625 549.0625,27.875 L549.0625,31.0781 Z " fill="#000000"/><text fill="#000000" font-family="sans-serif" font-size="20" lengthAdjust="spacing" textLength="149" x="561" y="30.9238">RegisterUserUI</text><line style="stroke:#181818;stroke-width:0.5;" x1="531" x2="712" y1="41" y2="41"/><line style="stroke:#181818;stroke-width:0.5;" x1="531" x2="712" y1="49" y2="49"/></g><!--class Address--><g id="elem_Address"><rect codeLine="60" fill="#F1F1F1" height="166.4063" id="Address" rx="2.5" ry="2.5" style="stroke:#181818;stroke-width:0.5;" width="383" x="76" y="1121"/><ellipse cx="223" cy="1138" fill="#ADD1B2" rx="12" ry="12" style="stroke:#181818;stroke-width:1.0;"/><path d="M226.0625,1145.0781 Q225.375,1145.4375 224.625,1145.6094 Q223.875,1145.7813 223.0469,1145.7813 Q220.0938,1145.7813 218.5313,1143.8438 Q216.9844,1141.8906 216.9844,1138.2188 Q216.9844,1134.5469 218.5313,1132.6094 Q220.0938,1130.6563 223.0469,1130.6563 Q223.875,1130.6563 224.625,1130.8281 Q225.3906,1131 226.0625,1131.3594 L226.0625,1134.5625 Q225.3125,1133.875 224.6094,1133.5625 Q223.9219,1133.25 223.1719,1133.25 Q221.5938,1133.25 220.7813,1134.5 Q219.9844,1135.75 219.9844,1138.2188 Q219.9844,1140.6875 220.7813,1141.9375 Q221.5938,1143.1875 223.1719,1143.1875 Q223.9219,1143.1875 224.6094,1142.875 Q225.3125,1142.5625 226.0625,1141.875 L226.0625,1145.0781 Z " fill="#000000"/><text fill="#000000" font-family="sans-serif" font-size="20" lengthAdjust="spacing" textLength="80" x="245" y="1144.9238">Address</text><line style="stroke:#181818;stroke-width:0.5;" x1="77" x2="458" y1="1155" y2="1155"/><text fill="#000000" font-family="sans-serif" font-size="20" lengthAdjust="spacing" textLength="132" x="82" y="1177.5645">-String street</text><text fill="#000000" font-family="sans-serif" font-size="20" lengthAdjust="spacing" textLength="110" x="82" y="1200.8457">-String city</text><text fill="#000000" font-family="sans-serif" font-size="20" lengthAdjust="spacing" textLength="124" x="82" y="1224.127">-String state</text><text fill="#000000" font-family="sans-serif" font-size="20" lengthAdjust="spacing" textLength="152" x="82" y="1247.4082">-String zipcode</text><line style="stroke:#181818;stroke-width:0.5;" x1="77" x2="458" y1="1256.125" y2="1256.125"/><text fill="#000000" font-family="sans-serif" font-size="20" lengthAdjust="spacing" textLength="371" x="82" y="1278.6895">+Address(street, city, state, zipcode)</text></g><!--link RegisterUserUI to RegisterUserController--><g id="link_RegisterUserUI_RegisterUserController"><path codeLine="68" d="M621.5,57.1 C621.5,72.38 621.5,92.93 621.5,112.69 " fill="none" id="RegisterUserUI-to-RegisterUserController" style="stroke:#181818;stroke-width:1.0;stroke-dasharray:7.0,7.0;"/><polygon fill="#181818" points="621.5,117.69,625.5,108.69,621.5,112.69,617.5,108.69,621.5,117.69" style="stroke:#181818;stroke-width:1.0;"/></g><!--link RegisterUserController to AuthFacade--><g id="link_RegisterUserController_AuthFacade"><path codeLine="71" d="M738.65,238.19 C817.26,277.91 906.5,323 906.5,323 C906.5,323 935.47,431.15 959.79,521.9 " fill="none" id="RegisterUserController-to-AuthFacade" style="stroke:#181818;stroke-width:1.0;stroke-dasharray:7.0,7.0;"/><polygon fill="#181818" points="961.09,526.75,962.6396,517.0238,959.8035,521.9184,954.9089,519.0823,961.09,526.75" style="stroke:#181818;stroke-width:1.0;"/></g><!--link RegisterUserController to UsersRepository--><g id="link_RegisterUserController_UsersRepository"><path codeLine="72" d="M551.37,238.4 C504.54,278.07 451.5,323 451.5,323 C451.5,323 365.06,473.8 310.67,568.68 " fill="none" id="RegisterUserController-to-UsersRepository" style="stroke:#181818;stroke-width:1.0;stroke-dasharray:7.0,7.0;"/><polygon fill="#181818" points="308.11,573.16,316.0606,567.3473,310.5999,568.8241,309.1231,563.3634,308.11,573.16" style="stroke:#181818;stroke-width:1.0;"/></g><!--link RegisterUserController to Repositories--><g id="link_RegisterUserController_Repositories"><path codeLine="73" d="M621.5,238.18 C621.5,262.71 621.5,291.47 621.5,317.53 " fill="none" id="RegisterUserController-to-Repositories" style="stroke:#181818;stroke-width:1.0;stroke-dasharray:7.0,7.0;"/><polygon fill="#181818" points="621.5,322.7,625.5,313.7,621.5,317.7,617.5,313.7,621.5,322.7" style="stroke:#181818;stroke-width:1.0;"/><text fill="#000000" font-family="sans-serif" font-size="20" lengthAdjust="spacing" textLength="117" x="622.5" y="287.5645">repositories</text></g><!--link Repositories to Repositories--><g id="link_Repositories_Repositories"><path codeLine="75" d="M774.16,377.48 C795.06,380.31 809,385.98 809,394.5 C809,402.28 797.35,407.69 779.39,410.72 " fill="none" id="Repositories-to-Repositories" style="stroke:#181818;stroke-width:1.0;"/><polygon fill="#181818" points="774.16,411.52,783.6545,414.138,779.1045,410.7769,782.4656,406.2268,774.16,411.52" style="stroke:#181818;stroke-width:1.0;"/><text fill="#000000" font-family="sans-serif" font-size="20" lengthAdjust="spacing" textLength="85" x="815" y="401.5645">instance</text></g><!--link Repositories to UsersRepository--><g id="link_Repositories_UsersRepository"><path codeLine="76" d="M521,466.05 C474.47,498.71 419.21,537.5 372.18,570.52 " fill="none" id="Repositories-to-UsersRepository" style="stroke:#181818;stroke-width:1.0;"/><polygon fill="#181818" points="367.94,573.49,377.6034,571.5876,372.0308,570.615,373.0034,565.0424,367.94,573.49" style="stroke:#181818;stroke-width:1.0;"/></g><!--link Repositories to AuthFacade--><g id="link_Repositories_AuthFacade"><path codeLine="77" d="M726.82,466.05 C753.88,484.17 783.75,504.18 813.4,524.04 " fill="none" id="Repositories-to-AuthFacade" style="stroke:#181818;stroke-width:1.0;"/><polygon fill="#181818" points="817.77,526.97,812.5003,518.6495,813.6097,524.1965,808.0627,525.3059,817.77,526.97" style="stroke:#181818;stroke-width:1.0;"/></g><!--link AuthFacade to UserSession--><g id="link_AuthFacade_UserSession"><path codeLine="80" d="M992.5,763.02 C992.5,793.15 992.5,825.06 992.5,853.42 " fill="none" id="AuthFacade-to-UserSession" style="stroke:#181818;stroke-width:1.0;stroke-dasharray:7.0,7.0;"/><polygon fill="#181818" points="992.5,858.67,996.5,849.67,992.5,853.67,988.5,849.67,992.5,858.67" style="stroke:#181818;stroke-width:1.0;"/></g><!--link UsersRepository to User--><g id="link_UsersRepository_User"><path codeLine="83" d="M267.5,716.66 C267.5,747.28 267.5,784.04 267.5,818.85 " fill="none" id="UsersRepository-to-User" style="stroke:#181818;stroke-width:1.0;stroke-dasharray:7.0,7.0;"/><polygon fill="#181818" points="267.5,823.98,271.5,814.98,267.5,818.98,263.5,814.98,267.5,823.98" style="stroke:#181818;stroke-width:1.0;"/></g><!--link User to Address--><g id="link_User_Address"><path codeLine="85" d="M267.5,1060.07 C267.5,1078.8 267.5,1097.89 267.5,1115.76 " fill="none" id="User-to-Address" style="stroke:#181818;stroke-width:1.0;"/><polygon fill="#181818" points="267.5,1120.77,271.5,1111.77,267.5,1115.77,263.5,1111.77,267.5,1120.77" style="stroke:#181818;stroke-width:1.0;"/><text fill="#000000" font-family="sans-serif" font-size="20" lengthAdjust="spacing" textLength="13" x="254.0836" y="1086.936">1</text><text fill="#000000" font-family="sans-serif" font-size="20" lengthAdjust="spacing" textLength="13" x="253.9414" y="1108.1882">1</text></g><!--SRC=[jLKzRzim4DtvAuWiac4vIJjcA6043I2Wo60ZwD1seCMBJ5Wc1PAAumJvxprIb4J9YT42hGURT_VktITfinEoPfhjArNiW5CEZwofx9sITYrUW7w-9edfC7Ilf2gsMks1Mjq06ImrAtQiXBKzLa0r59R9iee1PikuEWXPqaTMcTXI2GdsM0EjLNLqGXonDofj5OcyYeePixHMYqrZ8I-KzFbU4-8jzC60fg-4ucT19Tj3EDPeh97iljblG0UbPSyZ6VPCL9t3LaaOMHt5GMdknRcFbBe8MKykFJnplBGz_vGPPPnhC2PhwJDFJ3jeHqfdv2sKi89Q6M6L5c3wKc9bEWifb61pQR3d1QGpUZC23H2NgEbDnzXxsTZj7IiOHt_I9p1nU2Lp3QKm5lI_hNb6va-i4fnPyCGDVg7EiATOVYFTR8TiCQMDKXKmwI8vy0gbT8rhWPicU4R3aOCfjAYjK79sujFXsuA2q2RSIVM1d_fz5tORnplltvyrkkHdwCpVyVtuvHdDY1AUSKucBixx8yBfrZWIx0JbwfigXKpV3p5C9_R1RRbjj0Pf8stgHgW4RnbLOrC_hs6D0ivjSP-ZC8WjWUVIh-8x-cc3kyuXE6Z2MjzZfrgIhwu6f_PXSzvg_xJIOSTMqQRVuck8eQlmelotMu3K_Sv7_OjJUSWnXVw2BbjUdzKY56Ei1h2HeX3sEBBZDOla5r4NYZlDFD2bBKNcFRFM8UjmBg_a8IUJf2ulltpGCaAIIFYWhSvzkDNdK9CtwHnqz7xUuBzIz2WceoToX5miJbn5U5nFWQVfJ01HLII9XE7ObnNk24ck_9_NH9rS4JA9raDm8kxRkrrykl21tMyOAFaD]--></g></svg>