<?xml version="1.0" encoding="UTF-8" standalone="no"?><svg xmlns="http://www.w3.org/2000/svg" xmlns:xlink="http://www.w3.org/1999/xlink" contentStyleType="text/css" height="668px" preserveAspectRatio="none" style="width:798px;height:668px;background:#FFFFFF;" version="1.1" viewBox="0 0 798 668" width="798px" zoomAndPan="magnify"><defs/><g><text fill="#000000" font-family="sans-serif" font-size="14" font-weight="bold" lengthAdjust="spacing" textLength="228" x="286.5" y="29.5332">System Sequence Diagram (SSD)</text><rect fill="#FFFFFF" height="77.1797" style="stroke:#181818;stroke-width:1.0;" width="10" x="521" y="169.9219"/><rect fill="#FFFFFF" height="42.1563" style="stroke:#181818;stroke-width:1.0;" width="10" x="521" y="289.2578"/><rect fill="#FFFFFF" height="199.3594" style="stroke:#181818;stroke-width:1.0;" width="10" x="521" y="370.5703"/><rect fill="none" height="337.8516" style="stroke:#000000;stroke-width:1.5;" width="782" x="10" y="184.9219"/><rect fill="none" height="130.2031" style="stroke:#000000;stroke-width:1.5;" width="559" x="20" y="385.5703"/><line style="stroke:#181818;stroke-width:0.5;stroke-dasharray:5.0,5.0;" x1="127" x2="127" y1="128.7656" y2="578.9297"/><line style="stroke:#181818;stroke-width:0.5;stroke-dasharray:5.0,5.0;" x1="526" x2="526" y1="128.7656" y2="578.9297"/><text fill="#000000" font-family="sans-serif" font-size="20" lengthAdjust="spacing" textLength="188" x="30" y="124.3711">System Administrator</text><ellipse cx="127" cy="52.1094" fill="#FFC0CB" rx="8" ry="8" style="stroke:#181818;stroke-width:0.5;"/><path d="M127,60.1094 L127,87.1094 M114,68.1094 L140,68.1094 M127,87.1094 L114,102.1094 M127,87.1094 L140,102.1094 " fill="none" style="stroke:#181818;stroke-width:0.5;"/><text fill="#000000" font-family="sans-serif" font-size="20" lengthAdjust="spacing" textLength="188" x="30" y="598.6914">System Administrator</text><ellipse cx="127" cy="611.5859" fill="#FFC0CB" rx="8" ry="8" style="stroke:#181818;stroke-width:0.5;"/><path d="M127,619.5859 L127,646.5859 M114,627.5859 L140,627.5859 M127,646.5859 L114,661.5859 M127,646.5859 L140,661.5859 " fill="none" style="stroke:#181818;stroke-width:0.5;"/><rect fill="#E2E2F0" height="39.1563" rx="2.5" ry="2.5" style="stroke:#181818;stroke-width:0.5;" width="86" x="483" y="88.6094"/><text fill="#000000" font-family="sans-serif" font-size="20" lengthAdjust="spacing" textLength="72" x="490" y="116.3711">:System</text><rect fill="#E2E2F0" height="39.1563" rx="2.5" ry="2.5" style="stroke:#181818;stroke-width:0.5;" width="86" x="483" y="577.9297"/><text fill="#000000" font-family="sans-serif" font-size="20" lengthAdjust="spacing" textLength="72" x="490" y="605.6914">:System</text><rect fill="#FFFFFF" height="77.1797" style="stroke:#181818;stroke-width:1.0;" width="10" x="521" y="169.9219"/><rect fill="#FFFFFF" height="42.1563" style="stroke:#181818;stroke-width:1.0;" width="10" x="521" y="289.2578"/><rect fill="#FFFFFF" height="199.3594" style="stroke:#181818;stroke-width:1.0;" width="10" x="521" y="370.5703"/><polygon fill="#181818" points="509,165.9219,519,169.9219,509,173.9219,513,169.9219" style="stroke:#181818;stroke-width:1.0;"/><line style="stroke:#181818;stroke-width:1.0;" x1="127" x2="515" y1="169.9219" y2="169.9219"/><text fill="#000000" font-family="sans-serif" font-size="20" font-weight="bold" lengthAdjust="spacing" textLength="11" x="134" y="163.5273">1</text><text fill="#000000" font-family="sans-serif" font-size="20" lengthAdjust="spacing" textLength="309" x="149" y="163.5273">asks to import business information</text><path d="M10,184.9219 L96,184.9219 L96,202.0781 L86,212.0781 L10,212.0781 L10,184.9219 " fill="#EEEEEE" style="stroke:#000000;stroke-width:1.5;"/><rect fill="none" height="337.8516" style="stroke:#000000;stroke-width:1.5;" width="782" x="10" y="184.9219"/><text fill="#008000" font-family="sans-serif" font-size="20" font-weight="bold" lengthAdjust="spacing" textLength="41" x="25" y="206.6836">loop</text><text fill="#0000FF" font-family="sans-serif" font-size="15" font-weight="bold" lengthAdjust="spacing" textLength="185" x="111" y="202.4932">[while file is not accepted]</text><polygon fill="#181818" points="138,243.1016,128,247.1016,138,251.1016,134,247.1016" style="stroke:#181818;stroke-width:1.0;"/><line style="stroke:#181818;stroke-width:1.0;stroke-dasharray:2.0,2.0;" x1="132" x2="525" y1="247.1016" y2="247.1016"/><text fill="#000000" font-family="sans-serif" font-size="20" font-weight="bold" lengthAdjust="spacing" textLength="11" x="144" y="240.707">2</text><text fill="#000000" font-family="sans-serif" font-size="20" lengthAdjust="spacing" textLength="124" x="159" y="240.707">requests a file</text><polygon fill="#181818" points="509,285.2578,519,289.2578,509,293.2578,513,289.2578" style="stroke:#181818;stroke-width:1.0;"/><line style="stroke:#181818;stroke-width:1.0;" x1="127" x2="515" y1="289.2578" y2="289.2578"/><text fill="#000000" font-family="sans-serif" font-size="20" font-weight="bold" lengthAdjust="spacing" textLength="11" x="134" y="282.8633">3</text><text fill="#000000" font-family="sans-serif" font-size="20" lengthAdjust="spacing" textLength="127" x="149" y="282.8633">choose the file</text><path d="M536,260.1016 L536,295.1016 L787,295.1016 L787,270.1016 L777,260.1016 L536,260.1016 " fill="#FEFFDD" style="stroke:#181818;stroke-width:0.5;"/><path d="M777,260.1016 L777,270.1016 L787,270.1016 L777,260.1016 " fill="#FEFFDD" style="stroke:#181818;stroke-width:0.5;"/><text fill="#000000" font-family="sans-serif" font-size="20" lengthAdjust="spacing" textLength="230" x="542" y="285.8633">-&gt; The file need to be .csv</text><polygon fill="#181818" points="138,327.4141,128,331.4141,138,335.4141,134,331.4141" style="stroke:#181818;stroke-width:1.0;"/><line style="stroke:#181818;stroke-width:1.0;stroke-dasharray:2.0,2.0;" x1="132" x2="525" y1="331.4141" y2="331.4141"/><text fill="#000000" font-family="sans-serif" font-size="20" font-weight="bold" lengthAdjust="spacing" textLength="11" x="144" y="325.0195">4</text><text fill="#000000" font-family="sans-serif" font-size="20" lengthAdjust="spacing" textLength="178" x="159" y="325.0195">requests cofirmation</text><polygon fill="#181818" points="509,366.5703,519,370.5703,509,374.5703,513,370.5703" style="stroke:#181818;stroke-width:1.0;"/><line style="stroke:#181818;stroke-width:1.0;" x1="127" x2="515" y1="370.5703" y2="370.5703"/><text fill="#000000" font-family="sans-serif" font-size="20" font-weight="bold" lengthAdjust="spacing" textLength="11" x="134" y="364.1758">5</text><text fill="#000000" font-family="sans-serif" font-size="20" lengthAdjust="spacing" textLength="152" x="149" y="364.1758">confirms the data</text><path d="M20,385.5703 L88,385.5703 L88,402.7266 L78,412.7266 L20,412.7266 L20,385.5703 " fill="#EEEEEE" style="stroke:#000000;stroke-width:1.5;"/><rect fill="none" height="130.2031" style="stroke:#000000;stroke-width:1.5;" width="559" x="20" y="385.5703"/><text fill="#008000" font-family="sans-serif" font-size="20" font-weight="bold" lengthAdjust="spacing" textLength="23" x="35" y="407.332">alt</text><text fill="#0000FF" font-family="sans-serif" font-size="15" font-weight="bold" lengthAdjust="spacing" textLength="94" x="103" y="403.1416">[file is empty]</text><polygon fill="#181818" points="138,443.75,128,447.75,138,451.75,134,447.75" style="stroke:#181818;stroke-width:1.0;"/><line style="stroke:#181818;stroke-width:1.0;stroke-dasharray:2.0,2.0;" x1="132" x2="520" y1="447.75" y2="447.75"/><text fill="#000000" font-family="sans-serif" font-size="20" font-weight="bold" lengthAdjust="spacing" textLength="28" x="144" y="441.3555">5.1</text><text fill="#000000" font-family="sans-serif" font-size="20" lengthAdjust="spacing" textLength="215" x="176" y="441.3555">displays the file is empty</text><line style="stroke:#000000;stroke-width:1.0;stroke-dasharray:2.0,2.0;" x1="20" x2="579" y1="456.75" y2="456.75"/><text fill="#0000FF" font-family="sans-serif" font-size="15" font-weight="bold" lengthAdjust="spacing" textLength="162" x="25" y="472.3213">[file with wrong format]</text><polygon fill="#181818" points="138,503.7734,128,507.7734,138,511.7734,134,507.7734" style="stroke:#181818;stroke-width:1.0;"/><line style="stroke:#181818;stroke-width:1.0;stroke-dasharray:2.0,2.0;" x1="132" x2="520" y1="507.7734" y2="507.7734"/><text fill="#000000" font-family="sans-serif" font-size="20" font-weight="bold" lengthAdjust="spacing" textLength="28" x="144" y="501.3789">5.2</text><text fill="#000000" font-family="sans-serif" font-size="20" lengthAdjust="spacing" textLength="338" x="176" y="501.3789">displays the file have the wrong format</text><polygon fill="#181818" points="138,556.9297,128,560.9297,138,564.9297,134,560.9297" style="stroke:#181818;stroke-width:1.0;"/><line style="stroke:#181818;stroke-width:1.0;stroke-dasharray:2.0,2.0;" x1="132" x2="520" y1="560.9297" y2="560.9297"/><text fill="#000000" font-family="sans-serif" font-size="20" font-weight="bold" lengthAdjust="spacing" textLength="11" x="144" y="554.5352">6</text><text fill="#000000" font-family="sans-serif" font-size="20" lengthAdjust="spacing" textLength="219" x="159" y="554.5352">informs operation sucess</text><!--SRC=[bLFBRjim4BppAnRkmUqXGLCWFUHGm6YGz9AJ-WCqkPOMfhWAkRBhVdsNaXzouDI83hP4pkpE39TvJR6poRQ1tHezU5pPFiWJHwdeByAthoOV8D1oPDSaRX5MDcISR7NMhMsDbUm2Ga8dDjPX2iYDzRobME-fHaWKMksoO0iLllOO7S8ZsRh0FrVLunTZvl14Yiex2KhLRnla-7KgVg0_9-wxNsWzfkBW9mTEK2V4-1xu15k67l-76kAukpVp5_9UDGd-KIdgjqYPJupkYI-OioQo25H7S1W5qrMOfn8TSJIs5uvzkrIIiKvKtsmVrSAt52bBihew0vkXMW1ywYYkZPOMSjJPA31x60aZP7Wr1lHH-CsFG_0FkhlE80pKTfm4bdscg9g0uefJQmSrXQOgQ6C5pse5vWwsJJcZLVcX3955iGuxGJzWXfvZjvlIUA5DKt6V9OCTU4USnujjBiXs3NFMKsZmlCAxVDMbaqbr8yUbycZDt_iQ455lW4QnHBXrUNF4OVG3_ReTnokQXlP1JnmBFG-kl1LxtTLfJk3-zcwohlVaS2BOTh8pPwxV6l2Kks1t-PZd1HxgjHttjYGDR1ENoppC27oqUcCtuzbDgqppDjF_YSdl-nb-qs4SrWpSOHhIXzmxdM9Z_W40]--></g></svg>