<?xml version="1.0" encoding="UTF-8" standalone="no"?><svg xmlns="http://www.w3.org/2000/svg" xmlns:xlink="http://www.w3.org/1999/xlink" contentStyleType="text/css" height="839px" preserveAspectRatio="none" style="width:987px;height:839px;background:#FFFFFF;" version="1.1" viewBox="0 0 987 839" width="987px" zoomAndPan="magnify"><defs/><g><!--class Property--><g id="elem_Property"><rect codeLine="16" fill="#FFDAB9" height="134.4063" id="Property" rx="2.5" ry="2.5" style="stroke:#4169E1;stroke-width:0.5;" width="270" x="312" y="283"/><text fill="#000000" font-family="sans-serif" font-size="20" lengthAdjust="spacing" textLength="84" x="405" y="306.5645">Property</text><line style="stroke:#4169E1;stroke-width:0.5;" x1="313" x2="581" y1="316.2813" y2="316.2813"/><rect fill="none" height="6" style="stroke:#C82930;stroke-width:1.0;" width="6" x="320" y="330.4219"/><text fill="#000000" font-family="sans-serif" font-size="20" lengthAdjust="spacing" textLength="44" x="333" y="338.8457">type</text><rect fill="none" height="6" style="stroke:#C82930;stroke-width:1.0;" width="6" x="320" y="353.7031"/><text fill="#000000" font-family="sans-serif" font-size="20" lengthAdjust="spacing" textLength="44" x="333" y="362.127">area</text><rect fill="none" height="6" style="stroke:#C82930;stroke-width:1.0;" width="6" x="320" y="376.9844"/><text fill="#000000" font-family="sans-serif" font-size="20" lengthAdjust="spacing" textLength="243" x="333" y="385.4082">distanceFromCityCenter</text><rect fill="none" height="6" style="stroke:#C82930;stroke-width:1.0;" width="6" x="320" y="400.2656"/><text fill="#000000" font-family="sans-serif" font-size="20" lengthAdjust="spacing" textLength="98" x="333" y="408.6895">photoURL</text></g><!--class Home--><g id="elem_Home"><rect codeLine="23" fill="#FFDAB9" height="134.4063" id="Home" rx="2.5" ry="2.5" style="stroke:#4169E1;stroke-width:0.5;" width="266" x="12" y="502"/><text fill="#000000" font-family="sans-serif" font-size="20" lengthAdjust="spacing" textLength="59" x="115.5" y="525.5645">Home</text><line style="stroke:#4169E1;stroke-width:0.5;" x1="13" x2="277" y1="535.2813" y2="535.2813"/><rect fill="none" height="6" style="stroke:#C82930;stroke-width:1.0;" width="6" x="20" y="549.4219"/><text fill="#000000" font-family="sans-serif" font-size="20" lengthAdjust="spacing" textLength="202" x="33" y="557.8457">numberOfbedrooms</text><rect fill="none" height="6" style="stroke:#C82930;stroke-width:1.0;" width="6" x="20" y="572.7031"/><text fill="#000000" font-family="sans-serif" font-size="20" lengthAdjust="spacing" textLength="210" x="33" y="581.127">numberOfbathrooms</text><rect fill="none" height="6" style="stroke:#C82930;stroke-width:1.0;" width="6" x="20" y="595.9844"/><text fill="#000000" font-family="sans-serif" font-size="20" lengthAdjust="spacing" textLength="239" x="33" y="604.4082">numberOfParkingSpace</text><rect fill="none" height="6" style="stroke:#C82930;stroke-width:1.0;" width="6" x="20" y="619.2656"/><text fill="#000000" font-family="sans-serif" font-size="20" lengthAdjust="spacing" textLength="201" x="33" y="627.6895">availableEquipment</text></g><!--class Land--><g id="elem_Land"><rect codeLine="29" fill="#FFDAB9" height="41.2813" id="Land" rx="2.5" ry="2.5" style="stroke:#4169E1;stroke-width:0.5;" width="55" x="313.5" y="548.5"/><text fill="#000000" font-family="sans-serif" font-size="20" lengthAdjust="spacing" textLength="49" x="316.5" y="572.0645">Land</text><line style="stroke:#4169E1;stroke-width:0.5;" x1="314.5" x2="367.5" y1="581.7813" y2="581.7813"/></g><!--class Apartment--><g id="elem_Apartment"><rect codeLine="33" fill="#FFDAB9" height="41.2813" id="Apartment" rx="2.5" ry="2.5" style="stroke:#4169E1;stroke-width:0.5;" width="114" x="7" y="756"/><text fill="#000000" font-family="sans-serif" font-size="20" lengthAdjust="spacing" textLength="108" x="10" y="779.5645">Apartment</text><line style="stroke:#4169E1;stroke-width:0.5;" x1="8" x2="120" y1="789.2813" y2="789.2813"/></g><!--class House--><g id="elem_House"><rect codeLine="36" fill="#FFDAB9" height="111.125" id="House" rx="2.5" ry="2.5" style="stroke:#4169E1;stroke-width:0.5;" width="179" x="156.5" y="721"/><text fill="#000000" font-family="sans-serif" font-size="20" lengthAdjust="spacing" textLength="62" x="215" y="744.5645">House</text><line style="stroke:#4169E1;stroke-width:0.5;" x1="157.5" x2="334.5" y1="754.2813" y2="754.2813"/><rect fill="none" height="6" style="stroke:#C82930;stroke-width:1.0;" width="6" x="164.5" y="768.4219"/><text fill="#000000" font-family="sans-serif" font-size="20" lengthAdjust="spacing" textLength="100" x="177.5" y="776.8457">basement</text><rect fill="none" height="6" style="stroke:#C82930;stroke-width:1.0;" width="6" x="164.5" y="791.7031"/><text fill="#000000" font-family="sans-serif" font-size="20" lengthAdjust="spacing" textLength="152" x="177.5" y="800.127">inhabitableLoft</text><rect fill="none" height="6" style="stroke:#C82930;stroke-width:1.0;" width="6" x="164.5" y="814.9844"/><text fill="#000000" font-family="sans-serif" font-size="20" lengthAdjust="spacing" textLength="128" x="177.5" y="823.4082">sunExposure</text></g><!--class Announcement--><g id="elem_Announcement"><rect codeLine="41" fill="#FFDAB9" height="64.5625" id="Announcement" rx="2.5" ry="2.5" style="stroke:#4169E1;stroke-width:0.5;" width="160" x="611" y="133"/><text fill="#000000" font-family="sans-serif" font-size="20" lengthAdjust="spacing" textLength="154" x="614" y="156.5645">Announcement</text><line style="stroke:#4169E1;stroke-width:0.5;" x1="612" x2="770" y1="166.2813" y2="166.2813"/><rect fill="none" height="6" style="stroke:#C82930;stroke-width:1.0;" width="6" x="619" y="180.4219"/><text fill="#000000" font-family="sans-serif" font-size="20" lengthAdjust="spacing" textLength="50" x="632" y="188.8457">state</text></g><!--class Visit--><g id="elem_Visit"><rect codeLine="45" fill="#FFDAB9" height="64.5625" id="Visit" rx="2.5" ry="2.5" style="stroke:#4169E1;stroke-width:0.5;" width="72" x="705" y="536.5"/><text fill="#000000" font-family="sans-serif" font-size="20" lengthAdjust="spacing" textLength="44" x="719" y="560.0645">Visit</text><line style="stroke:#4169E1;stroke-width:0.5;" x1="706" x2="776" y1="569.7813" y2="569.7813"/><rect fill="none" height="6" style="stroke:#C82930;stroke-width:1.0;" width="6" x="713" y="583.9219"/><text fill="#000000" font-family="sans-serif" font-size="20" lengthAdjust="spacing" textLength="45" x="726" y="592.3457">data</text></g><!--class Address--><g id="elem_Address"><rect codeLine="49" fill="#FFDAB9" height="134.4063" id="Address" rx="2.5" ry="2.5" style="stroke:#4169E1;stroke-width:0.5;" width="105" x="403.5" y="502"/><text fill="#000000" font-family="sans-serif" font-size="20" lengthAdjust="spacing" textLength="80" x="416" y="525.5645">Address</text><line style="stroke:#4169E1;stroke-width:0.5;" x1="404.5" x2="507.5" y1="535.2813" y2="535.2813"/><rect fill="none" height="6" style="stroke:#C82930;stroke-width:1.0;" width="6" x="411.5" y="549.4219"/><text fill="#000000" font-family="sans-serif" font-size="20" lengthAdjust="spacing" textLength="58" x="424.5" y="557.8457">street</text><rect fill="none" height="6" style="stroke:#C82930;stroke-width:1.0;" width="6" x="411.5" y="572.7031"/><text fill="#000000" font-family="sans-serif" font-size="20" lengthAdjust="spacing" textLength="36" x="424.5" y="581.127">city</text><rect fill="none" height="6" style="stroke:#C82930;stroke-width:1.0;" width="6" x="411.5" y="595.9844"/><text fill="#000000" font-family="sans-serif" font-size="20" lengthAdjust="spacing" textLength="50" x="424.5" y="604.4082">state</text><rect fill="none" height="6" style="stroke:#C82930;stroke-width:1.0;" width="6" x="411.5" y="619.2656"/><text fill="#000000" font-family="sans-serif" font-size="20" lengthAdjust="spacing" textLength="78" x="424.5" y="627.6895">zipcode</text></g><!--class Deal--><g id="elem_Deal"><rect codeLine="56" fill="#FFDAB9" height="64.5625" id="Deal" rx="2.5" ry="2.5" style="stroke:#4169E1;stroke-width:0.5;" width="118" x="544" y="536.5"/><text fill="#000000" font-family="sans-serif" font-size="20" lengthAdjust="spacing" textLength="45" x="580.5" y="560.0645">Deal</text><line style="stroke:#4169E1;stroke-width:0.5;" x1="545" x2="661" y1="569.7813" y2="569.7813"/><rect fill="none" height="6" style="stroke:#C82930;stroke-width:1.0;" width="6" x="552" y="583.9219"/><text fill="#000000" font-family="sans-serif" font-size="20" lengthAdjust="spacing" textLength="91" x="565" y="592.3457">dealType</text></g><!--class Sale--><g id="elem_Sale"><rect codeLine="59" fill="#FFDAB9" height="64.5625" id="Sale" rx="2.5" ry="2.5" style="stroke:#4169E1;stroke-width:0.5;" width="161" x="389.5" y="744"/><text fill="#000000" font-family="sans-serif" font-size="20" lengthAdjust="spacing" textLength="43" x="448.5" y="767.5645">Sale</text><line style="stroke:#4169E1;stroke-width:0.5;" x1="390.5" x2="549.5" y1="777.2813" y2="777.2813"/><rect fill="none" height="6" style="stroke:#C82930;stroke-width:1.0;" width="6" x="397.5" y="791.4219"/><text fill="#000000" font-family="sans-serif" font-size="20" lengthAdjust="spacing" textLength="134" x="410.5" y="799.8457">propertyPrice</text></g><!--class Rent--><g id="elem_Rent"><rect codeLine="62" fill="#FFDAB9" height="87.8438" id="Rent" rx="2.5" ry="2.5" style="stroke:#4169E1;stroke-width:0.5;" width="197" x="585.5" y="732.5"/><text fill="#000000" font-family="sans-serif" font-size="20" lengthAdjust="spacing" textLength="47" x="660.5" y="756.0645">Rent</text><line style="stroke:#4169E1;stroke-width:0.5;" x1="586.5" x2="781.5" y1="765.7813" y2="765.7813"/><rect fill="none" height="6" style="stroke:#C82930;stroke-width:1.0;" width="6" x="593.5" y="779.9219"/><text fill="#000000" font-family="sans-serif" font-size="20" lengthAdjust="spacing" textLength="132" x="606.5" y="788.3457">propertyRent</text><rect fill="none" height="6" style="stroke:#C82930;stroke-width:1.0;" width="6" x="593.5" y="803.2031"/><text fill="#000000" font-family="sans-serif" font-size="20" lengthAdjust="spacing" textLength="170" x="606.5" y="811.627">contractDuration</text></g><!--class Agent--><g id="elem_Agent"><rect codeLine="66" fill="#FFDAB9" height="41.2813" id="Agent" rx="2.5" ry="2.5" style="stroke:#4169E1;stroke-width:0.5;" width="66" x="744" y="329.5"/><text fill="#000000" font-family="sans-serif" font-size="20" lengthAdjust="spacing" textLength="60" x="747" y="353.0645">Agent</text><line style="stroke:#4169E1;stroke-width:0.5;" x1="745" x2="809" y1="362.7813" y2="362.7813"/></g><!--class Client--><g id="elem_Client"><rect fill="#FFDAB9" height="41.2813" id="Client" rx="2.5" ry="2.5" style="stroke:#4169E1;stroke-width:0.5;" width="65" x="763.5" y="7"/><text fill="#000000" font-family="sans-serif" font-size="20" lengthAdjust="spacing" textLength="59" x="766.5" y="30.5645">Client</text><line style="stroke:#4169E1;stroke-width:0.5;" x1="764.5" x2="827.5" y1="40.2813" y2="40.2813"/></g><!--link Announcement to Property--><g id="link_Announcement_Property"><path codeLine="70" d="M619.13,198.01 C602.09,206.75 584.4,216.91 569,228 C546.97,243.86 525.19,263.74 506.26,282.77 " fill="none" id="Announcement-Property" style="stroke:#4169E1;stroke-width:1.0;"/><polygon fill="#000000" points="570.6029,245.4445,584.999,240.5143,579.3517,232.9941,570.6029,245.4445" style="stroke:#000000;stroke-width:1.0;"/><text fill="#000000" font-family="sans-serif" font-size="20" lengthAdjust="spacing" textLength="35" x="590" y="247.5645">has</text><text fill="#000000" font-family="sans-serif" font-size="20" lengthAdjust="spacing" textLength="13" x="592.6602" y="224.2004">1</text><text fill="#000000" font-family="sans-serif" font-size="20" lengthAdjust="spacing" textLength="13" x="498.7009" y="270.209">1</text></g><!--link Client to Visit--><g id="link_Client_Visit"><path codeLine="72" d="M807.69,48.04 C812.38,56.88 817.31,67.65 820,78 C864.09,247.73 909.76,310.68 841,472 C828.03,502.44 800.14,527.88 777.1,544.9 " fill="none" id="Client-Visit" style="stroke:#4169E1;stroke-width:1.0;"/><polygon fill="#000000" points="875.5084,248.6255,881.0911,234.4697,871.7043,233.8918,875.5084,248.6255" style="stroke:#000000;stroke-width:1.0;"/><text fill="#000000" font-family="sans-serif" font-size="20" lengthAdjust="spacing" textLength="90" x="889" y="247.5645">schedule</text><text fill="#000000" font-family="sans-serif" font-size="20" lengthAdjust="spacing" textLength="13" x="796.0199" y="74.8147">1</text><text fill="#000000" font-family="sans-serif" font-size="20" lengthAdjust="spacing" textLength="10" x="784.9347" y="533.7467">*</text></g><!--link Client to Announcement--><g id="link_Client_Announcement"><path codeLine="73" d="M780.73,48.28 C763.61,70.45 735.61,106.72 715.44,132.85 " fill="none" id="Client-Announcement" style="stroke:#4169E1;stroke-width:1.0;"/><polygon fill="#000000" points="759.1112,96.9731,771.6772,88.3911,764.233,82.644,759.1112,96.9731" style="stroke:#000000;stroke-width:1.0;"/><text fill="#000000" font-family="sans-serif" font-size="20" lengthAdjust="spacing" textLength="34" x="777" y="97.5645">see</text><text fill="#000000" font-family="sans-serif" font-size="20" lengthAdjust="spacing" textLength="13" x="762.4236" y="74.7127">1</text><text fill="#000000" font-family="sans-serif" font-size="20" lengthAdjust="spacing" textLength="10" x="709.0243" y="120.3406">*</text></g><!--link Announcement to Visit--><g id="link_Announcement_Visit"><path codeLine="75" d="M682.05,198.16 C669.88,246.1 651.52,339.72 669,417 C678.9,460.77 703.08,506.7 720.69,536.25 " fill="none" id="Announcement-Visit" style="stroke:#4169E1;stroke-width:1.0;"/><polygon fill="#000000" points="677.9084,358.0889,680.937,343.1764,671.5932,344.2443,677.9084,358.0889" style="stroke:#000000;stroke-width:1.0;"/><text fill="#000000" font-family="sans-serif" font-size="20" lengthAdjust="spacing" textLength="35" x="690" y="357.0645">has</text><text fill="#000000" font-family="sans-serif" font-size="20" lengthAdjust="spacing" textLength="10" x="669.7395" y="224.098">*</text><text fill="#000000" font-family="sans-serif" font-size="20" lengthAdjust="spacing" textLength="10" x="706.0235" y="523.7221">*</text></g><!--link Property to Address--><g id="link_Property_Address"><path codeLine="76" d="M449.75,417.29 C450.86,444.08 452.14,474.95 453.25,501.75 " fill="none" id="Property-Address" style="stroke:#4169E1;stroke-width:1.0;"/><polygon fill="#000000" points="460.3312,467.6338,464.4303,452.9793,455.0338,453.3687,460.3312,467.6338" style="stroke:#000000;stroke-width:1.0;"/><text fill="#000000" font-family="sans-serif" font-size="20" lengthAdjust="spacing" textLength="35" x="473" y="466.5645">has</text><text fill="#000000" font-family="sans-serif" font-size="20" lengthAdjust="spacing" textLength="13" x="436.3633" y="443.9732">1</text><text fill="#000000" font-family="sans-serif" font-size="20" lengthAdjust="spacing" textLength="13" x="439.2961" y="489.1869">1</text></g><!--link Property to Deal--><g id="link_Property_Deal"><path codeLine="77" d="M495.3,417.03 C502.59,427.05 510.01,437.29 517,447 C538.76,477.22 563.35,511.88 580.65,536.33 " fill="none" id="Property-Deal" style="stroke:#4169E1;stroke-width:1.0;"/><polygon fill="#000000" points="546.6548,466.147,542.0585,451.6408,534.4098,457.1129,546.6548,466.147" style="stroke:#000000;stroke-width:1.0;"/><text fill="#000000" font-family="sans-serif" font-size="20" lengthAdjust="spacing" textLength="35" x="555" y="466.5645">has</text><text fill="#000000" font-family="sans-serif" font-size="20" lengthAdjust="spacing" textLength="13" x="486.8719" y="444.1768">1</text><text fill="#000000" font-family="sans-serif" font-size="20" lengthAdjust="spacing" textLength="13" x="562.3308" y="523.8169">1</text></g><!--reverse link Deal to Sale--><g id="link_Deal_Sale"><path codeLine="79" d="M575.39,612.67 C550.11,651.73 513.27,708.64 490.51,743.81 " fill="none" id="Deal-backto-Sale" style="stroke:#4169E1;stroke-width:1.0;"/><polygon fill="#4169E1" points="582.51,601.66,575.8931,604.5266,575.9943,611.737,582.6111,608.8704,582.51,601.66" style="stroke:#4169E1;stroke-width:1.0;"/></g><!--reverse link Deal to Rent--><g id="link_Deal_Rent"><path codeLine="80" d="M620.29,613.87 C634.08,648.85 653.28,697.56 666.99,732.35 " fill="none" id="Deal-backto-Rent" style="stroke:#4169E1;stroke-width:1.0;"/><polygon fill="#4169E1" points="615.48,601.66,613.9599,608.7091,619.8821,612.8234,621.4022,605.7743,615.48,601.66" style="stroke:#4169E1;stroke-width:1.0;"/></g><!--reverse link Property to Land--><g id="link_Property_Land"><path codeLine="82" d="M405.72,435.5 C385.57,476.77 363.03,522.9 350.58,548.39 " fill="none" id="Property-backto-Land" style="stroke:#4169E1;stroke-width:1.0;"/><polygon fill="none" points="399.55,432.18,414.62,417.29,412.13,438.33,399.55,432.18" style="stroke:#4169E1;stroke-width:1.0;"/><text fill="#000000" font-family="sans-serif" font-size="20" lengthAdjust="spacing" textLength="34" x="399" y="466.5645">is a</text></g><!--reverse link Property to Home--><g id="link_Property_Home"><path codeLine="83" d="M338.22,429.16 C305.04,453.01 268.9,478.97 236.95,501.93 " fill="none" id="Property-backto-Home" style="stroke:#4169E1;stroke-width:1.0;"/><polygon fill="none" points="334.42,423.27,354.75,417.29,342.59,434.64,334.42,423.27" style="stroke:#4169E1;stroke-width:1.0;"/><text fill="#000000" font-family="sans-serif" font-size="20" lengthAdjust="spacing" textLength="34" x="307" y="466.5645">is a</text></g><!--reverse link Home to Apartment--><g id="link_Home_Apartment"><path codeLine="84" d="M111.54,654.89 C96.89,692.04 80.99,732.41 71.79,755.75 " fill="none" id="Home-backto-Apartment" style="stroke:#4169E1;stroke-width:1.0;"/><polygon fill="none" points="105.08,652.19,118.93,636.15,118.1,657.33,105.08,652.19" style="stroke:#4169E1;stroke-width:1.0;"/><text fill="#000000" font-family="sans-serif" font-size="20" lengthAdjust="spacing" textLength="34" x="108" y="685.5645">is a</text></g><!--reverse link Home to House--><g id="link_Home_House"><path codeLine="85" d="M186.4,654.23 C197.44,676.7 209.09,700.39 219.12,720.82 " fill="none" id="Home-backto-House" style="stroke:#4169E1;stroke-width:1.0;"/><polygon fill="none" points="180.05,657.19,177.51,636.15,192.62,651.01,180.05,657.19" style="stroke:#4169E1;stroke-width:1.0;"/><text fill="#000000" font-family="sans-serif" font-size="20" lengthAdjust="spacing" textLength="34" x="203" y="685.5645">is a</text></g><!--link Announcement to Agent--><g id="link_Announcement_Agent"><path codeLine="87" d="M705.98,198.29 C723.79,236.07 752.95,297.95 767.75,329.37 " fill="none" id="Announcement-Agent" style="stroke:#4169E1;stroke-width:1.0;"/><polygon fill="#000000" points="743.4102,247.8774,741.4947,232.7815,732.9874,236.7905,743.4102,247.8774" style="stroke:#000000;stroke-width:1.0;"/><text fill="#000000" font-family="sans-serif" font-size="20" lengthAdjust="spacing" textLength="35" x="753" y="247.5645">has</text><text fill="#000000" font-family="sans-serif" font-size="20" lengthAdjust="spacing" textLength="13" x="694.3845" y="224.2495">1</text><text fill="#000000" font-family="sans-serif" font-size="20" lengthAdjust="spacing" textLength="13" x="750.7141" y="316.7011">1</text></g><!--link Agent to Visit--><g id="link_Agent_Visit"><path codeLine="88" d="M766.44,370.53 C756.86,389.45 743.42,419.28 738,447 C732.16,476.9 733.9,511.75 736.5,536.35 " fill="none" id="Agent-Visit" style="stroke:#4169E1;stroke-width:1.0;"/><polygon fill="#000000" points="744.5785,467.5133,751.7775,454.107,742.5225,452.436,744.5785,467.5133" style="stroke:#000000;stroke-width:1.0;"/><text fill="#000000" font-family="sans-serif" font-size="20" lengthAdjust="spacing" textLength="77" x="759" y="466.5645">confirm</text><text fill="#000000" font-family="sans-serif" font-size="20" lengthAdjust="spacing" textLength="13" x="749.0684" y="397.3021">1</text><text fill="#000000" font-family="sans-serif" font-size="20" lengthAdjust="spacing" textLength="10" x="724.7484" y="523.8406">*</text></g><!--SRC=[VLDDJzmm4BtxLrXSLa8AeZrM5TAoW5e9gQlTjlTPUv9OE7OwTaeNod_lnFba2VN5zdoyUNup3W_6rK1GMQyUK4kDEJGstdaNz-O9vSTBiGf3ZAoyyweaNw6CrA2OF3Me1oXm7uyM9Q6Au0ex3mWbQFzeN25pi07dgDOuZCSQfQTOUh6oc4SPlIHJb55gqy8Px-Ofoa88wnZ979g8NvLtYUsbA8r6gGmfBfxE5JAc3cAL3UlECCN0H9dCQ1GdsF9PI5xN_Ao2VEFqnbjFSekWocsJvycx9lAFdMFdZs2lBMkIqZnff5FFYn0TzfPyZHIFNOrCje_lZq08_L6Rm2egl6EzDoOUD-WYKk-iIn_zZzszODGEz4lRbG7HDTK1wLj-G4tUL-7K3B5Sic-1M8PYpzqS2Vq6O-5WyVPNO-gAEOmLxy7fPp4zQytwnJRYUSwg2JYmEa30XD1TZIlXO68BVk_pmHeQT_kdzg4X757Mpd4F57RWVLo4EDFqfmc6VPc623DAMXE6qEU4I8Xz7SMA3jOMA1sVJAsydg7U8DYXeERpzxPJ0wizsF5fTT_IBHarHUncV8U8tIG0ZsqaKF6c8KWJFhwtI8aliwcT5cUvxaU4jqwnccibvXTvzk5CPbdQXWcKdsG9GLw9rSQQDg7Rnj3piqvOZWkgHDtmrxbQ27fLXsEn3LiDLKvedB_1xZYCf6P4-mR-DwPjqlIGzYQIwPpzRO-cMz9-ITEiHE99B7399ox6gf__Cif5E_XSq0G9Rtpf6mw-TEdiu-TOSgPVCZWM-MLf9BBtrhkDJcc3Dkcor5iUgTnG9Q_-0G00]--></g></svg>