<?xml version="1.0" encoding="UTF-8" standalone="no"?><svg xmlns="http://www.w3.org/2000/svg" xmlns:xlink="http://www.w3.org/1999/xlink" contentStyleType="text/css" height="537px" preserveAspectRatio="none" style="width:1014px;height:537px;background:#FFFFFF;" version="1.1" viewBox="0 0 1014 537" width="1014px" zoomAndPan="magnify"><defs/><g><!--class Visit--><g id="elem_Visit"><rect codeLine="18" fill="#FFDAB9" height="68.3125" id="Visit" rx="2.5" ry="2.5" style="stroke:#4169E1;stroke-width:0.5;" width="66" x="941" y="127.5"/><text fill="#000000" font-family="sans-serif" font-size="20" lengthAdjust="spacing" textLength="37" x="955.5" y="153.2617">Visit</text><line style="stroke:#4169E1;stroke-width:0.5;" x1="942" x2="1006" y1="162.6563" y2="162.6563"/><rect fill="none" height="6" style="stroke:#C82930;stroke-width:1.0;" width="6" x="949" y="177.7344"/><text fill="#000000" font-family="sans-serif" font-size="20" lengthAdjust="spacing" textLength="39" x="962" y="187.418">date</text></g><!--class Agent--><g id="elem_Agent"><rect codeLine="22" fill="#FFDAB9" height="43.1563" id="Agent" rx="2.5" ry="2.5" style="stroke:#4169E1;stroke-width:0.5;" width="57" x="637" y="140"/><text fill="#000000" font-family="sans-serif" font-size="20" lengthAdjust="spacing" textLength="51" x="640" y="165.7617">Agent</text><line style="stroke:#4169E1;stroke-width:0.5;" x1="638" x2="693" y1="175.1563" y2="175.1563"/></g><!--class Client--><g id="elem_Client"><rect codeLine="25" fill="#FFDAB9" height="43.1563" id="Client" rx="2.5" ry="2.5" style="stroke:#4169E1;stroke-width:0.5;" width="55" x="448.5" y="32"/><text fill="#000000" font-family="sans-serif" font-size="20" lengthAdjust="spacing" textLength="49" x="451.5" y="57.7617">Client</text><line style="stroke:#4169E1;stroke-width:0.5;" x1="449.5" x2="502.5" y1="67.1563" y2="67.1563"/></g><!--class Property--><g id="elem_Property"><rect codeLine="28" fill="#FFDAB9" height="194.0938" id="Property" rx="2.5" ry="2.5" style="stroke:#4169E1;stroke-width:0.5;" width="239" x="546" y="336.5"/><text fill="#000000" font-family="sans-serif" font-size="20" lengthAdjust="spacing" textLength="76" x="627.5" y="362.2617">Property</text><line style="stroke:#4169E1;stroke-width:0.5;" x1="547" x2="784" y1="371.6563" y2="371.6563"/><rect fill="none" height="6" style="stroke:#C82930;stroke-width:1.0;" width="6" x="554" y="386.7344"/><text fill="#000000" font-family="sans-serif" font-size="20" lengthAdjust="spacing" textLength="136" x="567" y="396.418">typeOfProperty</text><rect fill="none" height="6" style="stroke:#C82930;stroke-width:1.0;" width="6" x="554" y="411.8906"/><text fill="#000000" font-family="sans-serif" font-size="20" lengthAdjust="spacing" textLength="40" x="567" y="421.5742">area</text><rect fill="none" height="6" style="stroke:#C82930;stroke-width:1.0;" width="6" x="554" y="437.0469"/><text fill="#000000" font-family="sans-serif" font-size="20" lengthAdjust="spacing" textLength="212" x="567" y="446.7305">distanceFromCityCenter</text><rect fill="none" height="6" style="stroke:#C82930;stroke-width:1.0;" width="6" x="554" y="462.2031"/><text fill="#000000" font-family="sans-serif" font-size="20" lengthAdjust="spacing" textLength="87" x="567" y="471.8867">photoURL</text><rect fill="none" height="6" style="stroke:#C82930;stroke-width:1.0;" width="6" x="554" y="487.3594"/><text fill="#000000" font-family="sans-serif" font-size="20" lengthAdjust="spacing" textLength="71" x="567" y="497.043">address</text><rect fill="none" height="6" style="stroke:#C82930;stroke-width:1.0;" width="6" x="554" y="512.5156"/><text fill="#000000" font-family="sans-serif" font-size="20" lengthAdjust="spacing" textLength="37" x="567" y="522.1992">deal</text></g><!--class Announcement--><g id="elem_Announcement"><rect codeLine="37" fill="#FFDAB9" height="93.4688" id="Announcement" rx="2.5" ry="2.5" style="stroke:#4169E1;stroke-width:0.5;" width="134" x="272" y="223"/><text fill="#000000" font-family="sans-serif" font-size="20" lengthAdjust="spacing" textLength="128" x="275" y="248.7617">Announcement</text><line style="stroke:#4169E1;stroke-width:0.5;" x1="273" x2="405" y1="258.1563" y2="258.1563"/><rect fill="none" height="6" style="stroke:#C82930;stroke-width:1.0;" width="6" x="280" y="273.2344"/><text fill="#000000" font-family="sans-serif" font-size="20" lengthAdjust="spacing" textLength="102" x="293" y="282.918">commission</text><rect fill="none" height="6" style="stroke:#C82930;stroke-width:1.0;" width="6" x="280" y="298.3906"/><text fill="#000000" font-family="sans-serif" font-size="20" lengthAdjust="spacing" textLength="39" x="293" y="308.0742">date</text></g><!--class Person--><g id="elem_Person"><rect codeLine="42" fill="#FFDAB9" height="168.9375" id="Person" rx="2.5" ry="2.5" style="stroke:#4169E1;stroke-width:0.5;" width="172" x="7" y="7"/><text fill="#000000" font-family="sans-serif" font-size="20" lengthAdjust="spacing" textLength="62" x="62" y="32.7617">Person</text><line style="stroke:#4169E1;stroke-width:0.5;" x1="8" x2="178" y1="42.1563" y2="42.1563"/><rect fill="none" height="6" style="stroke:#C82930;stroke-width:1.0;" width="6" x="15" y="57.2344"/><text fill="#000000" font-family="sans-serif" font-size="20" lengthAdjust="spacing" textLength="48" x="28" y="66.918">name</text><rect fill="none" height="6" style="stroke:#C82930;stroke-width:1.0;" width="6" x="15" y="82.3906"/><text fill="#000000" font-family="sans-serif" font-size="20" lengthAdjust="spacing" textLength="145" x="28" y="92.0742">passportNumber</text><rect fill="none" height="6" style="stroke:#C82930;stroke-width:1.0;" width="6" x="15" y="107.5469"/><text fill="#000000" font-family="sans-serif" font-size="20" lengthAdjust="spacing" textLength="94" x="28" y="117.2305">taxNumber</text><rect fill="none" height="6" style="stroke:#C82930;stroke-width:1.0;" width="6" x="15" y="132.7031"/><text fill="#000000" font-family="sans-serif" font-size="20" lengthAdjust="spacing" textLength="119" x="28" y="142.3867">emailAddress</text><rect fill="none" height="6" style="stroke:#C82930;stroke-width:1.0;" width="6" x="15" y="157.8594"/><text fill="#000000" font-family="sans-serif" font-size="20" lengthAdjust="spacing" textLength="121" x="28" y="167.543">phoneNumber</text></g><!--class Employee--><g id="elem_Employee"><rect codeLine="50" fill="#FFDAB9" height="93.4688" id="Employee" rx="2.5" ry="2.5" style="stroke:#4169E1;stroke-width:0.5;" width="107" x="285.5" y="95"/><text fill="#000000" font-family="sans-serif" font-size="20" lengthAdjust="spacing" textLength="87" x="295.5" y="120.7617">Employee</text><line style="stroke:#4169E1;stroke-width:0.5;" x1="286.5" x2="391.5" y1="130.1563" y2="130.1563"/><rect fill="none" height="6" style="stroke:#C82930;stroke-width:1.0;" width="6" x="293.5" y="145.2344"/><text fill="#000000" font-family="sans-serif" font-size="20" lengthAdjust="spacing" textLength="71" x="306.5" y="154.918">address</text><rect fill="none" height="6" style="stroke:#C82930;stroke-width:1.0;" width="6" x="293.5" y="170.3906"/><text fill="#000000" font-family="sans-serif" font-size="20" lengthAdjust="spacing" textLength="80" x="306.5" y="180.0742">agencyId</text></g><!--link Client to Visit--><g id="link_Client_Visit"><path codeLine="56" d="M503.72,54.78 C572.94,58.79 762.99,74.1 911,126.5 C921.14,130.09 931.54,135.28 940.87,140.57 " fill="none" id="Client-Visit" style="stroke:#4169E1;stroke-width:1.0;"/><polygon fill="#000000" points="621.8503,45.6187,608.5546,38.2175,606.7435,47.446,621.8503,45.6187" style="stroke:#000000;stroke-width:1.0;"/><text fill="#000000" font-family="sans-serif" font-size="20" lengthAdjust="spacing" textLength="97" x="627" y="52.2617">Schedule a</text><text fill="#000000" font-family="sans-serif" font-size="20" lengthAdjust="spacing" textLength="11" x="511.4021" y="78.7283">1</text><text fill="#000000" font-family="sans-serif" font-size="20" lengthAdjust="spacing" textLength="11" x="921.9026" y="129.4207">1</text></g><!--link Announcement to Visit--><g id="link_Announcement_Visit"><path codeLine="57" d="M406.37,268.26 C494.02,265.48 652.73,256.5 785,227.5 C841.26,215.16 903.86,190.96 940.76,175.54 " fill="none" id="Announcement-Visit" style="stroke:#4169E1;stroke-width:1.0;"/><polygon fill="#000000" points="646.3822,212.7105,631.3193,210.5515,632.927,219.8176,646.3822,212.7105" style="stroke:#000000;stroke-width:1.0;"/><text fill="#000000" font-family="sans-serif" font-size="20" lengthAdjust="spacing" textLength="48" x="651.5" y="222.2617">has a</text><text fill="#000000" font-family="sans-serif" font-size="20" lengthAdjust="spacing" textLength="11" x="413.8847" y="290.1668">1</text><text fill="#000000" font-family="sans-serif" font-size="20" lengthAdjust="spacing" textLength="11" x="921.7699" y="201.7595">1</text></g><!--link Announcement to Agent--><g id="link_Announcement_Agent"><path codeLine="58" d="M406.06,247.51 C476.85,223.95 585.87,187.67 636.67,170.76 " fill="none" id="Announcement-Agent" style="stroke:#4169E1;stroke-width:1.0;"/><polygon fill="#000000" points="451.5907,195.5519,436.3741,195.6602,439.3439,204.5836,451.5907,195.5519" style="stroke:#000000;stroke-width:1.0;"/><text fill="#000000" font-family="sans-serif" font-size="20" lengthAdjust="spacing" textLength="58" x="457" y="206.2617">has an</text><text fill="#000000" font-family="sans-serif" font-size="20" lengthAdjust="spacing" textLength="11" x="413.9963" y="239.4823">1</text><text fill="#000000" font-family="sans-serif" font-size="20" lengthAdjust="spacing" textLength="11" x="618.1603" y="196.2817">1</text></g><!--link Agent to Visit--><g id="link_Agent_Visit"><path codeLine="59" d="M694.24,161.5 C751.12,161.5 880.68,161.5 941,161.5 " fill="none" id="Agent-Visit" style="stroke:#4169E1;stroke-width:1.0;"/><polygon fill="#000000" points="831,148.0781,816.5279,143.3758,816.5279,152.7804,831,148.0781" style="stroke:#000000;stroke-width:1.0;"/><text fill="#000000" font-family="sans-serif" font-size="20" lengthAdjust="spacing" textLength="74" x="836" y="156.2617">confirms</text><text fill="#000000" font-family="sans-serif" font-size="20" lengthAdjust="spacing" textLength="11" x="702.158" y="185.1523">1</text><text fill="#000000" font-family="sans-serif" font-size="20" lengthAdjust="spacing" textLength="8" x="924.9063" y="184.979">*</text></g><!--link Announcement to Property--><g id="link_Announcement_Property"><path codeLine="60" d="M406.02,304.08 C416.05,309.28 426.29,314.55 436,319.5 C471.55,337.62 510.34,357.09 545.71,374.72 " fill="none" id="Announcement-Property" style="stroke:#4169E1;stroke-width:1.0;"/><polygon fill="#000000" points="456.1391,309.6883,445.3464,298.9612,441.1023,307.3537,456.1391,309.6883" style="stroke:#000000;stroke-width:1.0;"/><text fill="#000000" font-family="sans-serif" font-size="20" lengthAdjust="spacing" textLength="48" x="462" y="314.2617">has a</text><text fill="#000000" font-family="sans-serif" font-size="20" lengthAdjust="spacing" textLength="11" x="413.9519" y="329.974">1</text><text fill="#000000" font-family="sans-serif" font-size="20" lengthAdjust="spacing" textLength="11" x="527.0751" y="392.6634">1</text></g><!--reverse link Person to Client--><g id="link_Person_Client"><path codeLine="61" d="M199.14,81.01 C284.09,72.54 397.61,61.22 448.44,56.15 " fill="none" id="Person-backto-Client" style="stroke:#4169E1;stroke-width:1.0;"/><polygon fill="none" points="199.63,88,179.03,83.02,198.24,74.07,199.63,88" style="stroke:#4169E1;stroke-width:1.0;"/><text fill="#000000" font-family="sans-serif" font-size="20" lengthAdjust="spacing" textLength="31" x="210" y="71.2617">is a</text></g><!--reverse link Employee to Agent--><g id="link_Employee_Agent"><path codeLine="62" d="M413.23,146.01 C484.03,150.38 587.57,156.76 636.68,159.79 " fill="none" id="Employee-backto-Agent" style="stroke:#4169E1;stroke-width:1.0;"/><polygon fill="none" points="412.39,152.98,392.86,144.76,413.25,139,412.39,152.98" style="stroke:#4169E1;stroke-width:1.0;"/><text fill="#000000" font-family="sans-serif" font-size="20" lengthAdjust="spacing" textLength="31" x="460.5" y="142.2617">is a</text></g><!--reverse link Person to Employee--><g id="link_Person_Employee"><path codeLine="63" d="M199.17,113.05 C228.99,119.16 260.17,125.55 285.42,130.72 " fill="none" id="Person-backto-Employee" style="stroke:#4169E1;stroke-width:1.0;"/><polygon fill="none" points="197.53,119.86,179.34,108.99,200.34,106.15,197.53,119.86" style="stroke:#4169E1;stroke-width:1.0;"/><text fill="#000000" font-family="sans-serif" font-size="20" lengthAdjust="spacing" textLength="31" x="210" y="111.2617">is a</text></g><!--SRC=[VL9DYzim4BthLuYz10g1ROzBANX30mkb3HlQkrOQsoAInep6RDsc_xtZppXXMLqIptlpvir7FldK638ne3s1qmvAqmRUO-AZ_mFwqxtQv9cZ8oQqDM44pTI2kY2DiITJmP6x09h0iabLM1DoRHo- -bJfqeGCQzNW4t3NW4RY6bM0aZMZ9b_Lh9tlrJocTOOD9kU2cVnBo_1aCGrcxrNj7MZhoKhjuNy4aNHPRRRpstjncCMdU5c2waPR_rLQtgDqLH6soUqm8Ea365iVsh8Sq888NqVW6JiJ7eECP4X3Sa2toB-L2NddmZ9IFczldjgS3q0PKpuhjHlC_FBPy-XegvtXNck2YWeIYzibi0l-9d8WR82uqxD2F-iVvHoUWeR0p1LyblLPsCkYTvwxdGW2JM1J8-FFvszpcdC4ES-POCBAMqeoEWjnD3HIBCReS-uN-bO_O-iBEva8Ss616xcGxsryMTom-Ntr3T7uK5nv4iC99j9Ivcji0dO0Iw7hFkIIa-sUN9-WfedUVRpJs-tmC-n3F-YZhS6rSav6Vr5NtRv1har-bpTkSkAbdbYj6HykIdBkfQUOtn5RTdwfEqtsinpSV2GFsWkcbc4CsEnZWDP92st4_WC0]--></g></svg>