<?xml version="1.0" encoding="UTF-8" standalone="no"?><svg xmlns="http://www.w3.org/2000/svg" xmlns:xlink="http://www.w3.org/1999/xlink" contentStyleType="text/css" height="1231px" preserveAspectRatio="none" style="width:2574px;height:1231px;background:#FFFFFF;" version="1.1" viewBox="0 0 2574 1231" width="2574px" zoomAndPan="magnify"><defs/><g><rect fill="#FFFFFF" height="1027.0313" style="stroke:#181818;stroke-width:1.0;" width="10" x="93.5" y="98.2813"/><rect fill="#FFFFFF" height="60.5625" style="stroke:#181818;stroke-width:1.0;" width="10" x="708.5" y="127.5625"/><rect fill="#FFFFFF" height="435.375" style="stroke:#181818;stroke-width:1.0;" width="10" x="708.5" y="225.4063"/><rect fill="#FFFFFF" height="427.25" style="stroke:#181818;stroke-width:1.0;" width="10" x="708.5" y="698.0625"/><rect fill="#FFFFFF" height="337.5313" style="stroke:#181818;stroke-width:1.0;" width="10" x="1303.5" y="285.9688"/><rect fill="#FFFFFF" height="389.9688" style="stroke:#181818;stroke-width:1.0;" width="10" x="1303.5" y="735.3438"/><rect fill="#FFFFFF" height="37.2813" style="stroke:#181818;stroke-width:1.0;" width="10" x="1509.5" y="323.25"/><rect fill="#FFFFFF" height="37.2813" style="stroke:#181818;stroke-width:1.0;" width="10" x="1663.5" y="397.8125"/><rect fill="#FFFFFF" height="60.5625" style="stroke:#181818;stroke-width:1.0;" width="10" x="1898.5" y="495.6563"/><rect fill="#FFFFFF" height="30" style="stroke:#181818;stroke-width:1.0;" width="10" x="1898.5" y="593.5"/><rect fill="#FFFFFF" height="352.6875" style="stroke:#181818;stroke-width:1.0;" width="10" x="1898.5" y="772.625"/><rect fill="#FFFFFF" height="28" style="stroke:#181818;stroke-width:1.0;" width="10" x="1903.5" y="817.9063"/><rect fill="#FFFFFF" height="28" style="stroke:#181818;stroke-width:1.0;" width="10" x="1903.5" y="898.1875"/><rect fill="#FFFFFF" height="73.2813" style="stroke:#181818;stroke-width:1.0;" width="10" x="2138.5" y="1007.75"/><rect fill="#FFFFFF" height="28" style="stroke:#181818;stroke-width:1.0;" width="10" x="2143.5" y="1053.0313"/><line style="stroke:#181818;stroke-width:0.5;stroke-dasharray:5.0,5.0;" x1="98" x2="98" y1="88.2813" y2="1143.3125"/><line style="stroke:#181818;stroke-width:0.5;stroke-dasharray:5.0,5.0;" x1="713.5" x2="713.5" y1="88.2813" y2="1143.3125"/><line style="stroke:#181818;stroke-width:0.5;stroke-dasharray:5.0,5.0;" x1="1308.5" x2="1308.5" y1="88.2813" y2="1143.3125"/><line style="stroke:#181818;stroke-width:0.5;stroke-dasharray:5.0,5.0;" x1="1514.5" x2="1514.5" y1="88.2813" y2="1143.3125"/><line style="stroke:#181818;stroke-width:0.5;stroke-dasharray:5.0,5.0;" x1="1668.5" x2="1668.5" y1="88.2813" y2="1143.3125"/><line style="stroke:#181818;stroke-width:0.5;stroke-dasharray:5.0,5.0;" x1="1903.5" x2="1903.5" y1="88.2813" y2="1143.3125"/><line style="stroke:#181818;stroke-width:0.5;stroke-dasharray:5.0,5.0;" x1="2143" x2="2143" y1="88.2813" y2="1143.3125"/><line style="stroke:#181818;stroke-width:0.5;stroke-dasharray:5.0,5.0;" x1="2510.5" x2="2510.5" y1="543.9375" y2="1143.3125"/><text fill="#000000" font-family="sans-serif" font-size="20" lengthAdjust="spacing" textLength="181" x="5" y="83.5645">Unregistered User</text><ellipse cx="98.5" cy="13.5" fill="#E3E3E3" rx="8" ry="8" style="stroke:#181818;stroke-width:0.5;"/><path d="M98.5,21.5 L98.5,48.5 M85.5,29.5 L111.5,29.5 M98.5,48.5 L85.5,63.5 M98.5,48.5 L111.5,63.5 " fill="none" style="stroke:#181818;stroke-width:0.5;"/><text fill="#000000" font-family="sans-serif" font-size="20" lengthAdjust="spacing" textLength="181" x="5" y="1160.877">Unregistered User</text><ellipse cx="98.5" cy="1174.0938" fill="#E3E3E3" rx="8" ry="8" style="stroke:#181818;stroke-width:0.5;"/><path d="M98.5,1182.0938 L98.5,1209.0938 M85.5,1190.0938 L111.5,1190.0938 M98.5,1209.0938 L85.5,1224.0938 M98.5,1209.0938 L111.5,1224.0938 " fill="none" style="stroke:#181818;stroke-width:0.5;"/><rect fill="#E3E3E3" height="37.2813" rx="2.5" ry="2.5" style="stroke:#181818;stroke-width:0.5;" width="170" x="628.5" y="50"/><text fill="#000000" font-family="sans-serif" font-size="20" lengthAdjust="spacing" textLength="156" x="635.5" y="75.5645">:RegisterUserUI</text><rect fill="#E3E3E3" height="37.2813" rx="2.5" ry="2.5" style="stroke:#181818;stroke-width:0.5;" width="170" x="628.5" y="1142.3125"/><text fill="#000000" font-family="sans-serif" font-size="20" lengthAdjust="spacing" textLength="156" x="635.5" y="1167.877">:RegisterUserUI</text><rect fill="#E3E3E3" height="37.2813" rx="2.5" ry="2.5" style="stroke:#181818;stroke-width:0.5;" width="248" x="1184.5" y="50"/><text fill="#000000" font-family="sans-serif" font-size="20" lengthAdjust="spacing" textLength="234" x="1191.5" y="75.5645">:RegisterUserController</text><rect fill="#E3E3E3" height="37.2813" rx="2.5" ry="2.5" style="stroke:#181818;stroke-width:0.5;" width="248" x="1184.5" y="1142.3125"/><text fill="#000000" font-family="sans-serif" font-size="20" lengthAdjust="spacing" textLength="234" x="1191.5" y="1167.877">:RegisterUserController</text><rect fill="#E3E3E3" height="37.2813" rx="2.5" ry="2.5" style="stroke:#181818;stroke-width:0.5;" width="144" x="1442.5" y="50"/><text fill="#000000" font-family="sans-serif" font-size="20" lengthAdjust="spacing" textLength="130" x="1449.5" y="75.5645">:Repositories</text><rect fill="#E3E3E3" height="37.2813" rx="2.5" ry="2.5" style="stroke:#181818;stroke-width:0.5;" width="144" x="1442.5" y="1142.3125"/><text fill="#000000" font-family="sans-serif" font-size="20" lengthAdjust="spacing" textLength="130" x="1449.5" y="1167.877">:Repositories</text><rect fill="#E3E3E3" height="60.5625" rx="2.5" ry="2.5" style="stroke:#181818;stroke-width:0.5;" width="144" x="1596.5" y="26.7188"/><text fill="#000000" font-family="sans-serif" font-size="20" lengthAdjust="spacing" textLength="117" x="1610" y="52.2832">repositories</text><text fill="#000000" font-family="sans-serif" font-size="20" lengthAdjust="spacing" textLength="130" x="1603.5" y="75.5645">:Repositories</text><rect fill="#E3E3E3" height="60.5625" rx="2.5" ry="2.5" style="stroke:#181818;stroke-width:0.5;" width="144" x="1596.5" y="1142.3125"/><text fill="#000000" font-family="sans-serif" font-size="20" lengthAdjust="spacing" textLength="117" x="1610" y="1167.877">repositories</text><text fill="#000000" font-family="sans-serif" font-size="20" lengthAdjust="spacing" textLength="130" x="1603.5" y="1191.1582">:Repositories</text><rect fill="#E3E3E3" height="60.5625" rx="2.5" ry="2.5" style="stroke:#181818;stroke-width:0.5;" width="180" x="1813.5" y="26.7188"/><text fill="#000000" font-family="sans-serif" font-size="20" lengthAdjust="spacing" textLength="166" x="1820.5" y="52.2832">usersRepository:</text><text fill="#000000" font-family="sans-serif" font-size="20" lengthAdjust="spacing" textLength="161" x="1823" y="75.5645">UsersRepository</text><rect fill="#E3E3E3" height="60.5625" rx="2.5" ry="2.5" style="stroke:#181818;stroke-width:0.5;" width="180" x="1813.5" y="1142.3125"/><text fill="#000000" font-family="sans-serif" font-size="20" lengthAdjust="spacing" textLength="166" x="1820.5" y="1167.877">usersRepository:</text><text fill="#000000" font-family="sans-serif" font-size="20" lengthAdjust="spacing" textLength="161" x="1823" y="1191.1582">UsersRepository</text><rect fill="#E3E3E3" height="37.2813" rx="2.5" ry="2.5" style="stroke:#181818;stroke-width:0.5;" width="189" x="2049" y="50"/><text fill="#000000" font-family="sans-serif" font-size="20" lengthAdjust="spacing" textLength="175" x="2056" y="75.5645">Auth:AuthFacade</text><rect fill="#E3E3E3" height="37.2813" rx="2.5" ry="2.5" style="stroke:#181818;stroke-width:0.5;" width="189" x="2049" y="1142.3125"/><text fill="#000000" font-family="sans-serif" font-size="20" lengthAdjust="spacing" textLength="175" x="2056" y="1167.877">Auth:AuthFacade</text><rect fill="#E3E3E3" height="37.2813" rx="2.5" ry="2.5" style="stroke:#181818;stroke-width:0.5;" width="115" x="2453.5" y="1142.3125"/><text fill="#000000" font-family="sans-serif" font-size="20" lengthAdjust="spacing" textLength="101" x="2460.5" y="1167.877">user: User</text><rect fill="#FFFFFF" height="1027.0313" style="stroke:#181818;stroke-width:1.0;" width="10" x="93.5" y="98.2813"/><rect fill="#FFFFFF" height="60.5625" style="stroke:#181818;stroke-width:1.0;" width="10" x="708.5" y="127.5625"/><rect fill="#FFFFFF" height="435.375" style="stroke:#181818;stroke-width:1.0;" width="10" x="708.5" y="225.4063"/><rect fill="#FFFFFF" height="427.25" style="stroke:#181818;stroke-width:1.0;" width="10" x="708.5" y="698.0625"/><rect fill="#FFFFFF" height="337.5313" style="stroke:#181818;stroke-width:1.0;" width="10" x="1303.5" y="285.9688"/><rect fill="#FFFFFF" height="389.9688" style="stroke:#181818;stroke-width:1.0;" width="10" x="1303.5" y="735.3438"/><rect fill="#FFFFFF" height="37.2813" style="stroke:#181818;stroke-width:1.0;" width="10" x="1509.5" y="323.25"/><rect fill="#FFFFFF" height="37.2813" style="stroke:#181818;stroke-width:1.0;" width="10" x="1663.5" y="397.8125"/><rect fill="#FFFFFF" height="60.5625" style="stroke:#181818;stroke-width:1.0;" width="10" x="1898.5" y="495.6563"/><rect fill="#FFFFFF" height="30" style="stroke:#181818;stroke-width:1.0;" width="10" x="1898.5" y="593.5"/><rect fill="#FFFFFF" height="352.6875" style="stroke:#181818;stroke-width:1.0;" width="10" x="1898.5" y="772.625"/><rect fill="#FFFFFF" height="28" style="stroke:#181818;stroke-width:1.0;" width="10" x="1903.5" y="817.9063"/><rect fill="#FFFFFF" height="28" style="stroke:#181818;stroke-width:1.0;" width="10" x="1903.5" y="898.1875"/><rect fill="#FFFFFF" height="73.2813" style="stroke:#181818;stroke-width:1.0;" width="10" x="2138.5" y="1007.75"/><rect fill="#FFFFFF" height="28" style="stroke:#181818;stroke-width:1.0;" width="10" x="2143.5" y="1053.0313"/><polygon fill="#181818" points="696.5,123.5625,706.5,127.5625,696.5,131.5625,700.5,127.5625" style="stroke:#181818;stroke-width:1.0;"/><line style="stroke:#181818;stroke-width:1.0;" x1="103.5" x2="702.5" y1="127.5625" y2="127.5625"/><text fill="#000000" font-family="sans-serif" font-size="20" font-weight="bold" lengthAdjust="spacing" textLength="14" x="110.5" y="120.8457">1</text><text fill="#000000" font-family="sans-serif" font-size="20" lengthAdjust="spacing" textLength="218" x="128.5" y="120.8457">register in the system</text><polygon fill="#181818" points="114.5,184.125,104.5,188.125,114.5,192.125,110.5,188.125" style="stroke:#181818;stroke-width:1.0;"/><line style="stroke:#181818;stroke-width:1.0;stroke-dasharray:2.0,2.0;" x1="108.5" x2="712.5" y1="188.125" y2="188.125"/><text fill="#000000" font-family="sans-serif" font-size="20" font-weight="bold" lengthAdjust="spacing" textLength="14" x="120.5" y="169.7676">2</text><text fill="#000000" font-family="sans-serif" font-size="20" lengthAdjust="spacing" textLength="563" x="138.5" y="158.127">requests data(name, passport card number, tax number</text><text fill="#000000" font-family="sans-serif" font-size="20" lengthAdjust="spacing" textLength="427" x="138.5" y="181.4082">, address, email,phone number, password)</text><path d="M723,149.2031 L723,182.2031 L1039,182.2031 L1039,159.2031 L1029,149.2031 L723,149.2031 " fill="#FAFAFA" style="stroke:#181818;stroke-width:0.5;"/><path d="M1029,149.2031 L1029,159.2031 L1039,159.2031 L1029,149.2031 " fill="#FAFAFA" style="stroke:#181818;stroke-width:0.5;"/><text fill="#000000" font-family="sans-serif" font-size="20" lengthAdjust="spacing" textLength="295" x="729" y="172.7676">the Address is not mandatory</text><polygon fill="#181818" points="696.5,221.4063,706.5,225.4063,696.5,229.4063,700.5,225.4063" style="stroke:#181818;stroke-width:1.0;"/><line style="stroke:#181818;stroke-width:1.0;" x1="103.5" x2="702.5" y1="225.4063" y2="225.4063"/><text fill="#000000" font-family="sans-serif" font-size="20" font-weight="bold" lengthAdjust="spacing" textLength="14" x="110.5" y="218.6895">3</text><text fill="#000000" font-family="sans-serif" font-size="20" lengthAdjust="spacing" textLength="212" x="128.5" y="218.6895">types requested data</text><polygon fill="#181818" points="1291.5,281.9688,1301.5,285.9688,1291.5,289.9688,1295.5,285.9688" style="stroke:#181818;stroke-width:1.0;"/><line style="stroke:#181818;stroke-width:1.0;" x1="718.5" x2="1297.5" y1="285.9688" y2="285.9688"/><text fill="#000000" font-family="sans-serif" font-size="20" font-weight="bold" lengthAdjust="spacing" textLength="14" x="725.5" y="267.6113">4</text><text fill="#000000" font-family="sans-serif" font-size="20" lengthAdjust="spacing" textLength="548" x="743.5" y="255.9707">registerUser(name, passport card number, tax number</text><text fill="#000000" font-family="sans-serif" font-size="20" lengthAdjust="spacing" textLength="427" x="743.5" y="279.252">, address, email,phone number, password)</text><polygon fill="#181818" points="1497.5,319.25,1507.5,323.25,1497.5,327.25,1501.5,323.25" style="stroke:#181818;stroke-width:1.0;"/><line style="stroke:#181818;stroke-width:1.0;" x1="1313.5" x2="1503.5" y1="323.25" y2="323.25"/><text fill="#000000" font-family="sans-serif" font-size="20" font-weight="bold" lengthAdjust="spacing" textLength="14" x="1320.5" y="316.5332">5</text><text fill="#000000" font-family="sans-serif" font-size="20" lengthAdjust="spacing" textLength="134" x="1338.5" y="316.5332">getInstance()</text><polygon fill="#181818" points="1324.5,356.5313,1314.5,360.5313,1324.5,364.5313,1320.5,360.5313" style="stroke:#181818;stroke-width:1.0;"/><line style="stroke:#181818;stroke-width:1.0;stroke-dasharray:2.0,2.0;" x1="1318.5" x2="1513.5" y1="360.5313" y2="360.5313"/><text fill="#000000" font-family="sans-serif" font-size="20" font-weight="bold" lengthAdjust="spacing" textLength="14" x="1330.5" y="353.8145">6</text><text fill="#000000" font-family="sans-serif" font-size="20" lengthAdjust="spacing" textLength="117" x="1348.5" y="353.8145">repositories</text><polygon fill="#181818" points="1651.5,393.8125,1661.5,397.8125,1651.5,401.8125,1655.5,397.8125" style="stroke:#181818;stroke-width:1.0;"/><line style="stroke:#181818;stroke-width:1.0;" x1="1313.5" x2="1657.5" y1="397.8125" y2="397.8125"/><text fill="#000000" font-family="sans-serif" font-size="20" font-weight="bold" lengthAdjust="spacing" textLength="14" x="1320.5" y="391.0957">7</text><text fill="#000000" font-family="sans-serif" font-size="20" lengthAdjust="spacing" textLength="210" x="1338.5" y="391.0957">getUsersRepository()</text><polygon fill="#181818" points="1324.5,431.0938,1314.5,435.0938,1324.5,439.0938,1320.5,435.0938" style="stroke:#181818;stroke-width:1.0;"/><line style="stroke:#181818;stroke-width:1.0;stroke-dasharray:2.0,2.0;" x1="1318.5" x2="1667.5" y1="435.0938" y2="435.0938"/><text fill="#000000" font-family="sans-serif" font-size="20" font-weight="bold" lengthAdjust="spacing" textLength="14" x="1330.5" y="428.377">8</text><text fill="#000000" font-family="sans-serif" font-size="20" lengthAdjust="spacing" textLength="161" x="1348.5" y="428.377">UsersRepository</text><polygon fill="#181818" points="1886.5,491.6563,1896.5,495.6563,1886.5,499.6563,1890.5,495.6563" style="stroke:#181818;stroke-width:1.0;"/><line style="stroke:#181818;stroke-width:1.0;" x1="1313.5" x2="1892.5" y1="495.6563" y2="495.6563"/><text fill="#000000" font-family="sans-serif" font-size="20" font-weight="bold" lengthAdjust="spacing" textLength="14" x="1320.5" y="477.2988">9</text><text fill="#000000" font-family="sans-serif" font-size="20" lengthAdjust="spacing" textLength="548" x="1338.5" y="465.6582">registerUser(name, passport card number, tax number</text><text fill="#000000" font-family="sans-serif" font-size="20" lengthAdjust="spacing" textLength="427" x="1338.5" y="488.9395">, address, email,phone number, password)</text><polygon fill="#181818" points="2441.5,552.2188,2451.5,556.2188,2441.5,560.2188,2445.5,556.2188" style="stroke:#181818;stroke-width:1.0;"/><line style="stroke:#181818;stroke-width:1.0;" x1="1903.5" x2="2447.5" y1="556.2188" y2="556.2188"/><text fill="#000000" font-family="sans-serif" font-size="20" font-weight="bold" lengthAdjust="spacing" textLength="28" x="1910.5" y="537.8613">10</text><text fill="#000000" font-family="sans-serif" font-size="20" lengthAdjust="spacing" textLength="489" x="1942.5" y="526.2207">create(name, passport card number, tax number</text><text fill="#000000" font-family="sans-serif" font-size="20" lengthAdjust="spacing" textLength="427" x="1942.5" y="549.502">, address, email,phone number, password)</text><rect fill="#E3E3E3" height="37.2813" rx="2.5" ry="2.5" style="stroke:#181818;stroke-width:0.5;" width="115" x="2453.5" y="515.9375"/><text fill="#000000" font-family="sans-serif" font-size="20" lengthAdjust="spacing" textLength="101" x="2460.5" y="541.502">user: User</text><polygon fill="#181818" points="1886.5,589.5,1896.5,593.5,1886.5,597.5,1890.5,593.5" style="stroke:#181818;stroke-width:1.0;"/><line style="stroke:#181818;stroke-width:1.0;" x1="1313.5" x2="1892.5" y1="593.5" y2="593.5"/><text fill="#000000" font-family="sans-serif" font-size="20" font-weight="bold" lengthAdjust="spacing" textLength="28" x="1320.5" y="586.7832">11</text><text fill="#000000" font-family="sans-serif" font-size="20" lengthAdjust="spacing" textLength="261" x="1352.5" y="586.7832">validateregisterUser(user)</text><polygon fill="#181818" points="114.5,656.7813,104.5,660.7813,114.5,664.7813,110.5,660.7813" style="stroke:#181818;stroke-width:1.0;"/><line style="stroke:#181818;stroke-width:1.0;stroke-dasharray:2.0,2.0;" x1="108.5" x2="712.5" y1="660.7813" y2="660.7813"/><text fill="#000000" font-family="sans-serif" font-size="20" font-weight="bold" lengthAdjust="spacing" textLength="28" x="120.5" y="654.0645">12</text><text fill="#000000" font-family="sans-serif" font-size="20" lengthAdjust="spacing" textLength="422" x="152.5" y="654.0645">shows the data and requests confirmation</text><polygon fill="#181818" points="696.5,694.0625,706.5,698.0625,696.5,702.0625,700.5,698.0625" style="stroke:#181818;stroke-width:1.0;"/><line style="stroke:#181818;stroke-width:1.0;" x1="103.5" x2="702.5" y1="698.0625" y2="698.0625"/><text fill="#000000" font-family="sans-serif" font-size="20" font-weight="bold" lengthAdjust="spacing" textLength="28" x="110.5" y="691.3457">13</text><text fill="#000000" font-family="sans-serif" font-size="20" lengthAdjust="spacing" textLength="177" x="142.5" y="691.3457">confirms the data</text><polygon fill="#181818" points="1291.5,731.3438,1301.5,735.3438,1291.5,739.3438,1295.5,735.3438" style="stroke:#181818;stroke-width:1.0;"/><line style="stroke:#181818;stroke-width:1.0;" x1="718.5" x2="1297.5" y1="735.3438" y2="735.3438"/><text fill="#000000" font-family="sans-serif" font-size="20" font-weight="bold" lengthAdjust="spacing" textLength="28" x="725.5" y="728.627">14</text><text fill="#000000" font-family="sans-serif" font-size="20" lengthAdjust="spacing" textLength="106" x="757.5" y="728.627">saveUser()</text><polygon fill="#181818" points="1886.5,768.625,1896.5,772.625,1886.5,776.625,1890.5,772.625" style="stroke:#181818;stroke-width:1.0;"/><line style="stroke:#181818;stroke-width:1.0;" x1="1313.5" x2="1892.5" y1="772.625" y2="772.625"/><text fill="#000000" font-family="sans-serif" font-size="20" font-weight="bold" lengthAdjust="spacing" textLength="28" x="1320.5" y="765.9082">15</text><text fill="#000000" font-family="sans-serif" font-size="20" lengthAdjust="spacing" textLength="149" x="1352.5" y="765.9082">saveUser(user)</text><line style="stroke:#181818;stroke-width:1.0;" x1="1913.5" x2="1955.5" y1="809.9063" y2="809.9063"/><line style="stroke:#181818;stroke-width:1.0;" x1="1955.5" x2="1955.5" y1="809.9063" y2="822.9063"/><line style="stroke:#181818;stroke-width:1.0;" x1="1914.5" x2="1955.5" y1="822.9063" y2="822.9063"/><polygon fill="#181818" points="1924.5,818.9063,1914.5,822.9063,1924.5,826.9063,1920.5,822.9063" style="stroke:#181818;stroke-width:1.0;"/><text fill="#000000" font-family="sans-serif" font-size="20" font-weight="bold" lengthAdjust="spacing" textLength="28" x="1920.5" y="803.1895">16</text><text fill="#000000" font-family="sans-serif" font-size="20" lengthAdjust="spacing" textLength="184" x="1952.5" y="803.1895">validateUser(user)</text><line style="stroke:#181818;stroke-width:1.0;" x1="1913.5" x2="1955.5" y1="890.1875" y2="890.1875"/><line style="stroke:#181818;stroke-width:1.0;" x1="1955.5" x2="1955.5" y1="890.1875" y2="903.1875"/><line style="stroke:#181818;stroke-width:1.0;" x1="1914.5" x2="1955.5" y1="903.1875" y2="903.1875"/><polygon fill="#181818" points="1924.5,899.1875,1914.5,903.1875,1924.5,907.1875,1920.5,903.1875" style="stroke:#181818;stroke-width:1.0;"/><text fill="#000000" font-family="sans-serif" font-size="20" font-weight="bold" lengthAdjust="spacing" textLength="28" x="1920.5" y="883.4707">17</text><text fill="#000000" font-family="sans-serif" font-size="20" lengthAdjust="spacing" textLength="142" x="1952.5" y="883.4707">addUser(user)</text><polygon fill="#181818" points="1291.5,966.4688,1301.5,970.4688,1291.5,974.4688,1295.5,970.4688" style="stroke:#181818;stroke-width:1.0;"/><line style="stroke:#181818;stroke-width:1.0;" x1="718.5" x2="1297.5" y1="970.4688" y2="970.4688"/><text fill="#000000" font-family="sans-serif" font-size="20" font-weight="bold" lengthAdjust="spacing" textLength="28" x="725.5" y="963.752">18</text><text fill="#000000" font-family="sans-serif" font-size="20" lengthAdjust="spacing" textLength="388" x="757.5" y="963.752">makeClientAnUserAndSendPassword()</text><polygon fill="#181818" points="2126.5,1003.75,2136.5,1007.75,2126.5,1011.75,2130.5,1007.75" style="stroke:#181818;stroke-width:1.0;"/><line style="stroke:#181818;stroke-width:1.0;" x1="1313.5" x2="2132.5" y1="1007.75" y2="1007.75"/><text fill="#000000" font-family="sans-serif" font-size="20" font-weight="bold" lengthAdjust="spacing" textLength="28" x="1320.5" y="1001.0332">19</text><text fill="#000000" font-family="sans-serif" font-size="20" lengthAdjust="spacing" textLength="532" x="1352.5" y="1001.0332">addUser(String name, String email, String password)</text><line style="stroke:#181818;stroke-width:1.0;" x1="2153.5" x2="2195.5" y1="1045.0313" y2="1045.0313"/><line style="stroke:#181818;stroke-width:1.0;" x1="2195.5" x2="2195.5" y1="1045.0313" y2="1058.0313"/><line style="stroke:#181818;stroke-width:1.0;" x1="2154.5" x2="2195.5" y1="1058.0313" y2="1058.0313"/><polygon fill="#181818" points="2164.5,1054.0313,2154.5,1058.0313,2164.5,1062.0313,2160.5,1058.0313" style="stroke:#181818;stroke-width:1.0;"/><text fill="#000000" font-family="sans-serif" font-size="20" font-weight="bold" lengthAdjust="spacing" textLength="28" x="2160.5" y="1038.3145">20</text><text fill="#000000" font-family="sans-serif" font-size="20" lengthAdjust="spacing" textLength="241" x="2192.5" y="1038.3145">existsUser(String email)</text><polygon fill="#181818" points="109.5,1121.3125,99.5,1125.3125,109.5,1129.3125,105.5,1125.3125" style="stroke:#181818;stroke-width:1.0;"/><line style="stroke:#181818;stroke-width:1.0;stroke-dasharray:2.0,2.0;" x1="103.5" x2="712.5" y1="1125.3125" y2="1125.3125"/><text fill="#000000" font-family="sans-serif" font-size="20" font-weight="bold" lengthAdjust="spacing" textLength="28" x="115.5" y="1118.5957">21</text><text fill="#000000" font-family="sans-serif" font-size="20" lengthAdjust="spacing" textLength="250" x="147.5" y="1118.5957">informs operation sucess</text><!--SRC=[lLN1Rjim3BthAuXSrXKfCEoOGu6WG840FHHDVUk5jPXOY2rvafmq-_fHiXFBJffkwBOSaaX-91-V7oMtKRf6YrLfyWr9aBJ2flJtHlkb-adm_Pjm1mXKHfkyiAOYyBQXv4cD-GRNjFJxai1Ixb6lonJW2fHcf_GQLbWw4W8RRtHJlP8LuakX9C7A6FzgtWJctbYOPDhIMZbFbcbbZkm4q46M2KxeLQvgr1uciwSE513PeiKiBc3kk3DhohBBT_Vyz722herJp46HYvZZndwfGbjCV1XYauWNVPhWyM7-F8nec8dhyyvUT3RSQHiPxWrJp1jVpCBNFUOeQG8Xeb-VrfibAWQHrHOz1K55bi7DBSi6CpXe3ag3BmZSdbTL0bymV04t0Pz5_8-6d7SWqUELnegcR0RdQcCzv6Wbj2zv2XxVklylUWeefINdfa0Lgd9Q5qRJ4HeIx8oLNuMajB8s_6lLkl02aa_WEM_pWNB0AAXGCw6W6MaPTcZGfT_Nv0xSW-kP_6cFjz4TYIX1lx_Vux5kzAA8DRds6TSnbJNvXNOyNZbT9Q7dB1erEfVbfkiiDDOxDTNwRBe3iU3cbid8docXQ7aHeNsviP-JYYt-M6E4_7_lO4nHZ3O2j-jhvfDROlo_TVoOo_lgRB5KR68Qg1I6_a9h5oebZrfJfYFl2hDpSUZ2s01FMdyAv4QlbAtGAtRCfLQ6WvtEPfUYh_3-O3hSKkpqtI4wLUeOyu4wunT_MVTFwlrxnTX1dwwJ7ciLRkYkLAJzF5u_SosNV5m-TbvaLNiX-uib8RBqDjpexGnqYzRTXzMP2Kkkg2Jfk0IziOzTMYKcFfydwVZ3tQ6NbLwPu3LJausc1TVaFANYJwOZMGUBff5ykVu2]--></g></svg>