<?xml version="1.0" encoding="UTF-8" standalone="no"?><svg xmlns="http://www.w3.org/2000/svg" xmlns:xlink="http://www.w3.org/1999/xlink" contentStyleType="text/css" height="1218px" preserveAspectRatio="none" style="width:1375px;height:1218px;background:#FFFFFF;" version="1.1" viewBox="0 0 1375 1218" width="1375px" zoomAndPan="magnify"><defs/><g><!--class ScheduleUI--><g id="elem_ScheduleUI"><rect codeLine="13" fill="#FFDAB9" height="73.2813" id="ScheduleUI" rx="2.5" ry="2.5" style="stroke:#4169E1;stroke-width:0.5;" width="420" x="385.76" y="7"/><ellipse cx="534.26" cy="24" fill="#ADD1B2" rx="12" ry="12" style="stroke:#181818;stroke-width:1.0;"/><path d="M537.3225,31.0781 Q536.635,31.4375 535.885,31.6094 Q535.135,31.7813 534.3069,31.7813 Q531.3538,31.7813 529.7913,29.8438 Q528.2444,27.8906 528.2444,24.2188 Q528.2444,20.5469 529.7913,18.6094 Q531.3538,16.6563 534.3069,16.6563 Q535.135,16.6563 535.885,16.8281 Q536.6506,17 537.3225,17.3594 L537.3225,20.5625 Q536.5725,19.875 535.8694,19.5625 Q535.1819,19.25 534.4319,19.25 Q532.8538,19.25 532.0413,20.5 Q531.2444,21.75 531.2444,24.2188 Q531.2444,26.6875 532.0413,27.9375 Q532.8538,29.1875 534.4319,29.1875 Q535.1819,29.1875 535.8694,28.875 Q536.5725,28.5625 537.3225,27.875 L537.3225,31.0781 Z " fill="#000000"/><text fill="#000000" font-family="sans-serif" font-size="20" lengthAdjust="spacing" textLength="114" x="556.26" y="30.9238">ScheduleUI</text><line style="stroke:#4169E1;stroke-width:0.5;" x1="386.76" x2="804.76" y1="41" y2="41"/><line style="stroke:#4169E1;stroke-width:0.5;" x1="386.76" x2="804.76" y1="49" y2="49"/><text fill="#000000" font-family="sans-serif" font-size="20" lengthAdjust="spacing" textLength="408" x="391.76" y="71.5645">+displayMessage(message: String): void</text></g><!--class VisitController--><g id="elem_VisitController"><rect codeLine="18" fill="#FFDAB9" height="236.25" id="VisitController" rx="2.5" ry="2.5" style="stroke:#4169E1;stroke-width:0.5;" width="540" x="615.76" y="140"/><ellipse cx="809.76" cy="157" fill="#ADD1B2" rx="12" ry="12" style="stroke:#181818;stroke-width:1.0;"/><path d="M812.8225,164.0781 Q812.135,164.4375 811.385,164.6094 Q810.635,164.7813 809.8069,164.7813 Q806.8538,164.7813 805.2913,162.8438 Q803.7444,160.8906 803.7444,157.2188 Q803.7444,153.5469 805.2913,151.6094 Q806.8538,149.6563 809.8069,149.6563 Q810.635,149.6563 811.385,149.8281 Q812.1506,150 812.8225,150.3594 L812.8225,153.5625 Q812.0725,152.875 811.3694,152.5625 Q810.6819,152.25 809.9319,152.25 Q808.3538,152.25 807.5413,153.5 Q806.7444,154.75 806.7444,157.2188 Q806.7444,159.6875 807.5413,160.9375 Q808.3538,162.1875 809.9319,162.1875 Q810.6819,162.1875 811.3694,161.875 Q812.0725,161.5625 812.8225,160.875 L812.8225,164.0781 Z " fill="#000000"/><text fill="#000000" font-family="sans-serif" font-size="20" lengthAdjust="spacing" textLength="143" x="831.76" y="163.9238">VisitController</text><line style="stroke:#4169E1;stroke-width:0.5;" x1="616.76" x2="1154.76" y1="174" y2="174"/><text fill="#000000" font-family="sans-serif" font-size="20" lengthAdjust="spacing" textLength="317" x="621.76" y="196.5645">-visitRepository: VisitRepository</text><text fill="#000000" font-family="sans-serif" font-size="20" lengthAdjust="spacing" textLength="528" x="621.76" y="219.8457">-authenticationRepository: AuthenticationRepository</text><text fill="#000000" font-family="sans-serif" font-size="20" lengthAdjust="spacing" textLength="367" x="621.76" y="243.127">-personRepository: PersonRepository</text><text fill="#000000" font-family="sans-serif" font-size="20" lengthAdjust="spacing" textLength="227" x="621.76" y="266.4082">-currentPerson: Person</text><line style="stroke:#4169E1;stroke-width:0.5;" x1="616.76" x2="1154.76" y1="275.125" y2="275.125"/><text fill="#000000" font-family="sans-serif" font-size="20" lengthAdjust="spacing" textLength="214" x="621.76" y="297.6895">+saveVisit(visit:Visit)</text><text fill="#000000" font-family="sans-serif" font-size="20" lengthAdjust="spacing" textLength="151" x="621.76" y="320.9707">+create(): void</text><text fill="#000000" font-family="sans-serif" font-size="20" lengthAdjust="spacing" textLength="289" x="621.76" y="344.252">+getCurrentPerson(): Person</text><text fill="#000000" font-family="sans-serif" font-size="20" lengthAdjust="spacing" textLength="494" x="621.76" y="367.5332">+sendRequest(propertyData: PropertyData): void</text></g><!--class AnnouncementController--><g id="elem_AnnouncementController"><rect codeLine="30" fill="#FFDAB9" height="96.5625" id="AnnouncementController" rx="2.5" ry="2.5" style="stroke:#4169E1;stroke-width:0.5;" width="550" x="30.76" y="209.5"/><ellipse cx="174.76" cy="226.5" fill="#ADD1B2" rx="12" ry="12" style="stroke:#181818;stroke-width:1.0;"/><path d="M177.8225,233.5781 Q177.135,233.9375 176.385,234.1094 Q175.635,234.2813 174.8069,234.2813 Q171.8538,234.2813 170.2913,232.3438 Q168.7444,230.3906 168.7444,226.7188 Q168.7444,223.0469 170.2913,221.1094 Q171.8538,219.1563 174.8069,219.1563 Q175.635,219.1563 176.385,219.3281 Q177.1506,219.5 177.8225,219.8594 L177.8225,223.0625 Q177.0725,222.375 176.3694,222.0625 Q175.6819,221.75 174.9319,221.75 Q173.3538,221.75 172.5413,223 Q171.7444,224.25 171.7444,226.7188 Q171.7444,229.1875 172.5413,230.4375 Q173.3538,231.6875 174.9319,231.6875 Q175.6819,231.6875 176.3694,231.375 Q177.0725,231.0625 177.8225,230.375 L177.8225,233.5781 Z " fill="#000000"/><text fill="#000000" font-family="sans-serif" font-size="20" lengthAdjust="spacing" textLength="253" x="196.76" y="233.4238">AnnouncementController</text><line style="stroke:#4169E1;stroke-width:0.5;" x1="31.76" x2="579.76" y1="243.5" y2="243.5"/><text fill="#000000" font-family="sans-serif" font-size="20" lengthAdjust="spacing" textLength="538" x="36.76" y="266.0645">-announcementRepository: AnnouncementRepository</text><line style="stroke:#4169E1;stroke-width:0.5;" x1="31.76" x2="579.76" y1="274.7813" y2="274.7813"/><text fill="#000000" font-family="sans-serif" font-size="20" lengthAdjust="spacing" textLength="491" x="36.76" y="297.3457">+getAnnouncementList(): List&lt;Announcement&gt;</text></g><!--class Repository--><g id="elem_Repository"><rect codeLine="35" fill="#FFDAB9" height="306.0938" id="Repository" rx="2.5" ry="2.5" style="stroke:#4169E1;stroke-width:0.5;" width="611" x="30.26" y="436"/><ellipse cx="278.26" cy="453" fill="#ADD1B2" rx="12" ry="12" style="stroke:#181818;stroke-width:1.0;"/><path d="M281.3225,460.0781 Q280.635,460.4375 279.885,460.6094 Q279.135,460.7813 278.3069,460.7813 Q275.3538,460.7813 273.7913,458.8438 Q272.2444,456.8906 272.2444,453.2188 Q272.2444,449.5469 273.7913,447.6094 Q275.3538,445.6563 278.3069,445.6563 Q279.135,445.6563 279.885,445.8281 Q280.6506,446 281.3225,446.3594 L281.3225,449.5625 Q280.5725,448.875 279.8694,448.5625 Q279.1819,448.25 278.4319,448.25 Q276.8538,448.25 276.0413,449.5 Q275.2444,450.75 275.2444,453.2188 Q275.2444,455.6875 276.0413,456.9375 Q276.8538,458.1875 278.4319,458.1875 Q279.1819,458.1875 279.8694,457.875 Q280.5725,457.5625 281.3225,456.875 L281.3225,460.0781 Z " fill="#000000"/><text fill="#000000" font-family="sans-serif" font-size="20" lengthAdjust="spacing" textLength="106" x="300.26" y="459.9238">Repository</text><line style="stroke:#4169E1;stroke-width:0.5;" x1="31.26" x2="640.26" y1="470" y2="470"/><text fill="#000000" font-family="sans-serif" font-size="20" lengthAdjust="spacing" textLength="538" x="36.26" y="492.5645">-announcementRepository: AnnouncementRepository</text><text fill="#000000" font-family="sans-serif" font-size="20" lengthAdjust="spacing" textLength="528" x="36.26" y="515.8457">-authenticationRepository: AuthenticationRepository</text><text fill="#000000" font-family="sans-serif" font-size="20" lengthAdjust="spacing" textLength="367" x="36.26" y="539.127">-personRepository: PersonRepository</text><text fill="#000000" font-family="sans-serif" font-size="20" lengthAdjust="spacing" textLength="317" x="36.26" y="562.4082">-visitRepository: VisitRepository</text><text fill="#000000" font-family="sans-serif" font-size="20" lengthAdjust="spacing" textLength="435" x="36.26" y="585.6895">-propertiesRepository: PropertiesRepository</text><line style="stroke:#4169E1;stroke-width:0.5;" x1="31.26" x2="640.26" y1="594.4063" y2="594.4063"/><text fill="#000000" font-family="sans-serif" font-size="20" lengthAdjust="spacing" textLength="270" x="36.26" y="616.9707">+getInstance(): Repository</text><text fill="#000000" font-family="sans-serif" font-size="20" lengthAdjust="spacing" textLength="599" x="36.26" y="640.252">+getAnnouncementRepository(): AnnouncementRepository</text><text fill="#000000" font-family="sans-serif" font-size="20" lengthAdjust="spacing" textLength="589" x="36.26" y="663.5332">+getAuthenticationRepository(): AuthenticationRepository</text><text fill="#000000" font-family="sans-serif" font-size="20" lengthAdjust="spacing" textLength="425" x="36.26" y="686.8145">+getPersonRepository(): PersonRepository</text><text fill="#000000" font-family="sans-serif" font-size="20" lengthAdjust="spacing" textLength="379" x="36.26" y="710.0957">+getVisitRepository(): VisitRepository</text><text fill="#000000" font-family="sans-serif" font-size="20" lengthAdjust="spacing" textLength="493" x="36.26" y="733.377">+getPropertiesRepository(): PropertiesRepository</text></g><!--class AnnouncementRepository--><g id="elem_AnnouncementRepository"><rect codeLine="49" fill="#FFDAB9" height="73.2813" id="AnnouncementRepository" rx="2.5" ry="2.5" style="stroke:#4169E1;stroke-width:0.5;" width="503" x="62.26" y="802"/><ellipse cx="179.26" cy="819" fill="#ADD1B2" rx="12" ry="12" style="stroke:#181818;stroke-width:1.0;"/><path d="M182.3225,826.0781 Q181.635,826.4375 180.885,826.6094 Q180.135,826.7813 179.3069,826.7813 Q176.3538,826.7813 174.7913,824.8438 Q173.2444,822.8906 173.2444,819.2188 Q173.2444,815.5469 174.7913,813.6094 Q176.3538,811.6563 179.3069,811.6563 Q180.135,811.6563 180.885,811.8281 Q181.6506,812 182.3225,812.3594 L182.3225,815.5625 Q181.5725,814.875 180.8694,814.5625 Q180.1819,814.25 179.4319,814.25 Q177.8538,814.25 177.0413,815.5 Q176.2444,816.75 176.2444,819.2188 Q176.2444,821.6875 177.0413,822.9375 Q177.8538,824.1875 179.4319,824.1875 Q180.1819,824.1875 180.8694,823.875 Q181.5725,823.5625 182.3225,822.875 L182.3225,826.0781 Z " fill="#000000"/><text fill="#000000" font-family="sans-serif" font-size="20" lengthAdjust="spacing" textLength="260" x="201.26" y="825.9238">AnnouncementRepository</text><line style="stroke:#4169E1;stroke-width:0.5;" x1="63.26" x2="564.26" y1="836" y2="836"/><line style="stroke:#4169E1;stroke-width:0.5;" x1="63.26" x2="564.26" y1="844" y2="844"/><text fill="#000000" font-family="sans-serif" font-size="20" lengthAdjust="spacing" textLength="491" x="68.26" y="866.5645">+getAnnouncementList(): List&lt;Announcement&gt;</text></g><!--class AuthenticationRepository--><g id="elem_AuthenticationRepository"><rect codeLine="53" fill="#FFDAB9" height="73.2813" id="AuthenticationRepository" rx="2.5" ry="2.5" style="stroke:#4169E1;stroke-width:0.5;" width="409" x="633.26" y="958.5"/><ellipse cx="705.76" cy="975.5" fill="#ADD1B2" rx="12" ry="12" style="stroke:#181818;stroke-width:1.0;"/><path d="M708.8225,982.5781 Q708.135,982.9375 707.385,983.1094 Q706.635,983.2813 705.8069,983.2813 Q702.8538,983.2813 701.2913,981.3438 Q699.7444,979.3906 699.7444,975.7188 Q699.7444,972.0469 701.2913,970.1094 Q702.8538,968.1563 705.8069,968.1563 Q706.635,968.1563 707.385,968.3281 Q708.1506,968.5 708.8225,968.8594 L708.8225,972.0625 Q708.0725,971.375 707.3694,971.0625 Q706.6819,970.75 705.9319,970.75 Q704.3538,970.75 703.5413,972 Q702.7444,973.25 702.7444,975.7188 Q702.7444,978.1875 703.5413,979.4375 Q704.3538,980.6875 705.9319,980.6875 Q706.6819,980.6875 707.3694,980.375 Q708.0725,980.0625 708.8225,979.375 L708.8225,982.5781 Z " fill="#000000"/><text fill="#000000" font-family="sans-serif" font-size="20" lengthAdjust="spacing" textLength="255" x="727.76" y="982.4238">AuthenticationRepository</text><line style="stroke:#4169E1;stroke-width:0.5;" x1="634.26" x2="1041.26" y1="992.5" y2="992.5"/><line style="stroke:#4169E1;stroke-width:0.5;" x1="634.26" x2="1041.26" y1="1000.5" y2="1000.5"/><text fill="#000000" font-family="sans-serif" font-size="20" lengthAdjust="spacing" textLength="397" x="639.26" y="1023.0645">+getCurrentUserSession(): UserSession</text></g><!--class PersonRepository--><g id="elem_PersonRepository"><rect codeLine="57" fill="#FFDAB9" height="73.2813" id="PersonRepository" rx="2.5" ry="2.5" style="stroke:#4169E1;stroke-width:0.5;" width="430" x="938.76" y="802"/><ellipse cx="1062.76" cy="819" fill="#ADD1B2" rx="12" ry="12" style="stroke:#181818;stroke-width:1.0;"/><path d="M1065.8225,826.0781 Q1065.135,826.4375 1064.385,826.6094 Q1063.635,826.7813 1062.8069,826.7813 Q1059.8538,826.7813 1058.2913,824.8438 Q1056.7444,822.8906 1056.7444,819.2188 Q1056.7444,815.5469 1058.2913,813.6094 Q1059.8538,811.6563 1062.8069,811.6563 Q1063.635,811.6563 1064.385,811.8281 Q1065.1506,812 1065.8225,812.3594 L1065.8225,815.5625 Q1065.0725,814.875 1064.3694,814.5625 Q1063.6819,814.25 1062.9319,814.25 Q1061.3538,814.25 1060.5413,815.5 Q1059.7444,816.75 1059.7444,819.2188 Q1059.7444,821.6875 1060.5413,822.9375 Q1061.3538,824.1875 1062.9319,824.1875 Q1063.6819,824.1875 1064.3694,823.875 Q1065.0725,823.5625 1065.8225,822.875 L1065.8225,826.0781 Z " fill="#000000"/><text fill="#000000" font-family="sans-serif" font-size="20" lengthAdjust="spacing" textLength="173" x="1084.76" y="825.9238">PersonRepository</text><line style="stroke:#4169E1;stroke-width:0.5;" x1="939.76" x2="1367.76" y1="836" y2="836"/><line style="stroke:#4169E1;stroke-width:0.5;" x1="939.76" x2="1367.76" y1="844" y2="844"/><text fill="#000000" font-family="sans-serif" font-size="20" lengthAdjust="spacing" textLength="418" x="944.76" y="866.5645">+getPersonById(personId: String): Person</text></g><!--class VisitRepository--><g id="elem_VisitRepository"><rect codeLine="61" fill="#FFDAB9" height="73.2813" id="VisitRepository" rx="2.5" ry="2.5" style="stroke:#4169E1;stroke-width:0.5;" width="232" x="600.76" y="802"/><ellipse cx="638.36" cy="819" fill="#ADD1B2" rx="12" ry="12" style="stroke:#181818;stroke-width:1.0;"/><path d="M641.4225,826.0781 Q640.735,826.4375 639.985,826.6094 Q639.235,826.7813 638.4069,826.7813 Q635.4538,826.7813 633.8913,824.8438 Q632.3444,822.8906 632.3444,819.2188 Q632.3444,815.5469 633.8913,813.6094 Q635.4538,811.6563 638.4069,811.6563 Q639.235,811.6563 639.985,811.8281 Q640.7506,812 641.4225,812.3594 L641.4225,815.5625 Q640.6725,814.875 639.9694,814.5625 Q639.2819,814.25 638.5319,814.25 Q636.9538,814.25 636.1413,815.5 Q635.3444,816.75 635.3444,819.2188 Q635.3444,821.6875 636.1413,822.9375 Q636.9538,824.1875 638.5319,824.1875 Q639.2819,824.1875 639.9694,823.875 Q640.6725,823.5625 641.4225,822.875 L641.4225,826.0781 Z " fill="#000000"/><text fill="#000000" font-family="sans-serif" font-size="20" lengthAdjust="spacing" textLength="150" x="658.16" y="825.9238">VisitRepository</text><line style="stroke:#4169E1;stroke-width:0.5;" x1="601.76" x2="831.76" y1="836" y2="836"/><line style="stroke:#4169E1;stroke-width:0.5;" x1="601.76" x2="831.76" y1="844" y2="844"/><text fill="#000000" font-family="sans-serif" font-size="20" lengthAdjust="spacing" textLength="220" x="606.76" y="866.5645">+saveVisit( visit:Visit)</text></g><!--class UserSession--><g id="elem_UserSession"><rect codeLine="68" fill="#FFDAB9" height="96.5625" id="UserSession" rx="2.5" ry="2.5" style="stroke:#4169E1;stroke-width:0.5;" width="216" x="729.76" y="1115"/><ellipse cx="773.21" cy="1132" fill="#ADD1B2" rx="12" ry="12" style="stroke:#181818;stroke-width:1.0;"/><path d="M776.2725,1139.0781 Q775.585,1139.4375 774.835,1139.6094 Q774.085,1139.7813 773.2569,1139.7813 Q770.3038,1139.7813 768.7413,1137.8438 Q767.1944,1135.8906 767.1944,1132.2188 Q767.1944,1128.5469 768.7413,1126.6094 Q770.3038,1124.6563 773.2569,1124.6563 Q774.085,1124.6563 774.835,1124.8281 Q775.6006,1125 776.2725,1125.3594 L776.2725,1128.5625 Q775.5225,1127.875 774.8194,1127.5625 Q774.1319,1127.25 773.3819,1127.25 Q771.8038,1127.25 770.9913,1128.5 Q770.1944,1129.75 770.1944,1132.2188 Q770.1944,1134.6875 770.9913,1135.9375 Q771.8038,1137.1875 773.3819,1137.1875 Q774.1319,1137.1875 774.8194,1136.875 Q775.5225,1136.5625 776.2725,1135.875 L776.2725,1139.0781 Z " fill="#000000"/><text fill="#000000" font-family="sans-serif" font-size="20" lengthAdjust="spacing" textLength="121" x="794.31" y="1138.9238">UserSession</text><line style="stroke:#4169E1;stroke-width:0.5;" x1="730.76" x2="944.76" y1="1149" y2="1149"/><line style="stroke:#4169E1;stroke-width:0.5;" x1="730.76" x2="944.76" y1="1157" y2="1157"/><text fill="#000000" font-family="sans-serif" font-size="20" lengthAdjust="spacing" textLength="159" x="735.76" y="1179.5645">+getId(): String</text><text fill="#000000" font-family="sans-serif" font-size="20" lengthAdjust="spacing" textLength="204" x="735.76" y="1202.8457">+getUserId(): String</text></g><!--class Person--><g id="elem_Person"><rect codeLine="73" fill="#FFDAB9" height="119.8438" id="Person" rx="2.5" ry="2.5" style="stroke:#4169E1;stroke-width:0.5;" width="247" x="1077.26" y="935"/><ellipse cx="1162.76" cy="952" fill="#ADD1B2" rx="12" ry="12" style="stroke:#181818;stroke-width:1.0;"/><path d="M1165.8225,959.0781 Q1165.135,959.4375 1164.385,959.6094 Q1163.635,959.7813 1162.8069,959.7813 Q1159.8538,959.7813 1158.2913,957.8438 Q1156.7444,955.8906 1156.7444,952.2188 Q1156.7444,948.5469 1158.2913,946.6094 Q1159.8538,944.6563 1162.8069,944.6563 Q1163.635,944.6563 1164.385,944.8281 Q1165.1506,945 1165.8225,945.3594 L1165.8225,948.5625 Q1165.0725,947.875 1164.3694,947.5625 Q1163.6819,947.25 1162.9319,947.25 Q1161.3538,947.25 1160.5413,948.5 Q1159.7444,949.75 1159.7444,952.2188 Q1159.7444,954.6875 1160.5413,955.9375 Q1161.3538,957.1875 1162.9319,957.1875 Q1163.6819,957.1875 1164.3694,956.875 Q1165.0725,956.5625 1165.8225,955.875 L1165.8225,959.0781 Z " fill="#000000"/><text fill="#000000" font-family="sans-serif" font-size="20" lengthAdjust="spacing" textLength="67" x="1184.76" y="958.9238">Person</text><line style="stroke:#4169E1;stroke-width:0.5;" x1="1078.26" x2="1323.26" y1="969" y2="969"/><text fill="#000000" font-family="sans-serif" font-size="20" lengthAdjust="spacing" textLength="148" x="1083.26" y="991.5645">+name: String</text><text fill="#000000" font-family="sans-serif" font-size="20" lengthAdjust="spacing" textLength="235" x="1083.26" y="1014.8457">+phoneNumber: String</text><text fill="#000000" font-family="sans-serif" font-size="20" lengthAdjust="spacing" textLength="147" x="1083.26" y="1038.127">+email: String</text><line style="stroke:#4169E1;stroke-width:0.5;" x1="1078.26" x2="1323.26" y1="1046.8438" y2="1046.8438"/></g><!--link ScheduleUI to VisitController--><g id="link_ScheduleUI_VisitController"><path codeLine="79" d="M644.3,80.07 C666.2,96.12 693.47,116.1 721.72,136.8 " fill="none" id="ScheduleUI-to-VisitController" style="stroke:#4169E1;stroke-width:1.0;"/><polygon fill="#4169E1" points="725.9,139.86,720.9973,131.3181,721.8644,136.9081,716.2743,137.7752,725.9,139.86" style="stroke:#4169E1;stroke-width:1.0;"/></g><!--link ScheduleUI to AnnouncementController--><g id="link_ScheduleUI_AnnouncementController"><path codeLine="80" d="M547.22,80.07 C500.07,114.61 428.03,167.4 374.9,206.33 " fill="none" id="ScheduleUI-to-AnnouncementController" style="stroke:#4169E1;stroke-width:1.0;"/><polygon fill="#4169E1" points="370.79,209.35,380.417,207.2711,374.8275,206.4006,375.698,200.8112,370.79,209.35" style="stroke:#4169E1;stroke-width:1.0;"/></g><!--link VisitController to Repository--><g id="link_VisitController_Repository"><path codeLine="81" d="M689.91,376.15 C658.9,394.7 626.41,414.13 594.24,433.38 " fill="none" id="VisitController-to-Repository" style="stroke:#4169E1;stroke-width:1.0;"/><polygon fill="#4169E1" points="589.9,435.97,599.6783,434.7935,594.1938,433.4081,595.5792,427.9235,589.9,435.97" style="stroke:#4169E1;stroke-width:1.0;"/></g><!--link AnnouncementController to Repository--><g id="link_AnnouncementController_Repository"><path codeLine="82" d="M310.12,306.84 C313.12,339.79 317.3,385.6 321.41,430.69 " fill="none" id="AnnouncementController-to-Repository" style="stroke:#4169E1;stroke-width:1.0;"/><polygon fill="#4169E1" points="321.89,435.9,325.0515,426.5724,321.4335,430.9209,317.0849,427.3028,321.89,435.9" style="stroke:#4169E1;stroke-width:1.0;"/></g><!--link VisitController to VisitRepository--><g id="link_VisitController_VisitRepository"><path codeLine="83" d="M851.56,376.07 C813.45,506.52 753.87,710.44 728.66,796.74 " fill="none" id="VisitController-to-VisitRepository" style="stroke:#4169E1;stroke-width:1.0;"/><polygon fill="#4169E1" points="727.2,801.76,733.56,794.24,728.6,796.96,725.88,792,727.2,801.76" style="stroke:#4169E1;stroke-width:1.0;"/></g><!--link VisitController to AuthenticationRepository--><g id="link_VisitController_AuthenticationRepository"><path codeLine="84" d="M880.92,376.07 C875.37,500.08 865.15,701.53 850.76,875 C848.59,901.09 845.41,930.32 842.73,953.28 " fill="none" id="VisitController-to-AuthenticationRepository" style="stroke:#4169E1;stroke-width:1.0;"/><polygon fill="#4169E1" points="842.14,958.38,847.1416,949.8956,842.711,953.4127,839.1939,948.9821,842.14,958.38" style="stroke:#4169E1;stroke-width:1.0;"/></g><!--link VisitController to PersonRepository--><g id="link_VisitController_PersonRepository"><path codeLine="85" d="M939.99,376.07 C1000.48,506.65 1095.08,710.85 1134.99,797 " fill="none" id="VisitController-to-PersonRepository" style="stroke:#4169E1;stroke-width:1.0;"/><polygon fill="#4169E1" points="1137.2,801.76,1137.0426,791.9124,1135.0965,797.224,1129.785,795.2779,1137.2,801.76" style="stroke:#4169E1;stroke-width:1.0;"/></g><!--link Repository to AnnouncementRepository--><g id="link_Repository_AnnouncementRepository"><path codeLine="86" d="M322.23,742.16 C320.46,762.06 318.78,780.93 317.4,796.54 " fill="none" id="Repository-to-AnnouncementRepository" style="stroke:#4169E1;stroke-width:1.0;"/><polygon fill="#4169E1" points="316.94,801.71,321.7228,793.1004,317.3836,796.7297,313.7543,792.3906,316.94,801.71" style="stroke:#4169E1;stroke-width:1.0;"/></g><!--link Repository to AuthenticationRepository--><g id="link_Repository_AuthenticationRepository"><path codeLine="87" d="M65.7,742.13 C24,783.83 6,829.99 44.76,875 C118.63,960.79 418.7,985.6 627.75,992.29 " fill="none" id="Repository-to-AuthenticationRepository" style="stroke:#4169E1;stroke-width:1.0;"/><polygon fill="#4169E1" points="632.98,992.46,624.1101,988.1793,627.9825,992.3029,623.8588,996.1753,632.98,992.46" style="stroke:#4169E1;stroke-width:1.0;"/></g><!--link Repository to PersonRepository--><g id="link_Repository_PersonRepository"><path codeLine="88" d="M641.51,682.51 C776.97,723.5 928.6,769.38 1031.5,800.51 " fill="none" id="Repository-to-PersonRepository" style="stroke:#4169E1;stroke-width:1.0;"/><polygon fill="#4169E1" points="1036.36,801.98,1028.9153,795.532,1031.5768,800.5236,1026.5851,803.1851,1036.36,801.98" style="stroke:#4169E1;stroke-width:1.0;"/></g><!--link Repository to VisitRepository--><g id="link_Repository_VisitRepository"><path codeLine="89" d="M570,742.16 C602.37,763.2 632.97,783.07 657.76,799.18 " fill="none" id="Repository-to-VisitRepository" style="stroke:#4169E1;stroke-width:1.0;"/><polygon fill="#4169E1" points="662,801.93,656.6122,793.6855,657.8006,799.2161,652.27,800.4045,662,801.93" style="stroke:#4169E1;stroke-width:1.0;"/></g><!--link PersonRepository to AuthenticationRepository--><g id="link_PersonRepository_AuthenticationRepository"><path codeLine="90" d="M1080.86,875.14 C1031.23,899.4 965.64,931.48 915.09,956.19 " fill="none" id="PersonRepository-to-AuthenticationRepository" style="stroke:#4169E1;stroke-width:1.0;stroke-dasharray:7.0,7.0;"/><polygon fill="#4169E1" points="910.56,958.41,920.4018,958.0383,915.0492,956.2083,916.8791,950.8556,910.56,958.41" style="stroke:#4169E1;stroke-width:1.0;"/></g><!--link AuthenticationRepository to UserSession--><g id="link_AuthenticationRepository_UserSession"><path codeLine="92" d="M837.76,1031.72 C837.76,1054.47 837.76,1084.35 837.76,1109.8 " fill="none" id="AuthenticationRepository-to-UserSession" style="stroke:#4169E1;stroke-width:1.0;"/><polygon fill="#4169E1" points="837.76,1114.83,841.76,1105.83,837.76,1109.83,833.76,1105.83,837.76,1114.83" style="stroke:#4169E1;stroke-width:1.0;"/></g><!--link PersonRepository to Person--><g id="link_PersonRepository_Person"><path codeLine="93" d="M1164.66,875.33 C1169.56,891.47 1175.51,911.02 1181.15,929.56 " fill="none" id="PersonRepository-to-Person" style="stroke:#4169E1;stroke-width:1.0;"/><polygon fill="#4169E1" points="1182.74,934.76,1183.9369,924.9841,1181.2796,929.978,1176.2858,927.3207,1182.74,934.76" style="stroke:#4169E1;stroke-width:1.0;"/></g><!--SRC=[jLJ1Rjim3BtxAtHhYY75i6Cm54Wo50Ym3K62xgvAZ2r4bZn9Jk4D-_THiXFBYfskX_bYctnyugD8sgDG5JMqb9eTWHCE1rfBzwILsujVG3vzpExi6KDAhJGhZ2w1E5D3rdigoeuqXxrh9103p56LonXW2yhrgr0vEL1f8MQLGe5hAY3Qk49dTn8EZZXDZCWBHxZmT4AhY8n9QktIEIDUQWSRfbL85dETdvydWObOJ0UFl1XJ2l8x8_YiCFdSw5hnjPRQa2rGLcphmo5ubyRerzQnqmsLAudAGvWs74pg-PErr7jM0AybF6_2AH-ui9MapJUm5WirAzltWknHXShl5-Ia1Syml8l_8QnmQxm7ewK44qZc9s_SGQNnfKspQ56zmMDexGfGJZ3ggnQ3bnCU7rM1iKFqDh5u5AkDGORMTOPaNfwb9mZ9p4AEY_1zxptC07KmEoj4Imvk7HDvNqVbcK3n7VoimRfPPJGcvfelr574H7zdkakzbahX3J8eaJOj6uryWuACshiKO-TNWSdWaVxzENOyzWdq1Es58yL6MHm45iGdb_JUZFxhjVvBMtLN8S0Es4Qi8_NhdRuKjyi-eIO4JYlreQcqlg-ke8b0ZxpM73X710RUCU6ZpJZI5-zjhIdT5y9kd9ujc3qk5j7ELFJRSwK5kN2qZbMpuREsQpOysaxTV0xNKyhIBm4os08-x1mO9TNF2VVfjcTr9WyRc1C1RQoY9SI1LQ4LVA_B5p2n6KegPCmKBUVv_37TjQbxVBLawORsqAWP9XPIWXeZIJjn33Cv2cFWgo68BYuLU0CrTMI2U-kqLDvLHpuyt3Wicnm6pnst_1Lldrps5m00]--></g></svg>