<?xml version="1.0" encoding="UTF-8" standalone="no"?><svg xmlns="http://www.w3.org/2000/svg" xmlns:xlink="http://www.w3.org/1999/xlink" contentStyleType="text/css" height="1421px" preserveAspectRatio="none" style="width:3155px;height:1421px;background:#FFFFFF;" version="1.1" viewBox="0 0 3155 1421" width="3155px" zoomAndPan="magnify"><defs/><g><rect fill="#FFFFFF" height="1226.5625" style="stroke:#181818;stroke-width:1.0;" width="10" x="47.5" y="98.2813"/><rect fill="#FFFFFF" height="369.8125" style="stroke:#181818;stroke-width:1.0;" width="10" x="736.5" y="127.5625"/><rect fill="#FFFFFF" height="111.8438" style="stroke:#181818;stroke-width:1.0;" width="10" x="736.5" y="758.3438"/><rect fill="#FFFFFF" height="37.2813" style="stroke:#181818;stroke-width:1.0;" width="10" x="1964.5" y="236.4063"/><rect fill="#FFFFFF" height="111.8438" style="stroke:#181818;stroke-width:1.0;" width="10" x="2118.5" y="310.9688"/><rect fill="#FFFFFF" height="111.8438" style="stroke:#181818;stroke-width:1.0;" width="10" x="2118.5" y="534.6563"/><rect fill="#FFFFFF" height="37.2813" style="stroke:#181818;stroke-width:1.0;" width="10" x="2333.5" y="385.5313"/><rect fill="#FFFFFF" height="37.2813" style="stroke:#181818;stroke-width:1.0;" width="10" x="2613.5" y="683.7813"/><rect fill="#FFFFFF" height="37.2813" style="stroke:#181818;stroke-width:1.0;" width="10" x="2858" y="795.625"/><rect fill="#FFFFFF" height="214.9688" style="stroke:#181818;stroke-width:1.0;" width="10" x="3049.5" y="1019.3125"/><rect fill="none" height="282.5313" style="stroke:#000000;stroke-width:1.5;" width="3138.5" x="10" y="1034.3125"/><line style="stroke:#181818;stroke-width:0.5;stroke-dasharray:5.0,5.0;" x1="52" x2="52" y1="88.2813" y2="1333.8438"/><line style="stroke:#181818;stroke-width:0.5;stroke-dasharray:5.0,5.0;" x1="741" x2="741" y1="88.2813" y2="1333.8438"/><line style="stroke:#181818;stroke-width:0.5;stroke-dasharray:5.0,5.0;" x1="1534.5" x2="1534.5" y1="181.3438" y2="1333.8438"/><line style="stroke:#181818;stroke-width:0.5;stroke-dasharray:5.0,5.0;" x1="1756.5" x2="1756.5" y1="88.2813" y2="1333.8438"/><line style="stroke:#181818;stroke-width:0.5;stroke-dasharray:5.0,5.0;" x1="1969.5" x2="1969.5" y1="88.2813" y2="1333.8438"/><line style="stroke:#181818;stroke-width:0.5;stroke-dasharray:5.0,5.0;" x1="2123.5" x2="2123.5" y1="88.2813" y2="1333.8438"/><line style="stroke:#181818;stroke-width:0.5;stroke-dasharray:5.0,5.0;" x1="2338.5" x2="2338.5" y1="88.2813" y2="1333.8438"/><line style="stroke:#181818;stroke-width:0.5;stroke-dasharray:5.0,5.0;" x1="2618.5" x2="2618.5" y1="88.2813" y2="1333.8438"/><line style="stroke:#181818;stroke-width:0.5;stroke-dasharray:5.0,5.0;" x1="2862.5" x2="2862.5" y1="88.2813" y2="1333.8438"/><line style="stroke:#181818;stroke-width:0.5;stroke-dasharray:5.0,5.0;" x1="3054.5" x2="3054.5" y1="88.2813" y2="1333.8438"/><text fill="#000000" font-family="sans-serif" font-size="20" lengthAdjust="spacing" textLength="59" x="20" y="83.5645">Client</text><ellipse cx="52.5" cy="13.5" fill="#E3E3E3" rx="8" ry="8" style="stroke:#181818;stroke-width:0.5;"/><path d="M52.5,21.5 L52.5,48.5 M39.5,29.5 L65.5,29.5 M52.5,48.5 L39.5,63.5 M52.5,48.5 L65.5,63.5 " fill="none" style="stroke:#181818;stroke-width:0.5;"/><text fill="#000000" font-family="sans-serif" font-size="20" lengthAdjust="spacing" textLength="59" x="20" y="1351.4082">Client</text><ellipse cx="52.5" cy="1364.625" fill="#E3E3E3" rx="8" ry="8" style="stroke:#181818;stroke-width:0.5;"/><path d="M52.5,1372.625 L52.5,1399.625 M39.5,1380.625 L65.5,1380.625 M52.5,1399.625 L39.5,1414.625 M52.5,1399.625 L65.5,1414.625 " fill="none" style="stroke:#181818;stroke-width:0.5;"/><rect fill="#E3E3E3" height="37.2813" rx="2.5" ry="2.5" style="stroke:#181818;stroke-width:0.5;" width="141" x="671" y="50"/><text fill="#000000" font-family="sans-serif" font-size="20" lengthAdjust="spacing" textLength="127" x="678" y="75.5645">ScheuduleUI</text><rect fill="#E3E3E3" height="37.2813" rx="2.5" ry="2.5" style="stroke:#181818;stroke-width:0.5;" width="141" x="671" y="1332.8438"/><text fill="#000000" font-family="sans-serif" font-size="20" lengthAdjust="spacing" textLength="127" x="678" y="1358.4082">ScheuduleUI</text><rect fill="#E3E3E3" height="60.5625" rx="2.5" ry="2.5" style="stroke:#181818;stroke-width:0.5;" width="164" x="1452.5" y="1332.8438"/><text fill="#000000" font-family="sans-serif" font-size="20" lengthAdjust="spacing" textLength="140" x="1464.5" y="1358.4082">visitController</text><text fill="#000000" font-family="sans-serif" font-size="20" lengthAdjust="spacing" textLength="150" x="1459.5" y="1381.6895">:VisitController</text><rect fill="#E3E3E3" height="60.5625" rx="2.5" ry="2.5" style="stroke:#181818;stroke-width:0.5;" width="261" x="1626.5" y="26.7188"/><text fill="#000000" font-family="sans-serif" font-size="20" lengthAdjust="spacing" textLength="238" x="1638" y="52.2832">annoucementController</text><text fill="#000000" font-family="sans-serif" font-size="20" lengthAdjust="spacing" textLength="247" x="1633.5" y="75.5645">:AnnoucementController</text><rect fill="#E3E3E3" height="60.5625" rx="2.5" ry="2.5" style="stroke:#181818;stroke-width:0.5;" width="261" x="1626.5" y="1332.8438"/><text fill="#000000" font-family="sans-serif" font-size="20" lengthAdjust="spacing" textLength="238" x="1638" y="1358.4082">annoucementController</text><text fill="#000000" font-family="sans-serif" font-size="20" lengthAdjust="spacing" textLength="247" x="1633.5" y="1381.6895">:AnnoucementController</text><rect fill="#E3E3E3" height="37.2813" rx="2.5" ry="2.5" style="stroke:#181818;stroke-width:0.5;" width="144" x="1897.5" y="50"/><text fill="#000000" font-family="sans-serif" font-size="20" lengthAdjust="spacing" textLength="130" x="1904.5" y="75.5645">:Repositories</text><rect fill="#E3E3E3" height="37.2813" rx="2.5" ry="2.5" style="stroke:#181818;stroke-width:0.5;" width="144" x="1897.5" y="1332.8438"/><text fill="#000000" font-family="sans-serif" font-size="20" lengthAdjust="spacing" textLength="130" x="1904.5" y="1358.4082">:Repositories</text><rect fill="#E3E3E3" height="60.5625" rx="2.5" ry="2.5" style="stroke:#181818;stroke-width:0.5;" width="144" x="2051.5" y="26.7188"/><text fill="#000000" font-family="sans-serif" font-size="20" lengthAdjust="spacing" textLength="117" x="2065" y="52.2832">repositories</text><text fill="#000000" font-family="sans-serif" font-size="20" lengthAdjust="spacing" textLength="130" x="2058.5" y="75.5645">:Repositories</text><rect fill="#E3E3E3" height="60.5625" rx="2.5" ry="2.5" style="stroke:#181818;stroke-width:0.5;" width="144" x="2051.5" y="1332.8438"/><text fill="#000000" font-family="sans-serif" font-size="20" lengthAdjust="spacing" textLength="117" x="2065" y="1358.4082">repositories</text><text fill="#000000" font-family="sans-serif" font-size="20" lengthAdjust="spacing" textLength="130" x="2058.5" y="1381.6895">:Repositories</text><rect fill="#E3E3E3" height="60.5625" rx="2.5" ry="2.5" style="stroke:#181818;stroke-width:0.5;" width="266" x="2205.5" y="26.7188"/><text fill="#000000" font-family="sans-serif" font-size="20" lengthAdjust="spacing" textLength="252" x="2212.5" y="52.2832">annoucementRepository:</text><text fill="#000000" font-family="sans-serif" font-size="20" lengthAdjust="spacing" textLength="247" x="2215" y="75.5645">AnnoucementRepository</text><rect fill="#E3E3E3" height="60.5625" rx="2.5" ry="2.5" style="stroke:#181818;stroke-width:0.5;" width="266" x="2205.5" y="1332.8438"/><text fill="#000000" font-family="sans-serif" font-size="20" lengthAdjust="spacing" textLength="252" x="2212.5" y="1358.4082">annoucementRepository:</text><text fill="#000000" font-family="sans-serif" font-size="20" lengthAdjust="spacing" textLength="247" x="2215" y="1381.6895">AnnoucementRepository</text><rect fill="#E3E3E3" height="60.5625" rx="2.5" ry="2.5" style="stroke:#181818;stroke-width:0.5;" width="274" x="2481.5" y="26.7188"/><text fill="#000000" font-family="sans-serif" font-size="20" lengthAdjust="spacing" textLength="260" x="2488.5" y="52.2832">authenticationRepository:</text><text fill="#000000" font-family="sans-serif" font-size="20" lengthAdjust="spacing" textLength="255" x="2491" y="75.5645">AuthenticationRepository</text><rect fill="#E3E3E3" height="60.5625" rx="2.5" ry="2.5" style="stroke:#181818;stroke-width:0.5;" width="274" x="2481.5" y="1332.8438"/><text fill="#000000" font-family="sans-serif" font-size="20" lengthAdjust="spacing" textLength="260" x="2488.5" y="1358.4082">authenticationRepository:</text><text fill="#000000" font-family="sans-serif" font-size="20" lengthAdjust="spacing" textLength="255" x="2491" y="1381.6895">AuthenticationRepository</text><rect fill="#E3E3E3" height="60.5625" rx="2.5" ry="2.5" style="stroke:#181818;stroke-width:0.5;" width="195" x="2765.5" y="26.7188"/><text fill="#000000" font-family="sans-serif" font-size="20" lengthAdjust="spacing" textLength="181" x="2772.5" y="52.2832">personRepository:</text><text fill="#000000" font-family="sans-serif" font-size="20" lengthAdjust="spacing" textLength="173" x="2776.5" y="75.5645">PersonRepository</text><rect fill="#E3E3E3" height="60.5625" rx="2.5" ry="2.5" style="stroke:#181818;stroke-width:0.5;" width="195" x="2765.5" y="1332.8438"/><text fill="#000000" font-family="sans-serif" font-size="20" lengthAdjust="spacing" textLength="181" x="2772.5" y="1358.4082">personRepository:</text><text fill="#000000" font-family="sans-serif" font-size="20" lengthAdjust="spacing" textLength="173" x="2776.5" y="1381.6895">PersonRepository</text><rect fill="#E3E3E3" height="60.5625" rx="2.5" ry="2.5" style="stroke:#181818;stroke-width:0.5;" width="168" x="2970.5" y="26.7188"/><text fill="#000000" font-family="sans-serif" font-size="20" lengthAdjust="spacing" textLength="154" x="2977.5" y="52.2832">visitRepository:</text><text fill="#000000" font-family="sans-serif" font-size="20" lengthAdjust="spacing" textLength="150" x="2979.5" y="75.5645">VisitRepository</text><rect fill="#E3E3E3" height="60.5625" rx="2.5" ry="2.5" style="stroke:#181818;stroke-width:0.5;" width="168" x="2970.5" y="1332.8438"/><text fill="#000000" font-family="sans-serif" font-size="20" lengthAdjust="spacing" textLength="154" x="2977.5" y="1358.4082">visitRepository:</text><text fill="#000000" font-family="sans-serif" font-size="20" lengthAdjust="spacing" textLength="150" x="2979.5" y="1381.6895">VisitRepository</text><rect fill="#FFFFFF" height="1226.5625" style="stroke:#181818;stroke-width:1.0;" width="10" x="47.5" y="98.2813"/><rect fill="#FFFFFF" height="369.8125" style="stroke:#181818;stroke-width:1.0;" width="10" x="736.5" y="127.5625"/><rect fill="#FFFFFF" height="111.8438" style="stroke:#181818;stroke-width:1.0;" width="10" x="736.5" y="758.3438"/><rect fill="#FFFFFF" height="37.2813" style="stroke:#181818;stroke-width:1.0;" width="10" x="1964.5" y="236.4063"/><rect fill="#FFFFFF" height="111.8438" style="stroke:#181818;stroke-width:1.0;" width="10" x="2118.5" y="310.9688"/><rect fill="#FFFFFF" height="111.8438" style="stroke:#181818;stroke-width:1.0;" width="10" x="2118.5" y="534.6563"/><rect fill="#FFFFFF" height="37.2813" style="stroke:#181818;stroke-width:1.0;" width="10" x="2333.5" y="385.5313"/><rect fill="#FFFFFF" height="37.2813" style="stroke:#181818;stroke-width:1.0;" width="10" x="2613.5" y="683.7813"/><rect fill="#FFFFFF" height="37.2813" style="stroke:#181818;stroke-width:1.0;" width="10" x="2858" y="795.625"/><rect fill="#FFFFFF" height="214.9688" style="stroke:#181818;stroke-width:1.0;" width="10" x="3049.5" y="1019.3125"/><polygon fill="#181818" points="724.5,123.5625,734.5,127.5625,724.5,131.5625,728.5,127.5625" style="stroke:#181818;stroke-width:1.0;"/><line style="stroke:#181818;stroke-width:1.0;" x1="57.5" x2="730.5" y1="127.5625" y2="127.5625"/><text fill="#000000" font-family="sans-serif" font-size="20" font-weight="bold" lengthAdjust="spacing" textLength="14" x="64.5" y="120.8457">1</text><text fill="#000000" font-family="sans-serif" font-size="20" lengthAdjust="spacing" textLength="230" x="82.5" y="120.8457">Ask to scheudule a vist</text><polygon fill="#181818" points="1440.5,160.8438,1450.5,164.8438,1440.5,168.8438,1444.5,164.8438" style="stroke:#181818;stroke-width:1.0;"/><line style="stroke:#181818;stroke-width:1.0;" x1="746.5" x2="1446.5" y1="164.8438" y2="164.8438"/><text fill="#000000" font-family="sans-serif" font-size="20" font-weight="bold" lengthAdjust="spacing" textLength="14" x="753.5" y="158.127">2</text><text fill="#000000" font-family="sans-serif" font-size="20" lengthAdjust="spacing" textLength="63" x="771.5" y="158.127">create</text><rect fill="#E3E3E3" height="60.5625" rx="2.5" ry="2.5" style="stroke:#181818;stroke-width:0.5;" width="164" x="1452.5" y="135.5625"/><text fill="#000000" font-family="sans-serif" font-size="20" lengthAdjust="spacing" textLength="140" x="1464.5" y="161.127">visitController</text><text fill="#000000" font-family="sans-serif" font-size="20" lengthAdjust="spacing" textLength="150" x="1459.5" y="184.4082">:VisitController</text><polygon fill="#181818" points="1952.5,232.4063,1962.5,236.4063,1952.5,240.4063,1956.5,236.4063" style="stroke:#181818;stroke-width:1.0;"/><line style="stroke:#181818;stroke-width:1.0;" x1="1534.5" x2="1958.5" y1="236.4063" y2="236.4063"/><text fill="#000000" font-family="sans-serif" font-size="20" font-weight="bold" lengthAdjust="spacing" textLength="14" x="1541.5" y="229.6895">3</text><text fill="#000000" font-family="sans-serif" font-size="20" lengthAdjust="spacing" textLength="134" x="1559.5" y="229.6895">getInstance()</text><polygon fill="#181818" points="1545.5,269.6875,1535.5,273.6875,1545.5,277.6875,1541.5,273.6875" style="stroke:#181818;stroke-width:1.0;"/><line style="stroke:#181818;stroke-width:1.0;stroke-dasharray:2.0,2.0;" x1="1539.5" x2="1968.5" y1="273.6875" y2="273.6875"/><text fill="#000000" font-family="sans-serif" font-size="20" font-weight="bold" lengthAdjust="spacing" textLength="14" x="1551.5" y="266.9707">4</text><text fill="#000000" font-family="sans-serif" font-size="20" lengthAdjust="spacing" textLength="117" x="1569.5" y="266.9707">repositories</text><polygon fill="#181818" points="2106.5,306.9688,2116.5,310.9688,2106.5,314.9688,2110.5,310.9688" style="stroke:#181818;stroke-width:1.0;"/><line style="stroke:#181818;stroke-width:1.0;" x1="1534.5" x2="2112.5" y1="310.9688" y2="310.9688"/><text fill="#000000" font-family="sans-serif" font-size="20" font-weight="bold" lengthAdjust="spacing" textLength="14" x="1541.5" y="304.252">5</text><text fill="#000000" font-family="sans-serif" font-size="20" lengthAdjust="spacing" textLength="296" x="1559.5" y="304.252">getAnnoucementRepository()</text><polygon fill="#181818" points="1545.5,344.25,1535.5,348.25,1545.5,352.25,1541.5,348.25" style="stroke:#181818;stroke-width:1.0;"/><line style="stroke:#181818;stroke-width:1.0;stroke-dasharray:2.0,2.0;" x1="1539.5" x2="2117.5" y1="348.25" y2="348.25"/><text fill="#000000" font-family="sans-serif" font-size="20" font-weight="bold" lengthAdjust="spacing" textLength="14" x="1551.5" y="341.5332">6</text><text fill="#000000" font-family="sans-serif" font-size="20" lengthAdjust="spacing" textLength="280" x="1569.5" y="341.5332">getAnnoucementRepository</text><polygon fill="#181818" points="2321.5,381.5313,2331.5,385.5313,2321.5,389.5313,2325.5,385.5313" style="stroke:#181818;stroke-width:1.0;"/><line style="stroke:#181818;stroke-width:1.0;" x1="1534.5" x2="2327.5" y1="385.5313" y2="385.5313"/><text fill="#000000" font-family="sans-serif" font-size="20" font-weight="bold" lengthAdjust="spacing" textLength="14" x="1541.5" y="378.8145">7</text><text fill="#000000" font-family="sans-serif" font-size="20" lengthAdjust="spacing" textLength="238" x="1559.5" y="378.8145">getAnnouncementList()</text><polygon fill="#181818" points="1545.5,418.8125,1535.5,422.8125,1545.5,426.8125,1541.5,422.8125" style="stroke:#181818;stroke-width:1.0;"/><line style="stroke:#181818;stroke-width:1.0;stroke-dasharray:2.0,2.0;" x1="1539.5" x2="2337.5" y1="422.8125" y2="422.8125"/><text fill="#000000" font-family="sans-serif" font-size="20" font-weight="bold" lengthAdjust="spacing" textLength="14" x="1551.5" y="416.0957">8</text><text fill="#000000" font-family="sans-serif" font-size="20" lengthAdjust="spacing" textLength="222" x="1569.5" y="416.0957">getAnnouncementList</text><polygon fill="#181818" points="757.5,456.0938,747.5,460.0938,757.5,464.0938,753.5,460.0938" style="stroke:#181818;stroke-width:1.0;"/><line style="stroke:#181818;stroke-width:1.0;stroke-dasharray:2.0,2.0;" x1="751.5" x2="1533.5" y1="460.0938" y2="460.0938"/><text fill="#000000" font-family="sans-serif" font-size="20" font-weight="bold" lengthAdjust="spacing" textLength="14" x="763.5" y="453.377">9</text><text fill="#000000" font-family="sans-serif" font-size="20" lengthAdjust="spacing" textLength="174" x="781.5" y="453.377">annoucementList</text><polygon fill="#181818" points="68.5,493.375,58.5,497.375,68.5,501.375,64.5,497.375" style="stroke:#181818;stroke-width:1.0;"/><line style="stroke:#181818;stroke-width:1.0;stroke-dasharray:2.0,2.0;" x1="62.5" x2="740.5" y1="497.375" y2="497.375"/><text fill="#000000" font-family="sans-serif" font-size="20" font-weight="bold" lengthAdjust="spacing" textLength="28" x="74.5" y="490.6582">10</text><text fill="#000000" font-family="sans-serif" font-size="20" lengthAdjust="spacing" textLength="360" x="106.5" y="490.6582">display properties and requeste one</text><polygon fill="#181818" points="2106.5,530.6563,2116.5,534.6563,2106.5,538.6563,2110.5,534.6563" style="stroke:#181818;stroke-width:1.0;"/><line style="stroke:#181818;stroke-width:1.0;" x1="1534.5" x2="2112.5" y1="534.6563" y2="534.6563"/><text fill="#000000" font-family="sans-serif" font-size="20" font-weight="bold" lengthAdjust="spacing" textLength="28" x="1541.5" y="527.9395">11</text><text fill="#000000" font-family="sans-serif" font-size="20" lengthAdjust="spacing" textLength="199" x="1573.5" y="527.9395">getVisitRepository()</text><polygon fill="#181818" points="1545.5,567.9375,1535.5,571.9375,1545.5,575.9375,1541.5,571.9375" style="stroke:#181818;stroke-width:1.0;"/><line style="stroke:#181818;stroke-width:1.0;stroke-dasharray:2.0,2.0;" x1="1539.5" x2="2117.5" y1="571.9375" y2="571.9375"/><text fill="#000000" font-family="sans-serif" font-size="20" font-weight="bold" lengthAdjust="spacing" textLength="28" x="1551.5" y="565.2207">12</text><text fill="#000000" font-family="sans-serif" font-size="20" lengthAdjust="spacing" textLength="147" x="1583.5" y="565.2207">visitRepository</text><polygon fill="#181818" points="2106.5,605.2188,2116.5,609.2188,2106.5,613.2188,2110.5,609.2188" style="stroke:#181818;stroke-width:1.0;"/><line style="stroke:#181818;stroke-width:1.0;" x1="1534.5" x2="2112.5" y1="609.2188" y2="609.2188"/><text fill="#000000" font-family="sans-serif" font-size="20" font-weight="bold" lengthAdjust="spacing" textLength="28" x="1541.5" y="602.502">13</text><text fill="#000000" font-family="sans-serif" font-size="20" lengthAdjust="spacing" textLength="313" x="1573.5" y="602.502">authenticationVisitRepository()</text><polygon fill="#181818" points="1545.5,642.5,1535.5,646.5,1545.5,650.5,1541.5,646.5" style="stroke:#181818;stroke-width:1.0;"/><line style="stroke:#181818;stroke-width:1.0;stroke-dasharray:2.0,2.0;" x1="1539.5" x2="2122.5" y1="646.5" y2="646.5"/><text fill="#000000" font-family="sans-serif" font-size="20" font-weight="bold" lengthAdjust="spacing" textLength="28" x="1551.5" y="639.7832">14</text><text fill="#000000" font-family="sans-serif" font-size="20" lengthAdjust="spacing" textLength="253" x="1583.5" y="639.7832">authenticationRepository</text><polygon fill="#181818" points="2601.5,679.7813,2611.5,683.7813,2601.5,687.7813,2605.5,683.7813" style="stroke:#181818;stroke-width:1.0;"/><line style="stroke:#181818;stroke-width:1.0;" x1="1534.5" x2="2607.5" y1="683.7813" y2="683.7813"/><text fill="#000000" font-family="sans-serif" font-size="20" font-weight="bold" lengthAdjust="spacing" textLength="28" x="1541.5" y="677.0645">15</text><text fill="#000000" font-family="sans-serif" font-size="20" lengthAdjust="spacing" textLength="320" x="1573.5" y="677.0645">getCurrentUserSession().getId()</text><polygon fill="#181818" points="1545.5,717.0625,1535.5,721.0625,1545.5,725.0625,1541.5,721.0625" style="stroke:#181818;stroke-width:1.0;"/><line style="stroke:#181818;stroke-width:1.0;stroke-dasharray:2.0,2.0;" x1="1539.5" x2="2617.5" y1="721.0625" y2="721.0625"/><text fill="#000000" font-family="sans-serif" font-size="20" font-weight="bold" lengthAdjust="spacing" textLength="28" x="1551.5" y="714.3457">16</text><text fill="#000000" font-family="sans-serif" font-size="20" lengthAdjust="spacing" textLength="56" x="1583.5" y="714.3457">email</text><polygon fill="#181818" points="1522.5,754.3438,1532.5,758.3438,1522.5,762.3438,1526.5,758.3438" style="stroke:#181818;stroke-width:1.0;"/><line style="stroke:#181818;stroke-width:1.0;" x1="746.5" x2="1528.5" y1="758.3438" y2="758.3438"/><text fill="#000000" font-family="sans-serif" font-size="20" font-weight="bold" lengthAdjust="spacing" textLength="28" x="753.5" y="751.627">17</text><text fill="#000000" font-family="sans-serif" font-size="20" lengthAdjust="spacing" textLength="192" x="785.5" y="751.627">getCurrentPerson()</text><polygon fill="#181818" points="2846,791.625,2856,795.625,2846,799.625,2850,795.625" style="stroke:#181818;stroke-width:1.0;"/><line style="stroke:#181818;stroke-width:1.0;" x1="1534.5" x2="2852" y1="795.625" y2="795.625"/><text fill="#000000" font-family="sans-serif" font-size="20" font-weight="bold" lengthAdjust="spacing" textLength="28" x="1541.5" y="788.9082">18</text><text fill="#000000" font-family="sans-serif" font-size="20" lengthAdjust="spacing" textLength="786" x="1573.5" y="788.9082">getPersonById(AuthenticationRepository.getCurrentUserSession().getUserId())</text><polygon fill="#181818" points="1545.5,828.9063,1535.5,832.9063,1545.5,836.9063,1541.5,832.9063" style="stroke:#181818;stroke-width:1.0;"/><line style="stroke:#181818;stroke-width:1.0;stroke-dasharray:2.0,2.0;" x1="1539.5" x2="2862" y1="832.9063" y2="832.9063"/><text fill="#000000" font-family="sans-serif" font-size="20" font-weight="bold" lengthAdjust="spacing" textLength="28" x="1551.5" y="826.1895">19</text><text fill="#000000" font-family="sans-serif" font-size="20" lengthAdjust="spacing" textLength="220" x="1583.5" y="826.1895">currentPerson: Person</text><polygon fill="#181818" points="752.5,866.1875,742.5,870.1875,752.5,874.1875,748.5,870.1875" style="stroke:#181818;stroke-width:1.0;"/><line style="stroke:#181818;stroke-width:1.0;stroke-dasharray:2.0,2.0;" x1="746.5" x2="1533.5" y1="870.1875" y2="870.1875"/><text fill="#000000" font-family="sans-serif" font-size="20" font-weight="bold" lengthAdjust="spacing" textLength="28" x="758.5" y="863.4707">20</text><text fill="#000000" font-family="sans-serif" font-size="20" lengthAdjust="spacing" textLength="269" x="790.5" y="863.4707">name,phoneNumber,email</text><polygon fill="#181818" points="68.5,903.4688,58.5,907.4688,68.5,911.4688,64.5,907.4688" style="stroke:#181818;stroke-width:1.0;"/><line style="stroke:#181818;stroke-width:1.0;" x1="62.5" x2="740.5" y1="907.4688" y2="907.4688"/><text fill="#000000" font-family="sans-serif" font-size="20" font-weight="bold" lengthAdjust="spacing" textLength="28" x="74.5" y="900.752">21</text><text fill="#000000" font-family="sans-serif" font-size="20" lengthAdjust="spacing" textLength="447" x="106.5" y="900.752">reques data(property,date,starVisit,endVisit)</text><polygon fill="#181818" points="729.5,940.75,739.5,944.75,729.5,948.75,733.5,944.75" style="stroke:#181818;stroke-width:1.0;"/><line style="stroke:#181818;stroke-width:1.0;" x1="57.5" x2="735.5" y1="944.75" y2="944.75"/><text fill="#000000" font-family="sans-serif" font-size="20" font-weight="bold" lengthAdjust="spacing" textLength="28" x="64.5" y="938.0332">22</text><text fill="#000000" font-family="sans-serif" font-size="20" lengthAdjust="spacing" textLength="433" x="96.5" y="938.0332">types data(property,date,starVisit,endVisit)</text><polygon fill="#181818" points="1522.5,978.0313,1532.5,982.0313,1522.5,986.0313,1526.5,982.0313" style="stroke:#181818;stroke-width:1.0;"/><line style="stroke:#181818;stroke-width:1.0;" x1="741.5" x2="1528.5" y1="982.0313" y2="982.0313"/><text fill="#000000" font-family="sans-serif" font-size="20" font-weight="bold" lengthAdjust="spacing" textLength="28" x="748.5" y="975.3145">23</text><text fill="#000000" font-family="sans-serif" font-size="20" lengthAdjust="spacing" textLength="737" x="780.5" y="975.3145">sendRequest(name,email,phone number,property,date,starVisit,endVisit)</text><polygon fill="#181818" points="3037.5,1015.3125,3047.5,1019.3125,3037.5,1023.3125,3041.5,1019.3125" style="stroke:#181818;stroke-width:1.0;"/><line style="stroke:#181818;stroke-width:1.0;" x1="1534.5" x2="3043.5" y1="1019.3125" y2="1019.3125"/><text fill="#000000" font-family="sans-serif" font-size="20" font-weight="bold" lengthAdjust="spacing" textLength="28" x="1541.5" y="1012.5957">24</text><text fill="#000000" font-family="sans-serif" font-size="20" lengthAdjust="spacing" textLength="737" x="1573.5" y="1012.5957">sendRequest(name,email,phone number,property,date,starVisit,endVisit)</text><path d="M10,1034.3125 L86,1034.3125 L86,1049.5938 L76,1059.5938 L10,1059.5938 L10,1034.3125 " fill="#EEEEEE" style="stroke:#000000;stroke-width:1.5;"/><rect fill="none" height="282.5313" style="stroke:#000000;stroke-width:1.5;" width="3138.5" x="10" y="1034.3125"/><text fill="#000000" font-family="sans-serif" font-size="20" font-weight="bold" lengthAdjust="spacing" textLength="31" x="25" y="1053.877">alt</text><text fill="#000000" font-family="sans-serif" font-size="20" font-weight="bold" lengthAdjust="spacing" textLength="586" x="101" y="1054.877">[visit is overlapping with previous scheudule visits]</text><polygon fill="#181818" points="1545.5,1093.1563,1535.5,1097.1563,1545.5,1101.1563,1541.5,1097.1563" style="stroke:#181818;stroke-width:1.0;"/><line style="stroke:#181818;stroke-width:1.0;stroke-dasharray:2.0,2.0;" x1="1539.5" x2="3048.5" y1="1097.1563" y2="1097.1563"/><text fill="#000000" font-family="sans-serif" font-size="20" font-weight="bold" lengthAdjust="spacing" textLength="28" x="1551.5" y="1090.4395">25</text><text fill="#000000" font-family="sans-serif" font-size="20" lengthAdjust="spacing" textLength="47" x="1583.5" y="1090.4395">false</text><polygon fill="#181818" points="752.5,1130.4375,742.5,1134.4375,752.5,1138.4375,748.5,1134.4375" style="stroke:#181818;stroke-width:1.0;"/><line style="stroke:#181818;stroke-width:1.0;stroke-dasharray:2.0,2.0;" x1="746.5" x2="1533.5" y1="1134.4375" y2="1134.4375"/><text fill="#000000" font-family="sans-serif" font-size="20" font-weight="bold" lengthAdjust="spacing" textLength="28" x="758.5" y="1127.7207">26</text><text fill="#000000" font-family="sans-serif" font-size="20" lengthAdjust="spacing" textLength="491" x="790.5" y="1127.7207">Send message (visit overlaps with existing visits)</text><polygon fill="#181818" points="68.5,1167.7188,58.5,1171.7188,68.5,1175.7188,64.5,1171.7188" style="stroke:#181818;stroke-width:1.0;"/><line style="stroke:#181818;stroke-width:1.0;stroke-dasharray:2.0,2.0;" x1="62.5" x2="740.5" y1="1171.7188" y2="1171.7188"/><text fill="#000000" font-family="sans-serif" font-size="20" font-weight="bold" lengthAdjust="spacing" textLength="28" x="74.5" y="1165.002">27</text><text fill="#000000" font-family="sans-serif" font-size="20" lengthAdjust="spacing" textLength="628" x="106.5" y="1165.002">Display message (visit overlaps with previous scheudule visits)</text><line style="stroke:#000000;stroke-width:1.0;stroke-dasharray:2.0,2.0;" x1="10" x2="3148.5" y1="1180.7188" y2="1180.7188"/><text fill="#000000" font-family="sans-serif" font-size="20" font-weight="bold" lengthAdjust="spacing" textLength="204" x="15" y="1199.2832">[visit is available]</text><polygon fill="#181818" points="1545.5,1230.2813,1535.5,1234.2813,1545.5,1238.2813,1541.5,1234.2813" style="stroke:#181818;stroke-width:1.0;"/><line style="stroke:#181818;stroke-width:1.0;stroke-dasharray:2.0,2.0;" x1="1539.5" x2="3053.5" y1="1234.2813" y2="1234.2813"/><text fill="#000000" font-family="sans-serif" font-size="20" font-weight="bold" lengthAdjust="spacing" textLength="28" x="1551.5" y="1227.5645">28</text><text fill="#000000" font-family="sans-serif" font-size="20" lengthAdjust="spacing" textLength="41" x="1583.5" y="1227.5645">true</text><polygon fill="#181818" points="752.5,1267.5625,742.5,1271.5625,752.5,1275.5625,748.5,1271.5625" style="stroke:#181818;stroke-width:1.0;"/><line style="stroke:#181818;stroke-width:1.0;stroke-dasharray:2.0,2.0;" x1="746.5" x2="1533.5" y1="1271.5625" y2="1271.5625"/><text fill="#000000" font-family="sans-serif" font-size="20" font-weight="bold" lengthAdjust="spacing" textLength="28" x="758.5" y="1264.8457">29</text><text fill="#000000" font-family="sans-serif" font-size="20" lengthAdjust="spacing" textLength="245" x="790.5" y="1264.8457">Send message (success)</text><polygon fill="#181818" points="68.5,1304.8438,58.5,1308.8438,68.5,1312.8438,64.5,1308.8438" style="stroke:#181818;stroke-width:1.0;"/><line style="stroke:#181818;stroke-width:1.0;stroke-dasharray:2.0,2.0;" x1="62.5" x2="740.5" y1="1308.8438" y2="1308.8438"/><text fill="#000000" font-family="sans-serif" font-size="20" font-weight="bold" lengthAdjust="spacing" textLength="28" x="74.5" y="1302.127">30</text><text fill="#000000" font-family="sans-serif" font-size="20" lengthAdjust="spacing" textLength="267" x="106.5" y="1302.127">Display message (success)</text><!--SRC=[hLV1Rjim3BthAuXUbXPfCUpeGu4kwu00mL0qIq-zg3QR274aJvBJPby_sd9iMP625fWlRINoFP9-f5cp5RBYckzAbM-nW09VULtQdqhQfVYByEqhCqSJs2cfyerMEmIhQ_HkAfvl-HgNzb0YQCmjb-lIDp0RNgWt8TVmoak3ZF7QAbdlNb0pzcKZ2eHNfUoBUcSyjqh3nQmKAEq5S0Ep1ICKAt9HSMdXOfbli2xg4bVpzdur7z_lXH5sHYbeLPQedsNsD3vflPvkPhyV0sGkfQfpt17poFykTjwYt4LGiaUi514gBT2qLlt1OIcQob3kOnVjUH3VAS3zGpBI0JnxbdUnynOYwX60rdP3roBdLYWvnarSEUZ4vHYzGcq2r8VWg4KZkpH8-sv764_Z4_TknsUC7fALs7EBZPeOTCzi0TUtf1_8uCvimIemHsq11-AoWsqFG783xo5lmd1gkheYf5mZcJMS47cSOUCI4GLvhz7EfQ46od5o6KNe0ucfAkhHF36swpxm37m5Ha4AF4-SOFRolNzm-KKrcaXsb2yrmObHW-hdaS9dwS3YlTGZINUr83L4WkoZunzYZLfH_5tu4KvsvaN4ETavbwQ8yL9G5Ajvva4kHleVz4w6iqLM25EL_02LLjInbcH3uHIaepyr6Y9ISjG3NWZKG1viH211-_PLJoGHIY2O4Ina68-hKx8Xk10vEUZOcJftrRrDUhSvpsgjwN9bK2_H63AONDuqmw1e8WgrbegZiqjS3pe3t75HdaRzYGIxxoSBnU59kSl9JVaXZVGixMiLV0CQC8Vo_K05INsCRixKiJbeQXbqS1z9-DKPMGMNNXrpFyKCt4-MQhwp97uNWkGxd5ORQg9VxPOqzL_OQJUneVpKcgu7eU2MJxhsF4pfBvpIXqMtWf-YBDfVZlMOBHonFLGVTsKdRnqCtJww6J1fasW3Twc0s_Yc7mO-oY7eqUp_a0GAE5qQU6dTC05XGErHbxogcYNsJTWD3JxS2rKRRsTeZGqBa0QvkENtE8-EgyUIGe8TYPLMQ9WumexDE2fyfr7S43k2InRfmsOF8KHQQJBuqStciw39-AdyI74EgVCzLPU_q4OVPEODHs9j_odm8qlCuNZUfivp-ltpkVMEZF3-0G00]--></g></svg>