<?xml version="1.0" encoding="UTF-8" standalone="no"?><svg xmlns="http://www.w3.org/2000/svg" xmlns:xlink="http://www.w3.org/1999/xlink" contentStyleType="text/css" height="563px" preserveAspectRatio="none" style="width:612px;height:563px;background:#FFFFFF;" version="1.1" viewBox="0 0 612 563" width="612px" zoomAndPan="magnify"><defs/><g><rect fill="#FFFFFF" height="364.5625" style="stroke:#181818;stroke-width:1.0;" width="10" x="97" y="100.1563"/><rect fill="#FFFFFF" height="89.4688" style="stroke:#181818;stroke-width:1.0;" width="10" x="558" y="131.3125"/><rect fill="#FFFFFF" height="39.1563" style="stroke:#181818;stroke-width:1.0;" width="10" x="558" y="259.9375"/><rect fill="#FFFFFF" height="39.1563" style="stroke:#181818;stroke-width:1.0;" width="10" x="558" y="338.25"/><rect fill="#FFFFFF" height="39.1563" style="stroke:#181818;stroke-width:1.0;" width="10" x="558" y="416.5625"/><line style="stroke:#181818;stroke-width:0.5;stroke-dasharray:5.0,5.0;" x1="102" x2="102" y1="90.1563" y2="473.7188"/><line style="stroke:#181818;stroke-width:0.5;stroke-dasharray:5.0,5.0;" x1="563" x2="563" y1="90.1563" y2="473.7188"/><text fill="#000000" font-family="sans-serif" font-size="20" lengthAdjust="spacing" textLength="188" x="5" y="85.7617">System Administrator</text><ellipse cx="102" cy="13.5" fill="#E3E3E3" rx="8" ry="8" style="stroke:#181818;stroke-width:0.5;"/><path d="M102,21.5 L102,48.5 M89,29.5 L115,29.5 M102,48.5 L89,63.5 M102,48.5 L115,63.5 " fill="none" style="stroke:#181818;stroke-width:0.5;"/><text fill="#000000" font-family="sans-serif" font-size="20" lengthAdjust="spacing" textLength="188" x="5" y="493.4805">System Administrator</text><ellipse cx="102" cy="506.375" fill="#E3E3E3" rx="8" ry="8" style="stroke:#181818;stroke-width:0.5;"/><path d="M102,514.375 L102,541.375 M89,522.375 L115,522.375 M102,541.375 L89,556.375 M102,541.375 L115,556.375 " fill="none" style="stroke:#181818;stroke-width:0.5;"/><rect fill="#E3E3E3" height="39.1563" rx="2.5" ry="2.5" style="stroke:#181818;stroke-width:0.5;" width="86" x="520" y="50"/><text fill="#000000" font-family="sans-serif" font-size="20" lengthAdjust="spacing" textLength="72" x="527" y="77.7617">:System</text><rect fill="#E3E3E3" height="39.1563" rx="2.5" ry="2.5" style="stroke:#181818;stroke-width:0.5;" width="86" x="520" y="472.7188"/><text fill="#000000" font-family="sans-serif" font-size="20" lengthAdjust="spacing" textLength="72" x="527" y="500.4805">:System</text><rect fill="#FFFFFF" height="364.5625" style="stroke:#181818;stroke-width:1.0;" width="10" x="97" y="100.1563"/><rect fill="#FFFFFF" height="89.4688" style="stroke:#181818;stroke-width:1.0;" width="10" x="558" y="131.3125"/><rect fill="#FFFFFF" height="39.1563" style="stroke:#181818;stroke-width:1.0;" width="10" x="558" y="259.9375"/><rect fill="#FFFFFF" height="39.1563" style="stroke:#181818;stroke-width:1.0;" width="10" x="558" y="338.25"/><rect fill="#FFFFFF" height="39.1563" style="stroke:#181818;stroke-width:1.0;" width="10" x="558" y="416.5625"/><polygon fill="#181818" points="546,127.3125,556,131.3125,546,135.3125,550,131.3125" style="stroke:#181818;stroke-width:1.0;"/><line style="stroke:#181818;stroke-width:1.0;" x1="107" x2="552" y1="131.3125" y2="131.3125"/><text fill="#000000" font-family="sans-serif" font-size="20" font-weight="bold" lengthAdjust="spacing" textLength="11" x="114" y="124.918">1</text><text fill="#000000" font-family="sans-serif" font-size="20" lengthAdjust="spacing" textLength="287" x="129" y="124.918">asks to register a new employee</text><polygon fill="#181818" points="118,216.7813,108,220.7813,118,224.7813,114,220.7813" style="stroke:#181818;stroke-width:1.0;"/><line style="stroke:#181818;stroke-width:1.0;stroke-dasharray:2.0,2.0;" x1="112" x2="562" y1="220.7813" y2="220.7813"/><text fill="#000000" font-family="sans-serif" font-size="20" font-weight="bold" lengthAdjust="spacing" textLength="11" x="124" y="189.2305">2</text><text fill="#000000" font-family="sans-serif" font-size="20" lengthAdjust="spacing" textLength="364" x="139" y="164.0742">requests data(name, citizen card number,</text><text fill="#000000" font-family="sans-serif" font-size="20" lengthAdjust="spacing" textLength="233" x="139" y="189.2305">tax number, adress, email,</text><text fill="#000000" font-family="sans-serif" font-size="20" lengthAdjust="spacing" textLength="206" x="139" y="214.3867">phone number, agency)</text><polygon fill="#181818" points="546,255.9375,556,259.9375,546,263.9375,550,259.9375" style="stroke:#181818;stroke-width:1.0;"/><line style="stroke:#181818;stroke-width:1.0;" x1="107" x2="552" y1="259.9375" y2="259.9375"/><text fill="#000000" font-family="sans-serif" font-size="20" font-weight="bold" lengthAdjust="spacing" textLength="11" x="114" y="253.543">3</text><text fill="#000000" font-family="sans-serif" font-size="20" lengthAdjust="spacing" textLength="187" x="129" y="253.543">types requested data</text><polygon fill="#181818" points="118,295.0938,108,299.0938,118,303.0938,114,299.0938" style="stroke:#181818;stroke-width:1.0;"/><line style="stroke:#181818;stroke-width:1.0;stroke-dasharray:2.0,2.0;" x1="112" x2="562" y1="299.0938" y2="299.0938"/><text fill="#000000" font-family="sans-serif" font-size="20" font-weight="bold" lengthAdjust="spacing" textLength="11" x="124" y="292.6992">4</text><text fill="#000000" font-family="sans-serif" font-size="20" lengthAdjust="spacing" textLength="412" x="139" y="292.6992">shows roles category list and ask to select one</text><polygon fill="#181818" points="546,334.25,556,338.25,546,342.25,550,338.25" style="stroke:#181818;stroke-width:1.0;"/><line style="stroke:#181818;stroke-width:1.0;" x1="107" x2="552" y1="338.25" y2="338.25"/><text fill="#000000" font-family="sans-serif" font-size="20" font-weight="bold" lengthAdjust="spacing" textLength="11" x="114" y="331.8555">5</text><text fill="#000000" font-family="sans-serif" font-size="20" lengthAdjust="spacing" textLength="201" x="129" y="331.8555">selects a role category</text><polygon fill="#181818" points="118,373.4063,108,377.4063,118,381.4063,114,377.4063" style="stroke:#181818;stroke-width:1.0;"/><line style="stroke:#181818;stroke-width:1.0;stroke-dasharray:2.0,2.0;" x1="112" x2="562" y1="377.4063" y2="377.4063"/><text fill="#000000" font-family="sans-serif" font-size="20" font-weight="bold" lengthAdjust="spacing" textLength="11" x="124" y="371.0117">6</text><text fill="#000000" font-family="sans-serif" font-size="20" lengthAdjust="spacing" textLength="358" x="139" y="371.0117">shows all data and requests confirmation</text><polygon fill="#181818" points="546,412.5625,556,416.5625,546,420.5625,550,416.5625" style="stroke:#181818;stroke-width:1.0;"/><line style="stroke:#181818;stroke-width:1.0;" x1="107" x2="552" y1="416.5625" y2="416.5625"/><text fill="#000000" font-family="sans-serif" font-size="20" font-weight="bold" lengthAdjust="spacing" textLength="11" x="114" y="410.168">7</text><text fill="#000000" font-family="sans-serif" font-size="20" lengthAdjust="spacing" textLength="119" x="129" y="410.168">confirms data</text><polygon fill="#181818" points="118,451.7188,108,455.7188,118,459.7188,114,455.7188" style="stroke:#181818;stroke-width:1.0;"/><line style="stroke:#181818;stroke-width:1.0;stroke-dasharray:2.0,2.0;" x1="112" x2="562" y1="455.7188" y2="455.7188"/><text fill="#000000" font-family="sans-serif" font-size="20" font-weight="bold" lengthAdjust="spacing" textLength="11" x="124" y="449.3242">8</text><text fill="#000000" font-family="sans-serif" font-size="20" lengthAdjust="spacing" textLength="229" x="139" y="449.3242">informs operation success</text><!--SRC=[dL6zJWCn3DxlAQnE81K9CNP0Oe0NwCfY4lSQDR6Fs4SvdXxVNNjbw58o9R6_7t_MG-8EAvOiuK0H8ksmp_OcRDlqG_3qsEYv1OgmX7sLGc2rfp-L3iC1MzhQa0ag1KDkyzy6tMEKO-8MTfYLcWPx4-xB1rM_1vCAg-sWHWLUOacSr2hwxmfGuRLqMGQYnhaiXTGX6wmsS__KCLydflI5HXT80x0yuE7vr0aRHnqKJDnjws9K0O7f27G6EcvXEzF3V4uS3qwtK6-SwBCdDOM8XdUCXTOGadcA305hX7dSDRopuVVombX9TUt2cF9OxFR2T2ctn66u7wKZNJDqTJWREjApet6jRkdsYNGlHsUHx5p1KQtK0RAd1SXn373CJodxli4zt-Xn1ghdFYei0l-rYJbFOqxUbbq4uLsg1Iq9t-Zl1DN_XPTu9oDOEggJEcWVWc_wgejV]--></g></svg>