<?xml version="1.0" encoding="UTF-8" standalone="no"?><svg xmlns="http://www.w3.org/2000/svg" xmlns:xlink="http://www.w3.org/1999/xlink" contentStyleType="text/css" height="879px" preserveAspectRatio="none" style="width:907px;height:879px;background:#FFFFFF;" version="1.1" viewBox="0 0 907 879" width="907px" zoomAndPan="magnify"><defs/><g><!--class Property--><g id="elem_Property"><rect codeLine="16" fill="#FFDAB9" height="143.7813" id="Property" rx="2.5" ry="2.5" style="stroke:#4169E1;stroke-width:0.5;" width="239" x="285" y="292"/><text fill="#000000" font-family="sans-serif" font-size="20" lengthAdjust="spacing" textLength="76" x="366.5" y="317.7617">Property</text><line style="stroke:#4169E1;stroke-width:0.5;" x1="286" x2="523" y1="327.1563" y2="327.1563"/><rect fill="none" height="6" style="stroke:#C82930;stroke-width:1.0;" width="6" x="293" y="342.2344"/><text fill="#000000" font-family="sans-serif" font-size="20" lengthAdjust="spacing" textLength="38" x="306" y="351.918">type</text><rect fill="none" height="6" style="stroke:#C82930;stroke-width:1.0;" width="6" x="293" y="367.3906"/><text fill="#000000" font-family="sans-serif" font-size="20" lengthAdjust="spacing" textLength="40" x="306" y="377.0742">area</text><rect fill="none" height="6" style="stroke:#C82930;stroke-width:1.0;" width="6" x="293" y="392.5469"/><text fill="#000000" font-family="sans-serif" font-size="20" lengthAdjust="spacing" textLength="212" x="306" y="402.2305">distanceFromCityCenter</text><rect fill="none" height="6" style="stroke:#C82930;stroke-width:1.0;" width="6" x="293" y="417.7031"/><text fill="#000000" font-family="sans-serif" font-size="20" lengthAdjust="spacing" textLength="87" x="306" y="427.3867">photoURL</text></g><!--class Home--><g id="elem_Home"><rect codeLine="23" fill="#FFDAB9" height="143.7813" id="Home" rx="2.5" ry="2.5" style="stroke:#4169E1;stroke-width:0.5;" width="236" x="7.5" y="523"/><text fill="#000000" font-family="sans-serif" font-size="20" lengthAdjust="spacing" textLength="51" x="100" y="548.7617">Home</text><line style="stroke:#4169E1;stroke-width:0.5;" x1="8.5" x2="242.5" y1="558.1563" y2="558.1563"/><rect fill="none" height="6" style="stroke:#C82930;stroke-width:1.0;" width="6" x="15.5" y="573.2344"/><text fill="#000000" font-family="sans-serif" font-size="20" lengthAdjust="spacing" textLength="175" x="28.5" y="582.918">numberOfbedrooms</text><rect fill="none" height="6" style="stroke:#C82930;stroke-width:1.0;" width="6" x="15.5" y="598.3906"/><text fill="#000000" font-family="sans-serif" font-size="20" lengthAdjust="spacing" textLength="180" x="28.5" y="608.0742">numberOfbathrooms</text><rect fill="none" height="6" style="stroke:#C82930;stroke-width:1.0;" width="6" x="15.5" y="623.5469"/><text fill="#000000" font-family="sans-serif" font-size="20" lengthAdjust="spacing" textLength="209" x="28.5" y="633.2305">numberOfParkingSpace</text><rect fill="none" height="6" style="stroke:#C82930;stroke-width:1.0;" width="6" x="15.5" y="648.7031"/><text fill="#000000" font-family="sans-serif" font-size="20" lengthAdjust="spacing" textLength="168" x="28.5" y="658.3867">availableEquipment</text></g><!--class Land--><g id="elem_Land"><rect codeLine="29" fill="#FFDAB9" height="43.1563" id="Land" rx="2.5" ry="2.5" style="stroke:#4169E1;stroke-width:0.5;" width="49" x="279" y="573.5"/><text fill="#000000" font-family="sans-serif" font-size="20" lengthAdjust="spacing" textLength="43" x="282" y="599.2617">Land</text><line style="stroke:#4169E1;stroke-width:0.5;" x1="280" x2="327" y1="608.6563" y2="608.6563"/></g><!--class Apartment--><g id="elem_Apartment"><rect codeLine="33" fill="#FFDAB9" height="43.1563" id="Apartment" rx="2.5" ry="2.5" style="stroke:#4169E1;stroke-width:0.5;" width="97" x="7" y="792"/><text fill="#000000" font-family="sans-serif" font-size="20" lengthAdjust="spacing" textLength="91" x="10" y="817.7617">Apartment</text><line style="stroke:#4169E1;stroke-width:0.5;" x1="8" x2="103" y1="827.1563" y2="827.1563"/></g><!--class House--><g id="elem_House"><rect codeLine="36" fill="#FFDAB9" height="118.625" id="House" rx="2.5" ry="2.5" style="stroke:#4169E1;stroke-width:0.5;" width="154" x="139.5" y="754"/><text fill="#000000" font-family="sans-serif" font-size="20" lengthAdjust="spacing" textLength="55" x="189" y="779.7617">House</text><line style="stroke:#4169E1;stroke-width:0.5;" x1="140.5" x2="292.5" y1="789.1563" y2="789.1563"/><rect fill="none" height="6" style="stroke:#C82930;stroke-width:1.0;" width="6" x="147.5" y="804.2344"/><text fill="#000000" font-family="sans-serif" font-size="20" lengthAdjust="spacing" textLength="86" x="160.5" y="813.918">basement</text><rect fill="none" height="6" style="stroke:#C82930;stroke-width:1.0;" width="6" x="147.5" y="829.3906"/><text fill="#000000" font-family="sans-serif" font-size="20" lengthAdjust="spacing" textLength="127" x="160.5" y="839.0742">inhabitableLoft</text><rect fill="none" height="6" style="stroke:#C82930;stroke-width:1.0;" width="6" x="147.5" y="854.5469"/><text fill="#000000" font-family="sans-serif" font-size="20" lengthAdjust="spacing" textLength="112" x="160.5" y="864.2305">sunExposure</text></g><!--class Announcement--><g id="elem_Announcement"><rect codeLine="41" fill="#FFDAB9" height="68.3125" id="Announcement" rx="2.5" ry="2.5" style="stroke:#4169E1;stroke-width:0.5;" width="134" x="567.5" y="137"/><text fill="#000000" font-family="sans-serif" font-size="20" lengthAdjust="spacing" textLength="128" x="570.5" y="162.7617">Announcement</text><line style="stroke:#4169E1;stroke-width:0.5;" x1="568.5" x2="700.5" y1="172.1563" y2="172.1563"/><rect fill="none" height="6" style="stroke:#C82930;stroke-width:1.0;" width="6" x="575.5" y="187.2344"/><text fill="#000000" font-family="sans-serif" font-size="20" lengthAdjust="spacing" textLength="44" x="588.5" y="196.918">state</text></g><!--class Visit--><g id="elem_Visit"><rect codeLine="45" fill="#FFDAB9" height="68.3125" id="Visit" rx="2.5" ry="2.5" style="stroke:#4169E1;stroke-width:0.5;" width="66" x="651.5" y="561"/><text fill="#000000" font-family="sans-serif" font-size="20" lengthAdjust="spacing" textLength="37" x="666" y="586.7617">Visit</text><line style="stroke:#4169E1;stroke-width:0.5;" x1="652.5" x2="716.5" y1="596.1563" y2="596.1563"/><rect fill="none" height="6" style="stroke:#C82930;stroke-width:1.0;" width="6" x="659.5" y="611.2344"/><text fill="#000000" font-family="sans-serif" font-size="20" lengthAdjust="spacing" textLength="39" x="672.5" y="620.918">data</text></g><!--class Address--><g id="elem_Address"><rect codeLine="49" fill="#FFDAB9" height="143.7813" id="Address" rx="2.5" ry="2.5" style="stroke:#4169E1;stroke-width:0.5;" width="94" x="363.5" y="523"/><text fill="#000000" font-family="sans-serif" font-size="20" lengthAdjust="spacing" textLength="73" x="374" y="548.7617">Address</text><line style="stroke:#4169E1;stroke-width:0.5;" x1="364.5" x2="456.5" y1="558.1563" y2="558.1563"/><rect fill="none" height="6" style="stroke:#C82930;stroke-width:1.0;" width="6" x="371.5" y="573.2344"/><text fill="#000000" font-family="sans-serif" font-size="20" lengthAdjust="spacing" textLength="51" x="384.5" y="582.918">street</text><rect fill="none" height="6" style="stroke:#C82930;stroke-width:1.0;" width="6" x="371.5" y="598.3906"/><text fill="#000000" font-family="sans-serif" font-size="20" lengthAdjust="spacing" textLength="30" x="384.5" y="608.0742">city</text><rect fill="none" height="6" style="stroke:#C82930;stroke-width:1.0;" width="6" x="371.5" y="623.5469"/><text fill="#000000" font-family="sans-serif" font-size="20" lengthAdjust="spacing" textLength="44" x="384.5" y="633.2305">state</text><rect fill="none" height="6" style="stroke:#C82930;stroke-width:1.0;" width="6" x="371.5" y="648.7031"/><text fill="#000000" font-family="sans-serif" font-size="20" lengthAdjust="spacing" textLength="67" x="384.5" y="658.3867">zipcode</text></g><!--class Deal--><g id="elem_Deal"><rect codeLine="56" fill="#FFDAB9" height="68.3125" id="Deal" rx="2.5" ry="2.5" style="stroke:#4169E1;stroke-width:0.5;" width="108" x="492.5" y="561"/><text fill="#000000" font-family="sans-serif" font-size="20" lengthAdjust="spacing" textLength="40" x="526.5" y="586.7617">Deal</text><line style="stroke:#4169E1;stroke-width:0.5;" x1="493.5" x2="599.5" y1="596.1563" y2="596.1563"/><rect fill="none" height="6" style="stroke:#C82930;stroke-width:1.0;" width="6" x="500.5" y="611.2344"/><text fill="#000000" font-family="sans-serif" font-size="20" lengthAdjust="spacing" textLength="81" x="513.5" y="620.918">dealType</text></g><!--class Sale--><g id="elem_Sale"><rect codeLine="59" fill="#FFDAB9" height="68.3125" id="Sale" rx="2.5" ry="2.5" style="stroke:#4169E1;stroke-width:0.5;" width="146" x="349.5" y="779.5"/><text fill="#000000" font-family="sans-serif" font-size="20" lengthAdjust="spacing" textLength="39" x="403" y="805.2617">Sale</text><line style="stroke:#4169E1;stroke-width:0.5;" x1="350.5" x2="494.5" y1="814.6563" y2="814.6563"/><rect fill="none" height="6" style="stroke:#C82930;stroke-width:1.0;" width="6" x="357.5" y="829.7344"/><text fill="#000000" font-family="sans-serif" font-size="20" lengthAdjust="spacing" textLength="119" x="370.5" y="839.418">propertyPrice</text></g><!--class Rent--><g id="elem_Rent"><rect codeLine="62" fill="#FFDAB9" height="93.4688" id="Rent" rx="2.5" ry="2.5" style="stroke:#4169E1;stroke-width:0.5;" width="171" x="531" y="767"/><text fill="#000000" font-family="sans-serif" font-size="20" lengthAdjust="spacing" textLength="41" x="596" y="792.7617">Rent</text><line style="stroke:#4169E1;stroke-width:0.5;" x1="532" x2="701" y1="802.1563" y2="802.1563"/><rect fill="none" height="6" style="stroke:#C82930;stroke-width:1.0;" width="6" x="539" y="817.2344"/><text fill="#000000" font-family="sans-serif" font-size="20" lengthAdjust="spacing" textLength="115" x="552" y="826.918">propertyRent</text><rect fill="none" height="6" style="stroke:#C82930;stroke-width:1.0;" width="6" x="539" y="842.3906"/><text fill="#000000" font-family="sans-serif" font-size="20" lengthAdjust="spacing" textLength="144" x="552" y="852.0742">contractDuration</text></g><!--class Agent--><g id="elem_Agent"><rect codeLine="66" fill="#FFDAB9" height="43.1563" id="Agent" rx="2.5" ry="2.5" style="stroke:#4169E1;stroke-width:0.5;" width="57" x="683" y="342.5"/><text fill="#000000" font-family="sans-serif" font-size="20" lengthAdjust="spacing" textLength="51" x="686" y="368.2617">Agent</text><line style="stroke:#4169E1;stroke-width:0.5;" x1="684" x2="739" y1="377.6563" y2="377.6563"/></g><!--class Client--><g id="elem_Client"><rect fill="#FFDAB9" height="43.1563" id="Client" rx="2.5" ry="2.5" style="stroke:#4169E1;stroke-width:0.5;" width="55" x="706" y="7"/><text fill="#000000" font-family="sans-serif" font-size="20" lengthAdjust="spacing" textLength="49" x="709" y="32.7617">Client</text><line style="stroke:#4169E1;stroke-width:0.5;" x1="707" x2="760" y1="42.1563" y2="42.1563"/></g><!--link Announcement to Property--><g id="link_Announcement_Property"><path codeLine="70" d="M567.28,202.06 C549.61,211.41 531.15,222.56 515.5,235 C494.89,251.38 475.13,271.95 458.13,291.78 " fill="none" id="Announcement-Property" style="stroke:#4169E1;stroke-width:1.0;"/><polygon fill="#000000" points="517.3199,253.6581,531.4858,248.1009,525.5139,240.8358,517.3199,253.6581" style="stroke:#000000;stroke-width:1.0;"/><text fill="#000000" font-family="sans-serif" font-size="20" lengthAdjust="spacing" textLength="31" x="536.5" y="256.7617">has</text><text fill="#000000" font-family="sans-serif" font-size="20" lengthAdjust="spacing" textLength="11" x="548.3263" y="199.8432">1</text><text fill="#000000" font-family="sans-serif" font-size="20" lengthAdjust="spacing" textLength="11" x="451.7174" y="279.4847">1</text></g><!--link Client to Visit--><g id="link_Client_Visit"><path codeLine="72" d="M746.32,50.35 C751.07,59.17 755.92,69.75 758.5,80 C803.34,258.09 835.43,320.84 771.5,493 C760.71,522.07 737.37,548.38 717.59,566.86 " fill="none" id="Client-Visit" style="stroke:#4169E1;stroke-width:1.0;"/><polygon fill="#000000" points="809.0557,256.5658,814.5545,242.3771,805.1644,241.8548,809.0557,256.5658" style="stroke:#000000;stroke-width:1.0;"/><text fill="#000000" font-family="sans-serif" font-size="20" lengthAdjust="spacing" textLength="77" x="822.5" y="256.7617">schedule</text><text fill="#000000" font-family="sans-serif" font-size="20" lengthAdjust="spacing" textLength="11" x="737.0128" y="79.0552">1</text><text fill="#000000" font-family="sans-serif" font-size="20" lengthAdjust="spacing" textLength="8" x="725.7034" y="553.7146">*</text></g><!--link Client to Announcement--><g id="link_Client_Announcement"><path codeLine="73" d="M718.89,50.23 C702.81,73.05 676.73,110.07 657.81,136.91 " fill="none" id="Client-Announcement" style="stroke:#4169E1;stroke-width:1.0;"/><polygon fill="#000000" points="699.8919,100.1176,712.0719,90.9961,704.3842,85.579,699.8919,100.1176" style="stroke:#000000;stroke-width:1.0;"/><text fill="#000000" font-family="sans-serif" font-size="20" lengthAdjust="spacing" textLength="32" x="717.5" y="101.7617">see</text><text fill="#000000" font-family="sans-serif" font-size="20" lengthAdjust="spacing" textLength="11" x="703.2396" y="78.9074">1</text><text fill="#000000" font-family="sans-serif" font-size="20" lengthAdjust="spacing" textLength="8" x="653.1289" y="124.6506">*</text></g><!--link Announcement to Visit--><g id="link_Announcement_Visit"><path codeLine="75" d="M625.5,205.34 C613.25,255.82 594.79,354.42 612.5,436 C622.41,481.66 646.72,529.95 664.35,560.95 " fill="none" id="Announcement-Visit" style="stroke:#4169E1;stroke-width:1.0;"/><polygon fill="#000000" points="621.3688,372.0308,624.4716,357.1336,615.1226,358.155,621.3688,372.0308" style="stroke:#000000;stroke-width:1.0;"/><text fill="#000000" font-family="sans-serif" font-size="20" lengthAdjust="spacing" textLength="31" x="633.5" y="372.2617">has</text><text fill="#000000" font-family="sans-serif" font-size="20" lengthAdjust="spacing" textLength="8" x="615.2656" y="234.1389">*</text><text fill="#000000" font-family="sans-serif" font-size="20" lengthAdjust="spacing" textLength="8" x="652.1992" y="548.6975">*</text></g><!--link Property to Address--><g id="link_Property_Address"><path codeLine="76" d="M406.37,436.2 C407.09,463.77 407.91,495.27 408.64,522.84 " fill="none" id="Property-Address" style="stroke:#4169E1;stroke-width:1.0;"/><polygon fill="#000000" points="416.7095,487.5754,421.0312,472.9851,411.6298,473.2314,416.7095,487.5754" style="stroke:#000000;stroke-width:1.0;"/><text fill="#000000" font-family="sans-serif" font-size="20" lengthAdjust="spacing" textLength="31" x="429.5" y="487.7617">has</text><text fill="#000000" font-family="sans-serif" font-size="20" lengthAdjust="spacing" textLength="11" x="395.0467" y="464.522">1</text><text fill="#000000" font-family="sans-serif" font-size="20" lengthAdjust="spacing" textLength="11" x="396.9385" y="510.5504">1</text></g><!--link Property to Deal--><g id="link_Property_Deal"><path codeLine="77" d="M450.58,436.01 C456.98,446.05 463.44,456.26 469.5,466 C489.44,498.04 511.59,535 526.99,560.95 " fill="none" id="Property-Deal" style="stroke:#4169E1;stroke-width:1.0;"/><polygon fill="#000000" points="497.6739,486.403,494.1348,471.6033,486.1117,476.5101,497.6739,486.403" style="stroke:#000000;stroke-width:1.0;"/><text fill="#000000" font-family="sans-serif" font-size="20" lengthAdjust="spacing" textLength="31" x="506.5" y="487.7617">has</text><text fill="#000000" font-family="sans-serif" font-size="20" lengthAdjust="spacing" textLength="11" x="443.321" y="464.5798">1</text><text fill="#000000" font-family="sans-serif" font-size="20" lengthAdjust="spacing" textLength="11" x="511.6914" y="548.6975">1</text></g><!--reverse link Deal to Sale--><g id="link_Deal_Sale"><path codeLine="79" d="M520.89,640.72 C497.24,682.01 462.66,742.38 441.42,779.46 " fill="none" id="Deal-backto-Sale" style="stroke:#4169E1;stroke-width:1.0;"/><polygon fill="#4169E1" points="527.4,629.35,520.9436,632.5617,521.425,639.7567,527.8814,636.545,527.4,629.35" style="stroke:#4169E1;stroke-width:1.0;"/></g><!--reverse link Deal to Rent--><g id="link_Deal_Rent"><path codeLine="80" d="M561.43,642.18 C573.3,678.9 589.83,730.01 601.67,766.64 " fill="none" id="Deal-backto-Rent" style="stroke:#4169E1;stroke-width:1.0;"/><polygon fill="#4169E1" points="557.28,629.35,555.3199,636.2896,560.9717,640.768,562.9319,633.8284,557.28,629.35" style="stroke:#4169E1;stroke-width:1.0;"/></g><!--reverse link Property to Land--><g id="link_Property_Land"><path codeLine="82" d="M364.92,454.73 C345.79,498.13 324.45,546.5 312.63,573.29 " fill="none" id="Property-backto-Land" style="stroke:#4169E1;stroke-width:1.0;"/><polygon fill="none" points="358.62,451.68,373.1,436.2,371.43,457.33,358.62,451.68" style="stroke:#4169E1;stroke-width:1.0;"/><text fill="#000000" font-family="sans-serif" font-size="20" lengthAdjust="spacing" textLength="31" x="358.5" y="487.7617">is a</text></g><!--reverse link Property to Home--><g id="link_Property_Home"><path codeLine="83" d="M302.1,449.05 C272.58,473.28 240.66,499.47 212.19,522.84 " fill="none" id="Property-backto-Home" style="stroke:#4169E1;stroke-width:1.0;"/><polygon fill="none" points="297.85,443.48,317.75,436.2,306.73,454.3,297.85,443.48" style="stroke:#4169E1;stroke-width:1.0;"/><text fill="#000000" font-family="sans-serif" font-size="20" lengthAdjust="spacing" textLength="31" x="274.5" y="487.7617">is a</text></g><!--reverse link Home to Apartment--><g id="link_Home_Apartment"><path codeLine="84" d="M96.3,686.31 C83.67,725.37 70.01,767.63 62.13,791.99 " fill="none" id="Home-backto-Apartment" style="stroke:#4169E1;stroke-width:1.0;"/><polygon fill="none" points="89.67,684.07,102.48,667.19,102.99,688.37,89.67,684.07" style="stroke:#4169E1;stroke-width:1.0;"/><text fill="#000000" font-family="sans-serif" font-size="20" lengthAdjust="spacing" textLength="31" x="94.5" y="718.7617">is a</text></g><!--reverse link Home to House--><g id="link_Home_House"><path codeLine="85" d="M163.22,685.74 C172.89,708.75 183.05,732.92 191.87,753.91 " fill="none" id="Home-backto-House" style="stroke:#4169E1;stroke-width:1.0;"/><polygon fill="none" points="156.72,688.34,155.42,667.19,169.63,682.92,156.72,688.34" style="stroke:#4169E1;stroke-width:1.0;"/><text fill="#000000" font-family="sans-serif" font-size="20" lengthAdjust="spacing" textLength="31" x="180.5" y="718.7617">is a</text></g><!--link Announcement to Agent--><g id="link_Announcement_Agent"><path codeLine="87" d="M647.91,205.27 C663.85,244.82 689.96,309.58 703.22,342.46 " fill="none" id="Announcement-Agent" style="stroke:#4169E1;stroke-width:1.0;"/><polygon fill="#000000" points="682.4913,255.9978,681.4411,240.8172,672.7188,244.3337,682.4913,255.9978" style="stroke:#000000;stroke-width:1.0;"/><text fill="#000000" font-family="sans-serif" font-size="20" lengthAdjust="spacing" textLength="31" x="692.5" y="256.7617">has</text><text fill="#000000" font-family="sans-serif" font-size="20" lengthAdjust="spacing" textLength="11" x="638.2695" y="234.0569">1</text><text fill="#000000" font-family="sans-serif" font-size="20" lengthAdjust="spacing" textLength="11" x="688.8611" y="329.9245">1</text></g><!--link Agent to Visit--><g id="link_Agent_Visit"><path codeLine="88" d="M703.36,385.88 C695.98,406.03 685.63,437.58 681.5,466 C676.85,498.01 678.45,534.98 680.71,560.93 " fill="none" id="Agent-Visit" style="stroke:#4169E1;stroke-width:1.0;"/><polygon fill="#000000" points="688.4734,487.512,694.9939,473.7629,685.6671,472.5561,688.4734,487.512" style="stroke:#000000;stroke-width:1.0;"/><text fill="#000000" font-family="sans-serif" font-size="20" lengthAdjust="spacing" textLength="64" x="702.5" y="487.7617">confirm</text><text fill="#000000" font-family="sans-serif" font-size="20" lengthAdjust="spacing" textLength="11" x="689.2058" y="414.5921">1</text><text fill="#000000" font-family="sans-serif" font-size="20" lengthAdjust="spacing" textLength="8" x="671.3711" y="548.6741">*</text></g><!--SRC=[VLDDJzmm4BtxLrXSLa8AeZrM5TAoW5e9gQlTjlTPUv9OE7OwTaeNod_lnFba2VN5zdoyUNup3W_6rK1GMQyUK4kDEJGstdaNz-O9vSTBiGf3ZAoyyweaNw6CrA2OF3Me1oXm7uyM9Q6Au0ex3mWbQFzeN25pi07dgDOuZCSQfQTOUh6oc4SPlIHJb55gqy8Px-Ofoa88wnZ979g8NvLtYUsbA8r6gGmfBfxE5JAc3cAL3UlECCN0H9dCQ1GdsF9PI5xN_Ao2VEFqnbjFSekWocsJvycx9lAFdMFdZs2lBMkIqZnff5FFYn0TzfPyZHIFNOrCje_lZq08_L6Rm2egl6EzDoOUD-WYKk-iIn_zZzszODGEz4lRbG7HDTK1wLj-G4tUL-7K3B5Sic-1M8PYpzqS2Vq6O-5WyVPNO-gAEOmLxy7fPp4zQytwnJRYUSwg2JYmEa30XD1TZIlXO68BVk_pmHeQT_kdzg4X757Mpd4F57RWVLo4EDFqfmc6VPc623DAMXE6qEU4I8Xz7SMA3jOMA1sVJAsydg7U8DYXeERpzxPJ0wizsF5fTT_IBHarHUncV8U8tIG0ZsqaKF6c8KWJFhwtI8aliwcT5cUvxaU4jqwnccibvXTvzk5CPbdQXWcKdsG9GLw9rSQQDg7Rnj3piqvOZWkgHDtmrxbQ27fLXsEn3LiDLKvedB_1xZYCf6P4-mR-DwPjqlIGzYQIwPpzRO-cMz9-ITEiHE99B7399ox6gf__Cif5E_XSq0G9Rtpf6mw-TEdiu-TOSgPVCZWM-MLf9BBtrhkDJcc3Dkcor5iUgTnG9Q_-0G00]--></g></svg>