<?xml version="1.0" encoding="UTF-8" standalone="no"?><svg xmlns="http://www.w3.org/2000/svg" xmlns:xlink="http://www.w3.org/1999/xlink" contentStyleType="text/css" height="1145px" preserveAspectRatio="none" style="width:4388px;height:1145px;background:#FFFFFF;" version="1.1" viewBox="0 0 4388 1145" width="4388px" zoomAndPan="magnify"><defs/><g><rect fill="#FFFFFF" height="941.1875" style="stroke:#181818;stroke-width:1.0;" width="10" x="112" y="98.2813"/><rect fill="#FFFFFF" height="83.8438" style="stroke:#181818;stroke-width:1.0;" width="10" x="638" y="127.5625"/><rect fill="#FFFFFF" height="264.6875" style="stroke:#181818;stroke-width:1.0;" width="10" x="638" y="248.6875"/><rect fill="#FFFFFF" height="141.8438" style="stroke:#181818;stroke-width:1.0;" width="10" x="638" y="550.6563"/><rect fill="#FFFFFF" height="309.6875" style="stroke:#181818;stroke-width:1.0;" width="10" x="638" y="729.7813"/><rect fill="#FFFFFF" height="190.125" style="stroke:#181818;stroke-width:1.0;" width="10" x="1747" y="285.9688"/><rect fill="#FFFFFF" height="104.5625" style="stroke:#181818;stroke-width:1.0;" width="10" x="1747" y="587.9375"/><rect fill="#FFFFFF" height="272.4063" style="stroke:#181818;stroke-width:1.0;" width="10" x="1747" y="767.0625"/><rect fill="#FFFFFF" height="37.2813" style="stroke:#181818;stroke-width:1.0;" width="10" x="2983" y="360.5313"/><rect fill="#FFFFFF" height="30" style="stroke:#181818;stroke-width:1.0;" width="10" x="2983" y="446.0938"/><rect fill="#FFFFFF" height="30" style="stroke:#181818;stroke-width:1.0;" width="10" x="2983" y="625.2188"/><rect fill="#FFFFFF" height="235.125" style="stroke:#181818;stroke-width:1.0;" width="10" x="2983" y="804.3438"/><rect fill="#FFFFFF" height="28" style="stroke:#181818;stroke-width:1.0;" width="10" x="2988" y="849.625"/><rect fill="#FFFFFF" height="28" style="stroke:#181818;stroke-width:1.0;" width="10" x="2988" y="929.9063"/><line style="stroke:#181818;stroke-width:0.5;stroke-dasharray:5.0,5.0;" x1="117" x2="117" y1="88.2813" y2="1057.4688"/><line style="stroke:#181818;stroke-width:0.5;stroke-dasharray:5.0,5.0;" x1="643" x2="643" y1="88.2813" y2="1057.4688"/><line style="stroke:#181818;stroke-width:0.5;stroke-dasharray:5.0,5.0;" x1="1752" x2="1752" y1="88.2813" y2="1057.4688"/><line style="stroke:#181818;stroke-width:0.5;stroke-dasharray:5.0,5.0;" x1="2181.5" x2="2181.5" y1="88.2813" y2="1057.4688"/><line style="stroke:#181818;stroke-width:0.5;stroke-dasharray:5.0,5.0;" x1="2988" x2="2988" y1="88.2813" y2="1057.4688"/><line style="stroke:#181818;stroke-width:0.5;stroke-dasharray:5.0,5.0;" x1="4096" x2="4096" y1="402.6719" y2="1057.4688"/><line style="stroke:#181818;stroke-width:0.5;stroke-dasharray:5.0,5.0;" x1="4300" x2="4300" y1="88.2813" y2="1057.4688"/><text fill="#000000" font-family="sans-serif" font-size="20" lengthAdjust="spacing" textLength="218" x="5" y="83.5645">System Administrator</text><ellipse cx="117" cy="13.5" fill="#E3E3E3" rx="8" ry="8" style="stroke:#181818;stroke-width:0.5;"/><path d="M117,21.5 L117,48.5 M104,29.5 L130,29.5 M117,48.5 L104,63.5 M117,48.5 L130,63.5 " fill="none" style="stroke:#181818;stroke-width:0.5;"/><text fill="#000000" font-family="sans-serif" font-size="20" lengthAdjust="spacing" textLength="218" x="5" y="1075.0332">System Administrator</text><ellipse cx="117" cy="1088.25" fill="#E3E3E3" rx="8" ry="8" style="stroke:#181818;stroke-width:0.5;"/><path d="M117,1096.25 L117,1123.25 M104,1104.25 L130,1104.25 M117,1123.25 L104,1138.25 M117,1123.25 L130,1138.25 " fill="none" style="stroke:#181818;stroke-width:0.5;"/><rect fill="#E3E3E3" height="37.2813" rx="2.5" ry="2.5" style="stroke:#181818;stroke-width:0.5;" width="224" x="531" y="50"/><text fill="#000000" font-family="sans-serif" font-size="20" lengthAdjust="spacing" textLength="210" x="538" y="75.5645">:RegisterEmployeeUI</text><rect fill="#E3E3E3" height="37.2813" rx="2.5" ry="2.5" style="stroke:#181818;stroke-width:0.5;" width="224" x="531" y="1056.4688"/><text fill="#000000" font-family="sans-serif" font-size="20" lengthAdjust="spacing" textLength="210" x="538" y="1082.0332">:RegisterEmployeeUI</text><rect fill="#E3E3E3" height="37.2813" rx="2.5" ry="2.5" style="stroke:#181818;stroke-width:0.5;" width="302" x="1601" y="50"/><text fill="#000000" font-family="sans-serif" font-size="20" lengthAdjust="spacing" textLength="288" x="1608" y="75.5645">:RegisterEmployeeController</text><rect fill="#E3E3E3" height="37.2813" rx="2.5" ry="2.5" style="stroke:#181818;stroke-width:0.5;" width="302" x="1601" y="1056.4688"/><text fill="#000000" font-family="sans-serif" font-size="20" lengthAdjust="spacing" textLength="288" x="1608" y="1082.0332">:RegisterEmployeeController</text><rect fill="#E3E3E3" height="37.2813" rx="2.5" ry="2.5" style="stroke:#181818;stroke-width:0.5;" width="137" x="2113.5" y="50"/><text fill="#000000" font-family="sans-serif" font-size="20" lengthAdjust="spacing" textLength="123" x="2120.5" y="75.5645">Repositories</text><rect fill="#E3E3E3" height="37.2813" rx="2.5" ry="2.5" style="stroke:#181818;stroke-width:0.5;" width="137" x="2113.5" y="1056.4688"/><text fill="#000000" font-family="sans-serif" font-size="20" lengthAdjust="spacing" textLength="123" x="2120.5" y="1082.0332">Repositories</text><rect fill="#E3E3E3" height="37.2813" rx="2.5" ry="2.5" style="stroke:#181818;stroke-width:0.5;" width="442" x="2767" y="50"/><text fill="#000000" font-family="sans-serif" font-size="20" lengthAdjust="spacing" textLength="428" x="2774" y="75.5645">employeeRepository : EmployeeRepository</text><rect fill="#E3E3E3" height="37.2813" rx="2.5" ry="2.5" style="stroke:#181818;stroke-width:0.5;" width="442" x="2767" y="1056.4688"/><text fill="#000000" font-family="sans-serif" font-size="20" lengthAdjust="spacing" textLength="428" x="2774" y="1082.0332">employeeRepository : EmployeeRepository</text><rect fill="#E3E3E3" height="37.2813" rx="2.5" ry="2.5" style="stroke:#181818;stroke-width:0.5;" width="224" x="3984" y="1056.4688"/><text fill="#000000" font-family="sans-serif" font-size="20" lengthAdjust="spacing" textLength="210" x="3991" y="1082.0332">employee: Employee</text><rect fill="#E3E3E3" height="37.2813" rx="2.5" ry="2.5" style="stroke:#181818;stroke-width:0.5;" width="164" x="4218" y="50"/><text fill="#000000" font-family="sans-serif" font-size="20" lengthAdjust="spacing" textLength="150" x="4225" y="75.5645">RoleRepository</text><rect fill="#E3E3E3" height="37.2813" rx="2.5" ry="2.5" style="stroke:#181818;stroke-width:0.5;" width="164" x="4218" y="1056.4688"/><text fill="#000000" font-family="sans-serif" font-size="20" lengthAdjust="spacing" textLength="150" x="4225" y="1082.0332">RoleRepository</text><rect fill="#FFFFFF" height="941.1875" style="stroke:#181818;stroke-width:1.0;" width="10" x="112" y="98.2813"/><rect fill="#FFFFFF" height="83.8438" style="stroke:#181818;stroke-width:1.0;" width="10" x="638" y="127.5625"/><rect fill="#FFFFFF" height="264.6875" style="stroke:#181818;stroke-width:1.0;" width="10" x="638" y="248.6875"/><rect fill="#FFFFFF" height="141.8438" style="stroke:#181818;stroke-width:1.0;" width="10" x="638" y="550.6563"/><rect fill="#FFFFFF" height="309.6875" style="stroke:#181818;stroke-width:1.0;" width="10" x="638" y="729.7813"/><rect fill="#FFFFFF" height="190.125" style="stroke:#181818;stroke-width:1.0;" width="10" x="1747" y="285.9688"/><rect fill="#FFFFFF" height="104.5625" style="stroke:#181818;stroke-width:1.0;" width="10" x="1747" y="587.9375"/><rect fill="#FFFFFF" height="272.4063" style="stroke:#181818;stroke-width:1.0;" width="10" x="1747" y="767.0625"/><rect fill="#FFFFFF" height="37.2813" style="stroke:#181818;stroke-width:1.0;" width="10" x="2983" y="360.5313"/><rect fill="#FFFFFF" height="30" style="stroke:#181818;stroke-width:1.0;" width="10" x="2983" y="446.0938"/><rect fill="#FFFFFF" height="30" style="stroke:#181818;stroke-width:1.0;" width="10" x="2983" y="625.2188"/><rect fill="#FFFFFF" height="235.125" style="stroke:#181818;stroke-width:1.0;" width="10" x="2983" y="804.3438"/><rect fill="#FFFFFF" height="28" style="stroke:#181818;stroke-width:1.0;" width="10" x="2988" y="849.625"/><rect fill="#FFFFFF" height="28" style="stroke:#181818;stroke-width:1.0;" width="10" x="2988" y="929.9063"/><polygon fill="#181818" points="626,123.5625,636,127.5625,626,131.5625,630,127.5625" style="stroke:#181818;stroke-width:1.0;"/><line style="stroke:#181818;stroke-width:1.0;" x1="122" x2="632" y1="127.5625" y2="127.5625"/><text fill="#000000" font-family="sans-serif" font-size="20" font-weight="bold" lengthAdjust="spacing" textLength="14" x="129" y="120.8457">1</text><text fill="#000000" font-family="sans-serif" font-size="20" lengthAdjust="spacing" textLength="212" x="147" y="120.8457">register an employee</text><polygon fill="#181818" points="133,207.4063,123,211.4063,133,215.4063,129,211.4063" style="stroke:#181818;stroke-width:1.0;"/><line style="stroke:#181818;stroke-width:1.0;stroke-dasharray:2.0,2.0;" x1="127" x2="642" y1="211.4063" y2="211.4063"/><text fill="#000000" font-family="sans-serif" font-size="20" font-weight="bold" lengthAdjust="spacing" textLength="14" x="139" y="181.4082">2</text><text fill="#000000" font-family="sans-serif" font-size="20" lengthAdjust="spacing" textLength="422" x="157" y="158.127">requests data(name, citizen card number,</text><text fill="#000000" font-family="sans-serif" font-size="20" lengthAdjust="spacing" textLength="267" x="157" y="181.4082">tax number, adress, email,</text><text fill="#000000" font-family="sans-serif" font-size="20" lengthAdjust="spacing" textLength="240" x="157" y="204.6895">phone number, agency)</text><polygon fill="#181818" points="626,244.6875,636,248.6875,626,252.6875,630,248.6875" style="stroke:#181818;stroke-width:1.0;"/><line style="stroke:#181818;stroke-width:1.0;" x1="122" x2="632" y1="248.6875" y2="248.6875"/><text fill="#000000" font-family="sans-serif" font-size="20" font-weight="bold" lengthAdjust="spacing" textLength="14" x="129" y="241.9707">3</text><text fill="#000000" font-family="sans-serif" font-size="20" lengthAdjust="spacing" textLength="212" x="147" y="241.9707">types requested data</text><polygon fill="#181818" points="1735,281.9688,1745,285.9688,1735,289.9688,1739,285.9688" style="stroke:#181818;stroke-width:1.0;"/><line style="stroke:#181818;stroke-width:1.0;" x1="648" x2="1741" y1="285.9688" y2="285.9688"/><text fill="#000000" font-family="sans-serif" font-size="20" font-weight="bold" lengthAdjust="spacing" textLength="14" x="655" y="279.252">4</text><text fill="#000000" font-family="sans-serif" font-size="20" lengthAdjust="spacing" textLength="1062" x="673" y="279.252">registerEmployee(name,citizenCardNumber,taxNumber,address,email,phoneNumber,agencyDesignation)</text><polygon fill="#181818" points="2170,319.25,2180,323.25,2170,327.25,2174,323.25" style="stroke:#181818;stroke-width:1.0;"/><line style="stroke:#181818;stroke-width:1.0;" x1="1757" x2="2176" y1="323.25" y2="323.25"/><text fill="#000000" font-family="sans-serif" font-size="20" font-weight="bold" lengthAdjust="spacing" textLength="14" x="1764" y="316.5332">5</text><text fill="#000000" font-family="sans-serif" font-size="20" lengthAdjust="spacing" textLength="383" x="1782" y="316.5332">repository = getEmployeeRepository()</text><polygon fill="#181818" points="2971,356.5313,2981,360.5313,2971,364.5313,2975,360.5313" style="stroke:#181818;stroke-width:1.0;"/><line style="stroke:#181818;stroke-width:1.0;" x1="1757" x2="2977" y1="360.5313" y2="360.5313"/><text fill="#000000" font-family="sans-serif" font-size="20" font-weight="bold" lengthAdjust="spacing" textLength="14" x="1764" y="353.8145">6</text><text fill="#000000" font-family="sans-serif" font-size="20" lengthAdjust="spacing" textLength="1189" x="1782" y="353.8145">employee = registerEmployee(name,citizenCardNumber,taxNumber,address,email,phoneNumber,agencyDesignation)</text><polygon fill="#181818" points="3972,393.8125,3982,397.8125,3972,401.8125,3976,397.8125" style="stroke:#181818;stroke-width:1.0;"/><line style="stroke:#181818;stroke-width:1.0;" x1="2988" x2="3978" y1="397.8125" y2="397.8125"/><text fill="#000000" font-family="sans-serif" font-size="20" font-weight="bold" lengthAdjust="spacing" textLength="14" x="2995" y="391.0957">7</text><text fill="#000000" font-family="sans-serif" font-size="20" lengthAdjust="spacing" textLength="949" x="3013" y="391.0957">create(name,citizenCardNumber,taxNumber,address,email,phoneNumber,agencyDesignation)</text><rect fill="#E3E3E3" height="37.2813" rx="2.5" ry="2.5" style="stroke:#181818;stroke-width:0.5;" width="224" x="3984" y="368.5313"/><text fill="#000000" font-family="sans-serif" font-size="20" lengthAdjust="spacing" textLength="210" x="3991" y="394.0957">employee: Employee</text><polygon fill="#181818" points="2971,442.0938,2981,446.0938,2971,450.0938,2975,446.0938" style="stroke:#181818;stroke-width:1.0;"/><line style="stroke:#181818;stroke-width:1.0;" x1="1757" x2="2977" y1="446.0938" y2="446.0938"/><text fill="#000000" font-family="sans-serif" font-size="20" font-weight="bold" lengthAdjust="spacing" textLength="14" x="1764" y="439.377">8</text><text fill="#000000" font-family="sans-serif" font-size="20" lengthAdjust="spacing" textLength="376" x="1782" y="439.377">validateRegisterEmployee(employee)</text><polygon fill="#181818" points="133,509.375,123,513.375,133,517.375,129,513.375" style="stroke:#181818;stroke-width:1.0;"/><line style="stroke:#181818;stroke-width:1.0;stroke-dasharray:2.0,2.0;" x1="127" x2="642" y1="513.375" y2="513.375"/><text fill="#000000" font-family="sans-serif" font-size="20" font-weight="bold" lengthAdjust="spacing" textLength="14" x="139" y="506.6582">9</text><text fill="#000000" font-family="sans-serif" font-size="20" lengthAdjust="spacing" textLength="474" x="157" y="506.6582">shows employee role list and asks to select one</text><polygon fill="#181818" points="626,546.6563,636,550.6563,626,554.6563,630,550.6563" style="stroke:#181818;stroke-width:1.0;"/><line style="stroke:#181818;stroke-width:1.0;" x1="122" x2="632" y1="550.6563" y2="550.6563"/><text fill="#000000" font-family="sans-serif" font-size="20" font-weight="bold" lengthAdjust="spacing" textLength="28" x="129" y="543.9395">10</text><text fill="#000000" font-family="sans-serif" font-size="20" lengthAdjust="spacing" textLength="248" x="161" y="543.9395">selects an employee role</text><polygon fill="#181818" points="1735,583.9375,1745,587.9375,1735,591.9375,1739,587.9375" style="stroke:#181818;stroke-width:1.0;"/><line style="stroke:#181818;stroke-width:1.0;" x1="648" x2="1741" y1="587.9375" y2="587.9375"/><text fill="#000000" font-family="sans-serif" font-size="20" font-weight="bold" lengthAdjust="spacing" textLength="28" x="655" y="581.2207">11</text><text fill="#000000" font-family="sans-serif" font-size="20" lengthAdjust="spacing" textLength="309" x="687" y="581.2207">employeeRoles = getRoleList()</text><polygon fill="#181818" points="2971,621.2188,2981,625.2188,2971,629.2188,2975,625.2188" style="stroke:#181818;stroke-width:1.0;"/><line style="stroke:#181818;stroke-width:1.0;" x1="1757" x2="2977" y1="625.2188" y2="625.2188"/><text fill="#000000" font-family="sans-serif" font-size="20" font-weight="bold" lengthAdjust="spacing" textLength="28" x="1764" y="618.502">12</text><text fill="#000000" font-family="sans-serif" font-size="20" lengthAdjust="spacing" textLength="378" x="1796" y="618.502">RoleRepository = getRoleRepository()</text><polygon fill="#181818" points="4288,688.5,4298,692.5,4288,696.5,4292,692.5" style="stroke:#181818;stroke-width:1.0;"/><line style="stroke:#181818;stroke-width:1.0;" x1="1752" x2="4294" y1="692.5" y2="692.5"/><text fill="#000000" font-family="sans-serif" font-size="20" font-weight="bold" lengthAdjust="spacing" textLength="28" x="1759" y="685.7832">13</text><text fill="#000000" font-family="sans-serif" font-size="20" lengthAdjust="spacing" textLength="186" x="1791" y="685.7832">getEmployeeRoles</text><polygon fill="#181818" points="626,725.7813,636,729.7813,626,733.7813,630,729.7813" style="stroke:#181818;stroke-width:1.0;"/><line style="stroke:#181818;stroke-width:1.0;" x1="122" x2="632" y1="729.7813" y2="729.7813"/><text fill="#000000" font-family="sans-serif" font-size="20" font-weight="bold" lengthAdjust="spacing" textLength="28" x="129" y="723.0645">14</text><text fill="#000000" font-family="sans-serif" font-size="20" lengthAdjust="spacing" textLength="177" x="161" y="723.0645">confirms the data</text><polygon fill="#181818" points="1735,763.0625,1745,767.0625,1735,771.0625,1739,767.0625" style="stroke:#181818;stroke-width:1.0;"/><line style="stroke:#181818;stroke-width:1.0;" x1="648" x2="1741" y1="767.0625" y2="767.0625"/><text fill="#000000" font-family="sans-serif" font-size="20" font-weight="bold" lengthAdjust="spacing" textLength="28" x="655" y="760.3457">15</text><text fill="#000000" font-family="sans-serif" font-size="20" lengthAdjust="spacing" textLength="160" x="687" y="760.3457">saveEmployee()</text><polygon fill="#181818" points="2971,800.3438,2981,804.3438,2971,808.3438,2975,804.3438" style="stroke:#181818;stroke-width:1.0;"/><line style="stroke:#181818;stroke-width:1.0;" x1="1757" x2="2977" y1="804.3438" y2="804.3438"/><text fill="#000000" font-family="sans-serif" font-size="20" font-weight="bold" lengthAdjust="spacing" textLength="28" x="1764" y="797.627">16</text><text fill="#000000" font-family="sans-serif" font-size="20" lengthAdjust="spacing" textLength="258" x="1796" y="797.627">saveEmployee(employee)</text><line style="stroke:#181818;stroke-width:1.0;" x1="2998" x2="3040" y1="841.625" y2="841.625"/><line style="stroke:#181818;stroke-width:1.0;" x1="3040" x2="3040" y1="841.625" y2="854.625"/><line style="stroke:#181818;stroke-width:1.0;" x1="2999" x2="3040" y1="854.625" y2="854.625"/><polygon fill="#181818" points="3009,850.625,2999,854.625,3009,858.625,3005,854.625" style="stroke:#181818;stroke-width:1.0;"/><text fill="#000000" font-family="sans-serif" font-size="20" font-weight="bold" lengthAdjust="spacing" textLength="28" x="3005" y="834.9082">17</text><text fill="#000000" font-family="sans-serif" font-size="20" lengthAdjust="spacing" textLength="293" x="3037" y="834.9082">validateEmployee(employee)</text><line style="stroke:#181818;stroke-width:1.0;" x1="2998" x2="3040" y1="921.9063" y2="921.9063"/><line style="stroke:#181818;stroke-width:1.0;" x1="3040" x2="3040" y1="921.9063" y2="934.9063"/><line style="stroke:#181818;stroke-width:1.0;" x1="2999" x2="3040" y1="934.9063" y2="934.9063"/><polygon fill="#181818" points="3009,930.9063,2999,934.9063,3009,938.9063,3005,934.9063" style="stroke:#181818;stroke-width:1.0;"/><text fill="#000000" font-family="sans-serif" font-size="20" font-weight="bold" lengthAdjust="spacing" textLength="28" x="3005" y="915.1895">18</text><text fill="#000000" font-family="sans-serif" font-size="20" lengthAdjust="spacing" textLength="251" x="3037" y="915.1895">addEmployee(employee)</text><polygon fill="#181818" points="659,998.1875,649,1002.1875,659,1006.1875,655,1002.1875" style="stroke:#181818;stroke-width:1.0;"/><line style="stroke:#181818;stroke-width:1.0;stroke-dasharray:2.0,2.0;" x1="653" x2="1746" y1="1002.1875" y2="1002.1875"/><text fill="#000000" font-family="sans-serif" font-size="20" font-weight="bold" lengthAdjust="spacing" textLength="28" x="665" y="995.4707">19</text><text fill="#000000" font-family="sans-serif" font-size="20" lengthAdjust="spacing" textLength="57" x="697" y="995.4707">result</text><polygon fill="#181818" points="128,1035.4688,118,1039.4688,128,1043.4688,124,1039.4688" style="stroke:#181818;stroke-width:1.0;"/><line style="stroke:#181818;stroke-width:1.0;stroke-dasharray:2.0,2.0;" x1="122" x2="642" y1="1039.4688" y2="1039.4688"/><text fill="#000000" font-family="sans-serif" font-size="20" font-weight="bold" lengthAdjust="spacing" textLength="28" x="134" y="1032.752">20</text><text fill="#000000" font-family="sans-serif" font-size="20" lengthAdjust="spacing" textLength="250" x="166" y="1032.752">informs operation sucess</text><!--SRC=[lLLDRzim3BthLn2zB2bIODWnm0eKQGOKw7PmrjikhCtOGcJ9a-IqtgyV9SVnHve61OPT0ijwv7ia7nstaxf2YwKowOuoo6YBjVBVZFOR-OVWosVXEWYKHfkqiAOayBQcmKs5wGvpslX64LXAFUfS3G6kmCoyI9t35fKZ8R3sHjVbCraXFXKo8zWQuv_Dgy3K6mjNcyPvAk4kAwMMpblajrU03kxklmjEwcKgAzGUhfO9vOmWkouhPHgYfuS8V7guW5jnbTOeHMtYrS_aSHoHK6MSP699BaAIzHX0Xqn7O0DBM9-yZB7hvEtOFg25JIGODKsK928qIUxHK-o6u1-ukUM2cTqUYWJKq57qSEw9ODWDeqDGWF-koNa76NgSQInf0QdqF7iDATeCsY4ju9Vs-7eyOMR9kGKpe5JXiYgCfluw9vqsSv7HY7ceqpSLkOu-E8_vJtNUngd0qav6roez25snpXyjCsiyF67MIcmLHddTJHHtJqxc6hqqUjxpHW-8oCdSoJfsw3ZRhv2JFntlRDw7h1CEwVhE0VzBEBjBC7TGS7tD4b9B_FeVimt66VX6DUzHIPuXJPTirZLZB7QSQd1g9p3og2lCY-kRoYjBe9Y4BPxnGkmSU0EE57ztWFLFPRvZmZR83NSbfZzln2CkBAPh7H4U7rdFxAoHOeV6gzo7ZenqlaUzAqEoeH63afCMJgeUbPqQlPMsvBuLT67n7ExfEChtwnj1tvvwPz6XOJvab642jkx7Obkr_OVIyJ_Ts6bIRqteYwd8Hi-3grDU3t71huDpwE3W6B_FVm40]--></g></svg>