<?xml version="1.0" encoding="UTF-8" standalone="no"?><svg xmlns="http://www.w3.org/2000/svg" xmlns:xlink="http://www.w3.org/1999/xlink" contentStyleType="text/css" height="383px" preserveAspectRatio="none" style="width:439px;height:383px;background:#FFFFFF;" version="1.1" viewBox="0 0 439 383" width="439px" zoomAndPan="magnify"><defs/><g><rect fill="#FFFFFF" height="39.1563" style="stroke:#181818;stroke-width:1.0;" width="10" x="388.5" y="86.3125"/><rect fill="#FFFFFF" height="39.1563" style="stroke:#181818;stroke-width:1.0;" width="10" x="388.5" y="164.625"/><rect fill="#FFFFFF" height="39.1563" style="stroke:#181818;stroke-width:1.0;" width="10" x="388.5" y="242.9375"/><line style="stroke:#181818;stroke-width:0.5;stroke-dasharray:5.0,5.0;" x1="37" x2="37" y1="45.1563" y2="339.25"/><line style="stroke:#181818;stroke-width:0.5;stroke-dasharray:5.0,5.0;" x1="393.5" x2="393.5" y1="45.1563" y2="339.25"/><rect fill="#E2E2F0" height="39.1563" rx="2.5" ry="2.5" style="stroke:#181818;stroke-width:0.5;" width="65" x="5" y="5"/><text fill="#000000" font-family="sans-serif" font-size="20" lengthAdjust="spacing" textLength="51" x="12" y="32.7617">Agent</text><rect fill="#E2E2F0" height="39.1563" rx="2.5" ry="2.5" style="stroke:#181818;stroke-width:0.5;" width="65" x="5" y="338.25"/><text fill="#000000" font-family="sans-serif" font-size="20" lengthAdjust="spacing" textLength="51" x="12" y="366.0117">Agent</text><rect fill="#E2E2F0" height="39.1563" rx="2.5" ry="2.5" style="stroke:#181818;stroke-width:0.5;" width="80" x="353.5" y="5"/><text fill="#000000" font-family="sans-serif" font-size="20" lengthAdjust="spacing" textLength="66" x="360.5" y="32.7617">System</text><rect fill="#E2E2F0" height="39.1563" rx="2.5" ry="2.5" style="stroke:#181818;stroke-width:0.5;" width="80" x="353.5" y="338.25"/><text fill="#000000" font-family="sans-serif" font-size="20" lengthAdjust="spacing" textLength="66" x="360.5" y="366.0117">System</text><rect fill="#FFFFFF" height="39.1563" style="stroke:#181818;stroke-width:1.0;" width="10" x="388.5" y="86.3125"/><rect fill="#FFFFFF" height="39.1563" style="stroke:#181818;stroke-width:1.0;" width="10" x="388.5" y="164.625"/><rect fill="#FFFFFF" height="39.1563" style="stroke:#181818;stroke-width:1.0;" width="10" x="388.5" y="242.9375"/><polygon fill="#181818" points="376.5,82.3125,386.5,86.3125,376.5,90.3125,380.5,86.3125" style="stroke:#181818;stroke-width:1.0;"/><line style="stroke:#181818;stroke-width:1.0;" x1="37.5" x2="382.5" y1="86.3125" y2="86.3125"/><text fill="#000000" font-family="sans-serif" font-size="20" font-weight="bold" lengthAdjust="spacing" textLength="11" x="44.5" y="79.918">1</text><text fill="#000000" font-family="sans-serif" font-size="20" lengthAdjust="spacing" textLength="317" x="59.5" y="79.918">ask to check orders from a property</text><polygon fill="#181818" points="48.5,121.4688,38.5,125.4688,48.5,129.4688,44.5,125.4688" style="stroke:#181818;stroke-width:1.0;"/><line style="stroke:#181818;stroke-width:1.0;stroke-dasharray:2.0,2.0;" x1="42.5" x2="392.5" y1="125.4688" y2="125.4688"/><text fill="#000000" font-family="sans-serif" font-size="20" font-weight="bold" lengthAdjust="spacing" textLength="11" x="54.5" y="119.0742">2</text><text fill="#000000" font-family="sans-serif" font-size="20" lengthAdjust="spacing" textLength="231" x="69.5" y="119.0742">shows the announcements</text><polygon fill="#181818" points="376.5,160.625,386.5,164.625,376.5,168.625,380.5,164.625" style="stroke:#181818;stroke-width:1.0;"/><line style="stroke:#181818;stroke-width:1.0;" x1="37.5" x2="382.5" y1="164.625" y2="164.625"/><text fill="#000000" font-family="sans-serif" font-size="20" font-weight="bold" lengthAdjust="spacing" textLength="11" x="44.5" y="158.2305">3</text><text fill="#000000" font-family="sans-serif" font-size="20" lengthAdjust="spacing" textLength="299" x="59.5" y="158.2305">chose an announcement to accept</text><polygon fill="#181818" points="48.5,199.7813,38.5,203.7813,48.5,207.7813,44.5,203.7813" style="stroke:#181818;stroke-width:1.0;"/><line style="stroke:#181818;stroke-width:1.0;stroke-dasharray:2.0,2.0;" x1="42.5" x2="392.5" y1="203.7813" y2="203.7813"/><text fill="#000000" font-family="sans-serif" font-size="20" font-weight="bold" lengthAdjust="spacing" textLength="11" x="54.5" y="197.3867">4</text><text fill="#000000" font-family="sans-serif" font-size="20" lengthAdjust="spacing" textLength="152" x="69.5" y="197.3867">shows the orders</text><polygon fill="#181818" points="376.5,238.9375,386.5,242.9375,376.5,246.9375,380.5,242.9375" style="stroke:#181818;stroke-width:1.0;"/><line style="stroke:#181818;stroke-width:1.0;" x1="37.5" x2="382.5" y1="242.9375" y2="242.9375"/><text fill="#000000" font-family="sans-serif" font-size="20" font-weight="bold" lengthAdjust="spacing" textLength="11" x="44.5" y="236.543">5</text><text fill="#000000" font-family="sans-serif" font-size="20" lengthAdjust="spacing" textLength="220" x="59.5" y="236.543">chose an order to accept</text><polygon fill="#181818" points="48.5,278.0938,38.5,282.0938,48.5,286.0938,44.5,282.0938" style="stroke:#181818;stroke-width:1.0;"/><line style="stroke:#181818;stroke-width:1.0;stroke-dasharray:2.0,2.0;" x1="42.5" x2="392.5" y1="282.0938" y2="282.0938"/><text fill="#000000" font-family="sans-serif" font-size="20" font-weight="bold" lengthAdjust="spacing" textLength="11" x="54.5" y="275.6992">6</text><text fill="#000000" font-family="sans-serif" font-size="20" lengthAdjust="spacing" textLength="239" x="69.5" y="275.6992">Displays operation success</text><polygon fill="#181818" points="381.5,317.25,391.5,321.25,381.5,325.25,385.5,321.25" style="stroke:#181818;stroke-width:1.0;"/><line style="stroke:#181818;stroke-width:1.0;stroke-dasharray:2.0,2.0;" x1="37.5" x2="387.5" y1="321.25" y2="321.25"/><text fill="#000000" font-family="sans-serif" font-size="20" font-weight="bold" lengthAdjust="spacing" textLength="11" x="44.5" y="314.8555">7</text><text fill="#000000" font-family="sans-serif" font-size="20" lengthAdjust="spacing" textLength="239" x="59.5" y="314.8555">Displays operation success</text><!--SRC=[bP0nJWCn44LxdsAwhI814aqAf0W4QLBb11DxickjrsCyOs0vFTuaAA28eAtzt__F8xsF2JCEWMrF3XpjiGHzvgXR_qbmTsCQ30gYO_2nDVATXosz5egMNZANj2Pqb2VgaGDdQ3DH_2jyZkr2eMkfWyBjlMasthb0eFHnLcdEe9p03ObWIwlWsmYMebB-D-Py9gkUey6Y7Ckmgv1PjPM6nGDiHr4QO0aeFIY3xSZsmBb-Ls2VUG24b3bHrj5WBNf3fHDbp8bUrA9ZunAautS1xGWmHYvLPwWFOXnTq9SIjcEPm5_if8NMKjAP0iTVp5m-G3CddxoaWAF0T2USZWrIAYxNnd-kNodu0W00]--></g></svg>