<?xml version="1.0" encoding="UTF-8" standalone="no"?><svg xmlns="http://www.w3.org/2000/svg" xmlns:xlink="http://www.w3.org/1999/xlink" contentStyleType="text/css" height="759px" preserveAspectRatio="none" style="width:1596px;height:759px;background:#FFFFFF;" version="1.1" viewBox="0 0 1596 759" width="1596px" zoomAndPan="magnify"><defs/><g><!--class Employee--><g id="elem_Employee"><rect codeLine="17" fill="#FFDAB9" height="64.5625" id="Employee" rx="2.5" ry="2.5" style="stroke:#4169E1;stroke-width:0.5;" width="219" x="668.5" y="272"/><text fill="#000000" font-family="sans-serif" font-size="20" lengthAdjust="spacing" textLength="99" x="728.5" y="295.5645">Employee</text><line style="stroke:#4169E1;stroke-width:0.5;" x1="669.5" x2="886.5" y1="305.2813" y2="305.2813"/><rect fill="none" height="6" style="stroke:#C82930;stroke-width:1.0;" width="6" x="676.5" y="319.4219"/><text fill="#000000" font-family="sans-serif" font-size="20" lengthAdjust="spacing" textLength="192" x="689.5" y="327.8457">agencyDesignation</text></g><!--class Person--><g id="elem_Person"><rect codeLine="21" fill="#FFDAB9" height="180.9688" id="Person" rx="2.5" ry="2.5" style="stroke:#4169E1;stroke-width:0.5;" width="194" x="1045" y="7"/><text fill="#000000" font-family="sans-serif" font-size="20" lengthAdjust="spacing" textLength="67" x="1108.5" y="30.5645">Person</text><line style="stroke:#4169E1;stroke-width:0.5;" x1="1046" x2="1238" y1="40.2813" y2="40.2813"/><rect fill="none" height="6" style="stroke:#C82930;stroke-width:1.0;" width="6" x="1053" y="54.4219"/><text fill="#000000" font-family="sans-serif" font-size="20" lengthAdjust="spacing" textLength="57" x="1066" y="62.8457">name</text><rect fill="none" height="6" style="stroke:#C82930;stroke-width:1.0;" width="6" x="1053" y="77.7031"/><text fill="#000000" font-family="sans-serif" font-size="20" lengthAdjust="spacing" textLength="167" x="1066" y="86.127">passportNumber</text><rect fill="none" height="6" style="stroke:#C82930;stroke-width:1.0;" width="6" x="1053" y="100.9844"/><text fill="#000000" font-family="sans-serif" font-size="20" lengthAdjust="spacing" textLength="112" x="1066" y="109.4082">taxNumber</text><rect fill="none" height="6" style="stroke:#C82930;stroke-width:1.0;" width="6" x="1053" y="124.2656"/><text fill="#000000" font-family="sans-serif" font-size="20" lengthAdjust="spacing" textLength="56" x="1066" y="132.6895">email</text><rect fill="none" height="6" style="stroke:#C82930;stroke-width:1.0;" width="6" x="1053" y="147.5469"/><text fill="#000000" font-family="sans-serif" font-size="20" lengthAdjust="spacing" textLength="144" x="1066" y="155.9707">phoneNumber</text><rect fill="none" height="6" style="stroke:#C82930;stroke-width:1.0;" width="6" x="1053" y="170.8281"/><text fill="#000000" font-family="sans-serif" font-size="20" lengthAdjust="spacing" textLength="95" x="1066" y="179.252">password</text></g><!--class PO--><g id="elem_PO"><rect codeLine="29" fill="#FFDAB9" height="41.2813" id="PO" rx="2.5" ry="2.5" style="stroke:#4169E1;stroke-width:0.5;" width="162" x="7" y="168"/><text fill="#000000" font-family="sans-serif" font-size="20" lengthAdjust="spacing" textLength="156" x="10" y="191.5645">Property Owner</text><line style="stroke:#4169E1;stroke-width:0.5;" x1="8" x2="168" y1="201.2813" y2="201.2813"/></g><!--class Property--><g id="elem_Property"><rect codeLine="32" fill="#FFDAB9" height="134.4063" id="Property" rx="2.5" ry="2.5" style="stroke:#4169E1;stroke-width:0.5;" width="270" x="643" y="372.5"/><text fill="#000000" font-family="sans-serif" font-size="20" lengthAdjust="spacing" textLength="84" x="736" y="396.0645">Property</text><line style="stroke:#4169E1;stroke-width:0.5;" x1="644" x2="912" y1="405.7813" y2="405.7813"/><rect fill="none" height="6" style="stroke:#C82930;stroke-width:1.0;" width="6" x="651" y="419.9219"/><text fill="#000000" font-family="sans-serif" font-size="20" lengthAdjust="spacing" textLength="44" x="664" y="428.3457">type</text><rect fill="none" height="6" style="stroke:#C82930;stroke-width:1.0;" width="6" x="651" y="443.2031"/><text fill="#000000" font-family="sans-serif" font-size="20" lengthAdjust="spacing" textLength="44" x="664" y="451.627">area</text><rect fill="none" height="6" style="stroke:#C82930;stroke-width:1.0;" width="6" x="651" y="466.4844"/><text fill="#000000" font-family="sans-serif" font-size="20" lengthAdjust="spacing" textLength="243" x="664" y="474.9082">distanceFromCityCenter</text><rect fill="none" height="6" style="stroke:#C82930;stroke-width:1.0;" width="6" x="651" y="489.7656"/><text fill="#000000" font-family="sans-serif" font-size="20" lengthAdjust="spacing" textLength="127" x="664" y="498.1895">photographs</text></g><!--class Home--><g id="elem_Home"><rect codeLine="39" fill="#FFDAB9" height="134.4063" id="Home" rx="2.5" ry="2.5" style="stroke:#4169E1;stroke-width:0.5;" width="266" x="1009" y="318.5"/><text fill="#000000" font-family="sans-serif" font-size="20" lengthAdjust="spacing" textLength="59" x="1112.5" y="342.0645">Home</text><line style="stroke:#4169E1;stroke-width:0.5;" x1="1010" x2="1274" y1="351.7813" y2="351.7813"/><rect fill="none" height="6" style="stroke:#C82930;stroke-width:1.0;" width="6" x="1017" y="365.9219"/><text fill="#000000" font-family="sans-serif" font-size="20" lengthAdjust="spacing" textLength="202" x="1030" y="374.3457">numberOfbedrooms</text><rect fill="none" height="6" style="stroke:#C82930;stroke-width:1.0;" width="6" x="1017" y="389.2031"/><text fill="#000000" font-family="sans-serif" font-size="20" lengthAdjust="spacing" textLength="210" x="1030" y="397.627">numberOfbathrooms</text><rect fill="none" height="6" style="stroke:#C82930;stroke-width:1.0;" width="6" x="1017" y="412.4844"/><text fill="#000000" font-family="sans-serif" font-size="20" lengthAdjust="spacing" textLength="239" x="1030" y="420.9082">numberOfParkingSpace</text><rect fill="none" height="6" style="stroke:#C82930;stroke-width:1.0;" width="6" x="1017" y="435.7656"/><text fill="#000000" font-family="sans-serif" font-size="20" lengthAdjust="spacing" textLength="201" x="1030" y="444.1895">availableEquipment</text></g><!--class Land--><g id="elem_Land"><rect codeLine="45" fill="#FFDAB9" height="41.2813" id="Land" rx="2.5" ry="2.5" style="stroke:#4169E1;stroke-width:0.5;" width="55" x="1114.5" y="488"/><text fill="#000000" font-family="sans-serif" font-size="20" lengthAdjust="spacing" textLength="49" x="1117.5" y="511.5645">Land</text><line style="stroke:#4169E1;stroke-width:0.5;" x1="1115.5" x2="1168.5" y1="521.2813" y2="521.2813"/></g><!--class Apartment--><g id="elem_Apartment"><rect codeLine="48" fill="#FFDAB9" height="41.2813" id="Apartment" rx="2.5" ry="2.5" style="stroke:#4169E1;stroke-width:0.5;" width="114" x="1442.5" y="455"/><text fill="#000000" font-family="sans-serif" font-size="20" lengthAdjust="spacing" textLength="108" x="1445.5" y="478.5645">Apartment</text><line style="stroke:#4169E1;stroke-width:0.5;" x1="1443.5" x2="1555.5" y1="488.2813" y2="488.2813"/></g><!--class House--><g id="elem_House"><rect codeLine="51" fill="#FFDAB9" height="111.125" id="House" rx="2.5" ry="2.5" style="stroke:#4169E1;stroke-width:0.5;" width="179" x="1410" y="309"/><text fill="#000000" font-family="sans-serif" font-size="20" lengthAdjust="spacing" textLength="62" x="1468.5" y="332.5645">House</text><line style="stroke:#4169E1;stroke-width:0.5;" x1="1411" x2="1588" y1="342.2813" y2="342.2813"/><rect fill="none" height="6" style="stroke:#C82930;stroke-width:1.0;" width="6" x="1418" y="356.4219"/><text fill="#000000" font-family="sans-serif" font-size="20" lengthAdjust="spacing" textLength="100" x="1431" y="364.8457">basement</text><rect fill="none" height="6" style="stroke:#C82930;stroke-width:1.0;" width="6" x="1418" y="379.7031"/><text fill="#000000" font-family="sans-serif" font-size="20" lengthAdjust="spacing" textLength="152" x="1431" y="388.127">inhabitableLoft</text><rect fill="none" height="6" style="stroke:#C82930;stroke-width:1.0;" width="6" x="1418" y="402.9844"/><text fill="#000000" font-family="sans-serif" font-size="20" lengthAdjust="spacing" textLength="128" x="1431" y="411.4082">sunExposure</text></g><!--class Announcement--><g id="elem_Announcement"><rect codeLine="56" fill="#FFDAB9" height="87.8438" id="Announcement" rx="2.5" ry="2.5" style="stroke:#4169E1;stroke-width:0.5;" width="160" x="327" y="260.5"/><text fill="#000000" font-family="sans-serif" font-size="20" lengthAdjust="spacing" textLength="154" x="330" y="284.0645">Announcement</text><line style="stroke:#4169E1;stroke-width:0.5;" x1="328" x2="486" y1="293.7813" y2="293.7813"/><rect fill="none" height="6" style="stroke:#C82930;stroke-width:1.0;" width="6" x="335" y="307.9219"/><text fill="#000000" font-family="sans-serif" font-size="20" lengthAdjust="spacing" textLength="19" x="348" y="316.3457">id</text><rect fill="none" height="6" style="stroke:#C82930;stroke-width:1.0;" width="6" x="335" y="331.2031"/><text fill="#000000" font-family="sans-serif" font-size="20" lengthAdjust="spacing" textLength="50" x="348" y="339.627">state</text></g><!--class Sale--><g id="elem_Sale"><rect codeLine="60" fill="#FFDAB9" height="64.5625" id="Sale" rx="2.5" ry="2.5" style="stroke:#4169E1;stroke-width:0.5;" width="161" x="1061.5" y="688"/><text fill="#000000" font-family="sans-serif" font-size="20" lengthAdjust="spacing" textLength="43" x="1120.5" y="711.5645">Sale</text><line style="stroke:#4169E1;stroke-width:0.5;" x1="1062.5" x2="1221.5" y1="721.2813" y2="721.2813"/><rect fill="none" height="6" style="stroke:#C82930;stroke-width:1.0;" width="6" x="1069.5" y="735.4219"/><text fill="#000000" font-family="sans-serif" font-size="20" lengthAdjust="spacing" textLength="134" x="1082.5" y="743.8457">propertyPrice</text></g><!--class Rent--><g id="elem_Rent"><rect codeLine="63" fill="#FFDAB9" height="87.8438" id="Rent" rx="2.5" ry="2.5" style="stroke:#4169E1;stroke-width:0.5;" width="197" x="1043.5" y="564.5"/><text fill="#000000" font-family="sans-serif" font-size="20" lengthAdjust="spacing" textLength="47" x="1118.5" y="588.0645">Rent</text><line style="stroke:#4169E1;stroke-width:0.5;" x1="1044.5" x2="1239.5" y1="597.7813" y2="597.7813"/><rect fill="none" height="6" style="stroke:#C82930;stroke-width:1.0;" width="6" x="1051.5" y="611.9219"/><text fill="#000000" font-family="sans-serif" font-size="20" lengthAdjust="spacing" textLength="132" x="1064.5" y="620.3457">propertyRent</text><rect fill="none" height="6" style="stroke:#C82930;stroke-width:1.0;" width="6" x="1051.5" y="635.2031"/><text fill="#000000" font-family="sans-serif" font-size="20" lengthAdjust="spacing" textLength="170" x="1064.5" y="643.627">contractDuration</text></g><!--class Deal--><g id="elem_Deal"><rect codeLine="67" fill="#FFDAB9" height="64.5625" id="Deal" rx="2.5" ry="2.5" style="stroke:#4169E1;stroke-width:0.5;" width="118" x="719" y="576"/><text fill="#000000" font-family="sans-serif" font-size="20" lengthAdjust="spacing" textLength="45" x="755.5" y="599.5645">Deal</text><line style="stroke:#4169E1;stroke-width:0.5;" x1="720" x2="836" y1="609.2813" y2="609.2813"/><rect fill="none" height="6" style="stroke:#C82930;stroke-width:1.0;" width="6" x="727" y="623.4219"/><text fill="#000000" font-family="sans-serif" font-size="20" lengthAdjust="spacing" textLength="91" x="740" y="631.8457">dealType</text></g><!--class Address--><g id="elem_Address"><rect codeLine="70" fill="#FFDAB9" height="134.4063" id="Address" rx="2.5" ry="2.5" style="stroke:#4169E1;stroke-width:0.5;" width="105" x="1447" y="118.5"/><text fill="#000000" font-family="sans-serif" font-size="20" lengthAdjust="spacing" textLength="80" x="1459.5" y="142.0645">Address</text><line style="stroke:#4169E1;stroke-width:0.5;" x1="1448" x2="1551" y1="151.7813" y2="151.7813"/><rect fill="none" height="6" style="stroke:#C82930;stroke-width:1.0;" width="6" x="1455" y="165.9219"/><text fill="#000000" font-family="sans-serif" font-size="20" lengthAdjust="spacing" textLength="58" x="1468" y="174.3457">street</text><rect fill="none" height="6" style="stroke:#C82930;stroke-width:1.0;" width="6" x="1455" y="189.2031"/><text fill="#000000" font-family="sans-serif" font-size="20" lengthAdjust="spacing" textLength="36" x="1468" y="197.627">city</text><rect fill="none" height="6" style="stroke:#C82930;stroke-width:1.0;" width="6" x="1455" y="212.4844"/><text fill="#000000" font-family="sans-serif" font-size="20" lengthAdjust="spacing" textLength="50" x="1468" y="220.9082">state</text><rect fill="none" height="6" style="stroke:#C82930;stroke-width:1.0;" width="6" x="1455" y="235.7656"/><text fill="#000000" font-family="sans-serif" font-size="20" lengthAdjust="spacing" textLength="78" x="1468" y="244.1895">zipcode</text></g><!--class Date--><g id="elem_Date"><rect codeLine="76" fill="#FFDAB9" height="111.125" id="Date" rx="2.5" ry="2.5" style="stroke:#4169E1;stroke-width:0.5;" width="93" x="731.5" y="126"/><text fill="#000000" font-family="sans-serif" font-size="20" lengthAdjust="spacing" textLength="47" x="754.5" y="149.5645">Date</text><line style="stroke:#4169E1;stroke-width:0.5;" x1="732.5" x2="823.5" y1="159.2813" y2="159.2813"/><rect fill="none" height="6" style="stroke:#C82930;stroke-width:1.0;" width="6" x="739.5" y="173.4219"/><text fill="#000000" font-family="sans-serif" font-size="20" lengthAdjust="spacing" textLength="43" x="752.5" y="181.8457">year</text><rect fill="none" height="6" style="stroke:#C82930;stroke-width:1.0;" width="6" x="739.5" y="196.7031"/><text fill="#000000" font-family="sans-serif" font-size="20" lengthAdjust="spacing" textLength="66" x="752.5" y="205.127">month</text><rect fill="none" height="6" style="stroke:#C82930;stroke-width:1.0;" width="6" x="739.5" y="219.9844"/><text fill="#000000" font-family="sans-serif" font-size="20" lengthAdjust="spacing" textLength="36" x="752.5" y="228.4082">day</text></g><!--link PO to Announcement--><g id="link_PO_Announcement"><path codeLine="84" d="M145.31,209.1 C195.75,227.56 270.26,254.83 326.71,275.49 " fill="none" id="PO-Announcement" style="stroke:#4169E1;stroke-width:1.0;"/><polygon fill="#000000" points="214.5127,218.8902,202.5383,209.5004,199.306,218.332,214.5127,218.8902" style="stroke:#000000;stroke-width:1.0;"/><text fill="#000000" font-family="sans-serif" font-size="20" lengthAdjust="spacing" textLength="76" x="220" y="223.0645">request</text><text fill="#000000" font-family="sans-serif" font-size="20" lengthAdjust="spacing" textLength="13" x="145.3301" y="235.8901">1</text><text fill="#000000" font-family="sans-serif" font-size="20" lengthAdjust="spacing" textLength="13" x="305.9803" y="292.5145">1</text></g><!--reverse link Person to Address--><g id="link_Person_Address"><path codeLine="85" d="M1251.95,124.47 C1316.72,140.5 1395.89,160.1 1446.74,172.69 " fill="none" id="Person-backto-Address" style="stroke:#4169E1;stroke-width:1.0;"/><polygon fill="#4169E1" points="1239.2,121.31,1244.0607,126.6367,1250.8471,124.1987,1245.9865,118.872,1239.2,121.31" style="stroke:#4169E1;stroke-width:1.0;"/><polygon fill="#000000" points="1320.7656,128.063,1307.8474,120.0209,1305.5876,129.1499,1320.7656,128.063" style="stroke:#000000;stroke-width:1.0;"/><text fill="#000000" font-family="sans-serif" font-size="20" lengthAdjust="spacing" textLength="53" x="1326" y="133.0645">has a</text><text fill="#000000" font-family="sans-serif" font-size="20" lengthAdjust="spacing" textLength="13" x="1247.1395" y="142.5898">1</text><text fill="#000000" font-family="sans-serif" font-size="20" lengthAdjust="spacing" textLength="13" x="1426.1473" y="191.0786">1</text></g><!--link PO to Person--><g id="link_PO_Person"><path codeLine="86" d="M169.39,173.76 C276.87,154.78 473.52,122.56 643,108.5 C773.42,97.68 923.66,95.81 1024.72,96.09 " fill="none" id="PO-to-Person" style="stroke:#4169E1;stroke-width:1.0;"/><polygon fill="none" points="1024.91,89.09,1044.88,96.17,1024.86,103.09,1024.91,89.09" style="stroke:#4169E1;stroke-width:1.0;"/><text fill="#000000" font-family="sans-serif" font-size="20" lengthAdjust="spacing" textLength="34" x="548" y="106.0645">is a</text></g><!--link Announcement to Deal--><g id="link_Announcement_Deal"><path codeLine="88" d="M449.84,348.62 C495.12,395.15 570.59,469.22 643,524.5 C667.23,542.99 695.63,561.24 720.05,575.98 " fill="none" id="Announcement-Deal" style="stroke:#4169E1;stroke-width:1.0;"/><polygon fill="#000000" points="541.6214,407.2913,533.5752,394.3756,527.5203,401.5717,541.6214,407.2913" style="stroke:#000000;stroke-width:1.0;"/><text fill="#000000" font-family="sans-serif" font-size="20" lengthAdjust="spacing" textLength="53" x="548.5" y="409.0645">has a</text><text fill="#000000" font-family="sans-serif" font-size="20" lengthAdjust="spacing" textLength="13" x="441.9503" y="375.0368">1</text><text fill="#000000" font-family="sans-serif" font-size="20" lengthAdjust="spacing" textLength="13" x="697.9867" y="565.4047">1</text></g><!--link Announcement to Property--><g id="link_Announcement_Property"><path codeLine="89" d="M487.16,333.46 C532.48,350.04 590.55,371.29 642.79,390.4 " fill="none" id="Announcement-Property" style="stroke:#4169E1;stroke-width:1.0;"/><polygon fill="#000000" points="552.0129,333.8894,540.0376,324.5008,536.8062,333.3328,552.0129,333.8894" style="stroke:#000000;stroke-width:1.0;"/><text fill="#000000" font-family="sans-serif" font-size="20" lengthAdjust="spacing" textLength="35" x="557.5" y="338.0645">has</text><text fill="#000000" font-family="sans-serif" font-size="20" lengthAdjust="spacing" textLength="13" x="494.8782" y="355.6474">1</text><text fill="#000000" font-family="sans-serif" font-size="20" lengthAdjust="spacing" textLength="13" x="622.0402" y="406.9048">1</text></g><!--link Announcement to Employee--><g id="link_Announcement_Employee"><path codeLine="90" d="M487.16,304.5 C540,304.5 610.16,304.5 668.23,304.5 " fill="none" id="Announcement-Employee" style="stroke:#4169E1;stroke-width:1.0;"/><polygon fill="#000000" points="533,292.1406,518.5279,287.4383,518.5279,296.8429,533,292.1406" style="stroke:#000000;stroke-width:1.0;"/><text fill="#000000" font-family="sans-serif" font-size="20" lengthAdjust="spacing" textLength="74" x="538" y="299.0645">send to</text><text fill="#000000" font-family="sans-serif" font-size="20" lengthAdjust="spacing" textLength="13" x="494.8782" y="324.1082">1</text><text fill="#000000" font-family="sans-serif" font-size="20" lengthAdjust="spacing" textLength="13" x="647.4181" y="323.8613">1</text></g><!--reverse link Announcement to Date--><g id="link_Announcement_Date"><path codeLine="91" d="M499.67,273.94 C573.36,249.38 673.77,215.91 731.36,196.71 " fill="none" id="Announcement-backto-Date" style="stroke:#4169E1;stroke-width:1.0;"/><polygon fill="#4169E1" points="487.16,278.11,494.1177,280.0049,498.5429,274.3113,491.5852,272.4164,487.16,278.11" style="stroke:#4169E1;stroke-width:1.0;"/><polygon fill="#000000" points="543.0895,223.6108,527.873,223.7263,530.847,232.6483,543.0895,223.6108" style="stroke:#000000;stroke-width:1.0;"/><text fill="#000000" font-family="sans-serif" font-size="20" lengthAdjust="spacing" textLength="53" x="548.5" y="233.0645">has a</text></g><!--reverse link Property to Address--><g id="link_Property_Address"><path codeLine="94" d="M898.63,365.56 C947.92,335.51 996.47,306.6 1009,301.5 C1089.08,268.9 1338.11,217.34 1446.84,195.65 " fill="none" id="Property-backto-Address" style="stroke:#4169E1;stroke-width:1.0;"/><polygon fill="#4169E1" points="887.45,372.38,894.6554,372.6659,897.6907,366.1247,890.4853,365.8388,887.45,372.38" style="stroke:#4169E1;stroke-width:1.0;"/><polygon fill="#000000" points="1120.1414,217.7723,1104.9259,217.5652,1107.7101,226.5482,1120.1414,217.7723" style="stroke:#000000;stroke-width:1.0;"/><text fill="#000000" font-family="sans-serif" font-size="20" lengthAdjust="spacing" textLength="53" x="1125.5" y="227.0645">has a</text><text fill="#000000" font-family="sans-serif" font-size="20" lengthAdjust="spacing" textLength="13" x="885.0667" y="359.8303">1</text><text fill="#000000" font-family="sans-serif" font-size="20" lengthAdjust="spacing" textLength="13" x="1425.8904" y="217.1153">1</text></g><!--reverse link Deal to Rent--><g id="link_Deal_Rent"><path codeLine="97" d="M857.46,608.5 C912.02,608.5 985.12,608.5 1043.43,608.5 " fill="none" id="Deal-backto-Rent" style="stroke:#4169E1;stroke-width:1.0;"/><polygon fill="none" points="857.16,615.5,837.16,608.5,857.16,601.5,857.16,615.5" style="stroke:#4169E1;stroke-width:1.0;"/></g><!--reverse link Deal to Sale--><g id="link_Deal_Sale"><path codeLine="98" d="M856.3,632.41 C916.71,651.11 1000.39,677 1061.39,695.87 " fill="none" id="Deal-backto-Sale" style="stroke:#4169E1;stroke-width:1.0;"/><polygon fill="none" points="854.2,639.09,837.16,626.49,858.34,625.72,854.2,639.09" style="stroke:#4169E1;stroke-width:1.0;"/></g><!--reverse link Property to Land--><g id="link_Property_Land"><path codeLine="101" d="M932.73,468.8 C1001.53,481.92 1075.72,496.06 1114.28,503.41 " fill="none" id="Property-backto-Land" style="stroke:#4169E1;stroke-width:1.0;"/><polygon fill="none" points="931.36,475.67,913.02,465.05,933.98,461.91,931.36,475.67" style="stroke:#4169E1;stroke-width:1.0;"/><text fill="#000000" font-family="sans-serif" font-size="20" lengthAdjust="spacing" textLength="34" x="944" y="466.0645">is a</text></g><!--reverse link Property to Home--><g id="link_Property_Home"><path codeLine="102" d="M933.06,416.52 C958.29,412.76 984.23,408.89 1008.87,405.21 " fill="none" id="Property-backto-Home" style="stroke:#4169E1;stroke-width:1.0;"/><polygon fill="none" points="933.84,423.48,913.02,419.51,931.77,409.63,933.84,423.48" style="stroke:#4169E1;stroke-width:1.0;"/><text fill="#000000" font-family="sans-serif" font-size="20" lengthAdjust="spacing" textLength="34" x="944" y="405.0645">is a</text></g><!--reverse link Home to Apartment--><g id="link_Home_Apartment"><path codeLine="103" d="M1294.6,423.88 C1346.92,437.13 1402.33,451.15 1442.16,461.24 " fill="none" id="Home-backto-Apartment" style="stroke:#4169E1;stroke-width:1.0;"/><polygon fill="none" points="1292.79,430.64,1275.12,418.95,1296.23,417.07,1292.79,430.64" style="stroke:#4169E1;stroke-width:1.0;"/><text fill="#000000" font-family="sans-serif" font-size="20" lengthAdjust="spacing" textLength="34" x="1325.5" y="422.0645">is a</text></g><!--reverse link Home to House--><g id="link_Home_House"><path codeLine="104" d="M1295.1,376.52 C1334.26,374.2 1375.12,371.79 1409.86,369.74 " fill="none" id="Home-backto-House" style="stroke:#4169E1;stroke-width:1.0;"/><polygon fill="none" points="1295.5,383.5,1275.12,377.7,1294.67,369.53,1295.5,383.5" style="stroke:#4169E1;stroke-width:1.0;"/><text fill="#000000" font-family="sans-serif" font-size="20" lengthAdjust="spacing" textLength="34" x="1325.5" y="366.0645">is a</text></g><!--link Employee to Person--><g id="link_Employee_Person"><path codeLine="106" d="M881.68,271.87 C892.62,266.75 903.29,260.97 913,254.5 C929.23,243.7 927.97,234.91 943,222.5 C969.08,200.96 999.12,180.22 1027.79,162.03 " fill="none" id="Employee-to-Person" style="stroke:#4169E1;stroke-width:1.0;"/><polygon fill="none" points="1024.27,155.98,1044.95,151.34,1031.68,167.86,1024.27,155.98" style="stroke:#4169E1;stroke-width:1.0;"/><text fill="#000000" font-family="sans-serif" font-size="20" lengthAdjust="spacing" textLength="34" x="944" y="189.0645">is a</text></g><!--SRC=[VLHTJzim57tthx3wKcbI4DiZcf20WZO9hHNT7t3jsyJ2iSErin9W_ttNJfo4KkQ7DlOzFlVSB_j7RHk1eZPEFeBY2lQYDU7EsR3LBy2_dREbpnXUE-jaXQu67h05DbaQ8Hz52TlG6U08CWXRcZd0LqAvWxObtmlZOSvgj8NGDS0TXien0_l0W-EeoofmfIERTdP-GnhX_LK8g7TjW9_IsIJsd5LQ0PSQ9VbEtpKGfV9iMUHrfqcX9vsaPJnaHzpybN5QrnHLYQwrwiOPXtm3GbQRThzFrYj4T-WD3wuJvjfGIj8rXmhmsF9t9eBMsvKC3lrRSRGOwnNSrern7K2lfA3aMjcjmElIYfGF8koH6q3lx22viABkLHGD6HlAwQ-stW7sPq4ypxTG2sq6TEKip6tn-e4Y6VqiDkWQmD3nzS42BhWWtsloEod9W44BZsKTFWM2uCEtqfuQHC8TjTAD3jqDs93TSX8IN8cYgVp4_2FsN6QrIULwlmE5pjN- -5Y4wjJvHY1LkTnIhuwY_b3yOcVWzgdLJKqoHe_tmgfPQ5VK7I42NkUYMf_hmtV2GoBejzfMOgT3vBvt-tpgMtlxt3ZV8apCrbA7IUZ9XzigfueI5IRiLfZii1bolK4j9y33Z2GZ7aPLD2W1XGoh5liUojTM8CoONaMRtx5meqAb4CQXY9eG88SagNxlnERDYswaKnFBAjeoHGSYrviUbL1brw8xdfDXaNJRFmJ-ev6nPMf9Hksu-BhWHP7-vfdb5_GiFRNW0xzamyH4p9UC7MAyu1MrjOYWDV6yNURnkk0wdhFbd9MzSp5pdH8wSNq66mUcXtuEpAy10JrO5T_78t0C9ALuyigMcP-DZluVCricuIpzVgUtAJNKV1yxa9siK541KiENSCh6paO5YUOiZjUOqsDZclRUoFfDVpuEuIbZciPiO5F6FXQH_GC0]--></g></svg>