<?xml version="1.0" encoding="UTF-8" standalone="no"?><svg xmlns="http://www.w3.org/2000/svg" xmlns:xlink="http://www.w3.org/1999/xlink" contentStyleType="text/css" height="1190px" preserveAspectRatio="none" style="width:3819px;height:1190px;background:#FFFFFF;" version="1.1" viewBox="0 0 3819 1190" width="3819px" zoomAndPan="magnify"><defs/><g><rect fill="#FFFFFF" height="982.4375" style="stroke:#181818;stroke-width:1.0;" width="10" x="97" y="100.1563"/><rect fill="#FFFFFF" height="89.4688" style="stroke:#181818;stroke-width:1.0;" width="10" x="566" y="131.3125"/><rect fill="#FFFFFF" height="275.9375" style="stroke:#181818;stroke-width:1.0;" width="10" x="566" y="259.9375"/><rect fill="#FFFFFF" height="147.4688" style="stroke:#181818;stroke-width:1.0;" width="10" x="566" y="575.0313"/><rect fill="#FFFFFF" height="320.9375" style="stroke:#181818;stroke-width:1.0;" width="10" x="566" y="761.6563"/><rect fill="#FFFFFF" height="197.625" style="stroke:#181818;stroke-width:1.0;" width="10" x="1524" y="299.0938"/><rect fill="#FFFFFF" height="108.3125" style="stroke:#181818;stroke-width:1.0;" width="10" x="1524" y="614.1875"/><rect fill="#FFFFFF" height="281.7813" style="stroke:#181818;stroke-width:1.0;" width="10" x="1524" y="800.8125"/><rect fill="#FFFFFF" height="39.1563" style="stroke:#181818;stroke-width:1.0;" width="10" x="2591" y="377.4063"/><rect fill="#FFFFFF" height="30" style="stroke:#181818;stroke-width:1.0;" width="10" x="2591" y="466.7188"/><rect fill="#FFFFFF" height="30" style="stroke:#181818;stroke-width:1.0;" width="10" x="2591" y="653.3438"/><rect fill="#FFFFFF" height="242.625" style="stroke:#181818;stroke-width:1.0;" width="10" x="2591" y="839.9688"/><rect fill="#FFFFFF" height="28" style="stroke:#181818;stroke-width:1.0;" width="10" x="2596" y="887.125"/><rect fill="#FFFFFF" height="28" style="stroke:#181818;stroke-width:1.0;" width="10" x="2596" y="969.2813"/><line style="stroke:#181818;stroke-width:0.5;stroke-dasharray:5.0,5.0;" x1="102" x2="102" y1="90.1563" y2="1100.5938"/><line style="stroke:#181818;stroke-width:0.5;stroke-dasharray:5.0,5.0;" x1="571" x2="571" y1="90.1563" y2="1100.5938"/><line style="stroke:#181818;stroke-width:0.5;stroke-dasharray:5.0,5.0;" x1="1529" x2="1529" y1="90.1563" y2="1100.5938"/><line style="stroke:#181818;stroke-width:0.5;stroke-dasharray:5.0,5.0;" x1="1909" x2="1909" y1="90.1563" y2="1100.5938"/><line style="stroke:#181818;stroke-width:0.5;stroke-dasharray:5.0,5.0;" x1="2596" x2="2596" y1="90.1563" y2="1100.5938"/><line style="stroke:#181818;stroke-width:0.5;stroke-dasharray:5.0,5.0;" x1="3555" x2="3555" y1="420.4844" y2="1100.5938"/><line style="stroke:#181818;stroke-width:0.5;stroke-dasharray:5.0,5.0;" x1="3738" x2="3738" y1="90.1563" y2="1100.5938"/><text fill="#000000" font-family="sans-serif" font-size="20" lengthAdjust="spacing" textLength="188" x="5" y="85.7617">System Administrator</text><ellipse cx="102" cy="13.5" fill="#E3E3E3" rx="8" ry="8" style="stroke:#181818;stroke-width:0.5;"/><path d="M102,21.5 L102,48.5 M89,29.5 L115,29.5 M102,48.5 L89,63.5 M102,48.5 L115,63.5 " fill="none" style="stroke:#181818;stroke-width:0.5;"/><text fill="#000000" font-family="sans-serif" font-size="20" lengthAdjust="spacing" textLength="188" x="5" y="1120.3555">System Administrator</text><ellipse cx="102" cy="1133.25" fill="#E3E3E3" rx="8" ry="8" style="stroke:#181818;stroke-width:0.5;"/><path d="M102,1141.25 L102,1168.25 M89,1149.25 L115,1149.25 M102,1168.25 L89,1183.25 M102,1168.25 L115,1183.25 " fill="none" style="stroke:#181818;stroke-width:0.5;"/><rect fill="#E3E3E3" height="39.1563" rx="2.5" ry="2.5" style="stroke:#181818;stroke-width:0.5;" width="200" x="471" y="50"/><text fill="#000000" font-family="sans-serif" font-size="20" lengthAdjust="spacing" textLength="186" x="478" y="77.7617">:RegisterEmployeeUI</text><rect fill="#E3E3E3" height="39.1563" rx="2.5" ry="2.5" style="stroke:#181818;stroke-width:0.5;" width="200" x="471" y="1099.5938"/><text fill="#000000" font-family="sans-serif" font-size="20" lengthAdjust="spacing" textLength="186" x="478" y="1127.3555">:RegisterEmployeeUI</text><rect fill="#E3E3E3" height="39.1563" rx="2.5" ry="2.5" style="stroke:#181818;stroke-width:0.5;" width="266" x="1396" y="50"/><text fill="#000000" font-family="sans-serif" font-size="20" lengthAdjust="spacing" textLength="252" x="1403" y="77.7617">:RegisterEmployeeController</text><rect fill="#E3E3E3" height="39.1563" rx="2.5" ry="2.5" style="stroke:#181818;stroke-width:0.5;" width="266" x="1396" y="1099.5938"/><text fill="#000000" font-family="sans-serif" font-size="20" lengthAdjust="spacing" textLength="252" x="1403" y="1127.3555">:RegisterEmployeeController</text><rect fill="#E3E3E3" height="39.1563" rx="2.5" ry="2.5" style="stroke:#181818;stroke-width:0.5;" width="124" x="1847" y="50"/><text fill="#000000" font-family="sans-serif" font-size="20" lengthAdjust="spacing" textLength="110" x="1854" y="77.7617">Repositories</text><rect fill="#E3E3E3" height="39.1563" rx="2.5" ry="2.5" style="stroke:#181818;stroke-width:0.5;" width="124" x="1847" y="1099.5938"/><text fill="#000000" font-family="sans-serif" font-size="20" lengthAdjust="spacing" textLength="110" x="1854" y="1127.3555">Repositories</text><rect fill="#E3E3E3" height="39.1563" rx="2.5" ry="2.5" style="stroke:#181818;stroke-width:0.5;" width="394" x="2399" y="50"/><text fill="#000000" font-family="sans-serif" font-size="20" lengthAdjust="spacing" textLength="380" x="2406" y="77.7617">employeeRepository : EmployeeRepository</text><rect fill="#E3E3E3" height="39.1563" rx="2.5" ry="2.5" style="stroke:#181818;stroke-width:0.5;" width="394" x="2399" y="1099.5938"/><text fill="#000000" font-family="sans-serif" font-size="20" lengthAdjust="spacing" textLength="380" x="2406" y="1127.3555">employeeRepository : EmployeeRepository</text><rect fill="#E3E3E3" height="39.1563" rx="2.5" ry="2.5" style="stroke:#181818;stroke-width:0.5;" width="198" x="3456" y="1099.5938"/><text fill="#000000" font-family="sans-serif" font-size="20" lengthAdjust="spacing" textLength="184" x="3463" y="1127.3555">employee: Employee</text><rect fill="#E3E3E3" height="39.1563" rx="2.5" ry="2.5" style="stroke:#181818;stroke-width:0.5;" width="149" x="3664" y="50"/><text fill="#000000" font-family="sans-serif" font-size="20" lengthAdjust="spacing" textLength="135" x="3671" y="77.7617">RoleRepository</text><rect fill="#E3E3E3" height="39.1563" rx="2.5" ry="2.5" style="stroke:#181818;stroke-width:0.5;" width="149" x="3664" y="1099.5938"/><text fill="#000000" font-family="sans-serif" font-size="20" lengthAdjust="spacing" textLength="135" x="3671" y="1127.3555">RoleRepository</text><rect fill="#FFFFFF" height="982.4375" style="stroke:#181818;stroke-width:1.0;" width="10" x="97" y="100.1563"/><rect fill="#FFFFFF" height="89.4688" style="stroke:#181818;stroke-width:1.0;" width="10" x="566" y="131.3125"/><rect fill="#FFFFFF" height="275.9375" style="stroke:#181818;stroke-width:1.0;" width="10" x="566" y="259.9375"/><rect fill="#FFFFFF" height="147.4688" style="stroke:#181818;stroke-width:1.0;" width="10" x="566" y="575.0313"/><rect fill="#FFFFFF" height="320.9375" style="stroke:#181818;stroke-width:1.0;" width="10" x="566" y="761.6563"/><rect fill="#FFFFFF" height="197.625" style="stroke:#181818;stroke-width:1.0;" width="10" x="1524" y="299.0938"/><rect fill="#FFFFFF" height="108.3125" style="stroke:#181818;stroke-width:1.0;" width="10" x="1524" y="614.1875"/><rect fill="#FFFFFF" height="281.7813" style="stroke:#181818;stroke-width:1.0;" width="10" x="1524" y="800.8125"/><rect fill="#FFFFFF" height="39.1563" style="stroke:#181818;stroke-width:1.0;" width="10" x="2591" y="377.4063"/><rect fill="#FFFFFF" height="30" style="stroke:#181818;stroke-width:1.0;" width="10" x="2591" y="466.7188"/><rect fill="#FFFFFF" height="30" style="stroke:#181818;stroke-width:1.0;" width="10" x="2591" y="653.3438"/><rect fill="#FFFFFF" height="242.625" style="stroke:#181818;stroke-width:1.0;" width="10" x="2591" y="839.9688"/><rect fill="#FFFFFF" height="28" style="stroke:#181818;stroke-width:1.0;" width="10" x="2596" y="887.125"/><rect fill="#FFFFFF" height="28" style="stroke:#181818;stroke-width:1.0;" width="10" x="2596" y="969.2813"/><polygon fill="#181818" points="554,127.3125,564,131.3125,554,135.3125,558,131.3125" style="stroke:#181818;stroke-width:1.0;"/><line style="stroke:#181818;stroke-width:1.0;" x1="107" x2="560" y1="131.3125" y2="131.3125"/><text fill="#000000" font-family="sans-serif" font-size="20" font-weight="bold" lengthAdjust="spacing" textLength="11" x="114" y="124.918">1</text><text fill="#000000" font-family="sans-serif" font-size="20" lengthAdjust="spacing" textLength="185" x="129" y="124.918">register an employee</text><polygon fill="#181818" points="118,216.7813,108,220.7813,118,224.7813,114,220.7813" style="stroke:#181818;stroke-width:1.0;"/><line style="stroke:#181818;stroke-width:1.0;stroke-dasharray:2.0,2.0;" x1="112" x2="570" y1="220.7813" y2="220.7813"/><text fill="#000000" font-family="sans-serif" font-size="20" font-weight="bold" lengthAdjust="spacing" textLength="11" x="124" y="189.2305">2</text><text fill="#000000" font-family="sans-serif" font-size="20" lengthAdjust="spacing" textLength="364" x="139" y="164.0742">requests data(name, citizen card number,</text><text fill="#000000" font-family="sans-serif" font-size="20" lengthAdjust="spacing" textLength="233" x="139" y="189.2305">tax number, adress, email,</text><text fill="#000000" font-family="sans-serif" font-size="20" lengthAdjust="spacing" textLength="206" x="139" y="214.3867">phone number, agency)</text><polygon fill="#181818" points="554,255.9375,564,259.9375,554,263.9375,558,259.9375" style="stroke:#181818;stroke-width:1.0;"/><line style="stroke:#181818;stroke-width:1.0;" x1="107" x2="560" y1="259.9375" y2="259.9375"/><text fill="#000000" font-family="sans-serif" font-size="20" font-weight="bold" lengthAdjust="spacing" textLength="11" x="114" y="253.543">3</text><text fill="#000000" font-family="sans-serif" font-size="20" lengthAdjust="spacing" textLength="187" x="129" y="253.543">types requested data</text><polygon fill="#181818" points="1512,295.0938,1522,299.0938,1512,303.0938,1516,299.0938" style="stroke:#181818;stroke-width:1.0;"/><line style="stroke:#181818;stroke-width:1.0;" x1="576" x2="1518" y1="299.0938" y2="299.0938"/><text fill="#000000" font-family="sans-serif" font-size="20" font-weight="bold" lengthAdjust="spacing" textLength="11" x="583" y="292.6992">4</text><text fill="#000000" font-family="sans-serif" font-size="20" lengthAdjust="spacing" textLength="914" x="598" y="292.6992">registerEmployee(name,citizenCardNumber,taxNumber,address,email,phoneNumber,agencyDesignation)</text><polygon fill="#181818" points="1897,334.25,1907,338.25,1897,342.25,1901,338.25" style="stroke:#181818;stroke-width:1.0;"/><line style="stroke:#181818;stroke-width:1.0;" x1="1534" x2="1903" y1="338.25" y2="338.25"/><text fill="#000000" font-family="sans-serif" font-size="20" font-weight="bold" lengthAdjust="spacing" textLength="11" x="1541" y="331.8555">5</text><text fill="#000000" font-family="sans-serif" font-size="20" lengthAdjust="spacing" textLength="336" x="1556" y="331.8555">repository = getEmployeeRepository()</text><polygon fill="#181818" points="2579,373.4063,2589,377.4063,2579,381.4063,2583,377.4063" style="stroke:#181818;stroke-width:1.0;"/><line style="stroke:#181818;stroke-width:1.0;" x1="1534" x2="2585" y1="377.4063" y2="377.4063"/><text fill="#000000" font-family="sans-serif" font-size="20" font-weight="bold" lengthAdjust="spacing" textLength="11" x="1541" y="371.0117">6</text><text fill="#000000" font-family="sans-serif" font-size="20" lengthAdjust="spacing" textLength="1023" x="1556" y="371.0117">employee = registerEmployee(name,citizenCardNumber,taxNumber,address,email,phoneNumber,agencyDesignation)</text><polygon fill="#181818" points="3444,412.5625,3454,416.5625,3444,420.5625,3448,416.5625" style="stroke:#181818;stroke-width:1.0;"/><line style="stroke:#181818;stroke-width:1.0;" x1="2596" x2="3450" y1="416.5625" y2="416.5625"/><text fill="#000000" font-family="sans-serif" font-size="20" font-weight="bold" lengthAdjust="spacing" textLength="11" x="2603" y="410.168">7</text><text fill="#000000" font-family="sans-serif" font-size="20" lengthAdjust="spacing" textLength="816" x="2618" y="410.168">create(name,citizenCardNumber,taxNumber,address,email,phoneNumber,agencyDesignation)</text><rect fill="#E3E3E3" height="39.1563" rx="2.5" ry="2.5" style="stroke:#181818;stroke-width:0.5;" width="198" x="3456" y="385.4063"/><text fill="#000000" font-family="sans-serif" font-size="20" lengthAdjust="spacing" textLength="184" x="3463" y="413.168">employee: Employee</text><polygon fill="#181818" points="2579,462.7188,2589,466.7188,2579,470.7188,2583,466.7188" style="stroke:#181818;stroke-width:1.0;"/><line style="stroke:#181818;stroke-width:1.0;" x1="1534" x2="2585" y1="466.7188" y2="466.7188"/><text fill="#000000" font-family="sans-serif" font-size="20" font-weight="bold" lengthAdjust="spacing" textLength="11" x="1541" y="460.3242">8</text><text fill="#000000" font-family="sans-serif" font-size="20" lengthAdjust="spacing" textLength="327" x="1556" y="460.3242">validateRegisterEmployee(employee)</text><polygon fill="#181818" points="118,531.875,108,535.875,118,539.875,114,535.875" style="stroke:#181818;stroke-width:1.0;"/><line style="stroke:#181818;stroke-width:1.0;stroke-dasharray:2.0,2.0;" x1="112" x2="570" y1="535.875" y2="535.875"/><text fill="#000000" font-family="sans-serif" font-size="20" font-weight="bold" lengthAdjust="spacing" textLength="11" x="124" y="529.4805">9</text><text fill="#000000" font-family="sans-serif" font-size="20" lengthAdjust="spacing" textLength="420" x="139" y="529.4805">shows employee role list and asks to select one</text><polygon fill="#181818" points="554,571.0313,564,575.0313,554,579.0313,558,575.0313" style="stroke:#181818;stroke-width:1.0;"/><line style="stroke:#181818;stroke-width:1.0;" x1="107" x2="560" y1="575.0313" y2="575.0313"/><text fill="#000000" font-family="sans-serif" font-size="20" font-weight="bold" lengthAdjust="spacing" textLength="22" x="114" y="568.6367">10</text><text fill="#000000" font-family="sans-serif" font-size="20" lengthAdjust="spacing" textLength="219" x="140" y="568.6367">selects an employee role</text><polygon fill="#181818" points="1512,610.1875,1522,614.1875,1512,618.1875,1516,614.1875" style="stroke:#181818;stroke-width:1.0;"/><line style="stroke:#181818;stroke-width:1.0;" x1="576" x2="1518" y1="614.1875" y2="614.1875"/><text fill="#000000" font-family="sans-serif" font-size="20" font-weight="bold" lengthAdjust="spacing" textLength="22" x="583" y="607.793">11</text><text fill="#000000" font-family="sans-serif" font-size="20" lengthAdjust="spacing" textLength="272" x="609" y="607.793">employeeRoles = getRoleList()</text><polygon fill="#181818" points="2579,649.3438,2589,653.3438,2579,657.3438,2583,653.3438" style="stroke:#181818;stroke-width:1.0;"/><line style="stroke:#181818;stroke-width:1.0;" x1="1534" x2="2585" y1="653.3438" y2="653.3438"/><text fill="#000000" font-family="sans-serif" font-size="20" font-weight="bold" lengthAdjust="spacing" textLength="22" x="1541" y="646.9492">12</text><text fill="#000000" font-family="sans-serif" font-size="20" lengthAdjust="spacing" textLength="336" x="1567" y="646.9492">RoleRepository = getRoleRepository()</text><polygon fill="#181818" points="3726.5,718.5,3736.5,722.5,3726.5,726.5,3730.5,722.5" style="stroke:#181818;stroke-width:1.0;"/><line style="stroke:#181818;stroke-width:1.0;" x1="1529" x2="3732.5" y1="722.5" y2="722.5"/><text fill="#000000" font-family="sans-serif" font-size="20" font-weight="bold" lengthAdjust="spacing" textLength="22" x="1536" y="716.1055">13</text><text fill="#000000" font-family="sans-serif" font-size="20" lengthAdjust="spacing" textLength="165" x="1562" y="716.1055">getEmployeeRoles</text><polygon fill="#181818" points="554,757.6563,564,761.6563,554,765.6563,558,761.6563" style="stroke:#181818;stroke-width:1.0;"/><line style="stroke:#181818;stroke-width:1.0;" x1="107" x2="560" y1="761.6563" y2="761.6563"/><text fill="#000000" font-family="sans-serif" font-size="20" font-weight="bold" lengthAdjust="spacing" textLength="22" x="114" y="755.2617">14</text><text fill="#000000" font-family="sans-serif" font-size="20" lengthAdjust="spacing" textLength="152" x="140" y="755.2617">confirms the data</text><polygon fill="#181818" points="1512,796.8125,1522,800.8125,1512,804.8125,1516,800.8125" style="stroke:#181818;stroke-width:1.0;"/><line style="stroke:#181818;stroke-width:1.0;" x1="576" x2="1518" y1="800.8125" y2="800.8125"/><text fill="#000000" font-family="sans-serif" font-size="20" font-weight="bold" lengthAdjust="spacing" textLength="22" x="583" y="794.418">15</text><text fill="#000000" font-family="sans-serif" font-size="20" lengthAdjust="spacing" textLength="142" x="609" y="794.418">saveEmployee()</text><polygon fill="#181818" points="2579,835.9688,2589,839.9688,2579,843.9688,2583,839.9688" style="stroke:#181818;stroke-width:1.0;"/><line style="stroke:#181818;stroke-width:1.0;" x1="1534" x2="2585" y1="839.9688" y2="839.9688"/><text fill="#000000" font-family="sans-serif" font-size="20" font-weight="bold" lengthAdjust="spacing" textLength="22" x="1541" y="833.5742">16</text><text fill="#000000" font-family="sans-serif" font-size="20" lengthAdjust="spacing" textLength="227" x="1567" y="833.5742">saveEmployee(employee)</text><line style="stroke:#181818;stroke-width:1.0;" x1="2606" x2="2648" y1="879.125" y2="879.125"/><line style="stroke:#181818;stroke-width:1.0;" x1="2648" x2="2648" y1="879.125" y2="892.125"/><line style="stroke:#181818;stroke-width:1.0;" x1="2607" x2="2648" y1="892.125" y2="892.125"/><polygon fill="#181818" points="2617,888.125,2607,892.125,2617,896.125,2613,892.125" style="stroke:#181818;stroke-width:1.0;"/><text fill="#000000" font-family="sans-serif" font-size="20" font-weight="bold" lengthAdjust="spacing" textLength="22" x="2613" y="872.7305">17</text><text fill="#000000" font-family="sans-serif" font-size="20" lengthAdjust="spacing" textLength="253" x="2639" y="872.7305">validateEmployee(employee)</text><line style="stroke:#181818;stroke-width:1.0;" x1="2606" x2="2648" y1="961.2813" y2="961.2813"/><line style="stroke:#181818;stroke-width:1.0;" x1="2648" x2="2648" y1="961.2813" y2="974.2813"/><line style="stroke:#181818;stroke-width:1.0;" x1="2607" x2="2648" y1="974.2813" y2="974.2813"/><polygon fill="#181818" points="2617,970.2813,2607,974.2813,2617,978.2813,2613,974.2813" style="stroke:#181818;stroke-width:1.0;"/><text fill="#000000" font-family="sans-serif" font-size="20" font-weight="bold" lengthAdjust="spacing" textLength="22" x="2613" y="954.8867">18</text><text fill="#000000" font-family="sans-serif" font-size="20" lengthAdjust="spacing" textLength="219" x="2639" y="954.8867">addEmployee(employee)</text><polygon fill="#181818" points="587,1039.4375,577,1043.4375,587,1047.4375,583,1043.4375" style="stroke:#181818;stroke-width:1.0;"/><line style="stroke:#181818;stroke-width:1.0;stroke-dasharray:2.0,2.0;" x1="581" x2="1523" y1="1043.4375" y2="1043.4375"/><text fill="#000000" font-family="sans-serif" font-size="20" font-weight="bold" lengthAdjust="spacing" textLength="22" x="593" y="1037.043">19</text><text fill="#000000" font-family="sans-serif" font-size="20" lengthAdjust="spacing" textLength="48" x="619" y="1037.043">result</text><polygon fill="#181818" points="113,1078.5938,103,1082.5938,113,1086.5938,109,1082.5938" style="stroke:#181818;stroke-width:1.0;"/><line style="stroke:#181818;stroke-width:1.0;stroke-dasharray:2.0,2.0;" x1="107" x2="570" y1="1082.5938" y2="1082.5938"/><text fill="#000000" font-family="sans-serif" font-size="20" font-weight="bold" lengthAdjust="spacing" textLength="22" x="119" y="1076.1992">20</text><text fill="#000000" font-family="sans-serif" font-size="20" lengthAdjust="spacing" textLength="219" x="145" y="1076.1992">informs operation sucess</text><!--SRC=[lLLDRzim3BthLn2zB2bIODWnm0eKQGOKw7PmrjikhCtOGcJ9a-IqtgyV9SVnHve61OPT0ijwv7ia7nstaxf2YwKowOuoo6YBjVBVZFOR-OVWosVXEWYKHfkqiAOayBQcmKs5wGvpslX64LXAFUfS3G6kmCoyI9t35fKZ8R3sHjVbCraXFXKo8zWQuv_Dgy3K6mjNcyPvAk4kAwMMpblajrU03kxklmjEwcKgAzGUhfO9vOmWkouhPHgYfuS8V7guW5jnbTOeHMtYrS_aSHoHK6MSP699BaAIzHX0Xqn7O0DBM9-yZB7hvEtOFg25JIGODKsK928qIUxHK-o6u1-ukUM2cTqUYWJKq57qSEw9ODWDeqDGWF-koNa76NgSQInf0QdqF7iDATeCsY4ju9Vs-7eyOMR9kGKpe5JXiYgCfluw9vqsSv7HY7ceqpSLkOu-E8_vJtNUngd0qav6roez25snpXyjCsiyF67MIcmLHddTJHHtJqxc6hqqUjxpHW-8oCdSoJfsw3ZRhv2JFntlRDw7h1CEwVhE0VzBEBjBC7TGS7tD4b9B_FeVimt66VX6DUzHIPuXJPTirZLZB7QSQd1g9p3og2lCY-kRoYjBe9Y4BPxnGkmSU0EE57ztWFLFPRvZmZR83NSbfZzln2CkBAPh7H4U7rdFxAoHOeV6gzo7ZenqlaUzAqEoeH63afCMJgeUbPqQlPMsvBuLT67n7ExfEChtwnj1tvvwPz6XOJvab642jkx7Obkr_OVIyJ_Ts6bIRqteYwd8Hi-3grDU3t71huDpwE3W6B_FVm40]--></g></svg>