<?xml version="1.0" encoding="UTF-8" standalone="no"?><svg xmlns="http://www.w3.org/2000/svg" xmlns:xlink="http://www.w3.org/1999/xlink" contentStyleType="text/css" height="868px" preserveAspectRatio="none" style="width:2298px;height:868px;background:#FFFFFF;" version="1.1" viewBox="0 0 2298 868" width="2298px" zoomAndPan="magnify"><defs/><g><!--class Employee--><g id="elem_Employee"><rect codeLine="12" fill="#F1F1F1" height="151.7813" id="Employee" rx="2.5" ry="2.5" style="stroke:#181818;stroke-width:0.5;" width="241" x="976.5" y="659"/><ellipse cx="1049" cy="676.5781" fill="#ADD1B2" rx="12" ry="12" style="stroke:#181818;stroke-width:1.0;"/><path d="M1051.1406,671.5 Q1051.3281,671.25 1051.5469,671.125 Q1051.7656,670.9844 1052.0156,670.9844 Q1052.4531,670.9844 1052.7344,671.2969 Q1053.0156,671.5938 1053.0156,672.3125 L1053.0156,674.0156 Q1053.0156,674.7344 1052.7344,675.0469 Q1052.4531,675.3594 1052.0156,675.3594 Q1051.625,675.3594 1051.375,675.125 Q1051.125,674.9063 1051.0156,674.2969 Q1050.9531,673.875 1050.7344,673.6563 Q1050.3438,673.2188 1049.625,672.9531 Q1048.9063,672.6875 1048.1875,672.6875 Q1047.2813,672.6875 1046.5313,673.0781 Q1045.7813,673.4688 1045.2031,674.3594 Q1044.625,675.2344 1044.625,676.4375 L1044.625,677.7344 Q1044.625,679.1875 1045.6719,680.1563 Q1046.7344,681.125 1048.5938,681.125 Q1049.7031,681.125 1050.4844,680.8125 Q1050.9219,680.6406 1051.4375,680.125 Q1051.75,679.8125 1051.9219,679.7188 Q1052.0938,679.625 1052.3281,679.625 Q1052.7188,679.625 1053.0156,679.9375 Q1053.3281,680.2344 1053.3281,680.6406 Q1053.3281,681.0469 1052.9219,681.5156 Q1052.3281,682.2031 1051.3906,682.5938 Q1050.125,683.125 1048.6094,683.125 Q1046.8281,683.125 1045.4063,682.3906 Q1044.25,681.7969 1043.4375,680.5313 Q1042.625,679.2656 1042.625,677.7813 L1042.625,676.4219 Q1042.625,674.8594 1043.3438,673.5156 Q1044.0781,672.1563 1045.3594,671.4219 Q1046.6563,670.6875 1048.1094,670.6875 Q1048.9688,670.6875 1049.7188,670.8906 Q1050.4844,671.0938 1051.1406,671.5 Z " fill="#000000"/><text fill="#000000" font-family="sans-serif" font-size="20" lengthAdjust="spacing" textLength="87" x="1071" y="684.7617">Employee</text><line style="stroke:#181818;stroke-width:0.5;" x1="977.5" x2="1216.5" y1="694.1563" y2="694.1563"/><text fill="#000000" font-family="sans-serif" font-size="20" lengthAdjust="spacing" textLength="173" x="982.5" y="718.918">-EmployeeRole role</text><text fill="#000000" font-family="sans-serif" font-size="20" lengthAdjust="spacing" textLength="157" x="982.5" y="744.0742">-Address address</text><text fill="#000000" font-family="sans-serif" font-size="20" lengthAdjust="spacing" textLength="141" x="982.5" y="769.2305">-Agency agency</text><line style="stroke:#181818;stroke-width:0.5;" x1="977.5" x2="1216.5" y1="777.625" y2="777.625"/><text fill="#000000" font-family="sans-serif" font-size="20" lengthAdjust="spacing" textLength="229" x="982.5" y="802.3867">+Employee(role, address)</text></g><!--class Person--><g id="elem_Person"><rect codeLine="19" fill="#F1F1F1" height="202.0938" id="Person" rx="2.5" ry="2.5" style="stroke:#181818;stroke-width:0.5;" width="695" x="236.5" y="346"/><ellipse cx="548.5" cy="363.5781" fill="#ADD1B2" rx="12" ry="12" style="stroke:#181818;stroke-width:1.0;"/><path d="M550.6406,358.5 Q550.8281,358.25 551.0469,358.125 Q551.2656,357.9844 551.5156,357.9844 Q551.9531,357.9844 552.2344,358.2969 Q552.5156,358.5938 552.5156,359.3125 L552.5156,361.0156 Q552.5156,361.7344 552.2344,362.0469 Q551.9531,362.3594 551.5156,362.3594 Q551.125,362.3594 550.875,362.125 Q550.625,361.9063 550.5156,361.2969 Q550.4531,360.875 550.2344,360.6563 Q549.8438,360.2188 549.125,359.9531 Q548.4063,359.6875 547.6875,359.6875 Q546.7813,359.6875 546.0313,360.0781 Q545.2813,360.4688 544.7031,361.3594 Q544.125,362.2344 544.125,363.4375 L544.125,364.7344 Q544.125,366.1875 545.1719,367.1563 Q546.2344,368.125 548.0938,368.125 Q549.2031,368.125 549.9844,367.8125 Q550.4219,367.6406 550.9375,367.125 Q551.25,366.8125 551.4219,366.7188 Q551.5938,366.625 551.8281,366.625 Q552.2188,366.625 552.5156,366.9375 Q552.8281,367.2344 552.8281,367.6406 Q552.8281,368.0469 552.4219,368.5156 Q551.8281,369.2031 550.8906,369.5938 Q549.625,370.125 548.1094,370.125 Q546.3281,370.125 544.9063,369.3906 Q543.75,368.7969 542.9375,367.5313 Q542.125,366.2656 542.125,364.7813 L542.125,363.4219 Q542.125,361.8594 542.8438,360.5156 Q543.5781,359.1563 544.8594,358.4219 Q546.1563,357.6875 547.6094,357.6875 Q548.4688,357.6875 549.2188,357.8906 Q549.9844,358.0938 550.6406,358.5 Z " fill="#000000"/><text fill="#000000" font-family="sans-serif" font-size="20" lengthAdjust="spacing" textLength="62" x="570.5" y="371.7617">Person</text><line style="stroke:#181818;stroke-width:0.5;" x1="237.5" x2="930.5" y1="381.1563" y2="381.1563"/><text fill="#000000" font-family="sans-serif" font-size="20" lengthAdjust="spacing" textLength="112" x="242.5" y="405.918">-String name</text><text fill="#000000" font-family="sans-serif" font-size="20" lengthAdjust="spacing" textLength="229" x="242.5" y="431.0742">-String citizenCardNumber</text><text fill="#000000" font-family="sans-serif" font-size="20" lengthAdjust="spacing" textLength="158" x="242.5" y="456.2305">-String taxNumber</text><text fill="#000000" font-family="sans-serif" font-size="20" lengthAdjust="spacing" textLength="183" x="242.5" y="481.3867">-String emailAddress</text><text fill="#000000" font-family="sans-serif" font-size="20" lengthAdjust="spacing" textLength="185" x="242.5" y="506.543">-String phoneNumber</text><line style="stroke:#181818;stroke-width:0.5;" x1="237.5" x2="930.5" y1="514.9375" y2="514.9375"/><text fill="#000000" font-family="sans-serif" font-size="20" lengthAdjust="spacing" textLength="683" x="242.5" y="539.6992">+Person(name, citizenCardNumber, taxNumber, emailAddress, phoneNumber)</text></g><!--class EmployeeRole--><g id="elem_EmployeeRole"><rect codeLine="28" fill="#F1F1F1" height="101.4688" id="EmployeeRole" rx="2.5" ry="2.5" style="stroke:#181818;stroke-width:0.5;" width="175" x="1777.5" y="684.5"/><ellipse cx="1799.8" cy="702.0781" fill="#ADD1B2" rx="12" ry="12" style="stroke:#181818;stroke-width:1.0;"/><path d="M1801.9406,697 Q1802.1281,696.75 1802.3469,696.625 Q1802.5656,696.4844 1802.8156,696.4844 Q1803.2531,696.4844 1803.5344,696.7969 Q1803.8156,697.0938 1803.8156,697.8125 L1803.8156,699.5156 Q1803.8156,700.2344 1803.5344,700.5469 Q1803.2531,700.8594 1802.8156,700.8594 Q1802.425,700.8594 1802.175,700.625 Q1801.925,700.4063 1801.8156,699.7969 Q1801.7531,699.375 1801.5344,699.1563 Q1801.1438,698.7188 1800.425,698.4531 Q1799.7063,698.1875 1798.9875,698.1875 Q1798.0813,698.1875 1797.3313,698.5781 Q1796.5813,698.9688 1796.0031,699.8594 Q1795.425,700.7344 1795.425,701.9375 L1795.425,703.2344 Q1795.425,704.6875 1796.4719,705.6563 Q1797.5344,706.625 1799.3938,706.625 Q1800.5031,706.625 1801.2844,706.3125 Q1801.7219,706.1406 1802.2375,705.625 Q1802.55,705.3125 1802.7219,705.2188 Q1802.8938,705.125 1803.1281,705.125 Q1803.5188,705.125 1803.8156,705.4375 Q1804.1281,705.7344 1804.1281,706.1406 Q1804.1281,706.5469 1803.7219,707.0156 Q1803.1281,707.7031 1802.1906,708.0938 Q1800.925,708.625 1799.4094,708.625 Q1797.6281,708.625 1796.2063,707.8906 Q1795.05,707.2969 1794.2375,706.0313 Q1793.425,704.7656 1793.425,703.2813 L1793.425,701.9219 Q1793.425,700.3594 1794.1438,699.0156 Q1794.8781,697.6563 1796.1594,696.9219 Q1797.4563,696.1875 1798.9094,696.1875 Q1799.7688,696.1875 1800.5188,696.3906 Q1801.2844,696.5938 1801.9406,697 Z " fill="#000000"/><text fill="#000000" font-family="sans-serif" font-size="20" lengthAdjust="spacing" textLength="127" x="1816.2" y="710.2617">EmployeeRole</text><line style="stroke:#181818;stroke-width:0.5;" x1="1778.5" x2="1951.5" y1="719.6563" y2="719.6563"/><text fill="#000000" font-family="sans-serif" font-size="20" lengthAdjust="spacing" textLength="79" x="1783.5" y="744.418">-String id</text><text fill="#000000" font-family="sans-serif" font-size="20" lengthAdjust="spacing" textLength="163" x="1783.5" y="769.5742">-String designation</text><line style="stroke:#181818;stroke-width:0.5;" x1="1778.5" x2="1951.5" y1="777.9688" y2="777.9688"/></g><!--class Agency--><g id="elem_Agency"><rect codeLine="33" fill="#F1F1F1" height="252.4063" id="Agency" rx="2.5" ry="2.5" style="stroke:#181818;stroke-width:0.5;" width="310" x="518" y="609"/><ellipse cx="636" cy="626.5781" fill="#ADD1B2" rx="12" ry="12" style="stroke:#181818;stroke-width:1.0;"/><path d="M638.1406,621.5 Q638.3281,621.25 638.5469,621.125 Q638.7656,620.9844 639.0156,620.9844 Q639.4531,620.9844 639.7344,621.2969 Q640.0156,621.5938 640.0156,622.3125 L640.0156,624.0156 Q640.0156,624.7344 639.7344,625.0469 Q639.4531,625.3594 639.0156,625.3594 Q638.625,625.3594 638.375,625.125 Q638.125,624.9063 638.0156,624.2969 Q637.9531,623.875 637.7344,623.6563 Q637.3438,623.2188 636.625,622.9531 Q635.9063,622.6875 635.1875,622.6875 Q634.2813,622.6875 633.5313,623.0781 Q632.7813,623.4688 632.2031,624.3594 Q631.625,625.2344 631.625,626.4375 L631.625,627.7344 Q631.625,629.1875 632.6719,630.1563 Q633.7344,631.125 635.5938,631.125 Q636.7031,631.125 637.4844,630.8125 Q637.9219,630.6406 638.4375,630.125 Q638.75,629.8125 638.9219,629.7188 Q639.0938,629.625 639.3281,629.625 Q639.7188,629.625 640.0156,629.9375 Q640.3281,630.2344 640.3281,630.6406 Q640.3281,631.0469 639.9219,631.5156 Q639.3281,632.2031 638.3906,632.5938 Q637.125,633.125 635.6094,633.125 Q633.8281,633.125 632.4063,632.3906 Q631.25,631.7969 630.4375,630.5313 Q629.625,629.2656 629.625,627.7813 L629.625,626.4219 Q629.625,624.8594 630.3438,623.5156 Q631.0781,622.1563 632.3594,621.4219 Q633.6563,620.6875 635.1094,620.6875 Q635.9688,620.6875 636.7188,620.8906 Q637.4844,621.0938 638.1406,621.5 Z " fill="#000000"/><text fill="#000000" font-family="sans-serif" font-size="20" lengthAdjust="spacing" textLength="65" x="658" y="634.7617">Agency</text><line style="stroke:#181818;stroke-width:0.5;" x1="519" x2="827" y1="644.1563" y2="644.1563"/><text fill="#000000" font-family="sans-serif" font-size="20" lengthAdjust="spacing" textLength="79" x="524" y="668.918">-String id</text><text fill="#000000" font-family="sans-serif" font-size="20" lengthAdjust="spacing" textLength="157" x="524" y="694.0742">-Address address</text><text fill="#000000" font-family="sans-serif" font-size="20" lengthAdjust="spacing" textLength="163" x="524" y="719.2305">-String designation</text><text fill="#000000" font-family="sans-serif" font-size="20" lengthAdjust="spacing" textLength="185" x="524" y="744.3867">-String phoneNumber</text><text fill="#000000" font-family="sans-serif" font-size="20" lengthAdjust="spacing" textLength="183" x="524" y="769.543">-String emailAddress</text><text fill="#000000" font-family="sans-serif" font-size="20" lengthAdjust="spacing" textLength="298" x="524" y="794.6992">-ArrayList&lt;Employee&gt; employees</text><line style="stroke:#181818;stroke-width:0.5;" x1="519" x2="827" y1="803.0938" y2="803.0938"/><text fill="#000000" font-family="sans-serif" font-size="20" lengthAdjust="spacing" textLength="216" x="524" y="827.8555">+Agency(id, designation,</text><text fill="#000000" font-family="sans-serif" font-size="20" lengthAdjust="spacing" textLength="259" x="524" y="853.0117">phoneNumber, emailAddress)</text></g><!--class Address--><g id="elem_Address"><rect codeLine="43" fill="#F1F1F1" height="202.0938" id="Address" rx="2.5" ry="2.5" style="stroke:#181818;stroke-width:0.5;" width="409" x="1046.5" y="346"/><ellipse cx="1210" cy="363.5781" fill="#ADD1B2" rx="12" ry="12" style="stroke:#181818;stroke-width:1.0;"/><path d="M1212.1406,358.5 Q1212.3281,358.25 1212.5469,358.125 Q1212.7656,357.9844 1213.0156,357.9844 Q1213.4531,357.9844 1213.7344,358.2969 Q1214.0156,358.5938 1214.0156,359.3125 L1214.0156,361.0156 Q1214.0156,361.7344 1213.7344,362.0469 Q1213.4531,362.3594 1213.0156,362.3594 Q1212.625,362.3594 1212.375,362.125 Q1212.125,361.9063 1212.0156,361.2969 Q1211.9531,360.875 1211.7344,360.6563 Q1211.3438,360.2188 1210.625,359.9531 Q1209.9063,359.6875 1209.1875,359.6875 Q1208.2813,359.6875 1207.5313,360.0781 Q1206.7813,360.4688 1206.2031,361.3594 Q1205.625,362.2344 1205.625,363.4375 L1205.625,364.7344 Q1205.625,366.1875 1206.6719,367.1563 Q1207.7344,368.125 1209.5938,368.125 Q1210.7031,368.125 1211.4844,367.8125 Q1211.9219,367.6406 1212.4375,367.125 Q1212.75,366.8125 1212.9219,366.7188 Q1213.0938,366.625 1213.3281,366.625 Q1213.7188,366.625 1214.0156,366.9375 Q1214.3281,367.2344 1214.3281,367.6406 Q1214.3281,368.0469 1213.9219,368.5156 Q1213.3281,369.2031 1212.3906,369.5938 Q1211.125,370.125 1209.6094,370.125 Q1207.8281,370.125 1206.4063,369.3906 Q1205.25,368.7969 1204.4375,367.5313 Q1203.625,366.2656 1203.625,364.7813 L1203.625,363.4219 Q1203.625,361.8594 1204.3438,360.5156 Q1205.0781,359.1563 1206.3594,358.4219 Q1207.6563,357.6875 1209.1094,357.6875 Q1209.9688,357.6875 1210.7188,357.8906 Q1211.4844,358.0938 1212.1406,358.5 Z " fill="#000000"/><text fill="#000000" font-family="sans-serif" font-size="20" lengthAdjust="spacing" textLength="73" x="1232" y="371.7617">Address</text><line style="stroke:#181818;stroke-width:0.5;" x1="1047.5" x2="1454.5" y1="381.1563" y2="381.1563"/><text fill="#000000" font-family="sans-serif" font-size="20" lengthAdjust="spacing" textLength="115" x="1052.5" y="405.918">-String street</text><text fill="#000000" font-family="sans-serif" font-size="20" lengthAdjust="spacing" textLength="94" x="1052.5" y="431.0742">-String city</text><text fill="#000000" font-family="sans-serif" font-size="20" lengthAdjust="spacing" textLength="122" x="1052.5" y="456.2305">-String district</text><text fill="#000000" font-family="sans-serif" font-size="20" lengthAdjust="spacing" textLength="108" x="1052.5" y="481.3867">-String state</text><text fill="#000000" font-family="sans-serif" font-size="20" lengthAdjust="spacing" textLength="131" x="1052.5" y="506.543">-String zipcode</text><line style="stroke:#181818;stroke-width:0.5;" x1="1047.5" x2="1454.5" y1="514.9375" y2="514.9375"/><text fill="#000000" font-family="sans-serif" font-size="20" lengthAdjust="spacing" textLength="397" x="1052.5" y="539.6992">+Address(street, city, district, state, zipcode)</text></g><!--class AgencyRepository--><g id="elem_AgencyRepository"><rect codeLine="55" fill="#F1F1F1" height="151.7813" id="AgencyRepository" rx="2.5" ry="2.5" style="stroke:#181818;stroke-width:0.5;" width="194" x="7" y="371"/><ellipse cx="23" cy="388.5781" fill="#ADD1B2" rx="12" ry="12" style="stroke:#181818;stroke-width:1.0;"/><path d="M25.1406,383.5 Q25.3281,383.25 25.5469,383.125 Q25.7656,382.9844 26.0156,382.9844 Q26.4531,382.9844 26.7344,383.2969 Q27.0156,383.5938 27.0156,384.3125 L27.0156,386.0156 Q27.0156,386.7344 26.7344,387.0469 Q26.4531,387.3594 26.0156,387.3594 Q25.625,387.3594 25.375,387.125 Q25.125,386.9063 25.0156,386.2969 Q24.9531,385.875 24.7344,385.6563 Q24.3438,385.2188 23.625,384.9531 Q22.9063,384.6875 22.1875,384.6875 Q21.2813,384.6875 20.5313,385.0781 Q19.7813,385.4688 19.2031,386.3594 Q18.625,387.2344 18.625,388.4375 L18.625,389.7344 Q18.625,391.1875 19.6719,392.1563 Q20.7344,393.125 22.5938,393.125 Q23.7031,393.125 24.4844,392.8125 Q24.9219,392.6406 25.4375,392.125 Q25.75,391.8125 25.9219,391.7188 Q26.0938,391.625 26.3281,391.625 Q26.7188,391.625 27.0156,391.9375 Q27.3281,392.2344 27.3281,392.6406 Q27.3281,393.0469 26.9219,393.5156 Q26.3281,394.2031 25.3906,394.5938 Q24.125,395.125 22.6094,395.125 Q20.8281,395.125 19.4063,394.3906 Q18.25,393.7969 17.4375,392.5313 Q16.625,391.2656 16.625,389.7813 L16.625,388.4219 Q16.625,386.8594 17.3438,385.5156 Q18.0781,384.1563 19.3594,383.4219 Q20.6563,382.6875 22.1094,382.6875 Q22.9688,382.6875 23.7188,382.8906 Q24.4844,383.0938 25.1406,383.5 Z " fill="#000000"/><text fill="#000000" font-family="sans-serif" font-size="20" lengthAdjust="spacing" textLength="160" x="38" y="396.7617">AgencyRepository</text><line style="stroke:#181818;stroke-width:0.5;" x1="8" x2="200" y1="406.1563" y2="406.1563"/><line style="stroke:#181818;stroke-width:0.5;" x1="8" x2="200" y1="414.1563" y2="414.1563"/><text fill="#000000" font-family="sans-serif" font-size="20" lengthAdjust="spacing" textLength="150" x="13" y="438.918">+getAgencyList()</text><text fill="#000000" font-family="sans-serif" font-size="20" lengthAdjust="spacing" textLength="124" x="13" y="464.0742">+addAgency()</text><text fill="#000000" font-family="sans-serif" font-size="20" lengthAdjust="spacing" textLength="158" x="13" y="489.2305">+validateAgency()</text><text fill="#000000" font-family="sans-serif" font-size="20" lengthAdjust="spacing" textLength="147" x="13" y="514.3867">+createAgency()</text></g><!--class Repositories--><g id="elem_Repositories"><rect codeLine="64" fill="#F1F1F1" height="176.9375" id="Repositories" rx="2.5" ry="2.5" style="stroke:#181818;stroke-width:0.5;" width="268" x="1419" y="44.5"/><ellipse cx="1493.5" cy="62.0781" fill="#ADD1B2" rx="12" ry="12" style="stroke:#181818;stroke-width:1.0;"/><path d="M1495.6406,57 Q1495.8281,56.75 1496.0469,56.625 Q1496.2656,56.4844 1496.5156,56.4844 Q1496.9531,56.4844 1497.2344,56.7969 Q1497.5156,57.0938 1497.5156,57.8125 L1497.5156,59.5156 Q1497.5156,60.2344 1497.2344,60.5469 Q1496.9531,60.8594 1496.5156,60.8594 Q1496.125,60.8594 1495.875,60.625 Q1495.625,60.4063 1495.5156,59.7969 Q1495.4531,59.375 1495.2344,59.1563 Q1494.8438,58.7188 1494.125,58.4531 Q1493.4063,58.1875 1492.6875,58.1875 Q1491.7813,58.1875 1491.0313,58.5781 Q1490.2813,58.9688 1489.7031,59.8594 Q1489.125,60.7344 1489.125,61.9375 L1489.125,63.2344 Q1489.125,64.6875 1490.1719,65.6563 Q1491.2344,66.625 1493.0938,66.625 Q1494.2031,66.625 1494.9844,66.3125 Q1495.4219,66.1406 1495.9375,65.625 Q1496.25,65.3125 1496.4219,65.2188 Q1496.5938,65.125 1496.8281,65.125 Q1497.2188,65.125 1497.5156,65.4375 Q1497.8281,65.7344 1497.8281,66.1406 Q1497.8281,66.5469 1497.4219,67.0156 Q1496.8281,67.7031 1495.8906,68.0938 Q1494.625,68.625 1493.1094,68.625 Q1491.3281,68.625 1489.9063,67.8906 Q1488.75,67.2969 1487.9375,66.0313 Q1487.125,64.7656 1487.125,63.2813 L1487.125,61.9219 Q1487.125,60.3594 1487.8438,59.0156 Q1488.5781,57.6563 1489.8594,56.9219 Q1491.1563,56.1875 1492.6094,56.1875 Q1493.4688,56.1875 1494.2188,56.3906 Q1494.9844,56.5938 1495.6406,57 Z " fill="#000000"/><text fill="#000000" font-family="sans-serif" font-size="20" lengthAdjust="spacing" textLength="110" x="1515.5" y="70.2617">Repositories</text><line style="stroke:#181818;stroke-width:0.5;" x1="1420" x2="1686" y1="79.6563" y2="79.6563"/><line style="stroke:#181818;stroke-width:0.5;" x1="1420" x2="1686" y1="87.6563" y2="87.6563"/><text fill="#000000" font-family="sans-serif" font-size="20" lengthAdjust="spacing" textLength="131" x="1425" y="112.418">-Repositories()</text><text fill="#000000" font-family="sans-serif" font-size="20" lengthAdjust="spacing" textLength="256" x="1425" y="137.5742">+getInstance() : Repositories</text><text fill="#000000" font-family="sans-serif" font-size="20" lengthAdjust="spacing" textLength="236" x="1425" y="162.7305">+getEmployeeRepository()</text><text fill="#000000" font-family="sans-serif" font-size="20" lengthAdjust="spacing" textLength="214" x="1425" y="187.8867">+getAgencyRepository()</text><text fill="#000000" font-family="sans-serif" font-size="20" lengthAdjust="spacing" textLength="199" x="1425" y="213.043">+getRolesRepository()</text></g><!--class RegisterEmployeeController--><g id="elem_RegisterEmployeeController"><rect codeLine="73" fill="#F1F1F1" height="252.4063" id="RegisterEmployeeController" rx="2.5" ry="2.5" style="stroke:#181818;stroke-width:0.5;" width="586" x="441" y="7"/><ellipse cx="606.5" cy="24.5781" fill="#ADD1B2" rx="12" ry="12" style="stroke:#181818;stroke-width:1.0;"/><path d="M608.6406,19.5 Q608.8281,19.25 609.0469,19.125 Q609.2656,18.9844 609.5156,18.9844 Q609.9531,18.9844 610.2344,19.2969 Q610.5156,19.5938 610.5156,20.3125 L610.5156,22.0156 Q610.5156,22.7344 610.2344,23.0469 Q609.9531,23.3594 609.5156,23.3594 Q609.125,23.3594 608.875,23.125 Q608.625,22.9063 608.5156,22.2969 Q608.4531,21.875 608.2344,21.6563 Q607.8438,21.2188 607.125,20.9531 Q606.4063,20.6875 605.6875,20.6875 Q604.7813,20.6875 604.0313,21.0781 Q603.2813,21.4688 602.7031,22.3594 Q602.125,23.2344 602.125,24.4375 L602.125,25.7344 Q602.125,27.1875 603.1719,28.1563 Q604.2344,29.125 606.0938,29.125 Q607.2031,29.125 607.9844,28.8125 Q608.4219,28.6406 608.9375,28.125 Q609.25,27.8125 609.4219,27.7188 Q609.5938,27.625 609.8281,27.625 Q610.2188,27.625 610.5156,27.9375 Q610.8281,28.2344 610.8281,28.6406 Q610.8281,29.0469 610.4219,29.5156 Q609.8281,30.2031 608.8906,30.5938 Q607.625,31.125 606.1094,31.125 Q604.3281,31.125 602.9063,30.3906 Q601.75,29.7969 600.9375,28.5313 Q600.125,27.2656 600.125,25.7813 L600.125,24.4219 Q600.125,22.8594 600.8438,21.5156 Q601.5781,20.1563 602.8594,19.4219 Q604.1563,18.6875 605.6094,18.6875 Q606.4688,18.6875 607.2188,18.8906 Q607.9844,19.0938 608.6406,19.5 Z " fill="#000000"/><text fill="#000000" font-family="sans-serif" font-size="20" lengthAdjust="spacing" textLength="246" x="628.5" y="32.7617">RegisterEmployeeController</text><line style="stroke:#181818;stroke-width:0.5;" x1="442" x2="1026" y1="42.1563" y2="42.1563"/><line style="stroke:#181818;stroke-width:0.5;" x1="442" x2="1026" y1="50.1563" y2="50.1563"/><text fill="#000000" font-family="sans-serif" font-size="20" lengthAdjust="spacing" textLength="265" x="447" y="74.918">+registerEmployeeController()</text><text fill="#000000" font-family="sans-serif" font-size="20" lengthAdjust="spacing" textLength="404" x="447" y="100.0742">+registerEmployee(name, citizenCardNumber,</text><text fill="#000000" font-family="sans-serif" font-size="20" lengthAdjust="spacing" textLength="568" x="453" y="125.2305">taxNumber, emailAddress, phoneNumber, role, address, agency)</text><text fill="#000000" font-family="sans-serif" font-size="20" lengthAdjust="spacing" textLength="150" x="447" y="150.3867">+getAgencyList()</text><text fill="#000000" font-family="sans-serif" font-size="20" lengthAdjust="spacing" textLength="125" x="447" y="175.543">+getRoleList()</text><text fill="#000000" font-family="sans-serif" font-size="20" lengthAdjust="spacing" textLength="164" x="447" y="200.6992">+getRepositories()</text><text fill="#000000" font-family="sans-serif" font-size="20" lengthAdjust="spacing" textLength="154" x="447" y="225.8555">+saveEmployee()</text><text fill="#000000" font-family="sans-serif" font-size="20" lengthAdjust="spacing" textLength="93" x="447" y="251.0117">+setRole()</text></g><!--class RolesRepository--><g id="elem_RolesRepository"><rect codeLine="83" fill="#F1F1F1" height="151.7813" id="RolesRepository" rx="2.5" ry="2.5" style="stroke:#181818;stroke-width:0.5;" width="179" x="2112.5" y="371"/><ellipse cx="2128.5" cy="388.5781" fill="#ADD1B2" rx="12" ry="12" style="stroke:#181818;stroke-width:1.0;"/><path d="M2130.6406,383.5 Q2130.8281,383.25 2131.0469,383.125 Q2131.2656,382.9844 2131.5156,382.9844 Q2131.9531,382.9844 2132.2344,383.2969 Q2132.5156,383.5938 2132.5156,384.3125 L2132.5156,386.0156 Q2132.5156,386.7344 2132.2344,387.0469 Q2131.9531,387.3594 2131.5156,387.3594 Q2131.125,387.3594 2130.875,387.125 Q2130.625,386.9063 2130.5156,386.2969 Q2130.4531,385.875 2130.2344,385.6563 Q2129.8438,385.2188 2129.125,384.9531 Q2128.4063,384.6875 2127.6875,384.6875 Q2126.7813,384.6875 2126.0313,385.0781 Q2125.2813,385.4688 2124.7031,386.3594 Q2124.125,387.2344 2124.125,388.4375 L2124.125,389.7344 Q2124.125,391.1875 2125.1719,392.1563 Q2126.2344,393.125 2128.0938,393.125 Q2129.2031,393.125 2129.9844,392.8125 Q2130.4219,392.6406 2130.9375,392.125 Q2131.25,391.8125 2131.4219,391.7188 Q2131.5938,391.625 2131.8281,391.625 Q2132.2188,391.625 2132.5156,391.9375 Q2132.8281,392.2344 2132.8281,392.6406 Q2132.8281,393.0469 2132.4219,393.5156 Q2131.8281,394.2031 2130.8906,394.5938 Q2129.625,395.125 2128.1094,395.125 Q2126.3281,395.125 2124.9063,394.3906 Q2123.75,393.7969 2122.9375,392.5313 Q2122.125,391.2656 2122.125,389.7813 L2122.125,388.4219 Q2122.125,386.8594 2122.8438,385.5156 Q2123.5781,384.1563 2124.8594,383.4219 Q2126.1563,382.6875 2127.6094,382.6875 Q2128.4688,382.6875 2129.2188,382.8906 Q2129.9844,383.0938 2130.6406,383.5 Z " fill="#000000"/><text fill="#000000" font-family="sans-serif" font-size="20" lengthAdjust="spacing" textLength="145" x="2143.5" y="396.7617">RolesRepository</text><line style="stroke:#181818;stroke-width:0.5;" x1="2113.5" x2="2290.5" y1="406.1563" y2="406.1563"/><line style="stroke:#181818;stroke-width:0.5;" x1="2113.5" x2="2290.5" y1="414.1563" y2="414.1563"/><text fill="#000000" font-family="sans-serif" font-size="20" lengthAdjust="spacing" textLength="135" x="2118.5" y="438.918">+getRolesList()</text><text fill="#000000" font-family="sans-serif" font-size="20" lengthAdjust="spacing" textLength="132" x="2118.5" y="464.0742">+addRole(role)</text><text fill="#000000" font-family="sans-serif" font-size="20" lengthAdjust="spacing" textLength="166" x="2118.5" y="489.2305">+validateRole(role)</text><text fill="#000000" font-family="sans-serif" font-size="20" lengthAdjust="spacing" textLength="122" x="2118.5" y="514.3867">+createRole()</text></g><!--class EmployeeRepository--><g id="elem_EmployeeRepository"><rect codeLine="90" fill="#F1F1F1" height="202.0938" id="EmployeeRepository" rx="2.5" ry="2.5" style="stroke:#181818;stroke-width:0.5;" width="586" x="1491" y="346"/><ellipse cx="1688.5" cy="363.5781" fill="#ADD1B2" rx="12" ry="12" style="stroke:#181818;stroke-width:1.0;"/><path d="M1690.6406,358.5 Q1690.8281,358.25 1691.0469,358.125 Q1691.2656,357.9844 1691.5156,357.9844 Q1691.9531,357.9844 1692.2344,358.2969 Q1692.5156,358.5938 1692.5156,359.3125 L1692.5156,361.0156 Q1692.5156,361.7344 1692.2344,362.0469 Q1691.9531,362.3594 1691.5156,362.3594 Q1691.125,362.3594 1690.875,362.125 Q1690.625,361.9063 1690.5156,361.2969 Q1690.4531,360.875 1690.2344,360.6563 Q1689.8438,360.2188 1689.125,359.9531 Q1688.4063,359.6875 1687.6875,359.6875 Q1686.7813,359.6875 1686.0313,360.0781 Q1685.2813,360.4688 1684.7031,361.3594 Q1684.125,362.2344 1684.125,363.4375 L1684.125,364.7344 Q1684.125,366.1875 1685.1719,367.1563 Q1686.2344,368.125 1688.0938,368.125 Q1689.2031,368.125 1689.9844,367.8125 Q1690.4219,367.6406 1690.9375,367.125 Q1691.25,366.8125 1691.4219,366.7188 Q1691.5938,366.625 1691.8281,366.625 Q1692.2188,366.625 1692.5156,366.9375 Q1692.8281,367.2344 1692.8281,367.6406 Q1692.8281,368.0469 1692.4219,368.5156 Q1691.8281,369.2031 1690.8906,369.5938 Q1689.625,370.125 1688.1094,370.125 Q1686.3281,370.125 1684.9063,369.3906 Q1683.75,368.7969 1682.9375,367.5313 Q1682.125,366.2656 1682.125,364.7813 L1682.125,363.4219 Q1682.125,361.8594 1682.8438,360.5156 Q1683.5781,359.1563 1684.8594,358.4219 Q1686.1563,357.6875 1687.6094,357.6875 Q1688.4688,357.6875 1689.2188,357.8906 Q1689.9844,358.0938 1690.6406,358.5 Z " fill="#000000"/><text fill="#000000" font-family="sans-serif" font-size="20" lengthAdjust="spacing" textLength="182" x="1710.5" y="371.7617">EmployeeRepository</text><line style="stroke:#181818;stroke-width:0.5;" x1="1492" x2="2076" y1="381.1563" y2="381.1563"/><line style="stroke:#181818;stroke-width:0.5;" x1="1492" x2="2076" y1="389.1563" y2="389.1563"/><text fill="#000000" font-family="sans-serif" font-size="20" lengthAdjust="spacing" textLength="172" x="1497" y="413.918">+getEmployeeList()</text><text fill="#000000" font-family="sans-serif" font-size="20" lengthAdjust="spacing" textLength="231" x="1497" y="439.0742">+addEmployee(employee)</text><text fill="#000000" font-family="sans-serif" font-size="20" lengthAdjust="spacing" textLength="265" x="1497" y="464.2305">+validateEmployee(employee)</text><text fill="#000000" font-family="sans-serif" font-size="20" lengthAdjust="spacing" textLength="239" x="1497" y="489.3867">+saveEmployee(employee)</text><text fill="#000000" font-family="sans-serif" font-size="20" lengthAdjust="spacing" textLength="404" x="1497" y="514.543">+registerEmployee(name, citizenCardNumber,</text><text fill="#000000" font-family="sans-serif" font-size="20" lengthAdjust="spacing" textLength="568" x="1503" y="539.6992">taxNumber, emailAddress, phoneNumber, role, address, agency)</text></g><!--class RegisterEmployeeUI--><g id="elem_RegisterEmployeeUI"><rect codeLine="100" fill="#F1F1F1" height="51.1563" id="RegisterEmployeeUI" rx="2.5" ry="2.5" style="stroke:#181818;stroke-width:0.5;" width="214" x="192" y="107.5"/><ellipse cx="208" cy="125.0781" fill="#ADD1B2" rx="12" ry="12" style="stroke:#181818;stroke-width:1.0;"/><path d="M210.1406,120 Q210.3281,119.75 210.5469,119.625 Q210.7656,119.4844 211.0156,119.4844 Q211.4531,119.4844 211.7344,119.7969 Q212.0156,120.0938 212.0156,120.8125 L212.0156,122.5156 Q212.0156,123.2344 211.7344,123.5469 Q211.4531,123.8594 211.0156,123.8594 Q210.625,123.8594 210.375,123.625 Q210.125,123.4063 210.0156,122.7969 Q209.9531,122.375 209.7344,122.1563 Q209.3438,121.7188 208.625,121.4531 Q207.9063,121.1875 207.1875,121.1875 Q206.2813,121.1875 205.5313,121.5781 Q204.7813,121.9688 204.2031,122.8594 Q203.625,123.7344 203.625,124.9375 L203.625,126.2344 Q203.625,127.6875 204.6719,128.6563 Q205.7344,129.625 207.5938,129.625 Q208.7031,129.625 209.4844,129.3125 Q209.9219,129.1406 210.4375,128.625 Q210.75,128.3125 210.9219,128.2188 Q211.0938,128.125 211.3281,128.125 Q211.7188,128.125 212.0156,128.4375 Q212.3281,128.7344 212.3281,129.1406 Q212.3281,129.5469 211.9219,130.0156 Q211.3281,130.7031 210.3906,131.0938 Q209.125,131.625 207.6094,131.625 Q205.8281,131.625 204.4063,130.8906 Q203.25,130.2969 202.4375,129.0313 Q201.625,127.7656 201.625,126.2813 L201.625,124.9219 Q201.625,123.3594 202.3438,122.0156 Q203.0781,120.6563 204.3594,119.9219 Q205.6563,119.1875 207.1094,119.1875 Q207.9688,119.1875 208.7188,119.3906 Q209.4844,119.5938 210.1406,120 Z " fill="#000000"/><text fill="#000000" font-family="sans-serif" font-size="20" lengthAdjust="spacing" textLength="180" x="223" y="133.2617">RegisterEmployeeUI</text><line style="stroke:#181818;stroke-width:0.5;" x1="193" x2="405" y1="142.6563" y2="142.6563"/><line style="stroke:#181818;stroke-width:0.5;" x1="193" x2="405" y1="150.6563" y2="150.6563"/></g><!--link Repositories to Repositories--><g id="link_Repositories_Repositories"><path codeLine="105" d="M1687.23,104.2 C1707.92,108.55 1722,118.15 1722,133 C1722,146.57 1710.24,155.76 1692.41,160.56 " fill="none" id="Repositories-to-Repositories" style="stroke:#181818;stroke-width:1.0;"/><polygon fill="#181818" points="1687.23,161.8,1696.9158,163.5849,1692.0914,160.631,1695.0453,155.8066,1687.23,161.8" style="stroke:#181818;stroke-width:1.0;"/><text fill="#000000" font-family="sans-serif" font-size="20" lengthAdjust="spacing" textLength="72" x="1728" y="141.2617">instance</text></g><!--link RegisterEmployeeUI to RegisterEmployeeController--><g id="link_RegisterEmployeeUI_RegisterEmployeeController"><path codeLine="107" d="M406.28,133 C418.39,133 428.81,133 435.61,133 " fill="none" id="RegisterEmployeeUI-to-RegisterEmployeeController" style="stroke:#181818;stroke-width:1.0;stroke-dasharray:7.0,7.0;"/><polygon fill="#181818" points="440.78,133,431.78,129,435.78,133,431.78,137,440.78,133" style="stroke:#181818;stroke-width:1.0;"/></g><!--link RolesRepository to EmployeeRole--><g id="link_RolesRepository_EmployeeRole"><path codeLine="108" d="M2121.72,523.02 C2106.38,537.36 2095,548 2095,548 C2095,548 1998.36,626.16 1930.36,681.14 " fill="none" id="RolesRepository-to-EmployeeRole" style="stroke:#181818;stroke-width:1.0;"/><polygon fill="#181818" points="1926.33,684.4,1935.8476,681.8673,1930.2232,681.2626,1930.8278,675.6382,1926.33,684.4" style="stroke:#181818;stroke-width:1.0;"/><text fill="#000000" font-family="sans-serif" font-size="20" lengthAdjust="spacing" textLength="8" x="1925.6754" y="672.057">*</text></g><!--link RegisterEmployeeController to Repositories--><g id="link_RegisterEmployeeController_Repositories"><path codeLine="109" d="M1027.08,133 C1158.81,133 1308.07,133 1413.84,133 " fill="none" id="RegisterEmployeeController-to-Repositories" style="stroke:#181818;stroke-width:1.0;stroke-dasharray:7.0,7.0;"/><polygon fill="#181818" points="1418.85,133,1409.85,129,1413.85,133,1409.85,137,1418.85,133" style="stroke:#181818;stroke-width:1.0;"/><text fill="#000000" font-family="sans-serif" font-size="20" lengthAdjust="spacing" textLength="103" x="1171.5" y="124.7617">repositories</text></g><!--link Repositories to EmployeeRepository--><g id="link_Repositories_EmployeeRepository"><path codeLine="110" d="M1617.96,221.74 C1645.51,258.95 1677.85,302.63 1706.62,341.49 " fill="none" id="Repositories-to-EmployeeRepository" style="stroke:#181818;stroke-width:1.0;"/><polygon fill="#181818" points="1709.76,345.72,1707.6368,336.1027,1706.7921,341.6962,1701.1986,340.8514,1709.76,345.72" style="stroke:#181818;stroke-width:1.0;"/><text fill="#000000" font-family="sans-serif" font-size="20" lengthAdjust="spacing" textLength="11" x="1693.1533" y="333.4838">1</text></g><!--link Repositories to AgencyRepository--><g id="link_Repositories_AgencyRepository"><path codeLine="111" d="M1516.93,221.53 C1497.71,268.16 1478,316 1478,316 C1478,316 219,346 219,346 C219,346 208.6,355.04 194.06,367.69 " fill="none" id="Repositories-to-AgencyRepository" style="stroke:#181818;stroke-width:1.0;"/><polygon fill="#181818" points="190.28,370.98,199.6989,368.1016,194.0561,367.7026,194.4551,362.0599,190.28,370.98" style="stroke:#181818;stroke-width:1.0;"/><text fill="#000000" font-family="sans-serif" font-size="20" lengthAdjust="spacing" textLength="11" x="186.7269" y="358.5986">1</text></g><!--link Repositories to RolesRepository--><g id="link_Repositories_RolesRepository"><path codeLine="112" d="M1687.33,186.54 C1847.84,249.32 2095,346 2095,346 C2095,346 2104.51,354.89 2117.86,367.37 " fill="none" id="Repositories-to-RolesRepository" style="stroke:#181818;stroke-width:1.0;"/><polygon fill="#181818" points="2121.72,370.98,2117.871,361.9144,2118.0652,367.5679,2112.4117,367.7621,2121.72,370.98" style="stroke:#181818;stroke-width:1.0;"/><text fill="#000000" font-family="sans-serif" font-size="20" lengthAdjust="spacing" textLength="11" x="2102.8122" y="358.5986">1</text></g><!--link RegisterEmployeeController to AgencyRepository--><g id="link_RegisterEmployeeController_AgencyRepository"><path codeLine="113" d="M440.77,254.71 C324.97,302.38 219,346 219,346 C219,346 208.6,355.04 194.06,367.69 " fill="none" id="RegisterEmployeeController-to-AgencyRepository" style="stroke:#181818;stroke-width:1.0;stroke-dasharray:7.0,7.0;"/><polygon fill="#181818" points="190.28,370.98,199.6989,368.1016,194.0561,367.7026,194.4551,362.0599,190.28,370.98" style="stroke:#181818;stroke-width:1.0;"/><text fill="#000000" font-family="sans-serif" font-size="20" lengthAdjust="spacing" textLength="160" x="359" y="310.7617">AgencyRepository</text></g><!--link RegisterEmployeeController to EmployeeRepository--><g id="link_RegisterEmployeeController_EmployeeRepository"><path codeLine="114" d="M1027.13,218.09 C1233.46,277.28 1473,346 1473,346 C1473,346 1477.62,347.49 1485.75,350.1 " fill="none" id="RegisterEmployeeController-to-EmployeeRepository" style="stroke:#181818;stroke-width:1.0;stroke-dasharray:7.0,7.0;"/><polygon fill="#181818" points="1490.61,351.66,1483.2651,345.0985,1485.8497,350.1304,1480.8178,352.715,1490.61,351.66" style="stroke:#181818;stroke-width:1.0;"/><text fill="#000000" font-family="sans-serif" font-size="20" lengthAdjust="spacing" textLength="182" x="1367" y="310.7617">EmployeeRepository</text></g><!--link AgencyRepository to Agency--><g id="link_AgencyRepository_Agency"><path codeLine="115" d="M190.28,523.02 C206.77,537.36 219,548 219,548 C219,548 382.34,614.92 513.08,668.48 " fill="none" id="AgencyRepository-to-Agency" style="stroke:#181818;stroke-width:1.0;"/><polygon fill="#181818" points="517.71,670.38,510.9032,663.2619,513.0845,668.4813,507.8652,670.6627,517.71,670.38" style="stroke:#181818;stroke-width:1.0;"/><text fill="#000000" font-family="sans-serif" font-size="20" lengthAdjust="spacing" textLength="8" x="501.9944" y="662.4002">*</text></g><!--link EmployeeRepository to Employee--><g id="link_EmployeeRepository_Employee"><path codeLine="116" d="M1543.72,548.03 C1435.38,593.13 1311.94,644.52 1222.32,681.83 " fill="none" id="EmployeeRepository-to-Employee" style="stroke:#181818;stroke-width:1.0;"/><polygon fill="#181818" points="1217.54,683.82,1227.3864,684.04,1222.1533,681.8919,1224.3014,676.6587,1217.54,683.82" style="stroke:#181818;stroke-width:1.0;"/><text fill="#000000" font-family="sans-serif" font-size="20" lengthAdjust="spacing" textLength="8" x="1225.5183" y="675.5142">*</text></g><!--link RegisterEmployeeController to Person--><g id="link_RegisterEmployeeController_Person"><path codeLine="117" d="M673.85,259.1 C660.76,286.35 647.03,314.9 634.36,341.26 " fill="none" id="RegisterEmployeeController-to-Person" style="stroke:#181818;stroke-width:1.0;stroke-dasharray:7.0,7.0;"/><polygon fill="#181818" points="632.17,345.81,639.6674,339.4233,634.3313,341.3013,632.4534,335.9652,632.17,345.81" style="stroke:#181818;stroke-width:1.0;"/><text fill="#000000" font-family="sans-serif" font-size="20" lengthAdjust="spacing" textLength="11" x="624.1702" y="333.5801">1</text></g><!--link Employee to EmployeeRole--><g id="link_Employee_EmployeeRole"><path codeLine="118" d="M1217.84,735 C1373.4,735 1639.97,735 1777.39,735 " fill="none" id="Employee-EmployeeRole" style="stroke:#181818;stroke-width:1.0;"/><polygon fill="#000000" points="1487,718.5781,1472.5279,713.8758,1472.5279,723.2804,1487,718.5781" style="stroke:#000000;stroke-width:1.0;"/><text fill="#000000" font-family="sans-serif" font-size="20" lengthAdjust="spacing" textLength="31" x="1492" y="726.7617">has</text><text fill="#000000" font-family="sans-serif" font-size="20" lengthAdjust="spacing" textLength="11" x="1225.5388" y="730.0114">1</text><text fill="#000000" font-family="sans-serif" font-size="20" lengthAdjust="spacing" textLength="11" x="1758.3884" y="729.6741">1</text></g><!--link Person to Address--><g id="link_Person_Address"><path codeLine="119" d="M931.66,447 C970.87,447 1009.82,447 1046.33,447 " fill="none" id="Person-Address" style="stroke:#181818;stroke-width:1.0;"/><polygon fill="#000000" points="965,430.5781,950.5279,425.8758,950.5279,435.2804,965,430.5781" style="stroke:#000000;stroke-width:1.0;"/><text fill="#000000" font-family="sans-serif" font-size="20" lengthAdjust="spacing" textLength="58" x="970" y="438.7617">lives in</text><text fill="#000000" font-family="sans-serif" font-size="20" lengthAdjust="spacing" textLength="11" x="939.9372" y="442.4695">1</text><text fill="#000000" font-family="sans-serif" font-size="20" lengthAdjust="spacing" textLength="31" x="1007.4176" y="468.2121">1..*</text></g><!--link Agency to Employee--><g id="link_Agency_Employee"><path codeLine="120" d="M828.17,735 C877,735 930.17,735 976.24,735 " fill="none" id="Agency-Employee" style="stroke:#181818;stroke-width:1.0;"/><polygon fill="#000000" points="854.75,718.5781,869.2221,723.2804,869.2221,713.8758,854.75,718.5781" style="stroke:#000000;stroke-width:1.0;"/><text fill="#000000" font-family="sans-serif" font-size="20" lengthAdjust="spacing" textLength="73" x="875.75" y="726.7617">works in</text><text fill="#000000" font-family="sans-serif" font-size="20" lengthAdjust="spacing" textLength="11" x="835.9525" y="730.1502">1</text><text fill="#000000" font-family="sans-serif" font-size="20" lengthAdjust="spacing" textLength="11" x="957.546" y="730.0114">1</text></g><!--reverse link Person to Employee--><g id="link_Person_Employee"><path codeLine="122" d="M780.93,557.79 C846.79,594.51 918.19,634.31 976.44,666.79 " fill="none" id="Person-backto-Employee" style="stroke:#181818;stroke-width:1.0;"/><polygon fill="none" points="777.48,563.88,763.42,548.03,784.3,551.65,777.48,563.88" style="stroke:#181818;stroke-width:1.0;"/></g><!--SRC=[lLR1Rjim3BthAuHScgvsqEqO506AOWCA3CFGOhTUL9jrXDYI8IdjtAt_FjgMP4bsivsMGnAHrEFZeoXR7xXecM9DBOi3bBI49tQipHSfp3r_1Vhfafnf5qCRAMInLx81QjGHoEHfMN5W5ToRhWQge31CL7KOeFUib2zSLFI9rJhqr5o0wLgWhQoxVX5cz4wfZ2J1hg9cMbyRe_ZZqS1j8SN0zvAGingU33MIAbxj3IrvJuTBGGWPDj7FJLlB3e3-8XG_kLlVoPuxVercUbsM2Z2UZR_EMe4eEig6dy5suH7N_UxCRJWdRoxbTr1Q2aoOtoDZ546m1loYu0QvYnkcoc_7vX6KznZsCx50mtXjcNbZkvS2RE25JRRkKsHpx6m2pIAqB8G9k4VoO0NK9kNbzBy4pIl11fdzHgkKLJdOTahU1S384POQEI9XR0QbMFULQtFbQjXXsFXFszQD9DUypCASsOC84iKw1TAu4W9Lj540PbgZ_bsW4v9Hl31XF3CmBLzvMyWI2BRHWgz7nA6JNUOHid5dvdOCh6Bbxw2LcXkfN0ykQ0LczFMghC-j5JjWPN2MPrRp4k4JSw4WD0OPVIuEsdSyD7eCf70haBieO7rEjr7G5E8FdQyX14Zh2ttzCTMHworWMM7Te1pw3LvpEB8rAAUGUZV2vKWZtfsp1_5FavRHwDB8xCrYioqsp5QPcXRKrkmPF55d6tUlWtESQ1OUby6LdfPXVqyxFIypntXYqdppxeOfdJVDwWjnCvncVpSWaY5r_hU6HkCIv_nnYm8C_cYGybqyM5lAxUZqWJE8pUx42ITfatD4NtrOHVSxEJ4XcnaP5OvkIdprSRNGvoJCngNpl1oL572IAvATNOBRfJmd8HREwNQfg5agf-te80iugVf_ez8BC3xOFTfWosEX-sVqbkwPfZjYNpfSr6RJ4x9Fh2s-MJsZjbnWO0nuR8EUOE2BL0SRw22lVkVuCYVoYVqV]--></g></svg>