<?xml version="1.0" encoding="UTF-8" standalone="no"?><svg xmlns="http://www.w3.org/2000/svg" xmlns:xlink="http://www.w3.org/1999/xlink" contentStyleType="text/css" height="685px" preserveAspectRatio="none" style="width:1500px;height:685px;background:#FFFFFF;" version="1.1" viewBox="0 0 1500 685" width="1500px" zoomAndPan="magnify"><defs/><g><!--class Commission--><g id="elem_Commission"><rect codeLine="19" fill="#FFDAB9" height="68.3125" id="Commission" rx="2.5" ry="2.5" style="stroke:#4169E1;stroke-width:0.5;" width="173" x="1021.5" y="559.5"/><text fill="#000000" font-family="sans-serif" font-size="20" lengthAdjust="spacing" textLength="106" x="1055" y="585.2617">Commission</text><line style="stroke:#4169E1;stroke-width:0.5;" x1="1022.5" x2="1193.5" y1="594.6563" y2="594.6563"/><rect fill="none" height="6" style="stroke:#C82930;stroke-width:1.0;" width="6" x="1029.5" y="609.7344"/><text fill="#000000" font-family="sans-serif" font-size="20" lengthAdjust="spacing" textLength="146" x="1042.5" y="619.418">commissionType</text></g><!--class fixAmount--><g id="elem_fixAmount"><rect codeLine="23" fill="#FFDAB9" height="68.3125" id="fixAmount" rx="2.5" ry="2.5" style="stroke:#4169E1;stroke-width:0.5;" width="91" x="1370.5" y="507.5"/><text fill="#000000" font-family="sans-serif" font-size="20" lengthAdjust="spacing" textLength="85" x="1373.5" y="533.2617">fixAmount</text><line style="stroke:#4169E1;stroke-width:0.5;" x1="1371.5" x2="1460.5" y1="542.6563" y2="542.6563"/><rect fill="none" height="6" style="stroke:#C82930;stroke-width:1.0;" width="6" x="1378.5" y="557.7344"/><text fill="#000000" font-family="sans-serif" font-size="20" lengthAdjust="spacing" textLength="45" x="1391.5" y="567.418">value</text></g><!--class percentage--><g id="elem_percentage"><rect codeLine="27" fill="#FFDAB9" height="68.3125" id="percentage" rx="2.5" ry="2.5" style="stroke:#4169E1;stroke-width:0.5;" width="105" x="1363.5" y="610.5"/><text fill="#000000" font-family="sans-serif" font-size="20" lengthAdjust="spacing" textLength="99" x="1366.5" y="636.2617">percentage</text><line style="stroke:#4169E1;stroke-width:0.5;" x1="1364.5" x2="1467.5" y1="645.6563" y2="645.6563"/><rect fill="none" height="6" style="stroke:#C82930;stroke-width:1.0;" width="6" x="1371.5" y="660.7344"/><text fill="#000000" font-family="sans-serif" font-size="20" lengthAdjust="spacing" textLength="45" x="1384.5" y="670.418">value</text></g><!--class Announcement--><g id="elem_Announcement"><rect codeLine="31" fill="#FFDAB9" height="93.4688" id="Announcement" rx="2.5" ry="2.5" style="stroke:#4169E1;stroke-width:0.5;" width="134" x="334" y="396"/><text fill="#000000" font-family="sans-serif" font-size="20" lengthAdjust="spacing" textLength="128" x="337" y="421.7617">Announcement</text><line style="stroke:#4169E1;stroke-width:0.5;" x1="335" x2="467" y1="431.1563" y2="431.1563"/><rect fill="none" height="6" style="stroke:#C82930;stroke-width:1.0;" width="6" x="342" y="446.2344"/><text fill="#000000" font-family="sans-serif" font-size="20" lengthAdjust="spacing" textLength="44" x="355" y="455.918">state</text><rect fill="none" height="6" style="stroke:#C82930;stroke-width:1.0;" width="6" x="342" y="471.3906"/><text fill="#000000" font-family="sans-serif" font-size="20" lengthAdjust="spacing" textLength="43" x="355" y="481.0742">price</text></g><!--class Property--><g id="elem_Property"><rect codeLine="36" fill="#FFDAB9" height="168.9375" id="Property" rx="2.5" ry="2.5" style="stroke:#4169E1;stroke-width:0.5;" width="239" x="638" y="284"/><text fill="#000000" font-family="sans-serif" font-size="20" lengthAdjust="spacing" textLength="76" x="719.5" y="309.7617">Property</text><line style="stroke:#4169E1;stroke-width:0.5;" x1="639" x2="876" y1="319.1563" y2="319.1563"/><rect fill="none" height="6" style="stroke:#C82930;stroke-width:1.0;" width="6" x="646" y="334.2344"/><text fill="#000000" font-family="sans-serif" font-size="20" lengthAdjust="spacing" textLength="38" x="659" y="343.918">type</text><rect fill="none" height="6" style="stroke:#C82930;stroke-width:1.0;" width="6" x="646" y="359.3906"/><text fill="#000000" font-family="sans-serif" font-size="20" lengthAdjust="spacing" textLength="40" x="659" y="369.0742">area</text><rect fill="none" height="6" style="stroke:#C82930;stroke-width:1.0;" width="6" x="646" y="384.5469"/><text fill="#000000" font-family="sans-serif" font-size="20" lengthAdjust="spacing" textLength="67" x="659" y="394.2305">location</text><rect fill="none" height="6" style="stroke:#C82930;stroke-width:1.0;" width="6" x="646" y="409.7031"/><text fill="#000000" font-family="sans-serif" font-size="20" lengthAdjust="spacing" textLength="212" x="659" y="419.3867">distanceFromCityCenter</text><rect fill="none" height="6" style="stroke:#C82930;stroke-width:1.0;" width="6" x="646" y="434.8594"/><text fill="#000000" font-family="sans-serif" font-size="20" lengthAdjust="spacing" textLength="109" x="659" y="444.543">photographs</text></g><!--class Rent--><g id="elem_Rent"><rect codeLine="44" fill="#FFDAB9" height="93.4688" id="Rent" rx="2.5" ry="2.5" style="stroke:#4169E1;stroke-width:0.5;" width="171" x="672" y="156"/><text fill="#000000" font-family="sans-serif" font-size="20" lengthAdjust="spacing" textLength="41" x="737" y="181.7617">Rent</text><line style="stroke:#4169E1;stroke-width:0.5;" x1="673" x2="842" y1="191.1563" y2="191.1563"/><rect fill="none" height="6" style="stroke:#C82930;stroke-width:1.0;" width="6" x="680" y="206.2344"/><text fill="#000000" font-family="sans-serif" font-size="20" lengthAdjust="spacing" textLength="79" x="693" y="215.918">rentPrice</text><rect fill="none" height="6" style="stroke:#C82930;stroke-width:1.0;" width="6" x="680" y="231.3906"/><text fill="#000000" font-family="sans-serif" font-size="20" lengthAdjust="spacing" textLength="144" x="693" y="241.0742">contractDuration</text></g><!--class Sale--><g id="elem_Sale"><rect codeLine="49" fill="#FFDAB9" height="68.3125" id="Sale" rx="2.5" ry="2.5" style="stroke:#4169E1;stroke-width:0.5;" width="108" x="703.5" y="52.5"/><text fill="#000000" font-family="sans-serif" font-size="20" lengthAdjust="spacing" textLength="39" x="738" y="78.2617">Sale</text><line style="stroke:#4169E1;stroke-width:0.5;" x1="704.5" x2="810.5" y1="87.6563" y2="87.6563"/><rect fill="none" height="6" style="stroke:#C82930;stroke-width:1.0;" width="6" x="711.5" y="102.7344"/><text fill="#000000" font-family="sans-serif" font-size="20" lengthAdjust="spacing" textLength="81" x="724.5" y="112.418">salePrice</text></g><!--class Deal--><g id="elem_Deal"><rect codeLine="53" fill="#FFDAB9" height="68.3125" id="Deal" rx="2.5" ry="2.5" style="stroke:#4169E1;stroke-width:0.5;" width="108" x="347" y="211.5"/><text fill="#000000" font-family="sans-serif" font-size="20" lengthAdjust="spacing" textLength="40" x="381" y="237.2617">Deal</text><line style="stroke:#4169E1;stroke-width:0.5;" x1="348" x2="454" y1="246.6563" y2="246.6563"/><rect fill="none" height="6" style="stroke:#C82930;stroke-width:1.0;" width="6" x="355" y="261.7344"/><text fill="#000000" font-family="sans-serif" font-size="20" lengthAdjust="spacing" textLength="81" x="368" y="271.418">dealType</text></g><!--class Address--><g id="elem_Address"><rect codeLine="57" fill="#FFDAB9" height="143.7813" id="Address" rx="2.5" ry="2.5" style="stroke:#4169E1;stroke-width:0.5;" width="94" x="1061" y="380.5"/><text fill="#000000" font-family="sans-serif" font-size="20" lengthAdjust="spacing" textLength="73" x="1071.5" y="406.2617">Address</text><line style="stroke:#4169E1;stroke-width:0.5;" x1="1062" x2="1154" y1="415.6563" y2="415.6563"/><rect fill="none" height="6" style="stroke:#C82930;stroke-width:1.0;" width="6" x="1069" y="430.7344"/><text fill="#000000" font-family="sans-serif" font-size="20" lengthAdjust="spacing" textLength="51" x="1082" y="440.418">street</text><rect fill="none" height="6" style="stroke:#C82930;stroke-width:1.0;" width="6" x="1069" y="455.8906"/><text fill="#000000" font-family="sans-serif" font-size="20" lengthAdjust="spacing" textLength="30" x="1082" y="465.5742">city</text><rect fill="none" height="6" style="stroke:#C82930;stroke-width:1.0;" width="6" x="1069" y="481.0469"/><text fill="#000000" font-family="sans-serif" font-size="20" lengthAdjust="spacing" textLength="44" x="1082" y="490.7305">state</text><rect fill="none" height="6" style="stroke:#C82930;stroke-width:1.0;" width="6" x="1069" y="506.2031"/><text fill="#000000" font-family="sans-serif" font-size="20" lengthAdjust="spacing" textLength="67" x="1082" y="515.8867">zipcode</text></g><!--class Home--><g id="elem_Home"><rect codeLine="64" fill="#FFDAB9" height="143.7813" id="Home" rx="2.5" ry="2.5" style="stroke:#4169E1;stroke-width:0.5;" width="236" x="990" y="122.5"/><text fill="#000000" font-family="sans-serif" font-size="20" lengthAdjust="spacing" textLength="51" x="1082.5" y="148.2617">Home</text><line style="stroke:#4169E1;stroke-width:0.5;" x1="991" x2="1225" y1="157.6563" y2="157.6563"/><rect fill="none" height="6" style="stroke:#C82930;stroke-width:1.0;" width="6" x="998" y="172.7344"/><text fill="#000000" font-family="sans-serif" font-size="20" lengthAdjust="spacing" textLength="175" x="1011" y="182.418">numberOfbedrooms</text><rect fill="none" height="6" style="stroke:#C82930;stroke-width:1.0;" width="6" x="998" y="197.8906"/><text fill="#000000" font-family="sans-serif" font-size="20" lengthAdjust="spacing" textLength="180" x="1011" y="207.5742">numberOfbathrooms</text><rect fill="none" height="6" style="stroke:#C82930;stroke-width:1.0;" width="6" x="998" y="223.0469"/><text fill="#000000" font-family="sans-serif" font-size="20" lengthAdjust="spacing" textLength="209" x="1011" y="232.7305">numberOfParkingSpace</text><rect fill="none" height="6" style="stroke:#C82930;stroke-width:1.0;" width="6" x="998" y="248.2031"/><text fill="#000000" font-family="sans-serif" font-size="20" lengthAdjust="spacing" textLength="168" x="1011" y="257.8867">availableEquipment</text></g><!--class Land--><g id="elem_Land"><rect codeLine="71" fill="#FFDAB9" height="43.1563" id="Land" rx="2.5" ry="2.5" style="stroke:#4169E1;stroke-width:0.5;" width="49" x="1083.5" y="302"/><text fill="#000000" font-family="sans-serif" font-size="20" lengthAdjust="spacing" textLength="43" x="1086.5" y="327.7617">Land</text><line style="stroke:#4169E1;stroke-width:0.5;" x1="1084.5" x2="1131.5" y1="337.1563" y2="337.1563"/></g><!--class House--><g id="elem_House"><rect codeLine="75" fill="#FFDAB9" height="118.625" id="House" rx="2.5" ry="2.5" style="stroke:#4169E1;stroke-width:0.5;" width="154" x="1339" y="77"/><text fill="#000000" font-family="sans-serif" font-size="20" lengthAdjust="spacing" textLength="55" x="1388.5" y="102.7617">House</text><line style="stroke:#4169E1;stroke-width:0.5;" x1="1340" x2="1492" y1="112.1563" y2="112.1563"/><rect fill="none" height="6" style="stroke:#C82930;stroke-width:1.0;" width="6" x="1347" y="127.2344"/><text fill="#000000" font-family="sans-serif" font-size="20" lengthAdjust="spacing" textLength="86" x="1360" y="136.918">basement</text><rect fill="none" height="6" style="stroke:#C82930;stroke-width:1.0;" width="6" x="1347" y="152.3906"/><text fill="#000000" font-family="sans-serif" font-size="20" lengthAdjust="spacing" textLength="127" x="1360" y="162.0742">inhabitableLoft</text><rect fill="none" height="6" style="stroke:#C82930;stroke-width:1.0;" width="6" x="1347" y="177.5469"/><text fill="#000000" font-family="sans-serif" font-size="20" lengthAdjust="spacing" textLength="112" x="1360" y="187.2305">sunExposure</text></g><!--class Message--><g id="elem_Message"><rect codeLine="81" fill="#FFDAB9" height="168.9375" id="Message" rx="2.5" ry="2.5" style="stroke:#4169E1;stroke-width:0.5;" width="123" x="339.5" y="7"/><text fill="#000000" font-family="sans-serif" font-size="20" lengthAdjust="spacing" textLength="81" x="360.5" y="32.7617">Message</text><line style="stroke:#4169E1;stroke-width:0.5;" x1="340.5" x2="461.5" y1="42.1563" y2="42.1563"/><rect fill="none" height="6" style="stroke:#C82930;stroke-width:1.0;" width="6" x="347.5" y="57.2344"/><text fill="#000000" font-family="sans-serif" font-size="20" lengthAdjust="spacing" textLength="62" x="360.5" y="66.918">isEmail</text><rect fill="none" height="6" style="stroke:#C82930;stroke-width:1.0;" width="6" x="347.5" y="82.3906"/><text fill="#000000" font-family="sans-serif" font-size="20" lengthAdjust="spacing" textLength="62" x="360.5" y="92.0742">subject</text><rect fill="none" height="6" style="stroke:#C82930;stroke-width:1.0;" width="6" x="347.5" y="107.5469"/><text fill="#000000" font-family="sans-serif" font-size="20" lengthAdjust="spacing" textLength="40" x="360.5" y="117.2305">from</text><rect fill="none" height="6" style="stroke:#C82930;stroke-width:1.0;" width="6" x="347.5" y="132.7031"/><text fill="#000000" font-family="sans-serif" font-size="20" lengthAdjust="spacing" textLength="17" x="360.5" y="142.3867">to</text><rect fill="none" height="6" style="stroke:#C82930;stroke-width:1.0;" width="6" x="347.5" y="157.8594"/><text fill="#000000" font-family="sans-serif" font-size="20" lengthAdjust="spacing" textLength="96" x="360.5" y="167.543">information</text></g><!--class Person--><g id="elem_Person"><rect codeLine="89" fill="#FFDAB9" height="219.25" id="Person" rx="2.5" ry="2.5" style="stroke:#4169E1;stroke-width:0.5;" width="172" x="7" y="59"/><text fill="#000000" font-family="sans-serif" font-size="20" lengthAdjust="spacing" textLength="62" x="62" y="84.7617">Person</text><line style="stroke:#4169E1;stroke-width:0.5;" x1="8" x2="178" y1="94.1563" y2="94.1563"/><rect fill="none" height="6" style="stroke:#C82930;stroke-width:1.0;" width="6" x="15" y="109.2344"/><text fill="#000000" font-family="sans-serif" font-size="20" lengthAdjust="spacing" textLength="48" x="28" y="118.918">name</text><rect fill="none" height="6" style="stroke:#C82930;stroke-width:1.0;" width="6" x="15" y="134.3906"/><text fill="#000000" font-family="sans-serif" font-size="20" lengthAdjust="spacing" textLength="145" x="28" y="144.0742">passportNumber</text><rect fill="none" height="6" style="stroke:#C82930;stroke-width:1.0;" width="6" x="15" y="159.5469"/><text fill="#000000" font-family="sans-serif" font-size="20" lengthAdjust="spacing" textLength="94" x="28" y="169.2305">taxNumber</text><rect fill="none" height="6" style="stroke:#C82930;stroke-width:1.0;" width="6" x="15" y="184.7031"/><text fill="#000000" font-family="sans-serif" font-size="20" lengthAdjust="spacing" textLength="119" x="28" y="194.3867">emailAddress</text><rect fill="none" height="6" style="stroke:#C82930;stroke-width:1.0;" width="6" x="15" y="209.8594"/><text fill="#000000" font-family="sans-serif" font-size="20" lengthAdjust="spacing" textLength="121" x="28" y="219.543">phoneNumber</text><rect fill="none" height="6" style="stroke:#C82930;stroke-width:1.0;" width="6" x="15" y="235.0156"/><text fill="#000000" font-family="sans-serif" font-size="20" lengthAdjust="spacing" textLength="37" x="28" y="244.6992">pwd</text><rect fill="none" height="6" style="stroke:#C82930;stroke-width:1.0;" width="6" x="15" y="260.1719"/><text fill="#000000" font-family="sans-serif" font-size="20" lengthAdjust="spacing" textLength="60" x="28" y="269.8555">rolesId</text></g><!--class Agent--><g id="elem_Agent"><rect fill="#FFDAB9" height="43.1563" id="Agent" rx="2.5" ry="2.5" style="stroke:#4169E1;stroke-width:0.5;" width="57" x="729" y="488"/><text fill="#000000" font-family="sans-serif" font-size="20" lengthAdjust="spacing" textLength="51" x="732" y="513.7617">Agent</text><line style="stroke:#4169E1;stroke-width:0.5;" x1="730" x2="785" y1="523.1563" y2="523.1563"/></g><!--class Client--><g id="elem_Client"><rect fill="#FFDAB9" height="43.1563" id="Client" rx="2.5" ry="2.5" style="stroke:#4169E1;stroke-width:0.5;" width="55" x="65.5" y="421"/><text fill="#000000" font-family="sans-serif" font-size="20" lengthAdjust="spacing" textLength="49" x="68.5" y="446.7617">Client</text><line style="stroke:#4169E1;stroke-width:0.5;" x1="66.5" x2="119.5" y1="456.1563" y2="456.1563"/></g><!--class Apartment--><g id="elem_Apartment"><rect fill="#FFDAB9" height="43.1563" id="Apartment" rx="2.5" ry="2.5" style="stroke:#4169E1;stroke-width:0.5;" width="97" x="1367.5" y="231"/><text fill="#000000" font-family="sans-serif" font-size="20" lengthAdjust="spacing" textLength="91" x="1370.5" y="256.7617">Apartment</text><line style="stroke:#4169E1;stroke-width:0.5;" x1="1368.5" x2="1463.5" y1="266.1563" y2="266.1563"/></g><!--link Announcement to Commission--><g id="link_Announcement_Commission"><path codeLine="101" d="M440.66,489.26 C456.82,506.25 476.79,524.26 498,536.5 C663.45,631.95 897.06,621.41 1021.36,606.7 " fill="none" id="Announcement-Commission" style="stroke:#4169E1;stroke-width:1.0;"/><polygon fill="#000000" points="731.1587,576.4923,744.4116,583.97,746.2758,574.7521,731.1587,576.4923" style="stroke:#000000;stroke-width:1.0;"/><text fill="#000000" font-family="sans-serif" font-size="20" lengthAdjust="spacing" textLength="31" x="752" y="586.2617">has</text></g><!--link Commission to fixAmount--><g id="link_Commission_fixAmount"><path codeLine="102" d="M1194.64,578.95 C1251.75,569.24 1324.51,556.88 1370.43,549.07 " fill="none" id="Commission-fixAmount" style="stroke:#4169E1;stroke-width:1.0;"/><polygon fill="#000000" points="1256.1131,547.4187,1271.1686,549.6294,1269.5926,540.3578,1256.1131,547.4187" style="stroke:#000000;stroke-width:1.0;"/><text fill="#000000" font-family="sans-serif" font-size="20" lengthAdjust="spacing" textLength="31" x="1277" y="554.2617">has</text></g><!--link Commission to percentage--><g id="link_Commission_percentage"><path codeLine="103" d="M1194.64,607.77 C1248.92,616.82 1317.34,628.22 1363.42,635.9 " fill="none" id="Commission-percentage" style="stroke:#4169E1;stroke-width:1.0;"/><polygon fill="#000000" points="1256.1088,603.7629,1269.611,610.7804,1271.1571,601.5038,1256.1088,603.7629" style="stroke:#000000;stroke-width:1.0;"/><text fill="#000000" font-family="sans-serif" font-size="20" lengthAdjust="spacing" textLength="31" x="1277" y="613.2617">has</text></g><!--link Deal to Property--><g id="link_Deal_Property"><path codeLine="104" d="M455.07,263.91 C503.17,280.6 575.77,305.79 637.68,327.27 " fill="none" id="Deal-Property" style="stroke:#4169E1;stroke-width:1.0;"/><polygon fill="#000000" points="526.942,266.4557,539.0731,275.6421,542.1559,266.7572,526.942,266.4557" style="stroke:#000000;stroke-width:1.0;"/><text fill="#000000" font-family="sans-serif" font-size="20" lengthAdjust="spacing" textLength="31" x="547.5" y="277.2617">has</text></g><!--link Deal to Sale--><g id="link_Deal_Sale"><path codeLine="105" d="M453.84,211.27 C467.88,202.66 483.28,193.8 498,186.5 C566.77,152.42 650.19,121.99 703.31,103.89 " fill="none" id="Deal-Sale" style="stroke:#4169E1;stroke-width:1.0;"/><polygon fill="#000000" points="527.1518,131.241,542.3039,129.8384,538.5857,121.2001,527.1518,131.241" style="stroke:#000000;stroke-width:1.0;"/><text fill="#000000" font-family="sans-serif" font-size="20" lengthAdjust="spacing" textLength="31" x="547.5" y="136.2617">is a</text></g><!--link Deal to Rent--><g id="link_Deal_Rent"><path codeLine="106" d="M455.07,239.06 C512.34,232.12 604.37,220.95 671.69,212.79 " fill="none" id="Deal-Rent" style="stroke:#4169E1;stroke-width:1.0;"/><polygon fill="#000000" points="542.4418,207.115,527.5088,204.1892,528.641,213.5254,542.4418,207.115" style="stroke:#000000;stroke-width:1.0;"/><text fill="#000000" font-family="sans-serif" font-size="20" lengthAdjust="spacing" textLength="31" x="547.5" y="216.2617">is a</text></g><!--link Agent to Commission--><g id="link_Agent_Commission"><path codeLine="107" d="M786.14,516.16 C836.37,528.27 944.53,554.34 1021.36,572.86 " fill="none" id="Agent-Commission" style="stroke:#4169E1;stroke-width:1.0;"/><polygon fill="#000000" points="924.7772,533.9528,911.81,525.9901,909.6062,535.1328,924.7772,533.9528" style="stroke:#000000;stroke-width:1.0;"/><text fill="#000000" font-family="sans-serif" font-size="20" lengthAdjust="spacing" textLength="27" x="930" y="540.2617">set</text></g><!--link Agent to Announcement--><g id="link_Agent_Announcement"><path codeLine="108" d="M728.94,504.29 C673.4,493.79 546.62,469.83 468.26,455.02 " fill="none" id="Agent-Announcement" style="stroke:#4169E1;stroke-width:1.0;"/><polygon fill="#000000" points="501.6392,446.5924,514.9862,453.9006,516.7328,444.6596,501.6392,446.5924" style="stroke:#000000;stroke-width:1.0;"/><text fill="#000000" font-family="sans-serif" font-size="20" lengthAdjust="spacing" textLength="81" x="522.5" y="456.2617">publishes</text></g><!--link Announcement to Agent--><g id="link_Announcement_Agent"><path codeLine="110" d="M451.54,489.02 C465.55,499.43 481.5,509 498,514.5 C578.27,541.26 680.48,525.9 728.8,515.94 " fill="none" id="Announcement-Agent" style="stroke:#4169E1;stroke-width:1.0;"/><polygon fill="#000000" points="513.9626,501.8512,500.0126,495.7724,499.1037,505.1329,513.9626,501.8512" style="stroke:#000000;stroke-width:1.0;"/><text fill="#000000" font-family="sans-serif" font-size="20" lengthAdjust="spacing" textLength="88" x="519" y="509.2617">send from</text></g><!--link Announcement to Property--><g id="link_Announcement_Property"><path codeLine="109" d="M468.26,428.67 C515.86,418.73 581.32,405.07 637.83,393.27 " fill="none" id="Announcement-Property" style="stroke:#4169E1;stroke-width:1.0;"/><polygon fill="#000000" points="542.3312,385.4433,527.2035,383.7977,529.1254,393.0038,542.3312,385.4433" style="stroke:#000000;stroke-width:1.0;"/><text fill="#000000" font-family="sans-serif" font-size="20" lengthAdjust="spacing" textLength="31" x="547.5" y="395.2617">has</text></g><!--link Client to Announcement--><g id="link_Client_Announcement"><path codeLine="111" d="M120.62,442.5 C167.73,442.5 267.1,442.5 333.71,442.5 " fill="none" id="Client-Announcement" style="stroke:#4169E1;stroke-width:1.0;"/><polygon fill="#000000" points="230,429.0781,244.4721,433.7804,244.4721,424.3758,230,429.0781" style="stroke:#000000;stroke-width:1.0;"/><text fill="#000000" font-family="sans-serif" font-size="20" lengthAdjust="spacing" textLength="31" x="251" y="437.2617">has</text></g><!--link Property to Address--><g id="link_Property_Address"><path codeLine="112" d="M877.46,397.17 C940.56,412.38 1014.45,430.19 1060.99,441.41 " fill="none" id="Property-Address" style="stroke:#4169E1;stroke-width:1.0;"/><polygon fill="#000000" points="922.7772,392.9528,909.81,384.9901,907.6062,394.1328,922.7772,392.9528" style="stroke:#000000;stroke-width:1.0;"/><text fill="#000000" font-family="sans-serif" font-size="20" lengthAdjust="spacing" textLength="31" x="928" y="399.2617">has</text></g><!--link Person to Announcement--><g id="link_Person_Announcement"><path codeLine="113" d="M179.24,244.82 C233.35,293.28 301.64,354.42 347.83,395.78 " fill="none" id="Person-Announcement" style="stroke:#4169E1;stroke-width:1.0;"/><polygon fill="#000000" points="215.0401,254.7415,222.6849,267.8987,228.9584,260.8924,215.0401,254.7415" style="stroke:#000000;stroke-width:1.0;"/><text fill="#000000" font-family="sans-serif" font-size="20" lengthAdjust="spacing" textLength="65" x="234" y="268.2617">send to</text></g><!--link Person to Message--><g id="link_Person_Message"><path codeLine="114" d="M179.24,147.05 C230.17,134.24 293.65,118.26 339.45,106.74 " fill="none" id="Person-Message" style="stroke:#4169E1;stroke-width:1.0;"/><polygon fill="#000000" points="224.7582,101.1261,209.5761,100.0972,211.8709,109.2175,224.7582,101.1261" style="stroke:#000000;stroke-width:1.0;"/><text fill="#000000" font-family="sans-serif" font-size="20" lengthAdjust="spacing" textLength="73" x="230" y="111.2617">receives</text></g><!--reverse link Property to Land--><g id="link_Property_Land"><path codeLine="117" d="M897.42,350.56 C967.37,341.53 1045.26,331.47 1083.38,326.55 " fill="none" id="Property-backto-Land" style="stroke:#4169E1;stroke-width:1.0;"/><polygon fill="none" points="898.19,357.52,877.46,353.14,896.4,343.64,898.19,357.52" style="stroke:#4169E1;stroke-width:1.0;"/><text fill="#000000" font-family="sans-serif" font-size="20" lengthAdjust="spacing" textLength="31" x="918" y="337.2617">is a</text></g><!--reverse link Property to Home--><g id="link_Property_Home"><path codeLine="118" d="M895.57,300.06 C926.72,284.51 959.52,268.13 989.76,253.04 " fill="none" id="Property-backto-Home" style="stroke:#4169E1;stroke-width:1.0;"/><polygon fill="none" points="898.48,306.43,877.46,309.11,892.23,293.91,898.48,306.43" style="stroke:#4169E1;stroke-width:1.0;"/><text fill="#000000" font-family="sans-serif" font-size="20" lengthAdjust="spacing" textLength="31" x="918" y="266.2617">is a</text></g><!--reverse link Home to Apartment--><g id="link_Home_Apartment"><path codeLine="119" d="M1246.2,220.5 C1289.59,228.73 1334.69,237.28 1367.34,243.47 " fill="none" id="Home-backto-Apartment" style="stroke:#4169E1;stroke-width:1.0;"/><polygon fill="none" points="1244.78,227.36,1226.43,216.76,1247.39,213.61,1244.78,227.36" style="stroke:#4169E1;stroke-width:1.0;"/><text fill="#000000" font-family="sans-serif" font-size="20" lengthAdjust="spacing" textLength="31" x="1267" y="218.2617">is a</text></g><!--reverse link Home to House--><g id="link_Home_House"><path codeLine="120" d="M1246.12,168.51 C1278.01,162.46 1310.84,156.24 1338.97,150.91 " fill="none" id="Home-backto-House" style="stroke:#4169E1;stroke-width:1.0;"/><polygon fill="none" points="1247.39,175.39,1226.43,172.24,1244.78,161.64,1247.39,175.39" style="stroke:#4169E1;stroke-width:1.0;"/><text fill="#000000" font-family="sans-serif" font-size="20" lengthAdjust="spacing" textLength="31" x="1267" y="152.2617">is a</text></g><!--SRC=[TLLDRzim3BtxL-YMKu1Ynw8OuAOjLg3RWcP_W9PeMwiiUPJSDjtstqVBNugJwIIHrECJ-MZx5srR86YCao-eXC8IEXCUd0q7_O7YqrMsyLECQ9nriYRNe0ZKORPuMf0lKE4X70qAGXd0LYODy3KezwPj9Kem7bDKeos6Oul2KQXTPh0C8ZX1kgg3KBf7qywcDwG1x_CGI1TTm4VfR2HxbTLQeP2Q9EUE-mOPKlaissodzQ2PecUYJ6Qxh6m5BtvdWjSjFwmYrrcrSyQHs2F8Uj-LPVJcHEvjS3ox8vXRmrM9rnmffBNdRyg3Low38xzThKsM3Gnshccqz_puaSnMoDdqWolM0mwXfNxF6sOPviXN63CE0IsIH1kuH_-BoArb08aD9YW-GC1ntvAMIVoU78E6unpRzt3S0Y6CMnOMnFuDHwKPahCyi8fsEXntd0rfob2xu2g2jlPBdkUK3_5X7tbCzR21G8QxZeOiyxK3cEMfdW_xK_ft26RsApwS5ZHNYd1MGLy8GWnJLYP-eK0VkfLE9I1V-acP46pN54ZVom8LETVujHb2VSc-1s9XLWUUiBcwhw0D50RlVtMwxVkrf7m2gpXbog7p2ua2V6pmUDIsXaA77kl9bPFLT_R-lNM-e-GjNxaQgNgqls-Ondob-CbpEfvARkua2ZUdAXqrgoRjaNoYRWlDB3Psj_n1-1RBC871-yaPUmPZfnO9MJm9Qj_K91vdq3-gip4S5sl93jyQV-xaeJmPaEqs7SzhKOCNDrbYue1bA2_xavcS0g8gsJKFrzeHPNtDrHUGMEECZDRFMLvTOkWnfBwJrroBjYkCzZNwFcRrq1MPyu01j4_1ukkRpp4xeozd6jupO_O1uwnDyACgpgz6VFurt2GXaowl-zyEwjVuWelztTP8kg_s9TzcONJpXs7Z70qLNNdYK8-Uk8_Md7yTeLdQaBY62HpC_m00]--></g></svg>