<?xml version="1.0" encoding="UTF-8" standalone="no"?><svg xmlns="http://www.w3.org/2000/svg" xmlns:xlink="http://www.w3.org/1999/xlink" contentStyleType="text/css" height="663px" preserveAspectRatio="none" style="width:1483px;height:663px;background:#FFFFFF;" version="1.1" viewBox="0 0 1483 663" width="1483px" zoomAndPan="magnify"><defs/><g><!--class Commission--><g id="elem_Commission"><rect codeLine="19" fill="#FFDAB9" height="64.5625" id="Commission" rx="2.5" ry="2.5" style="stroke:#4169E1;stroke-width:0.5;" width="195" x="949.5" y="57"/><text fill="#000000" font-family="sans-serif" font-size="20" lengthAdjust="spacing" textLength="123" x="985.5" y="80.5645">Commission</text><line style="stroke:#4169E1;stroke-width:0.5;" x1="950.5" x2="1143.5" y1="90.2813" y2="90.2813"/><rect fill="none" height="6" style="stroke:#C82930;stroke-width:1.0;" width="6" x="957.5" y="104.4219"/><text fill="#000000" font-family="sans-serif" font-size="20" lengthAdjust="spacing" textLength="168" x="970.5" y="112.8457">commissionType</text></g><!--class fixAmount--><g id="elem_fixAmount"><rect codeLine="23" fill="#FFDAB9" height="64.5625" id="fixAmount" rx="2.5" ry="2.5" style="stroke:#4169E1;stroke-width:0.5;" width="110" x="1331.5" y="7"/><text fill="#000000" font-family="sans-serif" font-size="20" lengthAdjust="spacing" textLength="104" x="1334.5" y="30.5645">fixAmount</text><line style="stroke:#4169E1;stroke-width:0.5;" x1="1332.5" x2="1440.5" y1="40.2813" y2="40.2813"/><rect fill="none" height="6" style="stroke:#C82930;stroke-width:1.0;" width="6" x="1339.5" y="54.4219"/><text fill="#000000" font-family="sans-serif" font-size="20" lengthAdjust="spacing" textLength="54" x="1352.5" y="62.8457">value</text></g><!--class percentage--><g id="elem_percentage"><rect codeLine="27" fill="#FFDAB9" height="64.5625" id="percentage" rx="2.5" ry="2.5" style="stroke:#4169E1;stroke-width:0.5;" width="120" x="1326.5" y="107"/><text fill="#000000" font-family="sans-serif" font-size="20" lengthAdjust="spacing" textLength="114" x="1329.5" y="130.5645">percentage</text><line style="stroke:#4169E1;stroke-width:0.5;" x1="1327.5" x2="1445.5" y1="140.2813" y2="140.2813"/><rect fill="none" height="6" style="stroke:#C82930;stroke-width:1.0;" width="6" x="1334.5" y="154.4219"/><text fill="#000000" font-family="sans-serif" font-size="20" lengthAdjust="spacing" textLength="54" x="1347.5" y="162.8457">value</text></g><!--class Announcement--><g id="elem_Announcement"><rect codeLine="31" fill="#FFDAB9" height="87.8438" id="Announcement" rx="2.5" ry="2.5" style="stroke:#4169E1;stroke-width:0.5;" width="160" x="189" y="150.5"/><text fill="#000000" font-family="sans-serif" font-size="20" lengthAdjust="spacing" textLength="154" x="192" y="174.0645">Announcement</text><line style="stroke:#4169E1;stroke-width:0.5;" x1="190" x2="348" y1="183.7813" y2="183.7813"/><rect fill="none" height="6" style="stroke:#C82930;stroke-width:1.0;" width="6" x="197" y="197.9219"/><text fill="#000000" font-family="sans-serif" font-size="20" lengthAdjust="spacing" textLength="50" x="210" y="206.3457">state</text><rect fill="none" height="6" style="stroke:#C82930;stroke-width:1.0;" width="6" x="197" y="221.2031"/><text fill="#000000" font-family="sans-serif" font-size="20" lengthAdjust="spacing" textLength="50" x="210" y="229.627">price</text></g><!--class Property--><g id="elem_Property"><rect codeLine="36" fill="#FFDAB9" height="157.6875" id="Property" rx="2.5" ry="2.5" style="stroke:#4169E1;stroke-width:0.5;" width="270" x="527" y="275.5"/><text fill="#000000" font-family="sans-serif" font-size="20" lengthAdjust="spacing" textLength="84" x="620" y="299.0645">Property</text><line style="stroke:#4169E1;stroke-width:0.5;" x1="528" x2="796" y1="308.7813" y2="308.7813"/><rect fill="none" height="6" style="stroke:#C82930;stroke-width:1.0;" width="6" x="535" y="322.9219"/><text fill="#000000" font-family="sans-serif" font-size="20" lengthAdjust="spacing" textLength="44" x="548" y="331.3457">type</text><rect fill="none" height="6" style="stroke:#C82930;stroke-width:1.0;" width="6" x="535" y="346.2031"/><text fill="#000000" font-family="sans-serif" font-size="20" lengthAdjust="spacing" textLength="44" x="548" y="354.627">area</text><rect fill="none" height="6" style="stroke:#C82930;stroke-width:1.0;" width="6" x="535" y="369.4844"/><text fill="#000000" font-family="sans-serif" font-size="20" lengthAdjust="spacing" textLength="80" x="548" y="377.9082">location</text><rect fill="none" height="6" style="stroke:#C82930;stroke-width:1.0;" width="6" x="535" y="392.7656"/><text fill="#000000" font-family="sans-serif" font-size="20" lengthAdjust="spacing" textLength="243" x="548" y="401.1895">distanceFromCityCenter</text><rect fill="none" height="6" style="stroke:#C82930;stroke-width:1.0;" width="6" x="535" y="416.0469"/><text fill="#000000" font-family="sans-serif" font-size="20" lengthAdjust="spacing" textLength="127" x="548" y="424.4707">photographs</text></g><!--class Rent--><g id="elem_Rent"><rect codeLine="44" fill="#FFDAB9" height="87.8438" id="Rent" rx="2.5" ry="2.5" style="stroke:#4169E1;stroke-width:0.5;" width="197" x="563.5" y="468.5"/><text fill="#000000" font-family="sans-serif" font-size="20" lengthAdjust="spacing" textLength="47" x="638.5" y="492.0645">Rent</text><line style="stroke:#4169E1;stroke-width:0.5;" x1="564.5" x2="759.5" y1="501.7813" y2="501.7813"/><rect fill="none" height="6" style="stroke:#C82930;stroke-width:1.0;" width="6" x="571.5" y="515.9219"/><text fill="#000000" font-family="sans-serif" font-size="20" lengthAdjust="spacing" textLength="90" x="584.5" y="524.3457">rentPrice</text><rect fill="none" height="6" style="stroke:#C82930;stroke-width:1.0;" width="6" x="571.5" y="539.2031"/><text fill="#000000" font-family="sans-serif" font-size="20" lengthAdjust="spacing" textLength="170" x="584.5" y="547.627">contractDuration</text></g><!--class Sale--><g id="elem_Sale"><rect codeLine="49" fill="#FFDAB9" height="64.5625" id="Sale" rx="2.5" ry="2.5" style="stroke:#4169E1;stroke-width:0.5;" width="116" x="604" y="592"/><text fill="#000000" font-family="sans-serif" font-size="20" lengthAdjust="spacing" textLength="43" x="640.5" y="615.5645">Sale</text><line style="stroke:#4169E1;stroke-width:0.5;" x1="605" x2="719" y1="625.2813" y2="625.2813"/><rect fill="none" height="6" style="stroke:#C82930;stroke-width:1.0;" width="6" x="612" y="639.4219"/><text fill="#000000" font-family="sans-serif" font-size="20" lengthAdjust="spacing" textLength="89" x="625" y="647.8457">salePrice</text></g><!--class Deal--><g id="elem_Deal"><rect codeLine="53" fill="#FFDAB9" height="64.5625" id="Deal" rx="2.5" ry="2.5" style="stroke:#4169E1;stroke-width:0.5;" width="118" x="210" y="480"/><text fill="#000000" font-family="sans-serif" font-size="20" lengthAdjust="spacing" textLength="45" x="246.5" y="503.5645">Deal</text><line style="stroke:#4169E1;stroke-width:0.5;" x1="211" x2="327" y1="513.2813" y2="513.2813"/><rect fill="none" height="6" style="stroke:#C82930;stroke-width:1.0;" width="6" x="218" y="527.4219"/><text fill="#000000" font-family="sans-serif" font-size="20" lengthAdjust="spacing" textLength="91" x="231" y="535.8457">dealType</text></g><!--class Address--><g id="elem_Address"><rect codeLine="57" fill="#FFDAB9" height="134.4063" id="Address" rx="2.5" ry="2.5" style="stroke:#4169E1;stroke-width:0.5;" width="105" x="994.5" y="157.5"/><text fill="#000000" font-family="sans-serif" font-size="20" lengthAdjust="spacing" textLength="80" x="1007" y="181.0645">Address</text><line style="stroke:#4169E1;stroke-width:0.5;" x1="995.5" x2="1098.5" y1="190.7813" y2="190.7813"/><rect fill="none" height="6" style="stroke:#C82930;stroke-width:1.0;" width="6" x="1002.5" y="204.9219"/><text fill="#000000" font-family="sans-serif" font-size="20" lengthAdjust="spacing" textLength="58" x="1015.5" y="213.3457">street</text><rect fill="none" height="6" style="stroke:#C82930;stroke-width:1.0;" width="6" x="1002.5" y="228.2031"/><text fill="#000000" font-family="sans-serif" font-size="20" lengthAdjust="spacing" textLength="36" x="1015.5" y="236.627">city</text><rect fill="none" height="6" style="stroke:#C82930;stroke-width:1.0;" width="6" x="1002.5" y="251.4844"/><text fill="#000000" font-family="sans-serif" font-size="20" lengthAdjust="spacing" textLength="50" x="1015.5" y="259.9082">state</text><rect fill="none" height="6" style="stroke:#C82930;stroke-width:1.0;" width="6" x="1002.5" y="274.7656"/><text fill="#000000" font-family="sans-serif" font-size="20" lengthAdjust="spacing" textLength="78" x="1015.5" y="283.1895">zipcode</text></g><!--class Home--><g id="elem_Home"><rect codeLine="64" fill="#FFDAB9" height="134.4063" id="Home" rx="2.5" ry="2.5" style="stroke:#4169E1;stroke-width:0.5;" width="266" x="914" y="326.5"/><text fill="#000000" font-family="sans-serif" font-size="20" lengthAdjust="spacing" textLength="59" x="1017.5" y="350.0645">Home</text><line style="stroke:#4169E1;stroke-width:0.5;" x1="915" x2="1179" y1="359.7813" y2="359.7813"/><rect fill="none" height="6" style="stroke:#C82930;stroke-width:1.0;" width="6" x="922" y="373.9219"/><text fill="#000000" font-family="sans-serif" font-size="20" lengthAdjust="spacing" textLength="202" x="935" y="382.3457">numberOfbedrooms</text><rect fill="none" height="6" style="stroke:#C82930;stroke-width:1.0;" width="6" x="922" y="397.2031"/><text fill="#000000" font-family="sans-serif" font-size="20" lengthAdjust="spacing" textLength="210" x="935" y="405.627">numberOfbathrooms</text><rect fill="none" height="6" style="stroke:#C82930;stroke-width:1.0;" width="6" x="922" y="420.4844"/><text fill="#000000" font-family="sans-serif" font-size="20" lengthAdjust="spacing" textLength="239" x="935" y="428.9082">numberOfParkingSpace</text><rect fill="none" height="6" style="stroke:#C82930;stroke-width:1.0;" width="6" x="922" y="443.7656"/><text fill="#000000" font-family="sans-serif" font-size="20" lengthAdjust="spacing" textLength="201" x="935" y="452.1895">availableEquipment</text></g><!--class Land--><g id="elem_Land"><rect codeLine="71" fill="#FFDAB9" height="41.2813" id="Land" rx="2.5" ry="2.5" style="stroke:#4169E1;stroke-width:0.5;" width="55" x="1019.5" y="496"/><text fill="#000000" font-family="sans-serif" font-size="20" lengthAdjust="spacing" textLength="49" x="1022.5" y="519.5645">Land</text><line style="stroke:#4169E1;stroke-width:0.5;" x1="1020.5" x2="1073.5" y1="529.2813" y2="529.2813"/></g><!--class House--><g id="elem_House"><rect codeLine="75" fill="#FFDAB9" height="111.125" id="House" rx="2.5" ry="2.5" style="stroke:#4169E1;stroke-width:0.5;" width="179" x="1297" y="283"/><text fill="#000000" font-family="sans-serif" font-size="20" lengthAdjust="spacing" textLength="62" x="1355.5" y="306.5645">House</text><line style="stroke:#4169E1;stroke-width:0.5;" x1="1298" x2="1475" y1="316.2813" y2="316.2813"/><rect fill="none" height="6" style="stroke:#C82930;stroke-width:1.0;" width="6" x="1305" y="330.4219"/><text fill="#000000" font-family="sans-serif" font-size="20" lengthAdjust="spacing" textLength="100" x="1318" y="338.8457">basement</text><rect fill="none" height="6" style="stroke:#C82930;stroke-width:1.0;" width="6" x="1305" y="353.7031"/><text fill="#000000" font-family="sans-serif" font-size="20" lengthAdjust="spacing" textLength="152" x="1318" y="362.127">inhabitableLoft</text><rect fill="none" height="6" style="stroke:#C82930;stroke-width:1.0;" width="6" x="1305" y="376.9844"/><text fill="#000000" font-family="sans-serif" font-size="20" lengthAdjust="spacing" textLength="128" x="1318" y="385.4082">sunExposure</text></g><!--class Agent--><g id="elem_Agent"><rect fill="#FFDAB9" height="41.2813" id="Agent" rx="2.5" ry="2.5" style="stroke:#4169E1;stroke-width:0.5;" width="66" x="629" y="160"/><text fill="#000000" font-family="sans-serif" font-size="20" lengthAdjust="spacing" textLength="60" x="632" y="183.5645">Agent</text><line style="stroke:#4169E1;stroke-width:0.5;" x1="630" x2="694" y1="193.2813" y2="193.2813"/></g><!--class Client--><g id="elem_Client"><rect fill="#FFDAB9" height="41.2813" id="Client" rx="2.5" ry="2.5" style="stroke:#4169E1;stroke-width:0.5;" width="65" x="7" y="174"/><text fill="#000000" font-family="sans-serif" font-size="20" lengthAdjust="spacing" textLength="59" x="10" y="197.5645">Client</text><line style="stroke:#4169E1;stroke-width:0.5;" x1="8" x2="71" y1="207.2813" y2="207.2813"/></g><!--class Apartment--><g id="elem_Apartment"><rect fill="#FFDAB9" height="41.2813" id="Apartment" rx="2.5" ry="2.5" style="stroke:#4169E1;stroke-width:0.5;" width="114" x="1329.5" y="429"/><text fill="#000000" font-family="sans-serif" font-size="20" lengthAdjust="spacing" textLength="108" x="1332.5" y="452.5645">Apartment</text><line style="stroke:#4169E1;stroke-width:0.5;" x1="1330.5" x2="1442.5" y1="462.2813" y2="462.2813"/></g><!--link Announcement to Commission--><g id="link_Announcement_Commission"><path codeLine="83" d="M349.02,162.01 C358.99,158.74 369.15,155.78 379,153.5 C578.31,107.31 818.58,94.38 949.46,90.81 " fill="none" id="Announcement-Commission" style="stroke:#4169E1;stroke-width:1.0;"/><polygon fill="#000000" points="633.5557,86.0827,648.4808,89.0481,647.3734,79.7089,633.5557,86.0827" style="stroke:#000000;stroke-width:1.0;"/><text fill="#000000" font-family="sans-serif" font-size="20" lengthAdjust="spacing" textLength="35" x="654.5" y="92.0645">has</text></g><!--link Commission to fixAmount--><g id="link_Commission_fixAmount"><path codeLine="84" d="M1144.71,75.17 C1205.29,66.2 1281.12,54.96 1331.32,47.53 " fill="none" id="Commission-fixAmount" style="stroke:#4169E1;stroke-width:1.0;"/><polygon fill="#000000" points="1210.0863,45.3128,1225.0913,47.8439,1223.7133,38.5408,1210.0863,45.3128" style="stroke:#000000;stroke-width:1.0;"/><text fill="#000000" font-family="sans-serif" font-size="20" lengthAdjust="spacing" textLength="35" x="1231" y="51.0645">has</text></g><!--link Commission to percentage--><g id="link_Commission_percentage"><path codeLine="85" d="M1144.71,103.83 C1203.34,112.51 1276.26,123.32 1326.4,130.74 " fill="none" id="Commission-percentage" style="stroke:#4169E1;stroke-width:1.0;"/><polygon fill="#000000" points="1210.0863,100.9685,1223.7134,107.7404,1225.0912,98.4373,1210.0863,100.9685" style="stroke:#000000;stroke-width:1.0;"/><text fill="#000000" font-family="sans-serif" font-size="20" lengthAdjust="spacing" textLength="35" x="1231" y="109.0645">has</text></g><!--link Deal to Property--><g id="link_Deal_Property"><path codeLine="86" d="M328.11,489.02 C380.34,467.91 459.02,436.12 526.77,408.74 " fill="none" id="Deal-Property" style="stroke:#4169E1;stroke-width:1.0;"/><polygon fill="#000000" points="410.0827,414.138,425.2625,413.0755,421.7389,404.3559,410.0827,414.138" style="stroke:#000000;stroke-width:1.0;"/><text fill="#000000" font-family="sans-serif" font-size="20" lengthAdjust="spacing" textLength="35" x="430.5" y="418.0645">has</text></g><!--link Deal to Sale--><g id="link_Deal_Sale"><path codeLine="87" d="M328.2,530.36 C344.61,535.33 362.49,540.69 379,545.5 C456.73,568.15 546.88,593.19 603.92,608.88 " fill="none" id="Deal-Sale" style="stroke:#4169E1;stroke-width:1.0;"/><polygon fill="#000000" points="410.3059,530.9495,422.9367,539.4358,425.5126,530.3908,410.3059,530.9495" style="stroke:#000000;stroke-width:1.0;"/><text fill="#000000" font-family="sans-serif" font-size="20" lengthAdjust="spacing" textLength="34" x="431" y="540.0645">is a</text></g><!--link Deal to Rent--><g id="link_Deal_Rent"><path codeLine="88" d="M328.11,512.5 C390.13,512.5 489.43,512.5 563.46,512.5 " fill="none" id="Deal-Rent" style="stroke:#4169E1;stroke-width:1.0;"/><polygon fill="#000000" points="426,500.1406,411.5279,495.4383,411.5279,504.8429,426,500.1406" style="stroke:#000000;stroke-width:1.0;"/><text fill="#000000" font-family="sans-serif" font-size="20" lengthAdjust="spacing" textLength="34" x="431" y="507.0645">is a</text></g><!--link Agent to Commission--><g id="link_Agent_Commission"><path codeLine="89" d="M695.11,175.99 C738.35,169.61 817.56,156.9 884,140.5 C905.33,135.24 927.96,128.72 949.33,122.12 " fill="none" id="Agent-Commission" style="stroke:#4169E1;stroke-width:1.0;"/><polygon fill="#000000" points="845.3262,126.4822,830.1937,124.8822,832.1432,134.0824,845.3262,126.4822" style="stroke:#000000;stroke-width:1.0;"/><text fill="#000000" font-family="sans-serif" font-size="20" lengthAdjust="spacing" textLength="30" x="850.5" y="135.0645">set</text></g><!--link Agent to Announcement--><g id="link_Agent_Announcement"><path codeLine="90" d="M628.96,193.1 C596.35,205.2 544.05,222.62 497,229.5 C445.11,237.09 430.81,237.61 379,229.5 C369.18,227.96 359.04,225.69 349.08,223.03 " fill="none" id="Agent-Announcement" style="stroke:#4169E1;stroke-width:1.0;"/><polygon fill="#000000" points="379.0454,217.9913,393.9354,221.1281,392.9354,211.7768,379.0454,217.9913" style="stroke:#000000;stroke-width:1.0;"/><text fill="#000000" font-family="sans-serif" font-size="20" lengthAdjust="spacing" textLength="96" x="400" y="224.0645">publishes</text></g><!--link Announcement to Agent--><g id="link_Announcement_Agent"><path codeLine="92" d="M349.12,191.67 C435.04,188.59 568.09,183.83 628.81,181.65 " fill="none" id="Announcement-Agent" style="stroke:#4169E1;stroke-width:1.0;"/><polygon fill="#000000" points="405.9949,173.8542,391.3637,169.6731,391.7004,179.0716,405.9949,173.8542" style="stroke:#000000;stroke-width:1.0;"/><text fill="#000000" font-family="sans-serif" font-size="20" lengthAdjust="spacing" textLength="74" x="411" y="181.0645">send to</text></g><!--link Announcement to Property--><g id="link_Announcement_Property"><path codeLine="91" d="M328.96,238.5 C344.69,248.96 362.04,259.42 379,267.5 C425.48,289.65 478.93,307.82 526.71,321.71 " fill="none" id="Announcement-Property" style="stroke:#4169E1;stroke-width:1.0;"/><polygon fill="#000000" points="424.8738,258.2434,413.3582,248.2962,409.7107,256.9646,424.8738,258.2434" style="stroke:#000000;stroke-width:1.0;"/><text fill="#000000" font-family="sans-serif" font-size="20" lengthAdjust="spacing" textLength="35" x="430.5" y="262.0645">has</text></g><!--link Client to Announcement--><g id="link_Client_Announcement"><path codeLine="93" d="M72.13,194.5 C102.17,194.5 148.56,194.5 188.65,194.5 " fill="none" id="Client-Announcement" style="stroke:#4169E1;stroke-width:1.0;"/><polygon fill="#000000" points="102,182.1406,116.4721,186.8429,116.4721,177.4383,102,182.1406" style="stroke:#000000;stroke-width:1.0;"/><text fill="#000000" font-family="sans-serif" font-size="20" lengthAdjust="spacing" textLength="35" x="123" y="189.0645">has</text></g><!--link Property to Address--><g id="link_Property_Address"><path codeLine="94" d="M797.22,308.94 C865.36,285.81 944.16,259.07 994.5,241.98 " fill="none" id="Property-Address" style="stroke:#4169E1;stroke-width:1.0;"/><polygon fill="#000000" points="842.5755,266.5694,827.3599,266.768,830.3826,275.6736,842.5755,266.5694" style="stroke:#000000;stroke-width:1.0;"/><text fill="#000000" font-family="sans-serif" font-size="20" lengthAdjust="spacing" textLength="35" x="848" y="276.0645">has</text></g><!--reverse link Property to Land--><g id="link_Property_Land"><path codeLine="97" d="M815.29,435.13 C847.42,450.6 881.46,465.89 914,478.5 C949.69,492.33 992.51,503.75 1019.5,510.35 " fill="none" id="Property-backto-Land" style="stroke:#4169E1;stroke-width:1.0;"/><polygon fill="none" points="812.05,441.33,797.14,426.27,818.19,428.75,812.05,441.33" style="stroke:#4169E1;stroke-width:1.0;"/><text fill="#000000" font-family="sans-serif" font-size="20" lengthAdjust="spacing" textLength="34" x="838.5" y="436.0645">is a</text></g><!--reverse link Property to Home--><g id="link_Property_Home"><path codeLine="98" d="M817.45,370.23 C849.42,373.48 882.83,376.88 913.91,380.05 " fill="none" id="Property-backto-Home" style="stroke:#4169E1;stroke-width:1.0;"/><polygon fill="none" points="816.41,377.16,797.22,368.17,817.83,363.23,816.41,377.16" style="stroke:#4169E1;stroke-width:1.0;"/><text fill="#000000" font-family="sans-serif" font-size="20" lengthAdjust="spacing" textLength="34" x="838.5" y="366.0645">is a</text></g><!--reverse link Home to Apartment--><g id="link_Home_Apartment"><path codeLine="99" d="M1200.3,418.77 C1246.21,426.39 1293.77,434.28 1329.19,440.16 " fill="none" id="Home-backto-Apartment" style="stroke:#4169E1;stroke-width:1.0;"/><polygon fill="none" points="1199,425.65,1180.42,415.47,1201.3,411.84,1199,425.65" style="stroke:#4169E1;stroke-width:1.0;"/><text fill="#000000" font-family="sans-serif" font-size="20" lengthAdjust="spacing" textLength="34" x="1221.5" y="416.0645">is a</text></g><!--reverse link Home to House--><g id="link_Home_House"><path codeLine="100" d="M1200.29,368.68 C1233.34,363.3 1267.24,357.77 1296.86,352.95 " fill="none" id="Home-backto-House" style="stroke:#4169E1;stroke-width:1.0;"/><polygon fill="none" points="1201.29,375.61,1180.42,371.92,1199.03,361.79,1201.29,375.61" style="stroke:#4169E1;stroke-width:1.0;"/><text fill="#000000" font-family="sans-serif" font-size="20" lengthAdjust="spacing" textLength="34" x="1221.5" y="352.0645">is a</text></g><!--SRC=[TLJBRjmm3BpxAtJRau6Wno08u6mIj420BhBz0LgYRI6ov59oaatRVoyjlxJEHYU9Gmz7vCZ-HTiE25hZv0igeR22teH7PyDHVw3uTfNj_9mZMcUTRCYrA0BrcAr81_85QZo6aq51A0FOsgG9lW7bthIjHGN6OyfgjCLmwb0u2etB35P112T8rqqGIWzisjdq2sd0-o84qcKVy8TqDegzoXgjK4XDacl7VOjCgNoMxV9vFMgMw5aeYydNbMtenPzCyBhZYzNaUglspZWI1mJP7FggYcX1vDv6uDcTmDmPxahyp952sYB_KXsy2XaS-NopTbasAjYxjjNUy-KdCRcGI-WNTsmW75Ch_Lwqh38icQymLHmJEYI9Dl2Clieeh6K2YIqcB3v0m6dVaPP9_e4SauRJaZlCSDe28KnRDXR4-Or7fPcIgpooY_OwdFPS3MckqBZWQeAkyMkTvrGFyU4GTSpzi850XlkUnYhBPqSmwrKz7mxdykyHp88hFfmtj52AS771q0X237DL5dwXGH-waqub9D-7bp8psBujaNvM9IfohlNRC8JcKlm0nCQiZ_p2bkw-WZPG6dputUjkcDTQyWciufAfXjwl8ahmSS3JKTi6IXq6hYTNpL7VsuVtplcUFbjsMjntExvB_nba0v-PASzJAr-B1houoP8G9wm6lemd_fqJuWGPMeou1Q85heNs0f9ezDCKlSsA-f92Zo75pcvpBRg-DDetw8USpKKtOZudZAH32HuK_-PkixtHb-kCjraOXuJ9bJFvnTda3P8UEdK9swryDt-PCVfbxCO6YUQTaBYFqO9_aQ5TMvX0ezEcy7y0]--></g></svg>