<?xml version="1.0" encoding="UTF-8" standalone="no"?><svg xmlns="http://www.w3.org/2000/svg" xmlns:xlink="http://www.w3.org/1999/xlink" contentStyleType="text/css" height="1525px" preserveAspectRatio="none" style="width:1236px;height:1525px;background:#FFFFFF;" version="1.1" viewBox="0 0 1236 1525" width="1236px" zoomAndPan="magnify"><defs/><g><rect fill="#FFFFFF" height="1327.0703" style="stroke:#181818;stroke-width:1.0;" width="10" x="43.5" y="100.1563"/><rect fill="#FFFFFF" height="39.1563" style="stroke:#181818;stroke-width:1.0;" width="10" x="1171.5" y="131.3125"/><rect fill="#FFFFFF" height="39.1563" style="stroke:#181818;stroke-width:1.0;" width="10" x="1171.5" y="209.625"/><rect fill="#FFFFFF" height="965.7969" style="stroke:#181818;stroke-width:1.0;" width="10" x="1171.5" y="287.9375"/><rect fill="#FFFFFF" height="133.3359" style="stroke:#181818;stroke-width:1.0;" width="10" x="1171.5" y="1292.8906"/><rect fill="none" height="208.5156" style="stroke:#000000;stroke-width:1.5;" width="1219.5" x="10" y="459.5625"/><rect fill="none" height="109.3359" style="stroke:#000000;stroke-width:1.5;" width="1219.5" x="10" y="682.0781"/><rect fill="none" height="109.3359" style="stroke:#000000;stroke-width:1.5;" width="1219.5" x="10" y="805.4141"/><rect fill="none" height="208.5156" style="stroke:#000000;stroke-width:1.5;" width="1219.5" x="10" y="1007.0625"/><rect fill="none" height="111.3359" style="stroke:#000000;stroke-width:1.5;" width="1219.5" x="10" y="1307.8906"/><line style="stroke:#181818;stroke-width:0.5;stroke-dasharray:5.0,5.0;" x1="48" x2="48" y1="90.1563" y2="1436.2266"/><line style="stroke:#181818;stroke-width:0.5;stroke-dasharray:5.0,5.0;" x1="1176.5" x2="1176.5" y1="90.1563" y2="1436.2266"/><text fill="#000000" font-family="sans-serif" font-size="20" lengthAdjust="spacing" textLength="51" x="20" y="85.7617">Agent</text><ellipse cx="48.5" cy="13.5" fill="#E2E2F0" rx="8" ry="8" style="stroke:#181818;stroke-width:0.5;"/><path d="M48.5,21.5 L48.5,48.5 M35.5,29.5 L61.5,29.5 M48.5,48.5 L35.5,63.5 M48.5,48.5 L61.5,63.5 " fill="none" style="stroke:#181818;stroke-width:0.5;"/><text fill="#000000" font-family="sans-serif" font-size="20" lengthAdjust="spacing" textLength="51" x="20" y="1455.9883">Agent</text><ellipse cx="48.5" cy="1468.8828" fill="#E2E2F0" rx="8" ry="8" style="stroke:#181818;stroke-width:0.5;"/><path d="M48.5,1476.8828 L48.5,1503.8828 M35.5,1484.8828 L61.5,1484.8828 M48.5,1503.8828 L35.5,1518.8828 M48.5,1503.8828 L61.5,1518.8828 " fill="none" style="stroke:#181818;stroke-width:0.5;"/><rect fill="#E2E2F0" height="39.1563" rx="2.5" ry="2.5" style="stroke:#181818;stroke-width:0.5;" width="86" x="1133.5" y="50"/><text fill="#000000" font-family="sans-serif" font-size="20" lengthAdjust="spacing" textLength="72" x="1140.5" y="77.7617">:System</text><rect fill="#E2E2F0" height="39.1563" rx="2.5" ry="2.5" style="stroke:#181818;stroke-width:0.5;" width="86" x="1133.5" y="1435.2266"/><text fill="#000000" font-family="sans-serif" font-size="20" lengthAdjust="spacing" textLength="72" x="1140.5" y="1462.9883">:System</text><rect fill="#FFFFFF" height="1327.0703" style="stroke:#181818;stroke-width:1.0;" width="10" x="43.5" y="100.1563"/><rect fill="#FFFFFF" height="39.1563" style="stroke:#181818;stroke-width:1.0;" width="10" x="1171.5" y="131.3125"/><rect fill="#FFFFFF" height="39.1563" style="stroke:#181818;stroke-width:1.0;" width="10" x="1171.5" y="209.625"/><rect fill="#FFFFFF" height="965.7969" style="stroke:#181818;stroke-width:1.0;" width="10" x="1171.5" y="287.9375"/><rect fill="#FFFFFF" height="133.3359" style="stroke:#181818;stroke-width:1.0;" width="10" x="1171.5" y="1292.8906"/><polygon fill="#181818" points="1159.5,127.3125,1169.5,131.3125,1159.5,135.3125,1163.5,131.3125" style="stroke:#181818;stroke-width:1.0;"/><line style="stroke:#181818;stroke-width:1.0;" x1="53.5" x2="1165.5" y1="131.3125" y2="131.3125"/><text fill="#000000" font-family="sans-serif" font-size="20" font-weight="bold" lengthAdjust="spacing" textLength="11" x="60.5" y="124.918">1</text><text fill="#000000" font-family="sans-serif" font-size="20" lengthAdjust="spacing" textLength="250" x="75.5" y="124.918">asks to announce a property</text><polygon fill="#181818" points="64.5,166.4688,54.5,170.4688,64.5,174.4688,60.5,170.4688" style="stroke:#181818;stroke-width:1.0;"/><line style="stroke:#181818;stroke-width:1.0;stroke-dasharray:2.0,2.0;" x1="58.5" x2="1175.5" y1="170.4688" y2="170.4688"/><text fill="#000000" font-family="sans-serif" font-size="20" font-weight="bold" lengthAdjust="spacing" textLength="11" x="70.5" y="164.0742">2</text><text fill="#000000" font-family="sans-serif" font-size="20" lengthAdjust="spacing" textLength="489" x="85.5" y="164.0742">shows the list of clients available and asks to select one</text><polygon fill="#181818" points="1159.5,205.625,1169.5,209.625,1159.5,213.625,1163.5,209.625" style="stroke:#181818;stroke-width:1.0;"/><line style="stroke:#181818;stroke-width:1.0;" x1="53.5" x2="1165.5" y1="209.625" y2="209.625"/><text fill="#000000" font-family="sans-serif" font-size="20" font-weight="bold" lengthAdjust="spacing" textLength="11" x="60.5" y="203.2305">3</text><text fill="#000000" font-family="sans-serif" font-size="20" lengthAdjust="spacing" textLength="130" x="75.5" y="203.2305">selects a client</text><polygon fill="#181818" points="64.5,244.7813,54.5,248.7813,64.5,252.7813,60.5,248.7813" style="stroke:#181818;stroke-width:1.0;"/><line style="stroke:#181818;stroke-width:1.0;stroke-dasharray:2.0,2.0;" x1="58.5" x2="1175.5" y1="248.7813" y2="248.7813"/><text fill="#000000" font-family="sans-serif" font-size="20" font-weight="bold" lengthAdjust="spacing" textLength="11" x="70.5" y="242.3867">4</text><text fill="#000000" font-family="sans-serif" font-size="20" lengthAdjust="spacing" textLength="454" x="85.5" y="242.3867">requests the property type (land, apartment, house)</text><polygon fill="#181818" points="1159.5,283.9375,1169.5,287.9375,1159.5,291.9375,1163.5,287.9375" style="stroke:#181818;stroke-width:1.0;"/><line style="stroke:#181818;stroke-width:1.0;" x1="53.5" x2="1165.5" y1="287.9375" y2="287.9375"/><text fill="#000000" font-family="sans-serif" font-size="20" font-weight="bold" lengthAdjust="spacing" textLength="11" x="60.5" y="281.543">5</text><text fill="#000000" font-family="sans-serif" font-size="20" lengthAdjust="spacing" textLength="220" x="75.5" y="281.543">types the requested data</text><polygon fill="#181818" points="64.5,323.0938,54.5,327.0938,64.5,331.0938,60.5,327.0938" style="stroke:#181818;stroke-width:1.0;"/><line style="stroke:#181818;stroke-width:1.0;stroke-dasharray:2.0,2.0;" x1="58.5" x2="1170.5" y1="327.0938" y2="327.0938"/><text fill="#000000" font-family="sans-serif" font-size="20" font-weight="bold" lengthAdjust="spacing" textLength="11" x="70.5" y="320.6992">6</text><text fill="#000000" font-family="sans-serif" font-size="20" lengthAdjust="spacing" textLength="714" x="85.5" y="320.6992">request the address, area, distance from city centre and photoURL (one or more)</text><polygon fill="#181818" points="1159.5,362.25,1169.5,366.25,1159.5,370.25,1163.5,366.25" style="stroke:#181818;stroke-width:1.0;"/><line style="stroke:#181818;stroke-width:1.0;" x1="53.5" x2="1165.5" y1="366.25" y2="366.25"/><text fill="#000000" font-family="sans-serif" font-size="20" font-weight="bold" lengthAdjust="spacing" textLength="11" x="60.5" y="359.8555">7</text><text fill="#000000" font-family="sans-serif" font-size="20" lengthAdjust="spacing" textLength="187" x="75.5" y="359.8555">types requested data</text><polygon fill="#181818" points="64.5,401.4063,54.5,405.4063,64.5,409.4063,60.5,405.4063" style="stroke:#181818;stroke-width:1.0;"/><line style="stroke:#181818;stroke-width:1.0;stroke-dasharray:2.0,2.0;" x1="58.5" x2="1170.5" y1="405.4063" y2="405.4063"/><text fill="#000000" font-family="sans-serif" font-size="20" font-weight="bold" lengthAdjust="spacing" textLength="11" x="70.5" y="399.0117">8</text><text fill="#000000" font-family="sans-serif" font-size="20" lengthAdjust="spacing" textLength="255" x="85.5" y="399.0117">request deal type (sale, rent)</text><polygon fill="#181818" points="1159.5,440.5625,1169.5,444.5625,1159.5,448.5625,1163.5,444.5625" style="stroke:#181818;stroke-width:1.0;"/><line style="stroke:#181818;stroke-width:1.0;" x1="53.5" x2="1165.5" y1="444.5625" y2="444.5625"/><text fill="#000000" font-family="sans-serif" font-size="20" font-weight="bold" lengthAdjust="spacing" textLength="11" x="60.5" y="438.168">9</text><text fill="#000000" font-family="sans-serif" font-size="20" lengthAdjust="spacing" textLength="187" x="75.5" y="438.168">types requested data</text><path d="M10,459.5625 L78,459.5625 L78,476.7188 L68,486.7188 L10,486.7188 L10,459.5625 " fill="#EEEEEE" style="stroke:#000000;stroke-width:1.5;"/><rect fill="none" height="208.5156" style="stroke:#000000;stroke-width:1.5;" width="1219.5" x="10" y="459.5625"/><text fill="#008000" font-family="sans-serif" font-size="20" font-weight="bold" lengthAdjust="spacing" textLength="23" x="25" y="481.3242">alt</text><text fill="#0000FF" font-family="sans-serif" font-size="15" font-weight="bold" lengthAdjust="spacing" textLength="39" x="93" y="477.1338">[sale]</text><polygon fill="#181818" points="64.5,517.7422,54.5,521.7422,64.5,525.7422,60.5,521.7422" style="stroke:#181818;stroke-width:1.0;"/><line style="stroke:#181818;stroke-width:1.0;stroke-dasharray:2.0,2.0;" x1="58.5" x2="1170.5" y1="521.7422" y2="521.7422"/><text fill="#000000" font-family="sans-serif" font-size="20" font-weight="bold" lengthAdjust="spacing" textLength="22" x="70.5" y="515.3477">10</text><text fill="#000000" font-family="sans-serif" font-size="20" lengthAdjust="spacing" textLength="157" x="96.5" y="515.3477">request sale price</text><polygon fill="#181818" points="1159.5,556.8984,1169.5,560.8984,1159.5,564.8984,1163.5,560.8984" style="stroke:#181818;stroke-width:1.0;"/><line style="stroke:#181818;stroke-width:1.0;" x1="53.5" x2="1165.5" y1="560.8984" y2="560.8984"/><text fill="#000000" font-family="sans-serif" font-size="20" font-weight="bold" lengthAdjust="spacing" textLength="22" x="60.5" y="554.5039">11</text><text fill="#000000" font-family="sans-serif" font-size="20" lengthAdjust="spacing" textLength="187" x="86.5" y="554.5039">types requested data</text><line style="stroke:#000000;stroke-width:1.0;stroke-dasharray:2.0,2.0;" x1="10" x2="1229.5" y1="569.8984" y2="569.8984"/><text fill="#0000FF" font-family="sans-serif" font-size="15" font-weight="bold" lengthAdjust="spacing" textLength="39" x="15" y="585.4697">[rent]</text><polygon fill="#181818" points="64.5,616.9219,54.5,620.9219,64.5,624.9219,60.5,620.9219" style="stroke:#181818;stroke-width:1.0;"/><line style="stroke:#181818;stroke-width:1.0;stroke-dasharray:2.0,2.0;" x1="58.5" x2="1170.5" y1="620.9219" y2="620.9219"/><text fill="#000000" font-family="sans-serif" font-size="20" font-weight="bold" lengthAdjust="spacing" textLength="22" x="70.5" y="614.5273">12</text><text fill="#000000" font-family="sans-serif" font-size="20" lengthAdjust="spacing" textLength="348" x="96.5" y="614.5273">request sale price and contract duration</text><polygon fill="#181818" points="1159.5,656.0781,1169.5,660.0781,1159.5,664.0781,1163.5,660.0781" style="stroke:#181818;stroke-width:1.0;"/><line style="stroke:#181818;stroke-width:1.0;" x1="53.5" x2="1165.5" y1="660.0781" y2="660.0781"/><text fill="#000000" font-family="sans-serif" font-size="20" font-weight="bold" lengthAdjust="spacing" textLength="22" x="60.5" y="653.6836">13</text><text fill="#000000" font-family="sans-serif" font-size="20" lengthAdjust="spacing" textLength="187" x="86.5" y="653.6836">types requested data</text><path d="M10,682.0781 L78,682.0781 L78,699.2344 L68,709.2344 L10,709.2344 L10,682.0781 " fill="#EEEEEE" style="stroke:#000000;stroke-width:1.5;"/><rect fill="none" height="109.3359" style="stroke:#000000;stroke-width:1.5;" width="1219.5" x="10" y="682.0781"/><text fill="#008000" font-family="sans-serif" font-size="20" font-weight="bold" lengthAdjust="spacing" textLength="23" x="25" y="703.8398">alt</text><text fill="#0000FF" font-family="sans-serif" font-size="15" font-weight="bold" lengthAdjust="spacing" textLength="148" x="93" y="699.6494">[apartment or house]</text><polygon fill="#181818" points="64.5,740.2578,54.5,744.2578,64.5,748.2578,60.5,744.2578" style="stroke:#181818;stroke-width:1.0;"/><line style="stroke:#181818;stroke-width:1.0;stroke-dasharray:2.0,2.0;" x1="58.5" x2="1170.5" y1="744.2578" y2="744.2578"/><text fill="#000000" font-family="sans-serif" font-size="20" font-weight="bold" lengthAdjust="spacing" textLength="22" x="70.5" y="737.8633">14</text><text fill="#000000" font-family="sans-serif" font-size="20" lengthAdjust="spacing" textLength="1068" x="96.5" y="737.8633">request the number of bedrooms, number of bathrooms, number of parking spaces and available equipment (one or more)</text><polygon fill="#181818" points="1159.5,779.4141,1169.5,783.4141,1159.5,787.4141,1163.5,783.4141" style="stroke:#181818;stroke-width:1.0;"/><line style="stroke:#181818;stroke-width:1.0;" x1="53.5" x2="1165.5" y1="783.4141" y2="783.4141"/><text fill="#000000" font-family="sans-serif" font-size="20" font-weight="bold" lengthAdjust="spacing" textLength="22" x="60.5" y="777.0195">15</text><text fill="#000000" font-family="sans-serif" font-size="20" lengthAdjust="spacing" textLength="187" x="86.5" y="777.0195">types requested data</text><path d="M10,805.4141 L78,805.4141 L78,822.5703 L68,832.5703 L10,832.5703 L10,805.4141 " fill="#EEEEEE" style="stroke:#000000;stroke-width:1.5;"/><rect fill="none" height="109.3359" style="stroke:#000000;stroke-width:1.5;" width="1219.5" x="10" y="805.4141"/><text fill="#008000" font-family="sans-serif" font-size="20" font-weight="bold" lengthAdjust="spacing" textLength="23" x="25" y="827.1758">alt</text><text fill="#0000FF" font-family="sans-serif" font-size="15" font-weight="bold" lengthAdjust="spacing" textLength="54" x="93" y="822.9854">[house]</text><polygon fill="#181818" points="64.5,863.5938,54.5,867.5938,64.5,871.5938,60.5,867.5938" style="stroke:#181818;stroke-width:1.0;"/><line style="stroke:#181818;stroke-width:1.0;stroke-dasharray:2.0,2.0;" x1="58.5" x2="1170.5" y1="867.5938" y2="867.5938"/><text fill="#000000" font-family="sans-serif" font-size="20" font-weight="bold" lengthAdjust="spacing" textLength="22" x="70.5" y="861.1992">16</text><text fill="#000000" font-family="sans-serif" font-size="20" lengthAdjust="spacing" textLength="797" x="96.5" y="861.1992">request if it has basement, inhabitable loft and how is the sun exposure (high, low, medium)</text><polygon fill="#181818" points="1159.5,902.75,1169.5,906.75,1159.5,910.75,1163.5,906.75" style="stroke:#181818;stroke-width:1.0;"/><line style="stroke:#181818;stroke-width:1.0;" x1="53.5" x2="1165.5" y1="906.75" y2="906.75"/><text fill="#000000" font-family="sans-serif" font-size="20" font-weight="bold" lengthAdjust="spacing" textLength="22" x="60.5" y="900.3555">17</text><text fill="#000000" font-family="sans-serif" font-size="20" lengthAdjust="spacing" textLength="187" x="86.5" y="900.3555">types requested data</text><polygon fill="#181818" points="64.5,948.9063,54.5,952.9063,64.5,956.9063,60.5,952.9063" style="stroke:#181818;stroke-width:1.0;"/><line style="stroke:#181818;stroke-width:1.0;stroke-dasharray:2.0,2.0;" x1="58.5" x2="1170.5" y1="952.9063" y2="952.9063"/><text fill="#000000" font-family="sans-serif" font-size="20" font-weight="bold" lengthAdjust="spacing" textLength="22" x="70.5" y="946.5117">18</text><text fill="#000000" font-family="sans-serif" font-size="20" lengthAdjust="spacing" textLength="471" x="96.5" y="946.5117">request the commission type (fix amount, percentage)</text><polygon fill="#181818" points="1159.5,988.0625,1169.5,992.0625,1159.5,996.0625,1163.5,992.0625" style="stroke:#181818;stroke-width:1.0;"/><line style="stroke:#181818;stroke-width:1.0;" x1="53.5" x2="1165.5" y1="992.0625" y2="992.0625"/><text fill="#000000" font-family="sans-serif" font-size="20" font-weight="bold" lengthAdjust="spacing" textLength="22" x="60.5" y="985.668">19</text><text fill="#000000" font-family="sans-serif" font-size="20" lengthAdjust="spacing" textLength="187" x="86.5" y="985.668">types requested data</text><path d="M10,1007.0625 L78,1007.0625 L78,1024.2188 L68,1034.2188 L10,1034.2188 L10,1007.0625 " fill="#EEEEEE" style="stroke:#000000;stroke-width:1.5;"/><rect fill="none" height="208.5156" style="stroke:#000000;stroke-width:1.5;" width="1219.5" x="10" y="1007.0625"/><text fill="#008000" font-family="sans-serif" font-size="20" font-weight="bold" lengthAdjust="spacing" textLength="23" x="25" y="1028.8242">alt</text><text fill="#0000FF" font-family="sans-serif" font-size="15" font-weight="bold" lengthAdjust="spacing" textLength="83" x="93" y="1024.6338">[fix amount]</text><polygon fill="#181818" points="64.5,1065.2422,54.5,1069.2422,64.5,1073.2422,60.5,1069.2422" style="stroke:#181818;stroke-width:1.0;"/><line style="stroke:#181818;stroke-width:1.0;stroke-dasharray:2.0,2.0;" x1="58.5" x2="1170.5" y1="1069.2422" y2="1069.2422"/><text fill="#000000" font-family="sans-serif" font-size="20" font-weight="bold" lengthAdjust="spacing" textLength="22" x="70.5" y="1062.8477">20</text><text fill="#000000" font-family="sans-serif" font-size="20" lengthAdjust="spacing" textLength="353" x="96.5" y="1062.8477">request the commission fix amount value</text><polygon fill="#181818" points="1159.5,1104.3984,1169.5,1108.3984,1159.5,1112.3984,1163.5,1108.3984" style="stroke:#181818;stroke-width:1.0;"/><line style="stroke:#181818;stroke-width:1.0;" x1="53.5" x2="1165.5" y1="1108.3984" y2="1108.3984"/><text fill="#000000" font-family="sans-serif" font-size="20" font-weight="bold" lengthAdjust="spacing" textLength="22" x="60.5" y="1102.0039">21</text><text fill="#000000" font-family="sans-serif" font-size="20" lengthAdjust="spacing" textLength="187" x="86.5" y="1102.0039">types requested data</text><line style="stroke:#000000;stroke-width:1.0;stroke-dasharray:2.0,2.0;" x1="10" x2="1229.5" y1="1117.3984" y2="1117.3984"/><text fill="#0000FF" font-family="sans-serif" font-size="15" font-weight="bold" lengthAdjust="spacing" textLength="91" x="15" y="1132.9697">[percentage]</text><polygon fill="#181818" points="64.5,1164.4219,54.5,1168.4219,64.5,1172.4219,60.5,1168.4219" style="stroke:#181818;stroke-width:1.0;"/><line style="stroke:#181818;stroke-width:1.0;stroke-dasharray:2.0,2.0;" x1="58.5" x2="1170.5" y1="1168.4219" y2="1168.4219"/><text fill="#000000" font-family="sans-serif" font-size="20" font-weight="bold" lengthAdjust="spacing" textLength="22" x="70.5" y="1162.0273">22</text><text fill="#000000" font-family="sans-serif" font-size="20" lengthAdjust="spacing" textLength="363" x="96.5" y="1162.0273">request the commission percentage value</text><polygon fill="#181818" points="1159.5,1203.5781,1169.5,1207.5781,1159.5,1211.5781,1163.5,1207.5781" style="stroke:#181818;stroke-width:1.0;"/><line style="stroke:#181818;stroke-width:1.0;" x1="53.5" x2="1165.5" y1="1207.5781" y2="1207.5781"/><text fill="#000000" font-family="sans-serif" font-size="20" font-weight="bold" lengthAdjust="spacing" textLength="22" x="60.5" y="1201.1836">23</text><text fill="#000000" font-family="sans-serif" font-size="20" lengthAdjust="spacing" textLength="187" x="86.5" y="1201.1836">types requested data</text><polygon fill="#181818" points="64.5,1249.7344,54.5,1253.7344,64.5,1257.7344,60.5,1253.7344" style="stroke:#181818;stroke-width:1.0;"/><line style="stroke:#181818;stroke-width:1.0;stroke-dasharray:2.0,2.0;" x1="58.5" x2="1175.5" y1="1253.7344" y2="1253.7344"/><text fill="#000000" font-family="sans-serif" font-size="20" font-weight="bold" lengthAdjust="spacing" textLength="22" x="70.5" y="1247.3398">24</text><text fill="#000000" font-family="sans-serif" font-size="20" lengthAdjust="spacing" textLength="448" x="96.5" y="1247.3398">shows the announcement and asks for confirmation</text><polygon fill="#181818" points="1159.5,1288.8906,1169.5,1292.8906,1159.5,1296.8906,1163.5,1292.8906" style="stroke:#181818;stroke-width:1.0;"/><line style="stroke:#181818;stroke-width:1.0;" x1="53.5" x2="1165.5" y1="1292.8906" y2="1292.8906"/><text fill="#000000" font-family="sans-serif" font-size="20" font-weight="bold" lengthAdjust="spacing" textLength="22" x="60.5" y="1286.4961">25</text><text fill="#000000" font-family="sans-serif" font-size="20" lengthAdjust="spacing" textLength="187" x="86.5" y="1286.4961">types requested data</text><path d="M10,1307.8906 L78,1307.8906 L78,1325.0469 L68,1335.0469 L10,1335.0469 L10,1307.8906 " fill="#EEEEEE" style="stroke:#000000;stroke-width:1.5;"/><rect fill="none" height="111.3359" style="stroke:#000000;stroke-width:1.5;" width="1219.5" x="10" y="1307.8906"/><text fill="#008000" font-family="sans-serif" font-size="20" font-weight="bold" lengthAdjust="spacing" textLength="23" x="25" y="1329.6523">alt</text><text fill="#0000FF" font-family="sans-serif" font-size="15" font-weight="bold" lengthAdjust="spacing" textLength="71" x="93" y="1325.4619">[confirms]</text><polygon fill="#181818" points="64.5,1366.0703,54.5,1370.0703,64.5,1374.0703,60.5,1370.0703" style="stroke:#181818;stroke-width:1.0;"/><line style="stroke:#181818;stroke-width:1.0;stroke-dasharray:2.0,2.0;" x1="58.5" x2="1170.5" y1="1370.0703" y2="1370.0703"/><text fill="#000000" font-family="sans-serif" font-size="20" font-weight="bold" lengthAdjust="spacing" textLength="22" x="70.5" y="1363.6758">26</text><text fill="#000000" font-family="sans-serif" font-size="20" lengthAdjust="spacing" textLength="239" x="96.5" y="1363.6758">Displays operation success</text><line style="stroke:#000000;stroke-width:1.0;stroke-dasharray:2.0,2.0;" x1="10" x2="1229.5" y1="1379.0703" y2="1379.0703"/><polygon fill="#181818" points="64.5,1407.2266,54.5,1411.2266,64.5,1415.2266,60.5,1411.2266" style="stroke:#181818;stroke-width:1.0;"/><line style="stroke:#181818;stroke-width:1.0;stroke-dasharray:2.0,2.0;" x1="58.5" x2="1170.5" y1="1411.2266" y2="1411.2266"/><text fill="#000000" font-family="sans-serif" font-size="20" font-weight="bold" lengthAdjust="spacing" textLength="22" x="70.5" y="1404.832">27</text><text fill="#000000" font-family="sans-serif" font-size="20" lengthAdjust="spacing" textLength="234" x="96.5" y="1404.832">Displays operation refused</text><!--SRC=[bLJ1Rjim3BtxAuXUqW4fi0tOfOS1mOPkXnKOLkm368kEYSgI9ybjiw_Va-pKxT8sIKw1nKS-Fl8ntghhEN1dVNqhXemqFDXqvLswqRz27zzN2xQ9OjfQTPigxkBfHluCuchv5lpGVnSs4ZBgYxS-q2Q8kDU2vx2r7UIjg4BXmwTgSQt6MA4a3pELnGoC4_1QOkIDhAnk7DNYaeI3OKQ3r4czgtX8tWtT6g2AwmH-PwiDafmHHrfLo96qrfvTehFBcsrCqfMdyM_1w1qdGMoreelFqmDT8kWsKlB4pla118Yf3xwNaBOpQfTcGbqWmGhOsFfxW5iXgp6HRwYs2bQH-8xLyXgwi3EFDQ9Oz4FUIMLaB_bpNcCiCaqvzyaij87W-DBbv_-eXQndJ2ExNKEKjhtGkGMd9N4MBKENrFeXohl3d39yp3Ybprl9YGyADOKNA1iJC6GG2C9Bp1WzPDsRu3kg5IppTeHHkRxroV_-zOFE8HfXx9qFOFeIhVyelKO1JTf9XyXMbdXmwRYCnMp0L8JVA-dpE_JMUemw8gtOA8N4SMcBB3KC620wcI5mCSYnnPmP-tYSVXQrpF-jydbke_toag_51EyxZF39DqxjtaVKWC4t57kkmQLOuT4OIArzOV1yjgTsSf0yRA88mpLOSvHnuzMrlDPKY5ZVfC8DRYOTzpiEZkIXzt708fwtkccNYBjVKYT6X-uqbc-8MlkkqnWnmMad6tqWxd29G1AUpLR0EJn-FsVyeNa-AJs3w8xptJzbTMUM9rISGITMV47F-GhlRdZPgiV3ss2rO9X6GpTwvSWxT-Z6BQxKuPRyX956xQSYyIKTlchiBMyZvKjSQ637QhWY5XMFX0HfiEncb66lZNy0]--></g></svg>