<?xml version="1.0" encoding="UTF-8" standalone="no"?><svg xmlns="http://www.w3.org/2000/svg" xmlns:xlink="http://www.w3.org/1999/xlink" contentStyleType="text/css" height="2552px" preserveAspectRatio="none" style="width:3747px;height:2552px;background:#FFFFFF;" version="1.1" viewBox="0 0 3747 2552" width="3747px" zoomAndPan="magnify"><defs/><g><rect fill="#FFFFFF" height="2348" style="stroke:#181818;stroke-width:1.0;" width="10" x="118.5" y="98.2813"/><rect fill="#FFFFFF" height="407.0938" style="stroke:#181818;stroke-width:1.0;" width="10" x="636.5" y="127.5625"/><rect fill="#FFFFFF" height="37.2813" style="stroke:#181818;stroke-width:1.0;" width="10" x="636.5" y="571.9375"/><rect fill="#FFFFFF" height="37.2813" style="stroke:#181818;stroke-width:1.0;" width="10" x="636.5" y="693.0625"/><rect fill="#FFFFFF" height="1678.6563" style="stroke:#181818;stroke-width:1.0;" width="10" x="636.5" y="767.625"/><rect fill="#FFFFFF" height="260.9688" style="stroke:#181818;stroke-width:1.0;" width="10" x="951.5" y="213.125"/><rect fill="#FFFFFF" height="1487.6875" style="stroke:#181818;stroke-width:1.0;" width="10" x="951.5" y="921.3125"/><rect fill="#FFFFFF" height="271.9688" style="stroke:#181818;stroke-width:1.0;" width="10" x="956.5" y="966.5938"/><rect fill="#FFFFFF" height="617.7813" style="stroke:#181818;stroke-width:1.0;" width="10" x="956.5" y="1315.8438"/><rect fill="#FFFFFF" height="37.2813" style="stroke:#181818;stroke-width:1.0;" width="10" x="1577.5" y="250.4063"/><rect fill="#FFFFFF" height="37.2813" style="stroke:#181818;stroke-width:1.0;" width="10" x="1577.5" y="1008.875"/><rect fill="#FFFFFF" height="37.2813" style="stroke:#181818;stroke-width:1.0;" width="10" x="1731.5" y="324.9688"/><rect fill="#FFFFFF" height="37.2813" style="stroke:#181818;stroke-width:1.0;" width="10" x="1731.5" y="1083.4375"/><rect fill="#FFFFFF" height="37.2813" style="stroke:#181818;stroke-width:1.0;" width="10" x="1731.5" y="1581.8125"/><rect fill="#FFFFFF" height="37.2813" style="stroke:#181818;stroke-width:1.0;" width="10" x="1943" y="399.5313"/><rect fill="#FFFFFF" height="37.2813" style="stroke:#181818;stroke-width:1.0;" width="10" x="1943" y="1158"/><rect fill="#FFFFFF" height="37.2813" style="stroke:#181818;stroke-width:1.0;" width="10" x="2188" y="1358.125"/><rect fill="#FFFFFF" height="37.2813" style="stroke:#181818;stroke-width:1.0;" width="10" x="2409" y="1432.6875"/><rect fill="#FFFFFF" height="37.2813" style="stroke:#181818;stroke-width:1.0;" width="10" x="2606" y="1507.25"/><rect fill="#FFFFFF" height="159.4063" style="stroke:#181818;stroke-width:1.0;" width="10" x="2824" y="1656.375"/><rect fill="#FFFFFF" height="37.2813" style="stroke:#181818;stroke-width:1.0;" width="10" x="3186" y="1734.2188"/><rect fill="#FFFFFF" height="37.2813" style="stroke:#181818;stroke-width:1.0;" width="10" x="3186" y="1853.0625"/><rect fill="#FFFFFF" height="322.25" style="stroke:#181818;stroke-width:1.0;" width="10" x="3186" y="2049.4688"/><rect fill="#FFFFFF" height="148.8438" style="stroke:#181818;stroke-width:1.0;" width="10" x="3191" y="2178.5938"/><rect fill="#FFFFFF" height="48.2813" style="stroke:#181818;stroke-width:1.0;" width="10" x="3196" y="2228.875"/><rect fill="none" height="108.125" style="stroke:#000000;stroke-width:1.5;" width="584" x="2692.5" y="1671.375"/><line style="stroke:#181818;stroke-width:0.5;stroke-dasharray:5.0,5.0;" x1="123" x2="123" y1="88.2813" y2="2464.2813"/><line style="stroke:#181818;stroke-width:0.5;stroke-dasharray:5.0,5.0;" x1="641.5" x2="641.5" y1="88.2813" y2="2464.2813"/><line style="stroke:#181818;stroke-width:0.5;stroke-dasharray:5.0,5.0;" x1="956.5" x2="956.5" y1="169.7031" y2="2464.2813"/><line style="stroke:#181818;stroke-width:0.5;stroke-dasharray:5.0,5.0;" x1="1582.5" x2="1582.5" y1="88.2813" y2="2464.2813"/><line style="stroke:#181818;stroke-width:0.5;stroke-dasharray:5.0,5.0;" x1="1736.5" x2="1736.5" y1="88.2813" y2="2464.2813"/><line style="stroke:#181818;stroke-width:0.5;stroke-dasharray:5.0,5.0;" x1="1947.5" x2="1947.5" y1="88.2813" y2="2464.2813"/><line style="stroke:#181818;stroke-width:0.5;stroke-dasharray:5.0,5.0;" x1="2192.5" x2="2192.5" y1="88.2813" y2="2464.2813"/><line style="stroke:#181818;stroke-width:0.5;stroke-dasharray:5.0,5.0;" x1="2413.5" x2="2413.5" y1="88.2813" y2="2464.2813"/><line style="stroke:#181818;stroke-width:0.5;stroke-dasharray:5.0,5.0;" x1="2610.5" x2="2610.5" y1="88.2813" y2="2464.2813"/><line style="stroke:#181818;stroke-width:0.5;stroke-dasharray:5.0,5.0;" x1="2828.5" x2="2828.5" y1="88.2813" y2="2464.2813"/><line style="stroke:#181818;stroke-width:0.5;stroke-dasharray:5.0,5.0;" x1="3190.5" x2="3190.5" y1="88.2813" y2="2464.2813"/><line style="stroke:#181818;stroke-width:0.5;stroke-dasharray:5.0,5.0;" x1="3707" x2="3707" y1="2109.3906" y2="2464.2813"/><text fill="#000000" font-family="sans-serif" font-size="20" lengthAdjust="spacing" textLength="231" x="5" y="83.5645">System Admininstrator</text><ellipse cx="123.5" cy="13.5" fill="#FFC0CB" rx="8" ry="8" style="stroke:#181818;stroke-width:0.5;"/><path d="M123.5,21.5 L123.5,48.5 M110.5,29.5 L136.5,29.5 M123.5,48.5 L110.5,63.5 M123.5,48.5 L136.5,63.5 " fill="none" style="stroke:#181818;stroke-width:0.5;"/><text fill="#000000" font-family="sans-serif" font-size="20" lengthAdjust="spacing" textLength="231" x="5" y="2481.8457">System Admininstrator</text><ellipse cx="123.5" cy="2495.0625" fill="#FFC0CB" rx="8" ry="8" style="stroke:#181818;stroke-width:0.5;"/><path d="M123.5,2503.0625 L123.5,2530.0625 M110.5,2511.0625 L136.5,2511.0625 M123.5,2530.0625 L110.5,2545.0625 M123.5,2530.0625 L136.5,2545.0625 " fill="none" style="stroke:#181818;stroke-width:0.5;"/><rect fill="#E2E2F0" height="37.2813" rx="2.5" ry="2.5" style="stroke:#181818;stroke-width:0.5;" width="244" x="519.5" y="50"/><text fill="#000000" font-family="sans-serif" font-size="20" lengthAdjust="spacing" textLength="230" x="526.5" y="75.5645">:ImportBusinessDataUI</text><rect fill="#E2E2F0" height="37.2813" rx="2.5" ry="2.5" style="stroke:#181818;stroke-width:0.5;" width="244" x="519.5" y="2463.2813"/><text fill="#000000" font-family="sans-serif" font-size="20" lengthAdjust="spacing" textLength="230" x="526.5" y="2488.8457">:ImportBusinessDataUI</text><rect fill="#E2E2F0" height="37.2813" rx="2.5" ry="2.5" style="stroke:#181818;stroke-width:0.5;" width="334" x="789.5" y="2463.2813"/><text fill="#000000" font-family="sans-serif" font-size="20" lengthAdjust="spacing" textLength="320" x="796.5" y="2488.8457">:ImportBusinessDatakController</text><rect fill="#E2E2F0" height="37.2813" rx="2.5" ry="2.5" style="stroke:#181818;stroke-width:0.5;" width="144" x="1510.5" y="50"/><text fill="#000000" font-family="sans-serif" font-size="20" lengthAdjust="spacing" textLength="130" x="1517.5" y="75.5645">:Repositories</text><rect fill="#E2E2F0" height="37.2813" rx="2.5" ry="2.5" style="stroke:#181818;stroke-width:0.5;" width="144" x="1510.5" y="2463.2813"/><text fill="#000000" font-family="sans-serif" font-size="20" lengthAdjust="spacing" textLength="130" x="1517.5" y="2488.8457">:Repositories</text><rect fill="#E2E2F0" height="60.5625" rx="2.5" ry="2.5" style="stroke:#181818;stroke-width:0.5;" width="144" x="1664.5" y="26.7188"/><text fill="#000000" font-family="sans-serif" font-size="20" lengthAdjust="spacing" textLength="117" x="1678" y="52.2832">repositories</text><text fill="#000000" font-family="sans-serif" font-size="20" lengthAdjust="spacing" textLength="130" x="1671.5" y="75.5645">:Repositories</text><rect fill="#E2E2F0" height="60.5625" rx="2.5" ry="2.5" style="stroke:#181818;stroke-width:0.5;" width="144" x="1664.5" y="2463.2813"/><text fill="#000000" font-family="sans-serif" font-size="20" lengthAdjust="spacing" textLength="117" x="1678" y="2488.8457">repositories</text><text fill="#000000" font-family="sans-serif" font-size="20" lengthAdjust="spacing" textLength="130" x="1671.5" y="2512.127">:Repositories</text><rect fill="#E2E2F0" height="60.5625" rx="2.5" ry="2.5" style="stroke:#181818;stroke-width:0.5;" width="259" x="1818.5" y="26.7188"/><text fill="#000000" font-family="sans-serif" font-size="20" lengthAdjust="spacing" textLength="245" x="1825.5" y="52.2832">taskCategoryRepository:</text><text fill="#000000" font-family="sans-serif" font-size="20" lengthAdjust="spacing" textLength="242" x="1827" y="75.5645">TaskCategoryRepository</text><rect fill="#E2E2F0" height="60.5625" rx="2.5" ry="2.5" style="stroke:#181818;stroke-width:0.5;" width="259" x="1818.5" y="2463.2813"/><text fill="#000000" font-family="sans-serif" font-size="20" lengthAdjust="spacing" textLength="245" x="1825.5" y="2488.8457">taskCategoryRepository:</text><text fill="#000000" font-family="sans-serif" font-size="20" lengthAdjust="spacing" textLength="242" x="1827" y="2512.127">TaskCategoryRepository</text><rect fill="#E2E2F0" height="37.2813" rx="2.5" ry="2.5" style="stroke:#181818;stroke-width:0.5;" width="211" x="2087.5" y="50"/><text fill="#000000" font-family="sans-serif" font-size="20" lengthAdjust="spacing" textLength="197" x="2094.5" y="75.5645">:ApplicationSession</text><rect fill="#E2E2F0" height="37.2813" rx="2.5" ry="2.5" style="stroke:#181818;stroke-width:0.5;" width="211" x="2087.5" y="2463.2813"/><text fill="#000000" font-family="sans-serif" font-size="20" lengthAdjust="spacing" textLength="197" x="2094.5" y="2488.8457">:ApplicationSession</text><rect fill="#E2E2F0" height="60.5625" rx="2.5" ry="2.5" style="stroke:#181818;stroke-width:0.5;" width="211" x="2308.5" y="26.7188"/><text fill="#000000" font-family="sans-serif" font-size="20" lengthAdjust="spacing" textLength="114" x="2357" y="52.2832">appSession</text><text fill="#000000" font-family="sans-serif" font-size="20" lengthAdjust="spacing" textLength="197" x="2315.5" y="75.5645">:ApplicationSession</text><rect fill="#E2E2F0" height="60.5625" rx="2.5" ry="2.5" style="stroke:#181818;stroke-width:0.5;" width="211" x="2308.5" y="2463.2813"/><text fill="#000000" font-family="sans-serif" font-size="20" lengthAdjust="spacing" textLength="114" x="2357" y="2488.8457">appSession</text><text fill="#000000" font-family="sans-serif" font-size="20" lengthAdjust="spacing" textLength="197" x="2315.5" y="2512.127">:ApplicationSession</text><rect fill="#E2E2F0" height="60.5625" rx="2.5" ry="2.5" style="stroke:#181818;stroke-width:0.5;" width="163" x="2529.5" y="26.7188"/><text fill="#000000" font-family="sans-serif" font-size="20" lengthAdjust="spacing" textLength="149" x="2536.5" y="52.2832">currentSession</text><text fill="#000000" font-family="sans-serif" font-size="20" lengthAdjust="spacing" textLength="128" x="2547" y="75.5645">:UserSession</text><rect fill="#E2E2F0" height="60.5625" rx="2.5" ry="2.5" style="stroke:#181818;stroke-width:0.5;" width="163" x="2529.5" y="2463.2813"/><text fill="#000000" font-family="sans-serif" font-size="20" lengthAdjust="spacing" textLength="149" x="2536.5" y="2488.8457">currentSession</text><text fill="#000000" font-family="sans-serif" font-size="20" lengthAdjust="spacing" textLength="128" x="2547" y="2512.127">:UserSession</text><rect fill="#E2E2F0" height="60.5625" rx="2.5" ry="2.5" style="stroke:#181818;stroke-width:0.5;" width="253" x="2702.5" y="26.7188"/><text fill="#000000" font-family="sans-serif" font-size="20" lengthAdjust="spacing" textLength="239" x="2709.5" y="52.2832">organizationRepository:</text><text fill="#000000" font-family="sans-serif" font-size="20" lengthAdjust="spacing" textLength="236" x="2711" y="75.5645">OrganizationRepository</text><rect fill="#E2E2F0" height="60.5625" rx="2.5" ry="2.5" style="stroke:#181818;stroke-width:0.5;" width="253" x="2702.5" y="2463.2813"/><text fill="#000000" font-family="sans-serif" font-size="20" lengthAdjust="spacing" textLength="239" x="2709.5" y="2488.8457">organizationRepository:</text><text fill="#000000" font-family="sans-serif" font-size="20" lengthAdjust="spacing" textLength="236" x="2711" y="2512.127">OrganizationRepository</text><rect fill="#E2E2F0" height="60.5625" rx="2.5" ry="2.5" style="stroke:#181818;stroke-width:0.5;" width="151" x="3115.5" y="26.7188"/><text fill="#000000" font-family="sans-serif" font-size="20" lengthAdjust="spacing" textLength="126" x="3128" y="52.2832">organization</text><text fill="#000000" font-family="sans-serif" font-size="20" lengthAdjust="spacing" textLength="137" x="3122.5" y="75.5645">:Organization</text><rect fill="#E2E2F0" height="60.5625" rx="2.5" ry="2.5" style="stroke:#181818;stroke-width:0.5;" width="151" x="3115.5" y="2463.2813"/><text fill="#000000" font-family="sans-serif" font-size="20" lengthAdjust="spacing" textLength="126" x="3128" y="2488.8457">organization</text><text fill="#000000" font-family="sans-serif" font-size="20" lengthAdjust="spacing" textLength="137" x="3122.5" y="2512.127">:Organization</text><rect fill="#E2E2F0" height="60.5625" rx="2.5" ry="2.5" style="stroke:#181818;stroke-width:0.5;" width="67" x="3674" y="2463.2813"/><text fill="#000000" font-family="sans-serif" font-size="20" lengthAdjust="spacing" textLength="42" x="3686.5" y="2488.8457">task</text><text fill="#000000" font-family="sans-serif" font-size="20" lengthAdjust="spacing" textLength="53" x="3681" y="2512.127">:Task</text><rect fill="#FFFFFF" height="2348" style="stroke:#181818;stroke-width:1.0;" width="10" x="118.5" y="98.2813"/><rect fill="#FFFFFF" height="407.0938" style="stroke:#181818;stroke-width:1.0;" width="10" x="636.5" y="127.5625"/><rect fill="#FFFFFF" height="37.2813" style="stroke:#181818;stroke-width:1.0;" width="10" x="636.5" y="571.9375"/><rect fill="#FFFFFF" height="37.2813" style="stroke:#181818;stroke-width:1.0;" width="10" x="636.5" y="693.0625"/><rect fill="#FFFFFF" height="1678.6563" style="stroke:#181818;stroke-width:1.0;" width="10" x="636.5" y="767.625"/><rect fill="#FFFFFF" height="260.9688" style="stroke:#181818;stroke-width:1.0;" width="10" x="951.5" y="213.125"/><rect fill="#FFFFFF" height="1487.6875" style="stroke:#181818;stroke-width:1.0;" width="10" x="951.5" y="921.3125"/><rect fill="#FFFFFF" height="271.9688" style="stroke:#181818;stroke-width:1.0;" width="10" x="956.5" y="966.5938"/><rect fill="#FFFFFF" height="617.7813" style="stroke:#181818;stroke-width:1.0;" width="10" x="956.5" y="1315.8438"/><rect fill="#FFFFFF" height="37.2813" style="stroke:#181818;stroke-width:1.0;" width="10" x="1577.5" y="250.4063"/><rect fill="#FFFFFF" height="37.2813" style="stroke:#181818;stroke-width:1.0;" width="10" x="1577.5" y="1008.875"/><rect fill="#FFFFFF" height="37.2813" style="stroke:#181818;stroke-width:1.0;" width="10" x="1731.5" y="324.9688"/><rect fill="#FFFFFF" height="37.2813" style="stroke:#181818;stroke-width:1.0;" width="10" x="1731.5" y="1083.4375"/><rect fill="#FFFFFF" height="37.2813" style="stroke:#181818;stroke-width:1.0;" width="10" x="1731.5" y="1581.8125"/><rect fill="#FFFFFF" height="37.2813" style="stroke:#181818;stroke-width:1.0;" width="10" x="1943" y="399.5313"/><rect fill="#FFFFFF" height="37.2813" style="stroke:#181818;stroke-width:1.0;" width="10" x="1943" y="1158"/><rect fill="#FFFFFF" height="37.2813" style="stroke:#181818;stroke-width:1.0;" width="10" x="2188" y="1358.125"/><rect fill="#FFFFFF" height="37.2813" style="stroke:#181818;stroke-width:1.0;" width="10" x="2409" y="1432.6875"/><rect fill="#FFFFFF" height="37.2813" style="stroke:#181818;stroke-width:1.0;" width="10" x="2606" y="1507.25"/><rect fill="#FFFFFF" height="159.4063" style="stroke:#181818;stroke-width:1.0;" width="10" x="2824" y="1656.375"/><rect fill="#FFFFFF" height="37.2813" style="stroke:#181818;stroke-width:1.0;" width="10" x="3186" y="1734.2188"/><rect fill="#FFFFFF" height="37.2813" style="stroke:#181818;stroke-width:1.0;" width="10" x="3186" y="1853.0625"/><rect fill="#FFFFFF" height="322.25" style="stroke:#181818;stroke-width:1.0;" width="10" x="3186" y="2049.4688"/><rect fill="#FFFFFF" height="148.8438" style="stroke:#181818;stroke-width:1.0;" width="10" x="3191" y="2178.5938"/><rect fill="#FFFFFF" height="48.2813" style="stroke:#181818;stroke-width:1.0;" width="10" x="3196" y="2228.875"/><polygon fill="#181818" points="624.5,123.5625,634.5,127.5625,624.5,131.5625,628.5,127.5625" style="stroke:#181818;stroke-width:1.0;"/><line style="stroke:#181818;stroke-width:1.0;" x1="128.5" x2="630.5" y1="127.5625" y2="127.5625"/><text fill="#000000" font-family="sans-serif" font-size="20" font-weight="bold" lengthAdjust="spacing" textLength="14" x="135.5" y="120.8457">1</text><text fill="#000000" font-family="sans-serif" font-size="20" lengthAdjust="spacing" textLength="359" x="153.5" y="120.8457">asks to import business information</text><polygon fill="#181818" points="777.5,160.8438,787.5,164.8438,777.5,168.8438,781.5,164.8438" style="stroke:#181818;stroke-width:1.0;"/><line style="stroke:#181818;stroke-width:1.0;" x1="646.5" x2="783.5" y1="164.8438" y2="164.8438"/><text fill="#000000" font-family="sans-serif" font-size="20" font-weight="bold" lengthAdjust="spacing" textLength="14" x="653.5" y="158.127">2</text><text fill="#000000" font-family="sans-serif" font-size="20" lengthAdjust="spacing" textLength="63" x="671.5" y="158.127">create</text><rect fill="#E2E2F0" height="37.2813" rx="2.5" ry="2.5" style="stroke:#181818;stroke-width:0.5;" width="334" x="789.5" y="135.5625"/><text fill="#000000" font-family="sans-serif" font-size="20" lengthAdjust="spacing" textLength="320" x="796.5" y="161.127">:ImportBusinessDatakController</text><polygon fill="#181818" points="939.5,209.125,949.5,213.125,939.5,217.125,943.5,213.125" style="stroke:#181818;stroke-width:1.0;"/><line style="stroke:#181818;stroke-width:1.0;" x1="646.5" x2="945.5" y1="213.125" y2="213.125"/><text fill="#000000" font-family="sans-serif" font-size="20" font-weight="bold" lengthAdjust="spacing" textLength="14" x="653.5" y="206.4082">3</text><text fill="#000000" font-family="sans-serif" font-size="20" lengthAdjust="spacing" textLength="202" x="671.5" y="206.4082">getTaskCategories()</text><polygon fill="#181818" points="1565.5,246.4063,1575.5,250.4063,1565.5,254.4063,1569.5,250.4063" style="stroke:#181818;stroke-width:1.0;"/><line style="stroke:#181818;stroke-width:1.0;" x1="961.5" x2="1571.5" y1="250.4063" y2="250.4063"/><text fill="#000000" font-family="sans-serif" font-size="20" font-weight="bold" lengthAdjust="spacing" textLength="14" x="968.5" y="243.6895">4</text><text fill="#000000" font-family="sans-serif" font-size="20" lengthAdjust="spacing" textLength="134" x="986.5" y="243.6895">getInstance()</text><polygon fill="#181818" points="972.5,283.6875,962.5,287.6875,972.5,291.6875,968.5,287.6875" style="stroke:#181818;stroke-width:1.0;"/><line style="stroke:#181818;stroke-width:1.0;stroke-dasharray:2.0,2.0;" x1="966.5" x2="1581.5" y1="287.6875" y2="287.6875"/><text fill="#000000" font-family="sans-serif" font-size="20" font-weight="bold" lengthAdjust="spacing" textLength="14" x="978.5" y="280.9707">5</text><text fill="#000000" font-family="sans-serif" font-size="20" lengthAdjust="spacing" textLength="117" x="996.5" y="280.9707">repositories</text><polygon fill="#181818" points="1719.5,320.9688,1729.5,324.9688,1719.5,328.9688,1723.5,324.9688" style="stroke:#181818;stroke-width:1.0;"/><line style="stroke:#181818;stroke-width:1.0;" x1="961.5" x2="1725.5" y1="324.9688" y2="324.9688"/><text fill="#000000" font-family="sans-serif" font-size="20" font-weight="bold" lengthAdjust="spacing" textLength="14" x="968.5" y="318.252">6</text><text fill="#000000" font-family="sans-serif" font-size="20" lengthAdjust="spacing" textLength="291" x="986.5" y="318.252">getTaskCategoryRepository()</text><polygon fill="#181818" points="972.5,358.25,962.5,362.25,972.5,366.25,968.5,362.25" style="stroke:#181818;stroke-width:1.0;"/><line style="stroke:#181818;stroke-width:1.0;stroke-dasharray:2.0,2.0;" x1="966.5" x2="1735.5" y1="362.25" y2="362.25"/><text fill="#000000" font-family="sans-serif" font-size="20" font-weight="bold" lengthAdjust="spacing" textLength="14" x="978.5" y="355.5332">7</text><text fill="#000000" font-family="sans-serif" font-size="20" lengthAdjust="spacing" textLength="238" x="996.5" y="355.5332">taskCategoryRepository</text><polygon fill="#181818" points="1931,395.5313,1941,399.5313,1931,403.5313,1935,399.5313" style="stroke:#181818;stroke-width:1.0;"/><line style="stroke:#181818;stroke-width:1.0;" x1="961.5" x2="1937" y1="399.5313" y2="399.5313"/><text fill="#000000" font-family="sans-serif" font-size="20" font-weight="bold" lengthAdjust="spacing" textLength="14" x="968.5" y="392.8145">8</text><text fill="#000000" font-family="sans-serif" font-size="20" lengthAdjust="spacing" textLength="202" x="986.5" y="392.8145">getTaskCategories()</text><polygon fill="#181818" points="972.5,432.8125,962.5,436.8125,972.5,440.8125,968.5,436.8125" style="stroke:#181818;stroke-width:1.0;"/><line style="stroke:#181818;stroke-width:1.0;stroke-dasharray:2.0,2.0;" x1="966.5" x2="1947" y1="436.8125" y2="436.8125"/><text fill="#000000" font-family="sans-serif" font-size="20" font-weight="bold" lengthAdjust="spacing" textLength="14" x="978.5" y="430.0957">9</text><text fill="#000000" font-family="sans-serif" font-size="20" lengthAdjust="spacing" textLength="167" x="996.5" y="430.0957">taskCategoryList</text><polygon fill="#181818" points="657.5,470.0938,647.5,474.0938,657.5,478.0938,653.5,474.0938" style="stroke:#181818;stroke-width:1.0;"/><line style="stroke:#181818;stroke-width:1.0;stroke-dasharray:2.0,2.0;" x1="651.5" x2="955.5" y1="474.0938" y2="474.0938"/><text fill="#000000" font-family="sans-serif" font-size="20" font-weight="bold" lengthAdjust="spacing" textLength="28" x="663.5" y="467.377">10</text><text fill="#000000" font-family="sans-serif" font-size="20" lengthAdjust="spacing" textLength="167" x="695.5" y="467.377">taskCategoryList</text><polygon fill="#181818" points="139.5,530.6563,129.5,534.6563,139.5,538.6563,135.5,534.6563" style="stroke:#181818;stroke-width:1.0;"/><line style="stroke:#181818;stroke-width:1.0;stroke-dasharray:2.0,2.0;" x1="133.5" x2="640.5" y1="534.6563" y2="534.6563"/><text fill="#000000" font-family="sans-serif" font-size="20" font-weight="bold" lengthAdjust="spacing" textLength="28" x="145.5" y="516.2988">11</text><text fill="#000000" font-family="sans-serif" font-size="20" lengthAdjust="spacing" textLength="239" x="177.5" y="504.6582">shows task category list</text><text fill="#000000" font-family="sans-serif" font-size="20" lengthAdjust="spacing" textLength="222" x="183.5" y="527.9395">and asks to sleect one</text><polygon fill="#181818" points="624.5,567.9375,634.5,571.9375,624.5,575.9375,628.5,571.9375" style="stroke:#181818;stroke-width:1.0;"/><line style="stroke:#181818;stroke-width:1.0;" x1="128.5" x2="630.5" y1="571.9375" y2="571.9375"/><text fill="#000000" font-family="sans-serif" font-size="20" font-weight="bold" lengthAdjust="spacing" textLength="28" x="135.5" y="565.2207">12</text><text fill="#000000" font-family="sans-serif" font-size="20" lengthAdjust="spacing" textLength="228" x="167.5" y="565.2207">selects a task category</text><polygon fill="#181818" points="139.5,605.2188,129.5,609.2188,139.5,613.2188,135.5,609.2188" style="stroke:#181818;stroke-width:1.0;"/><line style="stroke:#181818;stroke-width:1.0;stroke-dasharray:2.0,2.0;" x1="133.5" x2="640.5" y1="609.2188" y2="609.2188"/><text fill="#000000" font-family="sans-serif" font-size="20" font-weight="bold" lengthAdjust="spacing" textLength="28" x="145.5" y="602.502">13</text><text fill="#000000" font-family="sans-serif" font-size="20" lengthAdjust="spacing" textLength="137" x="177.5" y="602.502">requests data</text><polygon fill="#181818" points="624.5,689.0625,634.5,693.0625,624.5,697.0625,628.5,693.0625" style="stroke:#181818;stroke-width:1.0;"/><line style="stroke:#181818;stroke-width:1.0;" x1="128.5" x2="630.5" y1="693.0625" y2="693.0625"/><text fill="#000000" font-family="sans-serif" font-size="20" font-weight="bold" lengthAdjust="spacing" textLength="28" x="135.5" y="663.0645">14</text><text fill="#000000" font-family="sans-serif" font-size="20" lengthAdjust="spacing" textLength="451" x="167.5" y="639.7832">types requested data (reference, description,</text><text fill="#000000" font-family="sans-serif" font-size="20" lengthAdjust="spacing" textLength="430" x="167.5" y="663.0645">informal description, technical description,</text><text fill="#000000" font-family="sans-serif" font-size="20" lengthAdjust="spacing" textLength="146" x="167.5" y="686.3457">duration, cost)</text><polygon fill="#181818" points="139.5,726.3438,129.5,730.3438,139.5,734.3438,135.5,730.3438" style="stroke:#181818;stroke-width:1.0;"/><line style="stroke:#181818;stroke-width:1.0;stroke-dasharray:2.0,2.0;" x1="133.5" x2="640.5" y1="730.3438" y2="730.3438"/><text fill="#000000" font-family="sans-serif" font-size="20" font-weight="bold" lengthAdjust="spacing" textLength="28" x="145.5" y="723.627">15</text><text fill="#000000" font-family="sans-serif" font-size="20" lengthAdjust="spacing" textLength="447" x="177.5" y="723.627">shows selected category and requested data</text><polygon fill="#181818" points="624.5,763.625,634.5,767.625,624.5,771.625,628.5,767.625" style="stroke:#181818;stroke-width:1.0;"/><line style="stroke:#181818;stroke-width:1.0;" x1="128.5" x2="630.5" y1="767.625" y2="767.625"/><text fill="#000000" font-family="sans-serif" font-size="20" font-weight="bold" lengthAdjust="spacing" textLength="28" x="135.5" y="760.9082">16</text><text fill="#000000" font-family="sans-serif" font-size="20" lengthAdjust="spacing" textLength="131" x="167.5" y="760.9082">submits data</text><polygon fill="#181818" points="939.5,917.3125,949.5,921.3125,939.5,925.3125,943.5,921.3125" style="stroke:#181818;stroke-width:1.0;"/><line style="stroke:#181818;stroke-width:1.0;" x1="646.5" x2="945.5" y1="921.3125" y2="921.3125"/><text fill="#000000" font-family="sans-serif" font-size="20" font-weight="bold" lengthAdjust="spacing" textLength="28" x="653.5" y="856.3926">17</text><text fill="#000000" font-family="sans-serif" font-size="20" lengthAdjust="spacing" textLength="218" x="685.5" y="798.1895">createTask(reference,</text><text fill="#000000" font-family="sans-serif" font-size="20" lengthAdjust="spacing" textLength="118" x="685.5" y="821.4707">description,</text><text fill="#000000" font-family="sans-serif" font-size="20" lengthAdjust="spacing" textLength="204" x="685.5" y="844.752">informalDescription,</text><text fill="#000000" font-family="sans-serif" font-size="20" lengthAdjust="spacing" textLength="212" x="685.5" y="868.0332">technicalDescription,</text><text fill="#000000" font-family="sans-serif" font-size="20" lengthAdjust="spacing" textLength="144" x="685.5" y="891.3145">duration, cost,</text><text fill="#000000" font-family="sans-serif" font-size="20" lengthAdjust="spacing" textLength="254" x="685.5" y="914.5957">taskCategoryDescription)</text><line style="stroke:#181818;stroke-width:1.0;" x1="961.5" x2="1008.5" y1="953.5938" y2="953.5938"/><line style="stroke:#181818;stroke-width:1.0;" x1="1008.5" x2="1008.5" y1="953.5938" y2="966.5938"/><line style="stroke:#181818;stroke-width:1.0;" x1="967.5" x2="1008.5" y1="966.5938" y2="966.5938"/><polygon fill="#181818" points="977.5,962.5938,967.5,966.5938,977.5,970.5938,973.5,966.5938" style="stroke:#181818;stroke-width:1.0;"/><text fill="#000000" font-family="sans-serif" font-size="20" font-weight="bold" lengthAdjust="spacing" textLength="28" x="973.5" y="946.877">18</text><text fill="#000000" font-family="sans-serif" font-size="20" lengthAdjust="spacing" textLength="570" x="1005.5" y="946.877">getTaskCategoryByDescription(taskCategoryDescription)</text><polygon fill="#181818" points="1565.5,1004.875,1575.5,1008.875,1565.5,1012.875,1569.5,1008.875" style="stroke:#181818;stroke-width:1.0;"/><line style="stroke:#181818;stroke-width:1.0;" x1="966.5" x2="1571.5" y1="1008.875" y2="1008.875"/><text fill="#000000" font-family="sans-serif" font-size="20" font-weight="bold" lengthAdjust="spacing" textLength="28" x="973.5" y="1002.1582">19</text><text fill="#000000" font-family="sans-serif" font-size="20" lengthAdjust="spacing" textLength="134" x="1005.5" y="1002.1582">getInstance()</text><polygon fill="#181818" points="977.5,1042.1563,967.5,1046.1563,977.5,1050.1563,973.5,1046.1563" style="stroke:#181818;stroke-width:1.0;"/><line style="stroke:#181818;stroke-width:1.0;stroke-dasharray:2.0,2.0;" x1="971.5" x2="1581.5" y1="1046.1563" y2="1046.1563"/><text fill="#000000" font-family="sans-serif" font-size="20" font-weight="bold" lengthAdjust="spacing" textLength="28" x="983.5" y="1039.4395">20</text><text fill="#000000" font-family="sans-serif" font-size="20" lengthAdjust="spacing" textLength="117" x="1015.5" y="1039.4395">repositories</text><polygon fill="#181818" points="1719.5,1079.4375,1729.5,1083.4375,1719.5,1087.4375,1723.5,1083.4375" style="stroke:#181818;stroke-width:1.0;"/><line style="stroke:#181818;stroke-width:1.0;" x1="966.5" x2="1725.5" y1="1083.4375" y2="1083.4375"/><text fill="#000000" font-family="sans-serif" font-size="20" font-weight="bold" lengthAdjust="spacing" textLength="28" x="973.5" y="1076.7207">21</text><text fill="#000000" font-family="sans-serif" font-size="20" lengthAdjust="spacing" textLength="291" x="1005.5" y="1076.7207">getTaskCategoryRepository()</text><polygon fill="#181818" points="977.5,1116.7188,967.5,1120.7188,977.5,1124.7188,973.5,1120.7188" style="stroke:#181818;stroke-width:1.0;"/><line style="stroke:#181818;stroke-width:1.0;" x1="971.5" x2="1735.5" y1="1120.7188" y2="1120.7188"/><text fill="#000000" font-family="sans-serif" font-size="20" font-weight="bold" lengthAdjust="spacing" textLength="28" x="983.5" y="1114.002">22</text><text fill="#000000" font-family="sans-serif" font-size="20" lengthAdjust="spacing" textLength="238" x="1015.5" y="1114.002">taskCategoryRepository</text><polygon fill="#181818" points="1931,1154,1941,1158,1931,1162,1935,1158" style="stroke:#181818;stroke-width:1.0;"/><line style="stroke:#181818;stroke-width:1.0;" x1="966.5" x2="1937" y1="1158" y2="1158"/><text fill="#000000" font-family="sans-serif" font-size="20" font-weight="bold" lengthAdjust="spacing" textLength="28" x="973.5" y="1151.2832">23</text><text fill="#000000" font-family="sans-serif" font-size="20" lengthAdjust="spacing" textLength="570" x="1005.5" y="1151.2832">getTaskCategoryByDescription(taskCategoryDescription)</text><polygon fill="#181818" points="977.5,1191.2813,967.5,1195.2813,977.5,1199.2813,973.5,1195.2813" style="stroke:#181818;stroke-width:1.0;"/><line style="stroke:#181818;stroke-width:1.0;stroke-dasharray:2.0,2.0;" x1="971.5" x2="1947" y1="1195.2813" y2="1195.2813"/><text fill="#000000" font-family="sans-serif" font-size="20" font-weight="bold" lengthAdjust="spacing" textLength="28" x="983.5" y="1188.5645">24</text><text fill="#000000" font-family="sans-serif" font-size="20" lengthAdjust="spacing" textLength="132" x="1015.5" y="1188.5645">taskCategory</text><line style="stroke:#181818;stroke-width:1.0;stroke-dasharray:2.0,2.0;" x1="966.5" x2="1008.5" y1="1237.5625" y2="1237.5625"/><line style="stroke:#181818;stroke-width:1.0;stroke-dasharray:2.0,2.0;" x1="1008.5" x2="1008.5" y1="1237.5625" y2="1250.5625"/><line style="stroke:#181818;stroke-width:1.0;stroke-dasharray:2.0,2.0;" x1="961.5" x2="1008.5" y1="1250.5625" y2="1250.5625"/><polygon fill="#181818" points="971.5,1246.5625,961.5,1250.5625,971.5,1254.5625,967.5,1250.5625" style="stroke:#181818;stroke-width:1.0;"/><text fill="#000000" font-family="sans-serif" font-size="20" font-weight="bold" lengthAdjust="spacing" textLength="28" x="973.5" y="1230.8457">25</text><text fill="#000000" font-family="sans-serif" font-size="20" lengthAdjust="spacing" textLength="132" x="1005.5" y="1230.8457">taskCategory</text><line style="stroke:#181818;stroke-width:1.0;" x1="961.5" x2="1008.5" y1="1302.8438" y2="1302.8438"/><line style="stroke:#181818;stroke-width:1.0;" x1="1008.5" x2="1008.5" y1="1302.8438" y2="1315.8438"/><line style="stroke:#181818;stroke-width:1.0;" x1="967.5" x2="1008.5" y1="1315.8438" y2="1315.8438"/><polygon fill="#181818" points="977.5,1311.8438,967.5,1315.8438,977.5,1319.8438,973.5,1315.8438" style="stroke:#181818;stroke-width:1.0;"/><text fill="#000000" font-family="sans-serif" font-size="20" font-weight="bold" lengthAdjust="spacing" textLength="28" x="973.5" y="1296.127">26</text><text fill="#000000" font-family="sans-serif" font-size="20" lengthAdjust="spacing" textLength="276" x="1005.5" y="1296.127">getEmployeeFromSession()</text><polygon fill="#181818" points="2176,1354.125,2186,1358.125,2176,1362.125,2180,1358.125" style="stroke:#181818;stroke-width:1.0;"/><line style="stroke:#181818;stroke-width:1.0;" x1="966.5" x2="2182" y1="1358.125" y2="1358.125"/><text fill="#000000" font-family="sans-serif" font-size="20" font-weight="bold" lengthAdjust="spacing" textLength="28" x="973.5" y="1351.4082">27</text><text fill="#000000" font-family="sans-serif" font-size="20" lengthAdjust="spacing" textLength="134" x="1005.5" y="1351.4082">getInstance()</text><polygon fill="#181818" points="977.5,1391.4063,967.5,1395.4063,977.5,1399.4063,973.5,1395.4063" style="stroke:#181818;stroke-width:1.0;"/><line style="stroke:#181818;stroke-width:1.0;" x1="971.5" x2="2192" y1="1395.4063" y2="1395.4063"/><text fill="#000000" font-family="sans-serif" font-size="20" font-weight="bold" lengthAdjust="spacing" textLength="28" x="983.5" y="1388.6895">28</text><text fill="#000000" font-family="sans-serif" font-size="20" lengthAdjust="spacing" textLength="114" x="1015.5" y="1388.6895">appSession</text><polygon fill="#181818" points="2397,1428.6875,2407,1432.6875,2397,1436.6875,2401,1432.6875" style="stroke:#181818;stroke-width:1.0;"/><line style="stroke:#181818;stroke-width:1.0;" x1="966.5" x2="2403" y1="1432.6875" y2="1432.6875"/><text fill="#000000" font-family="sans-serif" font-size="20" font-weight="bold" lengthAdjust="spacing" textLength="28" x="973.5" y="1425.9707">29</text><text fill="#000000" font-family="sans-serif" font-size="20" lengthAdjust="spacing" textLength="201" x="1005.5" y="1425.9707">getCurrentSession()</text><polygon fill="#181818" points="977.5,1465.9688,967.5,1469.9688,977.5,1473.9688,973.5,1469.9688" style="stroke:#181818;stroke-width:1.0;"/><line style="stroke:#181818;stroke-width:1.0;stroke-dasharray:2.0,2.0;" x1="971.5" x2="2413" y1="1469.9688" y2="1469.9688"/><text fill="#000000" font-family="sans-serif" font-size="20" font-weight="bold" lengthAdjust="spacing" textLength="28" x="983.5" y="1463.252">30</text><text fill="#000000" font-family="sans-serif" font-size="20" lengthAdjust="spacing" textLength="149" x="1015.5" y="1463.252">currentSession</text><polygon fill="#181818" points="2594,1503.25,2604,1507.25,2594,1511.25,2598,1507.25" style="stroke:#181818;stroke-width:1.0;"/><line style="stroke:#181818;stroke-width:1.0;" x1="966.5" x2="2600" y1="1507.25" y2="1507.25"/><text fill="#000000" font-family="sans-serif" font-size="20" font-weight="bold" lengthAdjust="spacing" textLength="28" x="973.5" y="1500.5332">31</text><text fill="#000000" font-family="sans-serif" font-size="20" lengthAdjust="spacing" textLength="236" x="1005.5" y="1500.5332">email = getUserEmail()</text><polygon fill="#181818" points="977.5,1540.5313,967.5,1544.5313,977.5,1548.5313,973.5,1544.5313" style="stroke:#181818;stroke-width:1.0;"/><line style="stroke:#181818;stroke-width:1.0;stroke-dasharray:2.0,2.0;" x1="971.5" x2="2610" y1="1544.5313" y2="1544.5313"/><text fill="#000000" font-family="sans-serif" font-size="20" font-weight="bold" lengthAdjust="spacing" textLength="28" x="983.5" y="1537.8145">32</text><text fill="#000000" font-family="sans-serif" font-size="20" lengthAdjust="spacing" textLength="56" x="1015.5" y="1537.8145">email</text><polygon fill="#181818" points="1719.5,1577.8125,1729.5,1581.8125,1719.5,1585.8125,1723.5,1581.8125" style="stroke:#181818;stroke-width:1.0;"/><line style="stroke:#181818;stroke-width:1.0;" x1="966.5" x2="1725.5" y1="1581.8125" y2="1581.8125"/><text fill="#000000" font-family="sans-serif" font-size="20" font-weight="bold" lengthAdjust="spacing" textLength="28" x="973.5" y="1575.0957">33</text><text fill="#000000" font-family="sans-serif" font-size="20" lengthAdjust="spacing" textLength="341" x="1005.5" y="1575.0957">getOrganizationRepository(email)</text><polygon fill="#181818" points="977.5,1615.0938,967.5,1619.0938,977.5,1623.0938,973.5,1619.0938" style="stroke:#181818;stroke-width:1.0;"/><line style="stroke:#181818;stroke-width:1.0;stroke-dasharray:2.0,2.0;" x1="971.5" x2="1735.5" y1="1619.0938" y2="1619.0938"/><text fill="#000000" font-family="sans-serif" font-size="20" font-weight="bold" lengthAdjust="spacing" textLength="28" x="983.5" y="1612.377">34</text><text fill="#000000" font-family="sans-serif" font-size="20" lengthAdjust="spacing" textLength="232" x="1015.5" y="1612.377">organizationRepository</text><polygon fill="#181818" points="2812,1652.375,2822,1656.375,2812,1660.375,2816,1656.375" style="stroke:#181818;stroke-width:1.0;"/><line style="stroke:#181818;stroke-width:1.0;" x1="966.5" x2="2818" y1="1656.375" y2="1656.375"/><text fill="#000000" font-family="sans-serif" font-size="20" font-weight="bold" lengthAdjust="spacing" textLength="28" x="973.5" y="1649.6582">35</text><text fill="#000000" font-family="sans-serif" font-size="20" lengthAdjust="spacing" textLength="416" x="1005.5" y="1649.6582">getOrganizationByEmployeeEmail(email)</text><path d="M2692.5,1671.375 L2786.5,1671.375 L2786.5,1686.6563 L2776.5,1696.6563 L2692.5,1696.6563 L2692.5,1671.375 " fill="#EEEEEE" style="stroke:#000000;stroke-width:1.5;"/><rect fill="none" height="108.125" style="stroke:#000000;stroke-width:1.5;" width="584" x="2692.5" y="1671.375"/><text fill="#000000" font-family="sans-serif" font-size="20" font-weight="bold" lengthAdjust="spacing" textLength="49" x="2707.5" y="1690.9395">loop</text><text fill="#000000" font-family="sans-serif" font-size="20" font-weight="bold" lengthAdjust="spacing" textLength="272" x="2801.5" y="1691.9395">[[for each organization]</text><polygon fill="#181818" points="3174,1730.2188,3184,1734.2188,3174,1738.2188,3178,1734.2188" style="stroke:#181818;stroke-width:1.0;"/><line style="stroke:#181818;stroke-width:1.0;" x1="2834" x2="3180" y1="1734.2188" y2="1734.2188"/><text fill="#000000" font-family="sans-serif" font-size="20" font-weight="bold" lengthAdjust="spacing" textLength="28" x="2841" y="1727.502">36</text><text fill="#000000" font-family="sans-serif" font-size="20" lengthAdjust="spacing" textLength="301" x="2873" y="1727.502">anyEmployeeHasEmail(email)</text><polygon fill="#181818" points="2845,1767.5,2835,1771.5,2845,1775.5,2841,1771.5" style="stroke:#181818;stroke-width:1.0;"/><line style="stroke:#181818;stroke-width:1.0;stroke-dasharray:2.0,2.0;" x1="2839" x2="3190" y1="1771.5" y2="1771.5"/><text fill="#000000" font-family="sans-serif" font-size="20" font-weight="bold" lengthAdjust="spacing" textLength="28" x="2851" y="1764.7832">37</text><text fill="#000000" font-family="sans-serif" font-size="20" lengthAdjust="spacing" textLength="95" x="2883" y="1764.7832">true/false</text><polygon fill="#181818" points="977.5,1811.7813,967.5,1815.7813,977.5,1819.7813,973.5,1815.7813" style="stroke:#181818;stroke-width:1.0;"/><line style="stroke:#181818;stroke-width:1.0;stroke-dasharray:2.0,2.0;" x1="971.5" x2="2828" y1="1815.7813" y2="1815.7813"/><text fill="#000000" font-family="sans-serif" font-size="20" font-weight="bold" lengthAdjust="spacing" textLength="28" x="983.5" y="1809.0645">38</text><text fill="#000000" font-family="sans-serif" font-size="20" lengthAdjust="spacing" textLength="126" x="1015.5" y="1809.0645">organization</text><polygon fill="#181818" points="3174,1849.0625,3184,1853.0625,3174,1857.0625,3178,1853.0625" style="stroke:#181818;stroke-width:1.0;"/><line style="stroke:#181818;stroke-width:1.0;" x1="966.5" x2="3180" y1="1853.0625" y2="1853.0625"/><text fill="#000000" font-family="sans-serif" font-size="20" font-weight="bold" lengthAdjust="spacing" textLength="28" x="973.5" y="1846.3457">39</text><text fill="#000000" font-family="sans-serif" font-size="20" lengthAdjust="spacing" textLength="286" x="1005.5" y="1846.3457">getEmployeeByEmail(email)</text><polygon fill="#181818" points="977.5,1886.3438,967.5,1890.3438,977.5,1894.3438,973.5,1890.3438" style="stroke:#181818;stroke-width:1.0;"/><line style="stroke:#181818;stroke-width:1.0;stroke-dasharray:2.0,2.0;" x1="971.5" x2="3190" y1="1890.3438" y2="1890.3438"/><text fill="#000000" font-family="sans-serif" font-size="20" font-weight="bold" lengthAdjust="spacing" textLength="28" x="983.5" y="1883.627">40</text><text fill="#000000" font-family="sans-serif" font-size="20" lengthAdjust="spacing" textLength="98" x="1015.5" y="1883.627">employee</text><line style="stroke:#181818;stroke-width:1.0;stroke-dasharray:2.0,2.0;" x1="966.5" x2="1008.5" y1="1932.625" y2="1932.625"/><line style="stroke:#181818;stroke-width:1.0;stroke-dasharray:2.0,2.0;" x1="1008.5" x2="1008.5" y1="1932.625" y2="1945.625"/><line style="stroke:#181818;stroke-width:1.0;stroke-dasharray:2.0,2.0;" x1="961.5" x2="1008.5" y1="1945.625" y2="1945.625"/><polygon fill="#181818" points="971.5,1941.625,961.5,1945.625,971.5,1949.625,967.5,1945.625" style="stroke:#181818;stroke-width:1.0;"/><text fill="#000000" font-family="sans-serif" font-size="20" font-weight="bold" lengthAdjust="spacing" textLength="28" x="973.5" y="1925.9082">41</text><text fill="#000000" font-family="sans-serif" font-size="20" lengthAdjust="spacing" textLength="98" x="1005.5" y="1925.9082">employee</text><polygon fill="#181818" points="3174,2045.4688,3184,2049.4688,3174,2053.4688,3178,2049.4688" style="stroke:#181818;stroke-width:1.0;"/><line style="stroke:#181818;stroke-width:1.0;" x1="961.5" x2="3180" y1="2049.4688" y2="2049.4688"/><text fill="#000000" font-family="sans-serif" font-size="20" font-weight="bold" lengthAdjust="spacing" textLength="28" x="968.5" y="2019.4707">42</text><text fill="#000000" font-family="sans-serif" font-size="20" lengthAdjust="spacing" textLength="452" x="1000.5" y="1996.1895">createTask(employee, reference, description,</text><text fill="#000000" font-family="sans-serif" font-size="20" lengthAdjust="spacing" textLength="422" x="1000.5" y="2019.4707">informalDescription, technicalDescription,</text><text fill="#000000" font-family="sans-serif" font-size="20" lengthAdjust="spacing" textLength="412" x="1000.5" y="2042.752">duration, cost, , taskCategory, employee)</text><polygon fill="#181818" points="3662,2129.3125,3672,2133.3125,3662,2137.3125,3666,2133.3125" style="stroke:#181818;stroke-width:1.0;"/><line style="stroke:#181818;stroke-width:1.0;" x1="3196" x2="3668" y1="2133.3125" y2="2133.3125"/><text fill="#000000" font-family="sans-serif" font-size="20" font-weight="bold" lengthAdjust="spacing" textLength="28" x="3203" y="2103.3145">43</text><text fill="#000000" font-family="sans-serif" font-size="20" lengthAdjust="spacing" textLength="406" x="3235" y="2080.0332">create(employee, reference, description,</text><text fill="#000000" font-family="sans-serif" font-size="20" lengthAdjust="spacing" textLength="422" x="3235" y="2103.3145">informalDescription, technicalDescription,</text><text fill="#000000" font-family="sans-serif" font-size="20" lengthAdjust="spacing" textLength="400" x="3235" y="2126.5957">duration, cost, taskCategory, employee)</text><rect fill="#E2E2F0" height="60.5625" rx="2.5" ry="2.5" style="stroke:#181818;stroke-width:0.5;" width="67" x="3674" y="2069.75"/><text fill="#000000" font-family="sans-serif" font-size="20" lengthAdjust="spacing" textLength="42" x="3686.5" y="2095.3145">task</text><text fill="#000000" font-family="sans-serif" font-size="20" lengthAdjust="spacing" textLength="53" x="3681" y="2118.5957">:Task</text><line style="stroke:#181818;stroke-width:1.0;" x1="3196" x2="3243" y1="2165.5938" y2="2165.5938"/><line style="stroke:#181818;stroke-width:1.0;" x1="3243" x2="3243" y1="2165.5938" y2="2178.5938"/><line style="stroke:#181818;stroke-width:1.0;" x1="3202" x2="3243" y1="2178.5938" y2="2178.5938"/><polygon fill="#181818" points="3212,2174.5938,3202,2178.5938,3212,2182.5938,3208,2178.5938" style="stroke:#181818;stroke-width:1.0;"/><text fill="#000000" font-family="sans-serif" font-size="20" font-weight="bold" lengthAdjust="spacing" textLength="28" x="3208" y="2158.877">44</text><text fill="#000000" font-family="sans-serif" font-size="20" lengthAdjust="spacing" textLength="148" x="3240" y="2158.877">addTask (task)</text><line style="stroke:#181818;stroke-width:1.0;" x1="3201" x2="3248" y1="2215.875" y2="2215.875"/><line style="stroke:#181818;stroke-width:1.0;" x1="3248" x2="3248" y1="2215.875" y2="2228.875"/><line style="stroke:#181818;stroke-width:1.0;" x1="3207" x2="3248" y1="2228.875" y2="2228.875"/><polygon fill="#181818" points="3217,2224.875,3207,2228.875,3217,2232.875,3213,2228.875" style="stroke:#181818;stroke-width:1.0;"/><text fill="#000000" font-family="sans-serif" font-size="20" font-weight="bold" lengthAdjust="spacing" textLength="28" x="3213" y="2209.1582">45</text><text fill="#000000" font-family="sans-serif" font-size="20" lengthAdjust="spacing" textLength="184" x="3245" y="2209.1582">validateTask(task)</text><line style="stroke:#181818;stroke-width:1.0;stroke-dasharray:2.0,2.0;" x1="3206" x2="3248" y1="2276.1563" y2="2276.1563"/><line style="stroke:#181818;stroke-width:1.0;stroke-dasharray:2.0,2.0;" x1="3248" x2="3248" y1="2276.1563" y2="2289.1563"/><line style="stroke:#181818;stroke-width:1.0;stroke-dasharray:2.0,2.0;" x1="3201" x2="3248" y1="2289.1563" y2="2289.1563"/><polygon fill="#181818" points="3211,2285.1563,3201,2289.1563,3211,2293.1563,3207,2289.1563" style="stroke:#181818;stroke-width:1.0;"/><text fill="#000000" font-family="sans-serif" font-size="20" font-weight="bold" lengthAdjust="spacing" textLength="28" x="3213" y="2269.4395">46</text><text fill="#000000" font-family="sans-serif" font-size="20" lengthAdjust="spacing" textLength="6" x="3245" y="2269.4395"> </text><line style="stroke:#181818;stroke-width:1.0;stroke-dasharray:2.0,2.0;" x1="3201" x2="3243" y1="2326.4375" y2="2326.4375"/><line style="stroke:#181818;stroke-width:1.0;stroke-dasharray:2.0,2.0;" x1="3243" x2="3243" y1="2326.4375" y2="2339.4375"/><line style="stroke:#181818;stroke-width:1.0;stroke-dasharray:2.0,2.0;" x1="3196" x2="3243" y1="2339.4375" y2="2339.4375"/><polygon fill="#181818" points="3206,2335.4375,3196,2339.4375,3206,2343.4375,3202,2339.4375" style="stroke:#181818;stroke-width:1.0;"/><text fill="#000000" font-family="sans-serif" font-size="20" font-weight="bold" lengthAdjust="spacing" textLength="28" x="3208" y="2319.7207">47</text><text fill="#000000" font-family="sans-serif" font-size="20" lengthAdjust="spacing" textLength="6" x="3240" y="2319.7207"> </text><polygon fill="#181818" points="972.5,2367.7188,962.5,2371.7188,972.5,2375.7188,968.5,2371.7188" style="stroke:#181818;stroke-width:1.0;"/><line style="stroke:#181818;stroke-width:1.0;stroke-dasharray:2.0,2.0;" x1="966.5" x2="3190" y1="2371.7188" y2="2371.7188"/><text fill="#000000" font-family="sans-serif" font-size="20" font-weight="bold" lengthAdjust="spacing" textLength="28" x="978.5" y="2365.002">48</text><text fill="#000000" font-family="sans-serif" font-size="20" lengthAdjust="spacing" textLength="42" x="1010.5" y="2365.002">task</text><polygon fill="#181818" points="657.5,2405,647.5,2409,657.5,2413,653.5,2409" style="stroke:#181818;stroke-width:1.0;"/><line style="stroke:#181818;stroke-width:1.0;stroke-dasharray:2.0,2.0;" x1="651.5" x2="955.5" y1="2409" y2="2409"/><text fill="#000000" font-family="sans-serif" font-size="20" font-weight="bold" lengthAdjust="spacing" textLength="28" x="663.5" y="2402.2832">49</text><text fill="#000000" font-family="sans-serif" font-size="20" lengthAdjust="spacing" textLength="42" x="695.5" y="2402.2832">task</text><polygon fill="#181818" points="134.5,2442.2813,124.5,2446.2813,134.5,2450.2813,130.5,2446.2813" style="stroke:#181818;stroke-width:1.0;"/><line style="stroke:#181818;stroke-width:1.0;stroke-dasharray:2.0,2.0;" x1="128.5" x2="640.5" y1="2446.2813" y2="2446.2813"/><text fill="#000000" font-family="sans-serif" font-size="20" font-weight="bold" lengthAdjust="spacing" textLength="28" x="140.5" y="2439.5645">50</text><text fill="#000000" font-family="sans-serif" font-size="20" lengthAdjust="spacing" textLength="266" x="172.5" y="2439.5645">displays operation success</text><!--SRC=[xLXDR-Cs4BtpLn3feKdWe4MF1hg04oTfW2msi9DJ3HICDB49IwHAKhlr8Z- -G-h3P4HzRD3TKtK98iwyUMyqCoIjzrmKJB4yayaUKfh22oipSoE5MVElG7_xbUZ6XEPIo6IdP0xqXMKQlAM29NksXRKvP40L98Q9RUORw1rBvHSkjhKhOQMHeioVGH7oyuwdY2cbUPR_49OOgUZ9-g0Dv7IHvbnmeOrY-Fg4CaqNou_qfuABFK5imnDUC67eoVmkBwGobwNc0hHUCiEUxfp3qzsevVuA9IkPPL35k7fStRznMa4XDKSI7BIpQLySrjpAHK6XY_8yDg8By72_U0mz3DFxAsPWYw17-Fb6F4ON74fywGtvHL5aF666Ix56oVZ7-VwrU7W8BLbHr0R8kCUhuvIKIW6MJEluf47v7klhzNhnANIIQii4_-hG0wsVeWiE9xxKZujKV9SAOtNRJJeQsZnM2LsihcyMn1OY_uo9jGL72AqVMtqN7x2cw1oDzveQIRch9_fS5nJbuaMgt8KyEhPmM8xjI_iW50BQYZi_Hz140LhrcQ315eptpR6OJiy2upQGA-9WoJuE1T4YvLk1ts6tCP706zW0EbRx7MlxnA9Sr5hcrE-GZdiAtnQk4MRRgfCchpM6TBcMZ0fng4VcyKuTqX27RaZ7gKxusW7zdbaG5TGJyU9OQBx6UwxDaBgfaIkzJGCDHl3GkvLiEm9HR3VESNUHNxG3eqcDHZE4smZAHDgsgSu0joOg1P18ZAOj_GRNaA67fYm49xtz7D1Iy7S96jrJt678X73cK81ktEnsZ7xqLC4Bu7XDO8R-Eb6yi8DbHZUYdZDP-Dv0iXCujiFN6v6MYbKMYTJcRAA8AhTL8f1Icr-Rs93f58MwVCwvdv5U0cqLLlFGrfUN2LGJQ6ioiGpUjfbO3YJ2sdbbw9cUaGaZjMdWw70-NFfufwDn_X_VttTyHqVR3npVxwc77pJWtp7SOq7R-JuMOd2wlxw-ZZJPTLvayW1mW_UH-gJvlcEGFG9FxXjtNex9jWkqxOlZ8NeegmwidrZ3woeuN0-nStWnTevSoouyhGynZ08s_Aep_Pn2pdX6VxTKxR7_sluxnBA-2qI9LciULmS-HB516nmdBe_nkyEfY_1Vd0ZZzvdnaTBBF4wue-NoqFH2bVenGJrtgAZ4JCg2_ebRAqNMkq1YrDu-SNmdQ7LhBqsY9Vm7quESkzpnxjPhLKN761UzoRC3IPNmI_KZH1-6zubim9W9Y9HyY_ZZx1hCeHzvucTggsLr6mn6MnQJog4lfKqcQzvGuvAHR96n7I4AzAxTm4dsZeSDyeps79dZvqGwxPX8Py5cDck5z6mxqMIuf7weVs8uFs_eVs_gKuXxz5nYMPhQh59tIZcBpAdH9l7HFhECfys7gX17EtsqntjinYfo36FC_qrdM3M4J0NmBi2rwr0VnA-ySvfoNMJieAaieFhKUBLA4jpIOxSmVqjVVYJ_0W00]--></g></svg>