<?xml version="1.0" encoding="UTF-8" standalone="no"?><svg xmlns="http://www.w3.org/2000/svg" xmlns:xlink="http://www.w3.org/1999/xlink" contentStyleType="text/css" height="834px" preserveAspectRatio="none" style="width:1328px;height:834px;background:#FFFFFF;" version="1.1" viewBox="0 0 1328 834" width="1328px" zoomAndPan="magnify"><defs/><g><!--class Repositories--><g id="elem_Repositories"><rect codeLine="17" fill="#FFDAB9" height="119.8438" id="Repositories" rx="2.5" ry="2.5" style="stroke:#4169E1;stroke-width:0.5;" width="305" x="7" y="276"/><ellipse cx="93.5" cy="293" fill="#ADD1B2" rx="12" ry="12" style="stroke:#181818;stroke-width:1.0;"/><path d="M96.5625,300.0781 Q95.875,300.4375 95.125,300.6094 Q94.375,300.7813 93.5469,300.7813 Q90.5938,300.7813 89.0313,298.8438 Q87.4844,296.8906 87.4844,293.2188 Q87.4844,289.5469 89.0313,287.6094 Q90.5938,285.6563 93.5469,285.6563 Q94.375,285.6563 95.125,285.8281 Q95.8906,286 96.5625,286.3594 L96.5625,289.5625 Q95.8125,288.875 95.1094,288.5625 Q94.4219,288.25 93.6719,288.25 Q92.0938,288.25 91.2813,289.5 Q90.4844,290.75 90.4844,293.2188 Q90.4844,295.6875 91.2813,296.9375 Q92.0938,298.1875 93.6719,298.1875 Q94.4219,298.1875 95.1094,297.875 Q95.8125,297.5625 96.5625,296.875 L96.5625,300.0781 Z " fill="#000000"/><text fill="#000000" font-family="sans-serif" font-size="20" lengthAdjust="spacing" textLength="123" x="115.5" y="299.9238">Repositories</text><line style="stroke:#4169E1;stroke-width:0.5;" x1="8" x2="311" y1="310" y2="310"/><line style="stroke:#4169E1;stroke-width:0.5;" x1="8" x2="311" y1="318" y2="318"/><text fill="#000000" font-family="sans-serif" font-size="20" lengthAdjust="spacing" textLength="146" x="13" y="340.5645">-Repositories()</text><text fill="#000000" font-family="sans-serif" font-size="20" lengthAdjust="spacing" textLength="293" x="13" y="363.8457">+getInstance() : Repositories</text><text fill="#000000" font-family="sans-serif" font-size="20" lengthAdjust="spacing" textLength="289" x="13" y="387.127">+getTransactionRepository()</text></g><!--class ImportBusinessDataUI--><g id="elem_ImportBusinessDataUI"><rect codeLine="22" fill="#FFDAB9" height="50" id="ImportBusinessDataUI" rx="2.5" ry="2.5" style="stroke:#4169E1;stroke-width:0.5;" width="257" x="423" y="7"/><ellipse cx="439" cy="24" fill="#ADD1B2" rx="12" ry="12" style="stroke:#181818;stroke-width:1.0;"/><path d="M442.0625,31.0781 Q441.375,31.4375 440.625,31.6094 Q439.875,31.7813 439.0469,31.7813 Q436.0938,31.7813 434.5313,29.8438 Q432.9844,27.8906 432.9844,24.2188 Q432.9844,20.5469 434.5313,18.6094 Q436.0938,16.6563 439.0469,16.6563 Q439.875,16.6563 440.625,16.8281 Q441.3906,17 442.0625,17.3594 L442.0625,20.5625 Q441.3125,19.875 440.6094,19.5625 Q439.9219,19.25 439.1719,19.25 Q437.5938,19.25 436.7813,20.5 Q435.9844,21.75 435.9844,24.2188 Q435.9844,26.6875 436.7813,27.9375 Q437.5938,29.1875 439.1719,29.1875 Q439.9219,29.1875 440.6094,28.875 Q441.3125,28.5625 442.0625,27.875 L442.0625,31.0781 Z " fill="#000000"/><text fill="#000000" font-family="sans-serif" font-size="20" lengthAdjust="spacing" textLength="223" x="454" y="30.9238">ImportBusinessDataUI</text><line style="stroke:#4169E1;stroke-width:0.5;" x1="424" x2="679" y1="41" y2="41"/><line style="stroke:#4169E1;stroke-width:0.5;" x1="424" x2="679" y1="49" y2="49"/></g><!--class ImportBusinessDataController--><g id="elem_ImportBusinessDataController"><rect codeLine="25" fill="#FFDAB9" height="96.5625" id="ImportBusinessDataController" rx="2.5" ry="2.5" style="stroke:#4169E1;stroke-width:0.5;" width="335" x="384" y="118"/><ellipse cx="400" cy="135" fill="#ADD1B2" rx="12" ry="12" style="stroke:#181818;stroke-width:1.0;"/><path d="M403.0625,142.0781 Q402.375,142.4375 401.625,142.6094 Q400.875,142.7813 400.0469,142.7813 Q397.0938,142.7813 395.5313,140.8438 Q393.9844,138.8906 393.9844,135.2188 Q393.9844,131.5469 395.5313,129.6094 Q397.0938,127.6563 400.0469,127.6563 Q400.875,127.6563 401.625,127.8281 Q402.3906,128 403.0625,128.3594 L403.0625,131.5625 Q402.3125,130.875 401.6094,130.5625 Q400.9219,130.25 400.1719,130.25 Q398.5938,130.25 397.7813,131.5 Q396.9844,132.75 396.9844,135.2188 Q396.9844,137.6875 397.7813,138.9375 Q398.5938,140.1875 400.1719,140.1875 Q400.9219,140.1875 401.6094,139.875 Q402.3125,139.5625 403.0625,138.875 L403.0625,142.0781 Z " fill="#000000"/><text fill="#000000" font-family="sans-serif" font-size="20" lengthAdjust="spacing" textLength="301" x="415" y="141.9238">ImportBusinessDataController</text><line style="stroke:#4169E1;stroke-width:0.5;" x1="385" x2="718" y1="152" y2="152"/><line style="stroke:#4169E1;stroke-width:0.5;" x1="385" x2="718" y1="160" y2="160"/><text fill="#000000" font-family="sans-serif" font-size="20" lengthAdjust="spacing" textLength="200" x="390" y="182.5645">+checkFileFormat()</text><text fill="#000000" font-family="sans-serif" font-size="20" lengthAdjust="spacing" textLength="208" x="390" y="205.8457">+checkFileContent()</text></g><!--class TransactionRepository--><g id="elem_TransactionRepository"><rect codeLine="29" fill="#FFDAB9" height="96.5625" id="TransactionRepository" rx="2.5" ry="2.5" style="stroke:#4169E1;stroke-width:0.5;" width="443" x="55" y="480"/><ellipse cx="160.5" cy="497" fill="#ADD1B2" rx="12" ry="12" style="stroke:#181818;stroke-width:1.0;"/><path d="M163.5625,504.0781 Q162.875,504.4375 162.125,504.6094 Q161.375,504.7813 160.5469,504.7813 Q157.5938,504.7813 156.0313,502.8438 Q154.4844,500.8906 154.4844,497.2188 Q154.4844,493.5469 156.0313,491.6094 Q157.5938,489.6563 160.5469,489.6563 Q161.375,489.6563 162.125,489.8281 Q162.8906,490 163.5625,490.3594 L163.5625,493.5625 Q162.8125,492.875 162.1094,492.5625 Q161.4219,492.25 160.6719,492.25 Q159.0938,492.25 158.2813,493.5 Q157.4844,494.75 157.4844,497.2188 Q157.4844,499.6875 158.2813,500.9375 Q159.0938,502.1875 160.6719,502.1875 Q161.4219,502.1875 162.1094,501.875 Q162.8125,501.5625 163.5625,500.875 L163.5625,504.0781 Z " fill="#000000"/><text fill="#000000" font-family="sans-serif" font-size="20" lengthAdjust="spacing" textLength="223" x="182.5" y="503.9238">TransactionRepository</text><line style="stroke:#4169E1;stroke-width:0.5;" x1="56" x2="497" y1="514" y2="514"/><text fill="#000000" font-family="sans-serif" font-size="20" lengthAdjust="spacing" textLength="364" x="61" y="536.5645">-TransactionList : List&lt;Transaction&gt;</text><line style="stroke:#4169E1;stroke-width:0.5;" x1="56" x2="497" y1="545.2813" y2="545.2813"/><text fill="#000000" font-family="sans-serif" font-size="20" lengthAdjust="spacing" textLength="431" x="61" y="567.8457">+saveTransaction(Transaction transaction)</text></g><!--class Transaction--><g id="elem_Transaction"><rect codeLine="33" fill="#FFDAB9" height="166.4063" id="Transaction" rx="2.5" ry="2.5" style="stroke:#4169E1;stroke-width:0.5;" width="331" x="248" y="661"/><ellipse cx="350.5" cy="678" fill="#ADD1B2" rx="12" ry="12" style="stroke:#181818;stroke-width:1.0;"/><path d="M353.5625,685.0781 Q352.875,685.4375 352.125,685.6094 Q351.375,685.7813 350.5469,685.7813 Q347.5938,685.7813 346.0313,683.8438 Q344.4844,681.8906 344.4844,678.2188 Q344.4844,674.5469 346.0313,672.6094 Q347.5938,670.6563 350.5469,670.6563 Q351.375,670.6563 352.125,670.8281 Q352.8906,671 353.5625,671.3594 L353.5625,674.5625 Q352.8125,673.875 352.1094,673.5625 Q351.4219,673.25 350.6719,673.25 Q349.0938,673.25 348.2813,674.5 Q347.4844,675.75 347.4844,678.2188 Q347.4844,680.6875 348.2813,681.9375 Q349.0938,683.1875 350.6719,683.1875 Q351.4219,683.1875 352.1094,682.875 Q352.8125,682.5625 353.5625,681.875 L353.5625,685.0781 Z " fill="#000000"/><text fill="#000000" font-family="sans-serif" font-size="20" lengthAdjust="spacing" textLength="117" x="372.5" y="684.9238">Transaction</text><line style="stroke:#4169E1;stroke-width:0.5;" x1="249" x2="578" y1="695" y2="695"/><text fill="#000000" font-family="sans-serif" font-size="20" lengthAdjust="spacing" textLength="59" x="254" y="717.5645">-int id</text><text fill="#000000" font-family="sans-serif" font-size="20" lengthAdjust="spacing" textLength="142" x="254" y="740.8457">-Person owner</text><text fill="#000000" font-family="sans-serif" font-size="20" lengthAdjust="spacing" textLength="319" x="254" y="764.127">-Announcement announcement</text><text fill="#000000" font-family="sans-serif" font-size="20" lengthAdjust="spacing" textLength="123" x="254" y="787.4082">-Order order</text><line style="stroke:#4169E1;stroke-width:0.5;" x1="249" x2="578" y1="796.125" y2="796.125"/><text fill="#000000" font-family="sans-serif" font-size="20" lengthAdjust="spacing" textLength="268" x="254" y="818.6895">+readTransaction(File file)</text></g><!--class TransactionMapper--><g id="elem_TransactionMapper"><rect codeLine="41" fill="#FFDAB9" height="96.5625" id="TransactionMapper" rx="2.5" ry="2.5" style="stroke:#4169E1;stroke-width:0.5;" width="571" x="605" y="287.5"/><ellipse cx="790" cy="304.5" fill="#ADD1B2" rx="12" ry="12" style="stroke:#181818;stroke-width:1.0;"/><path d="M793.0625,311.5781 Q792.375,311.9375 791.625,312.1094 Q790.875,312.2813 790.0469,312.2813 Q787.0938,312.2813 785.5313,310.3438 Q783.9844,308.3906 783.9844,304.7188 Q783.9844,301.0469 785.5313,299.1094 Q787.0938,297.1563 790.0469,297.1563 Q790.875,297.1563 791.625,297.3281 Q792.3906,297.5 793.0625,297.8594 L793.0625,301.0625 Q792.3125,300.375 791.6094,300.0625 Q790.9219,299.75 790.1719,299.75 Q788.5938,299.75 787.7813,301 Q786.9844,302.25 786.9844,304.7188 Q786.9844,307.1875 787.7813,308.4375 Q788.5938,309.6875 790.1719,309.6875 Q790.9219,309.6875 791.6094,309.375 Q792.3125,309.0625 793.0625,308.375 L793.0625,311.5781 Z " fill="#000000"/><text fill="#000000" font-family="sans-serif" font-size="20" lengthAdjust="spacing" textLength="192" x="812" y="311.4238">TransactionMapper</text><line style="stroke:#4169E1;stroke-width:0.5;" x1="606" x2="1175" y1="321.5" y2="321.5"/><line style="stroke:#4169E1;stroke-width:0.5;" x1="606" x2="1175" y1="329.5" y2="329.5"/><text fill="#000000" font-family="sans-serif" font-size="20" lengthAdjust="spacing" textLength="559" x="611" y="352.0645">+List &lt;TransactionDTO&gt; toDTO(List&lt;Transaction&gt; list)</text><text fill="#000000" font-family="sans-serif" font-size="20" lengthAdjust="spacing" textLength="498" x="611" y="375.3457">+TransactionDTO toDTO(Transaction transaction)</text></g><!--class TransactionDTO--><g id="elem_TransactionDTO"><rect codeLine="45" fill="#FFDAB9" height="143.125" id="TransactionDTO" rx="2.5" ry="2.5" style="stroke:#4169E1;stroke-width:0.5;" width="374" x="947.5" y="457"/><ellipse cx="1050" cy="474" fill="#ADD1B2" rx="12" ry="12" style="stroke:#181818;stroke-width:1.0;"/><path d="M1053.0625,481.0781 Q1052.375,481.4375 1051.625,481.6094 Q1050.875,481.7813 1050.0469,481.7813 Q1047.0938,481.7813 1045.5313,479.8438 Q1043.9844,477.8906 1043.9844,474.2188 Q1043.9844,470.5469 1045.5313,468.6094 Q1047.0938,466.6563 1050.0469,466.6563 Q1050.875,466.6563 1051.625,466.8281 Q1052.3906,467 1053.0625,467.3594 L1053.0625,470.5625 Q1052.3125,469.875 1051.6094,469.5625 Q1050.9219,469.25 1050.1719,469.25 Q1048.5938,469.25 1047.7813,470.5 Q1046.9844,471.75 1046.9844,474.2188 Q1046.9844,476.6875 1047.7813,477.9375 Q1048.5938,479.1875 1050.1719,479.1875 Q1050.9219,479.1875 1051.6094,478.875 Q1052.3125,478.5625 1053.0625,477.875 L1053.0625,481.0781 Z " fill="#000000"/><text fill="#000000" font-family="sans-serif" font-size="20" lengthAdjust="spacing" textLength="160" x="1072" y="480.9238">TransactionDTO</text><line style="stroke:#4169E1;stroke-width:0.5;" x1="948.5" x2="1320.5" y1="491" y2="491"/><text fill="#000000" font-family="sans-serif" font-size="20" lengthAdjust="spacing" textLength="59" x="953.5" y="513.5645">-int id</text><text fill="#000000" font-family="sans-serif" font-size="20" lengthAdjust="spacing" textLength="185" x="953.5" y="536.8457">-PersonDTO owner</text><text fill="#000000" font-family="sans-serif" font-size="20" lengthAdjust="spacing" textLength="362" x="953.5" y="560.127">-AnnouncementDTO announcement</text><text fill="#000000" font-family="sans-serif" font-size="20" lengthAdjust="spacing" textLength="166" x="953.5" y="583.4082">-OrderDTO order</text><line style="stroke:#4169E1;stroke-width:0.5;" x1="948.5" x2="1320.5" y1="592.125" y2="592.125"/></g><!--link ImportBusinessDataUI to ImportBusinessDataController--><g id="link_ImportBusinessDataUI_ImportBusinessDataController"><path codeLine="54" d="M551.5,57.3 C551.5,72.74 551.5,93.33 551.5,112.41 " fill="none" id="ImportBusinessDataUI-to-ImportBusinessDataController" style="stroke:#4169E1;stroke-width:1.0;"/><polygon fill="#4169E1" points="551.5,117.74,555.5,108.74,551.5,112.74,547.5,108.74,551.5,117.74" style="stroke:#4169E1;stroke-width:1.0;"/></g><!--link ImportBusinessDataController to Repositories--><g id="link_ImportBusinessDataController_Repositories"><path codeLine="57" d="M440.22,215.05 C397.33,233.38 347.73,254.57 302.27,274 " fill="none" id="ImportBusinessDataController-to-Repositories" style="stroke:#4169E1;stroke-width:1.0;"/><polygon fill="#4169E1" points="297.6,275.99,307.4481,276.1102,302.1935,274.0152,304.2885,268.7606,297.6,275.99" style="stroke:#4169E1;stroke-width:1.0;"/></g><!--link ImportBusinessDataController to TransactionRepository--><g id="link_ImportBusinessDataController_TransactionRepository"><path codeLine="58" d="M529.2,215.12 C497.84,282.09 444.5,396 444.5,396 C444.5,396 388.84,439.57 341.59,476.55 " fill="none" id="ImportBusinessDataController-to-TransactionRepository" style="stroke:#4169E1;stroke-width:1.0;stroke-dasharray:7.0,7.0;"/><polygon fill="#4169E1" points="337.63,479.65,347.1881,477.2748,341.5745,476.5773,342.2719,470.9636,337.63,479.65" style="stroke:#4169E1;stroke-width:1.0;"/></g><!--link ImportBusinessDataController to TransactionMapper--><g id="link_ImportBusinessDataController_TransactionMapper"><path codeLine="59" d="M647.74,215.05 C692.12,236.98 744.79,263.01 789.72,285.2 " fill="none" id="ImportBusinessDataController-to-TransactionMapper" style="stroke:#4169E1;stroke-width:1.0;stroke-dasharray:7.0,7.0;"/><polygon fill="#4169E1" points="794.32,287.48,788.0203,279.9095,789.8365,285.2668,784.4791,287.0831,794.32,287.48" style="stroke:#4169E1;stroke-width:1.0;"/></g><!--link ImportBusinessDataController to TransactionDTO--><g id="link_ImportBusinessDataController_TransactionDTO"><path codeLine="60" d="M719.34,195.87 C909.56,228.01 1193.5,276 1193.5,276 C1193.5,276 1193.5,396 1193.5,396 C1193.5,396 1181.53,422.69 1168.37,452.02 " fill="none" id="ImportBusinessDataController-to-TransactionDTO" style="stroke:#4169E1;stroke-width:1.0;stroke-dasharray:7.0,7.0;"/><polygon fill="#4169E1" points="1166.25,456.75,1173.5815,450.1736,1168.2953,452.1875,1166.2815,446.9012,1166.25,456.75" style="stroke:#4169E1;stroke-width:1.0;"/></g><!--link ImportBusinessDataController to Transaction--><g id="link_ImportBusinessDataController_Transaction"><path codeLine="61" d="M547.54,215.02 C538.19,327.37 515.5,600 515.5,600 C515.5,600 496.65,626.43 475.15,656.57 " fill="none" id="ImportBusinessDataController-to-Transaction" style="stroke:#4169E1;stroke-width:1.0;stroke-dasharray:7.0,7.0;"/><polygon fill="#4169E1" points="472.24,660.64,480.7194,655.6301,475.1408,656.5675,474.2034,650.9888,472.24,660.64" style="stroke:#4169E1;stroke-width:1.0;"/></g><!--link Repositories to Repositories--><g id="link_Repositories_Repositories"><path codeLine="64" d="M312.16,320.99 C333.06,323.48 347,328.49 347,336 C347,342.87 335.35,347.64 317.39,350.32 " fill="none" id="Repositories-to-Repositories" style="stroke:#4169E1;stroke-width:1.0;"/><polygon fill="#4169E1" points="312.16,351.01,321.6076,353.7926,317.1166,350.3529,320.5563,345.862,312.16,351.01" style="stroke:#4169E1;stroke-width:1.0;"/><text fill="#000000" font-family="sans-serif" font-size="20" lengthAdjust="spacing" textLength="85" x="353" y="343.0645">instance</text></g><!--link Repositories to TransactionRepository--><g id="link_Repositories_TransactionRepository"><path codeLine="65" d="M195.88,396.23 C211.41,421.53 229.39,450.79 244.42,475.27 " fill="none" id="Repositories-to-TransactionRepository" style="stroke:#4169E1;stroke-width:1.0;"/><polygon fill="#4169E1" points="247.19,479.78,245.9035,470.0155,244.5799,475.5154,239.08,474.1917,247.19,479.78" style="stroke:#4169E1;stroke-width:1.0;"/></g><!--link TransactionMapper to TransactionDTO--><g id="link_TransactionMapper_TransactionDTO"><path codeLine="68" d="M951.44,384.58 C978.19,405.46 1010.21,430.46 1039.94,453.68 " fill="none" id="TransactionMapper-to-TransactionDTO" style="stroke:#4169E1;stroke-width:1.0;stroke-dasharray:7.0,7.0;"/><polygon fill="#4169E1" points="1043.93,456.79,1039.2881,448.1036,1039.9855,453.7173,1034.3719,454.4148,1043.93,456.79" style="stroke:#4169E1;stroke-width:1.0;"/></g><!--link TransactionRepository to Transaction--><g id="link_TransactionRepository_Transaction"><path codeLine="71" d="M307.07,577.15 C322.05,600.48 340.55,629.31 357.9,656.36 " fill="none" id="TransactionRepository-to-Transaction" style="stroke:#4169E1;stroke-width:1.0;stroke-dasharray:7.0,7.0;"/><polygon fill="#4169E1" points="360.68,660.68,359.1929,650.9441,357.9827,656.4699,352.4568,655.2597,360.68,660.68" style="stroke:#4169E1;stroke-width:1.0;"/></g><!--SRC=[bLJRYjim47tNLyoR4vOiPHzB2IIx109TDkpb0rHvx8Z86YF93Md9ltSiEwwoyGRYXzXpF-Te5B_JjfPELeRK3dF8iP2D2IkouKt_GNZu9Z9_oe6ABAcjemeXk0R5_qWjrKwM-1OE1i6X2jAM9atmMvdJNjiI2cby6Z7QOZZK23MPGska4uSWkK0YgL96Uhy8mUbVJS2r8XlnCjpPwLbfnk93sxCSd9zRm5y1_2mPV-ceiVaZ6NAmGQcscwOeOdJX7Esxm2iTf5aQ9X_BoENeFaUE8ZDO10W4JfVR0Bbk9T5aHVRXqO6s0LqX5MP2T2XUiIQl0pcDlaCqIrsJQVJTbHZMrhEu2YTJ-7vMDcIyEsczZFE6-84x7FjPwwfcDPUDPsszVv91VgoxcLTI7daZ71c3hakzKrjKkrRY5RbAXXF2mTqMe0t9t55SFTaq-5FxmDpQru_4FUy6W9U_CN5Fac_Uok5xTEvf6Xy0wBmtDkWyrzBUekjT2sjv5nHMp01aOlJnb_RO8Hv-XygXp5DGSVSA_fcACHpFigu79IDJIAa-lR_CUNluDRbGWQ-43xtOS5xJbzmY2ETVqQJj-PKiRUmhPM9T5ES8GlHBlpujlHXRG9ZDvbVNZjianhNCsEhiPbpDlh-VZw_cJMNTYTvKmYhTbCyAdB5AZGlEV85q_qzncJXELsGT2H0NlCQWYooUjHXjTebT_0C0]--></g></svg>