<?xml version="1.0" encoding="UTF-8" standalone="no"?><svg xmlns="http://www.w3.org/2000/svg" xmlns:xlink="http://www.w3.org/1999/xlink" contentStyleType="text/css" height="438px" preserveAspectRatio="none" style="width:517px;height:438px;background:#FFFFFF;" version="1.1" viewBox="0 0 517 438" width="517px" zoomAndPan="magnify"><defs/><g><!--class Person--><g id="elem_Person"><rect codeLine="16" fill="#FFDAB9" height="194.0938" id="Person" rx="2.5" ry="2.5" style="stroke:#4169E1;stroke-width:0.5;" width="215" x="7" y="7"/><text fill="#000000" font-family="sans-serif" font-size="20" lengthAdjust="spacing" textLength="62" x="83.5" y="32.7617">Person</text><line style="stroke:#4169E1;stroke-width:0.5;" x1="8" x2="221" y1="42.1563" y2="42.1563"/><rect fill="none" height="6" style="stroke:#C82930;stroke-width:1.0;" width="6" x="15" y="57.2344"/><text fill="#000000" font-family="sans-serif" font-size="20" lengthAdjust="spacing" textLength="48" x="28" y="66.918">name</text><rect fill="none" height="6" style="stroke:#C82930;stroke-width:1.0;" width="6" x="15" y="82.3906"/><text fill="#000000" font-family="sans-serif" font-size="20" lengthAdjust="spacing" textLength="188" x="28" y="92.0742">passportCardNumber</text><rect fill="none" height="6" style="stroke:#C82930;stroke-width:1.0;" width="6" x="15" y="107.5469"/><text fill="#000000" font-family="sans-serif" font-size="20" lengthAdjust="spacing" textLength="94" x="28" y="117.2305">taxNumber</text><rect fill="none" height="6" style="stroke:#C82930;stroke-width:1.0;" width="6" x="15" y="132.7031"/><text fill="#000000" font-family="sans-serif" font-size="20" lengthAdjust="spacing" textLength="46" x="28" y="142.3867">email</text><rect fill="none" height="6" style="stroke:#C82930;stroke-width:1.0;" width="6" x="15" y="157.8594"/><text fill="#000000" font-family="sans-serif" font-size="20" lengthAdjust="spacing" textLength="121" x="28" y="167.543">phoneNumber</text><rect fill="none" height="6" style="stroke:#C82930;stroke-width:1.0;" width="6" x="15" y="183.0156"/><text fill="#000000" font-family="sans-serif" font-size="20" lengthAdjust="spacing" textLength="86" x="28" y="192.6992">password</text></g><!--class Client--><g id="elem_Client"><rect codeLine="24" fill="#FFDAB9" height="43.1563" id="Client" rx="2.5" ry="2.5" style="stroke:#4169E1;stroke-width:0.5;" width="55" x="409" y="43.5"/><text fill="#000000" font-family="sans-serif" font-size="20" lengthAdjust="spacing" textLength="49" x="412" y="69.2617">Client</text><line style="stroke:#4169E1;stroke-width:0.5;" x1="410" x2="463" y1="78.6563" y2="78.6563"/></g><!--class PO--><g id="elem_PO"><rect codeLine="27" fill="#FFDAB9" height="43.1563" id="PO" rx="2.5" ry="2.5" style="stroke:#4169E1;stroke-width:0.5;" width="147" x="363" y="121.5"/><text fill="#000000" font-family="sans-serif" font-size="20" lengthAdjust="spacing" textLength="141" x="366" y="147.2617">Property Owner</text><line style="stroke:#4169E1;stroke-width:0.5;" x1="364" x2="509" y1="156.6563" y2="156.6563"/></g><!--class Address--><g id="elem_Address"><rect codeLine="30" fill="#FFDAB9" height="168.9375" id="Address" rx="2.5" ry="2.5" style="stroke:#4169E1;stroke-width:0.5;" width="98" x="65.5" y="262.5"/><text fill="#000000" font-family="sans-serif" font-size="20" lengthAdjust="spacing" textLength="73" x="78" y="288.2617">Address</text><line style="stroke:#4169E1;stroke-width:0.5;" x1="66.5" x2="162.5" y1="297.6563" y2="297.6563"/><rect fill="none" height="6" style="stroke:#C82930;stroke-width:1.0;" width="6" x="73.5" y="312.7344"/><text fill="#000000" font-family="sans-serif" font-size="20" lengthAdjust="spacing" textLength="51" x="86.5" y="322.418">street</text><rect fill="none" height="6" style="stroke:#C82930;stroke-width:1.0;" width="6" x="73.5" y="337.8906"/><text fill="#000000" font-family="sans-serif" font-size="20" lengthAdjust="spacing" textLength="71" x="86.5" y="347.5742">zipCode</text><rect fill="none" height="6" style="stroke:#C82930;stroke-width:1.0;" width="6" x="73.5" y="363.0469"/><text fill="#000000" font-family="sans-serif" font-size="20" lengthAdjust="spacing" textLength="47" x="86.5" y="372.7305">State</text><rect fill="none" height="6" style="stroke:#C82930;stroke-width:1.0;" width="6" x="73.5" y="388.2031"/><text fill="#000000" font-family="sans-serif" font-size="20" lengthAdjust="spacing" textLength="61" x="86.5" y="397.8867">District</text><rect fill="none" height="6" style="stroke:#C82930;stroke-width:1.0;" width="6" x="73.5" y="413.3594"/><text fill="#000000" font-family="sans-serif" font-size="20" lengthAdjust="spacing" textLength="34" x="86.5" y="423.043">City</text></g><!--link Person to Client--><g id="link_Person_Client"><path codeLine="41" d="M222.06,91.01 C288.24,82.95 368.2,73.2 408.9,68.24 " fill="none" id="Person-Client" style="stroke:#4169E1;stroke-width:1.0;"/><polygon fill="#000000" points="267.9412,62.6103,253.0065,59.6933,254.1443,69.0288,267.9412,62.6103" style="stroke:#000000;stroke-width:1.0;"/><text fill="#000000" font-family="sans-serif" font-size="20" lengthAdjust="spacing" textLength="59" x="273" y="71.7617">can be</text><text fill="#000000" font-family="sans-serif" font-size="20" lengthAdjust="spacing" textLength="11" x="230.0095" y="111.7395">1</text><text fill="#000000" font-family="sans-serif" font-size="20" lengthAdjust="spacing" textLength="11" x="389.8319" y="92.8383">1</text></g><!--link Person to PO--><g id="link_Person_PO"><path codeLine="42" d="M222.05,117.32 C232.17,118.57 242.28,119.81 252,121 C288.47,125.46 329.02,130.33 362.71,134.35 " fill="none" id="Person-PO" style="stroke:#4169E1;stroke-width:1.0;"/><polygon fill="#000000" points="267.942,108.5397,254.14,102.132,253.0096,111.4684,267.942,108.5397" style="stroke:#000000;stroke-width:1.0;"/><text fill="#000000" font-family="sans-serif" font-size="20" lengthAdjust="spacing" textLength="59" x="273" y="115.7617">can be</text><text fill="#000000" font-family="sans-serif" font-size="20" lengthAdjust="spacing" textLength="11" x="229.9988" y="139.8994">1</text><text fill="#000000" font-family="sans-serif" font-size="20" lengthAdjust="spacing" textLength="11" x="343.9049" y="155.4907">1</text></g><!--reverse link Person to Address--><g id="link_Person_Address"><path codeLine="44" d="M114.5,214.63 C114.5,230.66 114.5,246.94 114.5,262.35 " fill="none" id="Person-backto-Address" style="stroke:#4169E1;stroke-width:1.0;"/><polygon fill="#4169E1" points="114.5,201.25,110.5,207.25,114.5,213.25,118.5,207.25,114.5,201.25" style="stroke:#4169E1;stroke-width:1.0;"/><polygon fill="#000000" points="79.5,239.8281,84.2023,225.356,74.7977,225.356,79.5,239.8281" style="stroke:#000000;stroke-width:1.0;"/><text fill="#000000" font-family="sans-serif" font-size="20" lengthAdjust="spacing" textLength="31" x="92.5" y="240.0117">has</text><text fill="#000000" font-family="sans-serif" font-size="20" lengthAdjust="spacing" textLength="11" x="114.8867" y="229.7307">1</text><text fill="#000000" font-family="sans-serif" font-size="20" lengthAdjust="spacing" textLength="31" x="115.7836" y="250.0755">0..*</text></g><!--SRC=[RPBFRjim3CRlUWh2bm85N6Gxxb0WpL1WbpLOda2HQ5k8B1eKZSnjz-vZ_QTpil1YITz7waVA-HHIPzcsaTm9FNYiR1_bcP8SmYl2rusvoui7Maha6gOMGRX7yq_fh3lP6WyoH0H69pRLSMt8ZVLq3gc6oiQCwwen99IXGo2MXap4Ia08EDIDW0yVrGAbTOQBDkUj28TZB_Z3KHfXDwO97i45Tdhtk6vHI_fixiebdeCIPkLKbiz3SrKRtWneF6bNDLEV_8uYCUpHkcRVLzMeRfdfF0c_QB3nAUf8nZHYZtoj_5b1QBnldH3dz_8gp0ImHywKPeuIacrnNdOgTpggdMN_is-FoBCWzlV57biRufBKKC8BzQFCMK6LQxfn5mCcUJEV1yMUgKEM0LxE2Ra0grWli79ilMVCUO7CmeWoRrv3joE_G1_4ohB-7jGOt6BS1HcqukLqvj2NJTFpv_z5OymyfU9B0MKvVgOku1iuc-28y7Z3eqsizBNXNWsRXuVxOcbDZOss_NYJhcoGW-XlVqjJkhy0]--></g></svg>