<?xml version="1.0" encoding="UTF-8" standalone="no"?><svg xmlns="http://www.w3.org/2000/svg" xmlns:xlink="http://www.w3.org/1999/xlink" contentStyleType="text/css" height="863px" preserveAspectRatio="none" style="width:950px;height:863px;background:#FFFFFF;" version="1.1" viewBox="0 0 950 863" width="950px" zoomAndPan="magnify"><defs/><g><text fill="#000000" font-family="sans-serif" font-size="14" font-weight="bold" lengthAdjust="spacing" textLength="351" x="300.75" y="29.5332">System Sequence Diagram (SSD) - Alternative One</text><rect fill="#FFFFFF" height="626.2344" style="stroke:#181818;stroke-width:1.0;" width="10" x="86.5" y="138.7656"/><rect fill="#FFFFFF" height="89.4688" style="stroke:#181818;stroke-width:1.0;" width="10" x="885.5" y="169.9219"/><rect fill="#FFFFFF" height="39.1563" style="stroke:#181818;stroke-width:1.0;" width="10" x="885.5" y="336.5703"/><rect fill="#FFFFFF" height="39.1563" style="stroke:#181818;stroke-width:1.0;" width="10" x="885.5" y="414.8828"/><rect fill="#FFFFFF" height="39.1563" style="stroke:#181818;stroke-width:1.0;" width="10" x="885.5" y="493.1953"/><rect fill="#FFFFFF" height="106.1797" style="stroke:#181818;stroke-width:1.0;" width="10" x="885.5" y="571.5078"/><rect fill="#FFFFFF" height="39.1563" style="stroke:#181818;stroke-width:1.0;" width="10" x="885.5" y="716.8438"/><rect fill="none" height="365.1406" style="stroke:#000000;stroke-width:1.5;" width="933.5" x="10" y="274.3906"/><line style="stroke:#181818;stroke-width:0.5;stroke-dasharray:5.0,5.0;" x1="91" x2="91" y1="128.7656" y2="774"/><line style="stroke:#181818;stroke-width:0.5;stroke-dasharray:5.0,5.0;" x1="890.5" x2="890.5" y1="128.7656" y2="774"/><text fill="#000000" font-family="sans-serif" font-size="20" lengthAdjust="spacing" textLength="137" x="20" y="124.3711">Unregister User</text><ellipse cx="91.5" cy="52.1094" fill="#D3D3D3" rx="8" ry="8" style="stroke:#181818;stroke-width:0.5;"/><path d="M91.5,60.1094 L91.5,87.1094 M78.5,68.1094 L104.5,68.1094 M91.5,87.1094 L78.5,102.1094 M91.5,87.1094 L104.5,102.1094 " fill="none" style="stroke:#181818;stroke-width:0.5;"/><text fill="#000000" font-family="sans-serif" font-size="20" lengthAdjust="spacing" textLength="137" x="20" y="793.7617">Unregister User</text><ellipse cx="91.5" cy="806.6563" fill="#D3D3D3" rx="8" ry="8" style="stroke:#181818;stroke-width:0.5;"/><path d="M91.5,814.6563 L91.5,841.6563 M78.5,822.6563 L104.5,822.6563 M91.5,841.6563 L78.5,856.6563 M91.5,841.6563 L104.5,856.6563 " fill="none" style="stroke:#181818;stroke-width:0.5;"/><rect fill="#E2E2F0" height="39.1563" rx="2.5" ry="2.5" style="stroke:#181818;stroke-width:0.5;" width="86" x="847.5" y="88.6094"/><text fill="#000000" font-family="sans-serif" font-size="20" lengthAdjust="spacing" textLength="72" x="854.5" y="116.3711">:System</text><rect fill="#E2E2F0" height="39.1563" rx="2.5" ry="2.5" style="stroke:#181818;stroke-width:0.5;" width="86" x="847.5" y="773"/><text fill="#000000" font-family="sans-serif" font-size="20" lengthAdjust="spacing" textLength="72" x="854.5" y="800.7617">:System</text><rect fill="#FFFFFF" height="626.2344" style="stroke:#181818;stroke-width:1.0;" width="10" x="86.5" y="138.7656"/><rect fill="#FFFFFF" height="89.4688" style="stroke:#181818;stroke-width:1.0;" width="10" x="885.5" y="169.9219"/><rect fill="#FFFFFF" height="39.1563" style="stroke:#181818;stroke-width:1.0;" width="10" x="885.5" y="336.5703"/><rect fill="#FFFFFF" height="39.1563" style="stroke:#181818;stroke-width:1.0;" width="10" x="885.5" y="414.8828"/><rect fill="#FFFFFF" height="39.1563" style="stroke:#181818;stroke-width:1.0;" width="10" x="885.5" y="493.1953"/><rect fill="#FFFFFF" height="106.1797" style="stroke:#181818;stroke-width:1.0;" width="10" x="885.5" y="571.5078"/><rect fill="#FFFFFF" height="39.1563" style="stroke:#181818;stroke-width:1.0;" width="10" x="885.5" y="716.8438"/><polygon fill="#181818" points="873.5,165.9219,883.5,169.9219,873.5,173.9219,877.5,169.9219" style="stroke:#181818;stroke-width:1.0;"/><line style="stroke:#181818;stroke-width:1.0;" x1="96.5" x2="879.5" y1="169.9219" y2="169.9219"/><text fill="#000000" font-family="sans-serif" font-size="20" font-weight="bold" lengthAdjust="spacing" textLength="11" x="103.5" y="163.5273">1</text><text fill="#000000" font-family="sans-serif" font-size="20" lengthAdjust="spacing" textLength="227" x="118.5" y="163.5273">asks to create an account</text><polygon fill="#181818" points="107.5,255.3906,97.5,259.3906,107.5,263.3906,103.5,259.3906" style="stroke:#181818;stroke-width:1.0;"/><line style="stroke:#181818;stroke-width:1.0;stroke-dasharray:2.0,2.0;" x1="101.5" x2="889.5" y1="259.3906" y2="259.3906"/><text fill="#000000" font-family="sans-serif" font-size="20" font-weight="bold" lengthAdjust="spacing" textLength="11" x="113.5" y="227.8398">2</text><text fill="#000000" font-family="sans-serif" font-size="20" lengthAdjust="spacing" textLength="502" x="128.5" y="202.6836">requests data (name, passport card number, tax number,</text><text fill="#000000" font-family="sans-serif" font-size="20" lengthAdjust="spacing" textLength="750" x="128.5" y="227.8398">address ((asks to select a state) (not mandatory)), email address and phone number)</text><text fill="#000000" font-family="sans-serif" font-size="20" lengthAdjust="spacing" textLength="207" x="128.5" y="252.9961">and shows list of states</text><path d="M10,274.3906 L78,274.3906 L78,291.5469 L68,301.5469 L10,301.5469 L10,274.3906 " fill="#EEEEEE" style="stroke:#000000;stroke-width:1.5;"/><rect fill="none" height="365.1406" style="stroke:#000000;stroke-width:1.5;" width="933.5" x="10" y="274.3906"/><text fill="#008000" font-family="sans-serif" font-size="20" font-weight="bold" lengthAdjust="spacing" textLength="23" x="25" y="296.1523">alt</text><text fill="#0000FF" font-family="sans-serif" font-size="15" font-weight="bold" lengthAdjust="spacing" textLength="118" x="93" y="291.9619">[enters Address]</text><polygon fill="#181818" points="873.5,332.5703,883.5,336.5703,873.5,340.5703,877.5,336.5703" style="stroke:#181818;stroke-width:1.0;"/><line style="stroke:#181818;stroke-width:1.0;" x1="96.5" x2="879.5" y1="336.5703" y2="336.5703"/><text fill="#000000" font-family="sans-serif" font-size="20" font-weight="bold" lengthAdjust="spacing" textLength="11" x="103.5" y="330.1758">3</text><text fill="#000000" font-family="sans-serif" font-size="20" lengthAdjust="spacing" textLength="274" x="118.5" y="330.1758">types all data and selects state</text><polygon fill="#181818" points="107.5,371.7266,97.5,375.7266,107.5,379.7266,103.5,375.7266" style="stroke:#181818;stroke-width:1.0;"/><line style="stroke:#181818;stroke-width:1.0;stroke-dasharray:2.0,2.0;" x1="101.5" x2="889.5" y1="375.7266" y2="375.7266"/><text fill="#000000" font-family="sans-serif" font-size="20" font-weight="bold" lengthAdjust="spacing" textLength="11" x="113.5" y="369.332">4</text><text fill="#000000" font-family="sans-serif" font-size="20" lengthAdjust="spacing" textLength="588" x="128.5" y="369.332">shows list of districts available for that state and asks to select one</text><polygon fill="#181818" points="873.5,410.8828,883.5,414.8828,873.5,418.8828,877.5,414.8828" style="stroke:#181818;stroke-width:1.0;"/><line style="stroke:#181818;stroke-width:1.0;" x1="96.5" x2="879.5" y1="414.8828" y2="414.8828"/><text fill="#000000" font-family="sans-serif" font-size="20" font-weight="bold" lengthAdjust="spacing" textLength="11" x="103.5" y="408.4883">5</text><text fill="#000000" font-family="sans-serif" font-size="20" lengthAdjust="spacing" textLength="126" x="118.5" y="408.4883">selects district</text><polygon fill="#181818" points="107.5,450.0391,97.5,454.0391,107.5,458.0391,103.5,454.0391" style="stroke:#181818;stroke-width:1.0;"/><line style="stroke:#181818;stroke-width:1.0;stroke-dasharray:2.0,2.0;" x1="101.5" x2="889.5" y1="454.0391" y2="454.0391"/><text fill="#000000" font-family="sans-serif" font-size="20" font-weight="bold" lengthAdjust="spacing" textLength="11" x="113.5" y="447.6445">6</text><text fill="#000000" font-family="sans-serif" font-size="20" lengthAdjust="spacing" textLength="579" x="128.5" y="447.6445">shows list of cities available for that district and asks to select one</text><polygon fill="#181818" points="873.5,489.1953,883.5,493.1953,873.5,497.1953,877.5,493.1953" style="stroke:#181818;stroke-width:1.0;"/><line style="stroke:#181818;stroke-width:1.0;" x1="96.5" x2="879.5" y1="493.1953" y2="493.1953"/><text fill="#000000" font-family="sans-serif" font-size="20" font-weight="bold" lengthAdjust="spacing" textLength="11" x="103.5" y="486.8008">7</text><text fill="#000000" font-family="sans-serif" font-size="20" lengthAdjust="spacing" textLength="98" x="118.5" y="486.8008">selects city</text><polygon fill="#181818" points="107.5,528.3516,97.5,532.3516,107.5,536.3516,103.5,532.3516" style="stroke:#181818;stroke-width:1.0;"/><line style="stroke:#181818;stroke-width:1.0;stroke-dasharray:2.0,2.0;" x1="101.5" x2="889.5" y1="532.3516" y2="532.3516"/><text fill="#000000" font-family="sans-serif" font-size="20" font-weight="bold" lengthAdjust="spacing" textLength="11" x="113.5" y="525.957">8</text><text fill="#000000" font-family="sans-serif" font-size="20" lengthAdjust="spacing" textLength="86" x="128.5" y="525.957">asks data</text><polygon fill="#181818" points="873.5,567.5078,883.5,571.5078,873.5,575.5078,877.5,571.5078" style="stroke:#181818;stroke-width:1.0;"/><line style="stroke:#181818;stroke-width:1.0;" x1="96.5" x2="879.5" y1="571.5078" y2="571.5078"/><text fill="#000000" font-family="sans-serif" font-size="20" font-weight="bold" lengthAdjust="spacing" textLength="11" x="103.5" y="565.1133">9</text><text fill="#000000" font-family="sans-serif" font-size="20" lengthAdjust="spacing" textLength="377" x="118.5" y="565.1133">types necessary data (street and zip code)</text><line style="stroke:#000000;stroke-width:1.0;stroke-dasharray:2.0,2.0;" x1="10" x2="943.5" y1="580.5078" y2="580.5078"/><text fill="#0000FF" font-family="sans-serif" font-size="15" font-weight="bold" lengthAdjust="spacing" textLength="176" x="15" y="596.0791">[does not enter Address]</text><polygon fill="#181818" points="873.5,627.5313,883.5,631.5313,873.5,635.5313,877.5,631.5313" style="stroke:#181818;stroke-width:1.0;"/><line style="stroke:#181818;stroke-width:1.0;" x1="96.5" x2="879.5" y1="631.5313" y2="631.5313"/><text fill="#000000" font-family="sans-serif" font-size="20" font-weight="bold" lengthAdjust="spacing" textLength="22" x="103.5" y="625.1367">10</text><text fill="#000000" font-family="sans-serif" font-size="20" lengthAdjust="spacing" textLength="361" x="129.5" y="625.1367">types requested data except the address</text><polygon fill="#181818" points="107.5,673.6875,97.5,677.6875,107.5,681.6875,103.5,677.6875" style="stroke:#181818;stroke-width:1.0;"/><line style="stroke:#181818;stroke-width:1.0;stroke-dasharray:2.0,2.0;" x1="101.5" x2="889.5" y1="677.6875" y2="677.6875"/><text fill="#000000" font-family="sans-serif" font-size="20" font-weight="bold" lengthAdjust="spacing" textLength="22" x="113.5" y="671.293">11</text><text fill="#000000" font-family="sans-serif" font-size="20" lengthAdjust="spacing" textLength="404" x="139.5" y="671.293">shows inserted data and asks for confirmation</text><polygon fill="#181818" points="873.5,712.8438,883.5,716.8438,873.5,720.8438,877.5,716.8438" style="stroke:#181818;stroke-width:1.0;"/><line style="stroke:#181818;stroke-width:1.0;" x1="96.5" x2="879.5" y1="716.8438" y2="716.8438"/><text fill="#000000" font-family="sans-serif" font-size="20" font-weight="bold" lengthAdjust="spacing" textLength="22" x="103.5" y="710.4492">12</text><text fill="#000000" font-family="sans-serif" font-size="20" lengthAdjust="spacing" textLength="119" x="129.5" y="710.4492">confirms data</text><polygon fill="#181818" points="107.5,752,97.5,756,107.5,760,103.5,756" style="stroke:#181818;stroke-width:1.0;"/><line style="stroke:#181818;stroke-width:1.0;stroke-dasharray:2.0,2.0;" x1="101.5" x2="889.5" y1="756" y2="756"/><text fill="#000000" font-family="sans-serif" font-size="20" font-weight="bold" lengthAdjust="spacing" textLength="22" x="113.5" y="749.6055">13</text><text fill="#000000" font-family="sans-serif" font-size="20" lengthAdjust="spacing" textLength="236" x="139.5" y="749.6055">displays operation success</text><!--SRC=[hLHBJzj04BxxLupeWKG2gQtKImwLK17qKDI3bLilazs9lSfwrjqT0-RNTzOF6b20eDQNEFRCzvhnfftZ5YCsFfWTMR2qnSxBLM0ftGF1vuz5cakW2HnC7KD3i4MVQEzLYsQ75PNIUu98Hf0hlr-GQhJXpd4rjHRYH4lBFWarKDBlZjWGN3giSlcYB2-NS0uNNYWoYhib-CdQTWfNJljIBpw3wGFqCl_TuviHhsFesk-4bc8szItu4A6AHFnIyT-oZU_ejQeXeKzVYjCRPwsA4hfNAHf1bdAwvtrglA6KDAGBxoe6GwpMtYopBgVf0XVOIU2ksMXJWKPKtycQ8rLE4uomJXHF01Eir_3XXwjgkOxK5ueiphWMMU1aDQOzb8stHG5wAPgxHI7j7HyenldNUJOhBTyba00cKgv2rWuJEfQdtVkG-PhwpnLA0LUw5kelIGABWh1WREXC5oUbDaG1Wz72wEyC1E_d-r-CraQD11QBMKWYhw40QjXAl5Ii8D0WAt28_N9v1jIWyp1twXjewy0qWIuLL1-bEjmby1eWXEs8bGRrbWwQofisJ2t1nOXyC2xfMr9ExqUZ0zCWE8qSxqljgKYhlz5bABnLXxZHjTlgAaYDCg8FVC-2KkUl-NgcVnOxS_sBNkF4qK6nC_h_qwjS_Vkq3hHvIEzW6wVBPF9N6ljfcTKBqUZbmRLWWgNborf8Jq2m8UE4QQMEsAZf-ycdTEQaUqEjQ9Wqx_a4plQjwJZMq-8Hw740UJOcyDR51eSZv_XKfhQzD8yUWYv2wx5F45gA0o-apkHuN-3_0m00]--></g></svg>