<?xml version="1.0" encoding="UTF-8" standalone="no"?><svg xmlns="http://www.w3.org/2000/svg" xmlns:xlink="http://www.w3.org/1999/xlink" contentStyleType="text/css" height="703px" preserveAspectRatio="none" style="width:754px;height:703px;background:#FFFFFF;" version="1.1" viewBox="0 0 754 703" width="754px" zoomAndPan="magnify"><defs/><g><!--class RespondVisitRequestUI--><g id="elem_RespondVisitRequestUI"><rect codeLine="17" fill="#FFDAB9" height="51.1563" id="RespondVisitRequestUI" rx="2.5" ry="2.5" style="stroke:#4169E1;stroke-width:0.5;" width="241" x="159.5" y="7"/><ellipse cx="175.5" cy="24.5781" fill="#ADD1B2" rx="12" ry="12" style="stroke:#181818;stroke-width:1.0;"/><path d="M177.6406,19.5 Q177.8281,19.25 178.0469,19.125 Q178.2656,18.9844 178.5156,18.9844 Q178.9531,18.9844 179.2344,19.2969 Q179.5156,19.5938 179.5156,20.3125 L179.5156,22.0156 Q179.5156,22.7344 179.2344,23.0469 Q178.9531,23.3594 178.5156,23.3594 Q178.125,23.3594 177.875,23.125 Q177.625,22.9063 177.5156,22.2969 Q177.4531,21.875 177.2344,21.6563 Q176.8438,21.2188 176.125,20.9531 Q175.4063,20.6875 174.6875,20.6875 Q173.7813,20.6875 173.0313,21.0781 Q172.2813,21.4688 171.7031,22.3594 Q171.125,23.2344 171.125,24.4375 L171.125,25.7344 Q171.125,27.1875 172.1719,28.1563 Q173.2344,29.125 175.0938,29.125 Q176.2031,29.125 176.9844,28.8125 Q177.4219,28.6406 177.9375,28.125 Q178.25,27.8125 178.4219,27.7188 Q178.5938,27.625 178.8281,27.625 Q179.2188,27.625 179.5156,27.9375 Q179.8281,28.2344 179.8281,28.6406 Q179.8281,29.0469 179.4219,29.5156 Q178.8281,30.2031 177.8906,30.5938 Q176.625,31.125 175.1094,31.125 Q173.3281,31.125 171.9063,30.3906 Q170.75,29.7969 169.9375,28.5313 Q169.125,27.2656 169.125,25.7813 L169.125,24.4219 Q169.125,22.8594 169.8438,21.5156 Q170.5781,20.1563 171.8594,19.4219 Q173.1563,18.6875 174.6094,18.6875 Q175.4688,18.6875 176.2188,18.8906 Q176.9844,19.0938 177.6406,19.5 Z " fill="#000000"/><text fill="#000000" font-family="sans-serif" font-size="20" lengthAdjust="spacing" textLength="207" x="190.5" y="32.7617">RespondVisitRequestUI</text><line style="stroke:#4169E1;stroke-width:0.5;" x1="160.5" x2="399.5" y1="42.1563" y2="42.1563"/><line style="stroke:#4169E1;stroke-width:0.5;" x1="160.5" x2="399.5" y1="50.1563" y2="50.1563"/></g><!--class RespondVisitRequestController--><g id="elem_RespondVisitRequestController"><rect codeLine="20" fill="#FFDAB9" height="126.625" id="RespondVisitRequestController" rx="2.5" ry="2.5" style="stroke:#4169E1;stroke-width:0.5;" width="314" x="123" y="119"/><ellipse cx="142.15" cy="136.5781" fill="#ADD1B2" rx="12" ry="12" style="stroke:#181818;stroke-width:1.0;"/><path d="M144.2906,131.5 Q144.4781,131.25 144.6969,131.125 Q144.9156,130.9844 145.1656,130.9844 Q145.6031,130.9844 145.8844,131.2969 Q146.1656,131.5938 146.1656,132.3125 L146.1656,134.0156 Q146.1656,134.7344 145.8844,135.0469 Q145.6031,135.3594 145.1656,135.3594 Q144.775,135.3594 144.525,135.125 Q144.275,134.9063 144.1656,134.2969 Q144.1031,133.875 143.8844,133.6563 Q143.4938,133.2188 142.775,132.9531 Q142.0563,132.6875 141.3375,132.6875 Q140.4313,132.6875 139.6813,133.0781 Q138.9313,133.4688 138.3531,134.3594 Q137.775,135.2344 137.775,136.4375 L137.775,137.7344 Q137.775,139.1875 138.8219,140.1563 Q139.8844,141.125 141.7438,141.125 Q142.8531,141.125 143.6344,140.8125 Q144.0719,140.6406 144.5875,140.125 Q144.9,139.8125 145.0719,139.7188 Q145.2438,139.625 145.4781,139.625 Q145.8688,139.625 146.1656,139.9375 Q146.4781,140.2344 146.4781,140.6406 Q146.4781,141.0469 146.0719,141.5156 Q145.4781,142.2031 144.5406,142.5938 Q143.275,143.125 141.7594,143.125 Q139.9781,143.125 138.5563,142.3906 Q137.4,141.7969 136.5875,140.5313 Q135.775,139.2656 135.775,137.7813 L135.775,136.4219 Q135.775,134.8594 136.4938,133.5156 Q137.2281,132.1563 138.5094,131.4219 Q139.8063,130.6875 141.2594,130.6875 Q142.1188,130.6875 142.8688,130.8906 Q143.6344,131.0938 144.2906,131.5 Z " fill="#000000"/><text fill="#000000" font-family="sans-serif" font-size="20" lengthAdjust="spacing" textLength="273" x="157.85" y="144.7617">RespondVisitRequestController</text><line style="stroke:#4169E1;stroke-width:0.5;" x1="124" x2="436" y1="154.1563" y2="154.1563"/><line style="stroke:#4169E1;stroke-width:0.5;" x1="124" x2="436" y1="162.1563" y2="162.1563"/><ellipse cx="134" cy="180.2344" fill="#84BE84" rx="3" ry="3" style="stroke:#038048;stroke-width:1.0;"/><text fill="#000000" font-family="sans-serif" font-size="20" lengthAdjust="spacing" textLength="79" x="144" y="186.918">getVisit()</text><ellipse cx="134" cy="205.3906" fill="#84BE84" rx="3" ry="3" style="stroke:#038048;stroke-width:1.0;"/><text fill="#000000" font-family="sans-serif" font-size="20" lengthAdjust="spacing" textLength="287" x="144" y="212.0742">notifyClient(Visit visit, String text)</text><ellipse cx="134" cy="230.5469" fill="#84BE84" rx="3" ry="3" style="stroke:#038048;stroke-width:1.0;"/><text fill="#000000" font-family="sans-serif" font-size="20" lengthAdjust="spacing" textLength="181" x="144" y="237.2305">deleteVisit(Visit visit)</text></g><!--class VisitRepository--><g id="elem_VisitRepository"><rect codeLine="25" fill="#FFDAB9" height="76.3125" id="VisitRepository" rx="2.5" ry="2.5" style="stroke:#4169E1;stroke-width:0.5;" width="208" x="7" y="620"/><ellipse cx="41.9" cy="637.5781" fill="#ADD1B2" rx="12" ry="12" style="stroke:#181818;stroke-width:1.0;"/><path d="M44.0406,632.5 Q44.2281,632.25 44.4469,632.125 Q44.6656,631.9844 44.9156,631.9844 Q45.3531,631.9844 45.6344,632.2969 Q45.9156,632.5938 45.9156,633.3125 L45.9156,635.0156 Q45.9156,635.7344 45.6344,636.0469 Q45.3531,636.3594 44.9156,636.3594 Q44.525,636.3594 44.275,636.125 Q44.025,635.9063 43.9156,635.2969 Q43.8531,634.875 43.6344,634.6563 Q43.2438,634.2188 42.525,633.9531 Q41.8063,633.6875 41.0875,633.6875 Q40.1813,633.6875 39.4313,634.0781 Q38.6813,634.4688 38.1031,635.3594 Q37.525,636.2344 37.525,637.4375 L37.525,638.7344 Q37.525,640.1875 38.5719,641.1563 Q39.6344,642.125 41.4938,642.125 Q42.6031,642.125 43.3844,641.8125 Q43.8219,641.6406 44.3375,641.125 Q44.65,640.8125 44.8219,640.7188 Q44.9938,640.625 45.2281,640.625 Q45.6188,640.625 45.9156,640.9375 Q46.2281,641.2344 46.2281,641.6406 Q46.2281,642.0469 45.8219,642.5156 Q45.2281,643.2031 44.2906,643.5938 Q43.025,644.125 41.5094,644.125 Q39.7281,644.125 38.3063,643.3906 Q37.15,642.7969 36.3375,641.5313 Q35.525,640.2656 35.525,638.7813 L35.525,637.4219 Q35.525,635.8594 36.2438,634.5156 Q36.9781,633.1563 38.2594,632.4219 Q39.5563,631.6875 41.0094,631.6875 Q41.8688,631.6875 42.6188,631.8906 Q43.3844,632.0938 44.0406,632.5 Z " fill="#000000"/><text fill="#000000" font-family="sans-serif" font-size="20" lengthAdjust="spacing" textLength="132" x="61.1" y="645.7617">VisitRepository</text><line style="stroke:#4169E1;stroke-width:0.5;" x1="8" x2="214" y1="655.1563" y2="655.1563"/><line style="stroke:#4169E1;stroke-width:0.5;" x1="8" x2="214" y1="663.1563" y2="663.1563"/><ellipse cx="18" cy="681.2344" fill="#84BE84" rx="3" ry="3" style="stroke:#038048;stroke-width:1.0;"/><text fill="#000000" font-family="sans-serif" font-size="20" lengthAdjust="spacing" textLength="181" x="28" y="687.918">deleteVisit(Visit visit)</text></g><!--class Repositories--><g id="elem_Repositories"><rect codeLine="28" fill="#FFDAB9" height="151.7813" id="Repositories" rx="2.5" ry="2.5" style="stroke:#4169E1;stroke-width:0.5;" width="271" x="144.5" y="357"/><ellipse cx="220.5" cy="374.5781" fill="#ADD1B2" rx="12" ry="12" style="stroke:#181818;stroke-width:1.0;"/><path d="M222.6406,369.5 Q222.8281,369.25 223.0469,369.125 Q223.2656,368.9844 223.5156,368.9844 Q223.9531,368.9844 224.2344,369.2969 Q224.5156,369.5938 224.5156,370.3125 L224.5156,372.0156 Q224.5156,372.7344 224.2344,373.0469 Q223.9531,373.3594 223.5156,373.3594 Q223.125,373.3594 222.875,373.125 Q222.625,372.9063 222.5156,372.2969 Q222.4531,371.875 222.2344,371.6563 Q221.8438,371.2188 221.125,370.9531 Q220.4063,370.6875 219.6875,370.6875 Q218.7813,370.6875 218.0313,371.0781 Q217.2813,371.4688 216.7031,372.3594 Q216.125,373.2344 216.125,374.4375 L216.125,375.7344 Q216.125,377.1875 217.1719,378.1563 Q218.2344,379.125 220.0938,379.125 Q221.2031,379.125 221.9844,378.8125 Q222.4219,378.6406 222.9375,378.125 Q223.25,377.8125 223.4219,377.7188 Q223.5938,377.625 223.8281,377.625 Q224.2188,377.625 224.5156,377.9375 Q224.8281,378.2344 224.8281,378.6406 Q224.8281,379.0469 224.4219,379.5156 Q223.8281,380.2031 222.8906,380.5938 Q221.625,381.125 220.1094,381.125 Q218.3281,381.125 216.9063,380.3906 Q215.75,379.7969 214.9375,378.5313 Q214.125,377.2656 214.125,375.7813 L214.125,374.4219 Q214.125,372.8594 214.8438,371.5156 Q215.5781,370.1563 216.8594,369.4219 Q218.1563,368.6875 219.6094,368.6875 Q220.4688,368.6875 221.2188,368.8906 Q221.9844,369.0938 222.6406,369.5 Z " fill="#000000"/><text fill="#000000" font-family="sans-serif" font-size="20" lengthAdjust="spacing" textLength="110" x="242.5" y="382.7617">Repositories</text><line style="stroke:#4169E1;stroke-width:0.5;" x1="145.5" x2="414.5" y1="392.1563" y2="392.1563"/><line style="stroke:#4169E1;stroke-width:0.5;" x1="145.5" x2="414.5" y1="400.1563" y2="400.1563"/><rect fill="#F24D5C" height="6" style="stroke:#C82930;stroke-width:1.0;" width="6" x="152.5" y="415.2344"/><text fill="#000000" font-family="sans-serif" font-size="20" lengthAdjust="spacing" textLength="124" x="165.5" y="424.918">Repositories()</text><ellipse cx="155.5" cy="443.3906" fill="#84BE84" rx="3" ry="3" style="stroke:#038048;stroke-width:1.0;"/><text fill="#000000" font-family="sans-serif" font-size="20" lengthAdjust="spacing" textLength="244" x="165.5" y="450.0742">getInstance() : Repositories</text><ellipse cx="155.5" cy="468.5469" fill="#84BE84" rx="3" ry="3" style="stroke:#038048;stroke-width:1.0;"/><text fill="#000000" font-family="sans-serif" font-size="20" lengthAdjust="spacing" textLength="174" x="165.5" y="475.2305">getVisitRepository()</text><ellipse cx="155.5" cy="493.7031" fill="#84BE84" rx="3" ry="3" style="stroke:#038048;stroke-width:1.0;"/><text fill="#000000" font-family="sans-serif" font-size="20" lengthAdjust="spacing" textLength="137" x="165.5" y="500.3867">getRepository()</text></g><!--class Message--><g id="elem_Message"><rect codeLine="34" fill="#FFDAB9" height="252.4063" id="Message" rx="2.5" ry="2.5" style="stroke:#4169E1;stroke-width:0.5;" width="195" x="552.5" y="307"/><ellipse cx="605" cy="324.5781" fill="#ADD1B2" rx="12" ry="12" style="stroke:#181818;stroke-width:1.0;"/><path d="M607.1406,319.5 Q607.3281,319.25 607.5469,319.125 Q607.7656,318.9844 608.0156,318.9844 Q608.4531,318.9844 608.7344,319.2969 Q609.0156,319.5938 609.0156,320.3125 L609.0156,322.0156 Q609.0156,322.7344 608.7344,323.0469 Q608.4531,323.3594 608.0156,323.3594 Q607.625,323.3594 607.375,323.125 Q607.125,322.9063 607.0156,322.2969 Q606.9531,321.875 606.7344,321.6563 Q606.3438,321.2188 605.625,320.9531 Q604.9063,320.6875 604.1875,320.6875 Q603.2813,320.6875 602.5313,321.0781 Q601.7813,321.4688 601.2031,322.3594 Q600.625,323.2344 600.625,324.4375 L600.625,325.7344 Q600.625,327.1875 601.6719,328.1563 Q602.7344,329.125 604.5938,329.125 Q605.7031,329.125 606.4844,328.8125 Q606.9219,328.6406 607.4375,328.125 Q607.75,327.8125 607.9219,327.7188 Q608.0938,327.625 608.3281,327.625 Q608.7188,327.625 609.0156,327.9375 Q609.3281,328.2344 609.3281,328.6406 Q609.3281,329.0469 608.9219,329.5156 Q608.3281,330.2031 607.3906,330.5938 Q606.125,331.125 604.6094,331.125 Q602.8281,331.125 601.4063,330.3906 Q600.25,329.7969 599.4375,328.5313 Q598.625,327.2656 598.625,325.7813 L598.625,324.4219 Q598.625,322.8594 599.3438,321.5156 Q600.0781,320.1563 601.3594,319.4219 Q602.6563,318.6875 604.1094,318.6875 Q604.9688,318.6875 605.7188,318.8906 Q606.4844,319.0938 607.1406,319.5 Z " fill="#000000"/><text fill="#000000" font-family="sans-serif" font-size="20" lengthAdjust="spacing" textLength="81" x="627" y="332.7617">Message</text><line style="stroke:#4169E1;stroke-width:0.5;" x1="553.5" x2="746.5" y1="342.1563" y2="342.1563"/><rect fill="none" height="6" style="stroke:#C82930;stroke-width:1.0;" width="6" x="560.5" y="357.2344"/><text fill="#000000" font-family="sans-serif" font-size="20" lengthAdjust="spacing" textLength="137" x="573.5" y="366.918">boolean isEmail</text><rect fill="none" height="6" style="stroke:#C82930;stroke-width:1.0;" width="6" x="560.5" y="382.3906"/><text fill="#000000" font-family="sans-serif" font-size="20" lengthAdjust="spacing" textLength="119" x="573.5" y="392.0742">String subject</text><rect fill="none" height="6" style="stroke:#C82930;stroke-width:1.0;" width="6" x="560.5" y="407.5469"/><text fill="#000000" font-family="sans-serif" font-size="20" lengthAdjust="spacing" textLength="133" x="573.5" y="417.2305">Employee from</text><rect fill="none" height="6" style="stroke:#C82930;stroke-width:1.0;" width="6" x="560.5" y="432.7031"/><text fill="#000000" font-family="sans-serif" font-size="20" lengthAdjust="spacing" textLength="85" x="573.5" y="442.3867">Person to</text><rect fill="none" height="6" style="stroke:#C82930;stroke-width:1.0;" width="6" x="560.5" y="457.8594"/><text fill="#000000" font-family="sans-serif" font-size="20" lengthAdjust="spacing" textLength="153" x="573.5" y="467.543">String information</text><line style="stroke:#4169E1;stroke-width:0.5;" x1="553.5" x2="746.5" y1="475.9375" y2="475.9375"/><ellipse cx="563.5" cy="494.0156" fill="#84BE84" rx="3" ry="3" style="stroke:#038048;stroke-width:1.0;"/><text fill="#000000" font-family="sans-serif" font-size="20" lengthAdjust="spacing" textLength="168" x="573.5" y="500.6992">getMessageBody()</text><ellipse cx="563.5" cy="519.1719" fill="#84BE84" rx="3" ry="3" style="stroke:#038048;stroke-width:1.0;"/><text fill="#000000" font-family="sans-serif" font-size="20" lengthAdjust="spacing" textLength="56" x="573.5" y="525.8555">send()</text><ellipse cx="563.5" cy="544.3281" fill="#84BE84" rx="3" ry="3" style="stroke:#038048;stroke-width:1.0;"/><text fill="#000000" font-family="sans-serif" font-size="20" lengthAdjust="spacing" textLength="55" x="573.5" y="551.0117">save()</text></g><!--link RespondVisitRequestUI to RespondVisitRequestController--><g id="link_RespondVisitRequestUI_RespondVisitRequestController"><path codeLine="47" d="M280,58.27 C280,73.6 280,94.07 280,113.93 " fill="none" id="RespondVisitRequestUI-to-RespondVisitRequestController" style="stroke:#4169E1;stroke-width:1.0;"/><polygon fill="#4169E1" points="280,118.96,284,109.96,280,113.96,276,109.96,280,118.96" style="stroke:#4169E1;stroke-width:1.0;"/></g><!--link RespondVisitRequestController to Repositories--><g id="link_RespondVisitRequestController_Repositories"><path codeLine="50" d="M280,246.21 C280,278.27 280,317.66 280,351.9 " fill="none" id="RespondVisitRequestController-to-Repositories" style="stroke:#4169E1;stroke-width:1.0;"/><polygon fill="#4169E1" points="280,356.92,284,347.92,280,351.92,276,347.92,280,356.92" style="stroke:#4169E1;stroke-width:1.0;"/></g><!--link RespondVisitRequestController to Message--><g id="link_RespondVisitRequestController_Message"><path codeLine="51" d="M409.37,246.15 C472.49,276.73 535,307 535,307 C535,307 540.33,312.8 548.7,321.89 " fill="none" id="RespondVisitRequestController-to-Message" style="stroke:#4169E1;stroke-width:1.0;stroke-dasharray:7.0,7.0;"/><polygon fill="#4169E1" points="552.47,325.98,549.3273,316.646,549.0875,322.2978,543.4357,322.058,552.47,325.98" style="stroke:#4169E1;stroke-width:1.0;"/></g><!--link RespondVisitRequestController to VisitRepository--><g id="link_RespondVisitRequestController_VisitRepository"><path codeLine="52" d="M202.16,246.34 C164.36,276.84 127,307 127,307 C127,307 117.19,521.61 112.93,614.73 " fill="none" id="RespondVisitRequestController-to-VisitRepository" style="stroke:#4169E1;stroke-width:1.0;stroke-dasharray:7.0,7.0;"/><polygon fill="#4169E1" points="112.7,619.88,117.108,611.0726,112.929,614.8852,109.1164,610.7063,112.7,619.88" style="stroke:#4169E1;stroke-width:1.0;"/></g><!--link Repositories to Repositories--><g id="link_Repositories_Repositories"><path codeLine="55" d="M415.76,406.33 C436.45,410.4 450.5,419.29 450.5,433 C450.5,445.53 438.76,454.04 420.94,458.52 " fill="none" id="Repositories-to-Repositories" style="stroke:#4169E1;stroke-width:1.0;"/><polygon fill="#4169E1" points="415.76,459.67,425.4146,461.6164,420.6403,458.5823,423.6743,453.808,415.76,459.67" style="stroke:#4169E1;stroke-width:1.0;"/><text fill="#000000" font-family="sans-serif" font-size="20" lengthAdjust="spacing" textLength="72" x="456.5" y="441.2617">instance</text></g><!--link Repositories to VisitRepository--><g id="link_Repositories_VisitRepository"><path codeLine="56" d="M223.02,509.19 C196.08,544.74 164.94,585.82 142.35,615.64 " fill="none" id="Repositories-to-VisitRepository" style="stroke:#4169E1;stroke-width:1.0;stroke-dasharray:7.0,7.0;"/><polygon fill="#4169E1" points="139.08,619.95,147.6991,615.1845,142.096,615.962,141.3184,610.3589,139.08,619.95" style="stroke:#4169E1;stroke-width:1.0;"/></g><!--SRC=[ZLB1Rjim3BthAtXBWit5iECE1PgW1N8e42JexefDErfaqQNeTbwnVvzYouwTTjbyI42-zyWdalveNALPbvRI8sQGOQvhAm_aP6T-8NpzecQ-vq19Zj83KuaWNACw8vLEZxh0dJGMWJ4LxGex9lY3pkZLk09oRVqOiSQXD1L2HROv1UEE0qWifCP8QhNtTo9izhNWEYNN6Wv-a_vxCC6CbrFHOaYgYnBmfY1yo_20WgbssOeiCMnGfuTDdUSjUiTChnsmfKRRfGslRsN46V8byblDBEO2Gi2cE0XavZGJGqxDdZmo62V8kKvnfbJdOek-8fTzDzx85fzhzFAqxgo5Sd_bhCAYcAn5xhYV2fGMdo-ws96Ol5bPWqxcBG8lfz_Fi0kZ2-iG_2cHcw55mKu-eYu60x5pHU6Fk7dxJzcWCEWxJJ9EzLQ3zRNpuN9Id2_WsqGsVTpPmaWxIVQj7z7xS9TnoGdiYIng1yRVbzhOc8sZyFN-HrXJJDwNbQK64V9my36tGVRambwdGkDoubAt2sxjGF0JMoyf6ro2HvUT0_s2hLKLhsBTNuNwy1eWIMwltq0eD0gkKcEnqOIlqczkRljP_fjuiQFWwgBHENXd8-pTn2EO4ZyihFu0]--></g></svg>