<?xml version="1.0" encoding="UTF-8" standalone="no"?><svg xmlns="http://www.w3.org/2000/svg" xmlns:xlink="http://www.w3.org/1999/xlink" contentStyleType="text/css" height="1528px" preserveAspectRatio="none" style="width:2310px;height:1528px;background:#FFFFFF;" version="1.1" viewBox="0 0 2310 1528" width="2310px" zoomAndPan="magnify"><defs/><g><rect fill="#FFFFFF" height="1329.7344" style="stroke:#181818;stroke-width:1.0;" width="10" x="28.5" y="100.1563"/><rect fill="#FFFFFF" height="310.25" style="stroke:#181818;stroke-width:1.0;" width="10" x="409.5" y="131.3125"/><rect fill="#FFFFFF" height="39.1563" style="stroke:#181818;stroke-width:1.0;" width="10" x="409.5" y="480.7188"/><rect fill="#FFFFFF" height="861.8594" style="stroke:#181818;stroke-width:1.0;" width="10" x="409.5" y="559.0313"/><rect fill="#FFFFFF" height="117.4688" style="stroke:#181818;stroke-width:1.0;" width="10" x="935.5" y="220.625"/><rect fill="#FFFFFF" height="783.5469" style="stroke:#181818;stroke-width:1.0;" width="10" x="935.5" y="598.1875"/><rect fill="#FFFFFF" height="39.1563" style="stroke:#181818;stroke-width:1.0;" width="10" x="1369.5" y="259.7813"/><rect fill="#FFFFFF" height="39.1563" style="stroke:#181818;stroke-width:1.0;" width="10" x="1546.5" y="675.3672"/><rect fill="#FFFFFF" height="39.1563" style="stroke:#181818;stroke-width:1.0;" width="10" x="1546.5" y="826.7031"/><rect fill="#FFFFFF" height="143.4688" style="stroke:#181818;stroke-width:1.0;" width="10" x="1810.5" y="964.1719"/><rect fill="#FFFFFF" height="39.1563" style="stroke:#181818;stroke-width:1.0;" width="10" x="1936" y="1146.7969"/><rect fill="#FFFFFF" height="39.1563" style="stroke:#181818;stroke-width:1.0;" width="10" x="2076" y="1225.1094"/><rect fill="#FFFFFF" height="39.1563" style="stroke:#181818;stroke-width:1.0;" width="10" x="2225" y="1303.4219"/><rect fill="none" height="312.8281" style="stroke:#000000;stroke-width:1.5;" width="820.5" x="784" y="613.1875"/><line style="stroke:#181818;stroke-width:0.5;stroke-dasharray:5.0,5.0;" x1="33" x2="33" y1="90.1563" y2="1438.8906"/><line style="stroke:#181818;stroke-width:0.5;stroke-dasharray:5.0,5.0;" x1="414" x2="414" y1="90.1563" y2="1438.8906"/><line style="stroke:#181818;stroke-width:0.5;stroke-dasharray:5.0,5.0;" x1="940" x2="940" y1="174.3906" y2="1438.8906"/><line style="stroke:#181818;stroke-width:0.5;stroke-dasharray:5.0,5.0;" x1="1374.5" x2="1374.5" y1="90.1563" y2="1438.8906"/><line style="stroke:#181818;stroke-width:0.5;stroke-dasharray:5.0,5.0;" x1="1551.5" x2="1551.5" y1="90.1563" y2="1438.8906"/><line style="stroke:#181818;stroke-width:0.5;stroke-dasharray:5.0,5.0;" x1="1815" x2="1815" y1="90.1563" y2="1438.8906"/><line style="stroke:#181818;stroke-width:0.5;stroke-dasharray:5.0,5.0;" x1="1941" x2="1941" y1="90.1563" y2="1438.8906"/><line style="stroke:#181818;stroke-width:0.5;stroke-dasharray:5.0,5.0;" x1="2081" x2="2081" y1="90.1563" y2="1438.8906"/><line style="stroke:#181818;stroke-width:0.5;stroke-dasharray:5.0,5.0;" x1="2230" x2="2230" y1="90.1563" y2="1438.8906"/><text fill="#000000" font-family="sans-serif" font-size="20" lengthAdjust="spacing" textLength="51" x="5" y="85.7617">Agent</text><ellipse cx="33.5" cy="13.5" fill="#ADD8E6" rx="8" ry="8" style="stroke:#181818;stroke-width:0.5;"/><path d="M33.5,21.5 L33.5,48.5 M20.5,29.5 L46.5,29.5 M33.5,48.5 L20.5,63.5 M33.5,48.5 L46.5,63.5 " fill="none" style="stroke:#181818;stroke-width:0.5;"/><text fill="#000000" font-family="sans-serif" font-size="20" lengthAdjust="spacing" textLength="51" x="5" y="1458.6523">Agent</text><ellipse cx="33.5" cy="1471.5469" fill="#ADD8E6" rx="8" ry="8" style="stroke:#181818;stroke-width:0.5;"/><path d="M33.5,1479.5469 L33.5,1506.5469 M20.5,1487.5469 L46.5,1487.5469 M33.5,1506.5469 L20.5,1521.5469 M33.5,1506.5469 L46.5,1521.5469 " fill="none" style="stroke:#181818;stroke-width:0.5;"/><rect fill="#E2E2F0" height="39.1563" rx="2.5" ry="2.5" style="stroke:#181818;stroke-width:0.5;" width="227" x="301" y="50"/><text fill="#000000" font-family="sans-serif" font-size="20" lengthAdjust="spacing" textLength="213" x="308" y="77.7617">:RespondVisitRequestUI</text><rect fill="#E2E2F0" height="39.1563" rx="2.5" ry="2.5" style="stroke:#181818;stroke-width:0.5;" width="227" x="301" y="1437.8906"/><text fill="#000000" font-family="sans-serif" font-size="20" lengthAdjust="spacing" textLength="213" x="308" y="1465.6523">:RespondVisitRequestUI</text><rect fill="#E2E2F0" height="39.1563" rx="2.5" ry="2.5" style="stroke:#181818;stroke-width:0.5;" width="293" x="794" y="1437.8906"/><text fill="#000000" font-family="sans-serif" font-size="20" lengthAdjust="spacing" textLength="279" x="801" y="1465.6523">:RespondVisitRequestController</text><rect fill="#E2E2F0" height="39.1563" rx="2.5" ry="2.5" style="stroke:#181818;stroke-width:0.5;" width="248" x="1250.5" y="50"/><text fill="#000000" font-family="sans-serif" font-size="20" lengthAdjust="spacing" textLength="234" x="1257.5" y="77.7617">:BookingRequestController</text><rect fill="#E2E2F0" height="39.1563" rx="2.5" ry="2.5" style="stroke:#181818;stroke-width:0.5;" width="248" x="1250.5" y="1437.8906"/><text fill="#000000" font-family="sans-serif" font-size="20" lengthAdjust="spacing" textLength="234" x="1257.5" y="1465.6523">:BookingRequestController</text><rect fill="#E2E2F0" height="39.1563" rx="2.5" ry="2.5" style="stroke:#181818;stroke-width:0.5;" width="86" x="1508.5" y="50"/><text fill="#000000" font-family="sans-serif" font-size="20" lengthAdjust="spacing" textLength="72" x="1515.5" y="77.7617">:Domain</text><rect fill="#E2E2F0" height="39.1563" rx="2.5" ry="2.5" style="stroke:#181818;stroke-width:0.5;" width="86" x="1508.5" y="1437.8906"/><text fill="#000000" font-family="sans-serif" font-size="20" lengthAdjust="spacing" textLength="72" x="1515.5" y="1465.6523">:Domain</text><rect fill="#E2E2F0" height="64.3125" rx="2.5" ry="2.5" style="stroke:#181818;stroke-width:0.5;" width="101" x="1765" y="24.8438"/><text fill="#000000" font-family="sans-serif" font-size="20" lengthAdjust="spacing" textLength="80" x="1775.5" y="52.6055">message</text><text fill="#000000" font-family="sans-serif" font-size="20" lengthAdjust="spacing" textLength="87" x="1772" y="77.7617">:Message</text><rect fill="#E2E2F0" height="64.3125" rx="2.5" ry="2.5" style="stroke:#181818;stroke-width:0.5;" width="101" x="1765" y="1437.8906"/><text fill="#000000" font-family="sans-serif" font-size="20" lengthAdjust="spacing" textLength="80" x="1775.5" y="1465.6523">message</text><text fill="#000000" font-family="sans-serif" font-size="20" lengthAdjust="spacing" textLength="87" x="1772" y="1490.8086">:Message</text><rect fill="#E2E2F0" height="39.1563" rx="2.5" ry="2.5" style="stroke:#181818;stroke-width:0.5;" width="130" x="1876" y="50"/><text fill="#000000" font-family="sans-serif" font-size="20" lengthAdjust="spacing" textLength="116" x="1883" y="77.7617">:Repositories</text><rect fill="#E2E2F0" height="39.1563" rx="2.5" ry="2.5" style="stroke:#181818;stroke-width:0.5;" width="130" x="1876" y="1437.8906"/><text fill="#000000" font-family="sans-serif" font-size="20" lengthAdjust="spacing" textLength="116" x="1883" y="1465.6523">:Repositories</text><rect fill="#E2E2F0" height="64.3125" rx="2.5" ry="2.5" style="stroke:#181818;stroke-width:0.5;" width="130" x="2016" y="24.8438"/><text fill="#000000" font-family="sans-serif" font-size="20" lengthAdjust="spacing" textLength="103" x="2029.5" y="52.6055">repositories</text><text fill="#000000" font-family="sans-serif" font-size="20" lengthAdjust="spacing" textLength="116" x="2023" y="77.7617">:Repositories</text><rect fill="#E2E2F0" height="64.3125" rx="2.5" ry="2.5" style="stroke:#181818;stroke-width:0.5;" width="130" x="2016" y="1437.8906"/><text fill="#000000" font-family="sans-serif" font-size="20" lengthAdjust="spacing" textLength="103" x="2029.5" y="1465.6523">repositories</text><text fill="#000000" font-family="sans-serif" font-size="20" lengthAdjust="spacing" textLength="116" x="2023" y="1490.8086">:Repositories</text><rect fill="#E2E2F0" height="64.3125" rx="2.5" ry="2.5" style="stroke:#181818;stroke-width:0.5;" width="148" x="2156" y="24.8438"/><text fill="#000000" font-family="sans-serif" font-size="20" lengthAdjust="spacing" textLength="134" x="2163" y="52.6055">visitRepository:</text><text fill="#000000" font-family="sans-serif" font-size="20" lengthAdjust="spacing" textLength="132" x="2164" y="77.7617">VisitRepository</text><rect fill="#E2E2F0" height="64.3125" rx="2.5" ry="2.5" style="stroke:#181818;stroke-width:0.5;" width="148" x="2156" y="1437.8906"/><text fill="#000000" font-family="sans-serif" font-size="20" lengthAdjust="spacing" textLength="134" x="2163" y="1465.6523">visitRepository:</text><text fill="#000000" font-family="sans-serif" font-size="20" lengthAdjust="spacing" textLength="132" x="2164" y="1490.8086">VisitRepository</text><rect fill="#FFFFFF" height="1329.7344" style="stroke:#181818;stroke-width:1.0;" width="10" x="28.5" y="100.1563"/><rect fill="#FFFFFF" height="310.25" style="stroke:#181818;stroke-width:1.0;" width="10" x="409.5" y="131.3125"/><rect fill="#FFFFFF" height="39.1563" style="stroke:#181818;stroke-width:1.0;" width="10" x="409.5" y="480.7188"/><rect fill="#FFFFFF" height="861.8594" style="stroke:#181818;stroke-width:1.0;" width="10" x="409.5" y="559.0313"/><rect fill="#FFFFFF" height="117.4688" style="stroke:#181818;stroke-width:1.0;" width="10" x="935.5" y="220.625"/><rect fill="#FFFFFF" height="783.5469" style="stroke:#181818;stroke-width:1.0;" width="10" x="935.5" y="598.1875"/><rect fill="#FFFFFF" height="39.1563" style="stroke:#181818;stroke-width:1.0;" width="10" x="1369.5" y="259.7813"/><rect fill="#FFFFFF" height="39.1563" style="stroke:#181818;stroke-width:1.0;" width="10" x="1546.5" y="675.3672"/><rect fill="#FFFFFF" height="39.1563" style="stroke:#181818;stroke-width:1.0;" width="10" x="1546.5" y="826.7031"/><rect fill="#FFFFFF" height="143.4688" style="stroke:#181818;stroke-width:1.0;" width="10" x="1810.5" y="964.1719"/><rect fill="#FFFFFF" height="39.1563" style="stroke:#181818;stroke-width:1.0;" width="10" x="1936" y="1146.7969"/><rect fill="#FFFFFF" height="39.1563" style="stroke:#181818;stroke-width:1.0;" width="10" x="2076" y="1225.1094"/><rect fill="#FFFFFF" height="39.1563" style="stroke:#181818;stroke-width:1.0;" width="10" x="2225" y="1303.4219"/><polygon fill="#181818" points="397.5,127.3125,407.5,131.3125,397.5,135.3125,401.5,131.3125" style="stroke:#181818;stroke-width:1.0;"/><line style="stroke:#181818;stroke-width:1.0;" x1="38.5" x2="403.5" y1="131.3125" y2="131.3125"/><text fill="#000000" font-family="sans-serif" font-size="20" font-weight="bold" lengthAdjust="spacing" textLength="11" x="45.5" y="124.918">1</text><text fill="#000000" font-family="sans-serif" font-size="20" lengthAdjust="spacing" textLength="290" x="60.5" y="124.918">selects a visit request to respond</text><polygon fill="#181818" points="782,166.4688,792,170.4688,782,174.4688,786,170.4688" style="stroke:#181818;stroke-width:1.0;"/><line style="stroke:#181818;stroke-width:1.0;" x1="419.5" x2="788" y1="170.4688" y2="170.4688"/><text fill="#000000" font-family="sans-serif" font-size="20" font-weight="bold" lengthAdjust="spacing" textLength="11" x="426.5" y="164.0742">2</text><text fill="#000000" font-family="sans-serif" font-size="20" lengthAdjust="spacing" textLength="56" x="441.5" y="164.0742">create</text><rect fill="#E2E2F0" height="39.1563" rx="2.5" ry="2.5" style="stroke:#181818;stroke-width:0.5;" width="293" x="794" y="139.3125"/><text fill="#000000" font-family="sans-serif" font-size="20" lengthAdjust="spacing" textLength="279" x="801" y="167.0742">:RespondVisitRequestController</text><polygon fill="#181818" points="923.5,216.625,933.5,220.625,923.5,224.625,927.5,220.625" style="stroke:#181818;stroke-width:1.0;"/><line style="stroke:#181818;stroke-width:1.0;" x1="419.5" x2="929.5" y1="220.625" y2="220.625"/><text fill="#000000" font-family="sans-serif" font-size="20" font-weight="bold" lengthAdjust="spacing" textLength="11" x="426.5" y="214.2305">3</text><text fill="#000000" font-family="sans-serif" font-size="20" lengthAdjust="spacing" textLength="79" x="441.5" y="214.2305">getVisit()</text><polygon fill="#181818" points="1357.5,255.7813,1367.5,259.7813,1357.5,263.7813,1361.5,259.7813" style="stroke:#181818;stroke-width:1.0;"/><line style="stroke:#181818;stroke-width:1.0;" x1="945.5" x2="1363.5" y1="259.7813" y2="259.7813"/><text fill="#000000" font-family="sans-serif" font-size="20" font-weight="bold" lengthAdjust="spacing" textLength="11" x="952.5" y="253.3867">4</text><text fill="#000000" font-family="sans-serif" font-size="20" lengthAdjust="spacing" textLength="79" x="967.5" y="253.3867">getVisit()</text><polygon fill="#181818" points="956.5,294.9375,946.5,298.9375,956.5,302.9375,952.5,298.9375" style="stroke:#181818;stroke-width:1.0;"/><line style="stroke:#181818;stroke-width:1.0;stroke-dasharray:2.0,2.0;" x1="950.5" x2="1373.5" y1="298.9375" y2="298.9375"/><text fill="#000000" font-family="sans-serif" font-size="20" font-weight="bold" lengthAdjust="spacing" textLength="11" x="962.5" y="292.543">5</text><text fill="#000000" font-family="sans-serif" font-size="20" lengthAdjust="spacing" textLength="33" x="977.5" y="292.543">visit</text><polygon fill="#181818" points="430.5,334.0938,420.5,338.0938,430.5,342.0938,426.5,338.0938" style="stroke:#181818;stroke-width:1.0;"/><line style="stroke:#181818;stroke-width:1.0;stroke-dasharray:2.0,2.0;" x1="424.5" x2="939.5" y1="338.0938" y2="338.0938"/><text fill="#000000" font-family="sans-serif" font-size="20" font-weight="bold" lengthAdjust="spacing" textLength="11" x="436.5" y="331.6992">6</text><text fill="#000000" font-family="sans-serif" font-size="20" lengthAdjust="spacing" textLength="33" x="451.5" y="331.6992">visit</text><polygon fill="#181818" points="49.5,373.25,39.5,377.25,49.5,381.25,45.5,377.25" style="stroke:#181818;stroke-width:1.0;"/><line style="stroke:#181818;stroke-width:1.0;stroke-dasharray:2.0,2.0;" x1="43.5" x2="408.5" y1="377.25" y2="377.25"/><text fill="#000000" font-family="sans-serif" font-size="20" font-weight="bold" lengthAdjust="spacing" textLength="11" x="55.5" y="370.8555">7</text><text fill="#000000" font-family="sans-serif" font-size="20" lengthAdjust="spacing" textLength="158" x="70.5" y="370.8555">shows visit details</text><polygon fill="#181818" points="49.5,437.5625,39.5,441.5625,49.5,445.5625,45.5,441.5625" style="stroke:#181818;stroke-width:1.0;"/><line style="stroke:#181818;stroke-width:1.0;stroke-dasharray:2.0,2.0;" x1="43.5" x2="413.5" y1="441.5625" y2="441.5625"/><text fill="#000000" font-family="sans-serif" font-size="20" font-weight="bold" lengthAdjust="spacing" textLength="11" x="55.5" y="422.5898">8</text><text fill="#000000" font-family="sans-serif" font-size="20" lengthAdjust="spacing" textLength="272" x="70.5" y="410.0117">request the message body and</text><text fill="#000000" font-family="sans-serif" font-size="20" lengthAdjust="spacing" textLength="332" x="70.5" y="435.168">asks if it is to accept or reject the visit</text><polygon fill="#181818" points="397.5,476.7188,407.5,480.7188,397.5,484.7188,401.5,480.7188" style="stroke:#181818;stroke-width:1.0;"/><line style="stroke:#181818;stroke-width:1.0;" x1="38.5" x2="403.5" y1="480.7188" y2="480.7188"/><text fill="#000000" font-family="sans-serif" font-size="20" font-weight="bold" lengthAdjust="spacing" textLength="11" x="45.5" y="474.3242">9</text><text fill="#000000" font-family="sans-serif" font-size="20" lengthAdjust="spacing" textLength="126" x="60.5" y="474.3242">types the data</text><polygon fill="#181818" points="49.5,515.875,39.5,519.875,49.5,523.875,45.5,519.875" style="stroke:#181818;stroke-width:1.0;"/><line style="stroke:#181818;stroke-width:1.0;stroke-dasharray:2.0,2.0;" x1="43.5" x2="413.5" y1="519.875" y2="519.875"/><text fill="#000000" font-family="sans-serif" font-size="20" font-weight="bold" lengthAdjust="spacing" textLength="22" x="55.5" y="513.4805">10</text><text fill="#000000" font-family="sans-serif" font-size="20" lengthAdjust="spacing" textLength="253" x="81.5" y="513.4805">asks to confirm the message</text><polygon fill="#181818" points="397.5,555.0313,407.5,559.0313,397.5,563.0313,401.5,559.0313" style="stroke:#181818;stroke-width:1.0;"/><line style="stroke:#181818;stroke-width:1.0;" x1="38.5" x2="403.5" y1="559.0313" y2="559.0313"/><text fill="#000000" font-family="sans-serif" font-size="20" font-weight="bold" lengthAdjust="spacing" textLength="22" x="45.5" y="552.6367">11</text><text fill="#000000" font-family="sans-serif" font-size="20" lengthAdjust="spacing" textLength="193" x="71.5" y="552.6367">confirms the message</text><polygon fill="#181818" points="923.5,594.1875,933.5,598.1875,923.5,602.1875,927.5,598.1875" style="stroke:#181818;stroke-width:1.0;"/><line style="stroke:#181818;stroke-width:1.0;" x1="419.5" x2="929.5" y1="598.1875" y2="598.1875"/><text fill="#000000" font-family="sans-serif" font-size="20" font-weight="bold" lengthAdjust="spacing" textLength="22" x="426.5" y="591.793">12</text><text fill="#000000" font-family="sans-serif" font-size="20" lengthAdjust="spacing" textLength="471" x="452.5" y="591.793">notifyClient(Visit visit, String text, boolean isAccepted)</text><path d="M784,613.1875 L852,613.1875 L852,630.3438 L842,640.3438 L784,640.3438 L784,613.1875 " fill="#EEEEEE" style="stroke:#000000;stroke-width:1.5;"/><rect fill="none" height="312.8281" style="stroke:#000000;stroke-width:1.5;" width="820.5" x="784" y="613.1875"/><text fill="#008000" font-family="sans-serif" font-size="20" font-weight="bold" lengthAdjust="spacing" textLength="23" x="799" y="634.9492">alt</text><text fill="#0000FF" font-family="sans-serif" font-size="15" font-weight="bold" lengthAdjust="spacing" textLength="88" x="867" y="630.7588">[isAccepted]</text><polygon fill="#181818" points="1534.5,671.3672,1544.5,675.3672,1534.5,679.3672,1538.5,675.3672" style="stroke:#181818;stroke-width:1.0;"/><line style="stroke:#181818;stroke-width:1.0;" x1="945.5" x2="1540.5" y1="675.3672" y2="675.3672"/><text fill="#000000" font-family="sans-serif" font-size="20" font-weight="bold" lengthAdjust="spacing" textLength="22" x="952.5" y="668.9727">13</text><text fill="#000000" font-family="sans-serif" font-size="20" lengthAdjust="spacing" textLength="131" x="978.5" y="668.9727">checkDomain()</text><polygon fill="#181818" points="956.5,710.5234,946.5,714.5234,956.5,718.5234,952.5,714.5234" style="stroke:#181818;stroke-width:1.0;"/><line style="stroke:#181818;stroke-width:1.0;stroke-dasharray:2.0,2.0;" x1="950.5" x2="1550.5" y1="714.5234" y2="714.5234"/><text fill="#000000" font-family="sans-serif" font-size="20" font-weight="bold" lengthAdjust="spacing" textLength="22" x="962.5" y="708.1289">14</text><text fill="#000000" font-family="sans-serif" font-size="20" lengthAdjust="spacing" textLength="34" x="988.5" y="708.1289">true</text><line style="stroke:#181818;stroke-width:1.0;" x1="945.5" x2="987.5" y1="753.6797" y2="753.6797"/><line style="stroke:#181818;stroke-width:1.0;" x1="987.5" x2="987.5" y1="753.6797" y2="766.6797"/><line style="stroke:#181818;stroke-width:1.0;" x1="946.5" x2="987.5" y1="766.6797" y2="766.6797"/><polygon fill="#181818" points="956.5,762.6797,946.5,766.6797,956.5,770.6797,952.5,766.6797" style="stroke:#181818;stroke-width:1.0;"/><text fill="#000000" font-family="sans-serif" font-size="20" font-weight="bold" lengthAdjust="spacing" textLength="22" x="952.5" y="747.2852">15</text><text fill="#000000" font-family="sans-serif" font-size="20" lengthAdjust="spacing" textLength="384" x="978.5" y="747.2852">sendAcceptanceEmail(Visit visit, String text)</text><line style="stroke:#000000;stroke-width:1.0;stroke-dasharray:2.0,2.0;" x1="784" x2="1604.5" y1="775.6797" y2="775.6797"/><text fill="#0000FF" font-family="sans-serif" font-size="15" font-weight="bold" lengthAdjust="spacing" textLength="115" x="789" y="791.251">[not isAccepted]</text><polygon fill="#181818" points="1534.5,822.7031,1544.5,826.7031,1534.5,830.7031,1538.5,826.7031" style="stroke:#181818;stroke-width:1.0;"/><line style="stroke:#181818;stroke-width:1.0;" x1="945.5" x2="1540.5" y1="826.7031" y2="826.7031"/><text fill="#000000" font-family="sans-serif" font-size="20" font-weight="bold" lengthAdjust="spacing" textLength="22" x="952.5" y="820.3086">16</text><text fill="#000000" font-family="sans-serif" font-size="20" lengthAdjust="spacing" textLength="131" x="978.5" y="820.3086">checkDomain()</text><polygon fill="#181818" points="956.5,861.8594,946.5,865.8594,956.5,869.8594,952.5,865.8594" style="stroke:#181818;stroke-width:1.0;"/><line style="stroke:#181818;stroke-width:1.0;stroke-dasharray:2.0,2.0;" x1="950.5" x2="1550.5" y1="865.8594" y2="865.8594"/><text fill="#000000" font-family="sans-serif" font-size="20" font-weight="bold" lengthAdjust="spacing" textLength="22" x="962.5" y="859.4648">17</text><text fill="#000000" font-family="sans-serif" font-size="20" lengthAdjust="spacing" textLength="34" x="988.5" y="859.4648">true</text><line style="stroke:#181818;stroke-width:1.0;" x1="945.5" x2="987.5" y1="905.0156" y2="905.0156"/><line style="stroke:#181818;stroke-width:1.0;" x1="987.5" x2="987.5" y1="905.0156" y2="918.0156"/><line style="stroke:#181818;stroke-width:1.0;" x1="946.5" x2="987.5" y1="918.0156" y2="918.0156"/><polygon fill="#181818" points="956.5,914.0156,946.5,918.0156,956.5,922.0156,952.5,918.0156" style="stroke:#181818;stroke-width:1.0;"/><text fill="#000000" font-family="sans-serif" font-size="20" font-weight="bold" lengthAdjust="spacing" textLength="22" x="952.5" y="898.6211">18</text><text fill="#000000" font-family="sans-serif" font-size="20" lengthAdjust="spacing" textLength="362" x="978.5" y="898.6211">sendRejectionEmail(Visit visit, String text)</text><polygon fill="#181818" points="1798.5,960.1719,1808.5,964.1719,1798.5,968.1719,1802.5,964.1719" style="stroke:#181818;stroke-width:1.0;"/><line style="stroke:#181818;stroke-width:1.0;" x1="945.5" x2="1804.5" y1="964.1719" y2="964.1719"/><text fill="#000000" font-family="sans-serif" font-size="20" font-weight="bold" lengthAdjust="spacing" textLength="22" x="952.5" y="957.7773">19</text><text fill="#000000" font-family="sans-serif" font-size="20" lengthAdjust="spacing" textLength="820" x="978.5" y="957.7773">createMessage(boolean isEmail,String subject, Employee from, Person to, String information)</text><line style="stroke:#181818;stroke-width:1.0;" x1="1820.5" x2="1862.5" y1="1003.3281" y2="1003.3281"/><line style="stroke:#181818;stroke-width:1.0;" x1="1862.5" x2="1862.5" y1="1003.3281" y2="1016.3281"/><line style="stroke:#181818;stroke-width:1.0;" x1="1821.5" x2="1862.5" y1="1016.3281" y2="1016.3281"/><polygon fill="#181818" points="1831.5,1012.3281,1821.5,1016.3281,1831.5,1020.3281,1827.5,1016.3281" style="stroke:#181818;stroke-width:1.0;"/><text fill="#000000" font-family="sans-serif" font-size="20" font-weight="bold" lengthAdjust="spacing" textLength="22" x="1827.5" y="996.9336">20</text><text fill="#000000" font-family="sans-serif" font-size="20" lengthAdjust="spacing" textLength="56" x="1853.5" y="996.9336">send()</text><line style="stroke:#181818;stroke-width:1.0;" x1="1820.5" x2="1862.5" y1="1055.4844" y2="1055.4844"/><line style="stroke:#181818;stroke-width:1.0;" x1="1862.5" x2="1862.5" y1="1055.4844" y2="1068.4844"/><line style="stroke:#181818;stroke-width:1.0;" x1="1821.5" x2="1862.5" y1="1068.4844" y2="1068.4844"/><polygon fill="#181818" points="1831.5,1064.4844,1821.5,1068.4844,1831.5,1072.4844,1827.5,1068.4844" style="stroke:#181818;stroke-width:1.0;"/><text fill="#000000" font-family="sans-serif" font-size="20" font-weight="bold" lengthAdjust="spacing" textLength="22" x="1827.5" y="1049.0898">21</text><text fill="#000000" font-family="sans-serif" font-size="20" lengthAdjust="spacing" textLength="55" x="1853.5" y="1049.0898">save()</text><polygon fill="#181818" points="956.5,1103.6406,946.5,1107.6406,956.5,1111.6406,952.5,1107.6406" style="stroke:#181818;stroke-width:1.0;"/><line style="stroke:#181818;stroke-width:1.0;" x1="950.5" x2="1814.5" y1="1107.6406" y2="1107.6406"/><text fill="#000000" font-family="sans-serif" font-size="20" font-weight="bold" lengthAdjust="spacing" textLength="22" x="962.5" y="1101.2461">22</text><text fill="#000000" font-family="sans-serif" font-size="20" lengthAdjust="spacing" textLength="34" x="988.5" y="1101.2461">true</text><polygon fill="#181818" points="1924,1142.7969,1934,1146.7969,1924,1150.7969,1928,1146.7969" style="stroke:#181818;stroke-width:1.0;"/><line style="stroke:#181818;stroke-width:1.0;" x1="945.5" x2="1930" y1="1146.7969" y2="1146.7969"/><text fill="#000000" font-family="sans-serif" font-size="20" font-weight="bold" lengthAdjust="spacing" textLength="22" x="952.5" y="1140.4023">23</text><text fill="#000000" font-family="sans-serif" font-size="20" lengthAdjust="spacing" textLength="116" x="978.5" y="1140.4023">getInstance()</text><polygon fill="#181818" points="956.5,1181.9531,946.5,1185.9531,956.5,1189.9531,952.5,1185.9531" style="stroke:#181818;stroke-width:1.0;"/><line style="stroke:#181818;stroke-width:1.0;stroke-dasharray:2.0,2.0;" x1="950.5" x2="1940" y1="1185.9531" y2="1185.9531"/><text fill="#000000" font-family="sans-serif" font-size="20" font-weight="bold" lengthAdjust="spacing" textLength="22" x="962.5" y="1179.5586">24</text><text fill="#000000" font-family="sans-serif" font-size="20" lengthAdjust="spacing" textLength="103" x="988.5" y="1179.5586">repositories</text><polygon fill="#181818" points="2064,1221.1094,2074,1225.1094,2064,1229.1094,2068,1225.1094" style="stroke:#181818;stroke-width:1.0;"/><line style="stroke:#181818;stroke-width:1.0;" x1="945.5" x2="2070" y1="1225.1094" y2="1225.1094"/><text fill="#000000" font-family="sans-serif" font-size="20" font-weight="bold" lengthAdjust="spacing" textLength="22" x="952.5" y="1218.7148">25</text><text fill="#000000" font-family="sans-serif" font-size="20" lengthAdjust="spacing" textLength="174" x="978.5" y="1218.7148">getVisitRepository()</text><polygon fill="#181818" points="956.5,1260.2656,946.5,1264.2656,956.5,1268.2656,952.5,1264.2656" style="stroke:#181818;stroke-width:1.0;"/><line style="stroke:#181818;stroke-width:1.0;stroke-dasharray:2.0,2.0;" x1="950.5" x2="2080" y1="1264.2656" y2="1264.2656"/><text fill="#000000" font-family="sans-serif" font-size="20" font-weight="bold" lengthAdjust="spacing" textLength="22" x="962.5" y="1257.8711">26</text><text fill="#000000" font-family="sans-serif" font-size="20" lengthAdjust="spacing" textLength="132" x="988.5" y="1257.8711">VisitRepository</text><polygon fill="#181818" points="2213,1299.4219,2223,1303.4219,2213,1307.4219,2217,1303.4219" style="stroke:#181818;stroke-width:1.0;"/><line style="stroke:#181818;stroke-width:1.0;" x1="945.5" x2="2219" y1="1303.4219" y2="1303.4219"/><text fill="#000000" font-family="sans-serif" font-size="20" font-weight="bold" lengthAdjust="spacing" textLength="22" x="952.5" y="1297.0273">27</text><text fill="#000000" font-family="sans-serif" font-size="20" lengthAdjust="spacing" textLength="144" x="978.5" y="1297.0273">delete(Visit visit)</text><polygon fill="#181818" points="956.5,1338.5781,946.5,1342.5781,956.5,1346.5781,952.5,1342.5781" style="stroke:#181818;stroke-width:1.0;"/><line style="stroke:#181818;stroke-width:1.0;stroke-dasharray:2.0,2.0;" x1="950.5" x2="2229" y1="1342.5781" y2="1342.5781"/><text fill="#000000" font-family="sans-serif" font-size="20" font-weight="bold" lengthAdjust="spacing" textLength="22" x="962.5" y="1336.1836">28</text><text fill="#000000" font-family="sans-serif" font-size="20" lengthAdjust="spacing" textLength="34" x="988.5" y="1336.1836">true</text><polygon fill="#181818" points="430.5,1377.7344,420.5,1381.7344,430.5,1385.7344,426.5,1381.7344" style="stroke:#181818;stroke-width:1.0;"/><line style="stroke:#181818;stroke-width:1.0;" x1="424.5" x2="939.5" y1="1381.7344" y2="1381.7344"/><text fill="#000000" font-family="sans-serif" font-size="20" font-weight="bold" lengthAdjust="spacing" textLength="22" x="436.5" y="1375.3398">29</text><text fill="#000000" font-family="sans-serif" font-size="20" lengthAdjust="spacing" textLength="268" x="462.5" y="1375.3398">informs the message was sent</text><polygon fill="#181818" points="49.5,1416.8906,39.5,1420.8906,49.5,1424.8906,45.5,1420.8906" style="stroke:#181818;stroke-width:1.0;"/><line style="stroke:#181818;stroke-width:1.0;stroke-dasharray:2.0,2.0;" x1="43.5" x2="413.5" y1="1420.8906" y2="1420.8906"/><text fill="#000000" font-family="sans-serif" font-size="20" font-weight="bold" lengthAdjust="spacing" textLength="22" x="55.5" y="1414.4961">30</text><text fill="#000000" font-family="sans-serif" font-size="20" lengthAdjust="spacing" textLength="257" x="81.5" y="1414.4961">informs the messae was sent</text><!--SRC=[rLOzRzim4DtrAuXqi1CuG6kWIuO2Zfks0H8Wi9jCMMZnBBEcI9MaahY_laVgMwBiTAmdcRht-ExTaIUpvpAZcgP2nNjWXC6Mvi9-KzAk-HyWyu-HgK98ggIATrgbGBPK66YzocYyfmcixK40qH1RAXFH3Z0xojGhbqa9ZIPKM68ELk1QAsuDltEGCNpNAiz-06MWdPYb4agJH0F8iU0cR2DoE1RbC_lqEPhSSyPGhuKtb8BIdPH9ItC9l0TZCBc5u8aaCKWB-cGOuyu5hcH4SwjadcuG54rsdA5vIjcDUejeR57jsI91oZD23V5FvCCTJtRssYM16rWUyupYyjdL2aoc97lYXjkLszJOnriFVBmz7Rh4pBKI0hI7B7-kxdgWQwKmgMGyVju3V5KfvTA_BXwxxzF2a6TvLLhZ8yldWU1CeLQbEHWVLYySrjpr4fhOXUWM0hSO43pSBNvs4I-56nNlrRDywgvuN6yjSZ-i57-X5eeAHH4fVqN1BhzW0SWLDeB0cXj2YTy9pu4tabY5ZxuU3R9cnDBLY-w7JCZdtBwuGCvO0qQDXM100jOhdfvtOcf-N-VEAmyi2URlP9WFAURaib7X4-w4C3X5uF7Uk09z33uq0B65- -ZxJhsQqdC6bd9Xwl1e15FNPWUax5EoKUn0g6JaMLApDuHl2J9oumf8unWoI_2yQlY5LVR0RjOjoLZKS8lOGmR6OncrDDWD8uAz8XGIAxdbEcqB_oS59Tu42SPqr7MMolBjOIauKavzrnGcpCZQQdUxkxjqXaug0LIYTmll6x3pADoPzQgmhUXWlnPNZ4jX1_6- -3VMi-Lrr7vNmbjDQtKEOqqN86YV6qJZSPUi44pnzh_1U35gIICJSFev6__7R5U-zN6elJjPoOOdiM8k1q5zoPN_fqtp-6rc9RF9Dsxt6Rb9Cw4EW7CKFqLcv06qKHAFHgs1owtIANL20srtt-lvIaP7aSksvNOuXhv0E2RaUCljIi70aS3CA-xdMsbyaqq3-OG6PHqLOgnwmbs2pSmC2JrANObsSxOrHHfCIAmVolMoXpPo-fCteAYBhoJqWAY6uIYsqExGW9Yn_VfqbwTBseSC9FgxjsZCpjLBNl6JmxYFYh79Dp8F1bp7gTndXb__2m00]--></g></svg>