<?xml version="1.0" encoding="UTF-8" standalone="no"?><svg xmlns="http://www.w3.org/2000/svg" xmlns:xlink="http://www.w3.org/1999/xlink" contentStyleType="text/css" height="1791px" preserveAspectRatio="none" style="width:1217px;height:1791px;background:#FFFFFF;" version="1.1" viewBox="0 0 1217 1791" width="1217px" zoomAndPan="magnify"><defs/><g><text fill="#000000" font-family="sans-serif" font-size="14" font-weight="bold" lengthAdjust="spacing" textLength="259" x="480.25" y="27.9951">System Sequence Diagram (SSD)</text><rect fill="#FFFFFF" height="1559.5781" style="stroke:#181818;stroke-width:1.0;" width="10" x="106" y="135.5781"/><rect fill="#FFFFFF" height="37.2813" style="stroke:#181818;stroke-width:1.0;" width="10" x="1138" y="164.8594"/><rect fill="#FFFFFF" height="37.2813" style="stroke:#181818;stroke-width:1.0;" width="10" x="1138" y="239.4219"/><rect fill="#FFFFFF" height="72.0234" style="stroke:#181818;stroke-width:1.0;" width="10" x="1138" y="487.0313"/><rect fill="#FFFFFF" height="44.2813" style="stroke:#181818;stroke-width:1.0;" width="10" x="1138" y="596.3359"/><rect fill="#FFFFFF" height="37.2813" style="stroke:#181818;stroke-width:1.0;" width="10" x="1138" y="1648.875"/><rect fill="none" height="121.7656" style="stroke:#000000;stroke-width:1.5;" width="1180.5" x="20" y="291.7031"/><rect fill="none" height="102.3047" style="stroke:#000000;stroke-width:1.5;" width="1180.5" x="20" y="502.0313"/><rect fill="none" height="634.8047" style="stroke:#000000;stroke-width:1.5;" width="1200.5" x="10" y="655.6172"/><rect fill="none" height="102.3047" style="stroke:#000000;stroke-width:1.5;" width="1180.5" x="20" y="933.5078"/><rect fill="none" height="102.3047" style="stroke:#000000;stroke-width:1.5;" width="1180.5" x="20" y="1181.1172"/><rect fill="none" height="196.3281" style="stroke:#000000;stroke-width:1.5;" width="1180.5" x="20" y="1378.9844"/><line style="stroke:#181818;stroke-width:0.5;stroke-dasharray:5.0,5.0;" x1="111" x2="111" y1="125.5781" y2="1704.1563"/><line style="stroke:#181818;stroke-width:0.5;stroke-dasharray:5.0,5.0;" x1="1142.5" x2="1142.5" y1="125.5781" y2="1704.1563"/><text fill="#000000" font-family="sans-serif" font-size="20" lengthAdjust="spacing" textLength="156" x="30" y="120.8613">Property Owner</text><ellipse cx="111" cy="50.7969" fill="#BC8F8F" rx="8" ry="8" style="stroke:#181818;stroke-width:0.5;"/><path d="M111,58.7969 L111,85.7969 M98,66.7969 L124,66.7969 M111,85.7969 L98,100.7969 M111,85.7969 L124,100.7969 " fill="none" style="stroke:#181818;stroke-width:0.5;"/><text fill="#000000" font-family="sans-serif" font-size="20" lengthAdjust="spacing" textLength="156" x="30" y="1721.7207">Property Owner</text><ellipse cx="111" cy="1734.9375" fill="#BC8F8F" rx="8" ry="8" style="stroke:#181818;stroke-width:0.5;"/><path d="M111,1742.9375 L111,1769.9375 M98,1750.9375 L124,1750.9375 M111,1769.9375 L98,1784.9375 M111,1769.9375 L124,1784.9375 " fill="none" style="stroke:#181818;stroke-width:0.5;"/><rect fill="#E2E2F0" height="37.2813" rx="2.5" ry="2.5" style="stroke:#181818;stroke-width:0.5;" width="95" x="1095.5" y="87.2969"/><text fill="#000000" font-family="sans-serif" font-size="20" lengthAdjust="spacing" textLength="81" x="1102.5" y="112.8613">:System</text><rect fill="#E2E2F0" height="37.2813" rx="2.5" ry="2.5" style="stroke:#181818;stroke-width:0.5;" width="95" x="1095.5" y="1703.1563"/><text fill="#000000" font-family="sans-serif" font-size="20" lengthAdjust="spacing" textLength="81" x="1102.5" y="1728.7207">:System</text><rect fill="#FFFFFF" height="1559.5781" style="stroke:#181818;stroke-width:1.0;" width="10" x="106" y="135.5781"/><rect fill="#FFFFFF" height="37.2813" style="stroke:#181818;stroke-width:1.0;" width="10" x="1138" y="164.8594"/><rect fill="#FFFFFF" height="37.2813" style="stroke:#181818;stroke-width:1.0;" width="10" x="1138" y="239.4219"/><rect fill="#FFFFFF" height="72.0234" style="stroke:#181818;stroke-width:1.0;" width="10" x="1138" y="487.0313"/><rect fill="#FFFFFF" height="44.2813" style="stroke:#181818;stroke-width:1.0;" width="10" x="1138" y="596.3359"/><rect fill="#FFFFFF" height="37.2813" style="stroke:#181818;stroke-width:1.0;" width="10" x="1138" y="1648.875"/><polygon fill="#181818" points="1126,160.8594,1136,164.8594,1126,168.8594,1130,164.8594" style="stroke:#181818;stroke-width:1.0;"/><line style="stroke:#181818;stroke-width:1.0;" x1="116" x2="1132" y1="164.8594" y2="164.8594"/><text fill="#000000" font-family="sans-serif" font-size="20" font-weight="bold" lengthAdjust="spacing" textLength="14" x="123" y="158.1426">1</text><text fill="#000000" font-family="sans-serif" font-size="20" lengthAdjust="spacing" textLength="247" x="141" y="158.1426">asks to listing a property</text><polygon fill="#181818" points="127,198.1406,117,202.1406,127,206.1406,123,202.1406" style="stroke:#181818;stroke-width:1.0;"/><line style="stroke:#181818;stroke-width:1.0;stroke-dasharray:2.0,2.0;" x1="121" x2="1142" y1="202.1406" y2="202.1406"/><text fill="#000000" font-family="sans-serif" font-size="20" font-weight="bold" lengthAdjust="spacing" textLength="14" x="133" y="195.4238">2</text><text fill="#000000" font-family="sans-serif" font-size="20" lengthAdjust="spacing" textLength="581" x="151" y="195.4238">shows the list of agencies available and asks to select one</text><polygon fill="#181818" points="1126,235.4219,1136,239.4219,1126,243.4219,1130,239.4219" style="stroke:#181818;stroke-width:1.0;"/><line style="stroke:#181818;stroke-width:1.0;" x1="116" x2="1132" y1="239.4219" y2="239.4219"/><text fill="#000000" font-family="sans-serif" font-size="20" font-weight="bold" lengthAdjust="spacing" textLength="14" x="123" y="232.7051">3</text><text fill="#000000" font-family="sans-serif" font-size="20" lengthAdjust="spacing" textLength="165" x="141" y="232.7051">selects a agency</text><polygon fill="#181818" points="127,272.7031,117,276.7031,127,280.7031,123,276.7031" style="stroke:#181818;stroke-width:1.0;"/><line style="stroke:#181818;stroke-width:1.0;stroke-dasharray:2.0,2.0;" x1="121" x2="1142" y1="276.7031" y2="276.7031"/><text fill="#000000" font-family="sans-serif" font-size="20" font-weight="bold" lengthAdjust="spacing" textLength="14" x="133" y="269.9863">4</text><text fill="#000000" font-family="sans-serif" font-size="20" lengthAdjust="spacing" textLength="980" x="151" y="269.9863">shows the list of agents available and asks to select one or use a feature to select a random agent</text><path d="M20,291.7031 L96,291.7031 L96,306.9844 L86,316.9844 L20,316.9844 L20,291.7031 " fill="#EEEEEE" style="stroke:#000000;stroke-width:1.5;"/><rect fill="none" height="121.7656" style="stroke:#000000;stroke-width:1.5;" width="1180.5" x="20" y="291.7031"/><text fill="#008000" font-family="sans-serif" font-size="20" font-weight="bold" lengthAdjust="spacing" textLength="31" x="35" y="311.2676">alt</text><text fill="#0000FF" font-family="sans-serif" font-size="15" font-weight="bold" lengthAdjust="spacing" textLength="132" x="111" y="307.6265">[Select a agent]</text><polygon fill="#181818" points="1131,344.7266,1141,348.7266,1131,352.7266,1135,348.7266" style="stroke:#181818;stroke-width:1.0;"/><line style="stroke:#181818;stroke-width:1.0;" x1="116" x2="1137" y1="348.7266" y2="348.7266"/><text fill="#000000" font-family="sans-serif" font-size="20" font-weight="bold" lengthAdjust="spacing" textLength="36" x="123" y="342.0098">5.1</text><text fill="#000000" font-family="sans-serif" font-size="20" lengthAdjust="spacing" textLength="151" x="163" y="342.0098">selects a agent</text><line style="stroke:#000000;stroke-width:1.0;stroke-dasharray:2.0,2.0;" x1="20" x2="1200.5" y1="357.7266" y2="357.7266"/><text fill="#0000FF" font-family="sans-serif" font-size="15" font-weight="bold" lengthAdjust="spacing" textLength="143" x="25" y="371.6499">[random feature]</text><polygon fill="#181818" points="1131,401.4688,1141,405.4688,1131,409.4688,1135,405.4688" style="stroke:#181818;stroke-width:1.0;"/><line style="stroke:#181818;stroke-width:1.0;" x1="116" x2="1137" y1="405.4688" y2="405.4688"/><text fill="#000000" font-family="sans-serif" font-size="20" font-weight="bold" lengthAdjust="spacing" textLength="36" x="123" y="398.752">5.2</text><text fill="#000000" font-family="sans-serif" font-size="20" lengthAdjust="spacing" textLength="272" x="163" y="398.752">randomly assing one agent</text><polygon fill="#181818" points="127,445.75,117,449.75,127,453.75,123,449.75" style="stroke:#181818;stroke-width:1.0;"/><line style="stroke:#181818;stroke-width:1.0;stroke-dasharray:2.0,2.0;" x1="121" x2="1142" y1="449.75" y2="449.75"/><text fill="#000000" font-family="sans-serif" font-size="20" font-weight="bold" lengthAdjust="spacing" textLength="14" x="133" y="443.0332">6</text><text fill="#000000" font-family="sans-serif" font-size="20" lengthAdjust="spacing" textLength="674" x="151" y="443.0332">requests the property address (i.e. street,city,district,state,zipcode)</text><polygon fill="#181818" points="1126,483.0313,1136,487.0313,1126,491.0313,1130,487.0313" style="stroke:#181818;stroke-width:1.0;"/><line style="stroke:#181818;stroke-width:1.0;" x1="116" x2="1132" y1="487.0313" y2="487.0313"/><text fill="#000000" font-family="sans-serif" font-size="20" font-weight="bold" lengthAdjust="spacing" textLength="14" x="123" y="480.3145">7</text><text fill="#000000" font-family="sans-serif" font-size="20" lengthAdjust="spacing" textLength="251" x="141" y="480.3145">types the requested data</text><path d="M20,502.0313 L114,502.0313 L114,517.3125 L104,527.3125 L20,527.3125 L20,502.0313 " fill="#EEEEEE" style="stroke:#000000;stroke-width:1.5;"/><rect fill="none" height="102.3047" style="stroke:#000000;stroke-width:1.5;" width="1180.5" x="20" y="502.0313"/><text fill="#008000" font-family="sans-serif" font-size="20" font-weight="bold" lengthAdjust="spacing" textLength="49" x="35" y="521.5957">loop</text><text fill="#0000FF" font-family="sans-serif" font-size="15" font-weight="bold" lengthAdjust="spacing" textLength="263" x="129" y="517.9546">[selectiong one or more photos]</text><polygon fill="#181818" points="127,555.0547,117,559.0547,127,563.0547,123,559.0547" style="stroke:#181818;stroke-width:1.0;"/><line style="stroke:#181818;stroke-width:1.0;stroke-dasharray:2.0,2.0;" x1="121" x2="1142" y1="559.0547" y2="559.0547"/><text fill="#000000" font-family="sans-serif" font-size="20" font-weight="bold" lengthAdjust="spacing" textLength="14" x="133" y="552.3379">8</text><text fill="#000000" font-family="sans-serif" font-size="20" lengthAdjust="spacing" textLength="310" x="151" y="552.3379">requests photos (i.e photoURL)</text><polygon fill="#181818" points="1126,592.3359,1136,596.3359,1126,600.3359,1130,596.3359" style="stroke:#181818;stroke-width:1.0;"/><line style="stroke:#181818;stroke-width:1.0;" x1="116" x2="1132" y1="596.3359" y2="596.3359"/><text fill="#000000" font-family="sans-serif" font-size="20" font-weight="bold" lengthAdjust="spacing" textLength="14" x="123" y="589.6191">9</text><text fill="#000000" font-family="sans-serif" font-size="20" lengthAdjust="spacing" textLength="251" x="141" y="589.6191">types the requested data</text><polygon fill="#181818" points="127,636.6172,117,640.6172,127,644.6172,123,640.6172" style="stroke:#181818;stroke-width:1.0;"/><line style="stroke:#181818;stroke-width:1.0;stroke-dasharray:2.0,2.0;" x1="121" x2="1142" y1="640.6172" y2="640.6172"/><text fill="#000000" font-family="sans-serif" font-size="20" font-weight="bold" lengthAdjust="spacing" textLength="28" x="133" y="633.9004">10</text><text fill="#000000" font-family="sans-serif" font-size="20" lengthAdjust="spacing" textLength="291" x="165" y="633.9004">requests the type of property</text><path d="M10,655.6172 L86,655.6172 L86,670.8984 L76,680.8984 L10,680.8984 L10,655.6172 " fill="#EEEEEE" style="stroke:#000000;stroke-width:1.5;"/><rect fill="none" height="634.8047" style="stroke:#000000;stroke-width:1.5;" width="1200.5" x="10" y="655.6172"/><text fill="#008000" font-family="sans-serif" font-size="20" font-weight="bold" lengthAdjust="spacing" textLength="31" x="25" y="675.1816">alt</text><text fill="#0000FF" font-family="sans-serif" font-size="15" font-weight="bold" lengthAdjust="spacing" textLength="158" x="101" y="671.5405">[Property is a land]</text><polygon fill="#181818" points="1131,708.6406,1141,712.6406,1131,716.6406,1135,712.6406" style="stroke:#181818;stroke-width:1.0;"/><line style="stroke:#181818;stroke-width:1.0;" x1="116" x2="1137" y1="712.6406" y2="712.6406"/><text fill="#000000" font-family="sans-serif" font-size="20" font-weight="bold" lengthAdjust="spacing" textLength="28" x="123" y="705.9238">11</text><text fill="#000000" font-family="sans-serif" font-size="20" lengthAdjust="spacing" textLength="212" x="155" y="705.9238">types requested data</text><polygon fill="#181818" points="127,745.9219,117,749.9219,127,753.9219,123,749.9219" style="stroke:#181818;stroke-width:1.0;"/><line style="stroke:#181818;stroke-width:1.0;stroke-dasharray:2.0,2.0;" x1="121" x2="1142" y1="749.9219" y2="749.9219"/><text fill="#000000" font-family="sans-serif" font-size="20" font-weight="bold" lengthAdjust="spacing" textLength="28" x="133" y="743.2051">12</text><text fill="#000000" font-family="sans-serif" font-size="20" lengthAdjust="spacing" textLength="322" x="165" y="743.2051">request the Land characteristics</text><polygon fill="#181818" points="1131,783.2031,1141,787.2031,1131,791.2031,1135,787.2031" style="stroke:#181818;stroke-width:1.0;"/><line style="stroke:#181818;stroke-width:1.0;" x1="116" x2="1137" y1="787.2031" y2="787.2031"/><text fill="#000000" font-family="sans-serif" font-size="20" font-weight="bold" lengthAdjust="spacing" textLength="28" x="123" y="780.4863">13</text><text fill="#000000" font-family="sans-serif" font-size="20" lengthAdjust="spacing" textLength="212" x="155" y="780.4863">types requested data</text><line style="stroke:#000000;stroke-width:1.0;stroke-dasharray:2.0,2.0;" x1="10" x2="1210.5" y1="796.2031" y2="796.2031"/><text fill="#0000FF" font-family="sans-serif" font-size="15" font-weight="bold" lengthAdjust="spacing" textLength="231" x="15" y="810.1265">[Property is a appartement]</text><polygon fill="#181818" points="1131,839.9453,1141,843.9453,1131,847.9453,1135,843.9453" style="stroke:#181818;stroke-width:1.0;"/><line style="stroke:#181818;stroke-width:1.0;" x1="116" x2="1137" y1="843.9453" y2="843.9453"/><text fill="#000000" font-family="sans-serif" font-size="20" font-weight="bold" lengthAdjust="spacing" textLength="28" x="123" y="837.2285">11</text><text fill="#000000" font-family="sans-serif" font-size="20" lengthAdjust="spacing" textLength="212" x="155" y="837.2285">types requested data</text><polygon fill="#181818" points="127,877.2266,117,881.2266,127,885.2266,123,881.2266" style="stroke:#181818;stroke-width:1.0;"/><line style="stroke:#181818;stroke-width:1.0;stroke-dasharray:2.0,2.0;" x1="121" x2="1142" y1="881.2266" y2="881.2266"/><text fill="#000000" font-family="sans-serif" font-size="20" font-weight="bold" lengthAdjust="spacing" textLength="28" x="133" y="874.5098">12</text><text fill="#000000" font-family="sans-serif" font-size="20" lengthAdjust="spacing" textLength="404" x="165" y="874.5098">request the appartement characteristics</text><polygon fill="#181818" points="1131,914.5078,1141,918.5078,1131,922.5078,1135,918.5078" style="stroke:#181818;stroke-width:1.0;"/><line style="stroke:#181818;stroke-width:1.0;" x1="116" x2="1137" y1="918.5078" y2="918.5078"/><text fill="#000000" font-family="sans-serif" font-size="20" font-weight="bold" lengthAdjust="spacing" textLength="28" x="123" y="911.791">13</text><text fill="#000000" font-family="sans-serif" font-size="20" lengthAdjust="spacing" textLength="212" x="155" y="911.791">types requested data</text><path d="M20,933.5078 L114,933.5078 L114,948.7891 L104,958.7891 L20,958.7891 L20,933.5078 " fill="#EEEEEE" style="stroke:#000000;stroke-width:1.5;"/><rect fill="none" height="102.3047" style="stroke:#000000;stroke-width:1.5;" width="1180.5" x="20" y="933.5078"/><text fill="#008000" font-family="sans-serif" font-size="20" font-weight="bold" lengthAdjust="spacing" textLength="49" x="35" y="953.0723">loop</text><text fill="#0000FF" font-family="sans-serif" font-size="15" font-weight="bold" lengthAdjust="spacing" textLength="269" x="129" y="949.4312">[select one or more equipments]</text><polygon fill="#181818" points="127,986.5313,117,990.5313,127,994.5313,123,990.5313" style="stroke:#181818;stroke-width:1.0;"/><line style="stroke:#181818;stroke-width:1.0;stroke-dasharray:2.0,2.0;" x1="121" x2="1142" y1="990.5313" y2="990.5313"/><text fill="#000000" font-family="sans-serif" font-size="20" font-weight="bold" lengthAdjust="spacing" textLength="28" x="133" y="983.8145">14</text><text fill="#000000" font-family="sans-serif" font-size="20" lengthAdjust="spacing" textLength="288" x="165" y="983.8145">request available equipment</text><polygon fill="#181818" points="1131,1023.8125,1141,1027.8125,1131,1031.8125,1135,1027.8125" style="stroke:#181818;stroke-width:1.0;"/><line style="stroke:#181818;stroke-width:1.0;" x1="116" x2="1137" y1="1027.8125" y2="1027.8125"/><text fill="#000000" font-family="sans-serif" font-size="20" font-weight="bold" lengthAdjust="spacing" textLength="28" x="123" y="1021.0957">15</text><text fill="#000000" font-family="sans-serif" font-size="20" lengthAdjust="spacing" textLength="212" x="155" y="1021.0957">types requested data</text><line style="stroke:#000000;stroke-width:1.0;stroke-dasharray:2.0,2.0;" x1="10" x2="1210.5" y1="1043.8125" y2="1043.8125"/><text fill="#0000FF" font-family="sans-serif" font-size="15" font-weight="bold" lengthAdjust="spacing" textLength="173" x="15" y="1057.7358">[Property is a house]</text><polygon fill="#181818" points="1131,1087.5547,1141,1091.5547,1131,1095.5547,1135,1091.5547" style="stroke:#181818;stroke-width:1.0;"/><line style="stroke:#181818;stroke-width:1.0;" x1="116" x2="1137" y1="1091.5547" y2="1091.5547"/><text fill="#000000" font-family="sans-serif" font-size="20" font-weight="bold" lengthAdjust="spacing" textLength="28" x="123" y="1084.8379">11</text><text fill="#000000" font-family="sans-serif" font-size="20" lengthAdjust="spacing" textLength="212" x="155" y="1084.8379">types requested data</text><polygon fill="#181818" points="127,1124.8359,117,1128.8359,127,1132.8359,123,1128.8359" style="stroke:#181818;stroke-width:1.0;"/><line style="stroke:#181818;stroke-width:1.0;stroke-dasharray:2.0,2.0;" x1="121" x2="1142" y1="1128.8359" y2="1128.8359"/><text fill="#000000" font-family="sans-serif" font-size="20" font-weight="bold" lengthAdjust="spacing" textLength="28" x="133" y="1122.1191">12</text><text fill="#000000" font-family="sans-serif" font-size="20" lengthAdjust="spacing" textLength="335" x="165" y="1122.1191">request the House characteristics</text><polygon fill="#181818" points="1131,1162.1172,1141,1166.1172,1131,1170.1172,1135,1166.1172" style="stroke:#181818;stroke-width:1.0;"/><line style="stroke:#181818;stroke-width:1.0;" x1="116" x2="1137" y1="1166.1172" y2="1166.1172"/><text fill="#000000" font-family="sans-serif" font-size="20" font-weight="bold" lengthAdjust="spacing" textLength="28" x="123" y="1159.4004">13</text><text fill="#000000" font-family="sans-serif" font-size="20" lengthAdjust="spacing" textLength="212" x="155" y="1159.4004">types requested data</text><path d="M20,1181.1172 L114,1181.1172 L114,1196.3984 L104,1206.3984 L20,1206.3984 L20,1181.1172 " fill="#EEEEEE" style="stroke:#000000;stroke-width:1.5;"/><rect fill="none" height="102.3047" style="stroke:#000000;stroke-width:1.5;" width="1180.5" x="20" y="1181.1172"/><text fill="#008000" font-family="sans-serif" font-size="20" font-weight="bold" lengthAdjust="spacing" textLength="49" x="35" y="1200.6816">loop</text><text fill="#0000FF" font-family="sans-serif" font-size="15" font-weight="bold" lengthAdjust="spacing" textLength="269" x="129" y="1197.0405">[select one or more equipments]</text><polygon fill="#181818" points="127,1234.1406,117,1238.1406,127,1242.1406,123,1238.1406" style="stroke:#181818;stroke-width:1.0;"/><line style="stroke:#181818;stroke-width:1.0;stroke-dasharray:2.0,2.0;" x1="121" x2="1142" y1="1238.1406" y2="1238.1406"/><text fill="#000000" font-family="sans-serif" font-size="20" font-weight="bold" lengthAdjust="spacing" textLength="28" x="133" y="1231.4238">14</text><text fill="#000000" font-family="sans-serif" font-size="20" lengthAdjust="spacing" textLength="288" x="165" y="1231.4238">request available equipment</text><polygon fill="#181818" points="1131,1271.4219,1141,1275.4219,1131,1279.4219,1135,1275.4219" style="stroke:#181818;stroke-width:1.0;"/><line style="stroke:#181818;stroke-width:1.0;" x1="116" x2="1137" y1="1275.4219" y2="1275.4219"/><text fill="#000000" font-family="sans-serif" font-size="20" font-weight="bold" lengthAdjust="spacing" textLength="28" x="123" y="1268.7051">15</text><text fill="#000000" font-family="sans-serif" font-size="20" lengthAdjust="spacing" textLength="212" x="155" y="1268.7051">types requested data</text><polygon fill="#181818" points="127,1322.7031,117,1326.7031,127,1330.7031,123,1326.7031" style="stroke:#181818;stroke-width:1.0;"/><line style="stroke:#181818;stroke-width:1.0;stroke-dasharray:2.0,2.0;" x1="121" x2="1142" y1="1326.7031" y2="1326.7031"/><text fill="#000000" font-family="sans-serif" font-size="20" font-weight="bold" lengthAdjust="spacing" textLength="28" x="133" y="1319.9863">16</text><text fill="#000000" font-family="sans-serif" font-size="20" lengthAdjust="spacing" textLength="212" x="165" y="1319.9863">request the dealType</text><polygon fill="#181818" points="1131,1359.9844,1141,1363.9844,1131,1367.9844,1135,1363.9844" style="stroke:#181818;stroke-width:1.0;"/><line style="stroke:#181818;stroke-width:1.0;" x1="116" x2="1137" y1="1363.9844" y2="1363.9844"/><text fill="#000000" font-family="sans-serif" font-size="20" font-weight="bold" lengthAdjust="spacing" textLength="28" x="123" y="1357.2676">17</text><text fill="#000000" font-family="sans-serif" font-size="20" lengthAdjust="spacing" textLength="212" x="155" y="1357.2676">types requested data</text><path d="M20,1378.9844 L96,1378.9844 L96,1394.2656 L86,1404.2656 L20,1404.2656 L20,1378.9844 " fill="#EEEEEE" style="stroke:#000000;stroke-width:1.5;"/><rect fill="none" height="196.3281" style="stroke:#000000;stroke-width:1.5;" width="1180.5" x="20" y="1378.9844"/><text fill="#008000" font-family="sans-serif" font-size="20" font-weight="bold" lengthAdjust="spacing" textLength="31" x="35" y="1398.5488">alt</text><text fill="#0000FF" font-family="sans-serif" font-size="15" font-weight="bold" lengthAdjust="spacing" textLength="108" x="111" y="1394.9077">[Deal is Sale]</text><polygon fill="#181818" points="127,1432.0078,117,1436.0078,127,1440.0078,123,1436.0078" style="stroke:#181818;stroke-width:1.0;"/><line style="stroke:#181818;stroke-width:1.0;stroke-dasharray:2.0,2.0;" x1="121" x2="1142" y1="1436.0078" y2="1436.0078"/><text fill="#000000" font-family="sans-serif" font-size="20" font-weight="bold" lengthAdjust="spacing" textLength="28" x="133" y="1429.291">18</text><text fill="#000000" font-family="sans-serif" font-size="20" lengthAdjust="spacing" textLength="171" x="165" y="1429.291">request the price</text><polygon fill="#181818" points="1131,1469.2891,1141,1473.2891,1131,1477.2891,1135,1473.2891" style="stroke:#181818;stroke-width:1.0;"/><line style="stroke:#181818;stroke-width:1.0;" x1="116" x2="1137" y1="1473.2891" y2="1473.2891"/><text fill="#000000" font-family="sans-serif" font-size="20" font-weight="bold" lengthAdjust="spacing" textLength="28" x="123" y="1466.5723">19</text><text fill="#000000" font-family="sans-serif" font-size="20" lengthAdjust="spacing" textLength="212" x="155" y="1466.5723">types requested data</text><line style="stroke:#000000;stroke-width:1.0;stroke-dasharray:2.0,2.0;" x1="20" x2="1200.5" y1="1482.2891" y2="1482.2891"/><text fill="#0000FF" font-family="sans-serif" font-size="15" font-weight="bold" lengthAdjust="spacing" textLength="111" x="25" y="1496.2124">[Deal is Rent]</text><polygon fill="#181818" points="127,1526.0313,117,1530.0313,127,1534.0313,123,1530.0313" style="stroke:#181818;stroke-width:1.0;"/><line style="stroke:#181818;stroke-width:1.0;stroke-dasharray:2.0,2.0;" x1="121" x2="1142" y1="1530.0313" y2="1530.0313"/><text fill="#000000" font-family="sans-serif" font-size="20" font-weight="bold" lengthAdjust="spacing" textLength="28" x="133" y="1523.3145">18</text><text fill="#000000" font-family="sans-serif" font-size="20" lengthAdjust="spacing" textLength="295" x="165" y="1523.3145">request the contract duration</text><polygon fill="#181818" points="1131,1563.3125,1141,1567.3125,1131,1571.3125,1135,1567.3125" style="stroke:#181818;stroke-width:1.0;"/><line style="stroke:#181818;stroke-width:1.0;" x1="116" x2="1137" y1="1567.3125" y2="1567.3125"/><text fill="#000000" font-family="sans-serif" font-size="20" font-weight="bold" lengthAdjust="spacing" textLength="28" x="123" y="1560.5957">19</text><text fill="#000000" font-family="sans-serif" font-size="20" lengthAdjust="spacing" textLength="212" x="155" y="1560.5957">types requested data</text><polygon fill="#181818" points="127,1607.5938,117,1611.5938,127,1615.5938,123,1611.5938" style="stroke:#181818;stroke-width:1.0;"/><line style="stroke:#181818;stroke-width:1.0;stroke-dasharray:2.0,2.0;" x1="121" x2="1142" y1="1611.5938" y2="1611.5938"/><text fill="#000000" font-family="sans-serif" font-size="20" font-weight="bold" lengthAdjust="spacing" textLength="28" x="133" y="1604.877">20</text><text fill="#000000" font-family="sans-serif" font-size="20" lengthAdjust="spacing" textLength="406" x="165" y="1604.877">shows the data and asks to confirmation</text><polygon fill="#181818" points="1126,1644.875,1136,1648.875,1126,1652.875,1130,1648.875" style="stroke:#181818;stroke-width:1.0;"/><line style="stroke:#181818;stroke-width:1.0;" x1="116" x2="1132" y1="1648.875" y2="1648.875"/><text fill="#000000" font-family="sans-serif" font-size="20" font-weight="bold" lengthAdjust="spacing" textLength="28" x="123" y="1642.1582">21</text><text fill="#000000" font-family="sans-serif" font-size="20" lengthAdjust="spacing" textLength="177" x="155" y="1642.1582">confirms the data</text><polygon fill="#181818" points="127,1682.1563,117,1686.1563,127,1690.1563,123,1686.1563" style="stroke:#181818;stroke-width:1.0;"/><line style="stroke:#181818;stroke-width:1.0;stroke-dasharray:2.0,2.0;" x1="121" x2="1142" y1="1686.1563" y2="1686.1563"/><text fill="#000000" font-family="sans-serif" font-size="20" font-weight="bold" lengthAdjust="spacing" textLength="28" x="133" y="1679.4395">22</text><text fill="#000000" font-family="sans-serif" font-size="20" lengthAdjust="spacing" textLength="268" x="165" y="1679.4395">Displays operation success</text><!--SRC=[rLPDJzj04BtxLupe8I05r5IYgZXKQXjH3Y0GRd_0i9uagwnttTqrrFpwplehji59eFJGd1nxvirxRsR7TckfCxIOAYFMb4122yoLFpVQn_AHuCFxo3KXa1fjnCgQb621ob7dKOPYZKkAVQ48B0cFUgcw0Mw5YNcGUbcdHbvw3eqBvoc5c7xbf0N1NE8oX1_6yVmeYYPmBZdA5Lw5LBw1oZT_E-XD_dThyko2C24R97mpobXOMY8z5hm9krCvROig_PYTHfChcIHCojDlfiA20vL9HscTU4NEiILVb5ng4AGzsPrXYGpUIQCZpBtHUNh7IH4Ap_mERgp9oFe2hXyqsGD01pVN0EzkZIk-MlEW8uWOsqiXCzGU3iugTyl8whB4alVeYLCZg7-CSlovQSKPHwyTU0DAEXzSHyZgocL6Yr13XdijL0rop7YCUiPjDmyCjg8I3Sm2MAiMaXpWFKg5T-mawgGjwaYn0s0qbPW9RIqtO5ubCtHLvNc-B-JgTpC5xaxk-2ai27rkgVCOmNAIIIkiBPes3OVJarbrYsSzRc0s-Nk9zvLEuhFMCAZ9RSEe8bN18breVH2tAKmw6LBzM9KPMcd3S3jVkTbC3s2IM9vsE9GdTC97Xy-bdmhfYsd2Xbif_DHvjcNwA3DX4ZeQiMki_Rx8g2fPrmyB3JsEZu4o9gkDuqEtR9gP6kvXjZBUkD5fQILMSQMewlhdxUK_PTwqOZUr01YWmootNTX5RI8NKBOXxGvScCLs0SamPGgx70PpCPl1jZchz3wZjVdr_bHfBA-hhXHt6GwaMF525RnUmxuIBdfnuJQXF2rzbPY5bThtuWd1dl3Nbz-kjSFaxoKtiPq3q1j-ZfPPAENsOBVPZstQgmdnOCEsVgnC7huUtixz_So_26NVSDB-0-_hPTzVC4-CuKMYVZ3eOBNjQKFOAdD62BsDKT5mfprNCUCN1RsaMc-QccgtGwE6a_Hf3og2Fml3G42IMom_srvf-puV9I6dzm72rHVIffl2-xzlwjGDyFWhSd8kDLjsmxjdbEHSkanXuI2Sr98Fk5m8VjUFyFe3]--></g></svg>