<?xml version="1.0" encoding="UTF-8" standalone="no"?><svg xmlns="http://www.w3.org/2000/svg" xmlns:xlink="http://www.w3.org/1999/xlink" contentStyleType="text/css" height="955px" preserveAspectRatio="none" style="width:975px;height:955px;background:#FFFFFF;" version="1.1" viewBox="0 0 975 955" width="975px" zoomAndPan="magnify"><defs/><g><!--class Announcement--><g id="elem_Announcement"><rect codeLine="16" fill="#FFDAB9" height="118.625" id="Announcement" rx="2.5" ry="2.5" style="stroke:#4169E1;stroke-width:0.5;" width="134" x="172" y="149.5"/><text fill="#000000" font-family="sans-serif" font-size="20" lengthAdjust="spacing" textLength="128" x="175" y="175.2617">Announcement</text><line style="stroke:#4169E1;stroke-width:0.5;" x1="173" x2="305" y1="184.6563" y2="184.6563"/><rect fill="none" height="6" style="stroke:#C82930;stroke-width:1.0;" width="6" x="180" y="199.7344"/><text fill="#000000" font-family="sans-serif" font-size="20" lengthAdjust="spacing" textLength="15" x="193" y="209.418">id</text><rect fill="none" height="6" style="stroke:#C82930;stroke-width:1.0;" width="6" x="180" y="224.8906"/><text fill="#000000" font-family="sans-serif" font-size="20" lengthAdjust="spacing" textLength="44" x="193" y="234.5742">state</text><rect fill="none" height="6" style="stroke:#C82930;stroke-width:1.0;" width="6" x="180" y="250.0469"/><text fill="#000000" font-family="sans-serif" font-size="20" lengthAdjust="spacing" textLength="39" x="193" y="259.7305">date</text></g><!--class Property--><g id="elem_Property"><rect codeLine="22" fill="#FFDAB9" height="143.7813" id="Property" rx="2.5" ry="2.5" style="stroke:#4169E1;stroke-width:0.5;" width="239" x="453.5" y="368"/><text fill="#000000" font-family="sans-serif" font-size="20" lengthAdjust="spacing" textLength="76" x="535" y="393.7617">Property</text><line style="stroke:#4169E1;stroke-width:0.5;" x1="454.5" x2="691.5" y1="403.1563" y2="403.1563"/><rect fill="none" height="6" style="stroke:#C82930;stroke-width:1.0;" width="6" x="461.5" y="418.2344"/><text fill="#000000" font-family="sans-serif" font-size="20" lengthAdjust="spacing" textLength="38" x="474.5" y="427.918">type</text><rect fill="none" height="6" style="stroke:#C82930;stroke-width:1.0;" width="6" x="461.5" y="443.3906"/><text fill="#000000" font-family="sans-serif" font-size="20" lengthAdjust="spacing" textLength="40" x="474.5" y="453.0742">area</text><rect fill="none" height="6" style="stroke:#C82930;stroke-width:1.0;" width="6" x="461.5" y="468.5469"/><text fill="#000000" font-family="sans-serif" font-size="20" lengthAdjust="spacing" textLength="212" x="474.5" y="478.2305">distanceFromCityCenter</text><rect fill="none" height="6" style="stroke:#C82930;stroke-width:1.0;" width="6" x="461.5" y="493.7031"/><text fill="#000000" font-family="sans-serif" font-size="20" lengthAdjust="spacing" textLength="87" x="474.5" y="503.3867">photoURL</text></g><!--class Home--><g id="elem_Home"><rect codeLine="30" fill="#FFDAB9" height="143.7813" id="Home" rx="2.5" ry="2.5" style="stroke:#4169E1;stroke-width:0.5;" width="236" x="603" y="599"/><text fill="#000000" font-family="sans-serif" font-size="20" lengthAdjust="spacing" textLength="51" x="695.5" y="624.7617">Home</text><line style="stroke:#4169E1;stroke-width:0.5;" x1="604" x2="838" y1="634.1563" y2="634.1563"/><rect fill="none" height="6" style="stroke:#C82930;stroke-width:1.0;" width="6" x="611" y="649.2344"/><text fill="#000000" font-family="sans-serif" font-size="20" lengthAdjust="spacing" textLength="175" x="624" y="658.918">numberOfbedrooms</text><rect fill="none" height="6" style="stroke:#C82930;stroke-width:1.0;" width="6" x="611" y="674.3906"/><text fill="#000000" font-family="sans-serif" font-size="20" lengthAdjust="spacing" textLength="180" x="624" y="684.0742">numberOfbathrooms</text><rect fill="none" height="6" style="stroke:#C82930;stroke-width:1.0;" width="6" x="611" y="699.5469"/><text fill="#000000" font-family="sans-serif" font-size="20" lengthAdjust="spacing" textLength="209" x="624" y="709.2305">numberOfParkingSpace</text><rect fill="none" height="6" style="stroke:#C82930;stroke-width:1.0;" width="6" x="611" y="724.7031"/><text fill="#000000" font-family="sans-serif" font-size="20" lengthAdjust="spacing" textLength="168" x="624" y="734.3867">availableEquipment</text></g><!--class Land--><g id="elem_Land"><rect codeLine="37" fill="#FFDAB9" height="43.1563" id="Land" rx="2.5" ry="2.5" style="stroke:#4169E1;stroke-width:0.5;" width="49" x="375.5" y="649.5"/><text fill="#000000" font-family="sans-serif" font-size="20" lengthAdjust="spacing" textLength="43" x="378.5" y="675.2617">Land</text><line style="stroke:#4169E1;stroke-width:0.5;" x1="376.5" x2="423.5" y1="684.6563" y2="684.6563"/></g><!--class Apartment--><g id="elem_Apartment"><rect codeLine="41" fill="#FFDAB9" height="43.1563" id="Apartment" rx="2.5" ry="2.5" style="stroke:#4169E1;stroke-width:0.5;" width="97" x="662.5" y="868"/><text fill="#000000" font-family="sans-serif" font-size="20" lengthAdjust="spacing" textLength="91" x="665.5" y="893.7617">Apartment</text><line style="stroke:#4169E1;stroke-width:0.5;" x1="663.5" x2="758.5" y1="903.1563" y2="903.1563"/></g><!--class House--><g id="elem_House"><rect codeLine="45" fill="#FFDAB9" height="118.625" id="House" rx="2.5" ry="2.5" style="stroke:#4169E1;stroke-width:0.5;" width="154" x="795" y="830"/><text fill="#000000" font-family="sans-serif" font-size="20" lengthAdjust="spacing" textLength="55" x="844.5" y="855.7617">House</text><line style="stroke:#4169E1;stroke-width:0.5;" x1="796" x2="948" y1="865.1563" y2="865.1563"/><rect fill="none" height="6" style="stroke:#C82930;stroke-width:1.0;" width="6" x="803" y="880.2344"/><text fill="#000000" font-family="sans-serif" font-size="20" lengthAdjust="spacing" textLength="86" x="816" y="889.918">basement</text><rect fill="none" height="6" style="stroke:#C82930;stroke-width:1.0;" width="6" x="803" y="905.3906"/><text fill="#000000" font-family="sans-serif" font-size="20" lengthAdjust="spacing" textLength="127" x="816" y="915.0742">inhabitableLoft</text><rect fill="none" height="6" style="stroke:#C82930;stroke-width:1.0;" width="6" x="803" y="930.5469"/><text fill="#000000" font-family="sans-serif" font-size="20" lengthAdjust="spacing" textLength="112" x="816" y="940.2305">sunExposure</text></g><!--class Deal--><g id="elem_Deal"><rect codeLine="51" fill="#FFDAB9" height="68.3125" id="Deal" rx="2.5" ry="2.5" style="stroke:#4169E1;stroke-width:0.5;" width="108" x="460" y="637"/><text fill="#000000" font-family="sans-serif" font-size="20" lengthAdjust="spacing" textLength="40" x="494" y="662.7617">Deal</text><line style="stroke:#4169E1;stroke-width:0.5;" x1="461" x2="567" y1="672.1563" y2="672.1563"/><rect fill="none" height="6" style="stroke:#C82930;stroke-width:1.0;" width="6" x="468" y="687.2344"/><text fill="#000000" font-family="sans-serif" font-size="20" lengthAdjust="spacing" textLength="81" x="481" y="696.918">dealType</text></g><!--class Sale--><g id="elem_Sale"><rect codeLine="55" fill="#FFDAB9" height="68.3125" id="Sale" rx="2.5" ry="2.5" style="stroke:#4169E1;stroke-width:0.5;" width="146" x="256" y="855.5"/><text fill="#000000" font-family="sans-serif" font-size="20" lengthAdjust="spacing" textLength="39" x="309.5" y="881.2617">Sale</text><line style="stroke:#4169E1;stroke-width:0.5;" x1="257" x2="401" y1="890.6563" y2="890.6563"/><rect fill="none" height="6" style="stroke:#C82930;stroke-width:1.0;" width="6" x="264" y="905.7344"/><text fill="#000000" font-family="sans-serif" font-size="20" lengthAdjust="spacing" textLength="119" x="277" y="915.418">propertyPrice</text></g><!--class Rent--><g id="elem_Rent"><rect codeLine="59" fill="#FFDAB9" height="93.4688" id="Rent" rx="2.5" ry="2.5" style="stroke:#4169E1;stroke-width:0.5;" width="171" x="437.5" y="843"/><text fill="#000000" font-family="sans-serif" font-size="20" lengthAdjust="spacing" textLength="41" x="502.5" y="868.7617">Rent</text><line style="stroke:#4169E1;stroke-width:0.5;" x1="438.5" x2="607.5" y1="878.1563" y2="878.1563"/><rect fill="none" height="6" style="stroke:#C82930;stroke-width:1.0;" width="6" x="445.5" y="893.2344"/><text fill="#000000" font-family="sans-serif" font-size="20" lengthAdjust="spacing" textLength="115" x="458.5" y="902.918">propertyRent</text><rect fill="none" height="6" style="stroke:#C82930;stroke-width:1.0;" width="6" x="445.5" y="918.3906"/><text fill="#000000" font-family="sans-serif" font-size="20" lengthAdjust="spacing" textLength="144" x="458.5" y="928.0742">contractDuration</text></g><!--class NM--><g id="elem_NM"><rect codeLine="64" fill="#FFDAB9" height="43.1563" id="NM" rx="2.5" ry="2.5" style="stroke:#4169E1;stroke-width:0.5;" width="163" x="630.5" y="7"/><text fill="#000000" font-family="sans-serif" font-size="20" lengthAdjust="spacing" textLength="157" x="633.5" y="32.7617">Network Manager</text><line style="stroke:#4169E1;stroke-width:0.5;" x1="631.5" x2="792.5" y1="42.1563" y2="42.1563"/></g><!--class Order--><g id="elem_Order"><rect codeLine="68" fill="#FFDAB9" height="93.4688" id="Order" rx="2.5" ry="2.5" style="stroke:#4169E1;stroke-width:0.5;" width="138" x="186" y="624.5"/><text fill="#000000" font-family="sans-serif" font-size="20" lengthAdjust="spacing" textLength="52" x="229" y="650.2617">Order</text><line style="stroke:#4169E1;stroke-width:0.5;" x1="187" x2="323" y1="659.6563" y2="659.6563"/><rect fill="none" height="6" style="stroke:#C82930;stroke-width:1.0;" width="6" x="194" y="674.7344"/><text fill="#000000" font-family="sans-serif" font-size="20" lengthAdjust="spacing" textLength="111" x="207" y="684.418">requestPrice</text><rect fill="none" height="6" style="stroke:#C82930;stroke-width:1.0;" width="6" x="194" y="699.8906"/><text fill="#000000" font-family="sans-serif" font-size="20" lengthAdjust="spacing" textLength="39" x="207" y="709.5742">date</text></g><!--class Agency--><g id="elem_Agency"><rect codeLine="73" fill="#FFDAB9" height="143.7813" id="Agency" rx="2.5" ry="2.5" style="stroke:#4169E1;stroke-width:0.5;" width="148" x="638" y="137"/><text fill="#000000" font-family="sans-serif" font-size="20" lengthAdjust="spacing" textLength="65" x="679.5" y="162.7617">Agency</text><line style="stroke:#4169E1;stroke-width:0.5;" x1="639" x2="785" y1="172.1563" y2="172.1563"/><rect fill="none" height="6" style="stroke:#C82930;stroke-width:1.0;" width="6" x="646" y="187.2344"/><text fill="#000000" font-family="sans-serif" font-size="20" lengthAdjust="spacing" textLength="15" x="659" y="196.918">id</text><rect fill="none" height="6" style="stroke:#C82930;stroke-width:1.0;" width="6" x="646" y="212.3906"/><text fill="#000000" font-family="sans-serif" font-size="20" lengthAdjust="spacing" textLength="99" x="659" y="222.0742">designation</text><rect fill="none" height="6" style="stroke:#C82930;stroke-width:1.0;" width="6" x="646" y="237.5469"/><text fill="#000000" font-family="sans-serif" font-size="20" lengthAdjust="spacing" textLength="121" x="659" y="247.2305">phoneNumber</text><rect fill="none" height="6" style="stroke:#C82930;stroke-width:1.0;" width="6" x="646" y="262.7031"/><text fill="#000000" font-family="sans-serif" font-size="20" lengthAdjust="spacing" textLength="46" x="659" y="272.3867">email</text></g><!--class Agent--><g id="elem_Agent"><rect codeLine="80" fill="#FFDAB9" height="43.1563" id="Agent" rx="2.5" ry="2.5" style="stroke:#4169E1;stroke-width:0.5;" width="57" x="210.5" y="418.5"/><text fill="#000000" font-family="sans-serif" font-size="20" lengthAdjust="spacing" textLength="51" x="213.5" y="444.2617">Agent</text><line style="stroke:#4169E1;stroke-width:0.5;" x1="211.5" x2="266.5" y1="453.6563" y2="453.6563"/></g><!--class Address--><g id="elem_Address"><rect codeLine="84" fill="#FFDAB9" height="143.7813" id="Address" rx="2.5" ry="2.5" style="stroke:#4169E1;stroke-width:0.5;" width="94" x="874" y="599"/><text fill="#000000" font-family="sans-serif" font-size="20" lengthAdjust="spacing" textLength="73" x="884.5" y="624.7617">Address</text><line style="stroke:#4169E1;stroke-width:0.5;" x1="875" x2="967" y1="634.1563" y2="634.1563"/><rect fill="none" height="6" style="stroke:#C82930;stroke-width:1.0;" width="6" x="882" y="649.2344"/><text fill="#000000" font-family="sans-serif" font-size="20" lengthAdjust="spacing" textLength="51" x="895" y="658.918">street</text><rect fill="none" height="6" style="stroke:#C82930;stroke-width:1.0;" width="6" x="882" y="674.3906"/><text fill="#000000" font-family="sans-serif" font-size="20" lengthAdjust="spacing" textLength="30" x="895" y="684.0742">city</text><rect fill="none" height="6" style="stroke:#C82930;stroke-width:1.0;" width="6" x="882" y="699.5469"/><text fill="#000000" font-family="sans-serif" font-size="20" lengthAdjust="spacing" textLength="44" x="895" y="709.2305">state</text><rect fill="none" height="6" style="stroke:#C82930;stroke-width:1.0;" width="6" x="882" y="724.7031"/><text fill="#000000" font-family="sans-serif" font-size="20" lengthAdjust="spacing" textLength="67" x="895" y="734.3867">zipcode</text></g><!--class Commission--><g id="elem_Commission"><rect fill="#FFDAB9" height="43.1563" id="Commission" rx="2.5" ry="2.5" style="stroke:#4169E1;stroke-width:0.5;" width="112" x="7" y="649.5"/><text fill="#000000" font-family="sans-serif" font-size="20" lengthAdjust="spacing" textLength="106" x="10" y="675.2617">Commission</text><line style="stroke:#4169E1;stroke-width:0.5;" x1="8" x2="118" y1="684.6563" y2="684.6563"/></g><!--link Announcement to Property--><g id="link_Announcement_Property"><path codeLine="93" d="M306.22,254.12 C332.74,271.66 363.41,292.13 391,311 C417.63,329.2 446.25,349.15 472.73,367.77 " fill="none" id="Announcement-Property" style="stroke:#4169E1;stroke-width:1.0;"/><polygon fill="#000000" points="441.6076,329.0881,432.3052,317.0456,427.0035,324.8133,441.6076,329.0881" style="stroke:#000000;stroke-width:1.0;"/><text fill="#000000" font-family="sans-serif" font-size="20" lengthAdjust="spacing" textLength="48" x="448" y="332.7617">has a</text><text fill="#000000" font-family="sans-serif" font-size="20" lengthAdjust="spacing" textLength="11" x="314.1738" y="253.4786">1</text><text fill="#000000" font-family="sans-serif" font-size="20" lengthAdjust="spacing" textLength="11" x="451.6488" y="355.4738">1</text></g><!--link Announcement to Agent--><g id="link_Announcement_Agent"><path codeLine="94" d="M171.81,244.9 C147.36,261.38 122.44,283.53 109,311 C82.89,364.34 164.77,408.21 210.45,427.87 " fill="none" id="Announcement-Agent" style="stroke:#4169E1;stroke-width:1.0;"/><polygon fill="#000000" points="118.653,332.4055,120.2635,317.274,111.0619,319.2173,118.653,332.4055" style="stroke:#000000;stroke-width:1.0;"/><text fill="#000000" font-family="sans-serif" font-size="20" lengthAdjust="spacing" textLength="65" x="130" y="332.7617">send to</text><text fill="#000000" font-family="sans-serif" font-size="20" lengthAdjust="spacing" textLength="11" x="152.8595" y="243.2501">1</text><text fill="#000000" font-family="sans-serif" font-size="20" lengthAdjust="spacing" textLength="11" x="191.5759" y="417.936">1</text></g><!--link Agent to Announcement--><g id="link_Agent_Announcement"><path codeLine="105" d="M238.21,418.5 C237.47,398.1 236.41,365.89 236,338 C235.66,315.33 236.07,290.4 236.68,268.62 " fill="none" id="Agent-Announcement" style="stroke:#4169E1;stroke-width:1.0;"/><polygon fill="#000000" points="243.9183,316.5785,239.364,331.0979,248.7681,331.0019,243.9183,316.5785" style="stroke:#000000;stroke-width:1.0;"/><text fill="#000000" font-family="sans-serif" font-size="20" lengthAdjust="spacing" textLength="81" x="257" y="332.7617">publishes</text><text fill="#000000" font-family="sans-serif" font-size="20" lengthAdjust="spacing" textLength="11" x="225.6768" y="405.9742">1</text><text fill="#000000" font-family="sans-serif" font-size="20" lengthAdjust="spacing" textLength="8" x="228.0283" y="296.8465">*</text></g><!--link Announcement to Order--><g id="link_Announcement_Order"><path codeLine="95" d="M306.15,259.67 C321.07,274.38 334.86,291.76 343,311 C387.65,416.61 383.22,461.62 343,569 C335.33,589.47 321.43,608.53 306.91,624.45 " fill="none" id="Announcement-Order" style="stroke:#4169E1;stroke-width:1.0;"/><polygon fill="#000000" points="382.9833,432.0781,378.3112,446.56,387.7158,446.5404,382.9833,432.0781" style="stroke:#000000;stroke-width:1.0;"/><text fill="#000000" font-family="sans-serif" font-size="20" lengthAdjust="spacing" textLength="31" x="396" y="448.2617">has</text><text fill="#000000" font-family="sans-serif" font-size="20" lengthAdjust="spacing" textLength="11" x="314.0961" y="287.37">1</text><text fill="#000000" font-family="sans-serif" font-size="20" lengthAdjust="spacing" textLength="11" x="302.1463" y="612.2559">1</text></g><!--link Property to Deal--><g id="link_Property_Deal"><path codeLine="96" d="M536.26,512.14 C532.26,521.98 528.68,532.11 526,542 C517.48,573.45 514.78,610.66 514.02,636.83 " fill="none" id="Property-Deal" style="stroke:#4169E1;stroke-width:1.0;"/><polygon fill="#000000" points="532.5953,563.4538,539.7657,550.0322,530.5072,548.3809,532.5953,563.4538" style="stroke:#000000;stroke-width:1.0;"/><text fill="#000000" font-family="sans-serif" font-size="20" lengthAdjust="spacing" textLength="31" x="547" y="563.7617">has</text><text fill="#000000" font-family="sans-serif" font-size="20" lengthAdjust="spacing" textLength="11" x="521.498" y="540.4567">1</text><text fill="#000000" font-family="sans-serif" font-size="20" lengthAdjust="spacing" textLength="11" x="502.0781" y="624.5569">1</text></g><!--link Agency to Agent--><g id="link_Agency_Agent"><path codeLine="99" d="M637.58,265.92 C599.73,291.72 551.89,320.45 505,338 C427.81,366.89 396.74,333.26 322,368 C296.38,379.91 272.46,402.01 256.95,418.4 " fill="none" id="Agency-Agent" style="stroke:#4169E1;stroke-width:1.0;"/><polygon fill="#000000" points="560.5737,327.5531,575.7566,326.5364,572.2593,317.8063,560.5737,327.5531" style="stroke:#000000;stroke-width:1.0;"/><text fill="#000000" font-family="sans-serif" font-size="20" lengthAdjust="spacing" textLength="31" x="581" y="332.7617">has</text><text fill="#000000" font-family="sans-serif" font-size="20" lengthAdjust="spacing" textLength="11" x="618.9626" y="265.9334">1</text><text fill="#000000" font-family="sans-serif" font-size="20" lengthAdjust="spacing" textLength="31" x="226.5166" y="406.2761">1..*</text></g><!--link Agency to Address--><g id="link_Agency_Address"><path codeLine="100" d="M744.31,281.12 C783.56,367.49 849.36,512.33 888.63,598.76 " fill="none" id="Agency-Address" style="stroke:#4169E1;stroke-width:1.0;"/><polygon fill="#000000" points="858.3092,447.3616,856.6039,432.2405,848.0416,436.1308,858.3092,447.3616" style="stroke:#000000;stroke-width:1.0;"/><text fill="#000000" font-family="sans-serif" font-size="20" lengthAdjust="spacing" textLength="31" x="868" y="448.2617">has</text><text fill="#000000" font-family="sans-serif" font-size="20" lengthAdjust="spacing" textLength="11" x="735.6978" y="309.4349">1</text><text fill="#000000" font-family="sans-serif" font-size="20" lengthAdjust="spacing" textLength="11" x="874.1389" y="586.727">1</text></g><!--link Commission to Announcement--><g id="link_Commission_Announcement"><path codeLine="103" d="M59.25,649.18 C49.89,591.07 30.73,424 96,311 C113.33,281 143.58,257.69 171.81,241.06 " fill="none" id="Commission-Announcement" style="stroke:#4169E1;stroke-width:1.0;"/><polygon fill="#000000" points="76.873,447.7902,85.2538,435.0892,76.1877,432.5887,76.873,447.7902" style="stroke:#000000;stroke-width:1.0;"/><text fill="#000000" font-family="sans-serif" font-size="20" lengthAdjust="spacing" textLength="31" x="92" y="448.2617">has</text><text fill="#000000" font-family="sans-serif" font-size="20" lengthAdjust="spacing" textLength="11" x="46.1109" y="637.0052">1</text><text fill="#000000" font-family="sans-serif" font-size="20" lengthAdjust="spacing" textLength="11" x="152.8595" y="266.7245">1</text></g><!--link Agent to Commission--><g id="link_Agent_Commission"><path codeLine="104" d="M223.07,461.73 C189.56,505.33 112.13,606.07 78.77,649.49 " fill="none" id="Agent-Commission" style="stroke:#4169E1;stroke-width:1.0;"/><polygon fill="#000000" points="160.1251,561.9213,172.6723,553.3118,165.2155,547.581,160.1251,561.9213" style="stroke:#000000;stroke-width:1.0;"/><text fill="#000000" font-family="sans-serif" font-size="20" lengthAdjust="spacing" textLength="27" x="178" y="563.7617">set</text><text fill="#000000" font-family="sans-serif" font-size="20" lengthAdjust="spacing" textLength="11" x="207.1143" y="490.4074">1</text><text fill="#000000" font-family="sans-serif" font-size="20" lengthAdjust="spacing" textLength="31" x="86.3921" y="636.9618">1..*</text></g><!--link Agent to Order--><g id="link_Agent_Order"><path codeLine="106" d="M240.45,461.73 C243,498.28 248.36,575 251.82,624.43 " fill="none" id="Agent-Order" style="stroke:#4169E1;stroke-width:1.0;"/><polygon fill="#000000" points="255.4423,547.5976,251.7604,562.3623,261.142,561.7067,255.4423,547.5976" style="stroke:#000000;stroke-width:1.0;"/><text fill="#000000" font-family="sans-serif" font-size="20" lengthAdjust="spacing" textLength="65" x="269" y="563.7617">send to</text><text fill="#000000" font-family="sans-serif" font-size="20" lengthAdjust="spacing" textLength="11" x="228.5134" y="490.4074">1</text><text fill="#000000" font-family="sans-serif" font-size="20" lengthAdjust="spacing" textLength="8" x="242.8552" y="612.2332">*</text></g><!--link NM to Agency--><g id="link_NM_Agency"><path codeLine="109" d="M712,50.33 C712,71.57 712,105.74 712,136.85 " fill="none" id="NM-Agency" style="stroke:#4169E1;stroke-width:1.0;"/><polygon fill="#000000" points="720,101.5781,724.7023,87.106,715.2977,87.106,720,101.5781" style="stroke:#000000;stroke-width:1.0;"/><text fill="#000000" font-family="sans-serif" font-size="20" lengthAdjust="spacing" textLength="70" x="733" y="101.7617">manage</text><text fill="#000000" font-family="sans-serif" font-size="20" lengthAdjust="spacing" textLength="11" x="699.7281" y="79.0305">1</text><text fill="#000000" font-family="sans-serif" font-size="20" lengthAdjust="spacing" textLength="31" x="679.5227" y="124.5614">1..*</text></g><!--link Property to Address--><g id="link_Property_Address"><path codeLine="112" d="M635.53,512.28 C658.89,537.28 683.28,561.12 698,569 C761.39,602.96 794.3,563.78 857,599 C862.93,602.33 868.61,606.42 873.95,610.93 " fill="none" id="Property-Address" style="stroke:#4169E1;stroke-width:1.0;"/><polygon fill="#000000" points="713.3922,558.6368,701.8174,548.7586,698.2218,557.4487,713.3922,558.6368" style="stroke:#000000;stroke-width:1.0;"/><text fill="#000000" font-family="sans-serif" font-size="20" lengthAdjust="spacing" textLength="31" x="719" y="563.7617">has</text><text fill="#000000" font-family="sans-serif" font-size="20" lengthAdjust="spacing" textLength="11" x="629.6092" y="540.6091">1</text><text fill="#000000" font-family="sans-serif" font-size="20" lengthAdjust="spacing" textLength="11" x="854.9033" y="595.6081">1</text></g><!--reverse link Deal to Sale--><g id="link_Deal_Sale"><path codeLine="115" d="M476.91,715.4 C441.61,756.71 389.26,817.98 357.23,855.46 " fill="none" id="Deal-backto-Sale" style="stroke:#4169E1;stroke-width:1.0;"/><polygon fill="#4169E1" points="485.5,705.35,478.5617,707.3148,477.7068,714.475,484.6451,712.5102,485.5,705.35" style="stroke:#4169E1;stroke-width:1.0;"/></g><!--reverse link Deal to Rent--><g id="link_Deal_Rent"><path codeLine="116" d="M515.94,718.66 C517.46,755.34 519.58,806.17 521.09,842.64 " fill="none" id="Deal-backto-Rent" style="stroke:#4169E1;stroke-width:1.0;"/><polygon fill="#4169E1" points="515.39,705.35,511.6441,711.5118,515.8912,717.3395,519.6371,711.1777,515.39,705.35" style="stroke:#4169E1;stroke-width:1.0;"/></g><!--reverse link Property to Land--><g id="link_Property_Land"><path codeLine="118" d="M491.8,527.47 C487.74,532.33 483.78,537.19 480,542 C461.19,565.94 458.2,573.22 442,599 C431.48,615.73 420.1,635.06 411.84,649.32 " fill="none" id="Property-backto-Land" style="stroke:#4169E1;stroke-width:1.0;"/><polygon fill="none" points="486.69,522.68,505.03,512.07,497.31,531.8,486.69,522.68" style="stroke:#4169E1;stroke-width:1.0;"/><text fill="#000000" font-family="sans-serif" font-size="20" lengthAdjust="spacing" textLength="31" x="481" y="563.7617">is a</text></g><!--reverse link Property to Home--><g id="link_Property_Home"><path codeLine="119" d="M602.8,530.84 C608.68,544.07 615.41,557.2 623,569 C629.54,579.17 637.22,589.19 645.34,598.73 " fill="none" id="Property-backto-Home" style="stroke:#4169E1;stroke-width:1.0;"/><polygon fill="none" points="596.26,533.36,595.06,512.2,609.19,527.99,596.26,533.36" style="stroke:#4169E1;stroke-width:1.0;"/><text fill="#000000" font-family="sans-serif" font-size="20" lengthAdjust="spacing" textLength="31" x="624" y="563.7617">is a</text></g><!--reverse link Home to Apartment--><g id="link_Home_Apartment"><path codeLine="120" d="M716.78,763.38 C714.99,802.14 713.06,843.85 711.95,867.99 " fill="none" id="Home-backto-Apartment" style="stroke:#4169E1;stroke-width:1.0;"/><polygon fill="none" points="709.8,762.85,717.71,743.19,723.78,763.49,709.8,762.85" style="stroke:#4169E1;stroke-width:1.0;"/><text fill="#000000" font-family="sans-serif" font-size="20" lengthAdjust="spacing" textLength="31" x="717" y="794.7617">is a</text></g><!--reverse link Home to House--><g id="link_Home_House"><path codeLine="121" d="M782.15,759.68 C798.63,783.31 816.06,808.3 831.14,829.91 " fill="none" id="Home-backto-House" style="stroke:#4169E1;stroke-width:1.0;"/><polygon fill="none" points="776.35,763.6,770.65,743.19,787.83,755.59,776.35,763.6" style="stroke:#4169E1;stroke-width:1.0;"/><text fill="#000000" font-family="sans-serif" font-size="20" lengthAdjust="spacing" textLength="31" x="811" y="794.7617">is a</text></g><!--SRC=[TLJRRjim37tNLmXv2L0WHRV7eIYGfIqse9SWsJv0aHXRY2ovbBmkRVVlesJBTYxLYouy8WyFAVcTjhL0KHadTw2uWgreJBXtDgpr6_2lLspgCuPNpZfPegk01so03PPQo9qeO1ts1ZY23C8MPWpmfL3kLTk2RuNnCFPgj8Mmhu4x3ALZKmFRm8FZg8ioSAMZE-ti-8eqmljv2AWtJO2Vqjd4zegLMW6N6YK5J-iAoAVoR3hBuruJHKz4YKn_o8vyytV6QNodj0fqZLKBPnpo9GXPBfljDbddYEwrDQpSNfZlXZH9rnmgm6FBln496Xzp6HpwZzdHO2s1kRKKLq85DhHaPbmhtgry405erMqLxSX_TtM9hWOC-tmjYjij1OB8TpGveG3tLC-53li51GBiZ7NfWlkzUc23rn-nxDcbRQeDuFDs0mgTg_pniGZbkVEbGDAvM5Exz8p-26t4ni3TIwFhcEqGya5OzJwYCASAXLQGCQ_6G-Qr4JufbWMpfTZe4Dq_k6q-zOsz-rixt-18j5iG9djHjFuLHUkjQs7w67KdxnAr745Meq9bo6gWGZqQKCXmsw18xTnVd3n1U7Muuu_2qXl22HUUFptoSPBFiQ5wzH5U6l2X9N2k0-O5MBaVsgRFo-l2jk7xEbjuIjNfJg2YUXnwEf1xhXI2zvrl7n2WIr5I4-NJo2OjttGjdJff_cwGABPztVxKoDXq_0ZOUCCdNoPyDajJRdV-ZPUadE0tdq9JDeJpO5NyOZv7jeAt7gzP7sA4Y0tJ0MuYrIGvQwS1TtbvCOHjiSUGITRqo5jW2rTLsdkIvm0zffmPjY4EmuwknvH35tk0NPmugvkDqRu4VmwRDSdgKLWsFMfUHerxchoCnQaI8gMNzJmhxAaQKMgMzBuWJ7oBmouziNEzDIi1wUaNSCx6Bll8r_G3yylurL14JVrpOai_NxQbJNlUVqVdZEbRoeR_]--></g></svg>