<?xml version="1.0" encoding="UTF-8" standalone="no"?><svg xmlns="http://www.w3.org/2000/svg" xmlns:xlink="http://www.w3.org/1999/xlink" contentStyleType="text/css" height="273px" preserveAspectRatio="none" style="width:981px;height:273px;background:#FFFFFF;" version="1.1" viewBox="0 0 981 273" width="981px" zoomAndPan="magnify"><defs/><g><!--class Agent--><g id="elem_Agent"><rect codeLine="19" fill="#FFDAB9" height="43.1563" id="Agent" rx="2.5" ry="2.5" style="stroke:#4169E1;stroke-width:0.5;" width="57" x="601.5" y="44"/><text fill="#000000" font-family="sans-serif" font-size="20" lengthAdjust="spacing" textLength="51" x="604.5" y="69.7617">Agent</text><line style="stroke:#4169E1;stroke-width:0.5;" x1="602.5" x2="657.5" y1="79.1563" y2="79.1563"/></g><!--class Announcement--><g id="elem_Announcement"><rect codeLine="22" fill="#FFDAB9" height="118.625" id="Announcement" rx="2.5" ry="2.5" style="stroke:#4169E1;stroke-width:0.5;" width="134" x="840" y="7"/><text fill="#000000" font-family="sans-serif" font-size="20" lengthAdjust="spacing" textLength="128" x="843" y="32.7617">Announcement</text><line style="stroke:#4169E1;stroke-width:0.5;" x1="841" x2="973" y1="42.1563" y2="42.1563"/><rect fill="none" height="6" style="stroke:#C82930;stroke-width:1.0;" width="6" x="848" y="57.2344"/><text fill="#000000" font-family="sans-serif" font-size="20" lengthAdjust="spacing" textLength="15" x="861" y="66.918">id</text><rect fill="none" height="6" style="stroke:#C82930;stroke-width:1.0;" width="6" x="848" y="82.3906"/><text fill="#000000" font-family="sans-serif" font-size="20" lengthAdjust="spacing" textLength="44" x="861" y="92.0742">state</text><rect fill="none" height="6" style="stroke:#C82930;stroke-width:1.0;" width="6" x="848" y="107.5469"/><text fill="#000000" font-family="sans-serif" font-size="20" lengthAdjust="spacing" textLength="39" x="861" y="117.2305">date</text></g><!--class Agency--><g id="elem_Agency"><rect codeLine="28" fill="#FFDAB9" height="143.7813" id="Agency" rx="2.5" ry="2.5" style="stroke:#4169E1;stroke-width:0.5;" width="148" x="322" y="89.5"/><text fill="#000000" font-family="sans-serif" font-size="20" lengthAdjust="spacing" textLength="65" x="363.5" y="115.2617">Agency</text><line style="stroke:#4169E1;stroke-width:0.5;" x1="323" x2="469" y1="124.6563" y2="124.6563"/><rect fill="none" height="6" style="stroke:#C82930;stroke-width:1.0;" width="6" x="330" y="139.7344"/><text fill="#000000" font-family="sans-serif" font-size="20" lengthAdjust="spacing" textLength="15" x="343" y="149.418">id</text><rect fill="none" height="6" style="stroke:#C82930;stroke-width:1.0;" width="6" x="330" y="164.8906"/><text fill="#000000" font-family="sans-serif" font-size="20" lengthAdjust="spacing" textLength="99" x="343" y="174.5742">designation</text><rect fill="none" height="6" style="stroke:#C82930;stroke-width:1.0;" width="6" x="330" y="190.0469"/><text fill="#000000" font-family="sans-serif" font-size="20" lengthAdjust="spacing" textLength="121" x="343" y="199.7305">phoneNumber</text><rect fill="none" height="6" style="stroke:#C82930;stroke-width:1.0;" width="6" x="330" y="215.2031"/><text fill="#000000" font-family="sans-serif" font-size="20" lengthAdjust="spacing" textLength="46" x="343" y="224.8867">email</text></g><!--class Address--><g id="elem_Address"><rect codeLine="35" fill="#FFDAB9" height="143.7813" id="Address" rx="2.5" ry="2.5" style="stroke:#4169E1;stroke-width:0.5;" width="94" x="583" y="122.5"/><text fill="#000000" font-family="sans-serif" font-size="20" lengthAdjust="spacing" textLength="73" x="593.5" y="148.2617">Address</text><line style="stroke:#4169E1;stroke-width:0.5;" x1="584" x2="676" y1="157.6563" y2="157.6563"/><rect fill="none" height="6" style="stroke:#C82930;stroke-width:1.0;" width="6" x="591" y="172.7344"/><text fill="#000000" font-family="sans-serif" font-size="20" lengthAdjust="spacing" textLength="51" x="604" y="182.418">street</text><rect fill="none" height="6" style="stroke:#C82930;stroke-width:1.0;" width="6" x="591" y="197.8906"/><text fill="#000000" font-family="sans-serif" font-size="20" lengthAdjust="spacing" textLength="30" x="604" y="207.5742">city</text><rect fill="none" height="6" style="stroke:#C82930;stroke-width:1.0;" width="6" x="591" y="223.0469"/><text fill="#000000" font-family="sans-serif" font-size="20" lengthAdjust="spacing" textLength="44" x="604" y="232.7305">state</text><rect fill="none" height="6" style="stroke:#C82930;stroke-width:1.0;" width="6" x="591" y="248.2031"/><text fill="#000000" font-family="sans-serif" font-size="20" lengthAdjust="spacing" textLength="67" x="604" y="257.8867">zipcode</text></g><!--class NM--><g id="elem_NM"><rect codeLine="42" fill="#FFDAB9" height="43.1563" id="NM" rx="2.5" ry="2.5" style="stroke:#4169E1;stroke-width:0.5;" width="163" x="7" y="140"/><text fill="#000000" font-family="sans-serif" font-size="20" lengthAdjust="spacing" textLength="157" x="10" y="165.7617">Network Manager</text><line style="stroke:#4169E1;stroke-width:0.5;" x1="8" x2="169" y1="175.1563" y2="175.1563"/></g><!--link Announcement to Agent--><g id="link_Announcement_Agent"><path codeLine="47" d="M839.99,94.74 C830.1,97.95 819.9,100.71 810,102.5 C764.96,110.67 751.61,112.78 707,102.5 C690.13,98.61 672.66,90.45 658.73,82.77 " fill="none" id="Announcement-Agent" style="stroke:#4169E1;stroke-width:1.0;"/><polygon fill="#000000" points="715.0174,88.551,729.1482,94.1967,729.7679,84.8125,715.0174,88.551" style="stroke:#000000;stroke-width:1.0;"/><text fill="#000000" font-family="sans-serif" font-size="20" lengthAdjust="spacing" textLength="65" x="736" y="97.2617">send to</text><text fill="#000000" font-family="sans-serif" font-size="20" lengthAdjust="spacing" textLength="11" x="821.0592" y="119.9867">1</text><text fill="#000000" font-family="sans-serif" font-size="20" lengthAdjust="spacing" textLength="11" x="666.8432" y="109.984">1</text></g><!--link Agent to Announcement--><g id="link_Agent_Announcement"><path codeLine="54" d="M658.63,65.6 C700.65,65.75 781.84,66.05 839.74,66.26 " fill="none" id="Agent-Announcement" style="stroke:#4169E1;stroke-width:1.0;"/><polygon fill="#000000" points="722.9999,53.1073,708.545,48.3523,708.5108,57.7568,722.9999,53.1073" style="stroke:#000000;stroke-width:1.0;"/><text fill="#000000" font-family="sans-serif" font-size="20" lengthAdjust="spacing" textLength="81" x="728" y="61.2617">publishes</text><text fill="#000000" font-family="sans-serif" font-size="20" lengthAdjust="spacing" textLength="11" x="666.5226" y="58.4942">1</text><text fill="#000000" font-family="sans-serif" font-size="20" lengthAdjust="spacing" textLength="8" x="823.9459" y="88.3917">*</text></g><!--link Agency to Agent--><g id="link_Agency_Agent"><path codeLine="50" d="M470.09,131.26 C514.72,112.79 569.21,90.24 601.4,76.92 " fill="none" id="Agency-Agent" style="stroke:#4169E1;stroke-width:1.0;"/><polygon fill="#000000" points="515.392,82.0191,500.2217,83.208,503.8178,91.8979,515.392,82.0191" style="stroke:#000000;stroke-width:1.0;"/><text fill="#000000" font-family="sans-serif" font-size="20" lengthAdjust="spacing" textLength="31" x="521" y="93.2617">has</text><text fill="#000000" font-family="sans-serif" font-size="20" lengthAdjust="spacing" textLength="11" x="477.9246" y="150.2939">1</text><text fill="#000000" font-family="sans-serif" font-size="20" lengthAdjust="spacing" textLength="31" x="562.5447" y="101.9425">1..*</text></g><!--link Agency to Address--><g id="link_Agency_Address"><path codeLine="51" d="M470.09,171.9 C507.01,177.15 550.69,183.36 582.9,187.94 " fill="none" id="Agency-Address" style="stroke:#4169E1;stroke-width:1.0;"/><polygon fill="#000000" points="515.9203,164.2043,502.2543,157.5116,500.9304,166.8225,515.9203,164.2043" style="stroke:#000000;stroke-width:1.0;"/><text fill="#000000" font-family="sans-serif" font-size="20" lengthAdjust="spacing" textLength="31" x="521" y="171.2617">has</text><text fill="#000000" font-family="sans-serif" font-size="20" lengthAdjust="spacing" textLength="11" x="477.9246" y="194.9344">1</text><text fill="#000000" font-family="sans-serif" font-size="20" lengthAdjust="spacing" textLength="11" x="563.8456" y="209.64">1</text></g><!--link NM to Agency--><g id="link_NM_Agency"><path codeLine="57" d="M170.17,161.5 C217.28,161.5 276.26,161.5 321.99,161.5 " fill="none" id="NM-Agency" style="stroke:#4169E1;stroke-width:1.0;"/><polygon fill="#000000" points="216,148.0781,201.5279,143.3758,201.5279,152.7804,216,148.0781" style="stroke:#000000;stroke-width:1.0;"/><text fill="#000000" font-family="sans-serif" font-size="20" lengthAdjust="spacing" textLength="70" x="221" y="156.2617">manage</text><text fill="#000000" font-family="sans-serif" font-size="20" lengthAdjust="spacing" textLength="11" x="177.9336" y="183.375">1</text><text fill="#000000" font-family="sans-serif" font-size="20" lengthAdjust="spacing" textLength="31" x="283.018" y="183.3917">1..*</text></g><!--SRC=[RLBHQkim37ttLuY-50OPktlimo0R3FRGKkw-mBMLnDInWgnGidN_VfsuQKDtzM9PEkVeo3WUNUWqwzQJEQ85YvNklRnJa4_tXV3yfDPnna1BWKp3r288zwXkdKwRewxnKmQFm6X4Xzel0R7Hbaukr51f7t6fwbr06Je4Ocb8UQm4X81TtGXODwev2ak6yJh6KeJTeHVyC1Gciq-gSHR1E3PfzfItc2HjLEjYZdUN7CRaCtcv5jMTDdmhIF6QjggP-c3Vo1F37hLfzdrLJTsIcKwvyPS6xLzzUfA9HcoHxpi_2nCfpgKHudWkxaAjptlaI26UbL9lavkonY39quzIsLuPGd9bi4trRBK0Poz952ruoUsOtcX9nmo_21QZguEUNZbNkeO2xlhsW7ofOAkTNoXPonZZHIeA8qhEZPDXhbvzVBdEa5quMUrGJiH7sEgG_WslG4VORR_L25alrrFB2wp-hA0efYC_oWOY1Zl-bvUHE2seyd43Fpu-tF1DclJo2xAQLxeYifgep9k1ez3Iq0Qw_k1TR31pxlPIk-r_RAJ16sWdH2Bz0m00]--></g></svg>