<?xml version="1.0" encoding="UTF-8" standalone="no"?><svg xmlns="http://www.w3.org/2000/svg" xmlns:xlink="http://www.w3.org/1999/xlink" contentStyleType="text/css" height="792px" preserveAspectRatio="none" style="width:1301px;height:792px;background:#FFFFFF;" version="1.1" viewBox="0 0 1301 792" width="1301px" zoomAndPan="magnify"><defs/><g><text fill="#000000" font-family="sans-serif" font-size="14" font-weight="bold" lengthAdjust="spacing" textLength="228" x="540.25" y="29.5332">System Sequence Diagram (SSD)</text><rect fill="#FFFFFF" height="39.1563" style="stroke:#181818;stroke-width:1.0;" width="10" x="751.5" y="169.9219"/><rect fill="#FFFFFF" height="161.3594" style="stroke:#181818;stroke-width:1.0;" width="10" x="751.5" y="248.2344"/><rect fill="#FFFFFF" height="150.4922" style="stroke:#181818;stroke-width:1.0;" width="10" x="751.5" y="448.75"/><rect fill="#FFFFFF" height="48.1563" style="stroke:#181818;stroke-width:1.0;" width="10" x="751.5" y="645.3984"/><rect fill="none" height="70.1797" style="stroke:#000000;stroke-width:1.5;" width="799.5" x="10" y="263.2344"/><rect fill="none" height="109.3359" style="stroke:#000000;stroke-width:1.5;" width="799.5" x="10" y="347.4141"/><rect fill="none" height="136.4922" style="stroke:#000000;stroke-width:1.5;" width="799.5" x="10" y="470.75"/><line style="stroke:#181818;stroke-width:0.5;stroke-dasharray:5.0,5.0;" x1="47" x2="47" y1="128.7656" y2="702.5547"/><line style="stroke:#181818;stroke-width:0.5;stroke-dasharray:5.0,5.0;" x1="756.5" x2="756.5" y1="128.7656" y2="702.5547"/><text fill="#000000" font-family="sans-serif" font-size="20" lengthAdjust="spacing" textLength="49" x="20" y="124.3711">Client</text><ellipse cx="47.5" cy="52.1094" fill="#90EE90" rx="8" ry="8" style="stroke:#181818;stroke-width:0.5;"/><path d="M47.5,60.1094 L47.5,87.1094 M34.5,68.1094 L60.5,68.1094 M47.5,87.1094 L34.5,102.1094 M47.5,87.1094 L60.5,102.1094 " fill="none" style="stroke:#181818;stroke-width:0.5;"/><text fill="#000000" font-family="sans-serif" font-size="20" lengthAdjust="spacing" textLength="49" x="20" y="722.3164">Client</text><ellipse cx="47.5" cy="735.2109" fill="#90EE90" rx="8" ry="8" style="stroke:#181818;stroke-width:0.5;"/><path d="M47.5,743.2109 L47.5,770.2109 M34.5,751.2109 L60.5,751.2109 M47.5,770.2109 L34.5,785.2109 M47.5,770.2109 L60.5,785.2109 " fill="none" style="stroke:#181818;stroke-width:0.5;"/><rect fill="#E2E2F0" height="39.1563" rx="2.5" ry="2.5" style="stroke:#181818;stroke-width:0.5;" width="86" x="713.5" y="88.6094"/><text fill="#000000" font-family="sans-serif" font-size="20" lengthAdjust="spacing" textLength="72" x="720.5" y="116.3711">:System</text><rect fill="#E2E2F0" height="39.1563" rx="2.5" ry="2.5" style="stroke:#181818;stroke-width:0.5;" width="86" x="713.5" y="701.5547"/><text fill="#000000" font-family="sans-serif" font-size="20" lengthAdjust="spacing" textLength="72" x="720.5" y="729.3164">:System</text><rect fill="#FFFFFF" height="39.1563" style="stroke:#181818;stroke-width:1.0;" width="10" x="751.5" y="169.9219"/><rect fill="#FFFFFF" height="161.3594" style="stroke:#181818;stroke-width:1.0;" width="10" x="751.5" y="248.2344"/><rect fill="#FFFFFF" height="150.4922" style="stroke:#181818;stroke-width:1.0;" width="10" x="751.5" y="448.75"/><rect fill="#FFFFFF" height="48.1563" style="stroke:#181818;stroke-width:1.0;" width="10" x="751.5" y="645.3984"/><polygon fill="#181818" points="739.5,165.9219,749.5,169.9219,739.5,173.9219,743.5,169.9219" style="stroke:#181818;stroke-width:1.0;"/><line style="stroke:#181818;stroke-width:1.0;" x1="47.5" x2="745.5" y1="169.9219" y2="169.9219"/><text fill="#000000" font-family="sans-serif" font-size="20" font-weight="bold" lengthAdjust="spacing" textLength="11" x="54.5" y="163.5273">1</text><text fill="#000000" font-family="sans-serif" font-size="20" lengthAdjust="spacing" textLength="247" x="69.5" y="163.5273">asks to purchase a property</text><polygon fill="#181818" points="58.5,205.0781,48.5,209.0781,58.5,213.0781,54.5,209.0781" style="stroke:#181818;stroke-width:1.0;"/><line style="stroke:#181818;stroke-width:1.0;stroke-dasharray:2.0,2.0;" x1="52.5" x2="755.5" y1="209.0781" y2="209.0781"/><text fill="#000000" font-family="sans-serif" font-size="20" font-weight="bold" lengthAdjust="spacing" textLength="11" x="64.5" y="202.6836">2</text><text fill="#000000" font-family="sans-serif" font-size="20" lengthAdjust="spacing" textLength="417" x="79.5" y="202.6836">shows all announcements and ask to select one</text><polygon fill="#181818" points="739.5,244.2344,749.5,248.2344,739.5,252.2344,743.5,248.2344" style="stroke:#181818;stroke-width:1.0;"/><line style="stroke:#181818;stroke-width:1.0;" x1="47.5" x2="745.5" y1="248.2344" y2="248.2344"/><text fill="#000000" font-family="sans-serif" font-size="20" font-weight="bold" lengthAdjust="spacing" textLength="11" x="54.5" y="241.8398">3</text><text fill="#000000" font-family="sans-serif" font-size="20" lengthAdjust="spacing" textLength="221" x="69.5" y="241.8398">selects an announcement</text><path d="M10,263.2344 L86,263.2344 L86,280.3906 L76,290.3906 L10,290.3906 L10,263.2344 " fill="#EEEEEE" style="stroke:#000000;stroke-width:1.5;"/><rect fill="none" height="70.1797" style="stroke:#000000;stroke-width:1.5;" width="799.5" x="10" y="263.2344"/><text fill="#008000" font-family="sans-serif" font-size="20" font-weight="bold" lengthAdjust="spacing" textLength="31" x="25" y="284.9961">opt</text><text fill="#0000FF" font-family="sans-serif" font-size="15" font-weight="bold" lengthAdjust="spacing" textLength="189" x="101" y="280.8057">[if there is a pending offer]</text><polygon fill="#181818" points="58.5,321.4141,48.5,325.4141,58.5,329.4141,54.5,325.4141" style="stroke:#181818;stroke-width:1.0;"/><line style="stroke:#181818;stroke-width:1.0;stroke-dasharray:2.0,2.0;" x1="52.5" x2="750.5" y1="325.4141" y2="325.4141"/><text fill="#000000" font-family="sans-serif" font-size="20" font-weight="bold" lengthAdjust="spacing" textLength="11" x="64.5" y="319.0195">4</text><text fill="#000000" font-family="sans-serif" font-size="20" lengthAdjust="spacing" textLength="665" x="79.5" y="319.0195">asks the user to wait until the pending request is either accepted or rejected</text><path d="M10,347.4141 L96,347.4141 L96,364.5703 L86,374.5703 L10,374.5703 L10,347.4141 " fill="#EEEEEE" style="stroke:#000000;stroke-width:1.5;"/><rect fill="none" height="109.3359" style="stroke:#000000;stroke-width:1.5;" width="799.5" x="10" y="347.4141"/><text fill="#008000" font-family="sans-serif" font-size="20" font-weight="bold" lengthAdjust="spacing" textLength="41" x="25" y="369.1758">loop</text><text fill="#0000FF" font-family="sans-serif" font-size="15" font-weight="bold" lengthAdjust="spacing" textLength="314" x="111" y="364.9854">[While  requestPrice &lt;= advertisementPrice]</text><path d="M814.5,352.4141 L814.5,512.4141 L1294.5,512.4141 L1294.5,362.4141 L1284.5,352.4141 L814.5,352.4141 " fill="#FEFFDD" style="stroke:#181818;stroke-width:0.5;"/><path d="M1284.5,352.4141 L1284.5,362.4141 L1294.5,362.4141 L1284.5,352.4141 " fill="#FEFFDD" style="stroke:#181818;stroke-width:0.5;"/><text fill="#000000" font-family="sans-serif" font-size="20" lengthAdjust="spacing" textLength="416" x="820.5" y="378.1758">-&gt; the request price, need to be lower or equal,</text><text fill="#000000" font-family="sans-serif" font-size="20" lengthAdjust="spacing" textLength="228" x="838.5" y="403.332">to the advertisement price</text><text fill="#000000" font-family="sans-serif" font-size="20" lengthAdjust="spacing" textLength="6" x="820.5" y="428.4883"> </text><text fill="#000000" font-family="sans-serif" font-size="20" lengthAdjust="spacing" textLength="434" x="820.5" y="453.6445">-&gt; if the requested price has already been posted</text><text fill="#000000" font-family="sans-serif" font-size="20" lengthAdjust="spacing" textLength="432" x="838.5" y="478.8008">by other user, the system must state that and the</text><text fill="#000000" font-family="sans-serif" font-size="20" lengthAdjust="spacing" textLength="441" x="838.5" y="503.957">order placed previously should be considered first.</text><polygon fill="#181818" points="58.5,405.5938,48.5,409.5938,58.5,413.5938,54.5,409.5938" style="stroke:#181818;stroke-width:1.0;"/><line style="stroke:#181818;stroke-width:1.0;stroke-dasharray:2.0,2.0;" x1="52.5" x2="755.5" y1="409.5938" y2="409.5938"/><text fill="#000000" font-family="sans-serif" font-size="20" font-weight="bold" lengthAdjust="spacing" textLength="11" x="64.5" y="403.1992">5</text><text fill="#000000" font-family="sans-serif" font-size="20" lengthAdjust="spacing" textLength="158" x="79.5" y="403.1992">requests the price</text><polygon fill="#181818" points="739.5,444.75,749.5,448.75,739.5,452.75,743.5,448.75" style="stroke:#181818;stroke-width:1.0;"/><line style="stroke:#181818;stroke-width:1.0;" x1="47.5" x2="745.5" y1="448.75" y2="448.75"/><text fill="#000000" font-family="sans-serif" font-size="20" font-weight="bold" lengthAdjust="spacing" textLength="11" x="54.5" y="442.3555">6</text><text fill="#000000" font-family="sans-serif" font-size="20" lengthAdjust="spacing" textLength="93" x="69.5" y="442.3555">types data</text><path d="M10,470.75 L78,470.75 L78,487.9063 L68,497.9063 L10,497.9063 L10,470.75 " fill="#EEEEEE" style="stroke:#000000;stroke-width:1.5;"/><rect fill="none" height="136.4922" style="stroke:#000000;stroke-width:1.5;" width="799.5" x="10" y="470.75"/><text fill="#008000" font-family="sans-serif" font-size="20" font-weight="bold" lengthAdjust="spacing" textLength="23" x="25" y="492.5117">alt</text><text fill="#0000FF" font-family="sans-serif" font-size="15" font-weight="bold" lengthAdjust="spacing" textLength="266" x="93" y="488.3213">[if requestPrice = other requestPrice]</text><polygon fill="#181818" points="58.5,554.0859,48.5,558.0859,58.5,562.0859,54.5,558.0859" style="stroke:#181818;stroke-width:1.0;"/><line style="stroke:#181818;stroke-width:1.0;stroke-dasharray:2.0,2.0;" x1="52.5" x2="750.5" y1="558.0859" y2="558.0859"/><text fill="#000000" font-family="sans-serif" font-size="20" font-weight="bold" lengthAdjust="spacing" textLength="28" x="64.5" y="539.1133">6.1</text><text fill="#000000" font-family="sans-serif" font-size="20" lengthAdjust="spacing" textLength="404" x="96.5" y="526.5352">displays that there is already an order request</text><text fill="#000000" font-family="sans-serif" font-size="20" lengthAdjust="spacing" textLength="403" x="102.5" y="551.6914">with the same price and requests confirmation</text><line style="stroke:#000000;stroke-width:1.0;stroke-dasharray:2.0,2.0;" x1="10" x2="809.5" y1="567.0859" y2="567.0859"/><polygon fill="#181818" points="58.5,595.2422,48.5,599.2422,58.5,603.2422,54.5,599.2422" style="stroke:#181818;stroke-width:1.0;"/><line style="stroke:#181818;stroke-width:1.0;stroke-dasharray:2.0,2.0;" x1="52.5" x2="755.5" y1="599.2422" y2="599.2422"/><text fill="#000000" font-family="sans-serif" font-size="20" font-weight="bold" lengthAdjust="spacing" textLength="28" x="64.5" y="592.8477">6.2</text><text fill="#000000" font-family="sans-serif" font-size="20" lengthAdjust="spacing" textLength="348" x="96.5" y="592.8477">shows all data and requests cofirmation</text><polygon fill="#181818" points="739.5,641.3984,749.5,645.3984,739.5,649.3984,743.5,645.3984" style="stroke:#181818;stroke-width:1.0;"/><line style="stroke:#181818;stroke-width:1.0;" x1="47.5" x2="745.5" y1="645.3984" y2="645.3984"/><text fill="#000000" font-family="sans-serif" font-size="20" font-weight="bold" lengthAdjust="spacing" textLength="11" x="54.5" y="639.0039">7</text><text fill="#000000" font-family="sans-serif" font-size="20" lengthAdjust="spacing" textLength="152" x="69.5" y="639.0039">confirms the data</text><polygon fill="#181818" points="58.5,680.5547,48.5,684.5547,58.5,688.5547,54.5,684.5547" style="stroke:#181818;stroke-width:1.0;"/><line style="stroke:#181818;stroke-width:1.0;stroke-dasharray:2.0,2.0;" x1="52.5" x2="750.5" y1="684.5547" y2="684.5547"/><text fill="#000000" font-family="sans-serif" font-size="20" font-weight="bold" lengthAdjust="spacing" textLength="11" x="64.5" y="678.1602">8</text><text fill="#000000" font-family="sans-serif" font-size="20" lengthAdjust="spacing" textLength="219" x="79.5" y="678.1602">informs operation sucess</text><!--SRC=[XLJ1RXCn4BtlLupAeI2r5KK2f8eYeLOj1oeXvS25YxEUpPfuxSKUDonVpuozkqrWGtD9Oiyyl_Vynd5hNA-2wgoljwX1OwEIfJllQ6L-8xnvNSMf13hlVDq6to4qoaRSs-fLlLKRND5W4GBMfDp6xXV4Lcc_CsupjbPaY4jNGoJiO8K_4xeQuTQeZPI_NArkNrNLATmPhee3MMxb_yhI_Ey9V6g_3pxrdr5f3ABWnbiVO1CGtR7YfxArJVY_gcp7vTlgzC5epPm8Vp4LrYjKJlU4ZeqF62CxyicQZOCQ7M5ujamRiSvuLwb4tgLkpKsLgedvdTnOmoWde2AKd_3YYzcqT9_rCIgPslIArq-kYgsvjloiAk3Fs7V-SVBzYYks4SX3dqBTgeYWe0- -nq13Rk73pQEYwQRosjXypZWZuXNVhzz5KDQ2SiudLjRn1gyuBMV84H4jgmFlCADeNC9Ue5Zw1Ee06uxoyps1QO1Q30WcYYHqMhBdcqOSXV6p9AGOqYAaY45exvGXI8wCpSiJL90BZ2JuQEGefb9ZJpn4V5i1Vp1drEKiRidVrliUlhKIwQd_Qp0S-m_NeFGZcsvYrfPN_yzpx2zS-rm_bV_hxBorO2yDFKRGYjHSjMJgfC5vNWyIl5BEKC9WiYCpEGE7x0ERjqOMlMDps1EkKFPiFeHtfV50zoXaHYwtE84pPDu73Yf7BV2W3tm2EkYzxCxGwm5ylXAvmxCC4OlSBaMPMj56hQ8SJzcUMttWnmDwg-fy6ZuQdw8T9D_9Qj5JUnSD5_5-OqAaYycUR4q9vJozyExYiYpPdCc3MxyUMUulLaSdJ9l8j8POY3-5U_I1fwDm7z6-EzXnBejurOqPoOBdwB0Kbj2f_EJ8kKMAlC_Fpxaavc-uGxJb2P-2j6VI-sEZFn8i8PyZkfZk9RB6DLwwvJtBj22ccX_Sgle3]--></g></svg>