<?xml version="1.0" encoding="UTF-8" standalone="no"?><svg xmlns="http://www.w3.org/2000/svg" xmlns:xlink="http://www.w3.org/1999/xlink" contentStyleType="text/css" height="556px" preserveAspectRatio="none" style="width:453px;height:556px;background:#FFFFFF;" version="1.1" viewBox="0 0 453 556" width="453px" zoomAndPan="magnify"><defs/><g><text fill="#000000" font-family="sans-serif" font-size="14" font-weight="bold" lengthAdjust="spacing" textLength="35" x="202.25" y="24.5332">US03</text><!--class SA--><g id="elem_SA"><rect codeLine="16" fill="#F1F1F1" height="43.1563" id="SA" rx="2.5" ry="2.5" style="stroke:#181818;stroke-width:0.5;" width="194" x="20.5" y="133.6094"/><text fill="#000000" font-family="sans-serif" font-size="20" lengthAdjust="spacing" textLength="188" x="23.5" y="159.3711">System Administrator</text><line style="stroke:#181818;stroke-width:0.5;" x1="21.5" x2="213.5" y1="168.7656" y2="168.7656"/></g><!--class Employee--><g id="elem_Employee"><rect codeLine="20" fill="#F1F1F1" height="68.3125" id="Employee" rx="2.5" ry="2.5" style="stroke:#181818;stroke-width:0.5;" width="177" x="145" y="351.6094"/><text fill="#000000" font-family="sans-serif" font-size="20" lengthAdjust="spacing" textLength="87" x="190" y="377.3711">Employee</text><line style="stroke:#181818;stroke-width:0.5;" x1="146" x2="321" y1="386.7656" y2="386.7656"/><text fill="#000000" font-family="sans-serif" font-size="20" lengthAdjust="spacing" textLength="165" x="151" y="411.5273">agencyDesignation</text></g><!--class User--><g id="elem_User"><rect codeLine="25" fill="#F1F1F1" height="219.25" id="User" rx="2.5" ry="2.5" style="stroke:#181818;stroke-width:0.5;" width="184" x="262.5" y="45.6094"/><text fill="#000000" font-family="sans-serif" font-size="20" lengthAdjust="spacing" textLength="41" x="334" y="71.3711">User</text><line style="stroke:#181818;stroke-width:0.5;" x1="263.5" x2="445.5" y1="80.7656" y2="80.7656"/><text fill="#000000" font-family="sans-serif" font-size="20" lengthAdjust="spacing" textLength="55" x="268.5" y="105.5273">-name</text><text fill="#000000" font-family="sans-serif" font-size="20" lengthAdjust="spacing" textLength="172" x="268.5" y="130.6836">-citizenCardNumber</text><text fill="#000000" font-family="sans-serif" font-size="20" lengthAdjust="spacing" textLength="101" x="268.5" y="155.8398">-taxNumber</text><text fill="#000000" font-family="sans-serif" font-size="20" lengthAdjust="spacing" textLength="78" x="268.5" y="180.9961">-address</text><text fill="#000000" font-family="sans-serif" font-size="20" lengthAdjust="spacing" textLength="53" x="268.5" y="206.1523">-email</text><text fill="#000000" font-family="sans-serif" font-size="20" lengthAdjust="spacing" textLength="128" x="268.5" y="231.3086">-phoneNumber</text><text fill="#000000" font-family="sans-serif" font-size="20" lengthAdjust="spacing" textLength="93" x="268.5" y="256.4648">-password</text></g><!--class NM--><g id="elem_NM"><rect codeLine="35" fill="#F1F1F1" height="43.1563" id="NM" rx="2.5" ry="2.5" style="stroke:#181818;stroke-width:0.5;" width="163" x="7" y="506.6094"/><text fill="#000000" font-family="sans-serif" font-size="20" lengthAdjust="spacing" textLength="157" x="10" y="532.3711">Network Manager</text><line style="stroke:#181818;stroke-width:0.5;" x1="8" x2="169" y1="541.7656" y2="541.7656"/></g><!--class Agent--><g id="elem_Agent"><rect codeLine="38" fill="#F1F1F1" height="43.1563" id="Agent" rx="2.5" ry="2.5" style="stroke:#181818;stroke-width:0.5;" width="57" x="205" y="506.6094"/><text fill="#000000" font-family="sans-serif" font-size="20" lengthAdjust="spacing" textLength="51" x="208" y="532.3711">Agent</text><line style="stroke:#181818;stroke-width:0.5;" x1="206" x2="261" y1="541.7656" y2="541.7656"/></g><!--class SM--><g id="elem_SM"><rect codeLine="41" fill="#F1F1F1" height="43.1563" id="SM" rx="2.5" ry="2.5" style="stroke:#181818;stroke-width:0.5;" width="138" x="297.5" y="506.6094"/><text fill="#000000" font-family="sans-serif" font-size="20" lengthAdjust="spacing" textLength="132" x="300.5" y="532.3711">Store Manager</text><line style="stroke:#181818;stroke-width:0.5;" x1="298.5" x2="434.5" y1="541.7656" y2="541.7656"/></g><!--link SA to Employee--><g id="link_SA_Employee"><path codeLine="45" d="M107.92,176.8194 C94.05,210.1294 73.01,276.4394 101.5,321.6094 C111.8,337.9294 127.61,350.1194 144.76,359.1794 " fill="none" id="SA-Employee" style="stroke:#181818;stroke-width:1.0;"/><polygon fill="#000000" points="111.0841,316.0291,112.8276,300.9124,103.6092,302.7747,111.0841,316.0291" style="stroke:#000000;stroke-width:1.0;"/><text fill="#000000" font-family="sans-serif" font-size="20" lengthAdjust="spacing" textLength="67" x="122.5" y="316.3711">register</text><text fill="#000000" font-family="sans-serif" font-size="20" lengthAdjust="spacing" textLength="11" x="89.2703" y="205.4922">1</text><text fill="#000000" font-family="sans-serif" font-size="20" lengthAdjust="spacing" textLength="31" x="106.1049" y="352.0764">1..*</text></g><!--link Employee to SA--><g id="link_Employee_SA"><path codeLine="47" d="M220.01,351.3394 C212.82,334.2094 203.61,313.0894 194.5,294.6094 C173.45,251.9194 145.69,203.6794 129.9,176.8794 " fill="none" id="Employee-SA" style="stroke:#181818;stroke-width:1.0;"/><polygon fill="#000000" points="210.8287,301.0796,213.2922,316.0958,221.648,311.78,210.8287,301.0796" style="stroke:#000000;stroke-width:1.0;"/><text fill="#000000" font-family="sans-serif" font-size="20" lengthAdjust="spacing" textLength="59" x="227.5" y="316.3711">can be</text><text fill="#000000" font-family="sans-serif" font-size="20" lengthAdjust="spacing" textLength="11" x="201.3929" y="339.3419">1</text><text fill="#000000" font-family="sans-serif" font-size="20" lengthAdjust="spacing" textLength="31" x="149.7394" y="205.566">1..*</text></g><!--reverse link User to Employee--><g id="link_User_Employee"><path codeLine="46" d="M315.53,283.5994 C309.6,296.8294 302.93,309.7494 295.5,321.6094 C288.9,332.1394 280.27,342.3194 271.55,351.2994 " fill="none" id="User-backto-Employee" style="stroke:#181818;stroke-width:1.0;"/><polygon fill="none" points="309.23,280.5094,323.43,264.7794,322.14,285.9294,309.23,280.5094" style="stroke:#181818;stroke-width:1.0;"/><text fill="#000000" font-family="sans-serif" font-size="20" lengthAdjust="spacing" textLength="31" x="309.5" y="316.3711">is a</text></g><!--link Employee to Agent--><g id="link_Employee_Agent"><path codeLine="48" d="M233.5,419.9094 C233.5,446.6894 233.5,483.4794 233.5,506.2494 " fill="none" id="Employee-Agent" style="stroke:#181818;stroke-width:1.0;"/><polygon fill="#000000" points="241.5,471.1875,246.2023,456.7154,236.7977,456.7154,241.5,471.1875" style="stroke:#000000;stroke-width:1.0;"/><text fill="#000000" font-family="sans-serif" font-size="20" lengthAdjust="spacing" textLength="59" x="254.5" y="471.3711">can be</text><text fill="#000000" font-family="sans-serif" font-size="20" lengthAdjust="spacing" textLength="11" x="221.5547" y="448.7014">1</text><text fill="#000000" font-family="sans-serif" font-size="20" lengthAdjust="spacing" textLength="31" x="198.9156" y="494.0653">1..*</text></g><!--link Employee to SM--><g id="link_Employee_SM"><path codeLine="49" d="M288.38,419.7494 C300.46,428.5394 312.59,438.6594 322.5,449.6094 C337.87,466.5894 350.17,489.8394 357.82,506.4294 " fill="none" id="Employee-SM" style="stroke:#181818;stroke-width:1.0;"/><polygon fill="#000000" points="353.5018,469.4311,348.1234,455.1964,340.7836,461.0763,353.5018,469.4311" style="stroke:#000000;stroke-width:1.0;"/><text fill="#000000" font-family="sans-serif" font-size="20" lengthAdjust="spacing" textLength="59" x="361.5" y="471.3711">can be</text><text fill="#000000" font-family="sans-serif" font-size="20" lengthAdjust="spacing" textLength="11" x="286.1758" y="448.8049">1</text><text fill="#000000" font-family="sans-serif" font-size="20" lengthAdjust="spacing" textLength="31" x="321.2284" y="494.287">1..*</text></g><!--link Employee to NM--><g id="link_Employee_NM"><path codeLine="50" d="M180.4,419.8894 C167.99,428.7994 155.26,438.9494 144.5,449.6094 C127.04,466.8994 111.05,490.0994 100.67,506.5994 " fill="none" id="Employee-NM" style="stroke:#181818;stroke-width:1.0;"/><polygon fill="#000000" points="147.0851,469.0764,160.3421,461.606,153.4193,455.2405,147.0851,469.0764" style="stroke:#000000;stroke-width:1.0;"/><text fill="#000000" font-family="sans-serif" font-size="20" lengthAdjust="spacing" textLength="59" x="165.5" y="471.3711">can be</text><text fill="#000000" font-family="sans-serif" font-size="20" lengthAdjust="spacing" textLength="11" x="159.3281" y="448.678">1</text><text fill="#000000" font-family="sans-serif" font-size="20" lengthAdjust="spacing" textLength="31" x="68.8583" y="494.0712">1..*</text></g><!--SRC=[ZP7BQiCm44Nt-eh1cq8X9cbteHH27z15iZ7vW8aqiKNqCDA4D7tyUoUscpYBGhKQZS_SkLVEEnjQJEXTr3ioO6YBUyUlCN1bFmZkfYh_8k1ZYBf9qHDmsjFeIujwXpLLV7G4YJHZgDqOo0sQUB2XXYswJ4hTEDeoS8HawuR1sDEKZK6DXhJ3d1VCoMxsJ6ywXixJLAd66W9javObNUs9csYoKcnPBAohwRsIqob0KHqpauU5yJROp0avfW8mGxM0JwM-Vy4Ntxfu998c04YWe8_Fb6qTiFTs9jUPKa_1109w6afjMIo69qncjVSRIaEVyVtgZiOaodcuaKVhXhfjOg0nsyg-GqpcihnO4Kjd1qiCOhAFibgAdpEo4EyyRXILPAQhYMgOKAKyGm7TcHKmcK0nAylR0ihpUypbfzRoSXBwKPLT-8Sl0SU4pO3gqXW4BvfIzAgoRGuQ0spef7QPk5xUH_YB786Iupzwgp7s0m00]--></g></svg>