<?xml version="1.0" encoding="UTF-8" standalone="no"?><svg xmlns="http://www.w3.org/2000/svg" xmlns:xlink="http://www.w3.org/1999/xlink" contentStyleType="text/css" height="1379px" preserveAspectRatio="none" style="width:1030px;height:1379px;background:#FFFFFF;" version="1.1" viewBox="0 0 1030 1379" width="1030px" zoomAndPan="magnify"><defs/><g><rect fill="#FFFFFF" height="1183.9453" style="stroke:#181818;stroke-width:1.0;" width="10" x="68" y="98.2813"/><rect fill="#FFFFFF" height="37.2813" style="stroke:#181818;stroke-width:1.0;" width="10" x="941" y="127.5625"/><rect fill="#FFFFFF" height="823.4922" style="stroke:#181818;stroke-width:1.0;" width="10" x="941" y="274.1484"/><rect fill="#FFFFFF" height="138.3047" style="stroke:#181818;stroke-width:1.0;" width="10" x="941" y="1134.9219"/><rect fill="none" height="1057.1016" style="stroke:#000000;stroke-width:1.5;" width="1013.5" x="10" y="179.8438"/><rect fill="none" height="697.6484" style="stroke:#000000;stroke-width:1.5;" width="993.5" x="20" y="289.1484"/><rect fill="none" height="196.3281" style="stroke:#000000;stroke-width:1.5;" width="973.5" x="30" y="323.8906"/><rect fill="none" height="196.3281" style="stroke:#000000;stroke-width:1.5;" width="973.5" x="30" y="553.6797"/><rect fill="none" height="196.3281" style="stroke:#000000;stroke-width:1.5;" width="973.5" x="30" y="783.4688"/><line style="stroke:#181818;stroke-width:0.5;stroke-dasharray:5.0,5.0;" x1="73" x2="73" y1="88.2813" y2="1291.2266"/><line style="stroke:#181818;stroke-width:0.5;stroke-dasharray:5.0,5.0;" x1="945.5" x2="945.5" y1="88.2813" y2="1291.2266"/><text fill="#000000" font-family="sans-serif" font-size="20" lengthAdjust="spacing" textLength="60" x="40" y="83.5645">Agent</text><ellipse cx="73" cy="13.5" fill="#E2E2F0" rx="8" ry="8" style="stroke:#181818;stroke-width:0.5;"/><path d="M73,21.5 L73,48.5 M60,29.5 L86,29.5 M73,48.5 L60,63.5 M73,48.5 L86,63.5 " fill="none" style="stroke:#181818;stroke-width:0.5;"/><text fill="#000000" font-family="sans-serif" font-size="20" lengthAdjust="spacing" textLength="60" x="40" y="1308.791">Agent</text><ellipse cx="73" cy="1322.0078" fill="#E2E2F0" rx="8" ry="8" style="stroke:#181818;stroke-width:0.5;"/><path d="M73,1330.0078 L73,1357.0078 M60,1338.0078 L86,1338.0078 M73,1357.0078 L60,1372.0078 M73,1357.0078 L86,1372.0078 " fill="none" style="stroke:#181818;stroke-width:0.5;"/><rect fill="#E2E2F0" height="37.2813" rx="2.5" ry="2.5" style="stroke:#181818;stroke-width:0.5;" width="95" x="898.5" y="50"/><text fill="#000000" font-family="sans-serif" font-size="20" lengthAdjust="spacing" textLength="81" x="905.5" y="75.5645">:System</text><rect fill="#E2E2F0" height="37.2813" rx="2.5" ry="2.5" style="stroke:#181818;stroke-width:0.5;" width="95" x="898.5" y="1290.2266"/><text fill="#000000" font-family="sans-serif" font-size="20" lengthAdjust="spacing" textLength="81" x="905.5" y="1315.791">:System</text><rect fill="#FFFFFF" height="1183.9453" style="stroke:#181818;stroke-width:1.0;" width="10" x="68" y="98.2813"/><rect fill="#FFFFFF" height="37.2813" style="stroke:#181818;stroke-width:1.0;" width="10" x="941" y="127.5625"/><rect fill="#FFFFFF" height="823.4922" style="stroke:#181818;stroke-width:1.0;" width="10" x="941" y="274.1484"/><rect fill="#FFFFFF" height="138.3047" style="stroke:#181818;stroke-width:1.0;" width="10" x="941" y="1134.9219"/><polygon fill="#181818" points="929,123.5625,939,127.5625,929,131.5625,933,127.5625" style="stroke:#181818;stroke-width:1.0;"/><line style="stroke:#181818;stroke-width:1.0;" x1="78" x2="935" y1="127.5625" y2="127.5625"/><text fill="#000000" font-family="sans-serif" font-size="20" font-weight="bold" lengthAdjust="spacing" textLength="14" x="85" y="120.8457">1</text><text fill="#000000" font-family="sans-serif" font-size="20" lengthAdjust="spacing" textLength="199" x="103" y="120.8457">asks to receive data</text><polygon fill="#181818" points="89,160.8438,79,164.8438,89,168.8438,85,164.8438" style="stroke:#181818;stroke-width:1.0;"/><line style="stroke:#181818;stroke-width:1.0;stroke-dasharray:2.0,2.0;" x1="83" x2="945" y1="164.8438" y2="164.8438"/><text fill="#000000" font-family="sans-serif" font-size="20" font-weight="bold" lengthAdjust="spacing" textLength="14" x="95" y="158.127">2</text><text fill="#000000" font-family="sans-serif" font-size="20" lengthAdjust="spacing" textLength="123" x="113" y="158.127">receive data</text><path d="M10,179.8438 L86,179.8438 L86,195.125 L76,205.125 L10,205.125 L10,179.8438 " fill="#EEEEEE" style="stroke:#000000;stroke-width:1.5;"/><rect fill="none" height="1057.1016" style="stroke:#000000;stroke-width:1.5;" width="1013.5" x="10" y="179.8438"/><text fill="#008000" font-family="sans-serif" font-size="20" font-weight="bold" lengthAdjust="spacing" textLength="31" x="25" y="199.4082">alt</text><text fill="#0000FF" font-family="sans-serif" font-size="15" font-weight="bold" lengthAdjust="spacing" textLength="70" x="101" y="195.7671">[Accept]</text><polygon fill="#181818" points="89,232.8672,79,236.8672,89,240.8672,85,236.8672" style="stroke:#181818;stroke-width:1.0;"/><line style="stroke:#181818;stroke-width:1.0;stroke-dasharray:2.0,2.0;" x1="83" x2="945" y1="236.8672" y2="236.8672"/><text fill="#000000" font-family="sans-serif" font-size="20" font-weight="bold" lengthAdjust="spacing" textLength="14" x="95" y="230.1504">3</text><text fill="#000000" font-family="sans-serif" font-size="20" lengthAdjust="spacing" textLength="826" x="113" y="230.1504">requests the property type (house,apartment,land) and business type (sell or rent)</text><polygon fill="#181818" points="929,270.1484,939,274.1484,929,278.1484,933,274.1484" style="stroke:#181818;stroke-width:1.0;"/><line style="stroke:#181818;stroke-width:1.0;" x1="78" x2="935" y1="274.1484" y2="274.1484"/><text fill="#000000" font-family="sans-serif" font-size="20" font-weight="bold" lengthAdjust="spacing" textLength="14" x="85" y="267.4316">4</text><text fill="#000000" font-family="sans-serif" font-size="20" lengthAdjust="spacing" textLength="251" x="103" y="267.4316">types the requested data</text><path d="M20,289.1484 L96,289.1484 L96,304.4297 L86,314.4297 L20,314.4297 L20,289.1484 " fill="#EEEEEE" style="stroke:#000000;stroke-width:1.5;"/><rect fill="none" height="697.6484" style="stroke:#000000;stroke-width:1.5;" width="993.5" x="20" y="289.1484"/><text fill="#008000" font-family="sans-serif" font-size="20" font-weight="bold" lengthAdjust="spacing" textLength="31" x="35" y="308.7129">alt</text><text fill="#0000FF" font-family="sans-serif" font-size="15" font-weight="bold" lengthAdjust="spacing" textLength="48" x="111" y="305.0718">[land]</text><path d="M30,323.8906 L106,323.8906 L106,339.1719 L96,349.1719 L30,349.1719 L30,323.8906 " fill="#EEEEEE" style="stroke:#000000;stroke-width:1.5;"/><rect fill="none" height="196.3281" style="stroke:#000000;stroke-width:1.5;" width="973.5" x="30" y="323.8906"/><text fill="#008000" font-family="sans-serif" font-size="20" font-weight="bold" lengthAdjust="spacing" textLength="31" x="45" y="343.4551">alt</text><text fill="#0000FF" font-family="sans-serif" font-size="15" font-weight="bold" lengthAdjust="spacing" textLength="41" x="121" y="339.814">[sell]</text><polygon fill="#181818" points="89,376.9141,79,380.9141,89,384.9141,85,380.9141" style="stroke:#181818;stroke-width:1.0;"/><line style="stroke:#181818;stroke-width:1.0;stroke-dasharray:2.0,2.0;" x1="83" x2="940" y1="380.9141" y2="380.9141"/><text fill="#000000" font-family="sans-serif" font-size="20" font-weight="bold" lengthAdjust="spacing" textLength="14" x="95" y="374.1973">5</text><text fill="#000000" font-family="sans-serif" font-size="20" lengthAdjust="spacing" textLength="317" x="113" y="374.1973">request the land characteristics</text><polygon fill="#181818" points="929,414.1953,939,418.1953,929,422.1953,933,418.1953" style="stroke:#181818;stroke-width:1.0;"/><line style="stroke:#181818;stroke-width:1.0;" x1="78" x2="935" y1="418.1953" y2="418.1953"/><text fill="#000000" font-family="sans-serif" font-size="20" font-weight="bold" lengthAdjust="spacing" textLength="14" x="85" y="411.4785">6</text><text fill="#000000" font-family="sans-serif" font-size="20" lengthAdjust="spacing" textLength="212" x="103" y="411.4785">types requested data</text><line style="stroke:#000000;stroke-width:1.0;stroke-dasharray:2.0,2.0;" x1="30" x2="1003.5" y1="427.1953" y2="427.1953"/><text fill="#0000FF" font-family="sans-serif" font-size="15" font-weight="bold" lengthAdjust="spacing" textLength="48" x="35" y="441.1187">[rent]</text><polygon fill="#181818" points="89,470.9375,79,474.9375,89,478.9375,85,474.9375" style="stroke:#181818;stroke-width:1.0;"/><line style="stroke:#181818;stroke-width:1.0;stroke-dasharray:2.0,2.0;" x1="83" x2="940" y1="474.9375" y2="474.9375"/><text fill="#000000" font-family="sans-serif" font-size="20" font-weight="bold" lengthAdjust="spacing" textLength="14" x="95" y="468.2207">5</text><text fill="#000000" font-family="sans-serif" font-size="20" lengthAdjust="spacing" textLength="580" x="113" y="468.2207">request the land characteristics and the contract duration</text><polygon fill="#181818" points="929,508.2188,939,512.2188,929,516.2188,933,512.2188" style="stroke:#181818;stroke-width:1.0;"/><line style="stroke:#181818;stroke-width:1.0;" x1="78" x2="935" y1="512.2188" y2="512.2188"/><text fill="#000000" font-family="sans-serif" font-size="20" font-weight="bold" lengthAdjust="spacing" textLength="14" x="85" y="505.502">6</text><text fill="#000000" font-family="sans-serif" font-size="20" lengthAdjust="spacing" textLength="212" x="103" y="505.502">types requested data</text><line style="stroke:#000000;stroke-width:1.0;stroke-dasharray:2.0,2.0;" x1="20" x2="1013.5" y1="528.2188" y2="528.2188"/><text fill="#0000FF" font-family="sans-serif" font-size="15" font-weight="bold" lengthAdjust="spacing" textLength="101" x="25" y="542.1421">[apartment]</text><path d="M30,553.6797 L106,553.6797 L106,568.9609 L96,578.9609 L30,578.9609 L30,553.6797 " fill="#EEEEEE" style="stroke:#000000;stroke-width:1.5;"/><rect fill="none" height="196.3281" style="stroke:#000000;stroke-width:1.5;" width="973.5" x="30" y="553.6797"/><text fill="#008000" font-family="sans-serif" font-size="20" font-weight="bold" lengthAdjust="spacing" textLength="31" x="45" y="573.2441">alt</text><text fill="#0000FF" font-family="sans-serif" font-size="15" font-weight="bold" lengthAdjust="spacing" textLength="41" x="121" y="569.603">[sell]</text><polygon fill="#181818" points="89,606.7031,79,610.7031,89,614.7031,85,610.7031" style="stroke:#181818;stroke-width:1.0;"/><line style="stroke:#181818;stroke-width:1.0;stroke-dasharray:2.0,2.0;" x1="83" x2="940" y1="610.7031" y2="610.7031"/><text fill="#000000" font-family="sans-serif" font-size="20" font-weight="bold" lengthAdjust="spacing" textLength="14" x="95" y="603.9863">5</text><text fill="#000000" font-family="sans-serif" font-size="20" lengthAdjust="spacing" textLength="379" x="113" y="603.9863">request the apartment characteristics</text><polygon fill="#181818" points="929,643.9844,939,647.9844,929,651.9844,933,647.9844" style="stroke:#181818;stroke-width:1.0;"/><line style="stroke:#181818;stroke-width:1.0;" x1="78" x2="935" y1="647.9844" y2="647.9844"/><text fill="#000000" font-family="sans-serif" font-size="20" font-weight="bold" lengthAdjust="spacing" textLength="14" x="85" y="641.2676">6</text><text fill="#000000" font-family="sans-serif" font-size="20" lengthAdjust="spacing" textLength="212" x="103" y="641.2676">types requested data</text><line style="stroke:#000000;stroke-width:1.0;stroke-dasharray:2.0,2.0;" x1="30" x2="1003.5" y1="656.9844" y2="656.9844"/><text fill="#0000FF" font-family="sans-serif" font-size="15" font-weight="bold" lengthAdjust="spacing" textLength="48" x="35" y="670.9077">[rent]</text><polygon fill="#181818" points="89,700.7266,79,704.7266,89,708.7266,85,704.7266" style="stroke:#181818;stroke-width:1.0;"/><line style="stroke:#181818;stroke-width:1.0;stroke-dasharray:2.0,2.0;" x1="83" x2="940" y1="704.7266" y2="704.7266"/><text fill="#000000" font-family="sans-serif" font-size="20" font-weight="bold" lengthAdjust="spacing" textLength="14" x="95" y="698.0098">5</text><text fill="#000000" font-family="sans-serif" font-size="20" lengthAdjust="spacing" textLength="642" x="113" y="698.0098">request the apartment characteristics and the contract duration</text><polygon fill="#181818" points="929,738.0078,939,742.0078,929,746.0078,933,742.0078" style="stroke:#181818;stroke-width:1.0;"/><line style="stroke:#181818;stroke-width:1.0;" x1="78" x2="935" y1="742.0078" y2="742.0078"/><text fill="#000000" font-family="sans-serif" font-size="20" font-weight="bold" lengthAdjust="spacing" textLength="14" x="85" y="735.291">6</text><text fill="#000000" font-family="sans-serif" font-size="20" lengthAdjust="spacing" textLength="212" x="103" y="735.291">types requested data</text><line style="stroke:#000000;stroke-width:1.0;stroke-dasharray:2.0,2.0;" x1="20" x2="1013.5" y1="758.0078" y2="758.0078"/><text fill="#0000FF" font-family="sans-serif" font-size="15" font-weight="bold" lengthAdjust="spacing" textLength="63" x="25" y="771.9312">[house]</text><path d="M30,783.4688 L106,783.4688 L106,798.75 L96,808.75 L30,808.75 L30,783.4688 " fill="#EEEEEE" style="stroke:#000000;stroke-width:1.5;"/><rect fill="none" height="196.3281" style="stroke:#000000;stroke-width:1.5;" width="973.5" x="30" y="783.4688"/><text fill="#008000" font-family="sans-serif" font-size="20" font-weight="bold" lengthAdjust="spacing" textLength="31" x="45" y="803.0332">alt</text><text fill="#0000FF" font-family="sans-serif" font-size="15" font-weight="bold" lengthAdjust="spacing" textLength="41" x="121" y="799.3921">[sell]</text><polygon fill="#181818" points="89,836.4922,79,840.4922,89,844.4922,85,840.4922" style="stroke:#181818;stroke-width:1.0;"/><line style="stroke:#181818;stroke-width:1.0;stroke-dasharray:2.0,2.0;" x1="83" x2="940" y1="840.4922" y2="840.4922"/><text fill="#000000" font-family="sans-serif" font-size="20" font-weight="bold" lengthAdjust="spacing" textLength="14" x="95" y="833.7754">5</text><text fill="#000000" font-family="sans-serif" font-size="20" lengthAdjust="spacing" textLength="333" x="113" y="833.7754">request the house characteristics</text><polygon fill="#181818" points="929,873.7734,939,877.7734,929,881.7734,933,877.7734" style="stroke:#181818;stroke-width:1.0;"/><line style="stroke:#181818;stroke-width:1.0;" x1="78" x2="935" y1="877.7734" y2="877.7734"/><text fill="#000000" font-family="sans-serif" font-size="20" font-weight="bold" lengthAdjust="spacing" textLength="14" x="85" y="871.0566">6</text><text fill="#000000" font-family="sans-serif" font-size="20" lengthAdjust="spacing" textLength="212" x="103" y="871.0566">types requested data</text><line style="stroke:#000000;stroke-width:1.0;stroke-dasharray:2.0,2.0;" x1="30" x2="1003.5" y1="886.7734" y2="886.7734"/><text fill="#0000FF" font-family="sans-serif" font-size="15" font-weight="bold" lengthAdjust="spacing" textLength="48" x="35" y="900.6968">[rent]</text><polygon fill="#181818" points="89,930.5156,79,934.5156,89,938.5156,85,934.5156" style="stroke:#181818;stroke-width:1.0;"/><line style="stroke:#181818;stroke-width:1.0;stroke-dasharray:2.0,2.0;" x1="83" x2="940" y1="934.5156" y2="934.5156"/><text fill="#000000" font-family="sans-serif" font-size="20" font-weight="bold" lengthAdjust="spacing" textLength="14" x="95" y="927.7988">5</text><text fill="#000000" font-family="sans-serif" font-size="20" lengthAdjust="spacing" textLength="596" x="113" y="927.7988">request the house characteristics and the contract duration</text><polygon fill="#181818" points="929,967.7969,939,971.7969,929,975.7969,933,971.7969" style="stroke:#181818;stroke-width:1.0;"/><line style="stroke:#181818;stroke-width:1.0;" x1="78" x2="935" y1="971.7969" y2="971.7969"/><text fill="#000000" font-family="sans-serif" font-size="20" font-weight="bold" lengthAdjust="spacing" textLength="14" x="85" y="965.0801">6</text><text fill="#000000" font-family="sans-serif" font-size="20" lengthAdjust="spacing" textLength="212" x="103" y="965.0801">types requested data</text><polygon fill="#181818" points="89,1019.0781,79,1023.0781,89,1027.0781,85,1023.0781" style="stroke:#181818;stroke-width:1.0;"/><line style="stroke:#181818;stroke-width:1.0;stroke-dasharray:2.0,2.0;" x1="83" x2="940" y1="1023.0781" y2="1023.0781"/><text fill="#000000" font-family="sans-serif" font-size="20" font-weight="bold" lengthAdjust="spacing" textLength="14" x="95" y="1016.3613">7</text><text fill="#000000" font-family="sans-serif" font-size="20" lengthAdjust="spacing" textLength="241" x="113" y="1016.3613">request the commission</text><polygon fill="#181818" points="929,1056.3594,939,1060.3594,929,1064.3594,933,1060.3594" style="stroke:#181818;stroke-width:1.0;"/><line style="stroke:#181818;stroke-width:1.0;" x1="78" x2="935" y1="1060.3594" y2="1060.3594"/><text fill="#000000" font-family="sans-serif" font-size="20" font-weight="bold" lengthAdjust="spacing" textLength="14" x="85" y="1053.6426">8</text><text fill="#000000" font-family="sans-serif" font-size="20" lengthAdjust="spacing" textLength="212" x="103" y="1053.6426">types requested data</text><polygon fill="#181818" points="89,1093.6406,79,1097.6406,89,1101.6406,85,1097.6406" style="stroke:#181818;stroke-width:1.0;"/><line style="stroke:#181818;stroke-width:1.0;stroke-dasharray:2.0,2.0;" x1="83" x2="945" y1="1097.6406" y2="1097.6406"/><text fill="#000000" font-family="sans-serif" font-size="20" font-weight="bold" lengthAdjust="spacing" textLength="14" x="95" y="1090.9238">9</text><text fill="#000000" font-family="sans-serif" font-size="20" lengthAdjust="spacing" textLength="370" x="113" y="1090.9238">shows the data and ask confirmation</text><polygon fill="#181818" points="929,1130.9219,939,1134.9219,929,1138.9219,933,1134.9219" style="stroke:#181818;stroke-width:1.0;"/><line style="stroke:#181818;stroke-width:1.0;" x1="78" x2="935" y1="1134.9219" y2="1134.9219"/><text fill="#000000" font-family="sans-serif" font-size="20" font-weight="bold" lengthAdjust="spacing" textLength="28" x="85" y="1128.2051">10</text><text fill="#000000" font-family="sans-serif" font-size="20" lengthAdjust="spacing" textLength="177" x="117" y="1128.2051">confirms the data</text><line style="stroke:#000000;stroke-width:1.0;stroke-dasharray:2.0,2.0;" x1="10" x2="1023.5" y1="1143.9219" y2="1143.9219"/><text fill="#0000FF" font-family="sans-serif" font-size="15" font-weight="bold" lengthAdjust="spacing" textLength="70" x="15" y="1157.8452">[Denied]</text><polygon fill="#181818" points="929,1187.6641,939,1191.6641,929,1195.6641,933,1191.6641" style="stroke:#181818;stroke-width:1.0;"/><line style="stroke:#181818;stroke-width:1.0;" x1="78" x2="935" y1="1191.6641" y2="1191.6641"/><text fill="#000000" font-family="sans-serif" font-size="20" font-weight="bold" lengthAdjust="spacing" textLength="14" x="85" y="1184.9473">5</text><text fill="#000000" font-family="sans-serif" font-size="20" lengthAdjust="spacing" textLength="254" x="103" y="1184.9473">reject the requested data</text><polygon fill="#181818" points="929,1224.9453,939,1228.9453,929,1232.9453,933,1228.9453" style="stroke:#181818;stroke-width:1.0;"/><line style="stroke:#181818;stroke-width:1.0;" x1="78" x2="935" y1="1228.9453" y2="1228.9453"/><text fill="#000000" font-family="sans-serif" font-size="20" font-weight="bold" lengthAdjust="spacing" textLength="14" x="85" y="1222.2285">6</text><text fill="#000000" font-family="sans-serif" font-size="20" lengthAdjust="spacing" textLength="177" x="103" y="1222.2285">confirms the data</text><polygon fill="#181818" points="89,1269.2266,79,1273.2266,89,1277.2266,85,1273.2266" style="stroke:#181818;stroke-width:1.0;"/><line style="stroke:#181818;stroke-width:1.0;stroke-dasharray:2.0,2.0;" x1="83" x2="945" y1="1273.2266" y2="1273.2266"/><text fill="#000000" font-family="sans-serif" font-size="20" font-weight="bold" lengthAdjust="spacing" textLength="28" x="95" y="1266.5098">11</text><text fill="#000000" font-family="sans-serif" font-size="20" lengthAdjust="spacing" textLength="268" x="127" y="1266.5098">Displays operation success</text><!--SRC=[pLLDQnin4BthLmo-R0C9r8LGoA6mDAIz10h-1R8qjXLhfQr6czRzzHrfFsp7QxkXTUWUZ5UQD_FcFMc7riRLCiZAUhL63HeNih7nmRiuCxyGFhmNXRGHA6wiSKj1VJpCy7k3Jk6Nu9lwAqgD8Q4-U-i3B0EYEnQy3PlR1az5PGhJMr4y6gqjGiIVMoh55aWTy169v19BQvOE5Bg8uMoODW5LDDu9sKJlcchE825LP7wJSib99Y09IY4uIJJArD95cDpDDXInodljtmmopp9Y2eRkAU7cKnS0Tnoy9eWUk2IQPmGjeyoX0xJFrUCxw0rdAJd10L3ZABGm2nQALojkeAt0BfPAOHsFvsPvA3B15K8TV8qXRY1kQeHtAzyGNiiaGSfuRQNJLy0_C6_8E1Qq2oIq5bYwm55NfnWUYfCIjCKx9kaydXKezPNO30lzOcAojvWt1e_Xzc2pJSroxAYH-QJye5PyY1GVAKDy34WSmCUw6UcaVz0IPfakI38xb3OLtwQq0Re9Cf_slwRFaekzNeRJSKahXYB_n8-B6dAKwfkwac_k9Ht91Vv_DqPflfaJkoyx_3-AixoLhof3j4VfDLg- -CZJolzeFx8fBFVFGodrlp2XQblleN_yvUxGsxpRNiSIP6llqHdKugIf-rK2Fl6a7XiGhw8rU54y62SjVEDRAbvGc4x5Y7RtXcehDmHfD6QfW1eUgKJZW-ut]--></g></svg>