<?xml version="1.0" encoding="UTF-8" standalone="no"?><svg xmlns="http://www.w3.org/2000/svg" xmlns:xlink="http://www.w3.org/1999/xlink" contentStyleType="text/css" height="1209px" preserveAspectRatio="none" style="width:2008px;height:1209px;background:#FFFFFF;" version="1.1" viewBox="0 0 2008 1209" width="2008px" zoomAndPan="magnify"><defs/><g><rect fill="#FFFFFF" height="1001.9063" style="stroke:#181818;stroke-width:1.0;" width="10" x="79.5" y="100.1563"/><rect fill="#FFFFFF" height="206.7813" style="stroke:#181818;stroke-width:1.0;" width="10" x="625.5" y="131.3125"/><rect fill="#FFFFFF" height="39.1563" style="stroke:#181818;stroke-width:1.0;" width="10" x="625.5" y="377.25"/><rect fill="#FFFFFF" height="89.4688" style="stroke:#181818;stroke-width:1.0;" width="10" x="625.5" y="480.7188"/><rect fill="#FFFFFF" height="492.7188" style="stroke:#181818;stroke-width:1.0;" width="10" x="625.5" y="609.3438"/><rect fill="#FFFFFF" height="157.625" style="stroke:#181818;stroke-width:1.0;" width="10" x="1293.5" y="180.4688"/><rect fill="#FFFFFF" height="39.1563" style="stroke:#181818;stroke-width:1.0;" width="10" x="1482" y="220.625"/><rect fill="#FFFFFF" height="39.1563" style="stroke:#181818;stroke-width:1.0;" width="10" x="1622" y="298.9375"/><rect fill="#FFFFFF" height="373.0938" style="stroke:#181818;stroke-width:1.0;" width="10" x="1789" y="737.9688"/><rect fill="#FFFFFF" height="28" style="stroke:#181818;stroke-width:1.0;" width="10" x="1794" y="819.2813"/><rect fill="#FFFFFF" height="28" style="stroke:#181818;stroke-width:1.0;" width="10" x="1794" y="942.5938"/><rect fill="none" height="109.3125" style="stroke:#000000;stroke-width:1.5;" width="306" x="1692" y="752.9688"/><rect fill="none" height="109.3125" style="stroke:#000000;stroke-width:1.5;" width="310" x="1692" y="876.2813"/><line style="stroke:#181818;stroke-width:0.5;stroke-dasharray:5.0,5.0;" x1="84" x2="84" y1="90.1563" y2="1120.0625"/><line style="stroke:#181818;stroke-width:0.5;stroke-dasharray:5.0,5.0;" x1="630" x2="630" y1="90.1563" y2="1120.0625"/><line style="stroke:#181818;stroke-width:0.5;stroke-dasharray:5.0,5.0;" x1="1298" x2="1298" y1="174.3906" y2="1120.0625"/><line style="stroke:#181818;stroke-width:0.5;stroke-dasharray:5.0,5.0;" x1="1487" x2="1487" y1="90.1563" y2="1120.0625"/><line style="stroke:#181818;stroke-width:0.5;stroke-dasharray:5.0,5.0;" x1="1627" x2="1627" y1="90.1563" y2="1120.0625"/><line style="stroke:#181818;stroke-width:0.5;stroke-dasharray:5.0,5.0;" x1="1794" x2="1794" y1="90.1563" y2="1120.0625"/><text fill="#000000" font-family="sans-serif" font-size="20" lengthAdjust="spacing" textLength="153" x="5" y="85.7617">UnregisteredUser</text><ellipse cx="84.5" cy="13.5" fill="#E3E3E3" rx="8" ry="8" style="stroke:#181818;stroke-width:0.5;"/><path d="M84.5,21.5 L84.5,48.5 M71.5,29.5 L97.5,29.5 M84.5,48.5 L71.5,63.5 M84.5,48.5 L97.5,63.5 " fill="none" style="stroke:#181818;stroke-width:0.5;"/><text fill="#000000" font-family="sans-serif" font-size="20" lengthAdjust="spacing" textLength="153" x="5" y="1139.8242">UnregisteredUser</text><ellipse cx="84.5" cy="1152.7188" fill="#E3E3E3" rx="8" ry="8" style="stroke:#181818;stroke-width:0.5;"/><path d="M84.5,1160.7188 L84.5,1187.7188 M71.5,1168.7188 L97.5,1168.7188 M84.5,1187.7188 L71.5,1202.7188 M84.5,1187.7188 L97.5,1202.7188 " fill="none" style="stroke:#181818;stroke-width:0.5;"/><rect fill="#E3E3E3" height="39.1563" rx="2.5" ry="2.5" style="stroke:#181818;stroke-width:0.5;" width="155" x="553" y="50"/><text fill="#000000" font-family="sans-serif" font-size="20" lengthAdjust="spacing" textLength="141" x="560" y="77.7617">ListPropertiesUI</text><rect fill="#E3E3E3" height="39.1563" rx="2.5" ry="2.5" style="stroke:#181818;stroke-width:0.5;" width="155" x="553" y="1119.0625"/><text fill="#000000" font-family="sans-serif" font-size="20" lengthAdjust="spacing" textLength="141" x="560" y="1146.8242">ListPropertiesUI</text><rect fill="#E3E3E3" height="39.1563" rx="2.5" ry="2.5" style="stroke:#181818;stroke-width:0.5;" width="227" x="1185" y="1119.0625"/><text fill="#000000" font-family="sans-serif" font-size="20" lengthAdjust="spacing" textLength="213" x="1192" y="1146.8242">:ListPropertiesController</text><rect fill="#E3E3E3" height="39.1563" rx="2.5" ry="2.5" style="stroke:#181818;stroke-width:0.5;" width="130" x="1422" y="50"/><text fill="#000000" font-family="sans-serif" font-size="20" lengthAdjust="spacing" textLength="116" x="1429" y="77.7617">:Repositories</text><rect fill="#E3E3E3" height="39.1563" rx="2.5" ry="2.5" style="stroke:#181818;stroke-width:0.5;" width="130" x="1422" y="1119.0625"/><text fill="#000000" font-family="sans-serif" font-size="20" lengthAdjust="spacing" textLength="116" x="1429" y="1146.8242">:Repositories</text><rect fill="#E3E3E3" height="64.3125" rx="2.5" ry="2.5" style="stroke:#181818;stroke-width:0.5;" width="130" x="1562" y="24.8438"/><text fill="#000000" font-family="sans-serif" font-size="20" lengthAdjust="spacing" textLength="103" x="1575.5" y="52.6055">repositories</text><text fill="#000000" font-family="sans-serif" font-size="20" lengthAdjust="spacing" textLength="116" x="1569" y="77.7617">:Repositories</text><rect fill="#E3E3E3" height="64.3125" rx="2.5" ry="2.5" style="stroke:#181818;stroke-width:0.5;" width="130" x="1562" y="1119.0625"/><text fill="#000000" font-family="sans-serif" font-size="20" lengthAdjust="spacing" textLength="103" x="1575.5" y="1146.8242">repositories</text><text fill="#000000" font-family="sans-serif" font-size="20" lengthAdjust="spacing" textLength="116" x="1569" y="1171.9805">:Repositories</text><rect fill="#E3E3E3" height="64.3125" rx="2.5" ry="2.5" style="stroke:#181818;stroke-width:0.5;" width="184" x="1702" y="24.8438"/><text fill="#000000" font-family="sans-serif" font-size="20" lengthAdjust="spacing" textLength="170" x="1709" y="52.6055">Propertyrepository:</text><text fill="#000000" font-family="sans-serif" font-size="20" lengthAdjust="spacing" textLength="164" x="1712" y="77.7617">Propertyrepository</text><rect fill="#E3E3E3" height="64.3125" rx="2.5" ry="2.5" style="stroke:#181818;stroke-width:0.5;" width="184" x="1702" y="1119.0625"/><text fill="#000000" font-family="sans-serif" font-size="20" lengthAdjust="spacing" textLength="170" x="1709" y="1146.8242">Propertyrepository:</text><text fill="#000000" font-family="sans-serif" font-size="20" lengthAdjust="spacing" textLength="164" x="1712" y="1171.9805">Propertyrepository</text><rect fill="#FFFFFF" height="1001.9063" style="stroke:#181818;stroke-width:1.0;" width="10" x="79.5" y="100.1563"/><rect fill="#FFFFFF" height="206.7813" style="stroke:#181818;stroke-width:1.0;" width="10" x="625.5" y="131.3125"/><rect fill="#FFFFFF" height="39.1563" style="stroke:#181818;stroke-width:1.0;" width="10" x="625.5" y="377.25"/><rect fill="#FFFFFF" height="89.4688" style="stroke:#181818;stroke-width:1.0;" width="10" x="625.5" y="480.7188"/><rect fill="#FFFFFF" height="492.7188" style="stroke:#181818;stroke-width:1.0;" width="10" x="625.5" y="609.3438"/><rect fill="#FFFFFF" height="157.625" style="stroke:#181818;stroke-width:1.0;" width="10" x="1293.5" y="180.4688"/><rect fill="#FFFFFF" height="39.1563" style="stroke:#181818;stroke-width:1.0;" width="10" x="1482" y="220.625"/><rect fill="#FFFFFF" height="39.1563" style="stroke:#181818;stroke-width:1.0;" width="10" x="1622" y="298.9375"/><rect fill="#FFFFFF" height="373.0938" style="stroke:#181818;stroke-width:1.0;" width="10" x="1789" y="737.9688"/><rect fill="#FFFFFF" height="28" style="stroke:#181818;stroke-width:1.0;" width="10" x="1794" y="819.2813"/><rect fill="#FFFFFF" height="28" style="stroke:#181818;stroke-width:1.0;" width="10" x="1794" y="942.5938"/><polygon fill="#181818" points="613.5,127.3125,623.5,131.3125,613.5,135.3125,617.5,131.3125" style="stroke:#181818;stroke-width:1.0;"/><line style="stroke:#181818;stroke-width:1.0;" x1="89.5" x2="619.5" y1="131.3125" y2="131.3125"/><text fill="#000000" font-family="sans-serif" font-size="20" font-weight="bold" lengthAdjust="spacing" textLength="11" x="96.5" y="124.918">1</text><text fill="#000000" font-family="sans-serif" font-size="20" lengthAdjust="spacing" textLength="221" x="111.5" y="124.918">asks to shows properties</text><polygon fill="#181818" points="1173,166.4688,1183,170.4688,1173,174.4688,1177,170.4688" style="stroke:#181818;stroke-width:1.0;"/><line style="stroke:#181818;stroke-width:1.0;" x1="635.5" x2="1179" y1="170.4688" y2="170.4688"/><text fill="#000000" font-family="sans-serif" font-size="20" font-weight="bold" lengthAdjust="spacing" textLength="11" x="642.5" y="164.0742">2</text><text fill="#000000" font-family="sans-serif" font-size="20" lengthAdjust="spacing" textLength="56" x="657.5" y="164.0742">create</text><rect fill="#E3E3E3" height="39.1563" rx="2.5" ry="2.5" style="stroke:#181818;stroke-width:0.5;" width="227" x="1185" y="139.3125"/><text fill="#000000" font-family="sans-serif" font-size="20" lengthAdjust="spacing" textLength="213" x="1192" y="167.0742">:ListPropertiesController</text><polygon fill="#181818" points="1470,216.625,1480,220.625,1470,224.625,1474,220.625" style="stroke:#181818;stroke-width:1.0;"/><line style="stroke:#181818;stroke-width:1.0;" x1="1303.5" x2="1476" y1="220.625" y2="220.625"/><text fill="#000000" font-family="sans-serif" font-size="20" font-weight="bold" lengthAdjust="spacing" textLength="11" x="1310.5" y="214.2305">3</text><text fill="#000000" font-family="sans-serif" font-size="20" lengthAdjust="spacing" textLength="116" x="1325.5" y="214.2305">getInstance()</text><polygon fill="#181818" points="1314.5,255.7813,1304.5,259.7813,1314.5,263.7813,1310.5,259.7813" style="stroke:#181818;stroke-width:1.0;"/><line style="stroke:#181818;stroke-width:1.0;stroke-dasharray:2.0,2.0;" x1="1308.5" x2="1486" y1="259.7813" y2="259.7813"/><text fill="#000000" font-family="sans-serif" font-size="20" font-weight="bold" lengthAdjust="spacing" textLength="11" x="1320.5" y="253.3867">4</text><text fill="#000000" font-family="sans-serif" font-size="20" lengthAdjust="spacing" textLength="103" x="1335.5" y="253.3867">repositories</text><polygon fill="#181818" points="1610,294.9375,1620,298.9375,1610,302.9375,1614,298.9375" style="stroke:#181818;stroke-width:1.0;"/><line style="stroke:#181818;stroke-width:1.0;" x1="1303.5" x2="1616" y1="298.9375" y2="298.9375"/><text fill="#000000" font-family="sans-serif" font-size="20" font-weight="bold" lengthAdjust="spacing" textLength="11" x="1310.5" y="292.543">5</text><text fill="#000000" font-family="sans-serif" font-size="20" lengthAdjust="spacing" textLength="228" x="1325.5" y="292.543">getPropertiesRepository()</text><polygon fill="#181818" points="1309.5,334.0938,1299.5,338.0938,1309.5,342.0938,1305.5,338.0938" style="stroke:#181818;stroke-width:1.0;"/><line style="stroke:#181818;stroke-width:1.0;stroke-dasharray:2.0,2.0;" x1="1303.5" x2="1626" y1="338.0938" y2="338.0938"/><text fill="#000000" font-family="sans-serif" font-size="20" font-weight="bold" lengthAdjust="spacing" textLength="11" x="1315.5" y="331.6992">6</text><text fill="#000000" font-family="sans-serif" font-size="20" lengthAdjust="spacing" textLength="186" x="1330.5" y="331.6992">PropertiesRepository</text><polygon fill="#181818" points="613.5,373.25,623.5,377.25,613.5,381.25,617.5,377.25" style="stroke:#181818;stroke-width:1.0;"/><line style="stroke:#181818;stroke-width:1.0;" x1="89.5" x2="619.5" y1="377.25" y2="377.25"/><text fill="#000000" font-family="sans-serif" font-size="20" font-weight="bold" lengthAdjust="spacing" textLength="11" x="96.5" y="370.8555">7</text><text fill="#000000" font-family="sans-serif" font-size="20" lengthAdjust="spacing" textLength="242" x="111.5" y="370.8555">selects the type of property</text><polygon fill="#181818" points="100.5,412.4063,90.5,416.4063,100.5,420.4063,96.5,416.4063" style="stroke:#181818;stroke-width:1.0;"/><line style="stroke:#181818;stroke-width:1.0;stroke-dasharray:2.0,2.0;" x1="94.5" x2="629.5" y1="416.4063" y2="416.4063"/><text fill="#000000" font-family="sans-serif" font-size="20" font-weight="bold" lengthAdjust="spacing" textLength="11" x="106.5" y="410.0117">8</text><text fill="#000000" font-family="sans-serif" font-size="20" lengthAdjust="spacing" textLength="275" x="121.5" y="410.0117">shows filters and requests data</text><polygon fill="#181818" points="613.5,476.7188,623.5,480.7188,613.5,484.7188,617.5,480.7188" style="stroke:#181818;stroke-width:1.0;"/><line style="stroke:#181818;stroke-width:1.0;" x1="89.5" x2="619.5" y1="480.7188" y2="480.7188"/><text fill="#000000" font-family="sans-serif" font-size="20" font-weight="bold" lengthAdjust="spacing" textLength="11" x="96.5" y="461.7461">9</text><text fill="#000000" font-family="sans-serif" font-size="20" lengthAdjust="spacing" textLength="416" x="111.5" y="449.168">Selects requested data (bedrooms, bathrooms,</text><text fill="#000000" font-family="sans-serif" font-size="20" lengthAdjust="spacing" textLength="330" x="117.5" y="474.3242">type of contract and type of property)</text><polygon fill="#181818" points="100.5,566.1875,90.5,570.1875,100.5,574.1875,96.5,570.1875" style="stroke:#181818;stroke-width:1.0;"/><line style="stroke:#181818;stroke-width:1.0;stroke-dasharray:2.0,2.0;" x1="94.5" x2="629.5" y1="570.1875" y2="570.1875"/><text fill="#000000" font-family="sans-serif" font-size="20" font-weight="bold" lengthAdjust="spacing" textLength="22" x="106.5" y="538.6367">10</text><text fill="#000000" font-family="sans-serif" font-size="20" lengthAdjust="spacing" textLength="486" x="132.5" y="513.4805">shows selected category and requested data(rent, buy,</text><text fill="#000000" font-family="sans-serif" font-size="20" lengthAdjust="spacing" textLength="348" x="132.5" y="538.6367">number of rooms,number of bathrooms,</text><text fill="#000000" font-family="sans-serif" font-size="20" lengthAdjust="spacing" textLength="219" x="138.5" y="563.793">land, house, apartament)</text><polygon fill="#181818" points="613.5,605.3438,623.5,609.3438,613.5,613.3438,617.5,609.3438" style="stroke:#181818;stroke-width:1.0;"/><line style="stroke:#181818;stroke-width:1.0;" x1="89.5" x2="619.5" y1="609.3438" y2="609.3438"/><text fill="#000000" font-family="sans-serif" font-size="20" font-weight="bold" lengthAdjust="spacing" textLength="22" x="96.5" y="602.9492">11</text><text fill="#000000" font-family="sans-serif" font-size="20" lengthAdjust="spacing" textLength="93" x="122.5" y="602.9492">types data</text><polygon fill="#181818" points="1286.5,694.8125,1296.5,698.8125,1286.5,702.8125,1290.5,698.8125" style="stroke:#181818;stroke-width:1.0;"/><line style="stroke:#181818;stroke-width:1.0;" x1="635.5" x2="1292.5" y1="698.8125" y2="698.8125"/><text fill="#000000" font-family="sans-serif" font-size="20" font-weight="bold" lengthAdjust="spacing" textLength="22" x="642.5" y="667.2617">12</text><text fill="#000000" font-family="sans-serif" font-size="20" lengthAdjust="spacing" textLength="613" x="668.5" y="642.1055">parameters:getPropertiesWithParameters(rent, buy,number of rooms,</text><text fill="#000000" font-family="sans-serif" font-size="20" lengthAdjust="spacing" textLength="484" x="668.5" y="667.2617">number of bathrooms, land, house, apartament, sort by</text><text fill="#000000" font-family="sans-serif" font-size="20" lengthAdjust="spacing" textLength="505" x="674.5" y="692.418">price ascending, sort bt price descending , sort by parish)</text><polygon fill="#181818" points="1777,733.9688,1787,737.9688,1777,741.9688,1781,737.9688" style="stroke:#181818;stroke-width:1.0;"/><line style="stroke:#181818;stroke-width:1.0;" x1="1298.5" x2="1783" y1="737.9688" y2="737.9688"/><text fill="#000000" font-family="sans-serif" font-size="20" font-weight="bold" lengthAdjust="spacing" textLength="22" x="1305.5" y="731.5742">13</text><text fill="#000000" font-family="sans-serif" font-size="20" lengthAdjust="spacing" textLength="101" x="1331.5" y="731.5742">parameters</text><path d="M1692,752.9688 L1768,752.9688 L1768,770.125 L1758,780.125 L1692,780.125 L1692,752.9688 " fill="#EEEEEE" style="stroke:#000000;stroke-width:1.5;"/><rect fill="none" height="109.3125" style="stroke:#000000;stroke-width:1.5;" width="306" x="1692" y="752.9688"/><text fill="#000000" font-family="sans-serif" font-size="20" font-weight="bold" lengthAdjust="spacing" textLength="31" x="1707" y="774.7305">opt</text><line style="stroke:#181818;stroke-width:1.0;" x1="1804" x2="1846" y1="811.2813" y2="811.2813"/><line style="stroke:#181818;stroke-width:1.0;" x1="1846" x2="1846" y1="811.2813" y2="824.2813"/><line style="stroke:#181818;stroke-width:1.0;" x1="1805" x2="1846" y1="824.2813" y2="824.2813"/><polygon fill="#181818" points="1815,820.2813,1805,824.2813,1815,828.2813,1811,824.2813" style="stroke:#181818;stroke-width:1.0;"/><text fill="#000000" font-family="sans-serif" font-size="20" font-weight="bold" lengthAdjust="spacing" textLength="22" x="1811" y="804.8867">14</text><text fill="#000000" font-family="sans-serif" font-size="20" lengthAdjust="spacing" textLength="149" x="1837" y="804.8867">sort(parameters)</text><path d="M1692,876.2813 L1768,876.2813 L1768,893.4375 L1758,903.4375 L1692,903.4375 L1692,876.2813 " fill="#EEEEEE" style="stroke:#000000;stroke-width:1.5;"/><rect fill="none" height="109.3125" style="stroke:#000000;stroke-width:1.5;" width="310" x="1692" y="876.2813"/><text fill="#000000" font-family="sans-serif" font-size="20" font-weight="bold" lengthAdjust="spacing" textLength="31" x="1707" y="898.043">opt</text><line style="stroke:#181818;stroke-width:1.0;" x1="1804" x2="1846" y1="934.5938" y2="934.5938"/><line style="stroke:#181818;stroke-width:1.0;" x1="1846" x2="1846" y1="934.5938" y2="947.5938"/><line style="stroke:#181818;stroke-width:1.0;" x1="1805" x2="1846" y1="947.5938" y2="947.5938"/><polygon fill="#181818" points="1815,943.5938,1805,947.5938,1815,951.5938,1811,947.5938" style="stroke:#181818;stroke-width:1.0;"/><text fill="#000000" font-family="sans-serif" font-size="20" font-weight="bold" lengthAdjust="spacing" textLength="22" x="1811" y="928.1992">15</text><text fill="#000000" font-family="sans-serif" font-size="20" lengthAdjust="spacing" textLength="153" x="1837" y="928.1992">filter(parameters)</text><polygon fill="#181818" points="1309.5,1019.75,1299.5,1023.75,1309.5,1027.75,1305.5,1023.75" style="stroke:#181818;stroke-width:1.0;"/><line style="stroke:#181818;stroke-width:1.0;stroke-dasharray:2.0,2.0;" x1="1303.5" x2="1788" y1="1023.75" y2="1023.75"/><text fill="#000000" font-family="sans-serif" font-size="20" font-weight="bold" lengthAdjust="spacing" textLength="22" x="1315.5" y="1017.3555">16</text><text fill="#000000" font-family="sans-serif" font-size="20" lengthAdjust="spacing" textLength="89" x="1341.5" y="1017.3555">properties</text><polygon fill="#181818" points="646.5,1058.9063,636.5,1062.9063,646.5,1066.9063,642.5,1062.9063" style="stroke:#181818;stroke-width:1.0;"/><line style="stroke:#181818;stroke-width:1.0;stroke-dasharray:2.0,2.0;" x1="640.5" x2="1297.5" y1="1062.9063" y2="1062.9063"/><text fill="#000000" font-family="sans-serif" font-size="20" font-weight="bold" lengthAdjust="spacing" textLength="22" x="652.5" y="1056.5117">17</text><text fill="#000000" font-family="sans-serif" font-size="20" lengthAdjust="spacing" textLength="89" x="678.5" y="1056.5117">properties</text><polygon fill="#181818" points="95.5,1098.0625,85.5,1102.0625,95.5,1106.0625,91.5,1102.0625" style="stroke:#181818;stroke-width:1.0;"/><line style="stroke:#181818;stroke-width:1.0;stroke-dasharray:2.0,2.0;" x1="89.5" x2="629.5" y1="1102.0625" y2="1102.0625"/><text fill="#000000" font-family="sans-serif" font-size="20" font-weight="bold" lengthAdjust="spacing" textLength="22" x="101.5" y="1095.668">18</text><text fill="#000000" font-family="sans-serif" font-size="20" lengthAdjust="spacing" textLength="369" x="127.5" y="1095.668">displays properties and operation success</text><!--SRC=[jLLDQ-Cm4BthLmozj2a9B7lC8L1Q5W9TA4t3NdfHv74iuaXUITwkzzVlI79iENQwxM45WLWpy-RDf-n1geeRVYorE6066UQyBjqthTn6_a7u-eNPameSjTAYCFg8u4oDYQJYui3tk75DYM1GEAxsPQfW2vxfDwdsaFFI8cEyTbhLnnqQnguBcI7aMhkT_isuSDh0rLOPt4lhq62sjMYkW5kuU_ZE2D198Ikk75mzaiQJqHNI7ThjEcXjrqEbvL3hde8pkYnRpFkNvySp_MUij9L4WxI3JdVHRAIFZBWFJKnYyQh604-FToz3YvPFqrasorSrlWpMBzmUxhd3FLtqL5Wub2xvYsGXDmpQGn-mM54cO4a01mjEKmtqcuMgoqEltM5GvjWr98S05eJZuPPKs9yrMcSXuux3ZS6SYgC4pgbjh32oSbAhEO1KkJP7NiAh6aeSYa99GPB1TLOR7ly9RTsCfGIkXK7FB5JfdDagND_U4hUenjX0fuihM0z4_lXR3p9HNKBSerihIvqiy6OsiksWfrfZfEtFb9T56uBFRTyn8_CCF-Vk59ZlkXX9t_qzm7jHXNwT32DWzhodWD_Z7u7FwfJ8OwNOXCJtvdbhMonfsL1t5xIIcWf1vwS6Zon6rgEcZbEHov8sZGMkic6Rim-msBGiMaE_HiE0x30pMX_j77RS5V4lZSI9gF1xY823qtFsiq_HZtaWnwBT4caWBH-QL-M8IjqGYRXwlSD8g_yUK2q9PWw5hYqDEVVxYny9PVQHhFY8aXockZ6AnIgsK7WXqAT_EUZK7z8LJvqieNzEFWsdft-9_1oiDWvs3SLN6IcG5gH0bT4udKIk5VWj5INGMNcwqXOn1Jw0nMfwFI_xkDWm0vVMkLVIbMDiMk6Y8y_iflSsO__ob5JkWWP57QZutoVPn57wJtocnNuUGYybZriepMArNQUNeytJpz8ICcchaZVf4nd6o7-4zmbiBGHQEzNzoQT_YFy2]--></g></svg>