<?xml version="1.0" encoding="UTF-8" standalone="no"?><svg xmlns="http://www.w3.org/2000/svg" xmlns:xlink="http://www.w3.org/1999/xlink" contentStyleType="text/css" height="1454px" preserveAspectRatio="none" style="width:970px;height:1454px;background:#FFFFFF;" version="1.1" viewBox="0 0 970 1454" width="970px" zoomAndPan="magnify"><defs/><g><!--class UI--><g id="elem_UI"><rect codeLine="14" fill="#FFDAB9" height="51.1563" id="UI" rx="2.5" ry="2.5" style="stroke:#4169E1;stroke-width:0.5;" width="182" x="589.88" y="7"/><ellipse cx="605.88" cy="24.5781" fill="#ADD1B2" rx="12" ry="12" style="stroke:#181818;stroke-width:1.0;"/><path d="M608.0206,19.5 Q608.2081,19.25 608.4269,19.125 Q608.6456,18.9844 608.8956,18.9844 Q609.3331,18.9844 609.6144,19.2969 Q609.8956,19.5938 609.8956,20.3125 L609.8956,22.0156 Q609.8956,22.7344 609.6144,23.0469 Q609.3331,23.3594 608.8956,23.3594 Q608.505,23.3594 608.255,23.125 Q608.005,22.9063 607.8956,22.2969 Q607.8331,21.875 607.6144,21.6563 Q607.2238,21.2188 606.505,20.9531 Q605.7863,20.6875 605.0675,20.6875 Q604.1613,20.6875 603.4113,21.0781 Q602.6613,21.4688 602.0831,22.3594 Q601.505,23.2344 601.505,24.4375 L601.505,25.7344 Q601.505,27.1875 602.5519,28.1563 Q603.6144,29.125 605.4738,29.125 Q606.5831,29.125 607.3644,28.8125 Q607.8019,28.6406 608.3175,28.125 Q608.63,27.8125 608.8019,27.7188 Q608.9738,27.625 609.2081,27.625 Q609.5988,27.625 609.8956,27.9375 Q610.2081,28.2344 610.2081,28.6406 Q610.2081,29.0469 609.8019,29.5156 Q609.2081,30.2031 608.2706,30.5938 Q607.005,31.125 605.4894,31.125 Q603.7081,31.125 602.2863,30.3906 Q601.13,29.7969 600.3175,28.5313 Q599.505,27.2656 599.505,25.7813 L599.505,24.4219 Q599.505,22.8594 600.2238,21.5156 Q600.9581,20.1563 602.2394,19.4219 Q603.5363,18.6875 604.9894,18.6875 Q605.8488,18.6875 606.5988,18.8906 Q607.3644,19.0938 608.0206,19.5 Z " fill="#000000"/><text fill="#000000" font-family="sans-serif" font-size="20" lengthAdjust="spacing" textLength="148" x="620.88" y="32.7617">"ListPropertiesUI</text><line style="stroke:#4169E1;stroke-width:0.5;" x1="590.88" x2="770.88" y1="42.1563" y2="42.1563"/><line style="stroke:#4169E1;stroke-width:0.5;" x1="590.88" x2="770.88" y1="50.1563" y2="50.1563"/></g><!--class CONTROL--><g id="elem_CONTROL"><rect codeLine="15" fill="#FFDAB9" height="101.4688" id="CONTROL" rx="2.5" ry="2.5" style="stroke:#4169E1;stroke-width:0.5;" width="423" x="469.38" y="119"/><ellipse cx="581.88" cy="136.5781" fill="#ADD1B2" rx="12" ry="12" style="stroke:#181818;stroke-width:1.0;"/><path d="M584.0206,131.5 Q584.2081,131.25 584.4269,131.125 Q584.6456,130.9844 584.8956,130.9844 Q585.3331,130.9844 585.6144,131.2969 Q585.8956,131.5938 585.8956,132.3125 L585.8956,134.0156 Q585.8956,134.7344 585.6144,135.0469 Q585.3331,135.3594 584.8956,135.3594 Q584.505,135.3594 584.255,135.125 Q584.005,134.9063 583.8956,134.2969 Q583.8331,133.875 583.6144,133.6563 Q583.2238,133.2188 582.505,132.9531 Q581.7863,132.6875 581.0675,132.6875 Q580.1613,132.6875 579.4113,133.0781 Q578.6613,133.4688 578.0831,134.3594 Q577.505,135.2344 577.505,136.4375 L577.505,137.7344 Q577.505,139.1875 578.5519,140.1563 Q579.6144,141.125 581.4738,141.125 Q582.5831,141.125 583.3644,140.8125 Q583.8019,140.6406 584.3175,140.125 Q584.63,139.8125 584.8019,139.7188 Q584.9738,139.625 585.2081,139.625 Q585.5988,139.625 585.8956,139.9375 Q586.2081,140.2344 586.2081,140.6406 Q586.2081,141.0469 585.8019,141.5156 Q585.2081,142.2031 584.2706,142.5938 Q583.005,143.125 581.4894,143.125 Q579.7081,143.125 578.2863,142.3906 Q577.13,141.7969 576.3175,140.5313 Q575.505,139.2656 575.505,137.7813 L575.505,136.4219 Q575.505,134.8594 576.2238,133.5156 Q576.9581,132.1563 578.2394,131.4219 Q579.5363,130.6875 580.9894,130.6875 Q581.8488,130.6875 582.5988,130.8906 Q583.3644,131.0938 584.0206,131.5 Z " fill="#000000"/><text fill="#000000" font-family="sans-serif" font-size="20" lengthAdjust="spacing" textLength="189" x="603.88" y="144.7617">"ListPropertController</text><line style="stroke:#4169E1;stroke-width:0.5;" x1="470.38" x2="891.38" y1="154.1563" y2="154.1563"/><line style="stroke:#4169E1;stroke-width:0.5;" x1="470.38" x2="891.38" y1="162.1563" y2="162.1563"/><text fill="#000000" font-family="sans-serif" font-size="20" lengthAdjust="spacing" textLength="411" x="475.38" y="186.918">+ListPropertiesController(PropertyrRepository)</text><text fill="#000000" font-family="sans-serif" font-size="20" lengthAdjust="spacing" textLength="163" x="475.38" y="212.0742">+showProperties()</text></g><!--class Repositories--><g id="elem_Repositories"><rect codeLine="19" fill="#FFDAB9" height="101.4688" id="Repositories" rx="2.5" ry="2.5" style="stroke:#4169E1;stroke-width:0.5;" width="244" x="383.88" y="281"/><ellipse cx="446.38" cy="298.5781" fill="#ADD1B2" rx="12" ry="12" style="stroke:#181818;stroke-width:1.0;"/><path d="M448.5206,293.5 Q448.7081,293.25 448.9269,293.125 Q449.1456,292.9844 449.3956,292.9844 Q449.8331,292.9844 450.1144,293.2969 Q450.3956,293.5938 450.3956,294.3125 L450.3956,296.0156 Q450.3956,296.7344 450.1144,297.0469 Q449.8331,297.3594 449.3956,297.3594 Q449.005,297.3594 448.755,297.125 Q448.505,296.9063 448.3956,296.2969 Q448.3331,295.875 448.1144,295.6563 Q447.7238,295.2188 447.005,294.9531 Q446.2863,294.6875 445.5675,294.6875 Q444.6613,294.6875 443.9113,295.0781 Q443.1613,295.4688 442.5831,296.3594 Q442.005,297.2344 442.005,298.4375 L442.005,299.7344 Q442.005,301.1875 443.0519,302.1563 Q444.1144,303.125 445.9738,303.125 Q447.0831,303.125 447.8644,302.8125 Q448.3019,302.6406 448.8175,302.125 Q449.13,301.8125 449.3019,301.7188 Q449.4738,301.625 449.7081,301.625 Q450.0988,301.625 450.3956,301.9375 Q450.7081,302.2344 450.7081,302.6406 Q450.7081,303.0469 450.3019,303.5156 Q449.7081,304.2031 448.7706,304.5938 Q447.505,305.125 445.9894,305.125 Q444.2081,305.125 442.7863,304.3906 Q441.63,303.7969 440.8175,302.5313 Q440.005,301.2656 440.005,299.7813 L440.005,298.4219 Q440.005,296.8594 440.7238,295.5156 Q441.4581,294.1563 442.7394,293.4219 Q444.0363,292.6875 445.4894,292.6875 Q446.3488,292.6875 447.0988,292.8906 Q447.8644,293.0938 448.5206,293.5 Z " fill="#000000"/><text fill="#000000" font-family="sans-serif" font-size="20" lengthAdjust="spacing" textLength="110" x="468.38" y="306.7617">Repositories</text><line style="stroke:#4169E1;stroke-width:0.5;" x1="384.88" x2="626.88" y1="316.1563" y2="316.1563"/><line style="stroke:#4169E1;stroke-width:0.5;" x1="384.88" x2="626.88" y1="324.1563" y2="324.1563"/><text fill="#000000" font-family="sans-serif" font-size="20" lengthAdjust="spacing" textLength="232" x="389.88" y="348.918">+getPropertyrRepository()</text><text fill="#000000" font-family="sans-serif" font-size="20" lengthAdjust="spacing" textLength="128" x="389.88" y="374.0742">+getInstance()</text></g><!--class PROP_REP--><g id="elem_PROP_REP"><rect codeLine="23" fill="#FFDAB9" height="176.9375" id="PROP_REP" rx="2.5" ry="2.5" style="stroke:#4169E1;stroke-width:0.5;" width="290" x="360.88" y="443"/><ellipse cx="412.38" cy="460.5781" fill="#ADD1B2" rx="12" ry="12" style="stroke:#181818;stroke-width:1.0;"/><path d="M414.5206,455.5 Q414.7081,455.25 414.9269,455.125 Q415.1456,454.9844 415.3956,454.9844 Q415.8331,454.9844 416.1144,455.2969 Q416.3956,455.5938 416.3956,456.3125 L416.3956,458.0156 Q416.3956,458.7344 416.1144,459.0469 Q415.8331,459.3594 415.3956,459.3594 Q415.005,459.3594 414.755,459.125 Q414.505,458.9063 414.3956,458.2969 Q414.3331,457.875 414.1144,457.6563 Q413.7238,457.2188 413.005,456.9531 Q412.2863,456.6875 411.5675,456.6875 Q410.6613,456.6875 409.9113,457.0781 Q409.1613,457.4688 408.5831,458.3594 Q408.005,459.2344 408.005,460.4375 L408.005,461.7344 Q408.005,463.1875 409.0519,464.1563 Q410.1144,465.125 411.9738,465.125 Q413.0831,465.125 413.8644,464.8125 Q414.3019,464.6406 414.8175,464.125 Q415.13,463.8125 415.3019,463.7188 Q415.4738,463.625 415.7081,463.625 Q416.0988,463.625 416.3956,463.9375 Q416.7081,464.2344 416.7081,464.6406 Q416.7081,465.0469 416.3019,465.5156 Q415.7081,466.2031 414.7706,466.5938 Q413.505,467.125 411.9894,467.125 Q410.2081,467.125 408.7863,466.3906 Q407.63,465.7969 406.8175,464.5313 Q406.005,463.2656 406.005,461.7813 L406.005,460.4219 Q406.005,458.8594 406.7238,457.5156 Q407.4581,456.1563 408.7394,455.4219 Q410.0363,454.6875 411.4894,454.6875 Q412.3488,454.6875 413.0988,454.8906 Q413.8644,455.0938 414.5206,455.5 Z " fill="#000000"/><text fill="#000000" font-family="sans-serif" font-size="20" lengthAdjust="spacing" textLength="178" x="434.38" y="468.7617">PropertyrRepository</text><line style="stroke:#4169E1;stroke-width:0.5;" x1="361.88" x2="649.88" y1="478.1563" y2="478.1563"/><line style="stroke:#4169E1;stroke-width:0.5;" x1="361.88" x2="649.88" y1="486.1563" y2="486.1563"/><text fill="#000000" font-family="sans-serif" font-size="20" lengthAdjust="spacing" textLength="250" x="366.88" y="510.918">+getPropertiesByType(type)</text><text fill="#000000" font-family="sans-serif" font-size="20" lengthAdjust="spacing" textLength="131" x="366.88" y="536.0742">+filterByType()</text><text fill="#000000" font-family="sans-serif" font-size="20" lengthAdjust="spacing" textLength="127" x="366.88" y="561.2305">+filterByDeal()</text><text fill="#000000" font-family="sans-serif" font-size="20" lengthAdjust="spacing" textLength="278" x="366.88" y="586.3867">+filterByNumberOfBathfrooms()</text><text fill="#000000" font-family="sans-serif" font-size="20" lengthAdjust="spacing" textLength="267" x="366.88" y="611.543">+filterByNumberOfBedrooms()</text></g><!--class Property--><g id="elem_Property"><rect codeLine="33" fill="#FFDAB9" height="176.9375" id="Property" rx="2.5" ry="2.5" style="stroke:#4169E1;stroke-width:0.5;" width="295" x="359.38" y="818"/><ellipse cx="464.88" cy="835.5781" fill="#A9DCDF" rx="12" ry="12" style="stroke:#181818;stroke-width:1.0;"/><path d="M467.3331,837.6094 L462.4581,837.6094 L461.9738,838.8281 L462.4581,838.8281 Q463.1925,838.8281 463.4894,839.1094 Q463.8019,839.375 463.8019,839.8281 Q463.8019,840.2656 463.4894,840.5469 Q463.1925,840.8281 462.4581,840.8281 L459.7706,840.8281 Q459.0519,840.8281 458.7394,840.5469 Q458.4269,840.2656 458.4269,839.8281 Q458.4269,839.375 458.755,839.0938 Q459.0831,838.8125 459.8175,838.8281 L462.9581,831 L461.6613,831 Q460.9269,831 460.6144,830.7188 Q460.3175,830.4375 460.3175,829.9844 Q460.3175,829.5313 460.6144,829.2656 Q460.9269,828.9844 461.6613,828.9844 L465.9738,828.9844 L469.9581,838.8281 Q470.6613,838.8281 470.8956,838.9844 Q471.3488,839.2969 471.3488,839.8281 Q471.3488,840.2656 471.0363,840.5469 Q470.7394,840.8281 470.0206,840.8281 L467.3175,840.8281 Q466.5988,840.8281 466.2863,840.5469 Q465.9738,840.2656 465.9738,839.8281 Q465.9738,839.375 466.2863,839.1094 Q466.5988,838.8281 467.3175,838.8281 L467.8019,838.8281 L467.3331,837.6094 Z M466.505,835.6094 L464.88,831.6406 L463.2706,835.6094 L466.505,835.6094 Z " fill="#000000"/><text fill="#000000" font-family="sans-serif" font-size="20" font-style="italic" lengthAdjust="spacing" textLength="75" x="486.88" y="843.7617">Property</text><line style="stroke:#4169E1;stroke-width:0.5;" x1="360.38" x2="653.38" y1="853.1563" y2="853.1563"/><text fill="#000000" font-family="sans-serif" font-size="20" lengthAdjust="spacing" textLength="155" x="365.38" y="877.918">-double areaInM2</text><text fill="#000000" font-family="sans-serif" font-size="20" lengthAdjust="spacing" textLength="283" x="365.38" y="903.0742">-double distanceFromCityCenter</text><text fill="#000000" font-family="sans-serif" font-size="20" lengthAdjust="spacing" textLength="260" x="365.38" y="928.2305">-ArrayList &lt;String&gt; photoURL</text><text fill="#000000" font-family="sans-serif" font-size="20" lengthAdjust="spacing" textLength="178" x="365.38" y="953.3867">-String typeProperty</text><text fill="#000000" font-family="sans-serif" font-size="20" lengthAdjust="spacing" textLength="157" x="365.38" y="978.543">-Address address</text><line style="stroke:#4169E1;stroke-width:0.5;" x1="360.38" x2="653.38" y1="986.9375" y2="986.9375"/></g><!--class Land--><g id="elem_Land"><rect codeLine="42" fill="#FFDAB9" height="51.1563" id="Land" rx="2.5" ry="2.5" style="stroke:#4169E1;stroke-width:0.5;" width="77" x="432.38" y="1132.5"/><ellipse cx="448.38" cy="1150.0781" fill="#ADD1B2" rx="12" ry="12" style="stroke:#181818;stroke-width:1.0;"/><path d="M450.5206,1145 Q450.7081,1144.75 450.9269,1144.625 Q451.1456,1144.4844 451.3956,1144.4844 Q451.8331,1144.4844 452.1144,1144.7969 Q452.3956,1145.0938 452.3956,1145.8125 L452.3956,1147.5156 Q452.3956,1148.2344 452.1144,1148.5469 Q451.8331,1148.8594 451.3956,1148.8594 Q451.005,1148.8594 450.755,1148.625 Q450.505,1148.4063 450.3956,1147.7969 Q450.3331,1147.375 450.1144,1147.1563 Q449.7238,1146.7188 449.005,1146.4531 Q448.2863,1146.1875 447.5675,1146.1875 Q446.6613,1146.1875 445.9113,1146.5781 Q445.1613,1146.9688 444.5831,1147.8594 Q444.005,1148.7344 444.005,1149.9375 L444.005,1151.2344 Q444.005,1152.6875 445.0519,1153.6563 Q446.1144,1154.625 447.9738,1154.625 Q449.0831,1154.625 449.8644,1154.3125 Q450.3019,1154.1406 450.8175,1153.625 Q451.13,1153.3125 451.3019,1153.2188 Q451.4738,1153.125 451.7081,1153.125 Q452.0988,1153.125 452.3956,1153.4375 Q452.7081,1153.7344 452.7081,1154.1406 Q452.7081,1154.5469 452.3019,1155.0156 Q451.7081,1155.7031 450.7706,1156.0938 Q449.505,1156.625 447.9894,1156.625 Q446.2081,1156.625 444.7863,1155.8906 Q443.63,1155.2969 442.8175,1154.0313 Q442.005,1152.7656 442.005,1151.2813 L442.005,1149.9219 Q442.005,1148.3594 442.7238,1147.0156 Q443.4581,1145.6563 444.7394,1144.9219 Q446.0363,1144.1875 447.4894,1144.1875 Q448.3488,1144.1875 449.0988,1144.3906 Q449.8644,1144.5938 450.5206,1145 Z " fill="#000000"/><text fill="#000000" font-family="sans-serif" font-size="20" lengthAdjust="spacing" textLength="43" x="463.38" y="1158.2617">Land</text><line style="stroke:#4169E1;stroke-width:0.5;" x1="433.38" x2="508.38" y1="1167.6563" y2="1167.6563"/><line style="stroke:#4169E1;stroke-width:0.5;" x1="433.38" x2="508.38" y1="1175.6563" y2="1175.6563"/></g><!--class Apartment--><g id="elem_Apartment"><rect codeLine="45" fill="#FFDAB9" height="51.1563" id="Apartment" rx="2.5" ry="2.5" style="stroke:#4169E1;stroke-width:0.5;" width="125" x="554.38" y="1359"/><ellipse cx="570.38" cy="1376.5781" fill="#ADD1B2" rx="12" ry="12" style="stroke:#181818;stroke-width:1.0;"/><path d="M572.5206,1371.5 Q572.7081,1371.25 572.9269,1371.125 Q573.1456,1370.9844 573.3956,1370.9844 Q573.8331,1370.9844 574.1144,1371.2969 Q574.3956,1371.5938 574.3956,1372.3125 L574.3956,1374.0156 Q574.3956,1374.7344 574.1144,1375.0469 Q573.8331,1375.3594 573.3956,1375.3594 Q573.005,1375.3594 572.755,1375.125 Q572.505,1374.9063 572.3956,1374.2969 Q572.3331,1373.875 572.1144,1373.6563 Q571.7238,1373.2188 571.005,1372.9531 Q570.2863,1372.6875 569.5675,1372.6875 Q568.6613,1372.6875 567.9113,1373.0781 Q567.1613,1373.4688 566.5831,1374.3594 Q566.005,1375.2344 566.005,1376.4375 L566.005,1377.7344 Q566.005,1379.1875 567.0519,1380.1563 Q568.1144,1381.125 569.9738,1381.125 Q571.0831,1381.125 571.8644,1380.8125 Q572.3019,1380.6406 572.8175,1380.125 Q573.13,1379.8125 573.3019,1379.7188 Q573.4738,1379.625 573.7081,1379.625 Q574.0988,1379.625 574.3956,1379.9375 Q574.7081,1380.2344 574.7081,1380.6406 Q574.7081,1381.0469 574.3019,1381.5156 Q573.7081,1382.2031 572.7706,1382.5938 Q571.505,1383.125 569.9894,1383.125 Q568.2081,1383.125 566.7863,1382.3906 Q565.63,1381.7969 564.8175,1380.5313 Q564.005,1379.2656 564.005,1377.7813 L564.005,1376.4219 Q564.005,1374.8594 564.7238,1373.5156 Q565.4581,1372.1563 566.7394,1371.4219 Q568.0363,1370.6875 569.4894,1370.6875 Q570.3488,1370.6875 571.0988,1370.8906 Q571.8644,1371.0938 572.5206,1371.5 Z " fill="#000000"/><text fill="#000000" font-family="sans-serif" font-size="20" lengthAdjust="spacing" textLength="91" x="585.38" y="1384.7617">Apartment</text><line style="stroke:#4169E1;stroke-width:0.5;" x1="555.38" x2="678.38" y1="1394.1563" y2="1394.1563"/><line style="stroke:#4169E1;stroke-width:0.5;" x1="555.38" x2="678.38" y1="1402.1563" y2="1402.1563"/></g><!--class House--><g id="elem_House"><rect codeLine="48" fill="#FFDAB9" height="126.625" id="House" rx="2.5" ry="2.5" style="stroke:#4169E1;stroke-width:0.5;" width="221" x="714.38" y="1321"/><ellipse cx="792.88" cy="1338.5781" fill="#ADD1B2" rx="12" ry="12" style="stroke:#181818;stroke-width:1.0;"/><path d="M795.0206,1333.5 Q795.2081,1333.25 795.4269,1333.125 Q795.6456,1332.9844 795.8956,1332.9844 Q796.3331,1332.9844 796.6144,1333.2969 Q796.8956,1333.5938 796.8956,1334.3125 L796.8956,1336.0156 Q796.8956,1336.7344 796.6144,1337.0469 Q796.3331,1337.3594 795.8956,1337.3594 Q795.505,1337.3594 795.255,1337.125 Q795.005,1336.9063 794.8956,1336.2969 Q794.8331,1335.875 794.6144,1335.6563 Q794.2238,1335.2188 793.505,1334.9531 Q792.7863,1334.6875 792.0675,1334.6875 Q791.1613,1334.6875 790.4113,1335.0781 Q789.6613,1335.4688 789.0831,1336.3594 Q788.505,1337.2344 788.505,1338.4375 L788.505,1339.7344 Q788.505,1341.1875 789.5519,1342.1563 Q790.6144,1343.125 792.4738,1343.125 Q793.5831,1343.125 794.3644,1342.8125 Q794.8019,1342.6406 795.3175,1342.125 Q795.63,1341.8125 795.8019,1341.7188 Q795.9738,1341.625 796.2081,1341.625 Q796.5988,1341.625 796.8956,1341.9375 Q797.2081,1342.2344 797.2081,1342.6406 Q797.2081,1343.0469 796.8019,1343.5156 Q796.2081,1344.2031 795.2706,1344.5938 Q794.005,1345.125 792.4894,1345.125 Q790.7081,1345.125 789.2863,1344.3906 Q788.13,1343.7969 787.3175,1342.5313 Q786.505,1341.2656 786.505,1339.7813 L786.505,1338.4219 Q786.505,1336.8594 787.2238,1335.5156 Q787.9581,1334.1563 789.2394,1333.4219 Q790.5363,1332.6875 791.9894,1332.6875 Q792.8488,1332.6875 793.5988,1332.8906 Q794.3644,1333.0938 795.0206,1333.5 Z " fill="#000000"/><text fill="#000000" font-family="sans-serif" font-size="20" lengthAdjust="spacing" textLength="55" x="814.88" y="1346.7617">House</text><line style="stroke:#4169E1;stroke-width:0.5;" x1="715.38" x2="934.38" y1="1356.1563" y2="1356.1563"/><text fill="#000000" font-family="sans-serif" font-size="20" lengthAdjust="spacing" textLength="168" x="720.38" y="1380.918">-boolean basement</text><text fill="#000000" font-family="sans-serif" font-size="20" lengthAdjust="spacing" textLength="209" x="720.38" y="1406.0742">-boolean inhabitableLoft</text><text fill="#000000" font-family="sans-serif" font-size="20" lengthAdjust="spacing" textLength="176" x="720.38" y="1431.2305">-String sunExposure</text><line style="stroke:#4169E1;stroke-width:0.5;" x1="715.38" x2="934.38" y1="1439.625" y2="1439.625"/></g><!--class Home--><g id="elem_Home"><rect codeLine="54" fill="#FFDAB9" height="151.7813" id="Home" rx="2.5" ry="2.5" style="stroke:#4169E1;stroke-width:0.5;" width="353" x="544.38" y="1082"/><ellipse cx="689.88" cy="1099.5781" fill="#A9DCDF" rx="12" ry="12" style="stroke:#181818;stroke-width:1.0;"/><path d="M692.3331,1101.6094 L687.4581,1101.6094 L686.9738,1102.8281 L687.4581,1102.8281 Q688.1925,1102.8281 688.4894,1103.1094 Q688.8019,1103.375 688.8019,1103.8281 Q688.8019,1104.2656 688.4894,1104.5469 Q688.1925,1104.8281 687.4581,1104.8281 L684.7706,1104.8281 Q684.0519,1104.8281 683.7394,1104.5469 Q683.4269,1104.2656 683.4269,1103.8281 Q683.4269,1103.375 683.755,1103.0938 Q684.0831,1102.8125 684.8175,1102.8281 L687.9581,1095 L686.6613,1095 Q685.9269,1095 685.6144,1094.7188 Q685.3175,1094.4375 685.3175,1093.9844 Q685.3175,1093.5313 685.6144,1093.2656 Q685.9269,1092.9844 686.6613,1092.9844 L690.9738,1092.9844 L694.9581,1102.8281 Q695.6613,1102.8281 695.8956,1102.9844 Q696.3488,1103.2969 696.3488,1103.8281 Q696.3488,1104.2656 696.0363,1104.5469 Q695.7394,1104.8281 695.0206,1104.8281 L692.3175,1104.8281 Q691.5988,1104.8281 691.2863,1104.5469 Q690.9738,1104.2656 690.9738,1103.8281 Q690.9738,1103.375 691.2863,1103.1094 Q691.5988,1102.8281 692.3175,1102.8281 L692.8019,1102.8281 L692.3331,1101.6094 Z M691.505,1099.6094 L689.88,1095.6406 L688.2706,1099.6094 L691.505,1099.6094 Z " fill="#000000"/><text fill="#000000" font-family="sans-serif" font-size="20" font-style="italic" lengthAdjust="spacing" textLength="53" x="711.88" y="1107.7617">Home</text><line style="stroke:#4169E1;stroke-width:0.5;" x1="545.38" x2="896.38" y1="1117.1563" y2="1117.1563"/><text fill="#000000" font-family="sans-serif" font-size="20" lengthAdjust="spacing" textLength="210" x="550.38" y="1141.918">-int numberOfBedrooms</text><text fill="#000000" font-family="sans-serif" font-size="20" lengthAdjust="spacing" textLength="215" x="550.38" y="1167.0742">-int numberOfBathrooms</text><text fill="#000000" font-family="sans-serif" font-size="20" lengthAdjust="spacing" textLength="242" x="550.38" y="1192.2305">-int numberOfParkingSpace</text><text fill="#000000" font-family="sans-serif" font-size="20" lengthAdjust="spacing" textLength="341" x="550.38" y="1217.3867">-ArrayList &lt;String&gt; availableEquipment</text><line style="stroke:#4169E1;stroke-width:0.5;" x1="545.38" x2="896.38" y1="1225.7813" y2="1225.7813"/></g><!--class Properties_By_Price--><g id="elem_Properties_By_Price"><rect codeLine="60" fill="#FFDAB9" height="76.3125" id="Properties_By_Price" rx="2.5" ry="2.5" style="stroke:#4169E1;stroke-width:0.5;" width="383" x="103.38" y="681"/><ellipse cx="199.88" cy="698.5781" fill="#ADD1B2" rx="12" ry="12" style="stroke:#181818;stroke-width:1.0;"/><path d="M202.0206,693.5 Q202.2081,693.25 202.4269,693.125 Q202.6456,692.9844 202.8956,692.9844 Q203.3331,692.9844 203.6144,693.2969 Q203.8956,693.5938 203.8956,694.3125 L203.8956,696.0156 Q203.8956,696.7344 203.6144,697.0469 Q203.3331,697.3594 202.8956,697.3594 Q202.505,697.3594 202.255,697.125 Q202.005,696.9063 201.8956,696.2969 Q201.8331,695.875 201.6144,695.6563 Q201.2238,695.2188 200.505,694.9531 Q199.7863,694.6875 199.0675,694.6875 Q198.1613,694.6875 197.4113,695.0781 Q196.6613,695.4688 196.0831,696.3594 Q195.505,697.2344 195.505,698.4375 L195.505,699.7344 Q195.505,701.1875 196.5519,702.1563 Q197.6144,703.125 199.4738,703.125 Q200.5831,703.125 201.3644,702.8125 Q201.8019,702.6406 202.3175,702.125 Q202.63,701.8125 202.8019,701.7188 Q202.9738,701.625 203.2081,701.625 Q203.5988,701.625 203.8956,701.9375 Q204.2081,702.2344 204.2081,702.6406 Q204.2081,703.0469 203.8019,703.5156 Q203.2081,704.2031 202.2706,704.5938 Q201.005,705.125 199.4894,705.125 Q197.7081,705.125 196.2863,704.3906 Q195.13,703.7969 194.3175,702.5313 Q193.505,701.2656 193.505,699.7813 L193.505,698.4219 Q193.505,696.8594 194.2238,695.5156 Q194.9581,694.1563 196.2394,693.4219 Q197.5363,692.6875 198.9894,692.6875 Q199.8488,692.6875 200.5988,692.8906 Q201.3644,693.0938 202.0206,693.5 Z " fill="#000000"/><text fill="#000000" font-family="sans-serif" font-size="20" lengthAdjust="spacing" textLength="181" x="221.88" y="706.7617">Properties_By_Price</text><line style="stroke:#4169E1;stroke-width:0.5;" x1="104.38" x2="485.38" y1="716.1563" y2="716.1563"/><line style="stroke:#4169E1;stroke-width:0.5;" x1="104.38" x2="485.38" y1="724.1563" y2="724.1563"/><text fill="#000000" font-family="sans-serif" font-size="20" lengthAdjust="spacing" textLength="371" x="109.38" y="748.918">+compare(price1:double,price2:double):int</text></g><!--class Properties_By_City--><g id="elem_Properties_By_City"><rect codeLine="65" fill="#FFDAB9" height="76.3125" id="Properties_By_City" rx="2.5" ry="2.5" style="stroke:#4169E1;stroke-width:0.5;" width="389" x="521.38" y="681"/><ellipse cx="626.38" cy="698.5781" fill="#ADD1B2" rx="12" ry="12" style="stroke:#181818;stroke-width:1.0;"/><path d="M628.5206,693.5 Q628.7081,693.25 628.9269,693.125 Q629.1456,692.9844 629.3956,692.9844 Q629.8331,692.9844 630.1144,693.2969 Q630.3956,693.5938 630.3956,694.3125 L630.3956,696.0156 Q630.3956,696.7344 630.1144,697.0469 Q629.8331,697.3594 629.3956,697.3594 Q629.005,697.3594 628.755,697.125 Q628.505,696.9063 628.3956,696.2969 Q628.3331,695.875 628.1144,695.6563 Q627.7238,695.2188 627.005,694.9531 Q626.2863,694.6875 625.5675,694.6875 Q624.6613,694.6875 623.9113,695.0781 Q623.1613,695.4688 622.5831,696.3594 Q622.005,697.2344 622.005,698.4375 L622.005,699.7344 Q622.005,701.1875 623.0519,702.1563 Q624.1144,703.125 625.9738,703.125 Q627.0831,703.125 627.8644,702.8125 Q628.3019,702.6406 628.8175,702.125 Q629.13,701.8125 629.3019,701.7188 Q629.4738,701.625 629.7081,701.625 Q630.0988,701.625 630.3956,701.9375 Q630.7081,702.2344 630.7081,702.6406 Q630.7081,703.0469 630.3019,703.5156 Q629.7081,704.2031 628.7706,704.5938 Q627.505,705.125 625.9894,705.125 Q624.2081,705.125 622.7863,704.3906 Q621.63,703.7969 620.8175,702.5313 Q620.005,701.2656 620.005,699.7813 L620.005,698.4219 Q620.005,696.8594 620.7238,695.5156 Q621.4581,694.1563 622.7394,693.4219 Q624.0363,692.6875 625.4894,692.6875 Q626.3488,692.6875 627.0988,692.8906 Q627.8644,693.0938 628.5206,693.5 Z " fill="#000000"/><text fill="#000000" font-family="sans-serif" font-size="20" lengthAdjust="spacing" textLength="170" x="648.38" y="706.7617">Properties_By_City</text><line style="stroke:#4169E1;stroke-width:0.5;" x1="522.38" x2="909.38" y1="716.1563" y2="716.1563"/><line style="stroke:#4169E1;stroke-width:0.5;" x1="522.38" x2="909.38" y1="724.1563" y2="724.1563"/><text fill="#000000" font-family="sans-serif" font-size="20" lengthAdjust="spacing" textLength="377" x="527.38" y="748.918">+compare(parish1:String,parish2:String):int</text></g><!--reverse link Property to Land--><g id="link_Property_Land"><path codeLine="72" d="M491.35,1015.12 C485.08,1058.56 478.4,1104.83 474.44,1132.3 " fill="none" id="Property-backto-Land" style="stroke:#4169E1;stroke-width:1.0;"/><polygon fill="none" points="484.45,1013.91,494.23,995.11,498.31,1015.91,484.45,1013.91" style="stroke:#4169E1;stroke-width:1.0;"/><text fill="#000000" font-family="sans-serif" font-size="20" lengthAdjust="spacing" textLength="31" x="489.88" y="1046.7617">is a</text></g><!--reverse link Property to Home--><g id="link_Property_Home"><path codeLine="73" d="M595.27,1010.56 C615.69,1034.36 637.03,1059.25 656.21,1081.61 " fill="none" id="Property-backto-Home" style="stroke:#4169E1;stroke-width:1.0;"/><polygon fill="none" points="589.73,1014.85,582.02,995.11,600.36,1005.74,589.73,1014.85" style="stroke:#4169E1;stroke-width:1.0;"/><text fill="#000000" font-family="sans-serif" font-size="20" lengthAdjust="spacing" textLength="31" x="627.88" y="1046.7617">is a</text></g><!--reverse link Home to Apartment--><g id="link_Home_Apartment"><path codeLine="74" d="M677.68,1252.23 C659.67,1291.13 640.19,1333.16 628.27,1358.91 " fill="none" id="Home-backto-Apartment" style="stroke:#4169E1;stroke-width:1.0;"/><polygon fill="none" points="671.34,1249.27,686.1,1234.07,684.04,1255.16,671.34,1249.27" style="stroke:#4169E1;stroke-width:1.0;"/><text fill="#000000" font-family="sans-serif" font-size="20" lengthAdjust="spacing" textLength="31" x="673.88" y="1285.7617">is a</text></g><!--reverse link Home to House--><g id="link_Home_House"><path codeLine="75" d="M764.09,1252.29 C774.8,1275.4 786.01,1299.61 795.86,1320.86 " fill="none" id="Home-backto-House" style="stroke:#4169E1;stroke-width:1.0;"/><polygon fill="none" points="757.71,1255.16,755.65,1234.07,770.41,1249.27,757.71,1255.16" style="stroke:#4169E1;stroke-width:1.0;"/><text fill="#000000" font-family="sans-serif" font-size="20" lengthAdjust="spacing" textLength="31" x="779.88" y="1285.7617">is a</text></g><!--link UI to CONTROL--><g id="link_UI_CONTROL"><path codeLine="77" d="M680.88,58.26 C680.88,73.71 680.88,94.23 680.88,113.37 " fill="none" id="UI-to-CONTROL" style="stroke:#4169E1;stroke-width:1.0;stroke-dasharray:7.0,7.0;"/><polygon fill="#4169E1" points="680.88,118.73,684.88,109.73,680.88,113.73,676.88,109.73,680.88,118.73" style="stroke:#4169E1;stroke-width:1.0;"/></g><!--link CONTROL to Repositories--><g id="link_CONTROL_Repositories"><path codeLine="78" d="M626.46,220.25 C606.63,238.38 584.13,258.95 563.99,277.37 " fill="none" id="CONTROL-to-Repositories" style="stroke:#4169E1;stroke-width:1.0;stroke-dasharray:7.0,7.0;"/><polygon fill="#4169E1" points="560.25,280.78,569.5906,277.6569,563.9393,277.4053,564.191,271.754,560.25,280.78" style="stroke:#4169E1;stroke-width:1.0;"/></g><!--link Repositories to PROP_REP--><g id="link_Repositories_PROP_REP"><path codeLine="79" d="M505.88,382.21 C505.88,399.07 505.88,418.48 505.88,437.6 " fill="none" id="Repositories-to-PROP_REP" style="stroke:#4169E1;stroke-width:1.0;"/><polygon fill="#4169E1" points="505.88,442.98,509.88,433.98,505.88,437.98,501.88,433.98,505.88,442.98" style="stroke:#4169E1;stroke-width:1.0;"/></g><!--link CONTROL to Property--><g id="link_CONTROL_Property"><path codeLine="80" d="M881.64,220.02 C927.92,243.88 963.88,279 963.88,330.5 C963.88,330.5 963.88,330.5 963.88,720 C963.88,787.1 792.57,841.57 659.72,873.73 " fill="none" id="CONTROL-to-Property" style="stroke:#4169E1;stroke-width:1.0;stroke-dasharray:7.0,7.0;"/><polygon fill="#4169E1" points="654.62,874.95,664.3058,876.7349,659.4814,873.781,662.4353,868.9566,654.62,874.95" style="stroke:#4169E1;stroke-width:1.0;"/></g><!--link PROP_REP to Property--><g id="link_PROP_REP_Property"><path codeLine="81" d="M360.64,554.04 C209.76,582.91 6,644.12 85.88,757 C146.35,842.46 260.23,879.08 354.31,894.6 " fill="none" id="PROP_REP-to-Property" style="stroke:#4169E1;stroke-width:1.0;"/><polygon fill="#4169E1" points="359.34,895.42,351.0947,890.0334,354.4042,894.6211,349.8165,897.9307,359.34,895.42" style="stroke:#4169E1;stroke-width:1.0;"/></g><!--link CONTROL to PROP_REP--><g id="link_CONTROL_PROP_REP"><path codeLine="82" d="M680.4,220.43 C678.16,264.94 670.28,330.78 644.88,382 C634.95,402 621.46,421.18 606.75,438.72 " fill="none" id="CONTROL-to-PROP_REP" style="stroke:#4169E1;stroke-width:1.0;stroke-dasharray:7.0,7.0;"/><polygon fill="#4169E1" points="603.4,442.67,612.2677,438.3848,606.6304,438.8536,606.1615,433.2162,603.4,442.67" style="stroke:#4169E1;stroke-width:1.0;"/></g><!--link PROP_REP to Properties_By_City--><g id="link_PROP_REP_Properties_By_City"><path codeLine="85" d="M605.03,620.09 C627.73,640.14 650.8,660.52 669.97,677.45 " fill="none" id="PROP_REP-to-Properties_By_City" style="stroke:#4169E1;stroke-width:1.0;stroke-dasharray:7.0,7.0;"/><polygon fill="#4169E1" points="673.75,680.79,669.6638,671.8288,670.0067,677.4753,664.3602,677.8182,673.75,680.79" style="stroke:#4169E1;stroke-width:1.0;"/><text fill="#000000" font-family="sans-serif" font-size="20" lengthAdjust="spacing" textLength="11" x="601.2001" y="648.5998">1</text><text fill="#000000" font-family="sans-serif" font-size="20" lengthAdjust="spacing" textLength="11" x="655.159" y="668.4574">1</text></g><!--link PROP_REP to Properties_By_Price--><g id="link_PROP_REP_Properties_By_Price"><path codeLine="86" d="M406.25,620.09 C383.44,640.14 360.26,660.52 341,677.45 " fill="none" id="PROP_REP-to-Properties_By_Price" style="stroke:#4169E1;stroke-width:1.0;stroke-dasharray:7.0,7.0;"/><polygon fill="#4169E1" points="337.2,680.79,346.6017,677.8561,340.9567,677.4904,341.3224,671.8454,337.2,680.79" style="stroke:#4169E1;stroke-width:1.0;"/><text fill="#000000" font-family="sans-serif" font-size="20" lengthAdjust="spacing" textLength="11" x="387.201" y="648.5998">1</text><text fill="#000000" font-family="sans-serif" font-size="20" lengthAdjust="spacing" textLength="11" x="332.0682" y="668.4574">1</text></g><!--SRC=[XLHDRzim3BthLmYvD4MROCqn60eqMOi6o1eZQSu5RTEsK4No97cTr-s_Z_wAbTJeTB11lYUI8fzaNuNAmS11wkWLOnvZ0eLq3rgvdVYDVFQ5NTYEmmzQwIWp-e3ScG9PZ-GGlKAAErTAv0OZ1ogLFi5c4EiteLAUWBJeHvL2eIjpvDguJBCBYOdZJdCZqipnM5JXX5PUi4Y2jNVE6H4M3bUHLdMnLEkaMm-22h5K3gKyEiz3y7V6QIse-DJeGiLBBRNX0KAK1KMIrEYTCVgj0RQw1BcGTF9wcpOncdFaBsDDxD5eBQmBZCxHE85slnfni7o_6iANr72ZfKHJavQRf-VjPltEhavZzBHnwopD5dDjXTEcl6HNDjDlFNryIUKqsOuiSbFO5Dr00E9No4fPcb-4tlRH0BkkDDXkWfVjVN0Iat8iocSQwRYQAmLDX7HeMfzdVqEGllrK748qcsG1BakCrWSxY6BSOLMx6OJM6OXSEzIkr7gu4nxh8YGjW45OgU-pUdG-48lcj0-awwLmvH8LPUjfD7yegp7mhpjId4flUPvff_VRTKzg45uTjqllHOXZWrGOD7_MQsGDAdvdnoxVaJRTWV9xlaTTM6nqEk6XrX91yH0iLhmkXmS9bK4e7D3HrZhn6MsDjb3tlsY6XQd5UjQyn-foj-c4SboTzRoFTuBIl3w10p1qyT8TlHBOCmOQ2pz1oAhq-n-5oEiJTdtefVMoA5y28oBgobMa3zGp7EULVJDlHdfTMxFMkfnJAUm2R8GghXf0rpN6pkfdSPgWKe8V7uomsSsyAVIwCMUjsMQedeC31vb0Y4v4K6kpVv6ybQ6X2QKuXB5f9o3-zSzamgULHlYS2zBF1woULeVLHkC_2ca8h1NL0OFrVRROViMdqzlkYMBjl_RvZmpp3JwPt7OlXRU3jXnlImTFAchdz8CVzxCZTtGp8eI-7sVtFquje7y0]--></g></svg>