<?xml version="1.0" encoding="UTF-8" standalone="no"?><svg xmlns="http://www.w3.org/2000/svg" xmlns:xlink="http://www.w3.org/1999/xlink" contentStyleType="text/css" height="805px" preserveAspectRatio="none" style="width:842px;height:805px;background:#FFFFFF;" version="1.1" viewBox="0 0 842 805" width="842px" zoomAndPan="magnify"><defs/><g><rect fill="#FFFFFF" height="587.4219" style="stroke:#181818;stroke-width:1.0;" width="10" x="58" y="98.2813"/><rect fill="#FFFFFF" height="37.2813" style="stroke:#181818;stroke-width:1.0;" width="10" x="764" y="127.5625"/><rect fill="#FFFFFF" height="37.2813" style="stroke:#181818;stroke-width:1.0;" width="10" x="764" y="269.1484"/><rect fill="#FFFFFF" height="37.2813" style="stroke:#181818;stroke-width:1.0;" width="10" x="764" y="343.7109"/><rect fill="#FFFFFF" height="37.2813" style="stroke:#181818;stroke-width:1.0;" width="10" x="764" y="418.2734"/><rect fill="#FFFFFF" height="37.2813" style="stroke:#181818;stroke-width:1.0;" width="10" x="764" y="573.8594"/><rect fill="#FFFFFF" height="37.2813" style="stroke:#181818;stroke-width:1.0;" width="10" x="764" y="648.4219"/><rect fill="none" height="290.7109" style="stroke:#000000;stroke-width:1.5;" width="826.5" x="10" y="179.8438"/><rect fill="none" height="248.9688" style="stroke:#000000;stroke-width:1.5;" width="806.5" x="20" y="214.5859"/><rect fill="none" height="216.1484" style="stroke:#000000;stroke-width:1.5;" width="826.5" x="10" y="484.5547"/><rect fill="none" height="174.4063" style="stroke:#000000;stroke-width:1.5;" width="806.5" x="20" y="519.2969"/><line style="stroke:#181818;stroke-width:0.5;stroke-dasharray:5.0,5.0;" x1="63" x2="63" y1="88.2813" y2="717.7031"/><line style="stroke:#181818;stroke-width:0.5;stroke-dasharray:5.0,5.0;" x1="768.5" x2="768.5" y1="88.2813" y2="717.7031"/><text fill="#000000" font-family="sans-serif" font-size="20" lengthAdjust="spacing" textLength="60" x="30" y="83.5645">Agent</text><ellipse cx="63" cy="13.5" fill="#E2E2F0" rx="8" ry="8" style="stroke:#181818;stroke-width:0.5;"/><path d="M63,21.5 L63,48.5 M50,29.5 L76,29.5 M63,48.5 L50,63.5 M63,48.5 L76,63.5 " fill="none" style="stroke:#181818;stroke-width:0.5;"/><text fill="#000000" font-family="sans-serif" font-size="20" lengthAdjust="spacing" textLength="60" x="30" y="735.2676">Agent</text><ellipse cx="63" cy="748.4844" fill="#E2E2F0" rx="8" ry="8" style="stroke:#181818;stroke-width:0.5;"/><path d="M63,756.4844 L63,783.4844 M50,764.4844 L76,764.4844 M63,783.4844 L50,798.4844 M63,783.4844 L76,798.4844 " fill="none" style="stroke:#181818;stroke-width:0.5;"/><rect fill="#E2E2F0" height="37.2813" rx="2.5" ry="2.5" style="stroke:#181818;stroke-width:0.5;" width="95" x="721.5" y="50"/><text fill="#000000" font-family="sans-serif" font-size="20" lengthAdjust="spacing" textLength="81" x="728.5" y="75.5645">:System</text><rect fill="#E2E2F0" height="37.2813" rx="2.5" ry="2.5" style="stroke:#181818;stroke-width:0.5;" width="95" x="721.5" y="716.7031"/><text fill="#000000" font-family="sans-serif" font-size="20" lengthAdjust="spacing" textLength="81" x="728.5" y="742.2676">:System</text><rect fill="#FFFFFF" height="587.4219" style="stroke:#181818;stroke-width:1.0;" width="10" x="58" y="98.2813"/><rect fill="#FFFFFF" height="37.2813" style="stroke:#181818;stroke-width:1.0;" width="10" x="764" y="127.5625"/><rect fill="#FFFFFF" height="37.2813" style="stroke:#181818;stroke-width:1.0;" width="10" x="764" y="269.1484"/><rect fill="#FFFFFF" height="37.2813" style="stroke:#181818;stroke-width:1.0;" width="10" x="764" y="343.7109"/><rect fill="#FFFFFF" height="37.2813" style="stroke:#181818;stroke-width:1.0;" width="10" x="764" y="418.2734"/><rect fill="#FFFFFF" height="37.2813" style="stroke:#181818;stroke-width:1.0;" width="10" x="764" y="573.8594"/><rect fill="#FFFFFF" height="37.2813" style="stroke:#181818;stroke-width:1.0;" width="10" x="764" y="648.4219"/><polygon fill="#181818" points="752,123.5625,762,127.5625,752,131.5625,756,127.5625" style="stroke:#181818;stroke-width:1.0;"/><line style="stroke:#181818;stroke-width:1.0;" x1="68" x2="758" y1="127.5625" y2="127.5625"/><text fill="#000000" font-family="sans-serif" font-size="20" font-weight="bold" lengthAdjust="spacing" textLength="14" x="75" y="120.8457">1</text><text fill="#000000" font-family="sans-serif" font-size="20" lengthAdjust="spacing" textLength="475" x="93" y="120.8457">asks to see the  list of property announcements</text><polygon fill="#181818" points="79,160.8438,69,164.8438,79,168.8438,75,164.8438" style="stroke:#181818;stroke-width:1.0;"/><line style="stroke:#181818;stroke-width:1.0;stroke-dasharray:2.0,2.0;" x1="73" x2="768" y1="164.8438" y2="164.8438"/><text fill="#000000" font-family="sans-serif" font-size="20" font-weight="bold" lengthAdjust="spacing" textLength="14" x="85" y="158.127">2</text><text fill="#000000" font-family="sans-serif" font-size="20" lengthAdjust="spacing" textLength="654" x="103" y="158.127">shows the list of property announcements, firstly the most recent</text><path d="M10,179.8438 L93,179.8438 L93,195.125 L83,205.125 L10,205.125 L10,179.8438 " fill="#EEEEEE" style="stroke:#000000;stroke-width:1.5;"/><rect fill="none" height="290.7109" style="stroke:#000000;stroke-width:1.5;" width="826.5" x="10" y="179.8438"/><text fill="#008000" font-family="sans-serif" font-size="20" font-weight="bold" lengthAdjust="spacing" textLength="38" x="25" y="199.4082">opt</text><text fill="#0000FF" font-family="sans-serif" font-size="15" font-weight="bold" lengthAdjust="spacing" textLength="380" x="108" y="195.7671">[The agent wants to post one of the requests]</text><path d="M20,214.5859 L114,214.5859 L114,229.8672 L104,239.8672 L20,239.8672 L20,214.5859 " fill="#EEEEEE" style="stroke:#000000;stroke-width:1.5;"/><rect fill="none" height="248.9688" style="stroke:#000000;stroke-width:1.5;" width="806.5" x="20" y="214.5859"/><text fill="#008000" font-family="sans-serif" font-size="20" font-weight="bold" lengthAdjust="spacing" textLength="49" x="35" y="234.1504">loop</text><polygon fill="#181818" points="752,265.1484,762,269.1484,752,273.1484,756,269.1484" style="stroke:#181818;stroke-width:1.0;"/><line style="stroke:#181818;stroke-width:1.0;" x1="68" x2="758" y1="269.1484" y2="269.1484"/><text fill="#000000" font-family="sans-serif" font-size="20" font-weight="bold" lengthAdjust="spacing" textLength="14" x="75" y="262.4316">3</text><text fill="#000000" font-family="sans-serif" font-size="20" lengthAdjust="spacing" textLength="219" x="93" y="262.4316">asks to post a request</text><polygon fill="#181818" points="79,302.4297,69,306.4297,79,310.4297,75,306.4297" style="stroke:#181818;stroke-width:1.0;"/><line style="stroke:#181818;stroke-width:1.0;stroke-dasharray:2.0,2.0;" x1="73" x2="768" y1="306.4297" y2="306.4297"/><text fill="#000000" font-family="sans-serif" font-size="20" font-weight="bold" lengthAdjust="spacing" textLength="14" x="85" y="299.7129">4</text><text fill="#000000" font-family="sans-serif" font-size="20" lengthAdjust="spacing" textLength="447" x="103" y="299.7129">shows the request list and asks to select one</text><polygon fill="#181818" points="752,339.7109,762,343.7109,752,347.7109,756,343.7109" style="stroke:#181818;stroke-width:1.0;"/><line style="stroke:#181818;stroke-width:1.0;" x1="68" x2="758" y1="343.7109" y2="343.7109"/><text fill="#000000" font-family="sans-serif" font-size="20" font-weight="bold" lengthAdjust="spacing" textLength="14" x="75" y="336.9941">5</text><text fill="#000000" font-family="sans-serif" font-size="20" lengthAdjust="spacing" textLength="269" x="93" y="336.9941">choose one of the requests</text><polygon fill="#181818" points="79,376.9922,69,380.9922,79,384.9922,75,380.9922" style="stroke:#181818;stroke-width:1.0;"/><line style="stroke:#181818;stroke-width:1.0;stroke-dasharray:2.0,2.0;" x1="73" x2="768" y1="380.9922" y2="380.9922"/><text fill="#000000" font-family="sans-serif" font-size="20" font-weight="bold" lengthAdjust="spacing" textLength="14" x="85" y="374.2754">6</text><text fill="#000000" font-family="sans-serif" font-size="20" lengthAdjust="spacing" textLength="524" x="103" y="374.2754">asks for confirmation to publish the property chosen</text><polygon fill="#181818" points="752,414.2734,762,418.2734,752,422.2734,756,418.2734" style="stroke:#181818;stroke-width:1.0;"/><line style="stroke:#181818;stroke-width:1.0;" x1="68" x2="758" y1="418.2734" y2="418.2734"/><text fill="#000000" font-family="sans-serif" font-size="20" font-weight="bold" lengthAdjust="spacing" textLength="14" x="75" y="411.5566">7</text><text fill="#000000" font-family="sans-serif" font-size="20" lengthAdjust="spacing" textLength="180" x="93" y="411.5566">Confirms the data</text><polygon fill="#181818" points="79,451.5547,69,455.5547,79,459.5547,75,455.5547" style="stroke:#181818;stroke-width:1.0;"/><line style="stroke:#181818;stroke-width:1.0;" x1="73" x2="768" y1="455.5547" y2="455.5547"/><text fill="#000000" font-family="sans-serif" font-size="20" font-weight="bold" lengthAdjust="spacing" textLength="14" x="85" y="448.8379">8</text><text fill="#000000" font-family="sans-serif" font-size="20" lengthAdjust="spacing" textLength="261" x="103" y="448.8379">informs operation success</text><path d="M10,484.5547 L93,484.5547 L93,499.8359 L83,509.8359 L10,509.8359 L10,484.5547 " fill="#EEEEEE" style="stroke:#000000;stroke-width:1.5;"/><rect fill="none" height="216.1484" style="stroke:#000000;stroke-width:1.5;" width="826.5" x="10" y="484.5547"/><text fill="#008000" font-family="sans-serif" font-size="20" font-weight="bold" lengthAdjust="spacing" textLength="38" x="25" y="504.1191">opt</text><text fill="#0000FF" font-family="sans-serif" font-size="15" font-weight="bold" lengthAdjust="spacing" textLength="395" x="108" y="500.478">[The agent wants to delete one of the requests]</text><path d="M20,519.2969 L114,519.2969 L114,534.5781 L104,544.5781 L20,544.5781 L20,519.2969 " fill="#EEEEEE" style="stroke:#000000;stroke-width:1.5;"/><rect fill="none" height="174.4063" style="stroke:#000000;stroke-width:1.5;" width="806.5" x="20" y="519.2969"/><text fill="#008000" font-family="sans-serif" font-size="20" font-weight="bold" lengthAdjust="spacing" textLength="49" x="35" y="538.8613">loop</text><polygon fill="#181818" points="752,569.8594,762,573.8594,752,577.8594,756,573.8594" style="stroke:#181818;stroke-width:1.0;"/><line style="stroke:#181818;stroke-width:1.0;" x1="68" x2="758" y1="573.8594" y2="573.8594"/><text fill="#000000" font-family="sans-serif" font-size="20" font-weight="bold" lengthAdjust="spacing" textLength="14" x="75" y="567.1426">9</text><text fill="#000000" font-family="sans-serif" font-size="20" lengthAdjust="spacing" textLength="486" x="93" y="567.1426">asks to delete one of the announcement request</text><polygon fill="#181818" points="79,607.1406,69,611.1406,79,615.1406,75,611.1406" style="stroke:#181818;stroke-width:1.0;"/><line style="stroke:#181818;stroke-width:1.0;" x1="73" x2="768" y1="611.1406" y2="611.1406"/><text fill="#000000" font-family="sans-serif" font-size="20" font-weight="bold" lengthAdjust="spacing" textLength="28" x="85" y="604.4238">10</text><text fill="#000000" font-family="sans-serif" font-size="20" lengthAdjust="spacing" textLength="451" x="117" y="604.4238">shows the request list and asks to delete one</text><polygon fill="#181818" points="752,644.4219,762,648.4219,752,652.4219,756,648.4219" style="stroke:#181818;stroke-width:1.0;"/><line style="stroke:#181818;stroke-width:1.0;" x1="68" x2="758" y1="648.4219" y2="648.4219"/><text fill="#000000" font-family="sans-serif" font-size="20" font-weight="bold" lengthAdjust="spacing" textLength="28" x="75" y="641.7051">11</text><text fill="#000000" font-family="sans-serif" font-size="20" lengthAdjust="spacing" textLength="374" x="107" y="641.7051">chooses one of the requests to delete</text><polygon fill="#181818" points="74,681.7031,64,685.7031,74,689.7031,70,685.7031" style="stroke:#181818;stroke-width:1.0;"/><line style="stroke:#181818;stroke-width:1.0;" x1="68" x2="768" y1="685.7031" y2="685.7031"/><text fill="#000000" font-family="sans-serif" font-size="20" font-weight="bold" lengthAdjust="spacing" textLength="28" x="80" y="678.9863">12</text><text fill="#000000" font-family="sans-serif" font-size="20" lengthAdjust="spacing" textLength="250" x="112" y="678.9863">informs operation sucess</text><!--SRC=[dLD1Zfj04BppYfRFMIc9j1SV8bahnRax7sWF3OmyJ9FfPYtdzMa6lA04d4qEI8Yfggwg7kJYOuS9sy3kGYMKL64Vz2j7FVcV19y_5dA7GCkHNPEu9QWm22sEEdGNhEcajq2Go2d6EYm1qc39Ln_hYLeipaxqewVew9YuxxuHbfG60oySE46TYE8MU8QTGq-FK3dDf-UYm5uvzksPahqxDUhkK5FK7Q30uLWONxtp7KQ5tVvq4wKsduslcUHVKMa05uSZF7sPZc1li8k0CWWHQ4C0mOi2Lz0bxYZf3J16xirOQoDbrhgBJqfF9chIUwkDhvAb7YjzWCedqN3Bs9ODQrkmawAatuTmf_3TK3Z4Xgi5pPwxWSIHXY63I1eg53CPcBkje9c4T-o_v9aeOowCvQAxOFTdSBBYVVJnPiCrp4AhhXzOoKxokChMxpXQTosgvvWZzMVpr6Irjx9jaDWrt38q5_CogeqPIrJSDZ9LugEvCC8mQJGXlNCaiZADOfcVhHsMrftI-xOuB_5Frl9k_MsvOv_lMEmyPht7POtZOcKjoIprVzMkDxluOl_rrFCl]--></g></svg>