<?xml version="1.0" encoding="UTF-8" standalone="no"?><svg xmlns="http://www.w3.org/2000/svg" xmlns:xlink="http://www.w3.org/1999/xlink" contentStyleType="text/css" height="1480px" preserveAspectRatio="none" style="width:2517px;height:1480px;background:#FFFFFF;" version="1.1" viewBox="0 0 2517 1480" width="2517px" zoomAndPan="magnify"><defs/><g><rect fill="#FFFFFF" height="1272.6875" style="stroke:#181818;stroke-width:1.0;" width="10" x="81.5" y="100.1563"/><rect fill="#FFFFFF" height="147.4688" style="stroke:#181818;stroke-width:1.0;" width="10" x="456.5" y="131.3125"/><rect fill="#FFFFFF" height="39.1563" style="stroke:#181818;stroke-width:1.0;" width="10" x="456.5" y="762.5"/><rect fill="#FFFFFF" height="117.4688" style="stroke:#181818;stroke-width:1.0;" width="10" x="456.5" y="1255.375"/><rect fill="#FFFFFF" height="69.1563" style="stroke:#181818;stroke-width:1.0;" width="10" x="835.5" y="248.7813"/><rect fill="#FFFFFF" height="584.1875" style="stroke:#181818;stroke-width:1.0;" width="10" x="835.5" y="671.1875"/><rect fill="#FFFFFF" height="69.1563" style="stroke:#181818;stroke-width:1.0;" width="10" x="1295.5" y="317.9375"/><rect fill="#FFFFFF" height="314.0938" style="stroke:#181818;stroke-width:1.0;" width="10" x="1562" y="357.0938"/><rect fill="#FFFFFF" height="244.9375" style="stroke:#181818;stroke-width:1.0;" width="10" x="1869" y="971.2813"/><rect fill="none" height="230.9375" style="stroke:#000000;stroke-width:1.5;" width="1088.5" x="1422.5" y="402.0938"/><rect fill="none" height="191.7813" style="stroke:#000000;stroke-width:1.5;" width="605" x="1764" y="986.2813"/><line style="stroke:#181818;stroke-width:0.5;stroke-dasharray:5.0,5.0;" x1="86" x2="86" y1="90.1563" y2="1390.8438"/><line style="stroke:#181818;stroke-width:0.5;stroke-dasharray:5.0,5.0;" x1="461.5" x2="461.5" y1="90.1563" y2="1390.8438"/><line style="stroke:#181818;stroke-width:0.5;stroke-dasharray:5.0,5.0;" x1="840" x2="840" y1="90.1563" y2="1390.8438"/><line style="stroke:#181818;stroke-width:0.5;stroke-dasharray:5.0,5.0;" x1="1090.5" x2="1090.5" y1="90.1563" y2="1390.8438"/><line style="stroke:#181818;stroke-width:0.5;stroke-dasharray:5.0,5.0;" x1="1300.5" x2="1300.5" y1="90.1563" y2="1390.8438"/><line style="stroke:#181818;stroke-width:0.5;stroke-dasharray:5.0,5.0;" x1="1566.5" x2="1566.5" y1="90.1563" y2="1390.8438"/><line style="stroke:#181818;stroke-width:0.5;stroke-dasharray:5.0,5.0;" x1="1874" x2="1874" y1="90.1563" y2="1390.8438"/><line style="stroke:#181818;stroke-width:0.5;stroke-dasharray:5.0,5.0;" x1="2272" x2="2272" y1="1058.6719" y2="1390.8438"/><line style="stroke:#181818;stroke-width:0.5;stroke-dasharray:5.0,5.0;" x1="2435" x2="2435" y1="578.7969" y2="1390.8438"/><text fill="#000000" font-family="sans-serif" font-size="20" lengthAdjust="spacing" textLength="157" x="5" y="85.7617">Network Manager</text><ellipse cx="86.5" cy="13.5" fill="#E3E3E3" rx="8" ry="8" style="stroke:#181818;stroke-width:0.5;"/><path d="M86.5,21.5 L86.5,48.5 M73.5,29.5 L99.5,29.5 M86.5,48.5 L73.5,63.5 M86.5,48.5 L99.5,63.5 " fill="none" style="stroke:#181818;stroke-width:0.5;"/><text fill="#000000" font-family="sans-serif" font-size="20" lengthAdjust="spacing" textLength="157" x="5" y="1410.6055">Network Manager</text><ellipse cx="86.5" cy="1423.5" fill="#E3E3E3" rx="8" ry="8" style="stroke:#181818;stroke-width:0.5;"/><path d="M86.5,1431.5 L86.5,1458.5 M73.5,1439.5 L99.5,1439.5 M86.5,1458.5 L73.5,1473.5 M86.5,1458.5 L99.5,1473.5 " fill="none" style="stroke:#181818;stroke-width:0.5;"/><rect fill="#E3E3E3" height="39.1563" rx="2.5" ry="2.5" style="stroke:#181818;stroke-width:0.5;" width="120" x="401.5" y="50"/><text fill="#000000" font-family="sans-serif" font-size="20" lengthAdjust="spacing" textLength="106" x="408.5" y="77.7617">ListDealGUI</text><rect fill="#E3E3E3" height="39.1563" rx="2.5" ry="2.5" style="stroke:#181818;stroke-width:0.5;" width="120" x="401.5" y="1389.8438"/><text fill="#000000" font-family="sans-serif" font-size="20" lengthAdjust="spacing" textLength="106" x="408.5" y="1417.6055">ListDealGUI</text><rect fill="#E3E3E3" height="39.1563" rx="2.5" ry="2.5" style="stroke:#181818;stroke-width:0.5;" width="205" x="738" y="50"/><text fill="#000000" font-family="sans-serif" font-size="20" lengthAdjust="spacing" textLength="191" x="745" y="77.7617">ListDealGUIController</text><rect fill="#E3E3E3" height="39.1563" rx="2.5" ry="2.5" style="stroke:#181818;stroke-width:0.5;" width="205" x="738" y="1389.8438"/><text fill="#000000" font-family="sans-serif" font-size="20" lengthAdjust="spacing" textLength="191" x="745" y="1417.6055">ListDealGUIController</text><rect fill="#E3E3E3" height="39.1563" rx="2.5" ry="2.5" style="stroke:#181818;stroke-width:0.5;" width="156" x="1012.5" y="50"/><text fill="#000000" font-family="sans-serif" font-size="20" lengthAdjust="spacing" textLength="142" x="1019.5" y="77.7617">SortDealByArea</text><rect fill="#E3E3E3" height="39.1563" rx="2.5" ry="2.5" style="stroke:#181818;stroke-width:0.5;" width="156" x="1012.5" y="1389.8438"/><text fill="#000000" font-family="sans-serif" font-size="20" lengthAdjust="spacing" textLength="142" x="1019.5" y="1417.6055">SortDealByArea</text><rect fill="#E3E3E3" height="39.1563" rx="2.5" ry="2.5" style="stroke:#181818;stroke-width:0.5;" width="244" x="1178.5" y="50"/><text fill="#000000" font-family="sans-serif" font-size="20" lengthAdjust="spacing" textLength="230" x="1185.5" y="77.7617">ImportBussinessController</text><rect fill="#E3E3E3" height="39.1563" rx="2.5" ry="2.5" style="stroke:#181818;stroke-width:0.5;" width="244" x="1178.5" y="1389.8438"/><text fill="#000000" font-family="sans-serif" font-size="20" lengthAdjust="spacing" textLength="230" x="1185.5" y="1417.6055">ImportBussinessController</text><rect fill="#E3E3E3" height="39.1563" rx="2.5" ry="2.5" style="stroke:#181818;stroke-width:0.5;" width="269" x="1432.5" y="50"/><text fill="#000000" font-family="sans-serif" font-size="20" lengthAdjust="spacing" textLength="255" x="1439.5" y="77.7617">TransformFileInAnnoucement</text><rect fill="#E3E3E3" height="39.1563" rx="2.5" ry="2.5" style="stroke:#181818;stroke-width:0.5;" width="269" x="1432.5" y="1389.8438"/><text fill="#000000" font-family="sans-serif" font-size="20" lengthAdjust="spacing" textLength="255" x="1439.5" y="1417.6055">TransformFileInAnnoucement</text><rect fill="#E3E3E3" height="39.1563" rx="2.5" ry="2.5" style="stroke:#181818;stroke-width:0.5;" width="200" x="1774" y="50"/><text fill="#000000" font-family="sans-serif" font-size="20" lengthAdjust="spacing" textLength="186" x="1781" y="77.7617">AnnoucementMapper</text><rect fill="#E3E3E3" height="39.1563" rx="2.5" ry="2.5" style="stroke:#181818;stroke-width:0.5;" width="200" x="1774" y="1389.8438"/><text fill="#000000" font-family="sans-serif" font-size="20" lengthAdjust="spacing" textLength="186" x="1781" y="1417.6055">AnnoucementMapper</text><rect fill="#E3E3E3" height="39.1563" rx="2.5" ry="2.5" style="stroke:#181818;stroke-width:0.5;" width="174" x="2185" y="1389.8438"/><text fill="#000000" font-family="sans-serif" font-size="20" lengthAdjust="spacing" textLength="160" x="2192" y="1417.6055">AnnoucementDTO</text><rect fill="#E3E3E3" height="39.1563" rx="2.5" ry="2.5" style="stroke:#181818;stroke-width:0.5;" width="132" x="2369" y="1389.8438"/><text fill="#000000" font-family="sans-serif" font-size="20" lengthAdjust="spacing" textLength="118" x="2376" y="1417.6055">Annoucement</text><rect fill="#FFFFFF" height="1272.6875" style="stroke:#181818;stroke-width:1.0;" width="10" x="81.5" y="100.1563"/><rect fill="#FFFFFF" height="147.4688" style="stroke:#181818;stroke-width:1.0;" width="10" x="456.5" y="131.3125"/><rect fill="#FFFFFF" height="39.1563" style="stroke:#181818;stroke-width:1.0;" width="10" x="456.5" y="762.5"/><rect fill="#FFFFFF" height="117.4688" style="stroke:#181818;stroke-width:1.0;" width="10" x="456.5" y="1255.375"/><rect fill="#FFFFFF" height="69.1563" style="stroke:#181818;stroke-width:1.0;" width="10" x="835.5" y="248.7813"/><rect fill="#FFFFFF" height="584.1875" style="stroke:#181818;stroke-width:1.0;" width="10" x="835.5" y="671.1875"/><rect fill="#FFFFFF" height="69.1563" style="stroke:#181818;stroke-width:1.0;" width="10" x="1295.5" y="317.9375"/><rect fill="#FFFFFF" height="314.0938" style="stroke:#181818;stroke-width:1.0;" width="10" x="1562" y="357.0938"/><rect fill="#FFFFFF" height="244.9375" style="stroke:#181818;stroke-width:1.0;" width="10" x="1869" y="971.2813"/><polygon fill="#181818" points="444.5,127.3125,454.5,131.3125,444.5,135.3125,448.5,131.3125" style="stroke:#181818;stroke-width:1.0;"/><line style="stroke:#181818;stroke-width:1.0;" x1="91.5" x2="450.5" y1="131.3125" y2="131.3125"/><text fill="#000000" font-family="sans-serif" font-size="20" font-weight="bold" lengthAdjust="spacing" textLength="11" x="98.5" y="124.918">1</text><text fill="#000000" font-family="sans-serif" font-size="20" lengthAdjust="spacing" textLength="67" x="113.5" y="124.918">initialize</text><polygon fill="#181818" points="102.5,166.4688,92.5,170.4688,102.5,174.4688,98.5,170.4688" style="stroke:#181818;stroke-width:1.0;"/><line style="stroke:#181818;stroke-width:1.0;stroke-dasharray:2.0,2.0;" x1="96.5" x2="455.5" y1="170.4688" y2="170.4688"/><text fill="#000000" font-family="sans-serif" font-size="20" font-weight="bold" lengthAdjust="spacing" textLength="11" x="108.5" y="164.0742">2</text><text fill="#000000" font-family="sans-serif" font-size="20" lengthAdjust="spacing" textLength="165" x="123.5" y="164.0742">showFileChooser()</text><polygon fill="#181818" points="444.5,205.625,454.5,209.625,444.5,213.625,448.5,209.625" style="stroke:#181818;stroke-width:1.0;"/><line style="stroke:#181818;stroke-width:1.0;" x1="91.5" x2="450.5" y1="209.625" y2="209.625"/><text fill="#000000" font-family="sans-serif" font-size="20" font-weight="bold" lengthAdjust="spacing" textLength="11" x="98.5" y="203.2305">3</text><text fill="#000000" font-family="sans-serif" font-size="20" lengthAdjust="spacing" textLength="111" x="113.5" y="203.2305">choose a file</text><polygon fill="#181818" points="823.5,244.7813,833.5,248.7813,823.5,252.7813,827.5,248.7813" style="stroke:#181818;stroke-width:1.0;"/><line style="stroke:#181818;stroke-width:1.0;stroke-dasharray:2.0,2.0;" x1="466.5" x2="829.5" y1="248.7813" y2="248.7813"/><text fill="#000000" font-family="sans-serif" font-size="20" font-weight="bold" lengthAdjust="spacing" textLength="11" x="473.5" y="242.3867">4</text><text fill="#000000" font-family="sans-serif" font-size="20" lengthAdjust="spacing" textLength="105" x="488.5" y="242.3867">selectedFile</text><polygon fill="#181818" points="1283.5,313.9375,1293.5,317.9375,1283.5,321.9375,1287.5,317.9375" style="stroke:#181818;stroke-width:1.0;"/><line style="stroke:#181818;stroke-width:1.0;" x1="840.5" x2="1289.5" y1="317.9375" y2="317.9375"/><text fill="#000000" font-family="sans-serif" font-size="20" font-weight="bold" lengthAdjust="spacing" textLength="11" x="847.5" y="311.543">5</text><text fill="#000000" font-family="sans-serif" font-size="20" lengthAdjust="spacing" textLength="105" x="862.5" y="311.543">selectedFile</text><polygon fill="#181818" points="1550,353.0938,1560,357.0938,1550,361.0938,1554,357.0938" style="stroke:#181818;stroke-width:1.0;"/><line style="stroke:#181818;stroke-width:1.0;" x1="1305.5" x2="1556" y1="357.0938" y2="357.0938"/><text fill="#000000" font-family="sans-serif" font-size="20" font-weight="bold" lengthAdjust="spacing" textLength="11" x="1312.5" y="350.6992">6</text><text fill="#000000" font-family="sans-serif" font-size="20" lengthAdjust="spacing" textLength="114" x="1327.5" y="350.6992">String[][]data</text><path d="M1422.5,402.0938 L1508.5,402.0938 L1508.5,419.25 L1498.5,429.25 L1422.5,429.25 L1422.5,402.0938 " fill="#EEEEEE" style="stroke:#000000;stroke-width:1.5;"/><rect fill="none" height="230.9375" style="stroke:#000000;stroke-width:1.5;" width="1088.5" x="1422.5" y="402.0938"/><text fill="#000000" font-family="sans-serif" font-size="20" font-weight="bold" lengthAdjust="spacing" textLength="41" x="1437.5" y="423.8555">loop</text><text fill="#000000" font-family="sans-serif" font-size="20" font-weight="bold" lengthAdjust="spacing" textLength="226" x="1523.5" y="424.8555">[for each line of the file]</text><line style="stroke:#181818;stroke-width:1.0;" x1="1572" x2="1614" y1="470.5625" y2="470.5625"/><line style="stroke:#181818;stroke-width:1.0;" x1="1614" x2="1614" y1="470.5625" y2="483.5625"/><line style="stroke:#181818;stroke-width:1.0;" x1="1573" x2="1614" y1="483.5625" y2="483.5625"/><polygon fill="#181818" points="1583,479.5625,1573,483.5625,1583,487.5625,1579,483.5625" style="stroke:#181818;stroke-width:1.0;"/><text fill="#000000" font-family="sans-serif" font-size="20" font-weight="bold" lengthAdjust="spacing" textLength="11" x="1579" y="464.168">7</text><text fill="#000000" font-family="sans-serif" font-size="20" lengthAdjust="spacing" textLength="264" x="1594" y="464.168">object1:String=data[i][object1]</text><line style="stroke:#181818;stroke-width:1.0;" x1="1572" x2="1614" y1="522.7188" y2="522.7188"/><line style="stroke:#181818;stroke-width:1.0;" x1="1614" x2="1614" y1="522.7188" y2="535.7188"/><line style="stroke:#181818;stroke-width:1.0;" x1="1573" x2="1614" y1="535.7188" y2="535.7188"/><polygon fill="#181818" points="1583,531.7188,1573,535.7188,1583,539.7188,1579,535.7188" style="stroke:#181818;stroke-width:1.0;"/><text fill="#000000" font-family="sans-serif" font-size="20" font-weight="bold" lengthAdjust="spacing" textLength="11" x="1579" y="516.3242">8</text><text fill="#000000" font-family="sans-serif" font-size="20" lengthAdjust="spacing" textLength="268" x="1594" y="516.3242">objectN:String=data[i][objectN]</text><polygon fill="#181818" points="2357,570.875,2367,574.875,2357,578.875,2361,574.875" style="stroke:#181818;stroke-width:1.0;"/><line style="stroke:#181818;stroke-width:1.0;stroke-dasharray:2.0,2.0;" x1="1572" x2="2363" y1="574.875" y2="574.875"/><text fill="#000000" font-family="sans-serif" font-size="20" font-weight="bold" lengthAdjust="spacing" textLength="11" x="1579" y="568.4805">9</text><text fill="#000000" font-family="sans-serif" font-size="20" lengthAdjust="spacing" textLength="230" x="1594" y="568.4805">create(object1,...,objectN)</text><rect fill="#E3E3E3" height="39.1563" rx="2.5" ry="2.5" style="stroke:#181818;stroke-width:0.5;" width="132" x="2369" y="543.7188"/><text fill="#000000" font-family="sans-serif" font-size="20" lengthAdjust="spacing" textLength="118" x="2376" y="571.4805">Annoucement</text><polygon fill="#181818" points="1583,621.0313,1573,625.0313,1583,629.0313,1579,625.0313" style="stroke:#181818;stroke-width:1.0;"/><line style="stroke:#181818;stroke-width:1.0;stroke-dasharray:2.0,2.0;" x1="1577" x2="2434" y1="625.0313" y2="625.0313"/><text fill="#000000" font-family="sans-serif" font-size="20" font-weight="bold" lengthAdjust="spacing" textLength="22" x="1589" y="618.6367">10</text><text fill="#000000" font-family="sans-serif" font-size="20" lengthAdjust="spacing" textLength="147" x="1615" y="618.6367">annoucementList</text><polygon fill="#181818" points="856.5,667.1875,846.5,671.1875,856.5,675.1875,852.5,671.1875" style="stroke:#181818;stroke-width:1.0;"/><line style="stroke:#181818;stroke-width:1.0;stroke-dasharray:2.0,2.0;" x1="850.5" x2="1566" y1="671.1875" y2="671.1875"/><text fill="#000000" font-family="sans-serif" font-size="20" font-weight="bold" lengthAdjust="spacing" textLength="22" x="862.5" y="664.793">11</text><text fill="#000000" font-family="sans-serif" font-size="20" lengthAdjust="spacing" textLength="147" x="888.5" y="664.793">annoucementList</text><line style="stroke:#181818;stroke-width:1.0;stroke-dasharray:2.0,2.0;" x1="845.5" x2="887.5" y1="710.3438" y2="710.3438"/><line style="stroke:#181818;stroke-width:1.0;stroke-dasharray:2.0,2.0;" x1="887.5" x2="887.5" y1="710.3438" y2="723.3438"/><line style="stroke:#181818;stroke-width:1.0;stroke-dasharray:2.0,2.0;" x1="846.5" x2="887.5" y1="723.3438" y2="723.3438"/><polygon fill="#181818" points="856.5,719.3438,846.5,723.3438,856.5,727.3438,852.5,723.3438" style="stroke:#181818;stroke-width:1.0;"/><text fill="#000000" font-family="sans-serif" font-size="20" font-weight="bold" lengthAdjust="spacing" textLength="22" x="852.5" y="703.9492">12</text><text fill="#000000" font-family="sans-serif" font-size="20" lengthAdjust="spacing" textLength="147" x="878.5" y="703.9492">annoucementList</text><polygon fill="#181818" points="444.5,758.5,454.5,762.5,444.5,766.5,448.5,762.5" style="stroke:#181818;stroke-width:1.0;"/><line style="stroke:#181818;stroke-width:1.0;" x1="91.5" x2="450.5" y1="762.5" y2="762.5"/><text fill="#000000" font-family="sans-serif" font-size="20" font-weight="bold" lengthAdjust="spacing" textLength="22" x="98.5" y="756.1055">13</text><text fill="#000000" font-family="sans-serif" font-size="20" lengthAdjust="spacing" textLength="320" x="124.5" y="756.1055">choose the sort method by algorithm</text><polygon fill="#181818" points="823.5,797.6563,833.5,801.6563,823.5,805.6563,827.5,801.6563" style="stroke:#181818;stroke-width:1.0;"/><line style="stroke:#181818;stroke-width:1.0;" x1="461.5" x2="829.5" y1="801.6563" y2="801.6563"/><text fill="#000000" font-family="sans-serif" font-size="20" font-weight="bold" lengthAdjust="spacing" textLength="22" x="468.5" y="795.2617">14</text><text fill="#000000" font-family="sans-serif" font-size="20" lengthAdjust="spacing" textLength="145" x="494.5" y="795.2617">seletedSortType</text><polygon fill="#181818" points="1078.5,836.8125,1088.5,840.8125,1078.5,844.8125,1082.5,840.8125" style="stroke:#181818;stroke-width:1.0;"/><line style="stroke:#181818;stroke-width:1.0;" x1="845.5" x2="1084.5" y1="840.8125" y2="840.8125"/><text fill="#000000" font-family="sans-serif" font-size="20" font-weight="bold" lengthAdjust="spacing" textLength="22" x="852.5" y="834.418">15</text><text fill="#000000" font-family="sans-serif" font-size="20" lengthAdjust="spacing" textLength="195" x="878.5" y="834.418">sort(annoucementList)</text><polygon fill="#181818" points="856.5,875.9688,846.5,879.9688,856.5,883.9688,852.5,879.9688" style="stroke:#181818;stroke-width:1.0;"/><line style="stroke:#181818;stroke-width:1.0;stroke-dasharray:2.0,2.0;" x1="850.5" x2="1089.5" y1="879.9688" y2="879.9688"/><text fill="#000000" font-family="sans-serif" font-size="20" font-weight="bold" lengthAdjust="spacing" textLength="22" x="862.5" y="873.5742">16</text><text fill="#000000" font-family="sans-serif" font-size="20" lengthAdjust="spacing" textLength="147" x="888.5" y="873.5742">annoucementList</text><line style="stroke:#181818;stroke-width:1.0;stroke-dasharray:2.0,2.0;" x1="845.5" x2="887.5" y1="919.125" y2="919.125"/><line style="stroke:#181818;stroke-width:1.0;stroke-dasharray:2.0,2.0;" x1="887.5" x2="887.5" y1="919.125" y2="932.125"/><line style="stroke:#181818;stroke-width:1.0;stroke-dasharray:2.0,2.0;" x1="846.5" x2="887.5" y1="932.125" y2="932.125"/><polygon fill="#181818" points="856.5,928.125,846.5,932.125,856.5,936.125,852.5,932.125" style="stroke:#181818;stroke-width:1.0;"/><text fill="#000000" font-family="sans-serif" font-size="20" font-weight="bold" lengthAdjust="spacing" textLength="22" x="852.5" y="912.7305">17</text><text fill="#000000" font-family="sans-serif" font-size="20" lengthAdjust="spacing" textLength="147" x="878.5" y="912.7305">annoucementList</text><polygon fill="#181818" points="1857,967.2813,1867,971.2813,1857,975.2813,1861,971.2813" style="stroke:#181818;stroke-width:1.0;"/><line style="stroke:#181818;stroke-width:1.0;stroke-dasharray:2.0,2.0;" x1="845.5" x2="1863" y1="971.2813" y2="971.2813"/><text fill="#000000" font-family="sans-serif" font-size="20" font-weight="bold" lengthAdjust="spacing" textLength="22" x="852.5" y="964.8867">18</text><text fill="#000000" font-family="sans-serif" font-size="20" lengthAdjust="spacing" textLength="220" x="878.5" y="964.8867">toDTO(annoucementList)</text><path d="M1764,986.2813 L1850,986.2813 L1850,1003.4375 L1840,1013.4375 L1764,1013.4375 L1764,986.2813 " fill="#EEEEEE" style="stroke:#000000;stroke-width:1.5;"/><rect fill="none" height="191.7813" style="stroke:#000000;stroke-width:1.5;" width="605" x="1764" y="986.2813"/><text fill="#000000" font-family="sans-serif" font-size="20" font-weight="bold" lengthAdjust="spacing" textLength="41" x="1779" y="1008.043">loop</text><text fill="#000000" font-family="sans-serif" font-size="20" font-weight="bold" lengthAdjust="spacing" textLength="238" x="1865" y="1009.043">[for each announcement]</text><polygon fill="#181818" points="2173,1050.75,2183,1054.75,2173,1058.75,2177,1054.75" style="stroke:#181818;stroke-width:1.0;"/><line style="stroke:#181818;stroke-width:1.0;" x1="1879" x2="2179" y1="1054.75" y2="1054.75"/><text fill="#000000" font-family="sans-serif" font-size="20" font-weight="bold" lengthAdjust="spacing" textLength="22" x="1886" y="1048.3555">19</text><text fill="#000000" font-family="sans-serif" font-size="20" lengthAdjust="spacing" textLength="174" x="1912" y="1048.3555">annoucement=get(i)</text><rect fill="#E3E3E3" height="39.1563" rx="2.5" ry="2.5" style="stroke:#181818;stroke-width:0.5;" width="174" x="2185" y="1023.5938"/><text fill="#000000" font-family="sans-serif" font-size="20" lengthAdjust="spacing" textLength="160" x="2192" y="1051.3555">AnnoucementDTO</text><line style="stroke:#181818;stroke-width:1.0;" x1="1879" x2="1921" y1="1104.9063" y2="1104.9063"/><line style="stroke:#181818;stroke-width:1.0;" x1="1921" x2="1921" y1="1104.9063" y2="1117.9063"/><line style="stroke:#181818;stroke-width:1.0;" x1="1880" x2="1921" y1="1117.9063" y2="1117.9063"/><polygon fill="#181818" points="1890,1113.9063,1880,1117.9063,1890,1121.9063,1886,1117.9063" style="stroke:#181818;stroke-width:1.0;"/><text fill="#000000" font-family="sans-serif" font-size="20" font-weight="bold" lengthAdjust="spacing" textLength="22" x="1886" y="1098.5117">20</text><text fill="#000000" font-family="sans-serif" font-size="20" lengthAdjust="spacing" textLength="348" x="1912" y="1098.5117">annoucementDTO=toDto(annoucement)</text><line style="stroke:#181818;stroke-width:1.0;" x1="1879" x2="1921" y1="1157.0625" y2="1157.0625"/><line style="stroke:#181818;stroke-width:1.0;" x1="1921" x2="1921" y1="1157.0625" y2="1170.0625"/><line style="stroke:#181818;stroke-width:1.0;" x1="1880" x2="1921" y1="1170.0625" y2="1170.0625"/><polygon fill="#181818" points="1890,1166.0625,1880,1170.0625,1890,1174.0625,1886,1170.0625" style="stroke:#181818;stroke-width:1.0;"/><text fill="#000000" font-family="sans-serif" font-size="20" font-weight="bold" lengthAdjust="spacing" textLength="22" x="1886" y="1150.668">21</text><text fill="#000000" font-family="sans-serif" font-size="20" lengthAdjust="spacing" textLength="205" x="1912" y="1150.668">add(annoucementDTO)</text><polygon fill="#181818" points="856.5,1212.2188,846.5,1216.2188,856.5,1220.2188,852.5,1216.2188" style="stroke:#181818;stroke-width:1.0;"/><line style="stroke:#181818;stroke-width:1.0;stroke-dasharray:2.0,2.0;" x1="850.5" x2="1873" y1="1216.2188" y2="1216.2188"/><text fill="#000000" font-family="sans-serif" font-size="20" font-weight="bold" lengthAdjust="spacing" textLength="22" x="862.5" y="1209.8242">22</text><text fill="#000000" font-family="sans-serif" font-size="20" lengthAdjust="spacing" textLength="180" x="888.5" y="1209.8242">AnnoucementListDto</text><polygon fill="#181818" points="477.5,1251.375,467.5,1255.375,477.5,1259.375,473.5,1255.375" style="stroke:#181818;stroke-width:1.0;"/><line style="stroke:#181818;stroke-width:1.0;" x1="471.5" x2="839.5" y1="1255.375" y2="1255.375"/><text fill="#000000" font-family="sans-serif" font-size="20" font-weight="bold" lengthAdjust="spacing" textLength="22" x="483.5" y="1248.9805">23</text><text fill="#000000" font-family="sans-serif" font-size="20" lengthAdjust="spacing" textLength="324" x="509.5" y="1248.9805">displayDeals(announcementDTOList)</text><polygon fill="#181818" points="102.5,1290.5313,92.5,1294.5313,102.5,1298.5313,98.5,1294.5313" style="stroke:#181818;stroke-width:1.0;"/><line style="stroke:#181818;stroke-width:1.0;stroke-dasharray:2.0,2.0;" x1="96.5" x2="455.5" y1="1294.5313" y2="1294.5313"/><text fill="#000000" font-family="sans-serif" font-size="20" font-weight="bold" lengthAdjust="spacing" textLength="22" x="108.5" y="1288.1367">24</text><text fill="#000000" font-family="sans-serif" font-size="20" lengthAdjust="spacing" textLength="243" x="134.5" y="1288.1367">Display list of deals by area</text><polygon fill="#181818" points="444.5,1329.6875,454.5,1333.6875,444.5,1337.6875,448.5,1333.6875" style="stroke:#181818;stroke-width:1.0;"/><line style="stroke:#181818;stroke-width:1.0;stroke-dasharray:2.0,2.0;" x1="91.5" x2="450.5" y1="1333.6875" y2="1333.6875"/><text fill="#000000" font-family="sans-serif" font-size="20" font-weight="bold" lengthAdjust="spacing" textLength="22" x="98.5" y="1327.293">25</text><text fill="#000000" font-family="sans-serif" font-size="20" lengthAdjust="spacing" textLength="115" x="124.5" y="1327.293">Select a deal</text><polygon fill="#181818" points="97.5,1368.8438,87.5,1372.8438,97.5,1376.8438,93.5,1372.8438" style="stroke:#181818;stroke-width:1.0;"/><line style="stroke:#181818;stroke-width:1.0;stroke-dasharray:2.0,2.0;" x1="91.5" x2="460.5" y1="1372.8438" y2="1372.8438"/><text fill="#000000" font-family="sans-serif" font-size="20" font-weight="bold" lengthAdjust="spacing" textLength="22" x="103.5" y="1366.4492">26</text><text fill="#000000" font-family="sans-serif" font-size="20" lengthAdjust="spacing" textLength="262" x="129.5" y="1366.4492">Display the annoucement deal</text><!--SRC=[bLN1Sjem4BthAtPoAMJYJDkZfs66X4adCqrw83qn78IzO1LPyaYYAVtwhYm3aXsQr0SmqjktgzsdXzqArN33QwcBBPPGufhlfBlNoit57uJF7vazGA3MIXULqJM2CpkCTXfURFa6vsul4GmMZgkDZ06sugL-4Me3QoujCiPtJgjTlKB3s8TAb0XhhTrA_sQySDh0nHEw5sssyCWLCPiBu1QciqT6V4uKek7AmSKtOTqCkVpwuw45qFTPm1sToMWfEwva9GsQQzC6tUwd1dcBFYobm8UweVNRdRL2eRMz367tN99dmvLTQrFV2uaFQggKtXLOet9jy76x7nS17tdJTBd2wrdaxFbx2wDlvX_giVZ57ROTPVIHJQWVa8DGmWakQVGdZ6ygGU1Bba50sKg_-BBlAgqjcj6OjIIGJJf0qMu0XpMX6FEBMTWyjSFpe2IjOEcvadnHqqfC2aafYBFVvJvj6XyHdn8E1jLVo2RHEFAvCoJanNAnBBdZ9vfuP57M0JkJMZSaTmC4ga2ITa2lmLKOsXNnf8drwYUTwrDNm8tFlX3BHRUyV2lmwVN0foLB8hD999pBoxoWE-1mr6Mvkhw-lke2nqaWoICApFdftLz2nb2L_KJ9G7BeXqHDZ7jxRfx9pm7xe9w3wlDEhBx_bYO5DRfAbx3Q0vSRROIhwlGo-4nzUgyvafptYUTzW_-KRJOvs4dk4uvwfL5R3_jld-8_3zs71z_8dIPd6DPnF49dBwbmMxWAU1OGsOHuI3FnA6ysw4PYV4HqANdYJZTKWTDn1SE0iXobGUEWANZ74pXUDQ5fUcegursCqO2xxZ3sojh0hu91bi8sak_zZEqeRYGTA_GUpXhNG8ljiRp_vZ0Bl6GgrdbJANs2LifqYmFOstW0prkV99VsADRp-0EJlnPHspjiJzvdQuqssh-Qlm00]--></g></svg>