<?xml version="1.0" encoding="UTF-8" standalone="no"?><svg xmlns="http://www.w3.org/2000/svg" xmlns:xlink="http://www.w3.org/1999/xlink" contentStyleType="text/css" height="851px" preserveAspectRatio="none" style="width:876px;height:851px;background:#FFFFFF;" version="1.1" viewBox="0 0 876 851" width="876px" zoomAndPan="magnify"><defs/><g><!--class ListDealGUI--><g id="elem_ListDealGUI"><rect codeLine="8" fill="#F1F1F1" height="227.25" id="ListDealGUI" rx="2.5" ry="2.5" style="stroke:#181818;stroke-width:0.5;" width="219" x="7" y="219"/><ellipse cx="59" cy="236.5781" fill="#ADD1B2" rx="12" ry="12" style="stroke:#181818;stroke-width:1.0;"/><path d="M61.1406,231.5 Q61.3281,231.25 61.5469,231.125 Q61.7656,230.9844 62.0156,230.9844 Q62.4531,230.9844 62.7344,231.2969 Q63.0156,231.5938 63.0156,232.3125 L63.0156,234.0156 Q63.0156,234.7344 62.7344,235.0469 Q62.4531,235.3594 62.0156,235.3594 Q61.625,235.3594 61.375,235.125 Q61.125,234.9063 61.0156,234.2969 Q60.9531,233.875 60.7344,233.6563 Q60.3438,233.2188 59.625,232.9531 Q58.9063,232.6875 58.1875,232.6875 Q57.2813,232.6875 56.5313,233.0781 Q55.7813,233.4688 55.2031,234.3594 Q54.625,235.2344 54.625,236.4375 L54.625,237.7344 Q54.625,239.1875 55.6719,240.1563 Q56.7344,241.125 58.5938,241.125 Q59.7031,241.125 60.4844,240.8125 Q60.9219,240.6406 61.4375,240.125 Q61.75,239.8125 61.9219,239.7188 Q62.0938,239.625 62.3281,239.625 Q62.7188,239.625 63.0156,239.9375 Q63.3281,240.2344 63.3281,240.6406 Q63.3281,241.0469 62.9219,241.5156 Q62.3281,242.2031 61.3906,242.5938 Q60.125,243.125 58.6094,243.125 Q56.8281,243.125 55.4063,242.3906 Q54.25,241.7969 53.4375,240.5313 Q52.625,239.2656 52.625,237.7813 L52.625,236.4219 Q52.625,234.8594 53.3438,233.5156 Q54.0781,232.1563 55.3594,231.4219 Q56.6563,230.6875 58.1094,230.6875 Q58.9688,230.6875 59.7188,230.8906 Q60.4844,231.0938 61.1406,231.5 Z " fill="#000000"/><text fill="#000000" font-family="sans-serif" font-size="20" lengthAdjust="spacing" textLength="106" x="81" y="244.7617">ListDealGUI</text><line style="stroke:#181818;stroke-width:0.5;" x1="8" x2="225" y1="254.1563" y2="254.1563"/><line style="stroke:#181818;stroke-width:0.5;" x1="8" x2="225" y1="262.1563" y2="262.1563"/><ellipse cx="18" cy="280.2344" fill="#84BE84" rx="3" ry="3" style="stroke:#038048;stroke-width:1.0;"/><text fill="#000000" font-family="sans-serif" font-size="20" lengthAdjust="spacing" textLength="81" x="28" y="286.918">initialize()</text><ellipse cx="18" cy="305.3906" fill="#84BE84" rx="3" ry="3" style="stroke:#038048;stroke-width:1.0;"/><text fill="#000000" font-family="sans-serif" font-size="20" lengthAdjust="spacing" textLength="165" x="28" y="312.0742">showFileChooser()</text><ellipse cx="18" cy="330.5469" fill="#84BE84" rx="3" ry="3" style="stroke:#038048;stroke-width:1.0;"/><text fill="#000000" font-family="sans-serif" font-size="20" lengthAdjust="spacing" textLength="125" x="28" y="337.2305">displayDeals()</text><ellipse cx="18" cy="355.7031" fill="#84BE84" rx="3" ry="3" style="stroke:#038048;stroke-width:1.0;"/><text fill="#000000" font-family="sans-serif" font-size="20" lengthAdjust="spacing" textLength="108" x="28" y="362.3867">chooseFile()</text><ellipse cx="18" cy="380.8594" fill="#84BE84" rx="3" ry="3" style="stroke:#038048;stroke-width:1.0;"/><text fill="#000000" font-family="sans-serif" font-size="20" lengthAdjust="spacing" textLength="106" x="28" y="387.543">displayList()</text><ellipse cx="18" cy="406.0156" fill="#84BE84" rx="3" ry="3" style="stroke:#038048;stroke-width:1.0;"/><text fill="#000000" font-family="sans-serif" font-size="20" lengthAdjust="spacing" textLength="172" x="28" y="412.6992">selectSortingType()</text><ellipse cx="18" cy="431.1719" fill="#84BE84" rx="3" ry="3" style="stroke:#038048;stroke-width:1.0;"/><text fill="#000000" font-family="sans-serif" font-size="20" lengthAdjust="spacing" textLength="192" x="28" y="437.8555">displaySelectedDeal()</text></g><!--class DealDTO--><g id="elem_DealDTO"><rect codeLine="19" fill="#F1F1F1" height="202.0938" id="DealDTO" rx="2.5" ry="2.5" style="stroke:#181818;stroke-width:0.5;" width="225" x="167" y="506"/><ellipse cx="234" cy="523.5781" fill="#ADD1B2" rx="12" ry="12" style="stroke:#181818;stroke-width:1.0;"/><path d="M236.1406,518.5 Q236.3281,518.25 236.5469,518.125 Q236.7656,517.9844 237.0156,517.9844 Q237.4531,517.9844 237.7344,518.2969 Q238.0156,518.5938 238.0156,519.3125 L238.0156,521.0156 Q238.0156,521.7344 237.7344,522.0469 Q237.4531,522.3594 237.0156,522.3594 Q236.625,522.3594 236.375,522.125 Q236.125,521.9063 236.0156,521.2969 Q235.9531,520.875 235.7344,520.6563 Q235.3438,520.2188 234.625,519.9531 Q233.9063,519.6875 233.1875,519.6875 Q232.2813,519.6875 231.5313,520.0781 Q230.7813,520.4688 230.2031,521.3594 Q229.625,522.2344 229.625,523.4375 L229.625,524.7344 Q229.625,526.1875 230.6719,527.1563 Q231.7344,528.125 233.5938,528.125 Q234.7031,528.125 235.4844,527.8125 Q235.9219,527.6406 236.4375,527.125 Q236.75,526.8125 236.9219,526.7188 Q237.0938,526.625 237.3281,526.625 Q237.7188,526.625 238.0156,526.9375 Q238.3281,527.2344 238.3281,527.6406 Q238.3281,528.0469 237.9219,528.5156 Q237.3281,529.2031 236.3906,529.5938 Q235.125,530.125 233.6094,530.125 Q231.8281,530.125 230.4063,529.3906 Q229.25,528.7969 228.4375,527.5313 Q227.625,526.2656 227.625,524.7813 L227.625,523.4219 Q227.625,521.8594 228.3438,520.5156 Q229.0781,519.1563 230.3594,518.4219 Q231.6563,517.6875 233.1094,517.6875 Q233.9688,517.6875 234.7188,517.8906 Q235.4844,518.0938 236.1406,518.5 Z " fill="#000000"/><text fill="#000000" font-family="sans-serif" font-size="20" lengthAdjust="spacing" textLength="82" x="256" y="531.7617">DealDTO</text><line style="stroke:#181818;stroke-width:0.5;" x1="168" x2="391" y1="541.1563" y2="541.1563"/><rect fill="none" height="6" style="stroke:#C82930;stroke-width:1.0;" width="6" x="175" y="556.2344"/><text fill="#000000" font-family="sans-serif" font-size="20" lengthAdjust="spacing" textLength="117" x="188" y="565.918">dealId: String</text><rect fill="none" height="6" style="stroke:#C82930;stroke-width:1.0;" width="6" x="175" y="581.3906"/><text fill="#000000" font-family="sans-serif" font-size="20" lengthAdjust="spacing" textLength="151" x="188" y="591.0742">dealName: String</text><rect fill="none" height="6" style="stroke:#C82930;stroke-width:1.0;" width="6" x="175" y="606.5469"/><text fill="#000000" font-family="sans-serif" font-size="20" lengthAdjust="spacing" textLength="198" x="188" y="616.2305">dealDescription: String</text><rect fill="none" height="6" style="stroke:#C82930;stroke-width:1.0;" width="6" x="175" y="631.7031"/><text fill="#000000" font-family="sans-serif" font-size="20" lengthAdjust="spacing" textLength="152" x="188" y="641.3867">dealPrice: double</text><rect fill="none" height="6" style="stroke:#C82930;stroke-width:1.0;" width="6" x="175" y="656.8594"/><text fill="#000000" font-family="sans-serif" font-size="20" lengthAdjust="spacing" textLength="181" x="188" y="666.543">dealCategory: String</text><rect fill="none" height="6" style="stroke:#C82930;stroke-width:1.0;" width="6" x="175" y="682.0156"/><text fill="#000000" font-family="sans-serif" font-size="20" lengthAdjust="spacing" textLength="174" x="188" y="691.6992">dealLocation: String</text><line style="stroke:#181818;stroke-width:0.5;" x1="168" x2="391" y1="700.0938" y2="700.0938"/></g><!--class ListDealGUIController--><g id="elem_ListDealGUIController"><rect codeLine="28" fill="#F1F1F1" height="151.7813" id="ListDealGUIController" rx="2.5" ry="2.5" style="stroke:#181818;stroke-width:0.5;" width="225" x="312" y="7"/><ellipse cx="328" cy="24.5781" fill="#ADD1B2" rx="12" ry="12" style="stroke:#181818;stroke-width:1.0;"/><path d="M330.1406,19.5 Q330.3281,19.25 330.5469,19.125 Q330.7656,18.9844 331.0156,18.9844 Q331.4531,18.9844 331.7344,19.2969 Q332.0156,19.5938 332.0156,20.3125 L332.0156,22.0156 Q332.0156,22.7344 331.7344,23.0469 Q331.4531,23.3594 331.0156,23.3594 Q330.625,23.3594 330.375,23.125 Q330.125,22.9063 330.0156,22.2969 Q329.9531,21.875 329.7344,21.6563 Q329.3438,21.2188 328.625,20.9531 Q327.9063,20.6875 327.1875,20.6875 Q326.2813,20.6875 325.5313,21.0781 Q324.7813,21.4688 324.2031,22.3594 Q323.625,23.2344 323.625,24.4375 L323.625,25.7344 Q323.625,27.1875 324.6719,28.1563 Q325.7344,29.125 327.5938,29.125 Q328.7031,29.125 329.4844,28.8125 Q329.9219,28.6406 330.4375,28.125 Q330.75,27.8125 330.9219,27.7188 Q331.0938,27.625 331.3281,27.625 Q331.7188,27.625 332.0156,27.9375 Q332.3281,28.2344 332.3281,28.6406 Q332.3281,29.0469 331.9219,29.5156 Q331.3281,30.2031 330.3906,30.5938 Q329.125,31.125 327.6094,31.125 Q325.8281,31.125 324.4063,30.3906 Q323.25,29.7969 322.4375,28.5313 Q321.625,27.2656 321.625,25.7813 L321.625,24.4219 Q321.625,22.8594 322.3438,21.5156 Q323.0781,20.1563 324.3594,19.4219 Q325.6563,18.6875 327.1094,18.6875 Q327.9688,18.6875 328.7188,18.8906 Q329.4844,19.0938 330.1406,19.5 Z " fill="#000000"/><text fill="#000000" font-family="sans-serif" font-size="20" lengthAdjust="spacing" textLength="191" x="343" y="32.7617">ListDealGUIController</text><line style="stroke:#181818;stroke-width:0.5;" x1="313" x2="536" y1="42.1563" y2="42.1563"/><rect fill="none" height="6" style="stroke:#C82930;stroke-width:1.0;" width="6" x="320" y="57.2344"/><text fill="#000000" font-family="sans-serif" font-size="20" lengthAdjust="spacing" textLength="148" x="333" y="66.918">selectedFile: File</text><line style="stroke:#181818;stroke-width:0.5;" x1="313" x2="536" y1="75.3125" y2="75.3125"/><ellipse cx="323" cy="93.3906" fill="#84BE84" rx="3" ry="3" style="stroke:#038048;stroke-width:1.0;"/><text fill="#000000" font-family="sans-serif" font-size="20" lengthAdjust="spacing" textLength="165" x="333" y="100.0742">showFileChooser()</text><ellipse cx="323" cy="118.5469" fill="#84BE84" rx="3" ry="3" style="stroke:#038048;stroke-width:1.0;"/><text fill="#000000" font-family="sans-serif" font-size="20" lengthAdjust="spacing" textLength="98" x="333" y="125.2305">sortDeals()</text><ellipse cx="323" cy="143.7031" fill="#84BE84" rx="3" ry="3" style="stroke:#038048;stroke-width:1.0;"/><text fill="#000000" font-family="sans-serif" font-size="20" lengthAdjust="spacing" textLength="125" x="333" y="150.3867">displayDeals()</text></g><!--class SortDealByArea--><g id="elem_SortDealByArea"><rect codeLine="35" fill="#F1F1F1" height="76.3125" id="SortDealByArea" rx="2.5" ry="2.5" style="stroke:#181818;stroke-width:0.5;" width="317" x="552" y="294.5"/><ellipse cx="635" cy="312.0781" fill="#ADD1B2" rx="12" ry="12" style="stroke:#181818;stroke-width:1.0;"/><path d="M637.1406,307 Q637.3281,306.75 637.5469,306.625 Q637.7656,306.4844 638.0156,306.4844 Q638.4531,306.4844 638.7344,306.7969 Q639.0156,307.0938 639.0156,307.8125 L639.0156,309.5156 Q639.0156,310.2344 638.7344,310.5469 Q638.4531,310.8594 638.0156,310.8594 Q637.625,310.8594 637.375,310.625 Q637.125,310.4063 637.0156,309.7969 Q636.9531,309.375 636.7344,309.1563 Q636.3438,308.7188 635.625,308.4531 Q634.9063,308.1875 634.1875,308.1875 Q633.2813,308.1875 632.5313,308.5781 Q631.7813,308.9688 631.2031,309.8594 Q630.625,310.7344 630.625,311.9375 L630.625,313.2344 Q630.625,314.6875 631.6719,315.6563 Q632.7344,316.625 634.5938,316.625 Q635.7031,316.625 636.4844,316.3125 Q636.9219,316.1406 637.4375,315.625 Q637.75,315.3125 637.9219,315.2188 Q638.0938,315.125 638.3281,315.125 Q638.7188,315.125 639.0156,315.4375 Q639.3281,315.7344 639.3281,316.1406 Q639.3281,316.5469 638.9219,317.0156 Q638.3281,317.7031 637.3906,318.0938 Q636.125,318.625 634.6094,318.625 Q632.8281,318.625 631.4063,317.8906 Q630.25,317.2969 629.4375,316.0313 Q628.625,314.7656 628.625,313.2813 L628.625,311.9219 Q628.625,310.3594 629.3438,309.0156 Q630.0781,307.6563 631.3594,306.9219 Q632.6563,306.1875 634.1094,306.1875 Q634.9688,306.1875 635.7188,306.3906 Q636.4844,306.5938 637.1406,307 Z " fill="#000000"/><text fill="#000000" font-family="sans-serif" font-size="20" lengthAdjust="spacing" textLength="142" x="657" y="320.2617">SortDealByArea</text><line style="stroke:#181818;stroke-width:0.5;" x1="553" x2="868" y1="329.6563" y2="329.6563"/><line style="stroke:#181818;stroke-width:0.5;" x1="553" x2="868" y1="337.6563" y2="337.6563"/><ellipse cx="563" cy="355.7344" fill="#84BE84" rx="3" ry="3" style="stroke:#038048;stroke-width:1.0;"/><text fill="#000000" font-family="sans-serif" font-size="20" lengthAdjust="spacing" textLength="290" x="573" y="362.418">transformFileToAnnouncements()</text></g><!--class TransformFileInAnnouncement--><g id="elem_TransformFileInAnnouncement"><rect codeLine="39" fill="#F1F1F1" height="76.3125" id="TransformFileInAnnouncement" rx="2.5" ry="2.5" style="stroke:#181818;stroke-width:0.5;" width="299" x="561" y="569"/><ellipse cx="577" cy="586.5781" fill="#ADD1B2" rx="12" ry="12" style="stroke:#181818;stroke-width:1.0;"/><path d="M579.1406,581.5 Q579.3281,581.25 579.5469,581.125 Q579.7656,580.9844 580.0156,580.9844 Q580.4531,580.9844 580.7344,581.2969 Q581.0156,581.5938 581.0156,582.3125 L581.0156,584.0156 Q581.0156,584.7344 580.7344,585.0469 Q580.4531,585.3594 580.0156,585.3594 Q579.625,585.3594 579.375,585.125 Q579.125,584.9063 579.0156,584.2969 Q578.9531,583.875 578.7344,583.6563 Q578.3438,583.2188 577.625,582.9531 Q576.9063,582.6875 576.1875,582.6875 Q575.2813,582.6875 574.5313,583.0781 Q573.7813,583.4688 573.2031,584.3594 Q572.625,585.2344 572.625,586.4375 L572.625,587.7344 Q572.625,589.1875 573.6719,590.1563 Q574.7344,591.125 576.5938,591.125 Q577.7031,591.125 578.4844,590.8125 Q578.9219,590.6406 579.4375,590.125 Q579.75,589.8125 579.9219,589.7188 Q580.0938,589.625 580.3281,589.625 Q580.7188,589.625 581.0156,589.9375 Q581.3281,590.2344 581.3281,590.6406 Q581.3281,591.0469 580.9219,591.5156 Q580.3281,592.2031 579.3906,592.5938 Q578.125,593.125 576.6094,593.125 Q574.8281,593.125 573.4063,592.3906 Q572.25,591.7969 571.4375,590.5313 Q570.625,589.2656 570.625,587.7813 L570.625,586.4219 Q570.625,584.8594 571.3438,583.5156 Q572.0781,582.1563 573.3594,581.4219 Q574.6563,580.6875 576.1094,580.6875 Q576.9688,580.6875 577.7188,580.8906 Q578.4844,581.0938 579.1406,581.5 Z " fill="#000000"/><text fill="#000000" font-family="sans-serif" font-size="20" lengthAdjust="spacing" textLength="265" x="592" y="594.7617">TransformFileInAnnouncement</text><line style="stroke:#181818;stroke-width:0.5;" x1="562" x2="859" y1="604.1563" y2="604.1563"/><line style="stroke:#181818;stroke-width:0.5;" x1="562" x2="859" y1="612.1563" y2="612.1563"/><ellipse cx="572" cy="630.2344" fill="#84BE84" rx="3" ry="3" style="stroke:#038048;stroke-width:1.0;"/><text fill="#000000" font-family="sans-serif" font-size="20" lengthAdjust="spacing" textLength="115" x="582" y="636.918">processFile()</text></g><!--class ImportBusinessController--><g id="elem_ImportBusinessController"><rect codeLine="43" fill="#F1F1F1" height="76.3125" id="ImportBusinessController" rx="2.5" ry="2.5" style="stroke:#181818;stroke-width:0.5;" width="254" x="583.5" y="768"/><ellipse cx="599.5" cy="785.5781" fill="#ADD1B2" rx="12" ry="12" style="stroke:#181818;stroke-width:1.0;"/><path d="M601.6406,780.5 Q601.8281,780.25 602.0469,780.125 Q602.2656,779.9844 602.5156,779.9844 Q602.9531,779.9844 603.2344,780.2969 Q603.5156,780.5938 603.5156,781.3125 L603.5156,783.0156 Q603.5156,783.7344 603.2344,784.0469 Q602.9531,784.3594 602.5156,784.3594 Q602.125,784.3594 601.875,784.125 Q601.625,783.9063 601.5156,783.2969 Q601.4531,782.875 601.2344,782.6563 Q600.8438,782.2188 600.125,781.9531 Q599.4063,781.6875 598.6875,781.6875 Q597.7813,781.6875 597.0313,782.0781 Q596.2813,782.4688 595.7031,783.3594 Q595.125,784.2344 595.125,785.4375 L595.125,786.7344 Q595.125,788.1875 596.1719,789.1563 Q597.2344,790.125 599.0938,790.125 Q600.2031,790.125 600.9844,789.8125 Q601.4219,789.6406 601.9375,789.125 Q602.25,788.8125 602.4219,788.7188 Q602.5938,788.625 602.8281,788.625 Q603.2188,788.625 603.5156,788.9375 Q603.8281,789.2344 603.8281,789.6406 Q603.8281,790.0469 603.4219,790.5156 Q602.8281,791.2031 601.8906,791.5938 Q600.625,792.125 599.1094,792.125 Q597.3281,792.125 595.9063,791.3906 Q594.75,790.7969 593.9375,789.5313 Q593.125,788.2656 593.125,786.7813 L593.125,785.4219 Q593.125,783.8594 593.8438,782.5156 Q594.5781,781.1563 595.8594,780.4219 Q597.1563,779.6875 598.6094,779.6875 Q599.4688,779.6875 600.2188,779.8906 Q600.9844,780.0938 601.6406,780.5 Z " fill="#000000"/><text fill="#000000" font-family="sans-serif" font-size="20" lengthAdjust="spacing" textLength="220" x="614.5" y="793.7617">ImportBusinessController</text><line style="stroke:#181818;stroke-width:0.5;" x1="584.5" x2="836.5" y1="803.1563" y2="803.1563"/><line style="stroke:#181818;stroke-width:0.5;" x1="584.5" x2="836.5" y1="811.1563" y2="811.1563"/><ellipse cx="594.5" cy="829.2344" fill="#84BE84" rx="3" ry="3" style="stroke:#038048;stroke-width:1.0;"/><text fill="#000000" font-family="sans-serif" font-size="20" lengthAdjust="spacing" textLength="119" x="604.5" y="835.918">importDeals()</text></g><!--class DealMapper--><g id="elem_DealMapper"><rect codeLine="47" fill="#F1F1F1" height="76.3125" id="DealMapper" rx="2.5" ry="2.5" style="stroke:#181818;stroke-width:0.5;" width="184" x="332.5" y="294.5"/><ellipse cx="367.4" cy="312.0781" fill="#ADD1B2" rx="12" ry="12" style="stroke:#181818;stroke-width:1.0;"/><path d="M369.5406,307 Q369.7281,306.75 369.9469,306.625 Q370.1656,306.4844 370.4156,306.4844 Q370.8531,306.4844 371.1344,306.7969 Q371.4156,307.0938 371.4156,307.8125 L371.4156,309.5156 Q371.4156,310.2344 371.1344,310.5469 Q370.8531,310.8594 370.4156,310.8594 Q370.025,310.8594 369.775,310.625 Q369.525,310.4063 369.4156,309.7969 Q369.3531,309.375 369.1344,309.1563 Q368.7438,308.7188 368.025,308.4531 Q367.3063,308.1875 366.5875,308.1875 Q365.6813,308.1875 364.9313,308.5781 Q364.1813,308.9688 363.6031,309.8594 Q363.025,310.7344 363.025,311.9375 L363.025,313.2344 Q363.025,314.6875 364.0719,315.6563 Q365.1344,316.625 366.9938,316.625 Q368.1031,316.625 368.8844,316.3125 Q369.3219,316.1406 369.8375,315.625 Q370.15,315.3125 370.3219,315.2188 Q370.4938,315.125 370.7281,315.125 Q371.1188,315.125 371.4156,315.4375 Q371.7281,315.7344 371.7281,316.1406 Q371.7281,316.5469 371.3219,317.0156 Q370.7281,317.7031 369.7906,318.0938 Q368.525,318.625 367.0094,318.625 Q365.2281,318.625 363.8063,317.8906 Q362.65,317.2969 361.8375,316.0313 Q361.025,314.7656 361.025,313.2813 L361.025,311.9219 Q361.025,310.3594 361.7438,309.0156 Q362.4781,307.6563 363.7594,306.9219 Q365.0563,306.1875 366.5094,306.1875 Q367.3688,306.1875 368.1188,306.3906 Q368.8844,306.5938 369.5406,307 Z " fill="#000000"/><text fill="#000000" font-family="sans-serif" font-size="20" lengthAdjust="spacing" textLength="108" x="386.6" y="320.2617">DealMapper</text><line style="stroke:#181818;stroke-width:0.5;" x1="333.5" x2="515.5" y1="329.6563" y2="329.6563"/><line style="stroke:#181818;stroke-width:0.5;" x1="333.5" x2="515.5" y1="337.6563" y2="337.6563"/><ellipse cx="343.5" cy="355.7344" fill="#84BE84" rx="3" ry="3" style="stroke:#038048;stroke-width:1.0;"/><text fill="#000000" font-family="sans-serif" font-size="20" lengthAdjust="spacing" textLength="157" x="353.5" y="362.418">mapToDealDTO()</text></g><!--link ListDealGUIController to SortDealByArea--><g id="link_ListDealGUIController_SortDealByArea"><path codeLine="52" d="M511.47,159.27 C561.46,202.53 622.31,255.18 663.46,290.79 " fill="none" id="ListDealGUIController-to-SortDealByArea" style="stroke:#181818;stroke-width:1.0;"/><polygon fill="#181818" points="667.38,294.18,663.1857,285.2689,663.5968,290.9108,657.955,291.3219,667.38,294.18" style="stroke:#181818;stroke-width:1.0;"/></g><!--link SortDealByArea to TransformFileInAnnouncement--><g id="link_SortDealByArea_TransformFileInAnnouncement"><path codeLine="53" d="M710.5,370.53 C710.5,420.86 710.5,510.63 710.5,563.6 " fill="none" id="SortDealByArea-to-TransformFileInAnnouncement" style="stroke:#181818;stroke-width:1.0;"/><polygon fill="#181818" points="710.5,568.61,714.5,559.61,710.5,563.61,706.5,559.61,710.5,568.61" style="stroke:#181818;stroke-width:1.0;"/></g><!--link TransformFileInAnnouncement to ImportBusinessController--><g id="link_TransformFileInAnnouncement_ImportBusinessController"><path codeLine="54" d="M710.5,645.05 C710.5,678.52 710.5,727.73 710.5,762.72 " fill="none" id="TransformFileInAnnouncement-to-ImportBusinessController" style="stroke:#181818;stroke-width:1.0;"/><polygon fill="#181818" points="710.5,767.78,714.5,758.78,710.5,762.78,706.5,758.78,710.5,767.78" style="stroke:#181818;stroke-width:1.0;"/></g><!--link ListDealGUIController to DealMapper--><g id="link_ListDealGUIController_DealMapper"><path codeLine="55" d="M424.5,159.27 C424.5,201.83 424.5,253.48 424.5,289.06 " fill="none" id="ListDealGUIController-to-DealMapper" style="stroke:#181818;stroke-width:1.0;"/><polygon fill="#181818" points="424.5,294.18,428.5,285.18,424.5,289.18,420.5,285.18,424.5,294.18" style="stroke:#181818;stroke-width:1.0;"/></g><!--link ListDealGUIController to DealDTO--><g id="link_ListDealGUIController_DealDTO"><path codeLine="56" d="M363.39,159 C338.07,190.07 314.5,219 314.5,219 C314.5,219 299.38,386.16 289.02,500.76 " fill="none" id="ListDealGUIController-to-DealDTO" style="stroke:#181818;stroke-width:1.0;"/><polygon fill="#181818" points="288.56,505.83,293.3428,497.2204,289.0036,500.8497,285.3743,496.5106,288.56,505.83" style="stroke:#181818;stroke-width:1.0;"/></g><!--link ListDealGUI to DealDTO--><g id="link_ListDealGUI_DealDTO"><path codeLine="57" d="M183.97,446.3 C194.87,464.53 206.12,483.32 216.9,501.34 " fill="none" id="ListDealGUI-to-DealDTO" style="stroke:#181818;stroke-width:1.0;"/><polygon fill="#181818" points="219.63,505.91,218.4535,496.1317,217.0681,501.6162,211.5835,500.2308,219.63,505.91" style="stroke:#181818;stroke-width:1.0;"/></g><!--link DealMapper to DealDTO--><g id="link_DealMapper_DealDTO"><path codeLine="58" d="M404.79,370.53 C386.9,404.16 359.64,455.38 335.12,501.48 " fill="none" id="DealMapper-to-DealDTO" style="stroke:#181818;stroke-width:1.0;"/><polygon fill="#181818" points="332.75,505.92,340.5025,499.8455,335.094,501.5035,333.4361,496.0951,332.75,505.92" style="stroke:#181818;stroke-width:1.0;"/></g><!--SRC=[XLBBJiCm4BpdAtm4eKg88mSasWfKYPUKy06BissjEbxBwme5r7zdNTBKfQ7r8LB6ixipi-QLSHu2D9Rq2cjLunpMDZwGYwNvGdLpNHIyuoWFUWKBB6DhKGNK4Tp2OaRW9TJqQTn2pS5oVcEDmzXwL9victuAETe2iteo7AS8zl5zfhuB9UTA6MUY0IiIBYuxY9Vq-M0iJfP4ZA77QyFUGfiwS0ScM6zfgQ07CtQQUO0pMl5JKeYYlXAXGrNbbeHrcYNtnMPd8G7JwhMJFv8OmSxgMrN68Eqoy0KQ782do3eO7msvWTktOBHKrRJ-aBJt-0GYBYYq0oLFfE6WssOWxObiEP2r67hXt3bCkTsgz3sJFajYUVH7- -W7bnrptDu7X7xJCO3ZEOKcTQ_etZbQEuqDkdXGNkMycSjvVIyVI2Dpj_I-TDPucJrUipmxvYFNyjgsX2F52NW6xpDc0xwYRjk_r68uqD7exe_Zuay0YN72L77ASAhzpzK9GNj3PqZYBcSSu5ag6Vm3]--></g></svg>