<?xml version="1.0" encoding="UTF-8" standalone="no"?><svg xmlns="http://www.w3.org/2000/svg" xmlns:xlink="http://www.w3.org/1999/xlink" contentStyleType="text/css" height="944px" preserveAspectRatio="none" style="width:2139px;height:944px;background:#FFFFFF;" version="1.1" viewBox="0 0 2139 944" width="2139px" zoomAndPan="magnify"><defs/><g><!--class Person--><g id="elem_Person"><rect codeLine="16" fill="#FFDAB9" height="194.0938" id="Person" rx="2.5" ry="2.5" style="stroke:#4169E1;stroke-width:0.5;" width="192" x="7" y="468.5"/><text fill="#000000" font-family="sans-serif" font-size="20" lengthAdjust="spacing" textLength="62" x="72" y="494.2617">Person</text><line style="stroke:#4169E1;stroke-width:0.5;" x1="8" x2="198" y1="503.6563" y2="503.6563"/><rect fill="none" height="6" style="stroke:#C82930;stroke-width:1.0;" width="6" x="15" y="518.7344"/><text fill="#000000" font-family="sans-serif" font-size="20" lengthAdjust="spacing" textLength="48" x="28" y="528.418">name</text><rect fill="none" height="6" style="stroke:#C82930;stroke-width:1.0;" width="6" x="15" y="543.8906"/><text fill="#000000" font-family="sans-serif" font-size="20" lengthAdjust="spacing" textLength="165" x="28" y="553.5742">citizenCardNumber</text><rect fill="none" height="6" style="stroke:#C82930;stroke-width:1.0;" width="6" x="15" y="569.0469"/><text fill="#000000" font-family="sans-serif" font-size="20" lengthAdjust="spacing" textLength="94" x="28" y="578.7305">taxNumber</text><rect fill="none" height="6" style="stroke:#C82930;stroke-width:1.0;" width="6" x="15" y="594.2031"/><text fill="#000000" font-family="sans-serif" font-size="20" lengthAdjust="spacing" textLength="46" x="28" y="603.8867">email</text><rect fill="none" height="6" style="stroke:#C82930;stroke-width:1.0;" width="6" x="15" y="619.3594"/><text fill="#000000" font-family="sans-serif" font-size="20" lengthAdjust="spacing" textLength="121" x="28" y="629.043">phoneNumber</text><rect fill="none" height="6" style="stroke:#C82930;stroke-width:1.0;" width="6" x="15" y="644.5156"/><text fill="#000000" font-family="sans-serif" font-size="20" lengthAdjust="spacing" textLength="86" x="28" y="654.1992">password</text></g><!--class Client--><g id="elem_Client"><rect codeLine="24" fill="#FFDAB9" height="43.1563" id="Client" rx="2.5" ry="2.5" style="stroke:#4169E1;stroke-width:0.5;" width="55" x="340" y="589"/><text fill="#000000" font-family="sans-serif" font-size="20" lengthAdjust="spacing" textLength="49" x="343" y="614.7617">Client</text><line style="stroke:#4169E1;stroke-width:0.5;" x1="341" x2="394" y1="624.1563" y2="624.1563"/></g><!--class Order--><g id="elem_Order"><rect codeLine="27" fill="#FFDAB9" height="68.3125" id="Order" rx="2.5" ry="2.5" style="stroke:#4169E1;stroke-width:0.5;" width="138" x="647" y="707.5"/><text fill="#000000" font-family="sans-serif" font-size="20" lengthAdjust="spacing" textLength="52" x="690" y="733.2617">Order</text><line style="stroke:#4169E1;stroke-width:0.5;" x1="648" x2="784" y1="742.6563" y2="742.6563"/><rect fill="none" height="6" style="stroke:#C82930;stroke-width:1.0;" width="6" x="655" y="757.7344"/><text fill="#000000" font-family="sans-serif" font-size="20" lengthAdjust="spacing" textLength="111" x="668" y="767.418">requestPrice</text></g><!--class Property--><g id="elem_Property"><rect codeLine="30" fill="#FFDAB9" height="143.7813" id="Property" rx="2.5" ry="2.5" style="stroke:#4169E1;stroke-width:0.5;" width="239" x="1200" y="382.5"/><text fill="#000000" font-family="sans-serif" font-size="20" lengthAdjust="spacing" textLength="76" x="1281.5" y="408.2617">Property</text><line style="stroke:#4169E1;stroke-width:0.5;" x1="1201" x2="1438" y1="417.6563" y2="417.6563"/><rect fill="none" height="6" style="stroke:#C82930;stroke-width:1.0;" width="6" x="1208" y="432.7344"/><text fill="#000000" font-family="sans-serif" font-size="20" lengthAdjust="spacing" textLength="38" x="1221" y="442.418">type</text><rect fill="none" height="6" style="stroke:#C82930;stroke-width:1.0;" width="6" x="1208" y="457.8906"/><text fill="#000000" font-family="sans-serif" font-size="20" lengthAdjust="spacing" textLength="40" x="1221" y="467.5742">area</text><rect fill="none" height="6" style="stroke:#C82930;stroke-width:1.0;" width="6" x="1208" y="483.0469"/><text fill="#000000" font-family="sans-serif" font-size="20" lengthAdjust="spacing" textLength="212" x="1221" y="492.7305">distanceFromCityCenter</text><rect fill="none" height="6" style="stroke:#C82930;stroke-width:1.0;" width="6" x="1208" y="508.2031"/><text fill="#000000" font-family="sans-serif" font-size="20" lengthAdjust="spacing" textLength="87" x="1221" y="517.8867">photoURL</text></g><!--class Home--><g id="elem_Home"><rect codeLine="37" fill="#FFDAB9" height="143.7813" id="Home" rx="2.5" ry="2.5" style="stroke:#4169E1;stroke-width:0.5;" width="236" x="1595" y="100.5"/><text fill="#000000" font-family="sans-serif" font-size="20" lengthAdjust="spacing" textLength="51" x="1687.5" y="126.2617">Home</text><line style="stroke:#4169E1;stroke-width:0.5;" x1="1596" x2="1830" y1="135.6563" y2="135.6563"/><rect fill="none" height="6" style="stroke:#C82930;stroke-width:1.0;" width="6" x="1603" y="150.7344"/><text fill="#000000" font-family="sans-serif" font-size="20" lengthAdjust="spacing" textLength="175" x="1616" y="160.418">numberOfbedrooms</text><rect fill="none" height="6" style="stroke:#C82930;stroke-width:1.0;" width="6" x="1603" y="175.8906"/><text fill="#000000" font-family="sans-serif" font-size="20" lengthAdjust="spacing" textLength="180" x="1616" y="185.5742">numberOfbathrooms</text><rect fill="none" height="6" style="stroke:#C82930;stroke-width:1.0;" width="6" x="1603" y="201.0469"/><text fill="#000000" font-family="sans-serif" font-size="20" lengthAdjust="spacing" textLength="209" x="1616" y="210.7305">numberOfParkingSpace</text><rect fill="none" height="6" style="stroke:#C82930;stroke-width:1.0;" width="6" x="1603" y="226.2031"/><text fill="#000000" font-family="sans-serif" font-size="20" lengthAdjust="spacing" textLength="168" x="1616" y="235.8867">availableEquipment</text></g><!--class Land--><g id="elem_Land"><rect codeLine="43" fill="#FFDAB9" height="43.1563" id="Land" rx="2.5" ry="2.5" style="stroke:#4169E1;stroke-width:0.5;" width="49" x="1688.5" y="562"/><text fill="#000000" font-family="sans-serif" font-size="20" lengthAdjust="spacing" textLength="43" x="1691.5" y="587.7617">Land</text><line style="stroke:#4169E1;stroke-width:0.5;" x1="1689.5" x2="1736.5" y1="597.1563" y2="597.1563"/></g><!--class Apartment--><g id="elem_Apartment"><rect codeLine="46" fill="#FFDAB9" height="43.1563" id="Apartment" rx="2.5" ry="2.5" style="stroke:#4169E1;stroke-width:0.5;" width="97" x="1998" y="161"/><text fill="#000000" font-family="sans-serif" font-size="20" lengthAdjust="spacing" textLength="91" x="2001" y="186.7617">Apartment</text><line style="stroke:#4169E1;stroke-width:0.5;" x1="1999" x2="2094" y1="196.1563" y2="196.1563"/></g><!--class House--><g id="elem_House"><rect codeLine="49" fill="#FFDAB9" height="118.625" id="House" rx="2.5" ry="2.5" style="stroke:#4169E1;stroke-width:0.5;" width="154" x="1969.5" y="7"/><text fill="#000000" font-family="sans-serif" font-size="20" lengthAdjust="spacing" textLength="55" x="2019" y="32.7617">House</text><line style="stroke:#4169E1;stroke-width:0.5;" x1="1970.5" x2="2122.5" y1="42.1563" y2="42.1563"/><rect fill="none" height="6" style="stroke:#C82930;stroke-width:1.0;" width="6" x="1977.5" y="57.2344"/><text fill="#000000" font-family="sans-serif" font-size="20" lengthAdjust="spacing" textLength="86" x="1990.5" y="66.918">basement</text><rect fill="none" height="6" style="stroke:#C82930;stroke-width:1.0;" width="6" x="1977.5" y="82.3906"/><text fill="#000000" font-family="sans-serif" font-size="20" lengthAdjust="spacing" textLength="127" x="1990.5" y="92.0742">inhabitableLoft</text><rect fill="none" height="6" style="stroke:#C82930;stroke-width:1.0;" width="6" x="1977.5" y="107.5469"/><text fill="#000000" font-family="sans-serif" font-size="20" lengthAdjust="spacing" textLength="112" x="1990.5" y="117.2305">sunExposure</text></g><!--class Announcement--><g id="elem_Announcement"><rect codeLine="54" fill="#FFDAB9" height="68.3125" id="Announcement" rx="2.5" ry="2.5" style="stroke:#4169E1;stroke-width:0.5;" width="134" x="926" y="707.5"/><text fill="#000000" font-family="sans-serif" font-size="20" lengthAdjust="spacing" textLength="128" x="929" y="733.2617">Announcement</text><line style="stroke:#4169E1;stroke-width:0.5;" x1="927" x2="1059" y1="742.6563" y2="742.6563"/><rect fill="none" height="6" style="stroke:#C82930;stroke-width:1.0;" width="6" x="934" y="757.7344"/><text fill="#000000" font-family="sans-serif" font-size="20" lengthAdjust="spacing" textLength="44" x="947" y="767.418">state</text></g><!--class Deal--><g id="elem_Deal"><rect codeLine="57" fill="#FFDAB9" height="68.3125" id="Deal" rx="2.5" ry="2.5" style="stroke:#4169E1;stroke-width:0.5;" width="108" x="1659" y="279.5"/><text fill="#000000" font-family="sans-serif" font-size="20" lengthAdjust="spacing" textLength="40" x="1693" y="305.2617">Deal</text><line style="stroke:#4169E1;stroke-width:0.5;" x1="1660" x2="1766" y1="314.6563" y2="314.6563"/><rect fill="none" height="6" style="stroke:#C82930;stroke-width:1.0;" width="6" x="1667" y="329.7344"/><text fill="#000000" font-family="sans-serif" font-size="20" lengthAdjust="spacing" textLength="81" x="1680" y="339.418">dealType</text></g><!--class Sale--><g id="elem_Sale"><rect codeLine="60" fill="#FFDAB9" height="68.3125" id="Sale" rx="2.5" ry="2.5" style="stroke:#4169E1;stroke-width:0.5;" width="146" x="1973.5" y="386.5"/><text fill="#000000" font-family="sans-serif" font-size="20" lengthAdjust="spacing" textLength="39" x="2027" y="412.2617">Sale</text><line style="stroke:#4169E1;stroke-width:0.5;" x1="1974.5" x2="2118.5" y1="421.6563" y2="421.6563"/><rect fill="none" height="6" style="stroke:#C82930;stroke-width:1.0;" width="6" x="1981.5" y="436.7344"/><text fill="#000000" font-family="sans-serif" font-size="20" lengthAdjust="spacing" textLength="119" x="1994.5" y="446.418">propertyPrice</text></g><!--class Rent--><g id="elem_Rent"><rect codeLine="63" fill="#FFDAB9" height="93.4688" id="Rent" rx="2.5" ry="2.5" style="stroke:#4169E1;stroke-width:0.5;" width="171" x="1961" y="258"/><text fill="#000000" font-family="sans-serif" font-size="20" lengthAdjust="spacing" textLength="41" x="2026" y="283.7617">Rent</text><line style="stroke:#4169E1;stroke-width:0.5;" x1="1962" x2="2131" y1="293.1563" y2="293.1563"/><rect fill="none" height="6" style="stroke:#C82930;stroke-width:1.0;" width="6" x="1969" y="308.2344"/><text fill="#000000" font-family="sans-serif" font-size="20" lengthAdjust="spacing" textLength="115" x="1982" y="317.918">propertyRent</text><rect fill="none" height="6" style="stroke:#C82930;stroke-width:1.0;" width="6" x="1969" y="333.3906"/><text fill="#000000" font-family="sans-serif" font-size="20" lengthAdjust="spacing" textLength="144" x="1982" y="343.0742">contractDuration</text></g><!--class Address--><g id="elem_Address"><rect codeLine="67" fill="#FFDAB9" height="143.7813" id="Address" rx="2.5" ry="2.5" style="stroke:#4169E1;stroke-width:0.5;" width="94" x="1666" y="382.5"/><text fill="#000000" font-family="sans-serif" font-size="20" lengthAdjust="spacing" textLength="73" x="1676.5" y="408.2617">Address</text><line style="stroke:#4169E1;stroke-width:0.5;" x1="1667" x2="1759" y1="417.6563" y2="417.6563"/><rect fill="none" height="6" style="stroke:#C82930;stroke-width:1.0;" width="6" x="1674" y="432.7344"/><text fill="#000000" font-family="sans-serif" font-size="20" lengthAdjust="spacing" textLength="51" x="1687" y="442.418">street</text><rect fill="none" height="6" style="stroke:#C82930;stroke-width:1.0;" width="6" x="1674" y="457.8906"/><text fill="#000000" font-family="sans-serif" font-size="20" lengthAdjust="spacing" textLength="30" x="1687" y="467.5742">city</text><rect fill="none" height="6" style="stroke:#C82930;stroke-width:1.0;" width="6" x="1674" y="483.0469"/><text fill="#000000" font-family="sans-serif" font-size="20" lengthAdjust="spacing" textLength="44" x="1687" y="492.7305">state</text><rect fill="none" height="6" style="stroke:#C82930;stroke-width:1.0;" width="6" x="1674" y="508.2031"/><text fill="#000000" font-family="sans-serif" font-size="20" lengthAdjust="spacing" textLength="67" x="1687" y="517.8867">zipcode</text></g><!--class Employee--><g id="elem_Employee"><rect codeLine="74" fill="#FFDAB9" height="68.3125" id="Employee" rx="2.5" ry="2.5" style="stroke:#4169E1;stroke-width:0.5;" width="192" x="425" y="477.5"/><text fill="#000000" font-family="sans-serif" font-size="20" lengthAdjust="spacing" textLength="87" x="477.5" y="503.2617">Employee</text><line style="stroke:#4169E1;stroke-width:0.5;" x1="426" x2="616" y1="512.6563" y2="512.6563"/><rect fill="none" height="6" style="stroke:#C82930;stroke-width:1.0;" width="6" x="433" y="527.7344"/><text fill="#000000" font-family="sans-serif" font-size="20" lengthAdjust="spacing" textLength="165" x="446" y="537.418">agencyDesignation</text></g><!--class Agent--><g id="elem_Agent"><rect codeLine="77" fill="#FFDAB9" height="43.1563" id="Agent" rx="2.5" ry="2.5" style="stroke:#4169E1;stroke-width:0.5;" width="57" x="1291" y="664"/><text fill="#000000" font-family="sans-serif" font-size="20" lengthAdjust="spacing" textLength="51" x="1294" y="689.7617">Agent</text><line style="stroke:#4169E1;stroke-width:0.5;" x1="1292" x2="1347" y1="699.1563" y2="699.1563"/></g><!--class Date--><g id="elem_Date"><rect codeLine="80" fill="#FFDAB9" height="118.625" id="Date" rx="2.5" ry="2.5" style="stroke:#4169E1;stroke-width:0.5;" width="106" x="1993.5" y="798"/><text fill="#000000" font-family="sans-serif" font-size="20" lengthAdjust="spacing" textLength="42" x="2025.5" y="823.7617">Date</text><line style="stroke:#4169E1;stroke-width:0.5;" x1="1994.5" x2="2098.5" y1="833.1563" y2="833.1563"/><rect fill="none" height="6" style="stroke:#C82930;stroke-width:1.0;" width="6" x="2001.5" y="848.2344"/><text fill="#000000" font-family="sans-serif" font-size="20" lengthAdjust="spacing" textLength="65" x="2014.5" y="857.918">int year</text><rect fill="none" height="6" style="stroke:#C82930;stroke-width:1.0;" width="6" x="2001.5" y="873.3906"/><text fill="#000000" font-family="sans-serif" font-size="20" lengthAdjust="spacing" textLength="79" x="2014.5" y="883.0742">int month</text><rect fill="none" height="6" style="stroke:#C82930;stroke-width:1.0;" width="6" x="2001.5" y="898.5469"/><text fill="#000000" font-family="sans-serif" font-size="20" lengthAdjust="spacing" textLength="58" x="2014.5" y="908.2305">int day</text></g><!--class Visit--><g id="elem_Visit"><rect fill="#FFDAB9" height="43.1563" id="Visit" rx="2.5" ry="2.5" style="stroke:#4169E1;stroke-width:0.5;" width="43" x="1691.5" y="713"/><text fill="#000000" font-family="sans-serif" font-size="20" lengthAdjust="spacing" textLength="37" x="1694.5" y="738.7617">Visit</text><line style="stroke:#4169E1;stroke-width:0.5;" x1="1692.5" x2="1733.5" y1="748.1563" y2="748.1563"/></g><!--link Person to Client--><g id="link_Person_Client"><path codeLine="88" d="M199.21,591.51 C209.22,593.75 219.29,595.81 229,597.5 C267.27,604.17 312.17,607.6 339.98,609.22 " fill="none" id="Person-Client" style="stroke:#4169E1;stroke-width:1.0;"/><polygon fill="#000000" points="244.9374,585.0767,231.1654,578.6047,229.9915,587.9358,244.9374,585.0767" style="stroke:#000000;stroke-width:1.0;"/><text fill="#000000" font-family="sans-serif" font-size="20" lengthAdjust="spacing" textLength="59" x="250" y="592.2617">can be</text><text fill="#000000" font-family="sans-serif" font-size="20" lengthAdjust="spacing" textLength="11" x="206.9972" y="615.2225">1</text><text fill="#000000" font-family="sans-serif" font-size="20" lengthAdjust="spacing" textLength="11" x="320.9314" y="632.7166">1</text></g><!--link Order to Announcement--><g id="link_Order_Announcement"><path codeLine="91" d="M785.33,741.5 C828.28,741.5 883.4,741.5 925.92,741.5 " fill="none" id="Order-Announcement" style="stroke:#4169E1;stroke-width:1.0;"/><polygon fill="#000000" points="836.5,728.0781,822.0279,723.3758,822.0279,732.7804,836.5,728.0781" style="stroke:#000000;stroke-width:1.0;"/><text fill="#000000" font-family="sans-serif" font-size="20" lengthAdjust="spacing" textLength="48" x="841.5" y="736.2617">has a</text><text fill="#000000" font-family="sans-serif" font-size="20" lengthAdjust="spacing" textLength="11" x="793.0468" y="763.5427">1</text><text fill="#000000" font-family="sans-serif" font-size="20" lengthAdjust="spacing" textLength="11" x="906.9816" y="763.6204">1</text></g><!--reverse link Order to Date--><g id="link_Order_Date"><path codeLine="92" d="M749.77,785.99 C796.51,843.82 888.24,937.5 992,937.5 C992,937.5 992,937.5 1714,937.5 C1815.09,937.5 1928.81,901.91 1993.33,878.21 " fill="none" id="Order-backto-Date" style="stroke:#4169E1;stroke-width:1.0;"/><polygon fill="#4169E1" points="741.57,775.64,742.1565,782.8272,749.0164,785.0502,748.4299,777.8629,741.57,775.64" style="stroke:#4169E1;stroke-width:1.0;"/><polygon fill="#000000" points="1300.4781,924.6698,1286.3933,918.9101,1285.6978,928.2889,1300.4781,924.6698" style="stroke:#000000;stroke-width:1.0;"/><text fill="#000000" font-family="sans-serif" font-size="20" lengthAdjust="spacing" textLength="48" x="1305.5" y="932.2617">has a</text><text fill="#000000" font-family="sans-serif" font-size="20" lengthAdjust="spacing" textLength="11" x="734.145" y="804.6956">1</text><text fill="#000000" font-family="sans-serif" font-size="20" lengthAdjust="spacing" textLength="11" x="1974.4462" y="903.47">1</text></g><!--link Client to Order--><g id="link_Client_Order"><path codeLine="95" d="M386.7,632.03 C396.94,642.9 410.55,655.45 425,663.5 C495.15,702.56 585.84,722.85 646.98,732.82 " fill="none" id="Client-Order" style="stroke:#4169E1;stroke-width:1.0;"/><polygon fill="#000000" points="496.4602,652.967,484.6626,643.356,481.2665,652.126,496.4602,652.967" style="stroke:#000000;stroke-width:1.0;"/><text fill="#000000" font-family="sans-serif" font-size="20" lengthAdjust="spacing" textLength="58" x="502" y="658.2617">makes</text><text fill="#000000" font-family="sans-serif" font-size="20" lengthAdjust="spacing" textLength="11" x="379.0394" y="661.0865">1</text><text fill="#000000" font-family="sans-serif" font-size="20" lengthAdjust="spacing" textLength="8" x="630.9934" y="753.991">*</text></g><!--link Client to Visit--><g id="link_Client_Visit"><path codeLine="96" d="M395.02,610.5 C453.03,610.5 595.59,610.5 715,610.5 C715,610.5 715,610.5 1320.5,610.5 C1468.44,610.5 1633.77,691.97 1691.1,722.83 " fill="none" id="Client-Visit" style="stroke:#4169E1;stroke-width:1.0;"/><polygon fill="#000000" points="968.9701,597.7689,954.9581,591.8346,954.146,601.204,968.9701,597.7689" style="stroke:#000000;stroke-width:1.0;"/><text fill="#000000" font-family="sans-serif" font-size="20" lengthAdjust="spacing" textLength="58" x="974" y="605.2617">makes</text><text fill="#000000" font-family="sans-serif" font-size="20" lengthAdjust="spacing" textLength="11" x="403.0686" y="634.3086">1</text><text fill="#000000" font-family="sans-serif" font-size="20" lengthAdjust="spacing" textLength="8" x="1675.4919" y="743.8355">*</text></g><!--link Visit to Date--><g id="link_Visit_Date"><path codeLine="97" d="M1734.74,742.19 C1785.84,761.15 1919.04,810.58 1993.4,838.17 " fill="none" id="Visit-Date" style="stroke:#4169E1;stroke-width:1.0;"/><polygon fill="#000000" points="1876.5003,780.8612,1864.568,771.418,1861.2963,780.2351,1876.5003,780.8612" style="stroke:#000000;stroke-width:1.0;"/><text fill="#000000" font-family="sans-serif" font-size="20" lengthAdjust="spacing" textLength="48" x="1882" y="786.2617">has a</text><text fill="#000000" font-family="sans-serif" font-size="20" lengthAdjust="spacing" textLength="11" x="1742.4013" y="768.6302">1</text><text fill="#000000" font-family="sans-serif" font-size="20" lengthAdjust="spacing" textLength="11" x="1974.5256" y="829.6903">1</text></g><!--link Visit to Announcement--><g id="link_Visit_Announcement"><path codeLine="98" d="M1691.47,736.22 C1646.03,739.92 1533.45,748.56 1439,751.5 C1332.83,754.8 1306.19,754.08 1200,751.5 C1153.29,750.37 1100.67,747.79 1060.3,745.54 " fill="none" id="Visit-Announcement" style="stroke:#4169E1;stroke-width:1.0;"/><polygon fill="#000000" points="1284.5009,738.1962,1299.0409,742.6843,1298.902,733.2808,1284.5009,738.1962" style="stroke:#000000;stroke-width:1.0;"/><text fill="#000000" font-family="sans-serif" font-size="20" lengthAdjust="spacing" textLength="48" x="1305.5" y="746.2617">has a</text><text fill="#000000" font-family="sans-serif" font-size="20" lengthAdjust="spacing" textLength="11" x="1672.5299" y="761.1588">1</text><text fill="#000000" font-family="sans-serif" font-size="20" lengthAdjust="spacing" textLength="11" x="1067.8075" y="747.3158">1</text></g><!--link Agent to Visit--><g id="link_Agent_Visit"><path codeLine="99" d="M1348.03,688.95 C1422.35,698.25 1625.86,723.72 1691.38,731.92 " fill="none" id="Agent-Visit" style="stroke:#4169E1;stroke-width:1.0;"/><polygon fill="#000000" points="1484.9381,691.0716,1471.1619,684.6085,1469.994,693.9403,1484.9381,691.0716" style="stroke:#000000;stroke-width:1.0;"/><text fill="#000000" font-family="sans-serif" font-size="20" lengthAdjust="spacing" textLength="74" x="1490" y="698.2617">confirms</text><text fill="#000000" font-family="sans-serif" font-size="20" lengthAdjust="spacing" textLength="11" x="1355.8994" y="713.4002">1</text><text fill="#000000" font-family="sans-serif" font-size="20" lengthAdjust="spacing" textLength="8" x="1675.5339" y="723.0635">*</text></g><!--link Announcement to Property--><g id="link_Announcement_Property"><path codeLine="102" d="M1032.5,707.45 C1082.61,663.13 1171.5,584.51 1236.92,526.65 " fill="none" id="Announcement-Property" style="stroke:#4169E1;stroke-width:1.0;"/><polygon fill="#000000" points="1108.9925,569.7781,1095.0367,575.8437,1101.2673,582.8882,1108.9925,569.7781" style="stroke:#000000;stroke-width:1.0;"/><text fill="#000000" font-family="sans-serif" font-size="20" lengthAdjust="spacing" textLength="48" x="1116" y="583.2617">has a</text><text fill="#000000" font-family="sans-serif" font-size="20" lengthAdjust="spacing" textLength="11" x="1027.3438" y="695.1975">1</text><text fill="#000000" font-family="sans-serif" font-size="20" lengthAdjust="spacing" textLength="11" x="1218.0754" y="554.9676">1</text></g><!--link Announcement to Agent--><g id="link_Announcement_Agent"><path codeLine="103" d="M1060.06,730.1 C1130.85,717.88 1239.87,699.07 1290.67,690.3 " fill="none" id="Announcement-Agent" style="stroke:#4169E1;stroke-width:1.0;"/><polygon fill="#000000" points="1105.8835,696.7176,1090.8224,694.5451,1092.4219,703.8126,1105.8835,696.7176" style="stroke:#000000;stroke-width:1.0;"/><text fill="#000000" font-family="sans-serif" font-size="20" lengthAdjust="spacing" textLength="58" x="1111" y="706.2617">has an</text><text fill="#000000" font-family="sans-serif" font-size="20" lengthAdjust="spacing" textLength="11" x="1067.9963" y="723.2391">1</text><text fill="#000000" font-family="sans-serif" font-size="20" lengthAdjust="spacing" textLength="11" x="1272.1603" y="714.8461">1</text></g><!--reverse link Announcement to Date--><g id="link_Announcement_Date"><path codeLine="104" d="M1073.23,755.99 C1078.9,756.89 1084.53,757.73 1090,758.5 C1433.32,806.62 1849.1,841.87 1993.29,853.42 " fill="none" id="Announcement-backto-Date" style="stroke:#4169E1;stroke-width:1.0;"/><polygon fill="#4169E1" points="1060,753.83,1065.275,758.7467,1071.8424,755.7686,1066.5674,750.8518,1060,753.83" style="stroke:#4169E1;stroke-width:1.0;"/><polygon fill="#000000" points="1497.9555,791.9206,1484.059,785.7204,1483.0687,795.0727,1497.9555,791.9206" style="stroke:#000000;stroke-width:1.0;"/><text fill="#000000" font-family="sans-serif" font-size="20" lengthAdjust="spacing" textLength="48" x="1503" y="799.2617">has a</text><text fill="#000000" font-family="sans-serif" font-size="20" lengthAdjust="spacing" textLength="11" x="1067.9297" y="777.299">1</text><text fill="#000000" font-family="sans-serif" font-size="20" lengthAdjust="spacing" textLength="11" x="1974.4008" y="875.3488">1</text></g><!--reverse link Property to Address--><g id="link_Property_Address"><path codeLine="107" d="M1452.16,454.5 C1525.95,454.5 1613.39,454.5 1665.7,454.5 " fill="none" id="Property-backto-Address" style="stroke:#4169E1;stroke-width:1.0;"/><polygon fill="#4169E1" points="1439.03,454.5,1445.03,458.5,1451.03,454.5,1445.03,450.5,1439.03,454.5" style="stroke:#4169E1;stroke-width:1.0;"/><polygon fill="#000000" points="1506.5,441.0781,1492.0279,436.3758,1492.0279,445.7804,1506.5,441.0781" style="stroke:#000000;stroke-width:1.0;"/><text fill="#000000" font-family="sans-serif" font-size="20" lengthAdjust="spacing" textLength="31" x="1511.5" y="449.2617">has</text></g><!--reverse link Property to Deal--><g id="link_Property_Deal"><path codeLine="108" d="M1451.63,407.27 C1522.42,381.78 1605.9,351.71 1658.89,332.63 " fill="none" id="Property-backto-Deal" style="stroke:#4169E1;stroke-width:1.0;"/><polygon fill="#4169E1" points="1439.03,411.81,1446.0317,413.5352,1450.3171,407.7356,1443.3154,406.0104,1439.03,411.81" style="stroke:#4169E1;stroke-width:1.0;"/><polygon fill="#000000" points="1506.0268,351.3675,1490.8174,351.8469,1494.0039,360.6952,1506.0268,351.3675" style="stroke:#000000;stroke-width:1.0;"/><text fill="#000000" font-family="sans-serif" font-size="20" lengthAdjust="spacing" textLength="31" x="1511.5" y="362.2617">has</text><text fill="#000000" font-family="sans-serif" font-size="20" lengthAdjust="spacing" textLength="11" x="1447.0397" y="430.6497">1</text><text fill="#000000" font-family="sans-serif" font-size="20" lengthAdjust="spacing" textLength="11" x="1639.8799" y="357.6315">1</text></g><!--link Person to Employee--><g id="link_Person_Employee"><path codeLine="112" d="M199.18,553.15 C262.59,544.91 346.05,534.08 411.95,525.53 " fill="none" id="Person-to-Employee" style="stroke:#4169E1;stroke-width:1.0;"/><polygon fill="#4169E1" points="424.89,523.85,418.4253,520.655,412.9897,525.3936,419.4544,528.5886,424.89,523.85" style="stroke:#4169E1;stroke-width:1.0;"/><polygon fill="#000000" points="243.0666,527.108,258.0236,529.9081,256.813,520.5818,243.0666,527.108" style="stroke:#000000;stroke-width:1.0;"/><text fill="#000000" font-family="sans-serif" font-size="20" lengthAdjust="spacing" textLength="31" x="264" y="534.2617">has</text></g><!--link Employee to Agent--><g id="link_Employee_Agent"><path codeLine="113" d="M617.27,498.97 C747.6,485.91 986.27,476.75 1170,553.5 C1227.29,577.43 1277.43,632.97 1302.16,663.83 " fill="none" id="Employee-Agent" style="stroke:#4169E1;stroke-width:1.0;"/><polygon fill="#000000" points="830.7778,478.9503,817.808,470.9918,815.6071,480.1352,830.7778,478.9503" style="stroke:#000000;stroke-width:1.0;"/><text fill="#000000" font-family="sans-serif" font-size="20" lengthAdjust="spacing" textLength="59" x="836" y="485.2617">can be</text><text fill="#000000" font-family="sans-serif" font-size="20" lengthAdjust="spacing" textLength="11" x="625.0618" y="519.7234">1</text><text fill="#000000" font-family="sans-serif" font-size="20" lengthAdjust="spacing" textLength="11" x="1285.8783" y="651.6899">1</text></g><!--reverse link Deal to Sale--><g id="link_Deal_Sale"><path codeLine="117" d="M1772.25,332.3 C1828.22,350.37 1912.95,377.72 1973.21,397.17 " fill="none" id="Deal-backto-Sale" style="stroke:#4169E1;stroke-width:1.0;"/><polygon fill="#4169E1" points="1767.26,330.69,1774.587,337.2714,1772.0161,332.2325,1777.055,329.6617,1767.26,330.69" style="stroke:#4169E1;stroke-width:1.0;"/><text fill="#000000" font-family="sans-serif" font-size="20" lengthAdjust="spacing" textLength="11" x="1774.9168" y="355.2457">1</text><text fill="#000000" font-family="sans-serif" font-size="20" lengthAdjust="spacing" textLength="34" x="1931.4507" y="416.9943">0..1</text></g><!--reverse link Deal to Rent--><g id="link_Deal_Rent"><path codeLine="118" d="M1772.56,311.91 C1824.84,310.49 1902.03,308.4 1961,306.79 " fill="none" id="Deal-backto-Rent" style="stroke:#4169E1;stroke-width:1.0;"/><polygon fill="#4169E1" points="1767.26,312.05,1776.3706,315.7913,1772.258,311.9072,1776.1421,307.7946,1767.26,312.05" style="stroke:#4169E1;stroke-width:1.0;"/><text fill="#000000" font-family="sans-serif" font-size="20" lengthAdjust="spacing" textLength="11" x="1774.9168" y="306.0144">1</text><text fill="#000000" font-family="sans-serif" font-size="20" lengthAdjust="spacing" textLength="34" x="1919.1523" y="328.6721">0..1</text></g><!--reverse link Property to Land--><g id="link_Property_Land"><path codeLine="120" d="M1458.19,499.87 C1542.78,527.74 1643.27,560.85 1688.21,575.66 " fill="none" id="Property-backto-Land" style="stroke:#4169E1;stroke-width:1.0;"/><polygon fill="none" points="1455.83,506.46,1439.03,493.55,1460.21,493.17,1455.83,506.46" style="stroke:#4169E1;stroke-width:1.0;"/><text fill="#000000" font-family="sans-serif" font-size="20" lengthAdjust="spacing" textLength="31" x="1501.5" y="499.2617">is a</text></g><!--reverse link Property to Home--><g id="link_Property_Home"><path codeLine="121" d="M1420.92,369.62 C1436.79,356.9 1453.19,344.15 1469,332.5 C1509.87,302.39 1556.1,271.26 1597.18,244.55 " fill="none" id="Property-backto-Home" style="stroke:#4169E1;stroke-width:1.0;"/><polygon fill="none" points="1425.21,375.15,1405.26,382.29,1416.41,364.26,1425.21,375.15" style="stroke:#4169E1;stroke-width:1.0;"/><text fill="#000000" font-family="sans-serif" font-size="20" lengthAdjust="spacing" textLength="31" x="1501.5" y="263.2617">is a</text></g><!--reverse link Home to Apartment--><g id="link_Home_Apartment"><path codeLine="122" d="M1851.46,176.65 C1903.58,178.22 1959.55,179.91 1997.92,181.06 " fill="none" id="Home-backto-Apartment" style="stroke:#4169E1;stroke-width:1.0;"/><polygon fill="none" points="1851.12,183.64,1831.34,176.04,1851.54,169.65,1851.12,183.64" style="stroke:#4169E1;stroke-width:1.0;"/><text fill="#000000" font-family="sans-serif" font-size="20" lengthAdjust="spacing" textLength="31" x="1880.5" y="172.2617">is a</text></g><!--reverse link Home to House--><g id="link_Home_House"><path codeLine="123" d="M1850.4,128.89 C1890.97,115.91 1933.97,102.16 1969.25,90.88 " fill="none" id="Home-backto-House" style="stroke:#4169E1;stroke-width:1.0;"/><polygon fill="none" points="1852.52,135.56,1831.34,134.98,1848.26,122.22,1852.52,135.56" style="stroke:#4169E1;stroke-width:1.0;"/><text fill="#000000" font-family="sans-serif" font-size="20" lengthAdjust="spacing" textLength="31" x="1880.5" y="99.2617">is a</text></g><!--SRC=[TLL1Rziw3BxhLmYz52YGedl7eHYGfItwW68BshVT6OcnXSgI9z6lyxhzzz6MB3jfwaieyXFvaIAP-6nS2m4QwzKpQgbn3vsbE-_eoVn2-S-LE8yJHZRUULK7tw2aqA6OBIsePwZmYNgBCg0YS9LT0c8DshyOLyazs8XBhzOufBv5wGFLNbZSaoGlWwbgajeCtentonlAGenhec1s7U6_ohkHx9MeZKQfJ50SUvGRP9SwYlFLzDqPPXYP9tCfId7aMxuAoTzdpgeAldDwuwqFSekWwcsttu_MTGZ-9HaUVG_si-MIZDTyq1YEBNyM9FZxlLRaG_ozElf48h354BtBF5RIGODPL8OuMRU1eBzqpGv3rXFyF3XZ0yPckQszmmDhoq5Uc2VJIW4trg2ZLr4KNuSaflW1VtGOQHkCmeBO1jzYe7u23O-OHGW8CilQH6u7XNVSE1j3_ORZp3ngJ_xRuyCSztvehvBtoFdhVeSwUD_4OpLGVKg_XS0FMZrnMnP6_tCvO6VnzaTdseOvb8WFuFGYyJKt0ZM7nRZtNSI9r0uYZWxIqRWQTeO6tmz-FsbZvsv_jZvsOIxOsZbk9eN9USOH4B9KG3S8TZ9gblyRgZePdy0M6cqk_-6ZF2vyJuZ7cIpF2WLGTDC56CUgSDCwO8pvQgI0IFa5kUDwEUa7jad-PLhbzH0vkxXjMkjxd5-FDu9J_Gr6KxcZQDLXVM_OxMkf9yaU8IoEl7YeNfmrzCVpb3_EpwM54TyQXJXFSoNoU9rzE9EhrVYJ-bz-b0gStA7ynE1n1AH8FmliyXtvHWrH0b-OSHSPEAIr08Zp54NaO9FBYxCqRGnju1aZGzyYlfjeQ858vmMhes1lxE-m7f_YL20kvTw49ex4bvV5WQT5X6aXBBs_0qrHCywT0hvRmnA5XwR80thguOp-D5iF_F5C5GGdDX0HKqEiLXTp6oVGjIYA4_nBjvngnbMDWHT3XQTi77kW8aO-xF9wy7nrUSdEXocNfmpZ89S2YCkIu3N_ZyZBOP4n9pDKwerntAl9AD8XwSkwEsKSzzva-0i0]--></g></svg>