<?xml version="1.0" encoding="UTF-8" standalone="no"?><svg xmlns="http://www.w3.org/2000/svg" xmlns:xlink="http://www.w3.org/1999/xlink" contentStyleType="text/css" height="2552px" preserveAspectRatio="none" style="width:3749px;height:2552px;background:#FFFFFF;" version="1.1" viewBox="0 0 3749 2552" width="3749px" zoomAndPan="magnify"><defs/><g><rect fill="#FFFFFF" height="2348" style="stroke:#181818;stroke-width:1.0;" width="10" x="120.5" y="98.2813"/><rect fill="#FFFFFF" height="407.0938" style="stroke:#181818;stroke-width:1.0;" width="10" x="638.5" y="127.5625"/><rect fill="#FFFFFF" height="37.2813" style="stroke:#181818;stroke-width:1.0;" width="10" x="638.5" y="571.9375"/><rect fill="#FFFFFF" height="37.2813" style="stroke:#181818;stroke-width:1.0;" width="10" x="638.5" y="693.0625"/><rect fill="#FFFFFF" height="1678.6563" style="stroke:#181818;stroke-width:1.0;" width="10" x="638.5" y="767.625"/><rect fill="#FFFFFF" height="260.9688" style="stroke:#181818;stroke-width:1.0;" width="10" x="953.5" y="213.125"/><rect fill="#FFFFFF" height="1487.6875" style="stroke:#181818;stroke-width:1.0;" width="10" x="953.5" y="921.3125"/><rect fill="#FFFFFF" height="271.9688" style="stroke:#181818;stroke-width:1.0;" width="10" x="958.5" y="966.5938"/><rect fill="#FFFFFF" height="617.7813" style="stroke:#181818;stroke-width:1.0;" width="10" x="958.5" y="1315.8438"/><rect fill="#FFFFFF" height="37.2813" style="stroke:#181818;stroke-width:1.0;" width="10" x="1579.5" y="250.4063"/><rect fill="#FFFFFF" height="37.2813" style="stroke:#181818;stroke-width:1.0;" width="10" x="1579.5" y="1008.875"/><rect fill="#FFFFFF" height="37.2813" style="stroke:#181818;stroke-width:1.0;" width="10" x="1733.5" y="324.9688"/><rect fill="#FFFFFF" height="37.2813" style="stroke:#181818;stroke-width:1.0;" width="10" x="1733.5" y="1083.4375"/><rect fill="#FFFFFF" height="37.2813" style="stroke:#181818;stroke-width:1.0;" width="10" x="1733.5" y="1581.8125"/><rect fill="#FFFFFF" height="37.2813" style="stroke:#181818;stroke-width:1.0;" width="10" x="1945" y="399.5313"/><rect fill="#FFFFFF" height="37.2813" style="stroke:#181818;stroke-width:1.0;" width="10" x="1945" y="1158"/><rect fill="#FFFFFF" height="37.2813" style="stroke:#181818;stroke-width:1.0;" width="10" x="2190" y="1358.125"/><rect fill="#FFFFFF" height="37.2813" style="stroke:#181818;stroke-width:1.0;" width="10" x="2411" y="1432.6875"/><rect fill="#FFFFFF" height="37.2813" style="stroke:#181818;stroke-width:1.0;" width="10" x="2608" y="1507.25"/><rect fill="#FFFFFF" height="159.4063" style="stroke:#181818;stroke-width:1.0;" width="10" x="2826" y="1656.375"/><rect fill="#FFFFFF" height="37.2813" style="stroke:#181818;stroke-width:1.0;" width="10" x="3188" y="1734.2188"/><rect fill="#FFFFFF" height="37.2813" style="stroke:#181818;stroke-width:1.0;" width="10" x="3188" y="1853.0625"/><rect fill="#FFFFFF" height="322.25" style="stroke:#181818;stroke-width:1.0;" width="10" x="3188" y="2049.4688"/><rect fill="#FFFFFF" height="148.8438" style="stroke:#181818;stroke-width:1.0;" width="10" x="3193" y="2178.5938"/><rect fill="#FFFFFF" height="48.2813" style="stroke:#181818;stroke-width:1.0;" width="10" x="3198" y="2228.875"/><rect fill="none" height="108.125" style="stroke:#000000;stroke-width:1.5;" width="584" x="2694.5" y="1671.375"/><line style="stroke:#181818;stroke-width:0.5;stroke-dasharray:5.0,5.0;" x1="125" x2="125" y1="88.2813" y2="2464.2813"/><line style="stroke:#181818;stroke-width:0.5;stroke-dasharray:5.0,5.0;" x1="643.5" x2="643.5" y1="88.2813" y2="2464.2813"/><line style="stroke:#181818;stroke-width:0.5;stroke-dasharray:5.0,5.0;" x1="958.5" x2="958.5" y1="169.7031" y2="2464.2813"/><line style="stroke:#181818;stroke-width:0.5;stroke-dasharray:5.0,5.0;" x1="1584.5" x2="1584.5" y1="88.2813" y2="2464.2813"/><line style="stroke:#181818;stroke-width:0.5;stroke-dasharray:5.0,5.0;" x1="1738.5" x2="1738.5" y1="88.2813" y2="2464.2813"/><line style="stroke:#181818;stroke-width:0.5;stroke-dasharray:5.0,5.0;" x1="1949.5" x2="1949.5" y1="88.2813" y2="2464.2813"/><line style="stroke:#181818;stroke-width:0.5;stroke-dasharray:5.0,5.0;" x1="2194.5" x2="2194.5" y1="88.2813" y2="2464.2813"/><line style="stroke:#181818;stroke-width:0.5;stroke-dasharray:5.0,5.0;" x1="2415.5" x2="2415.5" y1="88.2813" y2="2464.2813"/><line style="stroke:#181818;stroke-width:0.5;stroke-dasharray:5.0,5.0;" x1="2612.5" x2="2612.5" y1="88.2813" y2="2464.2813"/><line style="stroke:#181818;stroke-width:0.5;stroke-dasharray:5.0,5.0;" x1="2830.5" x2="2830.5" y1="88.2813" y2="2464.2813"/><line style="stroke:#181818;stroke-width:0.5;stroke-dasharray:5.0,5.0;" x1="3192.5" x2="3192.5" y1="88.2813" y2="2464.2813"/><line style="stroke:#181818;stroke-width:0.5;stroke-dasharray:5.0,5.0;" x1="3709" x2="3709" y1="2109.3906" y2="2464.2813"/><text fill="#000000" font-family="sans-serif" font-size="20" lengthAdjust="spacing" textLength="235" x="5" y="83.5645">Organization Employee</text><ellipse cx="125.5" cy="13.5" fill="#E3E3E3" rx="8" ry="8" style="stroke:#181818;stroke-width:0.5;"/><path d="M125.5,21.5 L125.5,48.5 M112.5,29.5 L138.5,29.5 M125.5,48.5 L112.5,63.5 M125.5,48.5 L138.5,63.5 " fill="none" style="stroke:#181818;stroke-width:0.5;"/><text fill="#000000" font-family="sans-serif" font-size="20" lengthAdjust="spacing" textLength="235" x="5" y="2481.8457">Organization Employee</text><ellipse cx="125.5" cy="2495.0625" fill="#E3E3E3" rx="8" ry="8" style="stroke:#181818;stroke-width:0.5;"/><path d="M125.5,2503.0625 L125.5,2530.0625 M112.5,2511.0625 L138.5,2511.0625 M125.5,2530.0625 L112.5,2545.0625 M125.5,2530.0625 L138.5,2545.0625 " fill="none" style="stroke:#181818;stroke-width:0.5;"/><rect fill="#E3E3E3" height="37.2813" rx="2.5" ry="2.5" style="stroke:#181818;stroke-width:0.5;" width="154" x="566.5" y="50"/><text fill="#000000" font-family="sans-serif" font-size="20" lengthAdjust="spacing" textLength="140" x="573.5" y="75.5645">:CreateTaskUI</text><rect fill="#E3E3E3" height="37.2813" rx="2.5" ry="2.5" style="stroke:#181818;stroke-width:0.5;" width="154" x="566.5" y="2463.2813"/><text fill="#000000" font-family="sans-serif" font-size="20" lengthAdjust="spacing" textLength="140" x="573.5" y="2488.8457">:CreateTaskUI</text><rect fill="#E3E3E3" height="37.2813" rx="2.5" ry="2.5" style="stroke:#181818;stroke-width:0.5;" width="232" x="842.5" y="2463.2813"/><text fill="#000000" font-family="sans-serif" font-size="20" lengthAdjust="spacing" textLength="218" x="849.5" y="2488.8457">:CreateTaskController</text><rect fill="#E3E3E3" height="37.2813" rx="2.5" ry="2.5" style="stroke:#181818;stroke-width:0.5;" width="144" x="1512.5" y="50"/><text fill="#000000" font-family="sans-serif" font-size="20" lengthAdjust="spacing" textLength="130" x="1519.5" y="75.5645">:Repositories</text><rect fill="#E3E3E3" height="37.2813" rx="2.5" ry="2.5" style="stroke:#181818;stroke-width:0.5;" width="144" x="1512.5" y="2463.2813"/><text fill="#000000" font-family="sans-serif" font-size="20" lengthAdjust="spacing" textLength="130" x="1519.5" y="2488.8457">:Repositories</text><rect fill="#E3E3E3" height="60.5625" rx="2.5" ry="2.5" style="stroke:#181818;stroke-width:0.5;" width="144" x="1666.5" y="26.7188"/><text fill="#000000" font-family="sans-serif" font-size="20" lengthAdjust="spacing" textLength="117" x="1680" y="52.2832">repositories</text><text fill="#000000" font-family="sans-serif" font-size="20" lengthAdjust="spacing" textLength="130" x="1673.5" y="75.5645">:Repositories</text><rect fill="#E3E3E3" height="60.5625" rx="2.5" ry="2.5" style="stroke:#181818;stroke-width:0.5;" width="144" x="1666.5" y="2463.2813"/><text fill="#000000" font-family="sans-serif" font-size="20" lengthAdjust="spacing" textLength="117" x="1680" y="2488.8457">repositories</text><text fill="#000000" font-family="sans-serif" font-size="20" lengthAdjust="spacing" textLength="130" x="1673.5" y="2512.127">:Repositories</text><rect fill="#E3E3E3" height="60.5625" rx="2.5" ry="2.5" style="stroke:#181818;stroke-width:0.5;" width="259" x="1820.5" y="26.7188"/><text fill="#000000" font-family="sans-serif" font-size="20" lengthAdjust="spacing" textLength="245" x="1827.5" y="52.2832">taskCategoryRepository:</text><text fill="#000000" font-family="sans-serif" font-size="20" lengthAdjust="spacing" textLength="242" x="1829" y="75.5645">TaskCategoryRepository</text><rect fill="#E3E3E3" height="60.5625" rx="2.5" ry="2.5" style="stroke:#181818;stroke-width:0.5;" width="259" x="1820.5" y="2463.2813"/><text fill="#000000" font-family="sans-serif" font-size="20" lengthAdjust="spacing" textLength="245" x="1827.5" y="2488.8457">taskCategoryRepository:</text><text fill="#000000" font-family="sans-serif" font-size="20" lengthAdjust="spacing" textLength="242" x="1829" y="2512.127">TaskCategoryRepository</text><rect fill="#E3E3E3" height="37.2813" rx="2.5" ry="2.5" style="stroke:#181818;stroke-width:0.5;" width="211" x="2089.5" y="50"/><text fill="#000000" font-family="sans-serif" font-size="20" lengthAdjust="spacing" textLength="197" x="2096.5" y="75.5645">:ApplicationSession</text><rect fill="#E3E3E3" height="37.2813" rx="2.5" ry="2.5" style="stroke:#181818;stroke-width:0.5;" width="211" x="2089.5" y="2463.2813"/><text fill="#000000" font-family="sans-serif" font-size="20" lengthAdjust="spacing" textLength="197" x="2096.5" y="2488.8457">:ApplicationSession</text><rect fill="#E3E3E3" height="60.5625" rx="2.5" ry="2.5" style="stroke:#181818;stroke-width:0.5;" width="211" x="2310.5" y="26.7188"/><text fill="#000000" font-family="sans-serif" font-size="20" lengthAdjust="spacing" textLength="114" x="2359" y="52.2832">appSession</text><text fill="#000000" font-family="sans-serif" font-size="20" lengthAdjust="spacing" textLength="197" x="2317.5" y="75.5645">:ApplicationSession</text><rect fill="#E3E3E3" height="60.5625" rx="2.5" ry="2.5" style="stroke:#181818;stroke-width:0.5;" width="211" x="2310.5" y="2463.2813"/><text fill="#000000" font-family="sans-serif" font-size="20" lengthAdjust="spacing" textLength="114" x="2359" y="2488.8457">appSession</text><text fill="#000000" font-family="sans-serif" font-size="20" lengthAdjust="spacing" textLength="197" x="2317.5" y="2512.127">:ApplicationSession</text><rect fill="#E3E3E3" height="60.5625" rx="2.5" ry="2.5" style="stroke:#181818;stroke-width:0.5;" width="163" x="2531.5" y="26.7188"/><text fill="#000000" font-family="sans-serif" font-size="20" lengthAdjust="spacing" textLength="149" x="2538.5" y="52.2832">currentSession</text><text fill="#000000" font-family="sans-serif" font-size="20" lengthAdjust="spacing" textLength="128" x="2549" y="75.5645">:UserSession</text><rect fill="#E3E3E3" height="60.5625" rx="2.5" ry="2.5" style="stroke:#181818;stroke-width:0.5;" width="163" x="2531.5" y="2463.2813"/><text fill="#000000" font-family="sans-serif" font-size="20" lengthAdjust="spacing" textLength="149" x="2538.5" y="2488.8457">currentSession</text><text fill="#000000" font-family="sans-serif" font-size="20" lengthAdjust="spacing" textLength="128" x="2549" y="2512.127">:UserSession</text><rect fill="#E3E3E3" height="60.5625" rx="2.5" ry="2.5" style="stroke:#181818;stroke-width:0.5;" width="253" x="2704.5" y="26.7188"/><text fill="#000000" font-family="sans-serif" font-size="20" lengthAdjust="spacing" textLength="239" x="2711.5" y="52.2832">organizationRepository:</text><text fill="#000000" font-family="sans-serif" font-size="20" lengthAdjust="spacing" textLength="236" x="2713" y="75.5645">OrganizationRepository</text><rect fill="#E3E3E3" height="60.5625" rx="2.5" ry="2.5" style="stroke:#181818;stroke-width:0.5;" width="253" x="2704.5" y="2463.2813"/><text fill="#000000" font-family="sans-serif" font-size="20" lengthAdjust="spacing" textLength="239" x="2711.5" y="2488.8457">organizationRepository:</text><text fill="#000000" font-family="sans-serif" font-size="20" lengthAdjust="spacing" textLength="236" x="2713" y="2512.127">OrganizationRepository</text><rect fill="#E3E3E3" height="60.5625" rx="2.5" ry="2.5" style="stroke:#181818;stroke-width:0.5;" width="151" x="3117.5" y="26.7188"/><text fill="#000000" font-family="sans-serif" font-size="20" lengthAdjust="spacing" textLength="126" x="3130" y="52.2832">organization</text><text fill="#000000" font-family="sans-serif" font-size="20" lengthAdjust="spacing" textLength="137" x="3124.5" y="75.5645">:Organization</text><rect fill="#E3E3E3" height="60.5625" rx="2.5" ry="2.5" style="stroke:#181818;stroke-width:0.5;" width="151" x="3117.5" y="2463.2813"/><text fill="#000000" font-family="sans-serif" font-size="20" lengthAdjust="spacing" textLength="126" x="3130" y="2488.8457">organization</text><text fill="#000000" font-family="sans-serif" font-size="20" lengthAdjust="spacing" textLength="137" x="3124.5" y="2512.127">:Organization</text><rect fill="#E3E3E3" height="60.5625" rx="2.5" ry="2.5" style="stroke:#181818;stroke-width:0.5;" width="67" x="3676" y="2463.2813"/><text fill="#000000" font-family="sans-serif" font-size="20" lengthAdjust="spacing" textLength="42" x="3688.5" y="2488.8457">task</text><text fill="#000000" font-family="sans-serif" font-size="20" lengthAdjust="spacing" textLength="53" x="3683" y="2512.127">:Task</text><rect fill="#FFFFFF" height="2348" style="stroke:#181818;stroke-width:1.0;" width="10" x="120.5" y="98.2813"/><rect fill="#FFFFFF" height="407.0938" style="stroke:#181818;stroke-width:1.0;" width="10" x="638.5" y="127.5625"/><rect fill="#FFFFFF" height="37.2813" style="stroke:#181818;stroke-width:1.0;" width="10" x="638.5" y="571.9375"/><rect fill="#FFFFFF" height="37.2813" style="stroke:#181818;stroke-width:1.0;" width="10" x="638.5" y="693.0625"/><rect fill="#FFFFFF" height="1678.6563" style="stroke:#181818;stroke-width:1.0;" width="10" x="638.5" y="767.625"/><rect fill="#FFFFFF" height="260.9688" style="stroke:#181818;stroke-width:1.0;" width="10" x="953.5" y="213.125"/><rect fill="#FFFFFF" height="1487.6875" style="stroke:#181818;stroke-width:1.0;" width="10" x="953.5" y="921.3125"/><rect fill="#FFFFFF" height="271.9688" style="stroke:#181818;stroke-width:1.0;" width="10" x="958.5" y="966.5938"/><rect fill="#FFFFFF" height="617.7813" style="stroke:#181818;stroke-width:1.0;" width="10" x="958.5" y="1315.8438"/><rect fill="#FFFFFF" height="37.2813" style="stroke:#181818;stroke-width:1.0;" width="10" x="1579.5" y="250.4063"/><rect fill="#FFFFFF" height="37.2813" style="stroke:#181818;stroke-width:1.0;" width="10" x="1579.5" y="1008.875"/><rect fill="#FFFFFF" height="37.2813" style="stroke:#181818;stroke-width:1.0;" width="10" x="1733.5" y="324.9688"/><rect fill="#FFFFFF" height="37.2813" style="stroke:#181818;stroke-width:1.0;" width="10" x="1733.5" y="1083.4375"/><rect fill="#FFFFFF" height="37.2813" style="stroke:#181818;stroke-width:1.0;" width="10" x="1733.5" y="1581.8125"/><rect fill="#FFFFFF" height="37.2813" style="stroke:#181818;stroke-width:1.0;" width="10" x="1945" y="399.5313"/><rect fill="#FFFFFF" height="37.2813" style="stroke:#181818;stroke-width:1.0;" width="10" x="1945" y="1158"/><rect fill="#FFFFFF" height="37.2813" style="stroke:#181818;stroke-width:1.0;" width="10" x="2190" y="1358.125"/><rect fill="#FFFFFF" height="37.2813" style="stroke:#181818;stroke-width:1.0;" width="10" x="2411" y="1432.6875"/><rect fill="#FFFFFF" height="37.2813" style="stroke:#181818;stroke-width:1.0;" width="10" x="2608" y="1507.25"/><rect fill="#FFFFFF" height="159.4063" style="stroke:#181818;stroke-width:1.0;" width="10" x="2826" y="1656.375"/><rect fill="#FFFFFF" height="37.2813" style="stroke:#181818;stroke-width:1.0;" width="10" x="3188" y="1734.2188"/><rect fill="#FFFFFF" height="37.2813" style="stroke:#181818;stroke-width:1.0;" width="10" x="3188" y="1853.0625"/><rect fill="#FFFFFF" height="322.25" style="stroke:#181818;stroke-width:1.0;" width="10" x="3188" y="2049.4688"/><rect fill="#FFFFFF" height="148.8438" style="stroke:#181818;stroke-width:1.0;" width="10" x="3193" y="2178.5938"/><rect fill="#FFFFFF" height="48.2813" style="stroke:#181818;stroke-width:1.0;" width="10" x="3198" y="2228.875"/><polygon fill="#181818" points="626.5,123.5625,636.5,127.5625,626.5,131.5625,630.5,127.5625" style="stroke:#181818;stroke-width:1.0;"/><line style="stroke:#181818;stroke-width:1.0;" x1="130.5" x2="632.5" y1="127.5625" y2="127.5625"/><text fill="#000000" font-family="sans-serif" font-size="20" font-weight="bold" lengthAdjust="spacing" textLength="14" x="137.5" y="120.8457">1</text><text fill="#000000" font-family="sans-serif" font-size="20" lengthAdjust="spacing" textLength="253" x="155.5" y="120.8457">asks to create a new task</text><polygon fill="#181818" points="830.5,160.8438,840.5,164.8438,830.5,168.8438,834.5,164.8438" style="stroke:#181818;stroke-width:1.0;"/><line style="stroke:#181818;stroke-width:1.0;" x1="648.5" x2="836.5" y1="164.8438" y2="164.8438"/><text fill="#000000" font-family="sans-serif" font-size="20" font-weight="bold" lengthAdjust="spacing" textLength="14" x="655.5" y="158.127">2</text><text fill="#000000" font-family="sans-serif" font-size="20" lengthAdjust="spacing" textLength="63" x="673.5" y="158.127">create</text><rect fill="#E3E3E3" height="37.2813" rx="2.5" ry="2.5" style="stroke:#181818;stroke-width:0.5;" width="232" x="842.5" y="135.5625"/><text fill="#000000" font-family="sans-serif" font-size="20" lengthAdjust="spacing" textLength="218" x="849.5" y="161.127">:CreateTaskController</text><polygon fill="#181818" points="941.5,209.125,951.5,213.125,941.5,217.125,945.5,213.125" style="stroke:#181818;stroke-width:1.0;"/><line style="stroke:#181818;stroke-width:1.0;" x1="648.5" x2="947.5" y1="213.125" y2="213.125"/><text fill="#000000" font-family="sans-serif" font-size="20" font-weight="bold" lengthAdjust="spacing" textLength="14" x="655.5" y="206.4082">3</text><text fill="#000000" font-family="sans-serif" font-size="20" lengthAdjust="spacing" textLength="202" x="673.5" y="206.4082">getTaskCategories()</text><polygon fill="#181818" points="1567.5,246.4063,1577.5,250.4063,1567.5,254.4063,1571.5,250.4063" style="stroke:#181818;stroke-width:1.0;"/><line style="stroke:#181818;stroke-width:1.0;" x1="963.5" x2="1573.5" y1="250.4063" y2="250.4063"/><text fill="#000000" font-family="sans-serif" font-size="20" font-weight="bold" lengthAdjust="spacing" textLength="14" x="970.5" y="243.6895">4</text><text fill="#000000" font-family="sans-serif" font-size="20" lengthAdjust="spacing" textLength="134" x="988.5" y="243.6895">getInstance()</text><polygon fill="#181818" points="974.5,283.6875,964.5,287.6875,974.5,291.6875,970.5,287.6875" style="stroke:#181818;stroke-width:1.0;"/><line style="stroke:#181818;stroke-width:1.0;stroke-dasharray:2.0,2.0;" x1="968.5" x2="1583.5" y1="287.6875" y2="287.6875"/><text fill="#000000" font-family="sans-serif" font-size="20" font-weight="bold" lengthAdjust="spacing" textLength="14" x="980.5" y="280.9707">5</text><text fill="#000000" font-family="sans-serif" font-size="20" lengthAdjust="spacing" textLength="117" x="998.5" y="280.9707">repositories</text><polygon fill="#181818" points="1721.5,320.9688,1731.5,324.9688,1721.5,328.9688,1725.5,324.9688" style="stroke:#181818;stroke-width:1.0;"/><line style="stroke:#181818;stroke-width:1.0;" x1="963.5" x2="1727.5" y1="324.9688" y2="324.9688"/><text fill="#000000" font-family="sans-serif" font-size="20" font-weight="bold" lengthAdjust="spacing" textLength="14" x="970.5" y="318.252">6</text><text fill="#000000" font-family="sans-serif" font-size="20" lengthAdjust="spacing" textLength="291" x="988.5" y="318.252">getTaskCategoryRepository()</text><polygon fill="#181818" points="974.5,358.25,964.5,362.25,974.5,366.25,970.5,362.25" style="stroke:#181818;stroke-width:1.0;"/><line style="stroke:#181818;stroke-width:1.0;stroke-dasharray:2.0,2.0;" x1="968.5" x2="1737.5" y1="362.25" y2="362.25"/><text fill="#000000" font-family="sans-serif" font-size="20" font-weight="bold" lengthAdjust="spacing" textLength="14" x="980.5" y="355.5332">7</text><text fill="#000000" font-family="sans-serif" font-size="20" lengthAdjust="spacing" textLength="238" x="998.5" y="355.5332">taskCategoryRepository</text><polygon fill="#181818" points="1933,395.5313,1943,399.5313,1933,403.5313,1937,399.5313" style="stroke:#181818;stroke-width:1.0;"/><line style="stroke:#181818;stroke-width:1.0;" x1="963.5" x2="1939" y1="399.5313" y2="399.5313"/><text fill="#000000" font-family="sans-serif" font-size="20" font-weight="bold" lengthAdjust="spacing" textLength="14" x="970.5" y="392.8145">8</text><text fill="#000000" font-family="sans-serif" font-size="20" lengthAdjust="spacing" textLength="202" x="988.5" y="392.8145">getTaskCategories()</text><polygon fill="#181818" points="974.5,432.8125,964.5,436.8125,974.5,440.8125,970.5,436.8125" style="stroke:#181818;stroke-width:1.0;"/><line style="stroke:#181818;stroke-width:1.0;stroke-dasharray:2.0,2.0;" x1="968.5" x2="1949" y1="436.8125" y2="436.8125"/><text fill="#000000" font-family="sans-serif" font-size="20" font-weight="bold" lengthAdjust="spacing" textLength="14" x="980.5" y="430.0957">9</text><text fill="#000000" font-family="sans-serif" font-size="20" lengthAdjust="spacing" textLength="167" x="998.5" y="430.0957">taskCategoryList</text><polygon fill="#181818" points="659.5,470.0938,649.5,474.0938,659.5,478.0938,655.5,474.0938" style="stroke:#181818;stroke-width:1.0;"/><line style="stroke:#181818;stroke-width:1.0;stroke-dasharray:2.0,2.0;" x1="653.5" x2="957.5" y1="474.0938" y2="474.0938"/><text fill="#000000" font-family="sans-serif" font-size="20" font-weight="bold" lengthAdjust="spacing" textLength="28" x="665.5" y="467.377">10</text><text fill="#000000" font-family="sans-serif" font-size="20" lengthAdjust="spacing" textLength="167" x="697.5" y="467.377">taskCategoryList</text><polygon fill="#181818" points="141.5,530.6563,131.5,534.6563,141.5,538.6563,137.5,534.6563" style="stroke:#181818;stroke-width:1.0;"/><line style="stroke:#181818;stroke-width:1.0;stroke-dasharray:2.0,2.0;" x1="135.5" x2="642.5" y1="534.6563" y2="534.6563"/><text fill="#000000" font-family="sans-serif" font-size="20" font-weight="bold" lengthAdjust="spacing" textLength="28" x="147.5" y="516.2988">11</text><text fill="#000000" font-family="sans-serif" font-size="20" lengthAdjust="spacing" textLength="239" x="179.5" y="504.6582">shows task category list</text><text fill="#000000" font-family="sans-serif" font-size="20" lengthAdjust="spacing" textLength="222" x="185.5" y="527.9395">and asks to sleect one</text><polygon fill="#181818" points="626.5,567.9375,636.5,571.9375,626.5,575.9375,630.5,571.9375" style="stroke:#181818;stroke-width:1.0;"/><line style="stroke:#181818;stroke-width:1.0;" x1="130.5" x2="632.5" y1="571.9375" y2="571.9375"/><text fill="#000000" font-family="sans-serif" font-size="20" font-weight="bold" lengthAdjust="spacing" textLength="28" x="137.5" y="565.2207">12</text><text fill="#000000" font-family="sans-serif" font-size="20" lengthAdjust="spacing" textLength="228" x="169.5" y="565.2207">selects a task category</text><polygon fill="#181818" points="141.5,605.2188,131.5,609.2188,141.5,613.2188,137.5,609.2188" style="stroke:#181818;stroke-width:1.0;"/><line style="stroke:#181818;stroke-width:1.0;stroke-dasharray:2.0,2.0;" x1="135.5" x2="642.5" y1="609.2188" y2="609.2188"/><text fill="#000000" font-family="sans-serif" font-size="20" font-weight="bold" lengthAdjust="spacing" textLength="28" x="147.5" y="602.502">13</text><text fill="#000000" font-family="sans-serif" font-size="20" lengthAdjust="spacing" textLength="137" x="179.5" y="602.502">requests data</text><polygon fill="#181818" points="626.5,689.0625,636.5,693.0625,626.5,697.0625,630.5,693.0625" style="stroke:#181818;stroke-width:1.0;"/><line style="stroke:#181818;stroke-width:1.0;" x1="130.5" x2="632.5" y1="693.0625" y2="693.0625"/><text fill="#000000" font-family="sans-serif" font-size="20" font-weight="bold" lengthAdjust="spacing" textLength="28" x="137.5" y="663.0645">14</text><text fill="#000000" font-family="sans-serif" font-size="20" lengthAdjust="spacing" textLength="451" x="169.5" y="639.7832">types requested data (reference, description,</text><text fill="#000000" font-family="sans-serif" font-size="20" lengthAdjust="spacing" textLength="430" x="169.5" y="663.0645">informal description, technical description,</text><text fill="#000000" font-family="sans-serif" font-size="20" lengthAdjust="spacing" textLength="146" x="169.5" y="686.3457">duration, cost)</text><polygon fill="#181818" points="141.5,726.3438,131.5,730.3438,141.5,734.3438,137.5,730.3438" style="stroke:#181818;stroke-width:1.0;"/><line style="stroke:#181818;stroke-width:1.0;stroke-dasharray:2.0,2.0;" x1="135.5" x2="642.5" y1="730.3438" y2="730.3438"/><text fill="#000000" font-family="sans-serif" font-size="20" font-weight="bold" lengthAdjust="spacing" textLength="28" x="147.5" y="723.627">15</text><text fill="#000000" font-family="sans-serif" font-size="20" lengthAdjust="spacing" textLength="447" x="179.5" y="723.627">shows selected category and requested data</text><polygon fill="#181818" points="626.5,763.625,636.5,767.625,626.5,771.625,630.5,767.625" style="stroke:#181818;stroke-width:1.0;"/><line style="stroke:#181818;stroke-width:1.0;" x1="130.5" x2="632.5" y1="767.625" y2="767.625"/><text fill="#000000" font-family="sans-serif" font-size="20" font-weight="bold" lengthAdjust="spacing" textLength="28" x="137.5" y="760.9082">16</text><text fill="#000000" font-family="sans-serif" font-size="20" lengthAdjust="spacing" textLength="131" x="169.5" y="760.9082">submits data</text><polygon fill="#181818" points="941.5,917.3125,951.5,921.3125,941.5,925.3125,945.5,921.3125" style="stroke:#181818;stroke-width:1.0;"/><line style="stroke:#181818;stroke-width:1.0;" x1="648.5" x2="947.5" y1="921.3125" y2="921.3125"/><text fill="#000000" font-family="sans-serif" font-size="20" font-weight="bold" lengthAdjust="spacing" textLength="28" x="655.5" y="856.3926">17</text><text fill="#000000" font-family="sans-serif" font-size="20" lengthAdjust="spacing" textLength="218" x="687.5" y="798.1895">createTask(reference,</text><text fill="#000000" font-family="sans-serif" font-size="20" lengthAdjust="spacing" textLength="118" x="687.5" y="821.4707">description,</text><text fill="#000000" font-family="sans-serif" font-size="20" lengthAdjust="spacing" textLength="204" x="687.5" y="844.752">informalDescription,</text><text fill="#000000" font-family="sans-serif" font-size="20" lengthAdjust="spacing" textLength="212" x="687.5" y="868.0332">technicalDescription,</text><text fill="#000000" font-family="sans-serif" font-size="20" lengthAdjust="spacing" textLength="144" x="687.5" y="891.3145">duration, cost,</text><text fill="#000000" font-family="sans-serif" font-size="20" lengthAdjust="spacing" textLength="254" x="687.5" y="914.5957">taskCategoryDescription)</text><line style="stroke:#181818;stroke-width:1.0;" x1="963.5" x2="1010.5" y1="953.5938" y2="953.5938"/><line style="stroke:#181818;stroke-width:1.0;" x1="1010.5" x2="1010.5" y1="953.5938" y2="966.5938"/><line style="stroke:#181818;stroke-width:1.0;" x1="969.5" x2="1010.5" y1="966.5938" y2="966.5938"/><polygon fill="#181818" points="979.5,962.5938,969.5,966.5938,979.5,970.5938,975.5,966.5938" style="stroke:#181818;stroke-width:1.0;"/><text fill="#000000" font-family="sans-serif" font-size="20" font-weight="bold" lengthAdjust="spacing" textLength="28" x="975.5" y="946.877">18</text><text fill="#000000" font-family="sans-serif" font-size="20" lengthAdjust="spacing" textLength="570" x="1007.5" y="946.877">getTaskCategoryByDescription(taskCategoryDescription)</text><polygon fill="#181818" points="1567.5,1004.875,1577.5,1008.875,1567.5,1012.875,1571.5,1008.875" style="stroke:#181818;stroke-width:1.0;"/><line style="stroke:#181818;stroke-width:1.0;" x1="968.5" x2="1573.5" y1="1008.875" y2="1008.875"/><text fill="#000000" font-family="sans-serif" font-size="20" font-weight="bold" lengthAdjust="spacing" textLength="28" x="975.5" y="1002.1582">19</text><text fill="#000000" font-family="sans-serif" font-size="20" lengthAdjust="spacing" textLength="134" x="1007.5" y="1002.1582">getInstance()</text><polygon fill="#181818" points="979.5,1042.1563,969.5,1046.1563,979.5,1050.1563,975.5,1046.1563" style="stroke:#181818;stroke-width:1.0;"/><line style="stroke:#181818;stroke-width:1.0;stroke-dasharray:2.0,2.0;" x1="973.5" x2="1583.5" y1="1046.1563" y2="1046.1563"/><text fill="#000000" font-family="sans-serif" font-size="20" font-weight="bold" lengthAdjust="spacing" textLength="28" x="985.5" y="1039.4395">20</text><text fill="#000000" font-family="sans-serif" font-size="20" lengthAdjust="spacing" textLength="117" x="1017.5" y="1039.4395">repositories</text><polygon fill="#181818" points="1721.5,1079.4375,1731.5,1083.4375,1721.5,1087.4375,1725.5,1083.4375" style="stroke:#181818;stroke-width:1.0;"/><line style="stroke:#181818;stroke-width:1.0;" x1="968.5" x2="1727.5" y1="1083.4375" y2="1083.4375"/><text fill="#000000" font-family="sans-serif" font-size="20" font-weight="bold" lengthAdjust="spacing" textLength="28" x="975.5" y="1076.7207">21</text><text fill="#000000" font-family="sans-serif" font-size="20" lengthAdjust="spacing" textLength="291" x="1007.5" y="1076.7207">getTaskCategoryRepository()</text><polygon fill="#181818" points="979.5,1116.7188,969.5,1120.7188,979.5,1124.7188,975.5,1120.7188" style="stroke:#181818;stroke-width:1.0;"/><line style="stroke:#181818;stroke-width:1.0;" x1="973.5" x2="1737.5" y1="1120.7188" y2="1120.7188"/><text fill="#000000" font-family="sans-serif" font-size="20" font-weight="bold" lengthAdjust="spacing" textLength="28" x="985.5" y="1114.002">22</text><text fill="#000000" font-family="sans-serif" font-size="20" lengthAdjust="spacing" textLength="238" x="1017.5" y="1114.002">taskCategoryRepository</text><polygon fill="#181818" points="1933,1154,1943,1158,1933,1162,1937,1158" style="stroke:#181818;stroke-width:1.0;"/><line style="stroke:#181818;stroke-width:1.0;" x1="968.5" x2="1939" y1="1158" y2="1158"/><text fill="#000000" font-family="sans-serif" font-size="20" font-weight="bold" lengthAdjust="spacing" textLength="28" x="975.5" y="1151.2832">23</text><text fill="#000000" font-family="sans-serif" font-size="20" lengthAdjust="spacing" textLength="570" x="1007.5" y="1151.2832">getTaskCategoryByDescription(taskCategoryDescription)</text><polygon fill="#181818" points="979.5,1191.2813,969.5,1195.2813,979.5,1199.2813,975.5,1195.2813" style="stroke:#181818;stroke-width:1.0;"/><line style="stroke:#181818;stroke-width:1.0;stroke-dasharray:2.0,2.0;" x1="973.5" x2="1949" y1="1195.2813" y2="1195.2813"/><text fill="#000000" font-family="sans-serif" font-size="20" font-weight="bold" lengthAdjust="spacing" textLength="28" x="985.5" y="1188.5645">24</text><text fill="#000000" font-family="sans-serif" font-size="20" lengthAdjust="spacing" textLength="132" x="1017.5" y="1188.5645">taskCategory</text><line style="stroke:#181818;stroke-width:1.0;stroke-dasharray:2.0,2.0;" x1="968.5" x2="1010.5" y1="1237.5625" y2="1237.5625"/><line style="stroke:#181818;stroke-width:1.0;stroke-dasharray:2.0,2.0;" x1="1010.5" x2="1010.5" y1="1237.5625" y2="1250.5625"/><line style="stroke:#181818;stroke-width:1.0;stroke-dasharray:2.0,2.0;" x1="963.5" x2="1010.5" y1="1250.5625" y2="1250.5625"/><polygon fill="#181818" points="973.5,1246.5625,963.5,1250.5625,973.5,1254.5625,969.5,1250.5625" style="stroke:#181818;stroke-width:1.0;"/><text fill="#000000" font-family="sans-serif" font-size="20" font-weight="bold" lengthAdjust="spacing" textLength="28" x="975.5" y="1230.8457">25</text><text fill="#000000" font-family="sans-serif" font-size="20" lengthAdjust="spacing" textLength="132" x="1007.5" y="1230.8457">taskCategory</text><line style="stroke:#181818;stroke-width:1.0;" x1="963.5" x2="1010.5" y1="1302.8438" y2="1302.8438"/><line style="stroke:#181818;stroke-width:1.0;" x1="1010.5" x2="1010.5" y1="1302.8438" y2="1315.8438"/><line style="stroke:#181818;stroke-width:1.0;" x1="969.5" x2="1010.5" y1="1315.8438" y2="1315.8438"/><polygon fill="#181818" points="979.5,1311.8438,969.5,1315.8438,979.5,1319.8438,975.5,1315.8438" style="stroke:#181818;stroke-width:1.0;"/><text fill="#000000" font-family="sans-serif" font-size="20" font-weight="bold" lengthAdjust="spacing" textLength="28" x="975.5" y="1296.127">26</text><text fill="#000000" font-family="sans-serif" font-size="20" lengthAdjust="spacing" textLength="276" x="1007.5" y="1296.127">getEmployeeFromSession()</text><polygon fill="#181818" points="2178,1354.125,2188,1358.125,2178,1362.125,2182,1358.125" style="stroke:#181818;stroke-width:1.0;"/><line style="stroke:#181818;stroke-width:1.0;" x1="968.5" x2="2184" y1="1358.125" y2="1358.125"/><text fill="#000000" font-family="sans-serif" font-size="20" font-weight="bold" lengthAdjust="spacing" textLength="28" x="975.5" y="1351.4082">27</text><text fill="#000000" font-family="sans-serif" font-size="20" lengthAdjust="spacing" textLength="134" x="1007.5" y="1351.4082">getInstance()</text><polygon fill="#181818" points="979.5,1391.4063,969.5,1395.4063,979.5,1399.4063,975.5,1395.4063" style="stroke:#181818;stroke-width:1.0;"/><line style="stroke:#181818;stroke-width:1.0;" x1="973.5" x2="2194" y1="1395.4063" y2="1395.4063"/><text fill="#000000" font-family="sans-serif" font-size="20" font-weight="bold" lengthAdjust="spacing" textLength="28" x="985.5" y="1388.6895">28</text><text fill="#000000" font-family="sans-serif" font-size="20" lengthAdjust="spacing" textLength="114" x="1017.5" y="1388.6895">appSession</text><polygon fill="#181818" points="2399,1428.6875,2409,1432.6875,2399,1436.6875,2403,1432.6875" style="stroke:#181818;stroke-width:1.0;"/><line style="stroke:#181818;stroke-width:1.0;" x1="968.5" x2="2405" y1="1432.6875" y2="1432.6875"/><text fill="#000000" font-family="sans-serif" font-size="20" font-weight="bold" lengthAdjust="spacing" textLength="28" x="975.5" y="1425.9707">29</text><text fill="#000000" font-family="sans-serif" font-size="20" lengthAdjust="spacing" textLength="201" x="1007.5" y="1425.9707">getCurrentSession()</text><polygon fill="#181818" points="979.5,1465.9688,969.5,1469.9688,979.5,1473.9688,975.5,1469.9688" style="stroke:#181818;stroke-width:1.0;"/><line style="stroke:#181818;stroke-width:1.0;stroke-dasharray:2.0,2.0;" x1="973.5" x2="2415" y1="1469.9688" y2="1469.9688"/><text fill="#000000" font-family="sans-serif" font-size="20" font-weight="bold" lengthAdjust="spacing" textLength="28" x="985.5" y="1463.252">30</text><text fill="#000000" font-family="sans-serif" font-size="20" lengthAdjust="spacing" textLength="149" x="1017.5" y="1463.252">currentSession</text><polygon fill="#181818" points="2596,1503.25,2606,1507.25,2596,1511.25,2600,1507.25" style="stroke:#181818;stroke-width:1.0;"/><line style="stroke:#181818;stroke-width:1.0;" x1="968.5" x2="2602" y1="1507.25" y2="1507.25"/><text fill="#000000" font-family="sans-serif" font-size="20" font-weight="bold" lengthAdjust="spacing" textLength="28" x="975.5" y="1500.5332">31</text><text fill="#000000" font-family="sans-serif" font-size="20" lengthAdjust="spacing" textLength="236" x="1007.5" y="1500.5332">email = getUserEmail()</text><polygon fill="#181818" points="979.5,1540.5313,969.5,1544.5313,979.5,1548.5313,975.5,1544.5313" style="stroke:#181818;stroke-width:1.0;"/><line style="stroke:#181818;stroke-width:1.0;stroke-dasharray:2.0,2.0;" x1="973.5" x2="2612" y1="1544.5313" y2="1544.5313"/><text fill="#000000" font-family="sans-serif" font-size="20" font-weight="bold" lengthAdjust="spacing" textLength="28" x="985.5" y="1537.8145">32</text><text fill="#000000" font-family="sans-serif" font-size="20" lengthAdjust="spacing" textLength="56" x="1017.5" y="1537.8145">email</text><polygon fill="#181818" points="1721.5,1577.8125,1731.5,1581.8125,1721.5,1585.8125,1725.5,1581.8125" style="stroke:#181818;stroke-width:1.0;"/><line style="stroke:#181818;stroke-width:1.0;" x1="968.5" x2="1727.5" y1="1581.8125" y2="1581.8125"/><text fill="#000000" font-family="sans-serif" font-size="20" font-weight="bold" lengthAdjust="spacing" textLength="28" x="975.5" y="1575.0957">33</text><text fill="#000000" font-family="sans-serif" font-size="20" lengthAdjust="spacing" textLength="341" x="1007.5" y="1575.0957">getOrganizationRepository(email)</text><polygon fill="#181818" points="979.5,1615.0938,969.5,1619.0938,979.5,1623.0938,975.5,1619.0938" style="stroke:#181818;stroke-width:1.0;"/><line style="stroke:#181818;stroke-width:1.0;stroke-dasharray:2.0,2.0;" x1="973.5" x2="1737.5" y1="1619.0938" y2="1619.0938"/><text fill="#000000" font-family="sans-serif" font-size="20" font-weight="bold" lengthAdjust="spacing" textLength="28" x="985.5" y="1612.377">34</text><text fill="#000000" font-family="sans-serif" font-size="20" lengthAdjust="spacing" textLength="232" x="1017.5" y="1612.377">organizationRepository</text><polygon fill="#181818" points="2814,1652.375,2824,1656.375,2814,1660.375,2818,1656.375" style="stroke:#181818;stroke-width:1.0;"/><line style="stroke:#181818;stroke-width:1.0;" x1="968.5" x2="2820" y1="1656.375" y2="1656.375"/><text fill="#000000" font-family="sans-serif" font-size="20" font-weight="bold" lengthAdjust="spacing" textLength="28" x="975.5" y="1649.6582">35</text><text fill="#000000" font-family="sans-serif" font-size="20" lengthAdjust="spacing" textLength="416" x="1007.5" y="1649.6582">getOrganizationByEmployeeEmail(email)</text><path d="M2694.5,1671.375 L2788.5,1671.375 L2788.5,1686.6563 L2778.5,1696.6563 L2694.5,1696.6563 L2694.5,1671.375 " fill="#EEEEEE" style="stroke:#000000;stroke-width:1.5;"/><rect fill="none" height="108.125" style="stroke:#000000;stroke-width:1.5;" width="584" x="2694.5" y="1671.375"/><text fill="#000000" font-family="sans-serif" font-size="20" font-weight="bold" lengthAdjust="spacing" textLength="49" x="2709.5" y="1690.9395">loop</text><text fill="#000000" font-family="sans-serif" font-size="20" font-weight="bold" lengthAdjust="spacing" textLength="272" x="2803.5" y="1691.9395">[[for each organization]</text><polygon fill="#181818" points="3176,1730.2188,3186,1734.2188,3176,1738.2188,3180,1734.2188" style="stroke:#181818;stroke-width:1.0;"/><line style="stroke:#181818;stroke-width:1.0;" x1="2836" x2="3182" y1="1734.2188" y2="1734.2188"/><text fill="#000000" font-family="sans-serif" font-size="20" font-weight="bold" lengthAdjust="spacing" textLength="28" x="2843" y="1727.502">36</text><text fill="#000000" font-family="sans-serif" font-size="20" lengthAdjust="spacing" textLength="301" x="2875" y="1727.502">anyEmployeeHasEmail(email)</text><polygon fill="#181818" points="2847,1767.5,2837,1771.5,2847,1775.5,2843,1771.5" style="stroke:#181818;stroke-width:1.0;"/><line style="stroke:#181818;stroke-width:1.0;stroke-dasharray:2.0,2.0;" x1="2841" x2="3192" y1="1771.5" y2="1771.5"/><text fill="#000000" font-family="sans-serif" font-size="20" font-weight="bold" lengthAdjust="spacing" textLength="28" x="2853" y="1764.7832">37</text><text fill="#000000" font-family="sans-serif" font-size="20" lengthAdjust="spacing" textLength="95" x="2885" y="1764.7832">true/false</text><polygon fill="#181818" points="979.5,1811.7813,969.5,1815.7813,979.5,1819.7813,975.5,1815.7813" style="stroke:#181818;stroke-width:1.0;"/><line style="stroke:#181818;stroke-width:1.0;stroke-dasharray:2.0,2.0;" x1="973.5" x2="2830" y1="1815.7813" y2="1815.7813"/><text fill="#000000" font-family="sans-serif" font-size="20" font-weight="bold" lengthAdjust="spacing" textLength="28" x="985.5" y="1809.0645">38</text><text fill="#000000" font-family="sans-serif" font-size="20" lengthAdjust="spacing" textLength="126" x="1017.5" y="1809.0645">organization</text><polygon fill="#181818" points="3176,1849.0625,3186,1853.0625,3176,1857.0625,3180,1853.0625" style="stroke:#181818;stroke-width:1.0;"/><line style="stroke:#181818;stroke-width:1.0;" x1="968.5" x2="3182" y1="1853.0625" y2="1853.0625"/><text fill="#000000" font-family="sans-serif" font-size="20" font-weight="bold" lengthAdjust="spacing" textLength="28" x="975.5" y="1846.3457">39</text><text fill="#000000" font-family="sans-serif" font-size="20" lengthAdjust="spacing" textLength="286" x="1007.5" y="1846.3457">getEmployeeByEmail(email)</text><polygon fill="#181818" points="979.5,1886.3438,969.5,1890.3438,979.5,1894.3438,975.5,1890.3438" style="stroke:#181818;stroke-width:1.0;"/><line style="stroke:#181818;stroke-width:1.0;stroke-dasharray:2.0,2.0;" x1="973.5" x2="3192" y1="1890.3438" y2="1890.3438"/><text fill="#000000" font-family="sans-serif" font-size="20" font-weight="bold" lengthAdjust="spacing" textLength="28" x="985.5" y="1883.627">40</text><text fill="#000000" font-family="sans-serif" font-size="20" lengthAdjust="spacing" textLength="98" x="1017.5" y="1883.627">employee</text><line style="stroke:#181818;stroke-width:1.0;stroke-dasharray:2.0,2.0;" x1="968.5" x2="1010.5" y1="1932.625" y2="1932.625"/><line style="stroke:#181818;stroke-width:1.0;stroke-dasharray:2.0,2.0;" x1="1010.5" x2="1010.5" y1="1932.625" y2="1945.625"/><line style="stroke:#181818;stroke-width:1.0;stroke-dasharray:2.0,2.0;" x1="963.5" x2="1010.5" y1="1945.625" y2="1945.625"/><polygon fill="#181818" points="973.5,1941.625,963.5,1945.625,973.5,1949.625,969.5,1945.625" style="stroke:#181818;stroke-width:1.0;"/><text fill="#000000" font-family="sans-serif" font-size="20" font-weight="bold" lengthAdjust="spacing" textLength="28" x="975.5" y="1925.9082">41</text><text fill="#000000" font-family="sans-serif" font-size="20" lengthAdjust="spacing" textLength="98" x="1007.5" y="1925.9082">employee</text><polygon fill="#181818" points="3176,2045.4688,3186,2049.4688,3176,2053.4688,3180,2049.4688" style="stroke:#181818;stroke-width:1.0;"/><line style="stroke:#181818;stroke-width:1.0;" x1="963.5" x2="3182" y1="2049.4688" y2="2049.4688"/><text fill="#000000" font-family="sans-serif" font-size="20" font-weight="bold" lengthAdjust="spacing" textLength="28" x="970.5" y="2019.4707">42</text><text fill="#000000" font-family="sans-serif" font-size="20" lengthAdjust="spacing" textLength="452" x="1002.5" y="1996.1895">createTask(employee, reference, description,</text><text fill="#000000" font-family="sans-serif" font-size="20" lengthAdjust="spacing" textLength="422" x="1002.5" y="2019.4707">informalDescription, technicalDescription,</text><text fill="#000000" font-family="sans-serif" font-size="20" lengthAdjust="spacing" textLength="412" x="1002.5" y="2042.752">duration, cost, , taskCategory, employee)</text><polygon fill="#181818" points="3664,2129.3125,3674,2133.3125,3664,2137.3125,3668,2133.3125" style="stroke:#181818;stroke-width:1.0;"/><line style="stroke:#181818;stroke-width:1.0;" x1="3198" x2="3670" y1="2133.3125" y2="2133.3125"/><text fill="#000000" font-family="sans-serif" font-size="20" font-weight="bold" lengthAdjust="spacing" textLength="28" x="3205" y="2103.3145">43</text><text fill="#000000" font-family="sans-serif" font-size="20" lengthAdjust="spacing" textLength="406" x="3237" y="2080.0332">create(employee, reference, description,</text><text fill="#000000" font-family="sans-serif" font-size="20" lengthAdjust="spacing" textLength="422" x="3237" y="2103.3145">informalDescription, technicalDescription,</text><text fill="#000000" font-family="sans-serif" font-size="20" lengthAdjust="spacing" textLength="400" x="3237" y="2126.5957">duration, cost, taskCategory, employee)</text><rect fill="#E3E3E3" height="60.5625" rx="2.5" ry="2.5" style="stroke:#181818;stroke-width:0.5;" width="67" x="3676" y="2069.75"/><text fill="#000000" font-family="sans-serif" font-size="20" lengthAdjust="spacing" textLength="42" x="3688.5" y="2095.3145">task</text><text fill="#000000" font-family="sans-serif" font-size="20" lengthAdjust="spacing" textLength="53" x="3683" y="2118.5957">:Task</text><line style="stroke:#181818;stroke-width:1.0;" x1="3198" x2="3245" y1="2165.5938" y2="2165.5938"/><line style="stroke:#181818;stroke-width:1.0;" x1="3245" x2="3245" y1="2165.5938" y2="2178.5938"/><line style="stroke:#181818;stroke-width:1.0;" x1="3204" x2="3245" y1="2178.5938" y2="2178.5938"/><polygon fill="#181818" points="3214,2174.5938,3204,2178.5938,3214,2182.5938,3210,2178.5938" style="stroke:#181818;stroke-width:1.0;"/><text fill="#000000" font-family="sans-serif" font-size="20" font-weight="bold" lengthAdjust="spacing" textLength="28" x="3210" y="2158.877">44</text><text fill="#000000" font-family="sans-serif" font-size="20" lengthAdjust="spacing" textLength="148" x="3242" y="2158.877">addTask (task)</text><line style="stroke:#181818;stroke-width:1.0;" x1="3203" x2="3250" y1="2215.875" y2="2215.875"/><line style="stroke:#181818;stroke-width:1.0;" x1="3250" x2="3250" y1="2215.875" y2="2228.875"/><line style="stroke:#181818;stroke-width:1.0;" x1="3209" x2="3250" y1="2228.875" y2="2228.875"/><polygon fill="#181818" points="3219,2224.875,3209,2228.875,3219,2232.875,3215,2228.875" style="stroke:#181818;stroke-width:1.0;"/><text fill="#000000" font-family="sans-serif" font-size="20" font-weight="bold" lengthAdjust="spacing" textLength="28" x="3215" y="2209.1582">45</text><text fill="#000000" font-family="sans-serif" font-size="20" lengthAdjust="spacing" textLength="184" x="3247" y="2209.1582">validateTask(task)</text><line style="stroke:#181818;stroke-width:1.0;stroke-dasharray:2.0,2.0;" x1="3208" x2="3250" y1="2276.1563" y2="2276.1563"/><line style="stroke:#181818;stroke-width:1.0;stroke-dasharray:2.0,2.0;" x1="3250" x2="3250" y1="2276.1563" y2="2289.1563"/><line style="stroke:#181818;stroke-width:1.0;stroke-dasharray:2.0,2.0;" x1="3203" x2="3250" y1="2289.1563" y2="2289.1563"/><polygon fill="#181818" points="3213,2285.1563,3203,2289.1563,3213,2293.1563,3209,2289.1563" style="stroke:#181818;stroke-width:1.0;"/><text fill="#000000" font-family="sans-serif" font-size="20" font-weight="bold" lengthAdjust="spacing" textLength="28" x="3215" y="2269.4395">46</text><text fill="#000000" font-family="sans-serif" font-size="20" lengthAdjust="spacing" textLength="6" x="3247" y="2269.4395"> </text><line style="stroke:#181818;stroke-width:1.0;stroke-dasharray:2.0,2.0;" x1="3203" x2="3245" y1="2326.4375" y2="2326.4375"/><line style="stroke:#181818;stroke-width:1.0;stroke-dasharray:2.0,2.0;" x1="3245" x2="3245" y1="2326.4375" y2="2339.4375"/><line style="stroke:#181818;stroke-width:1.0;stroke-dasharray:2.0,2.0;" x1="3198" x2="3245" y1="2339.4375" y2="2339.4375"/><polygon fill="#181818" points="3208,2335.4375,3198,2339.4375,3208,2343.4375,3204,2339.4375" style="stroke:#181818;stroke-width:1.0;"/><text fill="#000000" font-family="sans-serif" font-size="20" font-weight="bold" lengthAdjust="spacing" textLength="28" x="3210" y="2319.7207">47</text><text fill="#000000" font-family="sans-serif" font-size="20" lengthAdjust="spacing" textLength="6" x="3242" y="2319.7207"> </text><polygon fill="#181818" points="974.5,2367.7188,964.5,2371.7188,974.5,2375.7188,970.5,2371.7188" style="stroke:#181818;stroke-width:1.0;"/><line style="stroke:#181818;stroke-width:1.0;stroke-dasharray:2.0,2.0;" x1="968.5" x2="3192" y1="2371.7188" y2="2371.7188"/><text fill="#000000" font-family="sans-serif" font-size="20" font-weight="bold" lengthAdjust="spacing" textLength="28" x="980.5" y="2365.002">48</text><text fill="#000000" font-family="sans-serif" font-size="20" lengthAdjust="spacing" textLength="42" x="1012.5" y="2365.002">task</text><polygon fill="#181818" points="659.5,2405,649.5,2409,659.5,2413,655.5,2409" style="stroke:#181818;stroke-width:1.0;"/><line style="stroke:#181818;stroke-width:1.0;stroke-dasharray:2.0,2.0;" x1="653.5" x2="957.5" y1="2409" y2="2409"/><text fill="#000000" font-family="sans-serif" font-size="20" font-weight="bold" lengthAdjust="spacing" textLength="28" x="665.5" y="2402.2832">49</text><text fill="#000000" font-family="sans-serif" font-size="20" lengthAdjust="spacing" textLength="42" x="697.5" y="2402.2832">task</text><polygon fill="#181818" points="136.5,2442.2813,126.5,2446.2813,136.5,2450.2813,132.5,2446.2813" style="stroke:#181818;stroke-width:1.0;"/><line style="stroke:#181818;stroke-width:1.0;stroke-dasharray:2.0,2.0;" x1="130.5" x2="642.5" y1="2446.2813" y2="2446.2813"/><text fill="#000000" font-family="sans-serif" font-size="20" font-weight="bold" lengthAdjust="spacing" textLength="28" x="142.5" y="2439.5645">50</text><text fill="#000000" font-family="sans-serif" font-size="20" lengthAdjust="spacing" textLength="266" x="174.5" y="2439.5645">displays operation success</text><!--SRC=[xLXBRoCt3BxhLn2vv04RBNeqq03Ul1eWYmHsSgg1GfcHRS5ZQIh9ctgH7rzAyx3aqJmssDtJpYNnYFpuaI8fSVI6Yvmgkiraic4ff6n9TvcvbSBC-LS6V_nET2K2MobaibPooy2e7VDMSffiw8hDpJvZe5XYg5Xble1UqrI-SR629Sqq8uJkZ1IxxIjJX9okUSfWAQLvbVyHcXYfuEHHhQZWNwdXKi3DDi_adh4Je1gcrvy9eXgUy9mA0oUJAyMeOSzKRrxkdSZBVQl45RgcP9OnvIIldcSFHx8pbalDaGHdsidKB_PpRlr2vg6AyZGMeWdmz31z3ZMCPOACLWXwW9yin7DqmQ74bux8J_CyuucBsfnfZN-SxZ_JfwTGakPvAO2CMxGQIibEAOQfKIk-QAPyZVdDV3vz39MajvE1hu_H1OSJNsh7HIg-Ie4nksi67GLj78k0JcStjrDYCuv_mS2wp29GFlW3nfUOIZ11uOq68o5nQGGK17i32tSGhq4mzyWfU0yYZ178uasmEFxTCMqqfDHGE5DioJ2Y2HjXwUb4yTpI7m5miPHgIpDOY735i6GjSA-oy7MwKxJuBv7Qd1EVm6b9s-NwCRDBz_hY0haLOgH510LMp7X9YDbz5XggO-0i1KlsSIY85gcd0lnUQEmS2Jk23Q1ZnTYGja_CohZqnUx3eKORwYdxDdELOxRE6s7oQhNBBzSZeeuur0FpUEleyY4ENP6EKnsmsm7zbkOKTQZ5ulYGQBwF3roRBk-6MYxyhIgwquA7tipae9prMhvf1mP9YGOPmc7LKf7MVKDd30z5a8AHY0tRCOuxZcOPQcXiDG4uQRIQ_Yv31fWp-vpfIitU0pgxqqBKxMb0Rrg8M7FgTwA8RH48f5J7rmOsP3h4GxrxtN8_8gq4wYnCwak35mdq9l2jYiHryBQEn7L78AoSbuQUw3aPq5Ah0eusv_qd7- -irywlzlrZstUqjVt4zlsHVFX93Vu3pJrcjExlVIOwk_lx-tjFaLMpo2qEGkNLzsFN87id7rmtxW8VSzikG5qNXrjzLrGTM3knYjTLSDllOkVmOkmSkPfTE3vqCOm2LloA8MC2R4jv1dzQgdOEkR4_krYMmqcKQB7cSNNWNHGhjCvsuk8O7sREd8NlSIEC3rZzBQMLUPnmmvTF-weMYj3tETGor4LTpAJCuMyyMW5PhmCNe_BsYUCxXsPtTeeJDU6_gExatEIEmsIhL64TROnRWsSRajgntuhF7sqOtXPPWp4H9bBoBSuVUbTd37tB0xUfpfRPNT0ORLeCIeUsa5QHB7cp4fVqH8lqdGXHe0-T1ivbxtfO8O-WvSeSloV2i6iYZ8B3R5GxqdBiH8FXWdfPVlEukAZe_sZgGuXxz5nWQPhQg8AxfPn7-bHlaVXeNsZ6qsgZ2iJUIk-jyHQPlepim-ZJFwgCy0jK7u0t09UgNNKG7tada7ATPtIlGUQis6eShP84Z_JO5EOVwTUVoVy0]--></g></svg>