<?xml version="1.0" encoding="UTF-8" standalone="no"?><svg xmlns="http://www.w3.org/2000/svg" xmlns:xlink="http://www.w3.org/1999/xlink" contentStyleType="text/css" height="1260px" preserveAspectRatio="none" style="width:2732px;height:1260px;background:#FFFFFF;" version="1.1" viewBox="0 0 2732 1260" width="2732px" zoomAndPan="magnify"><defs/><g><rect fill="#FFFFFF" height="1065.4375" style="stroke:#181818;stroke-width:1.0;" width="10" x="48" y="98.2813"/><rect fill="#FFFFFF" height="260.9688" style="stroke:#181818;stroke-width:1.0;" width="10" x="719" y="127.5625"/><rect fill="#FFFFFF" height="335.5313" style="stroke:#181818;stroke-width:1.0;" width="10" x="719" y="466.375"/><rect fill="#FFFFFF" height="276.9688" style="stroke:#181818;stroke-width:1.0;" width="10" x="719" y="886.75"/><rect fill="#FFFFFF" height="186.4063" style="stroke:#181818;stroke-width:1.0;" width="10" x="1178" y="164.8438"/><rect fill="#FFFFFF" height="260.9688" style="stroke:#181818;stroke-width:1.0;" width="10" x="1178" y="503.6563"/><rect fill="#FFFFFF" height="186.4063" style="stroke:#181818;stroke-width:1.0;" width="10" x="1178" y="924.0313"/><rect fill="#FFFFFF" height="111.8438" style="stroke:#181818;stroke-width:1.0;" width="10" x="1663" y="202.125"/><rect fill="#FFFFFF" height="186.4063" style="stroke:#181818;stroke-width:1.0;" width="10" x="1663" y="540.9375"/><rect fill="#FFFFFF" height="111.8438" style="stroke:#181818;stroke-width:1.0;" width="10" x="1663" y="961.3125"/><rect fill="#FFFFFF" height="37.2813" style="stroke:#181818;stroke-width:1.0;" width="10" x="2054" y="239.4063"/><rect fill="#FFFFFF" height="37.2813" style="stroke:#181818;stroke-width:1.0;" width="10" x="2054" y="998.5938"/><rect fill="#FFFFFF" height="111.8438" style="stroke:#181818;stroke-width:1.0;" width="10" x="2302" y="578.2188"/><rect fill="#FFFFFF" height="37.2813" style="stroke:#181818;stroke-width:1.0;" width="10" x="2627" y="615.5"/><rect fill="none" height="406.375" style="stroke:#000000;stroke-width:1.5;" width="2716" x="10" y="403.5313"/><rect fill="none" height="331.8125" style="stroke:#000000;stroke-width:1.5;" width="2160" x="10" y="823.9063"/><line style="stroke:#181818;stroke-width:0.5;stroke-dasharray:5.0,5.0;" x1="53" x2="53" y1="88.2813" y2="1172.7188"/><line style="stroke:#181818;stroke-width:0.5;stroke-dasharray:5.0,5.0;" x1="724" x2="724" y1="88.2813" y2="1172.7188"/><line style="stroke:#181818;stroke-width:0.5;stroke-dasharray:5.0,5.0;" x1="1183" x2="1183" y1="88.2813" y2="1172.7188"/><line style="stroke:#181818;stroke-width:0.5;stroke-dasharray:5.0,5.0;" x1="1668" x2="1668" y1="88.2813" y2="1172.7188"/><line style="stroke:#181818;stroke-width:0.5;stroke-dasharray:5.0,5.0;" x1="2059" x2="2059" y1="88.2813" y2="1172.7188"/><line style="stroke:#181818;stroke-width:0.5;stroke-dasharray:5.0,5.0;" x1="2307" x2="2307" y1="88.2813" y2="1172.7188"/><line style="stroke:#181818;stroke-width:0.5;stroke-dasharray:5.0,5.0;" x1="2632" x2="2632" y1="88.2813" y2="1172.7188"/><text fill="#000000" font-family="sans-serif" font-size="20" lengthAdjust="spacing" textLength="60" x="20" y="83.5645">Agent</text><ellipse cx="53" cy="13.5" fill="#E3E3E3" rx="8" ry="8" style="stroke:#181818;stroke-width:0.5;"/><path d="M53,21.5 L53,48.5 M40,29.5 L66,29.5 M53,48.5 L40,63.5 M53,48.5 L66,63.5 " fill="none" style="stroke:#181818;stroke-width:0.5;"/><text fill="#000000" font-family="sans-serif" font-size="20" lengthAdjust="spacing" textLength="60" x="20" y="1190.2832">Agent</text><ellipse cx="53" cy="1203.5" fill="#E3E3E3" rx="8" ry="8" style="stroke:#181818;stroke-width:0.5;"/><path d="M53,1211.5 L53,1238.5 M40,1219.5 L66,1219.5 M53,1238.5 L40,1253.5 M53,1238.5 L66,1253.5 " fill="none" style="stroke:#181818;stroke-width:0.5;"/><rect fill="#E3E3E3" height="37.2813" rx="2.5" ry="2.5" style="stroke:#181818;stroke-width:0.5;" width="372" x="538" y="50"/><text fill="#000000" font-family="sans-serif" font-size="20" lengthAdjust="spacing" textLength="358" x="545" y="75.5645">:PropertyAnnouncementsRequestUI</text><rect fill="#E3E3E3" height="37.2813" rx="2.5" ry="2.5" style="stroke:#181818;stroke-width:0.5;" width="372" x="538" y="1171.7188"/><text fill="#000000" font-family="sans-serif" font-size="20" lengthAdjust="spacing" textLength="358" x="545" y="1197.2832">:PropertyAnnouncementsRequestUI</text><rect fill="#E3E3E3" height="37.2813" rx="2.5" ry="2.5" style="stroke:#181818;stroke-width:0.5;" width="316" x="1025" y="50"/><text fill="#000000" font-family="sans-serif" font-size="20" lengthAdjust="spacing" textLength="302" x="1032" y="75.5645">:PostAnnouncementController</text><rect fill="#E3E3E3" height="37.2813" rx="2.5" ry="2.5" style="stroke:#181818;stroke-width:0.5;" width="316" x="1025" y="1171.7188"/><text fill="#000000" font-family="sans-serif" font-size="20" lengthAdjust="spacing" textLength="302" x="1032" y="1197.2832">:PostAnnouncementController</text><rect fill="#E3E3E3" height="37.2813" rx="2.5" ry="2.5" style="stroke:#181818;stroke-width:0.5;" width="144" x="1596" y="50"/><text fill="#000000" font-family="sans-serif" font-size="20" lengthAdjust="spacing" textLength="130" x="1603" y="75.5645">:Repositories</text><rect fill="#E3E3E3" height="37.2813" rx="2.5" ry="2.5" style="stroke:#181818;stroke-width:0.5;" width="144" x="1596" y="1171.7188"/><text fill="#000000" font-family="sans-serif" font-size="20" lengthAdjust="spacing" textLength="130" x="1603" y="1197.2832">:Repositories</text><rect fill="#E3E3E3" height="37.2813" rx="2.5" ry="2.5" style="stroke:#181818;stroke-width:0.5;" width="202" x="1958" y="50"/><text fill="#000000" font-family="sans-serif" font-size="20" lengthAdjust="spacing" textLength="188" x="1965" y="75.5645">RequestRepository</text><rect fill="#E3E3E3" height="37.2813" rx="2.5" ry="2.5" style="stroke:#181818;stroke-width:0.5;" width="202" x="1958" y="1171.7188"/><text fill="#000000" font-family="sans-serif" font-size="20" lengthAdjust="spacing" textLength="188" x="1965" y="1197.2832">RequestRepository</text><rect fill="#E3E3E3" height="37.2813" rx="2.5" ry="2.5" style="stroke:#181818;stroke-width:0.5;" width="274" x="2170" y="50"/><text fill="#000000" font-family="sans-serif" font-size="20" lengthAdjust="spacing" textLength="260" x="2177" y="75.5645">AnnouncementRepository</text><rect fill="#E3E3E3" height="37.2813" rx="2.5" ry="2.5" style="stroke:#181818;stroke-width:0.5;" width="274" x="2170" y="1171.7188"/><text fill="#000000" font-family="sans-serif" font-size="20" lengthAdjust="spacing" textLength="260" x="2177" y="1197.2832">AnnouncementRepository</text><rect fill="#E3E3E3" height="37.2813" rx="2.5" ry="2.5" style="stroke:#181818;stroke-width:0.5;" width="168" x="2548" y="50"/><text fill="#000000" font-family="sans-serif" font-size="20" lengthAdjust="spacing" textLength="154" x="2555" y="75.5645">Announcement</text><rect fill="#E3E3E3" height="37.2813" rx="2.5" ry="2.5" style="stroke:#181818;stroke-width:0.5;" width="168" x="2548" y="1171.7188"/><text fill="#000000" font-family="sans-serif" font-size="20" lengthAdjust="spacing" textLength="154" x="2555" y="1197.2832">Announcement</text><rect fill="#FFFFFF" height="1065.4375" style="stroke:#181818;stroke-width:1.0;" width="10" x="48" y="98.2813"/><rect fill="#FFFFFF" height="260.9688" style="stroke:#181818;stroke-width:1.0;" width="10" x="719" y="127.5625"/><rect fill="#FFFFFF" height="335.5313" style="stroke:#181818;stroke-width:1.0;" width="10" x="719" y="466.375"/><rect fill="#FFFFFF" height="276.9688" style="stroke:#181818;stroke-width:1.0;" width="10" x="719" y="886.75"/><rect fill="#FFFFFF" height="186.4063" style="stroke:#181818;stroke-width:1.0;" width="10" x="1178" y="164.8438"/><rect fill="#FFFFFF" height="260.9688" style="stroke:#181818;stroke-width:1.0;" width="10" x="1178" y="503.6563"/><rect fill="#FFFFFF" height="186.4063" style="stroke:#181818;stroke-width:1.0;" width="10" x="1178" y="924.0313"/><rect fill="#FFFFFF" height="111.8438" style="stroke:#181818;stroke-width:1.0;" width="10" x="1663" y="202.125"/><rect fill="#FFFFFF" height="186.4063" style="stroke:#181818;stroke-width:1.0;" width="10" x="1663" y="540.9375"/><rect fill="#FFFFFF" height="111.8438" style="stroke:#181818;stroke-width:1.0;" width="10" x="1663" y="961.3125"/><rect fill="#FFFFFF" height="37.2813" style="stroke:#181818;stroke-width:1.0;" width="10" x="2054" y="239.4063"/><rect fill="#FFFFFF" height="37.2813" style="stroke:#181818;stroke-width:1.0;" width="10" x="2054" y="998.5938"/><rect fill="#FFFFFF" height="111.8438" style="stroke:#181818;stroke-width:1.0;" width="10" x="2302" y="578.2188"/><rect fill="#FFFFFF" height="37.2813" style="stroke:#181818;stroke-width:1.0;" width="10" x="2627" y="615.5"/><polygon fill="#181818" points="707,123.5625,717,127.5625,707,131.5625,711,127.5625" style="stroke:#181818;stroke-width:1.0;"/><line style="stroke:#181818;stroke-width:1.0;" x1="58" x2="713" y1="127.5625" y2="127.5625"/><text fill="#000000" font-family="sans-serif" font-size="20" font-weight="bold" lengthAdjust="spacing" textLength="14" x="65" y="120.8457">1</text><text fill="#000000" font-family="sans-serif" font-size="20" lengthAdjust="spacing" textLength="471" x="83" y="120.8457">asks to see the list of property Announcements</text><polygon fill="#181818" points="1166,160.8438,1176,164.8438,1166,168.8438,1170,164.8438" style="stroke:#181818;stroke-width:1.0;"/><line style="stroke:#181818;stroke-width:1.0;" x1="729" x2="1172" y1="164.8438" y2="164.8438"/><text fill="#000000" font-family="sans-serif" font-size="20" font-weight="bold" lengthAdjust="spacing" textLength="14" x="736" y="158.127">2</text><text fill="#000000" font-family="sans-serif" font-size="20" lengthAdjust="spacing" textLength="63" x="754" y="158.127">create</text><polygon fill="#181818" points="1651,198.125,1661,202.125,1651,206.125,1655,202.125" style="stroke:#181818;stroke-width:1.0;"/><line style="stroke:#181818;stroke-width:1.0;" x1="1188" x2="1657" y1="202.125" y2="202.125"/><text fill="#000000" font-family="sans-serif" font-size="20" font-weight="bold" lengthAdjust="spacing" textLength="14" x="1195" y="195.4082">3</text><text fill="#000000" font-family="sans-serif" font-size="20" lengthAdjust="spacing" textLength="438" x="1213" y="195.4082">getRequestByDate(getEmployeeInSession()</text><polygon fill="#181818" points="2042,235.4063,2052,239.4063,2042,243.4063,2046,239.4063" style="stroke:#181818;stroke-width:1.0;"/><line style="stroke:#181818;stroke-width:1.0;" x1="1673" x2="2048" y1="239.4063" y2="239.4063"/><text fill="#000000" font-family="sans-serif" font-size="20" font-weight="bold" lengthAdjust="spacing" textLength="14" x="1680" y="232.6895">4</text><text fill="#000000" font-family="sans-serif" font-size="20" lengthAdjust="spacing" textLength="150" x="1698" y="232.6895">getRequestList</text><polygon fill="#181818" points="1684,272.6875,1674,276.6875,1684,280.6875,1680,276.6875" style="stroke:#181818;stroke-width:1.0;"/><line style="stroke:#181818;stroke-width:1.0;stroke-dasharray:2.0,2.0;" x1="1678" x2="2058" y1="276.6875" y2="276.6875"/><text fill="#000000" font-family="sans-serif" font-size="20" font-weight="bold" lengthAdjust="spacing" textLength="14" x="1690" y="269.9707">5</text><text fill="#000000" font-family="sans-serif" font-size="20" lengthAdjust="spacing" textLength="111" x="1708" y="269.9707">requestList</text><polygon fill="#181818" points="1199,309.9688,1189,313.9688,1199,317.9688,1195,313.9688" style="stroke:#181818;stroke-width:1.0;"/><line style="stroke:#181818;stroke-width:1.0;stroke-dasharray:2.0,2.0;" x1="1193" x2="1667" y1="313.9688" y2="313.9688"/><text fill="#000000" font-family="sans-serif" font-size="20" font-weight="bold" lengthAdjust="spacing" textLength="14" x="1205" y="307.252">6</text><text fill="#000000" font-family="sans-serif" font-size="20" lengthAdjust="spacing" textLength="148" x="1223" y="307.252">requestByDate</text><polygon fill="#181818" points="740,347.25,730,351.25,740,355.25,736,351.25" style="stroke:#181818;stroke-width:1.0;"/><line style="stroke:#181818;stroke-width:1.0;" x1="734" x2="1182" y1="351.25" y2="351.25"/><text fill="#000000" font-family="sans-serif" font-size="20" font-weight="bold" lengthAdjust="spacing" textLength="14" x="746" y="344.5332">7</text><text fill="#000000" font-family="sans-serif" font-size="20" lengthAdjust="spacing" textLength="407" x="764" y="344.5332">requestByDate(getEmployeeInSession())</text><polygon fill="#181818" points="69,384.5313,59,388.5313,69,392.5313,65,388.5313" style="stroke:#181818;stroke-width:1.0;"/><line style="stroke:#181818;stroke-width:1.0;stroke-dasharray:2.0,2.0;" x1="63" x2="723" y1="388.5313" y2="388.5313"/><text fill="#000000" font-family="sans-serif" font-size="20" font-weight="bold" lengthAdjust="spacing" textLength="14" x="75" y="381.8145">8</text><text fill="#000000" font-family="sans-serif" font-size="20" lengthAdjust="spacing" textLength="619" x="93" y="381.8145">show the Announcements Lists and asks to post one or delete</text><path d="M10,403.5313 L93,403.5313 L93,418.8125 L83,428.8125 L10,428.8125 L10,403.5313 " fill="#EEEEEE" style="stroke:#000000;stroke-width:1.5;"/><rect fill="none" height="406.375" style="stroke:#000000;stroke-width:1.5;" width="2716" x="10" y="403.5313"/><text fill="#000000" font-family="sans-serif" font-size="20" font-weight="bold" lengthAdjust="spacing" textLength="38" x="25" y="423.0957">opt</text><text fill="#000000" font-family="sans-serif" font-size="20" font-weight="bold" lengthAdjust="spacing" textLength="624" x="108" y="424.0957">[: The agent wants to post one of the Announcements]</text><polygon fill="#181818" points="707,462.375,717,466.375,707,470.375,711,466.375" style="stroke:#181818;stroke-width:1.0;"/><line style="stroke:#181818;stroke-width:1.0;" x1="58" x2="713" y1="466.375" y2="466.375"/><text fill="#000000" font-family="sans-serif" font-size="20" font-weight="bold" lengthAdjust="spacing" textLength="14" x="65" y="459.6582">9</text><text fill="#000000" font-family="sans-serif" font-size="20" lengthAdjust="spacing" textLength="348" x="83" y="459.6582">selects the Announcement do post</text><polygon fill="#181818" points="1166,499.6563,1176,503.6563,1166,507.6563,1170,503.6563" style="stroke:#181818;stroke-width:1.0;"/><line style="stroke:#181818;stroke-width:1.0;" x1="729" x2="1172" y1="503.6563" y2="503.6563"/><text fill="#000000" font-family="sans-serif" font-size="20" font-weight="bold" lengthAdjust="spacing" textLength="28" x="736" y="496.9395">10</text><text fill="#000000" font-family="sans-serif" font-size="20" lengthAdjust="spacing" textLength="186" x="768" y="496.9395">createCommission</text><polygon fill="#181818" points="1651,536.9375,1661,540.9375,1651,544.9375,1655,540.9375" style="stroke:#181818;stroke-width:1.0;"/><line style="stroke:#181818;stroke-width:1.0;" x1="1188" x2="1657" y1="540.9375" y2="540.9375"/><text fill="#000000" font-family="sans-serif" font-size="20" font-weight="bold" lengthAdjust="spacing" textLength="28" x="1195" y="534.2207">11</text><text fill="#000000" font-family="sans-serif" font-size="20" lengthAdjust="spacing" textLength="186" x="1227" y="534.2207">createCommission</text><polygon fill="#181818" points="2290,574.2188,2300,578.2188,2290,582.2188,2294,578.2188" style="stroke:#181818;stroke-width:1.0;"/><line style="stroke:#181818;stroke-width:1.0;" x1="1673" x2="2296" y1="578.2188" y2="578.2188"/><text fill="#000000" font-family="sans-serif" font-size="20" font-weight="bold" lengthAdjust="spacing" textLength="28" x="1680" y="571.502">12</text><text fill="#000000" font-family="sans-serif" font-size="20" lengthAdjust="spacing" textLength="186" x="1712" y="571.502">createCommission</text><polygon fill="#181818" points="2615,611.5,2625,615.5,2615,619.5,2619,615.5" style="stroke:#181818;stroke-width:1.0;"/><line style="stroke:#181818;stroke-width:1.0;" x1="2312" x2="2621" y1="615.5" y2="615.5"/><text fill="#000000" font-family="sans-serif" font-size="20" font-weight="bold" lengthAdjust="spacing" textLength="28" x="2319" y="608.7832">13</text><text fill="#000000" font-family="sans-serif" font-size="20" lengthAdjust="spacing" textLength="224" x="2351" y="608.7832">submitAnnouncement</text><polygon fill="#181818" points="2323,648.7813,2313,652.7813,2323,656.7813,2319,652.7813" style="stroke:#181818;stroke-width:1.0;"/><line style="stroke:#181818;stroke-width:1.0;stroke-dasharray:2.0,2.0;" x1="2317" x2="2631" y1="652.7813" y2="652.7813"/><text fill="#000000" font-family="sans-serif" font-size="20" font-weight="bold" lengthAdjust="spacing" textLength="28" x="2329" y="646.0645">14</text><text fill="#000000" font-family="sans-serif" font-size="20" lengthAdjust="spacing" textLength="259" x="2361" y="646.0645">Announcement published</text><polygon fill="#181818" points="1684,686.0625,1674,690.0625,1684,694.0625,1680,690.0625" style="stroke:#181818;stroke-width:1.0;"/><line style="stroke:#181818;stroke-width:1.0;stroke-dasharray:2.0,2.0;" x1="1678" x2="2306" y1="690.0625" y2="690.0625"/><text fill="#000000" font-family="sans-serif" font-size="20" font-weight="bold" lengthAdjust="spacing" textLength="28" x="1690" y="683.3457">15</text><text fill="#000000" font-family="sans-serif" font-size="20" lengthAdjust="spacing" textLength="259" x="1722" y="683.3457">Announcement published</text><polygon fill="#181818" points="1199,723.3438,1189,727.3438,1199,731.3438,1195,727.3438" style="stroke:#181818;stroke-width:1.0;"/><line style="stroke:#181818;stroke-width:1.0;stroke-dasharray:2.0,2.0;" x1="1193" x2="1667" y1="727.3438" y2="727.3438"/><text fill="#000000" font-family="sans-serif" font-size="20" font-weight="bold" lengthAdjust="spacing" textLength="28" x="1205" y="720.627">16</text><text fill="#000000" font-family="sans-serif" font-size="20" lengthAdjust="spacing" textLength="259" x="1237" y="720.627">Announcement published</text><polygon fill="#181818" points="740,760.625,730,764.625,740,768.625,736,764.625" style="stroke:#181818;stroke-width:1.0;"/><line style="stroke:#181818;stroke-width:1.0;stroke-dasharray:2.0,2.0;" x1="734" x2="1182" y1="764.625" y2="764.625"/><text fill="#000000" font-family="sans-serif" font-size="20" font-weight="bold" lengthAdjust="spacing" textLength="28" x="746" y="757.9082">17</text><text fill="#000000" font-family="sans-serif" font-size="20" lengthAdjust="spacing" textLength="259" x="778" y="757.9082">Announcement published</text><polygon fill="#181818" points="69,797.9063,59,801.9063,69,805.9063,65,801.9063" style="stroke:#181818;stroke-width:1.0;"/><line style="stroke:#181818;stroke-width:1.0;stroke-dasharray:2.0,2.0;" x1="63" x2="723" y1="801.9063" y2="801.9063"/><text fill="#000000" font-family="sans-serif" font-size="20" font-weight="bold" lengthAdjust="spacing" textLength="28" x="75" y="795.1895">18</text><text fill="#000000" font-family="sans-serif" font-size="20" lengthAdjust="spacing" textLength="587" x="107" y="795.1895">Informs operation success (Announcement was published)</text><path d="M10,823.9063 L93,823.9063 L93,839.1875 L83,849.1875 L10,849.1875 L10,823.9063 " fill="#EEEEEE" style="stroke:#000000;stroke-width:1.5;"/><rect fill="none" height="331.8125" style="stroke:#000000;stroke-width:1.5;" width="2160" x="10" y="823.9063"/><text fill="#000000" font-family="sans-serif" font-size="20" font-weight="bold" lengthAdjust="spacing" textLength="38" x="25" y="843.4707">opt</text><text fill="#000000" font-family="sans-serif" font-size="20" font-weight="bold" lengthAdjust="spacing" textLength="647" x="108" y="844.4707">[: The agent wants to delete one of the Announcements]</text><polygon fill="#181818" points="707,882.75,717,886.75,707,890.75,711,886.75" style="stroke:#181818;stroke-width:1.0;"/><line style="stroke:#181818;stroke-width:1.0;" x1="58" x2="713" y1="886.75" y2="886.75"/><text fill="#000000" font-family="sans-serif" font-size="20" font-weight="bold" lengthAdjust="spacing" textLength="28" x="65" y="880.0332">19</text><text fill="#000000" font-family="sans-serif" font-size="20" lengthAdjust="spacing" textLength="368" x="97" y="880.0332">selects the Announcement do delete</text><polygon fill="#181818" points="1166,920.0313,1176,924.0313,1166,928.0313,1170,924.0313" style="stroke:#181818;stroke-width:1.0;"/><line style="stroke:#181818;stroke-width:1.0;" x1="729" x2="1172" y1="924.0313" y2="924.0313"/><text fill="#000000" font-family="sans-serif" font-size="20" font-weight="bold" lengthAdjust="spacing" textLength="28" x="736" y="917.3145">20</text><text fill="#000000" font-family="sans-serif" font-size="20" lengthAdjust="spacing" textLength="161" x="768" y="917.3145">deleteRequest()</text><polygon fill="#181818" points="1651,957.3125,1661,961.3125,1651,965.3125,1655,961.3125" style="stroke:#181818;stroke-width:1.0;"/><line style="stroke:#181818;stroke-width:1.0;" x1="1188" x2="1657" y1="961.3125" y2="961.3125"/><text fill="#000000" font-family="sans-serif" font-size="20" font-weight="bold" lengthAdjust="spacing" textLength="28" x="1195" y="954.5957">21</text><text fill="#000000" font-family="sans-serif" font-size="20" lengthAdjust="spacing" textLength="149" x="1227" y="954.5957">deleteRquest()</text><polygon fill="#181818" points="2042,994.5938,2052,998.5938,2042,1002.5938,2046,998.5938" style="stroke:#181818;stroke-width:1.0;"/><line style="stroke:#181818;stroke-width:1.0;" x1="1673" x2="2048" y1="998.5938" y2="998.5938"/><text fill="#000000" font-family="sans-serif" font-size="20" font-weight="bold" lengthAdjust="spacing" textLength="28" x="1680" y="991.877">22</text><text fill="#000000" font-family="sans-serif" font-size="20" lengthAdjust="spacing" textLength="161" x="1712" y="991.877">deleteRequest()</text><polygon fill="#181818" points="1684,1031.875,1674,1035.875,1684,1039.875,1680,1035.875" style="stroke:#181818;stroke-width:1.0;"/><line style="stroke:#181818;stroke-width:1.0;stroke-dasharray:2.0,2.0;" x1="1678" x2="2058" y1="1035.875" y2="1035.875"/><text fill="#000000" font-family="sans-serif" font-size="20" font-weight="bold" lengthAdjust="spacing" textLength="28" x="1690" y="1029.1582">23</text><text fill="#000000" font-family="sans-serif" font-size="20" lengthAdjust="spacing" textLength="325" x="1722" y="1029.1582">Request Deleted and Email Sent</text><polygon fill="#181818" points="1199,1069.1563,1189,1073.1563,1199,1077.1563,1195,1073.1563" style="stroke:#181818;stroke-width:1.0;"/><line style="stroke:#181818;stroke-width:1.0;stroke-dasharray:2.0,2.0;" x1="1193" x2="1667" y1="1073.1563" y2="1073.1563"/><text fill="#000000" font-family="sans-serif" font-size="20" font-weight="bold" lengthAdjust="spacing" textLength="28" x="1205" y="1066.4395">24</text><text fill="#000000" font-family="sans-serif" font-size="20" lengthAdjust="spacing" textLength="325" x="1237" y="1066.4395">Request Deleted and Email Sent</text><polygon fill="#181818" points="740,1106.4375,730,1110.4375,740,1114.4375,736,1110.4375" style="stroke:#181818;stroke-width:1.0;"/><line style="stroke:#181818;stroke-width:1.0;stroke-dasharray:2.0,2.0;" x1="734" x2="1182" y1="1110.4375" y2="1110.4375"/><text fill="#000000" font-family="sans-serif" font-size="20" font-weight="bold" lengthAdjust="spacing" textLength="28" x="746" y="1103.7207">25</text><text fill="#000000" font-family="sans-serif" font-size="20" lengthAdjust="spacing" textLength="325" x="778" y="1103.7207">Request Deleted and Email Sent</text><polygon fill="#181818" points="69,1143.7188,59,1147.7188,69,1151.7188,65,1147.7188" style="stroke:#181818;stroke-width:1.0;"/><line style="stroke:#181818;stroke-width:1.0;stroke-dasharray:2.0,2.0;" x1="63" x2="718" y1="1147.7188" y2="1147.7188"/><text fill="#000000" font-family="sans-serif" font-size="20" font-weight="bold" lengthAdjust="spacing" textLength="28" x="75" y="1141.002">26</text><text fill="#000000" font-family="sans-serif" font-size="20" lengthAdjust="spacing" textLength="566" x="107" y="1141.002">Informs operation success (Announcement was Deleted)</text><!--SRC=[hPJFZjem4CRlVeeHby9XfQf73fNINLeXhL05kmzWaWbO99xKTahfqtViUC49ov-glN08l_ayyyrdsvtIZJIohYZVOG45bhAjt5VIRgL-8tpwAEmR0ZLfohU6QWHdMap-QMI-anjSkKE5O31tKc-g5B1RMT1UwGsKih8eX6mTwRPUen7YmrOL22MHMzCl8ND71aRP1hKRWRIGVLi8Ld4gLutK3aRJxuOQDEwGQKsjph5cr2xnHulMlSv3qUjyM4FMfVmZZsYegj04_l5b-JoeM693Ld4p2crWbhC-4KyySeUE6cBfgGCskyPsn6BX7L4_fSFWXE0VUFZC0yAKWPq5Hs2HLx95g9HrG2KqqI3eENGIOdS42x2Cdvk5SeFy_GG4EqJuaw7bZ94DkZZmbyCJCsF-CAkRYWw8Sxr2QnNfyUIamRC9hlJr0u5dRZFXFCYeP-DX9k4Ax9CHYusRjAKUEplr7xmoTpG_IHKw3xnDBE5TdtACQH-CxlaAlayBKXV7XV2MUH4QWQDSO8Nzthpzr3WMV64jwPCEU-cLUgNb-L7zzLjMpdtL08EYaxcvy4UgQnLclxhwo_1fnzaDqaTTP95T13FRTQrwTpAX5pxfZ3qSfNi3DksQixx58hMrAqfYT4_DUQHk5vsozRQ9spNlf6ckIpAr1NzNfMEts98yvop2kAUtvtVWg3aP10brSILCNVR-GvnYY2y7gWFY1K-VWNVo5DapTFXYNDJi7e9qqn62fr1IXCiugwMgOEM3TVqH-OlYiytVN_kF2OW7JFp6_m00]--></g></svg>