<?xml version="1.0" encoding="UTF-8" standalone="no"?><svg xmlns="http://www.w3.org/2000/svg" xmlns:xlink="http://www.w3.org/1999/xlink" contentStyleType="text/css" height="888px" preserveAspectRatio="none" style="width:1404px;height:888px;background:#FFFFFF;" version="1.1" viewBox="0 0 1404 888" width="1404px" zoomAndPan="magnify"><defs/><g><!--class Repositories--><g id="elem_Repositories"><rect codeLine="12" fill="#F1F1F1" height="143.125" id="Repositories" rx="2.5" ry="2.5" style="stroke:#181818;stroke-width:0.5;" width="338" x="927.5" y="18.5"/><ellipse cx="1030.5" cy="35.5" fill="#ADD1B2" rx="12" ry="12" style="stroke:#181818;stroke-width:1.0;"/><path d="M1033.5625,42.5781 Q1032.875,42.9375 1032.125,43.1094 Q1031.375,43.2813 1030.5469,43.2813 Q1027.5938,43.2813 1026.0313,41.3438 Q1024.4844,39.3906 1024.4844,35.7188 Q1024.4844,32.0469 1026.0313,30.1094 Q1027.5938,28.1563 1030.5469,28.1563 Q1031.375,28.1563 1032.125,28.3281 Q1032.8906,28.5 1033.5625,28.8594 L1033.5625,32.0625 Q1032.8125,31.375 1032.1094,31.0625 Q1031.4219,30.75 1030.6719,30.75 Q1029.0938,30.75 1028.2813,32 Q1027.4844,33.25 1027.4844,35.7188 Q1027.4844,38.1875 1028.2813,39.4375 Q1029.0938,40.6875 1030.6719,40.6875 Q1031.4219,40.6875 1032.1094,40.375 Q1032.8125,40.0625 1033.5625,39.375 L1033.5625,42.5781 Z " fill="#000000"/><text fill="#000000" font-family="sans-serif" font-size="20" lengthAdjust="spacing" textLength="123" x="1052.5" y="42.4238">Repositories</text><line style="stroke:#181818;stroke-width:0.5;" x1="928.5" x2="1264.5" y1="52.5" y2="52.5"/><line style="stroke:#181818;stroke-width:0.5;" x1="928.5" x2="1264.5" y1="60.5" y2="60.5"/><text fill="#000000" font-family="sans-serif" font-size="20" lengthAdjust="spacing" textLength="146" x="933.5" y="83.0645">-Repositories()</text><text fill="#000000" font-family="sans-serif" font-size="20" lengthAdjust="spacing" textLength="293" x="933.5" y="106.3457">+getInstance() : Repositories</text><text fill="#000000" font-family="sans-serif" font-size="20" lengthAdjust="spacing" textLength="326" x="933.5" y="129.627">+getAnnouncementRepository()</text><text fill="#000000" font-family="sans-serif" font-size="20" lengthAdjust="spacing" textLength="254" x="933.5" y="152.9082">+getRequestRepository()</text></g><!--class Announcement--><g id="elem_Announcement"><rect codeLine="18" fill="#F1F1F1" height="119.8438" id="Announcement" rx="2.5" ry="2.5" style="stroke:#181818;stroke-width:0.5;" width="407" x="777" y="762"/><ellipse cx="899" cy="779" fill="#ADD1B2" rx="12" ry="12" style="stroke:#181818;stroke-width:1.0;"/><path d="M902.0625,786.0781 Q901.375,786.4375 900.625,786.6094 Q899.875,786.7813 899.0469,786.7813 Q896.0938,786.7813 894.5313,784.8438 Q892.9844,782.8906 892.9844,779.2188 Q892.9844,775.5469 894.5313,773.6094 Q896.0938,771.6563 899.0469,771.6563 Q899.875,771.6563 900.625,771.8281 Q901.3906,772 902.0625,772.3594 L902.0625,775.5625 Q901.3125,774.875 900.6094,774.5625 Q899.9219,774.25 899.1719,774.25 Q897.5938,774.25 896.7813,775.5 Q895.9844,776.75 895.9844,779.2188 Q895.9844,781.6875 896.7813,782.9375 Q897.5938,784.1875 899.1719,784.1875 Q899.9219,784.1875 900.6094,783.875 Q901.3125,783.5625 902.0625,782.875 L902.0625,786.0781 Z " fill="#000000"/><text fill="#000000" font-family="sans-serif" font-size="20" lengthAdjust="spacing" textLength="154" x="921" y="785.9238">Announcement</text><line style="stroke:#181818;stroke-width:0.5;" x1="778" x2="1183" y1="796" y2="796"/><text fill="#000000" font-family="sans-serif" font-size="20" lengthAdjust="spacing" textLength="171" x="783" y="818.5645">-Request request</text><text fill="#000000" font-family="sans-serif" font-size="20" lengthAdjust="spacing" textLength="256" x="783" y="841.8457">-Commission commission</text><line style="stroke:#181818;stroke-width:0.5;" x1="778" x2="1183" y1="850.5625" y2="850.5625"/><text fill="#000000" font-family="sans-serif" font-size="20" lengthAdjust="spacing" textLength="395" x="783" y="873.127">+Announcement(request, commission)</text></g><!--class Request--><g id="elem_Request"><rect codeLine="24" fill="#F1F1F1" height="119.8438" id="Request" rx="2.5" ry="2.5" style="stroke:#181818;stroke-width:0.5;" width="222" x="1109.5" y="557"/><ellipse cx="1175" cy="574" fill="#ADD1B2" rx="12" ry="12" style="stroke:#181818;stroke-width:1.0;"/><path d="M1178.0625,581.0781 Q1177.375,581.4375 1176.625,581.6094 Q1175.875,581.7813 1175.0469,581.7813 Q1172.0938,581.7813 1170.5313,579.8438 Q1168.9844,577.8906 1168.9844,574.2188 Q1168.9844,570.5469 1170.5313,568.6094 Q1172.0938,566.6563 1175.0469,566.6563 Q1175.875,566.6563 1176.625,566.8281 Q1177.3906,567 1178.0625,567.3594 L1178.0625,570.5625 Q1177.3125,569.875 1176.6094,569.5625 Q1175.9219,569.25 1175.1719,569.25 Q1173.5938,569.25 1172.7813,570.5 Q1171.9844,571.75 1171.9844,574.2188 Q1171.9844,576.6875 1172.7813,577.9375 Q1173.5938,579.1875 1175.1719,579.1875 Q1175.9219,579.1875 1176.6094,578.875 Q1177.3125,578.5625 1178.0625,577.875 L1178.0625,581.0781 Z " fill="#000000"/><text fill="#000000" font-family="sans-serif" font-size="20" lengthAdjust="spacing" textLength="82" x="1197" y="580.9238">Request</text><line style="stroke:#181818;stroke-width:0.5;" x1="1110.5" x2="1330.5" y1="591" y2="591"/><text fill="#000000" font-family="sans-serif" font-size="20" lengthAdjust="spacing" textLength="182" x="1115.5" y="613.5645">-Property property</text><text fill="#000000" font-family="sans-serif" font-size="20" lengthAdjust="spacing" textLength="210" x="1115.5" y="636.8457">-Employee employee</text><text fill="#000000" font-family="sans-serif" font-size="20" lengthAdjust="spacing" textLength="147" x="1115.5" y="660.127">-Person Person</text><line style="stroke:#181818;stroke-width:0.5;" x1="1110.5" x2="1330.5" y1="668.8438" y2="668.8438"/></g><!--class Agent--><g id="elem_Agent"><rect codeLine="30" fill="#F1F1F1" height="50" id="Agent" rx="2.5" ry="2.5" style="stroke:#181818;stroke-width:0.5;" width="94" x="550.5" y="797"/><ellipse cx="566.5" cy="814" fill="#ADD1B2" rx="12" ry="12" style="stroke:#181818;stroke-width:1.0;"/><path d="M569.5625,821.0781 Q568.875,821.4375 568.125,821.6094 Q567.375,821.7813 566.5469,821.7813 Q563.5938,821.7813 562.0313,819.8438 Q560.4844,817.8906 560.4844,814.2188 Q560.4844,810.5469 562.0313,808.6094 Q563.5938,806.6563 566.5469,806.6563 Q567.375,806.6563 568.125,806.8281 Q568.8906,807 569.5625,807.3594 L569.5625,810.5625 Q568.8125,809.875 568.1094,809.5625 Q567.4219,809.25 566.6719,809.25 Q565.0938,809.25 564.2813,810.5 Q563.4844,811.75 563.4844,814.2188 Q563.4844,816.6875 564.2813,817.9375 Q565.0938,819.1875 566.6719,819.1875 Q567.4219,819.1875 568.1094,818.875 Q568.8125,818.5625 569.5625,817.875 L569.5625,821.0781 Z " fill="#000000"/><text fill="#000000" font-family="sans-serif" font-size="20" lengthAdjust="spacing" textLength="60" x="581.5" y="820.9238">Agent</text><line style="stroke:#181818;stroke-width:0.5;" x1="551.5" x2="643.5" y1="831" y2="831"/><line style="stroke:#181818;stroke-width:0.5;" x1="551.5" x2="643.5" y1="839" y2="839"/></g><!--class Person--><g id="elem_Person"><rect codeLine="33" fill="#F1F1F1" height="166.4063" id="Person" rx="2.5" ry="2.5" style="stroke:#181818;stroke-width:0.5;" width="219" x="488" y="234"/><ellipse cx="559.5" cy="251" fill="#ADD1B2" rx="12" ry="12" style="stroke:#181818;stroke-width:1.0;"/><path d="M562.5625,258.0781 Q561.875,258.4375 561.125,258.6094 Q560.375,258.7813 559.5469,258.7813 Q556.5938,258.7813 555.0313,256.8438 Q553.4844,254.8906 553.4844,251.2188 Q553.4844,247.5469 555.0313,245.6094 Q556.5938,243.6563 559.5469,243.6563 Q560.375,243.6563 561.125,243.8281 Q561.8906,244 562.5625,244.3594 L562.5625,247.5625 Q561.8125,246.875 561.1094,246.5625 Q560.4219,246.25 559.6719,246.25 Q558.0938,246.25 557.2813,247.5 Q556.4844,248.75 556.4844,251.2188 Q556.4844,253.6875 557.2813,254.9375 Q558.0938,256.1875 559.6719,256.1875 Q560.4219,256.1875 561.1094,255.875 Q561.8125,255.5625 562.5625,254.875 L562.5625,258.0781 Z " fill="#000000"/><text fill="#000000" font-family="sans-serif" font-size="20" lengthAdjust="spacing" textLength="67" x="581.5" y="257.9238">Person</text><line style="stroke:#181818;stroke-width:0.5;" x1="489" x2="706" y1="268" y2="268"/><text fill="#000000" font-family="sans-serif" font-size="20" lengthAdjust="spacing" textLength="101" x="494" y="290.5645">-User user</text><text fill="#000000" font-family="sans-serif" font-size="20" lengthAdjust="spacing" textLength="207" x="494" y="313.8457">-int passportNumber</text><text fill="#000000" font-family="sans-serif" font-size="20" lengthAdjust="spacing" textLength="152" x="494" y="337.127">-int taxNumber</text><text fill="#000000" font-family="sans-serif" font-size="20" lengthAdjust="spacing" textLength="184" x="494" y="360.4082">-int phoneNumber</text><text fill="#000000" font-family="sans-serif" font-size="20" lengthAdjust="spacing" textLength="171" x="494" y="383.6895">-Address address</text><line style="stroke:#181818;stroke-width:0.5;" x1="489" x2="706" y1="392.4063" y2="392.4063"/></g><!--class Employee--><g id="elem_Employee"><rect codeLine="40" fill="#F1F1F1" height="73.2813" id="Employee" rx="2.5" ry="2.5" style="stroke:#181818;stroke-width:0.5;" width="171" x="512" y="580.5"/><ellipse cx="545.1" cy="597.5" fill="#ADD1B2" rx="12" ry="12" style="stroke:#181818;stroke-width:1.0;"/><path d="M548.1625,604.5781 Q547.475,604.9375 546.725,605.1094 Q545.975,605.2813 545.1469,605.2813 Q542.1938,605.2813 540.6313,603.3438 Q539.0844,601.3906 539.0844,597.7188 Q539.0844,594.0469 540.6313,592.1094 Q542.1938,590.1563 545.1469,590.1563 Q545.975,590.1563 546.725,590.3281 Q547.4906,590.5 548.1625,590.8594 L548.1625,594.0625 Q547.4125,593.375 546.7094,593.0625 Q546.0219,592.75 545.2719,592.75 Q543.6938,592.75 542.8813,594 Q542.0844,595.25 542.0844,597.7188 Q542.0844,600.1875 542.8813,601.4375 Q543.6938,602.6875 545.2719,602.6875 Q546.0219,602.6875 546.7094,602.375 Q547.4125,602.0625 548.1625,601.375 L548.1625,604.5781 Z " fill="#000000"/><text fill="#000000" font-family="sans-serif" font-size="20" lengthAdjust="spacing" textLength="99" x="563.9" y="604.4238">Employee</text><line style="stroke:#181818;stroke-width:0.5;" x1="513" x2="682" y1="614.5" y2="614.5"/><text fill="#000000" font-family="sans-serif" font-size="20" lengthAdjust="spacing" textLength="159" x="518" y="637.0645">-Agency agency</text><line style="stroke:#181818;stroke-width:0.5;" x1="513" x2="682" y1="645.7813" y2="645.7813"/></g><!--class AnnouncementRepository--><g id="elem_AnnouncementRepository"><rect codeLine="44" fill="#F1F1F1" height="96.5625" id="AnnouncementRepository" rx="2.5" ry="2.5" style="stroke:#181818;stroke-width:0.5;" width="435" x="763" y="430"/><ellipse cx="846" cy="447" fill="#ADD1B2" rx="12" ry="12" style="stroke:#181818;stroke-width:1.0;"/><path d="M849.0625,454.0781 Q848.375,454.4375 847.625,454.6094 Q846.875,454.7813 846.0469,454.7813 Q843.0938,454.7813 841.5313,452.8438 Q839.9844,450.8906 839.9844,447.2188 Q839.9844,443.5469 841.5313,441.6094 Q843.0938,439.6563 846.0469,439.6563 Q846.875,439.6563 847.625,439.8281 Q848.3906,440 849.0625,440.3594 L849.0625,443.5625 Q848.3125,442.875 847.6094,442.5625 Q846.9219,442.25 846.1719,442.25 Q844.5938,442.25 843.7813,443.5 Q842.9844,444.75 842.9844,447.2188 Q842.9844,449.6875 843.7813,450.9375 Q844.5938,452.1875 846.1719,452.1875 Q846.9219,452.1875 847.6094,451.875 Q848.3125,451.5625 849.0625,450.875 L849.0625,454.0781 Z " fill="#000000"/><text fill="#000000" font-family="sans-serif" font-size="20" lengthAdjust="spacing" textLength="260" x="868" y="453.9238">AnnouncementRepository</text><line style="stroke:#181818;stroke-width:0.5;" x1="764" x2="1197" y1="464" y2="464"/><text fill="#000000" font-family="sans-serif" font-size="20" lengthAdjust="spacing" textLength="423" x="769" y="486.5645">-List&lt;Announcement&gt; announcementList</text><line style="stroke:#181818;stroke-width:0.5;" x1="764" x2="1197" y1="495.2813" y2="495.2813"/><text fill="#000000" font-family="sans-serif" font-size="20" lengthAdjust="spacing" textLength="250" x="769" y="517.8457">+createAnnouncement()</text></g><!--class PostAnnouncementController--><g id="elem_PostAnnouncementController"><rect codeLine="50" fill="#F1F1F1" height="166.4063" id="PostAnnouncementController" rx="2.5" ry="2.5" style="stroke:#181818;stroke-width:0.5;" width="341" x="427" y="7"/><ellipse cx="448.4" cy="24" fill="#ADD1B2" rx="12" ry="12" style="stroke:#181818;stroke-width:1.0;"/><path d="M451.4625,31.0781 Q450.775,31.4375 450.025,31.6094 Q449.275,31.7813 448.4469,31.7813 Q445.4938,31.7813 443.9313,29.8438 Q442.3844,27.8906 442.3844,24.2188 Q442.3844,20.5469 443.9313,18.6094 Q445.4938,16.6563 448.4469,16.6563 Q449.275,16.6563 450.025,16.8281 Q450.7906,17 451.4625,17.3594 L451.4625,20.5625 Q450.7125,19.875 450.0094,19.5625 Q449.3219,19.25 448.5719,19.25 Q446.9938,19.25 446.1813,20.5 Q445.3844,21.75 445.3844,24.2188 Q445.3844,26.6875 446.1813,27.9375 Q446.9938,29.1875 448.5719,29.1875 Q449.3219,29.1875 450.0094,28.875 Q450.7125,28.5625 451.4625,27.875 L451.4625,31.0781 Z " fill="#000000"/><text fill="#000000" font-family="sans-serif" font-size="20" lengthAdjust="spacing" textLength="295" x="464.6" y="30.9238">PostAnnouncementController</text><line style="stroke:#181818;stroke-width:0.5;" x1="428" x2="767" y1="41" y2="41"/><line style="stroke:#181818;stroke-width:0.5;" x1="428" x2="767" y1="49" y2="49"/><text fill="#000000" font-family="sans-serif" font-size="20" lengthAdjust="spacing" textLength="329" x="433" y="71.5645">+postAnnouncementController()</text><text fill="#000000" font-family="sans-serif" font-size="20" lengthAdjust="spacing" textLength="326" x="433" y="94.8457">+getAnnouncementRepository()</text><text fill="#000000" font-family="sans-serif" font-size="20" lengthAdjust="spacing" textLength="254" x="433" y="118.127">+getRequestRepository()</text><text fill="#000000" font-family="sans-serif" font-size="20" lengthAdjust="spacing" textLength="220" x="433" y="141.4082">+getRequestByDate()</text><text fill="#000000" font-family="sans-serif" font-size="20" lengthAdjust="spacing" textLength="260" x="433" y="164.6895">+getEmployeeInSession()</text></g><!--class RequestRepository--><g id="elem_RequestRepository"><rect codeLine="58" fill="#F1F1F1" height="73.2813" id="RequestRepository" rx="2.5" ry="2.5" style="stroke:#181818;stroke-width:0.5;" width="222" x="1090.5" y="280.5"/><ellipse cx="1106.5" cy="297.5" fill="#ADD1B2" rx="12" ry="12" style="stroke:#181818;stroke-width:1.0;"/><path d="M1109.5625,304.5781 Q1108.875,304.9375 1108.125,305.1094 Q1107.375,305.2813 1106.5469,305.2813 Q1103.5938,305.2813 1102.0313,303.3438 Q1100.4844,301.3906 1100.4844,297.7188 Q1100.4844,294.0469 1102.0313,292.1094 Q1103.5938,290.1563 1106.5469,290.1563 Q1107.375,290.1563 1108.125,290.3281 Q1108.8906,290.5 1109.5625,290.8594 L1109.5625,294.0625 Q1108.8125,293.375 1108.1094,293.0625 Q1107.4219,292.75 1106.6719,292.75 Q1105.0938,292.75 1104.2813,294 Q1103.4844,295.25 1103.4844,297.7188 Q1103.4844,300.1875 1104.2813,301.4375 Q1105.0938,302.6875 1106.6719,302.6875 Q1107.4219,302.6875 1108.1094,302.375 Q1108.8125,302.0625 1109.5625,301.375 L1109.5625,304.5781 Z " fill="#000000"/><text fill="#000000" font-family="sans-serif" font-size="20" lengthAdjust="spacing" textLength="188" x="1121.5" y="304.4238">RequestRepository</text><line style="stroke:#181818;stroke-width:0.5;" x1="1091.5" x2="1311.5" y1="314.5" y2="314.5"/><line style="stroke:#181818;stroke-width:0.5;" x1="1091.5" x2="1311.5" y1="322.5" y2="322.5"/><text fill="#000000" font-family="sans-serif" font-size="20" lengthAdjust="spacing" textLength="183" x="1096.5" y="345.0645">+getRequestList()</text></g><!--class PropertyAnnouncementsRequestUI--><g id="elem_PropertyAnnouncementsRequestUI"><rect codeLine="62" fill="#F1F1F1" height="119.8438" id="PropertyAnnouncementsRequestUI" rx="2.5" ry="2.5" style="stroke:#181818;stroke-width:0.5;" width="385" x="7" y="30"/><ellipse cx="23" cy="47" fill="#ADD1B2" rx="12" ry="12" style="stroke:#181818;stroke-width:1.0;"/><path d="M26.0625,54.0781 Q25.375,54.4375 24.625,54.6094 Q23.875,54.7813 23.0469,54.7813 Q20.0938,54.7813 18.5313,52.8438 Q16.9844,50.8906 16.9844,47.2188 Q16.9844,43.5469 18.5313,41.6094 Q20.0938,39.6563 23.0469,39.6563 Q23.875,39.6563 24.625,39.8281 Q25.3906,40 26.0625,40.3594 L26.0625,43.5625 Q25.3125,42.875 24.6094,42.5625 Q23.9219,42.25 23.1719,42.25 Q21.5938,42.25 20.7813,43.5 Q19.9844,44.75 19.9844,47.2188 Q19.9844,49.6875 20.7813,50.9375 Q21.5938,52.1875 23.1719,52.1875 Q23.9219,52.1875 24.6094,51.875 Q25.3125,51.5625 26.0625,50.875 L26.0625,54.0781 Z " fill="#000000"/><text fill="#000000" font-family="sans-serif" font-size="20" lengthAdjust="spacing" textLength="351" x="38" y="53.9238">PropertyAnnouncementsRequestUI</text><line style="stroke:#181818;stroke-width:0.5;" x1="8" x2="391" y1="64" y2="64"/><line style="stroke:#181818;stroke-width:0.5;" x1="8" x2="391" y1="72" y2="72"/><text fill="#000000" font-family="sans-serif" font-size="20" lengthAdjust="spacing" textLength="185" x="13" y="94.5645">+chooseRequest()</text><text fill="#000000" font-family="sans-serif" font-size="20" lengthAdjust="spacing" textLength="219" x="13" y="117.8457">+createCommission()</text><text fill="#000000" font-family="sans-serif" font-size="20" lengthAdjust="spacing" textLength="329" x="13" y="141.127">+postAnnouncementController()</text></g><!--link PropertyAnnouncementsRequestUI to PostAnnouncementController--><g id="link_PropertyAnnouncementsRequestUI_PostAnnouncementController"><path codeLine="68" d="M392.29,90 C402.24,90 412.38,90 421.8,90 " fill="none" id="PropertyAnnouncementsRequestUI-to-PostAnnouncementController" style="stroke:#181818;stroke-width:1.0;stroke-dasharray:7.0,7.0;"/><polygon fill="#181818" points="426.95,90,417.95,86,421.95,90,417.95,94,426.95,90" style="stroke:#181818;stroke-width:1.0;"/></g><!--link PostAnnouncementController to Repositories--><g id="link_PostAnnouncementController_Repositories"><path codeLine="69" d="M768.18,90 C817.84,90 872.15,90 922.04,90 " fill="none" id="PostAnnouncementController-to-Repositories" style="stroke:#181818;stroke-width:1.0;stroke-dasharray:7.0,7.0;"/><polygon fill="#181818" points="927.16,90,918.16,86,922.16,90,918.16,94,927.16,90" style="stroke:#181818;stroke-width:1.0;"/><text fill="#000000" font-family="sans-serif" font-size="20" lengthAdjust="spacing" textLength="123" x="786.25" y="81.5645">Repositories</text></g><!--link PostAnnouncementController to Person--><g id="link_PostAnnouncementController_Person"><path codeLine="70" d="M597.5,173.19 C597.5,191.2 597.5,210.34 597.5,228.55 " fill="none" id="PostAnnouncementController-to-Person" style="stroke:#181818;stroke-width:1.0;stroke-dasharray:7.0,7.0;"/><polygon fill="#181818" points="597.5,233.66,601.5,224.66,597.5,228.66,593.5,224.66,597.5,233.66" style="stroke:#181818;stroke-width:1.0;"/></g><!--link Repositories to AnnouncementRepository--><g id="link_Repositories_AnnouncementRepository"><path codeLine="71" d="M1075.22,161.89 C1052.39,237.97 1016.65,357.04 996.23,425.1 " fill="none" id="Repositories-to-AnnouncementRepository" style="stroke:#181818;stroke-width:1.0;"/><polygon fill="#181818" points="994.78,429.91,1001.1811,422.4249,996.2063,425.1177,993.5135,420.1429,994.78,429.91" style="stroke:#181818;stroke-width:1.0;"/></g><!--link Repositories to RequestRepository--><g id="link_Repositories_RequestRepository"><path codeLine="72" d="M1129.43,161.57 C1146.98,199.16 1167.92,244.04 1182.69,275.7 " fill="none" id="Repositories-to-RequestRepository" style="stroke:#181818;stroke-width:1.0;"/><polygon fill="#181818" points="1184.83,280.27,1184.6471,270.4228,1182.7148,275.7394,1177.3982,273.8072,1184.83,280.27" style="stroke:#181818;stroke-width:1.0;"/></g><!--link AnnouncementRepository to Announcement--><g id="link_AnnouncementRepository_Announcement"><path codeLine="73" d="M980.5,527.34 C980.5,587.19 980.5,689.88 980.5,756.59 " fill="none" id="AnnouncementRepository-to-Announcement" style="stroke:#181818;stroke-width:1.0;stroke-dasharray:7.0,7.0;"/><polygon fill="#181818" points="980.5,761.73,984.5,752.73,980.5,756.73,976.5,752.73,980.5,761.73" style="stroke:#181818;stroke-width:1.0;"/></g><!--link RequestRepository to Request--><g id="link_RequestRepository_Request"><path codeLine="74" d="M1203.77,353.65 C1206.89,402.56 1212.55,491.3 1216.41,551.9 " fill="none" id="RequestRepository-to-Request" style="stroke:#181818;stroke-width:1.0;stroke-dasharray:7.0,7.0;"/><polygon fill="#181818" points="1216.73,556.95,1220.1559,547.7162,1216.4154,551.9599,1212.1717,548.2195,1216.73,556.95" style="stroke:#181818;stroke-width:1.0;"/></g><!--link Repositories to Repositories--><g id="link_Repositories_Repositories"><path codeLine="75" d="M1265.73,71.77 C1286.72,75.01 1300.5,81.09 1300.5,90 C1300.5,98.15 1288.98,103.92 1270.98,107.33 " fill="none" id="Repositories-to-Repositories" style="stroke:#181818;stroke-width:1.0;"/><polygon fill="#181818" points="1265.73,108.23,1275.2755,110.6557,1270.6585,107.3872,1273.9269,102.7701,1265.73,108.23" style="stroke:#181818;stroke-width:1.0;"/><text fill="#000000" font-family="sans-serif" font-size="20" lengthAdjust="spacing" textLength="85" x="1306.5" y="97.0645">instance</text></g><!--reverse link Person to Employee--><g id="link_Person_Employee"><path codeLine="77" d="M597.5,420.54 C597.5,476 597.5,540.99 597.5,580.31 " fill="none" id="Person-backto-Employee" style="stroke:#181818;stroke-width:1.0;"/><polygon fill="none" points="590.5,420.22,597.5,400.22,604.5,420.22,590.5,420.22" style="stroke:#181818;stroke-width:1.0;"/><text fill="#000000" font-family="sans-serif" font-size="20" lengthAdjust="spacing" textLength="34" x="598.5" y="485.5645">is a</text></g><!--reverse link Employee to Agent--><g id="link_Employee_Agent"><path codeLine="78" d="M597.5,673.94 C597.5,714.33 597.5,766.87 597.5,796.97 " fill="none" id="Employee-backto-Agent" style="stroke:#181818;stroke-width:1.0;"/><polygon fill="none" points="590.5,673.83,597.5,653.83,604.5,673.83,590.5,673.83" style="stroke:#181818;stroke-width:1.0;"/><text fill="#000000" font-family="sans-serif" font-size="20" lengthAdjust="spacing" textLength="34" x="598.5" y="726.5645">is a</text></g><!--link Agent to Announcement--><g id="link_Agent_Announcement"><path codeLine="79" d="M644.85,822 C677.68,822 723.92,822 771.61,822 " fill="none" id="Agent-to-Announcement" style="stroke:#181818;stroke-width:1.0;"/><polygon fill="#181818" points="776.83,822,767.83,818,771.83,822,767.83,826,776.83,822" style="stroke:#181818;stroke-width:1.0;"/><text fill="#000000" font-family="sans-serif" font-size="20" lengthAdjust="spacing" textLength="96" x="662.75" y="813.5645">publishes</text></g><!--SRC=[XLJ1Rjim3BthAtHhWYn1iUDG5CYw3GWm34E3Ve0YCxOGMTGa6PlNxTz7sOejnqsMGsJnFPAFD6b_KiOA9sgDyWG5B-0e6Xs-e0bxzHlu-tjsvyySNgD1MJciWGVN01iHA-H9bB0FhGRkG0PXIfqJV2KA_AbCoOz2-npHoa1eBN2BkesNFEC0eWl8CY-fXVVR49mwD05s4asdzvwnEmt7m0Dofyegy495EGeDOwnpuizWqQk0Je7dhupJRpqnBfQTSSLB23lZgHO9YoN_C26DbAqns12b1XC6Hfi7UOOV3VWf-3UfoRr9JLJIaQcBtPdqFM5TA- -f3Yw7nvGX3x58RkyoMamsrDwXvwg_ExJWGijjUaZspxNLs09mI0zdFZXF2lfZZBejU_638V5YEIyU76_eBuLGnBJ4iVH6lpNrOG84yMjcinKQc5YtHU60ieZ-75evgAQyKP9ikUYEJEcRxuhuNvKF3pdwo4LsYp1RIGSYmAJTIvPLZNuo34-qHGwrfWQyifMzYbAGrQqvMbqPeSp-iVr4ofBjt8UTsKCt08lv18o1ehOnK2mqfvyd91Vd4_Tb5trbXUWXcQA2lalZm4RRpU8fsN_IR1vlD9VTw3ivJjRzOeTlUSQS_PnF8gpNZrUcQCwRzPgzxHbbvWYRlwJDPWXtaMTMeKgVBEfgluOFVzRqxJNPMXE9reSDzu7HRtA2-yj5lGJQvg2Lhy3_0m00]--></g></svg>