<?xml version="1.0" encoding="UTF-8" standalone="no"?><svg xmlns="http://www.w3.org/2000/svg" xmlns:xlink="http://www.w3.org/1999/xlink" contentStyleType="text/css" height="1452px" preserveAspectRatio="none" style="width:1416px;height:1452px;background:#FFFFFF;" version="1.1" viewBox="0 0 1416 1452" width="1416px" zoomAndPan="magnify"><defs/><g><rect fill="#FFFFFF" height="1257.2266" style="stroke:#181818;stroke-width:1.0;" width="10" x="48" y="98.2813"/><rect fill="#FFFFFF" height="37.2813" style="stroke:#181818;stroke-width:1.0;" width="10" x="1347" y="127.5625"/><rect fill="#FFFFFF" height="37.2813" style="stroke:#181818;stroke-width:1.0;" width="10" x="1347" y="202.125"/><rect fill="#FFFFFF" height="914.2344" style="stroke:#181818;stroke-width:1.0;" width="10" x="1347" y="276.6875"/><rect fill="#FFFFFF" height="126.3047" style="stroke:#181818;stroke-width:1.0;" width="10" x="1347" y="1228.2031"/><rect fill="none" height="196.3281" style="stroke:#000000;stroke-width:1.5;" width="1399.5" x="10" y="440.8125"/><rect fill="none" height="102.3047" style="stroke:#000000;stroke-width:1.5;" width="1399.5" x="10" y="651.1406"/><rect fill="none" height="102.3047" style="stroke:#000000;stroke-width:1.5;" width="1399.5" x="10" y="767.4453"/><rect fill="none" height="196.3281" style="stroke:#000000;stroke-width:1.5;" width="1399.5" x="10" y="958.3125"/><rect fill="none" height="104.3047" style="stroke:#000000;stroke-width:1.5;" width="1399.5" x="10" y="1243.2031"/><line style="stroke:#181818;stroke-width:0.5;stroke-dasharray:5.0,5.0;" x1="53" x2="53" y1="88.2813" y2="1364.5078"/><line style="stroke:#181818;stroke-width:0.5;stroke-dasharray:5.0,5.0;" x1="1351.5" x2="1351.5" y1="88.2813" y2="1364.5078"/><text fill="#000000" font-family="sans-serif" font-size="20" lengthAdjust="spacing" textLength="60" x="20" y="83.5645">Agent</text><ellipse cx="53" cy="13.5" fill="#E2E2F0" rx="8" ry="8" style="stroke:#181818;stroke-width:0.5;"/><path d="M53,21.5 L53,48.5 M40,29.5 L66,29.5 M53,48.5 L40,63.5 M53,48.5 L66,63.5 " fill="none" style="stroke:#181818;stroke-width:0.5;"/><text fill="#000000" font-family="sans-serif" font-size="20" lengthAdjust="spacing" textLength="60" x="20" y="1382.0723">Agent</text><ellipse cx="53" cy="1395.2891" fill="#E2E2F0" rx="8" ry="8" style="stroke:#181818;stroke-width:0.5;"/><path d="M53,1403.2891 L53,1430.2891 M40,1411.2891 L66,1411.2891 M53,1430.2891 L40,1445.2891 M53,1430.2891 L66,1445.2891 " fill="none" style="stroke:#181818;stroke-width:0.5;"/><rect fill="#E2E2F0" height="37.2813" rx="2.5" ry="2.5" style="stroke:#181818;stroke-width:0.5;" width="95" x="1304.5" y="50"/><text fill="#000000" font-family="sans-serif" font-size="20" lengthAdjust="spacing" textLength="81" x="1311.5" y="75.5645">:System</text><rect fill="#E2E2F0" height="37.2813" rx="2.5" ry="2.5" style="stroke:#181818;stroke-width:0.5;" width="95" x="1304.5" y="1363.5078"/><text fill="#000000" font-family="sans-serif" font-size="20" lengthAdjust="spacing" textLength="81" x="1311.5" y="1389.0723">:System</text><rect fill="#FFFFFF" height="1257.2266" style="stroke:#181818;stroke-width:1.0;" width="10" x="48" y="98.2813"/><rect fill="#FFFFFF" height="37.2813" style="stroke:#181818;stroke-width:1.0;" width="10" x="1347" y="127.5625"/><rect fill="#FFFFFF" height="37.2813" style="stroke:#181818;stroke-width:1.0;" width="10" x="1347" y="202.125"/><rect fill="#FFFFFF" height="914.2344" style="stroke:#181818;stroke-width:1.0;" width="10" x="1347" y="276.6875"/><rect fill="#FFFFFF" height="126.3047" style="stroke:#181818;stroke-width:1.0;" width="10" x="1347" y="1228.2031"/><polygon fill="#181818" points="1335,123.5625,1345,127.5625,1335,131.5625,1339,127.5625" style="stroke:#181818;stroke-width:1.0;"/><line style="stroke:#181818;stroke-width:1.0;" x1="58" x2="1341" y1="127.5625" y2="127.5625"/><text fill="#000000" font-family="sans-serif" font-size="20" font-weight="bold" lengthAdjust="spacing" textLength="14" x="65" y="120.8457">1</text><text fill="#000000" font-family="sans-serif" font-size="20" lengthAdjust="spacing" textLength="284" x="83" y="120.8457">asks to announce a property</text><polygon fill="#181818" points="69,160.8438,59,164.8438,69,168.8438,65,164.8438" style="stroke:#181818;stroke-width:1.0;"/><line style="stroke:#181818;stroke-width:1.0;stroke-dasharray:2.0,2.0;" x1="63" x2="1351" y1="164.8438" y2="164.8438"/><text fill="#000000" font-family="sans-serif" font-size="20" font-weight="bold" lengthAdjust="spacing" textLength="14" x="75" y="158.127">2</text><text fill="#000000" font-family="sans-serif" font-size="20" lengthAdjust="spacing" textLength="558" x="93" y="158.127">shows the list of clients available and asks to select one</text><polygon fill="#181818" points="1335,198.125,1345,202.125,1335,206.125,1339,202.125" style="stroke:#181818;stroke-width:1.0;"/><line style="stroke:#181818;stroke-width:1.0;" x1="58" x2="1341" y1="202.125" y2="202.125"/><text fill="#000000" font-family="sans-serif" font-size="20" font-weight="bold" lengthAdjust="spacing" textLength="14" x="65" y="195.4082">3</text><text fill="#000000" font-family="sans-serif" font-size="20" lengthAdjust="spacing" textLength="149" x="83" y="195.4082">selects a client</text><polygon fill="#181818" points="69,235.4063,59,239.4063,69,243.4063,65,239.4063" style="stroke:#181818;stroke-width:1.0;"/><line style="stroke:#181818;stroke-width:1.0;stroke-dasharray:2.0,2.0;" x1="63" x2="1351" y1="239.4063" y2="239.4063"/><text fill="#000000" font-family="sans-serif" font-size="20" font-weight="bold" lengthAdjust="spacing" textLength="14" x="75" y="232.6895">4</text><text fill="#000000" font-family="sans-serif" font-size="20" lengthAdjust="spacing" textLength="522" x="93" y="232.6895">requests the property type (land, apartment, house)</text><polygon fill="#181818" points="1335,272.6875,1345,276.6875,1335,280.6875,1339,276.6875" style="stroke:#181818;stroke-width:1.0;"/><line style="stroke:#181818;stroke-width:1.0;" x1="58" x2="1341" y1="276.6875" y2="276.6875"/><text fill="#000000" font-family="sans-serif" font-size="20" font-weight="bold" lengthAdjust="spacing" textLength="14" x="65" y="269.9707">5</text><text fill="#000000" font-family="sans-serif" font-size="20" lengthAdjust="spacing" textLength="251" x="83" y="269.9707">types the requested data</text><polygon fill="#181818" points="69,309.9688,59,313.9688,69,317.9688,65,313.9688" style="stroke:#181818;stroke-width:1.0;"/><line style="stroke:#181818;stroke-width:1.0;stroke-dasharray:2.0,2.0;" x1="63" x2="1346" y1="313.9688" y2="313.9688"/><text fill="#000000" font-family="sans-serif" font-size="20" font-weight="bold" lengthAdjust="spacing" textLength="14" x="75" y="307.252">6</text><text fill="#000000" font-family="sans-serif" font-size="20" lengthAdjust="spacing" textLength="808" x="93" y="307.252">request the address, area, distance from city centre and photoURL (one or more)</text><polygon fill="#181818" points="1335,347.25,1345,351.25,1335,355.25,1339,351.25" style="stroke:#181818;stroke-width:1.0;"/><line style="stroke:#181818;stroke-width:1.0;" x1="58" x2="1341" y1="351.25" y2="351.25"/><text fill="#000000" font-family="sans-serif" font-size="20" font-weight="bold" lengthAdjust="spacing" textLength="14" x="65" y="344.5332">7</text><text fill="#000000" font-family="sans-serif" font-size="20" lengthAdjust="spacing" textLength="212" x="83" y="344.5332">types requested data</text><polygon fill="#181818" points="69,384.5313,59,388.5313,69,392.5313,65,388.5313" style="stroke:#181818;stroke-width:1.0;"/><line style="stroke:#181818;stroke-width:1.0;stroke-dasharray:2.0,2.0;" x1="63" x2="1346" y1="388.5313" y2="388.5313"/><text fill="#000000" font-family="sans-serif" font-size="20" font-weight="bold" lengthAdjust="spacing" textLength="14" x="75" y="381.8145">8</text><text fill="#000000" font-family="sans-serif" font-size="20" lengthAdjust="spacing" textLength="290" x="93" y="381.8145">request deal type (sale, rent)</text><polygon fill="#181818" points="1335,421.8125,1345,425.8125,1335,429.8125,1339,425.8125" style="stroke:#181818;stroke-width:1.0;"/><line style="stroke:#181818;stroke-width:1.0;" x1="58" x2="1341" y1="425.8125" y2="425.8125"/><text fill="#000000" font-family="sans-serif" font-size="20" font-weight="bold" lengthAdjust="spacing" textLength="14" x="65" y="419.0957">9</text><text fill="#000000" font-family="sans-serif" font-size="20" lengthAdjust="spacing" textLength="212" x="83" y="419.0957">types requested data</text><path d="M10,440.8125 L86,440.8125 L86,456.0938 L76,466.0938 L10,466.0938 L10,440.8125 " fill="#EEEEEE" style="stroke:#000000;stroke-width:1.5;"/><rect fill="none" height="196.3281" style="stroke:#000000;stroke-width:1.5;" width="1399.5" x="10" y="440.8125"/><text fill="#008000" font-family="sans-serif" font-size="20" font-weight="bold" lengthAdjust="spacing" textLength="31" x="25" y="460.377">alt</text><text fill="#0000FF" font-family="sans-serif" font-size="15" font-weight="bold" lengthAdjust="spacing" textLength="47" x="101" y="456.7358">[sale]</text><polygon fill="#181818" points="69,493.8359,59,497.8359,69,501.8359,65,497.8359" style="stroke:#181818;stroke-width:1.0;"/><line style="stroke:#181818;stroke-width:1.0;stroke-dasharray:2.0,2.0;" x1="63" x2="1346" y1="497.8359" y2="497.8359"/><text fill="#000000" font-family="sans-serif" font-size="20" font-weight="bold" lengthAdjust="spacing" textLength="28" x="75" y="491.1191">10</text><text fill="#000000" font-family="sans-serif" font-size="20" lengthAdjust="spacing" textLength="178" x="107" y="491.1191">request sale price</text><polygon fill="#181818" points="1335,531.1172,1345,535.1172,1335,539.1172,1339,535.1172" style="stroke:#181818;stroke-width:1.0;"/><line style="stroke:#181818;stroke-width:1.0;" x1="58" x2="1341" y1="535.1172" y2="535.1172"/><text fill="#000000" font-family="sans-serif" font-size="20" font-weight="bold" lengthAdjust="spacing" textLength="28" x="65" y="528.4004">11</text><text fill="#000000" font-family="sans-serif" font-size="20" lengthAdjust="spacing" textLength="212" x="97" y="528.4004">types requested data</text><line style="stroke:#000000;stroke-width:1.0;stroke-dasharray:2.0,2.0;" x1="10" x2="1409.5" y1="544.1172" y2="544.1172"/><text fill="#0000FF" font-family="sans-serif" font-size="15" font-weight="bold" lengthAdjust="spacing" textLength="48" x="15" y="558.0405">[rent]</text><polygon fill="#181818" points="69,587.8594,59,591.8594,69,595.8594,65,591.8594" style="stroke:#181818;stroke-width:1.0;"/><line style="stroke:#181818;stroke-width:1.0;stroke-dasharray:2.0,2.0;" x1="63" x2="1346" y1="591.8594" y2="591.8594"/><text fill="#000000" font-family="sans-serif" font-size="20" font-weight="bold" lengthAdjust="spacing" textLength="28" x="75" y="585.1426">12</text><text fill="#000000" font-family="sans-serif" font-size="20" lengthAdjust="spacing" textLength="402" x="107" y="585.1426">request sale price and contract duration</text><polygon fill="#181818" points="1335,625.1406,1345,629.1406,1335,633.1406,1339,629.1406" style="stroke:#181818;stroke-width:1.0;"/><line style="stroke:#181818;stroke-width:1.0;" x1="58" x2="1341" y1="629.1406" y2="629.1406"/><text fill="#000000" font-family="sans-serif" font-size="20" font-weight="bold" lengthAdjust="spacing" textLength="28" x="65" y="622.4238">13</text><text fill="#000000" font-family="sans-serif" font-size="20" lengthAdjust="spacing" textLength="212" x="97" y="622.4238">types requested data</text><path d="M10,651.1406 L86,651.1406 L86,666.4219 L76,676.4219 L10,676.4219 L10,651.1406 " fill="#EEEEEE" style="stroke:#000000;stroke-width:1.5;"/><rect fill="none" height="102.3047" style="stroke:#000000;stroke-width:1.5;" width="1399.5" x="10" y="651.1406"/><text fill="#008000" font-family="sans-serif" font-size="20" font-weight="bold" lengthAdjust="spacing" textLength="31" x="25" y="670.7051">alt</text><text fill="#0000FF" font-family="sans-serif" font-size="15" font-weight="bold" lengthAdjust="spacing" textLength="177" x="101" y="667.064">[apartment or house]</text><polygon fill="#181818" points="69,704.1641,59,708.1641,69,712.1641,65,708.1641" style="stroke:#181818;stroke-width:1.0;"/><line style="stroke:#181818;stroke-width:1.0;stroke-dasharray:2.0,2.0;" x1="63" x2="1346" y1="708.1641" y2="708.1641"/><text fill="#000000" font-family="sans-serif" font-size="20" font-weight="bold" lengthAdjust="spacing" textLength="28" x="75" y="701.4473">14</text><text fill="#000000" font-family="sans-serif" font-size="20" lengthAdjust="spacing" textLength="1233" x="107" y="701.4473">request the number of bedrooms, number of bathrooms, number of parking spaces and available equipment (one or more)</text><polygon fill="#181818" points="1335,741.4453,1345,745.4453,1335,749.4453,1339,745.4453" style="stroke:#181818;stroke-width:1.0;"/><line style="stroke:#181818;stroke-width:1.0;" x1="58" x2="1341" y1="745.4453" y2="745.4453"/><text fill="#000000" font-family="sans-serif" font-size="20" font-weight="bold" lengthAdjust="spacing" textLength="28" x="65" y="738.7285">15</text><text fill="#000000" font-family="sans-serif" font-size="20" lengthAdjust="spacing" textLength="212" x="97" y="738.7285">types requested data</text><path d="M10,767.4453 L86,767.4453 L86,782.7266 L76,792.7266 L10,792.7266 L10,767.4453 " fill="#EEEEEE" style="stroke:#000000;stroke-width:1.5;"/><rect fill="none" height="102.3047" style="stroke:#000000;stroke-width:1.5;" width="1399.5" x="10" y="767.4453"/><text fill="#008000" font-family="sans-serif" font-size="20" font-weight="bold" lengthAdjust="spacing" textLength="31" x="25" y="787.0098">alt</text><text fill="#0000FF" font-family="sans-serif" font-size="15" font-weight="bold" lengthAdjust="spacing" textLength="63" x="101" y="783.3687">[house]</text><polygon fill="#181818" points="69,820.4688,59,824.4688,69,828.4688,65,824.4688" style="stroke:#181818;stroke-width:1.0;"/><line style="stroke:#181818;stroke-width:1.0;stroke-dasharray:2.0,2.0;" x1="63" x2="1346" y1="824.4688" y2="824.4688"/><text fill="#000000" font-family="sans-serif" font-size="20" font-weight="bold" lengthAdjust="spacing" textLength="28" x="75" y="817.752">16</text><text fill="#000000" font-family="sans-serif" font-size="20" lengthAdjust="spacing" textLength="929" x="107" y="817.752">request if it has basement, inhabitable loft and how is the sun exposure (high, low, medium)</text><polygon fill="#181818" points="1335,857.75,1345,861.75,1335,865.75,1339,861.75" style="stroke:#181818;stroke-width:1.0;"/><line style="stroke:#181818;stroke-width:1.0;" x1="58" x2="1341" y1="861.75" y2="861.75"/><text fill="#000000" font-family="sans-serif" font-size="20" font-weight="bold" lengthAdjust="spacing" textLength="28" x="65" y="855.0332">17</text><text fill="#000000" font-family="sans-serif" font-size="20" lengthAdjust="spacing" textLength="212" x="97" y="855.0332">types requested data</text><polygon fill="#181818" points="69,902.0313,59,906.0313,69,910.0313,65,906.0313" style="stroke:#181818;stroke-width:1.0;"/><line style="stroke:#181818;stroke-width:1.0;stroke-dasharray:2.0,2.0;" x1="63" x2="1346" y1="906.0313" y2="906.0313"/><text fill="#000000" font-family="sans-serif" font-size="20" font-weight="bold" lengthAdjust="spacing" textLength="28" x="75" y="899.3145">18</text><text fill="#000000" font-family="sans-serif" font-size="20" lengthAdjust="spacing" textLength="547" x="107" y="899.3145">request the commission type (fix amount, percentage)</text><polygon fill="#181818" points="1335,939.3125,1345,943.3125,1335,947.3125,1339,943.3125" style="stroke:#181818;stroke-width:1.0;"/><line style="stroke:#181818;stroke-width:1.0;" x1="58" x2="1341" y1="943.3125" y2="943.3125"/><text fill="#000000" font-family="sans-serif" font-size="20" font-weight="bold" lengthAdjust="spacing" textLength="28" x="65" y="936.5957">19</text><text fill="#000000" font-family="sans-serif" font-size="20" lengthAdjust="spacing" textLength="212" x="97" y="936.5957">types requested data</text><path d="M10,958.3125 L86,958.3125 L86,973.5938 L76,983.5938 L10,983.5938 L10,958.3125 " fill="#EEEEEE" style="stroke:#000000;stroke-width:1.5;"/><rect fill="none" height="196.3281" style="stroke:#000000;stroke-width:1.5;" width="1399.5" x="10" y="958.3125"/><text fill="#008000" font-family="sans-serif" font-size="20" font-weight="bold" lengthAdjust="spacing" textLength="31" x="25" y="977.877">alt</text><text fill="#0000FF" font-family="sans-serif" font-size="15" font-weight="bold" lengthAdjust="spacing" textLength="104" x="101" y="974.2358">[fix amount]</text><polygon fill="#181818" points="69,1011.3359,59,1015.3359,69,1019.3359,65,1015.3359" style="stroke:#181818;stroke-width:1.0;"/><line style="stroke:#181818;stroke-width:1.0;stroke-dasharray:2.0,2.0;" x1="63" x2="1346" y1="1015.3359" y2="1015.3359"/><text fill="#000000" font-family="sans-serif" font-size="20" font-weight="bold" lengthAdjust="spacing" textLength="28" x="75" y="1008.6191">20</text><text fill="#000000" font-family="sans-serif" font-size="20" lengthAdjust="spacing" textLength="415" x="107" y="1008.6191">request the commission fix amount value</text><polygon fill="#181818" points="1335,1048.6172,1345,1052.6172,1335,1056.6172,1339,1052.6172" style="stroke:#181818;stroke-width:1.0;"/><line style="stroke:#181818;stroke-width:1.0;" x1="58" x2="1341" y1="1052.6172" y2="1052.6172"/><text fill="#000000" font-family="sans-serif" font-size="20" font-weight="bold" lengthAdjust="spacing" textLength="28" x="65" y="1045.9004">21</text><text fill="#000000" font-family="sans-serif" font-size="20" lengthAdjust="spacing" textLength="212" x="97" y="1045.9004">types requested data</text><line style="stroke:#000000;stroke-width:1.0;stroke-dasharray:2.0,2.0;" x1="10" x2="1409.5" y1="1061.6172" y2="1061.6172"/><text fill="#0000FF" font-family="sans-serif" font-size="15" font-weight="bold" lengthAdjust="spacing" textLength="107" x="15" y="1075.5405">[percentage]</text><polygon fill="#181818" points="69,1105.3594,59,1109.3594,69,1113.3594,65,1109.3594" style="stroke:#181818;stroke-width:1.0;"/><line style="stroke:#181818;stroke-width:1.0;stroke-dasharray:2.0,2.0;" x1="63" x2="1346" y1="1109.3594" y2="1109.3594"/><text fill="#000000" font-family="sans-serif" font-size="20" font-weight="bold" lengthAdjust="spacing" textLength="28" x="75" y="1102.6426">22</text><text fill="#000000" font-family="sans-serif" font-size="20" lengthAdjust="spacing" textLength="421" x="107" y="1102.6426">request the commission percentage value</text><polygon fill="#181818" points="1335,1142.6406,1345,1146.6406,1335,1150.6406,1339,1146.6406" style="stroke:#181818;stroke-width:1.0;"/><line style="stroke:#181818;stroke-width:1.0;" x1="58" x2="1341" y1="1146.6406" y2="1146.6406"/><text fill="#000000" font-family="sans-serif" font-size="20" font-weight="bold" lengthAdjust="spacing" textLength="28" x="65" y="1139.9238">23</text><text fill="#000000" font-family="sans-serif" font-size="20" lengthAdjust="spacing" textLength="212" x="97" y="1139.9238">types requested data</text><polygon fill="#181818" points="69,1186.9219,59,1190.9219,69,1194.9219,65,1190.9219" style="stroke:#181818;stroke-width:1.0;"/><line style="stroke:#181818;stroke-width:1.0;stroke-dasharray:2.0,2.0;" x1="63" x2="1351" y1="1190.9219" y2="1190.9219"/><text fill="#000000" font-family="sans-serif" font-size="20" font-weight="bold" lengthAdjust="spacing" textLength="28" x="75" y="1184.2051">24</text><text fill="#000000" font-family="sans-serif" font-size="20" lengthAdjust="spacing" textLength="520" x="107" y="1184.2051">shows the announcement and asks for confirmation</text><polygon fill="#181818" points="1335,1224.2031,1345,1228.2031,1335,1232.2031,1339,1228.2031" style="stroke:#181818;stroke-width:1.0;"/><line style="stroke:#181818;stroke-width:1.0;" x1="58" x2="1341" y1="1228.2031" y2="1228.2031"/><text fill="#000000" font-family="sans-serif" font-size="20" font-weight="bold" lengthAdjust="spacing" textLength="28" x="65" y="1221.4863">25</text><text fill="#000000" font-family="sans-serif" font-size="20" lengthAdjust="spacing" textLength="212" x="97" y="1221.4863">types requested data</text><path d="M10,1243.2031 L86,1243.2031 L86,1258.4844 L76,1268.4844 L10,1268.4844 L10,1243.2031 " fill="#EEEEEE" style="stroke:#000000;stroke-width:1.5;"/><rect fill="none" height="104.3047" style="stroke:#000000;stroke-width:1.5;" width="1399.5" x="10" y="1243.2031"/><text fill="#008000" font-family="sans-serif" font-size="20" font-weight="bold" lengthAdjust="spacing" textLength="31" x="25" y="1262.7676">alt</text><text fill="#0000FF" font-family="sans-serif" font-size="15" font-weight="bold" lengthAdjust="spacing" textLength="86" x="101" y="1259.1265">[confirms]</text><polygon fill="#181818" points="69,1296.2266,59,1300.2266,69,1304.2266,65,1300.2266" style="stroke:#181818;stroke-width:1.0;"/><line style="stroke:#181818;stroke-width:1.0;stroke-dasharray:2.0,2.0;" x1="63" x2="1346" y1="1300.2266" y2="1300.2266"/><text fill="#000000" font-family="sans-serif" font-size="20" font-weight="bold" lengthAdjust="spacing" textLength="28" x="75" y="1293.5098">26</text><text fill="#000000" font-family="sans-serif" font-size="20" lengthAdjust="spacing" textLength="268" x="107" y="1293.5098">Displays operation success</text><line style="stroke:#000000;stroke-width:1.0;stroke-dasharray:2.0,2.0;" x1="10" x2="1409.5" y1="1309.2266" y2="1309.2266"/><polygon fill="#181818" points="69,1335.5078,59,1339.5078,69,1343.5078,65,1339.5078" style="stroke:#181818;stroke-width:1.0;"/><line style="stroke:#181818;stroke-width:1.0;stroke-dasharray:2.0,2.0;" x1="63" x2="1346" y1="1339.5078" y2="1339.5078"/><text fill="#000000" font-family="sans-serif" font-size="20" font-weight="bold" lengthAdjust="spacing" textLength="28" x="75" y="1332.791">27</text><text fill="#000000" font-family="sans-serif" font-size="20" lengthAdjust="spacing" textLength="266" x="107" y="1332.791">Displays operation refused</text><!--SRC=[bLJ1Rjim3BtxAuXUqW4fi0tOfOS1mOPkXnKOLkm368kEYSgI9ybjiw_Va-pKxT8sIKw1nKS-Fl8ntghhEN1dVNqhXemqFDXqvLswqRz27zzN2xQ9OjfQTPigxkBfHluCuchv5lpGVnSs4ZBgYxS-q2Q8kDU2vx2r7UIjg4BXmwTgSQt6MA4a3pELnGoC4_1QOkIDhAnk7DNYaeI3OKQ3r4czgtX8tWtT6g2AwmH-PwiDafmHHrfLo96qrfvTehFBcsrCqfMdyM_1w1qdGMoreelFqmDT8kWsKlB4pla118Yf3xwNaBOpQfTcGbqWmGhOsFfxW5iXgp6HRwYs2bQH-8xLyXgwi3EFDQ9Oz4FUIMLaB_bpNcCiCaqvzyaij87W-DBbv_-eXQndJ2ExNKEKjhtGkGMd9N4MBKENrFeXohl3d39yp3Ybprl9YGyADOKNA1iJC6GG2C9Bp1WzPDsRu3kg5IppTeHHkRxroV_-zOFE8HfXx9qFOFeIhVyelKO1JTf9XyXMbdXmwRYCnMp0L8JVA-dpE_JMUemw8gtOA8N4SMcBB3KC620wcI5mCSYnnPmP-tYSVXQrpF-jydbke_toag_51EyxZF39DqxjtaVKWC4t57kkmQLOuT4OIArzOV1yjgTsSf0yRA88mpLOSvHnuzMrlDPKY5ZVfC8DRYOTzpiEZkIXzt708fwtkccNYBjVKYT6X-uqbc-8MlkkqnWnmMad6tqWxd29G1AUpLR0EJn-FsVyeNa-AJs3w8xptJzbTMUM9rISGITMV47F-GhlRdZPgiV3ss2rO9X6GpTwvSWxT-Z6BQxKuPRyX956xQSYyIKTlchiBMyZvKjSQ637QhWY5XMFX0HfiEncb66lZNy0]--></g></svg>