<?xml version="1.0" encoding="UTF-8" standalone="no"?><svg xmlns="http://www.w3.org/2000/svg" xmlns:xlink="http://www.w3.org/1999/xlink" contentStyleType="text/css" height="561px" preserveAspectRatio="none" style="width:2082px;height:561px;background:#FFFFFF;" version="1.1" viewBox="0 0 2082 561" width="2082px" zoomAndPan="magnify"><defs/><g><!--class Person--><g id="elem_Person"><rect codeLine="16" fill="#FFDAB9" height="194.0938" id="Person" rx="2.5" ry="2.5" style="stroke:#4169E1;stroke-width:0.5;" width="215" x="7" y="250.5"/><text fill="#000000" font-family="sans-serif" font-size="20" lengthAdjust="spacing" textLength="62" x="83.5" y="276.2617">Person</text><line style="stroke:#4169E1;stroke-width:0.5;" x1="8" x2="221" y1="285.6563" y2="285.6563"/><rect fill="none" height="6" style="stroke:#C82930;stroke-width:1.0;" width="6" x="15" y="300.7344"/><text fill="#000000" font-family="sans-serif" font-size="20" lengthAdjust="spacing" textLength="48" x="28" y="310.418">name</text><rect fill="none" height="6" style="stroke:#C82930;stroke-width:1.0;" width="6" x="15" y="325.8906"/><text fill="#000000" font-family="sans-serif" font-size="20" lengthAdjust="spacing" textLength="188" x="28" y="335.5742">passportCardNumber</text><rect fill="none" height="6" style="stroke:#C82930;stroke-width:1.0;" width="6" x="15" y="351.0469"/><text fill="#000000" font-family="sans-serif" font-size="20" lengthAdjust="spacing" textLength="94" x="28" y="360.7305">taxNumber</text><rect fill="none" height="6" style="stroke:#C82930;stroke-width:1.0;" width="6" x="15" y="376.2031"/><text fill="#000000" font-family="sans-serif" font-size="20" lengthAdjust="spacing" textLength="46" x="28" y="385.8867">email</text><rect fill="none" height="6" style="stroke:#C82930;stroke-width:1.0;" width="6" x="15" y="401.3594"/><text fill="#000000" font-family="sans-serif" font-size="20" lengthAdjust="spacing" textLength="121" x="28" y="411.043">phoneNumber</text><rect fill="none" height="6" style="stroke:#C82930;stroke-width:1.0;" width="6" x="15" y="426.5156"/><text fill="#000000" font-family="sans-serif" font-size="20" lengthAdjust="spacing" textLength="86" x="28" y="436.1992">password</text></g><!--class Client--><g id="elem_Client"><rect codeLine="24" fill="#FFDAB9" height="43.1563" id="Client" rx="2.5" ry="2.5" style="stroke:#4169E1;stroke-width:0.5;" width="55" x="363" y="276"/><text fill="#000000" font-family="sans-serif" font-size="20" lengthAdjust="spacing" textLength="49" x="366" y="301.7617">Client</text><line style="stroke:#4169E1;stroke-width:0.5;" x1="364" x2="417" y1="311.1563" y2="311.1563"/></g><!--class Order--><g id="elem_Order"><rect codeLine="27" fill="#FFDAB9" height="68.3125" id="Order" rx="2.5" ry="2.5" style="stroke:#4169E1;stroke-width:0.5;" width="138" x="670" y="255.5"/><text fill="#000000" font-family="sans-serif" font-size="20" lengthAdjust="spacing" textLength="52" x="713" y="281.2617">Order</text><line style="stroke:#4169E1;stroke-width:0.5;" x1="671" x2="807" y1="290.6563" y2="290.6563"/><rect fill="none" height="6" style="stroke:#C82930;stroke-width:1.0;" width="6" x="678" y="305.7344"/><text fill="#000000" font-family="sans-serif" font-size="20" lengthAdjust="spacing" textLength="111" x="691" y="315.418">requestPrice</text></g><!--class Property--><g id="elem_Property"><rect codeLine="30" fill="#FFDAB9" height="143.7813" id="Property" rx="2.5" ry="2.5" style="stroke:#4169E1;stroke-width:0.5;" width="239" x="1223" y="217.5"/><text fill="#000000" font-family="sans-serif" font-size="20" lengthAdjust="spacing" textLength="76" x="1304.5" y="243.2617">Property</text><line style="stroke:#4169E1;stroke-width:0.5;" x1="1224" x2="1461" y1="252.6563" y2="252.6563"/><rect fill="none" height="6" style="stroke:#C82930;stroke-width:1.0;" width="6" x="1231" y="267.7344"/><text fill="#000000" font-family="sans-serif" font-size="20" lengthAdjust="spacing" textLength="38" x="1244" y="277.418">type</text><rect fill="none" height="6" style="stroke:#C82930;stroke-width:1.0;" width="6" x="1231" y="292.8906"/><text fill="#000000" font-family="sans-serif" font-size="20" lengthAdjust="spacing" textLength="40" x="1244" y="302.5742">area</text><rect fill="none" height="6" style="stroke:#C82930;stroke-width:1.0;" width="6" x="1231" y="318.0469"/><text fill="#000000" font-family="sans-serif" font-size="20" lengthAdjust="spacing" textLength="212" x="1244" y="327.7305">distanceFromCityCenter</text><rect fill="none" height="6" style="stroke:#C82930;stroke-width:1.0;" width="6" x="1231" y="343.2031"/><text fill="#000000" font-family="sans-serif" font-size="20" lengthAdjust="spacing" textLength="87" x="1244" y="352.8867">photoURL</text></g><!--class Home--><g id="elem_Home"><rect codeLine="37" fill="#FFDAB9" height="143.7813" id="Home" rx="2.5" ry="2.5" style="stroke:#4169E1;stroke-width:0.5;" width="236" x="1575" y="49.5"/><text fill="#000000" font-family="sans-serif" font-size="20" lengthAdjust="spacing" textLength="51" x="1667.5" y="75.2617">Home</text><line style="stroke:#4169E1;stroke-width:0.5;" x1="1576" x2="1810" y1="84.6563" y2="84.6563"/><rect fill="none" height="6" style="stroke:#C82930;stroke-width:1.0;" width="6" x="1583" y="99.7344"/><text fill="#000000" font-family="sans-serif" font-size="20" lengthAdjust="spacing" textLength="175" x="1596" y="109.418">numberOfbedrooms</text><rect fill="none" height="6" style="stroke:#C82930;stroke-width:1.0;" width="6" x="1583" y="124.8906"/><text fill="#000000" font-family="sans-serif" font-size="20" lengthAdjust="spacing" textLength="180" x="1596" y="134.5742">numberOfbathrooms</text><rect fill="none" height="6" style="stroke:#C82930;stroke-width:1.0;" width="6" x="1583" y="150.0469"/><text fill="#000000" font-family="sans-serif" font-size="20" lengthAdjust="spacing" textLength="209" x="1596" y="159.7305">numberOfParkingSpace</text><rect fill="none" height="6" style="stroke:#C82930;stroke-width:1.0;" width="6" x="1583" y="175.2031"/><text fill="#000000" font-family="sans-serif" font-size="20" lengthAdjust="spacing" textLength="168" x="1596" y="184.8867">availableEquipment</text></g><!--class Land--><g id="elem_Land"><rect codeLine="43" fill="#FFDAB9" height="43.1563" id="Land" rx="2.5" ry="2.5" style="stroke:#4169E1;stroke-width:0.5;" width="49" x="1668.5" y="229"/><text fill="#000000" font-family="sans-serif" font-size="20" lengthAdjust="spacing" textLength="43" x="1671.5" y="254.7617">Land</text><line style="stroke:#4169E1;stroke-width:0.5;" x1="1669.5" x2="1716.5" y1="264.1563" y2="264.1563"/></g><!--class Apartment--><g id="elem_Apartment"><rect codeLine="46" fill="#FFDAB9" height="43.1563" id="Apartment" rx="2.5" ry="2.5" style="stroke:#4169E1;stroke-width:0.5;" width="97" x="1941" y="7"/><text fill="#000000" font-family="sans-serif" font-size="20" lengthAdjust="spacing" textLength="91" x="1944" y="32.7617">Apartment</text><line style="stroke:#4169E1;stroke-width:0.5;" x1="1942" x2="2037" y1="42.1563" y2="42.1563"/></g><!--class House--><g id="elem_House"><rect codeLine="49" fill="#FFDAB9" height="118.625" id="House" rx="2.5" ry="2.5" style="stroke:#4169E1;stroke-width:0.5;" width="154" x="1912.5" y="85"/><text fill="#000000" font-family="sans-serif" font-size="20" lengthAdjust="spacing" textLength="55" x="1962" y="110.7617">House</text><line style="stroke:#4169E1;stroke-width:0.5;" x1="1913.5" x2="2065.5" y1="120.1563" y2="120.1563"/><rect fill="none" height="6" style="stroke:#C82930;stroke-width:1.0;" width="6" x="1920.5" y="135.2344"/><text fill="#000000" font-family="sans-serif" font-size="20" lengthAdjust="spacing" textLength="86" x="1933.5" y="144.918">basement</text><rect fill="none" height="6" style="stroke:#C82930;stroke-width:1.0;" width="6" x="1920.5" y="160.3906"/><text fill="#000000" font-family="sans-serif" font-size="20" lengthAdjust="spacing" textLength="127" x="1933.5" y="170.0742">inhabitableLoft</text><rect fill="none" height="6" style="stroke:#C82930;stroke-width:1.0;" width="6" x="1920.5" y="185.5469"/><text fill="#000000" font-family="sans-serif" font-size="20" lengthAdjust="spacing" textLength="112" x="1933.5" y="195.2305">sunExposure</text></g><!--class Announcement--><g id="elem_Announcement"><rect codeLine="54" fill="#FFDAB9" height="68.3125" id="Announcement" rx="2.5" ry="2.5" style="stroke:#4169E1;stroke-width:0.5;" width="134" x="949" y="255.5"/><text fill="#000000" font-family="sans-serif" font-size="20" lengthAdjust="spacing" textLength="128" x="952" y="281.2617">Announcement</text><line style="stroke:#4169E1;stroke-width:0.5;" x1="950" x2="1082" y1="290.6563" y2="290.6563"/><rect fill="none" height="6" style="stroke:#C82930;stroke-width:1.0;" width="6" x="957" y="305.7344"/><text fill="#000000" font-family="sans-serif" font-size="20" lengthAdjust="spacing" textLength="44" x="970" y="315.418">state</text></g><!--class Deal--><g id="elem_Deal"><rect codeLine="57" fill="#FFDAB9" height="68.3125" id="Deal" rx="2.5" ry="2.5" style="stroke:#4169E1;stroke-width:0.5;" width="108" x="1639" y="307.5"/><text fill="#000000" font-family="sans-serif" font-size="20" lengthAdjust="spacing" textLength="40" x="1673" y="333.2617">Deal</text><line style="stroke:#4169E1;stroke-width:0.5;" x1="1640" x2="1746" y1="342.6563" y2="342.6563"/><rect fill="none" height="6" style="stroke:#C82930;stroke-width:1.0;" width="6" x="1647" y="357.7344"/><text fill="#000000" font-family="sans-serif" font-size="20" lengthAdjust="spacing" textLength="81" x="1660" y="367.418">dealType</text></g><!--class Sale--><g id="elem_Sale"><rect codeLine="60" fill="#FFDAB9" height="68.3125" id="Sale" rx="2.5" ry="2.5" style="stroke:#4169E1;stroke-width:0.5;" width="146" x="1916.5" y="284.5"/><text fill="#000000" font-family="sans-serif" font-size="20" lengthAdjust="spacing" textLength="39" x="1970" y="310.2617">Sale</text><line style="stroke:#4169E1;stroke-width:0.5;" x1="1917.5" x2="2061.5" y1="319.6563" y2="319.6563"/><rect fill="none" height="6" style="stroke:#C82930;stroke-width:1.0;" width="6" x="1924.5" y="334.7344"/><text fill="#000000" font-family="sans-serif" font-size="20" lengthAdjust="spacing" textLength="119" x="1937.5" y="344.418">propertyPrice</text></g><!--class Rent--><g id="elem_Rent"><rect codeLine="63" fill="#FFDAB9" height="93.4688" id="Rent" rx="2.5" ry="2.5" style="stroke:#4169E1;stroke-width:0.5;" width="171" x="1904" y="388"/><text fill="#000000" font-family="sans-serif" font-size="20" lengthAdjust="spacing" textLength="41" x="1969" y="413.7617">Rent</text><line style="stroke:#4169E1;stroke-width:0.5;" x1="1905" x2="2074" y1="423.1563" y2="423.1563"/><rect fill="none" height="6" style="stroke:#C82930;stroke-width:1.0;" width="6" x="1912" y="438.2344"/><text fill="#000000" font-family="sans-serif" font-size="20" lengthAdjust="spacing" textLength="115" x="1925" y="447.918">propertyRent</text><rect fill="none" height="6" style="stroke:#C82930;stroke-width:1.0;" width="6" x="1912" y="463.3906"/><text fill="#000000" font-family="sans-serif" font-size="20" lengthAdjust="spacing" textLength="144" x="1925" y="473.0742">contractDuration</text></g><!--class Address--><g id="elem_Address"><rect codeLine="67" fill="#FFDAB9" height="143.7813" id="Address" rx="2.5" ry="2.5" style="stroke:#4169E1;stroke-width:0.5;" width="94" x="1646" y="410.5"/><text fill="#000000" font-family="sans-serif" font-size="20" lengthAdjust="spacing" textLength="73" x="1656.5" y="436.2617">Address</text><line style="stroke:#4169E1;stroke-width:0.5;" x1="1647" x2="1739" y1="445.6563" y2="445.6563"/><rect fill="none" height="6" style="stroke:#C82930;stroke-width:1.0;" width="6" x="1654" y="460.7344"/><text fill="#000000" font-family="sans-serif" font-size="20" lengthAdjust="spacing" textLength="51" x="1667" y="470.418">street</text><rect fill="none" height="6" style="stroke:#C82930;stroke-width:1.0;" width="6" x="1654" y="485.8906"/><text fill="#000000" font-family="sans-serif" font-size="20" lengthAdjust="spacing" textLength="30" x="1667" y="495.5742">city</text><rect fill="none" height="6" style="stroke:#C82930;stroke-width:1.0;" width="6" x="1654" y="511.0469"/><text fill="#000000" font-family="sans-serif" font-size="20" lengthAdjust="spacing" textLength="44" x="1667" y="520.7305">state</text><rect fill="none" height="6" style="stroke:#C82930;stroke-width:1.0;" width="6" x="1654" y="536.2031"/><text fill="#000000" font-family="sans-serif" font-size="20" lengthAdjust="spacing" textLength="67" x="1667" y="545.8867">zipcode</text></g><!--class Employee--><g id="elem_Employee"><rect codeLine="74" fill="#FFDAB9" height="68.3125" id="Employee" rx="2.5" ry="2.5" style="stroke:#4169E1;stroke-width:0.5;" width="192" x="448" y="371.5"/><text fill="#000000" font-family="sans-serif" font-size="20" lengthAdjust="spacing" textLength="87" x="500.5" y="397.2617">Employee</text><line style="stroke:#4169E1;stroke-width:0.5;" x1="449" x2="639" y1="406.6563" y2="406.6563"/><rect fill="none" height="6" style="stroke:#C82930;stroke-width:1.0;" width="6" x="456" y="421.7344"/><text fill="#000000" font-family="sans-serif" font-size="20" lengthAdjust="spacing" textLength="165" x="469" y="431.418">agencyDesignation</text></g><!--class Agent--><g id="elem_Agent"><rect codeLine="77" fill="#FFDAB9" height="43.1563" id="Agent" rx="2.5" ry="2.5" style="stroke:#4169E1;stroke-width:0.5;" width="57" x="1314" y="397"/><text fill="#000000" font-family="sans-serif" font-size="20" lengthAdjust="spacing" textLength="51" x="1317" y="422.7617">Agent</text><line style="stroke:#4169E1;stroke-width:0.5;" x1="1315" x2="1370" y1="432.1563" y2="432.1563"/></g><!--class Date--><g id="elem_Date"><rect codeLine="80" fill="#FFDAB9" height="118.625" id="Date" rx="2.5" ry="2.5" style="stroke:#4169E1;stroke-width:0.5;" width="106" x="1289.5" y="63"/><text fill="#000000" font-family="sans-serif" font-size="20" lengthAdjust="spacing" textLength="42" x="1321.5" y="88.7617">Date</text><line style="stroke:#4169E1;stroke-width:0.5;" x1="1290.5" x2="1394.5" y1="98.1563" y2="98.1563"/><rect fill="none" height="6" style="stroke:#C82930;stroke-width:1.0;" width="6" x="1297.5" y="113.2344"/><text fill="#000000" font-family="sans-serif" font-size="20" lengthAdjust="spacing" textLength="65" x="1310.5" y="122.918">int year</text><rect fill="none" height="6" style="stroke:#C82930;stroke-width:1.0;" width="6" x="1297.5" y="138.3906"/><text fill="#000000" font-family="sans-serif" font-size="20" lengthAdjust="spacing" textLength="79" x="1310.5" y="148.0742">int month</text><rect fill="none" height="6" style="stroke:#C82930;stroke-width:1.0;" width="6" x="1297.5" y="163.5469"/><text fill="#000000" font-family="sans-serif" font-size="20" lengthAdjust="spacing" textLength="58" x="1310.5" y="173.2305">int day</text></g><!--link Person to Client--><g id="link_Person_Client"><path codeLine="88" d="M222.22,328.03 C273.31,318.7 330.31,308.3 362.85,302.36 " fill="none" id="Person-Client" style="stroke:#4169E1;stroke-width:1.0;"/><polygon fill="#000000" points="267.87,292.6416,252.7887,290.6145,254.4774,299.8662,267.87,292.6416" style="stroke:#000000;stroke-width:1.0;"/><text fill="#000000" font-family="sans-serif" font-size="20" lengthAdjust="spacing" textLength="59" x="273" y="302.2617">can be</text><text fill="#000000" font-family="sans-serif" font-size="20" lengthAdjust="spacing" textLength="11" x="229.827" y="348.3255">1</text><text fill="#000000" font-family="sans-serif" font-size="20" lengthAdjust="spacing" textLength="11" x="344.1841" y="327.1362">1</text></g><!--link Order to Announcement--><g id="link_Order_Announcement"><path codeLine="91" d="M808.33,289.5 C851.28,289.5 906.4,289.5 948.92,289.5 " fill="none" id="Order-Announcement" style="stroke:#4169E1;stroke-width:1.0;"/><polygon fill="#000000" points="859.5,276.0781,845.0279,271.3758,845.0279,280.7804,859.5,276.0781" style="stroke:#000000;stroke-width:1.0;"/><text fill="#000000" font-family="sans-serif" font-size="20" lengthAdjust="spacing" textLength="48" x="864.5" y="284.2617">has a</text><text fill="#000000" font-family="sans-serif" font-size="20" lengthAdjust="spacing" textLength="11" x="816.0468" y="311.5427">1</text><text fill="#000000" font-family="sans-serif" font-size="20" lengthAdjust="spacing" textLength="11" x="929.9816" y="311.6204">1</text></g><!--reverse link Order to Date--><g id="link_Order_Date"><path codeLine="92" d="M820.87,260.4 C826.66,258.39 832.41,256.4 838,254.5 C959.61,213.11 988.51,197.22 1113,165.5 C1172.85,150.25 1242.78,137.87 1289.36,130.38 " fill="none" id="Order-backto-Date" style="stroke:#4169E1;stroke-width:1.0;"/><polygon fill="#4169E1" points="808.18,264.85,815.1659,266.6383,819.5034,260.8776,812.5176,259.0893,808.18,264.85" style="stroke:#4169E1;stroke-width:1.0;"/><polygon fill="#000000" points="996.7086,157.9387,981.5061,157.2779,984.0211,166.3399,996.7086,157.9387" style="stroke:#000000;stroke-width:1.0;"/><text fill="#000000" font-family="sans-serif" font-size="20" lengthAdjust="spacing" textLength="48" x="1002" y="168.2617">has a</text><text fill="#000000" font-family="sans-serif" font-size="20" lengthAdjust="spacing" textLength="11" x="815.8814" y="256.7726">1</text><text fill="#000000" font-family="sans-serif" font-size="20" lengthAdjust="spacing" textLength="11" x="1270.4802" y="153.916">1</text></g><!--link Client to Order--><g id="link_Client_Order"><path codeLine="95" d="M418.11,296.89 C471.44,295.65 592.84,292.85 669.81,291.07 " fill="none" id="Client-Order" style="stroke:#4169E1;stroke-width:1.0;"/><polygon fill="#000000" points="519.9979,277.8932,505.4209,273.5267,505.6383,282.9288,519.9979,277.8932" style="stroke:#000000;stroke-width:1.0;"/><text fill="#000000" font-family="sans-serif" font-size="20" lengthAdjust="spacing" textLength="58" x="525" y="286.2617">makes</text><text fill="#000000" font-family="sans-serif" font-size="20" lengthAdjust="spacing" textLength="11" x="426.1806" y="320.5499">1</text><text fill="#000000" font-family="sans-serif" font-size="20" lengthAdjust="spacing" textLength="8" x="653.8048" y="313.3621">*</text></g><!--link Announcement to Property--><g id="link_Announcement_Property"><path codeLine="98" d="M1083.06,289.5 C1123.18,289.5 1175.58,289.5 1222.7,289.5 " fill="none" id="Announcement-Property" style="stroke:#4169E1;stroke-width:1.0;"/><polygon fill="#000000" points="1134,276.0781,1119.5279,271.3758,1119.5279,280.7804,1134,276.0781" style="stroke:#000000;stroke-width:1.0;"/><text fill="#000000" font-family="sans-serif" font-size="20" lengthAdjust="spacing" textLength="48" x="1139" y="284.2617">has a</text><text fill="#000000" font-family="sans-serif" font-size="20" lengthAdjust="spacing" textLength="11" x="1090.9963" y="311.6204">1</text><text fill="#000000" font-family="sans-serif" font-size="20" lengthAdjust="spacing" textLength="11" x="1204.0645" y="311.0349">1</text></g><!--link Announcement to Agent--><g id="link_Announcement_Agent"><path codeLine="99" d="M1083.14,320.29 C1123.22,338.47 1175.6,361.39 1223,379.5 C1253.75,391.25 1289.76,402.79 1313.95,410.24 " fill="none" id="Announcement-Agent" style="stroke:#4169E1;stroke-width:1.0;"/><polygon fill="#000000" points="1128.454,323.983,1116.6771,314.3467,1113.2622,323.1093,1128.454,323.983" style="stroke:#000000;stroke-width:1.0;"/><text fill="#000000" font-family="sans-serif" font-size="20" lengthAdjust="spacing" textLength="58" x="1134" y="329.2617">has an</text><text fill="#000000" font-family="sans-serif" font-size="20" lengthAdjust="spacing" textLength="11" x="1091.085" y="345.778">1</text><text fill="#000000" font-family="sans-serif" font-size="20" lengthAdjust="spacing" textLength="11" x="1295.0759" y="401.201">1</text></g><!--reverse link Announcement to Date--><g id="link_Announcement_Date"><path codeLine="100" d="M1094.81,249.46 C1155.06,218.45 1236.86,176.35 1289.42,149.3 " fill="none" id="Announcement-backto-Date" style="stroke:#4169E1;stroke-width:1.0;"/><polygon fill="#4169E1" points="1083.06,255.5,1090.2251,256.3135,1093.7318,250.0124,1086.5667,249.199,1083.06,255.5" style="stroke:#4169E1;stroke-width:1.0;"/><polygon fill="#000000" points="1133.1132,183.4172,1118.0935,185.8589,1122.3972,194.2209,1133.1132,183.4172" style="stroke:#000000;stroke-width:1.0;"/><text fill="#000000" font-family="sans-serif" font-size="20" lengthAdjust="spacing" textLength="48" x="1139" y="195.2617">has a</text><text fill="#000000" font-family="sans-serif" font-size="20" lengthAdjust="spacing" textLength="11" x="1090.9963" y="273.9016">1</text><text fill="#000000" font-family="sans-serif" font-size="20" lengthAdjust="spacing" textLength="11" x="1270.5483" y="175.3783">1</text></g><!--reverse link Property to Address--><g id="link_Property_Address"><path codeLine="103" d="M1474.03,361.79 C1534.41,395.22 1602.27,432.8 1645.99,457.02 " fill="none" id="Property-backto-Address" style="stroke:#4169E1;stroke-width:1.0;"/><polygon fill="#4169E1" points="1462.46,355.38,1465.7699,361.7866,1472.9567,361.1954,1469.6468,354.7888,1462.46,355.38" style="stroke:#4169E1;stroke-width:1.0;"/><polygon fill="#000000" points="1506.9985,363.9538,1496.6162,352.829,1492.06,361.0562,1506.9985,363.9538" style="stroke:#000000;stroke-width:1.0;"/><text fill="#000000" font-family="sans-serif" font-size="20" lengthAdjust="spacing" textLength="31" x="1513" y="368.2617">has</text></g><!--reverse link Property to Deal--><g id="link_Property_Deal"><path codeLine="104" d="M1475.6,309.21 C1532.35,317.68 1595.46,327.1 1638.81,333.56 " fill="none" id="Property-backto-Deal" style="stroke:#4169E1;stroke-width:1.0;"/><polygon fill="#4169E1" points="1462.46,307.25,1467.8055,312.09,1474.3292,309.0172,1468.9836,304.1772,1462.46,307.25" style="stroke:#4169E1;stroke-width:1.0;"/><polygon fill="#000000" points="1507.9124,299.2586,1494.2926,292.4723,1492.9048,301.7739,1507.9124,299.2586" style="stroke:#000000;stroke-width:1.0;"/><text fill="#000000" font-family="sans-serif" font-size="20" lengthAdjust="spacing" textLength="31" x="1513" y="306.2617">has</text><text fill="#000000" font-family="sans-serif" font-size="20" lengthAdjust="spacing" textLength="11" x="1470.1052" y="329.8665">1</text><text fill="#000000" font-family="sans-serif" font-size="20" lengthAdjust="spacing" textLength="11" x="1620.1622" y="354.896">1</text></g><!--link Person to Employee--><g id="link_Person_Employee"><path codeLine="108" d="M222.27,361.99 C287.06,370.78 369.5,381.96 434.58,390.79 " fill="none" id="Person-to-Employee" style="stroke:#4169E1;stroke-width:1.0;"/><polygon fill="#4169E1" points="447.78,392.58,442.3755,387.806,435.89,390.9586,441.2946,395.7326,447.78,392.58" style="stroke:#4169E1;stroke-width:1.0;"/><polygon fill="#000000" points="266.0726,352.0028,279.7813,358.6077,281.0455,349.2885,266.0726,352.0028" style="stroke:#000000;stroke-width:1.0;"/><text fill="#000000" font-family="sans-serif" font-size="20" lengthAdjust="spacing" textLength="31" x="287" y="361.2617">has</text></g><!--link Employee to Agent--><g id="link_Employee_Agent"><path codeLine="109" d="M640.29,407.06 C821.56,410.01 1207.49,416.31 1313.86,418.05 " fill="none" id="Employee-Agent" style="stroke:#4169E1;stroke-width:1.0;"/><polygon fill="#000000" points="853.9989,396.2086,839.6054,391.2709,839.452,400.6742,853.9989,396.2086" style="stroke:#000000;stroke-width:1.0;"/><text fill="#000000" font-family="sans-serif" font-size="20" lengthAdjust="spacing" textLength="59" x="859" y="404.2617">can be</text><text fill="#000000" font-family="sans-serif" font-size="20" lengthAdjust="spacing" textLength="11" x="648.0833" y="428.8922">1</text><text fill="#000000" font-family="sans-serif" font-size="20" lengthAdjust="spacing" textLength="11" x="1294.9651" y="441.5983">1</text></g><!--reverse link Deal to Sale--><g id="link_Deal_Sale"><path codeLine="113" d="M1752.4,336.94 C1799.52,333.26 1866.03,328.06 1916.45,324.13 " fill="none" id="Deal-backto-Sale" style="stroke:#4169E1;stroke-width:1.0;"/><polygon fill="#4169E1" points="1747.33,337.33,1756.6117,340.6239,1752.3151,336.9443,1755.9947,332.6477,1747.33,337.33" style="stroke:#4169E1;stroke-width:1.0;"/><text fill="#000000" font-family="sans-serif" font-size="20" lengthAdjust="spacing" textLength="11" x="1754.9957" y="359.149">1</text><text fill="#000000" font-family="sans-serif" font-size="20" lengthAdjust="spacing" textLength="34" x="1874.4299" y="346.4995">0..1</text></g><!--reverse link Deal to Rent--><g id="link_Deal_Rent"><path codeLine="114" d="M1752.26,359.9 C1795.54,373.57 1855.24,392.42 1903.79,407.75 " fill="none" id="Deal-backto-Rent" style="stroke:#4169E1;stroke-width:1.0;"/><polygon fill="#4169E1" points="1747.33,358.34,1754.6984,364.8751,1752.0958,359.8525,1757.1183,357.2499,1747.33,358.34" style="stroke:#4169E1;stroke-width:1.0;"/><text fill="#000000" font-family="sans-serif" font-size="20" lengthAdjust="spacing" textLength="11" x="1754.9957" y="382.8509">1</text><text fill="#000000" font-family="sans-serif" font-size="20" lengthAdjust="spacing" textLength="34" x="1861.9263" y="427.4087">0..1</text></g><!--reverse link Property to Land--><g id="link_Property_Land"><path codeLine="116" d="M1482.42,273.95 C1552.37,266.13 1630.26,257.41 1668.38,253.14 " fill="none" id="Property-backto-Land" style="stroke:#4169E1;stroke-width:1.0;"/><polygon fill="none" points="1483.11,280.92,1462.46,276.19,1481.56,267.01,1483.11,280.92" style="stroke:#4169E1;stroke-width:1.0;"/><text fill="#000000" font-family="sans-serif" font-size="20" lengthAdjust="spacing" textLength="31" x="1503" y="262.2617">is a</text></g><!--reverse link Property to Home--><g id="link_Property_Home"><path codeLine="117" d="M1480.57,223.42 C1511.72,208.41 1544.52,192.59 1574.76,178.02 " fill="none" id="Property-backto-Home" style="stroke:#4169E1;stroke-width:1.0;"/><polygon fill="none" points="1483.51,229.77,1462.46,232.15,1477.44,217.16,1483.51,229.77" style="stroke:#4169E1;stroke-width:1.0;"/><text fill="#000000" font-family="sans-serif" font-size="20" lengthAdjust="spacing" textLength="31" x="1503" y="189.2617">is a</text></g><!--reverse link Home to Apartment--><g id="link_Home_Apartment"><path codeLine="118" d="M1830.51,78.39 C1870.03,65.91 1910.58,53.11 1940.71,43.59 " fill="none" id="Home-backto-Apartment" style="stroke:#4169E1;stroke-width:1.0;"/><polygon fill="none" points="1832.42,85.13,1811.24,84.48,1828.2,71.78,1832.42,85.13" style="stroke:#4169E1;stroke-width:1.0;"/><text fill="#000000" font-family="sans-serif" font-size="20" lengthAdjust="spacing" textLength="31" x="1842" y="61.2617">is a</text></g><!--reverse link Home to House--><g id="link_Home_House"><path codeLine="119" d="M1831.36,132.23 C1859.19,134.4 1887.49,136.61 1912.27,138.55 " fill="none" id="Home-backto-House" style="stroke:#4169E1;stroke-width:1.0;"/><polygon fill="none" points="1830.63,139.19,1811.24,130.66,1831.72,125.23,1830.63,139.19" style="stroke:#4169E1;stroke-width:1.0;"/><text fill="#000000" font-family="sans-serif" font-size="20" lengthAdjust="spacing" textLength="31" x="1842" y="127.2617">is a</text></g><!--SRC=[TLJRJkCm47ttLrYyL48gOlTnXP1A2s8bj5HbzmEczZInwjZ1TXO2xB_lE8cTj9IynFOvdZcUczyhKuE3IbknHyabxg3HuSwQyAJUa7-_P3EVEBoonehIsGfvS0so4Qb1xA70fz1gv0v505FeAS6N8EsBCWNVWVOujQgLmT3MoAqBfMKQTu47ovqgoi2bYjQKDTCRGeFtYn2SsZO1VmfhEh6Nh5GIkL1EaEzkNI6Pb9xDvkcxKwJGaqxIaW_PaMt-pZXzD_Igmjd6oANLrl4rWYZNpMxNeGldx4iFR6mB-aPJIBfhrabqnyY_YGZwFXOYMES_vaSVwmMiqNbh1XrpRg32OLaJN5Eebk3ahwRQeXk00Ay7Uwn0wNIfj0OFq6ZcXOIIhjxZKYiquPtbWyVuYYJ0uNE3FgoT4fWPQsThTA5Df9Z5OGaEWGzhgJpLWy0xgfob2ksI_8mwIXlidyt3wFS-rbT-UAVvSRT5wQoj_F4nXFBK-HeSPRHuehhCYlvIE62hyVQvKNL56hB71p1oyl05LKAe3eDnRnkFITGMF7O6-gqo9MnLYBOVx2wT-iRSljRMDsuCsC8OgYQ1lV615o0WhJ9fXQ0JA6dzEqOrWK-Wiunw2FzXKZOJsucn6SLIimG78gmQ1rrVPMrIElH-kEg3Gmn31WKbZQVpgBPVlwbQM1az3oPkgrhR5iViqKWmebsXLuKvybOSndT5PjzpF0Dl4TnaIvCdb9EzXFQueOQFtcVwYU4_WupD-iPYGt-TVJlZytdtw-kV_-023DyYloPormASzRy9Tvf7kb62vq0NHjxvG8pFcX3OhFV21cV9vFbPtsr4hM2FlgDEdR03ZnCbgGKdJhwYTY5FF7EA-ANgx8NADAyZErNDmBuUqGDxLCMPGG-BGbXAmNn-FXPEJxfY-U24_foVK-cVb-Ye5GiyXP7lA8LrUiZaLRHyUN51ncDVyLD0rpev0EmYF_2AHZU_YAE3DAaOgKzWDybwaFMR_ZmFc5DWDsaIy1y0]--></g></svg>