<?xml version="1.0" encoding="UTF-8" standalone="no"?><svg xmlns="http://www.w3.org/2000/svg" xmlns:xlink="http://www.w3.org/1999/xlink" contentStyleType="text/css" height="1586px" preserveAspectRatio="none" style="width:2309px;height:1586px;background:#FFFFFF;" version="1.1" viewBox="0 0 2309 1586" width="2309px" zoomAndPan="magnify"><defs/><g><!--cluster ExternalLibraries.AuthLib-1.0--><g id="cluster_ExternalLibraries.AuthLib-1.0"><rect fill="none" height="988" rx="2.5" ry="2.5" style="stroke:#000000;stroke-width:1.5;" width="324" x="7" y="332"/><text fill="#000000" font-family="sans-serif" font-size="20" font-weight="bold" lengthAdjust="spacing" textLength="275" x="31.5" y="354.7617">ExternalLibraries.AuthLib-1.0</text></g><!--class UserStore--><g id="elem_UserStore"><rect codeLine="138" fill="#FFDAB9" height="51.1563" id="UserStore" rx="2.5" ry="2.5" style="stroke:#4169E1;stroke-width:0.5;" width="123" x="56.5" y="652"/><ellipse cx="72.5" cy="669.5781" fill="#ADD1B2" rx="12" ry="12" style="stroke:#181818;stroke-width:1.0;"/><path d="M74.6406,664.5 Q74.8281,664.25 75.0469,664.125 Q75.2656,663.9844 75.5156,663.9844 Q75.9531,663.9844 76.2344,664.2969 Q76.5156,664.5938 76.5156,665.3125 L76.5156,667.0156 Q76.5156,667.7344 76.2344,668.0469 Q75.9531,668.3594 75.5156,668.3594 Q75.125,668.3594 74.875,668.125 Q74.625,667.9063 74.5156,667.2969 Q74.4531,666.875 74.2344,666.6563 Q73.8438,666.2188 73.125,665.9531 Q72.4063,665.6875 71.6875,665.6875 Q70.7813,665.6875 70.0313,666.0781 Q69.2813,666.4688 68.7031,667.3594 Q68.125,668.2344 68.125,669.4375 L68.125,670.7344 Q68.125,672.1875 69.1719,673.1563 Q70.2344,674.125 72.0938,674.125 Q73.2031,674.125 73.9844,673.8125 Q74.4219,673.6406 74.9375,673.125 Q75.25,672.8125 75.4219,672.7188 Q75.5938,672.625 75.8281,672.625 Q76.2188,672.625 76.5156,672.9375 Q76.8281,673.2344 76.8281,673.6406 Q76.8281,674.0469 76.4219,674.5156 Q75.8281,675.2031 74.8906,675.5938 Q73.625,676.125 72.1094,676.125 Q70.3281,676.125 68.9063,675.3906 Q67.75,674.7969 66.9375,673.5313 Q66.125,672.2656 66.125,670.7813 L66.125,669.4219 Q66.125,667.8594 66.8438,666.5156 Q67.5781,665.1563 68.8594,664.4219 Q70.1563,663.6875 71.6094,663.6875 Q72.4688,663.6875 73.2188,663.8906 Q73.9844,664.0938 74.6406,664.5 Z " fill="#000000"/><text fill="#000000" font-family="sans-serif" font-size="20" lengthAdjust="spacing" textLength="89" x="87.5" y="677.7617">UserStore</text><line style="stroke:#4169E1;stroke-width:0.5;" x1="57.5" x2="178.5" y1="687.1563" y2="687.1563"/><line style="stroke:#4169E1;stroke-width:0.5;" x1="57.5" x2="178.5" y1="695.1563" y2="695.1563"/></g><!--class Store--><g id="elem_Store"><rect codeLine="141" fill="#FFDAB9" height="151.7813" id="Store" rx="2.5" ry="2.5" style="stroke:#4169E1;stroke-width:0.5;" width="190" x="23" y="376"/><ellipse cx="89.5" cy="393.5781" fill="#ADD1B2" rx="12" ry="12" style="stroke:#181818;stroke-width:1.0;"/><path d="M91.6406,388.5 Q91.8281,388.25 92.0469,388.125 Q92.2656,387.9844 92.5156,387.9844 Q92.9531,387.9844 93.2344,388.2969 Q93.5156,388.5938 93.5156,389.3125 L93.5156,391.0156 Q93.5156,391.7344 93.2344,392.0469 Q92.9531,392.3594 92.5156,392.3594 Q92.125,392.3594 91.875,392.125 Q91.625,391.9063 91.5156,391.2969 Q91.4531,390.875 91.2344,390.6563 Q90.8438,390.2188 90.125,389.9531 Q89.4063,389.6875 88.6875,389.6875 Q87.7813,389.6875 87.0313,390.0781 Q86.2813,390.4688 85.7031,391.3594 Q85.125,392.2344 85.125,393.4375 L85.125,394.7344 Q85.125,396.1875 86.1719,397.1563 Q87.2344,398.125 89.0938,398.125 Q90.2031,398.125 90.9844,397.8125 Q91.4219,397.6406 91.9375,397.125 Q92.25,396.8125 92.4219,396.7188 Q92.5938,396.625 92.8281,396.625 Q93.2188,396.625 93.5156,396.9375 Q93.8281,397.2344 93.8281,397.6406 Q93.8281,398.0469 93.4219,398.5156 Q92.8281,399.2031 91.8906,399.5938 Q90.625,400.125 89.1094,400.125 Q87.3281,400.125 85.9063,399.3906 Q84.75,398.7969 83.9375,397.5313 Q83.125,396.2656 83.125,394.7813 L83.125,393.4219 Q83.125,391.8594 83.8438,390.5156 Q84.5781,389.1563 85.8594,388.4219 Q87.1563,387.6875 88.6094,387.6875 Q89.4688,387.6875 90.2188,387.8906 Q90.9844,388.0938 91.6406,388.5 Z " fill="#000000"/><text fill="#000000" font-family="sans-serif" font-size="20" lengthAdjust="spacing" textLength="48" x="111.5" y="401.7617">Store</text><line style="stroke:#4169E1;stroke-width:0.5;" x1="24" x2="212" y1="411.1563" y2="411.1563"/><line style="stroke:#4169E1;stroke-width:0.5;" x1="24" x2="212" y1="419.1563" y2="419.1563"/><text fill="#000000" font-family="sans-serif" font-size="20" lengthAdjust="spacing" textLength="79" x="29" y="443.918">-Stores()</text><text fill="#000000" font-family="sans-serif" font-size="20" lengthAdjust="spacing" textLength="123" x="29" y="469.0742">-getInstance()</text><text fill="#000000" font-family="sans-serif" font-size="20" lengthAdjust="spacing" textLength="138" x="29" y="494.2305">-getUserStore()</text><text fill="#000000" font-family="sans-serif" font-size="20" lengthAdjust="spacing" textLength="178" x="29" y="519.3867">-getUserRoelStore()</text></g><!--class User--><g id="elem_User"><rect codeLine="147" fill="#FFDAB9" height="151.7813" id="User" rx="2.5" ry="2.5" style="stroke:#4169E1;stroke-width:0.5;" width="184" x="26" y="914.5"/><ellipse cx="93" cy="932.0781" fill="#ADD1B2" rx="12" ry="12" style="stroke:#181818;stroke-width:1.0;"/><path d="M95.1406,927 Q95.3281,926.75 95.5469,926.625 Q95.7656,926.4844 96.0156,926.4844 Q96.4531,926.4844 96.7344,926.7969 Q97.0156,927.0938 97.0156,927.8125 L97.0156,929.5156 Q97.0156,930.2344 96.7344,930.5469 Q96.4531,930.8594 96.0156,930.8594 Q95.625,930.8594 95.375,930.625 Q95.125,930.4063 95.0156,929.7969 Q94.9531,929.375 94.7344,929.1563 Q94.3438,928.7188 93.625,928.4531 Q92.9063,928.1875 92.1875,928.1875 Q91.2813,928.1875 90.5313,928.5781 Q89.7813,928.9688 89.2031,929.8594 Q88.625,930.7344 88.625,931.9375 L88.625,933.2344 Q88.625,934.6875 89.6719,935.6563 Q90.7344,936.625 92.5938,936.625 Q93.7031,936.625 94.4844,936.3125 Q94.9219,936.1406 95.4375,935.625 Q95.75,935.3125 95.9219,935.2188 Q96.0938,935.125 96.3281,935.125 Q96.7188,935.125 97.0156,935.4375 Q97.3281,935.7344 97.3281,936.1406 Q97.3281,936.5469 96.9219,937.0156 Q96.3281,937.7031 95.3906,938.0938 Q94.125,938.625 92.6094,938.625 Q90.8281,938.625 89.4063,937.8906 Q88.25,937.2969 87.4375,936.0313 Q86.625,934.7656 86.625,933.2813 L86.625,931.9219 Q86.625,930.3594 87.3438,929.0156 Q88.0781,927.6563 89.3594,926.9219 Q90.6563,926.1875 92.1094,926.1875 Q92.9688,926.1875 93.7188,926.3906 Q94.4844,926.5938 95.1406,927 Z " fill="#000000"/><text fill="#000000" font-family="sans-serif" font-size="20" lengthAdjust="spacing" textLength="41" x="115" y="940.2617">User</text><line style="stroke:#4169E1;stroke-width:0.5;" x1="27" x2="209" y1="949.6563" y2="949.6563"/><text fill="#000000" font-family="sans-serif" font-size="20" lengthAdjust="spacing" textLength="53" x="32" y="974.418">-email</text><text fill="#000000" font-family="sans-serif" font-size="20" lengthAdjust="spacing" textLength="93" x="32" y="999.5742">-password</text><text fill="#000000" font-family="sans-serif" font-size="20" lengthAdjust="spacing" textLength="55" x="32" y="1024.7305">-name</text><text fill="#000000" font-family="sans-serif" font-size="20" lengthAdjust="spacing" textLength="172" x="32" y="1049.8867">-UserRole userRole</text><line style="stroke:#4169E1;stroke-width:0.5;" x1="27" x2="209" y1="1058.2813" y2="1058.2813"/></g><!--class UserRoleStore--><g id="elem_UserRoleStore"><rect codeLine="153" fill="#FFDAB9" height="51.1563" id="UserRoleStore" rx="2.5" ry="2.5" style="stroke:#4169E1;stroke-width:0.5;" width="163" x="146.5" y="796"/><ellipse cx="162.5" cy="813.5781" fill="#ADD1B2" rx="12" ry="12" style="stroke:#181818;stroke-width:1.0;"/><path d="M164.6406,808.5 Q164.8281,808.25 165.0469,808.125 Q165.2656,807.9844 165.5156,807.9844 Q165.9531,807.9844 166.2344,808.2969 Q166.5156,808.5938 166.5156,809.3125 L166.5156,811.0156 Q166.5156,811.7344 166.2344,812.0469 Q165.9531,812.3594 165.5156,812.3594 Q165.125,812.3594 164.875,812.125 Q164.625,811.9063 164.5156,811.2969 Q164.4531,810.875 164.2344,810.6563 Q163.8438,810.2188 163.125,809.9531 Q162.4063,809.6875 161.6875,809.6875 Q160.7813,809.6875 160.0313,810.0781 Q159.2813,810.4688 158.7031,811.3594 Q158.125,812.2344 158.125,813.4375 L158.125,814.7344 Q158.125,816.1875 159.1719,817.1563 Q160.2344,818.125 162.0938,818.125 Q163.2031,818.125 163.9844,817.8125 Q164.4219,817.6406 164.9375,817.125 Q165.25,816.8125 165.4219,816.7188 Q165.5938,816.625 165.8281,816.625 Q166.2188,816.625 166.5156,816.9375 Q166.8281,817.2344 166.8281,817.6406 Q166.8281,818.0469 166.4219,818.5156 Q165.8281,819.2031 164.8906,819.5938 Q163.625,820.125 162.1094,820.125 Q160.3281,820.125 158.9063,819.3906 Q157.75,818.7969 156.9375,817.5313 Q156.125,816.2656 156.125,814.7813 L156.125,813.4219 Q156.125,811.8594 156.8438,810.5156 Q157.5781,809.1563 158.8594,808.4219 Q160.1563,807.6875 161.6094,807.6875 Q162.4688,807.6875 163.2188,807.8906 Q163.9844,808.0938 164.6406,808.5 Z " fill="#000000"/><text fill="#000000" font-family="sans-serif" font-size="20" lengthAdjust="spacing" textLength="129" x="177.5" y="821.7617">UserRoleStore</text><line style="stroke:#4169E1;stroke-width:0.5;" x1="147.5" x2="308.5" y1="831.1563" y2="831.1563"/><line style="stroke:#4169E1;stroke-width:0.5;" x1="147.5" x2="308.5" y1="839.1563" y2="839.1563"/></g><!--class UserRole--><g id="elem_UserRole"><rect codeLine="156" fill="#FFDAB9" height="101.4688" id="UserRole" rx="2.5" ry="2.5" style="stroke:#4169E1;stroke-width:0.5;" width="115" x="124.5" y="1203"/><ellipse cx="140.5" cy="1220.5781" fill="#ADD1B2" rx="12" ry="12" style="stroke:#181818;stroke-width:1.0;"/><path d="M142.6406,1215.5 Q142.8281,1215.25 143.0469,1215.125 Q143.2656,1214.9844 143.5156,1214.9844 Q143.9531,1214.9844 144.2344,1215.2969 Q144.5156,1215.5938 144.5156,1216.3125 L144.5156,1218.0156 Q144.5156,1218.7344 144.2344,1219.0469 Q143.9531,1219.3594 143.5156,1219.3594 Q143.125,1219.3594 142.875,1219.125 Q142.625,1218.9063 142.5156,1218.2969 Q142.4531,1217.875 142.2344,1217.6563 Q141.8438,1217.2188 141.125,1216.9531 Q140.4063,1216.6875 139.6875,1216.6875 Q138.7813,1216.6875 138.0313,1217.0781 Q137.2813,1217.4688 136.7031,1218.3594 Q136.125,1219.2344 136.125,1220.4375 L136.125,1221.7344 Q136.125,1223.1875 137.1719,1224.1563 Q138.2344,1225.125 140.0938,1225.125 Q141.2031,1225.125 141.9844,1224.8125 Q142.4219,1224.6406 142.9375,1224.125 Q143.25,1223.8125 143.4219,1223.7188 Q143.5938,1223.625 143.8281,1223.625 Q144.2188,1223.625 144.5156,1223.9375 Q144.8281,1224.2344 144.8281,1224.6406 Q144.8281,1225.0469 144.4219,1225.5156 Q143.8281,1226.2031 142.8906,1226.5938 Q141.625,1227.125 140.1094,1227.125 Q138.3281,1227.125 136.9063,1226.3906 Q135.75,1225.7969 134.9375,1224.5313 Q134.125,1223.2656 134.125,1221.7813 L134.125,1220.4219 Q134.125,1218.8594 134.8438,1217.5156 Q135.5781,1216.1563 136.8594,1215.4219 Q138.1563,1214.6875 139.6094,1214.6875 Q140.4688,1214.6875 141.2188,1214.8906 Q141.9844,1215.0938 142.6406,1215.5 Z " fill="#000000"/><text fill="#000000" font-family="sans-serif" font-size="20" lengthAdjust="spacing" textLength="81" x="155.5" y="1228.7617">UserRole</text><line style="stroke:#4169E1;stroke-width:0.5;" x1="125.5" x2="238.5" y1="1238.1563" y2="1238.1563"/><text fill="#000000" font-family="sans-serif" font-size="20" lengthAdjust="spacing" textLength="22" x="130.5" y="1262.918">-id</text><text fill="#000000" font-family="sans-serif" font-size="20" lengthAdjust="spacing" textLength="102" x="130.5" y="1288.0742">-description</text><line style="stroke:#4169E1;stroke-width:0.5;" x1="125.5" x2="238.5" y1="1296.4688" y2="1296.4688"/></g><!--class Repositories--><g id="elem_Repositories"><rect codeLine="16" fill="#FFDAB9" height="277.5625" id="Repositories" rx="2.5" ry="2.5" style="stroke:#4169E1;stroke-width:0.5;" width="289" x="929.5" y="7"/><ellipse cx="1014.5" cy="24.5781" fill="#ADD1B2" rx="12" ry="12" style="stroke:#181818;stroke-width:1.0;"/><path d="M1016.6406,19.5 Q1016.8281,19.25 1017.0469,19.125 Q1017.2656,18.9844 1017.5156,18.9844 Q1017.9531,18.9844 1018.2344,19.2969 Q1018.5156,19.5938 1018.5156,20.3125 L1018.5156,22.0156 Q1018.5156,22.7344 1018.2344,23.0469 Q1017.9531,23.3594 1017.5156,23.3594 Q1017.125,23.3594 1016.875,23.125 Q1016.625,22.9063 1016.5156,22.2969 Q1016.4531,21.875 1016.2344,21.6563 Q1015.8438,21.2188 1015.125,20.9531 Q1014.4063,20.6875 1013.6875,20.6875 Q1012.7813,20.6875 1012.0313,21.0781 Q1011.2813,21.4688 1010.7031,22.3594 Q1010.125,23.2344 1010.125,24.4375 L1010.125,25.7344 Q1010.125,27.1875 1011.1719,28.1563 Q1012.2344,29.125 1014.0938,29.125 Q1015.2031,29.125 1015.9844,28.8125 Q1016.4219,28.6406 1016.9375,28.125 Q1017.25,27.8125 1017.4219,27.7188 Q1017.5938,27.625 1017.8281,27.625 Q1018.2188,27.625 1018.5156,27.9375 Q1018.8281,28.2344 1018.8281,28.6406 Q1018.8281,29.0469 1018.4219,29.5156 Q1017.8281,30.2031 1016.8906,30.5938 Q1015.625,31.125 1014.1094,31.125 Q1012.3281,31.125 1010.9063,30.3906 Q1009.75,29.7969 1008.9375,28.5313 Q1008.125,27.2656 1008.125,25.7813 L1008.125,24.4219 Q1008.125,22.8594 1008.8438,21.5156 Q1009.5781,20.1563 1010.8594,19.4219 Q1012.1563,18.6875 1013.6094,18.6875 Q1014.4688,18.6875 1015.2188,18.8906 Q1015.9844,19.0938 1016.6406,19.5 Z " fill="#000000"/><text fill="#000000" font-family="sans-serif" font-size="20" lengthAdjust="spacing" textLength="110" x="1036.5" y="32.7617">Repositories</text><line style="stroke:#4169E1;stroke-width:0.5;" x1="930.5" x2="1217.5" y1="42.1563" y2="42.1563"/><line style="stroke:#4169E1;stroke-width:0.5;" x1="930.5" x2="1217.5" y1="50.1563" y2="50.1563"/><text fill="#000000" font-family="sans-serif" font-size="20" lengthAdjust="spacing" textLength="131" x="935.5" y="74.918">-Repositories()</text><text fill="#000000" font-family="sans-serif" font-size="20" lengthAdjust="spacing" textLength="256" x="935.5" y="100.0742">+getInstance() : Repositories</text><text fill="#000000" font-family="sans-serif" font-size="20" lengthAdjust="spacing" textLength="214" x="935.5" y="125.2305">+getAgencyRepository()</text><text fill="#000000" font-family="sans-serif" font-size="20" lengthAdjust="spacing" textLength="211" x="935.5" y="150.3867">+getPersonRepository()</text><text fill="#000000" font-family="sans-serif" font-size="20" lengthAdjust="spacing" textLength="277" x="935.5" y="175.543">+getAnnouncementRepository()</text><text fill="#000000" font-family="sans-serif" font-size="20" lengthAdjust="spacing" textLength="271" x="935.5" y="200.6992">+getAuthenticationRepository()</text><text fill="#000000" font-family="sans-serif" font-size="20" lengthAdjust="spacing" textLength="197" x="935.5" y="225.8555">+getEmailRepository()</text><text fill="#000000" font-family="sans-serif" font-size="20" lengthAdjust="spacing" textLength="222" x="935.5" y="251.0117">+getRequestRepository()</text><text fill="#000000" font-family="sans-serif" font-size="20" lengthAdjust="spacing" textLength="186" x="935.5" y="276.168">+getVisitRepository()</text></g><!--class Orders--><g id="elem_Orders"><rect codeLine="27" fill="#FFDAB9" height="76.3125" id="Orders" rx="2.5" ry="2.5" style="stroke:#4169E1;stroke-width:0.5;" width="243" x="1750.5" y="952.5"/><ellipse cx="1836.5" cy="970.0781" fill="#ADD1B2" rx="12" ry="12" style="stroke:#181818;stroke-width:1.0;"/><path d="M1838.6406,965 Q1838.8281,964.75 1839.0469,964.625 Q1839.2656,964.4844 1839.5156,964.4844 Q1839.9531,964.4844 1840.2344,964.7969 Q1840.5156,965.0938 1840.5156,965.8125 L1840.5156,967.5156 Q1840.5156,968.2344 1840.2344,968.5469 Q1839.9531,968.8594 1839.5156,968.8594 Q1839.125,968.8594 1838.875,968.625 Q1838.625,968.4063 1838.5156,967.7969 Q1838.4531,967.375 1838.2344,967.1563 Q1837.8438,966.7188 1837.125,966.4531 Q1836.4063,966.1875 1835.6875,966.1875 Q1834.7813,966.1875 1834.0313,966.5781 Q1833.2813,966.9688 1832.7031,967.8594 Q1832.125,968.7344 1832.125,969.9375 L1832.125,971.2344 Q1832.125,972.6875 1833.1719,973.6563 Q1834.2344,974.625 1836.0938,974.625 Q1837.2031,974.625 1837.9844,974.3125 Q1838.4219,974.1406 1838.9375,973.625 Q1839.25,973.3125 1839.4219,973.2188 Q1839.5938,973.125 1839.8281,973.125 Q1840.2188,973.125 1840.5156,973.4375 Q1840.8281,973.7344 1840.8281,974.1406 Q1840.8281,974.5469 1840.4219,975.0156 Q1839.8281,975.7031 1838.8906,976.0938 Q1837.625,976.625 1836.1094,976.625 Q1834.3281,976.625 1832.9063,975.8906 Q1831.75,975.2969 1830.9375,974.0313 Q1830.125,972.7656 1830.125,971.2813 L1830.125,969.9219 Q1830.125,968.3594 1830.8438,967.0156 Q1831.5781,965.6563 1832.8594,964.9219 Q1834.1563,964.1875 1835.6094,964.1875 Q1836.4688,964.1875 1837.2188,964.3906 Q1837.9844,964.5938 1838.6406,965 Z " fill="#000000"/><text fill="#000000" font-family="sans-serif" font-size="20" lengthAdjust="spacing" textLength="62" x="1858.5" y="978.2617">Orders</text><line style="stroke:#4169E1;stroke-width:0.5;" x1="1751.5" x2="1992.5" y1="987.6563" y2="987.6563"/><text fill="#000000" font-family="sans-serif" font-size="20" lengthAdjust="spacing" textLength="231" x="1756.5" y="1012.418">-ArrayList &lt;Order&gt; orders</text><line style="stroke:#4169E1;stroke-width:0.5;" x1="1751.5" x2="1992.5" y1="1020.8125" y2="1020.8125"/></g><!--class Order--><g id="elem_Order"><rect codeLine="30" fill="#FFDAB9" height="101.4688" id="Order" rx="2.5" ry="2.5" style="stroke:#4169E1;stroke-width:0.5;" width="126" x="1853" y="1203"/><ellipse cx="1887" cy="1220.5781" fill="#ADD1B2" rx="12" ry="12" style="stroke:#181818;stroke-width:1.0;"/><path d="M1889.1406,1215.5 Q1889.3281,1215.25 1889.5469,1215.125 Q1889.7656,1214.9844 1890.0156,1214.9844 Q1890.4531,1214.9844 1890.7344,1215.2969 Q1891.0156,1215.5938 1891.0156,1216.3125 L1891.0156,1218.0156 Q1891.0156,1218.7344 1890.7344,1219.0469 Q1890.4531,1219.3594 1890.0156,1219.3594 Q1889.625,1219.3594 1889.375,1219.125 Q1889.125,1218.9063 1889.0156,1218.2969 Q1888.9531,1217.875 1888.7344,1217.6563 Q1888.3438,1217.2188 1887.625,1216.9531 Q1886.9063,1216.6875 1886.1875,1216.6875 Q1885.2813,1216.6875 1884.5313,1217.0781 Q1883.7813,1217.4688 1883.2031,1218.3594 Q1882.625,1219.2344 1882.625,1220.4375 L1882.625,1221.7344 Q1882.625,1223.1875 1883.6719,1224.1563 Q1884.7344,1225.125 1886.5938,1225.125 Q1887.7031,1225.125 1888.4844,1224.8125 Q1888.9219,1224.6406 1889.4375,1224.125 Q1889.75,1223.8125 1889.9219,1223.7188 Q1890.0938,1223.625 1890.3281,1223.625 Q1890.7188,1223.625 1891.0156,1223.9375 Q1891.3281,1224.2344 1891.3281,1224.6406 Q1891.3281,1225.0469 1890.9219,1225.5156 Q1890.3281,1226.2031 1889.3906,1226.5938 Q1888.125,1227.125 1886.6094,1227.125 Q1884.8281,1227.125 1883.4063,1226.3906 Q1882.25,1225.7969 1881.4375,1224.5313 Q1880.625,1223.2656 1880.625,1221.7813 L1880.625,1220.4219 Q1880.625,1218.8594 1881.3438,1217.5156 Q1882.0781,1216.1563 1883.3594,1215.4219 Q1884.6563,1214.6875 1886.1094,1214.6875 Q1886.9688,1214.6875 1887.7188,1214.8906 Q1888.4844,1215.0938 1889.1406,1215.5 Z " fill="#000000"/><text fill="#000000" font-family="sans-serif" font-size="20" lengthAdjust="spacing" textLength="52" x="1906" y="1228.7617">Order</text><line style="stroke:#4169E1;stroke-width:0.5;" x1="1854" x2="1978" y1="1238.1563" y2="1238.1563"/><text fill="#000000" font-family="sans-serif" font-size="20" lengthAdjust="spacing" textLength="94" x="1859" y="1262.918">-Date date</text><text fill="#000000" font-family="sans-serif" font-size="20" lengthAdjust="spacing" textLength="114" x="1859" y="1288.0742">-double price</text><line style="stroke:#4169E1;stroke-width:0.5;" x1="1854" x2="1978" y1="1296.4688" y2="1296.4688"/></g><!--class AgencyRepository--><g id="elem_AgencyRepository"><rect codeLine="35" fill="#FFDAB9" height="51.1563" id="AgencyRepository" rx="2.5" ry="2.5" style="stroke:#4169E1;stroke-width:0.5;" width="194" x="814" y="426.5"/><ellipse cx="830" cy="444.0781" fill="#ADD1B2" rx="12" ry="12" style="stroke:#181818;stroke-width:1.0;"/><path d="M832.1406,439 Q832.3281,438.75 832.5469,438.625 Q832.7656,438.4844 833.0156,438.4844 Q833.4531,438.4844 833.7344,438.7969 Q834.0156,439.0938 834.0156,439.8125 L834.0156,441.5156 Q834.0156,442.2344 833.7344,442.5469 Q833.4531,442.8594 833.0156,442.8594 Q832.625,442.8594 832.375,442.625 Q832.125,442.4063 832.0156,441.7969 Q831.9531,441.375 831.7344,441.1563 Q831.3438,440.7188 830.625,440.4531 Q829.9063,440.1875 829.1875,440.1875 Q828.2813,440.1875 827.5313,440.5781 Q826.7813,440.9688 826.2031,441.8594 Q825.625,442.7344 825.625,443.9375 L825.625,445.2344 Q825.625,446.6875 826.6719,447.6563 Q827.7344,448.625 829.5938,448.625 Q830.7031,448.625 831.4844,448.3125 Q831.9219,448.1406 832.4375,447.625 Q832.75,447.3125 832.9219,447.2188 Q833.0938,447.125 833.3281,447.125 Q833.7188,447.125 834.0156,447.4375 Q834.3281,447.7344 834.3281,448.1406 Q834.3281,448.5469 833.9219,449.0156 Q833.3281,449.7031 832.3906,450.0938 Q831.125,450.625 829.6094,450.625 Q827.8281,450.625 826.4063,449.8906 Q825.25,449.2969 824.4375,448.0313 Q823.625,446.7656 823.625,445.2813 L823.625,443.9219 Q823.625,442.3594 824.3438,441.0156 Q825.0781,439.6563 826.3594,438.9219 Q827.6563,438.1875 829.1094,438.1875 Q829.9688,438.1875 830.7188,438.3906 Q831.4844,438.5938 832.1406,439 Z " fill="#000000"/><text fill="#000000" font-family="sans-serif" font-size="20" lengthAdjust="spacing" textLength="160" x="845" y="452.2617">AgencyRepository</text><line style="stroke:#4169E1;stroke-width:0.5;" x1="815" x2="1007" y1="461.6563" y2="461.6563"/><line style="stroke:#4169E1;stroke-width:0.5;" x1="815" x2="1007" y1="469.6563" y2="469.6563"/></g><!--class Agency--><g id="elem_Agency"><rect codeLine="38" fill="#FFDAB9" height="176.9375" id="Agency" rx="2.5" ry="2.5" style="stroke:#4169E1;stroke-width:0.5;" width="195" x="592.5" y="1165"/><ellipse cx="653" cy="1182.5781" fill="#ADD1B2" rx="12" ry="12" style="stroke:#181818;stroke-width:1.0;"/><path d="M655.1406,1177.5 Q655.3281,1177.25 655.5469,1177.125 Q655.7656,1176.9844 656.0156,1176.9844 Q656.4531,1176.9844 656.7344,1177.2969 Q657.0156,1177.5938 657.0156,1178.3125 L657.0156,1180.0156 Q657.0156,1180.7344 656.7344,1181.0469 Q656.4531,1181.3594 656.0156,1181.3594 Q655.625,1181.3594 655.375,1181.125 Q655.125,1180.9063 655.0156,1180.2969 Q654.9531,1179.875 654.7344,1179.6563 Q654.3438,1179.2188 653.625,1178.9531 Q652.9063,1178.6875 652.1875,1178.6875 Q651.2813,1178.6875 650.5313,1179.0781 Q649.7813,1179.4688 649.2031,1180.3594 Q648.625,1181.2344 648.625,1182.4375 L648.625,1183.7344 Q648.625,1185.1875 649.6719,1186.1563 Q650.7344,1187.125 652.5938,1187.125 Q653.7031,1187.125 654.4844,1186.8125 Q654.9219,1186.6406 655.4375,1186.125 Q655.75,1185.8125 655.9219,1185.7188 Q656.0938,1185.625 656.3281,1185.625 Q656.7188,1185.625 657.0156,1185.9375 Q657.3281,1186.2344 657.3281,1186.6406 Q657.3281,1187.0469 656.9219,1187.5156 Q656.3281,1188.2031 655.3906,1188.5938 Q654.125,1189.125 652.6094,1189.125 Q650.8281,1189.125 649.4063,1188.3906 Q648.25,1187.7969 647.4375,1186.5313 Q646.625,1185.2656 646.625,1183.7813 L646.625,1182.4219 Q646.625,1180.8594 647.3438,1179.5156 Q648.0781,1178.1563 649.3594,1177.4219 Q650.6563,1176.6875 652.1094,1176.6875 Q652.9688,1176.6875 653.7188,1176.8906 Q654.4844,1177.0938 655.1406,1177.5 Z " fill="#000000"/><text fill="#000000" font-family="sans-serif" font-size="20" lengthAdjust="spacing" textLength="65" x="675" y="1190.7617">Agency</text><line style="stroke:#4169E1;stroke-width:0.5;" x1="593.5" x2="786.5" y1="1200.1563" y2="1200.1563"/><text fill="#000000" font-family="sans-serif" font-size="20" lengthAdjust="spacing" textLength="79" x="598.5" y="1224.918">-String id</text><text fill="#000000" font-family="sans-serif" font-size="20" lengthAdjust="spacing" textLength="163" x="598.5" y="1250.0742">-String designation</text><text fill="#000000" font-family="sans-serif" font-size="20" lengthAdjust="spacing" textLength="154" x="598.5" y="1275.2305">-int phoneNumber</text><text fill="#000000" font-family="sans-serif" font-size="20" lengthAdjust="spacing" textLength="183" x="598.5" y="1300.3867">-String emailAddress</text><text fill="#000000" font-family="sans-serif" font-size="20" lengthAdjust="spacing" textLength="157" x="598.5" y="1325.543">-Address address</text><line style="stroke:#4169E1;stroke-width:0.5;" x1="593.5" x2="786.5" y1="1333.9375" y2="1333.9375"/></g><!--class Request--><g id="elem_Request"><rect codeLine="45" fill="#FFDAB9" height="151.7813" id="Request" rx="2.5" ry="2.5" style="stroke:#4169E1;stroke-width:0.5;" width="197" x="549.5" y="601.5"/><ellipse cx="607" cy="619.0781" fill="#ADD1B2" rx="12" ry="12" style="stroke:#181818;stroke-width:1.0;"/><path d="M609.1406,614 Q609.3281,613.75 609.5469,613.625 Q609.7656,613.4844 610.0156,613.4844 Q610.4531,613.4844 610.7344,613.7969 Q611.0156,614.0938 611.0156,614.8125 L611.0156,616.5156 Q611.0156,617.2344 610.7344,617.5469 Q610.4531,617.8594 610.0156,617.8594 Q609.625,617.8594 609.375,617.625 Q609.125,617.4063 609.0156,616.7969 Q608.9531,616.375 608.7344,616.1563 Q608.3438,615.7188 607.625,615.4531 Q606.9063,615.1875 606.1875,615.1875 Q605.2813,615.1875 604.5313,615.5781 Q603.7813,615.9688 603.2031,616.8594 Q602.625,617.7344 602.625,618.9375 L602.625,620.2344 Q602.625,621.6875 603.6719,622.6563 Q604.7344,623.625 606.5938,623.625 Q607.7031,623.625 608.4844,623.3125 Q608.9219,623.1406 609.4375,622.625 Q609.75,622.3125 609.9219,622.2188 Q610.0938,622.125 610.3281,622.125 Q610.7188,622.125 611.0156,622.4375 Q611.3281,622.7344 611.3281,623.1406 Q611.3281,623.5469 610.9219,624.0156 Q610.3281,624.7031 609.3906,625.0938 Q608.125,625.625 606.6094,625.625 Q604.8281,625.625 603.4063,624.8906 Q602.25,624.2969 601.4375,623.0313 Q600.625,621.7656 600.625,620.2813 L600.625,618.9219 Q600.625,617.3594 601.3438,616.0156 Q602.0781,614.6563 603.3594,613.9219 Q604.6563,613.1875 606.1094,613.1875 Q606.9688,613.1875 607.7188,613.3906 Q608.4844,613.5938 609.1406,614 Z " fill="#000000"/><text fill="#000000" font-family="sans-serif" font-size="20" lengthAdjust="spacing" textLength="73" x="629" y="627.2617">Request</text><line style="stroke:#4169E1;stroke-width:0.5;" x1="550.5" x2="745.5" y1="636.6563" y2="636.6563"/><text fill="#000000" font-family="sans-serif" font-size="20" lengthAdjust="spacing" textLength="163" x="555.5" y="661.418">-Property property</text><text fill="#000000" font-family="sans-serif" font-size="20" lengthAdjust="spacing" textLength="185" x="555.5" y="686.5742">-Employee employee</text><text fill="#000000" font-family="sans-serif" font-size="20" lengthAdjust="spacing" textLength="137" x="555.5" y="711.7305">-Person Person</text><text fill="#000000" font-family="sans-serif" font-size="20" lengthAdjust="spacing" textLength="94" x="555.5" y="736.8867">-Date date</text><line style="stroke:#4169E1;stroke-width:0.5;" x1="550.5" x2="745.5" y1="745.2813" y2="745.2813"/></g><!--class Property--><g id="elem_Property"><rect codeLine="52" fill="#FFDAB9" height="227.25" id="Property" rx="2.5" ry="2.5" style="stroke:#4169E1;stroke-width:0.5;" width="358" x="892" y="877"/><ellipse cx="1029" cy="894.5781" fill="#A9DCDF" rx="12" ry="12" style="stroke:#181818;stroke-width:1.0;"/><path d="M1031.4531,896.6094 L1026.5781,896.6094 L1026.0938,897.8281 L1026.5781,897.8281 Q1027.3125,897.8281 1027.6094,898.1094 Q1027.9219,898.375 1027.9219,898.8281 Q1027.9219,899.2656 1027.6094,899.5469 Q1027.3125,899.8281 1026.5781,899.8281 L1023.8906,899.8281 Q1023.1719,899.8281 1022.8594,899.5469 Q1022.5469,899.2656 1022.5469,898.8281 Q1022.5469,898.375 1022.875,898.0938 Q1023.2031,897.8125 1023.9375,897.8281 L1027.0781,890 L1025.7813,890 Q1025.0469,890 1024.7344,889.7188 Q1024.4375,889.4375 1024.4375,888.9844 Q1024.4375,888.5313 1024.7344,888.2656 Q1025.0469,887.9844 1025.7813,887.9844 L1030.0938,887.9844 L1034.0781,897.8281 Q1034.7813,897.8281 1035.0156,897.9844 Q1035.4688,898.2969 1035.4688,898.8281 Q1035.4688,899.2656 1035.1563,899.5469 Q1034.8594,899.8281 1034.1406,899.8281 L1031.4375,899.8281 Q1030.7188,899.8281 1030.4063,899.5469 Q1030.0938,899.2656 1030.0938,898.8281 Q1030.0938,898.375 1030.4063,898.1094 Q1030.7188,897.8281 1031.4375,897.8281 L1031.9219,897.8281 L1031.4531,896.6094 Z M1030.625,894.6094 L1029,890.6406 L1027.3906,894.6094 L1030.625,894.6094 Z " fill="#000000"/><text fill="#000000" font-family="sans-serif" font-size="20" font-style="italic" lengthAdjust="spacing" textLength="75" x="1051" y="902.7617">Property</text><line style="stroke:#4169E1;stroke-width:0.5;" x1="893" x2="1249" y1="912.1563" y2="912.1563"/><text fill="#000000" font-family="sans-serif" font-size="20" lengthAdjust="spacing" textLength="236" x="898" y="936.918">-enum public PropertyType</text><text fill="#000000" font-family="sans-serif" font-size="20" lengthAdjust="spacing" textLength="155" x="898" y="962.0742">-double areaInM2</text><text fill="#000000" font-family="sans-serif" font-size="20" lengthAdjust="spacing" textLength="283" x="898" y="987.2305">-double distanceFromCityCenter</text><text fill="#000000" font-family="sans-serif" font-size="20" lengthAdjust="spacing" textLength="260" x="898" y="1012.3867">-ArrayList &lt;String&gt; photoURL</text><text fill="#000000" font-family="sans-serif" font-size="20" lengthAdjust="spacing" textLength="157" x="898" y="1037.543">-Address address</text><text fill="#000000" font-family="sans-serif" font-size="20" lengthAdjust="spacing" textLength="90" x="898" y="1062.6992">-Deal deal</text><line style="stroke:#4169E1;stroke-width:0.5;" x1="893" x2="1249" y1="1071.0938" y2="1071.0938"/><text fill="#000000" font-family="sans-serif" font-size="20" lengthAdjust="spacing" textLength="346" x="898" y="1095.8555">+Property(PropertyType:propertyType)</text></g><!--class Home--><g id="elem_Home"><rect codeLine="61" fill="#FFDAB9" height="151.7813" id="Home" rx="2.5" ry="2.5" style="stroke:#4169E1;stroke-width:0.5;" width="353" x="894.5" y="1177.5"/><ellipse cx="1040" cy="1195.0781" fill="#A9DCDF" rx="12" ry="12" style="stroke:#181818;stroke-width:1.0;"/><path d="M1042.4531,1197.1094 L1037.5781,1197.1094 L1037.0938,1198.3281 L1037.5781,1198.3281 Q1038.3125,1198.3281 1038.6094,1198.6094 Q1038.9219,1198.875 1038.9219,1199.3281 Q1038.9219,1199.7656 1038.6094,1200.0469 Q1038.3125,1200.3281 1037.5781,1200.3281 L1034.8906,1200.3281 Q1034.1719,1200.3281 1033.8594,1200.0469 Q1033.5469,1199.7656 1033.5469,1199.3281 Q1033.5469,1198.875 1033.875,1198.5938 Q1034.2031,1198.3125 1034.9375,1198.3281 L1038.0781,1190.5 L1036.7813,1190.5 Q1036.0469,1190.5 1035.7344,1190.2188 Q1035.4375,1189.9375 1035.4375,1189.4844 Q1035.4375,1189.0313 1035.7344,1188.7656 Q1036.0469,1188.4844 1036.7813,1188.4844 L1041.0938,1188.4844 L1045.0781,1198.3281 Q1045.7813,1198.3281 1046.0156,1198.4844 Q1046.4688,1198.7969 1046.4688,1199.3281 Q1046.4688,1199.7656 1046.1563,1200.0469 Q1045.8594,1200.3281 1045.1406,1200.3281 L1042.4375,1200.3281 Q1041.7188,1200.3281 1041.4063,1200.0469 Q1041.0938,1199.7656 1041.0938,1199.3281 Q1041.0938,1198.875 1041.4063,1198.6094 Q1041.7188,1198.3281 1042.4375,1198.3281 L1042.9219,1198.3281 L1042.4531,1197.1094 Z M1041.625,1195.1094 L1040,1191.1406 L1038.3906,1195.1094 L1041.625,1195.1094 Z " fill="#000000"/><text fill="#000000" font-family="sans-serif" font-size="20" font-style="italic" lengthAdjust="spacing" textLength="53" x="1062" y="1203.2617">Home</text><line style="stroke:#4169E1;stroke-width:0.5;" x1="895.5" x2="1246.5" y1="1212.6563" y2="1212.6563"/><text fill="#000000" font-family="sans-serif" font-size="20" lengthAdjust="spacing" textLength="210" x="900.5" y="1237.418">-int numberOfBedrooms</text><text fill="#000000" font-family="sans-serif" font-size="20" lengthAdjust="spacing" textLength="215" x="900.5" y="1262.5742">-int numberOfBathrooms</text><text fill="#000000" font-family="sans-serif" font-size="20" lengthAdjust="spacing" textLength="242" x="900.5" y="1287.7305">-int numberOfParkingSpace</text><text fill="#000000" font-family="sans-serif" font-size="20" lengthAdjust="spacing" textLength="341" x="900.5" y="1312.8867">-ArrayList &lt;String&gt; availableEquipment</text><line style="stroke:#4169E1;stroke-width:0.5;" x1="895.5" x2="1246.5" y1="1321.2813" y2="1321.2813"/></g><!--class House--><g id="elem_House"><rect codeLine="67" fill="#FFDAB9" height="126.625" id="House" rx="2.5" ry="2.5" style="stroke:#4169E1;stroke-width:0.5;" width="221" x="954.5" y="1428"/><ellipse cx="1033" cy="1445.5781" fill="#ADD1B2" rx="12" ry="12" style="stroke:#181818;stroke-width:1.0;"/><path d="M1035.1406,1440.5 Q1035.3281,1440.25 1035.5469,1440.125 Q1035.7656,1439.9844 1036.0156,1439.9844 Q1036.4531,1439.9844 1036.7344,1440.2969 Q1037.0156,1440.5938 1037.0156,1441.3125 L1037.0156,1443.0156 Q1037.0156,1443.7344 1036.7344,1444.0469 Q1036.4531,1444.3594 1036.0156,1444.3594 Q1035.625,1444.3594 1035.375,1444.125 Q1035.125,1443.9063 1035.0156,1443.2969 Q1034.9531,1442.875 1034.7344,1442.6563 Q1034.3438,1442.2188 1033.625,1441.9531 Q1032.9063,1441.6875 1032.1875,1441.6875 Q1031.2813,1441.6875 1030.5313,1442.0781 Q1029.7813,1442.4688 1029.2031,1443.3594 Q1028.625,1444.2344 1028.625,1445.4375 L1028.625,1446.7344 Q1028.625,1448.1875 1029.6719,1449.1563 Q1030.7344,1450.125 1032.5938,1450.125 Q1033.7031,1450.125 1034.4844,1449.8125 Q1034.9219,1449.6406 1035.4375,1449.125 Q1035.75,1448.8125 1035.9219,1448.7188 Q1036.0938,1448.625 1036.3281,1448.625 Q1036.7188,1448.625 1037.0156,1448.9375 Q1037.3281,1449.2344 1037.3281,1449.6406 Q1037.3281,1450.0469 1036.9219,1450.5156 Q1036.3281,1451.2031 1035.3906,1451.5938 Q1034.125,1452.125 1032.6094,1452.125 Q1030.8281,1452.125 1029.4063,1451.3906 Q1028.25,1450.7969 1027.4375,1449.5313 Q1026.625,1448.2656 1026.625,1446.7813 L1026.625,1445.4219 Q1026.625,1443.8594 1027.3438,1442.5156 Q1028.0781,1441.1563 1029.3594,1440.4219 Q1030.6563,1439.6875 1032.1094,1439.6875 Q1032.9688,1439.6875 1033.7188,1439.8906 Q1034.4844,1440.0938 1035.1406,1440.5 Z " fill="#000000"/><text fill="#000000" font-family="sans-serif" font-size="20" lengthAdjust="spacing" textLength="55" x="1055" y="1453.7617">House</text><line style="stroke:#4169E1;stroke-width:0.5;" x1="955.5" x2="1174.5" y1="1463.1563" y2="1463.1563"/><text fill="#000000" font-family="sans-serif" font-size="20" lengthAdjust="spacing" textLength="168" x="960.5" y="1487.918">-boolean basement</text><text fill="#000000" font-family="sans-serif" font-size="20" lengthAdjust="spacing" textLength="209" x="960.5" y="1513.0742">-boolean inhabitableLoft</text><text fill="#000000" font-family="sans-serif" font-size="20" lengthAdjust="spacing" textLength="176" x="960.5" y="1538.2305">-String sunExposure</text><line style="stroke:#4169E1;stroke-width:0.5;" x1="955.5" x2="1174.5" y1="1546.625" y2="1546.625"/></g><!--class Appartement--><g id="elem_Appartement"><rect codeLine="72" fill="#FFDAB9" height="51.1563" id="Appartement" rx="2.5" ry="2.5" style="stroke:#4169E1;stroke-width:0.5;" width="147" x="772.5" y="1466"/><ellipse cx="788.5" cy="1483.5781" fill="#ADD1B2" rx="12" ry="12" style="stroke:#181818;stroke-width:1.0;"/><path d="M790.6406,1478.5 Q790.8281,1478.25 791.0469,1478.125 Q791.2656,1477.9844 791.5156,1477.9844 Q791.9531,1477.9844 792.2344,1478.2969 Q792.5156,1478.5938 792.5156,1479.3125 L792.5156,1481.0156 Q792.5156,1481.7344 792.2344,1482.0469 Q791.9531,1482.3594 791.5156,1482.3594 Q791.125,1482.3594 790.875,1482.125 Q790.625,1481.9063 790.5156,1481.2969 Q790.4531,1480.875 790.2344,1480.6563 Q789.8438,1480.2188 789.125,1479.9531 Q788.4063,1479.6875 787.6875,1479.6875 Q786.7813,1479.6875 786.0313,1480.0781 Q785.2813,1480.4688 784.7031,1481.3594 Q784.125,1482.2344 784.125,1483.4375 L784.125,1484.7344 Q784.125,1486.1875 785.1719,1487.1563 Q786.2344,1488.125 788.0938,1488.125 Q789.2031,1488.125 789.9844,1487.8125 Q790.4219,1487.6406 790.9375,1487.125 Q791.25,1486.8125 791.4219,1486.7188 Q791.5938,1486.625 791.8281,1486.625 Q792.2188,1486.625 792.5156,1486.9375 Q792.8281,1487.2344 792.8281,1487.6406 Q792.8281,1488.0469 792.4219,1488.5156 Q791.8281,1489.2031 790.8906,1489.5938 Q789.625,1490.125 788.1094,1490.125 Q786.3281,1490.125 784.9063,1489.3906 Q783.75,1488.7969 782.9375,1487.5313 Q782.125,1486.2656 782.125,1484.7813 L782.125,1483.4219 Q782.125,1481.8594 782.8438,1480.5156 Q783.5781,1479.1563 784.8594,1478.4219 Q786.1563,1477.6875 787.6094,1477.6875 Q788.4688,1477.6875 789.2188,1477.8906 Q789.9844,1478.0938 790.6406,1478.5 Z " fill="#000000"/><text fill="#000000" font-family="sans-serif" font-size="20" lengthAdjust="spacing" textLength="113" x="803.5" y="1491.7617">Appartement</text><line style="stroke:#4169E1;stroke-width:0.5;" x1="773.5" x2="918.5" y1="1501.1563" y2="1501.1563"/><line style="stroke:#4169E1;stroke-width:0.5;" x1="773.5" x2="918.5" y1="1509.1563" y2="1509.1563"/></g><!--class Land--><g id="elem_Land"><rect codeLine="75" fill="#FFDAB9" height="51.1563" id="Land" rx="2.5" ry="2.5" style="stroke:#4169E1;stroke-width:0.5;" width="77" x="1566.5" y="1228"/><ellipse cx="1582.5" cy="1245.5781" fill="#ADD1B2" rx="12" ry="12" style="stroke:#181818;stroke-width:1.0;"/><path d="M1584.6406,1240.5 Q1584.8281,1240.25 1585.0469,1240.125 Q1585.2656,1239.9844 1585.5156,1239.9844 Q1585.9531,1239.9844 1586.2344,1240.2969 Q1586.5156,1240.5938 1586.5156,1241.3125 L1586.5156,1243.0156 Q1586.5156,1243.7344 1586.2344,1244.0469 Q1585.9531,1244.3594 1585.5156,1244.3594 Q1585.125,1244.3594 1584.875,1244.125 Q1584.625,1243.9063 1584.5156,1243.2969 Q1584.4531,1242.875 1584.2344,1242.6563 Q1583.8438,1242.2188 1583.125,1241.9531 Q1582.4063,1241.6875 1581.6875,1241.6875 Q1580.7813,1241.6875 1580.0313,1242.0781 Q1579.2813,1242.4688 1578.7031,1243.3594 Q1578.125,1244.2344 1578.125,1245.4375 L1578.125,1246.7344 Q1578.125,1248.1875 1579.1719,1249.1563 Q1580.2344,1250.125 1582.0938,1250.125 Q1583.2031,1250.125 1583.9844,1249.8125 Q1584.4219,1249.6406 1584.9375,1249.125 Q1585.25,1248.8125 1585.4219,1248.7188 Q1585.5938,1248.625 1585.8281,1248.625 Q1586.2188,1248.625 1586.5156,1248.9375 Q1586.8281,1249.2344 1586.8281,1249.6406 Q1586.8281,1250.0469 1586.4219,1250.5156 Q1585.8281,1251.2031 1584.8906,1251.5938 Q1583.625,1252.125 1582.1094,1252.125 Q1580.3281,1252.125 1578.9063,1251.3906 Q1577.75,1250.7969 1576.9375,1249.5313 Q1576.125,1248.2656 1576.125,1246.7813 L1576.125,1245.4219 Q1576.125,1243.8594 1576.8438,1242.5156 Q1577.5781,1241.1563 1578.8594,1240.4219 Q1580.1563,1239.6875 1581.6094,1239.6875 Q1582.4688,1239.6875 1583.2188,1239.8906 Q1583.9844,1240.0938 1584.6406,1240.5 Z " fill="#000000"/><text fill="#000000" font-family="sans-serif" font-size="20" lengthAdjust="spacing" textLength="43" x="1597.5" y="1253.7617">Land</text><line style="stroke:#4169E1;stroke-width:0.5;" x1="1567.5" x2="1642.5" y1="1263.1563" y2="1263.1563"/><line style="stroke:#4169E1;stroke-width:0.5;" x1="1567.5" x2="1642.5" y1="1271.1563" y2="1271.1563"/></g><!--class Deal--><g id="elem_Deal"><rect codeLine="78" fill="#FFDAB9" height="101.4688" id="Deal" rx="2.5" ry="2.5" style="stroke:#4169E1;stroke-width:0.5;" width="249" x="1282.5" y="1203"/><ellipse cx="1382" cy="1220.5781" fill="#A9DCDF" rx="12" ry="12" style="stroke:#181818;stroke-width:1.0;"/><path d="M1384.4531,1222.6094 L1379.5781,1222.6094 L1379.0938,1223.8281 L1379.5781,1223.8281 Q1380.3125,1223.8281 1380.6094,1224.1094 Q1380.9219,1224.375 1380.9219,1224.8281 Q1380.9219,1225.2656 1380.6094,1225.5469 Q1380.3125,1225.8281 1379.5781,1225.8281 L1376.8906,1225.8281 Q1376.1719,1225.8281 1375.8594,1225.5469 Q1375.5469,1225.2656 1375.5469,1224.8281 Q1375.5469,1224.375 1375.875,1224.0938 Q1376.2031,1223.8125 1376.9375,1223.8281 L1380.0781,1216 L1378.7813,1216 Q1378.0469,1216 1377.7344,1215.7188 Q1377.4375,1215.4375 1377.4375,1214.9844 Q1377.4375,1214.5313 1377.7344,1214.2656 Q1378.0469,1213.9844 1378.7813,1213.9844 L1383.0938,1213.9844 L1387.0781,1223.8281 Q1387.7813,1223.8281 1388.0156,1223.9844 Q1388.4688,1224.2969 1388.4688,1224.8281 Q1388.4688,1225.2656 1388.1563,1225.5469 Q1387.8594,1225.8281 1387.1406,1225.8281 L1384.4375,1225.8281 Q1383.7188,1225.8281 1383.4063,1225.5469 Q1383.0938,1225.2656 1383.0938,1224.8281 Q1383.0938,1224.375 1383.4063,1224.1094 Q1383.7188,1223.8281 1384.4375,1223.8281 L1384.9219,1223.8281 L1384.4531,1222.6094 Z M1383.625,1220.6094 L1382,1216.6406 L1380.3906,1220.6094 L1383.625,1220.6094 Z " fill="#000000"/><text fill="#000000" font-family="sans-serif" font-size="20" font-style="italic" lengthAdjust="spacing" textLength="41" x="1404" y="1228.7617">Deal</text><line style="stroke:#4169E1;stroke-width:0.5;" x1="1283.5" x2="1530.5" y1="1238.1563" y2="1238.1563"/><text fill="#000000" font-family="sans-serif" font-size="20" lengthAdjust="spacing" textLength="200" x="1288.5" y="1262.918">-enum public DealType</text><line style="stroke:#4169E1;stroke-width:0.5;" x1="1283.5" x2="1530.5" y1="1271.3125" y2="1271.3125"/><text fill="#000000" font-family="sans-serif" font-size="20" lengthAdjust="spacing" textLength="237" x="1288.5" y="1296.0742">+Deal(DealType:dealType)</text></g><!--class Sale--><g id="elem_Sale"><rect codeLine="82" fill="#FFDAB9" height="101.4688" id="Sale" rx="2.5" ry="2.5" style="stroke:#4169E1;stroke-width:0.5;" width="252" x="1652" y="1441"/><ellipse cx="1754" cy="1458.5781" fill="#ADD1B2" rx="12" ry="12" style="stroke:#181818;stroke-width:1.0;"/><path d="M1756.1406,1453.5 Q1756.3281,1453.25 1756.5469,1453.125 Q1756.7656,1452.9844 1757.0156,1452.9844 Q1757.4531,1452.9844 1757.7344,1453.2969 Q1758.0156,1453.5938 1758.0156,1454.3125 L1758.0156,1456.0156 Q1758.0156,1456.7344 1757.7344,1457.0469 Q1757.4531,1457.3594 1757.0156,1457.3594 Q1756.625,1457.3594 1756.375,1457.125 Q1756.125,1456.9063 1756.0156,1456.2969 Q1755.9531,1455.875 1755.7344,1455.6563 Q1755.3438,1455.2188 1754.625,1454.9531 Q1753.9063,1454.6875 1753.1875,1454.6875 Q1752.2813,1454.6875 1751.5313,1455.0781 Q1750.7813,1455.4688 1750.2031,1456.3594 Q1749.625,1457.2344 1749.625,1458.4375 L1749.625,1459.7344 Q1749.625,1461.1875 1750.6719,1462.1563 Q1751.7344,1463.125 1753.5938,1463.125 Q1754.7031,1463.125 1755.4844,1462.8125 Q1755.9219,1462.6406 1756.4375,1462.125 Q1756.75,1461.8125 1756.9219,1461.7188 Q1757.0938,1461.625 1757.3281,1461.625 Q1757.7188,1461.625 1758.0156,1461.9375 Q1758.3281,1462.2344 1758.3281,1462.6406 Q1758.3281,1463.0469 1757.9219,1463.5156 Q1757.3281,1464.2031 1756.3906,1464.5938 Q1755.125,1465.125 1753.6094,1465.125 Q1751.8281,1465.125 1750.4063,1464.3906 Q1749.25,1463.7969 1748.4375,1462.5313 Q1747.625,1461.2656 1747.625,1459.7813 L1747.625,1458.4219 Q1747.625,1456.8594 1748.3438,1455.5156 Q1749.0781,1454.1563 1750.3594,1453.4219 Q1751.6563,1452.6875 1753.1094,1452.6875 Q1753.9688,1452.6875 1754.7188,1452.8906 Q1755.4844,1453.0938 1756.1406,1453.5 Z " fill="#000000"/><text fill="#000000" font-family="sans-serif" font-size="20" lengthAdjust="spacing" textLength="39" x="1776" y="1466.7617">Sale</text><line style="stroke:#4169E1;stroke-width:0.5;" x1="1653" x2="1903" y1="1476.1563" y2="1476.1563"/><text fill="#000000" font-family="sans-serif" font-size="20" lengthAdjust="spacing" textLength="190" x="1658" y="1500.918">-double propertyPrice</text><line style="stroke:#4169E1;stroke-width:0.5;" x1="1653" x2="1903" y1="1509.3125" y2="1509.3125"/><text fill="#000000" font-family="sans-serif" font-size="20" lengthAdjust="spacing" textLength="240" x="1658" y="1534.0742">+createSale(propertyPrice)</text></g><!--class Rent--><g id="elem_Rent"><rect codeLine="86" fill="#FFDAB9" height="126.625" id="Rent" rx="2.5" ry="2.5" style="stroke:#4169E1;stroke-width:0.5;" width="406" x="1211" y="1428"/><ellipse cx="1389" cy="1445.5781" fill="#ADD1B2" rx="12" ry="12" style="stroke:#181818;stroke-width:1.0;"/><path d="M1391.1406,1440.5 Q1391.3281,1440.25 1391.5469,1440.125 Q1391.7656,1439.9844 1392.0156,1439.9844 Q1392.4531,1439.9844 1392.7344,1440.2969 Q1393.0156,1440.5938 1393.0156,1441.3125 L1393.0156,1443.0156 Q1393.0156,1443.7344 1392.7344,1444.0469 Q1392.4531,1444.3594 1392.0156,1444.3594 Q1391.625,1444.3594 1391.375,1444.125 Q1391.125,1443.9063 1391.0156,1443.2969 Q1390.9531,1442.875 1390.7344,1442.6563 Q1390.3438,1442.2188 1389.625,1441.9531 Q1388.9063,1441.6875 1388.1875,1441.6875 Q1387.2813,1441.6875 1386.5313,1442.0781 Q1385.7813,1442.4688 1385.2031,1443.3594 Q1384.625,1444.2344 1384.625,1445.4375 L1384.625,1446.7344 Q1384.625,1448.1875 1385.6719,1449.1563 Q1386.7344,1450.125 1388.5938,1450.125 Q1389.7031,1450.125 1390.4844,1449.8125 Q1390.9219,1449.6406 1391.4375,1449.125 Q1391.75,1448.8125 1391.9219,1448.7188 Q1392.0938,1448.625 1392.3281,1448.625 Q1392.7188,1448.625 1393.0156,1448.9375 Q1393.3281,1449.2344 1393.3281,1449.6406 Q1393.3281,1450.0469 1392.9219,1450.5156 Q1392.3281,1451.2031 1391.3906,1451.5938 Q1390.125,1452.125 1388.6094,1452.125 Q1386.8281,1452.125 1385.4063,1451.3906 Q1384.25,1450.7969 1383.4375,1449.5313 Q1382.625,1448.2656 1382.625,1446.7813 L1382.625,1445.4219 Q1382.625,1443.8594 1383.3438,1442.5156 Q1384.0781,1441.1563 1385.3594,1440.4219 Q1386.6563,1439.6875 1388.1094,1439.6875 Q1388.9688,1439.6875 1389.7188,1439.8906 Q1390.4844,1440.0938 1391.1406,1440.5 Z " fill="#000000"/><text fill="#000000" font-family="sans-serif" font-size="20" lengthAdjust="spacing" textLength="41" x="1411" y="1453.7617">Rent</text><line style="stroke:#4169E1;stroke-width:0.5;" x1="1212" x2="1616" y1="1463.1563" y2="1463.1563"/><text fill="#000000" font-family="sans-serif" font-size="20" lengthAdjust="spacing" textLength="186" x="1217" y="1487.918">-double propertyRent</text><text fill="#000000" font-family="sans-serif" font-size="20" lengthAdjust="spacing" textLength="177" x="1217" y="1513.0742">-int contractDuration</text><line style="stroke:#4169E1;stroke-width:0.5;" x1="1212" x2="1616" y1="1521.4688" y2="1521.4688"/><text fill="#000000" font-family="sans-serif" font-size="20" lengthAdjust="spacing" textLength="394" x="1217" y="1546.2305">+createRent(propertyRent, contractDuration)</text></g><!--class PersonRepository--><g id="elem_PersonRepository"><rect codeLine="91" fill="#FFDAB9" height="51.1563" id="PersonRepository" rx="2.5" ry="2.5" style="stroke:#4169E1;stroke-width:0.5;" width="191" x="350.5" y="426.5"/><ellipse cx="366.5" cy="444.0781" fill="#ADD1B2" rx="12" ry="12" style="stroke:#181818;stroke-width:1.0;"/><path d="M368.6406,439 Q368.8281,438.75 369.0469,438.625 Q369.2656,438.4844 369.5156,438.4844 Q369.9531,438.4844 370.2344,438.7969 Q370.5156,439.0938 370.5156,439.8125 L370.5156,441.5156 Q370.5156,442.2344 370.2344,442.5469 Q369.9531,442.8594 369.5156,442.8594 Q369.125,442.8594 368.875,442.625 Q368.625,442.4063 368.5156,441.7969 Q368.4531,441.375 368.2344,441.1563 Q367.8438,440.7188 367.125,440.4531 Q366.4063,440.1875 365.6875,440.1875 Q364.7813,440.1875 364.0313,440.5781 Q363.2813,440.9688 362.7031,441.8594 Q362.125,442.7344 362.125,443.9375 L362.125,445.2344 Q362.125,446.6875 363.1719,447.6563 Q364.2344,448.625 366.0938,448.625 Q367.2031,448.625 367.9844,448.3125 Q368.4219,448.1406 368.9375,447.625 Q369.25,447.3125 369.4219,447.2188 Q369.5938,447.125 369.8281,447.125 Q370.2188,447.125 370.5156,447.4375 Q370.8281,447.7344 370.8281,448.1406 Q370.8281,448.5469 370.4219,449.0156 Q369.8281,449.7031 368.8906,450.0938 Q367.625,450.625 366.1094,450.625 Q364.3281,450.625 362.9063,449.8906 Q361.75,449.2969 360.9375,448.0313 Q360.125,446.7656 360.125,445.2813 L360.125,443.9219 Q360.125,442.3594 360.8438,441.0156 Q361.5781,439.6563 362.8594,438.9219 Q364.1563,438.1875 365.6094,438.1875 Q366.4688,438.1875 367.2188,438.3906 Q367.9844,438.5938 368.6406,439 Z " fill="#000000"/><text fill="#000000" font-family="sans-serif" font-size="20" lengthAdjust="spacing" textLength="157" x="381.5" y="452.2617">PersonRepository</text><line style="stroke:#4169E1;stroke-width:0.5;" x1="351.5" x2="540.5" y1="461.6563" y2="461.6563"/><line style="stroke:#4169E1;stroke-width:0.5;" x1="351.5" x2="540.5" y1="469.6563" y2="469.6563"/></g><!--class Employee--><g id="elem_Employee"><rect codeLine="94" fill="#FFDAB9" height="76.3125" id="Employee" rx="2.5" ry="2.5" style="stroke:#4169E1;stroke-width:0.5;" width="153" x="571.5" y="952.5"/><ellipse cx="601.9" cy="970.0781" fill="#ADD1B2" rx="12" ry="12" style="stroke:#181818;stroke-width:1.0;"/><path d="M604.0406,965 Q604.2281,964.75 604.4469,964.625 Q604.6656,964.4844 604.9156,964.4844 Q605.3531,964.4844 605.6344,964.7969 Q605.9156,965.0938 605.9156,965.8125 L605.9156,967.5156 Q605.9156,968.2344 605.6344,968.5469 Q605.3531,968.8594 604.9156,968.8594 Q604.525,968.8594 604.275,968.625 Q604.025,968.4063 603.9156,967.7969 Q603.8531,967.375 603.6344,967.1563 Q603.2438,966.7188 602.525,966.4531 Q601.8063,966.1875 601.0875,966.1875 Q600.1813,966.1875 599.4313,966.5781 Q598.6813,966.9688 598.1031,967.8594 Q597.525,968.7344 597.525,969.9375 L597.525,971.2344 Q597.525,972.6875 598.5719,973.6563 Q599.6344,974.625 601.4938,974.625 Q602.6031,974.625 603.3844,974.3125 Q603.8219,974.1406 604.3375,973.625 Q604.65,973.3125 604.8219,973.2188 Q604.9938,973.125 605.2281,973.125 Q605.6188,973.125 605.9156,973.4375 Q606.2281,973.7344 606.2281,974.1406 Q606.2281,974.5469 605.8219,975.0156 Q605.2281,975.7031 604.2906,976.0938 Q603.025,976.625 601.5094,976.625 Q599.7281,976.625 598.3063,975.8906 Q597.15,975.2969 596.3375,974.0313 Q595.525,972.7656 595.525,971.2813 L595.525,969.9219 Q595.525,968.3594 596.2438,967.0156 Q596.9781,965.6563 598.2594,964.9219 Q599.5563,964.1875 601.0094,964.1875 Q601.8688,964.1875 602.6188,964.3906 Q603.3844,964.5938 604.0406,965 Z " fill="#000000"/><text fill="#000000" font-family="sans-serif" font-size="20" lengthAdjust="spacing" textLength="87" x="620.1" y="978.2617">Employee</text><line style="stroke:#4169E1;stroke-width:0.5;" x1="572.5" x2="723.5" y1="987.6563" y2="987.6563"/><text fill="#000000" font-family="sans-serif" font-size="20" lengthAdjust="spacing" textLength="141" x="577.5" y="1012.418">-Agency agency</text><line style="stroke:#4169E1;stroke-width:0.5;" x1="572.5" x2="723.5" y1="1020.8125" y2="1020.8125"/></g><!--class AnnouncementRepository--><g id="elem_AnnouncementRepository"><rect codeLine="97" fill="#FFDAB9" height="51.1563" id="AnnouncementRepository" rx="2.5" ry="2.5" style="stroke:#4169E1;stroke-width:0.5;" width="257" x="1043.5" y="426.5"/><ellipse cx="1059.5" cy="444.0781" fill="#ADD1B2" rx="12" ry="12" style="stroke:#181818;stroke-width:1.0;"/><path d="M1061.6406,439 Q1061.8281,438.75 1062.0469,438.625 Q1062.2656,438.4844 1062.5156,438.4844 Q1062.9531,438.4844 1063.2344,438.7969 Q1063.5156,439.0938 1063.5156,439.8125 L1063.5156,441.5156 Q1063.5156,442.2344 1063.2344,442.5469 Q1062.9531,442.8594 1062.5156,442.8594 Q1062.125,442.8594 1061.875,442.625 Q1061.625,442.4063 1061.5156,441.7969 Q1061.4531,441.375 1061.2344,441.1563 Q1060.8438,440.7188 1060.125,440.4531 Q1059.4063,440.1875 1058.6875,440.1875 Q1057.7813,440.1875 1057.0313,440.5781 Q1056.2813,440.9688 1055.7031,441.8594 Q1055.125,442.7344 1055.125,443.9375 L1055.125,445.2344 Q1055.125,446.6875 1056.1719,447.6563 Q1057.2344,448.625 1059.0938,448.625 Q1060.2031,448.625 1060.9844,448.3125 Q1061.4219,448.1406 1061.9375,447.625 Q1062.25,447.3125 1062.4219,447.2188 Q1062.5938,447.125 1062.8281,447.125 Q1063.2188,447.125 1063.5156,447.4375 Q1063.8281,447.7344 1063.8281,448.1406 Q1063.8281,448.5469 1063.4219,449.0156 Q1062.8281,449.7031 1061.8906,450.0938 Q1060.625,450.625 1059.1094,450.625 Q1057.3281,450.625 1055.9063,449.8906 Q1054.75,449.2969 1053.9375,448.0313 Q1053.125,446.7656 1053.125,445.2813 L1053.125,443.9219 Q1053.125,442.3594 1053.8438,441.0156 Q1054.5781,439.6563 1055.8594,438.9219 Q1057.1563,438.1875 1058.6094,438.1875 Q1059.4688,438.1875 1060.2188,438.3906 Q1060.9844,438.5938 1061.6406,439 Z " fill="#000000"/><text fill="#000000" font-family="sans-serif" font-size="20" lengthAdjust="spacing" textLength="223" x="1074.5" y="452.2617">AnnouncementRepository</text><line style="stroke:#4169E1;stroke-width:0.5;" x1="1044.5" x2="1299.5" y1="461.6563" y2="461.6563"/><line style="stroke:#4169E1;stroke-width:0.5;" x1="1044.5" x2="1299.5" y1="469.6563" y2="469.6563"/></g><!--class Announcement--><g id="elem_Announcement"><rect codeLine="100" fill="#FFDAB9" height="126.625" id="Announcement" rx="2.5" ry="2.5" style="stroke:#4169E1;stroke-width:0.5;" width="233" x="1755.5" y="614"/><ellipse cx="1803.5" cy="631.5781" fill="#ADD1B2" rx="12" ry="12" style="stroke:#181818;stroke-width:1.0;"/><path d="M1805.6406,626.5 Q1805.8281,626.25 1806.0469,626.125 Q1806.2656,625.9844 1806.5156,625.9844 Q1806.9531,625.9844 1807.2344,626.2969 Q1807.5156,626.5938 1807.5156,627.3125 L1807.5156,629.0156 Q1807.5156,629.7344 1807.2344,630.0469 Q1806.9531,630.3594 1806.5156,630.3594 Q1806.125,630.3594 1805.875,630.125 Q1805.625,629.9063 1805.5156,629.2969 Q1805.4531,628.875 1805.2344,628.6563 Q1804.8438,628.2188 1804.125,627.9531 Q1803.4063,627.6875 1802.6875,627.6875 Q1801.7813,627.6875 1801.0313,628.0781 Q1800.2813,628.4688 1799.7031,629.3594 Q1799.125,630.2344 1799.125,631.4375 L1799.125,632.7344 Q1799.125,634.1875 1800.1719,635.1563 Q1801.2344,636.125 1803.0938,636.125 Q1804.2031,636.125 1804.9844,635.8125 Q1805.4219,635.6406 1805.9375,635.125 Q1806.25,634.8125 1806.4219,634.7188 Q1806.5938,634.625 1806.8281,634.625 Q1807.2188,634.625 1807.5156,634.9375 Q1807.8281,635.2344 1807.8281,635.6406 Q1807.8281,636.0469 1807.4219,636.5156 Q1806.8281,637.2031 1805.8906,637.5938 Q1804.625,638.125 1803.1094,638.125 Q1801.3281,638.125 1799.9063,637.3906 Q1798.75,636.7969 1797.9375,635.5313 Q1797.125,634.2656 1797.125,632.7813 L1797.125,631.4219 Q1797.125,629.8594 1797.8438,628.5156 Q1798.5781,627.1563 1799.8594,626.4219 Q1801.1563,625.6875 1802.6094,625.6875 Q1803.4688,625.6875 1804.2188,625.8906 Q1804.9844,626.0938 1805.6406,626.5 Z " fill="#000000"/><text fill="#000000" font-family="sans-serif" font-size="20" lengthAdjust="spacing" textLength="128" x="1825.5" y="639.7617">Announcement</text><line style="stroke:#4169E1;stroke-width:0.5;" x1="1756.5" x2="1987.5" y1="649.1563" y2="649.1563"/><text fill="#000000" font-family="sans-serif" font-size="20" lengthAdjust="spacing" textLength="221" x="1761.5" y="673.918">-Commission commission</text><text fill="#000000" font-family="sans-serif" font-size="20" lengthAdjust="spacing" textLength="94" x="1761.5" y="699.0742">-Date date</text><text fill="#000000" font-family="sans-serif" font-size="20" lengthAdjust="spacing" textLength="152" x="1761.5" y="724.2305">-Request request</text><line style="stroke:#4169E1;stroke-width:0.5;" x1="1756.5" x2="1987.5" y1="732.625" y2="732.625"/></g><!--class AuthenticationRepository--><g id="elem_AuthenticationRepository"><rect codeLine="105" fill="#FFDAB9" height="51.1563" id="AuthenticationRepository" rx="2.5" ry="2.5" style="stroke:#4169E1;stroke-width:0.5;" width="251" x="1335.5" y="426.5"/><ellipse cx="1351.5" cy="444.0781" fill="#ADD1B2" rx="12" ry="12" style="stroke:#181818;stroke-width:1.0;"/><path d="M1353.6406,439 Q1353.8281,438.75 1354.0469,438.625 Q1354.2656,438.4844 1354.5156,438.4844 Q1354.9531,438.4844 1355.2344,438.7969 Q1355.5156,439.0938 1355.5156,439.8125 L1355.5156,441.5156 Q1355.5156,442.2344 1355.2344,442.5469 Q1354.9531,442.8594 1354.5156,442.8594 Q1354.125,442.8594 1353.875,442.625 Q1353.625,442.4063 1353.5156,441.7969 Q1353.4531,441.375 1353.2344,441.1563 Q1352.8438,440.7188 1352.125,440.4531 Q1351.4063,440.1875 1350.6875,440.1875 Q1349.7813,440.1875 1349.0313,440.5781 Q1348.2813,440.9688 1347.7031,441.8594 Q1347.125,442.7344 1347.125,443.9375 L1347.125,445.2344 Q1347.125,446.6875 1348.1719,447.6563 Q1349.2344,448.625 1351.0938,448.625 Q1352.2031,448.625 1352.9844,448.3125 Q1353.4219,448.1406 1353.9375,447.625 Q1354.25,447.3125 1354.4219,447.2188 Q1354.5938,447.125 1354.8281,447.125 Q1355.2188,447.125 1355.5156,447.4375 Q1355.8281,447.7344 1355.8281,448.1406 Q1355.8281,448.5469 1355.4219,449.0156 Q1354.8281,449.7031 1353.8906,450.0938 Q1352.625,450.625 1351.1094,450.625 Q1349.3281,450.625 1347.9063,449.8906 Q1346.75,449.2969 1345.9375,448.0313 Q1345.125,446.7656 1345.125,445.2813 L1345.125,443.9219 Q1345.125,442.3594 1345.8438,441.0156 Q1346.5781,439.6563 1347.8594,438.9219 Q1349.1563,438.1875 1350.6094,438.1875 Q1351.4688,438.1875 1352.2188,438.3906 Q1352.9844,438.5938 1353.6406,439 Z " fill="#000000"/><text fill="#000000" font-family="sans-serif" font-size="20" lengthAdjust="spacing" textLength="217" x="1366.5" y="452.2617">AuthenticationRepository</text><line style="stroke:#4169E1;stroke-width:0.5;" x1="1336.5" x2="1585.5" y1="461.6563" y2="461.6563"/><line style="stroke:#4169E1;stroke-width:0.5;" x1="1336.5" x2="1585.5" y1="469.6563" y2="469.6563"/></g><!--class Person--><g id="elem_Person"><rect codeLine="108" fill="#FFDAB9" height="176.9375" id="Person" rx="2.5" ry="2.5" style="stroke:#4169E1;stroke-width:0.5;" width="190" x="349" y="1165"/><ellipse cx="408.5" cy="1182.5781" fill="#ADD1B2" rx="12" ry="12" style="stroke:#181818;stroke-width:1.0;"/><path d="M410.6406,1177.5 Q410.8281,1177.25 411.0469,1177.125 Q411.2656,1176.9844 411.5156,1176.9844 Q411.9531,1176.9844 412.2344,1177.2969 Q412.5156,1177.5938 412.5156,1178.3125 L412.5156,1180.0156 Q412.5156,1180.7344 412.2344,1181.0469 Q411.9531,1181.3594 411.5156,1181.3594 Q411.125,1181.3594 410.875,1181.125 Q410.625,1180.9063 410.5156,1180.2969 Q410.4531,1179.875 410.2344,1179.6563 Q409.8438,1179.2188 409.125,1178.9531 Q408.4063,1178.6875 407.6875,1178.6875 Q406.7813,1178.6875 406.0313,1179.0781 Q405.2813,1179.4688 404.7031,1180.3594 Q404.125,1181.2344 404.125,1182.4375 L404.125,1183.7344 Q404.125,1185.1875 405.1719,1186.1563 Q406.2344,1187.125 408.0938,1187.125 Q409.2031,1187.125 409.9844,1186.8125 Q410.4219,1186.6406 410.9375,1186.125 Q411.25,1185.8125 411.4219,1185.7188 Q411.5938,1185.625 411.8281,1185.625 Q412.2188,1185.625 412.5156,1185.9375 Q412.8281,1186.2344 412.8281,1186.6406 Q412.8281,1187.0469 412.4219,1187.5156 Q411.8281,1188.2031 410.8906,1188.5938 Q409.625,1189.125 408.1094,1189.125 Q406.3281,1189.125 404.9063,1188.3906 Q403.75,1187.7969 402.9375,1186.5313 Q402.125,1185.2656 402.125,1183.7813 L402.125,1182.4219 Q402.125,1180.8594 402.8438,1179.5156 Q403.5781,1178.1563 404.8594,1177.4219 Q406.1563,1176.6875 407.6094,1176.6875 Q408.4688,1176.6875 409.2188,1176.8906 Q409.9844,1177.0938 410.6406,1177.5 Z " fill="#000000"/><text fill="#000000" font-family="sans-serif" font-size="20" lengthAdjust="spacing" textLength="62" x="430.5" y="1190.7617">Person</text><line style="stroke:#4169E1;stroke-width:0.5;" x1="350" x2="538" y1="1200.1563" y2="1200.1563"/><text fill="#000000" font-family="sans-serif" font-size="20" lengthAdjust="spacing" textLength="92" x="355" y="1224.918">-User user</text><text fill="#000000" font-family="sans-serif" font-size="20" lengthAdjust="spacing" textLength="178" x="355" y="1250.0742">-int passportNumber</text><text fill="#000000" font-family="sans-serif" font-size="20" lengthAdjust="spacing" textLength="127" x="355" y="1275.2305">-int taxNumber</text><text fill="#000000" font-family="sans-serif" font-size="20" lengthAdjust="spacing" textLength="154" x="355" y="1300.3867">-int phoneNumber</text><text fill="#000000" font-family="sans-serif" font-size="20" lengthAdjust="spacing" textLength="157" x="355" y="1325.543">-Address address</text><line style="stroke:#4169E1;stroke-width:0.5;" x1="350" x2="538" y1="1333.9375" y2="1333.9375"/></g><!--class Address--><g id="elem_Address"><rect codeLine="115" fill="#FFDAB9" height="176.9375" id="Address" rx="2.5" ry="2.5" style="stroke:#4169E1;stroke-width:0.5;" width="134" x="603" y="1403"/><ellipse cx="631.15" cy="1420.5781" fill="#ADD1B2" rx="12" ry="12" style="stroke:#181818;stroke-width:1.0;"/><path d="M633.2906,1415.5 Q633.4781,1415.25 633.6969,1415.125 Q633.9156,1414.9844 634.1656,1414.9844 Q634.6031,1414.9844 634.8844,1415.2969 Q635.1656,1415.5938 635.1656,1416.3125 L635.1656,1418.0156 Q635.1656,1418.7344 634.8844,1419.0469 Q634.6031,1419.3594 634.1656,1419.3594 Q633.775,1419.3594 633.525,1419.125 Q633.275,1418.9063 633.1656,1418.2969 Q633.1031,1417.875 632.8844,1417.6563 Q632.4938,1417.2188 631.775,1416.9531 Q631.0563,1416.6875 630.3375,1416.6875 Q629.4313,1416.6875 628.6813,1417.0781 Q627.9313,1417.4688 627.3531,1418.3594 Q626.775,1419.2344 626.775,1420.4375 L626.775,1421.7344 Q626.775,1423.1875 627.8219,1424.1563 Q628.8844,1425.125 630.7438,1425.125 Q631.8531,1425.125 632.6344,1424.8125 Q633.0719,1424.6406 633.5875,1424.125 Q633.9,1423.8125 634.0719,1423.7188 Q634.2438,1423.625 634.4781,1423.625 Q634.8688,1423.625 635.1656,1423.9375 Q635.4781,1424.2344 635.4781,1424.6406 Q635.4781,1425.0469 635.0719,1425.5156 Q634.4781,1426.2031 633.5406,1426.5938 Q632.275,1427.125 630.7594,1427.125 Q628.9781,1427.125 627.5563,1426.3906 Q626.4,1425.7969 625.5875,1424.5313 Q624.775,1423.2656 624.775,1421.7813 L624.775,1420.4219 Q624.775,1418.8594 625.4938,1417.5156 Q626.2281,1416.1563 627.5094,1415.4219 Q628.8063,1414.6875 630.2594,1414.6875 Q631.1188,1414.6875 631.8688,1414.8906 Q632.6344,1415.0938 633.2906,1415.5 Z " fill="#000000"/><text fill="#000000" font-family="sans-serif" font-size="20" lengthAdjust="spacing" textLength="73" x="648.85" y="1428.7617">Address</text><line style="stroke:#4169E1;stroke-width:0.5;" x1="604" x2="736" y1="1438.1563" y2="1438.1563"/><text fill="#000000" font-family="sans-serif" font-size="20" lengthAdjust="spacing" textLength="115" x="609" y="1462.918">-String street</text><text fill="#000000" font-family="sans-serif" font-size="20" lengthAdjust="spacing" textLength="94" x="609" y="1488.0742">-String city</text><text fill="#000000" font-family="sans-serif" font-size="20" lengthAdjust="spacing" textLength="122" x="609" y="1513.2305">-String district</text><text fill="#000000" font-family="sans-serif" font-size="20" lengthAdjust="spacing" textLength="108" x="609" y="1538.3867">-String state</text><text fill="#000000" font-family="sans-serif" font-size="20" lengthAdjust="spacing" textLength="100" x="609" y="1563.543">-int zipcode</text><line style="stroke:#4169E1;stroke-width:0.5;" x1="604" x2="736" y1="1571.9375" y2="1571.9375"/></g><!--class Commission--><g id="elem_Commission"><rect codeLine="123" fill="#FFDAB9" height="101.4688" id="Commission" rx="2.5" ry="2.5" style="stroke:#4169E1;stroke-width:0.5;" width="170" x="2100" y="940"/><ellipse cx="2129.5" cy="957.5781" fill="#ADD1B2" rx="12" ry="12" style="stroke:#181818;stroke-width:1.0;"/><path d="M2131.6406,952.5 Q2131.8281,952.25 2132.0469,952.125 Q2132.2656,951.9844 2132.5156,951.9844 Q2132.9531,951.9844 2133.2344,952.2969 Q2133.5156,952.5938 2133.5156,953.3125 L2133.5156,955.0156 Q2133.5156,955.7344 2133.2344,956.0469 Q2132.9531,956.3594 2132.5156,956.3594 Q2132.125,956.3594 2131.875,956.125 Q2131.625,955.9063 2131.5156,955.2969 Q2131.4531,954.875 2131.2344,954.6563 Q2130.8438,954.2188 2130.125,953.9531 Q2129.4063,953.6875 2128.6875,953.6875 Q2127.7813,953.6875 2127.0313,954.0781 Q2126.2813,954.4688 2125.7031,955.3594 Q2125.125,956.2344 2125.125,957.4375 L2125.125,958.7344 Q2125.125,960.1875 2126.1719,961.1563 Q2127.2344,962.125 2129.0938,962.125 Q2130.2031,962.125 2130.9844,961.8125 Q2131.4219,961.6406 2131.9375,961.125 Q2132.25,960.8125 2132.4219,960.7188 Q2132.5938,960.625 2132.8281,960.625 Q2133.2188,960.625 2133.5156,960.9375 Q2133.8281,961.2344 2133.8281,961.6406 Q2133.8281,962.0469 2133.4219,962.5156 Q2132.8281,963.2031 2131.8906,963.5938 Q2130.625,964.125 2129.1094,964.125 Q2127.3281,964.125 2125.9063,963.3906 Q2124.75,962.7969 2123.9375,961.5313 Q2123.125,960.2656 2123.125,958.7813 L2123.125,957.4219 Q2123.125,955.8594 2123.8438,954.5156 Q2124.5781,953.1563 2125.8594,952.4219 Q2127.1563,951.6875 2128.6094,951.6875 Q2129.4688,951.6875 2130.2188,951.8906 Q2130.9844,952.0938 2131.6406,952.5 Z " fill="#000000"/><text fill="#000000" font-family="sans-serif" font-size="20" lengthAdjust="spacing" textLength="106" x="2147.5" y="965.7617">Commission</text><line style="stroke:#4169E1;stroke-width:0.5;" x1="2101" x2="2269" y1="975.1563" y2="975.1563"/><text fill="#000000" font-family="sans-serif" font-size="20" lengthAdjust="spacing" textLength="153" x="2106" y="999.918">-commissionType</text><text fill="#000000" font-family="sans-serif" font-size="20" lengthAdjust="spacing" textLength="158" x="2106" y="1025.0742">-commissionValue</text><line style="stroke:#4169E1;stroke-width:0.5;" x1="2101" x2="2269" y1="1033.4688" y2="1033.4688"/></g><!--class VisitRepository--><g id="elem_VisitRepository"><rect codeLine="127" fill="#FFDAB9" height="51.1563" id="VisitRepository" rx="2.5" ry="2.5" style="stroke:#4169E1;stroke-width:0.5;" width="166" x="1915" y="426.5"/><ellipse cx="1931" cy="444.0781" fill="#ADD1B2" rx="12" ry="12" style="stroke:#181818;stroke-width:1.0;"/><path d="M1933.1406,439 Q1933.3281,438.75 1933.5469,438.625 Q1933.7656,438.4844 1934.0156,438.4844 Q1934.4531,438.4844 1934.7344,438.7969 Q1935.0156,439.0938 1935.0156,439.8125 L1935.0156,441.5156 Q1935.0156,442.2344 1934.7344,442.5469 Q1934.4531,442.8594 1934.0156,442.8594 Q1933.625,442.8594 1933.375,442.625 Q1933.125,442.4063 1933.0156,441.7969 Q1932.9531,441.375 1932.7344,441.1563 Q1932.3438,440.7188 1931.625,440.4531 Q1930.9063,440.1875 1930.1875,440.1875 Q1929.2813,440.1875 1928.5313,440.5781 Q1927.7813,440.9688 1927.2031,441.8594 Q1926.625,442.7344 1926.625,443.9375 L1926.625,445.2344 Q1926.625,446.6875 1927.6719,447.6563 Q1928.7344,448.625 1930.5938,448.625 Q1931.7031,448.625 1932.4844,448.3125 Q1932.9219,448.1406 1933.4375,447.625 Q1933.75,447.3125 1933.9219,447.2188 Q1934.0938,447.125 1934.3281,447.125 Q1934.7188,447.125 1935.0156,447.4375 Q1935.3281,447.7344 1935.3281,448.1406 Q1935.3281,448.5469 1934.9219,449.0156 Q1934.3281,449.7031 1933.3906,450.0938 Q1932.125,450.625 1930.6094,450.625 Q1928.8281,450.625 1927.4063,449.8906 Q1926.25,449.2969 1925.4375,448.0313 Q1924.625,446.7656 1924.625,445.2813 L1924.625,443.9219 Q1924.625,442.3594 1925.3438,441.0156 Q1926.0781,439.6563 1927.3594,438.9219 Q1928.6563,438.1875 1930.1094,438.1875 Q1930.9688,438.1875 1931.7188,438.3906 Q1932.4844,438.5938 1933.1406,439 Z " fill="#000000"/><text fill="#000000" font-family="sans-serif" font-size="20" lengthAdjust="spacing" textLength="132" x="1946" y="452.2617">VisitRepository</text><line style="stroke:#4169E1;stroke-width:0.5;" x1="1916" x2="2080" y1="461.6563" y2="461.6563"/><line style="stroke:#4169E1;stroke-width:0.5;" x1="1916" x2="2080" y1="469.6563" y2="469.6563"/></g><!--class Visit--><g id="elem_Visit"><rect codeLine="130" fill="#FFDAB9" height="176.9375" id="Visit" rx="2.5" ry="2.5" style="stroke:#4169E1;stroke-width:0.5;" width="279" x="2023.5" y="589"/><ellipse cx="2140" cy="606.5781" fill="#ADD1B2" rx="12" ry="12" style="stroke:#181818;stroke-width:1.0;"/><path d="M2142.1406,601.5 Q2142.3281,601.25 2142.5469,601.125 Q2142.7656,600.9844 2143.0156,600.9844 Q2143.4531,600.9844 2143.7344,601.2969 Q2144.0156,601.5938 2144.0156,602.3125 L2144.0156,604.0156 Q2144.0156,604.7344 2143.7344,605.0469 Q2143.4531,605.3594 2143.0156,605.3594 Q2142.625,605.3594 2142.375,605.125 Q2142.125,604.9063 2142.0156,604.2969 Q2141.9531,603.875 2141.7344,603.6563 Q2141.3438,603.2188 2140.625,602.9531 Q2139.9063,602.6875 2139.1875,602.6875 Q2138.2813,602.6875 2137.5313,603.0781 Q2136.7813,603.4688 2136.2031,604.3594 Q2135.625,605.2344 2135.625,606.4375 L2135.625,607.7344 Q2135.625,609.1875 2136.6719,610.1563 Q2137.7344,611.125 2139.5938,611.125 Q2140.7031,611.125 2141.4844,610.8125 Q2141.9219,610.6406 2142.4375,610.125 Q2142.75,609.8125 2142.9219,609.7188 Q2143.0938,609.625 2143.3281,609.625 Q2143.7188,609.625 2144.0156,609.9375 Q2144.3281,610.2344 2144.3281,610.6406 Q2144.3281,611.0469 2143.9219,611.5156 Q2143.3281,612.2031 2142.3906,612.5938 Q2141.125,613.125 2139.6094,613.125 Q2137.8281,613.125 2136.4063,612.3906 Q2135.25,611.7969 2134.4375,610.5313 Q2133.625,609.2656 2133.625,607.7813 L2133.625,606.4219 Q2133.625,604.8594 2134.3438,603.5156 Q2135.0781,602.1563 2136.3594,601.4219 Q2137.6563,600.6875 2139.1094,600.6875 Q2139.9688,600.6875 2140.7188,600.8906 Q2141.4844,601.0938 2142.1406,601.5 Z " fill="#000000"/><text fill="#000000" font-family="sans-serif" font-size="20" lengthAdjust="spacing" textLength="37" x="2162" y="614.7617">Visit</text><line style="stroke:#4169E1;stroke-width:0.5;" x1="2024.5" x2="2301.5" y1="624.1563" y2="624.1563"/><text fill="#000000" font-family="sans-serif" font-size="20" lengthAdjust="spacing" textLength="267" x="2029.5" y="648.918">-Announcement announcement</text><text fill="#000000" font-family="sans-serif" font-size="20" lengthAdjust="spacing" textLength="112" x="2029.5" y="674.0742">-String name</text><text fill="#000000" font-family="sans-serif" font-size="20" lengthAdjust="spacing" textLength="154" x="2029.5" y="699.2305">-int phoneNumber</text><text fill="#000000" font-family="sans-serif" font-size="20" lengthAdjust="spacing" textLength="94" x="2029.5" y="724.3867">-Date date</text><text fill="#000000" font-family="sans-serif" font-size="20" lengthAdjust="spacing" textLength="139" x="2029.5" y="749.543">-Time startTime</text><line style="stroke:#4169E1;stroke-width:0.5;" x1="2024.5" x2="2301.5" y1="757.9375" y2="757.9375"/></g><!--class Date--><g id="elem_Date"><rect codeLine="161" fill="#FFDAB9" height="126.625" id="Date" rx="2.5" ry="2.5" style="stroke:#4169E1;stroke-width:0.5;" width="132" x="1939" y="1428"/><ellipse cx="1980.2" cy="1445.5781" fill="#ADD1B2" rx="12" ry="12" style="stroke:#181818;stroke-width:1.0;"/><path d="M1982.3406,1440.5 Q1982.5281,1440.25 1982.7469,1440.125 Q1982.9656,1439.9844 1983.2156,1439.9844 Q1983.6531,1439.9844 1983.9344,1440.2969 Q1984.2156,1440.5938 1984.2156,1441.3125 L1984.2156,1443.0156 Q1984.2156,1443.7344 1983.9344,1444.0469 Q1983.6531,1444.3594 1983.2156,1444.3594 Q1982.825,1444.3594 1982.575,1444.125 Q1982.325,1443.9063 1982.2156,1443.2969 Q1982.1531,1442.875 1981.9344,1442.6563 Q1981.5438,1442.2188 1980.825,1441.9531 Q1980.1063,1441.6875 1979.3875,1441.6875 Q1978.4813,1441.6875 1977.7313,1442.0781 Q1976.9813,1442.4688 1976.4031,1443.3594 Q1975.825,1444.2344 1975.825,1445.4375 L1975.825,1446.7344 Q1975.825,1448.1875 1976.8719,1449.1563 Q1977.9344,1450.125 1979.7938,1450.125 Q1980.9031,1450.125 1981.6844,1449.8125 Q1982.1219,1449.6406 1982.6375,1449.125 Q1982.95,1448.8125 1983.1219,1448.7188 Q1983.2938,1448.625 1983.5281,1448.625 Q1983.9188,1448.625 1984.2156,1448.9375 Q1984.5281,1449.2344 1984.5281,1449.6406 Q1984.5281,1450.0469 1984.1219,1450.5156 Q1983.5281,1451.2031 1982.5906,1451.5938 Q1981.325,1452.125 1979.8094,1452.125 Q1978.0281,1452.125 1976.6063,1451.3906 Q1975.45,1450.7969 1974.6375,1449.5313 Q1973.825,1448.2656 1973.825,1446.7813 L1973.825,1445.4219 Q1973.825,1443.8594 1974.5438,1442.5156 Q1975.2781,1441.1563 1976.5594,1440.4219 Q1977.8563,1439.6875 1979.3094,1439.6875 Q1980.1688,1439.6875 1980.9188,1439.8906 Q1981.6844,1440.0938 1982.3406,1440.5 Z " fill="#000000"/><text fill="#000000" font-family="sans-serif" font-size="20" lengthAdjust="spacing" textLength="42" x="2000.8" y="1453.7617">Date</text><line style="stroke:#4169E1;stroke-width:0.5;" x1="1940" x2="2070" y1="1463.1563" y2="1463.1563"/><text fill="#000000" font-family="sans-serif" font-size="20" lengthAdjust="spacing" textLength="72" x="1945" y="1487.918">-int year</text><text fill="#000000" font-family="sans-serif" font-size="20" lengthAdjust="spacing" textLength="120" x="1945" y="1513.0742">-Month month</text><text fill="#000000" font-family="sans-serif" font-size="20" lengthAdjust="spacing" textLength="65" x="1945" y="1538.2305">-int day</text><line style="stroke:#4169E1;stroke-width:0.5;" x1="1940" x2="2070" y1="1546.625" y2="1546.625"/></g><!--class RequestRepository--><g id="elem_RequestRepository"><rect fill="#FFDAB9" height="51.1563" id="RequestRepository" rx="2.5" ry="2.5" style="stroke:#4169E1;stroke-width:0.5;" width="202" x="577" y="426.5"/><ellipse cx="593" cy="444.0781" fill="#ADD1B2" rx="12" ry="12" style="stroke:#181818;stroke-width:1.0;"/><path d="M595.1406,439 Q595.3281,438.75 595.5469,438.625 Q595.7656,438.4844 596.0156,438.4844 Q596.4531,438.4844 596.7344,438.7969 Q597.0156,439.0938 597.0156,439.8125 L597.0156,441.5156 Q597.0156,442.2344 596.7344,442.5469 Q596.4531,442.8594 596.0156,442.8594 Q595.625,442.8594 595.375,442.625 Q595.125,442.4063 595.0156,441.7969 Q594.9531,441.375 594.7344,441.1563 Q594.3438,440.7188 593.625,440.4531 Q592.9063,440.1875 592.1875,440.1875 Q591.2813,440.1875 590.5313,440.5781 Q589.7813,440.9688 589.2031,441.8594 Q588.625,442.7344 588.625,443.9375 L588.625,445.2344 Q588.625,446.6875 589.6719,447.6563 Q590.7344,448.625 592.5938,448.625 Q593.7031,448.625 594.4844,448.3125 Q594.9219,448.1406 595.4375,447.625 Q595.75,447.3125 595.9219,447.2188 Q596.0938,447.125 596.3281,447.125 Q596.7188,447.125 597.0156,447.4375 Q597.3281,447.7344 597.3281,448.1406 Q597.3281,448.5469 596.9219,449.0156 Q596.3281,449.7031 595.3906,450.0938 Q594.125,450.625 592.6094,450.625 Q590.8281,450.625 589.4063,449.8906 Q588.25,449.2969 587.4375,448.0313 Q586.625,446.7656 586.625,445.2813 L586.625,443.9219 Q586.625,442.3594 587.3438,441.0156 Q588.0781,439.6563 589.3594,438.9219 Q590.6563,438.1875 592.1094,438.1875 Q592.9688,438.1875 593.7188,438.3906 Q594.4844,438.5938 595.1406,439 Z " fill="#000000"/><text fill="#000000" font-family="sans-serif" font-size="20" lengthAdjust="spacing" textLength="168" x="608" y="452.2617">RequestRepository</text><line style="stroke:#4169E1;stroke-width:0.5;" x1="578" x2="778" y1="461.6563" y2="461.6563"/><line style="stroke:#4169E1;stroke-width:0.5;" x1="578" x2="778" y1="469.6563" y2="469.6563"/></g><!--link Store to Store--><g id="link_Store_Store"><path codeLine="170" d="M213.23,432.77 C233.42,434.72 248,441.13 248,452 C248,461.94 235.82,468.15 218.31,470.63 " fill="none" id="Store-to-Store" style="stroke:#4169E1;stroke-width:1.0;"/><polygon fill="#4169E1" points="213.23,471.23,222.6372,474.1463,218.1955,470.6433,221.6985,466.2016,213.23,471.23" style="stroke:#4169E1;stroke-width:1.0;"/><text fill="#000000" font-family="sans-serif" font-size="20" lengthAdjust="spacing" textLength="72" x="254" y="460.2617">instance</text></g><!--link Store to UserStore--><g id="link_Store_UserStore"><path codeLine="171" d="M118,528.04 C118,568.68 118,616.61 118,646.78 " fill="none" id="Store-to-UserStore" style="stroke:#4169E1;stroke-width:1.0;"/><polygon fill="#4169E1" points="118,651.83,122,642.83,118,646.83,114,642.83,118,651.83" style="stroke:#4169E1;stroke-width:1.0;"/></g><!--link Store to UserRoleStore--><g id="link_Store_UserRoleStore"><path codeLine="172" d="M161.66,528.16 C179.93,559.61 197,589 197,589 C197,589 215.62,728.08 224,790.64 " fill="none" id="Store-to-UserRoleStore" style="stroke:#4169E1;stroke-width:1.0;"/><polygon fill="#4169E1" points="224.68,795.73,227.4626,786.2824,224.0229,790.7734,219.532,787.3337,224.68,795.73" style="stroke:#4169E1;stroke-width:1.0;"/></g><!--link UserRoleStore to UserRole--><g id="link_UserRoleStore_UserRole"><path codeLine="173" d="M227.91,847.48 C227.67,916.37 227,1104 227,1104 C227,1104 211.41,1155.46 198.58,1197.79 " fill="none" id="UserRoleStore-to-UserRole" style="stroke:#4169E1;stroke-width:1.0;stroke-dasharray:7.0,7.0;"/><polygon fill="#4169E1" points="197.11,1202.64,203.5377,1195.1777,198.5533,1197.8528,195.8782,1192.8685,197.11,1202.64" style="stroke:#4169E1;stroke-width:1.0;"/></g><!--link UserStore to User--><g id="link_UserStore_User"><path codeLine="174" d="M118,703.16 C118,747.13 118,840.83 118,909.11 " fill="none" id="UserStore-to-User" style="stroke:#4169E1;stroke-width:1.0;stroke-dasharray:7.0,7.0;"/><polygon fill="#4169E1" points="118,914.39,122,905.39,118,909.39,114,905.39,118,914.39" style="stroke:#4169E1;stroke-width:1.0;"/></g><!--link User to UserRole--><g id="link_User_UserRole"><path codeLine="175" d="M136.43,1066.64 C146.01,1105.71 157.58,1152.9 166.66,1189.95 " fill="none" id="User-to-UserRole" style="stroke:#4169E1;stroke-width:1.0;"/><polygon fill="#4169E1" points="169.77,1202.61,172.2315,1195.832,166.9217,1190.9529,164.4601,1197.7309,169.77,1202.61" style="stroke:#4169E1;stroke-width:1.0;"/></g><!--link User to Person--><g id="link_User_Person"><path codeLine="178" d="M210.11,1065.25 C250.12,1097.28 297.21,1134.97 338.6,1168.12 " fill="none" id="User-to-Person" style="stroke:#4169E1;stroke-width:1.0;"/><polygon fill="#4169E1" points="349,1176.44,346.8089,1169.5699,339.6244,1168.9501,341.8156,1175.8202,349,1176.44" style="stroke:#4169E1;stroke-width:1.0;"/></g><!--link Repositories to Repositories--><g id="link_Repositories_Repositories"><path codeLine="180" d="M1218.73,117.65 C1239.52,122.2 1253.5,131.64 1253.5,146 C1253.5,159.12 1241.82,168.14 1223.93,173.07 " fill="none" id="Repositories-to-Repositories" style="stroke:#4169E1;stroke-width:1.0;"/><polygon fill="#4169E1" points="1218.73,174.35,1228.4267,176.0746,1223.5841,173.1508,1226.5079,168.3081,1218.73,174.35" style="stroke:#4169E1;stroke-width:1.0;"/><text fill="#000000" font-family="sans-serif" font-size="20" lengthAdjust="spacing" textLength="72" x="1259.5" y="154.2617">instance</text></g><!--link Repositories to AgencyRepository--><g id="link_Repositories_AgencyRepository"><path codeLine="181" d="M999.89,285.21 C972.4,336.49 943.77,389.88 926.67,421.77 " fill="none" id="Repositories-to-AgencyRepository" style="stroke:#4169E1;stroke-width:1.0;"/><polygon fill="#4169E1" points="924.23,426.32,931.9978,420.2651,926.5852,421.9094,924.9408,416.4968,924.23,426.32" style="stroke:#4169E1;stroke-width:1.0;"/></g><!--link Repositories to PersonRepository--><g id="link_Repositories_PersonRepository"><path codeLine="182" d="M929.45,196.78 C777.43,249.13 560,324 560,324 C560,324 505.47,384.74 471.84,422.21 " fill="none" id="Repositories-to-PersonRepository" style="stroke:#4169E1;stroke-width:1.0;"/><polygon fill="#4169E1" points="468.25,426.21,477.2439,422.1962,471.5948,422.4935,471.2975,416.8445,468.25,426.21" style="stroke:#4169E1;stroke-width:1.0;"/></g><!--link Repositories to AnnouncementRepository--><g id="link_Repositories_AnnouncementRepository"><path codeLine="183" d="M1118.56,285.21 C1135.02,336.28 1152.15,389.44 1162.45,421.38 " fill="none" id="Repositories-to-AnnouncementRepository" style="stroke:#4169E1;stroke-width:1.0;"/><polygon fill="#4169E1" points="1164.04,426.32,1165.077,416.5259,1162.5017,421.5625,1157.465,418.9872,1164.04,426.32" style="stroke:#4169E1;stroke-width:1.0;"/></g><!--link Repositories to AuthenticationRepository--><g id="link_Repositories_AuthenticationRepository"><path codeLine="184" d="M1218.76,252.01 C1271.3,290.12 1318,324 1318,324 C1318,324 1386.95,385.24 1429.1,422.67 " fill="none" id="Repositories-to-AuthenticationRepository" style="stroke:#4169E1;stroke-width:1.0;"/><polygon fill="#4169E1" points="1433.09,426.21,1429.0038,417.2488,1429.3467,422.8953,1423.7002,423.2382,1433.09,426.21" style="stroke:#4169E1;stroke-width:1.0;"/></g><!--link Repositories to RequestRepository--><g id="link_Repositories_RequestRepository"><path codeLine="185" d="M929.42,239.39 C862.25,282.3 797,324 797,324 C797,324 740.08,384.74 704.97,422.21 " fill="none" id="Repositories-to-RequestRepository" style="stroke:#4169E1;stroke-width:1.0;"/><polygon fill="#4169E1" points="701.23,426.21,710.3031,422.3787,704.6492,422.5619,704.4661,416.908,701.23,426.21" style="stroke:#4169E1;stroke-width:1.0;"/></g><!--link Repositories to VisitRepository--><g id="link_Repositories_VisitRepository"><path codeLine="186" d="M1218.63,194.58 C1415.9,259.49 1762.58,373.54 1918.31,424.78 " fill="none" id="Repositories-to-VisitRepository" style="stroke:#4169E1;stroke-width:1.0;"/><polygon fill="#4169E1" points="1923.31,426.43,1916.0188,419.8089,1918.5623,424.8617,1913.5095,427.4052,1923.31,426.43" style="stroke:#4169E1;stroke-width:1.0;"/></g><!--link AgencyRepository to Agency--><g id="link_AgencyRepository_Agency"><path codeLine="189" d="M904.58,477.73 C873.71,596.64 742,1104 742,1104 C742,1104 732.95,1129.84 722.4,1159.96 " fill="none" id="AgencyRepository-to-Agency" style="stroke:#4169E1;stroke-width:1.0;stroke-dasharray:7.0,7.0;"/><polygon fill="#4169E1" points="720.7,1164.83,727.4583,1157.6658,722.3581,1160.1129,719.911,1155.0128,720.7,1164.83" style="stroke:#4169E1;stroke-width:1.0;"/></g><!--reverse link Agency to Address--><g id="link_Agency_Address"><path codeLine="190" d="M681.47,1355.19 C680.13,1371 678.75,1387.22 677.44,1402.71 " fill="none" id="Agency-backto-Address" style="stroke:#4169E1;stroke-width:1.0;"/><polygon fill="#4169E1" points="682.58,1342.04,678.0868,1347.6801,681.5649,1353.997,686.0581,1348.3569,682.58,1342.04" style="stroke:#4169E1;stroke-width:1.0;"/></g><!--reverse link Announcement to Commission--><g id="link_Announcement_Commission"><path codeLine="191" d="M1978.99,748.37 C1994.86,758.72 2006,766 2006,766 C2006,766 2073,796 2073,796 C2073,796 2123.12,882.59 2156.3,939.92 " fill="none" id="Announcement-backto-Commission" style="stroke:#4169E1;stroke-width:1.0;"/><polygon fill="#4169E1" points="1967.96,741.16,1970.8003,747.7882,1978.0111,747.7156,1975.1707,741.0875,1967.96,741.16" style="stroke:#4169E1;stroke-width:1.0;"/></g><!--reverse link Announcement to Date--><g id="link_Announcement_Date"><path codeLine="192" d="M1923.33,751.8 C1962.93,808.35 2011,877 2011,877 C2011,877 2011,1104 2011,1104 C2011,1104 2007.67,1318.58 2005.97,1427.97 " fill="none" id="Announcement-backto-Date" style="stroke:#4169E1;stroke-width:1.0;"/><polygon fill="#4169E1" points="1915.79,741.03,1915.9571,748.2392,1922.676,750.8577,1922.5089,743.6485,1915.79,741.03" style="stroke:#4169E1;stroke-width:1.0;"/></g><!--reverse link Request to Property--><g id="link_Request_Property"><path codeLine="193" d="M757.25,758.82 C806.16,794.78 864.68,837.81 917.86,876.91 " fill="none" id="Request-backto-Property" style="stroke:#4169E1;stroke-width:1.0;"/><polygon fill="#4169E1" points="746.64,751.02,749.1042,757.797,756.3076,758.1289,753.8435,751.3519,746.64,751.02" style="stroke:#4169E1;stroke-width:1.0;"/></g><!--reverse link Request to Employee--><g id="link_Request_Employee"><path codeLine="194" d="M648,766.97 C648,828.2 648,906.59 648,952.12 " fill="none" id="Request-backto-Employee" style="stroke:#4169E1;stroke-width:1.0;"/><polygon fill="#4169E1" points="648,753.78,644,759.78,648,765.78,652,759.78,648,753.78" style="stroke:#4169E1;stroke-width:1.0;"/></g><!--reverse link Request to Person--><g id="link_Request_Person"><path codeLine="195" d="M606.78,765.54 C581.52,818.88 554,877 554,877 C554,877 502.16,1053.98 469.65,1164.94 " fill="none" id="Request-backto-Person" style="stroke:#4169E1;stroke-width:1.0;"/><polygon fill="#4169E1" points="612.46,753.54,606.2779,757.2523,607.3269,764.3867,613.509,760.6744,612.46,753.54" style="stroke:#4169E1;stroke-width:1.0;"/></g><!--reverse link Request to Date--><g id="link_Request_Date"><path codeLine="196" d="M759.16,714.09 C937.57,771.21 1268,877 1268,877 C1268,877 1661,1165 1661,1165 C1661,1165 1836,1342 1836,1342 C1836,1342 1922,1403 1922,1403 C1922,1403 1932.26,1413.81 1945.56,1427.84 " fill="none" id="Request-backto-Date" style="stroke:#4169E1;stroke-width:1.0;"/><polygon fill="#4169E1" points="746.58,710.06,751.078,715.6963,758.0108,713.712,753.5127,708.0758,746.58,710.06" style="stroke:#4169E1;stroke-width:1.0;"/></g><!--reverse link Deal to Sale--><g id="link_Deal_Sale"><path codeLine="197" d="M1502.43,1315.2 C1563.71,1354.19 1642.32,1404.19 1699.88,1440.81 " fill="none" id="Deal-backto-Sale" style="stroke:#4169E1;stroke-width:1.0;"/><polygon fill="none" points="1498.34,1320.9,1485.23,1304.26,1505.86,1309.09,1498.34,1320.9" style="stroke:#4169E1;stroke-width:1.0;"/></g><!--reverse link Deal to Rent--><g id="link_Deal_Rent"><path codeLine="198" d="M1409.07,1324.3 C1410.04,1357.1 1411.19,1395.89 1412.14,1427.75 " fill="none" id="Deal-backto-Rent" style="stroke:#4169E1;stroke-width:1.0;"/><polygon fill="none" points="1402.07,1324.46,1408.48,1304.26,1416.07,1324.04,1402.07,1324.46" style="stroke:#4169E1;stroke-width:1.0;"/></g><!--reverse link Property to Deal--><g id="link_Property_Deal"><path codeLine="199" d="M1226.37,1112.19 C1267.55,1144.18 1309.75,1176.96 1342.99,1202.78 " fill="none" id="Property-backto-Deal" style="stroke:#4169E1;stroke-width:1.0;"/><polygon fill="#4169E1" points="1215.93,1104.08,1218.2176,1110.9186,1225.41,1111.4372,1223.1224,1104.5986,1215.93,1104.08" style="stroke:#4169E1;stroke-width:1.0;"/></g><!--reverse link Property to Land--><g id="link_Property_Land"><path codeLine="200" d="M1268.85,1063.31 C1400.36,1111.05 1549,1165 1549,1165 C1549,1165 1572.55,1201.79 1589.1,1227.66 " fill="none" id="Property-backto-Land" style="stroke:#4169E1;stroke-width:1.0;"/><polygon fill="none" points="1266.42,1069.88,1250.01,1056.48,1271.2,1056.72,1266.42,1069.88" style="stroke:#4169E1;stroke-width:1.0;"/></g><!--reverse link Property to Home--><g id="link_Property_Home"><path codeLine="201" d="M1071,1124.17 C1071,1142.36 1071,1160.5 1071,1177.16 " fill="none" id="Property-backto-Home" style="stroke:#4169E1;stroke-width:1.0;"/><polygon fill="none" points="1064,1124.08,1071,1104.08,1078,1124.08,1064,1124.08" style="stroke:#4169E1;stroke-width:1.0;"/></g><!--reverse link Property to Address--><g id="link_Property_Address"><path codeLine="202" d="M935.27,1112.88 C902.64,1142.07 877,1165 877,1165 C877,1165 805,1342 805,1342 C805,1342 770.99,1379.42 737.1,1416.69 " fill="none" id="Property-backto-Address" style="stroke:#4169E1;stroke-width:1.0;"/><polygon fill="#4169E1" points="945.12,1104.07,937.9817,1105.092,936.1795,1112.0742,943.3178,1111.0523,945.12,1104.07" style="stroke:#4169E1;stroke-width:1.0;"/></g><!--reverse link Home to House--><g id="link_Home_House"><path codeLine="203" d="M1068.57,1349.93 C1067.91,1376.14 1067.2,1403.89 1066.6,1427.75 " fill="none" id="Home-backto-House" style="stroke:#4169E1;stroke-width:1.0;"/><polygon fill="none" points="1061.58,1349.64,1069.09,1329.82,1075.57,1349.99,1061.58,1349.64" style="stroke:#4169E1;stroke-width:1.0;"/></g><!--reverse link Home to Appartement--><g id="link_Home_Appartement"><path codeLine="204" d="M985.32,1344.37 C943.74,1387.98 896.97,1437.04 869.57,1465.78 " fill="none" id="Home-backto-Appartement" style="stroke:#4169E1;stroke-width:1.0;"/><polygon fill="none" points="980.32,1339.47,999.19,1329.82,990.46,1349.13,980.32,1339.47" style="stroke:#4169E1;stroke-width:1.0;"/></g><!--link PersonRepository to Person--><g id="link_PersonRepository_Person"><path codeLine="206" d="M445.94,477.8 C445.68,580.75 444.69,977.48 444.23,1159.85 " fill="none" id="PersonRepository-to-Person" style="stroke:#4169E1;stroke-width:1.0;stroke-dasharray:7.0,7.0;"/><polygon fill="#4169E1" points="444.22,1164.91,448.2457,1155.9215,444.2343,1159.91,440.2457,1155.8986,444.22,1164.91" style="stroke:#4169E1;stroke-width:1.0;"/></g><!--link Person to Person--><g id="link_Person_Person"><path codeLine="207" d="M539.23,1232.09 C559.42,1234.26 574,1241.4 574,1253.5 C574,1262.76 565.45,1269.12 552.39,1272.56 " fill="none" id="Person-to-Person" style="stroke:#4169E1;stroke-width:1.0;"/><polygon fill="#4169E1" points="539.23,1274.91,545.8397,1277.793,551.0431,1272.8005,544.4334,1269.9175,539.23,1274.91" style="stroke:#4169E1;stroke-width:1.0;"/></g><!--link Employee to Person--><g id="link_Employee_Person"><path codeLine="210" d="M620.69,1028.83 C589.58,1071.35 543,1135 543,1135 C543,1135 538.24,1140.65 530.82,1149.46 " fill="none" id="Employee-to-Person" style="stroke:#4169E1;stroke-width:1.0;"/><polygon fill="none" points="536,1154.17,517.76,1164.95,525.3,1145.15,536,1154.17" style="stroke:#4169E1;stroke-width:1.0;"/></g><!--reverse link Employee to Agency--><g id="link_Employee_Agency"><path codeLine="211" d="M656.09,1041.78 C661.69,1076.6 669.3,1123.87 675.89,1164.82 " fill="none" id="Employee-backto-Agency" style="stroke:#4169E1;stroke-width:1.0;"/><polygon fill="#4169E1" points="653.97,1028.62,650.9776,1035.1809,655.8829,1040.4666,658.8753,1033.9057,653.97,1028.62" style="stroke:#4169E1;stroke-width:1.0;"/></g><!--link AnnouncementRepository to Announcement--><g id="link_AnnouncementRepository_Announcement"><path codeLine="214" d="M1219.81,477.56 C1262.39,499.43 1318,528 1318,528 C1318,528 1586.78,600.05 1749.91,643.77 " fill="none" id="AnnouncementRepository-to-Announcement" style="stroke:#4169E1;stroke-width:1.0;stroke-dasharray:7.0,7.0;"/><polygon fill="#4169E1" points="1755.19,645.19,1747.5223,639.0089,1750.3584,643.9035,1745.4638,646.7396,1755.19,645.19" style="stroke:#4169E1;stroke-width:1.0;"/></g><!--link Announcement to Orders--><g id="link_Announcement_Orders"><path codeLine="215" d="M1872,741.06 C1872,804.39 1872,900.19 1872,952.39 " fill="none" id="Announcement-Orders" style="stroke:#4169E1;stroke-width:1.0;"/><text fill="#000000" font-family="sans-serif" font-size="20" lengthAdjust="spacing" textLength="11" x="1860.4586" y="769.335">1</text><text fill="#000000" font-family="sans-serif" font-size="20" lengthAdjust="spacing" textLength="11" x="1860.1234" y="940.0733">1</text></g><!--link Orders to Order--><g id="link_Orders_Order"><path codeLine="216" d="M1878.26,1028.62 C1885.94,1074.22 1899.02,1151.76 1907.58,1202.56 " fill="none" id="Orders-Order" style="stroke:#4169E1;stroke-width:1.0;"/><text fill="#000000" font-family="sans-serif" font-size="20" lengthAdjust="spacing" textLength="11" x="1867.3811" y="1057.4368">1</text><text fill="#000000" font-family="sans-serif" font-size="20" lengthAdjust="spacing" textLength="8" x="1898.0663" y="1190.5709">*</text></g><!--link RequestRepository to Request--><g id="link_RequestRepository_Request"><path codeLine="219" d="M674.67,477.77 C670.85,506.28 664.37,554.54 658.76,596.37 " fill="none" id="RequestRepository-to-Request" style="stroke:#4169E1;stroke-width:1.0;stroke-dasharray:7.0,7.0;"/><polygon fill="#4169E1" points="658.08,601.43,663.228,593.0337,658.7371,596.4734,655.2974,591.9824,658.08,601.43" style="stroke:#4169E1;stroke-width:1.0;"/></g><!--reverse link Order to Date--><g id="link_Order_Date"><path codeLine="220" d="M1939.38,1316.5 C1952.32,1350.8 1968.35,1393.32 1981.33,1427.75 " fill="none" id="Order-backto-Date" style="stroke:#4169E1;stroke-width:1.0;"/><polygon fill="#4169E1" points="1934.77,1304.26,1933.145,1311.2856,1939.0052,1315.4878,1940.6302,1308.4622,1934.77,1304.26" style="stroke:#4169E1;stroke-width:1.0;"/></g><!--link VisitRepository to Visit--><g id="link_VisitRepository_Visit"><path codeLine="223" d="M2016.29,477.77 C2035.39,503.65 2066.52,545.82 2095.2,584.67 " fill="none" id="VisitRepository-to-Visit" style="stroke:#4169E1;stroke-width:1.0;stroke-dasharray:7.0,7.0;"/><polygon fill="#4169E1" points="2098.33,588.9,2096.2068,579.2827,2095.3621,584.8762,2089.7686,584.0314,2098.33,588.9" style="stroke:#4169E1;stroke-width:1.0;"/></g><!--reverse link Person to Address--><g id="link_Person_Address"><path codeLine="227" d="M536.9,1351.51 C559.01,1374.6 582.18,1398.8 602.88,1420.41 " fill="none" id="Person-backto-Address" style="stroke:#4169E1;stroke-width:1.0;"/><polygon fill="#4169E1" points="527.83,1342.04,529.0956,1349.1392,536.1354,1350.7014,534.8698,1343.6022,527.83,1342.04" style="stroke:#4169E1;stroke-width:1.0;"/></g><!--SRC=[VLTDRziu4BthLn2zn4dNGTjZK0H8qWGDa6wDkEsTbiOs4ObKIMfJr_L_x_2RekNr8JRV6mw7RuP3HhqmtbD9krRKBz2G1jPqQFM3u7h9VWFvyAuwKy66T8ABUYj51qJB0Qh4zBH-eHjOwbqBH4AjAT-qkO7QqaQyChuXQzggd6aP1xthWVIYtPb1lc8aXTIYocRLBLNgHcl9LeE6nrfm6o-6Em-V1uQnA6ryRY9OkY3xYk3d5kFVI37mvawqGf85q7gx6DPhozv8ALuTyInsjBrjSVDscf0Do98vL6Sjh3NHWaYssMhIC2C94xogtABFq0l5j90Cb0jWdaEpSukztO1-v0grh65sJgv6qwB5pGPulOlKBfky0Aa4dwHkECVTrj01rzC6WzuYnsfg0fyqkUyeQoUPP_WvW9fs_8CXD68ENfMlHioW1sfETqzCQVBHujV4Qgt6rjxu4zL06lpZXeqOLfZxNh8QgZYX5ChDBMXV3_CbLXOMAsj6mmOKst2hYCCPrwJV2Wx_3jqAvCWOZ3mtJID1kMpDYHyHwj53h0Uhbr-RBAJeGUeTxi3zyFXzrxTY1u2ktOzWR_FilpoM93bK5LqfBMcjVSq7_s4zu0CUOTICrP7xXgVEqrvEAe4-yYyVncZ3N84-O5kuOtftXqKJX21P4fqerqOjBRu_FvrGn0SFj4MnQUkg9WOrowExwhE1gQ9Ybv-nJ-rJchZDqDVrBJHIY4vDC5HlJr0BAh5lR9ROv-2eFiFMw7-OS8gYtFySM6zELapmPp6e40nP2T42vMH5bJr_1SpubgwODewUn3gmlgZKmEz_OGKF4bBbzjZGj7LLrFGJvSs-EfR6wZkLVKF4pB-rmrd0hXh_8vtO9SKAs8yB8cHbOK-VyrDZwMWmrhCHVPwT0AvFE7fE4fcKOAktM_aqo7GGmnB6TfPF_EV8FgrPjiTzwXNXf8Lcv7e3jLz9zyaUcdd93SBcxaJNCQKm48mi_3mwisxism9UgFOx-JtHcxEbtTx2ejyLI88LA3CTUpJhyLhDEvSbDFrrX1trk9EjBE3xecwr12XgkMQniuN-YkS9wwAiUPqaCS7yPdqj6jlOt9f9qx1gaZRhOmdyGTqzxQONDrAcecM2ppoRX6Q3SRISTl2_ofLP_iOwyqx18sn-uTh-CKNkVs4dvRHzOYj9pPr_QHAFe_dxotSkAXUcIUyIGpTdqSA7Z0m4yP-v1S8RmoAZTyO8Zfudy6S1RSuTYeYo9UrLc8Qcz5xnEaz85CsEd7Ti0OF_CUdV47RzYKq7Fek1DIGDy2Al9UjZ_pZ4b9lixBFyxO26n7t1Jh8rZs2zpGmQQZe2VivEvgjoEPZFhtqshd2cqpkZejO55lTPZKRayZBnLIg101EBePUBP7NcdmY9ya-7gihVbdRf4P05V6HOlgkEBSf6E-5ZifLEs9teV5FX5q_GOvFYt6C6ZxPI0bPT1tgENCnZCwn6BS8GgJCTSwRIgj3Y3H0UDoCmt4HZIvV67BBUxBt-yGyEpLsR3UqT6f-LrjwyhY9YZSnheO3C6seyBspLCC46ZsaspfuZeU0oHKl0AkhtuuinrQKvL7x_cOlu39xF_yIv4RH1kWnXGgVhQXfsoSqR-oXdRzw_mHNjb_jFfN9VaRZm1AuxLNq5ObVpgFEKybYTsTgiYWgrKno37wzMdfI_]--></g></svg>