<?xml version="1.0" encoding="UTF-8" standalone="no"?><svg xmlns="http://www.w3.org/2000/svg" xmlns:xlink="http://www.w3.org/1999/xlink" contentStyleType="text/css" height="1135px" preserveAspectRatio="none" style="width:605px;height:1135px;background:#FFFFFF;" version="1.1" viewBox="0 0 605 1135" width="605px" zoomAndPan="magnify"><defs/><g><!--class Person--><g id="elem_Person"><rect codeLine="16" fill="#FFDAB9" height="194.0938" id="Person" rx="2.5" ry="2.5" style="stroke:#4169E1;stroke-width:0.5;" width="192" x="7" y="7"/><text fill="#000000" font-family="sans-serif" font-size="20" lengthAdjust="spacing" textLength="62" x="72" y="32.7617">Person</text><line style="stroke:#4169E1;stroke-width:0.5;" x1="8" x2="198" y1="42.1563" y2="42.1563"/><rect fill="none" height="6" style="stroke:#C82930;stroke-width:1.0;" width="6" x="15" y="57.2344"/><text fill="#000000" font-family="sans-serif" font-size="20" lengthAdjust="spacing" textLength="48" x="28" y="66.918">name</text><rect fill="none" height="6" style="stroke:#C82930;stroke-width:1.0;" width="6" x="15" y="82.3906"/><text fill="#000000" font-family="sans-serif" font-size="20" lengthAdjust="spacing" textLength="165" x="28" y="92.0742">citizenCardNumber</text><rect fill="none" height="6" style="stroke:#C82930;stroke-width:1.0;" width="6" x="15" y="107.5469"/><text fill="#000000" font-family="sans-serif" font-size="20" lengthAdjust="spacing" textLength="94" x="28" y="117.2305">taxNumber</text><rect fill="none" height="6" style="stroke:#C82930;stroke-width:1.0;" width="6" x="15" y="132.7031"/><text fill="#000000" font-family="sans-serif" font-size="20" lengthAdjust="spacing" textLength="46" x="28" y="142.3867">email</text><rect fill="none" height="6" style="stroke:#C82930;stroke-width:1.0;" width="6" x="15" y="157.8594"/><text fill="#000000" font-family="sans-serif" font-size="20" lengthAdjust="spacing" textLength="121" x="28" y="167.543">phoneNumber</text><rect fill="none" height="6" style="stroke:#C82930;stroke-width:1.0;" width="6" x="15" y="183.0156"/><text fill="#000000" font-family="sans-serif" font-size="20" lengthAdjust="spacing" textLength="86" x="28" y="192.6992">password</text></g><!--class Property--><g id="elem_Property"><rect codeLine="26" fill="#FFDAB9" height="143.7813" id="Property" rx="2.5" ry="2.5" style="stroke:#4169E1;stroke-width:0.5;" width="239" x="271.5" y="804"/><text fill="#000000" font-family="sans-serif" font-size="20" lengthAdjust="spacing" textLength="76" x="353" y="829.7617">Property</text><line style="stroke:#4169E1;stroke-width:0.5;" x1="272.5" x2="509.5" y1="839.1563" y2="839.1563"/><rect fill="none" height="6" style="stroke:#C82930;stroke-width:1.0;" width="6" x="279.5" y="854.2344"/><text fill="#000000" font-family="sans-serif" font-size="20" lengthAdjust="spacing" textLength="38" x="292.5" y="863.918">type</text><rect fill="none" height="6" style="stroke:#C82930;stroke-width:1.0;" width="6" x="279.5" y="879.3906"/><text fill="#000000" font-family="sans-serif" font-size="20" lengthAdjust="spacing" textLength="40" x="292.5" y="889.0742">area</text><rect fill="none" height="6" style="stroke:#C82930;stroke-width:1.0;" width="6" x="279.5" y="904.5469"/><text fill="#000000" font-family="sans-serif" font-size="20" lengthAdjust="spacing" textLength="212" x="292.5" y="914.2305">distanceFromCityCenter</text><rect fill="none" height="6" style="stroke:#C82930;stroke-width:1.0;" width="6" x="279.5" y="929.7031"/><text fill="#000000" font-family="sans-serif" font-size="20" lengthAdjust="spacing" textLength="87" x="292.5" y="939.3867">photoURL</text></g><!--class Employee--><g id="elem_Employee"><rect codeLine="35" fill="#FFDAB9" height="68.3125" id="Employee" rx="2.5" ry="2.5" style="stroke:#4169E1;stroke-width:0.5;" width="192" x="7" y="288"/><text fill="#000000" font-family="sans-serif" font-size="20" lengthAdjust="spacing" textLength="87" x="59.5" y="313.7617">Employee</text><line style="stroke:#4169E1;stroke-width:0.5;" x1="8" x2="198" y1="323.1563" y2="323.1563"/><rect fill="none" height="6" style="stroke:#C82930;stroke-width:1.0;" width="6" x="15" y="338.2344"/><text fill="#000000" font-family="sans-serif" font-size="20" lengthAdjust="spacing" textLength="165" x="28" y="347.918">agencyDesignation</text></g><!--class Agent--><g id="elem_Agent"><rect codeLine="38" fill="#FFDAB9" height="43.1563" id="Agent" rx="2.5" ry="2.5" style="stroke:#4169E1;stroke-width:0.5;" width="57" x="172.5" y="854.5"/><text fill="#000000" font-family="sans-serif" font-size="20" lengthAdjust="spacing" textLength="51" x="175.5" y="880.2617">Agent</text><line style="stroke:#4169E1;stroke-width:0.5;" x1="173.5" x2="228.5" y1="889.6563" y2="889.6563"/></g><!--class NM--><g id="elem_NM"><rect codeLine="41" fill="#FFDAB9" height="43.1563" id="NM" rx="2.5" ry="2.5" style="stroke:#4169E1;stroke-width:0.5;" width="163" x="127.5" y="443"/><text fill="#000000" font-family="sans-serif" font-size="20" lengthAdjust="spacing" textLength="157" x="130.5" y="468.7617">Network Manager</text><line style="stroke:#4169E1;stroke-width:0.5;" x1="128.5" x2="289.5" y1="478.1563" y2="478.1563"/></g><!--class Agency--><g id="elem_Agency"><rect codeLine="44" fill="#FFDAB9" height="143.7813" id="Agency" rx="2.5" ry="2.5" style="stroke:#4169E1;stroke-width:0.5;" width="148" x="131" y="573"/><text fill="#000000" font-family="sans-serif" font-size="20" lengthAdjust="spacing" textLength="65" x="172.5" y="598.7617">Agency</text><line style="stroke:#4169E1;stroke-width:0.5;" x1="132" x2="278" y1="608.1563" y2="608.1563"/><rect fill="none" height="6" style="stroke:#C82930;stroke-width:1.0;" width="6" x="139" y="623.2344"/><text fill="#000000" font-family="sans-serif" font-size="20" lengthAdjust="spacing" textLength="15" x="152" y="632.918">id</text><rect fill="none" height="6" style="stroke:#C82930;stroke-width:1.0;" width="6" x="139" y="648.3906"/><text fill="#000000" font-family="sans-serif" font-size="20" lengthAdjust="spacing" textLength="99" x="152" y="658.0742">designation</text><rect fill="none" height="6" style="stroke:#C82930;stroke-width:1.0;" width="6" x="139" y="673.5469"/><text fill="#000000" font-family="sans-serif" font-size="20" lengthAdjust="spacing" textLength="121" x="152" y="683.2305">phoneNumber</text><rect fill="none" height="6" style="stroke:#C82930;stroke-width:1.0;" width="6" x="139" y="698.7031"/><text fill="#000000" font-family="sans-serif" font-size="20" lengthAdjust="spacing" textLength="46" x="152" y="708.3867">email</text></g><!--class Order--><g id="elem_Order"><rect codeLine="50" fill="#FFDAB9" height="93.4688" id="Order" rx="2.5" ry="2.5" style="stroke:#4169E1;stroke-width:0.5;" width="138" x="326" y="1035"/><text fill="#000000" font-family="sans-serif" font-size="20" lengthAdjust="spacing" textLength="52" x="369" y="1060.7617">Order</text><line style="stroke:#4169E1;stroke-width:0.5;" x1="327" x2="463" y1="1070.1563" y2="1070.1563"/><rect fill="none" height="6" style="stroke:#C82930;stroke-width:1.0;" width="6" x="334" y="1085.2344"/><text fill="#000000" font-family="sans-serif" font-size="20" lengthAdjust="spacing" textLength="111" x="347" y="1094.918">requestPrice</text><rect fill="none" height="6" style="stroke:#C82930;stroke-width:1.0;" width="6" x="334" y="1110.3906"/><text fill="#000000" font-family="sans-serif" font-size="20" lengthAdjust="spacing" textLength="39" x="347" y="1120.0742">date</text></g><!--class Announcement--><g id="elem_Announcement"><rect fill="#FFDAB9" height="43.1563" id="Announcement" rx="2.5" ry="2.5" style="stroke:#4169E1;stroke-width:0.5;" width="134" x="332" y="623.5"/><text fill="#000000" font-family="sans-serif" font-size="20" lengthAdjust="spacing" textLength="128" x="335" y="649.2617">Announcement</text><line style="stroke:#4169E1;stroke-width:0.5;" x1="333" x2="465" y1="658.6563" y2="658.6563"/></g><!--link Employee to NM--><g id="link_Employee_NM"><path codeLine="56" d="M128.12,356.3 C148.32,383.08 176.08,419.87 193.26,442.64 " fill="none" id="Employee-NM" style="stroke:#4169E1;stroke-width:1.0;"/><polygon fill="#000000" points="181.8182,405.9644,176.8558,391.5794,169.3482,397.2436,181.8182,405.9644" style="stroke:#000000;stroke-width:1.0;"/><text fill="#000000" font-family="sans-serif" font-size="20" lengthAdjust="spacing" textLength="59" x="190" y="407.7617">can be</text><text fill="#000000" font-family="sans-serif" font-size="20" lengthAdjust="spacing" textLength="11" x="120.4922" y="385.092">1</text><text fill="#000000" font-family="sans-serif" font-size="20" lengthAdjust="spacing" textLength="8" x="180.6951" y="430.456">*</text></g><!--link Announcement to Property--><g id="link_Announcement_Property"><path codeLine="59" d="M398.28,666.73 C397.2,697.44 395.14,756.53 393.48,803.94 " fill="none" id="Announcement-Property" style="stroke:#4169E1;stroke-width:1.0;"/><polygon fill="#000000" points="402.7203,768.5732,407.9257,754.2743,398.5269,753.9455,402.7203,768.5732" style="stroke:#000000;stroke-width:1.0;"/><text fill="#000000" font-family="sans-serif" font-size="20" lengthAdjust="spacing" textLength="48" x="416" y="768.7617">has a</text><text fill="#000000" font-family="sans-serif" font-size="20" lengthAdjust="spacing" textLength="11" x="385.8416" y="695.4074">1</text><text fill="#000000" font-family="sans-serif" font-size="20" lengthAdjust="spacing" textLength="11" x="382.1922" y="791.66">1</text></g><!--link Announcement to Agent--><g id="link_Announcement_Agent"><path codeLine="60" d="M378.57,666.84 C349.82,696.48 296.2,752.91 254,804 C240.38,820.48 225.93,840 215.56,854.39 " fill="none" id="Announcement-Agent" style="stroke:#4169E1;stroke-width:1.0;"/><polygon fill="#000000" points="302.752,766.6162,315.7948,758.7779,308.6966,752.6085,302.752,766.6162" style="stroke:#000000;stroke-width:1.0;"/><text fill="#000000" font-family="sans-serif" font-size="20" lengthAdjust="spacing" textLength="58" x="321" y="768.7617">has an</text><text fill="#000000" font-family="sans-serif" font-size="20" lengthAdjust="spacing" textLength="11" x="361.5737" y="695.5428">1</text><text fill="#000000" font-family="sans-serif" font-size="20" lengthAdjust="spacing" textLength="11" x="220.1989" y="842.2638">1</text></g><!--link Agency to Agent--><g id="link_Agency_Agent"><path codeLine="63" d="M187.51,717.14 C185.65,727.11 184.05,737.28 183,747 C178.92,784.93 188.19,828.93 194.89,854.21 " fill="none" id="Agency-Agent" style="stroke:#4169E1;stroke-width:1.0;"/><polygon fill="#000000" points="191.4301,768.5666,195.3475,753.8625,185.9566,754.3682,191.4301,768.5666" style="stroke:#000000;stroke-width:1.0;"/><text fill="#000000" font-family="sans-serif" font-size="20" lengthAdjust="spacing" textLength="31" x="204" y="768.7617">has</text><text fill="#000000" font-family="sans-serif" font-size="20" lengthAdjust="spacing" textLength="11" x="174.4625" y="745.4567">1</text><text fill="#000000" font-family="sans-serif" font-size="20" lengthAdjust="spacing" textLength="31" x="197.0614" y="842.0422">1..*</text></g><!--reverse link Person to Employee--><g id="link_Person_Employee"><path codeLine="68" d="M103,221.4 C103,245.84 103,269.71 103,287.95 " fill="none" id="Person-backto-Employee" style="stroke:#4169E1;stroke-width:1.0;"/><polygon fill="none" points="96,221.31,103,201.31,110,221.31,96,221.31" style="stroke:#4169E1;stroke-width:1.0;"/><polygon fill="#000000" points="111,236.5781,106.2977,251.0503,115.7023,251.0503,111,236.5781" style="stroke:#000000;stroke-width:1.0;"/><text fill="#000000" font-family="sans-serif" font-size="20" lengthAdjust="spacing" textLength="31" x="124" y="252.7617">is a</text></g><!--link Employee to Agent--><g id="link_Employee_Agent"><path codeLine="69" d="M98.59,356.2 C90.6,424.99 77.6,587.47 113,717 C127.65,770.61 164.11,825.62 185.22,854.46 " fill="none" id="Employee-Agent" style="stroke:#4169E1;stroke-width:1.0;"/><polygon fill="#000000" points="99.3704,537.4599,101.5241,522.3962,92.2586,524.0071,99.3704,537.4599" style="stroke:#000000;stroke-width:1.0;"/><text fill="#000000" font-family="sans-serif" font-size="20" lengthAdjust="spacing" textLength="59" x="111" y="537.7617">can be</text><text fill="#000000" font-family="sans-serif" font-size="20" lengthAdjust="spacing" textLength="11" x="85.8867" y="384.9749">1</text><text fill="#000000" font-family="sans-serif" font-size="20" lengthAdjust="spacing" textLength="11" x="169.033" y="841.9245">1</text></g><!--link NM to Agency--><g id="link_NM_Agency"><path codeLine="72" d="M208.53,486.33 C208.06,507.57 207.29,541.74 206.59,572.85 " fill="none" id="NM-Agency" style="stroke:#4169E1;stroke-width:1.0;"/><polygon fill="#000000" points="215.8207,537.5761,220.8462,523.213,211.444,523.0022,215.8207,537.5761" style="stroke:#000000;stroke-width:1.0;"/><text fill="#000000" font-family="sans-serif" font-size="20" lengthAdjust="spacing" textLength="70" x="229" y="537.7617">manage</text><text fill="#000000" font-family="sans-serif" font-size="20" lengthAdjust="spacing" textLength="11" x="196.1494" y="515.0305">1</text><text fill="#000000" font-family="sans-serif" font-size="20" lengthAdjust="spacing" textLength="31" x="174.2642" y="560.5614">1..*</text></g><!--link Agent to Order--><g id="link_Agent_Order"><path codeLine="74" d="M214.95,897.63 C225.15,912.21 239.66,931.94 254,948 C281.29,978.57 314.6,1010.1 341.98,1034.72 " fill="none" id="Agent-Order" style="stroke:#4169E1;stroke-width:1.0;"/><polygon fill="#000000" points="311.5626,985.7101,317.9498,999.5215,324.8481,993.1294,311.5626,985.7101" style="stroke:#000000;stroke-width:1.0;"/><text fill="#000000" font-family="sans-serif" font-size="20" lengthAdjust="spacing" textLength="65" x="330" y="999.7617">send to</text><text fill="#000000" font-family="sans-serif" font-size="20" lengthAdjust="spacing" textLength="11" x="205.9041" y="926.2843">1</text><text fill="#000000" font-family="sans-serif" font-size="20" lengthAdjust="spacing" textLength="8" x="326.3179" y="1022.495">*</text></g><!--link Announcement to Order--><g id="link_Announcement_Order"><path codeLine="76" d="M424.13,666.62 C455.45,694.12 507.37,746.13 528,804 C549.48,864.29 552.55,888.89 528,948 C513.81,982.16 486.06,1012.08 459.56,1034.8 " fill="none" id="Announcement-Order" style="stroke:#4169E1;stroke-width:1.0;"/><polygon fill="#000000" points="552.2337,868.1149,548.9393,882.9709,558.3006,882.0701,552.2337,868.1149" style="stroke:#000000;stroke-width:1.0;"/><text fill="#000000" font-family="sans-serif" font-size="20" lengthAdjust="spacing" textLength="31" x="566" y="884.2617">has</text><text fill="#000000" font-family="sans-serif" font-size="20" lengthAdjust="spacing" textLength="11" x="417.6694" y="695.272">1</text><text fill="#000000" font-family="sans-serif" font-size="20" lengthAdjust="spacing" textLength="11" x="456.4962" y="1022.5857">1</text></g><!--SRC=[TLJRRjim37tNLn1v2L0WHRV7ecYHPYimOEs25li0LM9Y8RBeIJGwh-s_Zxx8SP9MBvRDG_ASGy9fvqAbeouzcHrQiBZHjUSx2lpa_Y5ylL3pb35GKY1JH2eHEDQezf5AcvtUuXCt7Y6YOHssVWf8XRRqui8MDjedd5RrBY0t5G95BaZDFMuOc22wRS5WNLlEKPYc6AzJMZ97zrmp_Z0KEhONgd0MmRXef7btBr5gsgJcYtpkd51CGbJ8Z1_LKMruLI3dLcHj8zN1hiXJX3LgKwphpQQBBcEabpxmI8tsjruywT8eMep7aVS92JblIyCKqzlYwAYUm1fZeZ3mM43G9GvNurZ4XfMEzg4kdp4Etrd_FNZ7KZi_tAk20Xv4Asdo8Zo5biej8rKOkSazsw4CLnrHmt2tBibu3Tx98gmSDoiCl2zR4DFlnv-gbQkj1U828nYnrWXAKfr9Cl8TWjV1tjpSvExVoyfJWpXAbdqAflc6oMs3xZRWVO0k9SAlQdoVFI2BbXtSwo1PSGOwmSFz1B7iQkNApcOfa-AV6TNRc0lzQYSxKepufyR4w-XCTifgFXdrS6HDGx_BwJIevja0DJen-pA3nG9cPpDH0vVYOe1dX6kbviiGP2qDbkA4chwCIVB80vNKGXpHalaPjBCquqBVelDCzOyzzlpyx11-hUPZ8u0XaPKQDlXADdm_t4jmBP6hKv4J4XETHvDLuiCf4zCgB3j4czINcPZN3-qI4WRR_bca_QT6P6ohJ60V3d8XA-rOkdqKK-e_]--></g></svg>