<?xml version="1.0" encoding="UTF-8" standalone="no"?><svg xmlns="http://www.w3.org/2000/svg" xmlns:xlink="http://www.w3.org/1999/xlink" contentStyleType="text/css" height="536px" preserveAspectRatio="none" style="width:2284px;height:536px;background:#FFFFFF;" version="1.1" viewBox="0 0 2284 536" width="2284px" zoomAndPan="magnify"><defs/><g><!--class Person--><g id="elem_Person"><rect codeLine="16" fill="#FFDAB9" height="180.9688" id="Person" rx="2.5" ry="2.5" style="stroke:#4169E1;stroke-width:0.5;" width="222" x="7" y="242"/><text fill="#000000" font-family="sans-serif" font-size="20" lengthAdjust="spacing" textLength="67" x="84.5" y="265.5645">Person</text><line style="stroke:#4169E1;stroke-width:0.5;" x1="8" x2="228" y1="275.2813" y2="275.2813"/><rect fill="none" height="6" style="stroke:#C82930;stroke-width:1.0;" width="6" x="15" y="289.4219"/><text fill="#000000" font-family="sans-serif" font-size="20" lengthAdjust="spacing" textLength="57" x="28" y="297.8457">name</text><rect fill="none" height="6" style="stroke:#C82930;stroke-width:1.0;" width="6" x="15" y="312.7031"/><text fill="#000000" font-family="sans-serif" font-size="20" lengthAdjust="spacing" textLength="195" x="28" y="321.127">citizenCardNumber</text><rect fill="none" height="6" style="stroke:#C82930;stroke-width:1.0;" width="6" x="15" y="335.9844"/><text fill="#000000" font-family="sans-serif" font-size="20" lengthAdjust="spacing" textLength="112" x="28" y="344.4082">taxNumber</text><rect fill="none" height="6" style="stroke:#C82930;stroke-width:1.0;" width="6" x="15" y="359.2656"/><text fill="#000000" font-family="sans-serif" font-size="20" lengthAdjust="spacing" textLength="56" x="28" y="367.6895">email</text><rect fill="none" height="6" style="stroke:#C82930;stroke-width:1.0;" width="6" x="15" y="382.5469"/><text fill="#000000" font-family="sans-serif" font-size="20" lengthAdjust="spacing" textLength="144" x="28" y="390.9707">phoneNumber</text><rect fill="none" height="6" style="stroke:#C82930;stroke-width:1.0;" width="6" x="15" y="405.8281"/><text fill="#000000" font-family="sans-serif" font-size="20" lengthAdjust="spacing" textLength="95" x="28" y="414.252">password</text></g><!--class Client--><g id="elem_Client"><rect codeLine="24" fill="#FFDAB9" height="41.2813" id="Client" rx="2.5" ry="2.5" style="stroke:#4169E1;stroke-width:0.5;" width="65" x="378" y="264"/><text fill="#000000" font-family="sans-serif" font-size="20" lengthAdjust="spacing" textLength="59" x="381" y="287.5645">Client</text><line style="stroke:#4169E1;stroke-width:0.5;" x1="379" x2="442" y1="297.2813" y2="297.2813"/></g><!--class Order--><g id="elem_Order"><rect codeLine="27" fill="#FFDAB9" height="64.5625" id="Order" rx="2.5" ry="2.5" style="stroke:#4169E1;stroke-width:0.5;" width="152" x="722" y="245"/><text fill="#000000" font-family="sans-serif" font-size="20" lengthAdjust="spacing" textLength="57" x="769.5" y="268.5645">Order</text><line style="stroke:#4169E1;stroke-width:0.5;" x1="723" x2="873" y1="278.2813" y2="278.2813"/><rect fill="none" height="6" style="stroke:#C82930;stroke-width:1.0;" width="6" x="730" y="292.4219"/><text fill="#000000" font-family="sans-serif" font-size="20" lengthAdjust="spacing" textLength="125" x="743" y="300.8457">requestPrice</text></g><!--class Property--><g id="elem_Property"><rect codeLine="30" fill="#FFDAB9" height="134.4063" id="Property" rx="2.5" ry="2.5" style="stroke:#4169E1;stroke-width:0.5;" width="270" x="1331" y="210.5"/><text fill="#000000" font-family="sans-serif" font-size="20" lengthAdjust="spacing" textLength="84" x="1424" y="234.0645">Property</text><line style="stroke:#4169E1;stroke-width:0.5;" x1="1332" x2="1600" y1="243.7813" y2="243.7813"/><rect fill="none" height="6" style="stroke:#C82930;stroke-width:1.0;" width="6" x="1339" y="257.9219"/><text fill="#000000" font-family="sans-serif" font-size="20" lengthAdjust="spacing" textLength="44" x="1352" y="266.3457">type</text><rect fill="none" height="6" style="stroke:#C82930;stroke-width:1.0;" width="6" x="1339" y="281.2031"/><text fill="#000000" font-family="sans-serif" font-size="20" lengthAdjust="spacing" textLength="44" x="1352" y="289.627">area</text><rect fill="none" height="6" style="stroke:#C82930;stroke-width:1.0;" width="6" x="1339" y="304.4844"/><text fill="#000000" font-family="sans-serif" font-size="20" lengthAdjust="spacing" textLength="243" x="1352" y="312.9082">distanceFromCityCenter</text><rect fill="none" height="6" style="stroke:#C82930;stroke-width:1.0;" width="6" x="1339" y="327.7656"/><text fill="#000000" font-family="sans-serif" font-size="20" lengthAdjust="spacing" textLength="98" x="1352" y="336.1895">photoURL</text></g><!--class Home--><g id="elem_Home"><rect codeLine="37" fill="#FFDAB9" height="134.4063" id="Home" rx="2.5" ry="2.5" style="stroke:#4169E1;stroke-width:0.5;" width="266" x="1718" y="49.5"/><text fill="#000000" font-family="sans-serif" font-size="20" lengthAdjust="spacing" textLength="59" x="1821.5" y="73.0645">Home</text><line style="stroke:#4169E1;stroke-width:0.5;" x1="1719" x2="1983" y1="82.7813" y2="82.7813"/><rect fill="none" height="6" style="stroke:#C82930;stroke-width:1.0;" width="6" x="1726" y="96.9219"/><text fill="#000000" font-family="sans-serif" font-size="20" lengthAdjust="spacing" textLength="202" x="1739" y="105.3457">numberOfbedrooms</text><rect fill="none" height="6" style="stroke:#C82930;stroke-width:1.0;" width="6" x="1726" y="120.2031"/><text fill="#000000" font-family="sans-serif" font-size="20" lengthAdjust="spacing" textLength="210" x="1739" y="128.627">numberOfbathrooms</text><rect fill="none" height="6" style="stroke:#C82930;stroke-width:1.0;" width="6" x="1726" y="143.4844"/><text fill="#000000" font-family="sans-serif" font-size="20" lengthAdjust="spacing" textLength="239" x="1739" y="151.9082">numberOfParkingSpace</text><rect fill="none" height="6" style="stroke:#C82930;stroke-width:1.0;" width="6" x="1726" y="166.7656"/><text fill="#000000" font-family="sans-serif" font-size="20" lengthAdjust="spacing" textLength="201" x="1739" y="175.1895">availableEquipment</text></g><!--class Land--><g id="elem_Land"><rect codeLine="43" fill="#FFDAB9" height="41.2813" id="Land" rx="2.5" ry="2.5" style="stroke:#4169E1;stroke-width:0.5;" width="55" x="1823.5" y="219"/><text fill="#000000" font-family="sans-serif" font-size="20" lengthAdjust="spacing" textLength="49" x="1826.5" y="242.5645">Land</text><line style="stroke:#4169E1;stroke-width:0.5;" x1="1824.5" x2="1877.5" y1="252.2813" y2="252.2813"/></g><!--class Apartment--><g id="elem_Apartment"><rect codeLine="46" fill="#FFDAB9" height="41.2813" id="Apartment" rx="2.5" ry="2.5" style="stroke:#4169E1;stroke-width:0.5;" width="114" x="2121.5" y="7"/><text fill="#000000" font-family="sans-serif" font-size="20" lengthAdjust="spacing" textLength="108" x="2124.5" y="30.5645">Apartment</text><line style="stroke:#4169E1;stroke-width:0.5;" x1="2122.5" x2="2234.5" y1="40.2813" y2="40.2813"/></g><!--class House--><g id="elem_House"><rect codeLine="49" fill="#FFDAB9" height="111.125" id="House" rx="2.5" ry="2.5" style="stroke:#4169E1;stroke-width:0.5;" width="179" x="2089" y="83"/><text fill="#000000" font-family="sans-serif" font-size="20" lengthAdjust="spacing" textLength="62" x="2147.5" y="106.5645">House</text><line style="stroke:#4169E1;stroke-width:0.5;" x1="2090" x2="2267" y1="116.2813" y2="116.2813"/><rect fill="none" height="6" style="stroke:#C82930;stroke-width:1.0;" width="6" x="2097" y="130.4219"/><text fill="#000000" font-family="sans-serif" font-size="20" lengthAdjust="spacing" textLength="100" x="2110" y="138.8457">basement</text><rect fill="none" height="6" style="stroke:#C82930;stroke-width:1.0;" width="6" x="2097" y="153.7031"/><text fill="#000000" font-family="sans-serif" font-size="20" lengthAdjust="spacing" textLength="152" x="2110" y="162.127">inhabitableLoft</text><rect fill="none" height="6" style="stroke:#C82930;stroke-width:1.0;" width="6" x="2097" y="176.9844"/><text fill="#000000" font-family="sans-serif" font-size="20" lengthAdjust="spacing" textLength="128" x="2110" y="185.4082">sunExposure</text></g><!--class Announcement--><g id="elem_Announcement"><rect codeLine="54" fill="#FFDAB9" height="64.5625" id="Announcement" rx="2.5" ry="2.5" style="stroke:#4169E1;stroke-width:0.5;" width="160" x="1023" y="245"/><text fill="#000000" font-family="sans-serif" font-size="20" lengthAdjust="spacing" textLength="154" x="1026" y="268.5645">Announcement</text><line style="stroke:#4169E1;stroke-width:0.5;" x1="1024" x2="1182" y1="278.2813" y2="278.2813"/><rect fill="none" height="6" style="stroke:#C82930;stroke-width:1.0;" width="6" x="1031" y="292.4219"/><text fill="#000000" font-family="sans-serif" font-size="20" lengthAdjust="spacing" textLength="50" x="1044" y="300.8457">state</text></g><!--class Deal--><g id="elem_Deal"><rect codeLine="57" fill="#FFDAB9" height="64.5625" id="Deal" rx="2.5" ry="2.5" style="stroke:#4169E1;stroke-width:0.5;" width="118" x="1792" y="295"/><text fill="#000000" font-family="sans-serif" font-size="20" lengthAdjust="spacing" textLength="45" x="1828.5" y="318.5645">Deal</text><line style="stroke:#4169E1;stroke-width:0.5;" x1="1793" x2="1909" y1="328.2813" y2="328.2813"/><rect fill="none" height="6" style="stroke:#C82930;stroke-width:1.0;" width="6" x="1800" y="342.4219"/><text fill="#000000" font-family="sans-serif" font-size="20" lengthAdjust="spacing" textLength="91" x="1813" y="350.8457">dealType</text></g><!--class Sale--><g id="elem_Sale"><rect codeLine="60" fill="#FFDAB9" height="64.5625" id="Sale" rx="2.5" ry="2.5" style="stroke:#4169E1;stroke-width:0.5;" width="161" x="2098" y="273"/><text fill="#000000" font-family="sans-serif" font-size="20" lengthAdjust="spacing" textLength="43" x="2157" y="296.5645">Sale</text><line style="stroke:#4169E1;stroke-width:0.5;" x1="2099" x2="2258" y1="306.2813" y2="306.2813"/><rect fill="none" height="6" style="stroke:#C82930;stroke-width:1.0;" width="6" x="2106" y="320.4219"/><text fill="#000000" font-family="sans-serif" font-size="20" lengthAdjust="spacing" textLength="134" x="2119" y="328.8457">propertyPrice</text></g><!--class Rent--><g id="elem_Rent"><rect codeLine="63" fill="#FFDAB9" height="87.8438" id="Rent" rx="2.5" ry="2.5" style="stroke:#4169E1;stroke-width:0.5;" width="197" x="2080" y="373.5"/><text fill="#000000" font-family="sans-serif" font-size="20" lengthAdjust="spacing" textLength="47" x="2155" y="397.0645">Rent</text><line style="stroke:#4169E1;stroke-width:0.5;" x1="2081" x2="2276" y1="406.7813" y2="406.7813"/><rect fill="none" height="6" style="stroke:#C82930;stroke-width:1.0;" width="6" x="2088" y="420.9219"/><text fill="#000000" font-family="sans-serif" font-size="20" lengthAdjust="spacing" textLength="132" x="2101" y="429.3457">propertyRent</text><rect fill="none" height="6" style="stroke:#C82930;stroke-width:1.0;" width="6" x="2088" y="444.2031"/><text fill="#000000" font-family="sans-serif" font-size="20" lengthAdjust="spacing" textLength="170" x="2101" y="452.627">contractDuration</text></g><!--class Address--><g id="elem_Address"><rect codeLine="67" fill="#FFDAB9" height="134.4063" id="Address" rx="2.5" ry="2.5" style="stroke:#4169E1;stroke-width:0.5;" width="105" x="1798.5" y="395.5"/><text fill="#000000" font-family="sans-serif" font-size="20" lengthAdjust="spacing" textLength="80" x="1811" y="419.0645">Address</text><line style="stroke:#4169E1;stroke-width:0.5;" x1="1799.5" x2="1902.5" y1="428.7813" y2="428.7813"/><rect fill="none" height="6" style="stroke:#C82930;stroke-width:1.0;" width="6" x="1806.5" y="442.9219"/><text fill="#000000" font-family="sans-serif" font-size="20" lengthAdjust="spacing" textLength="58" x="1819.5" y="451.3457">street</text><rect fill="none" height="6" style="stroke:#C82930;stroke-width:1.0;" width="6" x="1806.5" y="466.2031"/><text fill="#000000" font-family="sans-serif" font-size="20" lengthAdjust="spacing" textLength="36" x="1819.5" y="474.627">city</text><rect fill="none" height="6" style="stroke:#C82930;stroke-width:1.0;" width="6" x="1806.5" y="489.4844"/><text fill="#000000" font-family="sans-serif" font-size="20" lengthAdjust="spacing" textLength="50" x="1819.5" y="497.9082">state</text><rect fill="none" height="6" style="stroke:#C82930;stroke-width:1.0;" width="6" x="1806.5" y="512.7656"/><text fill="#000000" font-family="sans-serif" font-size="20" lengthAdjust="spacing" textLength="78" x="1819.5" y="521.1895">zipcode</text></g><!--class Employee--><g id="elem_Employee"><rect codeLine="74" fill="#FFDAB9" height="64.5625" id="Employee" rx="2.5" ry="2.5" style="stroke:#4169E1;stroke-width:0.5;" width="219" x="473" y="356"/><text fill="#000000" font-family="sans-serif" font-size="20" lengthAdjust="spacing" textLength="99" x="533" y="379.5645">Employee</text><line style="stroke:#4169E1;stroke-width:0.5;" x1="474" x2="691" y1="389.2813" y2="389.2813"/><rect fill="none" height="6" style="stroke:#C82930;stroke-width:1.0;" width="6" x="481" y="403.4219"/><text fill="#000000" font-family="sans-serif" font-size="20" lengthAdjust="spacing" textLength="192" x="494" y="411.8457">agencyDesignation</text></g><!--class Agent--><g id="elem_Agent"><rect codeLine="77" fill="#FFDAB9" height="41.2813" id="Agent" rx="2.5" ry="2.5" style="stroke:#4169E1;stroke-width:0.5;" width="66" x="1433" y="380"/><text fill="#000000" font-family="sans-serif" font-size="20" lengthAdjust="spacing" textLength="60" x="1436" y="403.5645">Agent</text><line style="stroke:#4169E1;stroke-width:0.5;" x1="1434" x2="1498" y1="413.2813" y2="413.2813"/></g><!--class Date--><g id="elem_Date"><rect codeLine="80" fill="#FFDAB9" height="111.125" id="Date" rx="2.5" ry="2.5" style="stroke:#4169E1;stroke-width:0.5;" width="126" x="1403" y="64"/><text fill="#000000" font-family="sans-serif" font-size="20" lengthAdjust="spacing" textLength="47" x="1442.5" y="87.5645">Date</text><line style="stroke:#4169E1;stroke-width:0.5;" x1="1404" x2="1528" y1="97.2813" y2="97.2813"/><rect fill="none" height="6" style="stroke:#C82930;stroke-width:1.0;" width="6" x="1411" y="111.4219"/><text fill="#000000" font-family="sans-serif" font-size="20" lengthAdjust="spacing" textLength="76" x="1424" y="119.8457">int year</text><rect fill="none" height="6" style="stroke:#C82930;stroke-width:1.0;" width="6" x="1411" y="134.7031"/><text fill="#000000" font-family="sans-serif" font-size="20" lengthAdjust="spacing" textLength="99" x="1424" y="143.127">int month</text><rect fill="none" height="6" style="stroke:#C82930;stroke-width:1.0;" width="6" x="1411" y="157.9844"/><text fill="#000000" font-family="sans-serif" font-size="20" lengthAdjust="spacing" textLength="69" x="1424" y="166.4082">int day</text></g><!--link Person to Client--><g id="link_Person_Client"><path codeLine="88" d="M229.24,314.28 C282.37,305.51 342.14,295.63 377.76,289.74 " fill="none" id="Person-Client" style="stroke:#4169E1;stroke-width:1.0;"/><polygon fill="#000000" points="274.893,280.8365,259.8479,278.5563,261.381,287.8351,274.893,280.8365" style="stroke:#000000;stroke-width:1.0;"/><text fill="#000000" font-family="sans-serif" font-size="20" lengthAdjust="spacing" textLength="67" x="280" y="289.0645">can be</text><text fill="#000000" font-family="sans-serif" font-size="20" lengthAdjust="spacing" textLength="13" x="237.1507" y="332.4035">1</text><text fill="#000000" font-family="sans-serif" font-size="20" lengthAdjust="spacing" textLength="13" x="357.0346" y="311.6001">1</text></g><!--link Order to Announcement--><g id="link_Order_Announcement"><path codeLine="91" d="M874.29,277.5 C919.51,277.5 976.98,277.5 1022.86,277.5 " fill="none" id="Order-Announcement" style="stroke:#4169E1;stroke-width:1.0;"/><polygon fill="#000000" points="927,265.1406,912.5279,260.4383,912.5279,269.8429,927,265.1406" style="stroke:#000000;stroke-width:1.0;"/><text fill="#000000" font-family="sans-serif" font-size="20" lengthAdjust="spacing" textLength="53" x="932" y="272.0645">has a</text><text fill="#000000" font-family="sans-serif" font-size="20" lengthAdjust="spacing" textLength="13" x="881.9222" y="297.1577">1</text><text fill="#000000" font-family="sans-serif" font-size="20" lengthAdjust="spacing" textLength="13" x="1001.8729" y="297.1577">1</text></g><!--reverse link Order to Date--><g id="link_Order_Date"><path codeLine="92" d="M886.78,249.63 C892.6,247.87 898.38,246.15 904,244.5 C1040.58,204.49 1073.91,190.63 1213,160.5 C1277.22,146.59 1351.57,135.04 1402.78,127.78 " fill="none" id="Order-backto-Date" style="stroke:#4169E1;stroke-width:1.0;"/><polygon fill="#4169E1" points="874.03,253.53,880.9373,255.6009,885.5056,250.0214,878.5983,247.9505,874.03,253.53" style="stroke:#4169E1;stroke-width:1.0;"/><polygon fill="#000000" points="1081.2859,152.302,1066.1204,151.0517,1068.2818,160.2045,1081.2859,152.302" style="stroke:#000000;stroke-width:1.0;"/><text fill="#000000" font-family="sans-serif" font-size="20" lengthAdjust="spacing" textLength="53" x="1086.5" y="161.0645">has a</text><text fill="#000000" font-family="sans-serif" font-size="20" lengthAdjust="spacing" textLength="13" x="881.8961" y="270.9402">1</text><text fill="#000000" font-family="sans-serif" font-size="20" lengthAdjust="spacing" textLength="13" x="1382.1544" y="123.0008">1</text></g><!--link Client to Order--><g id="link_Client_Order"><path codeLine="95" d="M443.05,283.93 C503.47,282.83 637.02,280.4 721.7,278.87 " fill="none" id="Client-Order" style="stroke:#4169E1;stroke-width:1.0;"/><polygon fill="#000000" points="554.4987,266.9954,539.9436,262.5566,540.1143,271.9596,554.4987,266.9954" style="stroke:#000000;stroke-width:1.0;"/><text fill="#000000" font-family="sans-serif" font-size="20" lengthAdjust="spacing" textLength="66" x="559.5" y="274.0645">makes</text><text fill="#000000" font-family="sans-serif" font-size="20" lengthAdjust="spacing" textLength="13" x="451.1041" y="304.7488">1</text><text fill="#000000" font-family="sans-serif" font-size="20" lengthAdjust="spacing" textLength="10" x="703.9511" y="298.6954">*</text></g><!--link Announcement to Property--><g id="link_Announcement_Property"><path codeLine="98" d="M1183.22,277.5 C1226.5,277.5 1281.25,277.5 1330.97,277.5 " fill="none" id="Announcement-Property" style="stroke:#4169E1;stroke-width:1.0;"/><polygon fill="#000000" points="1235.5,265.1406,1221.0279,260.4383,1221.0279,269.8429,1235.5,265.1406" style="stroke:#000000;stroke-width:1.0;"/><text fill="#000000" font-family="sans-serif" font-size="20" lengthAdjust="spacing" textLength="53" x="1240.5" y="272.0645">has a</text><text fill="#000000" font-family="sans-serif" font-size="20" lengthAdjust="spacing" textLength="13" x="1190.9435" y="297.1207">1</text><text fill="#000000" font-family="sans-serif" font-size="20" lengthAdjust="spacing" textLength="13" x="1309.7878" y="296.7257">1</text></g><!--link Announcement to Agent--><g id="link_Announcement_Agent"><path codeLine="99" d="M1183.01,308.9 C1226.39,325.68 1281.32,346.19 1331,362.5 C1365.46,373.82 1405.54,384.92 1432.83,392.17 " fill="none" id="Announcement-Agent" style="stroke:#4169E1;stroke-width:1.0;"/><polygon fill="#000000" points="1228.5895,312.6704,1216.3469,303.633,1213.373,312.555,1228.5895,312.6704" style="stroke:#000000;stroke-width:1.0;"/><text fill="#000000" font-family="sans-serif" font-size="20" lengthAdjust="spacing" textLength="66" x="1234" y="317.0645">has an</text><text fill="#000000" font-family="sans-serif" font-size="20" lengthAdjust="spacing" textLength="13" x="1190.9851" y="331.4524">1</text><text fill="#000000" font-family="sans-serif" font-size="20" lengthAdjust="spacing" textLength="13" x="1412.02" y="383.8304">1</text></g><!--reverse link Announcement to Date--><g id="link_Announcement_Date"><path codeLine="100" d="M1190.3,239.73 C1255.73,211.09 1344.11,172.41 1402.75,146.74 " fill="none" id="Announcement-backto-Date" style="stroke:#4169E1;stroke-width:1.0;"/><polygon fill="#4169E1" points="1178.36,244.95,1185.4604,246.2088,1189.3533,240.1388,1182.2529,238.88,1178.36,244.95" style="stroke:#4169E1;stroke-width:1.0;"/><polygon fill="#000000" points="1234.8287,177.9328,1219.6855,179.4281,1223.4564,188.0435,1234.8287,177.9328" style="stroke:#000000;stroke-width:1.0;"/><text fill="#000000" font-family="sans-serif" font-size="20" lengthAdjust="spacing" textLength="53" x="1240.5" y="188.0645">has a</text><text fill="#000000" font-family="sans-serif" font-size="20" lengthAdjust="spacing" textLength="13" x="1178.4864" y="232.1859">1</text><text fill="#000000" font-family="sans-serif" font-size="20" lengthAdjust="spacing" textLength="13" x="1382.1211" y="169.5502">1</text></g><!--reverse link Property to Address--><g id="link_Property_Address"><path codeLine="103" d="M1613.3,348.17 C1678.5,379.66 1751.11,414.73 1798.5,437.62 " fill="none" id="Property-backto-Address" style="stroke:#4169E1;stroke-width:1.0;"/><polygon fill="#4169E1" points="1601.22,342.33,1604.8835,348.5412,1612.0259,347.5485,1608.3624,341.3373,1601.22,342.33" style="stroke:#4169E1;stroke-width:1.0;"/><polygon fill="#000000" points="1646.2038,349.62,1635.2172,339.0915,1631.1269,347.56,1646.2038,349.62" style="stroke:#000000;stroke-width:1.0;"/><text fill="#000000" font-family="sans-serif" font-size="20" lengthAdjust="spacing" textLength="35" x="1652" y="353.0645">has</text></g><!--reverse link Property to Deal--><g id="link_Property_Deal"><path codeLine="104" d="M1614.34,296.73 C1676.3,304.82 1744.79,313.77 1791.89,319.91 " fill="none" id="Property-backto-Deal" style="stroke:#4169E1;stroke-width:1.0;"/><polygon fill="#4169E1" points="1601.22,295.02,1606.6563,299.7578,1613.1205,296.5619,1607.6842,291.8241,1601.22,295.02" style="stroke:#4169E1;stroke-width:1.0;"/><polygon fill="#000000" points="1646.9327,288.1763,1633.1911,281.6401,1631.9736,290.9655,1646.9327,288.1763" style="stroke:#000000;stroke-width:1.0;"/><text fill="#000000" font-family="sans-serif" font-size="20" lengthAdjust="spacing" textLength="35" x="1652" y="294.0645">has</text><text fill="#000000" font-family="sans-serif" font-size="20" lengthAdjust="spacing" textLength="13" x="1608.9703" y="315.1681">1</text><text fill="#000000" font-family="sans-serif" font-size="20" lengthAdjust="spacing" textLength="13" x="1770.8938" y="338.9948">1</text></g><!--link Person to Employee--><g id="link_Person_Employee"><path codeLine="108" d="M229.19,345.84 C298.61,354.25 388.31,365.11 459.82,373.77 " fill="none" id="Person-to-Employee" style="stroke:#4169E1;stroke-width:1.0;"/><polygon fill="#4169E1" points="472.95,375.36,467.4726,370.6698,461.0365,373.9219,466.5139,378.6121,472.95,375.36" style="stroke:#4169E1;stroke-width:1.0;"/><polygon fill="#000000" points="275.058,336.1788,288.8599,342.5869,289.9905,333.2506,275.058,336.1788" style="stroke:#000000;stroke-width:1.0;"/><text fill="#000000" font-family="sans-serif" font-size="20" lengthAdjust="spacing" textLength="35" x="296" y="344.0645">has</text></g><!--link Employee to Agent--><g id="link_Employee_Agent"><path codeLine="109" d="M692.03,389.98 C892.9,392.71 1313.08,398.43 1432.64,400.06 " fill="none" id="Employee-Agent" style="stroke:#4169E1;stroke-width:1.0;"/><polygon fill="#000000" points="919.9993,380.2495,905.5925,375.3507,905.4645,384.7544,919.9993,380.2495" style="stroke:#000000;stroke-width:1.0;"/><text fill="#000000" font-family="sans-serif" font-size="20" lengthAdjust="spacing" textLength="67" x="925" y="387.0645">can be</text><text fill="#000000" font-family="sans-serif" font-size="20" lengthAdjust="spacing" textLength="13" x="699.8258" y="409.4407">1</text><text fill="#000000" font-family="sans-serif" font-size="20" lengthAdjust="spacing" textLength="13" x="1412.0417" y="420.7328">1</text></g><!--reverse link Deal to Sale--><g id="link_Deal_Sale"><path codeLine="113" d="M1915.48,323.21 C1967.6,319.69 2041.7,314.68 2097.8,310.89 " fill="none" id="Deal-backto-Sale" style="stroke:#4169E1;stroke-width:1.0;"/><polygon fill="#4169E1" points="1910.19,323.57,1919.4426,326.9449,1915.1783,323.2279,1918.8953,318.9637,1910.19,323.57" style="stroke:#4169E1;stroke-width:1.0;"/><text fill="#000000" font-family="sans-serif" font-size="20" lengthAdjust="spacing" textLength="13" x="1918.196" y="343.1008">1</text><text fill="#000000" font-family="sans-serif" font-size="20" lengthAdjust="spacing" textLength="38" x="2051.8552" y="330.829">0..1</text></g><!--reverse link Deal to Rent--><g id="link_Deal_Rent"><path codeLine="114" d="M1915.23,344.98 C1962,357.91 2026.56,375.77 2079.92,390.52 " fill="none" id="Deal-backto-Rent" style="stroke:#4169E1;stroke-width:1.0;"/><polygon fill="#4169E1" points="1910.19,343.59,1917.8016,349.8401,1915.0098,344.9201,1919.9298,342.1283,1910.19,343.59" style="stroke:#4169E1;stroke-width:1.0;"/><text fill="#000000" font-family="sans-serif" font-size="20" lengthAdjust="spacing" textLength="13" x="1918.196" y="365.5608">1</text><text fill="#000000" font-family="sans-serif" font-size="20" lengthAdjust="spacing" textLength="38" x="2034.0201" y="408.0591">0..1</text></g><!--reverse link Property to Land--><g id="link_Property_Land"><path codeLine="116" d="M1621.39,262.18 C1697.47,254.63 1781.68,246.28 1823.46,242.13 " fill="none" id="Property-backto-Land" style="stroke:#4169E1;stroke-width:1.0;"/><polygon fill="none" points="1621.82,269.17,1601.22,264.18,1620.43,255.24,1621.82,269.17" style="stroke:#4169E1;stroke-width:1.0;"/><text fill="#000000" font-family="sans-serif" font-size="20" lengthAdjust="spacing" textLength="34" x="1642.5" y="250.0645">is a</text></g><!--reverse link Property to Home--><g id="link_Property_Home"><path codeLine="117" d="M1620.09,213.15 C1652.47,199.53 1686.38,185.28 1717.91,172.02 " fill="none" id="Property-backto-Home" style="stroke:#4169E1;stroke-width:1.0;"/><polygon fill="none" points="1622.37,219.78,1601.22,221.08,1616.95,206.87,1622.37,219.78" style="stroke:#4169E1;stroke-width:1.0;"/><text fill="#000000" font-family="sans-serif" font-size="20" lengthAdjust="spacing" textLength="34" x="1642.5" y="181.0645">is a</text></g><!--reverse link Home to Apartment--><g id="link_Home_Apartment"><path codeLine="118" d="M2003.83,74.99 C2045.67,63.54 2088.48,51.84 2121.13,42.91 " fill="none" id="Home-backto-Apartment" style="stroke:#4169E1;stroke-width:1.0;"/><polygon fill="none" points="2005.53,81.78,1984.39,80.3,2001.84,68.27,2005.53,81.78" style="stroke:#4169E1;stroke-width:1.0;"/><text fill="#000000" font-family="sans-serif" font-size="20" lengthAdjust="spacing" textLength="34" x="2015" y="58.0645">is a</text></g><!--reverse link Home to House--><g id="link_Home_House"><path codeLine="119" d="M2004.36,126.8 C2033.36,128.76 2062.8,130.75 2088.99,132.52 " fill="none" id="Home-backto-House" style="stroke:#4169E1;stroke-width:1.0;"/><polygon fill="none" points="2003.88,133.78,1984.39,125.45,2004.82,119.81,2003.88,133.78" style="stroke:#4169E1;stroke-width:1.0;"/><text fill="#000000" font-family="sans-serif" font-size="20" lengthAdjust="spacing" textLength="34" x="2015" y="122.0645">is a</text></g><!--SRC=[TLJRRjim37tNLmXz2L30GRV7eIYG9Yqwe5Y3PFi0Hc9i8RBaIl9Qjzs_Zxv8TjBKBwR88_Bm9dzGfW87fRRYW99Bt4EjmxqrOQlUa7-_OZCVCRoqneh2sH9vS3MoqLA1E42Esz1ev0v509FhAS0N8EsBCZdVW_OuzQgLmT1KoAqBXMKQzu47ovtAYy2bQhqfQwOtX0Rl5o4ujQi3_XJMT6IlMA4aSg6SeDYTN2Avb9xDilZTAsBeYITnIKfsufk_CqxVBMMLEriRkRJQEhv64CMwtkyxwy8v-z8RDhO1VQkf9DqrwoIwKyk_2GdwFXOYMES_ifEFzGJMwBmr0u-C6oXn48KAbAnPWfE_wdA7Rj07U3qwOmbA3t9LM8D7reg2l11FejK7N6g59hopf7XgauZn7JxNwCFQAO49iNQsGXUQ26gRE8ZW4FWWI-Lf70JUq-0iLMYM56VaKTXW_smUnxWFxNYbl3lEJ_iTIcTjwK_L48fp-ZKuQcY-fR5CZFvIEM2dyUwvLbL975B4Hp1oalY21Y6KnyLuiBN7I6e77Zi7_L6P0dOgjBuVxJvgVMtkNYlhQpSMR64C3PF0tlc02n2Gf0HQ8UXeb2J_RgiQZLlGYKOrbF-uAPk9xuZOZ6HfLu834LQrWswj4ZSf7Ne_NFN18OQXWpHn3O_wbcqllwbAMDb67bpSbPMs3OxTenV1Y6Q5NkNc95f-NDyLkNrFzGoyGN2J8pqyePYS9JId-pHyb9_f7mp_sSZOhDyhDgpNnRSBdcNThvz__eCBC7o7_8R0tGfmrlycs6aVwKO1dWDT676N0x1DQm9WipuA6u95bvSN_ROHj8G3-Wuw3SAE8awOn1MS1FaAsfKyuimvu9UiKnGQqoItw3Wr0_fcj1xveobE24gi9S9Y2xBiSXoS7dJDak8C_zIVS-tF2dIqYZcUir7ibWhh-93BwzRprNnEpjkzukSCtUga0h1vIl2QNcu-RvyEugJQIdqoTYzPRsJzeTUd1-QSiNjfek4_]--></g></svg>