<?xml version="1.0" encoding="UTF-8" standalone="no"?><svg xmlns="http://www.w3.org/2000/svg" xmlns:xlink="http://www.w3.org/1999/xlink" contentStyleType="text/css" height="934px" preserveAspectRatio="none" style="width:3255px;height:934px;background:#FFFFFF;" version="1.1" viewBox="0 0 3255 934" width="3255px" zoomAndPan="magnify"><defs/><g><!--class User--><g id="elem_User"><rect codeLine="17" fill="#FFDAB9" height="180.9688" id="User" rx="2.5" ry="2.5" style="stroke:#4169E1;stroke-width:0.5;" width="222" x="7" y="444.5"/><text fill="#000000" font-family="sans-serif" font-size="20" lengthAdjust="spacing" textLength="45" x="95.5" y="468.0645">User</text><line style="stroke:#4169E1;stroke-width:0.5;" x1="8" x2="228" y1="477.7813" y2="477.7813"/><rect fill="none" height="6" style="stroke:#C82930;stroke-width:1.0;" width="6" x="15" y="491.9219"/><text fill="#000000" font-family="sans-serif" font-size="20" lengthAdjust="spacing" textLength="57" x="28" y="500.3457">name</text><rect fill="none" height="6" style="stroke:#C82930;stroke-width:1.0;" width="6" x="15" y="515.2031"/><text fill="#000000" font-family="sans-serif" font-size="20" lengthAdjust="spacing" textLength="195" x="28" y="523.627">citizenCardNumber</text><rect fill="none" height="6" style="stroke:#C82930;stroke-width:1.0;" width="6" x="15" y="538.4844"/><text fill="#000000" font-family="sans-serif" font-size="20" lengthAdjust="spacing" textLength="112" x="28" y="546.9082">taxNumber</text><rect fill="none" height="6" style="stroke:#C82930;stroke-width:1.0;" width="6" x="15" y="561.7656"/><text fill="#000000" font-family="sans-serif" font-size="20" lengthAdjust="spacing" textLength="56" x="28" y="570.1895">email</text><rect fill="none" height="6" style="stroke:#C82930;stroke-width:1.0;" width="6" x="15" y="585.0469"/><text fill="#000000" font-family="sans-serif" font-size="20" lengthAdjust="spacing" textLength="144" x="28" y="593.4707">phoneNumber</text><rect fill="none" height="6" style="stroke:#C82930;stroke-width:1.0;" width="6" x="15" y="608.3281"/><text fill="#000000" font-family="sans-serif" font-size="20" lengthAdjust="spacing" textLength="95" x="28" y="616.752">password</text></g><!--class Employee--><g id="elem_Employee"><rect codeLine="26" fill="#FFDAB9" height="64.5625" id="Employee" rx="2.5" ry="2.5" style="stroke:#4169E1;stroke-width:0.5;" width="219" x="378" y="389.5"/><text fill="#000000" font-family="sans-serif" font-size="20" lengthAdjust="spacing" textLength="99" x="438" y="413.0645">Employee</text><line style="stroke:#4169E1;stroke-width:0.5;" x1="379" x2="596" y1="422.7813" y2="422.7813"/><rect fill="none" height="6" style="stroke:#C82930;stroke-width:1.0;" width="6" x="386" y="436.9219"/><text fill="#000000" font-family="sans-serif" font-size="20" lengthAdjust="spacing" textLength="192" x="399" y="445.3457">agencyDesignation</text></g><!--class Agent--><g id="elem_Agent"><rect codeLine="29" fill="#FFDAB9" height="41.2813" id="Agent" rx="2.5" ry="2.5" style="stroke:#4169E1;stroke-width:0.5;" width="66" x="1517" y="426.5"/><text fill="#000000" font-family="sans-serif" font-size="20" lengthAdjust="spacing" textLength="60" x="1520" y="450.0645">Agent</text><line style="stroke:#4169E1;stroke-width:0.5;" x1="1518" x2="1582" y1="459.7813" y2="459.7813"/></g><!--class AM--><g id="elem_AM"><rect codeLine="32" fill="#FFDAB9" height="41.2813" id="AM" rx="2.5" ry="2.5" style="stroke:#4169E1;stroke-width:0.5;" width="173" x="844.5" y="238.5"/><text fill="#000000" font-family="sans-serif" font-size="20" lengthAdjust="spacing" textLength="167" x="847.5" y="262.0645">Agency Manager</text><line style="stroke:#4169E1;stroke-width:0.5;" x1="845.5" x2="1016.5" y1="271.7813" y2="271.7813"/></g><!--class SA--><g id="elem_SA"><rect codeLine="36" fill="#FFDAB9" height="41.2813" id="SA" rx="2.5" ry="2.5" style="stroke:#4169E1;stroke-width:0.5;" width="224" x="819" y="341.5"/><text fill="#000000" font-family="sans-serif" font-size="20" lengthAdjust="spacing" textLength="218" x="822" y="365.0645">System Administrator</text><line style="stroke:#4169E1;stroke-width:0.5;" x1="820" x2="1042" y1="374.7813" y2="374.7813"/></g><!--class NM--><g id="elem_NM"><rect codeLine="39" fill="#FFDAB9" height="41.2813" id="NM" rx="2.5" ry="2.5" style="stroke:#4169E1;stroke-width:0.5;" width="183" x="839.5" y="417.5"/><text fill="#000000" font-family="sans-serif" font-size="20" lengthAdjust="spacing" textLength="177" x="842.5" y="441.0645">Network Manager</text><line style="stroke:#4169E1;stroke-width:0.5;" x1="840.5" x2="1021.5" y1="450.7813" y2="450.7813"/></g><!--class PO--><g id="elem_PO"><rect codeLine="43" fill="#FFDAB9" height="41.2813" id="PO" rx="2.5" ry="2.5" style="stroke:#4169E1;stroke-width:0.5;" width="162" x="627" y="612.5"/><text fill="#000000" font-family="sans-serif" font-size="20" lengthAdjust="spacing" textLength="156" x="630" y="636.0645">Property Owner</text><line style="stroke:#4169E1;stroke-width:0.5;" x1="628" x2="788" y1="645.7813" y2="645.7813"/></g><!--class Property--><g id="elem_Property"><rect codeLine="47" fill="#FFDAB9" height="157.6875" id="Property" rx="2.5" ry="2.5" style="stroke:#4169E1;stroke-width:0.5;" width="270" x="2299" y="387"/><text fill="#000000" font-family="sans-serif" font-size="20" lengthAdjust="spacing" textLength="84" x="2392" y="410.5645">Property</text><line style="stroke:#4169E1;stroke-width:0.5;" x1="2300" x2="2568" y1="420.2813" y2="420.2813"/><rect fill="none" height="6" style="stroke:#C82930;stroke-width:1.0;" width="6" x="2307" y="434.4219"/><text fill="#000000" font-family="sans-serif" font-size="20" lengthAdjust="spacing" textLength="44" x="2320" y="442.8457">type</text><rect fill="none" height="6" style="stroke:#C82930;stroke-width:1.0;" width="6" x="2307" y="457.7031"/><text fill="#000000" font-family="sans-serif" font-size="20" lengthAdjust="spacing" textLength="44" x="2320" y="466.127">area</text><rect fill="none" height="6" style="stroke:#C82930;stroke-width:1.0;" width="6" x="2307" y="480.9844"/><text fill="#000000" font-family="sans-serif" font-size="20" lengthAdjust="spacing" textLength="80" x="2320" y="489.4082">location</text><rect fill="none" height="6" style="stroke:#C82930;stroke-width:1.0;" width="6" x="2307" y="504.2656"/><text fill="#000000" font-family="sans-serif" font-size="20" lengthAdjust="spacing" textLength="243" x="2320" y="512.6895">distanceFromCityCenter</text><rect fill="none" height="6" style="stroke:#C82930;stroke-width:1.0;" width="6" x="2307" y="527.5469"/><text fill="#000000" font-family="sans-serif" font-size="20" lengthAdjust="spacing" textLength="127" x="2320" y="535.9707">photographs</text></g><!--class Home--><g id="elem_Home"><rect codeLine="55" fill="#FFDAB9" height="134.4063" id="Home" rx="2.5" ry="2.5" style="stroke:#4169E1;stroke-width:0.5;" width="266" x="2686" y="176"/><text fill="#000000" font-family="sans-serif" font-size="20" lengthAdjust="spacing" textLength="59" x="2789.5" y="199.5645">Home</text><line style="stroke:#4169E1;stroke-width:0.5;" x1="2687" x2="2951" y1="209.2813" y2="209.2813"/><rect fill="none" height="6" style="stroke:#C82930;stroke-width:1.0;" width="6" x="2694" y="223.4219"/><text fill="#000000" font-family="sans-serif" font-size="20" lengthAdjust="spacing" textLength="202" x="2707" y="231.8457">numberOfbedrooms</text><rect fill="none" height="6" style="stroke:#C82930;stroke-width:1.0;" width="6" x="2694" y="246.7031"/><text fill="#000000" font-family="sans-serif" font-size="20" lengthAdjust="spacing" textLength="210" x="2707" y="255.127">numberOfbathrooms</text><rect fill="none" height="6" style="stroke:#C82930;stroke-width:1.0;" width="6" x="2694" y="269.9844"/><text fill="#000000" font-family="sans-serif" font-size="20" lengthAdjust="spacing" textLength="239" x="2707" y="278.4082">numberOfParkingSpace</text><rect fill="none" height="6" style="stroke:#C82930;stroke-width:1.0;" width="6" x="2694" y="293.2656"/><text fill="#000000" font-family="sans-serif" font-size="20" lengthAdjust="spacing" textLength="201" x="2707" y="301.6895">availableEquipment</text></g><!--class Land--><g id="elem_Land"><rect codeLine="61" fill="#FFDAB9" height="41.2813" id="Land" rx="2.5" ry="2.5" style="stroke:#4169E1;stroke-width:0.5;" width="55" x="2791.5" y="445.5"/><text fill="#000000" font-family="sans-serif" font-size="20" lengthAdjust="spacing" textLength="49" x="2794.5" y="469.0645">Land</text><line style="stroke:#4169E1;stroke-width:0.5;" x1="2792.5" x2="2845.5" y1="478.7813" y2="478.7813"/></g><!--class Apartment--><g id="elem_Apartment"><rect codeLine="64" fill="#FFDAB9" height="41.2813" id="Apartment" rx="2.5" ry="2.5" style="stroke:#4169E1;stroke-width:0.5;" width="114" x="3101.5" y="265.5"/><text fill="#000000" font-family="sans-serif" font-size="20" lengthAdjust="spacing" textLength="108" x="3104.5" y="289.0645">Apartment</text><line style="stroke:#4169E1;stroke-width:0.5;" x1="3102.5" x2="3214.5" y1="298.7813" y2="298.7813"/></g><!--class House--><g id="elem_House"><rect codeLine="67" fill="#FFDAB9" height="111.125" id="House" rx="2.5" ry="2.5" style="stroke:#4169E1;stroke-width:0.5;" width="179" x="3069" y="119.5"/><text fill="#000000" font-family="sans-serif" font-size="20" lengthAdjust="spacing" textLength="62" x="3127.5" y="143.0645">House</text><line style="stroke:#4169E1;stroke-width:0.5;" x1="3070" x2="3247" y1="152.7813" y2="152.7813"/><rect fill="none" height="6" style="stroke:#C82930;stroke-width:1.0;" width="6" x="3077" y="166.9219"/><text fill="#000000" font-family="sans-serif" font-size="20" lengthAdjust="spacing" textLength="100" x="3090" y="175.3457">basement</text><rect fill="none" height="6" style="stroke:#C82930;stroke-width:1.0;" width="6" x="3077" y="190.2031"/><text fill="#000000" font-family="sans-serif" font-size="20" lengthAdjust="spacing" textLength="152" x="3090" y="198.627">inhabitableLoft</text><rect fill="none" height="6" style="stroke:#C82930;stroke-width:1.0;" width="6" x="3077" y="213.4844"/><text fill="#000000" font-family="sans-serif" font-size="20" lengthAdjust="spacing" textLength="128" x="3090" y="221.9082">sunExposure</text></g><!--class Anouncement--><g id="elem_Anouncement"><rect codeLine="72" fill="#FFDAB9" height="87.8438" id="Anouncement" rx="2.5" ry="2.5" style="stroke:#4169E1;stroke-width:0.5;" width="147" x="1980" y="476"/><text fill="#000000" font-family="sans-serif" font-size="20" lengthAdjust="spacing" textLength="141" x="1983" y="499.5645">Anouncement</text><line style="stroke:#4169E1;stroke-width:0.5;" x1="1981" x2="2126" y1="509.2813" y2="509.2813"/><rect fill="none" height="6" style="stroke:#C82930;stroke-width:1.0;" width="6" x="1988" y="523.4219"/><text fill="#000000" font-family="sans-serif" font-size="20" lengthAdjust="spacing" textLength="50" x="2001" y="531.8457">state</text><rect fill="none" height="6" style="stroke:#C82930;stroke-width:1.0;" width="6" x="1988" y="546.7031"/><text fill="#000000" font-family="sans-serif" font-size="20" lengthAdjust="spacing" textLength="50" x="2001" y="555.127">price</text></g><!--class Agency--><g id="elem_Agency"><rect codeLine="76" fill="#FFDAB9" height="134.4063" id="Agency" rx="2.5" ry="2.5" style="stroke:#4169E1;stroke-width:0.5;" width="171" x="1207" y="267"/><text fill="#000000" font-family="sans-serif" font-size="20" lengthAdjust="spacing" textLength="74" x="1255.5" y="290.5645">Agency</text><line style="stroke:#4169E1;stroke-width:0.5;" x1="1208" x2="1377" y1="300.2813" y2="300.2813"/><rect fill="none" height="6" style="stroke:#C82930;stroke-width:1.0;" width="6" x="1215" y="314.4219"/><text fill="#000000" font-family="sans-serif" font-size="20" lengthAdjust="spacing" textLength="19" x="1228" y="322.8457">id</text><rect fill="none" height="6" style="stroke:#C82930;stroke-width:1.0;" width="6" x="1215" y="337.7031"/><text fill="#000000" font-family="sans-serif" font-size="20" lengthAdjust="spacing" textLength="118" x="1228" y="346.127">designation</text><rect fill="none" height="6" style="stroke:#C82930;stroke-width:1.0;" width="6" x="1215" y="360.9844"/><text fill="#000000" font-family="sans-serif" font-size="20" lengthAdjust="spacing" textLength="144" x="1228" y="369.4082">phoneNumber</text><rect fill="none" height="6" style="stroke:#C82930;stroke-width:1.0;" width="6" x="1215" y="384.2656"/><text fill="#000000" font-family="sans-serif" font-size="20" lengthAdjust="spacing" textLength="56" x="1228" y="392.6895">email</text></g><!--class Visit--><g id="elem_Visit"><rect codeLine="82" fill="#FFDAB9" height="41.2813" id="Visit" rx="2.5" ry="2.5" style="stroke:#4169E1;stroke-width:0.5;" width="50" x="2794" y="630.5"/><text fill="#000000" font-family="sans-serif" font-size="20" lengthAdjust="spacing" textLength="44" x="2797" y="654.0645">Visit</text><line style="stroke:#4169E1;stroke-width:0.5;" x1="2795" x2="2843" y1="663.7813" y2="663.7813"/></g><!--class Commission--><g id="elem_Commission"><rect codeLine="85" fill="#FFDAB9" height="87.8438" id="Commission" rx="2.5" ry="2.5" style="stroke:#4169E1;stroke-width:0.5;" width="129" x="1695" y="476"/><text fill="#000000" font-family="sans-serif" font-size="20" lengthAdjust="spacing" textLength="123" x="1698" y="499.5645">Commission</text><line style="stroke:#4169E1;stroke-width:0.5;" x1="1696" x2="1823" y1="509.2813" y2="509.2813"/><rect fill="none" height="6" style="stroke:#C82930;stroke-width:1.0;" width="6" x="1703" y="523.4219"/><text fill="#000000" font-family="sans-serif" font-size="20" lengthAdjust="spacing" textLength="44" x="1716" y="531.8457">type</text><rect fill="none" height="6" style="stroke:#C82930;stroke-width:1.0;" width="6" x="1703" y="546.7031"/><text fill="#000000" font-family="sans-serif" font-size="20" lengthAdjust="spacing" textLength="54" x="1716" y="555.127">value</text></g><!--class Prediction--><g id="elem_Prediction"><rect codeLine="90" fill="#FFDAB9" height="64.5625" id="Prediction" rx="2.5" ry="2.5" style="stroke:#4169E1;stroke-width:0.5;" width="107" x="3105" y="350.5"/><text fill="#000000" font-family="sans-serif" font-size="20" lengthAdjust="spacing" textLength="101" x="3108" y="374.0645">Prediction</text><line style="stroke:#4169E1;stroke-width:0.5;" x1="3106" x2="3211" y1="383.7813" y2="383.7813"/><rect fill="none" height="6" style="stroke:#C82930;stroke-width:1.0;" width="6" x="3113" y="397.9219"/><text fill="#000000" font-family="sans-serif" font-size="20" lengthAdjust="spacing" textLength="54" x="3126" y="406.3457">value</text></g><!--class Order--><g id="elem_Order"><rect codeLine="94" fill="#FFDAB9" height="41.2813" id="Order" rx="2.5" ry="2.5" style="stroke:#4169E1;stroke-width:0.5;" width="63" x="2402.5" y="656.5"/><text fill="#000000" font-family="sans-serif" font-size="20" lengthAdjust="spacing" textLength="57" x="2405.5" y="680.0645">Order</text><line style="stroke:#4169E1;stroke-width:0.5;" x1="2403.5" x2="2464.5" y1="689.7813" y2="689.7813"/></g><!--class Address--><g id="elem_Address"><rect codeLine="97" fill="#FFDAB9" height="134.4063" id="Address" rx="2.5" ry="2.5" style="stroke:#4169E1;stroke-width:0.5;" width="105" x="2766.5" y="7"/><text fill="#000000" font-family="sans-serif" font-size="20" lengthAdjust="spacing" textLength="80" x="2779" y="30.5645">Address</text><line style="stroke:#4169E1;stroke-width:0.5;" x1="2767.5" x2="2870.5" y1="40.2813" y2="40.2813"/><rect fill="none" height="6" style="stroke:#C82930;stroke-width:1.0;" width="6" x="2774.5" y="54.4219"/><text fill="#000000" font-family="sans-serif" font-size="20" lengthAdjust="spacing" textLength="58" x="2787.5" y="62.8457">street</text><rect fill="none" height="6" style="stroke:#C82930;stroke-width:1.0;" width="6" x="2774.5" y="77.7031"/><text fill="#000000" font-family="sans-serif" font-size="20" lengthAdjust="spacing" textLength="36" x="2787.5" y="86.127">city</text><rect fill="none" height="6" style="stroke:#C82930;stroke-width:1.0;" width="6" x="2774.5" y="100.9844"/><text fill="#000000" font-family="sans-serif" font-size="20" lengthAdjust="spacing" textLength="50" x="2787.5" y="109.4082">state</text><rect fill="none" height="6" style="stroke:#C82930;stroke-width:1.0;" width="6" x="2774.5" y="124.2656"/><text fill="#000000" font-family="sans-serif" font-size="20" lengthAdjust="spacing" textLength="78" x="2787.5" y="132.6895">zipcode</text></g><!--class Lease--><g id="elem_Lease"><rect codeLine="103" fill="#FFDAB9" height="64.5625" id="Lease" rx="2.5" ry="2.5" style="stroke:#4169E1;stroke-width:0.5;" width="197" x="2335.5" y="286.5"/><text fill="#000000" font-family="sans-serif" font-size="20" lengthAdjust="spacing" textLength="57" x="2405.5" y="310.0645">Lease</text><line style="stroke:#4169E1;stroke-width:0.5;" x1="2336.5" x2="2531.5" y1="319.7813" y2="319.7813"/><rect fill="none" height="6" style="stroke:#C82930;stroke-width:1.0;" width="6" x="2343.5" y="333.9219"/><text fill="#000000" font-family="sans-serif" font-size="20" lengthAdjust="spacing" textLength="170" x="2356.5" y="342.3457">contractDuration</text></g><!--class Sale--><g id="elem_Sale"><rect codeLine="106" fill="#FFDAB9" height="41.2813" id="Sale" rx="2.5" ry="2.5" style="stroke:#4169E1;stroke-width:0.5;" width="49" x="2409.5" y="580.5"/><text fill="#000000" font-family="sans-serif" font-size="20" lengthAdjust="spacing" textLength="43" x="2412.5" y="604.0645">Sale</text><line style="stroke:#4169E1;stroke-width:0.5;" x1="2410.5" x2="2457.5" y1="613.7813" y2="613.7813"/></g><!--class Client--><g id="elem_Client"><rect fill="#FFDAB9" height="41.2813" id="Client" rx="2.5" ry="2.5" style="stroke:#4169E1;stroke-width:0.5;" width="65" x="1727" y="834.5"/><text fill="#000000" font-family="sans-serif" font-size="20" lengthAdjust="spacing" textLength="59" x="1730" y="858.0645">Client</text><line style="stroke:#4169E1;stroke-width:0.5;" x1="1728" x2="1791" y1="867.7813" y2="867.7813"/></g><!--link PO to Anouncement--><g id="link_PO_Anouncement"><path codeLine="111" d="M789.3,650.03 C872.6,666.18 1006.81,688 1124,688 C1124,688 1124,688 1640,688 C1778.65,688 1829.22,721.09 1950,653 C1985.81,632.81 2013.26,594.52 2030.71,564.18 " fill="none" id="PO-Anouncement" style="stroke:#4169E1;stroke-width:1.0;"/><polygon fill="#000000" points="1423.9809,675.0887,1409.2189,671.3961,1409.8677,680.7782,1423.9809,675.0887" style="stroke:#000000;stroke-width:1.0;"/><text fill="#000000" font-family="sans-serif" font-size="20" lengthAdjust="spacing" textLength="57" x="1429" y="682.5645">Order</text><text fill="#000000" font-family="sans-serif" font-size="20" lengthAdjust="spacing" textLength="13" x="797.1197" y="671.1354">1</text><text fill="#000000" font-family="sans-serif" font-size="20" lengthAdjust="spacing" textLength="35" x="1990.296" y="590.2558">1..*</text></g><!--link Anouncement to Property--><g id="link_Anouncement_Property"><path codeLine="113" d="M2127.18,505.16 C2137.18,503.31 2147.33,501.54 2157,500 C2203.01,492.69 2253.55,486.05 2298.67,480.63 " fill="none" id="Anouncement-Property" style="stroke:#4169E1;stroke-width:1.0;"/><polygon fill="#000000" points="2200.4194,471.5078,2185.4272,468.9022,2186.7589,478.212,2200.4194,471.5078" style="stroke:#000000;stroke-width:1.0;"/><text fill="#000000" font-family="sans-serif" font-size="20" lengthAdjust="spacing" textLength="35" x="2205.5" y="479.5645">has</text><text fill="#000000" font-family="sans-serif" font-size="20" lengthAdjust="spacing" textLength="13" x="2135.0727" y="523.4172">1</text><text fill="#000000" font-family="sans-serif" font-size="20" lengthAdjust="spacing" textLength="13" x="2277.9137" y="500.6397">1</text></g><!--link Anouncement to Agent--><g id="link_Anouncement_Agent"><path codeLine="114" d="M1979.96,495.72 C1969.94,492.64 1959.74,489.64 1950,487 C1825.89,453.31 1793.3,445.83 1665,437 C1641.94,435.41 1636.04,435.15 1613,437 C1603.22,437.78 1592.65,439.25 1583.06,440.83 " fill="none" id="Anouncement-Agent" style="stroke:#4169E1;stroke-width:1.0;"/><polygon fill="#000000" points="1711.5754,425.5447,1725.2669,432.1852,1726.5553,422.8693,1711.5754,425.5447" style="stroke:#000000;stroke-width:1.0;"/><text fill="#000000" font-family="sans-serif" font-size="20" lengthAdjust="spacing" textLength="74" x="1732.5" y="433.5645">send to</text><text fill="#000000" font-family="sans-serif" font-size="20" lengthAdjust="spacing" textLength="13" x="1959.0811" y="513.048">1</text><text fill="#000000" font-family="sans-serif" font-size="20" lengthAdjust="spacing" textLength="13" x="1591.2192" y="432.75">1</text></g><!--link Agent to Anouncement--><g id="link_Agent_Anouncement"><path codeLine="129" d="M1578.95,426.37 C1589.16,419.93 1601.12,413.59 1613,410 C1642.35,401.13 1816.83,404.84 1824,406 C1882.27,415.45 1897.29,421.42 1950,448 C1965.63,455.88 1981.57,465.93 1996.07,475.99 " fill="none" id="Agent-Anouncement" style="stroke:#4169E1;stroke-width:1.0;"/><polygon fill="#000000" points="1716.444,392.5856,1702.6286,386.2067,1701.5177,395.5455,1716.444,392.5856" style="stroke:#000000;stroke-width:1.0;"/><text fill="#000000" font-family="sans-serif" font-size="20" lengthAdjust="spacing" textLength="96" x="1721.5" y="398.5645">publishes</text><text fill="#000000" font-family="sans-serif" font-size="20" lengthAdjust="spacing" textLength="13" x="1571.7028" y="413.7011">1</text><text fill="#000000" font-family="sans-serif" font-size="20" lengthAdjust="spacing" textLength="10" x="1976.9006" y="463.4336">*</text></g><!--link Agency to Agent--><g id="link_Agency_Agent"><path codeLine="117" d="M1378.22,371.47 C1425.72,392.48 1482.21,417.46 1516.83,432.77 " fill="none" id="Agency-Agent" style="stroke:#4169E1;stroke-width:1.0;"/><polygon fill="#000000" points="1434.3164,378.8763,1422.9828,368.7224,1419.179,377.3234,1434.3164,378.8763" style="stroke:#000000;stroke-width:1.0;"/><text fill="#000000" font-family="sans-serif" font-size="20" lengthAdjust="spacing" textLength="35" x="1440" y="382.5645">has</text><text fill="#000000" font-family="sans-serif" font-size="20" lengthAdjust="spacing" textLength="13" x="1385.857" y="394.0846">1</text><text fill="#000000" font-family="sans-serif" font-size="20" lengthAdjust="spacing" textLength="35" x="1474.0712" y="424.3945">1..*</text></g><!--link Agency to AM--><g id="link_Agency_AM"><path codeLine="118" d="M1206.71,286.45 C1196.91,282.34 1186.88,278.72 1177,276 C1125.31,261.75 1065.29,257.39 1017.59,256.65 " fill="none" id="Agency-AM" style="stroke:#4169E1;stroke-width:1.0;"/><polygon fill="#000000" points="1096.5975,246.3954,1110.1613,253.293,1111.6252,244.0031,1096.5975,246.3954" style="stroke:#000000;stroke-width:1.0;"/><text fill="#000000" font-family="sans-serif" font-size="20" lengthAdjust="spacing" textLength="35" x="1117.5" y="254.5645">has</text><text fill="#000000" font-family="sans-serif" font-size="20" lengthAdjust="spacing" textLength="13" x="1186.0672" y="302.0239">1</text><text fill="#000000" font-family="sans-serif" font-size="20" lengthAdjust="spacing" textLength="13" x="1025.5899" y="276.0008">1</text></g><!--link AM to Agency--><g id="link_AM_Agency"><path codeLine="145" d="M981.1,279.51 C1007.84,289.88 1041.75,301.77 1073,309 C1116.62,319.09 1166.11,325.18 1206.96,328.82 " fill="none" id="AM-Agency" style="stroke:#4169E1;stroke-width:1.0;"/><polygon fill="#000000" points="1088.8159,298.347,1075.6798,290.6661,1073.6738,299.8542,1088.8159,298.347" style="stroke:#000000;stroke-width:1.0;"/><text fill="#000000" font-family="sans-serif" font-size="20" lengthAdjust="spacing" textLength="82" x="1094" y="303.5645">manage</text><text fill="#000000" font-family="sans-serif" font-size="20" lengthAdjust="spacing" textLength="13" x="979.2725" y="306.277">1</text><text fill="#000000" font-family="sans-serif" font-size="20" lengthAdjust="spacing" textLength="13" x="1186.0503" y="347.9222">1</text></g><!--link Agency to Address--><g id="link_Agency_Address"><path codeLine="119" d="M1350.75,266.51 C1398.31,218.33 1470.66,162 1549,162 C1549,162 1549,162 2435,162 C2556.1,162 2693.39,119.69 2766.21,93.75 " fill="none" id="Agency-Address" style="stroke:#4169E1;stroke-width:1.0;"/><polygon fill="#000000" points="1889.4411,148.6714,1874.5058,145.7571,1875.6452,155.0924,1889.4411,148.6714" style="stroke:#000000;stroke-width:1.0;"/><text fill="#000000" font-family="sans-serif" font-size="20" lengthAdjust="spacing" textLength="35" x="1894.5" y="156.5645">has</text><text fill="#000000" font-family="sans-serif" font-size="20" lengthAdjust="spacing" textLength="13" x="1342.8441" y="254.2927">1</text><text fill="#000000" font-family="sans-serif" font-size="20" lengthAdjust="spacing" textLength="13" x="2745.6135" y="90.3635">1</text></g><!--link SA to Employee--><g id="link_SA_Employee"><path codeLine="122" d="M840.77,382.53 C823.65,386.03 805.82,389.38 789,392 C725.67,401.87 654.3,409.15 597.01,414.07 " fill="none" id="SA-Employee" style="stroke:#4169E1;stroke-width:1.0;"/><polygon fill="#000000" points="658.5661,380.6672,673.522,383.4735,672.3152,374.1467,658.5661,380.6672" style="stroke:#000000;stroke-width:1.0;"/><text fill="#000000" font-family="sans-serif" font-size="20" lengthAdjust="spacing" textLength="77" x="679.5" y="386.5645">register</text><text fill="#000000" font-family="sans-serif" font-size="20" lengthAdjust="spacing" textLength="13" x="802.9829" y="409.3021">1</text><text fill="#000000" font-family="sans-serif" font-size="20" lengthAdjust="spacing" textLength="10" x="605.0615" y="432.9107">*</text></g><!--link Employee to SA--><g id="link_Employee_SA"><path codeLine="138" d="M550.21,389.47 C573.6,378.83 600.89,368.37 627,363 C689.6,350.11 761.03,349.23 818.81,351.87 " fill="none" id="Employee-SA" style="stroke:#4169E1;stroke-width:1.0;"/><polygon fill="#000000" points="679.4228,337.5316,664.4385,334.881,665.7423,344.1948,679.4228,337.5316" style="stroke:#000000;stroke-width:1.0;"/><text fill="#000000" font-family="sans-serif" font-size="20" lengthAdjust="spacing" textLength="67" x="684.5" y="345.5645">can be</text><text fill="#000000" font-family="sans-serif" font-size="20" lengthAdjust="spacing" textLength="13" x="547.925" y="376.7097">1</text><text fill="#000000" font-family="sans-serif" font-size="20" lengthAdjust="spacing" textLength="10" x="800.9363" y="370.5265">*</text></g><!--link SA to Agency--><g id="link_SA_Agency"><path codeLine="123" d="M1043.2,374.27 C1085.32,376.65 1133.57,376.67 1177,370 C1186.78,368.5 1196.88,366.31 1206.83,363.75 " fill="none" id="SA-Agency" style="stroke:#4169E1;stroke-width:1.0;"/><polygon fill="#000000" points="1091.4835,357.1274,1076.7395,353.3633,1077.3429,362.7485,1091.4835,357.1274" style="stroke:#000000;stroke-width:1.0;"/><text fill="#000000" font-family="sans-serif" font-size="20" lengthAdjust="spacing" textLength="77" x="1096.5" y="364.5645">register</text><text fill="#000000" font-family="sans-serif" font-size="20" lengthAdjust="spacing" textLength="13" x="1051.1752" y="394.4315">1</text><text fill="#000000" font-family="sans-serif" font-size="20" lengthAdjust="spacing" textLength="10" x="1189.038" y="385.854">*</text></g><!--link Commission to Anouncement--><g id="link_Commission_Anouncement"><path codeLine="126" d="M1824.22,520 C1870.12,520 1932.12,520 1979.92,520 " fill="none" id="Commission-Anouncement" style="stroke:#4169E1;stroke-width:1.0;"/><polygon fill="#000000" points="1873.5,507.6406,1887.9721,512.3429,1887.9721,502.9383,1873.5,507.6406" style="stroke:#000000;stroke-width:1.0;"/><text fill="#000000" font-family="sans-serif" font-size="20" lengthAdjust="spacing" textLength="35" x="1894.5" y="514.5645">has</text><text fill="#000000" font-family="sans-serif" font-size="20" lengthAdjust="spacing" textLength="13" x="1832.0097" y="539.8462">1</text><text fill="#000000" font-family="sans-serif" font-size="20" lengthAdjust="spacing" textLength="13" x="1959.0371" y="539.718">1</text></g><!--link Agent to Commission--><g id="link_Agent_Commission"><path codeLine="127" d="M1583.42,458.41 C1613.17,468.87 1658.09,484.67 1694.97,497.65 " fill="none" id="Agent-Commission" style="stroke:#4169E1;stroke-width:1.0;"/><polygon fill="#000000" points="1628.5467,460.2953,1616.455,451.0571,1613.3342,459.9288,1628.5467,460.2953" style="stroke:#000000;stroke-width:1.0;"/><text fill="#000000" font-family="sans-serif" font-size="20" lengthAdjust="spacing" textLength="30" x="1634" y="464.5645">set</text><text fill="#000000" font-family="sans-serif" font-size="20" lengthAdjust="spacing" textLength="13" x="1591.0298" y="481.3417">1</text><text fill="#000000" font-family="sans-serif" font-size="20" lengthAdjust="spacing" textLength="35" x="1651.8952" y="515.1679">1..*</text></g><!--link Agent to Visit--><g id="link_Agent_Visit"><path codeLine="128" d="M1557.97,467.66 C1567.51,493.86 1586.51,539.53 1613,572 C1639.39,604.35 1806.15,742.65 1854,759 C1906.94,777.08 2040,801.06 2569,715 C2652.92,701.35 2749.83,672.57 2793.92,658.74 " fill="none" id="Agent-Visit" style="stroke:#4169E1;stroke-width:1.0;"/><polygon fill="#000000" points="2019.9061,759.8629,2006.3223,753.0047,2004.8854,762.2988,2019.9061,759.8629" style="stroke:#000000;stroke-width:1.0;"/><text fill="#000000" font-family="sans-serif" font-size="20" lengthAdjust="spacing" textLength="77" x="2025" y="765.5645">confirm</text><text fill="#000000" font-family="sans-serif" font-size="20" lengthAdjust="spacing" textLength="13" x="1545.3467" y="494.4655">1</text><text fill="#000000" font-family="sans-serif" font-size="20" lengthAdjust="spacing" textLength="35" x="2751.0693" y="680.8518">1..*</text></g><!--link Agent to Prediction--><g id="link_Agent_Prediction"><path codeLine="130" d="M1559.12,426.48 C1581.82,372.92 1651.38,233 1758.5,233 C1758.5,233 1758.5,233 2214,233 C2410.87,233 2493.74,150.52 2656,262 C2682.22,280.02 2660.26,308.3 2686,327 C2812.71,419.06 3011.06,405.31 3104.91,392.11 " fill="none" id="Agent-Prediction" style="stroke:#4169E1;stroke-width:1.0;"/><polygon fill="#000000" points="2184.998,220.4628,2170.4249,216.0834,2170.634,225.4856,2184.998,220.4628" style="stroke:#000000;stroke-width:1.0;"/><text fill="#000000" font-family="sans-serif" font-size="20" lengthAdjust="spacing" textLength="66" x="2190" y="227.5645">makes</text><text fill="#000000" font-family="sans-serif" font-size="20" lengthAdjust="spacing" textLength="13" x="1546.7914" y="413.8393">1</text><text fill="#000000" font-family="sans-serif" font-size="20" lengthAdjust="spacing" textLength="10" x="3087.037" y="413.4922">*</text></g><!--link Agent to Order--><g id="link_Agent_Order"><path codeLine="131" d="M1566,467.65 C1589.6,498.39 1638.59,555.4 1695,582 C1946.8,700.72 2297.63,686.88 2402.34,679.53 " fill="none" id="Agent-Order" style="stroke:#4169E1;stroke-width:1.0;"/><polygon fill="#000000" points="1854.245,623.676,1867.1191,631.7884,1869.4287,622.6718,1854.245,623.676" style="stroke:#000000;stroke-width:1.0;"/><text fill="#000000" font-family="sans-serif" font-size="20" lengthAdjust="spacing" textLength="74" x="1875" y="632.5645">send to</text><text fill="#000000" font-family="sans-serif" font-size="20" lengthAdjust="spacing" textLength="13" x="1571.7656" y="494.4529">1</text><text fill="#000000" font-family="sans-serif" font-size="20" lengthAdjust="spacing" textLength="10" x="2384.3206" y="701.1635">*</text></g><!--link Employee to Agent--><g id="link_Employee_Agent"><path codeLine="135" d="M571.69,454.58 C589.67,460.39 608.77,465.65 627,469 C970.3,532.11 1397.51,471.78 1516.78,452.48 " fill="none" id="Employee-Agent" style="stroke:#4169E1;stroke-width:1.0;"/><polygon fill="#000000" points="1096.5,477.6228,1082.0174,472.9527,1082.0383,482.3573,1096.5,477.6228" style="stroke:#000000;stroke-width:1.0;"/><text fill="#000000" font-family="sans-serif" font-size="20" lengthAdjust="spacing" textLength="67" x="1101.5" y="484.5645">can be</text><text fill="#000000" font-family="sans-serif" font-size="20" lengthAdjust="spacing" textLength="13" x="571.5574" y="480.5047">1</text><text fill="#000000" font-family="sans-serif" font-size="20" lengthAdjust="spacing" textLength="10" x="1498.8971" y="474.5466">*</text></g><!--link Employee to AM--><g id="link_Employee_AM"><path codeLine="136" d="M522.66,389.31 C549.1,365.87 587.71,335.46 627,318 C696.42,287.15 781.86,272.37 844.3,265.33 " fill="none" id="Employee-AM" style="stroke:#4169E1;stroke-width:1.0;"/><polygon fill="#000000" points="678.9646,258.7633,663.7697,259.5808,667.1522,268.356,678.9646,258.7633" style="stroke:#000000;stroke-width:1.0;"/><text fill="#000000" font-family="sans-serif" font-size="20" lengthAdjust="spacing" textLength="67" x="684.5" y="268.5645">can be</text><text fill="#000000" font-family="sans-serif" font-size="20" lengthAdjust="spacing" textLength="13" x="514.9442" y="376.7932">1</text><text fill="#000000" font-family="sans-serif" font-size="20" lengthAdjust="spacing" textLength="10" x="826.4195" y="285.4267">*</text></g><!--link Employee to NM--><g id="link_Employee_NM"><path codeLine="137" d="M597.27,452.16 C607.26,454.12 617.28,455.79 627,457 C698,465.83 778.9,459.95 839.24,452.48 " fill="none" id="Employee-NM" style="stroke:#4169E1;stroke-width:1.0;"/><polygon fill="#000000" points="679.5,444.6512,665.0341,439.9298,665.0217,449.3343,679.5,444.6512" style="stroke:#000000;stroke-width:1.0;"/><text fill="#000000" font-family="sans-serif" font-size="20" lengthAdjust="spacing" textLength="67" x="684.5" y="451.5645">can be</text><text fill="#000000" font-family="sans-serif" font-size="20" lengthAdjust="spacing" textLength="13" x="605.0819" y="473.5476">1</text><text fill="#000000" font-family="sans-serif" font-size="20" lengthAdjust="spacing" textLength="10" x="821.5294" y="473.1147">*</text></g><!--link User to PO--><g id="link_User_PO"><path codeLine="141" d="M229.25,553.37 C344.98,572.66 524.1,602.52 626.97,619.66 " fill="none" id="User-PO" style="stroke:#4169E1;stroke-width:1.0;"/><polygon fill="#000000" points="274.8911,547.9559,261.389,540.9383,259.8428,550.2149,274.8911,547.9559" style="stroke:#000000;stroke-width:1.0;"/><text fill="#000000" font-family="sans-serif" font-size="20" lengthAdjust="spacing" textLength="67" x="280" y="553.5645">can be</text><text fill="#000000" font-family="sans-serif" font-size="20" lengthAdjust="spacing" textLength="13" x="237.1613" y="573.9518">1</text><text fill="#000000" font-family="sans-serif" font-size="20" lengthAdjust="spacing" textLength="10" x="609.0391" y="638.0548">*</text></g><!--link User to Client--><g id="link_User_Client"><path codeLine="142" d="M175.9,625.91 C239.58,715.16 351.71,838 486.5,838 C486.5,838 486.5,838 1551,838 C1613.53,838 1686.31,845.76 1726.93,850.8 " fill="none" id="User-Client" style="stroke:#4169E1;stroke-width:1.0;"/><polygon fill="#000000" points="1096.4172,826.7886,1082.7696,820.0583,1081.4201,829.3655,1096.4172,826.7886" style="stroke:#000000;stroke-width:1.0;"/><text fill="#000000" font-family="sans-serif" font-size="20" lengthAdjust="spacing" textLength="67" x="1101.5" y="832.5645">can be</text><text fill="#000000" font-family="sans-serif" font-size="20" lengthAdjust="spacing" textLength="13" x="166.6747" y="652.0067">1</text><text fill="#000000" font-family="sans-serif" font-size="20" lengthAdjust="spacing" textLength="13" x="1705.8718" y="870.8701">1</text></g><!--link User to Address--><g id="link_User_Address"><path codeLine="143" d="M145.73,444.47 C191.59,310.22 298.94,74 486.5,74 C486.5,74 486.5,74 2435,74 C2553.52,74 2692.68,74 2766.27,74 " fill="none" id="User-Address" style="stroke:#4169E1;stroke-width:1.0;"/><polygon fill="#000000" points="1537.4212,60.5208,1522.4334,57.8906,1523.7498,67.2026,1537.4212,60.5208" style="stroke:#000000;stroke-width:1.0;"/><text fill="#000000" font-family="sans-serif" font-size="20" lengthAdjust="spacing" textLength="35" x="1542.5" y="68.5645">has</text><text fill="#000000" font-family="sans-serif" font-size="20" lengthAdjust="spacing" textLength="13" x="134.4218" y="431.9164">1</text><text fill="#000000" font-family="sans-serif" font-size="20" lengthAdjust="spacing" textLength="32" x="2726.3231" y="68.2275">1,0</text></g><!--link NM to Agency--><g id="link_NM_Agency"><path codeLine="148" d="M1022.74,437.16 C1069.95,434.28 1127.89,426.86 1177,409 C1187.05,405.34 1197.1,400.66 1206.85,395.41 " fill="none" id="NM-Agency" style="stroke:#4169E1;stroke-width:1.0;"/><polygon fill="#000000" points="1088.8019,394.8714,1073.6482,393.4861,1075.728,402.6578,1088.8019,394.8714" style="stroke:#000000;stroke-width:1.0;"/><text fill="#000000" font-family="sans-serif" font-size="20" lengthAdjust="spacing" textLength="82" x="1094" y="403.5645">manage</text><text fill="#000000" font-family="sans-serif" font-size="20" lengthAdjust="spacing" textLength="13" x="1030.5685" y="456.5739">1</text><text fill="#000000" font-family="sans-serif" font-size="20" lengthAdjust="spacing" textLength="35" x="1163.9526" y="419.5518">1..*</text></g><!--link Client to Visit--><g id="link_Client_Visit"><path codeLine="151" d="M1792.16,860.06 C1911.89,877.7 2345.86,927.98 2656,786 C2716.42,758.34 2772.6,702.04 2800.18,671.62 " fill="none" id="Client-Visit" style="stroke:#4169E1;stroke-width:1.0;"/><polygon fill="#000000" points="2172.8638,863.1706,2157.774,861.2077,2159.5022,870.4521,2172.8638,863.1706" style="stroke:#000000;stroke-width:1.0;"/><text fill="#000000" font-family="sans-serif" font-size="20" lengthAdjust="spacing" textLength="90" x="2178" y="871.5645">schedule</text><text fill="#000000" font-family="sans-serif" font-size="20" lengthAdjust="spacing" textLength="13" x="1800.2368" y="882.04">1</text><text fill="#000000" font-family="sans-serif" font-size="20" lengthAdjust="spacing" textLength="13" x="2797.023" y="698.4152">1</text></g><!--link Client to Anouncement--><g id="link_Client_Anouncement"><path codeLine="152" d="M1792.01,840.01 C1832.88,819.26 1904.34,778.33 1950,726 C1992.28,677.54 2021.92,608.55 2038.1,564.03 " fill="none" id="Client-Anouncement" style="stroke:#4169E1;stroke-width:1.0;"/><polygon fill="#000000" points="1887.3243,707.6697,1874.1829,715.3417,1881.2022,721.6007,1887.3243,707.6697" style="stroke:#000000;stroke-width:1.0;"/><text fill="#000000" font-family="sans-serif" font-size="20" lengthAdjust="spacing" textLength="34" x="1895" y="720.5645">see</text><text fill="#000000" font-family="sans-serif" font-size="20" lengthAdjust="spacing" textLength="13" x="1800.0558" y="830.1109">1</text><text fill="#000000" font-family="sans-serif" font-size="20" lengthAdjust="spacing" textLength="10" x="2036.6375" y="590.4341">*</text></g><!--link Client to Order--><g id="link_Client_Order"><path codeLine="153" d="M1792.07,856.68 C1856.38,859.24 2006.66,860.78 2127,828 C2234.46,798.73 2349.11,731.01 2402.44,697.11 " fill="none" id="Client-Order" style="stroke:#4169E1;stroke-width:1.0;"/><polygon fill="#000000" points="2020.2399,813.6172,2005.049,812.7282,2007.4277,821.827,2020.2399,813.6172" style="stroke:#000000;stroke-width:1.0;"/><text fill="#000000" font-family="sans-serif" font-size="20" lengthAdjust="spacing" textLength="76" x="2025.5" y="822.5645">request</text><text fill="#000000" font-family="sans-serif" font-size="20" lengthAdjust="spacing" textLength="13" x="1800.1282" y="857.155">1</text><text fill="#000000" font-family="sans-serif" font-size="20" lengthAdjust="spacing" textLength="35" x="2398.6614" y="724.1696">1..*</text></g><!--link Property to Visit--><g id="link_Property_Visit"><path codeLine="156" d="M2569.22,530.83 C2651.59,570.62 2749.54,617.93 2793.96,639.39 " fill="none" id="Property-Visit" style="stroke:#4169E1;stroke-width:1.0;"/><polygon fill="#000000" points="2614.2036,538.1203,2603.2175,527.5913,2599.1269,536.0597,2614.2036,538.1203" style="stroke:#000000;stroke-width:1.0;"/><text fill="#000000" font-family="sans-serif" font-size="20" lengthAdjust="spacing" textLength="35" x="2620" y="541.5645">has</text><text fill="#000000" font-family="sans-serif" font-size="20" lengthAdjust="spacing" textLength="13" x="2576.9703" y="553.585">1</text><text fill="#000000" font-family="sans-serif" font-size="20" lengthAdjust="spacing" textLength="10" x="2775.8868" y="628.7436">*</text></g><!--link Property to Address--><g id="link_Property_Address"><path codeLine="157" d="M2551.51,386.83 C2557.68,381.08 2563.56,375.12 2569,369 C2621.73,309.66 2617.66,282.51 2656,213 C2669.45,188.62 2666.99,178.34 2686,158 C2708.72,133.69 2739.92,113.41 2766.29,98.87 " fill="none" id="Property-Address" style="stroke:#4169E1;stroke-width:1.0;"/><polygon fill="#000000" points="2611.783,194.2279,2599.3612,203.0172,2606.8997,208.64,2611.783,194.2279" style="stroke:#000000;stroke-width:1.0;"/><text fill="#000000" font-family="sans-serif" font-size="20" lengthAdjust="spacing" textLength="35" x="2620" y="207.5645">has</text><text fill="#000000" font-family="sans-serif" font-size="20" lengthAdjust="spacing" textLength="13" x="2548.3968" y="374.3456">1</text><text fill="#000000" font-family="sans-serif" font-size="20" lengthAdjust="spacing" textLength="13" x="2745.3337" y="122.3133">1</text></g><!--link Visit to Prediction--><g id="link_Visit_Prediction"><path codeLine="160" d="M2844,631.94 C2901,586.68 3045.05,472.29 3116.3,415.72 " fill="none" id="Visit-Prediction" style="stroke:#4169E1;stroke-width:1.0;"/><polygon fill="#000000" points="2996.2651,459.6658,2982.0073,464.9828,2987.8555,472.3479,2996.2651,459.6658" style="stroke:#000000;stroke-width:1.0;"/><text fill="#000000" font-family="sans-serif" font-size="20" lengthAdjust="spacing" textLength="35" x="3003" y="471.5645">has</text><text fill="#000000" font-family="sans-serif" font-size="20" lengthAdjust="spacing" textLength="13" x="2852.0719" y="648.5672">1</text><text fill="#000000" font-family="sans-serif" font-size="20" lengthAdjust="spacing" textLength="13" x="3095.2341" y="441.6679">1</text></g><!--link Anouncement to Sale--><g id="link_Anouncement_Sale"><path codeLine="163" d="M2127.02,535.04 C2168.59,543.7 2221.75,554.86 2269,565 C2319.02,575.74 2377.53,588.67 2409.39,595.74 " fill="none" id="Anouncement-Sale" style="stroke:#4169E1;stroke-width:1.0;"/><polygon fill="#000000" points="2184.3213,530.3219,2171.1607,522.6831,2169.1842,531.8777,2184.3213,530.3219" style="stroke:#000000;stroke-width:1.0;"/><text fill="#000000" font-family="sans-serif" font-size="20" lengthAdjust="spacing" textLength="67" x="2189.5" y="535.5645">can be</text><text fill="#000000" font-family="sans-serif" font-size="20" lengthAdjust="spacing" textLength="13" x="2134.897" y="556.2385">1</text><text fill="#000000" font-family="sans-serif" font-size="20" lengthAdjust="spacing" textLength="13" x="2388.4181" y="615.9035">1</text></g><!--link Anouncement to Lease--><g id="link_Anouncement_Lease"><path codeLine="164" d="M2119.72,475.86 C2132.02,467.78 2144.84,459.54 2157,452 C2218.95,413.61 2233.18,401.28 2299,370 C2312.49,363.59 2327.02,357.38 2341.35,351.63 " fill="none" id="Anouncement-Lease" style="stroke:#4169E1;stroke-width:1.0;"/><polygon fill="#000000" points="2183.4785,369.729,2168.5551,372.7034,2173.1535,380.907,2183.4785,369.729" style="stroke:#000000;stroke-width:1.0;"/><text fill="#000000" font-family="sans-serif" font-size="20" lengthAdjust="spacing" textLength="67" x="2189.5" y="380.5645">can be</text><text fill="#000000" font-family="sans-serif" font-size="20" lengthAdjust="spacing" textLength="13" x="2115.4914" y="463.2845">1</text><text fill="#000000" font-family="sans-serif" font-size="20" lengthAdjust="spacing" textLength="13" x="2314.407" y="376.4508">1</text></g><!--link Anouncement to Order--><g id="link_Anouncement_Order"><path codeLine="165" d="M2104.68,564.08 C2120.6,576.39 2138.81,588.89 2157,598 C2203.29,621.19 2219.32,615.45 2269,630 C2282.36,633.91 2285.64,635.1 2299,639 C2334.4,649.33 2375.18,660.84 2402.36,668.45 " fill="none" id="Anouncement-Order" style="stroke:#4169E1;stroke-width:1.0;"/><polygon fill="#000000" points="2184.9506,582.9937,2197.0518,592.2195,2200.1634,583.3446,2184.9506,582.9937" style="stroke:#000000;stroke-width:1.0;"/><text fill="#000000" font-family="sans-serif" font-size="20" lengthAdjust="spacing" textLength="35" x="2205.5" y="592.5645">has</text><text fill="#000000" font-family="sans-serif" font-size="20" lengthAdjust="spacing" textLength="13" x="2097.9631" y="590.4912">1</text><text fill="#000000" font-family="sans-serif" font-size="20" lengthAdjust="spacing" textLength="13" x="2381.4936" y="659.8791">1</text></g><!--reverse link Property to Land--><g id="link_Property_Land"><path codeLine="167" d="M2589.39,466 C2665.47,466 2749.68,466 2791.46,466 " fill="none" id="Property-backto-Land" style="stroke:#4169E1;stroke-width:1.0;"/><polygon fill="none" points="2589.22,473,2569.22,466,2589.22,459,2589.22,473" style="stroke:#4169E1;stroke-width:1.0;"/><text fill="#000000" font-family="sans-serif" font-size="20" lengthAdjust="spacing" textLength="34" x="2610.5" y="460.5645">is a</text></g><!--reverse link Property to Home--><g id="link_Property_Home"><path codeLine="168" d="M2587.51,405.87 C2610.95,394.89 2634.49,382.82 2656,370 C2685.01,352.71 2714.68,330.88 2740.57,310.22 " fill="none" id="Property-backto-Home" style="stroke:#4169E1;stroke-width:1.0;"/><polygon fill="none" points="2590.31,412.28,2569.21,414.23,2584.49,399.55,2590.31,412.28" style="stroke:#4169E1;stroke-width:1.0;"/><text fill="#000000" font-family="sans-serif" font-size="20" lengthAdjust="spacing" textLength="34" x="2610.5" y="364.5645">is a</text></g><!--reverse link Home to Apartment--><g id="link_Home_Apartment"><path codeLine="169" d="M2972.3,262.4 C3018.21,268.25 3065.77,274.31 3101.19,278.82 " fill="none" id="Home-backto-Apartment" style="stroke:#4169E1;stroke-width:1.0;"/><polygon fill="none" points="2971.38,269.34,2952.42,259.87,2973.14,255.45,2971.38,269.34" style="stroke:#4169E1;stroke-width:1.0;"/><text fill="#000000" font-family="sans-serif" font-size="20" lengthAdjust="spacing" textLength="34" x="2993.5" y="259.5645">is a</text></g><!--reverse link Home to House--><g id="link_Home_House"><path codeLine="170" d="M2972.29,212.32 C3005.34,205.66 3039.24,198.83 3068.86,192.86 " fill="none" id="Home-backto-House" style="stroke:#4169E1;stroke-width:1.0;"/><polygon fill="none" points="2973.41,219.23,2952.42,216.32,2970.64,205.51,2973.41,219.23" style="stroke:#4169E1;stroke-width:1.0;"/><text fill="#000000" font-family="sans-serif" font-size="20" lengthAdjust="spacing" textLength="34" x="2993.5" y="193.5645">is a</text></g><!--reverse link User to Employee--><g id="link_User_Employee"><path codeLine="172" d="M248.48,495.19 C291.77,481.88 339.47,467.21 380.73,454.52 " fill="none" id="User-backto-Employee" style="stroke:#4169E1;stroke-width:1.0;"/><polygon fill="none" points="250.44,501.91,229.26,501.1,246.32,488.53,250.44,501.91" style="stroke:#4169E1;stroke-width:1.0;"/><text fill="#000000" font-family="sans-serif" font-size="20" lengthAdjust="spacing" textLength="34" x="286.5" y="459.5645">is a</text></g><!--SRC=[ZLPBZzis4BxpLn2-62XgOzlZ8bZ0SNQH0ki7QhHtcXnBX2LI8Qbid6p-UqUaI5EoZ4ONavoFy_ncQ7kMgc66rPNcPn1Km8crbNlHoXtaTw1_Ff2vZHXQQwLvQNGDr9aMo5NIC7vc1HpSfG9gW3kcYYe7s989_IPLGK-iif1hhQG2Tsc0QkDAJIeuEUeqDR8e7HMoqoQroc_mYbcxSix8O-lWBwwLT_Q1b580vT9mjEtNDQ1AOSby4RyNYHvQz1DzIOTaf9l-81I_ZnXLONIhn5fNsj0zC5xkszF9IrV6wBSW-5jVMFMnmfJuQze8C6F9pym9_DvNt6bZtnUZZypV_x600X8ywJQzEmkgM0tzaak7CQirCsBRraSm_RbZtmPxg9ci-dLJQWK3QOCctj3Tphltvxgfz0KWsOu7oJwMMF7B9x2oKCnNvMSFNQ74_I1fFrjvADqmXPVCZ3B4R3mW8WuNww2cAr5B9Qqp3FFXSOTLhcWB3Zqy3pHjWwRv-xgIQ3SvFDiRtO1n5xfxKprslwEvsOY88NNCYz4POBHVOp-40CDMe8DCSNX1yg-bkwpHwZM9fNQwCAmfxTNlprsNfBhvdEzEHn16wzgEZvahfyxtp20lYmDsL_BnAvQJ7Iju_jBAfaOtaiLNfaIMk1NosTN3gdpMhONer95Py0h2LggI7QNhTB_gKporhNh-rcZR6hXgLjWI78Bk7kQO0rp5Z1Z9WGx8mLF6fOWmaH7f7aC3VwEcVwMLUK1hNTVIMbGGStsjvrSMsYuL7eJqeoH2Hu1TrxKqpw0G1gpjqSXG0DUxZjrteV6y2psilyk6Qt7Dr2kmb6-SKiXnxZwrPjWw1rP1eFFYziDRAWn0Uoiayo7V2N9zziUCBXRuirp-DijBHH_x29_8F3icEIHTdgK-mMibTj7JFPnlV0HPKA8Rsqy4rVjwatu4Z3pgyRtI4GJbcoYaKz9GadIVpAUc23ciqYKqcSRO8pvD1O9y4eQOtjG04G9n92DPxieWjPqx7qW8RXXmThlBakkZ7iCyin611Jz9Kz-WRehPjCTAsXBi53GZ-oEjsNaQ5VXmhHr6W477T96Kjr6Ul9jCqIEWqadGvegu0zbk_ay9rYT3a7dt41B_6kPnxdBGG8e_uNMuZ_ZzuPPHy-73HJ2M4TizJMelzewD7YYotKnGVdmfk4Pw3pCBaGUMbo3QgaEFG3TCi3212gPZXGryQS4wRpfsDaajdccEvaCoRX2JBUZla71pC44o3aRiBqoURXxcDRi3yxFr5t0n1Q53fsRieWI33ry1KpAoJ4duW7_MwB9xPb6Tj1J_B8o5_jKFGX8suJmznbD2_of70LbwZWP9Dhcyy3y0]--></g></svg>