<?xml version="1.0" encoding="UTF-8" standalone="no"?><svg xmlns="http://www.w3.org/2000/svg" xmlns:xlink="http://www.w3.org/1999/xlink" contentStyleType="text/css" height="890px" preserveAspectRatio="none" style="width:1589px;height:890px;background:#FFFFFF;" version="1.1" viewBox="0 0 1589 890" width="1589px" zoomAndPan="magnify"><defs/><g><!--class Employee--><g id="elem_Employee"><rect codeLine="16" fill="#FFDAB9" height="64.5625" id="Employee" rx="2.5" ry="2.5" style="stroke:#4169E1;stroke-width:0.5;" width="219" x="661.5" y="591"/><text fill="#000000" font-family="sans-serif" font-size="20" lengthAdjust="spacing" textLength="99" x="721.5" y="614.5645">Employee</text><line style="stroke:#4169E1;stroke-width:0.5;" x1="662.5" x2="879.5" y1="624.2813" y2="624.2813"/><rect fill="none" height="6" style="stroke:#C82930;stroke-width:1.0;" width="6" x="669.5" y="638.4219"/><text fill="#000000" font-family="sans-serif" font-size="20" lengthAdjust="spacing" textLength="192" x="682.5" y="646.8457">agencyDesignation</text></g><!--class Person--><g id="elem_Person"><rect codeLine="20" fill="#FFDAB9" height="180.9688" id="Person" rx="2.5" ry="2.5" style="stroke:#4169E1;stroke-width:0.5;" width="194" x="1038" y="703"/><text fill="#000000" font-family="sans-serif" font-size="20" lengthAdjust="spacing" textLength="67" x="1101.5" y="726.5645">Person</text><line style="stroke:#4169E1;stroke-width:0.5;" x1="1039" x2="1231" y1="736.2813" y2="736.2813"/><rect fill="none" height="6" style="stroke:#C82930;stroke-width:1.0;" width="6" x="1046" y="750.4219"/><text fill="#000000" font-family="sans-serif" font-size="20" lengthAdjust="spacing" textLength="57" x="1059" y="758.8457">name</text><rect fill="none" height="6" style="stroke:#C82930;stroke-width:1.0;" width="6" x="1046" y="773.7031"/><text fill="#000000" font-family="sans-serif" font-size="20" lengthAdjust="spacing" textLength="167" x="1059" y="782.127">passportNumber</text><rect fill="none" height="6" style="stroke:#C82930;stroke-width:1.0;" width="6" x="1046" y="796.9844"/><text fill="#000000" font-family="sans-serif" font-size="20" lengthAdjust="spacing" textLength="112" x="1059" y="805.4082">taxNumber</text><rect fill="none" height="6" style="stroke:#C82930;stroke-width:1.0;" width="6" x="1046" y="820.2656"/><text fill="#000000" font-family="sans-serif" font-size="20" lengthAdjust="spacing" textLength="56" x="1059" y="828.6895">email</text><rect fill="none" height="6" style="stroke:#C82930;stroke-width:1.0;" width="6" x="1046" y="843.5469"/><text fill="#000000" font-family="sans-serif" font-size="20" lengthAdjust="spacing" textLength="144" x="1059" y="851.9707">phoneNumber</text><rect fill="none" height="6" style="stroke:#C82930;stroke-width:1.0;" width="6" x="1046" y="866.8281"/><text fill="#000000" font-family="sans-serif" font-size="20" lengthAdjust="spacing" textLength="95" x="1059" y="875.252">password</text></g><!--class PO--><g id="elem_PO"><rect codeLine="28" fill="#FFDAB9" height="41.2813" id="PO" rx="2.5" ry="2.5" style="stroke:#4169E1;stroke-width:0.5;" width="162" x="7" y="728"/><text fill="#000000" font-family="sans-serif" font-size="20" lengthAdjust="spacing" textLength="156" x="10" y="751.5645">Property Owner</text><line style="stroke:#4169E1;stroke-width:0.5;" x1="8" x2="168" y1="761.2813" y2="761.2813"/></g><!--class Property--><g id="elem_Property"><rect codeLine="31" fill="#FFDAB9" height="134.4063" id="Property" rx="2.5" ry="2.5" style="stroke:#4169E1;stroke-width:0.5;" width="270" x="636" y="177.5"/><text fill="#000000" font-family="sans-serif" font-size="20" lengthAdjust="spacing" textLength="84" x="729" y="201.0645">Property</text><line style="stroke:#4169E1;stroke-width:0.5;" x1="637" x2="905" y1="210.7813" y2="210.7813"/><rect fill="none" height="6" style="stroke:#C82930;stroke-width:1.0;" width="6" x="644" y="224.9219"/><text fill="#000000" font-family="sans-serif" font-size="20" lengthAdjust="spacing" textLength="44" x="657" y="233.3457">type</text><rect fill="none" height="6" style="stroke:#C82930;stroke-width:1.0;" width="6" x="644" y="248.2031"/><text fill="#000000" font-family="sans-serif" font-size="20" lengthAdjust="spacing" textLength="44" x="657" y="256.627">area</text><rect fill="none" height="6" style="stroke:#C82930;stroke-width:1.0;" width="6" x="644" y="271.4844"/><text fill="#000000" font-family="sans-serif" font-size="20" lengthAdjust="spacing" textLength="243" x="657" y="279.9082">distanceFromCityCenter</text><rect fill="none" height="6" style="stroke:#C82930;stroke-width:1.0;" width="6" x="644" y="294.7656"/><text fill="#000000" font-family="sans-serif" font-size="20" lengthAdjust="spacing" textLength="127" x="657" y="303.1895">photographs</text></g><!--class Home--><g id="elem_Home"><rect codeLine="38" fill="#FFDAB9" height="134.4063" id="Home" rx="2.5" ry="2.5" style="stroke:#4169E1;stroke-width:0.5;" width="266" x="1002" y="14.5"/><text fill="#000000" font-family="sans-serif" font-size="20" lengthAdjust="spacing" textLength="59" x="1105.5" y="38.0645">Home</text><line style="stroke:#4169E1;stroke-width:0.5;" x1="1003" x2="1267" y1="47.7813" y2="47.7813"/><rect fill="none" height="6" style="stroke:#C82930;stroke-width:1.0;" width="6" x="1010" y="61.9219"/><text fill="#000000" font-family="sans-serif" font-size="20" lengthAdjust="spacing" textLength="202" x="1023" y="70.3457">numberOfbedrooms</text><rect fill="none" height="6" style="stroke:#C82930;stroke-width:1.0;" width="6" x="1010" y="85.2031"/><text fill="#000000" font-family="sans-serif" font-size="20" lengthAdjust="spacing" textLength="210" x="1023" y="93.627">numberOfbathrooms</text><rect fill="none" height="6" style="stroke:#C82930;stroke-width:1.0;" width="6" x="1010" y="108.4844"/><text fill="#000000" font-family="sans-serif" font-size="20" lengthAdjust="spacing" textLength="239" x="1023" y="116.9082">numberOfParkingSpace</text><rect fill="none" height="6" style="stroke:#C82930;stroke-width:1.0;" width="6" x="1010" y="131.7656"/><text fill="#000000" font-family="sans-serif" font-size="20" lengthAdjust="spacing" textLength="201" x="1023" y="140.1895">availableEquipment</text></g><!--class Land--><g id="elem_Land"><rect codeLine="44" fill="#FFDAB9" height="41.2813" id="Land" rx="2.5" ry="2.5" style="stroke:#4169E1;stroke-width:0.5;" width="55" x="1107.5" y="184"/><text fill="#000000" font-family="sans-serif" font-size="20" lengthAdjust="spacing" textLength="49" x="1110.5" y="207.5645">Land</text><line style="stroke:#4169E1;stroke-width:0.5;" x1="1108.5" x2="1161.5" y1="217.2813" y2="217.2813"/></g><!--class Apartment--><g id="elem_Apartment"><rect codeLine="47" fill="#FFDAB9" height="41.2813" id="Apartment" rx="2.5" ry="2.5" style="stroke:#4169E1;stroke-width:0.5;" width="114" x="1435.5" y="153"/><text fill="#000000" font-family="sans-serif" font-size="20" lengthAdjust="spacing" textLength="108" x="1438.5" y="176.5645">Apartment</text><line style="stroke:#4169E1;stroke-width:0.5;" x1="1436.5" x2="1548.5" y1="186.2813" y2="186.2813"/></g><!--class House--><g id="elem_House"><rect codeLine="50" fill="#FFDAB9" height="111.125" id="House" rx="2.5" ry="2.5" style="stroke:#4169E1;stroke-width:0.5;" width="179" x="1403" y="7"/><text fill="#000000" font-family="sans-serif" font-size="20" lengthAdjust="spacing" textLength="62" x="1461.5" y="30.5645">House</text><line style="stroke:#4169E1;stroke-width:0.5;" x1="1404" x2="1581" y1="40.2813" y2="40.2813"/><rect fill="none" height="6" style="stroke:#C82930;stroke-width:1.0;" width="6" x="1411" y="54.4219"/><text fill="#000000" font-family="sans-serif" font-size="20" lengthAdjust="spacing" textLength="100" x="1424" y="62.8457">basement</text><rect fill="none" height="6" style="stroke:#C82930;stroke-width:1.0;" width="6" x="1411" y="77.7031"/><text fill="#000000" font-family="sans-serif" font-size="20" lengthAdjust="spacing" textLength="152" x="1424" y="86.127">inhabitableLoft</text><rect fill="none" height="6" style="stroke:#C82930;stroke-width:1.0;" width="6" x="1411" y="100.9844"/><text fill="#000000" font-family="sans-serif" font-size="20" lengthAdjust="spacing" textLength="128" x="1424" y="109.4082">sunExposure</text></g><!--class Advertisement--><g id="elem_Advertisement"><rect codeLine="55" fill="#FFDAB9" height="64.5625" id="Advertisement" rx="2.5" ry="2.5" style="stroke:#4169E1;stroke-width:0.5;" width="153" x="327" y="547"/><text fill="#000000" font-family="sans-serif" font-size="20" lengthAdjust="spacing" textLength="147" x="330" y="570.5645">Advertisement</text><line style="stroke:#4169E1;stroke-width:0.5;" x1="328" x2="479" y1="580.2813" y2="580.2813"/><rect fill="none" height="6" style="stroke:#C82930;stroke-width:1.0;" width="6" x="335" y="594.4219"/><text fill="#000000" font-family="sans-serif" font-size="20" lengthAdjust="spacing" textLength="50" x="348" y="602.8457">state</text></g><!--class Sale--><g id="elem_Sale"><rect codeLine="58" fill="#FFDAB9" height="64.5625" id="Sale" rx="2.5" ry="2.5" style="stroke:#4169E1;stroke-width:0.5;" width="161" x="1054.5" y="479"/><text fill="#000000" font-family="sans-serif" font-size="20" lengthAdjust="spacing" textLength="43" x="1113.5" y="502.5645">Sale</text><line style="stroke:#4169E1;stroke-width:0.5;" x1="1055.5" x2="1214.5" y1="512.2813" y2="512.2813"/><rect fill="none" height="6" style="stroke:#C82930;stroke-width:1.0;" width="6" x="1062.5" y="526.4219"/><text fill="#000000" font-family="sans-serif" font-size="20" lengthAdjust="spacing" textLength="134" x="1075.5" y="534.8457">propertyPrice</text></g><!--class Rent--><g id="elem_Rent"><rect codeLine="61" fill="#FFDAB9" height="87.8438" id="Rent" rx="2.5" ry="2.5" style="stroke:#4169E1;stroke-width:0.5;" width="197" x="1036.5" y="355.5"/><text fill="#000000" font-family="sans-serif" font-size="20" lengthAdjust="spacing" textLength="47" x="1111.5" y="379.0645">Rent</text><line style="stroke:#4169E1;stroke-width:0.5;" x1="1037.5" x2="1232.5" y1="388.7813" y2="388.7813"/><rect fill="none" height="6" style="stroke:#C82930;stroke-width:1.0;" width="6" x="1044.5" y="402.9219"/><text fill="#000000" font-family="sans-serif" font-size="20" lengthAdjust="spacing" textLength="132" x="1057.5" y="411.3457">propertyRent</text><rect fill="none" height="6" style="stroke:#C82930;stroke-width:1.0;" width="6" x="1044.5" y="426.2031"/><text fill="#000000" font-family="sans-serif" font-size="20" lengthAdjust="spacing" textLength="170" x="1057.5" y="434.627">contractDuration</text></g><!--class Deal--><g id="elem_Deal"><rect codeLine="65" fill="#FFDAB9" height="64.5625" id="Deal" rx="2.5" ry="2.5" style="stroke:#4169E1;stroke-width:0.5;" width="118" x="712" y="479"/><text fill="#000000" font-family="sans-serif" font-size="20" lengthAdjust="spacing" textLength="45" x="748.5" y="502.5645">Deal</text><line style="stroke:#4169E1;stroke-width:0.5;" x1="713" x2="829" y1="512.2813" y2="512.2813"/><rect fill="none" height="6" style="stroke:#C82930;stroke-width:1.0;" width="6" x="720" y="526.4219"/><text fill="#000000" font-family="sans-serif" font-size="20" lengthAdjust="spacing" textLength="91" x="733" y="534.8457">dealType</text></g><!--class Address--><g id="elem_Address"><rect codeLine="68" fill="#FFDAB9" height="134.4063" id="Address" rx="2.5" ry="2.5" style="stroke:#4169E1;stroke-width:0.5;" width="105" x="1440" y="238.5"/><text fill="#000000" font-family="sans-serif" font-size="20" lengthAdjust="spacing" textLength="80" x="1452.5" y="262.0645">Address</text><line style="stroke:#4169E1;stroke-width:0.5;" x1="1441" x2="1544" y1="271.7813" y2="271.7813"/><rect fill="none" height="6" style="stroke:#C82930;stroke-width:1.0;" width="6" x="1448" y="285.9219"/><text fill="#000000" font-family="sans-serif" font-size="20" lengthAdjust="spacing" textLength="58" x="1461" y="294.3457">street</text><rect fill="none" height="6" style="stroke:#C82930;stroke-width:1.0;" width="6" x="1448" y="309.2031"/><text fill="#000000" font-family="sans-serif" font-size="20" lengthAdjust="spacing" textLength="36" x="1461" y="317.627">city</text><rect fill="none" height="6" style="stroke:#C82930;stroke-width:1.0;" width="6" x="1448" y="332.4844"/><text fill="#000000" font-family="sans-serif" font-size="20" lengthAdjust="spacing" textLength="50" x="1461" y="340.9082">state</text><rect fill="none" height="6" style="stroke:#C82930;stroke-width:1.0;" width="6" x="1448" y="355.7656"/><text fill="#000000" font-family="sans-serif" font-size="20" lengthAdjust="spacing" textLength="78" x="1461" y="364.1895">zipcode</text></g><!--class Role--><g id="elem_Role"><rect codeLine="74" fill="#FFDAB9" height="87.8438" id="Role" rx="2.5" ry="2.5" style="stroke:#4169E1;stroke-width:0.5;" width="139" x="1065.5" y="579.5"/><text fill="#000000" font-family="sans-serif" font-size="20" lengthAdjust="spacing" textLength="44" x="1113" y="603.0645">Role</text><line style="stroke:#4169E1;stroke-width:0.5;" x1="1066.5" x2="1203.5" y1="612.7813" y2="612.7813"/><rect fill="none" height="6" style="stroke:#C82930;stroke-width:1.0;" width="6" x="1073.5" y="626.9219"/><text fill="#000000" font-family="sans-serif" font-size="20" lengthAdjust="spacing" textLength="19" x="1086.5" y="635.3457">id</text><rect fill="none" height="6" style="stroke:#C82930;stroke-width:1.0;" width="6" x="1073.5" y="650.2031"/><text fill="#000000" font-family="sans-serif" font-size="20" lengthAdjust="spacing" textLength="112" x="1086.5" y="658.627">description</text></g><!--link PO to Advertisement--><g id="link_PO_Advertisement"><path codeLine="80" d="M127.13,727.95 C180.65,699.09 278.61,646.29 342.11,612.06 " fill="none" id="PO-Advertisement" style="stroke:#4169E1;stroke-width:1.0;"/><polygon fill="#000000" points="214.042,623.3445,199.0716,626.0726,203.5342,634.3509,214.042,623.3445" style="stroke:#000000;stroke-width:1.0;"/><text fill="#000000" font-family="sans-serif" font-size="20" lengthAdjust="spacing" textLength="76" x="220" y="634.0645">request</text><text fill="#000000" font-family="sans-serif" font-size="20" lengthAdjust="spacing" textLength="13" x="122.4914" y="715.3016">1</text><text fill="#000000" font-family="sans-serif" font-size="20" lengthAdjust="spacing" textLength="13" x="317.4414" y="638.259">1</text></g><!--reverse link Person to Address--><g id="link_Person_Address"><path codeLine="81" d="M1241.81,711.96 C1251.08,703.11 1259.98,693.89 1268,684.5 C1351.95,586.18 1422.58,452.2 1460.82,372.7 " fill="none" id="Person-backto-Address" style="stroke:#4169E1;stroke-width:1.0;"/><polygon fill="#4169E1" points="1232.03,721.04,1239.1489,719.8905,1240.8259,712.8771,1233.707,714.0266,1232.03,721.04" style="stroke:#4169E1;stroke-width:1.0;"/><polygon fill="#000000" points="1310.3389,518.4194,1298.5392,528.0278,1306.4404,533.1285,1310.3389,518.4194" style="stroke:#000000;stroke-width:1.0;"/><text fill="#000000" font-family="sans-serif" font-size="20" lengthAdjust="spacing" textLength="53" x="1319" y="532.0645">has a</text><text fill="#000000" font-family="sans-serif" font-size="20" lengthAdjust="spacing" textLength="13" x="1239.9565" y="734.9492">1</text><text fill="#000000" font-family="sans-serif" font-size="20" lengthAdjust="spacing" textLength="13" x="1443.8827" y="399.3739">1</text></g><!--link PO to Person--><g id="link_PO_Person"><path codeLine="82" d="M169.26,751.96 C352.75,759.86 803.49,779.27 1017.53,788.48 " fill="none" id="PO-to-Person" style="stroke:#4169E1;stroke-width:1.0;"/><polygon fill="none" points="1018.12,781.5,1037.8,789.36,1017.51,795.49,1018.12,781.5" style="stroke:#4169E1;stroke-width:1.0;"/><text fill="#000000" font-family="sans-serif" font-size="20" lengthAdjust="spacing" textLength="34" x="541" y="761.0645">is a</text></g><!--link Advertisement to Deal--><g id="link_Advertisement_Deal"><path codeLine="84" d="M480.23,565.41 C549.02,552.61 649.06,534 711.77,522.33 " fill="none" id="Advertisement-Deal" style="stroke:#4169E1;stroke-width:1.0;"/><polygon fill="#000000" points="536.365,529.6773,521.2769,527.7016,522.9972,536.9474,536.365,529.6773" style="stroke:#000000;stroke-width:1.0;"/><text fill="#000000" font-family="sans-serif" font-size="20" lengthAdjust="spacing" textLength="53" x="541.5" y="538.0645">has a</text><text fill="#000000" font-family="sans-serif" font-size="20" lengthAdjust="spacing" textLength="13" x="487.9028" y="583.7688">1</text><text fill="#000000" font-family="sans-serif" font-size="20" lengthAdjust="spacing" textLength="13" x="691.17" y="543.5179">1</text></g><!--link Advertisement to Property--><g id="link_Advertisement_Property"><path codeLine="85" d="M440.21,546.77 C499.4,492.52 618.99,382.91 696.73,311.66 " fill="none" id="Advertisement-Property" style="stroke:#4169E1;stroke-width:1.0;"/><polygon fill="#000000" points="543.3976,384.7352,529.5515,391.0471,535.9059,397.9802,543.3976,384.7352" style="stroke:#000000;stroke-width:1.0;"/><text fill="#000000" font-family="sans-serif" font-size="20" lengthAdjust="spacing" textLength="35" x="550.5" y="397.0645">has</text><text fill="#000000" font-family="sans-serif" font-size="20" lengthAdjust="spacing" textLength="13" x="432.78" y="534.2458">1</text><text fill="#000000" font-family="sans-serif" font-size="20" lengthAdjust="spacing" textLength="13" x="675.4006" y="338.3298">1</text></g><!--link Advertisement to Employee--><g id="link_Advertisement_Employee"><path codeLine="86" d="M480.23,588.62 C532.61,594.92 603.1,603.41 661.44,610.43 " fill="none" id="Advertisement-Employee" style="stroke:#4169E1;stroke-width:1.0;"/><polygon fill="#000000" points="525.9427,582.0966,512.1361,575.6986,511.0123,585.0358,525.9427,582.0966" style="stroke:#000000;stroke-width:1.0;"/><text fill="#000000" font-family="sans-serif" font-size="20" lengthAdjust="spacing" textLength="74" x="531" y="588.0645">send to</text><text fill="#000000" font-family="sans-serif" font-size="20" lengthAdjust="spacing" textLength="13" x="487.9028" y="609.1185">1</text><text fill="#000000" font-family="sans-serif" font-size="20" lengthAdjust="spacing" textLength="13" x="640.6422" y="628.9131">1</text></g><!--reverse link Property to Address--><g id="link_Property_Address"><path codeLine="89" d="M919.04,259.69 C946.6,262.4 975.17,265.12 1002,267.5 C1161.41,281.66 1350.29,295.49 1439.67,301.86 " fill="none" id="Property-backto-Address" style="stroke:#4169E1;stroke-width:1.0;"/><polygon fill="#4169E1" points="906.04,258.41,911.6202,262.9774,917.9825,259.5832,912.4023,255.0157,906.04,258.41" style="stroke:#4169E1;stroke-width:1.0;"/><polygon fill="#000000" points="1113.4739,255.7865,1099.4286,249.9312,1098.6694,259.305,1113.4739,255.7865" style="stroke:#000000;stroke-width:1.0;"/><text fill="#000000" font-family="sans-serif" font-size="20" lengthAdjust="spacing" textLength="53" x="1118.5" y="262.0645">has a</text><text fill="#000000" font-family="sans-serif" font-size="20" lengthAdjust="spacing" textLength="13" x="913.7805" y="278.3606">1</text><text fill="#000000" font-family="sans-serif" font-size="20" lengthAdjust="spacing" textLength="13" x="1419.0683" y="321.4235">1</text></g><!--reverse link Deal to Rent--><g id="link_Deal_Rent"><path codeLine="92" d="M849.38,487.56 C904.05,470.65 977.73,447.85 1036.43,429.69 " fill="none" id="Deal-backto-Rent" style="stroke:#4169E1;stroke-width:1.0;"/><polygon fill="none" points="851.34,494.28,830.16,493.51,847.2,480.91,851.34,494.28" style="stroke:#4169E1;stroke-width:1.0;"/></g><!--reverse link Deal to Sale--><g id="link_Deal_Sale"><path codeLine="93" d="M850.48,511.5 C910.8,511.5 993.79,511.5 1054.39,511.5 " fill="none" id="Deal-backto-Sale" style="stroke:#4169E1;stroke-width:1.0;"/><polygon fill="none" points="850.16,518.5,830.16,511.5,850.16,504.5,850.16,518.5" style="stroke:#4169E1;stroke-width:1.0;"/></g><!--reverse link Property to Land--><g id="link_Property_Land"><path codeLine="96" d="M926.17,227.46 C994.85,219.88 1068.8,211.7 1107.28,207.45 " fill="none" id="Property-backto-Land" style="stroke:#4169E1;stroke-width:1.0;"/><polygon fill="none" points="926.67,234.45,906.02,229.69,925.13,220.54,926.67,234.45" style="stroke:#4169E1;stroke-width:1.0;"/><text fill="#000000" font-family="sans-serif" font-size="20" lengthAdjust="spacing" textLength="34" x="937" y="218.0645">is a</text></g><!--reverse link Property to Home--><g id="link_Property_Home"><path codeLine="97" d="M924.57,175.8 C950.26,164.23 976.74,152.31 1001.87,141 " fill="none" id="Property-backto-Home" style="stroke:#4169E1;stroke-width:1.0;"/><polygon fill="none" points="927.13,182.32,906.02,184.15,921.39,169.56,927.13,182.32" style="stroke:#4169E1;stroke-width:1.0;"/><text fill="#000000" font-family="sans-serif" font-size="20" lengthAdjust="spacing" textLength="34" x="937" y="153.0645">is a</text></g><!--reverse link Home to Apartment--><g id="link_Home_Apartment"><path codeLine="98" d="M1287.6,120.73 C1339.92,134.27 1395.33,148.61 1435.16,158.92 " fill="none" id="Home-backto-Apartment" style="stroke:#4169E1;stroke-width:1.0;"/><polygon fill="none" points="1285.73,127.48,1268.12,115.69,1289.24,113.93,1285.73,127.48" style="stroke:#4169E1;stroke-width:1.0;"/><text fill="#000000" font-family="sans-serif" font-size="20" lengthAdjust="spacing" textLength="34" x="1318.5" y="120.0645">is a</text></g><!--reverse link Home to House--><g id="link_Home_House"><path codeLine="99" d="M1288.1,73.37 C1327.26,71.28 1368.12,69.09 1402.86,67.24 " fill="none" id="Home-backto-House" style="stroke:#4169E1;stroke-width:1.0;"/><polygon fill="none" points="1288.47,80.36,1268.12,74.44,1287.72,66.38,1288.47,80.36" style="stroke:#4169E1;stroke-width:1.0;"/><text fill="#000000" font-family="sans-serif" font-size="20" lengthAdjust="spacing" textLength="34" x="1318.5" y="64.0645">is a</text></g><!--link Employee to Person--><g id="link_Employee_Person"><path codeLine="101" d="M841.37,656.08 C891.77,679.75 961.13,712.32 1019.66,739.81 " fill="none" id="Employee-to-Person" style="stroke:#4169E1;stroke-width:1.0;"/><polygon fill="none" points="1022.72,733.51,1037.85,748.35,1016.77,746.18,1022.72,733.51" style="stroke:#4169E1;stroke-width:1.0;"/><text fill="#000000" font-family="sans-serif" font-size="20" lengthAdjust="spacing" textLength="34" x="937" y="698.0645">is a</text></g><!--reverse link Employee to Role--><g id="link_Employee_Role"><path codeLine="103" d="M893.8,623.5 C950.99,623.5 1017.03,623.5 1065.38,623.5 " fill="none" id="Employee-backto-Role" style="stroke:#4169E1;stroke-width:1.0;"/><polygon fill="#4169E1" points="880.61,623.5,886.61,627.5,892.61,623.5,886.61,619.5,880.61,623.5" style="stroke:#4169E1;stroke-width:1.0;"/></g><!--SRC=[VLJRRjim37tNLmXvCJ30HRV7OYYGzO8DA9QWsGye4cCBbIMNafkcxVvzb6pPRffL3ub57XqUKgJyWxQjGD4O9nz0SGKxqPbmwspOw1VWtyvPuJE6DyuwMQDhW0ViW4sULiW7KS4c70nm11c4hSmSu6kXt5xRYk-4yJ1dDTf2EBJ07ORQCGExm8FZgAiwSAKZctPsVa8QuVqo1DJRBi0lwMmIUyvghO1BZP9Yf-y6Y59vLfHvtMfIw4adQHcDx8YRlp9EwmTbLQ7hhBfonY5VWv3rkjljadU9wFQzuzuTXFbXg2Jfc4C5UEpvEnD1wsqfWqF_LXujrWkuQLhZ3W2za99gQ-NX6hokh4Zb8BuUkGRqpWwAIokQNaJPahEbalxkcYrWRmlYURw5HcWpe6jdOUwBn_UKo1XdiKRN0eO3N-qju88BYhsYk9EI31Yqy7YhmwT047puLjfJVqYufKwwqk5m1JRai9o415UXQ6i_CV-CBPTPRLAvscr1eNEDFpQBK9-ohmNI9LSRQjLHr1FbBxO6RXuxtJOaOunu9woQfRQavWWHy3eNrVbyFtmhF2I2VgjjBROwHEuxjyjMtzcRvzRv3c5YLazKCzsVpcnKdp11DiBaEErGuZLgEG7kPqSpuduKG-CHKCXmtM7VEldODGWpLbNHva-yhqcOGXX78Mf2W9o9f6lZSx5vyw9RwTHCcXkrSwt6M5wYRWSnHVbnaMRRpxt_w6H5wa16tRVukk1bcVxU5P9Vq2lqs84F_98D4n91NqPmdzm5hwcDHGIjYEZjCe_J1TVHpeftjEnza5dqLCk9xR-uSKPwx2V8_08GqeDLyKcyPAp816na-ZmlLYHfBFr-f-ScTSjy7zkBdRo5iWQa9gxWb8-TZGeIpLaScR5knyuqmRsJzPlUFWxMAMUQiEnWKqK-NjJS6siHsuupnlu1]--></g></svg>