<?xml version="1.0" encoding="UTF-8" standalone="no"?><svg xmlns="http://www.w3.org/2000/svg" xmlns:xlink="http://www.w3.org/1999/xlink" contentStyleType="text/css" height="1189px" preserveAspectRatio="none" style="width:621px;height:1189px;background:#FFFFFF;" version="1.1" viewBox="0 0 621 1189" width="621px" zoomAndPan="magnify"><defs/><g><text fill="#000000" font-family="sans-serif" font-size="14" font-weight="bold" lengthAdjust="spacing" textLength="71" x="268" y="22.9951">US08-DM</text><!--class Agent--><g id="elem_Agent"><rect codeLine="15" fill="#FFDAB9" height="41.2813" id="Agent" rx="2.5" ry="2.5" style="stroke:#4169E1;stroke-width:0.5;" width="66" x="446" y="460.2969"/><text fill="#000000" font-family="sans-serif" font-size="20" lengthAdjust="spacing" textLength="60" x="449" y="483.8613">Agent</text><line style="stroke:#4169E1;stroke-width:0.5;" x1="447" x2="511" y1="493.5781" y2="493.5781"/></g><!--class Announcement--><g id="elem_Announcement"><rect codeLine="18" fill="#FFDAB9" height="87.8438" id="Announcement" rx="2.5" ry="2.5" style="stroke:#4169E1;stroke-width:0.5;" width="160" x="399" y="609.2969"/><text fill="#000000" font-family="sans-serif" font-size="20" lengthAdjust="spacing" textLength="154" x="402" y="632.8613">Announcement</text><line style="stroke:#4169E1;stroke-width:0.5;" x1="400" x2="558" y1="642.5781" y2="642.5781"/><rect fill="none" height="6" style="stroke:#C82930;stroke-width:1.0;" width="6" x="407" y="656.7188"/><text fill="#000000" font-family="sans-serif" font-size="20" lengthAdjust="spacing" textLength="50" x="420" y="665.1426">state</text><rect fill="none" height="6" style="stroke:#C82930;stroke-width:1.0;" width="6" x="407" y="680"/><text fill="#000000" font-family="sans-serif" font-size="20" lengthAdjust="spacing" textLength="50" x="420" y="688.4238">price</text></g><!--class Property--><g id="elem_Property"><rect codeLine="23" fill="#FFDAB9" height="157.6875" id="Property" rx="2.5" ry="2.5" style="stroke:#4169E1;stroke-width:0.5;" width="270" x="201" y="805.2969"/><text fill="#000000" font-family="sans-serif" font-size="20" lengthAdjust="spacing" textLength="84" x="294" y="828.8613">Property</text><line style="stroke:#4169E1;stroke-width:0.5;" x1="202" x2="470" y1="838.5781" y2="838.5781"/><rect fill="none" height="6" style="stroke:#C82930;stroke-width:1.0;" width="6" x="209" y="852.7188"/><text fill="#000000" font-family="sans-serif" font-size="20" lengthAdjust="spacing" textLength="44" x="222" y="861.1426">type</text><rect fill="none" height="6" style="stroke:#C82930;stroke-width:1.0;" width="6" x="209" y="876"/><text fill="#000000" font-family="sans-serif" font-size="20" lengthAdjust="spacing" textLength="44" x="222" y="884.4238">area</text><rect fill="none" height="6" style="stroke:#C82930;stroke-width:1.0;" width="6" x="209" y="899.2813"/><text fill="#000000" font-family="sans-serif" font-size="20" lengthAdjust="spacing" textLength="80" x="222" y="907.7051">location</text><rect fill="none" height="6" style="stroke:#C82930;stroke-width:1.0;" width="6" x="209" y="922.5625"/><text fill="#000000" font-family="sans-serif" font-size="20" lengthAdjust="spacing" textLength="243" x="222" y="930.9863">distanceFromCityCenter</text><rect fill="none" height="6" style="stroke:#C82930;stroke-width:1.0;" width="6" x="209" y="945.8438"/><text fill="#000000" font-family="sans-serif" font-size="20" lengthAdjust="spacing" textLength="127" x="222" y="954.2676">photographs</text></g><!--class Home--><g id="elem_Home"><rect codeLine="31" fill="#FFDAB9" height="134.4063" id="Home" rx="2.5" ry="2.5" style="stroke:#4169E1;stroke-width:0.5;" width="266" x="7" y="586.2969"/><text fill="#000000" font-family="sans-serif" font-size="20" lengthAdjust="spacing" textLength="59" x="110.5" y="609.8613">Home</text><line style="stroke:#4169E1;stroke-width:0.5;" x1="8" x2="272" y1="619.5781" y2="619.5781"/><rect fill="none" height="6" style="stroke:#C82930;stroke-width:1.0;" width="6" x="15" y="633.7188"/><text fill="#000000" font-family="sans-serif" font-size="20" lengthAdjust="spacing" textLength="202" x="28" y="642.1426">numberOfbedrooms</text><rect fill="none" height="6" style="stroke:#C82930;stroke-width:1.0;" width="6" x="15" y="657"/><text fill="#000000" font-family="sans-serif" font-size="20" lengthAdjust="spacing" textLength="210" x="28" y="665.4238">numberOfbathrooms</text><rect fill="none" height="6" style="stroke:#C82930;stroke-width:1.0;" width="6" x="15" y="680.2813"/><text fill="#000000" font-family="sans-serif" font-size="20" lengthAdjust="spacing" textLength="239" x="28" y="688.7051">numberOfParkingSpace</text><rect fill="none" height="6" style="stroke:#C82930;stroke-width:1.0;" width="6" x="15" y="703.5625"/><text fill="#000000" font-family="sans-serif" font-size="20" lengthAdjust="spacing" textLength="201" x="28" y="711.9863">availableEquipment</text></g><!--class Land--><g id="elem_Land"><rect codeLine="38" fill="#FFDAB9" height="41.2813" id="Land" rx="2.5" ry="2.5" style="stroke:#4169E1;stroke-width:0.5;" width="55" x="308.5" y="632.7969"/><text fill="#000000" font-family="sans-serif" font-size="20" lengthAdjust="spacing" textLength="49" x="311.5" y="656.3613">Land</text><line style="stroke:#4169E1;stroke-width:0.5;" x1="309.5" x2="362.5" y1="666.0781" y2="666.0781"/></g><!--class Address--><g id="elem_Address"><rect codeLine="41" fill="#FFDAB9" height="134.4063" id="Address" rx="2.5" ry="2.5" style="stroke:#4169E1;stroke-width:0.5;" width="105" x="283.5" y="1048.2969"/><text fill="#000000" font-family="sans-serif" font-size="20" lengthAdjust="spacing" textLength="80" x="296" y="1071.8613">Address</text><line style="stroke:#4169E1;stroke-width:0.5;" x1="284.5" x2="387.5" y1="1081.5781" y2="1081.5781"/><rect fill="none" height="6" style="stroke:#C82930;stroke-width:1.0;" width="6" x="291.5" y="1095.7188"/><text fill="#000000" font-family="sans-serif" font-size="20" lengthAdjust="spacing" textLength="58" x="304.5" y="1104.1426">street</text><rect fill="none" height="6" style="stroke:#C82930;stroke-width:1.0;" width="6" x="291.5" y="1119"/><text fill="#000000" font-family="sans-serif" font-size="20" lengthAdjust="spacing" textLength="36" x="304.5" y="1127.4238">city</text><rect fill="none" height="6" style="stroke:#C82930;stroke-width:1.0;" width="6" x="291.5" y="1142.2813"/><text fill="#000000" font-family="sans-serif" font-size="20" lengthAdjust="spacing" textLength="50" x="304.5" y="1150.7051">state</text><rect fill="none" height="6" style="stroke:#C82930;stroke-width:1.0;" width="6" x="291.5" y="1165.5625"/><text fill="#000000" font-family="sans-serif" font-size="20" lengthAdjust="spacing" textLength="78" x="304.5" y="1173.9863">zipcode</text></g><!--class Employee--><g id="elem_Employee"><rect codeLine="48" fill="#FFDAB9" height="64.5625" id="Employee" rx="2.5" ry="2.5" style="stroke:#4169E1;stroke-width:0.5;" width="219" x="369.5" y="310.2969"/><text fill="#000000" font-family="sans-serif" font-size="20" lengthAdjust="spacing" textLength="99" x="429.5" y="333.8613">Employee</text><line style="stroke:#4169E1;stroke-width:0.5;" x1="370.5" x2="587.5" y1="343.5781" y2="343.5781"/><rect fill="none" height="6" style="stroke:#C82930;stroke-width:1.0;" width="6" x="377.5" y="357.7188"/><text fill="#000000" font-family="sans-serif" font-size="20" lengthAdjust="spacing" textLength="192" x="390.5" y="366.1426">agencyDesignation</text></g><!--class User--><g id="elem_User"><rect codeLine="52" fill="#FFDAB9" height="180.9688" id="User" rx="2.5" ry="2.5" style="stroke:#4169E1;stroke-width:0.5;" width="222" x="368" y="44.2969"/><text fill="#000000" font-family="sans-serif" font-size="20" lengthAdjust="spacing" textLength="45" x="456.5" y="67.8613">User</text><line style="stroke:#4169E1;stroke-width:0.5;" x1="369" x2="589" y1="77.5781" y2="77.5781"/><rect fill="none" height="6" style="stroke:#C82930;stroke-width:1.0;" width="6" x="376" y="91.7188"/><text fill="#000000" font-family="sans-serif" font-size="20" lengthAdjust="spacing" textLength="57" x="389" y="100.1426">name</text><rect fill="none" height="6" style="stroke:#C82930;stroke-width:1.0;" width="6" x="376" y="115"/><text fill="#000000" font-family="sans-serif" font-size="20" lengthAdjust="spacing" textLength="195" x="389" y="123.4238">citizenCardNumber</text><rect fill="none" height="6" style="stroke:#C82930;stroke-width:1.0;" width="6" x="376" y="138.2813"/><text fill="#000000" font-family="sans-serif" font-size="20" lengthAdjust="spacing" textLength="112" x="389" y="146.7051">taxNumber</text><rect fill="none" height="6" style="stroke:#C82930;stroke-width:1.0;" width="6" x="376" y="161.5625"/><text fill="#000000" font-family="sans-serif" font-size="20" lengthAdjust="spacing" textLength="56" x="389" y="169.9863">email</text><rect fill="none" height="6" style="stroke:#C82930;stroke-width:1.0;" width="6" x="376" y="184.8438"/><text fill="#000000" font-family="sans-serif" font-size="20" lengthAdjust="spacing" textLength="144" x="389" y="193.2676">phoneNumber</text><rect fill="none" height="6" style="stroke:#C82930;stroke-width:1.0;" width="6" x="376" y="208.125"/><text fill="#000000" font-family="sans-serif" font-size="20" lengthAdjust="spacing" textLength="95" x="389" y="216.5488">password</text></g><!--reverse link User to Employee--><g id="link_User_Employee"><path codeLine="61" d="M479,245.7969 C479,269.3569 479,292.4169 479,310.0369 " fill="none" id="User-backto-Employee" style="stroke:#4169E1;stroke-width:1.0;"/><polygon fill="none" points="472,245.5569,479,225.5569,486,245.5569,472,245.5569" style="stroke:#4169E1;stroke-width:1.0;"/><text fill="#000000" font-family="sans-serif" font-size="20" lengthAdjust="spacing" textLength="34" x="480" y="274.8613">is a</text></g><!--reverse link Employee to Agent--><g id="link_Employee_Agent"><path codeLine="62" d="M479,395.4869 C479,418.1169 479,443.2969 479,460.2069 " fill="none" id="Employee-backto-Agent" style="stroke:#4169E1;stroke-width:1.0;"/><polygon fill="none" points="472,395.3369,479,375.3369,486,395.3369,472,395.3369" style="stroke:#4169E1;stroke-width:1.0;"/><text fill="#000000" font-family="sans-serif" font-size="20" lengthAdjust="spacing" textLength="34" x="480" y="424.8613">is a</text></g><!--link Agent to Announcement--><g id="link_Agent_Announcement"><path codeLine="63" d="M445.85,492.6469 C427.96,500.3869 407.46,512.7569 397,531.2969 C391.54,540.9769 393.15,545.8769 397,556.2969 C404.13,575.6269 417.08,593.7069 430.62,608.8469 " fill="none" id="Agent-Announcement" style="stroke:#4169E1;stroke-width:1.0;"/><polygon fill="#000000" points="403.9604,551.8697,410.5035,538.1313,401.1787,536.9092,403.9604,551.8697" style="stroke:#000000;stroke-width:1.0;"/><text fill="#000000" font-family="sans-serif" font-size="20" lengthAdjust="spacing" textLength="96" x="418" y="550.8613">publishes</text></g><!--link Announcement to Agent--><g id="link_Announcement_Agent"><path codeLine="68" d="M507.52,609.0269 C519.19,585.8869 528.07,556.9569 519,531.2969 C515.1,520.2569 507.57,509.8669 500.08,501.4969 " fill="none" id="Announcement-Agent" style="stroke:#4169E1;stroke-width:1.0;"/><polygon fill="#000000" points="530.4478,535.9566,526.7557,550.7188,536.1378,550.0696,530.4478,535.9566" style="stroke:#000000;stroke-width:1.0;"/><text fill="#000000" font-family="sans-serif" font-size="20" lengthAdjust="spacing" textLength="69" x="544" y="550.8613">sent to</text></g><!--link Announcement to Property--><g id="link_Announcement_Property"><path codeLine="64" d="M452.1,697.3669 C433.17,727.6869 407.29,769.1269 384.77,805.1969 " fill="none" id="Announcement-Property" style="stroke:#4169E1;stroke-width:1.0;"/><polygon fill="#000000" points="420.7629,769.7233,432.4165,759.9382,424.4393,754.9572,420.7629,769.7233" style="stroke:#000000;stroke-width:1.0;"/><text fill="#000000" font-family="sans-serif" font-size="20" lengthAdjust="spacing" textLength="53" x="438" y="769.8613">has a</text></g><!--reverse link Land to Property--><g id="link_Land_Property"><path codeLine="65" d="M336,693.9969 C336,724.5469 336,767.7369 336,805.1469 " fill="none" id="Land-backto-Property" style="stroke:#4169E1;stroke-width:1.0;"/><polygon fill="none" points="329,693.8169,336,673.8169,343,693.8169,329,693.8169" style="stroke:#4169E1;stroke-width:1.0;"/><text fill="#000000" font-family="sans-serif" font-size="20" lengthAdjust="spacing" textLength="34" x="337" y="769.8613">is a</text></g><!--reverse link Home to Property--><g id="link_Home_Property"><path codeLine="66" d="M209.75,735.7869 C229.04,758.3269 249.92,782.7269 269.04,805.0669 " fill="none" id="Home-backto-Property" style="stroke:#4169E1;stroke-width:1.0;"/><polygon fill="none" points="204.38,740.2769,196.69,720.5369,215.01,731.1769,204.38,740.2769" style="stroke:#4169E1;stroke-width:1.0;"/><text fill="#000000" font-family="sans-serif" font-size="20" lengthAdjust="spacing" textLength="34" x="239" y="769.8613">is a</text></g><!--link Property to Address--><g id="link_Property_Address"><path codeLine="67" d="M336,963.4669 C336,991.0669 336,1021.8069 336,1048.2969 " fill="none" id="Property-Address" style="stroke:#4169E1;stroke-width:1.0;"/><polygon fill="#000000" points="344,1013.9375,348.7023,999.4654,339.2977,999.4654,344,1013.9375" style="stroke:#000000;stroke-width:1.0;"/><text fill="#000000" font-family="sans-serif" font-size="20" lengthAdjust="spacing" textLength="53" x="357" y="1012.8613">has a</text></g><!--SRC=[TLBBRjim4BphAtZBIK7GKs4K0H8dHWvfQzJ81wp9jKIOuh9BggxIvj-x4gs7qrONaJl3cNt5e_K161f7-eX66Jn0wzA6VDhPLrGVReghE79KGvvqpTIWIjnYCIC1z14gtANEeMBK2NpbbeHOWw6JzPKwW8jO5BKrgBHbBRJXt62goSJYgXo_ZHMnA9BoR0ekDBM36DMlGibtBmbKJAqtQtB4QekWwsrxE0pe7JETCl2DEd3tJh8VdX4RvFV8Mv5i4k-NtSt7yk5pKMIdkmfz4h-tAU2zE6fiSboLaYsah5ogm5RZJDuo1UJK2R5KgGiZ3HZXV9GXGBBaprTZHKxaDzBnjKtTMcoGH_MQ4bKCeOwpnrC_cbxVjyqU-UjXZuQ9cdX-D8KXrV-ARu6bkzLEnZcbzmEiWxt3n- -j3NsbizqpU7FH3sCOXv6KCJ5YoXfQSi-dHNjURT1a5lrvR8AZ3Z4tKfR9w-u1ewryxib4V8d8kKXenYp5GjRLhu7Dbw6MSpp1puixDbBDt46F5sWG-PDiHEzrFTXy-bsMwdfARQLiL53CWG7FUp5Y-TO_krYFbGhjtjbOOrItnINMawVrMAaQHAWd3VtDAIpWR3EC-Z_O51YoE0zbeVkN-LX1x7-9rEqV]--></g></svg>